MeshVersionFormatted 2
Dimension 3

Vertices
951
-4.3626698803521588e-03 -1.8616664116798409e-01 0.0000000000000000e+00 1
-7.8184142166581524e-04 -1.8921421513393144e-01 0.0000000000000000e+00 1
3.0434064595697124e-03 -1.9127072025055117e-01 0.0000000000000000e+00 1
7.0898853929076949e-03 -1.9238382763419684e-01 0.0000000000000000e+00 1
1.1334407007901403e-02 -1.9260120840122180e-01 0.0000000000000000e+00 1
1.5753782934104107e-02 -1.9197053366797961e-01 0.0000000000000000e+00 1
2.0324824801069064e-02 -1.9053947455082371e-01 0.0000000000000000e+00 1
2.5024344238349559e-02 -1.8835570216610747e-01 0.0000000000000000e+00 1
2.9829152875498848e-02 -1.8546688763018435e-01 0.0000000000000000e+00 1
3.4716062342070211e-02 -1.8192070205940791e-01 0.0000000000000000e+00 1
3.9661884267616909e-02 -1.7776481657013138e-01 0.0000000000000000e+00 1
4.4643430281692216e-02 -1.7304690227870848e-01 0.0000000000000000e+00 1
4.9637512013849382e-02 -1.6781463030149241e-01 0.0000000000000000e+00 1
5.4620941093641712e-02 -1.6211567175483679e-01 0.0000000000000000e+00 1
5.9570529150622449e-02 -1.5599769775509503e-01 0.0000000000000000e+00 1
6.4463087814344872e-02 -1.4950837941862055e-01 0.0000000000000000e+00 1
6.9275428714362236e-02 -1.4269538786176680e-01 0.0000000000000000e+00 1
7.3984363480227827e-02 -1.3560639420088727e-01 0.0000000000000000e+00 1
7.8566703741494909e-02 -1.2828906955233535e-01 0.0000000000000000e+00 1
8.2999261127716717e-02 -1.2079108503246452e-01 0.0000000000000000e+00 1
8.7258847268446599e-02 -1.1316011175762825e-01 0.0000000000000000e+00 1
9.1322273793237735e-02 -1.0544382084417994e-01 0.0000000000000000e+00 1
9.5166352331643472e-02 -9.7689883408473094e-02 0.0000000000000000e+00 1
9.8767894513217047e-02 -8.9945970566861128e-02 0.0000000000000000e+00 1
1.0210371196751167e-01 -8.2259753435697511e-02 0.0000000000000000e+00 1
1.0515061632408071e-01 -7.4678903131335669e-02 0.0000000000000000e+00 1
1.0788541921247738e-01 -6.7251090770129085e-02 0.0000000000000000e+00 1
1.1028493226225497e-01 -6.0023987468431170e-02 0.0000000000000000e+00 1
1.1232596710296672e-01 -5.3045264342595384e-02 0.0000000000000000e+00 1
1.1398533536416594e-01 -4.6362592508975183e-02 0.0000000000000000e+00 1
1.1523984867540585e-01 -4.0023643083924011e-02 0.0000000000000000e+00 1
1.1606631866623976e-01 -3.4076087183795331e-02 0.0000000000000000e+00 1
1.1644155696622091e-01 -2.8567595924942582e-02 0.0000000000000000e+00 1
1.1634237520490262e-01 -2.3545840423719214e-02 0.0000000000000000e+00 1
1.1574558501183807e-01 -1.9058491796478678e-02 0.0000000000000000e+00 1
1.1448508152043002e-01 -1.3829380559829912e-02 0.0000000000000000e+00 1
1.1274221481558769e-01 -8.1354988936777686e-03 0.0000000000000000e+00 1
1.1054015898391648e-01 -2.0148624062772515e-03 0.0000000000000000e+00 1
1.0790208811202168e-01 4.4945132941166246e-03 0.0000000000000000e+00 1
1.0485117628650861e-01 1.1354612599248855e-02 0.0000000000000000e+00 1
1.0141059759398263e-01 1.8527419900864452e-02 0.0000000000000000e+00 1
9.7603526121049083e-02 2.5974919590708377e-02 0.0000000000000000e+00 1
9.3453135954313288e-02 3.3659096060525660e-02 0.0000000000000000e+00 1
8.8982601180380566e-02 4.1541933702061253e-02 0.0000000000000000e+00 1
8.4215095885856267e-02 4.9585416907060177e-02 0.0000000000000000e+00 1
7.9173794157345739e-02 5.7751530067267430e-02 0.0000000000000000e+00 1
7.3881870081454276e-02 6.6002257574427986e-02 0.0000000000000000e+00 1
6.8362497744787282e-02 7.4299583820286855e-02 0.0000000000000000e+00 1
6.2638851233949952e-02 8.2605493196588997e-02 0.0000000000000000e+00 1
5.6734104635547795e-02 9.0881970095079451e-02 0.0000000000000000e+00 1
5.0671432036186029e-02 9.9090998907503197e-02 0.0000000000000000e+00 1
4.4474007522470015e-02 1.0719456402560522e-01 0.0000000000000000e+00 1
3.8165005181005116e-02 1.1515464984113052e-01 0.0000000000000000e+00 1
3.1767599098396597e-02 1.2293324074582404e-01 0.0000000000000000e+00 1
2.5304963361249880e-02 1.3049232113143086e-01 0.0000000000000000e+00 1
1.8800272056170228e-02 1.3779387538969592e-01 0.0000000000000000e+00 1
1.2276699269762999e-02 1.4479988791236423e-01 0.0000000000000000e+00 1
5.7574190886335239e-03 1.5147234309118082e-01 0.0000000000000000e+00 1
-7.3439440061283737e-04 1.5777322531789054e-01 0.0000000000000000e+00 1
-7.1755671113707710e-03 1.6366451898423859e-01 0.0000000000000000e+00 1
-1.3542924957034956e-02 1.6910820848196978e-01 0.0000000000000000e+00 1
-1.9813293851000054e-02 1.7406627820282919e-01 0.0000000000000000e+00 1
-2.5963499706660724e-02 1.7850071253856184e-01 0.0000000000000000e+00 1
-3.1970368437411634e-02 1.8237349588091270e-01 0.0000000000000000e+00 1
-3.7810725956647431e-02 1.8564661262162674e-01 0.0000000000000000e+00 1
-4.3461398177762817e-02 1.8828204715244895e-01 0.0000000000000000e+00 1
-4.8899211014152441e-02 1.9024178386512433e-01 0.0000000000000000e+00 1
-5.4100990379210977e-02 1.9148780715139790e-01 0.0000000000000000e+00 1
-5.9043562186333075e-02 1.9198210140301464e-01 0.0000000000000000e+00 1
-6.3703752348913401e-02 1.9168665101171950e-01 0.0000000000000000e+00 1
-6.8058386780346647e-02 1.9056344036925757e-01 0.0000000000000000e+00 1
-7.2084291394027472e-02 1.8857445386737376e-01 0.0000000000000000e+00 1
-7.5758292103350500e-02 1.8568167589781306e-01 0.0000000000000000e+00 1
-7.9057214821710464e-02 1.8184709085232054e-01 0.0000000000000000e+00 1
-8.2502411292917632e-02 1.7661538144109112e-01 0.0000000000000000e+00 1
-8.5623334758926750e-02 1.7097677448136805e-01 0.0000000000000000e+00 1
-8.8426419461386879e-02 1.6495031449496197e-01 0.0000000000000000e+00 1
-9.0918099641947109e-02 1.5855504600368364e-01 0.0000000000000000e+00 1
-9.3104809542256500e-02 1.5181001352934367e-01 0.0000000000000000e+00 1
-9.4992983403964198e-02 1.4473426159375291e-01 0.0000000000000000e+00 1
-9.6589055468719182e-02 1.3734683471872186e-01 0.0000000000000000e+00 1
-9.7899459978170539e-02 1.2966677742606134e-01 0.0000000000000000e+00 1
-9.8930631173967443e-02 1.2171313423758207e-01 0.0000000000000000e+00 1
-9.9689003297758871e-02 1.1350494967509459e-01 0.0000000000000000e+00 1
-1.0018101059119389e-01 1.0506126826040969e-01 0.0000000000000000e+00 1
-1.0041308729592172e-01 9.6401134515338160e-02 0.0000000000000000e+00 1
-1.0039166765359120e-01 8.7543592961690467e-02 0.0000000000000000e+00 1
-1.0012318590585165e-01 7.8507688121277536e-02 0.0000000000000000e+00 1
-9.9614076294351983e-02 6.9312464515909916e-02 0.0000000000000000e+00 1
-9.8870773060741324e-02 5.9976966667398331e-02 0.0000000000000000e+00 1
-9.7899710446668814e-02 5.0520239097553564e-02 0.0000000000000000e+00 1
-9.6707322693783432e-02 4.0961326328186172e-02 0.0000000000000000e+00 1
-9.5300044043734294e-02 3.1319272881106933e-02 0.0000000000000000e+00 1
-9.3684308738170491e-02 2.1613123278126548e-02 0.0000000000000000e+00 1
-9.1866551018741055e-02 1.1861922041055638e-02 0.0000000000000000e+00 1
-8.9853205127095104e-02 2.0847136917049669e-03 0.0000000000000000e+00 1
-8.7650705304881726e-02 -7.6994572481147985e-03 0.0000000000000000e+00 1
-8.5265485793749957e-02 -1.7471546256592935e-02 0.0000000000000000e+00 1
-8.2703980835348884e-02 -2.7212508811918813e-02 0.0000000000000000e+00 1
-7.9972624671327569e-02 -3.6903300392281686e-02 0.0000000000000000e+00 1
-7.7077851543335130e-02 -4.6524876475870842e-02 0.0000000000000000e+00 1
-7.4026095693020627e-02 -5.6058192540875643e-02 0.0000000000000000e+00 1
-7.0823791362033123e-02 -6.5484204065485371e-02 0.0000000000000000e+00 1
-6.7477372792021678e-02 -7.4783866527889348e-02 0.0000000000000000e+00 1
-6.3993274224635410e-02 -8.3938135406276787e-02 0.0000000000000000e+00 1
-6.0377929901523388e-02 -9.2927966178837140e-02 0.0000000000000000e+00 1
-5.6637774064334671e-02 -1.0173431432375962e-01 0.0000000000000000e+00 1
-5.2779240954718358e-02 -1.1033813531923350e-01 0.0000000000000000e+00 1
-4.8808764814323481e-02 -1.1872038464344822e-01 0.0000000000000000e+00 1
-4.4732779884799158e-02 -1.2686201777459299e-01 0.0000000000000000e+00 1
-4.0557720407794443e-02 -1.3474399019085712e-01 0.0000000000000000e+00 1
-3.6290020624958438e-02 -1.4234725737042989e-01 0.0000000000000000e+00 1
-3.1936114777940193e-02 -1.4965277479150069e-01 0.0000000000000000e+00 1
-2.7502437108388789e-02 -1.5664149793225876e-01 0.0000000000000000e+00 1
-2.2995421857953321e-02 -1.6329438227089341e-01 0.0000000000000000e+00 1
-1.8421503268282836e-02 -1.6959238328559395e-01 0.0000000000000000e+00 1
-1.3787115581026424e-02 -1.7551645645454975e-01 0.0000000000000000e+00 1
-9.0986930378331651e-03 -1.8104755725595001e-01 0.0000000000000000e+00 1
1.0602031299415383e-01 -5.3997240537401153e-02 0.0000000000000000e+00 1
9.7093714745524876e-02 1.2045167366511714e-02 0.0000000000000000e+00 1
-6.1377969813023341e-02 -6.7282466684667752e-02 0.0000000000000000e+00 1
-7.4507573548758019e-02 -1.9625998631127146e-02 0.0000000000000000e+00 1
9.0324135507844364e-02 -9.0728403425689066e-02 0.0000000000000000e+00 1
7.4240022948494119e-02 5.0548171351497667e-02 0.0000000000000000e+00 1
-8.6738262969409577e-02 2.7729099664976806e-02 0.0000000000000000e+00 1
-4.3917362197954786e-02 -1.1065914573488736e-01 0.0000000000000000e+00 1
5.4578328795142440e-02 8.0751163940886286e-02 0.0000000000000000e+00 1
7.4318040837269103e-02 -1.2071822029165205e-01 0.0000000000000000e+00 1
-9.1119239990696016e-02 6.5340851687868060e-02 0.0000000000000000e+00 1
1.1274209624757635e-01 -2.1929001263430045e-02 0.0000000000000000e+00 1
-9.3437027048349122e-02 1.0051223825866676e-01 0.0000000000000000e+00 1
2.8306734014336359e-02 1.1356385904889274e-01 0.0000000000000000e+00 1
5.6008530192119647e-02 -1.4859743971143194e-01 0.0000000000000000e+00 1
-9.1212701225061782e-02 1.3247668969309498e-01 0.0000000000000000e+00 1
-2.9559558105282943e-03 1.4902987775452542e-01 0.0000000000000000e+00 1
-2.8486014713724334e-02 -1.4240952570940310e-01 0.0000000000000000e+00 1
-8.4221370441148219e-02 1.5962894261709770e-01 0.0000000000000000e+00 1
3.6186722494976307e-02 -1.7126882912488448e-01 0.0000000000000000e+00 1
-2.5601505801949091e-02 1.7115988846454605e-01 0.0000000000000000e+00 1
-5.6237553456650886e-02 1.8777603829111802e-01 0.0000000000000000e+00 1
1.6489785817968089e-02 -1.8706908832870178e-01 0.0000000000000000e+00 1
-1.5907617576479169e-02 -1.6344830104348068e-01 0.0000000000000000e+00 1
1.0656467868491140e-01 -6.9015845774168492e-03 0.0000000000000000e+00 1
-7.6280296931225997e-02 1.7644694757274970e-01 0.0000000000000000e+00 1
1.1069762245206372e-01 -3.6692726839740314e-02 0.0000000000000000e+00 1
-4.2811732548013529e-02 1.8106314750100438e-01 0.0000000000000000e+00 1
-2.8100098249613488e-03 -1.8042821139515036e-01 0.0000000000000000e+00 1
8.9342257699594696e-02 2.4679473026983107e-02 0.0000000000000000e+00 1
6.3995402123341427e-02 6.5410193251621271e-02 0.0000000000000000e+00 1
-6.7318454379927881e-02 -4.8655862898130273e-02 0.0000000000000000e+00 1
4.0658529275771620e-02 9.7804213704273571e-02 0.0000000000000000e+00 1
1.0513923941478751e-02 1.3602975271351667e-01 0.0000000000000000e+00 1
-5.2358422700804597e-02 -9.4156923031834927e-02 0.0000000000000000e+00 1
-8.0758429869687787e-02 -6.4791181017438834e-04 0.0000000000000000e+00 1
-3.6059877009289351e-02 -1.2639100131583464e-01 0.0000000000000000e+00 1
-8.8782346980973620e-02 4.5866131664810697e-02 0.0000000000000000e+00 1
8.2633460906745726e-02 -1.0579631371546497e-01 0.0000000000000000e+00 1
1.0035719638129688e-01 -6.8873526734106905e-02 0.0000000000000000e+00 1
-9.2176191120987683e-02 8.2536368400192406e-02 0.0000000000000000e+00 1
6.4794666996424111e-02 -1.3413783900950263e-01 0.0000000000000000e+00 1
-1.4965730458238524e-02 1.6099826532107347e-01 0.0000000000000000e+00 1
-9.2637988853269473e-02 1.1685575336939259e-01 0.0000000000000000e+00 1
4.8380318397897026e-02 -1.6121556764765144e-01 0.0000000000000000e+00 1
-6.8348826248771449e-02 1.8608241144965504e-01 0.0000000000000000e+00 1
-8.8018475742675295e-02 1.4666291172916227e-01 0.0000000000000000e+00 1
5.8708399233596362e-03 -1.8842185709201487e-01 0.0000000000000000e+00 1
2.8680516248054910e-02 -1.7954440572862221e-01 0.0000000000000000e+00 1
1.0058428355441690e-01 5.2284581146943027e-03 0.0000000000000000e+00 1
9.2850601480824815e-02 5.4922908079859268e-03 0.0000000000000000e+00 1
8.9408217561027070e-02 1.2297700979177865e-02 0.0000000000000000e+00 1
8.4908568435010268e-02 5.6586971656453116e-03 0.0000000000000000e+00 1
8.8733047981308946e-02 -7.6163124221653917e-04 0.0000000000000000e+00 1
8.0679736974749353e-02 -1.0943296888862065e-03 0.0000000000000000e+00 1
7.6752720003463518e-02 5.9109825105985178e-03 0.0000000000000000e+00 1
7.2505629471891098e-02 -6.9379624783992002e-04 0.0000000000000000e+00 1
6.8468454251259456e-02 6.1551521836175870e-03 0.0000000000000000e+00 1
6.4173755187142051e-02 -5.6174797005214335e-04 0.0000000000000000e+00 1
6.0094204407188809e-02 6.2990869244073490e-03 0.0000000000000000e+00 1
5.5734409211866065e-02 -9.6167210190371052e-04 0.0000000000000000e+00 1
5.1560868749123530e-02 6.4836926805815530e-03 0.0000000000000000e+00 1
4.7105316814565965e-02 -9.3146704312511552e-04 0.0000000000000000e+00 1
4.2877570303028759e-02 6.5164980728557361e-03 0.0000000000000000e+00 1
3.8410207563915451e-02 -8.3497281796067794e-04 0.0000000000000000e+00 1
3.4141302763159062e-02 6.8319497096346413e-03 0.0000000000000000e+00 1
4.2679282035366778e-02 -8.4493499947791532e-03 0.0000000000000000e+00 1
3.4006302547087489e-02 -8.3899937884881291e-03 0.0000000000000000e+00 1
3.8334163257250670e-02 -1.6057861392975294e-02 0.0000000000000000e+00 1
2.9523949116830484e-02 -1.5972953476304525e-02 0.0000000000000000e+00 1
3.3878498279429264e-02 -2.3688962468329012e-02 0.0000000000000000e+00 1
2.5039856430077116e-02 -2.3621694618111096e-02 0.0000000000000000e+00 1
2.9396844522705530e-02 -3.1514588066792609e-02 0.0000000000000000e+00 1
2.0460160770151586e-02 -1.6505285815896529e-02 0.0000000000000000e+00 1
2.0363516869197323e-02 -3.1201124174689177e-02 0.0000000000000000e+00 1
2.4882881668879864e-02 -3.9334586202834990e-02 0.0000000000000000e+00 1
1.5918128487386822e-02 -3.9040886122168030e-02 0.0000000000000000e+00 1
2.0266830175828664e-02 -4.6919820000532277e-02 0.0000000000000000e+00 1
3.8354229829675519e-02 -3.1931573948578880e-02 0.0000000000000000e+00 1
1.1195694486868359e-02 -4.6657194146200585e-02 0.0000000000000000e+00 1
1.5622109856078353e-02 -5.4515982210350380e-02 0.0000000000000000e+00 1
6.7474942562322305e-03 -3.8786817214051236e-02 0.0000000000000000e+00 1
2.4637026665894363e-02 -5.4739116941092403e-02 0.0000000000000000e+00 1
2.0064602203101904e-02 -6.2290793610945944e-02 0.0000000000000000e+00 1
7.5443520069314207e-02 -7.1175603808310631e-03 0.0000000000000000e+00 1
2.8982274903104337e-02 -6.2401566344324151e-02 0.0000000000000000e+00 1
2.4466712337658243e-02 -7.0033812880250540e-02 0.0000000000000000e+00 1
1.5583304255663713e-02 -6.9963981133526573e-02 0.0000000000000000e+00 1
1.9970257520182971e-02 -7.7692222113809800e-02 0.0000000000000000e+00 1
2.1131104426469491e-03 -4.6598301575147341e-02 0.0000000000000000e+00 1
-2.6089923614734190e-03 -3.8749653705392843e-02 0.0000000000000000e+00 1
1.1103770329351946e-02 -7.7646984248516945e-02 0.0000000000000000e+00 1
1.5528422113014343e-02 -8.5339744380591831e-02 0.0000000000000000e+00 1
2.4467585824865162e-02 -8.5303473827011256e-02 0.0000000000000000e+00 1
2.0009973878646163e-02 -9.2877662428371310e-02 0.0000000000000000e+00 1
3.8801110915104645e-02 1.4177696050663140e-02 0.0000000000000000e+00 1
2.9798934041414364e-02 1.4549044440439633e-02 0.0000000000000000e+00 1
1.0645368219714591e-02 -9.3593892090533995e-02 0.0000000000000000e+00 1
1.5126002204674624e-02 -1.0092683367329761e-01 0.0000000000000000e+00 1
3.4711888391141976e-02 2.2014729450183713e-02 0.0000000000000000e+00 1
2.5413107902913241e-02 2.2411487882283813e-02 0.0000000000000000e+00 1
2.4334809819100928e-02 -1.0043439753706448e-01 0.0000000000000000e+00 1
1.9814490426304808e-02 -1.0803062223008630e-01 0.0000000000000000e+00 1
3.0109615003141292e-02 3.0117110240307693e-02 0.0000000000000000e+00 1
2.0898120718673825e-02 3.0418465894060887e-02 0.0000000000000000e+00 1
1.6192096007575256e-02 2.2545144681314515e-02 0.0000000000000000e+00 1
1.1643002139621890e-02 3.0587750157802879e-02 0.0000000000000000e+00 1
6.9110066798449572e-03 2.2585440606305452e-02 0.0000000000000000e+00 1
2.3462402019188747e-03 3.0718118194148315e-02 0.0000000000000000e+00 1
-2.4010526845387814e-03 2.2663664204081765e-02 0.0000000000000000e+00 1
-6.9858510637850670e-03 3.0833511913961349e-02 0.0000000000000000e+00 1
-2.2066442939740732e-03 3.8894297485297713e-02 0.0000000000000000e+00 1
-1.1547328450375470e-02 3.9045898690768861e-02 0.0000000000000000e+00 1
-6.7590669645615116e-03 4.7122444921219510e-02 0.0000000000000000e+00 1
-1.6164390513980161e-02 4.7283887548772087e-02 0.0000000000000000e+00 1
-1.1352484531065696e-02 5.5124164864722242e-02 0.0000000000000000e+00 1
-2.0842906225646586e-02 5.5491067295141701e-02 0.0000000000000000e+00 1
-1.6023116337996225e-02 6.3621305464671110e-02 0.0000000000000000e+00 1
-2.5612316688965662e-02 6.3723400189948487e-02 0.0000000000000000e+00 1
-2.0809990031621262e-02 7.1997207444909131e-02 0.0000000000000000e+00 1
-1.1750414567964031e-02 2.2782470364650160e-02 0.0000000000000000e+00 1
-3.0231076370019802e-02 7.1992065848173234e-02 0.0000000000000000e+00 1
-2.5301670292959023e-02 8.0132635402599003e-02 0.0000000000000000e+00 1
-3.4790956460685536e-02 8.0351009382705590e-02 0.0000000000000000e+00 1
-2.9868725811961129e-02 8.8282012327818404e-02 0.0000000000000000e+00 1
-2.5669646053151911e-02 4.7519378256229101e-02 0.0000000000000000e+00 1
-3.9282010392175562e-02 8.8594078731579484e-02 0.0000000000000000e+00 1
-3.4403983132203018e-02 9.6343529202643330e-02 0.0000000000000000e+00 1
-2.0178395556999370e-03 5.4455679889960043e-02 0.0000000000000000e+00 1
-7.1109626034697284e-03 -4.6543936409329363e-02 0.0000000000000000e+00 1
-1.1660071716355545e-02 -3.8887856330360140e-02 0.0000000000000000e+00 1
-4.3526308348977791e-02 9.6570251533109830e-02 0.0000000000000000e+00 1
-3.8842982329477020e-02 1.0429145859412528e-01 0.0000000000000000e+00 1
1.1055965341960603e-02 -1.0819380954997349e-01 0.0000000000000000e+00 1
1.5535277606695701e-02 -1.1542293933788803e-01 0.0000000000000000e+00 1
-2.5356646178223686e-02 9.6132905920317036e-02 0.0000000000000000e+00 1
-4.0067680437040065e-02 7.2421325165196240e-02 0.0000000000000000e+00 1
2.3964944123160973e-02 -1.1541406547813909e-01 0.0000000000000000e+00 1
1.9767952557451802e-02 -1.2266797730169411e-01 0.0000000000000000e+00 1
-7.1580150756029130e-03 1.4598450918060545e-02 0.0000000000000000e+00 1
-1.6528724940315188e-02 1.4724162290334769e-02 0.0000000000000000e+00 1
-4.7855070920489420e-02 1.0439000385128891e-01 0.0000000000000000e+00 1
-4.3264918682242283e-02 1.1201918701228449e-01 0.0000000000000000e+00 1
1.1419490977974973e-02 -1.2265903973266726e-01 0.0000000000000000e+00 1
1.5575946427794191e-02 -1.2982222176713079e-01 0.0000000000000000e+00 1
-1.6112627258633674e-02 -4.6678413068637827e-02 0.0000000000000000e+00 1
-2.1078131382160768e-02 -3.9814192307461430e-02 0.0000000000000000e+00 1
2.5690451111992120e-02 3.7996766625703435e-02 0.0000000000000000e+00 1
-5.3104792640786311e-02 1.1314827874113642e-01 0.0000000000000000e+00 1
-4.7338711853474477e-02 1.1997211481274761e-01 0.0000000000000000e+00 1
-3.8917706557368224e-02 1.1960391457836157e-01 0.0000000000000000e+00 1
-4.3239160885111275e-02 1.2714726332464360e-01 0.0000000000000000e+00 1
-5.1953262955880618e-02 1.2813814411979296e-01 0.0000000000000000e+00 1
-4.7137060675905680e-02 1.3473662246597851e-01 0.0000000000000000e+00 1
-7.4928254088350793e-03 -3.1960571975167780e-02 0.0000000000000000e+00 1
-5.2671246956544689e-02 9.6715949913557614e-02 0.0000000000000000e+00 1
2.8099955985588856e-02 -1.2269417636031904e-01 0.0000000000000000e+00 1
7.5062821796175964e-03 -1.2989997227819400e-01 0.0000000000000000e+00 1
1.1392850641983225e-02 -1.3691131215616476e-01 0.0000000000000000e+00 1
1.9501226337093103e-02 -1.3689678207504341e-01 0.0000000000000000e+00 1
1.5546414393961355e-02 -1.4376225277373131e-01 0.0000000000000000e+00 1
-3.9053038567710793e-02 1.3446406067334937e-01 0.0000000000000000e+00 1
-4.3237364221655888e-02 1.4157695678426080e-01 0.0000000000000000e+00 1
-5.1015229464208764e-02 1.4177013773218922e-01 0.0000000000000000e+00 1
-4.7249675664978931e-02 1.4851574862794520e-01 0.0000000000000000e+00 1
-1.5991635807937721e-02 7.9996164309827603e-02 0.0000000000000000e+00 1
6.1461905827576498e-02 -7.0817795135035173e-03 0.0000000000000000e+00 1
3.3326107584168339e-02 -7.0089138281982835e-02 0.0000000000000000e+00 1
3.7843209967348621e-02 -6.2449117083729480e-02 0.0000000000000000e+00 1
4.2119500351413208e-02 -7.0124384122053629e-02 0.0000000000000000e+00 1
4.6620360643867091e-02 -6.2653170242541231e-02 0.0000000000000000e+00 1
5.0844270138341280e-02 -7.0160202809212105e-02 0.0000000000000000e+00 1
5.5275499012736332e-02 -6.2754544092596343e-02 0.0000000000000000e+00 1
4.6452501602722976e-02 -7.7679046950299535e-02 0.0000000000000000e+00 1
5.5119957086121149e-02 -7.7664726668819073e-02 0.0000000000000000e+00 1
5.0782193603717364e-02 -8.5151569461457050e-02 0.0000000000000000e+00 1
-1.1778849457423352e-02 -5.4518651864777529e-02 0.0000000000000000e+00 1
-2.0781389426798698e-02 -5.4647964766375748e-02 0.0000000000000000e+00 1
-1.6442115107504329e-02 -6.2579011934631820e-02 0.0000000000000000e+00 1
3.2334067533733309e-02 -1.1547431407269537e-01 0.0000000000000000e+00 1
3.9835810620987074e-02 2.9265113135300440e-02 0.0000000000000000e+00 1
3.1609580589842591e-03 -1.2283905239097337e-01 0.0000000000000000e+00 1
6.5165101111224616e-02 1.3513010569830213e-02 0.0000000000000000e+00 1
-5.5040439182588760e-02 1.4850903420681544e-01 0.0000000000000000e+00 1
-5.9005299826961802e-02 1.4124377273755120e-01 0.0000000000000000e+00 1
-5.1259161180527785e-02 1.5510514392565983e-01 0.0000000000000000e+00 1
-1.1922496675590925e-02 6.5551101656707682e-03 0.0000000000000000e+00 1
-2.1317054571511142e-02 6.5996034084368233e-03 0.0000000000000000e+00 1
-2.5964502860700490e-02 1.4860971106747101e-02 0.0000000000000000e+00 1
-3.0789840147316928e-02 6.6578229469456103e-03 0.0000000000000000e+00 1
-3.5473063255524441e-02 1.5003170620122347e-02 0.0000000000000000e+00 1
-4.0323626658677642e-02 6.7807240094388422e-03 0.0000000000000000e+00 1
-4.5024352777127810e-02 1.5128113428557563e-02 0.0000000000000000e+00 1
-3.5621940550018175e-02 -1.5830216675391054e-03 0.0000000000000000e+00 1
3.7495517688034309e-03 -1.3702907870828507e-01 0.0000000000000000e+00 1
-2.5464995316786532e-02 -6.2674381275315022e-02 0.0000000000000000e+00 1
-2.1066795312236021e-02 -7.0587836444173838e-02 0.0000000000000000e+00 1
-3.0450063828498190e-02 -5.4448058033904047e-02 0.0000000000000000e+00 1
2.3324089836203925e-02 -1.4377096865781855e-01 0.0000000000000000e+00 1
1.9369092728001237e-02 -1.5038682687623955e-01 0.0000000000000000e+00 1
1.1832820173062378e-02 -1.5046176909931180e-01 0.0000000000000000e+00 1
1.5556780282674956e-02 -1.5691437532214708e-01 0.0000000000000000e+00 1
3.6485133821164320e-02 -1.2279532215113233e-01 0.0000000000000000e+00 1
4.0961499156248707e-02 -1.1541784046500600e-01 0.0000000000000000e+00 1
-5.8725220602216056e-02 1.5508062682671467e-01 0.0000000000000000e+00 1
-5.5232643971648711e-02 1.6130587838505117e-01 0.0000000000000000e+00 1
-4.5204597675212024e-02 -1.4252274990115056e-03 0.0000000000000000e+00 1
-4.0481353844216555e-02 -9.8334647815005449e-03 0.0000000000000000e+00 1
5.9391287293287277e-02 -8.5161694220819831e-02 0.0000000000000000e+00 1
6.3715333241155137e-02 -7.7733124104704981e-02 0.0000000000000000e+00 1
1.1465520637276641e-02 1.4442287419104857e-02 0.0000000000000000e+00 1
5.5064648479149464e-02 -9.2609614861619019e-02 0.0000000000000000e+00 1
-3.0156958958447382e-02 -7.0692622469545913e-02 0.0000000000000000e+00 1
-2.5868836094315666e-02 -7.8618064886580241e-02 0.0000000000000000e+00 1
-3.5005379676361061e-02 1.4161322548002309e-01 0.0000000000000000e+00 1
-3.0735689846791692e-02 1.3440135777732887e-01 0.0000000000000000e+00 1
5.1072900755178313e-02 -5.5327931807100009e-02 0.0000000000000000e+00 1
5.9539290923406853e-02 -5.5430341747956698e-02 0.0000000000000000e+00 1
5.5403770916828222e-02 -4.8085211970219095e-02 0.0000000000000000e+00 1
6.3739856690649743e-02 -4.8286056117038387e-02 0.0000000000000000e+00 1
6.8027298108725959e-02 -5.5683002137906237e-02 0.0000000000000000e+00 1
7.2010374163957946e-02 -4.8541571019565868e-02 0.0000000000000000e+00 1
6.7958053395947904e-02 -4.1272897253163181e-02 0.0000000000000000e+00 1
7.6028023435990272e-02 -4.1526199019271827e-02 0.0000000000000000e+00 1
8.0255671168609544e-02 -4.9101342164399826e-02 0.0000000000000000e+00 1
8.3985638213195005e-02 -4.2128137262733518e-02 0.0000000000000000e+00 1
8.0094297050334856e-02 -3.5062932720583265e-02 0.0000000000000000e+00 1
8.7656436098140278e-02 -3.5203171317726108e-02 0.0000000000000000e+00 1
-3.0910336350778712e-02 -9.9177289799534628e-03 0.0000000000000000e+00 1
-1.6613299028116219e-02 -7.8667666773840572e-02 0.0000000000000000e+00 1
-2.1265980184483894e-02 -8.6580122401419782e-02 0.0000000000000000e+00 1
8.1786755065551484e-03 -1.5698900776782537e-01 0.0000000000000000e+00 1
1.1991214975702574e-02 -1.6317967028863706e-01 0.0000000000000000e+00 1
-4.7516062658068597e-02 1.6169366978921046e-01 0.0000000000000000e+00 1
-6.2396604363673738e-02 1.6132092260080916e-01 0.0000000000000000e+00 1
-5.9016537858507301e-02 1.6731924680374116e-01 0.0000000000000000e+00 1
-4.0144537136332231e-02 2.3364364978015362e-02 0.0000000000000000e+00 1
-4.9739401126108404e-02 2.3485941909944390e-02 0.0000000000000000e+00 1
-4.4831699724284482e-02 3.1738480143013559e-02 0.0000000000000000e+00 1
-5.4440535608622255e-02 3.1870627045285829e-02 0.0000000000000000e+00 1
-4.9533696217614366e-02 4.0116136745386902e-02 0.0000000000000000e+00 1
-5.9120376577832791e-02 4.0250625323354911e-02 0.0000000000000000e+00 1
-5.4280010505818162e-02 4.8447165368076139e-02 0.0000000000000000e+00 1
-5.9371471986221808e-02 2.3596263237092817e-02 0.0000000000000000e+00 1
-6.5982000822376569e-02 1.5519976400481317e-01 0.0000000000000000e+00 1
1.9034273695882887e-02 -1.6315946522857544e-01 0.0000000000000000e+00 1
2.7021531404580246e-02 -1.5041943864768650e-01 0.0000000000000000e+00 1
3.1248408950972771e-02 -1.4386833701282908e-01 0.0000000000000000e+00 1
-3.5736442734974651e-02 -1.8144134968996015e-02 0.0000000000000000e+00 1
-4.5336703245836774e-02 -1.8096110277285551e-02 0.0000000000000000e+00 1
-4.0562941029299991e-02 -2.6427304063633601e-02 0.0000000000000000e+00 1
-5.0200531558176512e-02 -2.6406742714019663e-02 0.0000000000000000e+00 1
4.7395222899405849e-03 -1.6329089842547298e-01 0.0000000000000000e+00 1
-6.3778257276208408e-02 4.8601638526439547e-02 0.0000000000000000e+00 1
-5.9004272439889351e-02 5.6766728697097590e-02 0.0000000000000000e+00 1
8.4032937739332347e-02 -2.8677853355581609e-02 0.0000000000000000e+00 1
7.6432610050593874e-02 -2.8406103315752752e-02 0.0000000000000000e+00 1
9.1409384109911562e-02 -2.8721045040762786e-02 0.0000000000000000e+00 1
1.5619497814884586e-02 -1.6921216722046387e-01 0.0000000000000000e+00 1
-4.5402384951797506e-02 -3.4754326370681626e-02 0.0000000000000000e+00 1
4.5107091754094664e-02 -1.2268827146031037e-01 0.0000000000000000e+00 1
4.9920757864091989e-02 -1.1518166717698317e-01 0.0000000000000000e+00 1
-2.6641920990628138e-02 1.4178562642501991e-01 0.0000000000000000e+00 1
-2.2158147253248280e-02 1.3441425217579259e-01 0.0000000000000000e+00 1
-3.1148618067697049e-02 1.4888213334638833e-01 0.0000000000000000e+00 1
4.6474124446869026e-02 -9.2596624025934049e-02 0.0000000000000000e+00 1
6.7969544196460258e-02 -8.5130527212375032e-02 0.0000000000000000e+00 1
7.2188851695678014e-02 -7.7788413195354900e-02 0.0000000000000000e+00 1
-1.2132903597965695e-02 -8.6616467188537882e-02 0.0000000000000000e+00 1
-1.6745735429086514e-02 -9.4461686927880456e-02 0.0000000000000000e+00 1
-2.5818259737385288e-02 -9.4472962243065242e-02 0.0000000000000000e+00 1
-2.1277964473685157e-02 -1.0228667462257379e-01 0.0000000000000000e+00 1
-1.2322900496035582e-02 -1.0228900207559216e-01 0.0000000000000000e+00 1
-1.6820653423774583e-02 -1.0963597158146834e-01 0.0000000000000000e+00 1
8.8134156085232281e-04 -1.5707298938585881e-01 0.0000000000000000e+00 1
6.6601580735520249e-03 -6.9884977981392607e-02 0.0000000000000000e+00 1
8.7878675789215766e-02 -2.2391011710685825e-02 0.0000000000000000e+00 1
9.5113590059915404e-02 -2.2502453349292299e-02 0.0000000000000000e+00 1
9.1688816893202865e-02 -4.1818500575393991e-02 0.0000000000000000e+00 1
-6.8410125084610265e-02 5.6920241040353689e-02 0.0000000000000000e+00 1
-6.3624481690554929e-02 6.5032719212956086e-02 0.0000000000000000e+00 1
-2.6198472120573472e-02 -1.8174417364795709e-02 0.0000000000000000e+00 1
-3.5112187787472229e-02 -7.8586576149784024e-02 0.0000000000000000e+00 1
-3.9672631853970151e-02 -6.9511240969714158e-02 0.0000000000000000e+00 1
-6.9493746930358827e-02 1.6140252311145400e-01 0.0000000000000000e+00 1
4.6966559563401927e-02 -4.7907196303101203e-02 0.0000000000000000e+00 1
-5.5001715747192766e-02 -1.8005025208932206e-02 0.0000000000000000e+00 1
5.1318709101213368e-02 -4.0658239104287543e-02 0.0000000000000000e+00 1
-6.8693096209784685e-02 4.0404439154232627e-02 0.0000000000000000e+00 1
4.0657172827543477e-02 -1.3002054378981368e-01 0.0000000000000000e+00 1
9.8566750927209151e-02 -2.8566870596605204e-02 0.0000000000000000e+00 1
-2.1386399944346803e-02 -1.0002325485179101e-02 0.0000000000000000e+00 1
3.4751521319484294e-02 -1.5059023689481116e-01 0.0000000000000000e+00 1
3.0569287623893833e-02 -1.5700892027111554e-01 0.0000000000000000e+00 1
4.7144804223402559e-02 -1.6693282648140961e-02 0.0000000000000000e+00 1
-2.5774831031811765e-03 6.4390886864580457e-03 0.0000000000000000e+00 1
-4.4951545265952159e-02 4.8235739691780258e-02 0.0000000000000000e+00 1
4.9173756542117711e-02 -1.2993038122459527e-01 0.0000000000000000e+00 1
4.4415429693607802e-02 -1.3716857440021546e-01 0.0000000000000000e+00 1
-7.3105018572589605e-03 -1.5691254699949279e-03 0.0000000000000000e+00 1
1.9728022301516092e-03 -1.6719291920923422e-03 0.0000000000000000e+00 1
-2.7281130900286034e-03 -9.6507758237930862e-03 0.0000000000000000e+00 1
2.5237996403218863e-02 6.9115818971106253e-03 0.0000000000000000e+00 1
3.7280710573126791e-02 -1.0776885523593963e-01 0.0000000000000000e+00 1
-2.5718744711618738e-02 -1.0997528407446083e-01 0.0000000000000000e+00 1
-2.1031005741951797e-02 -1.1773890391875608e-01 0.0000000000000000e+00 1
-7.3004677816716546e-02 6.5087214278206768e-02 0.0000000000000000e+00 1
-6.8490514582624423e-02 7.3032115056988547e-02 0.0000000000000000e+00 1
-5.8941456045046671e-02 7.3066578931813425e-02 0.0000000000000000e+00 1
-6.3509036454666462e-02 8.1107920445484580e-02 0.0000000000000000e+00 1
-7.3016905309126509e-02 8.1085016526331405e-02 0.0000000000000000e+00 1
-6.8026696834931205e-02 8.9061240466583369e-02 0.0000000000000000e+00 1
-7.7080489553051690e-02 8.9183226355920381e-02 0.0000000000000000e+00 1
-7.2443268565908076e-02 9.6910979447117365e-02 0.0000000000000000e+00 1
9.1857935259532952e-02 -1.6372683606621304e-02 0.0000000000000000e+00 1
-3.5243759220725715e-02 3.1528127733286629e-02 0.0000000000000000e+00 1
2.2377562626680565e-02 -1.6925595027713305e-01 0.0000000000000000e+00 1
1.8900915069311172e-02 -1.7493490852428542e-01 0.0000000000000000e+00 1
1.2613495012904539e-02 -1.7495759698125493e-01 0.0000000000000000e+00 1
-7.9711054325825124e-03 -1.0953707672338771e-01 0.0000000000000000e+00 1
-3.5014498851533458e-03 -1.0233904142840283e-01 0.0000000000000000e+00 1
-2.6553275452692426e-02 1.2692383036147267e-01 0.0000000000000000e+00 1
-1.7688176259432753e-02 1.2690400096620777e-01 0.0000000000000000e+00 1
-2.1974882985212787e-02 1.1932505459435372e-01 0.0000000000000000e+00 1
-1.3120281483267439e-02 1.1927977381506556e-01 0.0000000000000000e+00 1
-8.8431575292842405e-03 1.2688574707766470e-01 0.0000000000000000e+00 1
-4.1352814965656889e-03 1.1921178897597616e-01 0.0000000000000000e+00 1
-8.4211322029429971e-03 1.1118853286689001e-01 0.0000000000000000e+00 1
6.0875680750726267e-04 1.1121382953369524e-01 0.0000000000000000e+00 1
-3.8141110671666744e-03 1.0291059556304255e-01 0.0000000000000000e+00 1
5.4351861883478987e-03 1.0306678013670513e-01 0.0000000000000000e+00 1
7.3909005318709804e-04 9.4755069631638655e-02 0.0000000000000000e+00 1
1.0306942215015099e-02 9.4793323431252199e-02 0.0000000000000000e+00 1
5.5273849065389452e-03 8.6433176497171249e-02 0.0000000000000000e+00 1
1.5463117713763422e-02 8.6621583155081949e-02 0.0000000000000000e+00 1
1.0431676816483715e-02 7.8046508233693551e-02 0.0000000000000000e+00 1
2.0410856064644968e-02 7.8264973822320644e-02 0.0000000000000000e+00 1
1.5350101041125146e-02 6.9629078444237186e-02 0.0000000000000000e+00 1
2.5037448724027307e-02 6.9703255174278056e-02 0.0000000000000000e+00 1
2.0210783743679333e-02 6.1252460545951140e-02 0.0000000000000000e+00 1
2.9845163977931959e-02 6.1286747873072242e-02 0.0000000000000000e+00 1
3.0346035455079742e-02 7.8566846249463196e-02 0.0000000000000000e+00 1
2.0454707243229106e-02 9.5439356439612488e-02 0.0000000000000000e+00 1
4.7529345404252899e-03 1.1914876996801356e-01 0.0000000000000000e+00 1
-5.9505581912064766e-02 -2.6146285902746359e-02 0.0000000000000000e+00 1
-4.4540095770730377e-02 -7.8215087724031018e-02 0.0000000000000000e+00 1
-7.3038377584305009e-02 1.5529466084655943e-01 0.0000000000000000e+00 1
-6.9726898681781599e-02 1.4902704626667221e-01 0.0000000000000000e+00 1
-1.8079292970131621e-02 1.4207106401185332e-01 0.0000000000000000e+00 1
2.1565918467528946e-03 -7.7623718607446018e-02 0.0000000000000000e+00 1
9.2215476830869022e-04 7.8192262032324822e-02 0.0000000000000000e+00 1
5.0744501652328522e-02 -1.0004237515073836e-01 0.0000000000000000e+00 1
5.9318839046342643e-02 -1.0004899492304523e-01 0.0000000000000000e+00 1
6.8058297524903860e-02 -7.0364589525251056e-02 0.0000000000000000e+00 1
7.6418638028536198e-02 -7.0584984669327971e-02 0.0000000000000000e+00 1
8.0512312651368323e-02 -7.7768229370606887e-02 0.0000000000000000e+00 1
8.4571660268545346e-02 -7.0633402089531977e-02 0.0000000000000000e+00 1
8.0587668916707877e-02 -6.3582268218793148e-02 0.0000000000000000e+00 1
-5.4006682743917130e-02 8.1064242182226312e-02 0.0000000000000000e+00 1
-8.4851718391749844e-03 9.4863563003265150e-02 0.0000000000000000e+00 1
9.8749641081288031e-02 -1.6593534381496446e-02 0.0000000000000000e+00 1
8.8471911229270020e-02 -6.3536299246912606e-02 0.0000000000000000e+00 1
-2.4969992916566326e-03 -1.6356329692009480e-01 0.0000000000000000e+00 1
8.9036248476200813e-02 -7.7204466666963414e-02 0.0000000000000000e+00 1
-2.5730819215688799e-03 -7.0209849599563723e-02 0.0000000000000000e+00 1
-1.6973099058475018e-02 -1.7901150603885675e-02 0.0000000000000000e+00 1
2.0011312209114594e-03 -6.2246952733760241e-02 0.0000000000000000e+00 1
6.3776986747874805e-03 -9.6620790613703225e-03 0.0000000000000000e+00 1
1.1050597120160242e-02 -1.7053395311974293e-03 0.0000000000000000e+00 1
1.9073755358698177e-03 -1.7447335206239919e-02 0.0000000000000000e+00 1
2.0825652753299422e-03 -1.6952998680732567e-01 0.0000000000000000e+00 1
-3.6040611310081114e-02 -3.4594771705655572e-02 0.0000000000000000e+00 1
-4.0921282222613750e-02 -4.2901058288194224e-02 0.0000000000000000e+00 1
-5.0251566390629450e-02 -4.3035889718727662e-02 0.0000000000000000e+00 1
-4.5744214906701310e-02 -5.1217257956627911e-02 0.0000000000000000e+00 1
-7.6920440829546605e-02 5.7288637255247112e-02 0.0000000000000000e+00 1
-3.9636200373128289e-02 -8.6534976905138020e-02 0.0000000000000000e+00 1
-7.6592178410326672e-02 1.4906548582261936e-01 0.0000000000000000e+00 1
-7.3495743338003738e-02 1.4278509457941124e-01 0.0000000000000000e+00 1
2.5367258690393715e-02 5.3165079006230999e-02 0.0000000000000000e+00 1
3.4911005167004273e-02 5.3087823110241281e-02 0.0000000000000000e+00 1
3.9503982791602901e-02 6.1326862372339822e-02 0.0000000000000000e+00 1
4.4353999931913683e-02 5.3002157242012578e-02 0.0000000000000000e+00 1
1.5604156905560551e-02 5.2991181432790684e-02 0.0000000000000000e+00 1
4.8899641100313376e-02 6.1197391625881420e-02 0.0000000000000000e+00 1
5.3618091797095022e-02 5.2824858131490071e-02 0.0000000000000000e+00 1
4.9172590136661185e-02 4.4753348362828717e-02 0.0000000000000000e+00 1
5.8457264074588379e-02 4.4641685513769548e-02 0.0000000000000000e+00 1
5.3964768263903125e-02 3.6635489461879001e-02 0.0000000000000000e+00 1
6.3076285852928404e-02 3.6518813562823535e-02 0.0000000000000000e+00 1
5.8548274923602261e-02 2.8767931221433271e-02 0.0000000000000000e+00 1
6.7670965113678830e-02 2.8797345757785076e-02 0.0000000000000000e+00 1
7.2638981686424520e-02 3.6342037456206185e-02 0.0000000000000000e+00 1
9.6025390555083384e-02 -1.1032558736467170e-02 0.0000000000000000e+00 1
5.2837899153716054e-02 -1.3731582144308918e-01 0.0000000000000000e+00 1
4.4010716130293059e-02 6.9559598722794144e-02 0.0000000000000000e+00 1
-6.2061534573691710e-03 -1.5708512993416615e-01 0.0000000000000000e+00 1
-2.9088969865558060e-03 -1.5050298095027012e-01 0.0000000000000000e+00 1
-1.0403753579018852e-02 -1.5042169876033146e-01 0.0000000000000000e+00 1
-6.8959761694272403e-03 -1.4372951701803785e-01 0.0000000000000000e+00 1
-1.4559321313739090e-02 -1.4362000131524777e-01 0.0000000000000000e+00 1
-1.1038100495675038e-02 -1.3673187194395300e-01 0.0000000000000000e+00 1
7.6350751333681272e-02 2.8829390096341757e-02 0.0000000000000000e+00 1
8.5375462586453857e-02 -1.5795756950042931e-02 0.0000000000000000e+00 1
-8.0944977047381961e-02 9.6823688753240059e-02 0.0000000000000000e+00 1
-7.6689387861156491e-02 1.0459233251140150e-01 0.0000000000000000e+00 1
-6.8047344244465652e-02 1.0458917344269292e-01 0.0000000000000000e+00 1
-7.2157851573380186e-02 1.1191958050602453e-01 0.0000000000000000e+00 1
-8.0509714890019096e-02 1.1217821594110464e-01 0.0000000000000000e+00 1
-7.6520862888577706e-02 1.1946882089473237e-01 0.0000000000000000e+00 1
-6.8008392659357306e-02 1.1929023735593741e-01 0.0000000000000000e+00 1
-7.2325334747635417e-02 1.2607100330810972e-01 0.0000000000000000e+00 1
-6.4414278627500307e-02 1.2628528237358341e-01 0.0000000000000000e+00 1
-8.0598352773264062e-02 1.2668970314719782e-01 0.0000000000000000e+00 1
-6.9019149859669698e-02 1.3429068835606933e-01 0.0000000000000000e+00 1
-5.6460086747879459e-02 -5.2065713749816230e-02 0.0000000000000000e+00 1
-4.9010743027020090e-02 -5.9922106055667251e-02 0.0000000000000000e+00 1
-1.8814897765157962e-02 -1.3663219534686050e-01 0.0000000000000000e+00 1
-1.5075357648182549e-02 -1.2981334867691219e-01 0.0000000000000000e+00 1
-2.3457249244731804e-02 -1.3000922071265225e-01 0.0000000000000000e+00 1
-7.3240227621827452e-03 -1.3006583581966186e-01 0.0000000000000000e+00 1
-1.1723234081609989e-02 -1.2265274264550798e-01 0.0000000000000000e+00 1
-4.6265426430653969e-03 -1.6970985145180364e-01 0.0000000000000000e+00 1
6.3578894695493923e-02 5.3499357486405649e-02 0.0000000000000000e+00 1
-1.8808430399769704e-02 -1.5093245262734423e-01 0.0000000000000000e+00 1
3.7946598207490259e-02 -1.5716675007090189e-01 0.0000000000000000e+00 1
4.2199719562747047e-02 -1.5060098911684433e-01 0.0000000000000000e+00 1
-2.1887120271454650e-02 -2.5759148832778512e-02 0.0000000000000000e+00 1
-3.0124247377411054e-02 -1.1774745861466721e-01 0.0000000000000000e+00 1
8.0759414552261308e-04 -1.1006947801224040e-01 0.0000000000000000e+00 1
7.1018606577300733e-02 2.1090609935528377e-02 0.0000000000000000e+00 1
-5.9936036351127521e-02 1.1935409372454382e-01 0.0000000000000000e+00 1
8.4479072796677657e-02 -5.6510902484222303e-02 0.0000000000000000e+00 1
9.2348991998910446e-02 -5.6448266705836594e-02 0.0000000000000000e+00 1
1.6240878864306325e-02 -1.8120076668029475e-01 0.0000000000000000e+00 1
1.0100680188074754e-02 -1.8023490304360196e-01 0.0000000000000000e+00 1
-8.2197100091732866e-02 8.1517333700948671e-02 0.0000000000000000e+00 1
2.2584644226064834e-02 -1.8010850278345372e-01 0.0000000000000000e+00 1
-3.1117587013760308e-02 -4.3327121481714033e-02 0.0000000000000000e+00 1
5.7104532470841365e-02 -1.3024733817112283e-01 0.0000000000000000e+00 1
6.3885283689016237e-03 -1.7506413432611959e-01 0.0000000000000000e+00 1
5.4870402983990624e-02 -1.0751668837748768e-01 0.0000000000000000e+00 1
6.3533915893523904e-02 -1.0748669438209491e-01 0.0000000000000000e+00 1
6.7861143530085918e-02 -1.0009466618504535e-01 0.0000000000000000e+00 1
6.0267903735068282e-02 -1.1603271010298138e-01 0.0000000000000000e+00 1
7.2107621675371034e-02 -1.0753057929683131e-01 0.0000000000000000e+00 1
4.2738193177568745e-02 -4.0281985812933782e-02 0.0000000000000000e+00 1
3.8229900686372012e-02 -4.7654732548745429e-02 0.0000000000000000e+00 1
3.3556784014167534e-02 -1.6386091530951802e-01 0.0000000000000000e+00 1
8.0988296752847480e-02 2.0819463910228972e-02 0.0000000000000000e+00 1
-7.7479498141448166e-02 1.6158737115246993e-01 0.0000000000000000e+00 1
-7.3054713743691380e-02 1.6707603577975630e-01 0.0000000000000000e+00 1
4.2067331089295980e-02 -1.0008737350132463e-01 0.0000000000000000e+00 1
3.7884237594292797e-02 -9.2603347761542235e-02 0.0000000000000000e+00 1
8.8380931825293510e-02 -4.9520736464076689e-02 0.0000000000000000e+00 1
9.5799256498434848e-02 -4.8031262755538262e-02 0.0000000000000000e+00 1
9.8657885077530066e-02 -4.0827612334780237e-02 0.0000000000000000e+00 1
1.0321372244664526e-01 -4.6553609617491401e-02 0.0000000000000000e+00 1
-4.0617131989831114e-02 -5.9736495626321912e-02 0.0000000000000000e+00 1
4.8531845476316643e-02 -1.4438599489206108e-01 0.0000000000000000e+00 1
7.6299482050637940e-02 -5.6085742774531613e-02 0.0000000000000000e+00 1
-5.0004537721435899e-02 -6.9940530032144191e-02 0.0000000000000000e+00 1
-5.4111611391378975e-02 -7.9401761619245517e-02 0.0000000000000000e+00 1
5.4027488062301190e-02 6.9711482503790057e-02 0.0000000000000000e+00 1
-6.4731979013959315e-02 -1.7917680143513970e-02 0.0000000000000000e+00 1
-5.9767283728894782e-02 -9.4799266024959070e-03 0.0000000000000000e+00 1
-6.9261070498274652e-02 -9.9081709114662957e-03 0.0000000000000000e+00 1
-6.5109284081002153e-02 -1.5982652955467101e-04 0.0000000000000000e+00 1
4.9396026546738005e-02 2.8800031112429531e-02 0.0000000000000000e+00 1
5.3245737370769222e-02 2.1019373659909999e-02 0.0000000000000000e+00 1
4.7238034066122821e-02 -3.3143699827067691e-02 0.0000000000000000e+00 1
5.5692535417316370e-02 -3.3381945260448118e-02 0.0000000000000000e+00 1
5.1677453824311180e-02 -2.5922027447787224e-02 0.0000000000000000e+00 1
6.0051505507769914e-02 -2.6145730188761158e-02 0.0000000000000000e+00 1
5.5825293041397162e-02 -1.8453766534676386e-02 0.0000000000000000e+00 1
6.4345819167213658e-02 -1.9486442193136638e-02 0.0000000000000000e+00 1
2.6265517457645549e-02 -1.6325542931660825e-01 0.0000000000000000e+00 1
2.9213196515865212e-02 -1.6938711535130091e-01 0.0000000000000000e+00 1
-6.5974426418774185e-02 1.6721435042168525e-01 0.0000000000000000e+00 1
-6.2546229637146539e-02 1.7295058192708071e-01 0.0000000000000000e+00 1
-5.6074802667422555e-02 1.7305361811400746e-01 0.0000000000000000e+00 1
-5.9627424165519527e-02 1.7822815821033849e-01 0.0000000000000000e+00 1
-5.4025278576423585e-02 1.7846782950138501e-01 0.0000000000000000e+00 1
-4.9931649156503548e-02 1.7352187850438475e-01 0.0000000000000000e+00 1
-6.5590441924451320e-02 1.7799779997704435e-01 0.0000000000000000e+00 1
-6.3696852165937998e-02 1.8334717218389690e-01 0.0000000000000000e+00 1
-7.0129313630623191e-02 1.7310058718199639e-01 0.0000000000000000e+00 1
-4.9564086020893718e-02 7.2866759496309830e-02 0.0000000000000000e+00 1
1.0178473570498754e-01 -2.2733329274648939e-02 0.0000000000000000e+00 1
1.0591428542228093e-01 -2.8493763192697148e-02 0.0000000000000000e+00 1
1.0514590909302042e-01 -1.7333378554648393e-02 0.0000000000000000e+00 1
6.4019154064291525e-02 -3.3725769696199837e-02 0.0000000000000000e+00 1
3.5777424601229034e-02 -1.3708041034569574e-01 0.0000000000000000e+00 1
-8.1782016506357538e-02 1.4273130769860057e-01 0.0000000000000000e+00 1
-7.7125231730124755e-02 1.3692119572224820e-01 0.0000000000000000e+00 1
1.1119439672369658e-02 -1.7075647923271375e-02 0.0000000000000000e+00 1
6.7739998572924134e-03 -2.4284981902990686e-02 0.0000000000000000e+00 1
3.9520967856964788e-03 -1.8081054222960080e-01 0.0000000000000000e+00 1
-7.2944847387348636e-03 -7.8380114370905529e-02 0.0000000000000000e+00 1
-2.8224772638829753e-03 -8.6228205916662581e-02 0.0000000000000000e+00 1
1.0221068175390406e-01 -3.4386259268294826e-02 0.0000000000000000e+00 1
7.2245040932602506e-02 -6.3203133392891131e-02 0.0000000000000000e+00 1
6.3862617486883932e-02 -6.2917470678639162e-02 0.0000000000000000e+00 1
3.3829686951302416e-02 -3.9685724193208247e-02 0.0000000000000000e+00 1
-3.9220424799748549e-02 1.4864149063829907e-01 0.0000000000000000e+00 1
-3.5419661763818326e-02 1.5570822087212954e-01 0.0000000000000000e+00 1
-2.7599322207861574e-02 1.5603947824151831e-01 0.0000000000000000e+00 1
-3.2282719953117600e-02 1.6237235462433597e-01 0.0000000000000000e+00 1
-3.9682516048228297e-02 1.6215637497319824e-01 0.0000000000000000e+00 1
-3.6643327092094023e-02 1.6857016750042811e-01 0.0000000000000000e+00 1
-4.4486947725978582e-02 1.6899898648372755e-01 0.0000000000000000e+00 1
-3.9992729675234331e-02 1.7480071647682011e-01 0.0000000000000000e+00 1
-2.4478847681743649e-02 1.6321789819028917e-01 0.0000000000000000e+00 1
-4.3340932238198127e-02 1.5538056240791656e-01 0.0000000000000000e+00 1
-2.2997528785414268e-02 1.4910342234814328e-01 0.0000000000000000e+00 1
-1.4072197852086809e-02 1.5023349448429557e-01 0.0000000000000000e+00 1
-9.0429891391447734e-03 1.4173301988128401e-01 0.0000000000000000e+00 1
-1.9061610057027379e-03 1.4065443231541369e-01 0.0000000000000000e+00 1
-7.9606612916642144e-02 1.6768466592002498e-01 0.0000000000000000e+00 1
4.2771197246698658e-02 -2.4572901288813176e-02 0.0000000000000000e+00 1
6.8294248389815987e-02 -2.6821278194116567e-02 0.0000000000000000e+00 1
7.2707705490853286e-02 -2.0658423730318315e-02 0.0000000000000000e+00 1
6.8618159410423887e-02 -1.2783151679329160e-02 0.0000000000000000e+00 1
5.9479329081690277e-02 -7.0265776313203770e-02 0.0000000000000000e+00 1
7.9117620029958181e-03 -1.4380189146361311e-01 0.0000000000000000e+00 1
-3.2830913839301021e-02 1.7495523423971163e-01 0.0000000000000000e+00 1
3.2058342732394239e-02 -1.2994222635592295e-01 0.0000000000000000e+00 1
2.3705320378913670e-02 -1.2985004083056109e-01 0.0000000000000000e+00 1
5.9688679931041169e-02 -4.0901686566892692e-02 0.0000000000000000e+00 1
3.3174234798614727e-02 -1.0027205301204770e-01 0.0000000000000000e+00 1
8.1282207713585297e-02 3.6272813430400334e-02 0.0000000000000000e+00 1
-6.0086015286283254e-02 1.3329512065029500e-01 0.0000000000000000e+00 1
-1.1907762475535270e-02 -7.0481099686061421e-02 0.0000000000000000e+00 1
3.9853567427229251e-02 4.5049358131861797e-02 0.0000000000000000e+00 1
-5.8293896693034926e-02 8.8990774467045022e-02 0.0000000000000000e+00 1
1.0555423107783048e-02 6.1124349007438614e-02 0.0000000000000000e+00 1
5.9490288794229133e-03 6.9767746334497144e-02 0.0000000000000000e+00 1
-2.8325385514305045e-03 7.0566257680101385e-02 0.0000000000000000e+00 1
5.4076082047565456e-02 -1.2303220286058353e-01 0.0000000000000000e+00 1
6.2435227396545917e-02 -1.2543536831674879e-01 0.0000000000000000e+00 1
-5.7594653655363079e-02 1.0450223026571168e-01 0.0000000000000000e+00 1
7.6417140156482516e-02 -8.5042208315649126e-02 0.0000000000000000e+00 1
7.2306254961512828e-02 -9.2473471649941630e-02 0.0000000000000000e+00 1
8.0842005416318904e-02 -9.2264952964742519e-02 0.0000000000000000e+00 1
-6.3079361139958226e-02 9.6844561789933697e-02 0.0000000000000000e+00 1
-4.4323146623496075e-02 8.0732763419187406e-02 0.0000000000000000e+00 1
-4.5034495207227770e-02 6.4459468429892031e-02 0.0000000000000000e+00 1
-3.5363524125474367e-02 6.4098009607232470e-02 0.0000000000000000e+00 1
4.5974200553180439e-02 -1.0766913331791324e-01 0.0000000000000000e+00 1
6.6716663401714203e-03 6.3334271928807140e-03 0.0000000000000000e+00 1
1.5935913737205321e-02 6.4643459689944938e-03 0.0000000000000000e+00 1
2.0407858099518228e-02 -1.1482990314999929e-03 0.0000000000000000e+00 1
-2.6114564216703079e-02 -1.6262370104252297e-03 0.0000000000000000e+00 1
-3.0635552520300986e-02 5.5863829082272873e-02 0.0000000000000000e+00 1
-7.7140502603370862e-03 -9.4478759156944384e-02 0.0000000000000000e+00 1
1.3693088299382265e-03 -9.4084183053573134e-02 0.0000000000000000e+00 1
-2.9867091548609007e-02 1.0409543319196986e-01 0.0000000000000000e+00 1
-2.1307478566685946e-02 1.0362910919001513e-01 0.0000000000000000e+00 1
2.8914078459660243e-02 -7.7693447355356896e-02 0.0000000000000000e+00 1
3.7766940180625971e-02 -7.7664195080857160e-02 0.0000000000000000e+00 1
-4.0063723612450072e-02 3.9841320218454837e-02 0.0000000000000000e+00 1
6.3301640124815046e-03 -8.5752788049554066e-02 0.0000000000000000e+00 1
-3.7312016488266512e-03 8.6699949947012522e-02 0.0000000000000000e+00 1
-3.1351250178114742e-02 -2.6157798638267782e-02 0.0000000000000000e+00 1
-3.0281649595678951e-02 -1.0231360998095471e-01 0.0000000000000000e+00 1
9.6631769336825352e-02 -3.1018051123524843e-04 0.0000000000000000e+00 1
-3.4380780842139524e-02 1.1191789001390914e-01 0.0000000000000000e+00 1
-8.5672166847019671e-02 8.9652696932699463e-02 0.0000000000000000e+00 1
-8.7282293521101173e-02 7.3781688891141561e-02 0.0000000000000000e+00 1
-7.7516152788983619e-02 7.3175649525865236e-02 0.0000000000000000e+00 1
-8.5629671385567513e-02 1.0458811647608084e-01 0.0000000000000000e+00 1
2.1666856365402973e-03 1.4482680485593421e-02 0.0000000000000000e+00 1
-3.0573934025705369e-02 2.3241707434560686e-02 0.0000000000000000e+00 1
-2.5698152909037625e-02 3.1361050117512196e-02 0.0000000000000000e+00 1
8.4584651122602342e-02 -8.0622165776670189e-03 0.0000000000000000e+00 1
8.9058039562773077e-03 -1.6920574234154567e-01 0.0000000000000000e+00 1
9.5031659143316308e-02 -3.4920576522260521e-02 0.0000000000000000e+00 1
-3.4749986500876802e-02 -9.4612798303050596e-02 0.0000000000000000e+00 1
-3.9088694609203806e-02 -1.0266549782629283e-01 0.0000000000000000e+00 1
-6.2600393793717846e-02 1.1142513653519300e-01 0.0000000000000000e+00 1
-2.0662613571306401e-02 8.8131287118341603e-02 0.0000000000000000e+00 1
-7.5508172782642290e-03 -1.7434391086985412e-02 0.0000000000000000e+00 1
6.3651952917806398e-02 -9.2586494842141029e-02 0.0000000000000000e+00 1
-7.2914532977480573e-02 4.8924934972308071e-02 0.0000000000000000e+00 1
-7.8945298958057797e-02 4.0990531574753422e-02 0.0000000000000000e+00 1
-7.3284790550211948e-02 3.2507028025431560e-02 0.0000000000000000e+00 1
2.2969413865446448e-02 -1.5685740927706204e-01 0.0000000000000000e+00 1
-3.0431890988365209e-02 -8.6570042213490281e-02 0.0000000000000000e+00 1
9.2678583108941615e-02 -6.9885020537533149e-02 0.0000000000000000e+00 1
7.6395463522375681e-02 -9.9970735181356477e-02 0.0000000000000000e+00 1
3.8074910371748235e-04 -1.8482295915035701e-01 0.0000000000000000e+00 1
5.2900055622276572e-02 -9.5706131617647964e-03 0.0000000000000000e+00 1
-6.3983056571146571e-02 3.2064936073465056e-02 0.0000000000000000e+00 1
2.9017414954402791e-02 -9.2727023953227142e-02 0.0000000000000000e+00 1
-1.6661813736246742e-02 -1.5117722852621457e-03 0.0000000000000000e+00 1
6.9476998986982091e-02 -1.1433532398922587e-01 0.0000000000000000e+00 1
7.1223112230261176e-03 3.8517810876368283e-02 0.0000000000000000e+00 1
-5.4635623362469223e-02 1.5259144953675830e-02 0.0000000000000000e+00 1
-6.3866373974138857e-02 1.5611627058305324e-02 0.0000000000000000e+00 1
-6.4424440271780223e-02 -5.8018520331644438e-02 0.0000000000000000e+00 1
-1.2101790827436726e-02 -9.6782567925167255e-03 0.0000000000000000e+00 1
4.3893358646947364e-02 2.1404239015865030e-02 0.0000000000000000e+00 1
-1.6323645584919760e-02 3.0990801958315876e-02 0.0000000000000000e+00 1
4.2175830556667265e-02 -8.5138218075203595e-02 0.0000000000000000e+00 1
-5.4895254766362672e-02 -1.0943775536248800e-03 0.0000000000000000e+00 1
-5.4972566073453799e-02 -3.4693152441854364e-02 0.0000000000000000e+00 1
-6.4412571321364936e-02 -3.3037361043767789e-02 0.0000000000000000e+00 1
2.8483876212340255e-02 -1.0789905126099542e-01 0.0000000000000000e+00 1
7.8132371800421874e-02 -1.1372193901387781e-01 0.0000000000000000e+00 1
-3.4492459815711153e-03 -1.1713438985804338e-01 0.0000000000000000e+00 1
2.2265641247202345e-02 1.2109938831177443e-01 0.0000000000000000e+00 1
1.8941374889949236e-02 1.1211386546584280e-01 0.0000000000000000e+00 1
2.4728868185339422e-02 1.0431863808284658e-01 0.0000000000000000e+00 1
3.4567781130359077e-02 1.0584720436536320e-01 0.0000000000000000e+00 1
1.6491267435410677e-02 1.2852560337091634e-01 0.0000000000000000e+00 1
4.6630657990326792e-02 8.7495516122872666e-02 0.0000000000000000e+00 1
3.6078256614381798e-02 8.7962510866654298e-02 0.0000000000000000e+00 1
3.0567327246602598e-02 9.6441368620255055e-02 0.0000000000000000e+00 1
2.5821888708613606e-02 8.7281969316461080e-02 0.0000000000000000e+00 1
3.9950242241204748e-02 7.8858456233886542e-02 0.0000000000000000e+00 1
-2.1122829889737460e-02 2.2930274610194524e-02 0.0000000000000000e+00 1
1.1110335196224163e-02 -6.2208455023168199e-02 0.0000000000000000e+00 1
-5.0089063167228776e-02 -9.7418711536352114e-03 0.0000000000000000e+00 1
1.6403714597843698e-02 3.8280654978685644e-02 0.0000000000000000e+00 1
-5.2247250742400907e-02 1.6735549837989183e-01 0.0000000000000000e+00 1
-6.8744211917076192e-02 2.3921565264681383e-02 0.0000000000000000e+00 1
-7.3923816414451116e-02 1.5002660552931245e-02 0.0000000000000000e+00 1
2.9642981378165605e-02 -8.0517391490832310e-04 0.0000000000000000e+00 1
-8.2364774070041100e-02 8.7228523308837194e-03 0.0000000000000000e+00 1
2.0673928121600613e-02 1.4553982048207988e-02 0.0000000000000000e+00 1
2.5625741959452637e-03 4.6341889479838423e-02 0.0000000000000000e+00 1
2.5244370695066343e-02 -1.7455512105005602e-01 0.0000000000000000e+00 1
-7.3453689640493897e-02 -3.0246919353433422e-02 0.0000000000000000e+00 1
-4.4753694026174119e-04 1.2666533593159660e-01 0.0000000000000000e+00 1
-8.5195123056376817e-02 1.2004734423537705e-01 0.0000000000000000e+00 1
-3.9704295702700315e-02 -1.1841084674719983e-01 0.0000000000000000e+00 1
-8.4414951977737657e-02 1.8204537813948374e-02 0.0000000000000000e+00 1
-3.4805832365761277e-02 -1.1029530716307713e-01 0.0000000000000000e+00 1
3.4625681659652928e-02 6.9657855553634879e-02 0.0000000000000000e+00 1
7.0379742897740960e-02 -1.2753081603924443e-01 0.0000000000000000e+00 1
-5.4305891470860762e-02 6.4787082878759741e-02 0.0000000000000000e+00 1
-2.5836105957247430e-03 -5.4453000674216837e-02 0.0000000000000000e+00 1
4.2372389335739766e-02 -5.5159086415343186e-02 0.0000000000000000e+00 1
8.6476240749738392e-02 -9.8475360426306807e-02 0.0000000000000000e+00 1
-8.7923969802443463e-02 3.7025154594241036e-02 0.0000000000000000e+00 1
3.3552886182966847e-02 -5.4965498467740334e-02 0.0000000000000000e+00 1
6.5764617678340902e-03 -5.4446647727140592e-02 0.0000000000000000e+00 1
7.2539887899595893e-03 -1.1553905201736303e-01 0.0000000000000000e+00 1
-9.0402015904813351e-02 5.5016073767463869e-02 0.0000000000000000e+00 1
-4.9860474378334185e-02 6.9364407706414225e-03 0.0000000000000000e+00 1
-3.1547835765974960e-02 -1.3413088447183852e-01 0.0000000000000000e+00 1
8.4858916298025916e-02 -8.4683840715732928e-02 0.0000000000000000e+00 1
1.4923529003770518e-02 1.0342061529697659e-01 0.0000000000000000e+00 1
7.2158342346983789e-02 -3.4840583002997076e-02 0.0000000000000000e+00 1
4.2044120109897366e-02 -1.6436245928579485e-01 0.0000000000000000e+00 1
-7.3460920647759831e-02 5.1494366044771527e-03 0.0000000000000000e+00 1
-7.2834053958295546e-03 -6.2428291913907016e-02 0.0000000000000000e+00 1
-1.3428091903189800e-02 1.3442398046487061e-01 0.0000000000000000e+00 1
4.3980213916858246e-03 -1.5047185083646678e-01 0.0000000000000000e+00 1
6.1320880409675330e-02 -1.4235596134729109e-01 0.0000000000000000e+00 1
2.7602468806134459e-02 -1.3690146087964514e-01 0.0000000000000000e+00 1
-3.4842443384808602e-02 1.2702040948728005e-01 0.0000000000000000e+00 1
3.3371014595085700e-02 -8.5188284342199688e-02 0.0000000000000000e+00 1
1.0320128880369120e-01 -6.1203642278961815e-02 0.0000000000000000e+00 1
-4.9734623630387914e-02 5.6504332352968090e-02 0.0000000000000000e+00 1
-9.3182795050926442e-02 1.0883031436737092e-01 0.0000000000000000e+00 1
5.1816270748112542e-02 -1.5574428122870371e-01 0.0000000000000000e+00 1
-7.1215305218979966e-02 1.7876625953926639e-01 0.0000000000000000e+00 1
9.3660569793461629e-02 1.8700708276682996e-02 0.0000000000000000e+00 1
2.9274021988751786e-02 -4.7268093683884155e-02 0.0000000000000000e+00 1
-6.0539459605945027e-02 -4.2191734413076741e-02 0.0000000000000000e+00 1
-2.0906564719565982e-02 3.9262961481868836e-02 0.0000000000000000e+00 1
-5.9163561926634911e-02 7.5032031431743135e-03 0.0000000000000000e+00 1
-6.2482391284002049e-02 1.4878291977159303e-01 0.0000000000000000e+00 1
1.0411766518140823e-01 -8.5043177358911162e-04 0.0000000000000000e+00 1
-9.2081479810120728e-02 1.2476424589745928e-01 0.0000000000000000e+00 1
-7.9807691265674479e-03 1.5633987637240473e-01 0.0000000000000000e+00 1
-3.0512540275153231e-02 3.9589024650039051e-02 0.0000000000000000e+00 1
-3.5444089103264610e-02 4.7896516825163146e-02 0.0000000000000000e+00 1
8.0685092205958334e-02 -2.1801970673067165e-02 0.0000000000000000e+00 1
-8.9863512186831029e-02 1.3975989538029532e-01 0.0000000000000000e+00 1
8.1991702496965621e-02 1.2707064647689059e-02 0.0000000000000000e+00 1
-4.7944695700184219e-02 1.8500432588929322e-01 0.0000000000000000e+00 1
1.1151938313193140e-01 -3.1164669379265229e-02 0.0000000000000000e+00 1
5.2612158035790120e-03 -1.0214889532413575e-01 0.0000000000000000e+00 1
9.4263090641016137e-02 -8.3423905360077488e-02 0.0000000000000000e+00 1
-4.8683881959691019e-02 8.8778010041117600e-02 0.0000000000000000e+00 1
-8.6664846100664938e-02 1.5344918277881864e-01 0.0000000000000000e+00 1
4.4502629165055721e-02 3.6995873527650082e-02 0.0000000000000000e+00 1
-4.8470656774145443e-02 1.7935166256829221e-01 0.0000000000000000e+00 1
3.9487391600726264e-02 -1.4394909044374279e-01 0.0000000000000000e+00 1
9.7681058709195787e-02 -7.6079462525453542e-02 0.0000000000000000e+00 1
1.0936290126836636e-01 -4.3001917615729884e-02 0.0000000000000000e+00 1
6.8036448054775905e-02 4.4254551733056639e-02 0.0000000000000000e+00 1
3.3790914967427942e-02 -1.7691971942371737e-01 0.0000000000000000e+00 1
-3.0518394174655104e-02 1.1953480197948473e-01 0.0000000000000000e+00 1
1.0913766634537425e-01 -1.2352513807591097e-02 0.0000000000000000e+00 1
-6.6378203963191898e-02 1.4282610083580827e-01 0.0000000000000000e+00 1
7.4064146865510230e-02 1.3366047292915455e-02 0.0000000000000000e+00 1
2.4836998389750682e-02 -8.7030535972268605e-03 0.0000000000000000e+00 1
-5.2868285729534788e-02 1.8369582211525731e-01 0.0000000000000000e+00 1
-7.8451782144525861e-02 -9.8943984429786143e-03 0.0000000000000000e+00 1
-2.5916436544083894e-02 1.1174611384517048e-01 0.0000000000000000e+00 1
-4.7982888300061470e-02 -1.0263672206885391e-01 0.0000000000000000e+00 1
-4.0193971642101298e-02 5.6176315998218138e-02 0.0000000000000000e+00 1
9.6543460003710880e-03 1.1142974899462729e-01 0.0000000000000000e+00 1
1.5708792121122979e-02 -9.1332841600770855e-03 0.0000000000000000e+00 1
3.5150439271563944e-02 3.7433829401984808e-02 0.0000000000000000e+00 1
4.0532551192757130e-04 -1.4380269010026409e-01 0.0000000000000000e+00 1
6.1936611208169123e-02 2.1035063630596460e-02 0.0000000000000000e+00 1
9.5960736650822234e-02 -6.2339966284137183e-02 0.0000000000000000e+00 1
1.0273196148352015e-01 -1.1656453108399176e-02 0.0000000000000000e+00 1
2.2779037896275006e-04 -1.7545130779836632e-01 0.0000000000000000e+00 1
1.6170681775426958e-02 -2.3970764356564984e-02 0.0000000000000000e+00 1
-9.3555721157848493e-02 9.2013924596217100e-02 0.0000000000000000e+00 1
3.0512291034824720e-02 4.5311230801345075e-02 0.0000000000000000e+00 1
-7.8039238189589605e-02 2.5157523639392266e-02 0.0000000000000000e+00 1
-1.7189339931196909e-02 1.1126100312215079e-01 0.0000000000000000e+00 1
1.2119702275220037e-02 -3.1521444801887448e-02 0.0000000000000000e+00 1
-8.3381995847784662e-02 1.3386485810569965e-01 0.0000000000000000e+00 1
9.8967965577655553e-02 -5.4336952245843659e-02 0.0000000000000000e+00 1
-4.8661996413583555e-02 -8.6367602086820872e-02 0.0000000000000000e+00 1
7.0973996801225903e-02 5.8642301946244008e-02 0.0000000000000000e+00 1
-8.0129426313724050e-02 1.5469530866193817e-01 0.0000000000000000e+00 1
5.6272530449104401e-02 1.3308339747720927e-02 0.0000000000000000e+00 1
-1.1965160067048380e-02 7.1959481062525602e-02 0.0000000000000000e+00 1
-1.2611765004130589e-02 1.0299626707549453e-01 0.0000000000000000e+00 1
4.7775196072346315e-02 1.3818306537932730e-02 0.0000000000000000e+00 1
2.0914830608077604e-02 4.5526721710385028e-02 0.0000000000000000e+00 1
-3.7241242437501217e-02 1.7982684220627879e-01 0.0000000000000000e+00 1
1.2869360979820901e-02 -1.8441779680244311e-01 0.0000000000000000e+00 1
1.3396151823391511e-02 1.1982662097691361e-01 0.0000000000000000e+00 1
-6.0942229547322369e-02 1.8764571317224998e-01 0.0000000000000000e+00 1
-2.0822725397068965e-02 1.5591851171706395e-01 0.0000000000000000e+00 1
-1.6971605695557251e-02 9.5561997077406688e-02 0.0000000000000000e+00 1
1.1844580571628870e-02 4.5537390912164785e-02 0.0000000000000000e+00 1
-8.1694044423559556e-02 6.5558150216624866e-02 0.0000000000000000e+00 1
2.1018651927509419e-02 -1.8514879035865175e-01 0.0000000000000000e+00 1
-1.2036075485114284e-02 -2.5004440623765018e-02 0.0000000000000000e+00 1
-3.5739695345667960e-03 -1.3705958863109477e-01 0.0000000000000000e+00 1
-4.3746364816276417e-02 -9.4495753370331850e-02 0.0000000000000000e+00 1
1.1075155335421050e-01 -1.8018464239910319e-02 0.0000000000000000e+00 1
-1.2268436543015276e-02 8.7407642132162747e-02 0.0000000000000000e+00 1
-9.0752829586650523e-03 -1.6331955510460688e-01 0.0000000000000000e+00 1
-5.3547807985114826e-03 1.3410760805379171e-01 0.0000000000000000e+00 1
-7.1139656002098997e-02 -3.9647679402439517e-02 0.0000000000000000e+00 1
9.9801333320549704e-02 -5.9993048481030865e-03 0.0000000000000000e+00 1
-8.2047682874197558e-02 5.1126861482667277e-02 0.0000000000000000e+00 1
1.0498630392190891e-01 -3.9286542287505909e-02 0.0000000000000000e+00 1
-2.7314957764113520e-02 -3.3811182953286945e-02 0.0000000000000000e+00 1
1.3064557049134850e-02 -1.8892556779760333e-01 0.0000000000000000e+00 1
2.2308973158443280e-03 -3.1611951056915215e-02 0.0000000000000000e+00 1
-5.7899603940231512e-02 1.8319345557904090e-01 0.0000000000000000e+00 1
3.9452511992127732e-05 -1.3013439304078878e-01 0.0000000000000000e+00 1
5.6823903555708981e-02 6.0528656599837694e-02 0.0000000000000000e+00 1
-7.4661798557149051e-02 1.8140201745711595e-01 0.0000000000000000e+00 1
7.1523681654736123e-03 5.3678476368006559e-02 0.0000000000000000e+00 1
1.0898164783525961e-01 -4.8592124924438602e-02 0.0000000000000000e+00 1
7.7740239420556301e-02 -1.4749181559004620e-02 0.0000000000000000e+00 1
2.5427461903095513e-02 -1.8372485773340388e-01 0.0000000000000000e+00 1
-7.6444696416583056e-03 7.9136959527325773e-02 0.0000000000000000e+00 1
-1.9637419752945945e-02 -1.5817754335448292e-01 0.0000000000000000e+00 1
-6.6655137453822998e-03 6.2277328687444157e-02 0.0000000000000000e+00 1
1.1170211314665603e-01 -2.6218148273589668e-02 0.0000000000000000e+00 1
-2.4002912508048854e-02 -4.7619571832078975e-02 0.0000000000000000e+00 1
-3.7770055992280935e-02 -5.0325998277352429e-02 0.0000000000000000e+00 1
-2.6945742438678382e-03 -2.4623945308677335e-02 0.0000000000000000e+00 1
-1.1430429727229529e-02 -1.6954835719003050e-01 0.0000000000000000e+00 1
-3.3272356389506673e-02 -6.3412559674960206e-02 0.0000000000000000e+00 1
-6.8442699430014461e-03 -1.7548932426485586e-01 0.0000000000000000e+00 1
2.1747467716907564e-03 6.1974071056058982e-02 0.0000000000000000e+00 1
7.8884096026366202e-03 1.2736530578746383e-01 0.0000000000000000e+00 1
-2.5619297885938905e-02 -1.4856999711700766e-01 0.0000000000000000e+00 1
-2.7954967569939718e-02 -1.2498210238410531e-01 0.0000000000000000e+00 1
1.0800678216145528e-01 -2.2454347466487418e-02 0.0000000000000000e+00 1
-7.1709575791810767e-02 1.8370485130059791e-01 0.0000000000000000e+00 1
-1.3160224712565220e-02 -1.5690766312239901e-01 0.0000000000000000e+00 1
-6.4950009418258375e-02 1.8786507763735580e-01 0.0000000000000000e+00 1
8.4509029796204938e-03 -1.8465865816201360e-01 0.0000000000000000e+00 1
7.9603775917640521e-02 4.3621960057709665e-02 0.0000000000000000e+00 1
6.0595355510967307e-02 7.4641599315427312e-02 0.0000000000000000e+00 1
-5.3839373641848022e-02 1.3583675954116137e-01 0.0000000000000000e+00 1
-1.9689259103663335e-02 1.6777910419254127e-01 0.0000000000000000e+00 1
-7.2909204493835644e-02 -2.5721473903723962e-03 0.0000000000000000e+00 1
-1.6354591111904362e-02 -3.2586594366940093e-02 0.0000000000000000e+00 1
-7.5992894069500175e-02 1.7129390086397522e-01 0.0000000000000000e+00 1
9.1621184705848163e-03 -1.8939822381741009e-01 0.0000000000000000e+00 1
-1.2390838712568793e-02 -1.1539049680030761e-01 0.0000000000000000e+00 1
2.6117217472169272e-03 -1.8772055836759866e-01 0.0000000000000000e+00 1
-8.2780287204451311e-02 1.4914620875406404e-01 0.0000000000000000e+00 1
-6.8149787678282170e-02 1.8185362086671475e-01 0.0000000000000000e+00 1
-2.1680338860523826e-02 -1.4313047121966643e-01 0.0000000000000000e+00 1
-5.6164841720741203e-02 -8.7049588860213023e-02 0.0000000000000000e+00 1
-1.9848362857283173e-02 -1.2503926366758675e-01 0.0000000000000000e+00 1
-8.7498378354173095e-02 1.1247007367803494e-01 0.0000000000000000e+00 1
-8.1092149573877004e-02 3.3346394044521381e-02 0.0000000000000000e+00 1
1.0713065805987905e-01 -3.3385719548058475e-02 0.0000000000000000e+00 1
8.7078208860779285e-02 1.7840882168152401e-02 0.0000000000000000e+00 1
4.9024606385792511e-03 1.4377098070338967e-01 0.0000000000000000e+00 1
-3.6943230759704884e-03 -1.2437886779828894e-01 0.0000000000000000e+00 1
2.5993859063697762e-03 1.3476556925086203e-01 0.0000000000000000e+00 1
9.0115994841044461e-02 -1.1301567250461879e-02 0.0000000000000000e+00 1
-8.6612974573878385e-02 1.2782577642324769e-01 0.0000000000000000e+00 1
-2.5199800782846053e-02 -1.3671222230385302e-01 0.0000000000000000e+00 1
-8.7893049985549102e-02 9.6474900556080351e-02 0.0000000000000000e+00 1
8.4283329890804393e-02 2.8852047304895961e-02 0.0000000000000000e+00 1
-5.8038876825061349e-02 1.2556022465129196e-01 0.0000000000000000e+00 1
-4.5151669747297785e-02 1.7505267830982335e-01 0.0000000000000000e+00 1
4.8411921393040992e-02 -1.5063909213357310e-01 0.0000000000000000e+00 1
-6.7291227550027047e-02 -2.5101352484977319e-02 0.0000000000000000e+00 1
6.8410603005749013e-02 -5.7003498745846273e-03 0.0000000000000000e+00 1
-5.6255555516227795e-02 -6.1445867370787978e-02 0.0000000000000000e+00 1
-5.2010147255946659e-02 1.8764115546243815e-01 0.0000000000000000e+00 1
-5.9771133101806317e-02 -7.4791645277293151e-02 0.0000000000000000e+00 1
4.7615993581804947e-02 7.7083900802670566e-02 0.0000000000000000e+00 1
5.8720953516636962e-02 -1.3649919876627967e-01 0.0000000000000000e+00 1
4.4557313476890167e-02 -1.5639724423671220e-01 0.0000000000000000e+00 1
-5.3804790904515086e-02 1.2072848238824463e-01 0.0000000000000000e+00 1
-8.0001109993842537e-02 1.7260353405584183e-01 0.0000000000000000e+00 1
-6.6614360997502439e-02 8.4662101596028536e-03 0.0000000000000000e+00 1
9.2673794094420670e-02 -5.9588747716401488e-03 0.0000000000000000e+00 1
-8.3512369378873047e-02 1.6451134940639023e-01 0.0000000000000000e+00 1
-9.4544548966035633e-02 7.4033576359172418e-02 0.0000000000000000e+00 1
6.0549998496058549e-02 -1.3745957382122859e-02 0.0000000000000000e+00 1
4.2532621079222040e-03 -1.8528691500031702e-01 0.0000000000000000e+00 1
5.4714910812599618e-02 -1.4271041932136330e-01 0.0000000000000000e+00 1
-4.4720012663719118e-02 -6.4959477241323130e-02 0.0000000000000000e+00 1
3.0175590861899318e-02 -1.7421984082950792e-01 0.0000000000000000e+00 1
6.7605260531796330e-02 -1.2086406406693345e-01 0.0000000000000000e+00 1
-7.6482001350866219e-02 1.3088841489674891e-01 0.0000000000000000e+00 1
-6.3622167234026653e-02 1.3791392064493094e-01 0.0000000000000000e+00 1
-8.4436684804562623e-02 5.8866114881974241e-02 0.0000000000000000e+00 1
-3.0638935702977928e-02 1.6801928002600730e-01 0.0000000000000000e+00 1

Edges
118
1 2 1
2 3 1
3 4 1
4 5 1
5 6 1
6 7 1
7 8 1
8 9 1
9 10 1
10 11 1
11 12 1
12 13 1
13 14 1
14 15 1
15 16 1
16 17 1
17 18 1
18 19 1
19 20 1
20 21 1
21 22 1
22 23 1
23 24 1
24 25 1
25 26 1
26 27 1
27 28 1
28 29 1
29 30 1
30 31 1
31 32 1
32 33 1
33 34 1
34 35 1
35 36 1
36 37 1
37 38 1
38 39 1
39 40 1
40 41 1
41 42 1
42 43 1
43 44 1
44 45 1
45 46 1
46 47 1
47 48 1
48 49 1
49 50 1
50 51 1
51 52 1
52 53 1
53 54 1
54 55 1
55 56 1
56 57 1
57 58 1
58 59 1
59 60 1
60 61 1
61 62 1
62 63 1
63 64 1
64 65 1
65 66 1
66 67 1
67 68 1
68 69 1
69 70 1
70 71 1
71 72 1
72 73 1
73 74 1
74 75 1
75 76 1
76 77 1
77 78 1
78 79 1
79 80 1
80 81 1
81 82 1
82 83 1
83 84 1
84 85 1
85 86 1
86 87 1
87 88 1
88 89 1
89 90 1
90 91 1
91 92 1
92 93 1
93 94 1
94 95 1
95 96 1
96 97 1
97 98 1
98 99 1
99 100 1
100 101 1
101 102 1
102 103 1
103 104 1
104 105 1
105 106 1
106 107 1
107 108 1
108 109 1
109 110 1
110 111 1
111 112 1
112 113 1
113 114 1
114 115 1
115 116 1
116 117 1
117 118 1
118 1 1

Triangles
1782
43 649 924 1
553 141 856 1
138 567 596 1
43 44 649 1
533 497 613 1
217 216 803 1
813 138 946 1
558 160 658 1
497 533 816 1
138 596 946 1
629 602 743 1
687 129 855 1
734 738 933 1
556 553 856 1
352 629 743 1
634 161 852 1
710 593 942 1
534 150 718 1
121 580 930 1
812 511 898 1
397 344 573 1
344 343 573 1
413 593 710 1
267 550 698 1
688 687 855 1
800 568 817 1
161 634 795 1
144 605 786 1
216 674 803 1
658 160 758 1
659 525 663 1
12 13 773 1
568 549 817 1
426 429 688 1
343 551 573 1
127 734 933 1
578 417 809 1
413 591 593 1
860 609 893 1
674 216 680 1
543 114 880 1
618 674 680 1
560 380 563 1
580 535 930 1
703 156 763 1
135 634 635 1
299 218 720 1
634 135 795 1
573 552 574 1
734 735 738 1
605 144 904 1
545 578 809 1
728 300 766 1
155 547 754 1
379 416 657 1
580 121 932 1
124 812 898 1
122 583 585 1
591 413 638 1
608 802 882 1
529 526 698 1
119 576 839 1
149 542 841 1
525 659 698 1
489 559 694 1
130 860 893 1
548 728 766 1
114 543 891 1
829 782 839 1
150 534 789 1
274 659 663 1
551 343 579 1
650 271 900 1
156 703 866 1
542 149 873 1
150 789 864 1
352 627 629 1
540 424 912 1
567 595 596 1
567 412 595 1
612 165 799 1
460 735 737 1
424 540 906 1
735 460 738 1
831 541 888 1
639 375 640 1
489 541 831 1
640 375 798 1
587 299 720 1
301 828 843 1
571 422 667 1
714 128 727 1
422 322 667 1
563 658 947 1
574 552 839 1
844 236 881 1
271 650 925 1
653 274 663 1
828 588 843 1
564 714 727 1
555 159 687 1
453 455 737 1
564 157 708 1
789 725 864 1
612 799 838 1
547 155 892 1
157 564 727 1
425 426 688 1
285 710 942 1
565 197 622 1
252 217 803 1
252 548 766 1
714 563 947 1
124 542 812 1
662 708 762 1
468 618 680 1
608 882 893 1
630 146 926 1
754 547 756 1
816 533 949 1
141 553 849 1
598 603 605 1
197 191 622 1
397 573 574 1
495 840 859 1
653 477 805 1
700 857 885 1
200 837 870 1
138 12 773 1
122 585 820 1
159 555 686 1
548 252 803 1
197 589 638 1
164 604 896 1
869 897 905 1
542 124 841 1
197 565 589 1
808 801 819 1
563 380 657 1
468 617 618 1
769 538 892 1
708 157 762 1
429 555 688 1
550 267 936 1
274 653 805 1
366 611 779 1
522 693 877 1
301 549 828 1
604 164 909 1
648 220 726 1
611 645 779 1
380 560 667 1
656 844 881 1
597 354 598 1
546 868 903 1
659 267 698 1
416 558 657 1
550 529 698 1
255 242 664 1
148 43 924 1
191 194 622 1
167 556 878 1
595 412 705 1
549 301 817 1
589 591 638 1
597 598 605 1
468 483 617 1
146 808 926 1
576 574 839 1
601 808 819 1
556 167 750 1
371 489 694 1
218 214 720 1
544 773 935 1
424 892 912 1
380 379 657 1
375 639 772 1
838 532 948 1
606 255 664 1
868 265 903 1
577 316 884 1
639 610 772 1
422 571 648 1
322 380 667 1
563 657 658 1
526 525 698 1
567 138 773 1
139 63 644 1
627 352 632 1
747 745 755 1
316 577 887 1
552 829 839 1
340 339 579 1
693 203 877 1
304 283 632 1
617 483 651 1
579 339 620 1
533 613 948 1
237 240 666 1
220 648 712 1
63 64 644 1
353 354 597 1
13 163 773 1
840 153 859 1
818 670 825 1
461 453 737 1
576 119 876 1
126 754 756 1
341 610 647 1
213 220 712 1
446 836 845 1
455 460 737 1
127 582 899 1
343 340 579 1
421 669 670 1
421 670 746 1
422 648 726 1
731 461 736 1
557 265 868 1
118 1 147 1
192 818 825 1
581 580 932 1
602 629 926 1
837 615 870 1
316 557 884 1
482 770 804 1
857 273 885 1
770 123 804 1
329 669 748 1
557 316 883 1
412 365 705 1
424 547 892 1
242 245 664 1
346 397 695 1
544 567 773 1
397 575 695 1
476 551 579 1
773 163 935 1
782 119 839 1
607 409 608 1
255 606 665 1
603 600 604 1
397 574 575 1
417 611 809 1
851 604 871 1
620 339 621 1
265 557 883 1
582 127 933 1
396 409 607 1
123 662 762 1
622 194 788 1
137 569 940 1
436 437 553 1
605 603 786 1
553 437 554 1
569 137 842 1
598 600 603 1
352 304 632 1
336 291 621 1
623 383 624 1
797 672 823 1
669 421 748 1
532 838 921 1
598 599 600 1
707 482 810 1
479 607 609 1
629 628 630 1
187 189 638 1
614 615 832 1
283 623 632 1
476 579 620 1
869 849 897 1
662 123 770 1
146 630 848 1
237 666 672 1
299 587 807 1
436 377 437 1
194 196 788 1
610 590 647 1
736 461 737 1
353 324 354 1
627 628 629 1
140 851 871 1
155 769 892 1
105 581 932 1
598 354 599 1
559 489 831 1
570 597 605 1
257 263 646 1
435 377 436 1
315 348 651 1
285 641 929 1
437 377 694 1
323 304 324 1
364 351 377 1
832 615 837 1
203 641 877 1
596 435 750 1
333 383 623 1
240 255 666 1
479 396 607 1
738 460 757 1
472 473 620 1
482 804 810 1
472 620 621 1
485 760 775 1
575 619 695 1
413 187 638 1
610 341 772 1
631 161 901 1
767 156 866 1
514 738 757 1
381 467 633 1
534 718 930 1
627 626 628 1
263 278 646 1
745 747 774 1
396 376 409 1
633 467 634 1
212 213 712 1
302 283 304 1
189 197 638 1
74 75 144 1
277 313 643 1
641 285 942 1
575 574 576 1
152 917 919 1
623 624 632 1
323 324 353 1
403 353 597 1
836 676 845 1
599 354 743 1
569 403 570 1
559 437 694 1
624 626 627 1
329 668 669 1
677 212 781 1
568 148 924 1
339 336 621 1
320 351 364 1
621 291 642 1
293 328 642 1
282 281 283 1
348 617 651 1
645 275 646 1
609 607 893 1
320 350 351 1
282 283 302 1
672 666 823 1
161 631 852 1
302 304 323 1
395 376 396 1
364 377 435 1
641 640 877 1
317 279 318 1
645 646 779 1
410 484 719 1
570 403 597 1
436 553 556 1
917 636 919 1
581 105 911 1
569 570 637 1
594 639 640 1
472 621 642 1
576 811 867 1
162 753 794 1
616 147 709 1
342 343 344 1
461 731 771 1
473 476 620 1
867 145 915 1
555 687 688 1
796 244 797 1
374 346 376 1
328 472 642 1
321 275 645 1
160 558 934 1
602 599 743 1
477 664 805 1
376 346 695 1
454 469 655 1
388 391 673 1
278 277 279 1
297 315 651 1
275 257 646 1
351 371 694 1
320 364 705 1
318 319 320 1
484 700 719 1
272 281 282 1
655 469 656 1
618 673 674 1
544 412 567 1
600 599 601 1
590 406 647 1
807 652 826 1
614 192 825 1
588 720 846 1
371 481 489 1
624 625 626 1
271 270 272 1
338 339 340 1
483 485 775 1
594 592 639 1
562 661 701 1
551 480 552 1
525 432 663 1
268 270 271 1
843 588 846 1
527 526 528 1
391 439 673 1
521 549 568 1
168 684 793 1
365 318 705 1
433 396 479 1
613 838 948 1
624 627 632 1
364 595 705 1
521 510 549 1
135 635 636 1
290 293 642 1
411 365 412 1
476 475 480 1
767 866 950 1
551 552 573 1
345 344 346 1
341 340 342 1
662 661 708 1
324 304 352 1
528 530 532 1
592 610 639 1
318 279 319 1
342 340 343 1
508 509 510 1
432 430 663 1
530 531 533 1
346 344 397 1
337 336 338 1
528 529 530 1
260 267 659 1
592 590 610 1
508 507 509 1
524 526 527 1
476 480 551 1
267 261 268 1
523 432 524 1
417 408 611 1
473 475 476 1
287 761 764 1
524 525 526 1
324 352 743 1
179 181 710 1
735 736 737 1
886 117 888 1
577 402 887 1
363 353 403 1
538 769 922 1
338 336 339 1
272 280 281 1
263 276 277 1
20 21 727 1
278 279 317 1
630 628 644 1
661 562 708 1
317 318 365 1
212 712 781 1
472 386 473 1
289 290 291 1
369 490 682 1
285 179 710 1
506 507 508 1
263 277 278 1
250 251 260 1
260 261 267 1
260 251 261 1
261 251 685 1
256 253 257 1
42 43 148 1
511 510 521 1
169 172 684 1
465 403 569 1
431 430 432 1
668 329 690 1
338 341 647 1
269 261 685 1
509 587 588 1
226 228 690 1
611 366 809 1
268 269 270 1
292 288 678 1
351 350 371 1
416 408 417 1
473 474 475 1
619 409 695 1
333 381 383 1
431 432 523 1
506 505 507 1
328 386 472 1
306 308 671 1
624 383 625 1
387 388 673 1
250 246 251 1
60 61 161 1
679 796 797 1
335 291 336 1
713 410 719 1
456 454 655 1
26 27 158 1
391 392 438 1
257 262 263 1
668 487 669 1
283 281 623 1
287 288 289 1
56 57 152 1
591 590 592 1
328 385 386 1
291 290 642 1
673 439 674 1
429 428 430 1
671 410 713 1
255 665 666 1
401 495 706 1
388 390 391 1
429 430 431 1
65 66 146 1
56 152 733 1
411 412 544 1
221 252 253 1
755 745 835 1
669 487 670 1
308 312 671 1
608 409 619 1
342 344 345 1
504 501 505 1
220 217 221 1
501 499 652 1
245 246 250 1
338 340 341 1
589 406 590 1
450 478 681 1
528 526 529 1
697 126 756 1
391 390 392 1
419 487 668 1
286 677 678 1
228 258 690 1
286 205 677 1
379 321 408 1
288 286 678 1
439 438 548 1
289 291 335 1
387 349 388 1
47 48 149 1
337 338 647 1
382 441 776 1
320 319 350 1
513 417 578 1
426 428 429 1
274 260 659 1
530 529 531 1
692 691 739 1
348 349 387 1
560 470 667 1
504 505 506 1
524 432 525 1
732 731 736 1
533 531 650 1
329 226 690 1
221 253 256 1
281 333 623 1
415 359 679 1
168 169 684 1
425 399 426 1
293 327 328 1
617 387 618 1
106 107 153 1
242 243 245 1
257 253 262 1
21 22 157 1
235 237 672 1
169 171 172 1
426 427 428 1
45 46 124 1
430 653 663 1
459 458 498 1
489 481 541 1
27 28 782 1
289 288 290 1
408 321 645 1
101 102 150 1
58 59 135 1
374 376 395 1
398 373 399 1
315 332 348 1
17 18 160 1
21 157 727 1
593 592 594 1
509 507 587 1
470 571 667 1
419 486 487 1
505 501 652 1
245 243 246 1
224 329 748 1
151 732 736 1
256 257 275 1
189 191 197 1
103 104 121 1
213 216 217 1
39 40 168 1
428 477 653 1
212 211 213 1
277 276 313 1
62 63 139 1
486 488 614 1
419 420 486 1
115 116 142 1
618 387 673 1
348 332 349 1
51 52 151 1
523 524 689 1
213 217 220 1
185 187 413 1
452 450 681 1
410 400 484 1
242 241 243 1
110 111 155 1
398 399 425 1
498 458 502 1
383 381 633 1
392 423 424 1
761 566 764 1
379 408 416 1
204 286 287 1
287 286 288 1
654 456 655 1
388 389 390 1
414 418 419 1
330 471 701 1
240 241 242 1
475 482 707 1
414 419 668 1
13 14 163 1
493 535 577 1
760 295 775 1
347 400 410 1
299 807 826 1
430 428 653 1
469 452 681 1
391 438 439 1
490 491 557 1
272 270 280 1
108 109 126 1
459 498 499 1
279 277 643 1
348 387 617 1
55 56 733 1
40 41 120 1
495 696 706 1
377 351 694 1
196 199 201 1
335 336 337 1
473 386 474 1
328 327 385 1
562 564 708 1
347 367 400 1
372 361 373 1
511 649 898 1
221 217 252 1
402 577 945 1
96 97 154 1
657 558 658 1
207 211 212 1
290 292 293 1
426 399 427 1
409 376 695 1
372 373 398 1
457 456 458 1
359 357 679 1
23 24 123 1
201 202 204 1
369 378 490 1
759 373 783 1
811 576 876 1
428 427 477 1
318 320 705 1
98 99 122 1
149 582 873 1
54 55 729 1
237 238 240 1
325 723 741 1
458 456 654 1
204 205 286 1
19 20 128 1
258 305 414 1
205 207 677 1
53 54 132 1
282 302 303 1
201 199 202 1
527 528 753 1
204 202 205 1
128 20 727 1
475 474 482 1
312 326 347 1
661 385 701 1
244 235 672 1
367 369 682 1
207 210 211 1
511 521 649 1
626 625 631 1
360 359 361 1
471 562 701 1
250 260 274 1
49 50 127 1
263 262 276 1
309 307 691 1
508 510 511 1
112 113 136 1
87 88 159 1
240 238 241 1
268 261 269 1
570 605 904 1
486 420 488 1
457 458 459 1
419 418 420 1
312 347 671 1
330 384 470 1
503 501 504 1
361 359 415 1
91 92 156 1
281 280 333 1
103 121 718 1
454 452 469 1
589 590 591 1
435 436 750 1
213 211 216 1
237 236 238 1
244 672 797 1
467 382 776 1
251 246 675 1
235 236 237 1
327 294 330 1
614 488 615 1
28 29 119 1
434 691 692 1
471 470 560 1
484 400 546 1
315 331 332 1
83 84 162 1
490 378 491 1
734 151 735 1
355 309 691 1
360 361 372 1
196 201 788 1
330 470 471 1
89 90 129 1
357 434 679 1
414 305 418 1
611 408 645 1
79 80 165 1
297 314 315 1
258 414 690 1
416 417 513 1
345 346 374 1
450 448 478 1
357 355 434 1
293 292 294 1
347 326 367 1
500 499 501 1
434 355 691 1
327 330 701 1
240 242 255 1
723 584 741 1
292 678 722 1
582 149 899 1
480 707 829 1
470 384 571 1
290 288 292 1
358 357 359 1
431 523 686 1
306 671 713 1
15 16 133 1
591 592 593 1
293 294 327 1
401 464 495 1
173 175 203 1
251 675 685 1
110 155 754 1
205 206 207 1
429 431 555 1
192 614 832 1
181 185 710 1
561 560 563 1
358 359 360 1
224 226 329 1
173 203 693 1
330 294 384 1
354 324 743 1
295 296 297 1
207 212 677 1
395 396 433 1
85 86 131 1
210 468 680 1
196 198 199 1
93 94 125 1
524 527 689 1
406 337 647 1
347 410 671 1
109 110 754 1
177 179 285 1
220 221 726 1
298 275 321 1
77 78 137 1
594 640 641 1
150 102 718 1
81 82 134 1
388 349 389 1
414 668 690 1
172 173 693 1
555 431 686 1
111 112 769 1
366 365 411 1
424 423 547 1
172 171 173 1
132 729 730 1
392 390 423 1
585 584 586 1
660 661 662 1
258 259 305 1
246 243 254 1
491 492 493 1
600 601 871 1
721 692 739 1
455 454 456 1
151 52 732 1
235 234 236 1
248 264 295 1
356 355 357 1
493 534 535 1
66 67 801 1
665 606 759 1
477 606 664 1
502 458 654 1
185 413 710 1
246 254 675 1
471 560 561 1
480 475 707 1
205 202 206 1
228 239 258 1
504 506 542 1
32 33 802 1
42 148 787 1
400 367 682 1
311 309 355 1
369 370 378 1
398 425 494 1
233 235 244 1
132 54 729 1
332 401 706 1
323 353 363 1
367 368 369 1
233 234 235 1
675 254 676 1
287 289 761 1
356 357 358 1
562 561 564 1
342 345 772 1
132 730 731 1
588 587 720 1
665 759 783 1
194 195 196 1
102 103 718 1
207 206 210 1
51 151 734 1
322 321 379 1
455 456 457 1
656 469 879 1
312 325 326 1
28 119 782 1
631 139 951 1
404 337 406 1
678 677 781 1
332 331 401 1
571 572 648 1
308 310 312 1
735 151 736 1
315 314 331 1
241 284 699 1
583 405 584 1
385 327 701 1
241 238 284 1
595 435 596 1
471 561 562 1
258 239 259 1
363 403 465 1
453 452 454 1
211 210 680 1
226 225 227 1
16 17 778 1
384 294 722 1
191 193 194 1
112 136 769 1
256 275 298 1
660 385 661 1
297 296 314 1
228 227 229 1
399 373 759 1
386 385 660 1
189 190 191 1
96 154 747 1
11 12 138 1
449 771 824 1
360 372 407 1
862 515 895 1
372 398 702 1
181 183 185 1
561 563 714 1
418 305 713 1
311 355 356 1
548 438 728 1
9 10 167 1
37 38 143 1
187 188 189 1
298 321 322 1
546 400 682 1
131 689 784 1
491 378 492 1
224 225 226 1
349 332 706 1
488 420 700 1
295 264 296 1
231 232 233 1
566 622 788 1
185 186 187 1
135 59 795 1
208 760 765 1
691 307 739 1
233 232 234 1
764 566 788 1
358 360 711 1
500 501 503 1
249 209 273 1
583 584 585 1
322 379 380 1
127 50 734 1
147 1 709 1
459 499 500 1
477 427 606 1
226 227 228 1
398 494 702 1
294 292 722 1
493 492 534 1
305 259 306 1
367 326 368 1
356 358 362 1
451 450 452 1
569 637 940 1
571 384 572 1
565 406 589 1
196 195 198 1
243 241 699 1
310 309 311 1
229 227 230 1
95 96 747 1
227 225 715 1
228 229 239 1
586 584 723 1
312 310 325 1
707 158 829 1
369 368 370 1
453 454 455 1
210 394 468 1
201 204 764 1
537 520 539 1
308 307 309 1
202 199 740 1
305 306 713 1
389 349 706 1
311 356 716 1
194 193 195 1
206 202 740 1
613 612 838 1
572 384 722 1
191 190 193 1
248 295 760 1
52 53 732 1
50 51 734 1
234 232 247 1
219 223 224 1
564 561 714 1
360 407 711 1
189 188 190 1
306 259 307 1
378 370 724 1
308 309 310 1
407 702 703 1
729 55 733 1
760 485 765 1
216 211 680 1
483 394 485 1
407 372 702 1
390 389 683 1
229 230 231 1
187 186 188 1
361 415 783 1
648 572 712 1
451 452 453 1
306 307 308 1
232 230 749 1
190 188 192 1
362 358 711 1
455 457 460 1
633 634 852 1
224 223 225 1
253 252 766 1
433 479 512 1
210 206 394 1
94 95 755 1
184 215 421 1
185 183 186 1
230 715 749 1
420 418 719 1
198 200 208 1
53 132 732 1
528 532 753 1
229 231 721 1
231 230 232 1
23 123 762 1
198 195 200 1
368 326 741 1
326 325 741 1
603 604 909 1
683 696 697 1
208 209 248 1
248 249 264 1
181 182 183 1
132 731 732 1
449 448 450 1
239 229 721 1
126 697 822 1
401 402 464 1
492 378 724 1
356 362 716 1
370 368 405 1
746 670 818 1
418 713 719 1
22 23 762 1
651 483 775 1
584 405 741 1
468 394 483 1
717 744 745 1
254 243 699 1
208 200 209 1
248 209 249 1
264 249 265 1
407 704 711 1
370 405 463 1
700 420 719 1
463 405 583 1
314 296 316 1
183 182 184 1
148 568 916 1
517 519 543 1
125 94 755 1
451 453 461 1
731 730 771 1
464 580 581 1
407 703 704 1
298 322 422 1
716 362 717 1
696 389 706 1
371 393 481 1
222 218 299 1
345 375 772 1
335 337 404 1
394 206 740 1
133 578 927 1
256 298 726 1
230 227 715 1
554 437 559 1
401 331 402 1
177 178 179 1
449 450 451 1
700 484 857 1
157 22 762 1
370 463 724 1
221 256 726 1
259 239 739 1
179 180 181 1
317 365 366 1
740 199 765 1
133 16 778 1
464 402 580 1
505 652 807 1
683 389 696 1
219 222 223 1
122 99 751 1
404 406 565 1
307 259 739 1
99 100 751 1
405 368 741 1
514 503 582 1
416 513 558 1
225 223 742 1
531 529 550 1
173 174 175 1
717 362 744 1
715 225 742 1
181 180 182 1
364 435 595 1
175 176 177 1
724 463 725 1
184 182 214 1
276 262 300 1
270 269 780 1
303 302 792 1
509 588 828 1
362 711 744 1
423 390 683 1
485 394 740 1
474 386 660 1
679 434 796 1
126 109 754 1
587 507 807 1
606 427 759 1
664 245 805 1
549 510 828 1
19 128 758 1
215 218 219 1
298 422 726 1
444 445 752 1
794 753 921 1
447 446 448 1
239 721 739 1
427 399 759 1
457 459 757 1
537 539 540 1
223 222 266 1
445 447 462 1
459 500 757 1
441 443 444 1
311 716 768 1
711 704 744 1
634 467 635 1
500 503 514 1
333 334 381 1
319 279 643 1
247 232 749 1
204 287 764 1
219 224 748 1
245 250 805 1
184 421 746 1
233 244 790 1
790 244 796 1
554 559 616 1
219 218 222 1
184 214 215 1
566 565 622 1
447 448 449 1
445 443 446 1
404 565 566 1
441 444 776 1
460 457 757 1
95 747 755 1
640 798 877 1
183 184 746 1
92 93 763 1
381 382 467 1
186 183 746 1
325 310 768 1
723 325 768 1
156 92 763 1
646 278 779 1
768 716 791 1
179 178 180 1
91 156 767 1
485 740 765 1
341 342 772 1
547 423 756 1
198 208 765 1
223 266 742 1
199 198 765 1
90 91 767 1
497 496 612 1
155 111 769 1
93 125 763 1
160 18 758 1
541 886 888 1
643 313 827 1
421 215 748 1
215 214 218 1
177 176 178 1
208 248 760 1
445 462 752 1
466 465 496 1
18 19 758 1
173 171 174 1
297 651 775 1
411 544 545 1
215 219 748 1
578 545 927 1
310 311 768 1
486 614 825 1
31 32 145 1
670 487 825 1
289 335 761 1
441 440 442 1
17 160 778 1
874 786 894 1
445 446 447 1
444 443 445 1
536 520 537 1
129 90 767 1
40 120 168 1
660 662 770 1
500 514 757 1
323 363 792 1
451 461 771 1
175 174 176 1
68 69 140 1
178 176 301 1
158 27 782 1
721 231 790 1
536 537 538 1
683 697 756 1
439 548 803 1
747 154 774 1
572 722 781 1
441 442 443 1
154 820 902 1
295 297 775 1
482 474 770 1
894 786 909 1
534 492 789 1
449 451 771 1
780 269 814 1
834 498 847 1
625 383 633 1
169 170 171 1
333 280 334 1
373 361 783 1
554 616 897 1
262 253 766 1
382 334 440 1
345 374 375 1
722 678 781 1
508 511 812 1
41 42 787 1
519 520 536 1
774 586 938 1
519 518 520 1
635 467 776 1
335 404 761 1
423 683 756 1
724 725 789 1
382 440 441 1
278 317 779 1
123 24 804 1
172 693 939 1
692 721 790 1
723 768 791 1
381 334 382 1
583 122 928 1
158 707 810 1
201 764 788 1
542 506 812 1
317 366 779 1
371 350 393 1
649 44 898 1
404 566 761 1
481 393 515 1
497 612 613 1
499 498 834 1
153 107 822 1
712 572 781 1
59 60 795 1
415 797 823 1
231 233 790 1
171 170 800 1
655 656 889 1
84 85 784 1
436 556 750 1
363 466 792 1
302 323 792 1
415 679 797 1
300 262 766 1
474 660 770 1
517 518 519 1
14 15 785 1
811 145 867 1
517 516 518 1
492 724 789 1
26 158 810 1
692 790 796 1
98 122 820 1
515 516 517 1
363 465 466 1
466 496 497 1
154 97 820 1
139 644 951 1
530 533 948 1
601 599 602 1
515 393 516 1
716 717 791 1
85 131 784 1
280 270 780 1
586 723 791 1
512 479 830 1
434 692 796 1
36 37 815 1
47 149 841 1
82 83 794 1
162 84 784 1
366 411 809 1
38 39 793 1
771 730 824 1
814 685 821 1
15 133 785 1
108 126 822 1
24 25 804 1
350 319 777 1
168 120 169 1
674 439 803 1
83 162 794 1
601 819 871 1
192 188 818 1
465 569 842 1
693 920 939 1
490 557 868 1
540 728 906 1
39 168 793 1
395 433 522 1
675 676 821 1
163 14 785 1
666 665 823 1
495 464 840 1
521 568 924 1
80 81 799 1
147 831 888 1
174 171 800 1
139 631 901 1
689 131 923 1
448 446 845 1
250 274 805 1
626 631 951 1
641 203 929 1
1 2 709 1
440 780 814 1
507 505 807 1
271 272 900 1
269 685 814 1
60 161 795 1
523 689 923 1
186 746 818 1
87 159 833 1
334 280 780 1
124 46 841 1
442 814 821 1
440 334 780 1
319 643 777 1
129 687 941 1
159 686 833 1
134 82 794 1
609 815 830 1
636 635 863 1
137 806 842 1
169 120 170 1
44 45 898 1
393 350 777 1
512 865 939 1
81 134 799 1
855 129 950 1
25 26 810 1
142 862 895 1
190 192 832 1
146 66 801 1
120 41 787 1
820 585 902 1
644 64 848 1
238 236 844 1
815 143 830 1
266 222 826 1
604 851 896 1
506 508 812 1
78 79 806 1
200 195 837 1
586 774 902 1
493 577 884 1
892 538 912 1
546 682 868 1
301 176 817 1
392 424 906 1
113 114 891 1
165 80 799 1
447 449 824 1
147 616 831 1
79 165 806 1
303 650 900 1
745 744 835 1
516 393 777 1
635 776 863 1
375 374 798 1
101 150 864 1
725 751 864 1
665 783 823 1
30 31 811 1
131 86 833 1
374 395 798 1
557 491 884 1
575 576 867 1
804 25 810 1
656 881 889 1
539 520 858 1
676 254 853 1
637 76 940 1
170 120 787 1
687 159 941 1
152 57 917 1
552 480 829 1
161 61 901 1
751 100 864 1
209 200 870 1
498 502 847 1
71 72 164 1
137 78 806 1
236 234 881 1
729 733 850 1
504 542 873 1
174 800 817 1
214 182 846 1
411 545 809 1
535 580 945 1
6 7 141 1
153 822 859 1
10 11 813 1
777 643 827 1
142 116 886 1
703 702 866 1
176 174 817 1
188 186 818 1
442 440 814 1
395 522 798 1
553 554 849 1
783 415 823 1
720 214 846 1
177 285 929 1
49 127 899 1
107 108 822 1
163 785 935 1
897 616 943 1
114 115 880 1
149 48 899 1
728 438 906 1
487 486 825 1
74 144 874 1
749 715 854 1
601 602 808 1
97 98 820 1
582 503 873 1
510 509 828 1
178 301 843 1
479 609 830 1
517 543 895 1
516 777 827 1
64 65 848 1
104 105 932 1
303 792 816 1
619 867 915 1
282 303 900 1
844 656 879 1
696 495 859 1
119 29 876 1
264 265 883 1
37 143 815 1
512 830 865 1
644 628 951 1
106 153 911 1
117 118 888 1
316 296 883 1
143 38 793 1
266 834 847 1
446 443 836 1
685 675 821 1
631 625 852 1
276 300 872 1
86 87 833 1
594 641 942 1
462 447 824 1
578 133 944 1
314 316 887 1
481 515 862 1
11 138 813 1
402 331 887 1
652 499 834 1
203 175 929 1
222 299 826 1
89 129 941 1
619 575 867 1
749 854 875 1
249 273 903 1
444 752 863 1
443 442 836 1
650 531 925 1
135 636 917 1
76 77 940 1
630 644 848 1
753 532 921 1
466 497 816 1
58 135 917 1
717 745 938 1
425 688 855 1
785 133 927 1
539 858 872 1
798 522 877 1
193 190 832 1
792 466 816 1
850 733 890 1
847 502 854 1
785 927 935 1
733 152 890 1
267 268 936 1
596 750 946 1
518 516 827 1
725 463 928 1
247 875 889 1
629 630 926 1
165 612 908 1
159 88 941 1
751 725 928 1
865 684 939 1
247 749 875 1
745 774 938 1
800 170 916 1
46 47 841 1
145 32 802 1
3 4 166 1
193 832 837 1
195 193 837 1
744 704 835 1
537 540 912 1
827 313 858 1
822 697 859 1
821 676 836 1
125 755 835 1
266 826 834 1
167 10 813 1
464 581 840 1
842 806 908 1
62 139 901 1
496 465 842 1
535 534 930 1
158 782 829 1
31 145 811 1
180 178 843 1
146 801 808 1
845 676 853 1
442 821 836 1
478 448 845 1
9 167 878 1
815 609 860 1
543 519 910 1
69 70 851 1
615 488 885 1
284 238 844 1
73 74 874 1
693 522 920 1
182 180 846 1
518 827 858 1
35 36 860 1
730 729 850 1
153 840 911 1
488 700 885 1
616 559 831 1
604 600 871 1
801 67 931 1
728 540 918 1
180 843 846 1
681 478 861 1
5 6 869 1
8 9 878 1
799 134 838 1
129 767 950 1
607 608 893 1
742 266 847 1
682 490 868 1
29 30 876 1
514 582 933 1
890 152 919 1
7 8 856 1
469 681 879 1
793 684 865 1
568 800 916 1
784 689 913 1
484 546 857 1
787 148 916 1
527 753 913 1
494 425 855 1
254 699 853 1
802 608 915 1
826 652 834 1
122 751 928 1
522 433 920 1
689 527 913 1
699 284 861 1
144 786 874 1
65 146 848 1
715 742 854 1
742 847 854 1
543 880 895 1
100 101 864 1
697 696 859 1
30 811 876 1
625 633 852 1
556 856 878 1
703 763 914 1
681 861 879 1
76 637 937 1
273 209 870 1
520 518 858 1
853 699 861 1
835 704 914 1
702 494 866 1
273 857 903 1
541 481 862 1
586 791 938 1
861 284 879 1
503 504 873 1
819 140 871 1
125 835 914 1
753 162 913 1
540 539 918 1
478 853 861 1
116 117 886 1
502 654 875 1
313 276 872 1
34 35 130 1
882 130 893 1
854 502 875 1
862 142 886 1
491 493 884 1
33 34 882 1
462 824 850 1
838 134 921 1
234 247 881 1
36 815 860 1
462 850 890 1
637 570 904 1
654 655 889 1
875 654 889 1
115 142 880 1
296 264 883 1
802 33 882 1
612 496 908 1
858 313 872 1
61 62 901 1
136 113 891 1
616 709 943 1
776 444 863 1
140 69 851 1
786 603 909 1
331 314 887 1
824 730 850 1
45 124 898 1
872 300 918 1
272 282 900 1
48 49 899 1
144 75 937 1
819 801 931 1
650 303 949 1
438 392 906 1
72 73 894 1
67 68 931 1
752 462 890 1
897 166 905 1
515 517 895 1
891 543 910 1
57 58 917 1
738 514 933 1
608 619 915 1
70 71 896 1
105 106 911 1
140 819 931 1
585 586 902 1
684 172 939 1
68 140 931 1
532 530 948 1
577 535 945 1
752 890 919 1
128 714 947 1
870 615 885 1
268 271 936 1
863 752 919 1
265 249 903 1
649 521 924 1
143 793 865 1
881 247 889 1
496 842 908 1
628 626 951 1
758 128 947 1
300 728 918 1
866 494 950 1
519 536 910 1
533 650 949 1
121 104 932 1
75 76 937 1
686 523 923 1
478 845 853 1
774 154 902 1
778 934 944 1
718 121 930 1
658 758 947 1
2 3 907 1
704 703 914 1
175 177 929 1
536 538 922 1
763 125 914 1
4 5 905 1
88 89 941 1
538 537 912 1
133 778 944 1
769 136 922 1
856 8 878 1
910 536 922 1
531 550 925 1
77 137 940 1
830 143 865 1
6 141 869 1
463 583 928 1
141 7 856 1
513 578 944 1
593 594 942 1
750 167 946 1
141 849 869 1
284 844 879 1
558 513 934 1
131 833 923 1
162 784 913 1
136 910 922 1
778 160 934 1
806 165 908 1
545 544 935 1
934 513 944 1
118 147 888 1
580 402 945 1
433 512 920 1
904 144 937 1
709 2 907 1
164 894 909 1
840 581 911 1
71 164 896 1
164 72 894 1
134 794 921 1
857 546 903 1
880 142 895 1
273 870 885 1
541 862 886 1
170 787 916 1
791 717 938 1
167 813 946 1
849 554 897 1
808 602 926 1
539 872 918 1
73 874 894 1
851 70 896 1
130 35 860 1
636 863 919 1
303 816 949 1
709 907 943 1
927 545 935 1
833 686 923 1
34 130 882 1
166 4 905 1
5 869 905 1
3 166 907 1
145 802 915 1
136 891 910 1
920 512 939 1
494 855 950 1
271 925 936 1
166 897 943 1
637 904 937 1
925 550 936 1
907 166 943 1

End
