MeshVersionFormatted 2
Dimension 3

Vertices
450
-2.5339024047888853e-01 -3.2574426320635042e-01 0.0000000000000000e+00 1
-2.4721470448566124e-01 -3.2005538145780521e-01 0.0000000000000000e+00 1
-2.4087180600434382e-01 -3.1410031550939715e-01 0.0000000000000000e+00 1
-2.3436708402910991e-01 -3.0788619636165038e-01 0.0000000000000000e+00 1
-2.2770607755413280e-01 -3.0142015501508845e-01 0.0000000000000000e+00 1
-2.2089432557358610e-01 -2.9470932247023551e-01 0.0000000000000000e+00 1
-2.1393736708164307e-01 -2.8776082972761524e-01 0.0000000000000000e+00 1
-2.0684074107247732e-01 -2.8058180778775155e-01 0.0000000000000000e+00 1
-1.9960998654026224e-01 -2.7317938765116828e-01 0.0000000000000000e+00 1
-1.9225064247917131e-01 -2.6556070031838941e-01 0.0000000000000000e+00 1
-1.8476824788337784e-01 -2.5773287678993850e-01 0.0000000000000000e+00 1
-1.7716834174705551e-01 -2.4970304806633983e-01 0.0000000000000000e+00 1
-1.6945646306437756e-01 -2.4147834514811686e-01 0.0000000000000000e+00 1
-1.6163815082951763e-01 -2.3306589903579375e-01 0.0000000000000000e+00 1
-1.5371894403664901e-01 -2.2447284072989418e-01 0.0000000000000000e+00 1
-1.4570438167994526e-01 -2.1570630123094200e-01 0.0000000000000000e+00 1
-1.3760000275357970e-01 -2.0677341153946113e-01 0.0000000000000000e+00 1
-1.2941134625172596e-01 -1.9768130265597553e-01 0.0000000000000000e+00 1
-1.2114395116855742e-01 -1.8843710558100893e-01 0.0000000000000000e+00 1
-1.1280335649824742e-01 -1.7904795131508514e-01 0.0000000000000000e+00 1
-1.0439510123496951e-01 -1.6952097085872805e-01 0.0000000000000000e+00 1
-9.5924724372897160e-02 -1.5986329521246165e-01 0.0000000000000000e+00 1
-8.7397764906203809e-02 -1.5008205537680974e-01 0.0000000000000000e+00 1
-7.8819761829062820e-02 -1.4018438235229599e-01 0.0000000000000000e+00 1
-7.0196254135647784e-02 -1.3017740713944453e-01 0.0000000000000000e+00 1
-6.1532780820132013e-02 -1.2006826073877905e-01 0.0000000000000000e+00 1
-5.2834880876689076e-02 -1.0986407415082353e-01 0.0000000000000000e+00 1
-4.4108093299492404e-02 -9.9571978376101739e-02 0.0000000000000000e+00 1
-3.5357957082715316e-02 -8.9199104415137481e-02 0.0000000000000000e+00 1
-2.6590011220531395e-02 -7.8752583268454704e-02 0.0000000000000000e+00 1
-1.7809794707114107e-02 -6.8239545936577301e-02 0.0000000000000000e+00 1
-9.0228465366368298e-03 -5.7667123420029082e-02 0.0000000000000000e+00 1
-2.3470570327301099e-04 -4.7042446719333844e-02 0.0000000000000000e+00 1
8.5490887988038770e-03 -3.6372646835015510e-02 0.0000000000000000e+00 1
1.7322997975420348e-02 -2.5664854767597962e-02 0.0000000000000000e+00 1
2.6081482832402955e-02 -1.4926201517605060e-02 0.0000000000000000e+00 1
3.4819004375578347e-02 -4.1638180855605618e-03 0.0000000000000000e+00 1
4.3530023610772940e-02 6.6151645280115613e-03 0.0000000000000000e+00 1
5.2209001543813388e-02 1.7403615322587534e-02 0.0000000000000000e+00 1
6.0850399180526163e-02 2.8194403297643406e-02 0.0000000000000000e+00 1
6.9448677526737890e-02 3.8980397452655455e-02 0.0000000000000000e+00 1
7.7998297588275034e-02 4.9754466787099660e-02 0.0000000000000000e+00 1
8.6493720370964200e-02 6.0509480300452279e-02 0.0000000000000000e+00 1
9.4929406880631922e-02 7.1238306992189387e-02 0.0000000000000000e+00 1
1.0329981812310479e-01 8.1933815861787218e-02 0.0000000000000000e+00 1
1.1159941510420923e-01 9.2588875908721779e-02 0.0000000000000000e+00 1
1.1982265882977199e-01 1.0319635613246936e-01 0.0000000000000000e+00 1
1.2796401030561941e-01 1.1374912553250592e-01 0.0000000000000000e+00 1
1.3601793053757816e-01 1.2424005310830774e-01 0.0000000000000000e+00 1
1.4397888053147478e-01 1.3466200785935101e-01 0.0000000000000000e+00 1
1.5184132129313577e-01 1.4500785878511169e-01 0.0000000000000000e+00 1
1.5959971382838778e-01 1.5527047488506610e-01 0.0000000000000000e+00 1
1.6724851914305722e-01 1.6544272515869024e-01 0.0000000000000000e+00 1
1.7478219824297078e-01 1.7551747860546038e-01 0.0000000000000000e+00 1
1.8219521213395490e-01 1.8548760422485255e-01 0.0000000000000000e+00 1
1.8948202182183621e-01 1.9534597101634299e-01 0.0000000000000000e+00 1
1.9663708831244117e-01 2.0508544797940773e-01 0.0000000000000000e+00 1
2.0365487261159643e-01 2.1469890411352299e-01 0.0000000000000000e+00 1
2.1052983572512840e-01 2.2417920841816488e-01 0.0000000000000000e+00 1
2.1725643865886385e-01 2.3351922989280960e-01 0.0000000000000000e+00 1
2.2382914241862908e-01 2.4271183753693318e-01 0.0000000000000000e+00 1
2.3024240801025087e-01 2.5174990035001188e-01 0.0000000000000000e+00 1
2.3649069643955559e-01 2.6062628733152177e-01 0.0000000000000000e+00 1
2.4256846871236987e-01 2.6933386748093902e-01 0.0000000000000000e+00 1
2.4847018583452021e-01 2.7786550979773972e-01 0.0000000000000000e+00 1
2.5419030881183324e-01 2.8621408328140008e-01 0.0000000000000000e+00 1
2.5972329865013544e-01 2.9437245693139624e-01 0.0000000000000000e+00 1
2.6506361635525338e-01 3.0233349974720430e-01 0.0000000000000000e+00 1
2.7020572293301365e-01 3.1009008072830047e-01 0.0000000000000000e+00 1
2.7310243532528450e-01 3.1470203202080588e-01 0.0000000000000000e+00 1
2.7510140015131790e-01 3.1836898346047177e-01 0.0000000000000000e+00 1
2.7623731645939825e-01 3.2112505557479576e-01 0.0000000000000000e+00 1
2.7654488329780996e-01 3.2300436889127598e-01 0.0000000000000000e+00 1
2.7605879971483754e-01 3.2404104393741062e-01 0.0000000000000000e+00 1
2.7481376475876546e-01 3.2426920124069730e-01 0.0000000000000000e+00 1
2.7284447747787799e-01 3.2372296132863404e-01 0.0000000000000000e+00 1
2.7018563692045955e-01 3.2243644472871874e-01 0.0000000000000000e+00 1
2.6687194213479482e-01 3.2044377196844959e-01 0.0000000000000000e+00 1
2.6293809216916791e-01 3.1777906357532432e-01 0.0000000000000000e+00 1
2.5841878607186347e-01 3.1447644007684095e-01 0.0000000000000000e+00 1
2.5334872289116572e-01 3.1057002200049733e-01 0.0000000000000000e+00 1
2.4776260167535924e-01 3.0609392987379158e-01 0.0000000000000000e+00 1
2.4169512147272837e-01 3.0108228422422151e-01 0.0000000000000000e+00 1
2.3518098133155754e-01 2.9556920557928507e-01 0.0000000000000000e+00 1
2.2825488030013116e-01 2.8958881446648016e-01 0.0000000000000000e+00 1
2.2095151742673380e-01 2.8317523141330503e-01 0.0000000000000000e+00 1
2.1330559175964967e-01 2.7636257694725724e-01 0.0000000000000000e+00 1
2.0535180234716330e-01 2.6918497159583493e-01 0.0000000000000000e+00 1
1.9712484823755919e-01 2.6167653588653617e-01 0.0000000000000000e+00 1
1.8865942847912168e-01 2.5387139034685874e-01 0.0000000000000000e+00 1
1.7999024212013515e-01 2.4580365550430053e-01 0.0000000000000000e+00 1
1.7115198820888405e-01 2.3750745188635961e-01 0.0000000000000000e+00 1
1.6217936579365283e-01 2.2901690002053385e-01 0.0000000000000000e+00 1
1.5310707392272588e-01 2.2036612043432119e-01 0.0000000000000000e+00 1
1.4396981164438769e-01 2.1158923365521970e-01 0.0000000000000000e+00 1
1.3480227800692265e-01 2.0272036021072723e-01 0.0000000000000000e+00 1
1.2563917205861513e-01 1.9379362062834177e-01 0.0000000000000000e+00 1
1.1651519284774960e-01 1.8484313543556122e-01 0.0000000000000000e+00 1
1.0746503942261044e-01 1.7590302515988354e-01 0.0000000000000000e+00 1
9.8523410831482139e-02 1.6700741032880670e-01 0.0000000000000000e+00 1
8.9725006122649081e-02 1.5819041146982862e-01 0.0000000000000000e+00 1
8.1104524344395745e-02 1.4948614911044730e-01 0.0000000000000000e+00 1
7.2696664545006479e-02 1.4092874377816064e-01 0.0000000000000000e+00 1
6.4536125772765685e-02 1.3255231600046657e-01 0.0000000000000000e+00 1
5.6657607075957878e-02 1.2439098630486309e-01 0.0000000000000000e+00 1
4.9095807502867454e-02 1.1647887521884813e-01 0.0000000000000000e+00 1
4.1885426101778790e-02 1.0885010326991963e-01 0.0000000000000000e+00 1
3.5061161920976358e-02 1.0153879098557554e-01 0.0000000000000000e+00 1
2.8657714008744527e-02 9.4579058893313778e-02 0.0000000000000000e+00 1
2.2709781413367783e-02 8.8005027520632342e-02 0.0000000000000000e+00 1
1.7252063183130516e-02 8.1850817395029155e-02 0.0000000000000000e+00 1
1.2319258366317153e-02 7.6150549044002175e-02 0.0000000000000000e+00 1
7.9460660112121162e-03 7.0938342995049336e-02 0.0000000000000000e+00 1
3.0283576945253163e-03 6.4903401883429510e-02 0.0000000000000000e+00 1
-2.2826132224257525e-03 5.8267364728859600e-02 0.0000000000000000e+00 1
-7.9632752326543980e-03 5.1062764393056390e-02 0.0000000000000000e+00 1
-1.3990056829173921e-02 4.3322133737736704e-02 0.0000000000000000e+00 1
-2.0339386504997635e-02 3.5078005624617339e-02 0.0000000000000000e+00 1
-2.6987692753138837e-02 2.6362912915415128e-02 0.0000000000000000e+00 1
-3.3911404066610883e-02 1.7209388471846873e-02 0.0000000000000000e+00 1
-4.1086948938426994e-02 7.6499651556293773e-03 0.0000000000000000e+00 1
-4.8490755861600544e-02 -2.2828241715205332e-03 0.0000000000000000e+00 1
-5.6099253329144838e-02 -1.2556446647886070e-02 0.0000000000000000e+00 1
-6.3888869834073145e-02 -2.3138369411750400e-02 0.0000000000000000e+00 1
-7.1836033869398810e-02 -3.3996059601396719e-02 0.0000000000000000e+00 1
-7.9917173928135118e-02 -4.5096984355108213e-02 0.0000000000000000e+00 1
-8.8108718503295422e-02 -5.6408610811168103e-02 0.0000000000000000e+00 1
-9.6387096087892948e-02 -6.7898406107859535e-02 0.0000000000000000e+00 1
-1.0472873517494106e-01 -7.9533837383465686e-02 0.0000000000000000e+00 1
-1.1311006425745307e-01 -9.1282371776269813e-02 0.0000000000000000e+00 1
-1.2150751182844224e-01 -1.0311147642455502e-01 0.0000000000000000e+00 1
-1.2989750638092196e-01 -1.1498861846660460e-01 0.0000000000000000e+00 1
-1.3825647640790545e-01 -1.2688126504070166e-01 0.0000000000000000e+00 1
-1.4656085040240605e-01 -1.3875688328512939e-01 0.0000000000000000e+00 1
-1.5478705685743710e-01 -1.5058294033817102e-01 0.0000000000000000e+00 1
-1.6291152426601188e-01 -1.6232690333810973e-01 0.0000000000000000e+00 1
-1.7091068112114363e-01 -1.7395623942322863e-01 0.0000000000000000e+00 1
-1.7876095591584573e-01 -1.8543841573181105e-01 0.0000000000000000e+00 1
-1.8643877714313153e-01 -1.9674089940214004e-01 0.0000000000000000e+00 1
-1.9392057329601431e-01 -2.0783115757249893e-01 0.0000000000000000e+00 1
-2.0118277286750738e-01 -2.1867665738117084e-01 0.0000000000000000e+00 1
-2.0820180435062394e-01 -2.2924486596643884e-01 0.0000000000000000e+00 1
-2.1495409623837744e-01 -2.3950325046658635e-01 0.0000000000000000e+00 1
-2.2141607702378108e-01 -2.4941927801989636e-01 0.0000000000000000e+00 1
-2.2756417519984828e-01 -2.5896041576465223e-01 0.0000000000000000e+00 1
-2.3337481925959225e-01 -2.6809413083913702e-01 0.0000000000000000e+00 1
-2.3882443769602632e-01 -2.7678789038163393e-01 0.0000000000000000e+00 1
-2.4388945900216386e-01 -2.8500916153042621e-01 0.0000000000000000e+00 1
-2.4854631167101804e-01 -2.9272541142379699e-01 0.0000000000000000e+00 1
-2.5277142419560239e-01 -2.9990410720002947e-01 0.0000000000000000e+00 1
-2.5654122506892996e-01 -3.0651271599740687e-01 0.0000000000000000e+00 1
-2.5983214278401423e-01 -3.1251870495421241e-01 0.0000000000000000e+00 1
-2.6262060583386848e-01 -3.1788954120872914e-01 0.0000000000000000e+00 1
-2.6488304271150598e-01 -3.2259269189924045e-01 0.0000000000000000e+00 1
-2.6659588190994010e-01 -3.2659562416402932e-01 0.0000000000000000e+00 1
-2.6773555192218401e-01 -3.2986580514137909e-01 0.0000000000000000e+00 1
-2.6827848124125120e-01 -3.3237070196957291e-01 0.0000000000000000e+00 1
-2.6820109836015488e-01 -3.3407778178689390e-01 0.0000000000000000e+00 1
-2.6747983177190837e-01 -3.3495451173162538e-01 0.0000000000000000e+00 1
-2.6609110996952495e-01 -3.3496835894205040e-01 0.0000000000000000e+00 1
-2.6401136144601789e-01 -3.3408679055645224e-01 0.0000000000000000e+00 1
-2.6121701469440067e-01 -3.3227727371311411e-01 0.0000000000000000e+00 1
-2.5768449820768641e-01 -3.2950727555031911e-01 0.0000000000000000e+00 1
1.4245499542717366e-02 6.9879262402760253e-02 0.0000000000000000e+00 1
7.3353720283385413e-05 4.9583050729132917e-02 0.0000000000000000e+00 1
3.1171590762704898e-02 8.6326852334770179e-02 0.0000000000000000e+00 1
-1.8355544980060496e-02 2.6160355276483072e-02 0.0000000000000000e+00 1
5.1941319881854117e-02 1.0656756698481515e-01 0.0000000000000000e+00 1
-2.9915158987983224e-02 5.7284949092446750e-03 0.0000000000000000e+00 1
5.6374166271155032e-02 4.0972437691798043e-02 0.0000000000000000e+00 1
6.7540439345110573e-02 1.2176869083625494e-01 0.0000000000000000e+00 1
-4.5328876154046550e-02 -1.3852430495532045e-02 0.0000000000000000e+00 1
7.2576802803475254e-02 6.3609288085427582e-02 0.0000000000000000e+00 1
3.8533761702529999e-02 1.9519715306879706e-02 0.0000000000000000e+00 1
8.4019441168537698e-02 1.3821826379267102e-01 0.0000000000000000e+00 1
-5.7980195298916432e-02 -3.3513118049272816e-02 0.0000000000000000e+00 1
-7.4299335617233939e-02 -5.7787106443344755e-02 0.0000000000000000e+00 1
2.2115179694614552e-02 -2.6197969036253991e-03 0.0000000000000000e+00 1
1.0169699924871611e-01 1.5504209037002251e-01 0.0000000000000000e+00 1
9.0785871041593663e-02 8.4035935523891409e-02 0.0000000000000000e+00 1
-6.5618569780319866e-02 -1.0713932494129635e-01 0.0000000000000000e+00 1
3.9386155848642294e-03 -2.3343126638962743e-02 0.0000000000000000e+00 1
-8.2495272614141635e-02 -1.2938856291881418e-01 0.0000000000000000e+00 1
1.2014394579868506e-01 1.7274395284664767e-01 0.0000000000000000e+00 1
-9.9888348643779878e-02 -1.4771688964530927e-01 0.0000000000000000e+00 1
-1.3593474837015930e-02 -4.4536902615280011e-02 0.0000000000000000e+00 1
1.0676010559147454e-01 1.0497813316366447e-01 0.0000000000000000e+00 1
-1.1429735585174142e-01 -1.6693902028830804e-01 0.0000000000000000e+00 1
-3.1269197332041511e-02 -6.5890582764193531e-02 0.0000000000000000e+00 1
1.3799618876779368e-01 1.9041965891227303e-01 0.0000000000000000e+00 1
-1.3367131733296295e-01 -1.8615554770636819e-01 0.0000000000000000e+00 1
1.2287672969158489e-01 1.2586581626550203e-01 0.0000000000000000e+00 1
-4.8557393248038330e-02 -8.6007992992246318e-02 0.0000000000000000e+00 1
1.5607924801858147e-01 2.0815206752505513e-01 0.0000000000000000e+00 1
-1.4923195481132390e-01 -2.0429816858888081e-01 0.0000000000000000e+00 1
-1.6485049671118443e-01 -2.2176759313796796e-01 0.0000000000000000e+00 1
-8.9997123241347898e-02 -8.0756129584531447e-02 0.0000000000000000e+00 1
1.3895037133013149e-01 1.4661770303935756e-01 0.0000000000000000e+00 1
1.7381725896388200e-01 2.2561877760746177e-01 0.0000000000000000e+00 1
-1.1552786816334144e-01 -1.1682227191252825e-01 0.0000000000000000e+00 1
-1.8003762019766900e-01 -2.3928250137296536e-01 0.0000000000000000e+00 1
-1.3233810687585096e-01 -1.3996948277953575e-01 0.0000000000000000e+00 1
1.5508387181126218e-01 1.6658409377264699e-01 0.0000000000000000e+00 1
1.9091193376802229e-01 2.4262192541702299e-01 0.0000000000000000e+00 1
-1.9655833368994252e-01 -2.5612849533262588e-01 0.0000000000000000e+00 1
1.7017202279183963e-01 1.8668181627837555e-01 0.0000000000000000e+00 1
-1.4860305838822532e-01 -1.6324964931645811e-01 0.0000000000000000e+00 1
-2.0974713243388443e-01 -2.6973621561966055e-01 0.0000000000000000e+00 1
2.0761687582996413e-01 2.5844180896089514e-01 0.0000000000000000e+00 1
-1.7288804344413969e-01 -1.9755543138755963e-01 0.0000000000000000e+00 1
1.8445701006474366e-01 2.0668953417502167e-01 0.0000000000000000e+00 1
2.2587009153794585e-01 2.6188321682746402e-01 0.0000000000000000e+00 1
-2.2879232874087208e-01 -2.7702153704113203e-01 0.0000000000000000e+00 1
-1.8842853290731948e-01 -2.1889671652696077e-01 0.0000000000000000e+00 1
-2.6553000835133700e-01 -3.3326367632258597e-01 0.0000000000000000e+00 1
2.7532747463814355e-01 3.2223024031942971e-01 0.0000000000000000e+00 1
-2.3058280703302125e-01 -2.9324843396000910e-01 0.0000000000000000e+00 1
-2.5744009033372867e-01 -3.1724522888534412e-01 0.0000000000000000e+00 1
2.2999494898509890e-01 2.8024225561564797e-01 0.0000000000000000e+00 1
1.9940668533177894e-01 2.2581968583827741e-01 0.0000000000000000e+00 1
2.6737081106960803e-01 3.1634406189566655e-01 0.0000000000000000e+00 1
-2.4525738427176924e-01 -2.9967724207264107e-01 0.0000000000000000e+00 1
2.7226358524346683e-01 3.2125789245644465e-01 0.0000000000000000e+00 1
-2.6483167208634928e-01 -3.2907225387439765e-01 0.0000000000000000e+00 1
-2.0242570180445091e-01 -2.3881919818520075e-01 0.0000000000000000e+00 1
-2.5852431032190953e-01 -3.2514049352834451e-01 0.0000000000000000e+00 1
2.1308476960787220e-01 2.4186405098547747e-01 0.0000000000000000e+00 1
2.4278909317235475e-01 2.9409409584243540e-01 0.0000000000000000e+00 1
2.5434621211637976e-01 3.0347284786231343e-01 0.0000000000000000e+00 1
-2.1595263099666984e-01 -2.5945734735713089e-01 0.0000000000000000e+00 1
-2.4798561242458128e-01 -3.1282347012236078e-01 0.0000000000000000e+00 1
6.4578869343741976e-02 5.1374170937544011e-02 0.0000000000000000e+00 1
5.1871631384771563e-02 5.2732832176464711e-02 0.0000000000000000e+00 1
4.4150428042643797e-02 4.3409563512671348e-02 0.0000000000000000e+00 1
4.0303247216497431e-02 5.4767783324821850e-02 0.0000000000000000e+00 1
3.2721983368900746e-02 4.6102074681887914e-02 0.0000000000000000e+00 1
4.7525136622437916e-02 6.3386839608418011e-02 0.0000000000000000e+00 1
3.6632512285851647e-02 6.5330800175172760e-02 0.0000000000000000e+00 1
4.3396672755841394e-02 7.3354910205764234e-02 0.0000000000000000e+00 1
5.4344381333322617e-02 7.2035656205478152e-02 0.0000000000000000e+00 1
4.9893933949001629e-02 8.2139582243410586e-02 0.0000000000000000e+00 1
6.0980253719725097e-02 8.0716117393079545e-02 0.0000000000000000e+00 1
5.6565238206164589e-02 9.0494858391522451e-02 0.0000000000000000e+00 1
6.7793052775903556e-02 8.9463959349714350e-02 0.0000000000000000e+00 1
7.1945620797734103e-02 7.8465899645208628e-02 0.0000000000000000e+00 1
4.6311478155105092e-02 9.1012535846087705e-02 0.0000000000000000e+00 1
6.1831219106961890e-02 1.0095099809159121e-01 0.0000000000000000e+00 1
7.4693640455664262e-02 9.8658096814335308e-02 0.0000000000000000e+00 1
3.6058761183720880e-02 3.5093733996891543e-02 0.0000000000000000e+00 1
2.4951420913736679e-02 3.7717106272936576e-02 0.0000000000000000e+00 1
2.0338147642183252e-02 4.8832626506796671e-02 0.0000000000000000e+00 1
1.4069887993122920e-02 4.0267314066734519e-02 0.0000000000000000e+00 1
1.7228110688505344e-02 2.9542402245683400e-02 0.0000000000000000e+00 1
6.1635381754975380e-03 3.1949826318112239e-02 0.0000000000000000e+00 1
9.3018733567495158e-03 2.1368013335667312e-02 0.0000000000000000e+00 1
1.9616833169043682e-02 1.8904675197699825e-02 0.0000000000000000e+00 1
-1.5811604379509176e-03 2.5803432951393715e-02 0.0000000000000000e+00 1
3.1565293240581085e-04 1.3161727992186432e-02 0.0000000000000000e+00 1
3.2484395445642321e-02 7.6154255602359680e-02 0.0000000000000000e+00 1
2.7310223174122968e-02 6.7379474867782188e-02 0.0000000000000000e+00 1
-4.5948300438223288e-03 3.5200973142898044e-02 0.0000000000000000e+00 1
2.9598091577119567e-02 5.7105822018468873e-02 0.0000000000000000e+00 1
2.1086855070689959e-02 6.0003417243991677e-02 0.0000000000000000e+00 1
1.3585103266774127e-02 5.6890371199673037e-02 0.0000000000000000e+00 1
7.0643405788780089e-02 1.0994180127914088e-01 0.0000000000000000e+00 1
8.2244500887031405e-02 1.0769085665831538e-01 0.0000000000000000e+00 1
3.0562336911038941e-02 8.4956203811146977e-03 0.0000000000000000e+00 1
2.6472004480775368e-01 3.0936010623995092e-01 0.0000000000000000e+00 1
2.4130208468443083e-02 7.6135816792773869e-02 0.0000000000000000e+00 1
-1.8096242568618520e-01 -2.0833198621072013e-01 0.0000000000000000e+00 1
-1.9555656794351886e-01 -2.2870889380294593e-01 0.0000000000000000e+00 1
-2.0759617339147965e-01 -2.5001806453576425e-01 0.0000000000000000e+00 1
9.8930750891316643e-02 9.4587931771426687e-02 0.0000000000000000e+00 1
1.2761524896004559e-02 -1.2886484527055184e-02 0.0000000000000000e+00 1
-6.3084677570340430e-04 -1.0699825475306535e-02 0.0000000000000000e+00 1
-9.1587716826928255e-03 -2.0895812188954480e-02 0.0000000000000000e+00 1
-1.3623601857115308e-02 -8.7097216510235789e-03 0.0000000000000000e+00 1
-2.1697498960080070e-02 -1.8288665176602860e-02 0.0000000000000000e+00 1
-5.5745183360501969e-03 1.4022942891246295e-03 0.0000000000000000e+00 1
-1.7848116293807073e-02 -3.1401994852628318e-02 0.0000000000000000e+00 1
-3.0672638993648867e-02 -2.8394725724381589e-02 0.0000000000000000e+00 1
8.9198618774587665e-03 8.9274381536789244e-04 0.0000000000000000e+00 1
-1.1102066120830777e-02 1.0777521467015098e-02 0.0000000000000000e+00 1
-2.5543484276630314e-02 -6.1764952141732561e-03 0.0000000000000000e+00 1
2.7175617615619735e-01 3.1781424158556082e-01 0.0000000000000000e+00 1
-1.4058253261747239e-01 -1.5163454451316252e-01 0.0000000000000000e+00 1
-1.3479017812116081e-01 -1.6444529261380153e-01 0.0000000000000000e+00 1
-1.2736886845478324e-01 -1.5232847456859053e-01 0.0000000000000000e+00 1
-1.1907939333324953e-01 -1.4085766135040195e-01 0.0000000000000000e+00 1
-1.4215847500388859e-01 -1.7556829504923405e-01 0.0000000000000000e+00 1
-1.5635293745076650e-01 -1.7464888079113730e-01 0.0000000000000000e+00 1
-1.4818450153841434e-01 -1.8553868898438147e-01 0.0000000000000000e+00 1
-1.6285032668579255e-01 -1.8742557262456694e-01 0.0000000000000000e+00 1
-1.2419704979160989e-01 -1.2827952321594771e-01 0.0000000000000000e+00 1
-1.1074339641871722e-01 -1.2950010222981728e-01 0.0000000000000000e+00 1
-1.0115733246902292e-01 -1.1809990548386154e-01 0.0000000000000000e+00 1
-1.0681772621998001e-01 -1.0537806914140130e-01 0.0000000000000000e+00 1
-9.2176159065984017e-02 -1.0633208257518378e-01 0.0000000000000000e+00 1
-9.8283435386781220e-02 -9.2733334798438483e-02 0.0000000000000000e+00 1
-8.4119538522171147e-02 -9.3024091359365318e-02 0.0000000000000000e+00 1
-7.6466123736493322e-02 -8.0585987159988839e-02 0.0000000000000000e+00 1
-7.0783056963270946e-02 -9.3951994247629803e-02 0.0000000000000000e+00 1
-6.2451969740864040e-02 -8.3508408844565230e-02 0.0000000000000000e+00 1
2.1568971123729269e-01 2.6537564521358692e-01 0.0000000000000000e+00 1
-2.2234722890088982e-01 -2.6838748509805721e-01 0.0000000000000000e+00 1
-2.1751048522952224e-01 -2.7821725125980007e-01 0.0000000000000000e+00 1
-2.0593379286063562e-01 -2.6019160268554575e-01 0.0000000000000000e+00 1
-1.6878715633213748e-01 -2.0998256713196853e-01 0.0000000000000000e+00 1
-1.1418187123030792e-01 -1.5297143335197308e-01 0.0000000000000000e+00 1
2.3281445913984711e-01 2.7063165121258848e-01 0.0000000000000000e+00 1
1.1484945165222721e-01 1.1543470146281054e-01 0.0000000000000000e+00 1
1.0998073473590543e-01 1.2756957986187711e-01 0.0000000000000000e+00 1
1.1793183306573995e-01 1.3787614253757616e-01 0.0000000000000000e+00 1
1.0376949022822481e-01 1.4055426641352409e-01 0.0000000000000000e+00 1
9.7194641024470563e-02 1.2849257318206717e-01 0.0000000000000000e+00 1
1.0191689143481761e-01 1.1720774273176729e-01 0.0000000000000000e+00 1
8.9871218590609397e-02 1.1787218340517908e-01 0.0000000000000000e+00 1
1.3090678152854493e-01 1.3627814444322672e-01 0.0000000000000000e+00 1
1.2642948439096269e-01 1.4849855301148873e-01 0.0000000000000000e+00 1
1.3525994198765476e-01 1.5852658148552029e-01 0.0000000000000000e+00 1
4.8170760258761977e-02 3.0624207286363742e-02 0.0000000000000000e+00 1
2.1772239852725273e-01 2.5318501938617682e-01 0.0000000000000000e+00 1
1.8230111340268212e-01 2.3440656173469132e-01 0.0000000000000000e+00 1
1.8551400311468461e-01 2.2220502627312938e-01 0.0000000000000000e+00 1
-2.6289251761650828e-01 -3.2566684647313970e-01 0.0000000000000000e+00 1
1.9903586866592152e-01 2.5100781385968962e-01 0.0000000000000000e+00 1
1.1417904462180015e-01 1.5103288844116342e-01 0.0000000000000000e+00 1
-2.2483277718201515e-02 -5.5334889264391271e-02 0.0000000000000000e+00 1
-3.5923643286753605e-02 -5.3092224098703636e-02 0.0000000000000000e+00 1
-4.4443011439942011e-02 -6.3448981503823054e-02 0.0000000000000000e+00 1
-4.8684655180586053e-02 -5.1263820657117140e-02 0.0000000000000000e+00 1
-5.8665988198963910e-02 -6.0660431823322106e-02 0.0000000000000000e+00 1
-3.9519915648185952e-02 -4.0622294308339690e-02 0.0000000000000000e+00 1
-6.2832459484276945e-02 -4.7620616982018998e-02 0.0000000000000000e+00 1
-2.6673511129602152e-02 -4.2230505143954079e-02 0.0000000000000000e+00 1
-4.4289526506090152e-02 -2.7895733868046352e-02 0.0000000000000000e+00 1
1.1119187805474173e-01 1.6348995019050164e-01 0.0000000000000000e+00 1
1.6492931255585133e-01 2.1702505411989784e-01 0.0000000000000000e+00 1
1.6861121663268652e-01 2.0479431596202202e-01 0.0000000000000000e+00 1
1.5889044528059323e-01 1.9636845618984139e-01 0.0000000000000000e+00 1
-9.6742506444868717e-02 -1.3168201568626398e-01 0.0000000000000000e+00 1
2.0156833527443047e-01 2.3958204344584894e-01 0.0000000000000000e+00 1
-2.3995786700191410e-01 -2.9262237036646643e-01 0.0000000000000000e+00 1
-3.9815645738435490e-02 -7.6174110439079873e-02 0.0000000000000000e+00 1
-2.1917872424372500e-02 1.5929791842514779e-02 0.0000000000000000e+00 1
2.2286703931827423e-01 2.7367289948550583e-01 0.0000000000000000e+00 1
-4.7418278209264541e-03 -3.3970630136385654e-02 0.0000000000000000e+00 1
1.4734274408833151e-01 1.5654217021294689e-01 0.0000000000000000e+00 1
1.4698345314043429e-01 1.9940160721597999e-01 0.0000000000000000e+00 1
1.5016274712432720e-01 1.8715986680276367e-01 0.0000000000000000e+00 1
1.4128733852985551e-01 1.7811651851695337e-01 0.0000000000000000e+00 1
1.2902242985880796e-01 1.8157660778702522e-01 0.0000000000000000e+00 1
1.7736371977309490e-01 1.9642389831550322e-01 0.0000000000000000e+00 1
1.6283100747884988e-01 1.7659016914333414e-01 0.0000000000000000e+00 1
7.5360089310430783e-02 1.3000738432863262e-01 0.0000000000000000e+00 1
9.2815499952614816e-02 1.4650877939074672e-01 0.0000000000000000e+00 1
5.9502508124501099e-02 1.1410248959900172e-01 0.0000000000000000e+00 1
-1.8752056289965457e-01 -2.4786534170021629e-01 0.0000000000000000e+00 1
-7.4047922870113719e-02 -1.1818473703308538e-01 0.0000000000000000e+00 1
-1.7259962659276765e-01 -2.3065282094584008e-01 0.0000000000000000e+00 1
-1.2631157340726851e-01 -1.7471715051850398e-01 0.0000000000000000e+00 1
-1.4172269355683786e-01 -1.9601908444624630e-01 0.0000000000000000e+00 1
2.3667183244594736e-01 2.8707759324839655e-01 0.0000000000000000e+00 1
2.5050660341409881e-01 2.9388579869864750e-01 0.0000000000000000e+00 1
1.0071408086918069e-02 6.4023103420646238e-02 0.0000000000000000e+00 1
-1.6048901109247449e-01 -2.0140180138597419e-01 0.0000000000000000e+00 1
5.9363796405596372e-02 6.2076971079744685e-02 0.0000000000000000e+00 1
-2.6387762666937620e-01 -3.3171601769052134e-01 0.0000000000000000e+00 1
9.4393224952765781e-02 1.0651034026769438e-01 0.0000000000000000e+00 1
-8.2402159220786753e-02 -6.8637938118188788e-02 0.0000000000000000e+00 1
-5.7392327318112432e-02 -9.6673962258777141e-02 0.0000000000000000e+00 1
-2.6150460659937169e-01 -3.2889669347163941e-01 0.0000000000000000e+00 1
3.9864537297204503e-02 8.3142208084308666e-02 0.0000000000000000e+00 1
-1.7646316168963105e-01 -2.1972825418499820e-01 0.0000000000000000e+00 1
8.6635882321345073e-02 9.6725193875813312e-02 0.0000000000000000e+00 1
-2.3497345966876901e-01 -2.8483131269766276e-01 0.0000000000000000e+00 1
-2.2414836248584452e-01 -2.8592216721898289e-01 0.0000000000000000e+00 1
2.8321511692450972e-02 2.6782907168708354e-02 0.0000000000000000e+00 1
2.3916829679226548e-01 2.7834667087754067e-01 0.0000000000000000e+00 1
-1.5713032411061909e-01 -2.1293821203427124e-01 0.0000000000000000e+00 1
7.9057495414345619e-02 8.7865649933925233e-02 0.0000000000000000e+00 1
-1.8247081719435062e-02 2.4331149272643661e-03 0.0000000000000000e+00 1
-7.8731852770877159e-02 -1.0592276316594082e-01 0.0000000000000000e+00 1
1.1843341026252580e-02 1.2324921060126177e-02 0.0000000000000000e+00 1
1.7546576026636962e-01 2.1526654162750650e-01 0.0000000000000000e+00 1
8.2620874751391266e-02 7.2986205458134057e-02 0.0000000000000000e+00 1
7.8479079932466361e-02 1.1928697074507441e-01 0.0000000000000000e+00 1
-2.6703379378915126e-01 -3.3350890537217648e-01 0.0000000000000000e+00 1
-2.3685985413419011e-01 -3.0032427351428870e-01 0.0000000000000000e+00 1
2.7440872993187126e-01 3.2057891154279655e-01 0.0000000000000000e+00 1
5.4516603681715927e-03 5.6726594617505378e-02 0.0000000000000000e+00 1
-3.7160671284930440e-02 -4.0277607352279237e-03 0.0000000000000000e+00 1
1.3222536316321379e-01 1.7005584080901556e-01 0.0000000000000000e+00 1
-6.7738705808368341e-02 -7.0770968145291407e-02 0.0000000000000000e+00 1
3.7424904161088263e-02 9.2852994277887527e-02 0.0000000000000000e+00 1
-5.3612119029102012e-02 -7.3428482291387986e-02 0.0000000000000000e+00 1
6.3842171011970691e-02 7.1380786481787722e-02 0.0000000000000000e+00 1
-2.4262592324308718e-01 -3.0674000113166622e-01 0.0000000000000000e+00 1
-2.6621452234327475e-01 -3.3163289339510549e-01 0.0000000000000000e+00 1
1.2323827633617634e-01 1.6072462779738955e-01 0.0000000000000000e+00 1
2.7148898672601654e-03 4.0862924643709664e-02 0.0000000000000000e+00 1
-1.8383922885898757e-01 -2.2919121173918047e-01 0.0000000000000000e+00 1
1.9393393188704897e-01 2.1489971967587185e-01 0.0000000000000000e+00 1
1.4371378098560894e-01 1.6764058488626732e-01 0.0000000000000000e+00 1
-3.2598803490895056e-02 -1.5233274595015767e-02 0.0000000000000000e+00 1
2.4529938674516996e-01 2.8624729195769327e-01 0.0000000000000000e+00 1
4.3621300880389548e-02 1.0034540720013985e-01 0.0000000000000000e+00 1
1.9194041417831970e-01 2.3292704854179400e-01 0.0000000000000000e+00 1
-2.4993505809892108e-01 -3.0638351919189644e-01 0.0000000000000000e+00 1
-1.9100344196019070e-01 -2.3838903197309405e-01 0.0000000000000000e+00 1
9.0470820534388156e-03 4.8240993279458397e-02 0.0000000000000000e+00 1
-4.7519837036214194e-03 4.4006369329306745e-02 0.0000000000000000e+00 1
1.5209490635545198e-01 1.7700677884165431e-01 0.0000000000000000e+00 1
2.6968963030490528e-01 3.1965928252696807e-01 0.0000000000000000e+00 1
-8.7558507705834690e-02 -1.1826834447719160e-01 0.0000000000000000e+00 1
-2.5405474766706126e-01 -3.1229166910438455e-01 0.0000000000000000e+00 1
1.7876489079950139e-02 7.4637605560414128e-02 0.0000000000000000e+00 1
-5.3517344224454227e-02 -2.2191219694497537e-02 0.0000000000000000e+00 1
-8.9068730887611358e-02 -1.3981078119589863e-01 0.0000000000000000e+00 1
-2.5490196771516488e-01 -3.2118365107636576e-01 0.0000000000000000e+00 1
8.6355326260440124e-02 1.2856520621043413e-01 0.0000000000000000e+00 1
5.1885069352171284e-02 9.7995611208343880e-02 0.0000000000000000e+00 1
2.6349213583507586e-01 3.1349083177335407e-01 0.0000000000000000e+00 1
-2.6080490593734867e-01 -3.2154029902635339e-01 0.0000000000000000e+00 1
2.5864352311214933e-01 3.0936769676209019e-01 0.0000000000000000e+00 1
-1.9664097005686332e-01 -2.4646704503805544e-01 0.0000000000000000e+00 1
2.7413016681503100e-01 3.2273116214067271e-01 0.0000000000000000e+00 1
2.0839404425811919e-01 2.3280961847173240e-01 0.0000000000000000e+00 1
-1.2446262161091588e-02 3.2470387715882849e-02 0.0000000000000000e+00 1
1.6043818556420603e-01 1.8659154198145123e-01 0.0000000000000000e+00 1
-1.0812710321418464e-01 -1.4054562045275310e-01 0.0000000000000000e+00 1
2.0291167773460142e-02 6.8807119597564442e-02 0.0000000000000000e+00 1
-2.5231942452523953e-01 -3.1671988012925212e-01 0.0000000000000000e+00 1
2.5765873029657792e-02 8.2029362073169576e-02 0.0000000000000000e+00 1
2.6967737726000190e-01 3.1363759958197923e-01 0.0000000000000000e+00 1
2.7537501784491747e-01 3.2325520330589730e-01 0.0000000000000000e+00 1
-5.0469303239412337e-02 -4.0994757469846300e-02 0.0000000000000000e+00 1
-1.0565671998749700e-01 -1.5958685095331310e-01 0.0000000000000000e+00 1
2.4750082209808005e-01 3.0023216036440742e-01 0.0000000000000000e+00 1
9.3207487536125913e-02 1.3751386180898048e-01 0.0000000000000000e+00 1
-1.0847875531983409e-02 2.0717202874245985e-02 0.0000000000000000e+00 1
2.0778226142900996e-01 2.4923115547083230e-01 0.0000000000000000e+00 1
1.6811801289809086e-01 1.9533343939135467e-01 0.0000000000000000e+00 1
-1.2394037240198635e-01 -1.6232215049894594e-01 0.0000000000000000e+00 1
2.9397462545616201e-02 1.7843437103888603e-02 0.0000000000000000e+00 1
2.0824395387587260e-02 8.0297658353359544e-03 0.0000000000000000e+00 1
-2.0018105086466281e-01 -2.6537787226583109e-01 0.0000000000000000e+00 1
-1.5242179499869773e-01 -1.9514544149069585e-01 0.0000000000000000e+00 1
1.6014344107972232e-02 6.4132512788278778e-02 0.0000000000000000e+00 1
2.6709321838109057e-01 3.1258453604385023e-01 0.0000000000000000e+00 1

Edges
163
1 2 1
2 3 1
3 4 1
4 5 1
5 6 1
6 7 1
7 8 1
8 9 1
9 10 1
10 11 1
11 12 1
12 13 1
13 14 1
14 15 1
15 16 1
16 17 1
17 18 1
18 19 1
19 20 1
20 21 1
21 22 1
22 23 1
23 24 1
24 25 1
25 26 1
26 27 1
27 28 1
28 29 1
29 30 1
30 31 1
31 32 1
32 33 1
33 34 1
34 35 1
35 36 1
36 37 1
37 38 1
38 39 1
39 40 1
40 41 1
41 42 1
42 43 1
43 44 1
44 45 1
45 46 1
46 47 1
47 48 1
48 49 1
49 50 1
50 51 1
51 52 1
52 53 1
53 54 1
54 55 1
55 56 1
56 57 1
57 58 1
58 59 1
59 60 1
60 61 1
61 62 1
62 63 1
63 64 1
64 65 1
65 66 1
66 67 1
67 68 1
68 69 1
69 70 1
70 71 1
71 72 1
72 73 1
73 74 1
74 75 1
75 76 1
76 77 1
77 78 1
78 79 1
79 80 1
80 81 1
81 82 1
82 83 1
83 84 1
84 85 1
85 86 1
86 87 1
87 88 1
88 89 1
89 90 1
90 91 1
91 92 1
92 93 1
93 94 1
94 95 1
95 96 1
96 97 1
97 98 1
98 99 1
99 100 1
100 101 1
101 102 1
102 103 1
103 104 1
104 105 1
105 106 1
106 107 1
107 108 1
108 109 1
109 110 1
110 111 1
111 112 1
112 113 1
113 114 1
114 115 1
115 116 1
116 117 1
117 118 1
118 119 1
119 120 1
120 121 1
121 122 1
122 123 1
123 124 1
124 125 1
125 126 1
126 127 1
127 128 1
128 129 1
129 130 1
130 131 1
131 132 1
132 133 1
133 134 1
134 135 1
135 136 1
136 137 1
137 138 1
138 139 1
139 140 1
140 141 1
141 142 1
142 143 1
143 144 1
144 145 1
145 146 1
146 147 1
147 148 1
148 149 1
149 150 1
150 151 1
151 152 1
152 153 1
153 154 1
154 155 1
155 156 1
156 157 1
157 158 1
158 159 1
159 160 1
160 161 1
161 162 1
162 163 1
163 1 1

Triangles
735
229 68 425 1
364 228 406 1
287 290 361 1
125 126 334 1
168 247 357 1
193 303 371 1
68 268 425 1
205 272 307 1
296 341 415 1
390 216 427 1
290 191 361 1
67 68 229 1
339 211 385 1
211 339 353 1
66 364 406 1
157 388 399 1
208 230 305 1
272 205 426 1
304 209 322 1
341 183 415 1
303 302 371 1
365 264 449 1
251 264 411 1
157 158 388 1
191 290 292 1
332 394 396 1
221 285 414 1
251 262 263 1
249 174 321 1
173 245 397 1
314 179 356 1
212 304 322 1
126 177 334 1
247 265 357 1
191 292 362 1
245 173 386 1
324 211 403 1
211 324 385 1
208 305 306 1
394 303 396 1
336 281 405 1
223 285 390 1
251 263 264 1
258 279 282 1
299 298 300 1
172 336 405 1
179 314 327 1
68 69 268 1
129 130 299 1
176 125 334 1
230 208 307 1
300 298 383 1
252 251 411 1
281 333 335 1
174 249 378 1
283 345 382 1
197 129 299 1
285 71 390 1
177 332 334 1
78 221 414 1
381 245 386 1
327 319 400 1
180 381 386 1
251 236 262 1
181 302 383 1
8 208 306 1
304 212 346 1
213 376 377 1
138 210 293 1
7 8 306 1
67 229 364 1
1 2 420 1
264 263 449 1
333 281 336 1
264 365 391 1
99 100 337 1
336 176 437 1
280 281 335 1
130 297 299 1
345 169 382 1
176 336 418 1
373 246 395 1
241 246 373 1
167 345 441 1
212 310 346 1
262 260 263 1
259 166 434 1
186 280 335 1
332 177 394 1
388 215 399 1
117 261 412 1
163 226 372 1
247 168 422 1
376 217 377 1
317 266 369 1
238 260 262 1
337 327 400 1
224 368 372 1
257 261 429 1
279 258 283 1
342 220 428 1
160 161 215 1
185 341 431 1
302 300 383 1
174 39 321 1
220 342 408 1
345 283 441 1
130 131 297 1
195 366 380 1
137 138 293 1
257 429 441 1
166 259 373 1
226 325 372 1
238 259 260 1
341 185 419 1
42 173 232 1
72 73 216 1
265 171 357 1
163 1 226 1
232 173 367 1
368 162 372 1
236 235 262 1
261 117 429 1
197 299 300 1
76 77 223 1
293 210 366 1
234 233 235 1
258 282 384 1
366 308 380 1
71 72 390 1
217 343 389 1
170 232 233 1
235 237 238 1
184 99 337 1
100 179 337 1
280 186 347 1
324 220 408 1
285 221 435 1
279 275 282 1
170 234 321 1
238 239 259 1
155 156 224 1
234 249 321 1
235 238 262 1
5 217 389 1
287 361 444 1
146 213 305 1
144 230 272 1
260 259 269 1
76 223 427 1
142 225 271 1
220 324 403 1
291 137 293 1
279 283 382 1
235 233 237 1
2 3 231 1
368 224 399 1
178 37 267 1
250 236 251 1
196 308 374 1
302 181 371 1
223 390 427 1
140 214 270 1
136 137 291 1
75 76 427 1
170 41 232 1
275 274 282 1
272 230 307 1
303 193 396 1
182 274 275 1
145 146 305 1
286 287 288 1
70 71 285 1
200 294 295 1
234 235 236 1
170 233 234 1
200 295 296 1
286 207 287 1
143 144 272 1
305 213 306 1
384 282 446 1
322 209 442 1
40 41 170 1
312 315 316 1
131 200 297 1
161 162 368 1
316 315 317 1
141 142 271 1
78 79 221 1
171 265 387 1
135 207 286 1
391 165 411 1
128 197 370 1
46 187 273 1
241 243 246 1
166 373 395 1
250 251 252 1
316 317 369 1
257 254 261 1
182 35 274 1
214 141 271 1
139 140 270 1
311 312 316 1
210 139 270 1
266 317 387 1
42 43 173 1
238 237 239 1
287 207 290 1
38 174 267 1
274 178 282 1
160 215 388 1
273 187 369 1
277 275 279 1
225 143 272 1
4 389 398 1
38 39 174 1
202 286 288 1
294 289 295 1
197 300 301 1
298 296 415 1
343 217 376 1
209 89 326 1
276 275 277 1
186 33 347 1
224 156 399 1
62 212 322 1
311 192 312 1
282 178 446 1
182 276 347 1
313 318 319 1
89 90 326 1
200 132 294 1
314 313 327 1
50 198 318 1
313 319 327 1
180 45 273 1
276 280 347 1
225 272 426 1
142 143 225 1
182 275 276 1
41 42 232 1
140 141 214 1
144 145 230 1
230 145 305 1
202 289 294 1
204 91 323 1
197 301 370 1
237 233 367 1
210 270 308 1
44 45 180 1
219 310 379 1
308 270 374 1
202 134 286 1
138 139 210 1
273 369 375 1
146 147 213 1
36 178 274 1
264 391 411 1
240 237 367 1
290 291 292 1
318 198 319 1
271 225 410 1
91 92 323 1
48 192 311 1
36 37 178 1
289 288 309 1
187 311 316 1
49 50 318 1
207 136 291 1
61 62 322 1
296 295 341 1
212 63 310 1
135 136 207 1
173 43 386 1
162 163 372 1
199 93 338 1
301 300 302 1
312 314 315 1
134 135 286 1
278 277 284 1
152 153 218 1
97 98 352 1
277 279 382 1
133 134 202 1
333 329 335 1
5 6 217 1
312 313 314 1
187 47 311 1
312 192 313 1
188 309 444 1
202 288 289 1
40 170 321 1
133 202 294 1
45 46 273 1
34 35 182 1
62 63 212 1
93 94 338 1
37 38 267 1
46 47 187 1
226 420 424 1
329 328 335 1
47 48 311 1
90 91 204 1
189 328 329 1
96 190 349 1
88 89 209 1
179 327 337 1
293 366 448 1
87 88 304 1
7 306 377 1
189 31 328 1
131 132 200 1
128 129 197 1
66 67 364 1
319 198 320 1
92 93 199 1
301 302 303 1
111 269 434 1
328 186 335 1
306 213 377 1
98 184 352 1
32 186 328 1
35 36 274 1
320 198 348 1
92 199 323 1
32 33 186 1
331 329 333 1
63 64 310 1
149 150 222 1
156 157 399 1
48 49 192 1
126 127 177 1
290 207 291 1
29 30 344 1
297 296 298 1
60 61 227 1
190 97 352 1
90 204 326 1
292 291 293 1
276 277 278 1
94 194 338 1
94 95 194 1
87 304 346 1
44 180 386 1
227 61 322 1
349 190 350 1
124 125 176 1
192 49 318 1
200 296 297 1
180 273 375 1
369 266 375 1
132 133 294 1
338 194 339 1
193 29 344 1
249 236 250 1
31 32 328 1
88 209 304 1
50 51 198 1
323 199 324 1
30 31 189 1
85 86 219 1
122 123 172 1
389 222 398 1
30 189 344 1
330 329 331 1
58 59 220 1
96 97 190 1
39 40 321 1
189 329 330 1
198 51 348 1
52 53 203 1
34 182 347 1
98 99 184 1
56 57 211 1
118 119 167 1
148 149 343 1
54 55 206 1
215 368 399 1
120 121 169 1
51 52 348 1
100 101 179 1
159 160 388 1
269 259 434 1
95 96 349 1
243 247 422 1
28 29 193 1
33 34 347 1
333 336 437 1
313 192 318 1
104 105 171 1
297 298 299 1
52 203 348 1
8 9 208 1
189 330 344 1
102 103 175 1
340 349 350 1
213 147 376 1
332 331 334 1
154 155 325 1
292 293 448 1
53 54 354 1
253 252 254 1
55 56 353 1
106 107 168 1
339 194 340 1
109 110 166 1
351 190 352 1
203 53 354 1
283 258 441 1
326 204 342 1
314 356 440 1
330 331 332 1
319 320 400 1
254 252 401 1
310 64 379 1
26 27 181 1
54 206 354 1
101 102 356 1
310 219 346 1
350 190 351 1
115 116 165 1
309 185 431 1
120 169 345 1
194 95 349 1
206 55 353 1
169 284 382 1
309 288 444 1
56 211 353 1
10 11 205 1
103 104 355 1
24 25 183 1
239 240 241 1
241 242 243 1
409 151 416 1
338 339 385 1
280 278 281 1
25 26 359 1
340 194 349 1
105 106 357 1
263 260 432 1
12 13 201 1
77 78 414 1
247 248 265 1
420 218 424 1
22 23 185 1
179 101 356 1
20 21 188 1
69 70 435 1
243 244 247 1
233 232 367 1
14 15 196 1
18 19 191 1
255 254 257 1
16 17 195 1
127 128 370 1
83 84 228 1
102 175 356 1
367 173 397 1
86 87 346 1
276 278 280 1
19 20 361 1
119 120 345 1
11 12 358 1
13 14 360 1
17 18 362 1
352 184 393 1
26 181 359 1
175 103 355 1
149 222 343 1
284 169 392 1
355 171 387 1
270 214 374 1
104 171 355 1
269 111 417 1
28 193 371 1
6 7 377 1
183 25 359 1
85 219 363 1
308 196 380 1
250 252 253 1
171 105 357 1
239 241 373 1
410 225 426 1
84 85 363 1
234 236 249 1
324 199 385 1
181 27 371 1
81 82 229 1
258 257 441 1
265 248 266 1
110 111 434 1
106 168 357 1
247 244 248 1
148 343 376 1
342 227 442 1
20 188 361 1
12 201 358 1
205 11 358 1
255 257 258 1
218 153 424 1
239 237 240 1
193 344 396 1
210 308 366 1
191 19 361 1
187 316 369 1
243 242 244 1
147 148 376 1
323 324 408 1
18 191 362 1
201 13 360 1
155 224 325 1
14 196 360 1
27 28 371 1
195 17 362 1
241 240 242 1
253 254 255 1
214 271 402 1
3 4 398 1
177 127 370 1
113 114 365 1
122 172 392 1
284 277 382 1
326 342 442 1
117 118 429 1
108 109 395 1
363 219 379 1
393 184 400 1
217 6 377 1
180 375 381 1
15 16 380 1
250 253 378 1
114 115 391 1
4 5 389 1
167 119 345 1
259 239 373 1
392 172 405 1
219 86 346 1
185 309 438 1
16 195 380 1
265 266 387 1
196 15 380 1
112 113 164 1
199 338 385 1
289 309 431 1
169 121 392 1
336 172 418 1
330 332 396 1
211 57 403 1
266 248 375 1
341 295 431 1
360 196 374 1
355 387 421 1
244 242 245 1
58 220 403 1
70 285 435 1
249 250 378 1
176 334 437 1
253 255 256 1
359 181 383 1
115 165 391 1
429 167 441 1
124 176 418 1
64 65 379 1
307 208 447 1
361 188 444 1
320 348 404 1
423 80 425 1
253 256 378 1
65 66 406 1
108 395 407 1
281 278 405 1
222 150 409 1
334 331 437 1
151 152 416 1
220 59 428 1
205 307 447 1
365 114 391 1
43 44 386 1
227 342 428 1
121 122 392 1
111 112 417 1
401 252 411 1
168 107 407 1
183 341 419 1
60 227 428 1
301 303 394 1
309 188 438 1
342 204 408 1
317 315 421 1
228 84 363 1
227 322 442 1
172 123 418 1
248 244 381 1
2 231 433 1
240 367 397 1
79 80 423 1
343 222 389 1
10 205 447 1
375 248 381 1
351 352 393 1
261 254 401 1
284 392 405 1
24 183 419 1
255 258 384 1
178 267 446 1
242 240 397 1
231 3 398 1
344 330 396 1
420 2 433 1
185 23 419 1
244 245 381 1
22 185 438 1
208 9 447 1
402 271 410 1
216 73 436 1
109 166 395 1
370 301 394 1
383 298 415 1
83 228 439 1
188 21 438 1
325 224 372 1
164 113 365 1
325 226 424 1
256 255 384 1
165 116 412 1
73 74 436 1
184 337 400 1
231 409 416 1
401 165 412 1
177 370 394 1
387 317 421 1
360 374 402 1
320 393 400 1
153 154 424 1
57 58 403 1
445 256 446 1
398 222 409 1
260 269 432 1
393 320 404 1
288 287 444 1
315 314 440 1
351 404 413 1
81 229 425 1
348 203 404 1
404 203 413 1
154 325 424 1
364 229 439 1
359 383 415 1
201 360 402 1
374 214 402 1
107 108 407 1
245 242 397 1
421 315 440 1
278 284 405 1
363 379 406 1
150 151 409 1
395 246 407 1
228 364 439 1
204 323 408 1
116 117 412 1
263 432 449 1
267 174 445 1
267 445 446 1
246 243 422 1
201 402 410 1
350 351 413 1
80 81 425 1
229 82 439 1
158 159 388 1
285 223 414 1
123 124 418 1
203 354 413 1
228 363 406 1
295 289 431 1
379 65 406 1
209 326 442 1
23 24 419 1
358 201 410 1
82 83 439 1
350 413 430 1
340 350 430 1
351 393 404 1
183 359 415 1
268 423 425 1
59 60 428 1
413 354 430 1
118 167 429 1
175 355 421 1
74 75 436 1
354 206 430 1
168 407 422 1
231 398 409 1
331 333 437 1
340 430 443 1
430 206 443 1
166 110 434 1
9 10 447 1
152 218 416 1
175 421 440 1
195 362 448 1
112 164 417 1
339 340 443 1
21 22 438 1
353 339 443 1
205 358 426 1
358 410 426 1
174 378 445 1
206 353 443 1
215 161 368 1
221 79 423 1
165 401 411 1
362 292 448 1
356 175 440 1
256 384 446 1
226 1 420 1
261 401 412 1
269 417 432 1
366 195 448 1
72 216 390 1
223 77 414 1
435 221 450 1
378 256 445 1
407 246 422 1
221 423 450 1
164 365 449 1
75 427 436 1
432 164 449 1
416 218 433 1
417 164 432 1
231 416 433 1
218 420 433 1
427 216 436 1
69 435 450 1
423 268 450 1
268 69 450 1

End
