MeshVersionFormatted 2
Dimension 3

Vertices
976
-1.7260068875597590e-01 -2.7824424062957948e-02 0.0000000000000000e+00 1
-1.6759289072186359e-01 -3.2190412494605108e-02 0.0000000000000000e+00 1
-1.6213394851976254e-01 -3.6464379548729414e-02 0.0000000000000000e+00 1
-1.5624629037775478e-01 -4.0641435005546747e-02 0.0000000000000000e+00 1
-1.4995234452392220e-01 -4.4716688645272992e-02 0.0000000000000000e+00 1
-1.4327453918634700e-01 -4.8685250248124132e-02 0.0000000000000000e+00 1
-1.3623530259311106e-01 -5.2542229594315995e-02 0.0000000000000000e+00 1
-1.2885706297229640e-01 -5.6282736464064523e-02 0.0000000000000000e+00 1
-1.2116224855198501e-01 -5.9901880637585586e-02 0.0000000000000000e+00 1
-1.1317328756025896e-01 -6.3394771895095167e-02 0.0000000000000000e+00 1
-1.0491260822520024e-01 -6.6756520016809109e-02 0.0000000000000000e+00 1
-9.6402638774890859e-02 -6.9982234782943312e-02 0.0000000000000000e+00 1
-8.7665807437412729e-02 -7.3067025973713728e-02 0.0000000000000000e+00 1
-7.8724542440848005e-02 -7.6006003369336231e-02 0.0000000000000000e+00 1
-6.9601272013278592e-02 -7.8794276750026732e-02 0.0000000000000000e+00 1
-6.0318424382786513e-02 -8.1426955896001116e-02 0.0000000000000000e+00 1
-5.0898427777453785e-02 -8.3899150587475324e-02 0.0000000000000000e+00 1
-4.1363710425362445e-02 -8.6205970604665255e-02 0.0000000000000000e+00 1
-3.1736700554594433e-02 -8.8342525727786808e-02 0.0000000000000000e+00 1
-2.2039826393231828e-02 -9.0303925737055868e-02 0.0000000000000000e+00 1
-1.2295516169356587e-02 -9.2085280412688417e-02 0.0000000000000000e+00 1
-2.5261981110507419e-03 -9.3681699534900284e-02 0.0000000000000000e+00 1
7.2456995536036850e-03 -9.5088292883907355e-02 0.0000000000000000e+00 1
1.6997748596524722e-02 -9.6300170239925612e-02 0.0000000000000000e+00 1
2.6707520789630353e-02 -9.7312441383170925e-02 0.0000000000000000e+00 1
3.6352587904838626e-02 -9.8120216093859194e-02 0.0000000000000000e+00 1
4.5910521714067412e-02 -9.8718604152206346e-02 0.0000000000000000e+00 1
5.5358893989234777e-02 -9.9102715338428266e-02 0.0000000000000000e+00 1
6.4675276502258683e-02 -9.9267659432740865e-02 0.0000000000000000e+00 1
7.3837241025057204e-02 -9.9208546215360058e-02 0.0000000000000000e+00 1
8.2822359329548262e-02 -9.8920485466501742e-02 0.0000000000000000e+00 1
9.1608203187649839e-02 -9.8398586966381818e-02 0.0000000000000000e+00 1
1.0017234437127998e-01 -9.7637960495216197e-02 0.0000000000000000e+00 1
1.0849235465235663e-01 -9.6633715833220793e-02 0.0000000000000000e+00 1
1.1654580580279778e-01 -9.5380962760611518e-02 0.0000000000000000e+00 1
1.2431026959452152e-01 -9.3874811057604243e-02 0.0000000000000000e+00 1
1.3176331779944572e-01 -9.2110370504414910e-02 0.0000000000000000e+00 1
1.3888252218948843e-01 -9.0082750881259416e-02 0.0000000000000000e+00 1
1.4564545453656763e-01 -8.7787061968353661e-02 0.0000000000000000e+00 1
1.5202968661260133e-01 -8.5218413545913557e-02 0.0000000000000000e+00 1
1.5801279018950753e-01 -8.2371915394154963e-02 0.0000000000000000e+00 1
1.6357233703920418e-01 -7.9242677293293873e-02 0.0000000000000000e+00 1
1.6868589893360930e-01 -7.5825809023546117e-02 0.0000000000000000e+00 1
1.7333104764464086e-01 -7.2116420365127665e-02 0.0000000000000000e+00 1
1.7748535494421691e-01 -6.8109621098254372e-02 0.0000000000000000e+00 1
1.8056518618614620e-01 -6.4178390970594190e-02 0.0000000000000000e+00 1
1.8276255331621002e-01 -5.9928181398872987e-02 0.0000000000000000e+00 1
1.8411312924930004e-01 -5.5380631555562762e-02 0.0000000000000000e+00 1
1.8465258690030770e-01 -5.0557380613135444e-02 0.0000000000000000e+00 1
1.8441659918412454e-01 -4.5480067744063032e-02 0.0000000000000000e+00 1
1.8344083901564220e-01 -4.0170332120817512e-02 0.0000000000000000e+00 1
1.8176097930975210e-01 -3.4649812915870840e-02 0.0000000000000000e+00 1
1.7941269298134596e-01 -2.8940149301695046e-02 0.0000000000000000e+00 1
1.7643165294531518e-01 -2.3062980450762025e-02 0.0000000000000000e+00 1
1.7285353211655136e-01 -1.7039945535543801e-02 0.0000000000000000e+00 1
1.6871400340994597e-01 -1.0892683728512334e-02 0.0000000000000000e+00 1
1.6404873974039064e-01 -4.6428342021396004e-03 0.0000000000000000e+00 1
1.5889341402277699e-01 1.6879638711024131e-03 0.0000000000000000e+00 1
1.5328369917199627e-01 8.0780713187417648e-03 0.0000000000000000e+00 1
1.4725526810294040e-01 1.4505848968306428e-02 0.0000000000000000e+00 1
1.4084379373050071e-01 2.0949657647324461e-02 0.0000000000000000e+00 1
1.3408494896956874e-01 2.7387858183323902e-02 0.0000000000000000e+00 1
1.2701440673503614e-01 3.3798811403832729e-02 0.0000000000000000e+00 1
1.1966783994179428e-01 4.0160878136379016e-02 0.0000000000000000e+00 1
1.1208092150473492e-01 4.6452419208490747e-02 0.0000000000000000e+00 1
1.0428932433874949e-01 5.2651795447695993e-02 0.0000000000000000e+00 1
9.6328721358729524e-02 5.8737367681522740e-02 0.0000000000000000e+00 1
8.8234785479566591e-02 6.4687496737499031e-02 0.0000000000000000e+00 1
8.0043189616152255e-02 7.0480543443152868e-02 0.0000000000000000e+00 1
7.1789606683378054e-02 7.6094868626012294e-02 0.0000000000000000e+00 1
6.3509709596135527e-02 8.1508833113605336e-02 0.0000000000000000e+00 1
5.5239171269316191e-02 8.6700797733460011e-02 0.0000000000000000e+00 1
4.7013664617811597e-02 9.1649123313104361e-02 0.0000000000000000e+00 1
3.8868862556513339e-02 9.6332170680066401e-02 0.0000000000000000e+00 1
3.0840438000312956e-02 1.0072830066187413e-01 0.0000000000000000e+00 1
2.2964063864101929e-02 1.0481587408605560e-01 0.0000000000000000e+00 1
1.5275413062771848e-02 1.0857325178013884e-01 0.0000000000000000e+00 1
7.8101585112142595e-03 1.1197879457165187e-01 0.0000000000000000e+00 1
6.0397312432069507e-04 1.1501086328812270e-01 0.0000000000000000e+00 1
-6.3074701830172566e-03 1.1764781875707936e-01 0.0000000000000000e+00 1
-1.2888498495908117e-02 1.1986802180604990e-01 0.0000000000000000e+00 1
-1.9103438899460316e-02 1.2164983326256232e-01 0.0000000000000000e+00 1
-2.4916618478782293e-02 1.2297161395414463e-01 0.0000000000000000e+00 1
-3.0292364318982516e-02 1.2381172470832490e-01 0.0000000000000000e+00 1
-3.4846067330682746e-02 1.2399243234294721e-01 0.0000000000000000e+00 1
-3.9802561025822115e-02 1.2355689031574141e-01 0.0000000000000000e+00 1
-4.5121991936591402e-02 1.2253650501907658e-01 0.0000000000000000e+00 1
-5.0764506595181454e-02 1.2096268284532195e-01 0.0000000000000000e+00 1
-5.6690251533783084e-02 1.1886683018684673e-01 0.0000000000000000e+00 1
-6.2859373284587100e-02 1.1628035343602003e-01 0.0000000000000000e+00 1
-6.9232018379784321e-02 1.1323465898521110e-01 0.0000000000000000e+00 1
-7.5768333351565548e-02 1.0976115322678899e-01 0.0000000000000000e+00 1
-8.2428464732121620e-02 1.0589124255312306e-01 0.0000000000000000e+00 1
-8.9172559053643297e-02 1.0165633335658229e-01 0.0000000000000000e+00 1
-9.5960762848321474e-02 9.7087832029536039e-02 0.0000000000000000e+00 1
-1.0275322264834688e-01 9.2217144964353334e-02 0.0000000000000000e+00 1
-1.0951008498591042e-01 8.7075678553403466e-02 0.0000000000000000e+00 1
-1.1619149639320286e-01 8.1694839189055540e-02 0.0000000000000000e+00 1
-1.2275760340241498e-01 7.6106033263678763e-02 0.0000000000000000e+00 1
-1.2916855254573767e-01 7.0340667169642282e-02 0.0000000000000000e+00 1
-1.3538449035536171e-01 6.4430147299315330e-02 0.0000000000000000e+00 1
-1.4136556336347789e-01 5.8405880045067027e-02 0.0000000000000000e+00 1
-1.4707191810227704e-01 5.2299271799266578e-02 0.0000000000000000e+00 1
-1.5246370110395002e-01 4.6141728954283159e-02 0.0000000000000000e+00 1
-1.5750105890068758e-01 3.9964657902485948e-02 0.0000000000000000e+00 1
-1.6214413802468058e-01 3.3799465036244106e-02 0.0000000000000000e+00 1
-1.6635308500811982e-01 2.7677556747926813e-02 0.0000000000000000e+00 1
-1.7008804638319608e-01 2.1630339429903285e-02 0.0000000000000000e+00 1
-1.7330916868210022e-01 1.5689219474542646e-02 0.0000000000000000e+00 1
-1.7597659843702304e-01 9.8856032742140991e-03 0.0000000000000000e+00 1
-1.7805048218015535e-01 4.2508972212868066e-03 0.0000000000000000e+00 1
-1.7949096644368800e-01 -1.1834922918700398e-03 0.0000000000000000e+00 1
-1.8025819775981175e-01 -6.3861588728872654e-03 0.0000000000000000e+00 1
-1.8031232266071742e-01 -1.1325696129395699e-02 0.0000000000000000e+00 1
-1.7961348767859586e-01 -1.5970697669026163e-02 0.0000000000000000e+00 1
-1.7812183934563788e-01 -2.0289757099409476e-02 0.0000000000000000e+00 1
-1.7579752419403430e-01 -2.4251468028176463e-02 0.0000000000000000e+00 1
-7.6434411976004452e-02 1.0249349431639720e-01 0.0000000000000000e+00 1
1.5932732500004716e-02 1.0017305299994018e-01 0.0000000000000000e+00 1
-6.3197353335923537e-02 -7.1309548567192627e-02 0.0000000000000000e+00 1
-1.5626487004427432e-02 -8.2764065399596493e-02 0.0000000000000000e+00 1
-1.0773899043778101e-01 8.0004902403241887e-02 0.0000000000000000e+00 1
5.4480923080108878e-02 7.6146555519806439e-02 0.0000000000000000e+00 1
3.1757506951786793e-02 -8.9402811737118684e-02 0.0000000000000000e+00 1
-1.0616412935534096e-01 -5.8001648755630714e-02 0.0000000000000000e+00 1
-1.7478945716756251e-02 1.1558631863694832e-01 0.0000000000000000e+00 1
7.7761010687203702e-02 -9.1381906819607631e-02 0.0000000000000000e+00 1
9.4934579964916457e-02 4.8882850848833287e-02 0.0000000000000000e+00 1
-1.3898508561700409e-01 5.0461957190853446e-02 0.0000000000000000e+00 1
1.1960874133209867e-01 -8.8271820352297803e-02 0.0000000000000000e+00 1
1.2714631875772037e-01 2.4361196042545795e-02 0.0000000000000000e+00 1
-1.3701350855442601e-01 -4.4774254201726191e-02 0.0000000000000000e+00 1
1.5146753056337506e-01 -1.0799194877914742e-03 0.0000000000000000e+00 1
1.5260186240759774e-01 -7.8709836326965335e-02 0.0000000000000000e+00 1
-1.5933687404664634e-01 2.7174095221852951e-02 0.0000000000000000e+00 1
-5.2408011883665444e-02 1.1600149580952800e-01 0.0000000000000000e+00 1
-1.7228904475768031e-01 5.3293743551135345e-03 0.0000000000000000e+00 1
1.6954744336362781e-01 -2.3001169314009681e-02 0.0000000000000000e+00 1
1.7960063858705699e-01 -4.8298485795055073e-02 0.0000000000000000e+00 1
-1.6074237258546900e-01 -3.0100571973025535e-02 0.0000000000000000e+00 1
1.7211046535366761e-01 -6.6830634564437774e-02 0.0000000000000000e+00 1
-3.3230612397694717e-02 1.1971277965127744e-01 0.0000000000000000e+00 1
-1.7599612305713139e-01 -1.3362282273537274e-02 0.0000000000000000e+00 1
3.0772433934760753e-02 9.1998673125875341e-02 0.0000000000000000e+00 1
7.1091097678461862e-02 6.6229672979913459e-02 0.0000000000000000e+00 1
-4.4175159156664659e-02 -7.7344547889146908e-02 0.0000000000000000e+00 1
1.1082042714616569e-01 3.7520524416721907e-02 0.0000000000000000e+00 1
-8.9386447222586790e-02 -6.4025525938662398e-02 0.0000000000000000e+00 1
1.3058491258405748e-02 -8.7993081152941799e-02 0.0000000000000000e+00 1
1.3783304382220804e-01 1.2268729628622434e-02 0.0000000000000000e+00 1
5.1503376190723524e-02 -9.0067310411060336e-02 0.0000000000000000e+00 1
1.7367947919733695e-03 1.0738206445856260e-01 0.0000000000000000e+00 1
-1.2258463712383869e-01 -5.2232539815480900e-02 0.0000000000000000e+00 1
-8.8279829436127721e-02 9.3675745526899640e-02 0.0000000000000000e+00 1
-1.1927992867128397e-01 6.8193436612526956e-02 0.0000000000000000e+00 1
9.4176049924673697e-02 -8.9688001601588796e-02 0.0000000000000000e+00 1
-1.4934738417720345e-01 3.9052238614522644e-02 0.0000000000000000e+00 1
-1.5068054680482448e-01 -3.6762149620889972e-02 0.0000000000000000e+00 1
1.6110346120160321e-01 -1.1707508780591134e-02 0.0000000000000000e+00 1
-1.7078661418699825e-01 -2.3101540261671605e-02 0.0000000000000000e+00 1
1.3381166517076426e-01 -8.5343038260226683e-02 0.0000000000000000e+00 1
-6.3221629618055553e-02 1.0967905809189085e-01 0.0000000000000000e+00 1
-1.6669462792337525e-01 1.5946750524378047e-02 0.0000000000000000e+00 1
1.7526543260806082e-01 -3.3743885485722186e-02 0.0000000000000000e+00 1
1.6385972993611200e-01 -7.2995768113417681e-02 0.0000000000000000e+00 1
-4.1453466055755450e-02 1.1904522151074839e-01 0.0000000000000000e+00 1
-1.7550563660976501e-01 -4.4291089989093729e-03 0.0000000000000000e+00 1
1.7799876081453003e-01 -6.0158417291896235e-02 0.0000000000000000e+00 1
-5.1724296865838810e-03 1.1038278624301558e-01 0.0000000000000000e+00 1
-4.3549715373595119e-03 1.0273264912868608e-01 0.0000000000000000e+00 1
-1.1531859954148790e-02 1.0582055440264657e-01 0.0000000000000000e+00 1
-1.0640109268071487e-02 9.8038681964521479e-02 0.0000000000000000e+00 1
-1.8112583729894514e-02 1.0117070666605457e-01 0.0000000000000000e+00 1
-1.7085946123054641e-02 9.3263869379762915e-02 0.0000000000000000e+00 1
-9.6516336112747580e-03 8.9908669319626613e-02 0.0000000000000000e+00 1
-1.6296064526935859e-02 8.5016013153747044e-02 0.0000000000000000e+00 1
-8.6131061037075414e-03 8.1620800071114996e-02 0.0000000000000000e+00 1
-1.5447872216050599e-02 7.6622207658564229e-02 0.0000000000000000e+00 1
-7.6654703548216154e-03 7.3192500104434510e-02 0.0000000000000000e+00 1
-1.4789964764844394e-02 6.8109055353360759e-02 0.0000000000000000e+00 1
-6.7347624399719599e-03 6.4663828998670847e-02 0.0000000000000000e+00 1
-1.3944044760513906e-02 5.9524343927290932e-02 0.0000000000000000e+00 1
-5.7748640263465319e-03 5.6049278719978973e-02 0.0000000000000000e+00 1
-1.3028562449331352e-02 5.0858010215300939e-02 0.0000000000000000e+00 1
-4.8205943130525293e-03 4.7341759007919322e-02 0.0000000000000000e+00 1
-1.2117747699013562e-02 4.2111916160638349e-02 0.0000000000000000e+00 1
-3.8343479156148705e-03 3.8559001694730387e-02 0.0000000000000000e+00 1
-1.0978603562494676e-02 3.3331547399321051e-02 0.0000000000000000e+00 1
-2.7967702348834275e-03 2.9742237190844477e-02 0.0000000000000000e+00 1
-1.9335148873968120e-02 3.6967885835045386e-02 0.0000000000000000e+00 1
-1.8107568953708516e-02 2.8108655229834772e-02 0.0000000000000000e+00 1
-2.6465616827051293e-02 3.1790104851527966e-02 0.0000000000000000e+00 1
-2.5384530722831207e-02 2.2898861763752630e-02 0.0000000000000000e+00 1
-3.3482661596475248e-02 2.6482309339295587e-02 0.0000000000000000e+00 1
-3.2606460591792515e-02 1.7653354450158230e-02 0.0000000000000000e+00 1
-4.0738195298766267e-02 2.1222137492370709e-02 0.0000000000000000e+00 1
-2.4799280179046042e-02 1.3847147514802240e-02 0.0000000000000000e+00 1
-3.9793731356435151e-02 1.2311441021727579e-02 0.0000000000000000e+00 1
-4.7973668715746598e-02 1.5960209373165207e-02 0.0000000000000000e+00 1
-4.8910656865262206e-02 2.4836249770646180e-02 0.0000000000000000e+00 1
-5.6151104758310491e-02 1.9588689123022411e-02 0.0000000000000000e+00 1
-5.5224219156621901e-02 1.0735823395116480e-02 0.0000000000000000e+00 1
-6.3380224069166269e-02 1.4353116792707026e-02 0.0000000000000000e+00 1
-2.2695532314245339e-02 7.1653799434862192e-02 0.0000000000000000e+00 1
-6.2451653321751802e-02 5.5371100473218969e-03 0.0000000000000000e+00 1
-7.0553160141553523e-02 9.1486921522653131e-03 0.0000000000000000e+00 1
-5.7056883599662295e-02 2.8416955621288226e-02 0.0000000000000000e+00 1
4.3726098325601349e-03 3.5093443812326743e-02 0.0000000000000000e+00 1
5.4079810298666405e-03 2.6082944705303691e-02 0.0000000000000000e+00 1
1.2677249266961083e-02 3.1538697995701873e-02 0.0000000000000000e+00 1
1.3705826394240467e-02 2.2405645662731767e-02 0.0000000000000000e+00 1
2.1061983427081255e-02 2.7825468564151870e-02 0.0000000000000000e+00 1
2.2053175489260342e-02 1.8697474129199674e-02 0.0000000000000000e+00 1
1.4658600221581639e-02 1.3287356292966283e-02 0.0000000000000000e+00 1
2.3049730583580681e-02 9.5391426612847253e-03 0.0000000000000000e+00 1
1.5573587959776331e-02 4.1074303040827542e-03 0.0000000000000000e+00 1
2.4053009667337231e-02 3.4506515328064510e-04 0.0000000000000000e+00 1
3.1495609906204883e-02 5.7588936908443862e-03 0.0000000000000000e+00 1
3.2547818910162549e-02 -3.4348826887075591e-03 0.0000000000000000e+00 1
1.6577357859620254e-02 -5.0972458247093176e-03 0.0000000000000000e+00 1
4.0038607618808647e-02 2.0151628093746277e-03 0.0000000000000000e+00 1
4.1080145479706655e-02 -7.2120918986487217e-03 0.0000000000000000e+00 1
4.8605088996163018e-02 -1.7103402176850673e-03 0.0000000000000000e+00 1
4.9769637145145859e-02 -1.0657442922716609e-02 0.0000000000000000e+00 1
5.7134616216368075e-02 -5.5219910796163625e-03 0.0000000000000000e+00 1
5.8255510689119556e-02 -1.4562648747647285e-02 0.0000000000000000e+00 1
4.3340940316066730e-02 -1.5971987502384561e-02 0.0000000000000000e+00 1
6.5664872252866505e-02 -9.3044043361608098e-03 0.0000000000000000e+00 1
6.6850389732402177e-02 -1.8157064567562851e-02 0.0000000000000000e+00 1
-6.9666124295051826e-02 3.2531268925184225e-04 0.0000000000000000e+00 1
-7.7705591292275944e-02 3.9985350695304709e-03 0.0000000000000000e+00 1
-6.1521249418486058e-02 -3.3105493754904351e-03 0.0000000000000000e+00 1
-7.8599410597019082e-02 1.2715697302168743e-02 0.0000000000000000e+00 1
-8.5670327625703535e-02 7.6416352992574425e-03 0.0000000000000000e+00 1
7.4275087333682918e-02 -1.3026147526447353e-02 0.0000000000000000e+00 1
7.5334156253802076e-02 -2.1931391545898467e-02 0.0000000000000000e+00 1
8.2732988692386794e-02 -1.6783593576429438e-02 0.0000000000000000e+00 1
8.3722701006307951e-02 -2.5725040615128814e-02 0.0000000000000000e+00 1
-8.6549008353413948e-02 1.6253349452460753e-02 0.0000000000000000e+00 1
-9.3580292886820904e-02 1.1176312344541778e-02 0.0000000000000000e+00 1
-9.2685574097040618e-02 2.6644986002720018e-03 0.0000000000000000e+00 1
-1.0053627036032799e-01 6.1290061694767167e-03 0.0000000000000000e+00 1
6.7171232144685580e-02 -2.7440145218969734e-02 0.0000000000000000e+00 1
9.1037714901625391e-02 -2.0459623715179773e-02 0.0000000000000000e+00 1
9.2086946449790180e-02 -2.9278940713980173e-02 0.0000000000000000e+00 1
9.9287890278969226e-02 -2.4164226142313741e-02 0.0000000000000000e+00 1
1.0024765625854767e-01 -3.3076678922939501e-02 0.0000000000000000e+00 1
4.7548793860799965e-02 7.4964834270029364e-03 0.0000000000000000e+00 1
-6.8794402888886899e-02 -8.5534885796702733e-03 0.0000000000000000e+00 1
-6.0583630172844891e-02 -1.2221529569187994e-02 0.0000000000000000e+00 1
-9.4415319829921018e-02 1.9774844379622136e-02 0.0000000000000000e+00 1
1.0687494143886123e-01 -2.7853149934629451e-02 0.0000000000000000e+00 1
1.0834132911306713e-01 -3.6518027459659548e-02 0.0000000000000000e+00 1
-9.9656563088078937e-02 -2.2486617437880566e-03 0.0000000000000000e+00 1
-1.0734658849664544e-01 1.1753240569853845e-03 0.0000000000000000e+00 1
9.4101558423660775e-02 -3.8723237558577352e-02 0.0000000000000000e+00 1
1.1510249124133487e-01 -3.0740648322729866e-02 0.0000000000000000e+00 1
1.1623349815572100e-01 -3.9761859340097162e-02 0.0000000000000000e+00 1
7.3652908995615565e-02 -4.1930888896341417e-03 0.0000000000000000e+00 1
2.0010530621125934e-02 3.7049433695610715e-02 0.0000000000000000e+00 1
1.2279572223986153e-01 -3.5225792837353206e-02 0.0000000000000000e+00 1
1.2394771253143311e-01 -4.3200496665427371e-02 0.0000000000000000e+00 1
-6.7921911946537711e-02 -1.7484880823283352e-02 0.0000000000000000e+00 1
-5.9679899410293391e-02 -2.1214636966814169e-02 0.0000000000000000e+00 1
-1.0651969339115781e-01 -7.1282284323807210e-03 0.0000000000000000e+00 1
-1.1405958714180933e-01 -3.6268626842282060e-03 0.0000000000000000e+00 1
-1.1491211011627102e-01 4.5084787468116444e-03 0.0000000000000000e+00 1
-1.2151748274130325e-01 -2.0862901831473189e-04 0.0000000000000000e+00 1
1.3049264417417317e-01 -3.8426576309006540e-02 0.0000000000000000e+00 1
1.0649558034020093e-01 -1.8992884241853067e-02 0.0000000000000000e+00 1
1.1729495078325886e-01 -4.8190165172584495e-02 0.0000000000000000e+00 1
-2.4436221433949898e-02 9.6547697446474109e-02 0.0000000000000000e+00 1
-8.7455772576021190e-02 2.4829674890174722e-02 0.0000000000000000e+00 1
-9.5321422638776410e-02 2.8290799558183088e-02 0.0000000000000000e+00 1
-8.8378415696538717e-02 3.3379110234550168e-02 0.0000000000000000e+00 1
-1.2234132443191488e-01 7.8022507428247029e-03 0.0000000000000000e+00 1
-1.2876972309519136e-01 3.0638550411748065e-03 0.0000000000000000e+00 1
1.3145476725690469e-01 -4.6341582715525673e-02 0.0000000000000000e+00 1
1.3777993095119259e-01 -4.1728139218806526e-02 0.0000000000000000e+00 1
-1.2800218295193780e-01 -4.7531094570380595e-03 0.0000000000000000e+00 1
-1.3512238536173368e-01 -1.5561702587110742e-03 0.0000000000000000e+00 1
2.8465024964153311e-02 3.3254794053436371e-02 0.0000000000000000e+00 1
-5.2299584541504809e-02 -1.5904004712078340e-02 0.0000000000000000e+00 1
-5.1383653805017193e-02 -2.4976434240714027e-02 0.0000000000000000e+00 1
-4.3953095286003566e-02 -1.9621117851808135e-02 0.0000000000000000e+00 1
-4.3023336888389871e-02 -2.8770229050181551e-02 0.0000000000000000e+00 1
-3.5529429737509208e-02 -2.3372297553372751e-02 0.0000000000000000e+00 1
-3.4596872353379868e-02 -3.2590074869938195e-02 0.0000000000000000e+00 1
-2.7054918075461936e-02 -2.7152854965548076e-02 0.0000000000000000e+00 1
-2.6110306981562390e-02 -3.6436915133259418e-02 0.0000000000000000e+00 1
-1.8507755100222512e-02 -3.0961225570900284e-02 0.0000000000000000e+00 1
1.3062834708934745e-03 6.1238381030890167e-02 0.0000000000000000e+00 1
-1.7560627683935577e-02 -4.0306650001074681e-02 0.0000000000000000e+00 1
-9.9213874935927000e-03 -3.4798680908052396e-02 0.0000000000000000e+00 1
-8.9647604405670329e-03 -4.4198916681611022e-02 0.0000000000000000e+00 1
-1.2861460170316870e-03 -3.8664576287477721e-02 0.0000000000000000e+00 1
-6.7051131001741593e-02 -2.6336146244801711e-02 0.0000000000000000e+00 1
2.7424036769689207e-02 4.2520797348078454e-02 0.0000000000000000e+00 1
3.5981116526137960e-02 3.8736225583389385e-02 0.0000000000000000e+00 1
-9.6205245100810799e-02 3.6848233700042726e-02 0.0000000000000000e+00 1
-8.9316826045663558e-02 4.1886283549106569e-02 0.0000000000000000e+00 1
-1.1327303440503775e-01 -1.1877497746316185e-02 0.0000000000000000e+00 1
-1.0572554445279218e-01 -1.5408796682120751e-02 0.0000000000000000e+00 1
-1.0303744170987300e-01 3.1777711124308675e-02 0.0000000000000000e+00 1
1.2934992993295832e-01 -2.9764846869483590e-02 0.0000000000000000e+00 1
9.0565366964157679e-02 -1.1553655277832140e-02 0.0000000000000000e+00 1
1.3868199824346625e-01 -4.9370264530761106e-02 0.0000000000000000e+00 1
1.4473058633753474e-01 -4.5000094247062618e-02 0.0000000000000000e+00 1
-3.2985540299909443e-04 -4.8093513003706401e-02 0.0000000000000000e+00 1
7.3609394128599081e-03 -4.2538710478666891e-02 0.0000000000000000e+00 1
-4.9883246559197680e-02 3.3637365031562512e-02 0.0000000000000000e+00 1
-5.7923057798355278e-02 3.7204797141794733e-02 0.0000000000000000e+00 1
-5.0869714368452675e-02 4.2377227372430971e-02 0.0000000000000000e+00 1
-5.8817866310719502e-02 4.5900187691242968e-02 0.0000000000000000e+00 1
-5.1836065589223636e-02 5.1008570592522867e-02 0.0000000000000000e+00 1
-5.9674175365836454e-02 5.4489956656794208e-02 0.0000000000000000e+00 1
-5.2773202242982792e-02 5.9553289859535341e-02 0.0000000000000000e+00 1
-6.0525857723453501e-02 6.2989601308688387e-02 0.0000000000000000e+00 1
-5.3745607660497297e-02 6.7975754187480253e-02 0.0000000000000000e+00 1
-5.0488508043617882e-02 -3.4006882933096179e-02 0.0000000000000000e+00 1
1.3259161949827025e-01 -5.3897149151863076e-02 0.0000000000000000e+00 1
-1.2959370083219171e-01 1.0982330088437593e-02 0.0000000000000000e+00 1
-2.0075890773296155e-02 -2.1672306933952418e-02 0.0000000000000000e+00 1
-6.1403444888838421e-02 7.1383092233813825e-02 0.0000000000000000e+00 1
-5.4598739639179918e-02 7.6244674583738792e-02 0.0000000000000000e+00 1
-6.8168106778031937e-02 6.6443438718330083e-02 0.0000000000000000e+00 1
-1.3441968189765835e-01 -9.2069389718463374e-03 0.0000000000000000e+00 1
-1.4134080088518930e-01 -5.9137812746854965e-03 0.0000000000000000e+00 1
-1.4201772026273718e-01 1.4528562735754372e-03 0.0000000000000000e+00 1
1.4407002562004870e-01 -3.7482681529499830e-02 0.0000000000000000e+00 1
8.0622185047915622e-03 -1.3352637692948272e-03 0.0000000000000000e+00 1
8.3261556803860149e-03 -5.1990949509529080e-02 0.0000000000000000e+00 1
1.6028229574793534e-02 -4.6430998324940354e-02 0.0000000000000000e+00 1
-8.0254596476050238e-04 7.8270648668566686e-02 0.0000000000000000e+00 1
1.4560753112304403e-01 -5.2278529691215866e-02 0.0000000000000000e+00 1
1.5137556722703707e-01 -4.8120588109882817e-02 0.0000000000000000e+00 1
-1.1254183201639811e-01 -2.0176013076494810e-02 0.0000000000000000e+00 1
-1.0494757387577364e-01 -2.3744890886304645e-02 0.0000000000000000e+00 1
-1.4796867482087395e-01 -2.9495084004573869e-03 0.0000000000000000e+00 1
1.6998836565134113e-02 -5.5890016776837588e-02 0.0000000000000000e+00 1
2.4701377543329146e-02 -5.0329609314964108e-02 0.0000000000000000e+00 1
-9.7103938324205996e-02 4.5315118696092435e-02 0.0000000000000000e+00 1
-3.3654093298844022e-02 -4.1745465648859621e-02 0.0000000000000000e+00 1
3.4905319841860065e-02 4.8030022914353251e-02 0.0000000000000000e+00 1
4.3520459033061912e-02 4.4308776783221378e-02 0.0000000000000000e+00 1
-1.6583164346603355e-02 -4.9562726879246961e-02 0.0000000000000000e+00 1
-2.1434573030451765e-02 5.4458902506623892e-02 0.0000000000000000e+00 1
1.5060070284769739e-02 -3.6995993781250278e-02 0.0000000000000000e+00 1
-9.0160130049971740e-02 5.0398032305751024e-02 0.0000000000000000e+00 1
-9.8060402936732294e-02 -1.8933266160869128e-02 0.0000000000000000e+00 1
-9.7232410009238074e-02 -2.7383512957541004e-02 0.0000000000000000e+00 1
-1.4734662637942161e-01 -1.0069506381035452e-02 0.0000000000000000e+00 1
-1.5378336160720374e-01 -7.1879372430370099e-03 0.0000000000000000e+00 1
-1.2318229146990820e-01 1.5761550536417694e-02 0.0000000000000000e+00 1
-1.3050096836521402e-01 1.8983243260306506e-02 0.0000000000000000e+00 1
-6.8963066151437560e-02 7.4748760923442098e-02 0.0000000000000000e+00 1
-7.6076719439274437e-02 6.9725015629178322e-02 0.0000000000000000e+00 1
2.5681659714676775e-02 -5.9782021194541207e-02 0.0000000000000000e+00 1
3.3375222871541141e-02 -5.4208803812884621e-02 0.0000000000000000e+00 1
-1.2404033032770337e-01 2.3736072252346360e-02 0.0000000000000000e+00 1
-9.7998818483512898e-02 5.3788176472083768e-02 0.0000000000000000e+00 1
-1.0487424211213583e-01 4.8766023982077411e-02 0.0000000000000000e+00 1
9.0300667551642885e-03 -1.0537806160200934e-02 0.0000000000000000e+00 1
2.6355519810020697e-02 5.1762757303740817e-02 0.0000000000000000e+00 1
3.3807335231083105e-02 5.7293876897902968e-02 0.0000000000000000e+00 1
2.5291162354208911e-02 6.0955679547136488e-02 0.0000000000000000e+00 1
3.2384472709193007e-02 -4.4765298040164776e-02 0.0000000000000000e+00 1
4.1024702551540920e-02 -4.8656717667971673e-02 0.0000000000000000e+00 1
4.2007735589663586e-02 -5.8052192336566333e-02 0.0000000000000000e+00 1
4.9614242756064977e-02 -5.2568906949585360e-02 0.0000000000000000e+00 1
5.0595265453273558e-02 -6.1860379660461678e-02 0.0000000000000000e+00 1
5.8183004770771943e-02 -5.6393106606661143e-02 0.0000000000000000e+00 1
5.9123794767166955e-02 -6.5639682689929008e-02 0.0000000000000000e+00 1
6.6625707533893255e-02 -6.0256320840423691e-02 0.0000000000000000e+00 1
-1.8686297876014061e-03 2.0802046249096325e-02 0.0000000000000000e+00 1
-3.6973752314583490e-02 -1.4240534892249194e-02 0.0000000000000000e+00 1
1.5222253287794382e-01 -5.5140274151683211e-02 0.0000000000000000e+00 1
1.5772330464651713e-01 -5.0949239668037077e-02 0.0000000000000000e+00 1
1.5705114065831599e-01 -4.4196298951986054e-02 0.0000000000000000e+00 1
1.4684143303835145e-01 -5.9310557331210441e-02 0.0000000000000000e+00 1
4.4578104071520255e-02 3.4938425651776635e-02 0.0000000000000000e+00 1
5.2087931387912741e-02 4.0282447625364190e-02 0.0000000000000000e+00 1
-1.4874284393376905e-01 4.2999511408501395e-03 0.0000000000000000e+00 1
9.2869697083397388e-04 -5.7504061341121772e-02 0.0000000000000000e+00 1
5.3245223915057600e-02 3.1056875791660419e-02 0.0000000000000000e+00 1
6.0797711311491920e-02 3.6438398363731556e-02 0.0000000000000000e+00 1
6.1977964655031893e-02 2.7195936513839575e-02 0.0000000000000000e+00 1
6.9683381692934754e-02 3.2877840775846295e-02 0.0000000000000000e+00 1
7.0806750554884973e-02 2.3364718545698354e-02 0.0000000000000000e+00 1
7.8508984452722252e-02 2.9077941434293628e-02 0.0000000000000000e+00 1
7.9647856265370534e-02 1.9529033654983895e-02 0.0000000000000000e+00 1
-1.0422172884815517e-01 -3.2165700173934927e-02 0.0000000000000000e+00 1
-9.6454411725692801e-02 -3.5965001327427429e-02 0.0000000000000000e+00 1
-4.7067270254470314e-02 7.2945494990210191e-02 0.0000000000000000e+00 1
-4.8428279916595471e-02 8.1023664578367405e-02 0.0000000000000000e+00 1
-5.5436731171285225e-02 8.4386855280969397e-02 0.0000000000000000e+00 1
-4.9110862448005485e-02 8.8993595970466577e-02 0.0000000000000000e+00 1
3.2678317631147397e-02 6.6519506881786344e-02 0.0000000000000000e+00 1
2.4139609299493880e-02 7.0079356155680728e-02 0.0000000000000000e+00 1
5.6610364899120896e-04 -6.7761377024243650e-03 0.0000000000000000e+00 1
-4.4971785817822837e-02 5.6187035936816648e-02 0.0000000000000000e+00 1
5.2152770623718724e-02 5.0268074491859584e-02 0.0000000000000000e+00 1
1.6318969259328164e-01 -4.6980899339062548e-02 0.0000000000000000e+00 1
-1.3141244269078545e-01 2.6997459768632551e-02 0.0000000000000000e+00 1
-1.2491720295443978e-01 3.1786840717618711e-02 0.0000000000000000e+00 1
-1.3779844130036437e-01 2.1984178097653132e-02 0.0000000000000000e+00 1
-8.2034462073245690e-02 4.7299488916249091e-02 0.0000000000000000e+00 1
4.8685989427312747e-02 -4.3191996286175656e-02 0.0000000000000000e+00 1
1.7909552115607810e-02 -1.4324680642380027e-02 0.0000000000000000e+00 1
8.7318187643161432e-02 2.5243267444665450e-02 0.0000000000000000e+00 1
8.8417044628320118e-02 1.5741605433059736e-02 0.0000000000000000e+00 1
-8.0515203513444877e-02 2.9901301108181962e-02 0.0000000000000000e+00 1
6.7585322575732715e-02 -6.9363445436331911e-02 0.0000000000000000e+00 1
7.4999411714409742e-02 -6.3963207859472362e-02 0.0000000000000000e+00 1
7.4072522081994205e-02 -5.4924032042427157e-02 0.0000000000000000e+00 1
8.2301356060840658e-02 -5.8719174299818391e-02 0.0000000000000000e+00 1
8.3251405690570657e-02 -6.7603474097568311e-02 0.0000000000000000e+00 1
9.0425518920442816e-02 -6.2448621086799230e-02 0.0000000000000000e+00 1
-4.2840620445436531e-02 8.5232017347657674e-02 0.0000000000000000e+00 1
-4.3248502742961333e-02 9.3362690152574590e-02 0.0000000000000000e+00 1
-9.0306648101672604e-02 -2.2663122281468665e-02 0.0000000000000000e+00 1
4.3093994357564919e-02 -6.7256977081353531e-02 0.0000000000000000e+00 1
1.5862403315767817e-01 -5.7578091511486081e-02 0.0000000000000000e+00 1
-2.5349312024741447e-02 1.0421963326318318e-01 0.0000000000000000e+00 1
1.6260042871022709e-01 -4.0378978000827515e-02 0.0000000000000000e+00 1
-4.9926309708304611e-02 9.6632129206424014e-02 0.0000000000000000e+00 1
-4.3826954999668988e-02 1.0064170620483832e-01 0.0000000000000000e+00 1
-1.5312970037347926e-01 -1.4147670280843388e-02 0.0000000000000000e+00 1
-1.4673990188520109e-01 -1.7182926237928269e-02 0.0000000000000000e+00 1
-1.5932682809962265e-01 -1.1176508959244937e-02 0.0000000000000000e+00 1
6.6617741575760697e-02 4.2353612310458810e-02 0.0000000000000000e+00 1
-1.5995864369927312e-01 -4.5425812187442748e-03 0.0000000000000000e+00 1
9.6063773581005624e-02 2.1393543195785569e-02 0.0000000000000000e+00 1
9.7117961147348608e-02 1.1949448393787258e-02 0.0000000000000000e+00 1
-9.1151547513337913e-02 5.8781321775642298e-02 0.0000000000000000e+00 1
-7.6626099452754337e-02 7.8093008131663727e-02 0.0000000000000000e+00 1
-8.3662360246853321e-02 7.3031562085237145e-02 0.0000000000000000e+00 1
9.1321446426931296e-02 -7.1183847596393651e-02 0.0000000000000000e+00 1
9.8416029078744791e-02 -6.6036684287414105e-02 0.0000000000000000e+00 1
9.7558912520952085e-02 -5.7409597771648703e-02 0.0000000000000000e+00 1
1.7949934055646946e-02 -6.5370279283361560e-02 0.0000000000000000e+00 1
1.9699021387810768e-03 -1.5734299690960678e-02 0.0000000000000000e+00 1
-1.1666344236478794e-01 2.0792861314370401e-02 0.0000000000000000e+00 1
1.0473521362245491e-01 1.7561469371654571e-02 0.0000000000000000e+00 1
1.0577659785114926e-01 8.2168187103001111e-03 0.0000000000000000e+00 1
1.0545208321845517e-01 -6.1001641224706811e-02 0.0000000000000000e+00 1
1.0623638178066080e-01 -6.9476538793875248e-02 0.0000000000000000e+00 1
1.1307005260568098e-01 -6.4563917566686752e-02 0.0000000000000000e+00 1
1.6844115649321625e-01 -4.3235642910075311e-02 0.0000000000000000e+00 1
1.6901659613124520e-01 -4.9455656671186246e-02 0.0000000000000000e+00 1
-1.0578246014940632e-01 5.7219833205308462e-02 0.0000000000000000e+00 1
-1.1263193830915305e-01 5.2209140617940492e-02 0.0000000000000000e+00 1
-6.9860597079305392e-02 8.2929092844229002e-02 0.0000000000000000e+00 1
-1.1999964491530643e-01 -1.6517944277977488e-02 0.0000000000000000e+00 1
-1.1930566944494139e-01 -2.4863052638644509e-02 0.0000000000000000e+00 1
-1.2660586289262377e-01 -2.1033416385639422e-02 0.0000000000000000e+00 1
-1.2597495600717554e-01 -2.9509270845763717e-02 0.0000000000000000e+00 1
-1.3423286338489029e-01 -2.5406107844100086e-02 0.0000000000000000e+00 1
-3.4746663042920865e-02 3.5416599449818655e-02 0.0000000000000000e+00 1
-6.5854138493090145e-02 4.0793757244879575e-02 0.0000000000000000e+00 1
-4.1881786562516816e-04 2.4266438189916488e-03 0.0000000000000000e+00 1
-7.8827857094446278e-03 -2.9937054827341358e-03 0.0000000000000000e+00 1
-1.1158814664493756e-01 4.3403067191900679e-02 0.0000000000000000e+00 1
-1.1929702106517664e-01 4.6393739369575533e-02 0.0000000000000000e+00 1
2.6662139528407545e-02 -6.9272193302466811e-02 0.0000000000000000e+00 1
4.1265990159197255e-02 6.2862266121724270e-02 0.0000000000000000e+00 1
1.5646312782994642e-01 -3.7374218229167047e-02 0.0000000000000000e+00 1
6.3048292712524615e-02 1.7749070353821925e-02 0.0000000000000000e+00 1
-1.1862302975062335e-01 -3.3063585329697123e-02 0.0000000000000000e+00 1
-1.3235045331360551e-01 3.5068619843786383e-02 0.0000000000000000e+00 1
-9.1913847502333557e-02 -5.8341166525769060e-03 0.0000000000000000e+00 1
1.7952747235429719e-02 5.5450223921183983e-02 0.0000000000000000e+00 1
1.1389076888090262e-01 -7.2817755583605120e-02 0.0000000000000000e+00 1
1.2055492515578972e-01 -6.8054315672321924e-02 0.0000000000000000e+00 1
1.0722612207182795e-01 -7.7761498917382932e-02 0.0000000000000000e+00 1
4.5566591406322139e-02 2.5580283518765769e-02 0.0000000000000000e+00 1
-1.0359496872920573e-01 -4.0474176774682277e-02 0.0000000000000000e+00 1
-9.5664897832186901e-02 -4.4623951463242252e-02 0.0000000000000000e+00 1
-8.8450958431962948e-02 -3.9625910267286207e-02 0.0000000000000000e+00 1
6.0121055787700481e-02 -7.4817568073981322e-02 0.0000000000000000e+00 1
-8.7799073463934920e-03 6.0908336008101797e-03 0.0000000000000000e+00 1
-1.6220984435754100e-02 6.8029433820791232e-04 0.0000000000000000e+00 1
8.9542274597633656e-02 6.4159153753008177e-03 0.0000000000000000e+00 1
-7.5592447983390418e-02 6.1155945187321106e-02 0.0000000000000000e+00 1
-7.6015366705210016e-02 -1.3650945066934735e-02 0.0000000000000000e+00 1
-1.4284903809753483e-01 8.9554697702453074e-03 0.0000000000000000e+00 1
-1.4965104126407000e-01 1.1659528008003659e-02 0.0000000000000000e+00 1
-1.5533610192862257e-01 7.0229657054068544e-03 0.0000000000000000e+00 1
-8.7564912549799770e-02 -4.8314535726575000e-02 0.0000000000000000e+00 1
-8.0287066834785148e-02 -4.3306750854888304e-02 0.0000000000000000e+00 1
-7.9404117400319704e-02 -5.2141408959589394e-02 0.0000000000000000e+00 1
-7.2010234162684844e-02 -4.7061824445725826e-02 0.0000000000000000e+00 1
-7.1248771929094540e-02 -5.6200166673349684e-02 0.0000000000000000e+00 1
-6.3691388706861723e-02 -5.0922333790081709e-02 0.0000000000000000e+00 1
-8.1269786342238109e-02 -3.4604457071861876e-02 0.0000000000000000e+00 1
9.4864336541345531e-02 3.0529885254901957e-02 0.0000000000000000e+00 1
1.6238325845641033e-01 -3.3632674424756363e-02 0.0000000000000000e+00 1
1.5591333392024079e-01 -3.0481822746631922e-02 0.0000000000000000e+00 1
-1.6512545134592771e-01 -8.5450750009926739e-03 0.0000000000000000e+00 1
8.1387923157552014e-02 -4.9883198108900281e-02 0.0000000000000000e+00 1
7.3177729905067671e-02 -4.5939075495756827e-02 0.0000000000000000e+00 1
-1.6455012554060572e-01 -1.4800410711227474e-02 0.0000000000000000e+00 1
3.9897705938923514e-02 7.1674873692213065e-02 0.0000000000000000e+00 1
3.2271249023369687e-03 1.0015730463395531e-01 0.0000000000000000e+00 1
8.4177272143841381e-02 -7.6438729129185617e-02 0.0000000000000000e+00 1
1.1320759184324460e-01 1.3665153473253495e-02 0.0000000000000000e+00 1
1.1431913694717034e-01 4.5557279222873115e-03 0.0000000000000000e+00 1
1.0692578785820046e-01 -1.0241116507235049e-03 0.0000000000000000e+00 1
1.1537054550219999e-01 -4.6655497916647855e-03 0.0000000000000000e+00 1
1.2267234024593823e-01 8.4362831263948886e-04 0.0000000000000000e+00 1
1.2368988795104076e-01 -8.1256109566015828e-03 0.0000000000000000e+00 1
1.3079032280241840e-01 -2.8790049978189053e-03 0.0000000000000000e+00 1
1.3175899783911249e-01 -1.1675856173168450e-02 0.0000000000000000e+00 1
1.2471424538150924e-01 -1.6633145249152770e-02 0.0000000000000000e+00 1
-6.4613847748471301e-02 -4.1883429818489956e-02 0.0000000000000000e+00 1
6.8536727349321147e-02 -7.8548959421805009e-02 0.0000000000000000e+00 1
-1.5264230780189336e-01 -2.1129449100923847e-02 0.0000000000000000e+00 1
-1.4647820486755894e-01 -2.4019750562125929e-02 0.0000000000000000e+00 1
1.0437615065982717e-01 -5.2171800102940605e-02 0.0000000000000000e+00 1
-7.7252669738771124e-02 8.6054313868976287e-02 0.0000000000000000e+00 1
-7.0452242248300045e-02 9.1053750387128846e-02 0.0000000000000000e+00 1
-3.1257954933289853e-02 1.0024593718388891e-01 0.0000000000000000e+00 1
-3.1763637149615803e-02 1.0728573864856805e-01 0.0000000000000000e+00 1
-1.2529103813687256e-01 -3.7597283548735108e-02 0.0000000000000000e+00 1
-3.0722523797630207e-02 9.2864726093617039e-02 0.0000000000000000e+00 1
1.3839932615914344e-01 -6.4897159094227117e-03 0.0000000000000000e+00 1
1.3964058967217943e-01 -1.4917005471431878e-02 0.0000000000000000e+00 1
1.2135360104889600e-01 -7.5780072757126379e-02 0.0000000000000000e+00 1
1.2783282306349097e-01 -7.1260350988816917e-02 0.0000000000000000e+00 1
-5.0258305849473120e-02 1.0371178657482977e-01 0.0000000000000000e+00 1
-5.6856555774881495e-02 9.9576470453017429e-02 0.0000000000000000e+00 1
-4.4006897951291576e-02 1.0739116037415398e-01 0.0000000000000000e+00 1
-1.5597920108506230e-01 1.4240921006006000e-02 0.0000000000000000e+00 1
-1.5065131251765751e-01 1.9002197346619537e-02 0.0000000000000000e+00 1
7.9569176864603366e-02 -4.0350751307057314e-02 0.0000000000000000e+00 1
1.1998081590323154e-01 -6.0491624627999258e-02 0.0000000000000000e+00 1
-5.6142264866013182e-02 -4.5590713007769332e-02 0.0000000000000000e+00 1
-5.5270321452228967e-02 -5.4854091372234938e-02 0.0000000000000000e+00 1
-4.7701035527234641e-02 -4.9608352766966853e-02 0.0000000000000000e+00 1
-4.6763612998689398e-02 -5.8809278186292384e-02 0.0000000000000000e+00 1
-1.6540306478516043e-01 -1.9240487678559705e-03 0.0000000000000000e+00 1
-1.5352878160793532e-02 -8.3757588196013422e-03 0.0000000000000000e+00 1
-2.3744798598314618e-02 -4.6086524384997690e-03 0.0000000000000000e+00 1
-2.6746640266760369e-02 1.1185973302200150e-01 0.0000000000000000e+00 1
-3.9056347448205346e-02 -5.3372996048322477e-02 0.0000000000000000e+00 1
-3.8141296782274785e-02 -6.2638639286901401e-02 0.0000000000000000e+00 1
-3.0476353584339019e-02 -5.7462177255265617e-02 0.0000000000000000e+00 1
-2.9462180682497941e-02 -6.6719331444881264e-02 0.0000000000000000e+00 1
1.1235205210791971e-01 2.3117168253239524e-02 0.0000000000000000e+00 1
-1.2052176371064635e-01 5.5081924986380898e-02 0.0000000000000000e+00 1
-2.7297414900331403e-03 -2.9552950017527238e-02 0.0000000000000000e+00 1
-2.1808430443471648e-02 -6.1505375045154992e-02 0.0000000000000000e+00 1
1.4688185866996192e-01 -9.6053431687893702e-03 0.0000000000000000e+00 1
1.4751246749554514e-01 -1.8652425036919822e-02 0.0000000000000000e+00 1
1.4141834974480122e-01 -2.3194088994842092e-02 0.0000000000000000e+00 1
-1.1788219014638046e-01 -4.0724853903779036e-02 0.0000000000000000e+00 1
-9.5021455851720116e-02 -5.3837901672542245e-02 0.0000000000000000e+00 1
1.8385370821681152e-02 -7.4378502343610250e-02 0.0000000000000000e+00 1
9.6298603781057503e-03 -7.0831126070263914e-02 0.0000000000000000e+00 1
-1.2750287253212372e-01 5.0239401596877953e-02 0.0000000000000000e+00 1
6.0411003170135369e-02 -8.3936494849069843e-02 0.0000000000000000e+00 1
-2.0194696313631123e-02 -7.2995855767339010e-02 0.0000000000000000e+00 1
-1.2725895107651802e-02 -6.6765472526517530e-02 0.0000000000000000e+00 1
9.2429650133987878e-02 -8.0092396339690397e-02 0.0000000000000000e+00 1
-1.5283665173594832e-01 -2.8695996650691155e-02 0.0000000000000000e+00 1
9.6523023360243349e-02 -4.8600328333278181e-02 0.0000000000000000e+00 1
5.2004947528487194e-02 -7.9980859838418988e-02 0.0000000000000000e+00 1
4.5044436210778159e-02 -8.3884564929636210e-02 0.0000000000000000e+00 1
-2.8945647390116108e-02 -7.6590529345842373e-02 0.0000000000000000e+00 1
-7.9703737338569225e-02 -6.0497332944978062e-02 0.0000000000000000e+00 1
1.6270426351147405e-01 -2.6637526299839856e-02 0.0000000000000000e+00 1
1.5545866034153213e-01 -2.3152602406839844e-02 0.0000000000000000e+00 1
1.4894782503378673e-01 -2.6735206535759656e-02 0.0000000000000000e+00 1
-1.4013125091169740e-01 -2.0198587836157415e-02 0.0000000000000000e+00 1
1.3013778191743758e-01 6.3727676982968020e-03 0.0000000000000000e+00 1
-5.4621523330587687e-02 -6.4610231085475589e-02 0.0000000000000000e+00 1
2.7024973646484020e-02 -7.9823413219064596e-02 0.0000000000000000e+00 1
1.7401123838999424e-01 -4.5944025138114741e-02 0.0000000000000000e+00 1
1.7458372324847901e-01 -5.1753441700069992e-02 0.0000000000000000e+00 1
1.6962032623436335e-01 -5.5382020409259484e-02 0.0000000000000000e+00 1
-1.2575567230152640e-01 3.9889428450926794e-02 0.0000000000000000e+00 1
-1.1824851262254425e-01 3.6835770908886178e-02 0.0000000000000000e+00 1
4.8788071552600322e-02 6.8447573170875006e-02 0.0000000000000000e+00 1
7.0843611702335302e-02 -3.6725030123022487e-02 0.0000000000000000e+00 1
6.4469780009792407e-02 -4.2190946863150953e-02 0.0000000000000000e+00 1
-1.5882518889875041e-01 -1.7753257133337575e-02 0.0000000000000000e+00 1
-1.6486652209053582e-01 -2.0679915937912859e-02 0.0000000000000000e+00 1
-6.3245734469849990e-02 8.7666543381051204e-02 0.0000000000000000e+00 1
-6.3329405199207350e-02 9.5409284517644577e-02 0.0000000000000000e+00 1
-1.3327460226410995e-01 4.3201527593953057e-02 0.0000000000000000e+00 1
-1.4071693265280891e-01 3.7506121890674246e-02 0.0000000000000000e+00 1
-1.6053257366736551e-01 2.6199795404296352e-03 0.0000000000000000e+00 1
-7.1425252269568862e-02 -6.5009989969569179e-02 0.0000000000000000e+00 1
-1.6230194630516995e-01 1.0379205301563660e-02 0.0000000000000000e+00 1
-1.2825845048008266e-01 5.9627989321650705e-02 0.0000000000000000e+00 1
8.5210391436485150e-02 -8.5139111678433119e-02 0.0000000000000000e+00 1
1.0067626220630060e-01 -8.3117392384005243e-02 0.0000000000000000e+00 1
-6.2106744498084260e-02 7.9607401774855327e-02 0.0000000000000000e+00 1
1.7363905071067950e-01 -3.9870225297470210e-02 0.0000000000000000e+00 1
-7.8206989134674415e-02 9.4301385854123274e-02 0.0000000000000000e+00 1
-1.2722194587500027e-01 -1.2716091277033196e-02 0.0000000000000000e+00 1
1.6833965331000456e-01 -3.6792622852256797e-02 0.0000000000000000e+00 1
1.6878126362364565e-01 -3.0261977446750861e-02 0.0000000000000000e+00 1
1.6182331084359491e-01 -1.9398093495511352e-02 0.0000000000000000e+00 1
1.1510642731227434e-01 -8.1858687151447687e-02 0.0000000000000000e+00 1
1.3252234637393467e-01 -2.1132926186169243e-02 0.0000000000000000e+00 1
1.2734739624470728e-01 -6.4020244053998893e-02 0.0000000000000000e+00 1
1.3445011089239259e-01 -6.7263017120499521e-02 0.0000000000000000e+00 1
1.3501060577578880e-01 -7.4186751400655088e-02 0.0000000000000000e+00 1
1.4139716017408965e-01 -7.0306886297533483e-02 0.0000000000000000e+00 1
1.4126839946180650e-01 -7.7174966942629375e-02 0.0000000000000000e+00 1
1.4849888656736518e-01 -7.3725339474082816e-02 0.0000000000000000e+00 1
-1.7078898746641979e-01 -1.2210996500927589e-02 0.0000000000000000e+00 1
1.2901708067067430e-01 -7.9434347941329295e-02 0.0000000000000000e+00 1
1.6377914973833094e-01 -5.3447726157296864e-02 0.0000000000000000e+00 1
1.6464249688657537e-01 -5.9897082331157682e-02 0.0000000000000000e+00 1
1.5958238000145381e-01 -6.3872814796234523e-02 0.0000000000000000e+00 1
1.5345255376155176e-01 -6.1780455667525769e-02 0.0000000000000000e+00 1
1.5400600462355563e-01 -6.8086737807627612e-02 0.0000000000000000e+00 1
1.6555615777204902e-01 -6.6369714389116624e-02 0.0000000000000000e+00 1
-2.4272964661938984e-02 4.6004245440647460e-03 0.0000000000000000e+00 1
-3.1741018392400094e-02 -5.0351738437730026e-04 0.0000000000000000e+00 1
-4.2829324679132565e-02 3.8886557409371025e-02 0.0000000000000000e+00 1
1.6933238957869169e-02 6.4575253158717288e-02 0.0000000000000000e+00 1
1.5846166977183326e-02 7.3600777711673518e-02 0.0000000000000000e+00 1
2.2893243236479316e-02 7.8920219697492106e-02 0.0000000000000000e+00 1
1.4719046619373458e-02 8.2477456362884102e-02 0.0000000000000000e+00 1
2.2524276532482561e-02 8.7441550901490098e-02 0.0000000000000000e+00 1
8.6506151109900994e-03 6.7577903206387346e-02 0.0000000000000000e+00 1
1.4269998400223402e-02 9.1993774660021690e-02 0.0000000000000000e+00 1
6.7835001536466141e-03 8.4971310553308046e-02 0.0000000000000000e+00 1
-1.0830021468883368e-01 9.4368595517831839e-03 0.0000000000000000e+00 1
-1.0138893816696029e-01 1.4513874483857591e-02 0.0000000000000000e+00 1
-1.0222333949606810e-01 2.3105542144165620e-02 0.0000000000000000e+00 1
-1.0985461005293959e-01 2.6163601801061507e-02 0.0000000000000000e+00 1
3.1343373554848730e-02 7.5372750377608030e-02 0.0000000000000000e+00 1
3.8859992076946792e-02 7.9468964764217026e-02 0.0000000000000000e+00 1
1.1538170868865516e-01 -1.4786153811247177e-02 0.0000000000000000e+00 1
1.1852662641474850e-01 -2.2813269186440159e-02 0.0000000000000000e+00 1
6.8825013587050704e-02 -8.7054070394399968e-02 0.0000000000000000e+00 1
9.8281483410457740e-02 2.7408234674567581e-03 0.0000000000000000e+00 1
9.8847010271885832e-02 -6.2914366811475039e-03 0.0000000000000000e+00 1
1.8965846784639077e-02 4.6281367971087881e-02 0.0000000000000000e+00 1
1.0635538309479910e-02 4.9700603088624007e-02 0.0000000000000000e+00 1
1.3676066064415671e-01 -3.4232062037559019e-02 0.0000000000000000e+00 1
-1.9291615460855276e-02 1.0964937490781956e-01 0.0000000000000000e+00 1
1.1654240866918630e-02 4.0577710192537315e-02 0.0000000000000000e+00 1
1.1278584576736786e-01 -5.5030543352397682e-02 0.0000000000000000e+00 1
1.4755254473736720e-01 -6.6095991532183873e-02 0.0000000000000000e+00 1
8.0861049692567466e-02 1.0192535880646964e-02 0.0000000000000000e+00 1
8.1745471333581995e-02 1.1576351570143353e-03 0.0000000000000000e+00 1
7.2020445906330527e-02 1.4019179738119055e-02 0.0000000000000000e+00 1
6.4040387963265888e-02 8.7763092882862364e-03 0.0000000000000000e+00 1
1.2533863401402190e-01 -5.0431039720884835e-02 0.0000000000000000e+00 1
-8.4006689392095060e-02 8.1209668625705292e-02 0.0000000000000000e+00 1
-9.1205448113958268e-02 7.6246743344810533e-02 0.0000000000000000e+00 1
-9.0338923282070188e-02 8.4975537205310703e-02 0.0000000000000000e+00 1
-9.8426641498318007e-02 8.0063497104859646e-02 0.0000000000000000e+00 1
-9.8119256447743053e-02 7.1125811583607201e-02 0.0000000000000000e+00 1
-6.6664278796993645e-02 4.9421474074402817e-02 0.0000000000000000e+00 1
-7.3719280418109406e-02 4.4390201107246688e-02 0.0000000000000000e+00 1
-7.3068640993995113e-02 3.5550809601609674e-02 0.0000000000000000e+00 1
-7.4646700244829445e-02 5.2794032430685672e-02 0.0000000000000000e+00 1
-8.2917370966803794e-02 5.5706689634990605e-02 0.0000000000000000e+00 1
-8.3542087583220292e-02 6.4152045202852698e-02 0.0000000000000000e+00 1
-5.6613562304709347e-02 9.2092580005729618e-02 0.0000000000000000e+00 1
1.3988550058310792e-01 -5.6425325172257519e-02 0.0000000000000000e+00 1
1.3769512917633714e-01 2.3312853880532989e-03 0.0000000000000000e+00 1
1.2852392040818994e-01 1.5364039554656268e-02 0.0000000000000000e+00 1
-1.3675046464437274e-01 1.3828250005737942e-02 0.0000000000000000e+00 1
-7.1455837543527467e-02 1.7965846736386244e-02 0.0000000000000000e+00 1
-6.4219772059120994e-02 2.3236223379843171e-02 0.0000000000000000e+00 1
1.0723561619469374e-01 -1.0146582372241657e-02 0.0000000000000000e+00 1
1.0973987857101311e-01 -4.5133460162165406e-02 0.0000000000000000e+00 1
-1.2903140257484657e-03 1.1589461037673467e-02 0.0000000000000000e+00 1
-9.3622436206270768e-03 1.5322548130350515e-02 0.0000000000000000e+00 1
7.1614273324870368e-03 7.8491009395494759e-03 0.0000000000000000e+00 1
-4.5822998642101653e-02 6.5001843883722682e-02 0.0000000000000000e+00 1
-3.7947477934918039e-02 6.1820222305238683e-02 0.0000000000000000e+00 1
-3.6999768961070073e-02 5.2960638780999034e-02 0.0000000000000000e+00 1
-3.0045098650040659e-02 5.8109279208506934e-02 0.0000000000000000e+00 1
-3.0366038388208040e-02 6.7015999518945907e-02 0.0000000000000000e+00 1
-2.8935298804139659e-02 4.9403000676799071e-02 0.0000000000000000e+00 1
-2.2412548219106883e-02 6.3082056426167293e-02 0.0000000000000000e+00 1
-3.0418678782712850e-02 7.5607001680180128e-02 0.0000000000000000e+00 1
-3.8791065795480056e-02 7.1368194954858744e-02 0.0000000000000000e+00 1
-2.0680373843592684e-02 4.5736459015743594e-02 0.0000000000000000e+00 1
-2.3200505925170534e-02 8.0164557891662228e-02 0.0000000000000000e+00 1
-3.0358838006259825e-02 8.4559558948548635e-02 0.0000000000000000e+00 1
-1.3886674290783643e-01 2.9932075264852202e-02 0.0000000000000000e+00 1
-1.4486069694631828e-01 2.4220767391790802e-02 0.0000000000000000e+00 1
-3.5935206258939631e-02 4.4204891068836891e-02 0.0000000000000000e+00 1
-7.6849844130548184e-02 -4.8086787585717916e-03 0.0000000000000000e+00 1
-8.4032731619590878e-02 -9.7111548585647467e-03 0.0000000000000000e+00 1
5.4194922088990884e-02 2.1793478612031437e-02 0.0000000000000000e+00 1
2.3722925098655690e-02 -4.0889163588956223e-02 0.0000000000000000e+00 1
3.1409955541908612e-02 -3.5350436225601779e-02 0.0000000000000000e+00 1
2.2615157135172315e-02 -3.1778934741253428e-02 0.0000000000000000e+00 1
2.9531285617419689e-02 -2.6858721871023832e-02 0.0000000000000000e+00 1
3.8824477546854759e-02 -3.0341931339579898e-02 0.0000000000000000e+00 1
1.3253944605812154e-02 -2.8468489279742180e-02 0.0000000000000000e+00 1
4.0021504430132068e-02 -3.9352665045930352e-02 0.0000000000000000e+00 1
4.7709814867858726e-02 -3.3929393975735189e-02 0.0000000000000000e+00 1
5.6161806283709925e-02 -3.8221081263288048e-02 0.0000000000000000e+00 1
5.5937906205880211e-02 -2.8435514569550586e-02 0.0000000000000000e+00 1
9.9345100500410038e-02 -7.4609832587716488e-02 0.0000000000000000e+00 1
-1.0385495787931243e-01 4.0244800660602528e-02 0.0000000000000000e+00 1
6.0460728013074687e-03 -3.3611513416996794e-02 0.0000000000000000e+00 1
-7.5206751487937609e-02 -2.2090573269159718e-02 0.0000000000000000e+00 1
-4.1765124673625809e-02 3.0080203082177445e-02 0.0000000000000000e+00 1
3.5224521552796838e-02 -7.2896329178525621e-02 0.0000000000000000e+00 1
-8.1172138123499563e-02 3.8734532419490687e-02 0.0000000000000000e+00 1
-7.2315226375701230e-02 2.6666587357985650e-02 0.0000000000000000e+00 1
7.5904482022196434e-02 -7.2958962041665729e-02 0.0000000000000000e+00 1
-1.1727202854026224e-02 -2.5500632186179858e-02 0.0000000000000000e+00 1
3.4198732720771972e-02 -1.2636500445477868e-02 0.0000000000000000e+00 1
1.2170532468918421e-01 1.0109819208237166e-02 0.0000000000000000e+00 1
4.5748103056768664e-02 -2.4901434967276662e-02 0.0000000000000000e+00 1
-1.1410837593114448e-01 6.0901628777052311e-02 0.0000000000000000e+00 1
-1.0603912244893514e-01 6.5319468800451211e-02 0.0000000000000000e+00 1
-9.8490547398766184e-02 6.2124391456973280e-02 0.0000000000000000e+00 1
-4.5214278267214608e-02 -1.0614935091424077e-02 0.0000000000000000e+00 1
-4.7094031572896385e-02 7.1672145406610046e-03 0.0000000000000000e+00 1
-2.8747246052254934e-02 -1.7933597128445646e-02 0.0000000000000000e+00 1
-2.3683349968833492e-02 8.8736070485635324e-02 0.0000000000000000e+00 1
-4.3928308956014378e-02 4.7597729394865347e-02 0.0000000000000000e+00 1
-1.3258228908410527e-01 -3.4012815450234810e-02 0.0000000000000000e+00 1
-1.3913184166766723e-01 -3.0758831822228598e-02 0.0000000000000000e+00 1
3.7014280447392071e-02 2.9358483168739333e-02 0.0000000000000000e+00 1
3.7947998185912157e-02 2.0138982042467737e-02 0.0000000000000000e+00 1
-6.5072953219987489e-02 3.1978188391233509e-02 0.0000000000000000e+00 1
3.4340878935775129e-02 -6.3578086151056340e-02 0.0000000000000000e+00 1
-1.6958308256410182e-01 -1.7641171929477478e-02 0.0000000000000000e+00 1
-6.7239733796456147e-03 -1.1802630595790438e-02 0.0000000000000000e+00 1
-5.3336141180871502e-02 -6.9821013386193427e-03 0.0000000000000000e+00 1
1.5453795102233253e-01 -1.5416343572610940e-02 0.0000000000000000e+00 1
1.5447144421932421e-01 -8.3629498972104411e-03 0.0000000000000000e+00 1
7.6735816204349730e-02 -8.1920289914182834e-02 0.0000000000000000e+00 1
-7.9481743159854623e-02 2.1388742807893012e-02 0.0000000000000000e+00 1
2.5211619661351381e-02 -8.8528033788470191e-03 0.0000000000000000e+00 1
-1.2067897967173247e-01 -8.2833557434846428e-03 0.0000000000000000e+00 1
-8.4801414309991746e-02 -9.8266831884391797e-04 0.0000000000000000e+00 1
-7.5249535749778960e-03 -5.3275847530868094e-02 0.0000000000000000e+00 1
8.6153095687995909e-02 3.4593070725621816e-02 0.0000000000000000e+00 1
-7.2930135954857728e-02 -3.8192010619169457e-02 0.0000000000000000e+00 1
9.2401861671444312e-03 -6.1422134411996912e-02 0.0000000000000000e+00 1
-6.7545261148755892e-02 5.7882408062703707e-02 0.0000000000000000e+00 1
-1.0049694599394764e-02 2.4479915332967107e-02 0.0000000000000000e+00 1
1.0354315138515174e-01 2.6580788826792687e-02 0.0000000000000000e+00 1
6.3093691695748383e-02 7.1733070580938918e-02 0.0000000000000000e+00 1
6.2495045985395264e-02 6.1995347228670381e-02 0.0000000000000000e+00 1
7.0612192439940172e-02 5.6872199404763436e-02 0.0000000000000000e+00 1
6.2093118625632354e-02 5.2073248224758881e-02 0.0000000000000000e+00 1
7.9260953189812383e-02 6.0659723765656766e-02 0.0000000000000000e+00 1
7.8477552033797832e-02 5.0748620278768704e-02 0.0000000000000000e+00 1
1.0775876873744349e-01 -8.4685715813870563e-02 0.0000000000000000e+00 1
-3.2376069807538939e-02 1.1406605588622962e-01 0.0000000000000000e+00 1
-3.7615444778643731e-02 1.1044039861220591e-01 0.0000000000000000e+00 1
5.7155064105382014e-02 -4.7289598549987766e-02 0.0000000000000000e+00 1
6.3832892001463304e-03 1.7018977952877531e-02 0.0000000000000000e+00 1
-5.3221103708277803e-02 -7.4417371711299418e-02 0.0000000000000000e+00 1
-4.2061653011624359e-02 -3.7751436933218113e-02 0.0000000000000000e+00 1
7.6534131839498545e-02 4.0445632338553250e-02 0.0000000000000000e+00 1
7.6316728437426182e-03 7.6402955997069880e-02 0.0000000000000000e+00 1
8.9466523669664871e-02 -5.3744637127214598e-02 0.0000000000000000e+00 1
4.2575513715792795e-02 5.3657806639764896e-02 0.0000000000000000e+00 1
-1.0386860478130011e-01 -4.8624820739757518e-02 0.0000000000000000e+00 1
-1.1092348851729297e-01 -5.0983275275322218e-02 0.0000000000000000e+00 1
-2.5095834630511377e-02 -4.5529129849672959e-02 0.0000000000000000e+00 1
5.1581772324227892e-02 -7.0886833826640294e-02 0.0000000000000000e+00 1
-5.8768785560949888e-02 -2.9992761538462212e-02 0.0000000000000000e+00 1
2.9465039668889286e-02 2.4090794451771112e-02 0.0000000000000000e+00 1
-1.3585050538229354e-01 6.1210984867433333e-03 0.0000000000000000e+00 1
6.5613968067816913e-02 -5.1165513399734588e-02 0.0000000000000000e+00 1
-1.8103314541998050e-03 8.6677382979657908e-02 0.0000000000000000e+00 1
1.7873676061373589e-01 -4.2959444222789279e-02 0.0000000000000000e+00 1
8.7052057651747838e-02 5.4653191038317818e-02 0.0000000000000000e+00 1
-1.5439283067935908e-01 -2.8340867301587802e-04 0.0000000000000000e+00 1
-1.1575758441656178e-01 1.2629394566435160e-02 0.0000000000000000e+00 1
1.0299393875820019e-01 4.3380980324889698e-02 0.0000000000000000e+00 1
-5.4318383810603249e-02 1.9039535335882377e-03 0.0000000000000000e+00 1
2.2671656004819542e-02 -8.8567345349784665e-02 0.0000000000000000e+00 1
3.4984131025395785e-03 -8.6320883481954103e-02 0.0000000000000000e+00 1
-6.0311517706820210e-03 -8.4591161716746036e-02 0.0000000000000000e+00 1
4.0462528703836843e-04 -7.6492687018885924e-02 0.0000000000000000e+00 1
1.3626695986528221e-04 6.9786004830492063e-02 0.0000000000000000e+00 1
-9.8868004366391593e-02 -1.0602111059202677e-02 0.0000000000000000e+00 1
-6.3242435170710876e-02 -6.0484393576317276e-02 0.0000000000000000e+00 1
-1.1181261215059354e-01 -2.8430380043020655e-02 0.0000000000000000e+00 1
2.3301776320335574e-02 9.6257994725512663e-02 0.0000000000000000e+00 1
1.1810701136487661e-01 3.0197991755793747e-02 0.0000000000000000e+00 1
-8.9403239661896797e-02 -3.1103814190138860e-02 0.0000000000000000e+00 1
1.0183701265262826e-01 -4.1996249016694909e-02 0.0000000000000000e+00 1
5.6136002419775045e-02 3.5234991098613147e-03 0.0000000000000000e+00 1
1.6783269077456212e-03 -6.6545628016211958e-02 0.0000000000000000e+00 1
-1.1394502850146659e-01 7.4265498884383357e-02 0.0000000000000000e+00 1
4.9675080936661453e-02 6.0036594796739534e-02 0.0000000000000000e+00 1
9.8449668648889474e-02 -1.5374069026233769e-02 0.0000000000000000e+00 1
3.0452398196966789e-02 1.4905452568072568e-02 0.0000000000000000e+00 1
1.7155148617519855e-01 -6.1340403366009280e-02 0.0000000000000000e+00 1
3.2636703867456474e-03 4.3802714591872703e-02 0.0000000000000000e+00 1
9.6872399900600516e-03 5.8700464412354131e-02 0.0000000000000000e+00 1
2.2312325426713320e-03 5.2601459684324448e-02 0.0000000000000000e+00 1
2.7066156543032349e-02 -1.8101117304241431e-02 0.0000000000000000e+00 1
-1.2998820677277684e-01 -4.8474181252163254e-02 0.0000000000000000e+00 1
-1.4473621119169180e-01 4.4814637929865397e-02 0.0000000000000000e+00 1
-4.6321955854761926e-02 -1.6627574780988526e-03 0.0000000000000000e+00 1
1.5067499317805963e-01 -4.1120121237283931e-02 0.0000000000000000e+00 1
-1.4427751998818494e-01 -4.0615946241921358e-02 0.0000000000000000e+00 1
-2.3145351389001929e-02 1.1731758459753484e-01 0.0000000000000000e+00 1
-1.0903135486435857e-01 1.7773688976945576e-02 0.0000000000000000e+00 1
8.5623041713970643e-02 4.4541309395797368e-02 0.0000000000000000e+00 1
-5.6830449511256931e-02 1.0634496936543193e-01 0.0000000000000000e+00 1
-1.4059658039709244e-01 -1.3197290893813678e-02 0.0000000000000000e+00 1
1.4519674112712810e-01 6.1217182437973226e-03 0.0000000000000000e+00 1
1.2678497394934674e-01 -8.6912878016966399e-02 0.0000000000000000e+00 1
-9.3110061879042600e-03 -7.5703686386751581e-02 0.0000000000000000e+00 1
-1.1121172467006876e-01 -3.6442922943643291e-02 0.0000000000000000e+00 1
-6.9623084720910833e-02 1.0624084353642499e-01 0.0000000000000000e+00 1
1.7951184096269215e-01 -5.3240907476847295e-02 0.0000000000000000e+00 1
1.0593924104875252e-02 -1.9662947690062618e-02 0.0000000000000000e+00 1
-1.5474185149768971e-01 3.3128290891043202e-02 0.0000000000000000e+00 1
-1.3360122042338710e-01 -1.6612004661229099e-02 0.0000000000000000e+00 1
3.8939921065978420e-02 1.1108529815571835e-02 0.0000000000000000e+00 1
9.0351796276838925e-02 -2.5663065819886239e-03 0.0000000000000000e+00 1
-1.7434718610287517e-02 1.9017435129253531e-02 0.0000000000000000e+00 1
-1.1734080528438770e-01 2.9112299377246065e-02 0.0000000000000000e+00 1
-1.6347577526185100e-01 2.1723408624047216e-02 0.0000000000000000e+00 1
4.6467239905971083e-02 1.6481608435090972e-02 0.0000000000000000e+00 1
-2.7683051275102039e-02 4.0586490149628590e-02 0.0000000000000000e+00 1
-9.1042220270047450e-02 -1.4328508142420451e-02 0.0000000000000000e+00 1
-1.2111803249544927e-02 1.1315914579225989e-01 0.0000000000000000e+00 1
-4.5652509706138766e-02 -6.8234465414072548e-02 0.0000000000000000e+00 1
-9.8377455885947776e-02 -6.2520766233317551e-02 0.0000000000000000e+00 1
-1.4376016579505296e-01 1.6608398436675061e-02 0.0000000000000000e+00 1
-1.6811683142341199e-02 9.9264472095815202e-03 0.0000000000000000e+00 1
-1.1044221503421056e-01 3.5078362306659623e-02 0.0000000000000000e+00 1
5.5239273158554571e-02 1.2636741537682470e-02 0.0000000000000000e+00 1
1.4680279777762706e-01 -8.1374821929676489e-02 0.0000000000000000e+00 1
-3.7626936233431135e-02 1.0390318031204532e-01 0.0000000000000000e+00 1
-2.7878619711611680e-03 9.5132997484605658e-02 0.0000000000000000e+00 1
-1.6641979472264268e-01 -2.6563751936052222e-02 0.0000000000000000e+00 1
-3.2015028357278125e-02 8.7515755407984903e-03 0.0000000000000000e+00 1
8.2162986754049191e-02 -7.8862574583562061e-03 0.0000000000000000e+00 1
-1.5652796200475183e-01 -3.4532906559776561e-02 0.0000000000000000e+00 1
9.0044479523820574e-03 1.0443308384046170e-01 0.0000000000000000e+00 1
-1.6641507177115905e-01 5.0094397650769472e-03 0.0000000000000000e+00 1
-8.3218156924172462e-02 -1.8137530808966049e-02 0.0000000000000000e+00 1
1.5866527479766721e-01 -7.6020338745817456e-02 0.0000000000000000e+00 1
-3.9259394948037124e-02 3.5697194714762806e-03 0.0000000000000000e+00 1
-3.7026905280401728e-02 7.9634452222321864e-02 0.0000000000000000e+00 1
6.5035341134801541e-02 -2.7649778650965233e-04 0.0000000000000000e+00 1
-6.3255544312515177e-02 1.0281316490523819e-01 0.0000000000000000e+00 1
8.7697689627789427e-02 -4.4198552413519027e-02 0.0000000000000000e+00 1
4.6701385346660462e-02 8.2991202532822647e-02 0.0000000000000000e+00 1
-1.6949774297941794e-01 1.0373265449148156e-02 0.0000000000000000e+00 1
7.2892600837693819e-02 4.9460122313204659e-03 0.0000000000000000e+00 1
-1.7056303341098880e-01 -6.6786028814480583e-03 0.0000000000000000e+00 1
-1.5896567433904751e-01 -2.4058554482584506e-02 0.0000000000000000e+00 1
1.4076632346025580e-01 -6.3288542527842703e-02 0.0000000000000000e+00 1
1.4986432217807688e-01 -3.3967420394879211e-02 0.0000000000000000e+00 1
-1.5214320681537480e-01 2.5889707157232031e-02 0.0000000000000000e+00 1
-1.4677946916620524e-01 3.1621533535019182e-02 0.0000000000000000e+00 1
9.4444693542105274e-02 3.9472289326447745e-02 0.0000000000000000e+00 1
-9.1263837826555658e-02 6.7272624288156613e-02 0.0000000000000000e+00 1
-3.7098044357122877e-02 -7.1885150454701868e-02 0.0000000000000000e+00 1
-8.2313295222985638e-02 -2.6510467670740851e-02 0.0000000000000000e+00 1
-4.7163801331866428e-02 1.1697791738937746e-01 0.0000000000000000e+00 1
1.4053035905227695e-01 -8.3827760732020945e-02 0.0000000000000000e+00 1
6.0918660553803454e-02 -9.2277801643768295e-02 0.0000000000000000e+00 1
-5.7818981054263190e-02 1.1290865069077714e-01 0.0000000000000000e+00 1
-1.7504884728403833e-01 9.9452542463429649e-04 0.0000000000000000e+00 1
4.3762627480154082e-02 -7.6093067541722265e-02 0.0000000000000000e+00 1
8.5328379434203377e-02 -3.4197010936216188e-02 0.0000000000000000e+00 1
3.0436316528388716e-02 8.3677933745176319e-02 0.0000000000000000e+00 1
-1.5714755400343133e-01 2.0792607866420378e-02 0.0000000000000000e+00 1
1.0208643728360544e-02 -7.9676086299016138e-02 0.0000000000000000e+00 1
-8.6216134072599121e-02 -5.5763341048469417e-02 0.0000000000000000e+00 1
1.4280266482017645e-01 -3.0498519283360753e-02 0.0000000000000000e+00 1
-3.8482335807771995e-02 -5.3423380456799549e-03 0.0000000000000000e+00 1
1.2523705473122337e-01 -2.3887034397432498e-02 0.0000000000000000e+00 1
3.6887247285167027e-02 -8.2145628802754098e-02 0.0000000000000000e+00 1
1.0316599506691160e-01 -9.0525767017450937e-02 0.0000000000000000e+00 1
-1.4514857468120412e-01 -3.1842427610167909e-02 0.0000000000000000e+00 1
7.6861512926192907e-02 -3.0467503470654595e-02 0.0000000000000000e+00 1
-2.8451276109793457e-02 1.1828991530325214e-01 0.0000000000000000e+00 1
-3.6944488934091732e-02 1.1643026782137567e-01 0.0000000000000000e+00 1
-3.0551998839516405e-02 -8.8479162657512933e-03 0.0000000000000000e+00 1
1.6870865992801576e-01 -7.0827669291129172e-02 0.0000000000000000e+00 1
-7.0216946265268698e-02 9.8718653919492833e-02 0.0000000000000000e+00 1
-3.7287421411924933e-02 9.7052053759471568e-02 0.0000000000000000e+00 1
8.6577658856749048e-02 -9.2615152941244769e-02 0.0000000000000000e+00 1
-2.2128698232051172e-02 -1.2686412867972504e-02 0.0000000000000000e+00 1
1.7534765000166799e-01 -5.6521731069032202e-02 0.0000000000000000e+00 1
1.2006327443037082e-01 1.8224027562925935e-02 0.0000000000000000e+00 1
-8.2904450866514309e-02 9.9603640321425102e-02 0.0000000000000000e+00 1
-7.4247709176965132e-02 -3.0360082847054229e-02 0.0000000000000000e+00 1
1.3406600504573501e-01 -6.0333948810951755e-02 0.0000000000000000e+00 1
5.3968442757953584e-03 9.2993656836299732e-02 0.0000000000000000e+00 1
6.2916867269280682e-02 -3.4602543607596362e-02 0.0000000000000000e+00 1
-8.3617020196747716e-02 8.8043330216203045e-02 0.0000000000000000e+00 1
-1.7370662699282829e-01 -1.9659258304109944e-02 0.0000000000000000e+00 1
-1.3676739703424654e-02 -1.6405370463646207e-02 0.0000000000000000e+00 1
-1.7557071682747233e-01 -9.0654742761842079e-03 0.0000000000000000e+00 1
-1.3409395838187796e-01 5.5400980619948033e-02 0.0000000000000000e+00 1
4.1386404872928141e-02 -9.1157083302480318e-02 0.0000000000000000e+00 1
-1.1103267499216737e-01 -4.3886468513096341e-02 0.0000000000000000e+00 1
1.7821767253170284e-01 -3.8065391770927694e-02 0.0000000000000000e+00 1
-3.6663852376772103e-02 -8.0073744804428637e-02 0.0000000000000000e+00 1
-6.5970719962093846e-02 -3.4136306670186300e-02 0.0000000000000000e+00 1
-5.7736348857589923e-02 -3.7950702867150396e-02 0.0000000000000000e+00 1
-4.2863903792745614e-02 1.1333697063918348e-01 0.0000000000000000e+00 1
-4.7117308794801197e-03 -2.0740707268570146e-02 0.0000000000000000e+00 1
1.7594225069475186e-01 -6.4123493458238368e-02 0.0000000000000000e+00 1
-1.0545467637370515e-01 7.2733483483654923e-02 0.0000000000000000e+00 1
5.8749854704903286e-02 4.4283156203234614e-02 0.0000000000000000e+00 1
-4.0732979294937958e-02 -4.5680648222410025e-02 0.0000000000000000e+00 1
4.2266737272363695e-03 -2.4862734873978470e-02 0.0000000000000000e+00 1
-4.9262716683016072e-02 -4.1824372725365752e-02 0.0000000000000000e+00 1
-9.6355525920015395e-02 8.9263032160347949e-02 0.0000000000000000e+00 1
1.0280163846306711e-01 3.4543225874009126e-02 0.0000000000000000e+00 1
-1.3841095760459141e-01 -3.7131249810139669e-02 0.0000000000000000e+00 1
-3.2100638615798469e-02 -4.9534692293816997e-02 0.0000000000000000e+00 1
5.9939232983777749e-02 -2.1392183566097081e-02 0.0000000000000000e+00 1
-6.2320424364461675e-03 -6.1924536466652164e-02 0.0000000000000000e+00 1
-8.0309202045305228e-02 -6.8553995932252920e-02 0.0000000000000000e+00 1
2.0161670020319926e-02 -2.3199148588117245e-02 0.0000000000000000e+00 1
-2.3495375327496473e-02 -5.3493043338002325e-02 0.0000000000000000e+00 1
3.8575679687067217e-02 8.8018566000006168e-02 0.0000000000000000e+00 1
1.4386657546773279e-01 -1.6663531534684875e-03 0.0000000000000000e+00 1
-1.2396693710359737e-01 -4.4400778964809727e-02 0.0000000000000000e+00 1
-3.6914135280769089e-02 8.8784249754031874e-02 0.0000000000000000e+00 1
1.3596721318743782e-01 -2.7479831256213394e-02 0.0000000000000000e+00 1
-1.4728310206107889e-02 -5.7754500297740333e-02 0.0000000000000000e+00 1
-1.0295689309807435e-01 8.5724851037241256e-02 0.0000000000000000e+00 1
5.2165221732793123e-02 -1.9320202045945461e-02 0.0000000000000000e+00 1
3.6451615966819020e-02 -2.1468615571664039e-02 0.0000000000000000e+00 1
-5.0137597729395078e-02 1.1060572995913800e-01 0.0000000000000000e+00 1
5.6208929327179066e-02 6.6682203939365137e-02 0.0000000000000000e+00 1
-1.3125540083444306e-01 -4.0730349752965196e-02 0.0000000000000000e+00 1
1.2219876912857609e-01 -8.2442879985925435e-02 0.0000000000000000e+00 1
-2.3560116940997376e-02 -8.2513284447220489e-02 0.0000000000000000e+00 1
1.5961983144273273e-01 -6.9679749563471532e-02 0.0000000000000000e+00 1
-1.7087078310313197e-01 -2.8307018389810384e-04 0.0000000000000000e+00 1
1.5396284067952362e-01 -7.3623968610279159e-02 0.0000000000000000e+00 1
1.2665439451281638e-01 -5.7157153177552648e-02 0.0000000000000000e+00 1
1.1278343243492345e-01 -8.9911674003306186e-02 0.0000000000000000e+00 1
-1.1509999880476068e-01 -5.6473357722182108e-02 0.0000000000000000e+00 1
1.7388769710439911e-01 -2.7802032399787957e-02 0.0000000000000000e+00 1
-3.7255439148809348e-02 1.2054751832841802e-01 0.0000000000000000e+00 1
1.3629347568746256e-01 -8.0025137992017034e-02 0.0000000000000000e+00 1
-1.6117100188098313e-01 1.6647647001134910e-02 0.0000000000000000e+00 1
1.7994678686888005e-01 -5.7045973758442295e-02 0.0000000000000000e+00 1
1.8532501184864575e-02 -8.2223534019020286e-02 0.0000000000000000e+00 1
-1.1257764712159132e-01 6.7544045669944652e-02 0.0000000000000000e+00 1
-7.2591817965832084e-02 -7.2259513500132003e-02 0.0000000000000000e+00 1
-4.2888091285547818e-02 7.7552350083391855e-02 0.0000000000000000e+00 1
1.1972154745181669e-01 -5.3821676258596900e-02 0.0000000000000000e+00 1
-1.1695651934007313e-01 -4.7562768042341330e-02 0.0000000000000000e+00 1
-1.7612082331426360e-01 -1.7023798304226411e-02 0.0000000000000000e+00 1
-1.7291402705488185e-01 -1.5547083851394489e-02 0.0000000000000000e+00 1
4.6331949170903636e-02 7.5292270212378831e-02 0.0000000000000000e+00 1
7.0968509087693948e-02 4.8717688630259603e-02 0.0000000000000000e+00 1
1.3385504545549756e-01 2.0310114144668906e-02 0.0000000000000000e+00 1
-5.0429458158166782e-03 -6.9783046293942622e-02 0.0000000000000000e+00 1
-1.2229565014706317e-01 6.2470294153975856e-02 0.0000000000000000e+00 1
1.6702410627004979e-01 -1.6329864615365078e-02 0.0000000000000000e+00 1
5.6710144596295788e-02 5.7580544013001243e-02 0.0000000000000000e+00 1
6.9219254271237762e-02 -9.4228044849880788e-02 0.0000000000000000e+00 1
9.8004668338265589e-03 9.8138187657508313e-02 0.0000000000000000e+00 1
1.2164877828718000e-01 -2.8782481346310160e-02 0.0000000000000000e+00 1
1.1014328340543431e-01 2.9774887094300768e-02 0.0000000000000000e+00 1
1.1220174862003285e-01 -2.3005034618163125e-02 0.0000000000000000e+00 1
-1.3321190957425316e-01 4.9453867771931170e-02 0.0000000000000000e+00 1
1.5827023531774942e-01 -4.2178937492432485e-03 0.0000000000000000e+00 1
-1.4093780861655381e-01 -2.5759954968967096e-02 0.0000000000000000e+00 1

Edges
117
1 2 1
2 3 1
3 4 1
4 5 1
5 6 1
6 7 1
7 8 1
8 9 1
9 10 1
10 11 1
11 12 1
12 13 1
13 14 1
14 15 1
15 16 1
16 17 1
17 18 1
18 19 1
19 20 1
20 21 1
21 22 1
22 23 1
23 24 1
24 25 1
25 26 1
26 27 1
27 28 1
28 29 1
29 30 1
30 31 1
31 32 1
32 33 1
33 34 1
34 35 1
35 36 1
36 37 1
37 38 1
38 39 1
39 40 1
40 41 1
41 42 1
42 43 1
43 44 1
44 45 1
45 46 1
46 47 1
47 48 1
48 49 1
49 50 1
50 51 1
51 52 1
52 53 1
53 54 1
54 55 1
55 56 1
56 57 1
57 58 1
58 59 1
59 60 1
60 61 1
61 62 1
62 63 1
63 64 1
64 65 1
65 66 1
66 67 1
67 68 1
68 69 1
69 70 1
70 71 1
71 72 1
72 73 1
73 74 1
74 75 1
75 76 1
76 77 1
77 78 1
78 79 1
79 80 1
80 81 1
81 82 1
82 83 1
83 84 1
84 85 1
85 86 1
86 87 1
87 88 1
88 89 1
89 90 1
90 91 1
91 92 1
92 93 1
93 94 1
94 95 1
95 96 1
96 97 1
97 98 1
98 99 1
99 100 1
100 101 1
101 102 1
102 103 1
103 104 1
104 105 1
105 106 1
106 107 1
107 108 1
108 109 1
109 110 1
110 111 1
111 112 1
112 113 1
113 114 1
114 115 1
115 116 1
116 117 1
117 1 1

Triangles
1833
591 590 806 1
156 564 596 1
590 129 806 1
562 121 817 1
757 544 886 1
167 858 944 1
168 800 914 1
646 171 832 1
678 679 686 1
800 168 894 1
648 271 674 1
437 656 865 1
100 595 966 1
143 613 904 1
126 646 832 1
613 858 904 1
571 497 603 1
138 571 603 1
884 809 922 1
851 689 932 1
872 167 944 1
125 557 767 1
519 648 674 1
544 810 886 1
599 164 602 1
151 561 567 1
419 851 932 1
133 553 737 1
100 101 595 1
544 646 810 1
131 791 895 1
464 560 581 1
121 562 942 1
791 549 895 1
581 560 590 1
120 576 788 1
557 125 834 1
572 554 573 1
554 555 573 1
659 720 721 1
602 164 603 1
463 464 582 1
854 256 874 1
464 581 582 1
646 126 810 1
140 565 859 1
158 809 884 1
535 854 874 1
563 562 817 1
638 270 973 1
841 775 899 1
243 705 900 1
270 638 673 1
912 868 938 1
484 357 665 1
564 156 597 1
705 243 924 1
600 521 890 1
822 862 863 1
665 437 865 1
572 604 736 1
716 804 937 1
154 600 896 1
139 578 579 1
119 630 790 1
148 557 834 1
394 678 686 1
561 151 870 1
574 458 823 1
720 659 915 1
156 596 892 1
763 755 963 1
600 154 901 1
305 606 881 1
606 305 933 1
593 120 788 1
357 437 665 1
557 148 878 1
409 821 927 1
553 133 930 1
155 100 966 1
519 674 793 1
682 204 685 1
160 587 733 1
883 34 947 1
592 488 594 1
664 484 665 1
619 612 945 1
406 691 835 1
630 628 790 1
204 682 684 1
756 883 947 1
256 566 793 1
565 140 845 1
612 619 649 1
124 577 782 1
118 600 890 1
150 575 668 1
679 682 686 1
497 602 603 1
855 73 929 1
458 456 823 1
566 519 793 1
868 136 938 1
691 534 835 1
804 699 937 1
553 554 736 1
631 334 764 1
758 532 840 1
576 120 761 1
553 736 737 1
158 565 845 1
531 589 666 1
182 180 684 1
334 631 775 1
566 256 854 1
347 681 683 1
142 757 886 1
554 572 736 1
575 150 669 1
431 763 963 1
594 163 856 1
785 559 795 1
755 763 812 1
821 701 927 1
604 159 736 1
571 138 604 1
431 753 916 1
134 612 839 1
728 884 922 1
270 673 798 1
847 594 856 1
858 541 944 1
764 334 786 1
19 569 909 1
157 591 806 1
753 431 963 1
663 484 664 1
569 19 942 1
591 157 863 1
637 855 929 1
186 184 687 1
397 426 666 1
827 635 837 1
610 649 860 1
882 124 906 1
629 764 786 1
407 663 664 1
407 661 663 1
592 594 847 1
572 571 604 1
673 642 798 1
173 171 646 1
658 657 920 1
580 615 616 1
915 796 955 1
871 813 938 1
775 631 899 1
568 882 906 1
532 427 840 1
535 874 885 1
139 579 820 1
582 827 837 1
610 612 649 1
681 347 684 1
573 555 879 1
136 871 938 1
658 122 915 1
620 141 800 1
565 158 884 1
658 920 935 1
635 443 811 1
656 659 865 1
48 49 820 1
584 535 885 1
442 913 918 1
661 407 712 1
456 454 601 1
151 567 568 1
488 592 778 1
913 551 918 1
128 777 812 1
639 638 973 1
50 51 776 1
662 661 712 1
587 160 842 1
634 635 811 1
192 190 830 1
587 842 859 1
612 611 839 1
562 569 942 1
559 785 877 1
180 204 684 1
849 943 945 1
862 691 863 1
306 642 825 1
593 570 926 1
456 601 823 1
412 662 712 1
620 165 889 1
642 306 798 1
565 517 859 1
1 2 842 1
426 531 666 1
463 582 837 1
629 292 802 1
347 182 684 1
578 139 776 1
165 620 943 1
586 502 587 1
184 347 687 1
148 570 878 1
139 50 776 1
593 926 956 1
383 488 778 1
719 155 966 1
580 616 800 1
767 477 907 1
670 486 773 1
589 531 853 1
758 887 912 1
653 852 857 1
662 412 713 1
430 502 586 1
522 424 523 1
190 186 687 1
616 620 800 1
127 596 738 1
347 683 687 1
640 127 738 1
800 141 914 1
396 588 598 1
597 475 706 1
523 424 544 1
396 397 666 1
628 144 790 1
122 796 915 1
820 894 953 1
155 719 955 1
577 124 882 1
615 423 616 1
570 148 926 1
644 802 803 1
671 713 739 1
292 629 786 1
580 450 615 1
504 841 899 1
450 403 615 1
150 668 815 1
453 356 598 1
587 502 733 1
157 822 863 1
377 380 618 1
601 454 741 1
802 292 803 1
507 510 717 1
858 167 904 1
578 450 579 1
435 349 664 1
530 427 532 1
588 396 666 1
682 681 684 1
564 597 706 1
322 670 773 1
682 685 686 1
49 139 820 1
449 450 578 1
190 687 830 1
272 173 424 1
449 403 450 1
768 767 907 1
576 761 833 1
349 407 664 1
430 499 502 1
852 259 857 1
378 423 615 1
336 377 378 1
607 529 608 1
685 204 688 1
160 1 842 1
430 432 499 1
588 453 598 1
649 380 860 1
676 826 836 1
122 658 935 1
670 406 835 1
454 302 741 1
825 651 844 1
590 560 974 1
428 353 430 1
513 514 606 1
308 335 336 1
426 420 427 1
606 514 881 1
541 592 847 1
842 140 859 1
589 588 666 1
653 468 838 1
378 377 423 1
336 335 377 1
240 251 633 1
659 658 915 1
161 614 816 1
705 924 936 1
618 380 649 1
474 529 607 1
272 424 522 1
633 251 634 1
623 459 692 1
777 755 812 1
675 375 676 1
640 561 870 1
424 173 646 1
826 197 836 1
713 412 739 1
144 628 875 1
659 721 865 1
426 427 530 1
247 256 793 1
130 605 947 1
379 378 403 1
849 165 943 1
279 307 308 1
925 743 934 1
154 657 901 1
484 663 747 1
553 527 554 1
308 307 335 1
718 705 936 1
669 131 895 1
274 304 634 1
430 353 432 1
676 375 748 1
510 575 717 1
610 611 612 1
306 825 844 1
608 529 609 1
608 609 610 1
210 260 647 1
425 403 449 1
352 339 353 1
458 574 976 1
448 536 648 1
279 278 307 1
269 278 279 1
634 304 635 1
689 525 932 1
208 210 647 1
356 324 598 1
428 430 586 1
435 664 665 1
502 499 613 1
610 609 611 1
459 623 710 1
689 688 725 1
413 516 714 1
663 660 747 1
327 281 328 1
328 329 339 1
526 513 527 1
638 509 673 1
585 704 759 1
397 420 426 1
688 176 725 1
446 448 648 1
443 635 827 1
389 468 652 1
474 528 529 1
471 694 742 1
488 533 594 1
652 468 653 1
873 711 882 1
269 262 278 1
694 693 742 1
396 395 397 1
403 378 615 1
508 445 641 1
727 458 728 1
671 672 713 1
526 527 553 1
624 399 625 1
508 641 642 1
406 690 691 1
243 584 885 1
622 621 843 1
79 80 169 1
261 262 269 1
260 643 647 1
720 915 955 1
448 473 474 1
512 511 513 1
616 617 620 1
506 507 717 1
280 277 281 1
575 669 717 1
375 675 760 1
261 258 262 1
327 814 823 1
257 253 258 1
499 432 541 1
328 281 329 1
558 559 877 1
446 447 448 1
521 588 589 1
474 473 528 1
251 274 634 1
475 597 756 1
532 912 938 1
257 258 261 1
397 419 420 1
201 207 672 1
325 395 396 1
700 703 718 1
268 276 277 1
536 474 607 1
259 235 844 1
355 406 670 1
448 447 473 1
366 399 624 1
510 509 511 1
432 353 778 1
328 339 352 1
128 812 864 1
633 634 811 1
383 487 488 1
521 589 890 1
475 447 706 1
636 503 637 1
262 271 654 1
554 527 555 1
336 378 379 1
512 513 526 1
252 253 257 1
406 404 690 1
266 267 268 1
457 456 458 1
398 503 636 1
260 298 643 1
324 319 325 1
445 434 641 1
647 644 801 1
447 439 706 1
704 408 759 1
446 439 447 1
887 166 912 1
352 353 428 1
455 454 456 1
529 528 614 1
265 255 266 1
125 767 768 1
252 247 253 1
516 640 738 1
520 453 521 1
418 438 439 1
510 511 512 1
651 259 844 1
268 277 280 1
307 321 667 1
622 843 850 1
624 625 629 1
507 508 509 1
700 702 703 1
675 677 760 1
627 628 630 1
672 207 731 1
416 417 418 1
512 526 668 1
449 599 602 1
605 756 947 1
459 192 830 1
44 45 141 1
230 231 693 1
194 459 710 1
368 408 702 1
625 626 627 1
418 417 438 1
627 630 631 1
440 439 446 1
513 511 514 1
246 245 247 1
242 240 633 1
339 329 383 1
457 458 727 1
714 516 738 1
438 564 706 1
216 214 677 1
171 169 832 1
507 509 510 1
436 356 453 1
322 355 670 1
472 366 624 1
391 389 652 1
521 453 588 1
280 281 327 1
449 578 599 1
685 688 689 1
246 247 252 1
266 255 267 1
325 394 395 1
592 432 778 1
254 242 255 1
312 460 731 1
702 408 703 1
337 302 454 1
525 689 725 1
314 316 660 1
364 366 472 1
506 445 507 1
436 453 520 1
520 521 600 1
74 75 144 1
508 642 673 1
416 414 417 1
82 83 810 1
178 176 688 1
318 319 324 1
523 544 757 1
339 383 778 1
434 483 641 1
436 520 655 1
234 239 240 1
244 245 246 1
56 57 159 1
801 644 803 1
367 368 702 1
507 445 508 1
268 280 741 1
366 398 399 1
678 401 679 1
204 178 688 1
519 446 648 1
244 238 245 1
329 281 773 1
596 505 738 1
60 61 150 1
231 233 234 1
318 317 319 1
627 631 764 1
465 711 732 1
448 474 536 1
623 692 726 1
279 308 330 1
444 434 445 1
312 313 314 1
415 414 416 1
355 404 406 1
203 201 672 1
616 423 617 1
374 413 414 1
657 154 920 1
759 372 774 1
488 487 533 1
625 399 626 1
509 508 673 1
434 411 483 1
470 591 690 1
257 639 973 1
241 240 242 1
94 95 154 1
331 216 677 1
499 541 858 1
379 403 425 1
643 472 644 1
642 641 825 1
324 325 598 1
698 697 699 1
263 485 709 1
268 267 276 1
316 317 318 1
317 401 678 1
314 315 316 1
69 70 145 1
298 364 643 1
385 476 695 1
372 373 374 1
277 276 322 1
316 315 317 1
314 313 315 1
627 626 628 1
312 311 313 1
485 693 694 1
438 505 564 1
277 322 773 1
433 411 434 1
661 660 663 1
237 236 238 1
326 324 356 1
460 314 660 1
12 13 148 1
302 266 741 1
696 367 697 1
485 249 693 1
696 697 698 1
78 79 152 1
794 653 838 1
414 413 714 1
584 243 900 1
579 450 580 1
279 330 645 1
711 422 732 1
517 428 586 1
374 373 413 1
423 377 618 1
703 408 704 1
207 311 312 1
341 367 696 1
660 316 747 1
311 200 710 1
623 311 710 1
64 65 147 1
17 18 146 1
234 240 241 1
58 59 133 1
231 206 233 1
230 206 231 1
265 266 302 1
269 279 645 1
307 278 321 1
460 662 731 1
418 439 440 1
323 291 715 1
364 365 366 1
237 238 244 1
249 230 693 1
440 446 519 1
99 100 155 1
262 258 271 1
370 371 372 1
481 675 676 1
325 319 394 1
255 242 632 1
254 255 265 1
455 456 457 1
372 371 373 1
240 239 251 1
306 244 798 1
234 233 239 1
624 629 802 1
362 463 707 1
337 454 455 1
527 513 606 1
274 300 304 1
15 16 120 1
462 461 481 1
410 391 411 1
71 72 123 1
361 435 721 1
387 385 695 1
4 5 158 1
280 601 741 1
505 714 738 1
444 445 506 1
425 449 602 1
376 287 724 1
629 625 764 1
551 296 708 1
609 529 614 1
8 9 153 1
693 231 742 1
62 63 131 1
318 324 326 1
439 438 706 1
235 229 236 1
263 249 485 1
199 196 200 1
404 470 690 1
486 329 773 1
104 105 157 1
23 24 149 1
76 77 119 1
364 472 643 1
312 314 460 1
27 28 151 1
481 461 675 1
197 621 836 1
235 236 237 1
206 203 671 1
543 482 621 1
650 391 652 1
368 369 370 1
374 414 415 1
470 590 591 1
342 362 707 1
194 192 459 1
415 416 500 1
460 660 661 1
300 275 301 1
32 33 156 1
52 53 164 1
325 396 598 1
10 11 125 1
692 680 726 1
207 200 311 1
468 387 695 1
671 203 672 1
207 312 731 1
357 356 436 1
377 335 380 1
433 434 444 1
752 751 753 1
253 247 793 1
400 331 461 1
640 870 969 1
370 369 371 1
247 245 256 1
201 200 207 1
54 55 138 1
205 203 206 1
348 701 708 1
411 391 650 1
304 300 707 1
196 194 710 1
261 269 305 1
241 242 254 1
2 3 140 1
462 481 482 1
703 704 705 1
697 367 702 1
437 436 655 1
397 395 419 1
299 282 729 1
400 461 462 1
463 452 464 1
291 294 715 1
342 301 349 1
483 650 651 1
228 226 229 1
643 644 647 1
679 681 682 1
362 452 463 1
358 465 732 1
585 759 774 1
495 490 745 1
699 697 700 1
814 574 823 1
399 398 636 1
543 621 622 1
413 480 516 1
516 561 640 1
199 200 201 1
202 201 203 1
389 387 468 1
333 341 696 1
234 241 742 1
366 365 398 1
300 301 342 1
368 370 408 1
298 344 364 1
367 359 368 1
473 447 475 1
37 38 161 1
782 577 954 1
348 696 698 1
20 21 121 1
274 275 300 1
296 310 708 1
200 196 710 1
25 26 124 1
174 173 272 1
310 348 708 1
528 473 605 1
511 509 638 1
599 578 776 1
713 672 731 1
305 269 645 1
341 359 367 1
410 411 433 1
294 551 715 1
228 229 235 1
285 376 722 1
575 512 668 1
287 289 724 1
522 523 840 1
348 698 701 1
310 333 348 1
368 359 369 1
644 472 802 1
514 638 639 1
451 361 721 1
313 623 726 1
236 229 243 1
662 713 731 1
66 67 128 1
381 299 729 1
97 98 122 1
232 250 735 1
632 242 633 1
348 333 696 1
274 273 275 1
385 381 476 1
294 296 551 1
720 451 721 1
297 263 709 1
251 273 274 1
361 349 435 1
6 7 132 1
464 550 560 1
180 178 204 1
71 123 750 1
390 389 391 1
30 31 127 1
225 224 226 1
68 69 754 1
341 358 359 1
317 315 401 1
300 342 707 1
289 323 724 1
730 729 772 1
461 331 677 1
326 356 357 1
313 311 623 1
500 416 765 1
289 291 323 1
318 326 747 1
222 219 716 1
326 484 747 1
233 206 671 1
92 93 118 1
465 577 711 1
418 440 765 1
563 925 934 1
250 283 735 1
700 697 702 1
719 451 720 1
333 340 341 1
652 653 857 1
483 411 650 1
362 451 452 1
237 244 306 1
285 287 376 1
283 285 722 1
35 36 130 1
542 482 543 1
438 417 505 1
473 475 605 1
754 755 777 1
68 754 777 1
605 475 756 1
202 203 205 1
336 379 808 1
184 182 347 1
266 268 741 1
246 252 270 1
223 222 224 1
502 613 733 1
275 412 712 1
70 71 750 1
205 206 230 1
524 457 727 1
464 452 550 1
241 471 742 1
225 226 228 1
102 103 129 1
408 370 759 1
677 214 760 1
390 391 410 1
349 301 407 1
476 729 730 1
198 196 199 1
145 751 752 1
108 109 163 1
342 349 361 1
120 16 761 1
145 750 751 1
680 401 726 1
476 381 729 1
362 361 451 1
608 610 860 1
195 194 196 1
364 344 365 1
224 222 227 1
656 655 657 1
363 331 400 1
233 671 739 1
544 424 646 1
413 373 480 1
106 107 135 1
341 340 358 1
322 354 355 1
223 224 225 1
310 332 333 1
703 705 718 1
342 361 362 1
357 436 437 1
90 91 162 1
193 192 194 1
675 461 677 1
784 783 785 1
452 451 719 1
564 505 596 1
568 873 882 1
145 70 750 1
296 309 310 1
327 328 814 1
359 358 732 1
301 275 712 1
560 550 595 1
251 239 273 1
490 492 745 1
283 722 735 1
199 202 723 1
501 500 535 1
510 512 575 1
221 219 222 1
42 43 165 1
486 670 835 1
635 304 837 1
147 65 780 1
199 201 202 1
191 190 192 1
388 387 389 1
227 222 716 1
294 295 296 1
333 332 340 1
372 374 774 1
516 480 561 1
460 661 662 1
172 171 173 1
69 145 754 1
462 482 542 1
231 234 742 1
353 339 778 1
221 222 223 1
188 186 190 1
275 273 412 1
198 199 723 1
371 369 422 1
492 494 515 1
215 216 217 1
220 216 331 1
358 441 465 1
386 385 387 1
392 338 789 1
550 452 719 1
363 400 442 1
303 302 337 1
319 317 678 1
716 219 740 1
211 209 760 1
465 558 577 1
440 566 765 1
131 669 964 1
220 331 363 1
195 196 198 1
426 530 531 1
753 402 916 1
479 490 495 1
310 309 332 1
296 295 309 1
16 17 761 1
40 41 134 1
552 562 563 1
369 359 732 1
267 255 632 1
193 194 195 1
754 752 755 1
330 308 808 1
213 211 214 1
191 192 193 1
17 146 761 1
281 277 773 1
220 363 409 1
209 375 760 1
442 400 734 1
355 360 404 1
258 253 674 1
400 462 734 1
558 877 954 1
215 214 216 1
625 627 764 1
217 216 220 1
291 293 294 1
215 217 218 1
358 340 441 1
382 381 385 1
213 214 215 1
547 548 552 1
232 230 249 1
188 190 191 1
388 389 390 1
462 542 734 1
176 174 725 1
315 313 726 1
221 223 248 1
465 441 558 1
761 146 833 1
679 680 681 1
398 466 503 1
894 168 953 1
437 655 656 1
250 249 263 1
469 457 524 1
294 293 295 1
264 263 297 1
228 235 259 1
289 290 291 1
558 441 559 1
287 288 289 1
60 150 815 1
316 318 747 1
541 847 944 1
285 286 287 1
65 66 780 1
326 357 484 1
219 217 740 1
417 414 714 1
515 494 537 1
479 495 792 1
415 500 501 1
187 188 189 1
444 506 549 1
283 284 285 1
187 186 188 1
185 184 186 1
218 217 219 1
545 546 547 1
345 299 381 1
278 262 654 1
217 220 740 1
345 402 766 1
407 301 712 1
193 195 197 1
492 515 745 1
332 309 384 1
218 219 221 1
386 387 388 1
679 401 680 1
514 511 638 1
286 284 320 1
480 373 770 1
162 819 853 1
831 421 848 1
501 535 584 1
370 372 759 1
422 369 732 1
185 186 187 1
295 293 346 1
539 540 545 1
518 517 565 1
416 418 765 1
410 433 496 1
25 124 782 1
241 254 471 1
290 288 343 1
340 332 746 1
175 177 775 1
398 365 466 1
212 211 213 1
24 25 782 1
209 189 375 1
250 264 283 1
404 405 470 1
383 486 487 1
429 428 517 1
260 282 298 1
259 651 857 1
205 230 232 1
210 212 260 1
345 382 402 1
478 477 767 1
382 385 386 1
291 290 293 1
552 548 562 1
298 299 344 1
393 392 477 1
537 538 539 1
559 441 746 1
386 388 431 1
289 288 290 1
23 149 783 1
287 286 288 1
183 182 184 1
540 538 576 1
493 491 570 1
401 315 726 1
322 276 354 1
179 178 180 1
145 752 754 1
489 478 557 1
477 392 818 1
208 647 801 1
626 399 636 1
273 239 739 1
412 273 739 1
351 338 392 1
285 284 286 1
239 233 739 1
441 340 746 1
547 546 548 1
371 422 770 1
220 409 740 1
373 371 770 1
181 180 182 1
309 295 743 1
562 548 569 1
283 264 284 1
64 147 791 1
345 381 382 1
560 595 905 1
187 189 208 1
404 360 405 1
210 209 211 1
183 184 185 1
177 334 775 1
144 75 790 1
545 540 546 1
232 249 250 1
250 263 264 1
501 584 585 1
656 657 658 1
260 212 282 1
149 24 782 1
121 21 784 1
298 282 299 1
344 299 345 1
177 176 178 1
683 680 692 1
265 302 303 1
355 354 360 1
681 680 683 1
537 494 538 1
539 538 540 1
210 211 212 1
561 480 567 1
723 202 781 1
534 691 862 1
730 772 799 1
214 211 760 1
332 384 746 1
394 319 678 1
567 480 770 1
374 415 774 1
581 405 582 1
557 478 767 1
717 669 895 1
295 346 743 1
21 22 784 1
576 538 788 1
280 327 601 1
656 658 659 1
67 68 777 1
208 189 209 1
440 519 566 1
433 444 749 1
390 410 744 1
621 197 843 1
384 309 743 1
177 179 334 1
244 246 798 1
181 183 292 1
729 282 772 1
555 527 606 1
483 651 825 1
189 188 748 1
723 781 807 1
123 583 939 1
470 581 590 1
492 493 494 1
188 191 748 1
227 716 937 1
490 491 492 1
335 307 667 1
22 23 783 1
66 128 780 1
264 297 771 1
320 284 771 1
181 182 183 1
208 209 210 1
128 67 777 1
493 570 593 1
535 500 854 1
375 189 748 1
286 320 762 1
303 337 338 1
202 205 781 1
152 79 169 1
232 735 781 1
505 417 714 1
707 463 837 1
63 64 791 1
99 155 796 1
393 477 478 1
179 180 181 1
343 288 762 1
360 354 443 1
379 467 808 1
388 390 763 1
351 392 393 1
481 676 836 1
444 549 749 1
415 501 774 1
212 213 772 1
455 457 469 1
290 343 769 1
344 345 766 1
470 405 581 1
563 817 965 1
365 344 766 1
393 478 479 1
479 489 490 1
131 63 791 1
153 948 959 1
177 178 179 1
116 117 902 1
492 491 493 1
525 522 891 1
496 433 749 1
410 496 744 1
431 388 763 1
75 76 790 1
271 258 674 1
346 293 769 1
248 223 794 1
503 466 583 1
583 797 939 1
293 290 769 1
288 286 762 1
443 779 811 1
490 489 491 1
205 232 781 1
695 476 829 1
779 632 811 1
695 829 838 1
709 485 848 1
215 218 799 1
303 338 350 1
282 212 772 1
466 365 766 1
133 737 975 1
350 351 421 1
284 264 771 1
469 524 556 1
479 478 489 1
383 329 486 1
22 783 784 1
501 585 774 1
687 683 830 1
621 482 836 1
98 99 796 1
705 704 900 1
175 174 176 1
350 338 351 1
390 744 763 1
472 624 802 1
875 637 929 1
122 98 796 1
694 831 848 1
676 748 826 1
223 225 794 1
175 176 177 1
267 632 779 1
471 254 787 1
781 735 807 1
820 579 894 1
254 265 787 1
120 593 956 1
354 276 779 1
939 797 968 1
174 272 725 1
110 111 137 1
538 494 788 1
308 336 808 1
799 218 824 1
213 215 799 1
772 213 799 1
265 303 787 1
185 187 801 1
617 618 619 1
276 267 779 1
187 208 801 1
443 354 779 1
170 169 171 1
321 278 654 1
81 82 126 1
813 162 853 1
72 73 855 1
716 740 804 1
494 493 788 1
334 179 786 1
352 428 429 1
272 522 525 1
409 363 821 1
12 148 834 1
183 185 803 1
943 619 945 1
185 801 803 1
4 158 845 1
674 253 793 1
533 487 534 1
246 270 798 1
172 173 174 1
523 757 758 1
181 292 786 1
338 337 789 1
76 119 790 1
221 248 824 1
49 50 139 1
429 517 518 1
337 455 789 1
493 593 788 1
497 425 602 1
303 350 787 1
468 695 838 1
559 746 795 1
531 530 813 1
467 425 497 1
746 384 795 1
541 432 592 1
179 181 786 1
596 127 892 1
88 89 136 1
736 159 737 1
393 479 792 1
59 60 815 1
7 8 805 1
8 153 805 1
421 351 792 1
498 497 571 1
292 183 803 1
351 393 792 1
766 402 797 1
692 459 830 1
690 591 863 1
193 197 826 1
455 469 789 1
700 718 937 1
466 766 797 1
636 637 875 1
112 113 167 1
683 692 830 1
740 409 804 1
103 104 806 1
583 466 797 1
235 237 844 1
735 722 807 1
380 335 667 1
784 785 817 1
582 405 827 1
595 101 905 1
137 847 856 1
125 11 834 1
730 799 824 1
748 191 826 1
172 174 175 1
5 6 809 1
632 633 811 1
765 566 854 1
429 518 574 1
328 352 814 1
580 800 894 1
546 833 866 1
607 608 898 1
617 423 618 1
546 540 833 1
376 724 888 1
718 227 937 1
651 650 857 1
104 157 806 1
129 103 806 1
197 195 843 1
853 819 890 1
132 7 805 1
360 443 827 1
824 248 829 1
498 572 573 1
105 106 822 1
392 789 818 1
363 442 821 1
170 171 172 1
6 132 809 1
804 409 927 1
379 425 467 1
323 715 903 1
694 471 831 1
641 483 825 1
157 105 822 1
272 525 725 1
271 648 958 1
498 571 572 1
228 259 852 1
158 5 809 1
619 618 649 1
568 567 873 1
175 775 841 1
715 551 913 1
91 92 819 1
829 248 838 1
121 784 817 1
36 37 816 1
822 135 862 1
657 655 901 1
763 744 812 1
487 486 835 1
350 421 831 1
218 221 824 1
639 257 971 1
256 245 874 1
119 77 846 1
469 556 818 1
724 323 893 1
33 34 883 1
422 711 873 1
133 59 815 1
86 87 166 1
11 12 834 1
169 80 832 1
191 193 826 1
531 813 853 1
402 753 968 1
789 469 818 1
467 497 498 1
517 586 859 1
888 724 893 1
794 225 852 1
352 429 814 1
405 360 827 1
130 36 816 1
601 327 823 1
3 4 845 1
471 787 831 1
151 28 870 1
141 620 889 1
569 548 866 1
628 626 875 1
92 118 819 1
236 243 885 1
482 481 836 1
476 730 829 1
758 757 887 1
721 435 865 1
600 118 896 1
77 78 846 1
129 590 974 1
686 685 851 1
304 707 837 1
37 161 816 1
78 152 846 1
526 553 930 1
151 568 906 1
80 81 832 1
540 576 833 1
653 794 852 1
532 758 912 1
107 108 828 1
708 701 918 1
816 614 941 1
787 350 831 1
722 376 880 1
612 134 945 1
893 323 903 1
520 600 901 1
903 715 913 1
427 420 891 1
607 898 946 1
330 861 879 1
730 824 829 1
106 135 822 1
39 40 839 1
608 860 898 1
429 574 814 1
570 491 878 1
833 146 866 1
46 47 168 1
248 794 838 1
723 807 850 1
821 442 918 1
698 699 927 1
685 689 851 1
51 52 908 1
170 172 841 1
94 154 896 1
861 573 879 1
252 257 973 1
808 467 861 1
195 198 843 1
237 306 844 1
135 107 828 1
489 557 878 1
159 604 967 1
162 91 819 1
757 142 887 1
534 487 835 1
161 38 869 1
485 694 848 1
114 115 143 1
144 875 929 1
669 150 964 1
518 884 976 1
500 765 854 1
152 169 170 1
813 530 938 1
780 128 864 1
567 770 873 1
620 617 943 1
243 229 924 1
127 31 892 1
198 723 850 1
124 26 906 1
330 808 861 1
843 198 850 1
117 1 160 1
785 783 877 1
467 498 861 1
172 175 841 1
850 807 880 1
227 718 936 1
812 744 864 1
152 170 504 1
125 768 948 1
58 133 975 1
709 848 867 1
73 74 929 1
637 503 962 1
123 72 855 1
41 42 849 1
225 228 852 1
224 227 936 1
583 123 962 1
27 151 906 1
56 159 967 1
148 13 926 1
504 170 841 1
152 504 846 1
948 768 959 1
650 652 857 1
90 162 871 1
89 90 871 1
603 164 949 1
62 131 964 1
140 3 845 1
518 565 884 1
101 102 905 1
614 161 951 1
15 120 956 1
691 690 863 1
752 753 963 1
32 156 892 1
163 594 952 1
699 804 927 1
701 821 918 1
108 163 828 1
10 125 948 1
435 665 865 1
386 431 916 1
421 792 867 1
40 134 839 1
127 640 969 1
585 584 900 1
19 20 942 1
523 758 840 1
138 603 949 1
109 110 856 1
776 51 908 1
154 95 920 1
97 122 935 1
402 382 916 1
586 587 859 1
880 376 888 1
134 41 849 1
38 39 869 1
126 82 810 1
384 743 925 1
550 719 966 1
879 555 933 1
750 123 939 1
525 891 932 1
18 19 909 1
792 495 867 1
613 499 858 1
597 156 883 1
163 109 856 1
261 305 971 1
419 395 957 1
609 614 951 1
34 35 947 1
118 93 896 1
560 905 974 1
150 61 964 1
42 165 849 1
744 496 864 1
549 506 895 1
548 546 866 1
709 867 897 1
153 9 948 1
54 138 949 1
604 138 967 1
630 119 970 1
622 850 880 1
2 140 842 1
477 818 907 1
605 130 941 1
394 686 957 1
848 421 867 1
380 667 860 1
30 127 969 1
28 29 870 1
162 813 871 1
867 495 897 1
780 864 921 1
498 573 861 1
840 427 891 1
117 160 902 1
613 143 961 1
165 43 889 1
855 637 962 1
245 238 874 1
87 88 868 1
159 57 975 1
851 419 957 1
81 126 832 1
805 931 940 1
614 528 941 1
770 422 873 1
536 607 946 1
39 839 869 1
164 599 908 1
577 558 954 1
83 84 886 1
297 709 897 1
810 83 886 1
874 238 885 1
111 112 872 1
645 330 879 1
884 728 976 1
809 132 922 1
626 636 875 1
533 534 876 1
737 159 975 1
922 132 940 1
704 585 900 1
667 321 898 1
514 639 881 1
728 458 976 1
160 733 902 1
297 897 910 1
136 89 871 1
555 606 933 1
528 605 941 1
783 149 877 1
156 33 883 1
839 611 869 1
238 236 885 1
43 44 889 1
711 577 882 1
491 489 878 1
84 85 142 1
771 910 911 1
648 536 958 1
132 805 940 1
138 55 967 1
756 597 883 1
110 137 856 1
864 496 921 1
141 45 914 1
543 622 888 1
31 32 892 1
305 881 971 1
771 297 910 1
93 94 896 1
860 667 898 1
589 853 890 1
594 533 952 1
898 321 946 1
88 136 868 1
579 580 894 1
164 53 949 1
137 111 872 1
631 630 899 1
522 840 891 1
655 520 901 1
785 795 965 1
543 888 893 1
44 141 889 1
133 815 930 1
536 946 958 1
495 745 897 1
807 722 880 1
542 543 893 1
645 879 933 1
599 776 908 1
146 18 909 1
530 532 938 1
917 762 919 1
320 911 919 1
797 402 968 1
506 717 895 1
320 771 911 1
622 880 888 1
147 780 921 1
135 828 876 1
26 27 906 1
542 893 903 1
877 149 954 1
897 745 910 1
534 862 876 1
734 542 903 1
762 320 919 1
668 526 930 1
796 155 955 1
870 29 969 1
910 515 911 1
815 668 930 1
95 96 920 1
113 114 904 1
343 917 923 1
551 708 918 1
727 728 922 1
52 164 908 1
515 537 911 1
734 903 913 1
102 129 905 1
442 734 913 1
819 118 890 1
569 866 909 1
911 537 919 1
805 153 931 1
552 563 934 1
13 14 926 1
539 917 919 1
547 552 928 1
745 515 910 1
917 545 923 1
539 545 917 1
229 226 924 1
537 539 919 1
343 762 917 1
862 135 876 1
654 271 958 1
382 386 916 1
545 547 923 1
701 698 927 1
112 167 872 1
420 419 932 1
53 54 949 1
305 645 933 1
45 46 914 1
85 86 950 1
847 137 944 1
928 552 934 1
96 97 935 1
924 226 936 1
769 343 923 1
496 749 921 1
166 87 868 1
699 700 937 1
226 224 936 1
74 144 929 1
751 750 939 1
346 928 934 1
167 113 904 1
920 96 935 1
611 609 951 1
931 524 940 1
20 121 942 1
727 922 940 1
818 556 907 1
346 769 928 1
769 923 928 1
86 166 950 1
617 619 943 1
795 384 925 1
9 10 948 1
556 524 931 1
743 346 934 1
751 939 968 1
923 547 928 1
524 727 940 1
55 56 967 1
926 14 956 1
57 58 975 1
48 820 953 1
733 613 961 1
549 791 972 1
147 921 972 1
866 146 909 1
61 62 964 1
14 15 956 1
817 785 965 1
791 147 972 1
395 394 957 1
321 654 946 1
719 720 955 1
921 749 972 1
946 654 958 1
29 30 969 1
257 261 971 1
35 130 947 1
753 751 968 1
130 816 941 1
755 752 963 1
270 252 973 1
149 782 954 1
686 851 957 1
47 48 953 1
595 550 966 1
123 855 962 1
925 563 965 1
891 420 932 1
503 583 962 1
114 143 904 1
46 168 914 1
168 47 953 1
161 869 951 1
84 142 886 1
749 549 972 1
166 868 912 1
115 116 960 1
931 153 959 1
143 115 960 1
846 504 970 1
119 846 970 1
134 849 945 1
899 630 970 1
881 639 971 1
828 163 952 1
574 518 976 1
869 611 951 1
142 85 950 1
166 887 950 1
876 828 952 1
533 876 952 1
137 872 944 1
556 931 959 1
887 142 950 1
504 899 970 1
116 902 960 1
905 129 974 1
907 556 959 1
768 907 959 1
902 733 961 1
143 960 961 1
795 925 965 1
960 902 961 1

End
