MeshVersionFormatted 2
Dimension 3

Vertices
233
1.2841138691842111e-01 -2.5541494021875438e-01 0.0000000000000000e+00 1
1.3170736955509563e-01 -2.6032095693670221e-01 0.0000000000000000e+00 1
1.3438828525482094e-01 -2.6404944547694781e-01 0.0000000000000000e+00 1
1.3647576441496911e-01 -2.6664326107846620e-01 0.0000000000000000e+00 1
1.3799143743291248e-01 -2.6814525898023256e-01 0.0000000000000000e+00 1
1.3895693470602330e-01 -2.6859829442122213e-01 0.0000000000000000e+00 1
1.3939388663167390e-01 -2.6804522264040992e-01 0.0000000000000000e+00 1
1.3932392360723631e-01 -2.6652889887677089e-01 0.0000000000000000e+00 1
1.3876867603008297e-01 -2.6409217836928039e-01 0.0000000000000000e+00 1
1.3774977429758606e-01 -2.6077791635691361e-01 0.0000000000000000e+00 1
1.3628884880711778e-01 -2.5662896807864527e-01 0.0000000000000000e+00 1
1.3440752995605043e-01 -2.5168818877345078e-01 0.0000000000000000e+00 1
1.3212744814175625e-01 -2.4599843368030527e-01 0.0000000000000000e+00 1
1.2947023376160746e-01 -2.3960255803818370e-01 0.0000000000000000e+00 1
1.2645751721297638e-01 -2.3254341708606135e-01 0.0000000000000000e+00 1
1.2311092889323513e-01 -2.2486386606291325e-01 0.0000000000000000e+00 1
1.1945209919975602e-01 -2.1660676020771449e-01 0.0000000000000000e+00 1
1.1550265852991143e-01 -2.0781495475944037e-01 0.0000000000000000e+00 1
1.1128423728107339e-01 -1.9853130495706575e-01 0.0000000000000000e+00 1
1.0681846585061422e-01 -1.8879866603956585e-01 0.0000000000000000e+00 1
1.0212697463590625e-01 -1.7865989324591591e-01 0.0000000000000000e+00 1
9.7231394034321572e-02 -1.6815784181509080e-01 0.0000000000000000e+00 1
9.2153354443232555e-02 -1.5733536698606582e-01 0.0000000000000000e+00 1
8.6914486260011414e-02 -1.4623532399781608e-01 0.0000000000000000e+00 1
8.1536419882030392e-02 -1.3490056808931666e-01 0.0000000000000000e+00 1
7.6040785706661729e-02 -1.2337395449954264e-01 0.0000000000000000e+00 1
7.0449214131277665e-02 -1.1169833846746913e-01 0.0000000000000000e+00 1
6.4783335553250498e-02 -9.9916575232071397e-02 0.0000000000000000e+00 1
5.9064780369952365e-02 -8.8071520032324380e-02 0.0000000000000000e+00 1
5.3315178978755588e-02 -7.6206028107203228e-02 0.0000000000000000e+00 1
4.7556161777032396e-02 -6.4362954695683122e-02 0.0000000000000000e+00 1
4.1809359162155085e-02 -5.2585155036739210e-02 0.0000000000000000e+00 1
3.6096401531495827e-02 -4.0915484369346479e-02 0.0000000000000000e+00 1
3.0438919282426896e-02 -2.9396797932480116e-02 0.0000000000000000e+00 1
2.4858542812320562e-02 -1.8071950965115317e-02 0.0000000000000000e+00 1
1.9376902518549032e-02 -6.9837987062270415e-03 0.0000000000000000e+00 1
1.4015628798484558e-02 3.8248036052095091e-03 0.0000000000000000e+00 1
8.7963520494993980e-03 1.4311000730219223e-02 0.0000000000000000e+00 1
3.7407026689658222e-03 2.4431937429826932e-02 0.0000000000000000e+00 1
-1.1296889457439712e-03 3.4144758465057622e-02 0.0000000000000000e+00 1
-5.7931923972577189e-03 4.3406608596936125e-02 0.0000000000000000e+00 1
-1.0228177288203147e-02 5.2174632586487288e-02 0.0000000000000000e+00 1
-1.4413013221208056e-02 6.0405975194736068e-02 0.0000000000000000e+00 1
-1.8326069798900176e-02 6.8057781182707305e-02 0.0000000000000000e+00 1
-2.1945716623907256e-02 7.5087195311425894e-02 0.0000000000000000e+00 1
-2.5250323298857048e-02 8.1451362341916689e-02 0.0000000000000000e+00 1
-2.7752844793991947e-02 8.6148556874616797e-02 0.0000000000000000e+00 1
-3.0659371662151776e-02 9.1430177273195662e-02 0.0000000000000000e+00 1
-3.3935558423355133e-02 9.7241599913007515e-02 0.0000000000000000e+00 1
-3.7547059597620669e-02 1.0352820116940667e-01 0.0000000000000000e+00 1
-4.1459529704966969e-02 1.1023535741774729e-01 0.0000000000000000e+00 1
-4.5638623265412653e-02 1.1730844503338361e-01 0.0000000000000000e+00 1
-5.0049994798976365e-02 1.2469284039166995e-01 0.0000000000000000e+00 1
-5.4659298825676696e-02 1.3233391986796048e-01 0.0000000000000000e+00 1
-5.9432189865532267e-02 1.4017705983760947e-01 0.0000000000000000e+00 1
-6.4334322438561714e-02 1.4816763667597121e-01 0.0000000000000000e+00 1
-6.9331351064783636e-02 1.5625102675839983e-01 0.0000000000000000e+00 1
-7.4388930264216641e-02 1.6437260646024965e-01 0.0000000000000000e+00 1
-7.9472714556879348e-02 1.7247775215687489e-01 0.0000000000000000e+00 1
-8.4548358462790407e-02 1.8051184022362982e-01 0.0000000000000000e+00 1
-8.9581516501968411e-02 1.8842024703586863e-01 0.0000000000000000e+00 1
-9.4537843194431981e-02 1.9614834896894565e-01 0.0000000000000000e+00 1
-9.9382993060199709e-02 2.0364152239821498e-01 0.0000000000000000e+00 1
-1.0408262061929024e-01 2.1084514369903096e-01 0.0000000000000000e+00 1
-1.0860238039172224e-01 2.1770458924674790e-01 0.0000000000000000e+00 1
-1.1290792689751422e-01 2.2416523541671987e-01 0.0000000000000000e+00 1
-1.1696491465668485e-01 2.3017245858430121e-01 0.0000000000000000e+00 1
-1.2073899818925277e-01 2.3567163512484618e-01 0.0000000000000000e+00 1
-1.2419583201523657e-01 2.4060814141370901e-01 0.0000000000000000e+00 1
-1.2730107065465485e-01 2.4492735382624387e-01 0.0000000000000000e+00 1
-1.3002036862752625e-01 2.4857464873780510e-01 0.0000000000000000e+00 1
-1.3231938045386940e-01 2.5149540252374691e-01 0.0000000000000000e+00 1
-1.3416376065370289e-01 2.5363499155942348e-01 0.0000000000000000e+00 1
-1.3551916374704537e-01 2.5493879222018917e-01 0.0000000000000000e+00 1
-1.3635124425391540e-01 2.5535218088139811e-01 0.0000000000000000e+00 1
-1.3662565669433166e-01 2.5482053391840459e-01 0.0000000000000000e+00 1
-1.3630805558831272e-01 2.5328922770656287e-01 0.0000000000000000e+00 1
-1.3536409545587724e-01 2.5070363862122719e-01 0.0000000000000000e+00 1
-1.3375943081704381e-01 2.4700914303775173e-01 0.0000000000000000e+00 1
-1.3042188420685466e-01 2.3970882556935857e-01 0.0000000000000000e+00 1
-1.2697903692056112e-01 2.3221104238786208e-01 0.0000000000000000e+00 1
-1.2343402369242126e-01 2.2452338695982596e-01 0.0000000000000000e+00 1
-1.1978997925669327e-01 2.1665345275181430e-01 0.0000000000000000e+00 1
-1.1605003834763533e-01 2.0860883323039103e-01 0.0000000000000000e+00 1
-1.1221733569950559e-01 2.0039712186212019e-01 0.0000000000000000e+00 1
-1.0829500604656211e-01 1.9202591211356559e-01 0.0000000000000000e+00 1
-1.0428618412306317e-01 1.8350279745129128e-01 0.0000000000000000e+00 1
-1.0019400466326683e-01 1.7483537134186117e-01 0.0000000000000000e+00 1
-9.6021602401431233e-02 1.6603122725183922e-01 0.0000000000000000e+00 1
-9.1772112071814654e-02 1.5709795864778944e-01 0.0000000000000000e+00 1
-8.7448668408675101e-02 1.4804315899627571e-01 0.0000000000000000e+00 1
-8.3054406146270798e-02 1.3887442176386208e-01 0.0000000000000000e+00 1
-7.8592460018859861e-02 1.2959934041711244e-01 0.0000000000000000e+00 1
-7.4065964760700487e-02 1.2022550842259072e-01 0.0000000000000000e+00 1
-6.9478055106050776e-02 1.1076051924686092e-01 0.0000000000000000e+00 1
-6.4831865789168885e-02 1.0121196635648699e-01 0.0000000000000000e+00 1
-6.0130531544313040e-02 9.1587443218032916e-02 0.0000000000000000e+00 1
-5.5377187105741313e-02 8.1894543298062603e-02 0.0000000000000000e+00 1
-5.0574967207711846e-02 7.2140860063139994e-02 0.0000000000000000e+00 1
-4.5727006584482824e-02 6.2333986979829052e-02 0.0000000000000000e+00 1
-4.0836439970312416e-02 5.2481517514693793e-02 0.0000000000000000e+00 1
-3.5906402099458744e-02 4.2591045134298136e-02 0.0000000000000000e+00 1
-3.0940027706179960e-02 3.2670163305205988e-02 0.0000000000000000e+00 1
-2.5940451524734232e-02 2.2726465493981413e-02 0.0000000000000000e+00 1
-2.0910808289379711e-02 1.2767545167188303e-02 0.0000000000000000e+00 1
-1.5854232734374515e-02 2.8009957913905717e-03 0.0000000000000000e+00 1
-1.0773859593976819e-02 -7.1655891668477856e-03 0.0000000000000000e+00 1
-5.6728236024447889e-03 -1.7124616240962752e-02 0.0000000000000000e+00 1
-5.5425949403653876e-04 -2.7068491964390498e-02 0.0000000000000000e+00 1
4.5786979969897335e-03 -3.6989622870566938e-02 0.0000000000000000e+00 1
9.7229141363759410e-03 -4.6880415492928242e-02 0.0000000000000000e+00 1
1.4875254189863879e-02 -5.6733276364910358e-02 0.0000000000000000e+00 1
2.0032583423195399e-02 -6.6540612019949347e-02 0.0000000000000000e+00 1
2.5191767102112378e-02 -7.6294828991481295e-02 0.0000000000000000e+00 1
3.0349670492356630e-02 -8.5988333812942186e-02 0.0000000000000000e+00 1
3.5503158859670043e-02 -9.5613533017768149e-02 0.0000000000000000e+00 1
4.0649097469794442e-02 -1.0516283313939515e-01 0.0000000000000000e+00 1
4.5784351588471696e-02 -1.1462864071125928e-01 0.0000000000000000e+00 1
5.0905786481443609e-02 -1.2400336226679651e-01 0.0000000000000000e+00 1
5.6010267414452093e-02 -1.3327940433944302e-01 0.0000000000000000e+00 1
6.1094659653238965e-02 -1.4244917346263475e-01 0.0000000000000000e+00 1
6.6155828463546035e-02 -1.5150507616980774e-01 0.0000000000000000e+00 1
7.1190639111115228e-02 -1.6043951899439812e-01 0.0000000000000000e+00 1
7.6195956861688341e-02 -1.6924490846984178e-01 0.0000000000000000e+00 1
8.1168646981007231e-02 -1.7791365112957494e-01 0.0000000000000000e+00 1
8.6105574734813756e-02 -1.8643815350703355e-01 0.0000000000000000e+00 1
9.1003605388849773e-02 -1.9481082213565368e-01 0.0000000000000000e+00 1
9.5859604208857141e-02 -2.0302406354887134e-01 0.0000000000000000e+00 1
1.0067043646057766e-01 -2.1107028428012262e-01 0.0000000000000000e+00 1
1.0543296740975322e-01 -2.1894189086284357e-01 0.0000000000000000e+00 1
1.1014406232212562e-01 -2.2663128983047015e-01 0.0000000000000000e+00 1
1.1480058646343680e-01 -2.3413088771643853e-01 0.0000000000000000e+00 1
1.1939940509942851e-01 -2.4143309105418465e-01 0.0000000000000000e+00 1
1.2393738349584268e-01 -2.4853030637714457e-01 0.0000000000000000e+00 1
-3.0728268415879355e-02 8.1456885867202691e-02 0.0000000000000000e+00 1
-3.7167145855913131e-02 9.1817096854297578e-02 0.0000000000000000e+00 1
-2.5588639439826855e-02 6.8814828857821808e-02 0.0000000000000000e+00 1
-4.5126450600202539e-02 1.0346153630052986e-01 0.0000000000000000e+00 1
-1.9626490987926220e-02 5.2102772867208935e-02 0.0000000000000000e+00 1
-1.1091521287032167e-02 3.3893436299016456e-02 0.0000000000000000e+00 1
-5.4257703674699176e-02 1.1749467678547733e-01 0.0000000000000000e+00 1
-9.5562892851609668e-03 1.2102882633648509e-02 0.0000000000000000e+00 1
-3.9912146300187891e-02 7.2257463180032136e-02 0.0000000000000000e+00 1
-6.3773578424394420e-02 1.3406337636633464e-01 0.0000000000000000e+00 1
-8.5837101546615594e-04 -6.8380935123154192e-03 0.0000000000000000e+00 1
1.0144974395528941e-02 -2.7325508651367313e-02 0.0000000000000000e+00 1
-4.9434839165144635e-02 8.9857769986502148e-02 0.0000000000000000e+00 1
3.3991139810570989e-02 -7.5622321452101932e-02 0.0000000000000000e+00 1
2.0363548700619453e-02 -4.7630164034965991e-02 0.0000000000000000e+00 1
-7.2644977935045346e-02 1.4759729011139627e-01 0.0000000000000000e+00 1
-4.5584989393698608e-02 8.0631103231837878e-02 0.0000000000000000e+00 1
6.2475041381345436e-02 -1.2361989342628527e-01 0.0000000000000000e+00 1
-2.5516814460646693e-02 4.2867483806977413e-02 0.0000000000000000e+00 1
4.6079841419501680e-02 -9.6025257709857703e-02 0.0000000000000000e+00 1
-8.0349221696040890e-02 1.5489258721063393e-01 0.0000000000000000e+00 1
5.7537120818406624e-02 -1.1315625378398432e-01 0.0000000000000000e+00 1
-3.6415820983401209e-02 6.2232001566882744e-02 0.0000000000000000e+00 1
-2.9989357452224977e-02 5.3721874219434237e-02 0.0000000000000000e+00 1
2.1370701765065126e-03 5.0805258873509269e-03 0.0000000000000000e+00 1
-5.4182864448992764e-02 9.9542514005486554e-02 0.0000000000000000e+00 1
6.9323628819871697e-02 -1.3350384386388750e-01 0.0000000000000000e+00 1
3.5591120920321843e-02 -6.3062678053756746e-02 0.0000000000000000e+00 1
9.1528196384409094e-02 -1.7763787734441186e-01 0.0000000000000000e+00 1
-8.5495989048731194e-02 1.6478124845711967e-01 0.0000000000000000e+00 1
-6.4142810834354566e-02 1.1826114861119474e-01 0.0000000000000000e+00 1
7.5583615350442765e-02 -1.5220631058027348e-01 0.0000000000000000e+00 1
-5.8144814885170218e-03 2.3647572948687641e-02 0.0000000000000000e+00 1
-5.9383280776688530e-02 1.0959470258908229e-01 0.0000000000000000e+00 1
-1.5541936211910346e-02 4.2866637548228115e-02 0.0000000000000000e+00 1
-2.8101200410671358e-02 7.5930993219155238e-02 0.0000000000000000e+00 1
-7.3706247491711105e-02 1.3781980455527409e-01 0.0000000000000000e+00 1
-2.2636910047569743e-02 6.1026808990796481e-02 0.0000000000000000e+00 1
4.6764008396481599e-03 -1.6550871751521215e-02 0.0000000000000000e+00 1
8.6692800624300598e-02 -1.6829743391162977e-01 0.0000000000000000e+00 1
9.6157274607245019e-02 -1.8673537192258804e-01 0.0000000000000000e+00 1
-5.0008075411827099e-02 1.0960620535528445e-01 0.0000000000000000e+00 1
-4.0698403621446916e-02 9.7555232723131186e-02 0.0000000000000000e+00 1
1.5187016643758565e-02 -3.7679141241328734e-02 0.0000000000000000e+00 1
4.0106295249334158e-02 -8.5689629408592344e-02 0.0000000000000000e+00 1
-9.0780469346844403e-02 1.7372877261920511e-01 0.0000000000000000e+00 1
-3.3354802993679059e-02 8.6506300156170876e-02 0.0000000000000000e+00 1
-3.7401477567806846e-02 8.0700462586150143e-02 0.0000000000000000e+00 1
2.4892114766342430e-02 -5.8561420475198196e-02 0.0000000000000000e+00 1
1.3863738937196815e-01 -2.6732035142189348e-01 0.0000000000000000e+00 1
-2.0995420850396129e-02 3.2754891132742471e-02 0.0000000000000000e+00 1
8.0728758924479338e-02 -1.6084299057282314e-01 0.0000000000000000e+00 1
-9.5503654943551813e-02 1.8217217213147316e-01 0.0000000000000000e+00 1
1.0068273050467652e-01 -1.9562332965357493e-01 0.0000000000000000e+00 1
-1.5817546045328288e-02 2.2548352358005952e-02 0.0000000000000000e+00 1
-5.9582049698334867e-02 1.2575344023969870e-01 0.0000000000000000e+00 1
7.3434773071523546e-02 -1.4346671602728936e-01 0.0000000000000000e+00 1
1.2971757801165959e-01 -2.5038722983010375e-01 0.0000000000000000e+00 1
5.0824995774650869e-02 -1.0507071260002442e-01 0.0000000000000000e+00 1
1.0542898830546195e-01 -2.0462145480195063e-01 0.0000000000000000e+00 1
-1.0035792583321206e-01 1.9055476832290949e-01 0.0000000000000000e+00 1
-1.3932917574125092e-04 1.5914783925946644e-02 0.0000000000000000e+00 1
-3.2377595191825759e-02 7.0202522120193206e-02 0.0000000000000000e+00 1
1.0987604724628298e-01 -2.1313173993593940e-01 0.0000000000000000e+00 1
-4.1373954451219726e-02 8.6352443530108305e-02 0.0000000000000000e+00 1
1.3795759653749307e-01 -2.6567272887888782e-01 0.0000000000000000e+00 1
-6.9811364904943871e-03 1.1961443266453604e-03 0.0000000000000000e+00 1
2.5504063095828457e-02 -3.8875020800677285e-02 0.0000000000000000e+00 1
-1.3582096733592042e-01 2.5416202928000065e-01 0.0000000000000000e+00 1
9.5388677353466893e-03 -5.4519162904163769e-03 0.0000000000000000e+00 1
2.0222873355020345e-02 -2.7882393674748727e-02 0.0000000000000000e+00 1
-1.0495938400102844e-01 1.9869332604978629e-01 0.0000000000000000e+00 1
1.3658222926320890e-01 -2.6377895464802809e-01 0.0000000000000000e+00 1
1.4917559406789821e-02 -1.6730559754458654e-02 0.0000000000000000e+00 1
1.1235814737989623e-01 -2.2059051543205455e-01 0.0000000000000000e+00 1
-6.9776398148651830e-02 1.2764700442566354e-01 0.0000000000000000e+00 1
1.3518874405544579e-01 -2.6150918925683564e-01 0.0000000000000000e+00 1
1.3219999298065066e-01 -2.5561117972893865e-01 0.0000000000000000e+00 1
3.0515003767337172e-02 -4.9225136553157536e-02 0.0000000000000000e+00 1
-4.6978923193294386e-02 9.6884963808301333e-02 0.0000000000000000e+00 1
1.1674032840812215e-01 -2.2596199683588264e-01 0.0000000000000000e+00 1
-1.0949473381068740e-01 2.0666814476490181e-01 0.0000000000000000e+00 1
5.4618746363353420e-02 -9.5827052217104289e-02 0.0000000000000000e+00 1
-3.3704137577274244e-02 7.6109665394546666e-02 0.0000000000000000e+00 1
-1.2190208926182777e-01 2.3064025544702160e-01 0.0000000000000000e+00 1
-6.6683933641552007e-02 1.4137139701866178e-01 0.0000000000000000e+00 1
1.2427912772884853e-01 -2.3798470231792579e-01 0.0000000000000000e+00 1
-4.3130653257403756e-02 9.2493501380468107e-02 0.0000000000000000e+00 1
1.2648852937319049e-01 -2.4398938688297458e-01 0.0000000000000000e+00 1
-1.1394261379785810e-01 2.1448023259048971e-01 0.0000000000000000e+00 1
4.9636605187892216e-02 -8.5820802609887420e-02 0.0000000000000000e+00 1
1.2065699025395832e-01 -2.3290164952561607e-01 0.0000000000000000e+00 1
-2.9283081478195458e-02 6.3071573580784718e-02 0.0000000000000000e+00 1
4.3987490229889015e-02 -7.4136998696297848e-02 0.0000000000000000e+00 1
2.8016566220358495e-02 -6.8407349706166409e-02 0.0000000000000000e+00 1
-8.0027895376742542e-02 1.4555502201207321e-01 0.0000000000000000e+00 1
-1.2514687762894625e-01 2.3626357004830115e-01 0.0000000000000000e+00 1
1.3877731212037819e-01 -2.6800349633198967e-01 0.0000000000000000e+00 1
-1.1845885294881750e-01 2.2508381211888223e-01 0.0000000000000000e+00 1

Edges
134
1 2 1
2 3 1
3 4 1
4 5 1
5 6 1
6 7 1
7 8 1
8 9 1
9 10 1
10 11 1
11 12 1
12 13 1
13 14 1
14 15 1
15 16 1
16 17 1
17 18 1
18 19 1
19 20 1
20 21 1
21 22 1
22 23 1
23 24 1
24 25 1
25 26 1
26 27 1
27 28 1
28 29 1
29 30 1
30 31 1
31 32 1
32 33 1
33 34 1
34 35 1
35 36 1
36 37 1
37 38 1
38 39 1
39 40 1
40 41 1
41 42 1
42 43 1
43 44 1
44 45 1
45 46 1
46 47 1
47 48 1
48 49 1
49 50 1
50 51 1
51 52 1
52 53 1
53 54 1
54 55 1
55 56 1
56 57 1
57 58 1
58 59 1
59 60 1
60 61 1
61 62 1
62 63 1
63 64 1
64 65 1
65 66 1
66 67 1
67 68 1
68 69 1
69 70 1
70 71 1
71 72 1
72 73 1
73 74 1
74 75 1
75 76 1
76 77 1
77 78 1
78 79 1
79 80 1
80 81 1
81 82 1
82 83 1
83 84 1
84 85 1
85 86 1
86 87 1
87 88 1
88 89 1
89 90 1
90 91 1
91 92 1
92 93 1
93 94 1
94 95 1
95 96 1
96 97 1
97 98 1
98 99 1
99 100 1
100 101 1
101 102 1
102 103 1
103 104 1
104 105 1
105 106 1
106 107 1
107 108 1
108 109 1
109 110 1
110 111 1
111 112 1
112 113 1
113 114 1
114 115 1
115 116 1
116 117 1
117 118 1
118 119 1
119 120 1
120 121 1
121 122 1
122 123 1
123 124 1
124 125 1
125 126 1
126 127 1
127 128 1
128 129 1
129 130 1
130 131 1
131 132 1
132 133 1
133 134 1
134 1 1

Triangles
330
77 73 203 1
11 2 211 1
24 166 186 1
72 79 71 1
166 24 191 1
153 139 158 1
23 24 186 1
24 25 191 1
140 185 189 1
150 57 155 1
57 58 155 1
26 27 152 1
160 138 176 1
190 144 210 1
167 140 189 1
141 165 168 1
165 190 210 1
147 98 151 1
165 95 168 1
155 58 164 1
152 27 156 1
17 198 209 1
16 17 215 1
147 151 199 1
118 119 156 1
66 83 224 1
120 121 161 1
64 65 224 1
142 159 196 1
10 11 211 1
151 143 182 1
83 66 233 1
168 160 176 1
102 153 158 1
70 80 69 1
80 81 231 1
179 225 228 1
159 142 201 1
17 18 198 1
58 59 164 1
17 209 215 1
182 143 218 1
26 152 161 1
156 28 193 1
7 8 184 1
158 139 172 1
164 59 180 1
119 152 156 1
216 64 224 1
162 32 213 1
183 162 213 1
59 60 180 1
139 153 169 1
2 11 212 1
152 120 161 1
18 194 198 1
142 167 189 1
65 66 224 1
140 169 185 1
180 60 187 1
99 143 151 1
63 64 216 1
169 153 185 1
60 61 187 1
4 184 200 1
167 142 196 1
18 19 194 1
206 63 216 1
187 61 195 1
193 28 217 1
225 30 228 1
61 62 195 1
62 63 206 1
99 100 143 1
195 62 206 1
143 100 157 1
97 98 147 1
134 1 192 1
27 28 156 1
8 9 200 1
146 205 208 1
12 192 212 1
150 155 230 1
97 147 160 1
98 99 151 1
95 96 168 1
162 148 228 1
3 4 207 1
144 171 210 1
101 102 158 1
157 101 158 1
19 20 188 1
21 22 163 1
124 125 174 1
9 10 207 1
204 173 208 1
7 184 232 1
185 104 189 1
19 188 194 1
158 172 227 1
31 32 162 1
145 173 204 1
102 103 153 1
2 3 211 1
4 200 207 1
74 76 203 1
100 101 157 1
174 23 186 1
96 97 160 1
22 23 174 1
96 160 168 1
159 145 204 1
37 38 159 1
25 161 191 1
90 155 164 1
125 163 174 1
25 26 161 1
90 91 155 1
20 21 175 1
89 90 164 1
5 6 232 1
205 35 208 1
40 41 140 1
171 144 220 1
39 40 167 1
94 95 165 1
105 106 142 1
45 46 170 1
145 159 201 1
89 164 180 1
40 140 167 1
92 93 171 1
141 168 176 1
184 8 200 1
163 22 174 1
42 43 139 1
192 1 212 1
143 157 197 1
107 108 145 1
41 42 169 1
31 162 228 1
54 55 144 1
56 57 150 1
69 80 231 1
118 156 193 1
148 179 228 1
11 12 212 1
108 109 173 1
161 121 191 1
140 41 169 1
148 162 229 1
1 2 212 1
109 110 146 1
52 53 141 1
43 44 172 1
126 127 175 1
159 38 196 1
44 45 137 1
145 108 173 1
110 111 178 1
103 104 185 1
111 112 149 1
88 89 180 1
165 141 190 1
94 165 210 1
125 126 163 1
50 51 138 1
105 142 189 1
20 175 188 1
48 49 136 1
51 52 176 1
171 150 230 1
42 139 169 1
114 115 148 1
109 146 173 1
81 82 219 1
116 117 154 1
122 123 166 1
115 116 179 1
37 159 204 1
119 120 152 1
173 146 208 1
88 180 187 1
21 163 175 1
146 110 178 1
181 136 199 1
139 43 172 1
49 50 177 1
171 93 210 1
39 167 196 1
153 103 185 1
111 149 178 1
155 91 230 1
138 160 214 1
15 16 226 1
157 158 227 1
92 171 230 1
112 113 183 1
142 106 201 1
117 118 193 1
121 122 191 1
127 128 188 1
163 126 175 1
52 141 176 1
47 48 181 1
54 144 190 1
182 181 199 1
44 137 172 1
107 145 201 1
149 112 183 1
87 88 187 1
175 127 188 1
137 45 170 1
148 115 179 1
46 135 170 1
116 154 179 1
133 134 223 1
150 171 220 1
87 187 195 1
138 51 176 1
53 54 190 1
50 138 177 1
141 53 190 1
123 124 186 1
82 83 233 1
46 47 135 1
132 133 226 1
56 150 220 1
124 174 186 1
104 105 189 1
12 13 192 1
160 147 214 1
128 129 194 1
166 123 186 1
144 55 220 1
147 199 222 1
34 35 205 1
38 39 196 1
188 128 194 1
32 33 213 1
86 87 195 1
136 49 177 1
221 133 223 1
86 195 206 1
48 136 181 1
122 166 191 1
114 148 229 1
129 130 198 1
194 129 198 1
154 117 193 1
36 204 208 1
133 221 226 1
33 34 202 1
183 113 229 1
29 30 225 1
36 37 204 1
106 107 201 1
85 206 216 1
85 86 206 1
135 47 181 1
35 36 208 1
198 130 209 1
84 216 224 1
130 131 209 1
137 170 197 1
93 94 210 1
197 157 227 1
209 131 215 1
14 15 221 1
68 69 231 1
131 132 215 1
84 85 216 1
16 215 226 1
67 68 219 1
83 84 224 1
135 181 182 1
178 149 202 1
13 14 223 1
143 197 218 1
28 29 217 1
162 183 229 1
146 178 205 1
30 31 228 1
55 56 220 1
91 92 230 1
137 197 227 1
66 67 233 1
178 202 205 1
202 149 213 1
192 13 223 1
151 182 199 1
219 68 231 1
149 183 213 1
113 114 229 1
14 221 223 1
33 202 213 1
207 10 211 1
202 34 205 1
177 138 214 1
67 219 233 1
172 137 227 1
197 170 218 1
179 154 225 1
154 193 217 1
81 219 231 1
184 5 232 1
200 9 207 1
219 82 233 1
170 135 218 1
154 217 225 1
134 192 223 1
135 182 218 1
136 177 222 1
177 214 222 1
6 7 232 1
199 136 222 1
217 29 225 1
214 147 222 1
215 132 226 1
3 207 211 1
221 15 226 1
76 77 203 1
4 5 184 1
71 79 70 1
79 80 70 1
73 78 72 1
78 79 72 1
73 74 203 1
77 78 73 1
75 76 74 1

End
