MeshVersionFormatted 2
Dimension 3

Vertices
382
-1.8067252248050547e-01 -1.7874611215967254e-01 0.0000000000000000e+00 1
-1.7432020792750250e-01 -1.7547464854963429e-01 0.0000000000000000e+00 1
-1.6783601185417740e-01 -1.7192492419474531e-01 0.0000000000000000e+00 1
-1.6122629362992399e-01 -1.6810618370797120e-01 0.0000000000000000e+00 1
-1.5449741262413605e-01 -1.6402767170227756e-01 0.0000000000000000e+00 1
-1.4765572820620737e-01 -1.5969863279062990e-01 0.0000000000000000e+00 1
-1.4070759974553179e-01 -1.5512831158599383e-01 0.0000000000000000e+00 1
-1.3365938661150306e-01 -1.5032595270133489e-01 0.0000000000000000e+00 1
-1.2651744817351504e-01 -1.4530080074961865e-01 0.0000000000000000e+00 1
-1.1928814380096150e-01 -1.4006210034381070e-01 0.0000000000000000e+00 1
-1.1197783286323626e-01 -1.3461909609687658e-01 0.0000000000000000e+00 1
-1.0459287472973308e-01 -1.2898103262178184e-01 0.0000000000000000e+00 1
-9.7139628769845859e-02 -1.2315715453149212e-01 0.0000000000000000e+00 1
-8.9624454352968286e-02 -1.1715670643897297e-01 0.0000000000000000e+00 1
-8.2053710848494207e-02 -1.1098893295718984e-01 0.0000000000000000e+00 1
-7.4433757625817484e-02 -1.0466307869910840e-01 0.0000000000000000e+00 1
-6.6770954054331824e-02 -9.8188388277694202e-02 0.0000000000000000e+00 1
-5.9071659503431073e-02 -9.1574106305912811e-02 0.0000000000000000e+00 1
-5.1342233342509036e-02 -8.4829477396729774e-02 0.0000000000000000e+00 1
-4.3589034940959531e-02 -7.7963746163110706e-02 0.0000000000000000e+00 1
-3.5818423668176336e-02 -7.0986157218021151e-02 0.0000000000000000e+00 1
-2.8036758893553240e-02 -6.3905955174426626e-02 0.0000000000000000e+00 1
-2.0250399986484077e-02 -5.6732384645292747e-02 0.0000000000000000e+00 1
-1.2465706316362644e-02 -4.9474690243585084e-02 0.0000000000000000e+00 1
-4.6890372525826840e-03 -4.2142116582269157e-02 0.0000000000000000e+00 1
3.0732478354618953e-03 -3.4743908274310564e-02 0.0000000000000000e+00 1
1.0814789578377344e-02 -2.7289309932674935e-02 0.0000000000000000e+00 1
1.8529228606769883e-02 -1.9787566170327710e-02 0.0000000000000000e+00 1
2.6210205551245650e-02 -1.2247921600234558e-02 0.0000000000000000e+00 1
3.3851361042410912e-02 -4.6796208353609980e-03 0.0000000000000000e+00 1
4.1446335710871807e-02 2.9080915113273743e-03 0.0000000000000000e+00 1
4.8988770187234569e-02 1.0505970826865045e-02 0.0000000000000000e+00 1
5.6472305102105380e-02 1.8104772498286396e-02 0.0000000000000000e+00 1
6.3890581086090456e-02 2.5695251912625894e-02 0.0000000000000000e+00 1
7.1237238769795957e-02 3.3268164456917937e-02 0.0000000000000000e+00 1
7.8505918783828135e-02 4.0814265518196995e-02 0.0000000000000000e+00 1
8.5690261758793129e-02 4.8324310483497473e-02 0.0000000000000000e+00 1
9.2783908325297176e-02 5.5789054739853836e-02 0.0000000000000000e+00 1
9.9780499113946458e-02 6.3199253674300487e-02 0.0000000000000000e+00 1
1.0667367475534718e-01 7.0545662673871884e-02 0.0000000000000000e+00 1
1.1345707588010553e-01 7.7819037125602439e-02 0.0000000000000000e+00 1
1.2012434311882772e-01 8.5010132416526607e-02 0.0000000000000000e+00 1
1.2666911710211992e-01 9.2109703933678788e-02 0.0000000000000000e+00 1
1.3308503846058836e-01 9.9108507064093465e-02 0.0000000000000000e+00 1
1.3936574782483924e-01 1.0599729719480501e-01 0.0000000000000000e+00 1
1.4550488582547871e-01 1.1276682971284793e-01 0.0000000000000000e+00 1
1.5149609309311302e-01 1.1940786000525658e-01 0.0000000000000000e+00 1
1.5733301025834834e-01 1.2591114345906546e-01 0.0000000000000000e+00 1
1.6300927795179088e-01 1.3226743546130901e-01 0.0000000000000000e+00 1
1.6851853680404683e-01 1.3846749139902159e-01 0.0000000000000000e+00 1
1.7385442744572238e-01 1.4450206665923765e-01 0.0000000000000000e+00 1
1.7901059050742374e-01 1.5036191662899168e-01 0.0000000000000000e+00 1
1.8398066661975709e-01 1.5603779669531809e-01 0.0000000000000000e+00 1
1.8875829641332864e-01 1.6152046224525127e-01 0.0000000000000000e+00 1
1.9075173943359056e-01 1.6410726546633281e-01 0.0000000000000000e+00 1
1.9166135238174131e-01 1.6600692053958105e-01 0.0000000000000000e+00 1
1.9155551675744656e-01 1.6725686665037809e-01 0.0000000000000000e+00 1
1.9050261406037189e-01 1.6789454298410600e-01 0.0000000000000000e+00 1
1.8857102579018276e-01 1.6795738872614660e-01 0.0000000000000000e+00 1
1.8582913344654498e-01 1.6748284306188216e-01 0.0000000000000000e+00 1
1.8234531852912400e-01 1.6650834517669461e-01 0.0000000000000000e+00 1
1.7818796253758548e-01 1.6507133425596596e-01 0.0000000000000000e+00 1
1.7342544697159495e-01 1.6320924948507823e-01 0.0000000000000000e+00 1
1.6812615333081807e-01 1.6095953004941352e-01 0.0000000000000000e+00 1
1.6235846311492036e-01 1.5835961513435381e-01 0.0000000000000000e+00 1
1.5619075782356742e-01 1.5544694392528105e-01 0.0000000000000000e+00 1
1.4969141895642496e-01 1.5225895560757749e-01 0.0000000000000000e+00 1
1.4292882801315840e-01 1.4883308936662493e-01 0.0000000000000000e+00 1
1.3597136649343344e-01 1.4520678438780549e-01 0.0000000000000000e+00 1
1.2888741589691566e-01 1.4141747985650122e-01 0.0000000000000000e+00 1
1.2174535772327064e-01 1.3750261495809415e-01 0.0000000000000000e+00 1
1.1461357347216397e-01 1.3349962887796629e-01 0.0000000000000000e+00 1
1.0756044464326125e-01 1.2944596080149964e-01 0.0000000000000000e+00 1
1.0065435273622807e-01 1.2537904991407628e-01 0.0000000000000000e+00 1
9.3963679250729987e-02 1.2133633540107817e-01 0.0000000000000000e+00 1
8.7556805686432676e-02 1.1735525644788741e-01 0.0000000000000000e+00 1
8.1502113543001659e-02 1.1347325223988601e-01 0.0000000000000000e+00 1
7.5867984320102555e-02 1.0972776196245598e-01 0.0000000000000000e+00 1
7.0722799517400958e-02 1.0615622480097939e-01 0.0000000000000000e+00 1
6.6134940634562447e-02 1.0279607994083821e-01 0.0000000000000000e+00 1
6.2172789171252636e-02 9.9684766567414512e-02 0.0000000000000000e+00 1
5.8904726627137083e-02 9.6859723866090291e-02 0.0000000000000000e+00 1
5.4097918767108920e-02 9.2401667750780181e-02 0.0000000000000000e+00 1
4.8779652124321143e-02 8.7411423985335121e-02 0.0000000000000000e+00 1
4.2983969919318167e-02 8.1920836999832380e-02 0.0000000000000000e+00 1
3.6744915372644446e-02 7.5961751224349283e-02 0.0000000000000000e+00 1
3.0096531704844429e-02 6.9566011088963098e-02 0.0000000000000000e+00 1
2.3072862136462573e-02 6.2765461023751162e-02 0.0000000000000000e+00 1
1.5707949888043297e-02 5.5591945458790717e-02 0.0000000000000000e+00 1
8.0358381801310559e-03 4.8077308824159080e-02 0.0000000000000000e+00 1
9.0570233270283185e-05 4.0253395549933554e-02 0.0000000000000000e+00 1
-8.0938107319945621e-03 3.2152050066191415e-02 0.0000000000000000e+00 1
-1.6483261495119035e-02 2.3805116803009962e-02 0.0000000000000000e+00 1
-2.5043738835558702e-02 1.5244440190466507e-02 0.0000000000000000e+00 1
-3.3741199532769134e-02 6.5018646586382893e-03 0.0000000000000000e+00 1
-4.2541600366205842e-02 -2.3907653623973200e-03 0.0000000000000000e+00 1
-5.1410898115324427e-02 -1.1401605442563092e-02 0.0000000000000000e+00 1
-6.0315049559580419e-02 -2.0498811151781690e-02 0.0000000000000000e+00 1
-6.9220011478429377e-02 -2.9650538059975834e-02 0.0000000000000000e+00 1
-7.8091740651326902e-02 -3.8824941737068241e-02 0.0000000000000000e+00 1
-8.6896193857728454e-02 -4.7990177752981603e-02 0.0000000000000000e+00 1
-9.5599327877089718e-02 -5.7114401677638649e-02 0.0000000000000000e+00 1
-1.0416709948886610e-01 -6.6165769080962056e-02 0.0000000000000000e+00 1
-1.1256546547251328e-01 -7.5112435532874555e-02 0.0000000000000000e+00 1
-1.2076038260748678e-01 -8.3922556603298837e-02 0.0000000000000000e+00 1
-1.2871780767324212e-01 -9.2564287862157577e-02 0.0000000000000000e+00 1
-1.3640369744923492e-01 -1.0100578487937359e-01 0.0000000000000000e+00 1
-1.4378400871492064e-01 -1.0921520322486947e-01 0.0000000000000000e+00 1
-1.5082469824975492e-01 -1.1716069846856794e-01 0.0000000000000000e+00 1
-1.5749172283319329e-01 -1.2481042618039173e-01 0.0000000000000000e+00 1
-1.6375103924469134e-01 -1.3213254193026361e-01 0.0000000000000000e+00 1
-1.6956860426370457e-01 -1.3909520128810615e-01 0.0000000000000000e+00 1
-1.7491037466968851e-01 -1.4566655982384213e-01 0.0000000000000000e+00 1
-1.7974230724209883e-01 -1.5181477310739430e-01 0.0000000000000000e+00 1
-1.8403035876039103e-01 -1.5750799670868529e-01 0.0000000000000000e+00 1
-1.8774048600402057e-01 -1.6271438619763781e-01 0.0000000000000000e+00 1
-1.9083864575244319e-01 -1.6740209714417464e-01 0.0000000000000000e+00 1
-1.9329079478511432e-01 -1.7153928511821845e-01 0.0000000000000000e+00 1
-1.9506288988148954e-01 -1.7509410568969189e-01 0.0000000000000000e+00 1
-1.9612088782102438e-01 -1.7803471442851773e-01 0.0000000000000000e+00 1
-1.9643074538317448e-01 -1.8032926690461865e-01 0.0000000000000000e+00 1
-1.9595841934739530e-01 -1.8194591868791735e-01 0.0000000000000000e+00 1
-1.9466986649314247e-01 -1.8285282534833655e-01 0.0000000000000000e+00 1
-1.9253104359987153e-01 -1.8301814245579898e-01 0.0000000000000000e+00 1
-1.8950790744703799e-01 -1.8241002558022731e-01 0.0000000000000000e+00 1
-1.8556641481409741e-01 -1.8099663029154425e-01 0.0000000000000000e+00 1
6.2507746573255321e-02 9.5896341637915550e-02 0.0000000000000000e+00 1
7.5494001703189151e-02 1.0362952781278550e-01 0.0000000000000000e+00 1
5.5269252965346558e-02 8.5895473445397899e-02 0.0000000000000000e+00 1
9.0368746457335086e-02 6.5446796965483070e-02 0.0000000000000000e+00 1
3.8430429225959704e-02 6.7447564401950294e-02 0.0000000000000000e+00 1
9.4771889590360661e-02 1.1355879884764643e-01 0.0000000000000000e+00 1
2.5450386532712543e-02 5.2957036283674923e-02 0.0000000000000000e+00 1
7.5624042280664272e-02 5.0762563995343943e-02 0.0000000000000000e+00 1
1.0642627980083859e-01 1.2183834586924439e-01 0.0000000000000000e+00 1
1.0330632806684412e-01 8.0944971538393778e-02 0.0000000000000000e+00 1
3.8141713986478490e-02 1.3347920958976826e-02 0.0000000000000000e+00 1
2.2297790032328284e-02 -1.2853436384294742e-03 0.0000000000000000e+00 1
8.1793257865316587e-03 -1.6861669145247601e-02 0.0000000000000000e+00 1
-1.4397832603047084e-02 -3.9701546830971657e-02 0.0000000000000000e+00 1
6.0439023026027772e-02 3.5085205053264075e-02 0.0000000000000000e+00 1
-3.0183326360047884e-02 -5.4375475145194342e-02 0.0000000000000000e+00 1
-5.3805676141920729e-02 -7.3370579830361687e-02 0.0000000000000000e+00 1
-6.8692615720445022e-02 -8.7954121144462910e-02 0.0000000000000000e+00 1
-8.4174052285340223e-02 -1.0155915479195228e-01 0.0000000000000000e+00 1
-9.8211492225383792e-02 -1.1338767165032136e-01 0.0000000000000000e+00 1
1.1729970270102170e-01 9.4180492074301569e-02 0.0000000000000000e+00 1
1.2107302979746556e-01 1.2888153620024528e-01 0.0000000000000000e+00 1
1.1031199493567113e-02 3.8343031168385819e-02 0.0000000000000000e+00 1
-1.1293689595171837e-01 -1.2570325852015565e-01 0.0000000000000000e+00 1
-1.2754345892535951e-01 -1.3809056313577994e-01 0.0000000000000000e+00 1
-3.0488642183485432e-02 -5.8201713926312668e-03 0.0000000000000000e+00 1
-5.1571678564470737e-03 2.0810889506743983e-02 0.0000000000000000e+00 1
-6.5381353076672727e-02 -4.1872305794350861e-02 0.0000000000000000e+00 1
-1.4126216434613981e-01 -1.4606868758033659e-01 0.0000000000000000e+00 1
-4.8011253963702635e-02 -2.3221736851691356e-02 0.0000000000000000e+00 1
1.3655180426487715e-01 1.3666673488623796e-01 0.0000000000000000e+00 1
-8.3569159917490046e-02 -6.1028218974288853e-02 0.0000000000000000e+00 1
-1.5564545280134159e-01 -1.5665574241546315e-01 0.0000000000000000e+00 1
1.3020194833141419e-01 1.0785483924357664e-01 0.0000000000000000e+00 1
-1.0932157761552100e-01 -8.6465637466240586e-02 0.0000000000000000e+00 1
-1.9143975005444264e-01 -1.8044971668000079e-01 0.0000000000000000e+00 1
-1.8593215033135660e-01 -1.6752236648446453e-01 0.0000000000000000e+00 1
-1.2537094562779136e-01 -1.0333127615364338e-01 0.0000000000000000e+00 1
1.4842507608447147e-01 1.4460694669816648e-01 0.0000000000000000e+00 1
-1.7720985056909661e-01 -1.5818364206809465e-01 0.0000000000000000e+00 1
-1.4759816182361540e-01 -1.2676283703457242e-01 0.0000000000000000e+00 1
-1.9132578365991398e-01 -1.7455789596863672e-01 0.0000000000000000e+00 1
1.4274183314302402e-01 1.2121242560335589e-01 0.0000000000000000e+00 1
-1.9471691171090572e-01 -1.8096549461763750e-01 0.0000000000000000e+00 1
-1.6081658722712466e-01 -1.4053363033097255e-01 0.0000000000000000e+00 1
1.6145631165090105e-01 1.5167712403426065e-01 0.0000000000000000e+00 1
1.8927987131751137e-01 1.6640131380928100e-01 0.0000000000000000e+00 1
-1.8530963995500219e-01 -1.7673834459013668e-01 0.0000000000000000e+00 1
-1.6822370081436033e-01 -1.6532731747643131e-01 0.0000000000000000e+00 1
1.6120322641791598e-01 1.3957026077001264e-01 0.0000000000000000e+00 1
1.7267259084047054e-01 1.5159144596730389e-01 0.0000000000000000e+00 1
1.8483378004452253e-01 1.6432667487494404e-01 0.0000000000000000e+00 1
1.7871817904824297e-01 1.6008466929233478e-01 0.0000000000000000e+00 1
1.8827611506654340e-01 1.6434227526356385e-01 0.0000000000000000e+00 1
9.6925071591973916e-02 7.2499116523295937e-02 0.0000000000000000e+00 1
8.7766079878668274e-02 7.4313734882311161e-02 0.0000000000000000e+00 1
8.1691769049754309e-02 6.7958074409547098e-02 0.0000000000000000e+00 1
7.9703433621469935e-02 7.6376558178793824e-02 0.0000000000000000e+00 1
7.3663642896227038e-02 7.0656173022308061e-02 0.0000000000000000e+00 1
8.5275414624010198e-02 8.2058912574824741e-02 0.0000000000000000e+00 1
7.7748302995227642e-02 8.4068687915414456e-02 0.0000000000000000e+00 1
8.2778000649968028e-02 8.9403685241515096e-02 0.0000000000000000e+00 1
7.5748573304968980e-02 9.0891619248097744e-02 0.0000000000000000e+00 1
7.1146213953008311e-02 8.6115589422296579e-02 0.0000000000000000e+00 1
9.0505271973699189e-02 8.7816262293686526e-02 0.0000000000000000e+00 1
8.6815302403256842e-02 9.5854756587123974e-02 0.0000000000000000e+00 1
9.5386603944740106e-02 9.3692586689286400e-02 0.0000000000000000e+00 1
9.3214340051721634e-02 1.0082738646859919e-01 0.0000000000000000e+00 1
1.0075307803859512e-01 9.9351152602481632e-02 0.0000000000000000e+00 1
1.0328608586704349e-01 9.1694782956574475e-02 0.0000000000000000e+00 1
8.7083248406679983e-02 1.0357254651860076e-01 0.0000000000000000e+00 1
6.9337218992307881e-02 9.2681309836221318e-02 0.0000000000000000e+00 1
6.5021745477806189e-02 8.8172047812230855e-02 0.0000000000000000e+00 1
6.5471751993105204e-02 8.1527835030343013e-02 0.0000000000000000e+00 1
7.5348789391693441e-02 6.2402868505474524e-02 0.0000000000000000e+00 1
6.7207311683503551e-02 6.4917125452130062e-02 0.0000000000000000e+00 1
7.3748123946738062e-02 9.7034285119773217e-02 0.0000000000000000e+00 1
6.5787431872782215e-02 7.3593273357036415e-02 0.0000000000000000e+00 1
5.9042204476632339e-02 6.8123424053488521e-02 0.0000000000000000e+00 1
6.0697164560709768e-02 5.9054850205041018e-02 0.0000000000000000e+00 1
5.2563782810509219e-02 6.2041770783462909e-02 0.0000000000000000e+00 1
5.3925888815124591e-02 5.3002155352906269e-02 0.0000000000000000e+00 1
4.6048010113484313e-02 5.6170394357703435e-02 0.0000000000000000e+00 1
4.6959019798349939e-02 4.6669684418792275e-02 0.0000000000000000e+00 1
5.1604169590952598e-02 7.1493949190565120e-02 0.0000000000000000e+00 1
6.3044447396911896e-02 5.0245785733250434e-02 0.0000000000000000e+00 1
3.7044856814349304e-02 5.1508489427363316e-02 0.0000000000000000e+00 1
3.9265594112610672e-02 4.0455480715569155e-02 0.0000000000000000e+00 1
4.9059459879830521e-02 3.7072299708090381e-02 0.0000000000000000e+00 1
4.1583479292966158e-02 3.0339251603779600e-02 0.0000000000000000e+00 1
3.1651803169704895e-02 3.3663530148099696e-02 0.0000000000000000e+00 1
7.9933221521056197e-02 9.4826939386049858e-02 0.0000000000000000e+00 1
-1.8036405550627033e-01 -1.7359561697848164e-01 0.0000000000000000e+00 1
-1.7546348157845293e-01 -1.6888323433763816e-01 0.0000000000000000e+00 1
3.3827884436276656e-02 2.3486685213299534e-02 0.0000000000000000e+00 1
2.3895251233092427e-02 2.6686932910989732e-02 0.0000000000000000e+00 1
2.5952113677905529e-02 1.6528897632046544e-02 0.0000000000000000e+00 1
1.5694602815098609e-02 1.9859650611795513e-02 0.0000000000000000e+00 1
1.8136859729870614e-02 9.4618558978186960e-03 0.0000000000000000e+00 1
7.1825088270706296e-03 1.3011665092254408e-02 0.0000000000000000e+00 1
9.6823657476477962e-03 2.2637519566281262e-03 0.0000000000000000e+00 1
-8.9015533396864680e-04 5.4108630998037097e-03 0.0000000000000000e+00 1
1.8561069619837741e-03 -6.6835748731961832e-03 0.0000000000000000e+00 1
-9.8673579824070067e-03 -1.7229334169896052e-03 0.0000000000000000e+00 1
-7.9439663225387216e-03 -1.2606584455109409e-02 0.0000000000000000e+00 1
-1.1315431237414093e-02 1.1412416660452462e-02 0.0000000000000000e+00 1
-1.6663697485108614e-01 -1.4693413290840424e-01 0.0000000000000000e+00 1
-1.9295153444504759e-01 -1.7751437986791632e-01 0.0000000000000000e+00 1
-1.8952905147246152e-01 -1.7728084536094108e-01 0.0000000000000000e+00 1
-1.1745159860465006e-01 -9.4935111516483164e-02 0.0000000000000000e+00 1
-1.1485089866652209e-01 -1.0560754208797524e-01 0.0000000000000000e+00 1
-1.2295603833151619e-01 -1.1354359504483504e-01 0.0000000000000000e+00 1
-1.0672357157626872e-01 -9.7210207577764954e-02 0.0000000000000000e+00 1
-9.8361448274401991e-02 -8.9054736813413943e-02 0.0000000000000000e+00 1
-9.5840097261820675e-02 -1.0108432442161711e-01 0.0000000000000000e+00 1
-1.3288792940164187e-01 -1.1130916902234096e-01 0.0000000000000000e+00 1
-1.3075575371280651e-01 -1.2096232730752354e-01 0.0000000000000000e+00 1
-1.4064056630311927e-01 -1.1915038918081029e-01 0.0000000000000000e+00 1
-1.3845092233772535e-01 -1.2847400168495995e-01 0.0000000000000000e+00 1
-1.4504093164577275e-01 -1.3600463133210117e-01 0.0000000000000000e+00 1
-1.0108971204547798e-01 -7.7830916651906112e-02 0.0000000000000000e+00 1
-8.9917300548184267e-02 -8.0952801190248946e-02 0.0000000000000000e+00 1
-9.2581703918008879e-02 -6.9454943105946035e-02 0.0000000000000000e+00 1
-8.1229957578092662e-02 -7.3189422737948595e-02 0.0000000000000000e+00 1
-7.0833640110728138e-02 -6.5203649127048971e-02 0.0000000000000000e+00 1
-7.4289311229543409e-02 -5.1411226377434643e-02 0.0000000000000000e+00 1
-6.0904567880171588e-02 -5.4991666230631460e-02 0.0000000000000000e+00 1
-5.3293464217231440e-02 -4.3862135312639383e-02 0.0000000000000000e+00 1
-4.7824145010022148e-02 -5.5228176026958023e-02 0.0000000000000000e+00 1
-4.1638927185616140e-02 -4.4889756291047231e-02 0.0000000000000000e+00 1
-7.0552857172242647e-02 -7.7699924251175417e-02 0.0000000000000000e+00 1
-6.0481140380963173e-02 -6.5315517039293891e-02 0.0000000000000000e+00 1
1.6661291987982793e-01 1.4617390612847370e-01 0.0000000000000000e+00 1
5.0052587732449152e-02 7.9946763710823265e-02 0.0000000000000000e+00 1
5.8325554841196198e-02 7.7809801909514587e-02 0.0000000000000000e+00 1
1.2381100658069225e-01 1.0103034568391669e-01 0.0000000000000000e+00 1
1.2134241928481121e-01 1.0979526380713296e-01 0.0000000000000000e+00 1
1.2791603096724460e-01 1.1630543108906957e-01 0.0000000000000000e+00 1
1.1906472109325419e-01 1.1859370049923700e-01 0.0000000000000000e+00 1
1.1293046115121882e-01 1.1152509988100784e-01 0.0000000000000000e+00 1
1.1509549980794832e-01 1.0338587566123372e-01 0.0000000000000000e+00 1
1.0648118999847320e-01 1.0540282645233931e-01 0.0000000000000000e+00 1
1.3664777466939904e-01 1.1457245086913788e-01 0.0000000000000000e+00 1
1.3442405248632028e-01 1.2290563075392311e-01 0.0000000000000000e+00 1
1.4036304306905942e-01 1.2912857151133339e-01 0.0000000000000000e+00 1
-3.9320113434454497e-02 -1.4441618277510504e-02 0.0000000000000000e+00 1
-3.5935559042880885e-02 -2.5956998857508067e-02 0.0000000000000000e+00 1
-2.7570687837069868e-02 -1.7536692988841002e-02 0.0000000000000000e+00 1
-2.4368774864751905e-02 -2.8927574340191341e-02 0.0000000000000000e+00 1
-3.3452236136484743e-02 -3.6631199707272320e-02 0.0000000000000000e+00 1
9.8297393824772192e-02 1.0693330074607070e-01 0.0000000000000000e+00 1
1.0451087273455544e-01 1.1378041706316150e-01 0.0000000000000000e+00 1
-7.9295589606812905e-02 -8.4699416023277491e-02 0.0000000000000000e+00 1
5.9992973093148660e-02 9.1599731386035804e-02 0.0000000000000000e+00 1
1.4871305162760376e-01 1.2756485579386162e-01 0.0000000000000000e+00 1
1.4628315022909361e-01 1.3614161585763807e-01 0.0000000000000000e+00 1
1.5509232263439038e-01 1.3365612586124817e-01 0.0000000000000000e+00 1
-2.1579659470963714e-02 2.6958291092592799e-03 0.0000000000000000e+00 1
2.1580130671638099e-02 3.6322965275310870e-02 0.0000000000000000e+00 1
3.3113476110876020e-03 3.0382447072239492e-02 0.0000000000000000e+00 1
-1.5454304578313782e-01 -1.3366762175976560e-01 0.0000000000000000e+00 1
-1.5138305780061967e-01 -1.4280611983807884e-01 0.0000000000000000e+00 1
-1.3586185982355151e-01 -1.3696601146230331e-01 0.0000000000000000e+00 1
4.5915435455600312e-02 2.0717769175010232e-02 0.0000000000000000e+00 1
3.2248189232504360e-02 6.0731467749242027e-02 0.0000000000000000e+00 1
8.7477206264078317e-02 1.1027914269842487e-01 0.0000000000000000e+00 1
-1.7190965084511151e-01 -1.5267769931686012e-01 0.0000000000000000e+00 1
-1.6409287679178478e-01 -1.5451390284615296e-01 0.0000000000000000e+00 1
-1.6631286216529290e-02 -2.0270324086173606e-02 0.0000000000000000e+00 1
3.0030103377162158e-02 6.3508899540305579e-03 0.0000000000000000e+00 1
-1.9013600002165669e-02 -9.2101462050809338e-03 0.0000000000000000e+00 1
-5.7669531915265542e-03 -2.4082966648033496e-02 0.0000000000000000e+00 1
-1.5776103366903343e-01 -1.4884423201896893e-01 0.0000000000000000e+00 1
1.4258787134370014e-02 -8.1703390002744302e-03 0.0000000000000000e+00 1
-1.8108063602621990e-01 -1.6361378828708212e-01 0.0000000000000000e+00 1
1.1109881036416144e-01 8.7727551057142542e-02 0.0000000000000000e+00 1
8.3810908025951272e-02 5.8422576877684783e-02 0.0000000000000000e+00 1
2.9449165413782865e-02 4.3689393931880378e-02 0.0000000000000000e+00 1
1.1384881404775452e-01 1.2519454569180238e-01 0.0000000000000000e+00 1
1.5509722392282646e-01 1.4841487370228917e-01 0.0000000000000000e+00 1
1.2813463793245727e-01 1.3300573917607036e-01 0.0000000000000000e+00 1
-1.4876119555598322e-01 -1.5155883324867286e-01 0.0000000000000000e+00 1
-5.6710526657224959e-02 -3.2059875708257711e-02 0.0000000000000000e+00 1
-3.8036785114235409e-02 -6.0731601133815843e-02 0.0000000000000000e+00 1
-1.8904199813503045e-01 -1.7121302183206832e-01 0.0000000000000000e+00 1
-2.2437518692586009e-02 -4.7314291008846543e-02 0.0000000000000000e+00 1
9.3726527425696149e-02 8.0389221089167393e-02 0.0000000000000000e+00 1
-1.2049567933769152e-01 -1.3173833993073336e-01 0.0000000000000000e+00 1
-4.5245510482841235e-02 -6.6815674131761482e-02 0.0000000000000000e+00 1
1.8157754758810510e-01 1.6310216204307981e-01 0.0000000000000000e+00 1
-6.0955429819978271e-02 -8.1613960474273300e-02 0.0000000000000000e+00 1
-1.0532228241027086e-01 -1.1915515749880717e-01 0.0000000000000000e+00 1
-7.6106270967702755e-02 -9.4911843595279474e-02 0.0000000000000000e+00 1
5.3183411228885494e-02 2.7891442954653900e-02 0.0000000000000000e+00 1
7.2536461562475396e-02 7.8867337856169312e-02 0.0000000000000000e+00 1
-8.7535504197124581e-02 -9.1483592131308550e-02 0.0000000000000000e+00 1
6.7129414210186714e-02 9.7305799871342996e-02 0.0000000000000000e+00 1
5.5707036241507815e-02 4.3884003385545219e-02 0.0000000000000000e+00 1
-4.4840327867190125e-02 -3.4436950454736007e-02 0.0000000000000000e+00 1
1.7260472620870265e-01 1.5790235992877280e-01 0.0000000000000000e+00 1
6.8606914029100713e-02 4.2588932220569947e-02 0.0000000000000000e+00 1
6.8384351062696580e-02 5.7476638778248004e-02 0.0000000000000000e+00 1
1.0900239446287388e-01 9.6957113467345535e-02 0.0000000000000000e+00 1
1.8508885437242089e-02 4.5967205344913706e-02 0.0000000000000000e+00 1
8.1360424551117444e-02 1.0699002388070873e-01 0.0000000000000000e+00 1
1.8762836012311671e-01 1.6633406493394340e-01 0.0000000000000000e+00 1
-8.9980761394801434e-02 -1.0883535805201071e-01 0.0000000000000000e+00 1
-1.6187585695852091e-01 -1.6114256240812377e-01 0.0000000000000000e+00 1
1.4203204501700681e-01 1.4229103423929457e-01 0.0000000000000000e+00 1
-1.0546428860148990e-01 -1.0790118407977098e-01 0.0000000000000000e+00 1
7.0645856002415464e-02 1.0138438350914387e-01 0.0000000000000000e+00 1
4.4241224542241692e-02 7.3901491004041989e-02 0.0000000000000000e+00 1
1.6714713856539501e-01 1.5543386840983744e-01 0.0000000000000000e+00 1
9.7242163455604602e-02 8.6907564913421720e-02 0.0000000000000000e+00 1
-1.1377082539812707e-01 -1.1579195490694447e-01 0.0000000000000000e+00 1
-7.4706481699152900e-03 -3.4016800285610431e-02 0.0000000000000000e+00 1
-1.2184139813158135e-01 -1.2280891749797442e-01 0.0000000000000000e+00 1
1.2689277593624201e-01 1.2414566396054871e-01 0.0000000000000000e+00 1
-1.7420256604448259e-01 -1.6301799892130775e-01 0.0000000000000000e+00 1
-1.9334736933108865e-01 -1.8147942477745138e-01 0.0000000000000000e+00 1
-1.8495756359549581e-01 -1.7209615099899583e-01 0.0000000000000000e+00 1
1.4081006090083583e-02 2.8952189529655867e-02 0.0000000000000000e+00 1
6.0931470163745803e-02 8.4553753424742056e-02 0.0000000000000000e+00 1
-1.8803280736358080e-01 -1.7437725175015573e-01 0.0000000000000000e+00 1
-1.6982774667851305e-01 -1.5857407076719046e-01 0.0000000000000000e+00 1
-1.8110854360634143e-01 -1.6905314260038670e-01 0.0000000000000000e+00 1
-1.2915817871145263e-01 -1.2984002683654575e-01 0.0000000000000000e+00 1
1.0006541482254255e-01 1.1917858941904134e-01 0.0000000000000000e+00 1
4.5510139507652571e-02 6.5236292460901346e-02 0.0000000000000000e+00 1
1.5418442796220952e-01 1.4081665932964671e-01 0.0000000000000000e+00 1
1.8452840750407370e-01 1.6016976318730750e-01 0.0000000000000000e+00 1
1.6052206986939516e-01 1.4583892783913457e-01 0.0000000000000000e+00 1
1.7739735064491940e-01 1.5519563770254427e-01 0.0000000000000000e+00 1
1.9028032613626816e-01 1.6546710845097140e-01 0.0000000000000000e+00 1
-2.4000726478685081e-02 -3.7974432790417609e-02 0.0000000000000000e+00 1
-1.9449016630368177e-01 -1.7905175604154649e-01 0.0000000000000000e+00 1
-1.5524088602967240e-02 -2.9929307749087437e-02 0.0000000000000000e+00 1
1.9066726795124941e-01 1.6655220299411264e-01 0.0000000000000000e+00 1
3.2197261157635125e-03 -2.3784493968302199e-02 0.0000000000000000e+00 1
5.7079991156754849e-03 2.1159738940898516e-02 0.0000000000000000e+00 1
-5.2855707189900382e-02 -6.2807129255582822e-02 0.0000000000000000e+00 1
-2.0177943002677983e-04 -1.5944615841244420e-02 0.0000000000000000e+00 1
1.3355033898008042e-01 1.2942223401865799e-01 0.0000000000000000e+00 1
8.0635490119223191e-02 1.0071990703248848e-01 0.0000000000000000e+00 1
-6.3325748725166595e-02 -7.2640726144430665e-02 0.0000000000000000e+00 1
-1.8819940335311597e-01 -1.7982629492881735e-01 0.0000000000000000e+00 1
-3.2285179879981085e-02 -4.5695095575242192e-02 0.0000000000000000e+00 1
3.9856324978790048e-02 6.0218841679432082e-02 0.0000000000000000e+00 1
9.2458652770240540e-02 1.0676598370918769e-01 0.0000000000000000e+00 1
1.8659914975711708e-01 1.6258979389276665e-01 0.0000000000000000e+00 1
1.1203490315893928e-01 1.1818311610291743e-01 0.0000000000000000e+00 1
-3.8421981888760344e-02 -5.2593195658640693e-02 0.0000000000000000e+00 1
6.4954046831828066e-02 9.2860087700648714e-02 0.0000000000000000e+00 1
-1.3282371374359964e-01 -1.4379133045791745e-01 0.0000000000000000e+00 1
-8.6430279284043518e-04 1.3941591832701862e-02 0.0000000000000000e+00 1
-1.9337927479708086e-01 -1.8011094478548323e-01 0.0000000000000000e+00 1

Edges
126
1 2 1
2 3 1
3 4 1
4 5 1
5 6 1
6 7 1
7 8 1
8 9 1
9 10 1
10 11 1
11 12 1
12 13 1
13 14 1
14 15 1
15 16 1
16 17 1
17 18 1
18 19 1
19 20 1
20 21 1
21 22 1
22 23 1
23 24 1
24 25 1
25 26 1
26 27 1
27 28 1
28 29 1
29 30 1
30 31 1
31 32 1
32 33 1
33 34 1
34 35 1
35 36 1
36 37 1
37 38 1
38 39 1
39 40 1
40 41 1
41 42 1
42 43 1
43 44 1
44 45 1
45 46 1
46 47 1
47 48 1
48 49 1
49 50 1
50 51 1
51 52 1
52 53 1
53 54 1
54 55 1
55 56 1
56 57 1
57 58 1
58 59 1
59 60 1
60 61 1
61 62 1
62 63 1
63 64 1
64 65 1
65 66 1
66 67 1
67 68 1
68 69 1
69 70 1
70 71 1
71 72 1
72 73 1
73 74 1
74 75 1
75 76 1
76 77 1
77 78 1
78 79 1
79 80 1
80 81 1
81 82 1
82 83 1
83 84 1
84 85 1
85 86 1
86 87 1
87 88 1
88 89 1
89 90 1
90 91 1
91 92 1
92 93 1
93 94 1
94 95 1
95 96 1
96 97 1
97 98 1
98 99 1
99 100 1
100 101 1
101 102 1
102 103 1
103 104 1
104 105 1
105 106 1
106 107 1
107 108 1
108 109 1
109 110 1
110 111 1
111 112 1
112 113 1
113 114 1
114 115 1
115 116 1
116 117 1
117 118 1
118 119 1
119 120 1
120 121 1
121 122 1
122 123 1
123 124 1
124 125 1
125 126 1
126 1 1

Triangles
636
253 251 258 1
155 246 288 1
211 205 261 1
204 200 261 1
316 179 357 1
241 146 333 1
220 301 352 1
205 204 261 1
288 299 308 1
138 225 227 1
252 251 253 1
146 241 336 1
318 336 341 1
133 213 291 1
155 288 308 1
198 203 323 1
3 175 220 1
301 220 345 1
138 227 300 1
229 139 300 1
265 148 305 1
196 136 302 1
148 265 344 1
212 134 328 1
260 211 261 1
212 324 327 1
199 280 349 1
93 94 232 1
324 141 327 1
134 212 327 1
280 129 349 1
172 259 339 1
157 271 282 1
201 134 303 1
299 159 308 1
136 196 340 1
259 177 339 1
218 192 370 1
220 175 345 1
261 200 349 1
323 203 337 1
100 101 252 1
154 100 252 1
153 93 232 1
28 29 300 1
278 266 377 1
135 278 377 1
137 221 223 1
336 237 341 1
246 155 289 1
157 282 335 1
225 138 296 1
192 197 370 1
310 255 315 1
234 120 362 1
200 204 321 1
318 146 336 1
119 120 234 1
137 223 296 1
221 137 290 1
213 133 304 1
216 290 320 1
232 94 284 1
243 244 245 1
179 53 357 1
204 185 321 1
26 298 342 1
216 221 290 1
144 257 279 1
315 255 367 1
158 250 251 1
298 26 365 1
227 229 300 1
215 216 320 1
165 282 356 1
83 129 280 1
268 266 278 1
109 167 244 1
302 147 329 1
291 213 374 1
154 252 253 1
289 151 353 1
128 203 370 1
174 235 372 1
94 95 284 1
134 201 328 1
173 180 360 1
108 109 244 1
141 215 320 1
158 249 250 1
243 245 353 1
139 229 368 1
30 31 296 1
223 225 296 1
29 138 300 1
196 302 329 1
134 37 303 1
245 289 353 1
181 136 313 1
132 277 278 1
122 123 170 1
139 28 300 1
241 145 322 1
101 158 252 1
190 189 198 1
2 3 220 1
257 250 279 1
40 136 181 1
309 254 325 1
211 260 338 1
136 41 302 1
244 167 245 1
215 141 324 1
130 181 182 1
282 165 335 1
175 334 351 1
238 242 243 1
184 186 187 1
247 248 249 1
121 170 362 1
294 159 299 1
95 152 284 1
159 294 334 1
120 121 362 1
236 237 239 1
180 55 360 1
183 182 184 1
187 188 189 1
126 1 174 1
126 174 372 1
112 113 233 1
263 266 267 1
176 50 259 1
49 176 283 1
238 164 242 1
288 171 299 1
53 179 359 1
198 323 379 1
166 301 345 1
323 127 379 1
256 276 325 1
254 256 325 1
124 125 162 1
31 137 296 1
251 250 257 1
314 343 353 1
55 56 360 1
187 189 190 1
267 266 268 1
249 248 250 1
188 192 218 1
262 263 267 1
236 164 237 1
113 114 293 1
264 269 270 1
103 247 249 1
334 294 351 1
46 169 269 1
274 273 275 1
184 182 186 1
114 166 293 1
106 164 236 1
48 49 283 1
51 52 177 1
130 39 181 1
99 154 309 1
58 59 173 1
234 162 235 1
245 167 246 1
203 218 370 1
198 189 203 1
145 319 322 1
246 167 287 1
138 30 296 1
90 149 330 1
203 128 337 1
272 273 274 1
307 344 369 1
269 169 270 1
242 108 244 1
154 254 309 1
130 182 183 1
319 279 322 1
130 183 303 1
262 160 263 1
306 356 358 1
271 281 282 1
241 239 336 1
152 272 274 1
240 241 322 1
237 164 238 1
38 39 130 1
183 201 303 1
171 112 233 1
44 160 262 1
45 46 269 1
271 169 281 1
190 198 199 1
192 194 197 1
164 107 242 1
154 253 254 1
187 186 188 1
307 148 344 1
186 182 313 1
161 236 239 1
233 113 293 1
152 96 272 1
82 83 280 1
118 119 168 1
312 361 373 1
246 287 288 1
197 292 331 1
284 152 297 1
149 285 330 1
195 268 277 1
161 105 236 1
105 106 236 1
187 190 321 1
147 262 267 1
254 253 255 1
292 197 375 1
149 91 286 1
40 41 136 1
250 248 279 1
245 246 289 1
1 2 219 1
191 186 313 1
243 242 244 1
270 169 271 1
76 77 292 1
39 40 181 1
304 133 330 1
287 171 288 1
272 156 273 1
251 257 371 1
240 239 241 1
54 55 180 1
83 84 129 1
247 240 248 1
158 102 249 1
263 264 265 1
91 92 286 1
147 43 262 1
36 37 134 1
107 108 242 1
202 185 204 1
60 178 332 1
263 160 264 1
275 273 276 1
282 283 356 1
167 110 287 1
106 107 164 1
313 136 340 1
109 110 167 1
185 184 321 1
281 48 283 1
258 251 371 1
183 184 185 1
104 105 161 1
161 240 247 1
111 112 171 1
43 44 262 1
42 43 147 1
102 103 249 1
169 47 281 1
97 156 272 1
263 265 266 1
265 264 344 1
231 295 298 1
88 133 291 1
230 284 297 1
274 275 295 1
282 281 283 1
116 117 163 1
51 177 259 1
101 102 158 1
145 241 333 1
49 50 176 1
132 278 354 1
231 230 297 1
268 195 329 1
152 274 297 1
111 171 287 1
254 255 256 1
99 100 154 1
60 61 178 1
278 135 354 1
361 276 373 1
95 96 152 1
158 251 252 1
96 97 272 1
97 98 156 1
92 153 286 1
47 48 281 1
3 4 175 1
160 45 269 1
277 268 278 1
161 239 240 1
46 47 169 1
276 273 325 1
292 77 331 1
44 45 160 1
114 115 166 1
92 93 153 1
90 91 149 1
280 199 379 1
104 161 247 1
110 111 287 1
88 89 133 1
34 35 141 1
144 279 319 1
36 134 327 1
295 231 297 1
207 205 211 1
285 304 330 1
86 87 131 1
137 32 290 1
171 233 299 1
217 214 304 1
32 33 290 1
264 160 269 1
103 104 247 1
162 234 382 1
214 213 304 1
257 144 317 1
258 143 367 1
78 79 128 1
50 51 259 1
147 267 329 1
31 32 137 1
34 141 320 1
189 188 218 1
190 200 321 1
168 119 234 1
182 181 313 1
149 286 348 1
184 187 321 1
41 42 302 1
237 238 341 1
290 33 320 1
5 6 159 1
128 79 337 1
75 76 132 1
38 130 303 1
260 85 338 1
73 74 135 1
229 230 231 1
141 35 327 1
65 66 172 1
248 240 322 1
202 204 205 1
29 30 138 1
255 310 378 1
98 99 309 1
37 38 303 1
67 68 165 1
188 191 192 1
274 295 297 1
69 70 157 1
192 193 194 1
156 309 325 1
239 237 336 1
7 8 155 1
59 60 332 1
125 126 372 1
42 147 302 1
132 76 292 1
87 88 291 1
71 72 148 1
194 195 277 1
153 232 381 1
9 10 151 1
233 293 294 1
227 228 229 1
115 116 301 1
27 28 139 1
225 226 227 1
156 98 309 1
222 217 285 1
84 85 260 1
11 12 150 1
24 25 140 1
285 217 304 1
72 73 305 1
70 71 307 1
13 14 146 1
22 23 142 1
21 22 310 1
253 258 367 1
15 16 145 1
17 18 144 1
223 224 225 1
197 194 375 1
19 20 143 1
117 118 311 1
267 268 329 1
166 115 301 1
221 222 223 1
255 253 367 1
163 117 311 1
229 228 230 1
227 226 228 1
6 7 308 1
23 24 312 1
216 214 217 1
230 228 232 1
33 34 320 1
210 214 215 1
89 90 330 1
225 224 226 1
223 222 224 1
230 232 284 1
20 21 315 1
215 214 216 1
216 217 221 1
10 11 314 1
73 135 305 1
279 248 322 1
18 19 317 1
221 217 222 1
16 17 319 1
66 67 306 1
12 13 318 1
157 70 307 1
159 6 308 1
306 165 356 1
176 259 358 1
143 315 367 1
286 153 366 1
343 243 353 1
148 72 305 1
210 213 214 1
124 162 346 1
210 209 213 1
67 165 306 1
71 148 307 1
86 131 338 1
192 191 193 1
194 193 195 1
206 205 207 1
77 78 331 1
201 185 202 1
7 155 308 1
219 2 220 1
175 4 334 1
151 314 353 1
116 163 301 1
24 140 312 1
178 180 332 1
208 207 209 1
188 186 191 1
208 209 210 1
22 142 310 1
264 270 344 1
142 23 312 1
131 87 291 1
233 294 299 1
273 156 325 1
151 10 314 1
79 80 337 1
21 310 315 1
276 256 373 1
5 159 334 1
206 208 212 1
11 150 314 1
356 176 358 1
143 20 315 1
19 143 317 1
150 12 318 1
80 81 323 1
180 173 332 1
144 18 317 1
17 144 319 1
13 146 318 1
293 166 351 1
145 16 319 1
206 207 208 1
202 205 206 1
183 185 201 1
170 123 346 1
338 131 355 1
81 82 127 1
129 260 261 1
203 189 218 1
210 215 324 1
298 295 363 1
285 149 348 1
213 209 374 1
69 157 335 1
118 168 311 1
129 84 260 1
63 64 326 1
35 36 327 1
235 174 350 1
195 193 196 1
348 286 366 1
25 26 342 1
172 66 306 1
15 145 333 1
366 153 381 1
165 68 335 1
206 212 328 1
146 14 333 1
62 63 179 1
14 15 333 1
238 243 343 1
357 54 376 1
208 210 324 1
271 157 369 1
123 124 346 1
201 202 328 1
202 206 328 1
61 62 316 1
133 89 330 1
190 199 200 1
135 74 354 1
212 208 324 1
65 172 339 1
4 5 334 1
289 155 380 1
177 52 359 1
68 69 335 1
85 86 338 1
222 285 348 1
151 289 380 1
199 198 379 1
26 27 365 1
52 53 359 1
301 163 352 1
195 196 329 1
78 128 331 1
64 65 339 1
191 313 340 1
344 270 369 1
209 207 355 1
9 151 380 1
121 122 170 1
75 132 354 1
277 132 375 1
211 338 355 1
283 176 356 1
193 191 340 1
232 228 381 1
81 127 323 1
155 8 380 1
342 298 363 1
62 179 316 1
168 234 235 1
143 258 371 1
235 162 372 1
256 255 378 1
142 312 373 1
229 231 368 1
294 293 351 1
174 1 219 1
166 345 351 1
127 280 379 1
132 292 375 1
361 140 363 1
162 125 372 1
57 58 364 1
219 220 352 1
140 25 342 1
129 261 349 1
58 173 364 1
326 64 339 1
196 193 340 1
150 318 341 1
341 238 343 1
177 326 339 1
157 307 369 1
326 177 359 1
314 150 343 1
80 323 337 1
74 75 354 1
150 341 343 1
179 63 326 1
224 222 348 1
265 305 377 1
163 311 347 1
275 276 361 1
231 298 368 1
275 361 363 1
209 355 374 1
270 271 369 1
305 135 377 1
295 275 363 1
266 265 377 1
259 172 358 1
207 211 355 1
127 82 280 1
194 277 375 1
331 128 370 1
174 219 347 1
224 348 366 1
178 61 316 1
200 199 349 1
178 316 357 1
27 139 365 1
8 9 380 1
311 168 350 1
226 224 366 1
312 140 361 1
56 57 364 1
317 143 371 1
226 366 381 1
172 306 358 1
131 291 374 1
228 226 381 1
197 331 370 1
140 342 363 1
168 235 350 1
173 59 332 1
234 362 382 1
310 142 378 1
178 357 376 1
345 175 351 1
257 317 371 1
179 326 359 1
347 311 350 1
355 131 374 1
174 347 350 1
347 219 352 1
163 347 352 1
346 162 382 1
298 365 368 1
360 56 364 1
180 178 376 1
365 139 368 1
142 373 378 1
362 170 382 1
54 180 376 1
373 256 378 1
170 346 382 1
173 360 364 1
53 54 357 1

End
