MeshVersionFormatted 2
Dimension 3

Vertices
192
-3.0071202914557510e-01 -3.2965479820438549e-02 0.0000000000000000e+00 1
-3.0639619063676415e-01 -3.4065767810699810e-02 0.0000000000000000e+00 1
-3.1075817530043792e-01 -3.5010447481526548e-02 0.0000000000000000e+00 1
-3.1384548897386405e-01 -3.5804670859077826e-02 0.0000000000000000e+00 1
-3.1570563749431069e-01 -3.6453589969512701e-02 0.0000000000000000e+00 1
-3.1638612669904553e-01 -3.6962356838990240e-02 0.0000000000000000e+00 1
-3.1593446242533657e-01 -3.7336123493669472e-02 0.0000000000000000e+00 1
-3.1439815051045172e-01 -3.7580041959709480e-02 0.0000000000000000e+00 1
-3.1182469679165870e-01 -3.7699264263269291e-02 0.0000000000000000e+00 1
-3.0826160710622552e-01 -3.7698942430507976e-02 0.0000000000000000e+00 1
-3.0375638729142007e-01 -3.7584228487584595e-02 0.0000000000000000e+00 1
-2.9835654318451021e-01 -3.7360274460658198e-02 0.0000000000000000e+00 1
-2.9210958062276360e-01 -3.7032232375887798e-02 0.0000000000000000e+00 1
-2.8506300544344854e-01 -3.6605254259432528e-02 0.0000000000000000e+00 1
-2.7726432348383251e-01 -3.6084492137451386e-02 0.0000000000000000e+00 1
-2.6876104058118366e-01 -3.5475098036103450e-02 0.0000000000000000e+00 1
-2.5960066257276981e-01 -3.4782223981547761e-02 0.0000000000000000e+00 1
-2.4983069529585877e-01 -3.4011021999943387e-02 0.0000000000000000e+00 1
-2.3949864458771852e-01 -3.3166644117449379e-02 0.0000000000000000e+00 1
-2.2865201628561677e-01 -3.2254242360224769e-02 0.0000000000000000e+00 1
-2.1733831622682173e-01 -3.1278968754428656e-02 0.0000000000000000e+00 1
-2.0560505024860082e-01 -3.0245975326220049e-02 0.0000000000000000e+00 1
-1.9349972418822231e-01 -2.9160414101758039e-02 0.0000000000000000e+00 1
-1.8106984388295388e-01 -2.8027437107201663e-02 0.0000000000000000e+00 1
-1.6836291517006349e-01 -2.6852196368709978e-02 0.0000000000000000e+00 1
-1.5542644388681900e-01 -2.5639843912442034e-02 0.0000000000000000e+00 1
-1.4230793587048834e-01 -2.4395531764556899e-02 0.0000000000000000e+00 1
-1.2905489695833930e-01 -2.3124411951213616e-02 0.0000000000000000e+00 1
-1.1571483298763975e-01 -2.1831636498571238e-02 0.0000000000000000e+00 1
-1.0233524979565768e-01 -2.0522357432788831e-02 0.0000000000000000e+00 1
-8.8963653219660932e-02 -1.9201726780025446e-02 0.0000000000000000e+00 1
-7.5647549096917358e-02 -1.7874896566440136e-02 0.0000000000000000e+00 1
-6.2434443264694869e-02 -1.6547018818191948e-02 0.0000000000000000e+00 1
-4.9371841560261295e-02 -1.5223245561439952e-02 0.0000000000000000e+00 1
-3.6507249820884588e-02 -1.3908728822343190e-02 0.0000000000000000e+00 1
-2.3888173883832565e-02 -1.2608620627060724e-02 0.0000000000000000e+00 1
-1.1562119586373137e-02 -1.1328073001751602e-02 0.0000000000000000e+00 1
4.2340723422587198e-04 -1.0072237972574878e-02 0.0000000000000000e+00 1
1.2020900740696481e-02 -8.8462675656896198e-03 0.0000000000000000e+00 1
2.3182855095770834e-02 -7.6553138072548727e-03 0.0000000000000000e+00 1
3.3861764462181088e-02 -6.5045287234296919e-03 0.0000000000000000e+00 1
4.4010123002659343e-02 -5.3990643403731328e-03 0.0000000000000000e+00 1
5.3580424879937721e-02 -4.3440726842442498e-03 0.0000000000000000e+00 1
6.2525164256748339e-02 -3.3447057812020977e-03 0.0000000000000000e+00 1
7.0796835295823354e-02 -2.4061156574057265e-03 0.0000000000000000e+00 1
7.8347932159894815e-02 -1.5334543390142011e-03 0.0000000000000000e+00 1
8.5130949011694865e-02 -7.3187385218657030e-04 0.0000000000000000e+00 1
9.0360662547987303e-02 -7.5487466255952851e-05 0.0000000000000000e+00 1
9.6364560862687368e-02 7.3175950592728706e-04 0.0000000000000000e+00 1
1.0307585987769093e-01 1.6785805670765307e-03 0.0000000000000000e+00 1
1.1042777551489387e-01 2.7536892199051602e-03 0.0000000000000000e+00 1
1.1835352369619222e-01 3.9457989671265580e-03 0.0000000000000000e+00 1
1.2678632034348175e-01 5.2436233114541023e-03 0.0000000000000000e+00 1
1.3565938137865849e-01 6.6358757556011800e-03 0.0000000000000000e+00 1
1.4490592272361821e-01 8.1112698022811677e-03 0.0000000000000000e+00 1
1.5445916030025697e-01 9.6585189542074505e-03 0.0000000000000000e+00 1
1.6425231003047053e-01 1.1266336714093408e-02 0.0000000000000000e+00 1
1.7421858783615499e-01 1.2923436584652424e-02 0.0000000000000000e+00 1
1.8429120963920598e-01 1.4618532068597872e-02 0.0000000000000000e+00 1
1.9440339136151966e-01 1.6340336668643145e-02 0.0000000000000000e+00 1
2.0448834892499188e-01 1.8077563887501622e-02 0.0000000000000000e+00 1
2.1447929825151846e-01 1.9818927227886675e-02 0.0000000000000000e+00 1
2.2430945526299539e-01 2.1553140192511699e-02 0.0000000000000000e+00 1
2.3391203588131856e-01 2.3268916284090068e-02 0.0000000000000000e+00 1
2.4322025602838390e-01 2.4954969005335167e-02 0.0000000000000000e+00 1
2.5216733162608723e-01 2.6600011858960371e-02 0.0000000000000000e+00 1
2.6068647859632460e-01 2.8192758347679071e-02 0.0000000000000000e+00 1
2.6871091286099180e-01 2.9721921974204639e-02 0.0000000000000000e+00 1
2.7617385034198477e-01 3.1176216241250467e-02 0.0000000000000000e+00 1
2.8300850696119950e-01 3.2544354651529925e-02 0.0000000000000000e+00 1
2.8914809864053176e-01 3.3815050707756401e-02 0.0000000000000000e+00 1
2.9452584130187753e-01 3.4977017912643273e-02 0.0000000000000000e+00 1
2.9907495086713276e-01 3.6018969768903931e-02 0.0000000000000000e+00 1
3.0272864325819332e-01 3.6929619779251764e-02 0.0000000000000000e+00 1
3.0542013439695509e-01 3.7697681446400122e-02 0.0000000000000000e+00 1
3.0708264020531401e-01 3.8311868273062412e-02 0.0000000000000000e+00 1
3.0764937660516595e-01 3.8760893761952006e-02 0.0000000000000000e+00 1
3.0705355951840690e-01 3.9033471415782298e-02 0.0000000000000000e+00 1
3.0522840486693270e-01 3.9118314737266652e-02 0.0000000000000000e+00 1
3.0210712857263927e-01 3.9004137229118462e-02 0.0000000000000000e+00 1
2.9762294655742255e-01 3.8679652394051099e-02 0.0000000000000000e+00 1
2.8903851513075934e-01 3.7956970066004188e-02 0.0000000000000000e+00 1
2.8025014602898535e-01 3.7206121814753773e-02 0.0000000000000000e+00 1
2.7126550943047756e-01 3.6427653035486098e-02 0.0000000000000000e+00 1
2.6209227551361303e-01 3.5622109123387452e-02 0.0000000000000000e+00 1
2.5273811445676875e-01 3.4790035473644107e-02 0.0000000000000000e+00 1
2.4321069643832186e-01 3.3931977481442346e-02 0.0000000000000000e+00 1
2.3351769163664926e-01 3.3048480541968427e-02 0.0000000000000000e+00 1
2.2366677023012801e-01 3.2140090050408625e-02 0.0000000000000000e+00 1
2.1366560239713525e-01 3.1207351401949232e-02 0.0000000000000000e+00 1
2.0352185831604788e-01 3.0250809991776494e-02 0.0000000000000000e+00 1
1.9324320816524290e-01 2.9271011215076689e-02 0.0000000000000000e+00 1
1.8283732212309756e-01 2.8268500467036117e-02 0.0000000000000000e+00 1
1.7231187036798862e-01 2.7243823142841024e-02 0.0000000000000000e+00 1
1.6167452307829325e-01 2.6197524637677681e-02 0.0000000000000000e+00 1
1.5093295043238850e-01 2.5130150346732383e-02 0.0000000000000000e+00 1
1.4009482260865133e-01 2.4042245665191392e-02 0.0000000000000000e+00 1
1.2916780978545880e-01 2.2934355988240972e-02 0.0000000000000000e+00 1
1.1815958214118796e-01 2.1807026711067413e-02 0.0000000000000000e+00 1
1.0707780985421581e-01 2.0660803228856977e-02 0.0000000000000000e+00 1
9.5930163102919366e-02 1.9496230936795939e-02 0.0000000000000000e+00 1
8.4724312065675780e-02 1.8313855230070588e-02 0.0000000000000000e+00 1
7.3467926920861862e-02 1.7114221503867162e-02 0.0000000000000000e+00 1
6.2168677846854800e-02 1.5897875153371963e-02 0.0000000000000000e+00 1
5.0834235022031632e-02 1.4665361573771267e-02 0.0000000000000000e+00 1
3.9472268624769311e-02 1.3417226160251329e-02 0.0000000000000000e+00 1
2.8090448833444828e-02 1.2154014307998425e-02 0.0000000000000000e+00 1
1.6696445826435386e-02 1.0876271412198843e-02 0.0000000000000000e+00 1
5.2979297821178946e-03 9.5845428680388419e-03 0.0000000000000000e+00 1
-6.0974291211306590e-03 8.2793740707046981e-03 0.0000000000000000e+00 1
-1.7481960704933169e-02 6.9613104153826849e-03 0.0000000000000000e+00 1
-2.8847994790912528e-02 5.6308972972590882e-03 0.0000000000000000e+00 1
-4.0187861200691885e-02 4.2886801115201599e-03 0.0000000000000000e+00 1
-5.1493889755894154e-02 2.9352042533521824e-03 0.0000000000000000e+00 1
-6.2758410278142177e-02 1.5710151179414427e-03 0.0000000000000000e+00 1
-7.3973752589059097e-02 1.9665810047419055e-04 0.0000000000000000e+00 1
-8.5132246510267837e-02 -1.1873214038632914e-03 0.0000000000000000e+00 1
-9.6226221863391234e-02 -2.5803779998847167e-03 0.0000000000000000e+00 1
-1.0724800847005249e-01 -3.9819662924038372e-03 0.0000000000000000e+00 1
-1.1818993615187441e-01 -5.3915408862343630e-03 0.0000000000000000e+00 1
-1.2904433473047999e-01 -6.8085563861900247e-03 0.0000000000000000e+00 1
-1.3980353402749218e-01 -8.2324673970845409e-03 0.0000000000000000e+00 1
-1.5045986386453405e-01 -9.6627285237316542e-03 0.0000000000000000e+00 1
-1.6100565406322848e-01 -1.1098794370945081e-02 0.0000000000000000e+00 1
-1.7143323444519842e-01 -1.2540119543538543e-02 0.0000000000000000e+00 1
-1.8173493483206699e-01 -1.3986158646325785e-02 0.0000000000000000e+00 1
-1.9190308504545703e-01 -1.5436366284120524e-02 0.0000000000000000e+00 1
-2.0193001490699142e-01 -1.6890197061736466e-02 0.0000000000000000e+00 1
-2.1180805423829341e-01 -1.8347105583987382e-02 0.0000000000000000e+00 1
-2.2152953286098573e-01 -1.9806546455686965e-02 0.0000000000000000e+00 1
-2.3108678059669141e-01 -2.1267974281648939e-02 0.0000000000000000e+00 1
-2.4047212726703343e-01 -2.2730843666687060e-02 0.0000000000000000e+00 1
-2.4967790269363488e-01 -2.4194609215615035e-02 0.0000000000000000e+00 1
-2.5869643669811848e-01 -2.5658725533246583e-02 0.0000000000000000e+00 1
-2.6752005910210741e-01 -2.7122647224395450e-02 0.0000000000000000e+00 1
-2.7614109972722456e-01 -2.8585828893875353e-02 0.0000000000000000e+00 1
-2.8455188839509288e-01 -3.0047725146500014e-02 0.0000000000000000e+00 1
-2.9274475492733543e-01 -3.1507790587083168e-02 0.0000000000000000e+00 1
9.2719634972125667e-02 5.4563321247174511e-03 0.0000000000000000e+00 1
8.1124499970054040e-02 4.0709962079758851e-03 0.0000000000000000e+00 1
1.0579541521415978e-01 8.5397587482632376e-03 0.0000000000000000e+00 1
5.7131338684618768e-02 5.1576190321695843e-03 0.0000000000000000e+00 1
6.7523099611865381e-02 6.8287702583484551e-03 0.0000000000000000e+00 1
4.6906137352471046e-02 4.5043737191981844e-03 0.0000000000000000e+00 1
1.2148003788864269e-01 1.1676386935895160e-02 0.0000000000000000e+00 1
7.5076870971631460e-02 3.5452858829516688e-03 0.0000000000000000e+00 1
3.0382003170136906e-01 3.8204985228963532e-02 0.0000000000000000e+00 1
1.3043065997249378e-01 1.2305588722321240e-02 0.0000000000000000e+00 1
9.8891565254789066e-02 6.5317462569823917e-03 0.0000000000000000e+00 1
1.1354902405154872e-01 1.1563910635185751e-02 0.0000000000000000e+00 1
3.6408433900809570e-02 3.5291725736143103e-03 0.0000000000000000e+00 1
8.7625294073399362e-02 3.8732526661753490e-03 0.0000000000000000e+00 1
1.5369385119853371e-02 7.1029877497099628e-04 0.0000000000000000e+00 1
1.3905975046622715e-01 1.5037701620414786e-02 0.0000000000000000e+00 1
2.5601555539749174e-02 2.1849857563496682e-03 0.0000000000000000e+00 1
3.9645218528952097e-03 -5.4440062962193131e-04 0.0000000000000000e+00 1
1.4793125558510453e-01 1.6646367510812943e-02 0.0000000000000000e+00 1
8.7778404401703189e-02 1.0393599161127266e-02 0.0000000000000000e+00 1
-4.4511494176291730e-02 -5.4218899272180567e-03 0.0000000000000000e+00 1
-5.6316647018351887e-02 -6.7097623136775650e-03 0.0000000000000000e+00 1
1.5787890080498265e-01 1.8047427991129725e-02 0.0000000000000000e+00 1
-8.8178918763066848e-03 -1.5078170615044058e-03 0.0000000000000000e+00 1
-3.2682757467522916e-02 -4.0604228698346879e-03 0.0000000000000000e+00 1
-2.0546816384980165e-02 -2.8187876412516071e-03 0.0000000000000000e+00 1
1.6802320540338248e-01 1.9385669783254497e-02 0.0000000000000000e+00 1
-6.8282002216988769e-02 -7.9759574890702171e-03 0.0000000000000000e+00 1
-1.2285242478744419e-01 -1.4156058277387246e-02 0.0000000000000000e+00 1
1.7832151109232966e-01 2.0730372114079638e-02 0.0000000000000000e+00 1
-1.1118157656713196e-01 -1.2822499730025251e-02 0.0000000000000000e+00 1
-1.7562662190638312e-01 -2.0221365989602391e-02 0.0000000000000000e+00 1
1.0075952539199835e-01 1.3778903884106712e-02 0.0000000000000000e+00 1
-8.0284313777979524e-02 -9.2787157521925026e-03 0.0000000000000000e+00 1
7.8085224370361778e-02 1.0250677060951245e-02 0.0000000000000000e+00 1
-9.9276898158479579e-02 -1.1456329768226367e-02 0.0000000000000000e+00 1
1.8858458683105206e-01 2.2074339888593787e-02 0.0000000000000000e+00 1
-8.9976666705955818e-02 -8.7408943408384659e-03 0.0000000000000000e+00 1
3.0606546732803985e-01 3.8508030582162664e-02 0.0000000000000000e+00 1
-1.3454528270589280e-01 -1.5423751043839196e-02 0.0000000000000000e+00 1
-2.8861730734716007e-01 -3.3798250592225881e-02 0.0000000000000000e+00 1
1.9879228969880758e-01 2.3422683234830377e-02 0.0000000000000000e+00 1
-1.6444618543228817e-01 -1.8903246748413281e-02 0.0000000000000000e+00 1
9.5215858624707134e-02 1.1131362472745952e-02 0.0000000000000000e+00 1
-1.4438777191808880e-01 -1.4956327806890790e-02 0.0000000000000000e+00 1
-1.8665304566754881e-01 -2.1456099633084057e-02 0.0000000000000000e+00 1
-2.9598072697004607e-01 -3.4716444311016927e-02 0.0000000000000000e+00 1
-1.5300564250590779e-01 -1.7442745521163289e-02 0.0000000000000000e+00 1
2.0890575682278090e-01 2.4767650356899415e-02 0.0000000000000000e+00 1
-2.3491861564230665e-01 -2.7260742508669753e-02 0.0000000000000000e+00 1
2.1810142730401716e-01 2.5846492638726310e-02 0.0000000000000000e+00 1
-2.2581691967943290e-01 -2.5944704287879473e-02 0.0000000000000000e+00 1
-1.9599943142630888e-01 -2.2278812206173448e-02 0.0000000000000000e+00 1
-2.4429775211634869e-01 -2.8351014308375395e-02 0.0000000000000000e+00 1

Edges
138
1 2 1
2 3 1
3 4 1
4 5 1
5 6 1
6 7 1
7 8 1
8 9 1
9 10 1
10 11 1
11 12 1
12 13 1
13 14 1
14 15 1
15 16 1
16 17 1
17 18 1
18 19 1
19 20 1
20 21 1
21 22 1
22 23 1
23 24 1
24 25 1
25 26 1
26 27 1
27 28 1
28 29 1
29 30 1
30 31 1
31 32 1
32 33 1
33 34 1
34 35 1
35 36 1
36 37 1
37 38 1
38 39 1
39 40 1
40 41 1
41 42 1
42 43 1
43 44 1
44 45 1
45 46 1
46 47 1
47 48 1
48 49 1
49 50 1
50 51 1
51 52 1
52 53 1
53 54 1
54 55 1
55 56 1
56 57 1
57 58 1
58 59 1
59 60 1
60 61 1
61 62 1
62 63 1
63 64 1
64 65 1
65 66 1
66 67 1
67 68 1
68 69 1
69 70 1
70 71 1
71 72 1
72 73 1
73 74 1
74 75 1
75 76 1
76 77 1
77 78 1
78 79 1
79 80 1
80 81 1
81 82 1
82 83 1
83 84 1
84 85 1
85 86 1
86 87 1
87 88 1
88 89 1
89 90 1
90 91 1
91 92 1
92 93 1
93 94 1
94 95 1
95 96 1
96 97 1
97 98 1
98 99 1
99 100 1
100 101 1
101 102 1
102 103 1
103 104 1
104 105 1
105 106 1
106 107 1
107 108 1
108 109 1
109 110 1
110 111 1
111 112 1
112 113 1
113 114 1
114 115 1
115 116 1
116 117 1
117 118 1
118 119 1
119 120 1
120 121 1
121 122 1
122 123 1
123 124 1
124 125 1
125 126 1
126 127 1
127 128 1
128 129 1
129 130 1
130 131 1
131 132 1
132 133 1
133 134 1
134 135 1
135 136 1
136 137 1
137 138 1
138 1 1

Triangles
244
64 89 63 1
4 9 3 1
88 89 64 1
129 130 21 1
128 129 22 1
22 129 21 1
86 87 66 1
100 141 150 1
15 137 14 1
85 86 67 1
162 111 164 1
136 137 15 1
87 88 65 1
2 11 1 1
44 45 143 1
99 100 150 1
98 145 148 1
65 88 64 1
3 10 2 1
66 87 65 1
84 85 68 1
37 162 164 1
104 105 142 1
67 86 66 1
133 134 18 1
18 134 17 1
98 99 145 1
104 142 143 1
145 99 150 1
140 152 158 1
16 136 15 1
140 158 173 1
9 10 3 1
135 136 16 1
17 135 16 1
70 83 69 1
134 135 17 1
108 109 153 1
153 109 156 1
128 22 191 1
11 12 1 1
109 110 156 1
68 85 67 1
156 110 162 1
142 44 143 1
141 100 171 1
42 43 144 1
142 105 144 1
143 146 173 1
110 111 162 1
73 81 72 1
10 11 2 1
43 142 144 1
98 148 154 1
103 143 173 1
107 108 155 1
41 42 151 1
42 144 151 1
97 98 154 1
103 104 143 1
108 153 155 1
12 13 185 1
6 7 5 1
101 158 182 1
158 102 173 1
27 183 186 1
143 45 146 1
69 84 68 1
36 37 164 1
31 172 176 1
13 14 179 1
31 32 172 1
101 102 158 1
21 130 190 1
26 27 186 1
106 107 151 1
105 106 144 1
96 97 157 1
40 41 155 1
30 31 174 1
174 31 176 1
75 79 147 1
35 36 163 1
151 107 155 1
43 44 142 1
97 154 157 1
1 12 185 1
76 78 177 1
41 151 155 1
163 36 164 1
46 47 140 1
22 23 191 1
144 106 151 1
54 55 154 1
53 54 148 1
52 53 145 1
32 33 166 1
45 46 146 1
39 40 153 1
50 51 141 1
51 52 150 1
48 49 139 1
49 50 149 1
95 96 161 1
55 56 157 1
39 153 156 1
38 39 156 1
27 28 178 1
34 35 159 1
38 156 162 1
113 114 159 1
114 115 160 1
56 57 161 1
33 34 160 1
154 55 157 1
148 54 154 1
102 103 173 1
37 38 162 1
96 157 161 1
32 166 172 1
112 113 163 1
63 89 189 1
25 26 181 1
157 56 161 1
111 112 164 1
145 53 148 1
57 58 165 1
94 95 165 1
29 30 169 1
80 74 147 1
161 57 165 1
52 145 150 1
159 114 160 1
153 40 155 1
113 159 163 1
23 24 184 1
27 178 183 1
112 163 164 1
115 116 166 1
159 35 163 1
20 21 190 1
50 141 149 1
120 121 167 1
141 51 150 1
100 101 171 1
95 161 165 1
165 58 168 1
93 94 168 1
28 29 167 1
160 115 166 1
58 59 168 1
14 137 179 1
19 20 188 1
119 120 169 1
46 140 146 1
92 93 175 1
24 25 170 1
18 19 192 1
116 117 172 1
94 165 168 1
125 126 170 1
91 92 180 1
139 49 149 1
133 18 192 1
168 59 175 1
47 48 152 1
93 168 175 1
92 175 180 1
33 160 166 1
59 60 175 1
118 119 174 1
117 118 176 1
90 91 187 1
91 180 187 1
166 116 172 1
181 26 186 1
121 122 178 1
90 187 189 1
89 90 189 1
34 159 160 1
175 60 180 1
13 138 185 1
60 61 180 1
79 75 177 1
120 167 169 1
169 30 174 1
180 61 187 1
61 62 187 1
62 63 189 1
140 47 152 1
187 62 189 1
124 125 181 1
138 13 179 1
167 121 178 1
172 117 176 1
122 123 183 1
126 127 184 1
119 169 174 1
131 132 188 1
146 140 173 1
123 124 186 1
118 174 176 1
23 184 191 1
48 139 152 1
149 141 171 1
132 133 192 1
130 131 190 1
77 78 76 1
127 128 191 1
125 170 181 1
170 126 184 1
178 122 183 1
188 132 192 1
131 188 190 1
124 181 186 1
152 139 158 1
183 123 186 1
184 127 191 1
28 167 178 1
167 29 169 1
19 188 192 1
188 20 190 1
170 25 181 1
24 170 184 1
171 101 182 1
149 171 182 1
139 149 182 1
158 139 182 1
138 1 185 1
81 82 72 1
74 75 147 1
75 76 177 1
78 79 177 1
79 80 147 1
137 138 179 1
5 8 4 1
8 9 4 1
7 8 5 1
83 84 69 1
71 82 70 1
82 83 70 1
72 82 71 1
74 80 73 1
80 81 73 1

End
