MeshVersionFormatted 2
Dimension 3

Vertices
175
-2.0035735872432517e-01 -1.3022581800480612e-01 0.0000000000000000e+00 1
-1.9434761232665848e-01 -1.2693611982881189e-01 0.0000000000000000e+00 1
-1.8811297098232097e-01 -1.2347871050054698e-01 0.0000000000000000e+00 1
-1.8166265452230232e-01 -1.1985972646024451e-01 0.0000000000000000e+00 1
-1.7500588277759252e-01 -1.1608530414813781e-01 0.0000000000000000e+00 1
-1.6815187557918135e-01 -1.1216158000446001e-01 0.0000000000000000e+00 1
-1.6110985275805864e-01 -1.0809469046944432e-01 0.0000000000000000e+00 1
-1.5388903414521443e-01 -1.0389077198332407e-01 0.0000000000000000e+00 1
-1.4649863957163839e-01 -9.9555960986332306e-02 0.0000000000000000e+00 1
-1.3894788886832043e-01 -9.5096393918702324e-02 0.0000000000000000e+00 1
-1.3124600186625054e-01 -9.0518207220667404e-02 0.0000000000000000e+00 1
-1.2340219839641839e-01 -8.5827537332460596e-02 0.0000000000000000e+00 1
-1.1542569828981397e-01 -8.1030520694315239e-02 0.0000000000000000e+00 1
-1.0732572137742713e-01 -7.6133293746464534e-02 0.0000000000000000e+00 1
-9.9111487490247674e-02 -7.1141992929141654e-02 0.0000000000000000e+00 1
-9.0792216459265468e-02 -6.6062754682579813e-02 0.0000000000000000e+00 1
-8.2377128115470488e-02 -6.0901715447012277e-02 0.0000000000000000e+00 1
-7.3875442289852433e-02 -5.5665011662672188e-02 0.0000000000000000e+00 1
-6.5296378813401224e-02 -5.0358779769792791e-02 0.0000000000000000e+00 1
-5.6649157517106773e-02 -4.4989156208607294e-02 0.0000000000000000e+00 1
-4.7942998231958918e-02 -3.9562277419348937e-02 0.0000000000000000e+00 1
-3.9187120788947455e-02 -3.4084279842250882e-02 0.0000000000000000e+00 1
-3.0390745019062304e-02 -2.8561299917546364e-02 0.0000000000000000e+00 1
-2.1563090753293355e-02 -2.2999474085468631e-02 0.0000000000000000e+00 1
-1.2713377822630396e-02 -1.7404938786250830e-02 0.0000000000000000e+00 1
-3.8508260580633197e-03 -1.1783830460126210e-02 0.0000000000000000e+00 1
5.0153447094179598e-03 -6.1422855473280179e-03 0.0000000000000000e+00 1
1.3875914648823685e-02 -4.8644048808938866e-04 0.0000000000000000e+00 1
2.2721663929163950e-02 5.1775682773564169e-03 0.0000000000000000e+00 1
3.1543372719448813e-02 1.0843604308776168e-02 0.0000000000000000e+00 1
4.0331821188688541e-02 1.6505531165936702e-02 0.0000000000000000e+00 1
4.9077789505893150e-02 2.2157212408604750e-02 0.0000000000000000e+00 1
5.7772057840072909e-02 2.7792511596547165e-02 0.0000000000000000e+00 1
6.6405406360237881e-02 3.3405292289530701e-02 0.0000000000000000e+00 1
7.4968615235398162e-02 3.8989418047322109e-02 0.0000000000000000e+00 1
8.3452464634564016e-02 4.4538752429688258e-02 0.0000000000000000e+00 1
9.1847734726745456e-02 5.0047158996395849e-02 0.0000000000000000e+00 1
1.0014520568095273e-01 5.5508501307211737e-02 0.0000000000000000e+00 1
1.0833565766619588e-01 6.0916642921902679e-02 0.0000000000000000e+00 1
1.1640987085148508e-01 6.6265447400235447e-02 0.0000000000000000e+00 1
1.2435862540583048e-01 7.1548778301976881e-02 0.0000000000000000e+00 1
1.3217270149824223e-01 7.6760499186893719e-02 0.0000000000000000e+00 1
1.3984287929773045e-01 8.1894473614752758e-02 0.0000000000000000e+00 1
1.4735993897330527e-01 8.6944565145320812e-02 0.0000000000000000e+00 1
1.5471466069397685e-01 9.1904637338364625e-02 0.0000000000000000e+00 1
1.6189782462875529e-01 9.6768553753651010e-02 0.0000000000000000e+00 1
1.6890021094665081e-01 1.0153017795094677e-01 0.0000000000000000e+00 1
1.7571259981667342e-01 1.0618337349001863e-01 0.0000000000000000e+00 1
1.8232577140783340e-01 1.1072200393063347e-01 0.0000000000000000e+00 1
1.8873050588914084e-01 1.1513993283255801e-01 0.0000000000000000e+00 1
1.9491758342960577e-01 1.1943102375555906e-01 0.0000000000000000e+00 1
2.0087778419823851e-01 1.2358914025940340e-01 0.0000000000000000e+00 1
2.0402837704283153e-01 1.2585999302600026e-01 0.0000000000000000e+00 1
2.0604393987273076e-01 1.2746332100501065e-01 0.0000000000000000e+00 1
2.0698361515192748e-01 1.2843278879082309e-01 0.0000000000000000e+00 1
2.0690654534441330e-01 1.2880206097782620e-01 0.0000000000000000e+00 1
2.0587187291417955e-01 1.2860480216040840e-01 0.0000000000000000e+00 1
2.0393874032521753e-01 1.2787467693295818e-01 0.0000000000000000e+00 1
2.0116629004151887e-01 1.2664534988986420e-01 0.0000000000000000e+00 1
1.9761366452707488e-01 1.2495048562551483e-01 0.0000000000000000e+00 1
1.9334000624587699e-01 1.2282374873429870e-01 0.0000000000000000e+00 1
1.8840445766191657e-01 1.2029880381060430e-01 0.0000000000000000e+00 1
1.8286616123918500e-01 1.1740931544882005e-01 0.0000000000000000e+00 1
1.7678425944167381e-01 1.1418894824333461e-01 0.0000000000000000e+00 1
1.7021789473337443e-01 1.1067136678853642e-01 0.0000000000000000e+00 1
1.6322620957827816e-01 1.0689023567881402e-01 0.0000000000000000e+00 1
1.5586834644037648e-01 1.0287921950855594e-01 0.0000000000000000e+00 1
1.4820344778366085e-01 9.8671982872150718e-02 0.0000000000000000e+00 1
1.4029065607212260e-01 9.4302190363986793e-02 0.0000000000000000e+00 1
1.3218911376975315e-01 8.9803506578452763e-02 0.0000000000000000e+00 1
1.2395796334054396e-01 8.5209596109937086e-02 0.0000000000000000e+00 1
1.1565634724848642e-01 8.0554123552828330e-02 0.0000000000000000e+00 1
1.0734340795757200e-01 7.5870753501515009e-02 0.0000000000000000e+00 1
9.9078287931792020e-02 7.1193150550385595e-02 0.0000000000000000e+00 1
9.0920129635137958e-02 6.6554979293828670e-02 0.0000000000000000e+00 1
8.2928075531601253e-02 6.1989904326232734e-02 0.0000000000000000e+00 1
7.5161268085173261e-02 5.7531590241986286e-02 0.0000000000000000e+00 1
6.7678849759845450e-02 5.3213701635477874e-02 0.0000000000000000e+00 1
6.0539963019609171e-02 4.9069903101095963e-02 0.0000000000000000e+00 1
5.3803750328455906e-02 4.5133859233229136e-02 0.0000000000000000e+00 1
4.7529354150377033e-02 4.1439234626265885e-02 0.0000000000000000e+00 1
4.1775916949363973e-02 3.8019693874594716e-02 0.0000000000000000e+00 1
3.6602581189408158e-02 3.4908901572604172e-02 0.0000000000000000e+00 1
3.2068489334501002e-02 3.2140522314682764e-02 0.0000000000000000e+00 1
2.8232783848633904e-02 2.9748220695219006e-02 0.0000000000000000e+00 1
2.3722170563092664e-02 2.6875153983761082e-02 0.0000000000000000e+00 1
1.8552408802018944e-02 2.3546683677210044e-02 0.0000000000000000e+00 1
1.2771179142711428e-02 1.9794490443802108e-02 0.0000000000000000e+00 1
6.4261621624688049e-03 1.5650254951773496e-02 0.0000000000000000e+00 1
-4.3496156141023187e-04 1.1145657869360434e-02 0.0000000000000000e+00 1
-7.7645114516270049e-03 6.3123798647991385e-03 0.0000000000000000e+00 1
-1.5514806930882814e-02 1.1821016063258364e-03 0.0000000000000000e+00 1
-2.3638167421878971e-02 -4.2134962378232469e-03 0.0000000000000000e+00 1
-3.2086912347316796e-02 -9.8427329994118969e-03 0.0000000000000000e+00 1
-4.0813361129897578e-02 -1.5673928010203883e-02 0.0000000000000000e+00 1
-4.9769833192322664e-02 -2.1675400601963005e-02 0.0000000000000000e+00 1
-5.8908647957293316e-02 -2.7815470106453001e-02 0.0000000000000000e+00 1
-6.8182124847510878e-02 -3.4062455855437677e-02 0.0000000000000000e+00 1
-7.7542583285676675e-02 -4.0384677180680804e-02 0.0000000000000000e+00 1
-8.6942342694491970e-02 -4.6750453413946173e-02 0.0000000000000000e+00 1
-9.6333722496658114e-02 -5.3128103886997534e-02 0.0000000000000000e+00 1
-1.0566904211487643e-01 -5.9485947931598705e-02 0.0000000000000000e+00 1
-1.1490062097184819e-01 -6.5792304879513416e-02 0.0000000000000000e+00 1
-1.2398077849027467e-01 -7.2015494062505458e-02 0.0000000000000000e+00 1
-1.3286183409285729e-01 -7.8123834812338644e-02 0.0000000000000000e+00 1
-1.4149610720229730e-01 -8.4085646460776722e-02 0.0000000000000000e+00 1
-1.4983591724129600e-01 -8.9869248339583471e-02 0.0000000000000000e+00 1
-1.5783358363255470e-01 -9.5442959780522696e-02 0.0000000000000000e+00 1
-1.6544142579877472e-01 -1.0077510011535810e-01 0.0000000000000000e+00 1
-1.7261176316265739e-01 -1.0583398867585354e-01 0.0000000000000000e+00 1
-1.7929691514690396e-01 -1.1058794479377276e-01 0.0000000000000000e+00 1
-1.8544920117421579e-01 -1.1500528780087955e-01 0.0000000000000000e+00 1
-1.9102094066729428e-01 -1.1905433702893770e-01 0.0000000000000000e+00 1
-1.9596445304884055e-01 -1.2270341180971095e-01 0.0000000000000000e+00 1
-2.0023205774155603e-01 -1.2592083147496308e-01 0.0000000000000000e+00 1
-2.0377607416814206e-01 -1.2867491535645792e-01 0.0000000000000000e+00 1
-2.0654882175129982e-01 -1.3093398278595916e-01 0.0000000000000000e+00 1
-2.0850261991373079e-01 -1.3266635309523070e-01 0.0000000000000000e+00 1
-2.0958978807813608e-01 -1.3384034561603622e-01 0.0000000000000000e+00 1
-2.0976264566721717e-01 -1.3442427968013951e-01 0.0000000000000000e+00 1
-2.0897351210367535e-01 -1.3438647461930439e-01 0.0000000000000000e+00 1
-2.0717470681021183e-01 -1.3369524976529459e-01 0.0000000000000000e+00 1
-2.0431854920952799e-01 -1.3231892444987389e-01 0.0000000000000000e+00 1
2.8819888336629164e-02 2.4460966800490293e-02 0.0000000000000000e+00 1
3.6593744544576728e-02 2.9262472510192525e-02 0.0000000000000000e+00 1
4.7377388195733096e-02 3.5158762784875300e-02 0.0000000000000000e+00 1
1.8736004983916879e-02 1.6933965363970929e-02 0.0000000000000000e+00 1
6.4546329440226848e-03 8.1570587615811679e-03 0.0000000000000000e+00 1
6.0414990008597416e-02 4.1324019156029665e-02 0.0000000000000000e+00 1
7.5266870614065243e-02 4.8787335450253794e-02 0.0000000000000000e+00 1
-7.3197426715896022e-03 -2.7788437741474948e-03 0.0000000000000000e+00 1
2.3867880833226694e-02 2.1319775572499349e-02 0.0000000000000000e+00 1
-7.0234402823683012e-05 2.7212203695052726e-03 0.0000000000000000e+00 1
1.2759613062607382e-02 1.2867330190805947e-02 0.0000000000000000e+00 1
6.7545782499625548e-02 4.4131611613285007e-02 0.0000000000000000e+00 1
5.3616813834648072e-02 3.8259228427664244e-02 0.0000000000000000e+00 1
-1.4805671893321876e-02 -8.1619240183571189e-03 0.0000000000000000e+00 1
4.1736171893940063e-02 3.2147704040319393e-02 0.0000000000000000e+00 1
4.1595958359047211e-02 2.5353487910564122e-02 0.0000000000000000e+00 1
3.4874312674020511e-02 2.3576231032911545e-02 0.0000000000000000e+00 1
3.2117843747672258e-02 2.7837682670699228e-02 0.0000000000000000e+00 1
8.3170666018210965e-02 5.3523116668971846e-02 0.0000000000000000e+00 1
-2.2531495470405533e-02 -1.3624486558323920e-02 0.0000000000000000e+00 1
-3.1046929789707578e-02 -1.9247247060248444e-02 0.0000000000000000e+00 1
3.0707837495724255e-02 1.8316844419341703e-02 0.0000000000000000e+00 1
-3.9789906144033424e-02 -2.4954278634982993e-02 0.0000000000000000e+00 1
9.1200996501745984e-02 5.8479676406922622e-02 0.0000000000000000e+00 1
-4.8615629184895606e-02 -3.0712084847951966e-02 0.0000000000000000e+00 1
9.9310228675413961e-02 6.3489434397840799e-02 0.0000000000000000e+00 1
-5.7483175723406610e-02 -3.6495555398966997e-02 0.0000000000000000e+00 1
-1.0664042920248468e-01 -6.8171344089146421e-02 0.0000000000000000e+00 1
2.4432916126392104e-02 1.3864261510006668e-02 0.0000000000000000e+00 1
-6.6369434445403774e-02 -4.2280082439868971e-02 0.0000000000000000e+00 1
1.0745596561210402e-01 6.8508603426425285e-02 0.0000000000000000e+00 1
-9.8078567337544054e-02 -6.2671128385552444e-02 0.0000000000000000e+00 1
-1.8658195646728387e-01 -1.1930459905448777e-01 0.0000000000000000e+00 1
-7.2916711643425211e-02 -4.8299042083747572e-02 0.0000000000000000e+00 1
4.6550507565361589e-02 2.9340494714576251e-02 0.0000000000000000e+00 1
-1.9236149425627858e-01 -1.2304314479200187e-01 0.0000000000000000e+00 1
-8.9337282747703695e-02 -5.7053469196968548e-02 0.0000000000000000e+00 1
-8.0498581796103391e-02 -5.1509061497504588e-02 0.0000000000000000e+00 1
1.1521499967104511e-01 7.3456316986036080e-02 0.0000000000000000e+00 1
5.9252176161250808e-02 3.4593125041198922e-02 0.0000000000000000e+00 1
-1.1507274774477397e-01 -7.3666742578680180e-02 0.0000000000000000e+00 1
1.8359832089546557e-02 1.0983505169550498e-02 0.0000000000000000e+00 1
1.2300973419665856e-01 7.8399161419725444e-02 0.0000000000000000e+00 1
-1.8058327341435745e-01 -1.1523089256031221e-01 0.0000000000000000e+00 1
5.2274455517159930e-02 3.1216889162244438e-02 0.0000000000000000e+00 1
-1.6679399562669978e-01 -1.0646897207375687e-01 0.0000000000000000e+00 1
6.9068290094992588e-03 1.0379523318414029e-03 0.0000000000000000e+00 1
-1.7384406535983227e-01 -1.1109262957371752e-01 0.0000000000000000e+00 1
-1.2215792227164671e-01 -7.8593404667746808e-02 0.0000000000000000e+00 1
1.3035879889958271e-01 8.2966874128671486e-02 0.0000000000000000e+00 1
-1.5965412561071118e-01 -1.0229176292969167e-01 0.0000000000000000e+00 1
1.3513080947277250e-02 6.2894957071743399e-03 0.0000000000000000e+00 1

Edges
123
1 2 1
2 3 1
3 4 1
4 5 1
5 6 1
6 7 1
7 8 1
8 9 1
9 10 1
10 11 1
11 12 1
12 13 1
13 14 1
14 15 1
15 16 1
16 17 1
17 18 1
18 19 1
19 20 1
20 21 1
21 22 1
22 23 1
23 24 1
24 25 1
25 26 1
26 27 1
27 28 1
28 29 1
29 30 1
30 31 1
31 32 1
32 33 1
33 34 1
34 35 1
35 36 1
36 37 1
37 38 1
38 39 1
39 40 1
40 41 1
41 42 1
42 43 1
43 44 1
44 45 1
45 46 1
46 47 1
47 48 1
48 49 1
49 50 1
50 51 1
51 52 1
52 53 1
53 54 1
54 55 1
55 56 1
56 57 1
57 58 1
58 59 1
59 60 1
60 61 1
61 62 1
62 63 1
63 64 1
64 65 1
65 66 1
66 67 1
67 68 1
68 69 1
69 70 1
70 71 1
71 72 1
72 73 1
73 74 1
74 75 1
75 76 1
76 77 1
77 78 1
78 79 1
79 80 1
80 81 1
81 82 1
82 83 1
83 84 1
84 85 1
85 86 1
86 87 1
87 88 1
88 89 1
89 90 1
90 91 1
91 92 1
92 93 1
93 94 1
94 95 1
95 96 1
96 97 1
97 98 1
98 99 1
99 100 1
100 101 1
101 102 1
102 103 1
103 104 1
104 105 1
105 106 1
106 107 1
107 108 1
108 109 1
109 110 1
110 111 1
111 112 1
112 113 1
113 114 1
114 115 1
115 116 1
116 117 1
117 118 1
118 119 1
119 120 1
120 121 1
121 122 1
122 123 1
123 1 1

Triangles
225
69 70 43 1
55 57 54 1
116 123 1 1
44 69 43 1
12 105 11 1
114 115 2 1
9 108 8 1
105 106 11 1
53 59 52 1
68 69 44 1
11 106 10 1
58 59 53 1
10 107 9 1
107 108 9 1
45 68 44 1
106 107 10 1
50 63 49 1
67 68 45 1
3 4 156 1
117 123 116 1
46 67 45 1
131 27 133 1
48 65 47 1
49 64 48 1
47 66 46 1
129 34 135 1
66 67 46 1
65 66 47 1
113 114 159 1
26 27 131 1
34 35 135 1
31 140 145 1
64 65 48 1
115 116 1 1
105 12 172 1
62 63 50 1
112 113 156 1
59 60 52 1
30 31 145 1
26 131 137 1
157 99 161 1
43 70 173 1
63 64 49 1
153 99 157 1
25 26 137 1
98 99 153 1
111 112 167 1
99 100 161 1
35 36 130 1
4 5 167 1
35 130 135 1
97 98 150 1
94 95 144 1
95 96 146 1
96 97 148 1
150 98 153 1
91 92 131 1
93 94 143 1
24 25 143 1
92 93 137 1
31 32 139 1
110 111 171 1
38 39 149 1
77 78 130 1
144 95 146 1
39 40 154 1
158 32 168 1
146 96 148 1
37 38 147 1
148 97 150 1
154 40 162 1
90 91 133 1
25 137 143 1
76 77 142 1
40 41 162 1
89 90 128 1
149 39 154 1
78 79 135 1
162 41 166 1
79 80 129 1
87 88 127 1
81 82 126 1
36 37 142 1
85 86 124 1
80 81 136 1
131 92 137 1
88 89 134 1
91 131 133 1
100 101 160 1
166 42 173 1
31 139 140 1
41 42 166 1
147 38 149 1
32 33 168 1
86 87 132 1
77 130 142 1
137 93 143 1
120 121 119 1
82 83 138 1
130 78 135 1
23 24 144 1
143 94 144 1
100 160 161 1
104 105 172 1
83 84 125 1
42 43 173 1
114 2 159 1
130 36 142 1
132 127 152 1
140 124 145 1
109 110 169 1
128 90 133 1
89 128 134 1
142 37 147 1
79 129 135 1
75 76 147 1
76 142 147 1
22 23 146 1
84 85 141 1
23 144 146 1
87 127 132 1
5 6 171 1
129 80 136 1
8 108 174 1
34 129 163 1
24 143 144 1
22 146 148 1
21 22 148 1
81 126 136 1
139 125 140 1
124 140 141 1
101 102 155 1
108 109 174 1
145 132 152 1
28 29 175 1
127 88 134 1
103 104 164 1
75 147 149 1
74 75 149 1
126 82 138 1
20 21 150 1
29 30 152 1
21 148 150 1
14 15 151 1
33 34 163 1
140 125 141 1
133 27 170 1
102 103 151 1
19 20 153 1
4 112 156 1
74 149 154 1
73 74 154 1
5 111 167 1
3 113 159 1
20 150 153 1
124 86 132 1
27 28 170 1
18 19 157 1
15 16 155 1
83 125 138 1
73 154 162 1
6 110 171 1
6 7 169 1
113 3 156 1
72 73 162 1
17 18 161 1
16 17 160 1
85 124 141 1
101 155 160 1
72 162 166 1
19 153 157 1
71 166 173 1
13 14 164 1
70 71 173 1
71 72 166 1
7 8 174 1
169 7 174 1
151 15 155 1
14 151 164 1
124 132 145 1
18 157 161 1
138 125 139 1
164 104 172 1
29 165 175 1
125 84 141 1
12 13 172 1
155 16 160 1
112 4 167 1
160 17 161 1
110 6 169 1
109 169 174 1
111 5 171 1
13 164 172 1
129 136 163 1
102 151 155 1
139 32 158 1
151 103 164 1
128 133 170 1
134 128 175 1
30 145 152 1
136 126 168 1
128 170 175 1
126 138 158 1
127 134 165 1
163 136 168 1
138 139 158 1
126 158 168 1
170 28 175 1
152 127 165 1
165 134 175 1
29 152 165 1
33 163 168 1
2 3 159 1
2 115 1 1
51 62 50 1
52 60 51 1
60 61 51 1
61 62 51 1
54 58 53 1
57 58 54 1
56 57 55 1
118 122 117 1
122 123 117 1
119 121 118 1
121 122 118 1

End
