MeshVersionFormatted 2
Dimension 3

Vertices
127
1.0381145924105994e-01 -1.8826816477254343e-02 0.0000000000000000e+00 1
1.0584948077729332e-01 -1.8897020532786527e-02 0.0000000000000000e+00 1
1.0672331184357625e-01 -1.8689968370321341e-02 0.0000000000000000e+00 1
1.0652780561398502e-01 -1.8231471347456670e-02 0.0000000000000000e+00 1
1.0535781526259598e-01 -1.7547340821790401e-02 0.0000000000000000e+00 1
1.0330819396348555e-01 -1.6663388150920430e-02 0.0000000000000000e+00 1
1.0047379489073008e-01 -1.5605424692444650e-02 0.0000000000000000e+00 1
9.6949471218405928e-02 -1.4399261803960938e-02 0.0000000000000000e+00 1
9.2830076120589425e-02 -1.3070710843067183e-02 0.0000000000000000e+00 1
8.8210462771356940e-02 -1.1645583167361280e-02 0.0000000000000000e+00 1
8.3185484344784899e-02 -1.0149690134441121e-02 0.0000000000000000e+00 1
7.7849994014949603e-02 -8.6088431019045904e-03 0.0000000000000000e+00 1
7.2298844955927422e-02 -7.0488534273495697e-03 0.0000000000000000e+00 1
6.6626890341794712e-02 -5.4955324683739551e-03 0.0000000000000000e+00 1
6.0928983346627871e-02 -3.9746915825756421e-03 0.0000000000000000e+00 1
5.5299977144503243e-02 -2.5121421275525100e-03 0.0000000000000000e+00 1
4.9834724909497155e-02 -1.1336954609024474e-03 0.0000000000000000e+00 1
4.4628079815686006e-02 1.3483705977665396e-04 0.0000000000000000e+00 1
3.9774895037146180e-02 1.2676440768869032e-03 0.0000000000000000e+00 1
3.5370023747953991e-02 2.2389142328304132e-03 0.0000000000000000e+00 1
3.1508319122185824e-02 3.0228361700092971e-03 0.0000000000000000e+00 1
2.8284634333918032e-02 3.5935985308256650e-03 0.0000000000000000e+00 1
2.4001460282506208e-02 4.2497005113274530e-03 0.0000000000000000e+00 1
1.8970415462042110e-02 4.9795820005496087e-03 0.0000000000000000e+00 1
1.3274149795117641e-02 5.7721568090635129e-03 0.0000000000000000e+00 1
6.9953132043247225e-03 6.6163387474405515e-03 0.0000000000000000e+00 1
2.1655561225524238e-04 7.5010416262520970e-03 0.0000000000000000e+00 1
-6.9794730584989001e-03 8.4151792560695302e-03 0.0000000000000000e+00 1
-1.4510122885345787e-02 9.3476654474642304e-03 0.0000000000000000e+00 1
-2.2292743945693538e-02 1.0287414011007585e-02 0.0000000000000000e+00 1
-3.0244686316950240e-02 1.1223338757270969e-02 0.0000000000000000e+00 1
-3.8283300076523960e-02 1.2144353496825758e-02 0.0000000000000000e+00 1
-4.6325935301822843e-02 1.3039372040243335e-02 0.0000000000000000e+00 1
-5.4289942070254976e-02 1.3897308198095086e-02 0.0000000000000000e+00 1
-6.2092670459228422e-02 1.4707075780952383e-02 0.0000000000000000e+00 1
-6.9651470546151312e-02 1.5457588599386608e-02 0.0000000000000000e+00 1
-7.6883692408431750e-02 1.6137760463969145e-02 0.0000000000000000e+00 1
-8.3706686123477786e-02 1.6736505185271366e-02 0.0000000000000000e+00 1
-9.0037801768697551e-02 1.7242736573864655e-02 0.0000000000000000e+00 1
-9.5794389421499176e-02 1.7645368440320396e-02 0.0000000000000000e+00 1
-1.0089379915929071e-01 1.7933314595209967e-02 0.0000000000000000e+00 1
-1.0525338105948023e-01 1.8095488849104741e-02 0.0000000000000000e+00 1
-1.0879048519947589e-01 1.8120805012576107e-02 0.0000000000000000e+00 1
-1.1142246165668576e-01 1.7998176896195438e-02 0.0000000000000000e+00 1
-1.1306666050851794e-01 1.7716518310534120e-02 0.0000000000000000e+00 1
-1.1364043183238051e-01 1.7264743066163529e-02 0.0000000000000000e+00 1
-1.1306112570568159e-01 1.6631764973655046e-02 0.0000000000000000e+00 1
-1.1124609220582929e-01 1.5806497843580049e-02 0.0000000000000000e+00 1
-1.0811268141023167e-01 1.4777855486509922e-02 0.0000000000000000e+00 1
-1.0322011366438615e-01 1.3372681223165791e-02 0.0000000000000000e+00 1
-9.8066426341430188e-02 1.1981748838184049e-02 0.0000000000000000e+00 1
-9.2668482951635572e-02 1.0606091346141669e-02 0.0000000000000000e+00 1
-8.7043147005274130e-02 9.2467417616156344e-03 0.0000000000000000e+00 1
-8.1207282012617635e-02 7.9047330991829229e-03 0.0000000000000000e+00 1
-7.5177751483937877e-02 6.5810983734205103e-03 0.0000000000000000e+00 1
-6.8971418929506687e-02 5.2768705989053762e-03 0.0000000000000000e+00 1
-6.2605147859595756e-02 3.9930827902144930e-03 0.0000000000000000e+00 1
-5.6095801784477012e-02 2.7307679619248499e-03 0.0000000000000000e+00 1
-4.9460244214422119e-02 1.4909591286134134e-03 0.0000000000000000e+00 1
-4.2715338659703006e-02 2.7468930485717027e-04 0.0000000000000000e+00 1
-3.5877948630591322e-02 -9.1700849476690548e-04 0.0000000000000000e+00 1
-2.8964937637358950e-02 -2.0831012556818350e-03 0.0000000000000000e+00 1
-2.1993169190277662e-02 -3.2225559633106411e-03 0.0000000000000000e+00 1
-1.4979506799619253e-02 -4.3343396030763419e-03 0.0000000000000000e+00 1
-7.9408139756555092e-03 -5.4174191604019657e-03 0.0000000000000000e+00 1
-8.9395422865820931e-04 -6.4707616207105301e-03 0.0000000000000000e+00 1
6.1442089311008179e-03 -7.4933339694250572e-03 0.0000000000000000e+00 1
1.3156811993349799e-02 -8.4841031919685676e-03 0.0000000000000000e+00 1
2.0126991447816951e-02 -9.4420362737640887e-03 0.0000000000000000e+00 1
2.7037883784230460e-02 -1.0366100200234634e-02 0.0000000000000000e+00 1
3.3872625492318550e-02 -1.1255261956803233e-02 0.0000000000000000e+00 1
4.0614353061809438e-02 -1.2108488528892906e-02 0.0000000000000000e+00 1
4.7246202982431276e-02 -1.2924746901926670e-02 0.0000000000000000e+00 1
5.3751311743912331e-02 -1.3703004061327548e-02 0.0000000000000000e+00 1
6.0112815835980798e-02 -1.4442226992518570e-02 0.0000000000000000e+00 1
6.6313851748364877e-02 -1.5141382680922754e-02 0.0000000000000000e+00 1
7.2337555970792777e-02 -1.5799438111963115e-02 0.0000000000000000e+00 1
7.8167064992992696e-02 -1.6415360271062683e-02 0.0000000000000000e+00 1
8.3785515304692845e-02 -1.6988116143644476e-02 0.0000000000000000e+00 1
8.9176043395621435e-02 -1.7516672715131514e-02 0.0000000000000000e+00 1
9.4321785755506690e-02 -1.7999996970946827e-02 0.0000000000000000e+00 1
9.9205878874076781e-02 -1.8437055896513427e-02 0.0000000000000000e+00 1
2.9389814249561580e-02 8.5971456690131683e-04 0.0000000000000000e+00 1
3.6784480998074694e-02 -1.8203335882988781e-03 0.0000000000000000e+00 1
2.1165713277511433e-02 4.7601988688884790e-04 0.0000000000000000e+00 1
4.6214501409936513e-02 -4.6759985177707852e-03 0.0000000000000000e+00 1
9.5320828980226882e-03 1.2759939360238609e-03 0.0000000000000000e+00 1
-3.5062321545525346e-03 1.5151500361937267e-04 0.0000000000000000e+00 1
3.1138483357051685e-02 -5.5588899551456518e-03 0.0000000000000000e+00 1
2.5014259076757889e-02 -4.4873957607028097e-03 0.0000000000000000e+00 1
-1.0997064870318034e-02 1.8524639624388339e-03 0.0000000000000000e+00 1
5.7342897987616111e-02 -8.3934097305861117e-03 0.0000000000000000e+00 1
-1.8066240348236215e-02 2.9521828309581788e-03 0.0000000000000000e+00 1
1.5781541987622268e-02 9.5741179738699240e-04 0.0000000000000000e+00 1
3.1776606076459463e-03 1.6181026825076799e-03 0.0000000000000000e+00 1
5.1723536943301923e-02 -6.5246055578906878e-03 0.0000000000000000e+00 1
4.1292325955938895e-02 -3.1937994015040255e-03 0.0000000000000000e+00 1
3.7693803585539705e-02 -6.9504237964454554e-03 0.0000000000000000e+00 1
2.6046257993043664e-02 2.7367723330522643e-04 0.0000000000000000e+00 1
-2.5071064045449759e-02 3.8013124430087970e-03 0.0000000000000000e+00 1
3.2102131368805770e-02 -7.1788881818543615e-04 0.0000000000000000e+00 1
6.3277266177596173e-02 -9.6377194441813665e-03 0.0000000000000000e+00 1
-5.1589945813418692e-02 7.7456766914260778e-03 0.0000000000000000e+00 1
1.7983644723890892e-02 -4.0695678880482734e-03 0.0000000000000000e+00 1
-1.1177073749064820e-01 1.7031610570019281e-02 0.0000000000000000e+00 1
-3.8301438466032421e-02 5.3888500826211189e-03 0.0000000000000000e+00 1
-5.8581199149955750e-02 8.7569812110245455e-03 0.0000000000000000e+00 1
-4.4446033755320503e-02 6.6806501240978117e-03 0.0000000000000000e+00 1
-3.1692015019276536e-02 3.4826783064904284e-03 0.0000000000000000e+00 1
6.9153441262987420e-02 -1.0756556482778509e-02 0.0000000000000000e+00 1
-6.5511646512882271e-02 9.7391360433071294e-03 0.0000000000000000e+00 1
1.1421916240943467e-02 -3.3894970105876471e-03 0.0000000000000000e+00 1
-7.2256021698091047e-02 1.0719690003378650e-02 0.0000000000000000e+00 1
7.4906490973735390e-02 -1.1845868680579243e-02 0.0000000000000000e+00 1
4.3493165910000339e-02 -8.0971400992907623e-03 0.0000000000000000e+00 1
-1.0988984049302070e-01 1.6872576804916037e-02 0.0000000000000000e+00 1
-7.7768994410227957e-02 1.0683920564410336e-02 0.0000000000000000e+00 1
-8.2619141072555247e-02 1.2290492970138688e-02 0.0000000000000000e+00 1
8.0472553784941725e-02 -1.2908181658546795e-02 0.0000000000000000e+00 1
-8.8198120658715351e-02 1.3457458526977373e-02 0.0000000000000000e+00 1
5.8763828898109431e-03 -2.8918991964383390e-03 0.0000000000000000e+00 1
-9.3071706179585503e-02 1.4508818430065830e-02 0.0000000000000000e+00 1
8.4947342956094032e-02 -1.3545448693830366e-02 0.0000000000000000e+00 1
2.8738189209044120e-02 -1.9261565467654708e-03 0.0000000000000000e+00 1
-1.0703174534626074e-01 1.6737211218412828e-02 0.0000000000000000e+00 1
4.8317762274039264e-02 -9.0548945766594172e-03 0.0000000000000000e+00 1
9.8262417068678998e-02 -1.6314920967324655e-02 0.0000000000000000e+00 1

Edges
82
1 2 1
2 3 1
3 4 1
4 5 1
5 6 1
6 7 1
7 8 1
8 9 1
9 10 1
10 11 1
11 12 1
12 13 1
13 14 1
14 15 1
15 16 1
16 17 1
17 18 1
18 19 1
19 20 1
20 21 1
21 22 1
22 23 1
23 24 1
24 25 1
25 26 1
26 27 1
27 28 1
28 29 1
29 30 1
30 31 1
31 32 1
32 33 1
33 34 1
34 35 1
35 36 1
36 37 1
37 38 1
38 39 1
39 40 1
40 41 1
41 42 1
42 43 1
43 44 1
44 45 1
45 46 1
46 47 1
47 48 1
48 49 1
49 50 1
50 51 1
51 52 1
52 53 1
53 54 1
54 55 1
55 56 1
56 57 1
57 58 1
58 59 1
59 60 1
60 61 1
61 62 1
62 63 1
63 64 1
64 65 1
65 66 1
66 67 1
67 68 1
68 69 1
69 70 1
70 71 1
71 72 1
72 73 1
73 74 1
74 75 1
75 76 1
76 77 1
77 78 1
78 79 1
79 80 1
80 81 1
81 82 1
82 1 1

Triangles
170
41 51 40 1
2 5 1 1
89 84 101 1
50 51 41 1
47 48 105 1
27 28 88 1
10 80 9 1
81 82 127 1
49 50 125 1
80 81 9 1
84 89 98 1
95 66 121 1
88 66 95 1
50 42 125 1
3 4 2 1
74 96 126 1
88 28 91 1
42 50 41 1
48 49 116 1
31 106 109 1
44 45 105 1
9 81 8 1
74 92 96 1
31 32 106 1
46 47 45 1
5 6 1 1
85 90 99 1
90 85 104 1
27 88 95 1
74 75 92 1
90 89 124 1
113 37 117 1
28 29 91 1
80 10 123 1
43 44 116 1
65 88 91 1
64 65 91 1
64 91 93 1
30 31 100 1
73 74 126 1
89 71 98 1
29 30 93 1
91 29 93 1
36 37 113 1
63 64 93 1
92 75 102 1
100 31 109 1
37 38 118 1
69 90 104 1
75 76 102 1
40 51 122 1
76 77 110 1
70 89 90 1
70 71 89 1
32 33 108 1
117 37 118 1
102 76 110 1
69 70 90 1
8 81 127 1
110 77 114 1
62 63 100 1
93 30 100 1
63 93 100 1
106 32 108 1
101 83 124 1
77 78 114 1
44 105 116 1
114 78 119 1
25 26 87 1
65 66 88 1
25 87 94 1
45 47 105 1
42 43 125 1
89 101 124 1
67 68 112 1
119 79 123 1
78 79 119 1
26 27 95 1
7 8 127 1
38 39 120 1
66 67 121 1
67 112 121 1
23 24 85 1
79 80 123 1
17 18 86 1
15 16 92 1
72 73 115 1
35 36 111 1
16 17 96 1
24 25 94 1
115 73 126 1
19 20 84 1
18 19 97 1
43 116 125 1
71 72 98 1
22 23 99 1
105 48 116 1
58 59 103 1
23 85 99 1
111 36 113 1
14 15 102 1
87 26 95 1
33 34 103 1
92 16 96 1
61 62 109 1
57 58 107 1
17 86 96 1
118 38 120 1
60 61 106 1
15 92 102 1
59 60 108 1
68 69 104 1
20 21 101 1
86 18 97 1
34 35 107 1
51 52 122 1
62 100 109 1
116 49 125 1
14 102 110 1
58 103 107 1
103 59 108 1
99 90 124 1
19 84 97 1
60 106 108 1
21 22 83 1
13 14 110 1
33 103 108 1
56 57 111 1
85 24 94 1
106 61 109 1
57 107 111 1
85 94 104 1
84 20 101 1
39 40 122 1
94 87 112 1
83 99 124 1
97 84 98 1
13 110 114 1
12 13 114 1
55 56 113 1
107 35 111 1
12 114 119 1
11 12 119 1
112 87 121 1
56 111 113 1
10 11 123 1
54 55 117 1
21 83 101 1
103 34 107 1
53 54 118 1
11 119 123 1
52 53 120 1
68 104 112 1
83 22 99 1
55 113 117 1
53 118 120 1
54 117 118 1
104 94 112 1
86 97 115 1
98 72 115 1
82 7 127 1
97 98 115 1
87 95 121 1
86 115 126 1
96 86 126 1
52 120 122 1
120 39 122 1
6 82 1 1
4 5 2 1
7 82 6 1

End
