MeshVersionFormatted 2
Dimension 3

Vertices
912
1.2623360815774376e-01 -4.0267230765920942e-01 0.0000000000000000e+00 1
1.2953193637632088e-01 -4.0709995287668987e-01 0.0000000000000000e+00 1
1.3256163106907703e-01 -4.1025526192443534e-01 0.0000000000000000e+00 1
1.3532947718522736e-01 -4.1218652577946197e-01 0.0000000000000000e+00 1
1.3784225967398678e-01 -4.1294203541878588e-01 0.0000000000000000e+00 1
1.4010676348457049e-01 -4.1257008181942356e-01 0.0000000000000000e+00 1
1.4212977356619352e-01 -4.1111895595839132e-01 0.0000000000000000e+00 1
1.4391807486807079e-01 -4.0863694881270507e-01 0.0000000000000000e+00 1
1.4547845233941753e-01 -4.0517235135938123e-01 0.0000000000000000e+00 1
1.4681769092944869e-01 -4.0077345457543628e-01 0.0000000000000000e+00 1
1.4794257558737928e-01 -3.9548854943788608e-01 0.0000000000000000e+00 1
1.4885989126242444e-01 -3.8936592692374705e-01 0.0000000000000000e+00 1
1.4957642290379919e-01 -3.8245387801003555e-01 0.0000000000000000e+00 1
1.5009895546071855e-01 -3.7480069367376750e-01 0.0000000000000000e+00 1
1.5043427388239761e-01 -3.6645466489195960e-01 0.0000000000000000e+00 1
1.5058916311805143e-01 -3.5746408264162777e-01 0.0000000000000000e+00 1
1.5057040811689504e-01 -3.4787723789978831e-01 0.0000000000000000e+00 1
1.5038479382814351e-01 -3.3774242164345775e-01 0.0000000000000000e+00 1
1.5003910520101194e-01 -3.2710792484965201e-01 0.0000000000000000e+00 1
1.4954012718471521e-01 -3.1602203849538735e-01 0.0000000000000000e+00 1
1.4889464472846853e-01 -3.0453305355768023e-01 0.0000000000000000e+00 1
1.4810944278148686e-01 -2.9268926101354670e-01 0.0000000000000000e+00 1
1.4719130629298532e-01 -2.8053895184000310e-01 0.0000000000000000e+00 1
1.4614702021217890e-01 -2.6813041701406570e-01 0.0000000000000000e+00 1
1.4498336948828278e-01 -2.5551194751275075e-01 0.0000000000000000e+00 1
1.4370713907051180e-01 -2.4273183431307441e-01 0.0000000000000000e+00 1
1.4232511390808120e-01 -2.2983836839205293e-01 0.0000000000000000e+00 1
1.4084407895020598e-01 -2.1687984072670283e-01 0.0000000000000000e+00 1
1.3927081914610112e-01 -2.0390454229403995e-01 0.0000000000000000e+00 1
1.3761211944498175e-01 -1.9096076407108081e-01 0.0000000000000000e+00 1
1.3587476479606286e-01 -1.7809679703484155e-01 0.0000000000000000e+00 1
1.3406554014855959e-01 -1.6536093216233855e-01 0.0000000000000000e+00 1
1.3219123045168690e-01 -1.5280146043058787e-01 0.0000000000000000e+00 1
1.3025862065465987e-01 -1.4046667281660588e-01 0.0000000000000000e+00 1
1.2827449570669358e-01 -1.2840486029740886e-01 0.0000000000000000e+00 1
1.2624564055700305e-01 -1.1666431385001295e-01 0.0000000000000000e+00 1
1.2417884015480335e-01 -1.0529332445143447e-01 0.0000000000000000e+00 1
1.2208087944930951e-01 -9.4340183078689632e-02 0.0000000000000000e+00 1
1.1995854338973662e-01 -8.3853180708794772e-02 0.0000000000000000e+00 1
1.1781861692529967e-01 -7.3880608318766028e-02 0.0000000000000000e+00 1
1.1566788500521377e-01 -6.4470756885619707e-02 0.0000000000000000e+00 1
1.1351313257869396e-01 -5.5671917386372075e-02 0.0000000000000000e+00 1
1.1136114459495526e-01 -4.7532380798039321e-02 0.0000000000000000e+00 1
1.0921870600321273e-01 -4.0100438097637726e-02 0.0000000000000000e+00 1
1.0709260175268145e-01 -3.3424380262183556e-02 0.0000000000000000e+00 1
1.0498961679257647e-01 -2.7552498268693076e-02 0.0000000000000000e+00 1
1.0239162261649778e-01 -2.0986065427853848e-02 0.0000000000000000e+00 1
9.9372064698728627e-02 -1.3742427567456163e-02 0.0000000000000000e+00 1
9.5949559584732835e-02 -5.8584421083452643e-03 0.0000000000000000e+00 1
9.2142723819974293e-02 2.6290335286335859e-03 0.0000000000000000e+00 1
8.7970173949916824e-02 1.1683141922635134e-02 0.0000000000000000e+00 1
8.3450526520024326e-02 2.1267025652814124e-02 0.0000000000000000e+00 1
7.8602398075760610e-02 3.1343827298325307e-02 0.0000000000000000e+00 1
7.3444405162589529e-02 4.1876689438323414e-02 0.0000000000000000e+00 1
6.7995164325974966e-02 5.2828754651963211e-02 0.0000000000000000e+00 1
6.2273292111380746e-02 6.4163165518399429e-02 0.0000000000000000e+00 1
5.6297405064270750e-02 7.5843064616786804e-02 0.0000000000000000e+00 1
5.0086119730108805e-02 8.7831594526280143e-02 0.0000000000000000e+00 1
4.3658052654358792e-02 1.0009189782603407e-01 0.0000000000000000e+00 1
3.7031820382484537e-02 1.1258711709520344e-01 0.0000000000000000e+00 1
3.0226039459949918e-02 1.2528039491294296e-01 0.0000000000000000e+00 1
2.3259326432218768e-02 1.3813487385840739e-01 0.0000000000000000e+00 1
1.6150297844754948e-02 1.5111369651075141e-01 0.0000000000000000e+00 1
8.9175702430223120e-03 1.6418000544912986e-01 0.0000000000000000e+00 1
1.5797601724847239e-03 1.7729694325269740e-01 0.0000000000000000e+00 1
-5.8445158213939648e-03 1.9042765250060886e-01 0.0000000000000000e+00 1
-1.3336641193149930e-02 2.0353527577201894e-01 0.0000000000000000e+00 1
-2.0877999397319269e-02 2.1658295564608232e-01 0.0000000000000000e+00 1
-2.8449973888438174e-02 2.2953383470195385e-01 0.0000000000000000e+00 1
-3.6033948121042804e-02 2.4235105551878830e-01 0.0000000000000000e+00 1
-4.3611305549669230e-02 2.5499776067574020e-01 0.0000000000000000e+00 1
-5.1163429628853646e-02 2.6743709275196459e-01 0.0000000000000000e+00 1
-5.8671703813132206e-02 2.7963219432661607e-01 0.0000000000000000e+00 1
-6.6117511557041014e-02 2.9154620797884928e-01 0.0000000000000000e+00 1
-7.3482236315116287e-02 3.0314227628781915e-01 0.0000000000000000e+00 1
-8.0747261541894114e-02 3.1438354183268025e-01 0.0000000000000000e+00 1
-8.7893970691910642e-02 3.2523314719258745e-01 0.0000000000000000e+00 1
-9.4903747219702059e-02 3.3565423494669555e-01 0.0000000000000000e+00 1
-1.0175797457980447e-01 3.4560994767415915e-01 0.0000000000000000e+00 1
-1.0843803622675406e-01 3.5506342795413304e-01 0.0000000000000000e+00 1
-1.1492531561508694e-01 3.6397781836577209e-01 0.0000000000000000e+00 1
-1.2120119619933926e-01 3.7231626148823083e-01 0.0000000000000000e+00 1
-1.2724706143404718e-01 3.8004189990066412e-01 0.0000000000000000e+00 1
-1.3304429477374685e-01 3.8711787618222671e-01 0.0000000000000000e+00 1
-1.3857427967297448e-01 3.9350733291207340e-01 0.0000000000000000e+00 1
-1.4381839958626602e-01 3.9917341266935868e-01 0.0000000000000000e+00 1
-1.4875803796815779e-01 4.0407925803323763e-01 0.0000000000000000e+00 1
-1.5337457827318590e-01 4.0818801158286488e-01 0.0000000000000000e+00 1
-1.5764940395588650e-01 4.1146281589739503e-01 0.0000000000000000e+00 1
-1.6156389847079566e-01 4.1386681355598298e-01 0.0000000000000000e+00 1
-1.6509944527244963e-01 4.1536314713778349e-01 0.0000000000000000e+00 1
-1.6823742781538453e-01 4.1591495922195115e-01 0.0000000000000000e+00 1
-1.7095922955413645e-01 4.1548539238764082e-01 0.0000000000000000e+00 1
-1.7324623394324162e-01 4.1403758921400724e-01 0.0000000000000000e+00 1
-1.7507982443723613e-01 4.1153469228020517e-01 0.0000000000000000e+00 1
-1.7644138449065611e-01 4.0793984416538931e-01 0.0000000000000000e+00 1
-1.7731229755803779e-01 4.0321618744871446e-01 0.0000000000000000e+00 1
-1.7767394709391721e-01 3.9732686470933526e-01 0.0000000000000000e+00 1
-1.7750771655283060e-01 3.9023501852640657e-01 0.0000000000000000e+00 1
-1.7684239621560388e-01 3.8016927446648657e-01 0.0000000000000000e+00 1
-1.7597774787188464e-01 3.6990592240236170e-01 0.0000000000000000e+00 1
-1.7491777559240218e-01 3.5945193292974587e-01 0.0000000000000000e+00 1
-1.7366648344788571e-01 3.4881427664435211e-01 0.0000000000000000e+00 1
-1.7222787550906460e-01 3.3799992414189439e-01 0.0000000000000000e+00 1
-1.7060595584666804e-01 3.2701584601808603e-01 0.0000000000000000e+00 1
-1.6880472853142525e-01 3.1586901286864039e-01 0.0000000000000000e+00 1
-1.6682819763406564e-01 3.0456639528927115e-01 0.0000000000000000e+00 1
-1.6468036722531842e-01 2.9311496387569153e-01 0.0000000000000000e+00 1
-1.6236524137591291e-01 2.8152168922361542e-01 0.0000000000000000e+00 1
-1.5988682415657829e-01 2.6979354192875615e-01 0.0000000000000000e+00 1
-1.5724911963804389e-01 2.5793749258682713e-01 0.0000000000000000e+00 1
-1.5445613189103907e-01 2.4596051179354197e-01 0.0000000000000000e+00 1
-1.5151186498629282e-01 2.3386957014461407e-01 0.0000000000000000e+00 1
-1.4842032299453473e-01 2.2167163823575703e-01 0.0000000000000000e+00 1
-1.4518550998649388e-01 2.0937368666268422e-01 0.0000000000000000e+00 1
-1.4181143003289964e-01 1.9698268602110924e-01 0.0000000000000000e+00 1
-1.3830208720448117e-01 1.8450560690674553e-01 0.0000000000000000e+00 1
-1.3466148557196794e-01 1.7194941991530671e-01 0.0000000000000000e+00 1
-1.3089362920608910e-01 1.5932109564250621e-01 0.0000000000000000e+00 1
-1.2700252217757380e-01 1.4662760468405736e-01 0.0000000000000000e+00 1
-1.2299216855715146e-01 1.3387591763567391e-01 0.0000000000000000e+00 1
-1.1886657241555147e-01 1.2107300509306934e-01 0.0000000000000000e+00 1
-1.1462973782350284e-01 1.0822583765195690e-01 0.0000000000000000e+00 1
-1.1028566885173498e-01 9.5341385908050261e-02 0.0000000000000000e+00 1
-1.0583836957097720e-01 8.2426620457063005e-02 0.0000000000000000e+00 1
-1.0129184405195869e-01 6.9488511894708477e-02 0.0000000000000000e+00 1
-9.6650096365408722e-02 5.6534030816700234e-02 0.0000000000000000e+00 1
-9.1917130582056625e-02 4.3570147818751799e-02 0.0000000000000000e+00 1
-8.7096950772631687e-02 3.0603833496576673e-02 0.0000000000000000e+00 1
-8.2193561007863070e-02 1.7642058445888217e-02 0.0000000000000000e+00 1
-7.7210965358480113e-02 4.6917932624000683e-03 0.0000000000000000e+00 1
-7.2153167895212145e-02 -8.2399914581742489e-03 0.0000000000000000e+00 1
-6.7024172688788394e-02 -2.1146325120121316e-02 0.0000000000000000e+00 1
-6.1827983809938050e-02 -3.4020237127727677e-02 0.0000000000000000e+00 1
-5.6568605329390537e-02 -4.6854756885279666e-02 0.0000000000000000e+00 1
-5.1250041317874986e-02 -5.9642913797064018e-02 0.0000000000000000e+00 1
-4.5876295846120796e-02 -7.2377737267366959e-02 0.0000000000000000e+00 1
-4.0451372984857167e-02 -8.5052256700475198e-02 0.0000000000000000e+00 1
-3.4979276804813338e-02 -9.7659501500675261e-02 0.0000000000000000e+00 1
-2.9464011376718682e-02 -1.1019250107225345e-01 0.0000000000000000e+00 1
-2.3909580771302355e-02 -1.2264428481949648e-01 0.0000000000000000e+00 1
-1.8319989059293745e-02 -1.3500788214669068e-01 0.0000000000000000e+00 1
-1.2699240311422028e-02 -1.4727632245812275e-01 0.0000000000000000e+00 1
-7.0513385984165705e-03 -1.5944263515807891e-01 0.0000000000000000e+00 1
-1.3802879910065832e-03 -1.7149984965084586e-01 0.0000000000000000e+00 1
4.3099074400786974e-03 -1.8344099534071018e-01 0.0000000000000000e+00 1
1.0015243624109896e-02 -1.9525910163195812e-01 0.0000000000000000e+00 1
1.5731716490357851e-02 -2.0694719792887648e-01 0.0000000000000000e+00 1
2.1455321968093188e-02 -2.1849831363575145e-01 0.0000000000000000e+00 1
2.7182055986586733e-02 -2.2990547815686982e-01 0.0000000000000000e+00 1
3.2907914475109101e-02 -2.4116172089651780e-01 0.0000000000000000e+00 1
3.8628893362931099e-02 -2.5226007125898203e-01 0.0000000000000000e+00 1
4.4340988579323462e-02 -2.6319355864854921e-01 0.0000000000000000e+00 1
5.0040196053556855e-02 -2.7395521246950555e-01 0.0000000000000000e+00 1
5.5722511714902084e-02 -2.8453806212613775e-01 0.0000000000000000e+00 1
6.1383931492629787e-02 -2.9493513702273211e-01 0.0000000000000000e+00 1
6.7020451316010726e-02 -3.0513946656357527e-01 0.0000000000000000e+00 1
7.2628067114315700e-02 -3.1514408015295381e-01 0.0000000000000000e+00 1
7.8202774816815326e-02 -3.2494200719515404e-01 0.0000000000000000e+00 1
8.3740570352780430e-02 -3.3452627709446259e-01 0.0000000000000000e+00 1
8.9237449651481643e-02 -3.4388991925516593e-01 0.0000000000000000e+00 1
9.4689408642189790e-02 -3.5302596308155054e-01 0.0000000000000000e+00 1
1.0009244325417550e-01 -3.6192743797790294e-01 0.0000000000000000e+00 1
1.0544254941670955e-01 -3.7058737334850961e-01 0.0000000000000000e+00 1
1.1073572305906272e-01 -3.7899879859765717e-01 0.0000000000000000e+00 1
1.1596796011050561e-01 -3.8715474312963194e-01 0.0000000000000000e+00 1
1.2113525650030908e-01 -3.9504823634872055e-01 0.0000000000000000e+00 1
1.0071222459685798e-01 -3.2656219702559185e-02 0.0000000000000000e+00 1
8.6975220028465597e-02 -4.7861817313562937e-03 0.0000000000000000e+00 1
1.0605341945800409e-01 -6.2164345043602548e-02 0.0000000000000000e+00 1
-2.4968863529436079e-02 -8.6653880381880433e-02 0.0000000000000000e+00 1
6.7105035883875341e-02 3.1762314769008079e-02 0.0000000000000000e+00 1
1.1383666436664538e-01 -1.0159676903086348e-01 0.0000000000000000e+00 1
4.8485956280900307e-02 6.3067328792738866e-02 0.0000000000000000e+00 1
-4.6765705535983325e-02 -3.5694318656734281e-02 0.0000000000000000e+00 1
-1.0790857629906262e-02 -1.2162942232424206e-01 0.0000000000000000e+00 1
1.1897339796326668e-01 -1.3632112560755688e-01 0.0000000000000000e+00 1
-7.8291046173121187e-02 4.1256495492158138e-02 0.0000000000000000e+00 1
-6.3167196040680496e-02 2.2909290762517555e-03 0.0000000000000000e+00 1
-9.2740802680551182e-02 7.9462548182846121e-02 0.0000000000000000e+00 1
6.1958299995217292e-03 -1.6046297393538367e-01 0.0000000000000000e+00 1
2.4300039505896546e-02 -1.9745625729661292e-01 0.0000000000000000e+00 1
3.0491687827058925e-02 1.0107521821388012e-01 0.0000000000000000e+00 1
-1.0602054085824843e-01 1.1888168815272904e-01 0.0000000000000000e+00 1
-1.1839047309313500e-01 1.5724885334524691e-01 0.0000000000000000e+00 1
3.9597286870769903e-02 -2.3137293791035746e-01 0.0000000000000000e+00 1
7.4629003555114386e-03 1.3894949713651378e-01 0.0000000000000000e+00 1
1.2311447215066992e-01 -1.7418764677577872e-01 0.0000000000000000e+00 1
-1.2847178251788763e-01 1.9204587331727702e-01 0.0000000000000000e+00 1
-1.3483404508731414e-02 1.7744427784994690e-01 0.0000000000000000e+00 1
5.5652628421541298e-02 -2.6415508947771005e-01 0.0000000000000000e+00 1
-1.3946086542749156e-01 2.3043313382864899e-01 0.0000000000000000e+00 1
1.2799320186900320e-01 -2.1213199827049264e-01 0.0000000000000000e+00 1
-3.6079366408019946e-02 2.1745151066284188e-01 0.0000000000000000e+00 1
-1.4910593831412600e-01 2.6570246100906736e-01 0.0000000000000000e+00 1
7.4369160264547804e-02 -2.9569936845482847e-01 0.0000000000000000e+00 1
-5.9117471995511338e-02 2.5586502709647618e-01 0.0000000000000000e+00 1
1.3293246046792095e-01 -2.5122991943149225e-01 0.0000000000000000e+00 1
-1.5617333414535894e-01 3.0058398809491782e-01 0.0000000000000000e+00 1
8.9795612103426098e-02 -3.2550707788339905e-01 0.0000000000000000e+00 1
-7.9054425052682564e-02 2.9152585566743816e-01 0.0000000000000000e+00 1
1.3718048946872941e-01 -2.8556189332102666e-01 0.0000000000000000e+00 1
-1.1274191011618745e-01 3.4462803059224006e-01 0.0000000000000000e+00 1
1.4175011479809291e-01 -3.3295256955788499e-01 0.0000000000000000e+00 1
-1.3207378315297114e-01 3.7099553453533002e-01 0.0000000000000000e+00 1
-1.5444918302104385e-01 4.0314256542746429e-01 0.0000000000000000e+00 1
7.7771579632382348e-02 1.2551675131447747e-02 0.0000000000000000e+00 1
-1.6047511487721533e-01 3.3481745185326572e-01 0.0000000000000000e+00 1
1.1060982274664277e-01 -8.0615232748580373e-02 0.0000000000000000e+00 1
-1.7301956061733292e-01 4.0502458849623602e-01 0.0000000000000000e+00 1
-1.0025410756237015e-01 3.2448718103012297e-01 0.0000000000000000e+00 1
1.4009229703950130e-01 -3.1087933051060029e-01 0.0000000000000000e+00 1
-3.7514245236878366e-02 -6.1244325547766154e-02 0.0000000000000000e+00 1
9.4826225708640272e-02 -2.0104071514023610e-02 0.0000000000000000e+00 1
1.4226518300868862e-01 -3.5429530144187843e-01 0.0000000000000000e+00 1
-1.4656699933986586e-01 3.9179494056830655e-01 0.0000000000000000e+00 1
1.0513324508269534e-01 -4.4430944696920417e-02 0.0000000000000000e+00 1
9.9958865548164494e-02 -3.4387607041559698e-01 0.0000000000000000e+00 1
1.4314608600558085e-01 -3.7030853154502291e-01 0.0000000000000000e+00 1
1.4193059569256963e-01 -4.0625548371557962e-01 0.0000000000000000e+00 1
1.4359914595587400e-01 -3.9770183108981311e-01 0.0000000000000000e+00 1
1.4316028411996781e-01 -3.8527986152704141e-01 0.0000000000000000e+00 1
-1.6557390138047018e-01 3.5575396574054424e-01 0.0000000000000000e+00 1
1.0967386257268498e-01 -3.6199909719056189e-01 0.0000000000000000e+00 1
-1.7233195933661502e-01 3.9404550988579745e-01 0.0000000000000000e+00 1
-1.6794600866226220e-01 3.7586506225531552e-01 0.0000000000000000e+00 1
-1.6183374096225639e-01 4.0952365230758381e-01 0.0000000000000000e+00 1
-1.6922791659260181e-01 4.1314330418005452e-01 0.0000000000000000e+00 1
1.2031317892343960e-01 -3.7837523981198645e-01 0.0000000000000000e+00 1
1.3175917161393319e-01 -4.0172399436651834e-01 0.0000000000000000e+00 1
1.3725614979675479e-01 -4.1036999249841943e-01 0.0000000000000000e+00 1
-1.7194778008833136e-01 4.1131444662397287e-01 0.0000000000000000e+00 1
-1.6897998012669113e-01 4.0994989990244968e-01 0.0000000000000000e+00 1
1.2831794571655286e-01 -3.9576175945115705e-01 0.0000000000000000e+00 1
1.3519173988276167e-01 -3.9670426986454405e-01 0.0000000000000000e+00 1
1.3258936850967906e-01 -3.9004150786901381e-01 0.0000000000000000e+00 1
1.3642887500954159e-01 -4.0188422224137904e-01 0.0000000000000000e+00 1
1.3853262363953112e-01 -3.9088834607482059e-01 0.0000000000000000e+00 1
-1.6775519523881091e-01 3.8467712204947341e-01 0.0000000000000000e+00 1
-1.6036039386212275e-01 3.8131718365970824e-01 0.0000000000000000e+00 1
-1.5903037295097713e-01 3.7207334762538241e-01 0.0000000000000000e+00 1
-1.5184168350035751e-01 3.7814240153335482e-01 0.0000000000000000e+00 1
-1.5019424367062439e-01 3.6884411063778860e-01 0.0000000000000000e+00 1
-1.6091695419009874e-01 3.8901346545103532e-01 0.0000000000000000e+00 1
-1.4273864317281210e-01 3.7452497914337296e-01 0.0000000000000000e+00 1
-1.4104245750965697e-01 3.6508944799163578e-01 0.0000000000000000e+00 1
-1.3204510369419395e-01 3.6030054207476808e-01 0.0000000000000000e+00 1
-1.4060845434088914e-01 3.5506873586493182e-01 0.0000000000000000e+00 1
-1.3161303374519467e-01 3.5025483793796380e-01 0.0000000000000000e+00 1
-1.4059584009672180e-01 3.4457498557495114e-01 0.0000000000000000e+00 1
-1.3114249242002851e-01 3.3956528896762528e-01 0.0000000000000000e+00 1
-1.4040687130651561e-01 3.3366228514333707e-01 0.0000000000000000e+00 1
-1.3095124308963729e-01 3.2830245794686375e-01 0.0000000000000000e+00 1
-1.4028658295766977e-01 3.2227873984017286e-01 0.0000000000000000e+00 1
-1.3052891886192264e-01 3.1680508295357607e-01 0.0000000000000000e+00 1
-1.3981837033835962e-01 3.1101695075099145e-01 0.0000000000000000e+00 1
-1.2955000164768571e-01 3.0514361255933059e-01 0.0000000000000000e+00 1
-1.1892642269366134e-01 3.1237295429807138e-01 0.0000000000000000e+00 1
-1.1897215063131447e-01 2.9943378049596675e-01 0.0000000000000000e+00 1
-1.2935040273332057e-01 2.9294011442429468e-01 0.0000000000000000e+00 1
-1.1853832340601585e-01 2.8703276362481178e-01 0.0000000000000000e+00 1
-1.0806265044711660e-01 2.9337394788888693e-01 0.0000000000000000e+00 1
-1.0743396098655969e-01 2.8106426997425615e-01 0.0000000000000000e+00 1
-1.1822844101287530e-01 2.7439936112734176e-01 0.0000000000000000e+00 1
-1.0696257874102053e-01 2.6834741697385067e-01 0.0000000000000000e+00 1
-1.1789336101426620e-01 2.6164306463075843e-01 0.0000000000000000e+00 1
-1.0653426773733123e-01 2.5539336909106369e-01 0.0000000000000000e+00 1
-9.5398056658037980e-02 2.6228484209189001e-01 0.0000000000000000e+00 1
-9.4962755614439731e-02 2.4909485504885598e-01 0.0000000000000000e+00 1
-1.0625222192331901e-01 2.4219292306103507e-01 0.0000000000000000e+00 1
-9.4596097382779701e-02 2.3578078976743827e-01 0.0000000000000000e+00 1
-1.0601386685672101e-01 2.2886340406657313e-01 0.0000000000000000e+00 1
-9.4274423620912179e-02 2.2231834022422162e-01 0.0000000000000000e+00 1
-8.2676523472418842e-02 2.2937870253738782e-01 0.0000000000000000e+00 1
-8.2350421459801829e-02 2.1572988253798503e-01 0.0000000000000000e+00 1
-9.4054649505916493e-02 2.0867656484227406e-01 0.0000000000000000e+00 1
-8.2089352868757653e-02 2.0199918183260893e-01 0.0000000000000000e+00 1
-9.3881046098563292e-02 1.9495695037284003e-01 0.0000000000000000e+00 1
-8.1870325791496584e-02 1.8817913265514907e-01 0.0000000000000000e+00 1
-6.9938194881216276e-02 1.9532014466208053e-01 0.0000000000000000e+00 1
-6.9743709461566938e-02 1.8136718968178994e-01 0.0000000000000000e+00 1
-8.1719999442621954e-02 1.7426304954208841e-01 0.0000000000000000e+00 1
-6.9606785487369371e-02 1.6739383752387854e-01 0.0000000000000000e+00 1
-8.1628624883962220e-02 1.6035822362577495e-01 0.0000000000000000e+00 1
-6.9515349780259000e-02 1.5344958055741376e-01 0.0000000000000000e+00 1
-5.7421550815626395e-02 1.6048100826146419e-01 0.0000000000000000e+00 1
-5.7330995834930468e-02 1.4644807321942194e-01 0.0000000000000000e+00 1
-6.9424935996867082e-02 1.3933827100826918e-01 0.0000000000000000e+00 1
-5.7304039052757619e-02 1.3240376056468328e-01 0.0000000000000000e+00 1
-4.5146792963637189e-02 1.3942776438323481e-01 0.0000000000000000e+00 1
-4.5168143134355535e-02 1.2537027532701542e-01 0.0000000000000000e+00 1
-5.7262397326146686e-02 1.1836814503102912e-01 0.0000000000000000e+00 1
-4.5202654225967781e-02 1.1134117317930778e-01 0.0000000000000000e+00 1
-3.3039754517721780e-02 1.1832018454808803e-01 0.0000000000000000e+00 1
-3.3136730357553303e-02 1.0429433350551601e-01 0.0000000000000000e+00 1
-4.5234075650816309e-02 9.7384713275922824e-02 0.0000000000000000e+00 1
-3.3273060284577036e-02 9.0358774651076959e-02 0.0000000000000000e+00 1
-4.5318942537272533e-02 8.3498586561411653e-02 0.0000000000000000e+00 1
-3.3406799349942354e-02 7.6511094143263667e-02 0.0000000000000000e+00 1
-2.1401967272871868e-02 8.3275265613675334e-02 0.0000000000000000e+00 1
-2.1621551618740666e-02 6.9502047652764853e-02 0.0000000000000000e+00 1
-3.3603833629532225e-02 6.2718344039317780e-02 0.0000000000000000e+00 1
-2.1828510221650499e-02 5.5885017634525497e-02 0.0000000000000000e+00 1
-1.0830248364663122e-02 6.2543445469454881e-02 0.0000000000000000e+00 1
-1.0386806611778631e-02 4.9128033968178310e-02 0.0000000000000000e+00 1
-2.2148828255649178e-02 4.1943307575331282e-02 0.0000000000000000e+00 1
-1.0442870412556801e-02 3.5726303372303155e-02 0.0000000000000000e+00 1
6.1565081692359987e-04 4.2326043823930667e-02 0.0000000000000000e+00 1
-6.5008429355213639e-05 2.9366457687219481e-02 0.0000000000000000e+00 1
-1.1186969456374382e-02 2.1821001559436851e-02 0.0000000000000000e+00 1
6.9360999864075904e-04 1.6590814525757995e-02 0.0000000000000000e+00 1
1.1706091875622953e-02 2.3089464481482285e-02 0.0000000000000000e+00 1
1.1408367658963182e-02 1.0440012894495374e-02 0.0000000000000000e+00 1
9.6551530392522127e-04 3.4944511376017806e-03 0.0000000000000000e+00 1
1.1485912259282640e-02 -1.6569735101372536e-03 0.0000000000000000e+00 1
2.0911344991029025e-02 4.3686461531820039e-03 0.0000000000000000e+00 1
2.1254698813946402e-02 -7.3942017471277169e-03 0.0000000000000000e+00 1
1.2295023701567931e-02 -1.2779553472226059e-02 0.0000000000000000e+00 1
2.1622161163384879e-02 -1.8415074683943104e-02 0.0000000000000000e+00 1
3.1136951707072369e-02 -1.3178430141611235e-02 0.0000000000000000e+00 1
3.1127506614641330e-02 -2.4361613065722782e-02 0.0000000000000000e+00 1
2.1300924332137476e-02 -2.8627753457402920e-02 0.0000000000000000e+00 1
3.1279919373607426e-02 -3.5131716028599921e-02 0.0000000000000000e+00 1
4.0700231660553324e-02 -2.9722312658305772e-02 0.0000000000000000e+00 1
4.0885664932137425e-02 -4.0880242631198008e-02 0.0000000000000000e+00 1
3.1115515142525463e-02 -4.5893962551562674e-02 0.0000000000000000e+00 1
4.1197414383769733e-02 -5.2151800825943423e-02 0.0000000000000000e+00 1
3.1096946364070763e-02 -5.7424543034672662e-02 0.0000000000000000e+00 1
4.1596676189466025e-02 -6.3638134523488848e-02 0.0000000000000000e+00 1
5.0302774610749647e-02 -4.5705139513910177e-02 0.0000000000000000e+00 1
3.1665390630732607e-02 -6.9517559334575985e-02 0.0000000000000000e+00 1
4.1981448355143239e-02 -7.5287256816384512e-02 0.0000000000000000e+00 1
3.1785905339593773e-02 -8.1162052374010751e-02 0.0000000000000000e+00 1
4.2248680866566628e-02 -8.6995485168522388e-02 0.0000000000000000e+00 1
5.2292073966285636e-02 -8.0908317208509328e-02 0.0000000000000000e+00 1
5.2687769907858464e-02 -9.2644076491043809e-02 0.0000000000000000e+00 1
4.2554758164337084e-02 -9.8922368134173960e-02 0.0000000000000000e+00 1
5.3190130540922122e-02 -1.0459271185244473e-01 0.0000000000000000e+00 1
4.2914417972402481e-02 -1.1102026022852603e-01 0.0000000000000000e+00 1
5.3693363851337113e-02 -1.1668187381858272e-01 0.0000000000000000e+00 1
2.0531634915227491e-02 -6.2469194388547186e-02 0.0000000000000000e+00 1
6.2473208994484344e-02 -8.6327416745393376e-02 0.0000000000000000e+00 1
6.3725508433498487e-02 -1.0991568388899606e-01 0.0000000000000000e+00 1
6.4460894940103500e-02 -1.2228693379240464e-01 0.0000000000000000e+00 1
5.4172368343252265e-02 -1.2894502463192312e-01 0.0000000000000000e+00 1
6.5251548154336980e-02 -1.3462873003965026e-01 0.0000000000000000e+00 1
5.5003374543188890e-02 -1.4084132169649036e-01 0.0000000000000000e+00 1
6.5845645690214810e-02 -1.4708915609422946e-01 0.0000000000000000e+00 1
5.3527686602620791e-02 -1.5358740680055735e-01 0.0000000000000000e+00 1
6.6503691986968802e-02 -1.5970552982492014e-01 0.0000000000000000e+00 1
4.4124314796385240e-02 -1.3484092661564406e-01 0.0000000000000000e+00 1
3.2149309316912844e-02 -1.0525741443360986e-01 0.0000000000000000e+00 1
7.7127656404345338e-02 -1.5282605575297409e-01 0.0000000000000000e+00 1
7.7760917745206798e-02 -1.6544702601440889e-01 0.0000000000000000e+00 1
6.7279270276721551e-02 -1.7238474105429527e-01 0.0000000000000000e+00 1
7.8475755140747755e-02 -1.7815679176155844e-01 0.0000000000000000e+00 1
6.7698269269572536e-02 -1.8510800050891524e-01 0.0000000000000000e+00 1
7.9138897097956976e-02 -1.9090359876473031e-01 0.0000000000000000e+00 1
7.5549069651326031e-02 -1.2784750161449571e-01 0.0000000000000000e+00 1
6.8222828582314127e-02 -1.9786524081285811e-01 0.0000000000000000e+00 1
7.9746294881100854e-02 -2.0371107721519444e-01 0.0000000000000000e+00 1
6.2192330244100903e-02 -7.5103739881708001e-02 0.0000000000000000e+00 1
7.1949921400557018e-02 -8.0200243363193480e-02 0.0000000000000000e+00 1
7.1691586571679386e-02 -6.9435265303504023e-02 0.0000000000000000e+00 1
9.0565903220580127e-02 -1.9668219696123951e-01 0.0000000000000000e+00 1
9.1253257142337632e-02 -2.0945959976800349e-01 0.0000000000000000e+00 1
8.0437762904236695e-02 -2.1649894377746925e-01 0.0000000000000000e+00 1
9.1899139059342785e-02 -2.2220885445794974e-01 0.0000000000000000e+00 1
8.1232482395485903e-02 -2.2915656831602252e-01 0.0000000000000000e+00 1
9.2533593701114469e-02 -2.3486949073713440e-01 0.0000000000000000e+00 1
-2.0919215040651976e-02 1.1122629833189726e-01 0.0000000000000000e+00 1
8.8345600729412999e-02 -1.5856979362354257e-01 0.0000000000000000e+00 1
8.0930296433550097e-02 -7.4446371793427113e-02 0.0000000000000000e+00 1
8.1496608945657689e-02 -8.5123833780943958e-02 0.0000000000000000e+00 1
8.0494525828341726e-02 -6.4060561886635142e-02 0.0000000000000000e+00 1
5.6517829307881420e-02 -1.7931801030563066e-01 0.0000000000000000e+00 1
-5.7627256060989882e-02 1.8854211194241025e-01 0.0000000000000000e+00 1
8.1997790131604922e-02 -2.4176379060868317e-01 0.0000000000000000e+00 1
9.3133484759787777e-02 -2.4742948532764730e-01 0.0000000000000000e+00 1
-5.7280658395138226e-02 9.0484755301693864e-02 0.0000000000000000e+00 1
-5.7331632590936807e-02 7.6635720941753027e-02 0.0000000000000000e+00 1
7.1726959712162225e-02 -5.9305390962584748e-02 0.0000000000000000e+00 1
8.0184241059275810e-02 -5.4293755463966434e-02 0.0000000000000000e+00 1
7.2174543666696289e-02 -4.9629178964575082e-02 0.0000000000000000e+00 1
7.9934559522365889e-02 -4.4915637234848718e-02 0.0000000000000000e+00 1
7.2162696300545309e-02 -4.0379407334191736e-02 0.0000000000000000e+00 1
7.9615818808634831e-02 -3.5874630794282103e-02 0.0000000000000000e+00 1
7.2094426261649372e-02 -3.1475636884877624e-02 0.0000000000000000e+00 1
8.2740246364005093e-02 -2.5425112571388908e-01 0.0000000000000000e+00 1
9.3740549960637340e-02 -2.5986202006731302e-01 0.0000000000000000e+00 1
1.0415151789578828e-01 -2.4064281786852862e-01 0.0000000000000000e+00 1
8.3399141496220519e-02 -2.6654413196843568e-01 0.0000000000000000e+00 1
9.4326270410154317e-02 -2.7209558232448977e-01 0.0000000000000000e+00 1
1.0461633047886004e-01 -2.6547603389502339e-01 0.0000000000000000e+00 1
1.0513808314571628e-01 -2.7765761434066516e-01 0.0000000000000000e+00 1
7.0745463445879467e-02 -2.3619452443914024e-01 0.0000000000000000e+00 1
1.1543323659694663e-01 -2.7112137559095834e-01 0.0000000000000000e+00 1
-7.1171173783859731e-02 2.2288694291305791e-01 0.0000000000000000e+00 1
-2.0831005771781059e-02 1.2537291750699481e-01 0.0000000000000000e+00 1
1.0201219066823239e-01 -2.0246458957992286e-01 0.0000000000000000e+00 1
1.0125921021988601e-01 -1.8965475705432822e-01 0.0000000000000000e+00 1
9.4991537975175344e-02 -2.8416658285548807e-01 0.0000000000000000e+00 1
1.0560824503322803e-01 -2.8965024117032806e-01 0.0000000000000000e+00 1
9.5652677797738450e-02 -2.9605075303036199e-01 0.0000000000000000e+00 1
1.0609520823460350e-01 -3.0139510297708277e-01 0.0000000000000000e+00 1
7.9563977014570408e-02 -2.7258998634700202e-02 0.0000000000000000e+00 1
7.1746184697145832e-02 -2.2575538511537076e-02 0.0000000000000000e+00 1
6.4298723406632341e-02 -2.7138594632690236e-02 0.0000000000000000e+00 1
6.4058659621827302e-02 -1.7697175541092701e-02 0.0000000000000000e+00 1
8.7760181364171935e-02 -1.4604146228186468e-01 0.0000000000000000e+00 1
9.8875747479729659e-02 -1.5174217643377422e-01 0.0000000000000000e+00 1
8.7291611912201944e-02 -3.9967429701136752e-02 0.0000000000000000e+00 1
-8.6166503560943866e-03 1.1820999493988650e-01 0.0000000000000000e+00 1
-8.7323507375725307e-03 1.0409373425678770e-01 0.0000000000000000e+00 1
9.9559741858572151e-02 -1.6426569364132770e-01 0.0000000000000000e+00 1
8.8469940702680785e-02 -5.8875578635972432e-02 0.0000000000000000e+00 1
3.2481813253702196e-02 -1.1752692760607164e-01 0.0000000000000000e+00 1
2.1601388220652693e-02 -1.1154932343152202e-01 0.0000000000000000e+00 1
2.2014331554077886e-02 -1.2390228846445778e-01 0.0000000000000000e+00 1
2.1220691322031894e-02 -9.9242408230874796e-02 0.0000000000000000e+00 1
1.0591433376896404e-02 -1.0556183838794475e-01 0.0000000000000000e+00 1
1.0205595499534984e-02 -9.3141928562553031e-02 0.0000000000000000e+00 1
-5.6264015690821872e-04 -9.9702472519012417e-02 0.0000000000000000e+00 1
-8.8083873358267865e-04 -8.7090005732843728e-02 0.0000000000000000e+00 1
3.5683914302285184e-03 1.1102556929905130e-01 0.0000000000000000e+00 1
3.2958400659843967e-03 9.7206454825703378e-02 0.0000000000000000e+00 1
-9.3557418330248845e-02 1.6727545312432612e-01 0.0000000000000000e+00 1
-9.2894442654799292e-02 1.5310093406495143e-01 0.0000000000000000e+00 1
9.8134278239834588e-02 -1.3918447179839749e-01 0.0000000000000000e+00 1
1.1270332660696489e-01 -1.9535148896671806e-01 0.0000000000000000e+00 1
1.1597057159582565e-01 -2.9514423095815223e-01 0.0000000000000000e+00 1
1.1640528460849675e-01 -3.0676493834249324e-01 0.0000000000000000e+00 1
1.0678007626624976e-01 -3.1284060953832149e-01 0.0000000000000000e+00 1
1.1673892546721394e-01 -3.1804458136735714e-01 0.0000000000000000e+00 1
1.0767667016407712e-01 -3.2356950238999871e-01 0.0000000000000000e+00 1
1.1718888237580910e-01 -3.2899484062320150e-01 0.0000000000000000e+00 1
8.9443548091028224e-02 -7.9183666248071785e-02 0.0000000000000000e+00 1
9.0468017827925129e-02 -8.9869575738809285e-02 0.0000000000000000e+00 1
8.2016804732238685e-02 -9.6018505343049620e-02 0.0000000000000000e+00 1
9.1998978819404678e-02 -1.0107046192281163e-01 0.0000000000000000e+00 1
7.2611857853044082e-02 -1.2216291151011740e-02 0.0000000000000000e+00 1
6.3631304918412943e-02 -8.0036382261218543e-03 0.0000000000000000e+00 1
5.5061173430637524e-02 -1.3462589577663758e-02 0.0000000000000000e+00 1
5.5341189069856946e-02 -2.4776001376365150e-03 0.0000000000000000e+00 1
-5.7267030570104932e-02 2.0432244549150408e-01 0.0000000000000000e+00 1
-4.4211035433305158e-02 1.9577562696851142e-01 0.0000000000000000e+00 1
-4.5006922635690796e-02 1.8159906428275074e-01 0.0000000000000000e+00 1
-1.0553956912719943e-01 2.0175006681741428e-01 0.0000000000000000e+00 1
-1.0542771446946750e-01 1.8800375196172731e-01 0.0000000000000000e+00 1
8.2575523882507246e-02 -1.0715499486893164e-01 0.0000000000000000e+00 1
9.2762216956880417e-02 -1.1231275044935347e-01 0.0000000000000000e+00 1
-8.3627714319064933e-02 2.5611446779837294e-01 0.0000000000000000e+00 1
1.1017727189004101e-01 -1.5699026844516539e-01 0.0000000000000000e+00 1
1.1467696686803726e-01 -2.5888090285440890e-01 0.0000000000000000e+00 1
1.2612543963241005e-01 -3.2336910646332562e-01 0.0000000000000000e+00 1
-1.1726698699193668e-01 2.3542327729279910e-01 0.0000000000000000e+00 1
-1.1712752657149020e-01 2.2204182084737067e-01 0.0000000000000000e+00 1
-6.9072356195816129e-02 8.3602936548314646e-02 0.0000000000000000e+00 1
-6.9069295864625138e-02 6.9789345352865267e-02 0.0000000000000000e+00 1
-5.7367205161642953e-02 6.2839106196476813e-02 0.0000000000000000e+00 1
-6.9215232305619850e-02 9.7437943615147252e-02 0.0000000000000000e+00 1
6.4075615553486676e-02 2.1821983161835227e-03 0.0000000000000000e+00 1
5.5703926421209263e-02 7.9333973758372450e-03 0.0000000000000000e+00 1
4.5129058038052151e-02 1.9325395367861212e-03 0.0000000000000000e+00 1
4.5889657974090295e-02 1.3398364349539033e-02 0.0000000000000000e+00 1
1.0088916072027422e-02 -8.0799645786369459e-02 0.0000000000000000e+00 1
-1.0750759594046738e-03 -7.4614416625832930e-02 0.0000000000000000e+00 1
-8.4322876317660167e-02 2.6914505741462624e-01 0.0000000000000000e+00 1
-1.4987937723595535e-01 3.1687215957394199e-01 0.0000000000000000e+00 1
1.2625449815711834e-01 -3.3416290544045513e-01 0.0000000000000000e+00 1
1.1764435856317586e-01 -3.3955842450007301e-01 0.0000000000000000e+00 1
1.2670668463607987e-01 -3.4466350632931414e-01 0.0000000000000000e+00 1
-3.2216097644142516e-02 1.8799186377243540e-01 0.0000000000000000e+00 1
-7.1616739017393030e-02 2.3653593141857546e-01 0.0000000000000000e+00 1
-5.8901795323906547e-02 2.2988471512068520e-01 0.0000000000000000e+00 1
1.2616446305304918e-01 -3.0063233273724671e-01 0.0000000000000000e+00 1
5.5737407617421950e-02 1.8649974931622126e-02 0.0000000000000000e+00 1
4.6180605746341211e-02 2.4705282252637385e-02 0.0000000000000000e+00 1
3.4468980236331999e-02 1.8539057141670850e-02 0.0000000000000000e+00 1
3.6271444724430037e-02 3.0823640983925937e-02 0.0000000000000000e+00 1
4.6677940484536086e-02 3.6441878818218573e-02 0.0000000000000000e+00 1
3.6533402170962702e-02 4.2889489006605282e-02 0.0000000000000000e+00 1
2.5909022504222085e-02 3.6943960341531738e-02 0.0000000000000000e+00 1
2.6101142516863268e-02 4.9358281330737386e-02 0.0000000000000000e+00 1
-1.4881096961928825e-01 3.4944384287320057e-01 0.0000000000000000e+00 1
-1.2883402317730827e-01 2.6759369534515248e-01 0.0000000000000000e+00 1
-1.2865968367460989e-01 2.5473742775644281e-01 0.0000000000000000e+00 1
6.3487617544272068e-02 -5.4236109293212119e-02 0.0000000000000000e+00 1
-3.3095619129027087e-02 1.7428296069411359e-01 0.0000000000000000e+00 1
1.2643170455885641e-01 -2.6420210014966078e-01 0.0000000000000000e+00 1
1.1883474660257354e-01 -3.4999525976601298e-01 0.0000000000000000e+00 1
1.2708247516661075e-01 -3.5483621077303257e-01 0.0000000000000000e+00 1
1.0170138105243853e-01 -9.4190498882651824e-02 0.0000000000000000e+00 1
7.3010161960548783e-02 -2.6053439685661917e-01 0.0000000000000000e+00 1
7.3076997724093581e-02 -2.7384726696356837e-01 0.0000000000000000e+00 1
4.7184844936185640e-02 4.9001482446522540e-02 0.0000000000000000e+00 1
-9.7325628138083042e-02 2.8761593445366807e-01 0.0000000000000000e+00 1
-9.8728621634635388e-02 3.0142270325778825e-01 0.0000000000000000e+00 1
-1.1760904932420052e-02 -9.3660480225054063e-02 0.0000000000000000e+00 1
-1.0823087303616911e-02 -1.0681168978983119e-01 0.0000000000000000e+00 1
-7.9384758206400285e-03 1.3236073224211317e-01 0.0000000000000000e+00 1
-2.0705119999646915e-02 1.3959305961818469e-01 0.0000000000000000e+00 1
-7.8733822677644685e-03 1.4647714853066998e-01 0.0000000000000000e+00 1
-2.0918063105294416e-02 1.5346938450030106e-01 0.0000000000000000e+00 1
1.2632802660343326e-01 -2.7806039820855910e-01 0.0000000000000000e+00 1
1.1389683806093687e-01 -2.0783342512282960e-01 0.0000000000000000e+00 1
-7.0542719552150884e-02 5.4254151403384986e-02 0.0000000000000000e+00 1
-5.7466880991412318e-02 4.9094596566362371e-02 0.0000000000000000e+00 1
-8.1257202483546440e-02 6.2922043107057915e-02 0.0000000000000000e+00 1
1.1193571633343569e-01 -1.8240011306440645e-01 0.0000000000000000e+00 1
-7.2310070102280022e-02 2.6283030087579218e-01 0.0000000000000000e+00 1
-7.5757330566972383e-03 1.6223682341215295e-01 0.0000000000000000e+00 1
5.8846856609145515e-02 4.2210852924051009e-02 0.0000000000000000e+00 1
-1.2017980037519620e-01 3.3434074505930972e-01 0.0000000000000000e+00 1
8.9399216898261885e-02 -4.9185570448732757e-02 0.0000000000000000e+00 1
9.6378402206836938e-02 -5.4307230040923811e-02 0.0000000000000000e+00 1
9.6640928683566732e-02 -6.3348162770759345e-02 0.0000000000000000e+00 1
9.4023418384930058e-02 -4.2630267937181304e-02 0.0000000000000000e+00 1
-8.3304403342493630e-02 8.9654356070884525e-02 0.0000000000000000e+00 1
-8.1539599534153961e-02 1.0420196826194222e-01 0.0000000000000000e+00 1
-9.4858487870468633e-02 9.8972762744166526e-02 0.0000000000000000e+00 1
9.3894160606967036e-02 -3.5762912785775473e-02 0.0000000000000000e+00 1
8.7005611632483881e-02 -3.1856322305570825e-02 0.0000000000000000e+00 1
9.3910886457598403e-02 -2.8385395883677906e-02 0.0000000000000000e+00 1
8.7098732978883292e-02 -2.3604745498018765e-02 0.0000000000000000e+00 1
8.7289769667856135e-02 -1.6881313277843264e-02 0.0000000000000000e+00 1
8.5149148195608662e-02 -2.9073887732639353e-01 0.0000000000000000e+00 1
8.5777736316777445e-02 -3.0172052814456729e-01 0.0000000000000000e+00 1
1.2417738319487781e-01 -1.8693809835410719e-01 0.0000000000000000e+00 1
1.6423305591132833e-02 4.3229844626572513e-02 0.0000000000000000e+00 1
1.4212894414002012e-02 5.6185319412021456e-02 0.0000000000000000e+00 1
2.6167880277455952e-02 6.1936752013274178e-02 0.0000000000000000e+00 1
1.5611038993105498e-02 6.8920048838386011e-02 0.0000000000000000e+00 1
2.8353576249212729e-02 7.6393973020818545e-02 0.0000000000000000e+00 1
1.4667259523163821e-02 8.1719355883388758e-02 0.0000000000000000e+00 1
4.1432004451226884e-03 7.5775915206861250e-02 0.0000000000000000e+00 1
1.3437994748129675e-01 -4.0590846249696200e-01 0.0000000000000000e+00 1
-1.6587234138663914e-01 4.1191448546207210e-01 0.0000000000000000e+00 1
-1.6575384377809002e-01 4.0774246265784375e-01 0.0000000000000000e+00 1
-1.6232860507775992e-01 4.0501453737371801e-01 0.0000000000000000e+00 1
-1.6722874045370850e-01 4.0314538886495938e-01 0.0000000000000000e+00 1
-1.6255024170434124e-01 4.0033734048354197e-01 0.0000000000000000e+00 1
5.2182083318554701e-02 -6.9446809122219594e-02 0.0000000000000000e+00 1
5.2819168129472870e-02 -5.6830581644821021e-02 0.0000000000000000e+00 1
-1.6680083300322981e-01 3.6579597768670552e-01 0.0000000000000000e+00 1
-1.2354717570747564e-01 3.5616598354848872e-01 0.0000000000000000e+00 1
2.1962447557998130e-02 1.6471213007314366e-02 0.0000000000000000e+00 1
8.7196837595853671e-02 -1.3360758483111324e-01 0.0000000000000000e+00 1
9.7566984818385147e-02 -1.2696023135162104e-01 0.0000000000000000e+00 1
-9.3257569766329179e-02 1.1155802316359226e-01 0.0000000000000000e+00 1
-8.1288248996483486e-02 1.1817715837189388e-01 0.0000000000000000e+00 1
-9.3307830667158809e-02 1.2518731455399174e-01 0.0000000000000000e+00 1
-1.0385917156160046e-01 1.3361161337654659e-01 0.0000000000000000e+00 1
-9.2588054270720171e-02 1.3929363663756619e-01 0.0000000000000000e+00 1
9.9262811297759299e-03 -6.8452606957029177e-02 0.0000000000000000e+00 1
-1.2846043519051248e-03 -6.2122959231702239e-02 0.0000000000000000e+00 1
-1.1812227519521712e-02 -6.8504535948759077e-02 0.0000000000000000e+00 1
-1.1620960729127817e-02 -5.5965822872316856e-02 0.0000000000000000e+00 1
-1.3967271998630182e-03 -4.9512092512965157e-02 0.0000000000000000e+00 1
-1.1686127428949051e-02 -4.3432505290076480e-02 0.0000000000000000e+00 1
-1.5899008654707645e-03 -3.7069903288958331e-02 0.0000000000000000e+00 1
-1.2318097209528162e-02 -3.0939562690675708e-02 0.0000000000000000e+00 1
-2.3765456929878501e-02 -3.8827631668677004e-02 0.0000000000000000e+00 1
-2.3487471716974368e-02 -2.4845625597485828e-02 0.0000000000000000e+00 1
-1.2370383672578094e-02 -1.8254981462362159e-02 0.0000000000000000e+00 1
-2.2684350962655475e-02 -1.1614144397523538e-02 0.0000000000000000e+00 1
-3.4018863455693535e-02 -1.8146638188333293e-02 0.0000000000000000e+00 1
-3.4446395406806662e-02 -5.1379291788751016e-03 0.0000000000000000e+00 1
-2.2357247174681839e-02 1.4211666142529729e-03 0.0000000000000000e+00 1
-3.4223239028241211e-02 7.9756345282063490e-03 0.0000000000000000e+00 1
-4.4926062836549353e-02 -1.3228365331290834e-02 0.0000000000000000e+00 1
9.5236455935297330e-03 -4.3635796538512524e-02 0.0000000000000000e+00 1
-2.2724806495311008e-02 1.4538335917435651e-02 0.0000000000000000e+00 1
-3.4123983366252206e-02 2.1179342040991075e-02 0.0000000000000000e+00 1
-4.5499859196685588e-02 1.5141245483029944e-02 0.0000000000000000e+00 1
-4.5585017967580473e-02 2.8083627615900976e-02 0.0000000000000000e+00 1
-5.7131800730129224e-02 2.2050642187386092e-02 0.0000000000000000e+00 1
-2.3388373415159008e-02 -6.2106767411770632e-02 0.0000000000000000e+00 1
-3.3940639533290524e-02 3.4833967819541442e-02 0.0000000000000000e+00 1
8.9361762190481135e-03 -3.1008548418108565e-02 0.0000000000000000e+00 1
-4.5559942757150668e-02 4.1862873978090936e-02 0.0000000000000000e+00 1
9.4724624876176989e-03 -5.5879579974158280e-02 0.0000000000000000e+00 1
3.1931585424064102e-02 -5.2614504484327829e-04 0.0000000000000000e+00 1
4.0839093974071469e-02 -7.6500391291639989e-03 0.0000000000000000e+00 1
4.0117043888430175e-02 -1.8731926912987716e-02 0.0000000000000000e+00 1
4.9940926479836403e-02 -2.4014384237903523e-02 0.0000000000000000e+00 1
4.9857687263107638e-02 -3.5516432042327635e-02 0.0000000000000000e+00 1
5.7992019828587774e-02 -4.0442222320807429e-02 0.0000000000000000e+00 1
1.3955031962627276e-01 -4.1063444586982084e-01 0.0000000000000000e+00 1
1.3831294478227324e-01 -4.0789840610945005e-01 0.0000000000000000e+00 1
-3.2256963394064232e-02 -7.3784342393217031e-02 0.0000000000000000e+00 1
-3.0429964283920072e-02 -5.0345606634787224e-02 0.0000000000000000e+00 1
-1.0441609740345293e-02 8.9007270805411629e-03 0.0000000000000000e+00 1
-9.6797985828314705e-03 -5.5773622037203780e-03 0.0000000000000000e+00 1
9.6182853582434252e-02 -3.0771656091980659e-01 0.0000000000000000e+00 1
-9.3810607104223391e-03 9.0673668127384394e-02 0.0000000000000000e+00 1
1.0650309721291491e-01 -3.3463858433070470e-01 0.0000000000000000e+00 1
-2.6061330734611400e-03 -2.5258922782686460e-02 0.0000000000000000e+00 1
-9.4399620246446766e-03 7.6208555066502398e-02 0.0000000000000000e+00 1
1.2619014367629919e-01 -3.1204265311280743e-01 0.0000000000000000e+00 1
2.0679645062854770e-02 -5.0851233727816733e-02 0.0000000000000000e+00 1
7.2974470337448846e-02 2.2284220635567009e-02 0.0000000000000000e+00 1
6.6152243967712424e-02 1.2902971376638228e-02 0.0000000000000000e+00 1
1.1519737792775728e-01 -3.7034415625394851e-01 0.0000000000000000e+00 1
1.2479055849256537e-01 -3.7034945714806355e-01 0.0000000000000000e+00 1
1.2898981942061882e-01 -3.7780066690167163e-01 0.0000000000000000e+00 1
1.3393879621931470e-01 -3.7033271797764711e-01 0.0000000000000000e+00 1
1.3743250209064140e-01 -3.7882268660097634e-01 0.0000000000000000e+00 1
1.3856145947120360e-01 -3.6278818404518820e-01 0.0000000000000000e+00 1
1.1959571670632468e-01 -3.6072298078021026e-01 0.0000000000000000e+00 1
-1.5347347127380767e-01 3.8647570037055845e-01 0.0000000000000000e+00 1
-1.5508789111888766e-01 3.9358855727384390e-01 0.0000000000000000e+00 1
8.0121550270783573e-04 5.6036688714688046e-02 0.0000000000000000e+00 1
3.6665827124926761e-02 8.8660198721016714e-02 0.0000000000000000e+00 1
1.6739524069449327e-02 1.0309737968507264e-01 0.0000000000000000e+00 1
1.5872206661021109e-02 1.1780330639868186e-01 0.0000000000000000e+00 1
8.2551711028891833e-02 3.4542056519473370e-03 0.0000000000000000e+00 1
7.7434528241168768e-02 -4.5985948967715773e-03 0.0000000000000000e+00 1
-4.5542019175646549e-02 5.5840294729343168e-02 0.0000000000000000e+00 1
-5.6969704470613503e-02 3.5264456041370851e-02 0.0000000000000000e+00 1
-7.1048373773985166e-02 2.9154593094471069e-02 0.0000000000000000e+00 1
-3.3848995944299048e-02 4.8922789439869836e-02 0.0000000000000000e+00 1
1.1701238114667926e-01 -1.2430546482675531e-01 0.0000000000000000e+00 1
-5.0611229593156441e-02 2.4239180875031779e-01 0.0000000000000000e+00 1
-4.3357910091950613e-02 2.2973715595466485e-01 0.0000000000000000e+00 1
-5.0307192430858280e-02 2.1756365352456608e-01 0.0000000000000000e+00 1
-7.2615508200610301e-02 2.7723852428133677e-01 0.0000000000000000e+00 1
9.9841355748446339e-02 -4.0031566748217437e-02 0.0000000000000000e+00 1
2.1235460620831648e-02 -8.7155086972910314e-02 0.0000000000000000e+00 1
7.6601709205082497e-02 -1.4030059120202087e-01 0.0000000000000000e+00 1
-1.5029595960816239e-01 3.2793036594498354e-01 0.0000000000000000e+00 1
8.5329528039072122e-02 -3.1431881361039810e-01 0.0000000000000000e+00 1
8.4666531441763906e-02 -2.7880738645048703e-01 0.0000000000000000e+00 1
1.1195873816487273e-01 -9.0128728092399274e-02 0.0000000000000000e+00 1
1.0250910196665985e-01 -1.0653254313564745e-01 0.0000000000000000e+00 1
1.1318651706735192e-01 -1.1334555746421962e-01 0.0000000000000000e+00 1
1.4126006915620432e-01 -3.2223428898947998e-01 0.0000000000000000e+00 1
1.2200290671209493e-01 -1.6106236935468032e-01 0.0000000000000000e+00 1
-4.2943402880976048e-02 -4.9224751845684186e-02 0.0000000000000000e+00 1
1.3759774951893866e-01 -2.9880159840568521e-01 0.0000000000000000e+00 1
-1.0681637298905450e-01 3.3449655413945573e-01 0.0000000000000000e+00 1
-1.1268850570924505e-01 3.2376699697720324e-01 0.0000000000000000e+00 1
-1.0580860523080371e-01 3.1325128820491283e-01 0.0000000000000000e+00 1
-9.3150366965591383e-02 3.1369019329352765e-01 0.0000000000000000e+00 1
1.1572902542826544e-01 -2.8335522530801716e-01 0.0000000000000000e+00 1
1.0919766982734226e-01 -1.4401114508889762e-01 0.0000000000000000e+00 1
-4.5428405407495570e-02 6.9673857768594333e-02 0.0000000000000000e+00 1
4.2703159884014227e-02 7.6601557871352505e-02 0.0000000000000000e+00 1
-5.3750286286781003e-02 -2.3088693431776126e-02 0.0000000000000000e+00 1
7.1822689806896045e-02 -2.4834863381162012e-01 0.0000000000000000e+00 1
5.8572938206164930e-02 -2.4241924131507425e-01 0.0000000000000000e+00 1
5.9415764290977620e-02 -2.3072476146167537e-01 0.0000000000000000e+00 1
6.9809888289461178e-02 -2.2360910578650009e-01 0.0000000000000000e+00 1
5.8451768758947371e-02 -2.1750539266244412e-01 0.0000000000000000e+00 1
6.9039804557028628e-02 -2.1063170102559003e-01 0.0000000000000000e+00 1
5.7504138737413286e-02 -2.0487368453924065e-01 0.0000000000000000e+00 1
4.6620057438731155e-02 -2.1177005725927103e-01 0.0000000000000000e+00 1
4.5982025153588263e-02 -1.9926400117913592e-01 0.0000000000000000e+00 1
3.5432998317306078e-02 -2.0607502427810637e-01 0.0000000000000000e+00 1
1.0871193217373804e-01 -7.1389600131441938e-02 0.0000000000000000e+00 1
1.0250168576630728e-01 -7.7414822005752837e-02 0.0000000000000000e+00 1
-9.3667954589806063e-02 1.8117608900474474e-01 0.0000000000000000e+00 1
-1.0455412020814595e-01 1.7412722119205895e-01 0.0000000000000000e+00 1
-1.1676170209155697e-01 1.8077201345292310e-01 0.0000000000000000e+00 1
-1.5788122494064960e-01 3.6270573491814601e-01 0.0000000000000000e+00 1
-1.2908708037640912e-01 2.8049789184279861e-01 0.0000000000000000e+00 1
-1.4155313840991354e-01 2.8710749038176120e-01 0.0000000000000000e+00 1
-2.1163042752854792e-02 9.7177413513373112e-02 0.0000000000000000e+00 1
-2.2428016253239015e-02 2.8340376380839905e-02 0.0000000000000000e+00 1
-5.0297576293858413e-03 -1.3583553347027272e-01 0.0000000000000000e+00 1
2.8148692579789362e-03 -1.2542216942200982e-01 0.0000000000000000e+00 1
7.6733943394558541e-03 -1.3771903415449360e-01 0.0000000000000000e+00 1
4.8292018264353091e-04 -1.4840380275838430e-01 0.0000000000000000e+00 1
1.3624697004287591e-02 -1.4967594126324169e-01 0.0000000000000000e+00 1
1.9266774099293924e-02 -1.6159269092648967e-01 0.0000000000000000e+00 1
2.6608358540095654e-02 -1.5108474330460808e-01 0.0000000000000000e+00 1
3.2195062888824982e-02 -1.6277312186944376e-01 0.0000000000000000e+00 1
2.4809514871066682e-02 -1.7340569132106948e-01 0.0000000000000000e+00 1
3.7243230211048264e-02 -1.7417165560272541e-01 0.0000000000000000e+00 1
3.9466372847175031e-02 -1.5293611869290652e-01 0.0000000000000000e+00 1
2.1265450445461104e-02 -1.3741017132551323e-01 0.0000000000000000e+00 1
3.0315993755614147e-02 -1.8509657956235578e-01 0.0000000000000000e+00 1
4.4250489584620391e-02 -1.8553090207011963e-01 0.0000000000000000e+00 1
4.4671540811946686e-02 -1.6392995171300090e-01 0.0000000000000000e+00 1
-1.0571870479140524e-01 2.1540029933697150e-01 0.0000000000000000e+00 1
-1.1628693133479358e-01 2.0849003245762623e-01 0.0000000000000000e+00 1
-1.2604339751667284e-01 2.1425220501305142e-01 0.0000000000000000e+00 1
1.7608203472876768e-02 -1.8449410473888317e-01 0.0000000000000000e+00 1
1.0527989779333433e-01 -5.3130893570610752e-02 0.0000000000000000e+00 1
1.0430777743414078e-01 -3.5330271154067905e-01 0.0000000000000000e+00 1
6.2948681068451431e-02 -9.7753086253906829e-02 0.0000000000000000e+00 1
1.2534614205673247e-01 -3.8593423365491392e-01 0.0000000000000000e+00 1
-3.0036671291034545e-02 2.0293322222110277e-01 0.0000000000000000e+00 1
-1.1755139113065363e-01 2.4860081383869126e-01 0.0000000000000000e+00 1
-1.3054220232156100e-01 2.4079852067115079e-01 0.0000000000000000e+00 1
-1.4004794965374256e-01 2.4869778794457886e-01 0.0000000000000000e+00 1
-8.1238708015218597e-02 1.4620957967224982e-01 0.0000000000000000e+00 1
1.0272941217273741e-01 -2.1518760806504894e-01 0.0000000000000000e+00 1
1.1540619040367658e-01 -2.2051062600377794e-01 0.0000000000000000e+00 1
1.2817157121091782e-01 -2.2562247584395284e-01 0.0000000000000000e+00 1
1.1741552386829110e-01 -2.3452910894888751e-01 0.0000000000000000e+00 1
4.5053395166008717e-02 -2.4216557104192105e-01 0.0000000000000000e+00 1
1.1105332683355978e-01 -1.6947402161378050e-01 0.0000000000000000e+00 1
1.0042136655639161e-01 -1.7681587717676597e-01 0.0000000000000000e+00 1
-6.9291489329808623e-02 1.1129560154420251e-01 0.0000000000000000e+00 1
-4.5258408169087230e-02 1.5342129692318196e-01 0.0000000000000000e+00 1
9.4764018974947531e-02 -3.3498380624176372e-01 0.0000000000000000e+00 1
1.4222378137310304e-01 -3.4362618676472884e-01 0.0000000000000000e+00 1
-5.7247442976144584e-02 1.0435760922265826e-01 0.0000000000000000e+00 1
1.0402256285015843e-01 -2.2799141768022116e-01 0.0000000000000000e+00 1
-6.9325325201127885e-02 1.2521662810993356e-01 0.0000000000000000e+00 1
1.1801656981971869e-02 -1.7248271765223028e-01 0.0000000000000000e+00 1
8.0069263757756373e-02 -1.8893540683005874e-02 0.0000000000000000e+00 1
3.4280386505594326e-02 -2.1911686133071501e-01 0.0000000000000000e+00 1
6.7205321771678456e-02 -2.8483741922854866e-01 0.0000000000000000e+00 1
-1.6389629182305865e-01 3.4467003575024457e-01 0.0000000000000000e+00 1
5.0812384208211998e-02 -2.5285378204145187e-01 0.0000000000000000e+00 1
8.8439002573486913e-02 -6.8874309863707350e-02 0.0000000000000000e+00 1
-1.5103808197001756e-01 2.7786962430166573e-01 0.0000000000000000e+00 1
-1.3952983917714215e-01 2.9988450907646158e-01 0.0000000000000000e+00 1
4.3369310747434818e-03 1.2463404092842241e-01 0.0000000000000000e+00 1
1.1458299215225509e-01 -2.4712509839384736e-01 0.0000000000000000e+00 1
-5.7464934972162540e-02 1.7448619024091175e-01 0.0000000000000000e+00 1
5.6442588742427149e-02 -1.9199272149882360e-01 0.0000000000000000e+00 1
-3.2996700384831740e-02 1.3242996887119693e-01 0.0000000000000000e+00 1
8.9016285945364648e-02 -1.7118301868075719e-01 0.0000000000000000e+00 1
-1.5011066884429961e-01 3.3881970690791907e-01 0.0000000000000000e+00 1
-1.6010171768004500e-01 3.2265784751613835e-01 0.0000000000000000e+00 1
3.7064563533951760e-02 8.6960979134086454e-03 0.0000000000000000e+00 1
-1.2351320891269142e-01 1.6949879309864263e-01 0.0000000000000000e+00 1
8.9766279067857363e-02 -1.8392097319903147e-01 0.0000000000000000e+00 1
-1.1409585264894967e-01 1.4368023620206308e-01 0.0000000000000000e+00 1
-1.5371303980452150e-01 2.8927729328192370e-01 0.0000000000000000e+00 1
-3.4401867864162557e-02 -3.0736561479191522e-02 0.0000000000000000e+00 1
7.4348440606319718e-02 -1.1554777870669516e-01 0.0000000000000000e+00 1
1.0412459611279702e-01 -2.5321551665408482e-01 0.0000000000000000e+00 1
-7.0305025914935593e-02 2.0909907284839910e-01 0.0000000000000000e+00 1
3.1865800938378978e-02 -9.3122469219017012e-02 0.0000000000000000e+00 1
4.3369219133578336e-02 -1.2313311901796682e-01 0.0000000000000000e+00 1
1.2578338169239639e-01 -2.8906082850489312e-01 0.0000000000000000e+00 1
-8.3225275257267362e-02 2.4281744953794987e-01 0.0000000000000000e+00 1
1.3214171701647481e-01 -2.3764183927041921e-01 0.0000000000000000e+00 1
6.2453507490826621e-02 -6.4514362608657477e-02 0.0000000000000000e+00 1
1.2046684958318193e-01 -1.4860884029058230e-01 0.0000000000000000e+00 1
-1.0536574823846181e-01 1.5882603213938778e-01 0.0000000000000000e+00 1
-1.1970203976072314e-02 -8.1085755997963999e-02 0.0000000000000000e+00 1
-4.8182071329814696e-02 1.1171015256978350e-03 0.0000000000000000e+00 1
-9.6251775491521391e-02 2.7493592211244933e-01 0.0000000000000000e+00 1
4.2597372329033985e-04 -1.1275229145935968e-01 0.0000000000000000e+00 1
8.5759503481585744e-02 -1.2185726949557182e-01 0.0000000000000000e+00 1
-8.1248466709388720e-02 1.3208845065342387e-01 0.0000000000000000e+00 1
-3.3033903788207836e-02 1.4641381139570495e-01 0.0000000000000000e+00 1
-1.4496135232903401e-01 3.8285451049863684e-01 0.0000000000000000e+00 1
-1.3973299199958999e-01 2.7342679012890458e-01 0.0000000000000000e+00 1
-4.5237628971390588e-02 1.6740198574675871e-01 0.0000000000000000e+00 1
5.6232967663607962e-02 2.9748708891139203e-02 0.0000000000000000e+00 1
1.0822940376073005e-01 -1.3233988205415653e-01 0.0000000000000000e+00 1
3.6925407944265368e-02 5.5396116917065953e-02 0.0000000000000000e+00 1
3.2798625915383933e-02 -1.2970552213280645e-01 0.0000000000000000e+00 1
6.1129415558509155e-02 -2.7459507149633783e-01 0.0000000000000000e+00 1
7.2349556365404841e-02 -9.1140113810605133e-02 0.0000000000000000e+00 1
-6.7785868926464765e-02 1.4405952438112397e-02 0.0000000000000000e+00 1
-5.8200492846304352e-02 -1.0382557456568822e-02 0.0000000000000000e+00 1
9.7518876522696168e-02 -3.1856957880219616e-01 0.0000000000000000e+00 1
-7.1871821737508015e-02 2.4999995065706887e-01 0.0000000000000000e+00 1
-1.1607627802631716e-01 1.9547625540381997e-01 0.0000000000000000e+00 1
-1.7254250314330197e-01 3.9982054266840628e-01 0.0000000000000000e+00 1
-1.5043160325970492e-01 3.9822235239291648e-01 0.0000000000000000e+00 1
-3.3178338106749548e-02 1.6014139407813033e-01 0.0000000000000000e+00 1
2.0872264784698141e-02 -7.4926024302240463e-02 0.0000000000000000e+00 1
1.0254807253636927e-01 -1.1700156124126034e-01 0.0000000000000000e+00 1
1.2533702951571785e-01 -1.9983768923662265e-01 0.0000000000000000e+00 1
-1.5778300910349324e-01 4.0686089888897092e-01 0.0000000000000000e+00 1
5.6252499685973123e-02 -1.6694392328332192e-01 0.0000000000000000e+00 1
-1.3631720639241746e-01 3.8005591582603365e-01 0.0000000000000000e+00 1
-2.1911976357436747e-02 -1.0136329364829572e-01 0.0000000000000000e+00 1
1.4283773015482637e-01 -4.0240583354674631e-01 0.0000000000000000e+00 1
-1.2808913079721146e-01 2.2717040832158325e-01 0.0000000000000000e+00 1
-8.0961253067536335e-02 7.5756376233361372e-02 0.0000000000000000e+00 1
7.2994085848070059e-02 -1.0292169381203073e-01 0.0000000000000000e+00 1
-8.5469635131934410e-02 3.0336329824307456e-01 0.0000000000000000e+00 1
3.5018990698793967e-02 -1.4180894627013987e-01 0.0000000000000000e+00 1
1.2959223073761675e-01 -3.6280009467011870e-01 0.0000000000000000e+00 1
1.0990000413788753e-01 -3.4598376910291667e-01 0.0000000000000000e+00 1
1.1669950819952896e-02 -1.1791228371380787e-01 0.0000000000000000e+00 1
1.3689893094144867e-01 -3.8522729518303445e-01 0.0000000000000000e+00 1
1.3665494008620385e-01 -2.7318949731715503e-01 0.0000000000000000e+00 1
-1.9396612760039351e-02 1.9137647866333996e-01 0.0000000000000000e+00 1
7.2979988133721224e-02 3.8022635127183666e-03 0.0000000000000000e+00 1
1.3427383231591450e-01 -3.4945067335526975e-01 0.0000000000000000e+00 1
-1.5867622170986126e-01 3.1136647239744397e-01 0.0000000000000000e+00 1
5.6957222852717426e-02 5.4254316866735014e-02 0.0000000000000000e+00 1
-1.3908153856927069e-01 2.6002136649376839e-01 0.0000000000000000e+00 1
2.2574979137208965e-03 -7.4933469229752428e-03 0.0000000000000000e+00 1
-1.2277312205538857e-01 3.4607769611931249e-01 0.0000000000000000e+00 1
-1.4928336195057146e-01 3.5911783305644784e-01 0.0000000000000000e+00 1
6.2491606711440953e-02 -2.5575808703583869e-01 0.0000000000000000e+00 1
1.3412360019027042e-01 -3.3909087175176411e-01 0.0000000000000000e+00 1
4.8231518691677751e-02 -2.2318783613736509e-01 0.0000000000000000e+00 1
2.4397614975121180e-02 2.6409493968953625e-02 0.0000000000000000e+00 1
-1.3392931577084477e-01 2.0575395628442539e-01 0.0000000000000000e+00 1
3.5600750004099367e-02 -1.9504761157329306e-01 0.0000000000000000e+00 1
3.4163306237653987e-03 1.5259143420784360e-01 0.0000000000000000e+00 1
-8.6163235030731242e-02 2.8149227566354384e-01 0.0000000000000000e+00 1
1.3742989896268859e-01 -2.6245277628502495e-01 0.0000000000000000e+00 1
3.6845396580866108e-02 6.6694995419299963e-02 0.0000000000000000e+00 1
-2.2159917438582168e-02 1.6745962293181077e-01 0.0000000000000000e+00 1
-1.0381040103405681e-01 1.0659593952409899e-01 0.0000000000000000e+00 1
8.2397508757583143e-02 -1.1081006205354986e-02 0.0000000000000000e+00 1
-1.6715732220338203e-01 3.9736018019126129e-01 0.0000000000000000e+00 1
-1.0176065387490629e-01 1.4570249048410300e-01 0.0000000000000000e+00 1
1.7175766223737544e-02 3.3081238051862402e-02 0.0000000000000000e+00 1
-2.0879326366850672e-02 -7.4427056426718236e-02 0.0000000000000000e+00 1
1.0469404829770630e-01 -8.5146902598351920e-02 0.0000000000000000e+00 1
2.4062400908488758e-02 9.0318664895156928e-02 0.0000000000000000e+00 1
7.7024988610144771e-02 -3.0640445138526462e-01 0.0000000000000000e+00 1
9.9366115234434171e-02 -2.5936850159361525e-02 0.0000000000000000e+00 1
-6.6798504267911493e-02 4.2304995749129527e-02 0.0000000000000000e+00 1
2.0472637620617160e-02 -3.9191501787000552e-02 0.0000000000000000e+00 1
1.0144320089276006e-01 -6.9547162811255114e-02 0.0000000000000000e+00 1
-8.3548901922796667e-02 5.1572477359644882e-02 0.0000000000000000e+00 1
-1.7134212123248949e-01 4.0842785730197595e-01 0.0000000000000000e+00 1
1.4411880477712904e-01 -3.9243231192309497e-01 0.0000000000000000e+00 1
1.3370329228059741e-01 -3.2827473829073034e-01 0.0000000000000000e+00 1
6.3786667710594755e-02 2.3473173288714549e-02 0.0000000000000000e+00 1
-1.2475851487381340e-01 3.6475122800251797e-01 0.0000000000000000e+00 1
1.4478535104184037e-01 -3.7829737541890512e-01 0.0000000000000000e+00 1
-1.1009969012750631e-01 3.0397093482912524e-01 0.0000000000000000e+00 1
1.2252032520437738e-01 -2.5287173481567249e-01 0.0000000000000000e+00 1
-1.2834205325971704e-01 1.7975434133817902e-01 0.0000000000000000e+00 1
-4.4138946201265669e-02 2.0781884406248985e-01 0.0000000000000000e+00 1
2.6072255679992763e-02 1.1196868326115622e-01 0.0000000000000000e+00 1
-1.3720877104561061e-01 2.1867040592972606e-01 0.0000000000000000e+00 1
-1.4865317151676424e-01 3.0663283607758346e-01 0.0000000000000000e+00 1
6.5346539812732446e-02 -4.4834412274926183e-02 0.0000000000000000e+00 1
7.6973102558620582e-02 -2.8511217645853576e-01 0.0000000000000000e+00 1
6.5178362468391024e-02 -3.6076213085512052e-02 0.0000000000000000e+00 1
-6.2423811533495077e-02 2.4293548660862474e-01 0.0000000000000000e+00 1
1.3539939772698842e-01 -4.0914902676384368e-01 0.0000000000000000e+00 1
-1.4798813561324445e-01 2.5566392396555671e-01 0.0000000000000000e+00 1
-5.5963316647650509e-02 1.0605698562277190e-02 0.0000000000000000e+00 1
1.3797540850221238e-02 -2.1923212678423412e-02 0.0000000000000000e+00 1
-6.2353262303640966e-02 2.6895663811280035e-01 0.0000000000000000e+00 1
5.7475620600315414e-02 -3.0953337619913136e-02 0.0000000000000000e+00 1
-9.0580239729800283e-02 6.8832702046934813e-02 0.0000000000000000e+00 1
4.7787117920293977e-02 -1.7397888859495969e-01 0.0000000000000000e+00 1
5.8139475237593920e-02 -4.8327413757186868e-02 0.0000000000000000e+00 1
1.3319289374579765e-02 9.2661180771514737e-02 0.0000000000000000e+00 1
2.5666222566252610e-02 -2.0921821435190369e-01 0.0000000000000000e+00 1
1.5673214178434241e-02 1.2945514555428778e-01 0.0000000000000000e+00 1
6.3373180714151175e-03 6.5211634410228925e-02 0.0000000000000000e+00 1
9.2361409902821129e-02 -1.1897690044556031e-02 0.0000000000000000e+00 1
-3.5401969825265708e-02 -4.1260051034382517e-02 0.0000000000000000e+00 1
-1.2275538988766209e-01 3.2306921234102126e-01 0.0000000000000000e+00 1
-4.2909362697337812e-02 -2.4615411895068214e-02 0.0000000000000000e+00 1
-1.6700568530895835e-01 3.9148855252350911e-01 0.0000000000000000e+00 1
1.4230456484076196e-03 8.6267510721816432e-02 0.0000000000000000e+00 1
9.9348518980917705e-02 -3.2746490847125342e-01 0.0000000000000000e+00 1
-3.1280117472057278e-03 -1.5495407475577629e-02 0.0000000000000000e+00 1
1.2571708786821126e-02 -1.2828579111755320e-01 0.0000000000000000e+00 1
4.9800953872865324e-02 -2.3292567282914284e-01 0.0000000000000000e+00 1
-1.3953868658283608e-01 3.8708486187464047e-01 0.0000000000000000e+00 1
-1.5798540339071057e-01 3.9877980004063024e-01 0.0000000000000000e+00 1
1.4116834170707598e-01 -4.0890884809318939e-01 0.0000000000000000e+00 1
-1.5688476758487682e-01 3.5268733890192144e-01 0.0000000000000000e+00 1
5.8167020707849793e-02 -2.2653216321852670e-02 0.0000000000000000e+00 1
-1.4342046807524608e-01 2.3939610298240369e-01 0.0000000000000000e+00 1
1.3435503614000685e-01 -3.5683409285709755e-01 0.0000000000000000e+00 1
-1.9475714197615443e-02 -1.1320170892007990e-01 0.0000000000000000e+00 1
1.3314086132529113e-01 -3.1734720471646366e-01 0.0000000000000000e+00 1
1.4022980556746839e-01 -3.9974286423152378e-01 0.0000000000000000e+00 1
4.6823426972525631e-02 -1.3924800310477154e-02 0.0000000000000000e+00 1
1.4545509010369201e-01 -3.6187225846263210e-01 0.0000000000000000e+00 1
1.2391860374186388e-01 -2.4467954017206375e-01 0.0000000000000000e+00 1
1.0108816203543552e-01 -5.8237657856474112e-02 0.0000000000000000e+00 1
7.0146658939966730e-02 -3.7668124890006568e-03 0.0000000000000000e+00 1
-6.1965957305716003e-02 2.1631930007502320e-01 0.0000000000000000e+00 1
-1.6883701313980715e-01 4.0677872764486561e-01 0.0000000000000000e+00 1
-1.9973946673420787e-02 -4.9952441785136671e-02 0.0000000000000000e+00 1
1.3899583976585489e-01 -4.0439455835714355e-01 0.0000000000000000e+00 1
9.8491251949597833e-02 -4.7622309256241786e-02 0.0000000000000000e+00 1
4.5850821648262860e-02 -1.4487619554936110e-01 0.0000000000000000e+00 1
2.8599581074493077e-02 9.8168267727966330e-03 0.0000000000000000e+00 1
-2.3865696897855559e-02 1.8125871243590810e-01 0.0000000000000000e+00 1
-8.9120664076359019e-02 2.9390315727529820e-01 0.0000000000000000e+00 1
-1.4815020783496755e-01 2.9640746335177881e-01 0.0000000000000000e+00 1
1.3251751714866053e-01 -3.0610355215181878e-01 0.0000000000000000e+00 1
-1.5603556254974774e-01 3.4408767525731032e-01 0.0000000000000000e+00 1
6.5078837665282718e-02 -2.6623737871255704e-01 0.0000000000000000e+00 1
-9.7728936144474435e-02 8.8477368182129798e-02 0.0000000000000000e+00 1
-1.2396996861699794e-01 2.0179579441595194e-01 0.0000000000000000e+00 1
-1.6178391631939640e-01 3.9509464932730359e-01 0.0000000000000000e+00 1
-1.1328723493457693e-01 1.6779921372367734e-01 0.0000000000000000e+00 1
1.1215117946635553e-01 -3.5453156406443342e-01 0.0000000000000000e+00 1
1.3137912485125558e-01 -3.8427513234136973e-01 0.0000000000000000e+00 1
1.3979672093189044e-01 -3.9556783750799307e-01 0.0000000000000000e+00 1
5.0503899960294054e-03 -1.8891272100859779e-02 0.0000000000000000e+00 1
1.0849171056887238e-01 -1.2325685365171106e-01 0.0000000000000000e+00 1
9.4968808290384385e-02 -7.3408059213721052e-02 0.0000000000000000e+00 1
7.8271326924417503e-03 3.5970660897686468e-02 0.0000000000000000e+00 1
-1.5901928845946975e-01 4.0282702844286505e-01 0.0000000000000000e+00 1
9.6698613758270255e-02 -8.3385231262375320e-02 0.0000000000000000e+00 1
-1.1372339715768225e-01 1.2992336756954109e-01 0.0000000000000000e+00 1
7.6597740054760288e-03 4.8775662491822941e-02 0.0000000000000000e+00 1
-1.1611082836063359e-01 3.5265190562779192e-01 0.0000000000000000e+00 1
-1.7134529004457780e-01 4.1349518310141886e-01 0.0000000000000000e+00 1
4.8501676523492708e-02 -6.7303732867841177e-03 0.0000000000000000e+00 1
-2.4266244448777475e-03 6.8127469213044606e-02 0.0000000000000000e+00 1
-1.6703577397346325e-01 4.1403577087665955e-01 0.0000000000000000e+00 1
1.0483448651411920e-01 -3.7864377669243526e-02 0.0000000000000000e+00 1
-1.7381627280585837e-01 4.0897134652509470e-01 0.0000000000000000e+00 1
-1.7228859053056375e-01 3.8812309549033458e-01 0.0000000000000000e+00 1

Edges
167
1 2 1
2 3 1
3 4 1
4 5 1
5 6 1
6 7 1
7 8 1
8 9 1
9 10 1
10 11 1
11 12 1
12 13 1
13 14 1
14 15 1
15 16 1
16 17 1
17 18 1
18 19 1
19 20 1
20 21 1
21 22 1
22 23 1
23 24 1
24 25 1
25 26 1
26 27 1
27 28 1
28 29 1
29 30 1
30 31 1
31 32 1
32 33 1
33 34 1
34 35 1
35 36 1
36 37 1
37 38 1
38 39 1
39 40 1
40 41 1
41 42 1
42 43 1
43 44 1
44 45 1
45 46 1
46 47 1
47 48 1
48 49 1
49 50 1
50 51 1
51 52 1
52 53 1
53 54 1
54 55 1
55 56 1
56 57 1
57 58 1
58 59 1
59 60 1
60 61 1
61 62 1
62 63 1
63 64 1
64 65 1
65 66 1
66 67 1
67 68 1
68 69 1
69 70 1
70 71 1
71 72 1
72 73 1
73 74 1
74 75 1
75 76 1
76 77 1
77 78 1
78 79 1
79 80 1
80 81 1
81 82 1
82 83 1
83 84 1
84 85 1
85 86 1
86 87 1
87 88 1
88 89 1
89 90 1
90 91 1
91 92 1
92 93 1
93 94 1
94 95 1
95 96 1
96 97 1
97 98 1
98 99 1
99 100 1
100 101 1
101 102 1
102 103 1
103 104 1
104 105 1
105 106 1
106 107 1
107 108 1
108 109 1
109 110 1
110 111 1
111 112 1
112 113 1
113 114 1
114 115 1
115 116 1
116 117 1
117 118 1
118 119 1
119 120 1
120 121 1
121 122 1
122 123 1
123 124 1
124 125 1
125 126 1
126 127 1
127 128 1
128 129 1
129 130 1
130 131 1
131 132 1
132 133 1
133 134 1
134 135 1
135 136 1
136 137 1
137 138 1
138 139 1
139 140 1
140 141 1
141 142 1
142 143 1
143 144 1
144 145 1
145 146 1
146 147 1
147 148 1
148 149 1
149 150 1
150 151 1
151 152 1
152 153 1
153 154 1
154 155 1
155 156 1
156 157 1
157 158 1
158 159 1
159 160 1
160 161 1
161 162 1
162 163 1
163 164 1
164 165 1
165 166 1
166 167 1
167 1 1

Triangles
1655
569 566 594 1
54 55 513 1
193 506 699 1
580 572 819 1
5 6 589 1
341 328 601 1
541 210 767 1
193 699 700 1
747 179 763 1
464 583 584 1
185 732 745 1
582 341 601 1
745 732 811 1
501 187 503 1
322 580 819 1
476 640 740 1
205 245 246 1
566 565 594 1
172 54 513 1
496 174 758 1
129 130 621 1
29 30 772 1
500 176 749 1
36 37 636 1
583 464 729 1
90 91 538 1
640 202 740 1
178 129 621 1
493 173 634 1
158 159 632 1
171 499 746 1
245 205 775 1
2 3 537 1
611 216 612 1
311 310 593 1
537 3 839 1
173 493 635 1
218 597 707 1
227 90 538 1
64 65 512 1
234 236 692 1
31 188 529 1
549 451 750 1
27 28 700 1
210 541 878 1
30 529 772 1
65 190 512 1
310 573 593 1
189 664 766 1
167 234 692 1
664 189 830 1
527 196 528 1
328 326 601 1
643 498 644 1
176 500 869 1
488 544 743 1
450 735 750 1
174 496 792 1
203 514 641 1
451 549 771 1
614 534 648 1
498 643 828 1
30 31 529 1
446 473 693 1
612 216 768 1
555 341 582 1
391 701 710 1
349 680 684 1
188 510 529 1
623 36 636 1
571 747 763 1
499 171 776 1
179 747 841 1
28 193 700 1
477 463 603 1
518 515 881 1
446 693 831 1
451 450 750 1
522 168 524 1
593 569 594 1
503 187 803 1
198 490 805 1
216 611 753 1
231 5 589 1
115 801 833 1
208 631 727 1
74 201 627 1
719 667 733 1
192 695 867 1
202 505 740 1
463 462 603 1
412 385 515 1
490 198 829 1
809 526 852 1
651 702 717 1
314 311 593 1
490 505 787 1
695 192 778 1
641 514 642 1
37 173 636 1
159 200 632 1
312 547 800 1
528 196 816 1
707 597 858 1
235 230 237 1
307 306 669 1
412 515 518 1
376 683 724 1
187 501 721 1
492 491 610 1
178 507 821 1
490 787 805 1
555 466 770 1
182 659 802 1
505 202 787 1
220 590 864 1
659 182 849 1
205 246 247 1
544 543 743 1
419 681 759 1
702 651 861 1
124 521 808 1
515 516 881 1
158 632 816 1
510 188 703 1
521 124 890 1
1 230 234 1
507 178 818 1
312 800 812 1
801 687 833 1
167 1 234 1
657 714 799 1
188 638 703 1
700 701 742 1
701 699 710 1
169 809 852 1
642 258 643 1
786 608 895 1
406 525 713 1
237 230 537 1
544 488 847 1
306 579 669 1
513 55 792 1
176 671 749 1
578 213 591 1
534 614 815 1
166 167 692 1
193 29 772 1
341 555 770 1
99 100 912 1
573 310 669 1
523 522 524 1
621 130 762 1
506 193 772 1
412 522 523 1
343 735 780 1
210 97 767 1
587 330 588 1
385 383 515 1
525 526 713 1
547 479 800 1
541 767 810 1
479 547 883 1
638 453 703 1
73 74 627 1
27 700 742 1
486 754 793 1
586 443 872 1
680 349 882 1
657 659 714 1
667 719 754 1
180 519 890 1
453 638 744 1
230 2 537 1
97 98 767 1
171 746 813 1
701 391 722 1
197 511 765 1
631 208 728 1
325 330 587 1
579 306 622 1
524 214 525 1
758 174 806 1
509 127 821 1
234 230 235 1
517 170 875 1
239 240 244 1
170 517 820 1
330 327 544 1
219 607 608 1
683 658 724 1
172 513 756 1
310 307 669 1
168 522 628 1
608 606 895 1
412 518 522 1
443 586 866 1
610 491 894 1
76 77 644 1
211 641 642 1
127 509 845 1
211 642 643 1
207 603 789 1
700 699 701 1
768 206 863 1
646 453 744 1
102 223 545 1
183 615 815 1
735 450 780 1
493 440 635 1
627 201 804 1
742 701 874 1
213 578 592 1
217 628 881 1
329 543 544 1
519 521 890 1
603 462 789 1
387 385 412 1
244 611 612 1
208 727 888 1
595 632 764 1
585 324 586 1
754 195 793 1
696 112 867 1
64 512 803 1
508 581 619 1
364 373 375 1
383 416 515 1
512 190 807 1
646 177 757 1
648 534 806 1
1 2 230 1
387 412 523 1
607 606 608 1
605 229 606 1
321 324 585 1
440 451 635 1
384 383 385 1
815 615 848 1
511 197 843 1
611 242 753 1
629 420 738 1
169 50 617 1
178 621 818 1
537 590 880 1
100 226 239 1
382 375 383 1
632 200 764 1
50 51 617 1
628 518 881 1
194 625 626 1
330 544 847 1
714 186 799 1
516 689 881 1
112 696 840 1
695 696 867 1
514 203 795 1
429 646 757 1
362 363 364 1
360 357 724 1
654 656 657 1
515 416 516 1
683 376 846 1
215 609 873 1
98 99 225 1
288 697 751 1
333 629 738 1
227 538 539 1
327 329 544 1
258 642 854 1
329 332 543 1
759 681 782 1
220 777 880 1
184 550 552 1
41 170 660 1
383 375 416 1
171 139 776 1
40 41 660 1
222 608 786 1
406 387 523 1
572 601 819 1
651 652 861 1
581 579 622 1
545 223 665 1
364 363 373 1
581 508 620 1
619 581 622 1
625 475 626 1
733 667 886 1
214 524 817 1
556 555 582 1
681 419 860 1
434 455 600 1
165 229 604 1
313 316 547 1
777 871 880 1
3 4 839 1
583 320 584 1
79 203 641 1
624 475 625 1
519 180 779 1
349 684 774 1
138 171 591 1
416 375 718 1
654 655 656 1
605 606 607 1
317 320 583 1
101 102 545 1
364 375 382 1
244 240 611 1
213 592 639 1
607 219 609 1
604 229 605 1
76 644 781 1
96 97 210 1
367 361 655 1
609 215 868 1
133 649 763 1
204 19 637 1
243 241 665 1
386 385 387 1
472 491 492 1
303 302 622 1
469 631 728 1
433 405 595 1
428 554 697 1
324 325 587 1
241 545 665 1
361 360 655 1
147 182 688 1
335 342 362 1
753 775 862 1
300 596 668 1
432 434 600 1
325 327 330 1
77 211 644 1
212 21 640 1
78 79 641 1
548 359 630 1
548 549 750 1
184 552 553 1
517 416 718 1
100 101 226 1
312 311 313 1
19 20 637 1
314 593 594 1
586 324 587 1
173 635 636 1
470 471 472 1
362 342 363 1
182 682 688 1
596 300 599 1
656 360 724 1
402 393 633 1
406 523 525 1
649 571 763 1
239 226 240 1
346 348 630 1
316 315 317 1
608 222 827 1
697 554 751 1
672 674 681 1
715 495 760 1
136 213 639 1
194 69 625 1
342 336 691 1
169 617 618 1
382 383 384 1
306 303 622 1
144 181 673 1
320 321 585 1
321 323 324 1
673 181 674 1
313 315 316 1
316 317 583 1
302 619 622 1
312 313 547 1
584 320 585 1
597 218 784 1
735 359 750 1
53 172 602 1
174 57 648 1
561 559 572 1
164 165 604 1
674 676 681 1
527 402 633 1
21 22 640 1
384 385 386 1
35 36 623 1
47 48 214 1
455 436 470 1
576 581 620 1
596 414 668 1
405 404 595 1
561 572 580 1
364 382 743 1
317 319 320 1
427 663 745 1
57 58 648 1
434 435 436 1
616 61 850 1
577 576 620 1
432 433 434 1
146 147 688 1
472 471 491 1
43 44 217 1
505 397 645 1
594 565 859 1
470 436 471 1
213 137 591 1
672 673 674 1
165 166 229 1
51 52 207 1
332 335 543 1
666 260 667 1
565 562 598 1
313 314 315 1
653 367 655 1
138 139 171 1
753 245 775 1
308 307 309 1
359 346 630 1
401 510 704 1
10 11 221 1
309 311 312 1
39 40 209 1
145 146 712 1
559 556 582 1
432 405 433 1
229 166 692 1
434 433 435 1
309 310 311 1
357 376 724 1
49 50 169 1
403 404 405 1
548 429 549 1
655 360 656 1
61 616 832 1
369 367 653 1
79 80 203 1
524 168 817 1
348 353 630 1
20 21 212 1
41 42 170 1
403 402 404 1
232 228 906 1
373 437 718 1
427 662 663 1
305 308 613 1
404 528 595 1
618 441 809 1
335 362 543 1
87 88 206 1
261 260 666 1
395 402 403 1
177 646 744 1
466 629 770 1
304 303 305 1
573 569 593 1
448 685 686 1
469 254 631 1
18 19 204 1
495 715 836 1
393 392 633 1
572 582 601 1
176 670 671 1
254 252 631 1
77 78 211 1
431 405 432 1
382 488 743 1
650 396 651 1
456 270 694 1
8 9 220 1
510 703 704 1
448 686 766 1
89 90 227 1
305 306 307 1
136 137 213 1
590 589 864 1
305 307 308 1
456 694 695 1
686 457 687 1
424 422 466 1
143 144 673 1
313 311 314 1
146 688 712 1
448 276 685 1
422 420 629 1
395 393 402 1
18 204 708 1
434 436 455 1
74 75 201 1
572 559 582 1
373 374 437 1
695 487 696 1
705 292 711 1
671 670 672 1
467 466 555 1
335 336 342 1
250 485 727 1
320 319 321 1
16 17 215 1
663 449 664 1
404 527 528 1
264 261 666 1
476 432 600 1
304 305 613 1
560 559 561 1
626 445 831 1
390 389 392 1
137 138 591 1
176 142 670 1
619 302 647 1
224 164 604 1
410 411 429 1
390 392 393 1
163 164 224 1
438 493 902 1
301 302 303 1
674 181 675 1
53 54 172 1
102 103 223 1
427 282 662 1
71 72 197 1
543 362 743 1
595 528 632 1
505 645 740 1
551 705 711 1
272 270 456 1
674 675 676 1
414 371 668 1
301 303 304 1
392 494 495 1
466 422 629 1
378 396 650 1
68 194 693 1
278 276 448 1
266 264 486 1
662 449 663 1
22 23 202 1
51 207 617 1
58 59 614 1
309 307 310 1
20 212 637 1
388 387 406 1
324 323 325 1
177 35 623 1
426 414 596 1
4 231 839 1
56 57 174 1
299 298 647 1
240 242 611 1
37 38 173 1
379 378 389 1
379 389 390 1
332 334 335 1
392 495 633 1
477 603 825 1
410 429 548 1
486 264 666 1
657 656 658 1
676 677 680 1
141 142 176 1
68 69 194 1
142 143 670 1
284 282 427 1
317 318 319 1
638 33 744 1
278 449 662 1
59 183 614 1
429 411 646 1
278 448 449 1
685 457 686 1
336 338 691 1
359 548 750 1
425 414 426 1
298 381 647 1
644 498 781 1
59 60 183 1
558 556 559 1
34 35 177 1
660 170 820 1
284 427 428 1
353 372 410 1
370 369 378 1
247 246 248 1
288 285 697 1
436 435 597 1
577 620 621 1
240 241 242 1
370 378 379 1
295 296 297 1
394 393 395 1
211 78 641 1
272 456 457 1
305 303 306 1
676 675 677 1
62 63 187 1
134 135 175 1
58 614 648 1
25 26 198 1
680 677 684 1
151 152 702 1
410 372 411 1
82 83 205 1
39 209 634 1
693 194 831 1
722 391 736 1
147 148 182 1
161 162 218 1
606 229 692 1
209 40 660 1
22 202 640 1
338 340 343 1
694 487 695 1
677 679 684 1
431 432 476 1
368 367 369 1
404 402 527 1
65 66 190 1
392 389 494 1
301 299 302 1
297 296 298 1
490 397 505 1
144 145 181 1
553 552 554 1
32 33 638 1
513 481 756 1
460 507 508 1
411 453 646 1
300 299 301 1
272 457 685 1
297 298 299 1
302 299 647 1
175 135 639 1
163 224 690 1
69 70 625 1
368 369 370 1
612 768 863 1
134 175 649 1
266 486 487 1
460 508 619 1
699 698 710 1
295 293 296 1
564 562 565 1
317 315 318 1
677 678 679 1
381 460 647 1
181 145 712 1
291 289 292 1
375 373 718 1
401 704 731 1
338 343 691 1
283 282 284 1
519 520 521 1
135 136 639 1
14 15 219 1
31 32 188 1
403 405 431 1
679 682 683 1
396 369 653 1
365 401 731 1
525 214 526 1
353 410 630 1
521 520 550 1
425 426 615 1
293 292 709 1
67 68 693 1
378 369 396 1
104 105 208 1
454 722 736 1
732 553 811 1
424 466 467 1
456 695 778 1
256 254 469 1
403 431 645 1
689 516 875 1
128 129 178 1
287 285 288 1
395 403 645 1
381 459 460 1
291 292 293 1
413 371 414 1
679 678 682 1
670 143 673 1
257 256 720 1
366 361 367 1
131 132 179 1
28 29 193 1
252 250 727 1
266 487 694 1
467 555 556 1
496 481 513 1
438 440 493 1
460 619 647 1
460 459 507 1
549 429 757 1
366 367 368 1
433 595 764 1
38 39 634 1
159 160 200 1
397 395 645 1
519 461 520 1
298 380 381 1
677 675 678 1
366 368 698 1
292 289 711 1
578 591 813 1
348 350 353 1
71 197 624 1
535 534 815 1
188 32 638 1
381 458 459 1
297 299 300 1
224 604 610 1
413 414 425 1
411 415 453 1
401 430 510 1
297 300 668 1
277 276 278 1
458 461 519 1
133 134 649 1
281 279 282 1
150 151 186 1
282 279 662 1
672 670 673 1
631 252 727 1
667 260 720 1
218 162 690 1
279 278 662 1
292 705 709 1
295 297 668 1
344 346 359 1
381 380 458 1
287 288 289 1
300 301 599 1
156 157 196 1
173 38 634 1
568 566 569 1
294 293 295 1
390 393 394 1
162 163 690 1
226 101 545 1
296 293 709 1
260 257 720 1
290 289 291 1
358 357 360 1
70 71 624 1
298 296 380 1
153 154 191 1
471 436 597 1
790 708 798 1
550 551 552 1
353 354 372 1
394 395 397 1
586 587 844 1
561 580 598 1
358 360 361 1
657 658 659 1
507 459 509 1
389 378 650 1
458 380 461 1
570 569 573 1
441 713 809 1
107 108 199 1
357 355 376 1
421 420 422 1
70 624 625 1
410 548 630 1
411 372 415 1
283 284 285 1
370 379 391 1
558 559 560 1
186 151 702 1
365 361 366 1
576 574 579 1
666 667 754 1
461 380 709 1
371 295 668 1
284 428 697 1
281 282 283 1
365 400 401 1
380 296 709 1
420 352 738 1
109 110 719 1
510 430 529 1
356 357 358 1
289 288 711 1
651 396 652 1
356 355 357 1
125 126 180 1
285 284 697 1
251 514 795 1
275 273 276 1
506 698 699 1
42 43 689 1
271 270 272 1
550 520 551 1
401 400 430 1
170 42 689 1
400 366 698 1
321 322 323 1
418 352 420 1
149 150 714 1
353 350 354 1
343 340 344 1
110 111 195 1
301 304 599 1
520 461 705 1
122 123 184 1
682 678 688 1
698 368 710 1
358 361 365 1
423 422 424 1
574 573 669 1
294 295 371 1
711 288 751 1
276 273 685 1
599 536 857 1
269 267 270 1
562 561 598 1
522 518 628 1
335 334 336 1
430 400 506 1
81 546 905 1
211 643 644 1
160 161 707 1
291 293 294 1
161 218 707 1
705 461 709 1
365 366 400 1
560 561 562 1
273 272 685 1
113 114 192 1
368 370 710 1
119 120 185 1
579 574 669 1
493 814 902 1
702 152 717 1
604 605 610 1
85 86 216 1
116 117 189 1
506 400 698 1
654 653 655 1
104 208 716 1
150 186 714 1
576 579 581 1
354 355 356 1
277 278 279 1
704 726 731 1
658 656 724 1
370 391 710 1
152 153 717 1
652 653 654 1
287 289 290 1
494 389 650 1
415 372 726 1
693 473 788 1
348 349 350 1
535 848 857 1
155 156 715 1
675 181 712 1
286 285 287 1
453 415 703 1
223 103 716 1
551 520 705 1
704 415 726 1
265 264 266 1
354 350 355 1
678 675 712 1
342 691 761 1
502 503 504 1
12 222 823 1
275 276 277 1
291 294 725 1
270 267 694 1
358 365 731 1
473 447 489 1
652 396 653 1
200 160 707 1
262 497 498 1
362 364 743 1
390 394 736 1
287 290 706 1
564 565 566 1
26 27 742 1
399 371 413 1
118 119 730 1
399 501 502 1
325 326 327 1
726 356 731 1
391 379 736 1
290 291 725 1
344 359 735 1
703 415 704 1
267 266 694 1
348 347 349 1
688 678 712 1
425 615 616 1
250 248 485 1
664 449 766 1
386 387 388 1
373 363 374 1
263 261 264 1
52 53 602 1
286 287 706 1
347 345 351 1
446 377 447 1
242 243 245 1
454 397 490 1
153 191 717 1
468 511 627 1
43 217 689 1
632 528 816 1
103 104 716 1
469 728 791 1
570 573 574 1
100 239 912 1
271 272 273 1
338 339 340 1
372 354 726 1
424 467 746 1
418 420 421 1
568 569 570 1
156 196 715 1
120 121 732 1
268 452 468 1
596 599 857 1
356 358 731 1
321 319 322 1
379 390 736 1
346 347 348 1
294 371 399 1
105 106 728 1
652 654 799 1
283 285 286 1
269 270 271 1
502 501 503 1
280 279 281 1
327 328 329 1
734 175 853 1
575 574 576 1
447 377 723 1
329 331 332 1
399 413 501 1
489 447 755 1
575 576 577 1
409 407 441 1
274 398 474 1
344 345 346 1
489 755 769 1
413 425 721 1
354 356 726 1
504 503 512 1
208 105 728 1
516 416 517 1
421 422 423 1
33 34 744 1
281 283 723 1
557 556 558 1
198 26 742 1
294 399 725 1
280 377 445 1
108 109 733 1
259 257 260 1
691 343 780 1
394 454 736 1
17 18 708 1
446 447 473 1
394 397 454 1
346 345 347 1
563 592 879 1
586 844 866 1
445 626 877 1
332 333 334 1
423 424 499 1
533 535 536 1
235 237 871 1
110 195 719 1
277 279 280 1
265 266 267 1
236 235 238 1
280 281 377 1
523 524 525 1
339 337 352 1
344 340 345 1
428 427 745 1
336 337 338 1
467 557 746 1
399 502 725 1
585 586 872 1
517 718 899 1
351 345 739 1
467 556 557 1
716 208 888 1
445 377 446 1
255 254 256 1
437 374 438 1
425 616 721 1
417 418 419 1
274 273 275 1
119 185 730 1
268 468 748 1
501 413 721 1
563 562 564 1
338 337 339 1
502 504 752 1
185 120 732 1
215 708 790 1
283 286 723 1
263 264 265 1
570 574 575 1
567 566 568 1
428 745 811 1
431 476 740 1
132 133 763 1
474 398 475 1
343 344 735 1
12 13 222 1
468 452 511 1
377 281 723 1
275 277 737 1
417 352 418 1
271 273 274 1
327 326 328 1
531 484 532 1
507 509 821 1
268 267 269 1
552 551 751 1
339 352 417 1
274 275 398 1
109 719 733 1
332 331 333 1
199 108 733 1
340 339 739 1
645 431 740 1
247 249 546 1
207 602 603 1
551 711 751 1
325 323 326 1
486 666 754 1
444 442 462 1
331 328 341 1
329 328 331 1
191 154 760 1
255 257 258 1
423 499 500 1
567 568 571 1
687 457 778 1
533 532 534 1
345 340 739 1
482 496 758 1
222 238 823 1
265 267 268 1
259 260 261 1
483 484 530 1
251 253 514 1
268 269 452 1
253 252 254 1
554 552 751 1
255 256 257 1
201 75 781 1
663 664 893 1
290 725 752 1
45 46 168 1
440 450 451 1
336 334 337 1
533 534 535 1
334 333 738 1
531 532 533 1
493 634 814 1
530 484 531 1
536 535 857 1
557 558 578 1
259 261 262 1
484 482 758 1
564 566 567 1
651 717 797 1
262 261 263 1
277 280 737 1
398 275 737 1
262 263 497 1
480 478 481 1
280 445 737 1
34 177 744 1
499 424 746 1
155 715 760 1
274 474 741 1
706 290 752 1
560 562 563 1
269 271 741 1
617 207 789 1
664 730 893 1
253 254 255 1
563 564 734 1
339 417 739 1
592 563 853 1
480 482 483 1
438 439 440 1
482 481 496 1
258 257 259 1
571 568 747 1
550 184 808 1
421 423 749 1
568 570 747 1
242 245 753 1
352 337 738 1
553 732 903 1
465 478 479 1
209 660 661 1
337 334 738 1
80 81 905 1
465 463 477 1
207 52 602 1
154 155 760 1
483 482 484 1
725 502 752 1
286 706 755 1
351 739 759 1
251 250 252 1
130 131 762 1
452 269 741 1
247 248 249 1
217 44 910 1
468 627 804 1
177 623 757 1
590 537 839 1
407 406 713 1
56 174 792 1
242 241 243 1
723 286 755 1
382 384 488 1
47 214 817 1
564 567 734 1
464 465 729 1
491 471 784 1
440 439 450 1
249 248 250 1
447 723 755 1
271 274 741 1
374 363 761 1
633 495 836 1
719 195 754 1
131 179 762 1
388 406 407 1
376 355 774 1
570 575 747 1
430 506 772 1
613 531 851 1
219 608 827 1
441 407 713 1
458 519 779 1
423 500 749 1
409 441 442 1
480 481 482 1
444 463 464 1
251 252 253 1
479 478 480 1
487 486 793 1
350 349 774 1
363 342 761 1
190 66 788 1
263 265 748 1
739 417 759 1
509 459 779 1
224 610 894 1
67 693 788 1
607 609 783 1
239 244 856 1
202 23 787 1
465 477 478 1
215 17 708 1
820 517 899 1
577 621 762 1
497 263 748 1
98 225 767 1
94 95 232 1
417 419 759 1
629 333 770 1
49 169 852 1
265 268 748 1
444 462 463 1
681 676 782 1
438 374 439 1
439 374 761 1
249 250 251 1
465 479 729 1
409 442 443 1
205 83 775 1
245 243 246 1
464 463 465 1
240 226 241 1
532 484 758 1
686 687 891 1
443 442 444 1
179 132 763 1
621 620 818 1
228 232 233 1
481 478 756 1
580 322 842 1
435 433 764 1
749 671 785 1
591 171 813 1
492 610 783 1
83 84 775 1
216 86 768 1
687 778 833 1
494 650 797 1
449 448 766 1
25 198 805 1
689 217 881 1
597 435 858 1
755 706 769 1
478 477 756 1
316 583 883 1
408 407 409 1
86 87 768 1
672 681 860 1
187 63 803 1
496 513 792 1
485 248 796 1
115 116 801 1
315 314 794 1
4 5 231 1
643 258 828 1
635 451 771 1
10 221 777 1
452 741 765 1
196 527 836 1
241 226 545 1
682 182 802 1
309 312 900 1
197 72 843 1
107 199 791 1
741 474 765 1
333 331 770 1
610 605 783 1
314 594 794 1
388 407 408 1
96 210 911 1
598 580 897 1
504 512 807 1
583 729 883 1
511 452 765 1
16 215 873 1
175 639 853 1
238 235 896 1
206 88 773 1
139 140 776 1
601 326 819 1
419 418 785 1
61 62 850 1
676 680 782 1
553 554 811 1
708 204 798 1
508 507 818 1
628 217 910 1
88 89 773 1
196 157 816 1
728 106 791 1
141 176 869 1
590 220 880 1
529 430 772 1
60 61 832 1
752 504 769 1
184 123 808 1
679 683 846 1
127 128 821 1
182 148 849 1
642 514 854 1
9 10 777 1
658 683 802 1
331 341 770 1
421 749 785 1
262 498 828 1
714 659 849 1
223 716 865 1
479 480 800 1
636 635 771 1
512 503 803 1
706 752 769 1
14 219 827 1
355 350 774 1
720 256 834 1
237 537 880 1
304 613 908 1
6 7 589 1
687 801 891 1
534 532 806 1
112 113 867 1
174 648 806 1
475 624 838 1
114 115 833 1
485 796 865 1
761 691 780 1
184 553 903 1
126 127 845 1
457 456 778 1
445 446 831 1
667 720 886 1
592 578 879 1
11 12 823 1
124 125 890 1
554 428 811 1
149 714 849 1
459 458 779 1
118 730 830 1
472 492 790 1
634 209 814 1
542 541 810 1
791 199 834 1
75 76 781 1
228 233 538 1
500 499 776 1
189 117 830 1
175 734 855 1
326 323 819 1
546 81 826 1
122 184 903 1
472 790 798 1
238 222 786 1
778 192 833 1
491 784 894 1
23 24 787 1
214 48 852 1
729 479 883 1
531 533 851 1
441 618 876 1
218 690 784 1
605 607 783 1
626 475 877 1
92 93 228 1
349 347 882 1
494 797 889 1
258 259 828 1
168 46 817 1
205 247 826 1
471 597 784 1
730 664 830 1
322 319 842 1
474 475 838 1
55 56 792 1
580 842 897 1
312 812 900 1
439 761 780 1
798 204 824 1
571 649 855 1
732 121 903 1
255 258 854 1
623 636 898 1
450 439 780 1
66 67 788 1
106 107 791 1
557 578 813 1
249 251 795 1
418 421 785 1
526 214 852 1
696 487 793 1
470 472 798 1
683 682 802 1
216 753 862 1
234 235 236 1
454 490 829 1
46 47 817 1
654 657 799 1
168 628 910 1
87 206 768 1
540 539 541 1
81 82 826 1
717 191 797 1
618 617 789 1
475 398 877 1
578 558 879 1
747 575 841 1
204 637 824 1
650 651 797 1
871 237 880 1
609 219 873 1
787 24 805 1
567 571 855 1
244 612 892 1
514 253 854 1
351 759 782 1
95 96 911 1
497 748 804 1
822 210 878 1
603 602 825 1
775 84 862 1
194 626 831 1
521 550 808 1
45 168 910 1
560 563 879 1
8 220 864 1
488 384 835 1
243 665 796 1
318 315 794 1
762 179 841 1
409 443 866 1
227 539 540 1
219 15 873 1
538 91 909 1
796 665 865 1
577 762 841 1
602 172 825 1
248 246 796 1
116 189 801 1
215 790 868 1
73 627 843 1
470 798 824 1
652 799 861 1
613 851 908 1
89 227 773 1
24 25 805 1
480 483 800 1
531 613 904 1
63 64 803 1
659 658 802 1
13 14 827 1
546 249 795 1
782 680 882 1
587 588 844 1
200 707 858 1
737 445 877 1
82 205 826 1
123 124 808 1
748 468 804 1
469 791 834 1
870 212 887 1
766 686 891 1
800 483 812 1
509 779 845 1
615 183 832 1
195 111 840 1
497 804 885 1
7 8 864 1
85 216 862 1
713 526 809 1
388 408 837 1
563 734 853 1
640 476 887 1
227 540 773 1
614 183 815 1
157 158 816 1
222 13 827 1
627 511 843 1
588 330 847 1
169 618 809 1
442 441 876 1
649 175 855 1
111 112 840 1
540 541 542 1
865 716 888 1
246 243 796 1
784 690 894 1
464 584 907 1
810 856 892 1
620 508 818 1
745 663 893 1
231 590 839 1
483 530 812 1
489 769 807 1
600 870 887 1
500 776 869 1
351 782 882 1
715 196 836 1
197 765 838 1
455 470 824 1
236 238 786 1
198 742 874 1
797 191 889 1
692 236 895 1
48 49 852 1
746 557 813 1
547 316 883 1
220 9 777 1
532 758 806 1
376 774 846 1
616 615 832 1
128 178 821 1
44 45 910 1
718 437 899 1
807 190 884 1
824 637 870 1
764 200 858 1
720 834 886 1
549 757 898 1
527 633 836 1
84 85 862 1
323 322 819 1
209 661 814 1
231 589 590 1
565 598 859 1
600 455 870 1
247 546 826 1
661 660 820 1
542 810 892 1
756 477 825 1
637 212 870 1
117 118 830 1
228 538 909 1
639 592 853 1
722 454 829 1
721 616 850 1
776 140 869 1
235 871 896 1
212 640 887 1
538 233 539 1
91 92 909 1
769 504 807 1
495 494 889 1
15 16 873 1
804 201 885 1
185 745 893 1
794 594 859 1
624 197 838 1
183 60 832 1
259 262 828 1
900 530 904 1
187 721 850 1
72 73 843 1
172 756 825 1
701 722 874 1
848 426 857 1
256 469 834 1
443 444 907 1
730 185 893 1
584 585 872 1
771 549 898 1
201 781 885 1
684 679 846 1
62 187 850 1
192 114 833 1
844 408 866 1
615 426 848 1
489 807 884 1
779 180 845 1
671 672 860 1
170 689 875 1
426 596 857 1
203 80 905 1
148 149 849 1
455 824 870 1
419 785 860 1
793 195 840 1
613 308 904 1
536 599 908 1
319 318 842 1
636 771 898 1
462 442 876 1
186 702 861 1
575 577 841 1
318 794 897 1
180 126 845 1
533 536 851 1
190 788 884 1
661 899 902 1
783 609 868 1
837 408 844 1
308 309 900 1
384 386 835 1
140 141 869 1
727 485 888 1
210 822 911 1
386 388 837 1
774 684 846 1
308 900 904 1
113 192 867 1
760 495 889 1
233 232 822 1
437 438 902 1
606 692 895 1
516 517 875 1
221 11 823 1
690 224 894 1
221 823 896 1
253 255 854 1
473 489 884 1
498 497 885 1
476 600 887 1
541 539 878 1
444 464 907 1
665 223 865 1
125 180 890 1
121 122 903 1
835 386 837 1
599 304 908 1
734 567 855 1
899 437 902 1
530 531 904 1
347 351 882 1
558 560 879 1
191 760 889 1
765 474 838 1
767 225 810 1
488 835 847 1
435 764 858 1
398 737 877 1
408 409 866 1
199 733 886 1
777 221 871 1
829 198 874 1
540 542 901 1
189 766 891 1
757 623 898 1
785 671 860 1
794 859 897 1
206 773 901 1
588 835 837 1
94 232 906 1
696 793 840 1
93 94 906 1
872 443 907 1
781 498 885 1
790 492 868 1
799 186 861 1
232 95 911 1
535 815 848 1
788 473 884 1
546 795 905 1
834 199 886 1
588 837 844 1
618 789 876 1
789 462 876 1
225 99 912 1
492 783 868 1
239 856 912 1
812 530 900 1
795 203 905 1
823 238 896 1
589 7 864 1
92 228 909 1
773 540 901 1
612 863 892 1
822 232 911 1
810 225 856 1
856 225 912 1
228 93 906 1
485 865 888 1
801 189 891 1
856 244 892 1
835 588 847 1
661 820 899 1
542 863 901 1
722 829 874 1
539 233 878 1
236 786 895 1
814 661 902 1
233 822 878 1
863 542 892 1
842 318 897 1
859 598 897 1
851 536 908 1
863 206 901 1
871 221 896 1
584 872 907 1

End
