MeshVersionFormatted 2
Dimension 3

Vertices
383
-2.1295975671757716e-01 4.7794815715528783e-03 0.0000000000000000e+00 1
-2.0608980805574323e-01 3.7567483548191310e-03 0.0000000000000000e+00 1
-1.9844573862763387e-01 2.6020602074625495e-03 0.0000000000000000e+00 1
-1.9006631336695567e-01 1.3235572626814126e-03 0.0000000000000000e+00 1
-1.8099029720741555e-01 -7.0620346326004738e-05 0.0000000000000000e+00 1
-1.7125645508272003e-01 -1.5723324863614260e-03 0.0000000000000000e+00 1
-1.6090355192657582e-01 -3.1734390242265740e-03 0.0000000000000000e+00 1
-1.4997035267268966e-01 -4.8657998267231679e-03 0.0000000000000000e+00 1
-1.3849562225476819e-01 -6.6412747606529390e-03 0.0000000000000000e+00 1
-1.2651812560651812e-01 -8.4917236928176050e-03 0.0000000000000000e+00 1
-1.1407662766164615e-01 -1.0409006490018883e-02 0.0000000000000000e+00 1
-1.0120989335385888e-01 -1.2384983019058505e-02 0.0000000000000000e+00 1
-8.7956687616863122e-02 -1.4411513146738194e-02 0.0000000000000000e+00 1
-7.4355775384365497e-02 -1.6480456739859671e-02 0.0000000000000000e+00 1
-6.0445921590072657e-02 -1.8583673665224648e-02 0.0000000000000000e+00 1
-4.6265891167691323e-02 -2.0713023789634882e-02 0.0000000000000000e+00 1
-3.1854449050928255e-02 -2.2860366979892049e-02 0.0000000000000000e+00 1
-1.7250360173490055e-02 -2.5017563102797902e-02 0.0000000000000000e+00 1
-2.4923894690833809e-03 -2.7176472025154171e-02 0.0000000000000000e+00 1
1.2380698128585055e-02 -2.9328953613762559e-02 0.0000000000000000e+00 1
2.7330137685808414e-02 -3.1466867735424779e-02 0.0000000000000000e+00 1
4.2317164268880186e-02 -3.3582074256942582e-02 0.0000000000000000e+00 1
5.7303012944093706e-02 -3.5666433045117692e-02 0.0000000000000000e+00 1
7.2248918777742199e-02 -3.7711803966751813e-02 0.0000000000000000e+00 1
8.7116116836118973e-02 -3.9710046888646669e-02 0.0000000000000000e+00 1
1.0186584218551731e-01 -4.1653021677603985e-02 0.0000000000000000e+00 1
1.1645932989223062e-01 -4.3532588200425507e-02 0.0000000000000000e+00 1
1.3085781502255225e-01 -4.5340606323912930e-02 0.0000000000000000e+00 1
1.4502253264277537e-01 -4.7068935914867965e-02 0.0000000000000000e+00 1
1.5891471781919334e-01 -4.8709436840092386e-02 0.0000000000000000e+00 1
1.7249560561809957e-01 -5.0253968966387882e-02 0.0000000000000000e+00 1
1.8572643110578724e-01 -5.1694392160556171e-02 0.0000000000000000e+00 1
1.9856842934854962e-01 -5.3022566289398984e-02 0.0000000000000000e+00 1
2.1098283541268026e-01 -5.4230351219718045e-02 0.0000000000000000e+00 1
2.2293088436447223e-01 -5.5309606818315080e-02 0.0000000000000000e+00 1
2.3437381127021906e-01 -5.6252192951991811e-02 0.0000000000000000e+00 1
2.4527285119621389e-01 -5.7049969487549965e-02 0.0000000000000000e+00 1
2.5558923920875010e-01 -5.7694796291791264e-02 0.0000000000000000e+00 1
2.6528421037412109e-01 -5.8178533231517421e-02 0.0000000000000000e+00 1
2.7431899975861995e-01 -5.8493040173530172e-02 0.0000000000000000e+00 1
2.8265484242854011e-01 -5.8630176984631202e-02 0.0000000000000000e+00 1
2.9025297345017498e-01 -5.8581803531622290e-02 0.0000000000000000e+00 1
2.9707462788981770e-01 -5.8339779681305118e-02 0.0000000000000000e+00 1
3.0308104081376175e-01 -5.7895965300481453e-02 0.0000000000000000e+00 1
3.0823344728830032e-01 -5.7242220255952964e-02 0.0000000000000000e+00 1
3.1249308237972678e-01 -5.6370404414521416e-02 0.0000000000000000e+00 1
3.1582118115433444e-01 -5.5272377642988507e-02 0.0000000000000000e+00 1
3.1817897867841660e-01 -5.3939999808155975e-02 0.0000000000000000e+00 1
3.1952771001826652e-01 -5.2365130776825537e-02 0.0000000000000000e+00 1
3.1982861024017772e-01 -5.0539630415798918e-02 0.0000000000000000e+00 1
3.1904291441044319e-01 -4.8455358591877835e-02 0.0000000000000000e+00 1
3.1713185759535650e-01 -4.6104175171864013e-02 0.0000000000000000e+00 1
3.1405667486121086e-01 -4.3477940022559183e-02 0.0000000000000000e+00 1
3.0977860127429968e-01 -4.0568513010765063e-02 0.0000000000000000e+00 1
3.0425887190091605e-01 -3.7367754003283363e-02 0.0000000000000000e+00 1
2.9736869204508631e-01 -3.3762507690660429e-02 0.0000000000000000e+00 1
2.9016782682333953e-01 -3.0272702252776396e-02 0.0000000000000000e+00 1
2.8266632252407181e-01 -2.6896047492058622e-02 0.0000000000000000e+00 1
2.7487422543567935e-01 -2.3630253210934475e-02 0.0000000000000000e+00 1
2.6680158184655861e-01 -2.0473029211831348e-02 0.0000000000000000e+00 1
2.5845843804510571e-01 -1.7422085297176627e-02 0.0000000000000000e+00 1
2.4985484031971683e-01 -1.4475131269397647e-02 0.0000000000000000e+00 1
2.4100083495878821e-01 -1.1629876930921807e-02 0.0000000000000000e+00 1
2.3190646825071626e-01 -8.8840320841764905e-03 0.0000000000000000e+00 1
2.2258178648389698e-01 -6.2353065315890552e-03 0.0000000000000000e+00 1
2.1303683594672668e-01 -3.6814100755868766e-03 0.0000000000000000e+00 1
2.0328166292760191e-01 -1.2200525185973388e-03 0.0000000000000000e+00 1
1.9332631371491843e-01 1.1510563369521998e-03 0.0000000000000000e+00 1
1.8318083459707263e-01 3.4342066886343470e-03 0.0000000000000000e+00 1
1.7285527186246108e-01 5.6316887340217394e-03 0.0000000000000000e+00 1
1.6235967179947955e-01 7.7457926706869977e-03 0.0000000000000000e+00 1
1.5170408069652455e-01 9.7788086962027464e-03 0.0000000000000000e+00 1
1.4089854484199235e-01 1.1733027008141623e-02 0.0000000000000000e+00 1
1.2995311052427902e-01 1.3610737804076237e-02 0.0000000000000000e+00 1
1.1887782403178090e-01 1.5414231281579226e-02 0.0000000000000000e+00 1
1.0768273165289430e-01 1.7145797638223204e-02 0.0000000000000000e+00 1
9.6377879676015243e-02 1.8807727071580800e-02 0.0000000000000000e+00 1
8.4973314389540117e-02 2.0402309779224654e-02 0.0000000000000000e+00 1
7.3479082081865238e-02 2.1931835958727379e-02 0.0000000000000000e+00 1
6.1905229041386650e-02 2.3398595807661592e-02 0.0000000000000000e+00 1
5.0261801556500729e-02 2.4804879523599936e-02 0.0000000000000000e+00 1
3.8558845915603740e-02 2.6152977304115026e-02 0.0000000000000000e+00 1
2.6806408407091836e-02 2.7445179346779487e-02 0.0000000000000000e+00 1
1.5014535319361269e-02 2.8683775849165954e-02 0.0000000000000000e+00 1
3.1932729408082894e-03 2.9871057008847048e-02 0.0000000000000000e+00 1
-8.6473324401707755e-03 3.1009313023395386e-02 0.0000000000000000e+00 1
-2.0497234535179806e-02 3.2100834090383605e-02 0.0000000000000000e+00 1
-3.2346387055822566e-02 3.3147910407384330e-02 0.0000000000000000e+00 1
-4.4184743713702651e-02 3.4152832171970175e-02 0.0000000000000000e+00 1
-5.6002258220424025e-02 3.5117889581713781e-02 0.0000000000000000e+00 1
-6.7788884287590362e-02 3.6045372834187767e-02 0.0000000000000000e+00 1
-7.9534575626805326e-02 3.6937572126964746e-02 0.0000000000000000e+00 1
-9.1229285949672861e-02 3.7796777657617367e-02 0.0000000000000000e+00 1
-1.0286296896779663e-01 3.8625279623718242e-02 0.0000000000000000e+00 1
-1.1442557839278038e-01 3.9425368222839999e-02 0.0000000000000000e+00 1
-1.2590706793622783e-01 4.0199333652555257e-02 0.0000000000000000e+00 1
-1.3729739130974286e-01 4.0949466110436650e-02 0.0000000000000000e+00 1
-1.4858650222492917e-01 4.1678055794056798e-02 0.0000000000000000e+00 1
-1.5976435439339043e-01 4.2387392900988335e-02 0.0000000000000000e+00 1
-1.7082090152673057e-01 4.3079767628803889e-02 0.0000000000000000e+00 1
-1.8174609733655328e-01 4.3757470175076064e-02 0.0000000000000000e+00 1
-1.9252989553446220e-01 4.4422790737377496e-02 0.0000000000000000e+00 1
-2.0316224983206130e-01 4.5078019513280831e-02 0.0000000000000000e+00 1
-2.1363311394095422e-01 4.5725446700358670e-02 0.0000000000000000e+00 1
-2.2393244157274464e-01 4.6367362496183645e-02 0.0000000000000000e+00 1
-2.3405018643903650e-01 4.7006057098328377e-02 0.0000000000000000e+00 1
-2.4397630225143346e-01 4.7643820704365507e-02 0.0000000000000000e+00 1
-2.5370074272153925e-01 4.8282943511867640e-02 0.0000000000000000e+00 1
-2.6321346156095771e-01 4.8925715718407432e-02 0.0000000000000000e+00 1
-2.7250441248129254e-01 4.9574427521557475e-02 0.0000000000000000e+00 1
-2.8156354919414750e-01 5.0231369118890402e-02 0.0000000000000000e+00 1
-2.9038082541112642e-01 5.0898830707978855e-02 0.0000000000000000e+00 1
-2.9894619484383300e-01 5.1579102486395453e-02 0.0000000000000000e+00 1
-3.0171697470385017e-01 5.1593623853416315e-02 0.0000000000000000e+00 1
-3.0325868854331089e-01 5.1110196497771050e-02 0.0000000000000000e+00 1
-3.0366238059050110e-01 5.0173341827973610e-02 0.0000000000000000e+00 1
-3.0301909507370661e-01 4.8827581252537985e-02 0.0000000000000000e+00 1
-3.0141987622121313e-01 4.7117436179978087e-02 0.0000000000000000e+00 1
-2.9895576826130627e-01 4.5087428018807843e-02 0.0000000000000000e+00 1
-2.9571781542227205e-01 4.2782078177541261e-02 0.0000000000000000e+00 1
-2.9179706193239618e-01 4.0245908064692262e-02 0.0000000000000000e+00 1
-2.8728455201996433e-01 3.7523439088774799e-02 0.0000000000000000e+00 1
-2.8227132991326237e-01 3.4659192658302820e-02 0.0000000000000000e+00 1
-2.7684843984057594e-01 3.1697690181790257e-02 0.0000000000000000e+00 1
-2.7110692603019093e-01 2.8683453067751087e-02 0.0000000000000000e+00 1
-2.6513783271039310e-01 2.5661002724699240e-02 0.0000000000000000e+00 1
-2.5903220410946814e-01 2.2674860561148674e-02 0.0000000000000000e+00 1
-2.5288108445570190e-01 1.9769547985613346e-02 0.0000000000000000e+00 1
-2.4677551797738012e-01 1.6989586406607193e-02 0.0000000000000000e+00 1
-2.4080654890278858e-01 1.4379497232644169e-02 0.0000000000000000e+00 1
-2.3506522146021303e-01 1.1983801872238221e-02 0.0000000000000000e+00 1
-2.2964257987793923e-01 9.8470217339032967e-03 0.0000000000000000e+00 1
-2.2462966838425300e-01 8.0136782261533545e-03 0.0000000000000000e+00 1
-2.2011753120744004e-01 6.5282927575023384e-03 0.0000000000000000e+00 1
-2.1619721257578617e-01 5.4353867364641947e-03 0.0000000000000000e+00 1
-2.1394299202455741e-01 8.1192189567669514e-03 0.0000000000000000e+00 1
-2.2572607316351070e-01 1.3050386386600639e-02 0.0000000000000000e+00 1
-2.3592662721508925e-01 1.7996872761713339e-02 0.0000000000000000e+00 1
-2.0065507515226616e-01 9.6800116022085856e-03 0.0000000000000000e+00 1
1.8660794382697277e-01 -6.8873834277465096e-03 0.0000000000000000e+00 1
1.6508467311481395e-01 -3.3288901842432081e-03 0.0000000000000000e+00 1
1.4466489067150537e-01 1.7212914537606593e-03 0.0000000000000000e+00 1
1.2231489326424438e-01 4.6820967578819700e-03 0.0000000000000000e+00 1
1.0059721383454211e-01 8.2285199318124780e-03 0.0000000000000000e+00 1
2.0604673930766002e-01 -1.0823306731915327e-02 0.0000000000000000e+00 1
2.2500672697562332e-01 -1.5322971323309254e-02 0.0000000000000000e+00 1
7.8020524296818758e-02 1.2923681864779641e-02 0.0000000000000000e+00 1
5.5414848631723836e-02 1.4294818473107993e-02 0.0000000000000000e+00 1
-1.8436733248258388e-01 8.1843347352395530e-03 0.0000000000000000e+00 1
2.4255372505534650e-01 -2.0448846141227488e-02 0.0000000000000000e+00 1
3.1409472925705006e-02 1.6359154709567569e-02 0.0000000000000000e+00 1
7.1241487153395275e-03 1.9131501018093747e-02 0.0000000000000000e+00 1
-1.4628966000659611e-02 2.1417849596238134e-02 0.0000000000000000e+00 1
2.6014705741746275e-01 -2.6137638879769068e-02 0.0000000000000000e+00 1
-6.4641835876461148e-02 2.6356948459467833e-02 0.0000000000000000e+00 1
-3.9570102700731635e-02 2.3830023550270408e-02 0.0000000000000000e+00 1
-1.6463332284499271e-01 6.2923291162230097e-03 0.0000000000000000e+00 1
-1.4437179336121464e-01 3.2034730585057840e-02 0.0000000000000000e+00 1
-8.4676846486716889e-02 2.7907692610869742e-02 0.0000000000000000e+00 1
-1.0959129933860930e-01 2.9872340795525417e-02 0.0000000000000000e+00 1
2.7655203435483861e-01 -3.1546011710772925e-02 0.0000000000000000e+00 1
3.1598142766181792e-01 -5.2803565099670789e-02 0.0000000000000000e+00 1
-2.4722722707361161e-01 2.4342415673298180e-02 0.0000000000000000e+00 1
-2.0895378604033443e-01 3.6407839829967301e-02 0.0000000000000000e+00 1
3.1036474804097997e-01 -5.3557399223397258e-02 0.0000000000000000e+00 1
2.8657990756012047e-01 -5.2447700353738164e-02 0.0000000000000000e+00 1
-1.3111757244801475e-01 2.5627518738235893e-03 0.0000000000000000e+00 1
1.9420076520821944e-01 -4.0352716723128450e-02 0.0000000000000000e+00 1
1.5319183062968067e-01 -3.6114994512290034e-02 0.0000000000000000e+00 1
3.0025160324798961e-01 -5.3261113414124504e-02 0.0000000000000000e+00 1
2.2933140771867444e-01 -4.6743735842209769e-02 0.0000000000000000e+00 1
1.2531778292372769e-01 -3.2375317500163849e-02 0.0000000000000000e+00 1
8.2885605399419457e-02 -2.5408019527235461e-02 0.0000000000000000e+00 1
-1.8719571689478456e-01 3.4525374412222330e-02 0.0000000000000000e+00 1
3.6218063749229069e-02 -1.9633313707732216e-02 0.0000000000000000e+00 1
-8.3593216892341483e-03 -1.3438523804295643e-02 0.0000000000000000e+00 1
2.5088246700226191e-01 -4.8524655111012477e-02 0.0000000000000000e+00 1
-7.9148429566986964e-02 -3.7888593481750434e-03 0.0000000000000000e+00 1
-2.2972028265900882e-01 3.8401274435535752e-02 0.0000000000000000e+00 1
-5.1752744796026276e-02 -7.5851343936645388e-03 0.0000000000000000e+00 1
-1.6592303347076992e-01 3.3304615503474418e-02 0.0000000000000000e+00 1
-2.5869000754563459e-01 2.8831941593731928e-02 0.0000000000000000e+00 1
-1.0584474774450595e-01 -3.5480772254131650e-04 0.0000000000000000e+00 1
2.7002091980816806e-01 -5.0562727257956228e-02 0.0000000000000000e+00 1
2.9784182531822390e-01 -4.0850089263049699e-02 0.0000000000000000e+00 1
-2.7152523839641318e-01 3.5228655914045302e-02 0.0000000000000000e+00 1
3.0921040100766334e-01 -4.5513447161398907e-02 0.0000000000000000e+00 1
-2.4966717129500685e-01 3.9027320147776989e-02 0.0000000000000000e+00 1
-3.0090870503511014e-01 4.9642635283512954e-02 0.0000000000000000e+00 1
3.1632083501965408e-01 -4.8715630739615705e-02 0.0000000000000000e+00 1
-2.8211176264214527e-01 4.1132266297363336e-02 0.0000000000000000e+00 1
-2.3933375209347854e-01 3.9036127994941570e-02 0.0000000000000000e+00 1
-2.3475559035079899e-01 2.9940538799281866e-02 0.0000000000000000e+00 1
-2.2594227721039953e-01 3.0004285068116848e-02 0.0000000000000000e+00 1
-2.1994247331168842e-01 3.7642616819302394e-02 0.0000000000000000e+00 1
-2.1653899795216272e-01 2.9068218414362402e-02 0.0000000000000000e+00 1
-2.0822106913053068e-01 2.6739114344161010e-02 0.0000000000000000e+00 1
-2.1382006532573011e-01 2.1254074734503400e-02 0.0000000000000000e+00 1
-2.0715425051175668e-01 1.8998045402509000e-02 0.0000000000000000e+00 1
-2.0021755940943739e-01 2.4447059980039994e-02 0.0000000000000000e+00 1
-2.2176097040412643e-01 2.1804394730886821e-02 0.0000000000000000e+00 1
-2.1205147571833594e-01 1.4988378522376049e-02 0.0000000000000000e+00 1
-2.1763478755288435e-01 1.6093121848261002e-02 0.0000000000000000e+00 1
-2.2959551483657106e-01 2.2903746970139385e-02 0.0000000000000000e+00 1
-2.4376065801780583e-01 3.1482885578331850e-02 0.0000000000000000e+00 1
3.1800832682036684e-01 -5.1151783463277783e-02 0.0000000000000000e+00 1
-2.9773138391043985e-01 4.8405852513143811e-02 0.0000000000000000e+00 1
-2.5928938368773269e-01 4.0786443335047995e-02 0.0000000000000000e+00 1
-2.1026636408657573e-01 7.7937347941202028e-03 0.0000000000000000e+00 1
-1.9807541847031118e-01 3.4642801003878315e-02 0.0000000000000000e+00 1
1.3929277282027361e-01 -3.4221952885966314e-02 0.0000000000000000e+00 1
1.4774007824335295e-01 -2.3781267079832538e-02 0.0000000000000000e+00 1
1.6083275929205093e-01 -2.5529996103884373e-02 0.0000000000000000e+00 1
1.5563514680331436e-01 -1.2253036090336669e-02 0.0000000000000000e+00 1
1.6843507088825785e-01 -1.4696881196938705e-02 0.0000000000000000e+00 1
1.7297968002482536e-01 -2.6310460113895942e-02 0.0000000000000000e+00 1
1.4253715932031624e-01 -1.2696285424404180e-02 0.0000000000000000e+00 1
1.3441189794355135e-01 -2.1928278334640571e-02 0.0000000000000000e+00 1
1.2119247020758347e-01 -1.7428421188910040e-02 0.0000000000000000e+00 1
1.3151433529349277e-01 -9.1252032554297278e-03 0.0000000000000000e+00 1
1.1146220256417573e-01 -3.0077757011336290e-02 0.0000000000000000e+00 1
1.0700032349670699e-01 -1.7324895095791982e-02 0.0000000000000000e+00 1
1.1540498474302963e-01 -6.7141305488666782e-03 0.0000000000000000e+00 1
9.7274644567224094e-02 -2.8145348841686773e-02 0.0000000000000000e+00 1
9.3317776921406151e-02 -1.4698352849506279e-02 0.0000000000000000e+00 1
7.9257549425208018e-02 -1.1634783276219479e-02 0.0000000000000000e+00 1
6.9262899497245650e-02 -2.0487036325276153e-02 0.0000000000000000e+00 1
6.6134619276239121e-02 -7.3147740282499896e-03 0.0000000000000000e+00 1
5.6351349224582965e-02 -1.4600658197772162e-02 0.0000000000000000e+00 1
5.4034787156561029e-02 -2.9885076037774023e-03 0.0000000000000000e+00 1
9.0198587636054983e-02 -2.2685465528752397e-03 0.0000000000000000e+00 1
1.0305377990765389e-01 -4.3405510415827232e-03 0.0000000000000000e+00 1
1.8007540181488763e-01 -1.6212371652888309e-02 0.0000000000000000e+00 1
1.8475476631426690e-01 -2.7342959430255873e-02 0.0000000000000000e+00 1
1.9073004292883250e-01 -1.7896220125764264e-02 0.0000000000000000e+00 1
1.9666634268507646e-01 -2.8229506456967934e-02 0.0000000000000000e+00 1
2.0465093382987939e-01 -3.4703617257919213e-02 0.0000000000000000e+00 1
2.0752634244244814e-01 -2.6251033498388098e-02 0.0000000000000000e+00 1
2.1541343241987224e-01 -3.4980507208657606e-02 0.0000000000000000e+00 1
1.7991220986467019e-01 -3.9337046033903901e-02 0.0000000000000000e+00 1
1.6638780054141997e-01 -3.7709317095075745e-02 0.0000000000000000e+00 1
-1.4269088569983099e-01 4.0495590728435770e-03 0.0000000000000000e+00 1
-1.3570522035104388e-01 1.3000176841794582e-02 0.0000000000000000e+00 1
-1.2368509151649051e-01 1.2147990147319125e-02 0.0000000000000000e+00 1
-1.4706534534673399e-01 1.3726588662723213e-02 0.0000000000000000e+00 1
-1.2861266634758750e-01 2.1897361208567768e-02 0.0000000000000000e+00 1
-6.5404866119157218e-02 -5.5796915069079127e-03 0.0000000000000000e+00 1
-5.7190981949519361e-02 4.3582794296655224e-03 0.0000000000000000e+00 1
-4.3436693509261923e-02 3.1600610051216696e-03 0.0000000000000000e+00 1
-7.0789048459241458e-02 6.0765092377552928e-03 0.0000000000000000e+00 1
-8.4029014958083695e-02 7.8561205680768142e-03 0.0000000000000000e+00 1
-7.5785225945636969e-02 1.8344398218468092e-02 0.0000000000000000e+00 1
-9.2490131606034448e-02 -2.1121556482782970e-03 0.0000000000000000e+00 1
-9.7555177578539445e-02 9.2089909157009736e-03 0.0000000000000000e+00 1
-1.1134336109616147e-01 1.0676519269676478e-02 0.0000000000000000e+00 1
-3.7680297028104985e-02 -9.6124592057295118e-03 0.0000000000000000e+00 1
-2.9003348953755288e-02 9.8547322768036539e-04 0.0000000000000000e+00 1
2.4040988182140077e-01 -4.7545500153435005e-02 0.0000000000000000e+00 1
2.4669120599083522e-01 -3.9423481032054002e-02 0.0000000000000000e+00 1
2.5671105320883736e-01 -4.1142650760290257e-02 0.0000000000000000e+00 1
2.3502491744981574e-01 -3.7137367381392748e-02 0.0000000000000000e+00 1
2.6074555550667511e-01 -4.9656900678142005e-02 0.0000000000000000e+00 1
2.6626159242880321e-01 -4.2763776182819430e-02 0.0000000000000000e+00 1
2.7605327866492740e-01 -4.4274707150554579e-02 0.0000000000000000e+00 1
-2.2037880973156612e-01 1.1364507359647604e-02 0.0000000000000000e+00 1
-1.1889473807907282e-01 1.0976541276193237e-03 0.0000000000000000e+00 1
2.1869937916954613e-01 -4.5951922515061479e-02 0.0000000000000000e+00 1
-1.7669118989133925e-01 3.4002368687406255e-02 0.0000000000000000e+00 1
-1.7205481433741604e-01 2.4548678779255269e-02 0.0000000000000000e+00 1
-1.6155664648431628e-01 2.3736082909132705e-02 0.0000000000000000e+00 1
-1.8229394378837863e-01 2.4927684546786611e-02 0.0000000000000000e+00 1
-1.7844799492579527e-01 1.6038412071715625e-02 0.0000000000000000e+00 1
-2.2696367121559174e-02 -1.1373702112540454e-02 0.0000000000000000e+00 1
-1.4600547763480839e-02 -6.9734232695988039e-04 0.0000000000000000e+00 1
-5.5572421535230877e-05 -2.4807578744718748e-03 0.0000000000000000e+00 1
-5.2737093076746814e-03 1.0472289724972196e-02 0.0000000000000000e+00 1
5.8547081857912983e-03 -1.5349401848203575e-02 0.0000000000000000e+00 1
1.4223801552721623e-02 -3.8499224498189754e-03 0.0000000000000000e+00 1
2.0688398136174600e-02 -1.7165249086107590e-02 0.0000000000000000e+00 1
2.9990306756643333e-02 -5.9440222122102504e-03 0.0000000000000000e+00 1
3.0417465809340688e-01 -4.3408212379398320e-02 0.0000000000000000e+00 1
3.0504143863201594e-01 -4.8905503538293378e-02 0.0000000000000000e+00 1
-1.9315605144197628e-01 8.9740697955099525e-03 0.0000000000000000e+00 1
-1.8818578602414104e-01 1.6239482169441256e-02 0.0000000000000000e+00 1
2.3676470963921139e-02 5.7921844821375371e-03 0.0000000000000000e+00 1
-1.5394587276881239e-01 5.0416883520514695e-03 0.0000000000000000e+00 1
-2.5171528797328441e-01 3.1540922024882359e-02 0.0000000000000000e+00 1
2.9123408768623066e-01 -3.7916130103835301e-02 0.0000000000000000e+00 1
2.9081662661108448e-01 -4.5929326838745892e-02 0.0000000000000000e+00 1
2.8382525407239756e-01 -4.1381014183085145e-02 0.0000000000000000e+00 1
-1.5528010430459088e-01 3.2749861928131035e-02 0.0000000000000000e+00 1
2.7839366742869376e-01 -5.1475147345740331e-02 0.0000000000000000e+00 1
2.1804307396388983e-01 -2.3301398602629992e-02 0.0000000000000000e+00 1
2.2588425048882044e-01 -3.0801792247837828e-02 0.0000000000000000e+00 1
2.9392776265569281e-01 -5.2621912096343280e-02 0.0000000000000000e+00 1
-9.6951028602148756e-02 2.8677482194934378e-02 0.0000000000000000e+00 1
2.5359469368303694e-01 -3.2519642875959300e-02 0.0000000000000000e+00 1
2.4408029840221759e-01 -2.9760018991470630e-02 0.0000000000000000e+00 1
-2.3980096564741463e-01 2.4576081625050757e-02 0.0000000000000000e+00 1
-4.8000608570703387e-02 1.4004693998587748e-02 0.0000000000000000e+00 1
-3.0251316878929579e-01 5.0269475743042372e-02 0.0000000000000000e+00 1
2.6879627626989566e-01 -2.9046133712819330e-02 0.0000000000000000e+00 1
-2.7324268282783257e-02 2.2411786750979025e-02 0.0000000000000000e+00 1
-2.3054733374318670e-01 1.5408600470333220e-02 0.0000000000000000e+00 1
2.5152098269936018e-01 -2.3360965260390467e-02 0.0000000000000000e+00 1
2.3490312091482915e-01 -2.6406124468659597e-02 0.0000000000000000e+00 1
2.1569946525884498e-01 -1.2899772100097857e-02 0.0000000000000000e+00 1
1.8685939901016999e-02 1.7403555301519751e-02 0.0000000000000000e+00 1
1.7603986601741098e-01 -5.3432718398601069e-03 0.0000000000000000e+00 1
1.5530705481060852e-01 -2.7795858249704449e-04 0.0000000000000000e+00 1
4.3337619022577809e-02 1.5574435031900820e-02 0.0000000000000000e+00 1
1.3326145660381472e-01 2.4622684441764843e-03 0.0000000000000000e+00 1
1.9641621909911064e-01 -8.6570109931231997e-03 0.0000000000000000e+00 1
8.9312908671551713e-02 9.8589774667095145e-03 0.0000000000000000e+00 1
1.1132190457235752e-01 5.7359940031745764e-03 0.0000000000000000e+00 1
6.7173476235522528e-02 1.2637803010903012e-02 0.0000000000000000e+00 1
-1.7463537767343201e-01 7.3812660414451017e-03 0.0000000000000000e+00 1
3.0563792710816878e-01 -5.3639868018868650e-02 0.0000000000000000e+00 1
2.9867565242640226e-01 -4.7496026254992503e-02 0.0000000000000000e+00 1
-2.8747703193059171e-01 4.4114781515317524e-02 0.0000000000000000e+00 1
3.6527525952658395e-02 4.9269767729853888e-03 0.0000000000000000e+00 1
2.8378126571167295e-01 -3.4321968282154156e-02 0.0000000000000000e+00 1
-2.6664964766147647e-01 4.1588227788798122e-02 0.0000000000000000e+00 1
-1.1635401856330325e-01 2.1040251765509142e-02 0.0000000000000000e+00 1
-2.2424770215117122e-02 1.1221103488674684e-02 0.0000000000000000e+00 1
-2.9172444038377077e-01 4.4656875814205563e-02 0.0000000000000000e+00 1
-2.6418615186097766e-01 3.3646132555601414e-02 0.0000000000000000e+00 1
-1.9598531655372214e-01 1.6529885584011382e-02 0.0000000000000000e+00 1
-1.9135841643142959e-01 2.4473777252607808e-02 0.0000000000000000e+00 1
-1.6828998906466727e-01 1.5369610171540080e-02 0.0000000000000000e+00 1
-2.7715836550785161e-01 3.7575930751617047e-02 0.0000000000000000e+00 1
-3.4959965372058768e-02 1.2602190336885649e-02 0.0000000000000000e+00 1
3.1324514074720838e-01 -4.7291329571843108e-02 0.0000000000000000e+00 1
3.1333412040979786e-01 -5.0525711033784809e-02 0.0000000000000000e+00 1
-2.1729784571530680e-01 8.6833595184932222e-03 0.0000000000000000e+00 1
3.0941695558956794e-01 -4.9411073301836098e-02 0.0000000000000000e+00 1
2.6281285904535640e-01 -3.4980951808957841e-02 0.0000000000000000e+00 1
-1.5799496903516319e-01 1.4482706447056152e-02 0.0000000000000000e+00 1
8.0846030746832259e-03 7.0095364033742362e-03 0.0000000000000000e+00 1
4.4071797010036218e-02 -7.8873452385886007e-03 0.0000000000000000e+00 1
2.3381666152243566e-01 -1.7624073112061659e-02 0.0000000000000000e+00 1
7.6039606012818811e-02 1.6549001364425241e-03 0.0000000000000000e+00 1
-2.0718040803632287e-01 1.1598011894586688e-02 0.0000000000000000e+00 1
-2.7707534573111448e-01 4.4233736669654869e-02 0.0000000000000000e+00 1
-1.2139866748825358e-01 3.0676438441298234e-02 0.0000000000000000e+00 1
-5.2547813446097644e-02 2.4632617425414546e-02 0.0000000000000000e+00 1
-1.5129366777192227e-01 2.3243076363927650e-02 0.0000000000000000e+00 1
-3.6465172184714499e-03 2.2380402074309295e-02 0.0000000000000000e+00 1
-2.2621836051964211e-01 1.8528806120287487e-02 0.0000000000000000e+00 1
-1.4009167792158592e-01 2.2587651444143819e-02 0.0000000000000000e+00 1
3.1351769001261048e-01 -5.3883254933626890e-02 0.0000000000000000e+00 1
-1.3310506700083860e-01 3.1457443029614285e-02 0.0000000000000000e+00 1
-2.5390916223154009e-01 2.5431937567734896e-02 0.0000000000000000e+00 1
-2.1496375959446856e-01 1.1830011449187943e-02 0.0000000000000000e+00 1
-6.2175726550369320e-02 1.4994332609056858e-02 0.0000000000000000e+00 1
-1.0349916986971805e-01 1.9483885714803580e-02 0.0000000000000000e+00 1
-7.4485473644642128e-02 2.9118396849991627e-02 0.0000000000000000e+00 1
-8.9643262028101023e-02 1.7847566212028251e-02 0.0000000000000000e+00 1
2.7149212719282489e-01 -3.6970581715176372e-02 0.0000000000000000e+00 1
2.0093342985308693e-01 -1.8842265635404570e-02 0.0000000000000000e+00 1
-2.4208553720184073e-01 1.9671972601275244e-02 0.0000000000000000e+00 1
6.2196613317298116e-02 3.2446360345039092e-03 0.0000000000000000e+00 1
4.8377170728813576e-02 5.9397888067227083e-03 0.0000000000000000e+00 1
-2.9490204667778308e-01 4.6366213046335467e-02 0.0000000000000000e+00 1
2.0836428762814269e-01 -4.4742191266725968e-02 0.0000000000000000e+00 1
2.2474775329775010e-01 -3.9147076469280992e-02 0.0000000000000000e+00 1
4.8706940146685300e-02 -2.2978141812393847e-02 0.0000000000000000e+00 1
2.2752994695574386e-01 -2.2868242941842854e-02 0.0000000000000000e+00 1
2.7826776726557673e-01 -3.7862363513586919e-02 0.0000000000000000e+00 1
-2.7279961262965369e-01 4.1380026889111167e-02 0.0000000000000000e+00 1
2.0956743565584079e-01 -1.8232869936643643e-02 0.0000000000000000e+00 1
-2.3501967451246850e-01 2.3854310039046339e-02 0.0000000000000000e+00 1
-2.2234380027434597e-01 1.6168243289136710e-02 0.0000000000000000e+00 1
2.8288931189609134e-01 -4.7661327156380828e-02 0.0000000000000000e+00 1
3.1609247630143888e-01 -5.0754727990197264e-02 0.0000000000000000e+00 1
-2.5670960047252722e-01 3.4766551931408131e-02 0.0000000000000000e+00 1
1.2381593830675776e-01 -3.8402172747010054e-03 0.0000000000000000e+00 1
1.3862853298899191e-01 -4.2182304143939245e-03 0.0000000000000000e+00 1
-2.0233901086308240e-01 1.5364912704260703e-02 0.0000000000000000e+00 1
5.9850054575421738e-02 -2.5765684101797956e-02 0.0000000000000000e+00 1
-2.0352259167512171e-01 3.0573925020025029e-02 0.0000000000000000e+00 1
-2.1168099989205208e-01 1.0865871123407566e-02 0.0000000000000000e+00 1
1.4853483169416049e-01 -5.6297960505264817e-03 0.0000000000000000e+00 1

Edges
135
1 2 1
2 3 1
3 4 1
4 5 1
5 6 1
6 7 1
7 8 1
8 9 1
9 10 1
10 11 1
11 12 1
12 13 1
13 14 1
14 15 1
15 16 1
16 17 1
17 18 1
18 19 1
19 20 1
20 21 1
21 22 1
22 23 1
23 24 1
24 25 1
25 26 1
26 27 1
27 28 1
28 29 1
29 30 1
30 31 1
31 32 1
32 33 1
33 34 1
34 35 1
35 36 1
36 37 1
37 38 1
38 39 1
39 40 1
40 41 1
41 42 1
42 43 1
43 44 1
44 45 1
45 46 1
46 47 1
47 48 1
48 49 1
49 50 1
50 51 1
51 52 1
52 53 1
53 54 1
54 55 1
55 56 1
56 57 1
57 58 1
58 59 1
59 60 1
60 61 1
61 62 1
62 63 1
63 64 1
64 65 1
65 66 1
66 67 1
67 68 1
68 69 1
69 70 1
70 71 1
71 72 1
72 73 1
73 74 1
74 75 1
75 76 1
76 77 1
77 78 1
78 79 1
79 80 1
80 81 1
81 82 1
82 83 1
83 84 1
84 85 1
85 86 1
86 87 1
87 88 1
88 89 1
89 90 1
90 91 1
91 92 1
92 93 1
93 94 1
94 95 1
95 96 1
96 97 1
97 98 1
98 99 1
99 100 1
100 101 1
101 102 1
102 103 1
103 104 1
104 105 1
105 106 1
106 107 1
107 108 1
108 109 1
109 110 1
110 111 1
111 112 1
112 113 1
113 114 1
114 115 1
115 116 1
116 117 1
117 118 1
118 119 1
119 120 1
120 121 1
121 122 1
122 123 1
123 124 1
124 125 1
125 126 1
126 127 1
127 128 1
128 129 1
129 130 1
130 131 1
131 132 1
132 133 1
133 134 1
134 135 1
135 1 1

Triangles
629
210 200 329 1
234 168 236 1
237 168 365 1
191 111 320 1
208 323 327 1
168 234 240 1
276 153 325 1
189 114 301 1
168 33 365 1
314 147 342 1
174 210 329 1
141 214 215 1
164 195 196 1
208 327 376 1
50 51 206 1
274 276 325 1
214 141 310 1
144 231 232 1
285 308 339 1
231 314 342 1
200 210 381 1
164 196 197 1
318 165 336 1
346 155 355 1
300 346 355 1
112 207 364 1
197 196 198 1
198 201 203 1
232 223 315 1
51 190 206 1
111 112 320 1
187 54 281 1
48 49 206 1
170 282 319 1
289 166 295 1
1 2 209 1
21 175 279 1
163 205 287 1
215 233 309 1
255 244 266 1
194 193 204 1
192 188 205 1
279 175 280 1
204 138 304 1
320 112 326 1
147 316 342 1
282 170 318 1
257 273 274 1
219 220 377 1
234 216 240 1
198 196 201 1
203 201 373 1
141 215 309 1
223 143 315 1
289 295 319 1
342 316 362 1
321 340 363 1
296 356 358 1
195 194 196 1
190 52 333 1
240 216 241 1
278 279 280 1
173 224 225 1
204 193 372 1
173 225 226 1
257 274 325 1
54 55 281 1
152 276 339 1
166 289 374 1
196 194 201 1
278 280 285 1
183 255 266 1
111 191 344 1
231 144 314 1
308 152 339 1
144 232 315 1
24 227 380 1
223 219 377 1
189 118 207 1
201 194 204 1
294 261 306 1
272 271 284 1
107 188 192 1
52 53 333 1
155 252 355 1
276 152 348 1
323 186 327 1
179 194 195 1
24 173 227 1
118 119 207 1
295 170 319 1
334 165 351 1
162 48 206 1
205 188 287 1
187 281 282 1
265 335 354 1
164 104 195 1
244 255 324 1
140 233 235 1
183 254 255 1
356 254 358 1
219 218 220 1
163 287 353 1
183 253 254 1
236 168 237 1
209 2 343 1
213 169 241 1
282 318 336 1
257 256 273 1
231 225 232 1
205 163 299 1
290 264 374 1
179 192 193 1
233 140 309 1
256 17 273 1
212 217 218 1
149 272 284 1
202 198 203 1
20 21 279 1
199 198 202 1
114 115 301 1
282 281 319 1
252 155 357 1
216 213 241 1
261 298 306 1
211 212 218 1
173 25 224 1
300 249 332 1
154 297 337 1
258 259 261 1
179 193 194 1
226 225 231 1
145 313 360 1
183 12 253 1
278 285 339 1
193 192 205 1
211 169 212 1
261 259 298 1
103 164 210 1
264 290 369 1
268 174 271 1
247 248 250 1
179 106 192 1
156 300 332 1
289 290 374 1
362 148 363 1
197 198 199 1
218 217 220 1
39 184 262 1
150 298 305 1
143 223 377 1
188 108 208 1
298 297 305 1
224 222 225 1
37 177 258 1
236 237 238 1
200 328 329 1
340 230 363 1
55 56 185 1
271 174 329 1
29 169 211 1
258 177 259 1
133 134 265 1
53 54 187 1
38 39 262 1
41 166 292 1
40 41 292 1
11 183 266 1
178 247 250 1
169 30 241 1
221 222 224 1
105 179 195 1
19 20 277 1
140 235 313 1
165 334 336 1
12 13 253 1
105 106 179 1
273 176 274 1
23 24 380 1
259 177 260 1
36 37 258 1
7 8 286 1
221 219 222 1
260 262 263 1
108 109 208 1
212 169 213 1
262 184 263 1
178 14 247 1
153 276 348 1
32 168 240 1
212 213 214 1
222 219 223 1
204 304 349 1
263 184 264 1
106 107 192 1
157 7 286 1
327 182 376 1
107 108 188 1
277 20 279 1
116 117 301 1
214 213 215 1
109 110 323 1
172 211 218 1
225 222 232 1
323 110 370 1
101 174 268 1
193 205 299 1
18 176 273 1
172 219 221 1
274 275 276 1
113 114 189 1
172 28 211 1
238 237 239 1
16 17 256 1
174 102 210 1
261 294 366 1
178 250 251 1
51 52 190 1
103 104 164 1
326 112 364 1
247 180 248 1
117 189 301 1
267 239 365 1
251 250 252 1
102 103 210 1
269 268 271 1
28 29 211 1
321 280 340 1
45 46 165 1
15 180 247 1
104 105 195 1
171 36 258 1
14 15 247 1
215 216 233 1
274 176 275 1
222 223 232 1
31 32 240 1
260 177 262 1
233 234 235 1
55 185 281 1
32 33 168 1
302 337 359 1
35 36 171 1
29 30 169 1
37 38 177 1
138 204 372 1
27 28 172 1
242 243 245 1
212 214 217 1
317 157 330 1
39 40 184 1
31 240 241 1
24 25 173 1
171 258 261 1
10 11 266 1
25 26 224 1
324 255 356 1
227 226 228 1
293 146 307 1
177 38 262 1
15 16 180 1
17 18 273 1
173 226 227 1
253 251 254 1
172 218 219 1
269 271 272 1
100 101 268 1
21 22 175 1
18 19 176 1
284 271 329 1
297 260 337 1
27 172 221 1
239 237 365 1
181 268 269 1
101 102 174 1
181 100 268 1
283 149 284 1
26 221 224 1
345 96 352 1
43 44 170 1
13 178 253 1
158 98 291 1
13 14 178 1
4 149 283 1
41 42 166 1
252 159 358 1
248 180 249 1
11 12 183 1
30 31 241 1
242 245 286 1
229 228 230 1
8 242 286 1
242 167 243 1
9 167 242 1
246 345 352 1
8 9 242 1
117 118 189 1
203 265 354 1
9 10 167 1
159 296 358 1
313 235 360 1
6 157 317 1
178 251 253 1
176 19 277 1
264 184 292 1
190 333 334 1
215 213 216 1
6 7 157 1
252 250 355 1
160 324 356 1
26 27 221 1
229 230 340 1
99 100 181 1
233 216 234 1
235 234 236 1
285 151 308 1
248 300 355 1
275 277 278 1
229 340 367 1
97 98 158 1
2 3 139 1
2 139 343 1
47 48 162 1
238 239 293 1
328 284 329 1
4 5 149 1
34 35 267 1
58 59 161 1
184 40 292 1
243 244 246 1
276 275 339 1
293 239 294 1
99 181 291 1
208 109 323 1
185 288 289 1
259 260 297 1
249 256 257 1
98 99 291 1
180 16 256 1
35 171 267 1
181 270 291 1
248 249 300 1
288 57 322 1
151 285 321 1
201 349 373 1
181 269 270 1
230 362 363 1
272 317 330 1
187 282 336 1
328 200 379 1
132 133 137 1
338 245 347 1
60 61 154 1
227 228 229 1
290 288 322 1
94 95 160 1
272 149 317 1
243 167 244 1
214 310 383 1
275 176 277 1
167 10 266 1
201 204 349 1
62 63 150 1
5 6 317 1
64 65 146 1
42 43 295 1
93 94 296 1
200 199 379 1
92 93 159 1
166 42 295 1
138 299 361 1
298 150 306 1
278 277 279 1
158 291 347 1
130 131 138 1
66 67 145 1
249 180 256 1
90 91 155 1
226 231 342 1
286 245 338 1
188 208 376 1
3 4 283 1
68 69 140 1
334 333 336 1
70 71 141 1
161 302 359 1
56 57 288 1
88 89 156 1
72 73 142 1
249 257 332 1
58 161 322 1
94 160 296 1
59 60 302 1
74 75 143 1
302 154 337 1
297 154 305 1
33 34 365 1
76 77 144 1
86 87 153 1
251 252 358 1
84 85 152 1
202 203 354 1
78 79 147 1
161 59 302 1
80 81 148 1
82 83 151 1
87 88 303 1
244 167 266 1
255 254 356 1
61 62 305 1
159 93 296 1
159 252 357 1
83 84 308 1
350 246 352 1
65 66 307 1
81 82 311 1
199 202 343 1
67 68 313 1
162 334 351 1
69 70 309 1
71 72 310 1
170 44 318 1
79 80 316 1
75 76 315 1
73 74 312 1
77 78 314 1
44 45 318 1
259 297 298 1
185 289 319 1
131 132 304 1
60 154 302 1
270 269 330 1
265 134 335 1
57 58 322 1
260 263 337 1
128 129 163 1
158 347 350 1
53 187 333 1
185 56 288 1
289 288 290 1
43 170 295 1
280 175 340 1
246 244 324 1
154 61 305 1
165 46 351 1
250 248 355 1
316 148 362 1
285 280 321 1
62 150 305 1
157 286 338 1
243 246 350 1
171 261 366 1
126 127 182 1
88 156 303 1
299 138 372 1
149 5 317 1
137 133 265 1
153 87 303 1
146 65 307 1
66 145 307 1
96 97 352 1
287 188 376 1
145 67 313 1
68 140 313 1
84 152 308 1
140 69 309 1
22 23 367 1
70 141 309 1
141 71 310 1
151 83 308 1
72 142 310 1
142 73 312 1
74 143 312 1
82 151 311 1
143 75 315 1
148 81 311 1
76 144 315 1
144 77 314 1
80 148 316 1
147 79 316 1
160 95 345 1
78 147 314 1
264 292 374 1
124 125 186 1
153 303 325 1
220 312 377 1
270 338 347 1
287 182 353 1
334 162 375 1
283 284 328 1
125 126 327 1
210 164 381 1
269 272 330 1
246 324 345 1
311 151 321 1
299 163 361 1
197 199 200 1
300 156 346 1
138 131 304 1
46 47 351 1
64 146 341 1
139 283 328 1
340 175 367 1
132 137 304 1
45 165 318 1
206 190 375 1
150 63 341 1
90 155 346 1
134 135 335 1
158 350 352 1
228 226 342 1
156 89 346 1
275 278 339 1
139 3 283 1
324 160 345 1
122 123 191 1
86 153 348 1
306 150 341 1
152 85 348 1
123 124 331 1
281 185 319 1
63 64 341 1
293 307 371 1
92 159 357 1
270 330 338 1
155 91 357 1
228 342 362 1
303 156 332 1
190 334 375 1
193 299 372 1
325 303 332 1
135 1 136 1
330 157 338 1
95 96 345 1
89 90 346 1
337 263 359 1
239 267 366 1
85 86 348 1
245 243 350 1
291 270 347 1
121 122 320 1
110 111 344 1
146 293 368 1
312 143 377 1
367 23 380 1
97 158 352 1
347 245 350 1
290 322 369 1
110 344 370 1
126 182 327 1
127 128 353 1
120 121 326 1
236 238 360 1
128 163 353 1
304 137 349 1
294 239 366 1
163 129 361 1
293 294 368 1
130 138 361 1
182 127 353 1
312 220 378 1
49 50 206 1
186 125 327 1
220 217 378 1
257 325 332 1
263 264 359 1
254 251 358 1
230 228 362 1
164 197 381 1
238 293 371 1
333 187 336 1
235 236 360 1
292 166 374 1
182 287 376 1
217 214 383 1
145 360 371 1
124 186 331 1
129 130 361 1
311 321 363 1
91 92 357 1
186 323 370 1
175 22 367 1
119 120 364 1
296 160 356 1
135 136 335 1
341 146 368 1
267 171 366 1
191 331 344 1
191 123 331 1
113 189 207 1
34 267 365 1
294 306 368 1
47 162 351 1
322 161 369 1
122 191 320 1
115 116 301 1
148 311 363 1
306 341 368 1
162 206 375 1
139 328 379 1
335 136 354 1
199 343 379 1
209 343 382 1
120 326 364 1
349 137 373 1
307 145 371 1
227 229 380 1
121 320 326 1
343 202 382 1
142 312 378 1
310 142 383 1
378 217 383 1
136 1 209 1
142 378 383 1
360 238 371 1
197 200 381 1
207 119 364 1
344 331 370 1
265 203 373 1
137 265 373 1
331 186 370 1
359 264 369 1
161 359 369 1
229 367 380 1
343 139 379 1
354 136 382 1
136 209 382 1
202 354 382 1
112 113 207 1

End
