MeshVersionFormatted 2
Dimension 3

Vertices
352
-1.3807525653390063e-01 -4.3544076298384859e-02 0.0000000000000000e+00 1
-1.4383045712765546e-01 -4.6586856963755655e-02 0.0000000000000000e+00 1
-1.5020369117796145e-01 -5.0041654094193838e-02 0.0000000000000000e+00 1
-1.5715511705377910e-01 -5.3883861582146003e-02 0.0000000000000000e+00 1
-1.6464489312406899e-01 -5.8088873320058756e-02 0.0000000000000000e+00 1
-1.7263317775779166e-01 -6.2632083200378719e-02 0.0000000000000000e+00 1
-1.8108012932390777e-01 -6.7488885115552497e-02 0.0000000000000000e+00 1
-1.8994590619137774e-01 -7.2634672958026669e-02 0.0000000000000000e+00 1
-1.9919066672916225e-01 -7.8044840620247857e-02 0.0000000000000000e+00 1
-2.0877456930622185e-01 -8.3694781994662723e-02 0.0000000000000000e+00 1
-2.1865777229151703e-01 -8.9559890973717790e-02 0.0000000000000000e+00 1
-2.2880043405400838e-01 -9.5615561449859679e-02 0.0000000000000000e+00 1
-2.3916271296265654e-01 -1.0183718731553502e-01 0.0000000000000000e+00 1
-2.4970476738642192e-01 -1.0820016246319041e-01 0.0000000000000000e+00 1
-2.6038675569426528e-01 -1.1467988078527248e-01 0.0000000000000000e+00 1
-2.7116883625514698e-01 -1.2125173617422780e-01 0.0000000000000000e+00 1
-2.8201116743802773e-01 -1.2789112252250298e-01 0.0000000000000000e+00 1
-2.9287390761186805e-01 -1.3457343372254466e-01 0.0000000000000000e+00 1
-3.0371721514562849e-01 -1.4127406366679943e-01 0.0000000000000000e+00 1
-3.1450124840826960e-01 -1.4796840624771382e-01 0.0000000000000000e+00 1
-3.2518616576875203e-01 -1.5463185535773460e-01 0.0000000000000000e+00 1
-3.3573212559603627e-01 -1.6123980488930822e-01 0.0000000000000000e+00 1
-3.4609928625908282e-01 -1.6776764873488134e-01 0.0000000000000000e+00 1
-3.5624780612685231e-01 -1.7419078078690065e-01 0.0000000000000000e+00 1
-3.6613784356830542e-01 -1.8048459493781260e-01 0.0000000000000000e+00 1
-3.7572955695240251e-01 -1.8662448508006391e-01 0.0000000000000000e+00 1
-3.8498310464810426e-01 -1.9258584510610113e-01 0.0000000000000000e+00 1
-3.9385864502437112e-01 -1.9834406890837092e-01 0.0000000000000000e+00 1
-4.0231633645016390e-01 -2.0387455037931984e-01 0.0000000000000000e+00 1
-4.1031633729444289e-01 -2.0915268341139451e-01 0.0000000000000000e+00 1
-4.1781880592616877e-01 -2.1415386189704155e-01 0.0000000000000000e+00 1
-4.2478390071430211e-01 -2.1885347972870753e-01 0.0000000000000000e+00 1
-4.3117178002780349e-01 -2.2322693079883910e-01 0.0000000000000000e+00 1
-4.3694260223563336e-01 -2.2724960899988289e-01 0.0000000000000000e+00 1
-4.4205652570675241e-01 -2.3089690822428538e-01 0.0000000000000000e+00 1
-4.4647370881012122e-01 -2.3414422236449328e-01 0.0000000000000000e+00 1
-4.5015430991470023e-01 -2.3696694531295323e-01 0.0000000000000000e+00 1
-4.5305848738945004e-01 -2.3934047096211175e-01 0.0000000000000000e+00 1
-4.5514639960333131e-01 -2.4124019320441545e-01 0.0000000000000000e+00 1
-4.5637820492530451e-01 -2.4264150593231099e-01 0.0000000000000000e+00 1
-4.5671406172433021e-01 -2.4351980303824494e-01 0.0000000000000000e+00 1
-4.5611412836936899e-01 -2.4385047841466395e-01 0.0000000000000000e+00 1
-4.5453856322938141e-01 -2.4360892595401457e-01 0.0000000000000000e+00 1
-4.5194752467332794e-01 -2.4277053954874339e-01 0.0000000000000000e+00 1
-4.4830117107016931e-01 -2.4131071309129709e-01 0.0000000000000000e+00 1
-4.4355966078886611e-01 -2.3920484047412227e-01 0.0000000000000000e+00 1
-4.3447699677364071e-01 -2.3502138335925871e-01 0.0000000000000000e+00 1
-4.2514118041637944e-01 -2.3070383038293449e-01 0.0000000000000000e+00 1
-4.1555929211255310e-01 -2.2625535651221179e-01 0.0000000000000000e+00 1
-4.0573841225763302e-01 -2.2167913671415285e-01 0.0000000000000000e+00 1
-3.9568562124709006e-01 -2.1697834595581977e-01 0.0000000000000000e+00 1
-3.8540799947639498e-01 -2.1215615920427464e-01 0.0000000000000000e+00 1
-3.7491262734101899e-01 -2.0721575142657966e-01 0.0000000000000000e+00 1
-3.6420658523643307e-01 -2.0216029758979709e-01 0.0000000000000000e+00 1
-3.5329695355810820e-01 -1.9699297266098895e-01 0.0000000000000000e+00 1
-3.4219081270151536e-01 -1.9171695160721747e-01 0.0000000000000000e+00 1
-3.3089524306212537e-01 -1.8633540939554463e-01 0.0000000000000000e+00 1
-3.1941732503540948e-01 -1.8085152099303284e-01 0.0000000000000000e+00 1
-3.0776413901683858e-01 -1.7526846136674418e-01 0.0000000000000000e+00 1
-2.9594276540188369e-01 -1.6958940548374066e-01 0.0000000000000000e+00 1
-2.8396028458601574e-01 -1.6381752831108465e-01 0.0000000000000000e+00 1
-2.7182377696470555e-01 -1.5795600481583807e-01 0.0000000000000000e+00 1
-2.5954032293342444e-01 -1.5200800996506325e-01 0.0000000000000000e+00 1
-2.4711700288764321e-01 -1.4597671872582232e-01 0.0000000000000000e+00 1
-2.3456089722283283e-01 -1.3986530606517733e-01 0.0000000000000000e+00 1
-2.2187908633446454e-01 -1.3367694695019064e-01 0.0000000000000000e+00 1
-2.0907865061800890e-01 -1.2741481634792418e-01 0.0000000000000000e+00 1
-1.9616667046893721e-01 -1.2108208922544018e-01 0.0000000000000000e+00 1
-1.8315022628272040e-01 -1.1468194054980087e-01 0.0000000000000000e+00 1
-1.7003639845482932e-01 -1.0821754528806829e-01 0.0000000000000000e+00 1
-1.5683226738073525e-01 -1.0169207840730468e-01 0.0000000000000000e+00 1
-1.4354491345590889e-01 -9.5108714874572189e-02 0.0000000000000000e+00 1
-1.3018141707582132e-01 -8.8470629656932906e-02 0.0000000000000000e+00 1
-1.1674885863594367e-01 -8.1780997721449117e-02 0.0000000000000000e+00 1
-1.0325431853174669e-01 -7.5042994035182775e-02 0.0000000000000000e+00 1
-8.9704877158701540e-02 -6.8259793565196236e-02 0.0000000000000000e+00 1
-7.6107614912279159e-02 -6.1434571278551536e-02 0.0000000000000000e+00 1
-6.2469612187950378e-02 -5.4570502142310802e-02 0.0000000000000000e+00 1
-4.8797949381186562e-02 -4.7670761123536375e-02 0.0000000000000000e+00 1
-3.5099706887458303e-02 -4.0738523189290152e-02 0.0000000000000000e+00 1
-2.1381965102236826e-02 -3.3776963306634475e-02 0.0000000000000000e+00 1
-7.6518044209930094e-03 -2.6789256442631446e-02 0.0000000000000000e+00 1
6.0836947608021233e-03 -1.9778577564343168e-02 0.0000000000000000e+00 1
1.9817452047677590e-02 -1.2748101638831860e-02 0.0000000000000000e+00 1
3.3542387044162313e-02 -5.7010036331596806e-03 0.0000000000000000e+00 1
4.7251419354785391e-02 1.3595414856112306e-03 0.0000000000000000e+00 1
6.0937468584075956e-02 8.4303587504188024e-03 0.0000000000000000e+00 1
7.4593454336562781e-02 1.5508273194200735e-02 0.0000000000000000e+00 1
8.8212296216774982e-02 2.2590109849894950e-02 0.0000000000000000e+00 1
1.0178691382924160e-01 2.9672693750439301e-02 0.0000000000000000e+00 1
1.1531022677849173e-01 3.6752849928771682e-02 0.0000000000000000e+00 1
1.2877515466905415e-01 4.3827403417829792e-02 0.0000000000000000e+00 1
1.4217461710545809e-01 5.0893179250551604e-02 0.0000000000000000e+00 1
1.5550153369223238e-01 5.7947002459874913e-02 0.0000000000000000e+00 1
1.6874882403390612e-01 6.4985698078737525e-02 0.0000000000000000e+00 1
1.8190940773500847e-01 7.2006091140077444e-02 0.0000000000000000e+00 1
1.9497620440006824e-01 7.9005006676832329e-02 0.0000000000000000e+00 1
2.0794213363361441e-01 8.5979269721940088e-02 0.0000000000000000e+00 1
2.2080011504017610e-01 9.2925705308338588e-02 0.0000000000000000e+00 1
2.3354306822428245e-01 9.9841138468965751e-02 0.0000000000000000e+00 1
2.4616391279046229e-01 1.0672239423675926e-01 0.0000000000000000e+00 1
2.5865556834324455e-01 1.1356629764465703e-01 0.0000000000000000e+00 1
2.7101095448715840e-01 1.2036967372559693e-01 0.0000000000000000e+00 1
2.8322299082673291e-01 1.2712934751251687e-01 0.0000000000000000e+00 1
2.9528459696649695e-01 1.3384214403835451e-01 0.0000000000000000e+00 1
3.0718869251097952e-01 1.4050488833604785e-01 0.0000000000000000e+00 1
3.1892819706470971e-01 1.4711440543853466e-01 0.0000000000000000e+00 1
3.3049603023221658e-01 1.5366752037875286e-01 0.0000000000000000e+00 1
3.4188511161802898e-01 1.6016105818964022e-01 0.0000000000000000e+00 1
3.5308836082667611e-01 1.6659184390413462e-01 0.0000000000000000e+00 1
3.6409869746268680e-01 1.7295670255517390e-01 0.0000000000000000e+00 1
3.7490904113059009e-01 1.7925245917569585e-01 0.0000000000000000e+00 1
3.8551231143491527e-01 1.8547593879863850e-01 0.0000000000000000e+00 1
3.9590142798019096e-01 1.9162396645693947e-01 0.0000000000000000e+00 1
4.0606931037094640e-01 1.9769336718353669e-01 0.0000000000000000e+00 1
4.1600887821171056e-01 2.0368096601136806e-01 0.0000000000000000e+00 1
4.2571305110701246e-01 2.0958358797337143e-01 0.0000000000000000e+00 1
4.3517474866138106e-01 2.1539805810248452e-01 0.0000000000000000e+00 1
4.4438689047934538e-01 2.2112120143164529e-01 0.0000000000000000e+00 1
4.5334239616543448e-01 2.2674984299379153e-01 0.0000000000000000e+00 1
4.6203418532417734e-01 2.3228080782186111e-01 0.0000000000000000e+00 1
4.6835226284778425e-01 2.3640236927720876e-01 0.0000000000000000e+00 1
4.7348862659008134e-01 2.3991376685888843e-01 0.0000000000000000e+00 1
4.7747578500517801e-01 2.4283127384232239e-01 0.0000000000000000e+00 1
4.8034624654718477e-01 2.4517116350293305e-01 0.0000000000000000e+00 1
4.8213251967021115e-01 2.4694970911614239e-01 0.0000000000000000e+00 1
4.8286711282836775e-01 2.4818318395737310e-01 0.0000000000000000e+00 1
4.8258253447576388e-01 2.4888786130204721e-01 0.0000000000000000e+00 1
4.8131129306651016e-01 2.4908001442558725e-01 0.0000000000000000e+00 1
4.7908589705471610e-01 2.4877591660341519e-01 0.0000000000000000e+00 1
4.7593885489449234e-01 2.4799184111095379e-01 0.0000000000000000e+00 1
4.7190267503994815e-01 2.4674406122362502e-01 0.0000000000000000e+00 1
4.6700986594519417e-01 2.4504885021685141e-01 0.0000000000000000e+00 1
4.6129293606433991e-01 2.4292248136605493e-01 0.0000000000000000e+00 1
4.5478439385149549e-01 2.4038122794665812e-01 0.0000000000000000e+00 1
4.4751674776077122e-01 2.3744136323408338e-01 0.0000000000000000e+00 1
4.3952250624627698e-01 2.3411916050375292e-01 0.0000000000000000e+00 1
4.3083417776212246e-01 2.3043089303108885e-01 0.0000000000000000e+00 1
4.2148427076241796e-01 2.2639283409151370e-01 0.0000000000000000e+00 1
4.1150529370127364e-01 2.2202125696044980e-01 0.0000000000000000e+00 1
4.0092975503279932e-01 2.1733243491331941e-01 0.0000000000000000e+00 1
3.8979016321110471e-01 2.1234264122554461e-01 0.0000000000000000e+00 1
3.7811902669030023e-01 2.0706814917254798e-01 0.0000000000000000e+00 1
3.6594885392449589e-01 2.0152523202975184e-01 0.0000000000000000e+00 1
3.5331215336780147e-01 1.9573016307257832e-01 0.0000000000000000e+00 1
3.4024143347432695e-01 1.8969921557644970e-01 0.0000000000000000e+00 1
3.2676920269818266e-01 1.8344866281678857e-01 0.0000000000000000e+00 1
3.1292796949347845e-01 1.7699477806901706e-01 0.0000000000000000e+00 1
2.9875024231432412e-01 1.7035383460855733e-01 0.0000000000000000e+00 1
2.8426852961482985e-01 1.6354210571083183e-01 0.0000000000000000e+00 1
2.6951533984910575e-01 1.5657586465126297e-01 0.0000000000000000e+00 1
2.5452318147126179e-01 1.4947138470527288e-01 0.0000000000000000e+00 1
2.3932456293540777e-01 1.4224493914828396e-01 0.0000000000000000e+00 1
2.2395199269565380e-01 1.3491280125571839e-01 0.0000000000000000e+00 1
2.0843797920611007e-01 1.2749124430299869e-01 0.0000000000000000e+00 1
1.9281503092088625e-01 1.1999654156554693e-01 0.0000000000000000e+00 1
1.7711565629409276e-01 1.1244496631878564e-01 0.0000000000000000e+00 1
1.6137236377983930e-01 1.0485279183813696e-01 0.0000000000000000e+00 1
1.4561766183223596e-01 9.7236291399023247e-02 0.0000000000000000e+00 1
1.2988405890539273e-01 8.9611738276866817e-02 0.0000000000000000e+00 1
1.1420406345341966e-01 8.1995405747089994e-02 0.0000000000000000e+00 1
9.8610183930426698e-02 7.4403567085115002e-02 0.0000000000000000e+00 1
8.3134928790524004e-02 6.6852495566364259e-02 0.0000000000000000e+00 1
6.7810806487821285e-02 5.9358464466259947e-02 0.0000000000000000e+00 1
5.2670325476428963e-02 5.1937747060224526e-02 0.0000000000000000e+00 1
3.7745994210456650e-02 4.4606616623680137e-02 0.0000000000000000e+00 1
2.3070321144014631e-02 3.7381346432049212e-02 0.0000000000000000e+00 1
8.6758147312127054e-03 3.0278209760753967e-02 0.0000000000000000e+00 1
-5.4050165738390235e-03 2.3313479885216724e-02 0.0000000000000000e+00 1
-1.9139664317030423e-02 1.6503430080859874e-02 0.0000000000000000e+00 1
-3.2495620044251723e-02 9.8643336231055943e-03 0.0000000000000000e+00 1
-4.5440375301392714e-02 3.4124637873763040e-03 0.0000000000000000e+00 1
-5.7941421634343543e-02 -2.8359061509057697e-03 0.0000000000000000e+00 1
-6.9966250588994056e-02 -8.8645029163182641e-03 0.0000000000000000e+00 1
-8.1482353711234398e-02 -1.4657053233438945e-02 0.0000000000000000e+00 1
-9.2457222546954418e-02 -2.0197283826845425e-02 0.0000000000000000e+00 1
-1.0285834864204424e-01 -2.5468921421115481e-02 0.0000000000000000e+00 1
-1.1265322354239374e-01 -3.0455692740826726e-02 0.0000000000000000e+00 1
-1.2180933879389300e-01 -3.5141324510556932e-02 0.0000000000000000e+00 1
-1.3029418594243194e-01 -3.9509543454883722e-02 0.0000000000000000e+00 1
-1.3810326787882030e-01 -5.0230493357359206e-02 0.0000000000000000e+00 1
-1.5063122452181649e-01 -5.7489505479429270e-02 0.0000000000000000e+00 1
-1.2166718454812339e-01 -4.4178279806348836e-02 0.0000000000000000e+00 1
-1.6554407817023264e-01 -6.5932181247748078e-02 0.0000000000000000e+00 1
-1.0337281429202747e-01 -3.7390394062284747e-02 0.0000000000000000e+00 1
-1.8054852254615292e-01 -7.7389396302613975e-02 0.0000000000000000e+00 1
-8.3184834711096001e-02 -2.6633990167498272e-02 0.0000000000000000e+00 1
-1.9935866366535379e-01 -8.8721679923774735e-02 0.0000000000000000e+00 1
-5.8925282173334481e-02 -1.5868121091274563e-02 0.0000000000000000e+00 1
-1.2981104590937603e-01 -7.4364471341762300e-02 0.0000000000000000e+00 1
-2.1861526374128931e-01 -1.0042366037970066e-01 0.0000000000000000e+00 1
-3.3474753255543874e-02 -4.3830115773312705e-03 0.0000000000000000e+00 1
-6.8384109273002588e-03 -1.0701589798488750e-02 0.0000000000000000e+00 1
-2.3897401770225837e-01 -1.1406423771269807e-01 0.0000000000000000e+00 1
7.8252246577222278e-03 1.4142860198710847e-02 0.0000000000000000e+00 1
3.4542551587012499e-02 1.0255962826876205e-02 0.0000000000000000e+00 1
6.1928728797331897e-02 2.4070734023302003e-02 0.0000000000000000e+00 1
8.9705629548710780e-02 3.8370157049407057e-02 0.0000000000000000e+00 1
-1.0106951486727719e-01 -5.8965191746201656e-02 0.0000000000000000e+00 1
-1.5559359065438036e-01 -8.5518026801095673e-02 0.0000000000000000e+00 1
1.1506917717044937e-01 5.1291842904339580e-02 0.0000000000000000e+00 1
-2.5969421164766665e-01 -1.2681817833374709e-01 0.0000000000000000e+00 1
-6.1394758499520155e-02 -4.0396513145638115e-02 0.0000000000000000e+00 1
1.4270248276661662e-01 6.6016371508698490e-02 0.0000000000000000e+00 1
1.9623982178201130e-01 9.3150299810351320e-02 0.0000000000000000e+00 1
1.7038933384175220e-01 7.9678709983180288e-02 0.0000000000000000e+00 1
-1.8117915360348461e-01 -1.0082215383510343e-01 0.0000000000000000e+00 1
-2.7094233962708569e-01 -1.4531650213253292e-01 0.0000000000000000e+00 1
2.7140789193446546e-01 1.3405950643889020e-01 0.0000000000000000e+00 1
2.2128380602890568e-01 1.0723196429201108e-01 0.0000000000000000e+00 1
-2.2087558902878129e-01 -1.1951443262633614e-01 0.0000000000000000e+00 1
-3.5155988412586783e-02 -2.6521601256098537e-02 0.0000000000000000e+00 1
2.4676664033700163e-01 1.2043679153752819e-01 0.0000000000000000e+00 1
-2.9350029829184077e-01 -1.4625193191343902e-01 0.0000000000000000e+00 1
2.9550240236079461e-01 1.4741868936094774e-01 0.0000000000000000e+00 1
-3.0615908293408550e-01 -1.6424083973591189e-01 0.0000000000000000e+00 1
6.4987337485867019e-02 4.2134827935512514e-02 0.0000000000000000e+00 1
3.4096431898419538e-01 1.7428677918254729e-01 0.0000000000000000e+00 1
-1.4184553430374214e-01 -8.0637539179438875e-02 0.0000000000000000e+00 1
-1.4082022479574896e-01 -6.7545298487364264e-02 0.0000000000000000e+00 1
-1.3019938148484822e-01 -6.2291957122526109e-02 0.0000000000000000e+00 1
-1.1877562759141283e-01 -6.8262351383401879e-02 0.0000000000000000e+00 1
-1.5130211369504812e-01 -7.3066102745121347e-02 0.0000000000000000e+00 1
3.1931672604233929e-01 1.5990367375084760e-01 0.0000000000000000e+00 1
9.7381436025765752e-02 5.7288656477392598e-02 0.0000000000000000e+00 1
3.6068393775755006e-02 2.7645800606516849e-02 0.0000000000000000e+00 1
-3.2537461522792210e-01 -1.6726857662729430e-01 0.0000000000000000e+00 1
-1.6846905486657532e-01 -9.3848675956378386e-02 0.0000000000000000e+00 1
-1.6903857195189614e-01 -8.1492966323688451e-02 0.0000000000000000e+00 1
-2.4738254022184919e-01 -1.3319538646109103e-01 0.0000000000000000e+00 1
3.6465757428426304e-01 1.8718215820250639e-01 0.0000000000000000e+00 1
-1.9539599263384980e-01 -1.0650967215124311e-01 0.0000000000000000e+00 1
-2.0805017796675929e-01 -1.1489461314124315e-01 0.0000000000000000e+00 1
-8.8983486551799815e-02 -5.3677577853938646e-02 0.0000000000000000e+00 1
-7.5829377190363284e-02 -4.6843540833249910e-02 0.0000000000000000e+00 1
-8.8324601212579429e-02 -3.9498427246525587e-02 0.0000000000000000e+00 1
-4.8371692794373922e-02 -3.4018548794863872e-02 0.0000000000000000e+00 1
-3.3960321750610151e-01 -1.7849472889518567e-01 0.0000000000000000e+00 1
-6.2504883975033898e-03 7.8830487269035167e-03 0.0000000000000000e+00 1
6.8554367506870450e-03 -2.3848884471486132e-03 0.0000000000000000e+00 1
-1.9189584958690751e-02 -4.3324555298090002e-04 0.0000000000000000e+00 1
-2.2893188147348361e-02 -1.6770136268259760e-02 0.0000000000000000e+00 1
2.2084864017548417e-02 2.1012037824282303e-02 0.0000000000000000e+00 1
-1.2270989756980354e-01 -5.4902097555836318e-02 0.0000000000000000e+00 1
1.7337884753952956e-01 9.5271970059831748e-02 0.0000000000000000e+00 1
-2.3394263317021072e-01 -1.2648160236413458e-01 0.0000000000000000e+00 1
-1.3058527683603971e-01 -4.7658815856778065e-02 0.0000000000000000e+00 1
-1.1067722142540359e-01 -4.9051420661516999e-02 0.0000000000000000e+00 1
-4.6419934776065895e-02 -1.0257281380884139e-02 0.0000000000000000e+00 1
3.7643441449413662e-01 1.9421155654061278e-01 0.0000000000000000e+00 1
-7.1044849840398869e-02 -2.1248344743345610e-02 0.0000000000000000e+00 1
5.0543102493483698e-02 3.5020225452107284e-02 0.0000000000000000e+00 1
4.8190055639985407e-02 1.7110965406652807e-02 0.0000000000000000e+00 1
-2.2762230506304965e-01 -1.0844202664550642e-01 0.0000000000000000e+00 1
3.5272708973332489e-01 1.8107447708223165e-01 0.0000000000000000e+00 1
3.3064045699725425e-01 1.6664869001703567e-01 0.0000000000000000e+00 1
-3.5585118624162193e-01 -1.8573148604973491e-01 0.0000000000000000e+00 1
-2.0907038866939359e-01 -9.4396088160911065e-02 0.0000000000000000e+00 1
4.7805387501149849e-01 2.4624903776929882e-01 0.0000000000000000e+00 1
4.8173706086358953e-01 2.4802070378543054e-01 0.0000000000000000e+00 1
4.8038905983209529e-01 2.4691445411127166e-01 0.0000000000000000e+00 1
-1.8998573240119998e-01 -8.3095025814903301e-02 0.0000000000000000e+00 1
1.2938536285525273e-01 5.8908398301449665e-02 0.0000000000000000e+00 1
3.0750137022935498e-01 1.5367516978725271e-01 0.0000000000000000e+00 1
1.5606403866575677e-01 7.2873816701043079e-02 0.0000000000000000e+00 1
2.8361254724017382e-01 1.4061712494820364e-01 0.0000000000000000e+00 1
2.0863005294265796e-01 1.0018881409381300e-01 0.0000000000000000e+00 1
2.5928007162468630e-01 1.2704299889655413e-01 0.0000000000000000e+00 1
2.3411614183088639e-01 1.1380084660161349e-01 0.0000000000000000e+00 1
-1.7282775310832735e-01 -7.2067549179887863e-02 0.0000000000000000e+00 1
-1.5713691415635014e-01 -6.4095244542402494e-02 0.0000000000000000e+00 1
3.8807973542553176e-01 2.0057748730469813e-01 0.0000000000000000e+00 1
2.0777986017468345e-02 4.0961445217881998e-03 0.0000000000000000e+00 1
7.6393753250998758e-02 3.1816888500142117e-02 0.0000000000000000e+00 1
-1.7984948510535559e-01 -8.8333745754641479e-02 0.0000000000000000e+00 1
-2.4960454190087594e-01 -1.2041001718270011e-01 0.0000000000000000e+00 1
-1.4423512004492486e-01 -5.3470919556218223e-02 0.0000000000000000e+00 1
-3.6514299034014902e-01 -1.9148774013639602e-01 0.0000000000000000e+00 1
1.4349571279588771e-01 8.1221588231759817e-02 0.0000000000000000e+00 1
3.9895777182092745e-01 2.0607860818968349e-01 0.0000000000000000e+00 1
1.2938973210849114e-01 7.4119704191461730e-02 0.0000000000000000e+00 1
8.0857283759434601e-02 5.0860192112669275e-02 0.0000000000000000e+00 1
-4.5538939951885349e-01 -2.4296214442923467e-01 0.0000000000000000e+00 1
-2.8208717194590621e-01 -1.3975601386102016e-01 0.0000000000000000e+00 1
1.1400665925730087e-01 6.6334595784474745e-02 0.0000000000000000e+00 1
4.7456343748759122e-01 2.4442565167706290e-01 0.0000000000000000e+00 1
-9.8485527669817496e-02 -4.7716602314093519e-02 0.0000000000000000e+00 1
-2.5936721323731338e-01 -1.3935908246753964e-01 0.0000000000000000e+00 1
-3.7498527142137711e-01 -1.9707512334849431e-01 0.0000000000000000e+00 1
-1.3795509034363176e-01 -5.7649637219686280e-02 0.0000000000000000e+00 1
1.0385067667053186e-01 4.2675240022070036e-02 0.0000000000000000e+00 1
-3.8493676401015553e-01 -2.0237662075202856e-01 0.0000000000000000e+00 1
4.0926204441920644e-01 2.1123027116961338e-01 0.0000000000000000e+00 1
-3.9412588624317008e-01 -2.0765867101978125e-01 0.0000000000000000e+00 1
1.5838632640916689e-01 8.8522528035495832e-02 0.0000000000000000e+00 1
-2.7106373919119686e-01 -1.3323903732622924e-01 0.0000000000000000e+00 1
-7.2238364774941263e-02 -3.3469572045201998e-02 0.0000000000000000e+00 1
4.1906809627891900e-01 2.1612684468145127e-01 0.0000000000000000e+00 1
-2.8306348628015016e-01 -1.5187595482823446e-01 0.0000000000000000e+00 1
-2.9454057163395608e-01 -1.5793878074805048e-01 0.0000000000000000e+00 1
4.4629459204593497e-01 2.2982471016182440e-01 0.0000000000000000e+00 1
-9.4039564280940319e-02 -2.9837803344853902e-02 0.0000000000000000e+00 1
2.2201686081534644e-01 1.2080167232041600e-01 0.0000000000000000e+00 1
4.2834779723581751e-01 2.2066703178536787e-01 0.0000000000000000e+00 1
4.7013455331274284e-01 2.4215336810559507e-01 0.0000000000000000e+00 1
-3.3057749557182431e-01 -1.7654488513021269e-01 0.0000000000000000e+00 1
-1.1390308340161572e-01 -3.9375329118727972e-02 0.0000000000000000e+00 1
-4.5359427244106570e-01 -2.4210425885402637e-01 0.0000000000000000e+00 1
4.3742678540514635e-01 2.2526017583602723e-01 0.0000000000000000e+00 1
1.8369399328402208e-01 8.6248830283070690e-02 0.0000000000000000e+00 1
-6.0143109982686141e-02 -2.7698764214235991e-02 0.0000000000000000e+00 1
2.0830644329576981e-01 1.1380008625923464e-01 0.0000000000000000e+00 1
-4.0317501242351783e-01 -2.1263287407705087e-01 0.0000000000000000e+00 1
-1.9095227215333552e-01 -9.4324361616104274e-02 0.0000000000000000e+00 1
2.3568589946380680e-01 1.2757763031548969e-01 0.0000000000000000e+00 1
4.6474966230568338e-01 2.3937849162402103e-01 0.0000000000000000e+00 1
4.5429693573350310e-01 2.3385870869710429e-01 0.0000000000000000e+00 1
1.9842418031412959e-01 1.0568364236335265e-01 0.0000000000000000e+00 1
-3.0487458719237515e-01 -1.5303694807370216e-01 0.0000000000000000e+00 1
-4.4234309914603559e-01 -2.3513500466302115e-01 0.0000000000000000e+00 1
4.5943162265583981e-01 2.3776434349113987e-01 0.0000000000000000e+00 1
-1.6141117441863420e-01 -7.4008848287675927e-02 0.0000000000000000e+00 1
-4.5074650832282376e-01 -2.4048659433837519e-01 0.0000000000000000e+00 1
-3.1574041471175546e-01 -1.5981973309980679e-01 0.0000000000000000e+00 1
-4.4687346205645145e-01 -2.3813444659163635e-01 0.0000000000000000e+00 1
-4.3063209651827211e-01 -2.2819327552817661e-01 0.0000000000000000e+00 1
2.4935998552025063e-01 1.3434550903899800e-01 0.0000000000000000e+00 1
-4.7963896005434513e-02 -2.1429662833003613e-02 0.0000000000000000e+00 1
2.9665145973965135e-01 1.5870577102693173e-01 0.0000000000000000e+00 1
-1.4930320953044868e-01 -6.4735220128892615e-02 0.0000000000000000e+00 1
-1.3191058282262869e-01 -5.4546600222437201e-02 0.0000000000000000e+00 1
-4.1186256517356240e-01 -2.1740487666399208e-01 0.0000000000000000e+00 1
4.8050924036144921e-01 2.4814242652604443e-01 0.0000000000000000e+00 1
-1.1129731599712876e-01 -6.1244811076427916e-02 0.0000000000000000e+00 1
3.0936204151331048e-01 1.6502571687451661e-01 0.0000000000000000e+00 1
-4.5616189632404369e-01 -2.4322758495822036e-01 0.0000000000000000e+00 1
-1.4458897384731415e-01 -6.0178116174318133e-02 0.0000000000000000e+00 1
-2.0091869979949459e-01 -9.7613204656761973e-02 0.0000000000000000e+00 1
2.6152527313279539e-01 1.3811045136156569e-01 0.0000000000000000e+00 1
2.8376758565297799e-01 1.5208206890438183e-01 0.0000000000000000e+00 1
2.7072530321346333e-01 1.4515273350159616e-01 0.0000000000000000e+00 1
-3.1530392150030917e-01 -1.6975182159006605e-01 0.0000000000000000e+00 1
1.8612955262932265e-01 1.0128247008781739e-01 0.0000000000000000e+00 1
-3.6877025344550715e-02 -1.5339904678072605e-02 0.0000000000000000e+00 1
-2.1698792628947089e-01 -1.0983626405057721e-01 0.0000000000000000e+00 1
-2.3035363624107499e-01 -1.1712557483716879e-01 0.0000000000000000e+00 1
-2.0817307485004288e-01 -1.0394558375673951e-01 0.0000000000000000e+00 1
-4.2430929680272822e-01 -2.2463137005382847e-01 0.0000000000000000e+00 1
-4.1886677214586288e-01 -2.2025978897115625e-01 0.0000000000000000e+00 1
3.2040141906081610e-01 1.7046149762752802e-01 0.0000000000000000e+00 1
-3.4849086996345124e-01 -1.7962699153510295e-01 0.0000000000000000e+00 1
-3.3608298488801330e-01 -1.7012343196527066e-01 0.0000000000000000e+00 1

Edges
180
1 2 1
2 3 1
3 4 1
4 5 1
5 6 1
6 7 1
7 8 1
8 9 1
9 10 1
10 11 1
11 12 1
12 13 1
13 14 1
14 15 1
15 16 1
16 17 1
17 18 1
18 19 1
19 20 1
20 21 1
21 22 1
22 23 1
23 24 1
24 25 1
25 26 1
26 27 1
27 28 1
28 29 1
29 30 1
30 31 1
31 32 1
32 33 1
33 34 1
34 35 1
35 36 1
36 37 1
37 38 1
38 39 1
39 40 1
40 41 1
41 42 1
42 43 1
43 44 1
44 45 1
45 46 1
46 47 1
47 48 1
48 49 1
49 50 1
50 51 1
51 52 1
52 53 1
53 54 1
54 55 1
55 56 1
56 57 1
57 58 1
58 59 1
59 60 1
60 61 1
61 62 1
62 63 1
63 64 1
64 65 1
65 66 1
66 67 1
67 68 1
68 69 1
69 70 1
70 71 1
71 72 1
72 73 1
73 74 1
74 75 1
75 76 1
76 77 1
77 78 1
78 79 1
79 80 1
80 81 1
81 82 1
82 83 1
83 84 1
84 85 1
85 86 1
86 87 1
87 88 1
88 89 1
89 90 1
90 91 1
91 92 1
92 93 1
93 94 1
94 95 1
95 96 1
96 97 1
97 98 1
98 99 1
99 100 1
100 101 1
101 102 1
102 103 1
103 104 1
104 105 1
105 106 1
106 107 1
107 108 1
108 109 1
109 110 1
110 111 1
111 112 1
112 113 1
113 114 1
114 115 1
115 116 1
116 117 1
117 118 1
118 119 1
119 120 1
120 121 1
121 122 1
122 123 1
123 124 1
124 125 1
125 126 1
126 127 1
127 128 1
128 129 1
129 130 1
130 131 1
131 132 1
132 133 1
133 134 1
134 135 1
135 136 1
136 137 1
137 138 1
138 139 1
139 140 1
140 141 1
141 142 1
142 143 1
143 144 1
144 145 1
145 146 1
146 147 1
147 148 1
148 149 1
149 150 1
150 151 1
151 152 1
152 153 1
153 154 1
154 155 1
155 156 1
156 157 1
157 158 1
158 159 1
159 160 1
160 161 1
161 162 1
162 163 1
163 164 1
164 165 1
165 166 1
166 167 1
167 168 1
168 169 1
169 170 1
170 171 1
171 172 1
172 173 1
173 174 1
174 175 1
175 176 1
176 177 1
177 178 1
178 179 1
179 180 1
180 1 1

Triangles
522
244 247 331 1
229 186 275 1
222 75 334 1
146 147 218 1
218 147 256 1
244 183 247 1
35 47 34 1
225 201 285 1
162 225 285 1
47 35 320 1
274 198 282 1
217 274 282 1
200 219 223 1
121 122 316 1
170 171 241 1
74 75 222 1
123 124 286 1
145 146 255 1
83 84 240 1
144 231 250 1
236 185 287 1
239 193 240 1
248 185 307 1
231 112 250 1
225 198 291 1
198 225 282 1
228 229 275 1
187 236 297 1
146 218 255 1
243 195 273 1
193 83 240 1
42 43 283 1
129 130 333 1
246 194 276 1
127 128 260 1
193 239 241 1
271 223 330 1
144 145 231 1
236 235 297 1
250 113 272 1
200 72 219 1
272 114 280 1
114 115 280 1
113 114 272 1
231 145 255 1
185 248 287 1
121 316 321 1
115 116 293 1
223 271 322 1
122 123 305 1
280 115 293 1
38 39 308 1
219 190 220 1
230 246 276 1
112 113 250 1
123 286 305 1
124 125 259 1
197 217 252 1
245 158 295 1
271 184 322 1
206 245 295 1
185 236 302 1
171 192 241 1
186 229 270 1
196 226 243 1
257 56 351 1
55 56 257 1
81 82 242 1
196 243 273 1
43 44 308 1
47 48 326 1
239 170 241 1
220 190 221 1
116 117 298 1
252 226 253 1
293 116 298 1
226 196 253 1
207 70 228 1
228 200 229 1
230 202 288 1
197 252 253 1
125 126 261 1
212 81 242 1
200 223 322 1
126 127 260 1
78 203 235 1
128 129 260 1
217 197 274 1
61 299 300 1
73 190 219 1
241 192 242 1
286 132 305 1
75 199 334 1
219 220 223 1
248 199 287 1
195 240 273 1
64 230 288 1
190 74 222 1
73 74 190 1
184 270 322 1
211 67 233 1
39 283 308 1
240 84 273 1
207 228 275 1
201 225 291 1
69 207 232 1
318 156 343 1
55 257 278 1
66 211 246 1
54 55 278 1
299 214 300 1
71 200 228 1
38 308 323 1
58 227 306 1
82 193 242 1
234 235 236 1
283 43 308 1
319 20 324 1
71 72 200 1
221 244 331 1
122 305 316 1
256 147 350 1
117 118 304 1
234 236 287 1
199 76 234 1
156 157 343 1
298 117 304 1
161 162 285 1
136 301 317 1
68 232 233 1
37 323 325 1
44 45 323 1
72 73 219 1
152 339 341 1
199 248 334 1
75 76 199 1
217 165 252 1
234 77 235 1
203 79 237 1
68 69 232 1
69 70 207 1
308 44 323 1
130 131 259 1
37 38 323 1
151 152 341 1
70 71 228 1
77 78 235 1
220 221 290 1
66 67 211 1
202 230 276 1
232 207 314 1
120 121 317 1
235 203 297 1
67 68 233 1
242 192 344 1
76 77 234 1
169 170 239 1
168 195 243 1
135 136 317 1
216 319 324 1
162 163 225 1
227 58 342 1
167 168 243 1
56 238 351 1
78 79 203 1
229 200 322 1
64 65 230 1
80 212 237 1
164 165 217 1
270 229 322 1
62 63 208 1
226 167 243 1
79 80 237 1
233 232 347 1
56 57 238 1
195 169 239 1
53 54 289 1
166 167 226 1
323 45 325 1
59 60 216 1
80 81 212 1
180 1 247 1
193 241 242 1
130 259 261 1
168 169 195 1
130 261 333 1
54 278 289 1
131 132 286 1
82 83 193 1
195 239 240 1
225 163 282 1
232 338 347 1
65 66 246 1
171 172 192 1
157 158 245 1
165 166 252 1
143 250 272 1
21 22 227 1
143 144 250 1
45 46 325 1
288 202 296 1
230 65 246 1
236 187 302 1
164 217 282 1
85 86 196 1
24 25 257 1
173 174 189 1
18 19 214 1
183 244 248 1
172 173 249 1
175 176 187 1
166 226 252 1
86 87 253 1
87 88 197 1
15 16 202 1
174 175 251 1
160 161 281 1
13 14 194 1
196 86 253 1
84 85 273 1
192 172 249 1
89 90 198 1
11 12 191 1
111 112 231 1
91 92 201 1
177 178 185 1
221 190 222 1
12 13 254 1
109 110 218 1
179 180 183 1
87 197 253 1
199 234 287 1
92 93 263 1
63 64 288 1
93 94 204 1
110 111 255 1
221 222 244 1
9 10 188 1
142 143 272 1
10 11 258 1
107 108 224 1
7 8 186 1
173 189 249 1
95 96 206 1
211 233 345 1
94 95 265 1
108 109 256 1
97 98 205 1
105 106 215 1
142 272 280 1
158 159 295 1
99 100 210 1
103 104 209 1
101 102 213 1
14 15 276 1
106 107 264 1
98 99 267 1
8 9 262 1
104 105 266 1
100 101 269 1
102 103 268 1
189 174 251 1
223 220 330 1
25 26 278 1
257 25 278 1
88 89 274 1
320 36 325 1
118 119 309 1
5 6 184 1
126 260 261 1
197 88 274 1
175 187 251 1
15 202 276 1
48 49 348 1
85 196 273 1
6 7 270 1
60 61 300 1
246 211 346 1
3 4 182 1
232 314 338 1
18 214 284 1
152 153 327 1
89 198 274 1
13 194 254 1
40 41 336 1
201 92 263 1
194 14 276 1
57 58 306 1
141 142 280 1
212 242 344 1
155 156 312 1
191 12 254 1
111 231 255 1
254 211 345 1
208 288 296 1
93 204 263 1
218 110 255 1
4 5 271 1
11 191 258 1
36 37 325 1
204 94 265 1
49 50 332 1
109 218 256 1
62 208 299 1
52 53 292 1
211 254 346 1
95 206 265 1
26 27 289 1
141 280 293 1
224 108 256 1
49 332 349 1
304 118 309 1
28 29 294 1
17 18 284 1
237 212 328 1
205 98 267 1
107 224 264 1
132 133 305 1
198 90 291 1
188 10 258 1
34 47 326 1
245 206 310 1
163 164 282 1
281 161 285 1
99 210 267 1
215 106 264 1
202 16 296 1
203 237 311 1
210 100 269 1
105 215 266 1
91 201 291 1
278 26 289 1
209 104 266 1
101 213 269 1
103 209 268 1
140 141 293 1
213 102 268 1
1 181 247 1
238 23 351 1
2 3 277 1
208 63 288 1
20 21 324 1
204 265 279 1
9 188 262 1
187 176 302 1
159 160 279 1
227 22 352 1
183 180 247 1
27 28 292 1
214 19 319 1
23 24 351 1
186 8 262 1
90 91 291 1
53 289 292 1
152 327 339 1
150 151 340 1
7 186 270 1
1 2 181 1
139 140 298 1
140 293 298 1
17 284 296 1
61 62 299 1
133 134 316 1
289 27 292 1
176 177 302 1
186 262 275 1
16 17 296 1
185 178 307 1
136 137 301 1
263 204 281 1
201 263 285 1
177 185 302 1
184 6 270 1
50 51 313 1
292 28 294 1
312 156 318 1
208 284 299 1
206 96 310 1
124 259 286 1
138 139 304 1
5 184 271 1
97 205 310 1
310 205 343 1
204 279 281 1
178 179 307 1
134 135 321 1
46 320 325 1
153 154 315 1
51 52 294 1
251 187 297 1
284 208 296 1
137 138 309 1
305 133 316 1
328 212 344 1
216 60 300 1
139 298 304 1
259 125 261 1
179 183 307 1
154 155 303 1
284 214 299 1
35 36 320 1
248 244 334 1
29 30 313 1
182 4 271 1
294 29 313 1
263 281 285 1
279 265 295 1
265 206 295 1
183 248 307 1
306 227 352 1
119 120 301 1
147 148 350 1
238 57 306 1
3 182 277 1
348 49 349 1
96 97 310 1
316 134 321 1
33 34 326 1
59 216 342 1
300 214 319 1
279 160 281 1
301 120 317 1
340 151 341 1
42 283 336 1
138 304 309 1
181 2 277 1
149 150 329 1
58 59 342 1
19 20 319 1
191 254 345 1
23 238 352 1
311 237 328 1
52 292 294 1
159 279 295 1
210 269 303 1
148 149 335 1
301 137 309 1
189 251 311 1
251 297 311 1
245 310 343 1
30 31 332 1
50 313 332 1
157 245 343 1
194 246 346 1
21 227 324 1
313 30 332 1
275 262 314 1
262 188 314 1
267 210 312 1
330 220 337 1
269 213 315 1
181 277 290 1
51 294 313 1
205 267 318 1
220 290 337 1
153 315 327 1
210 303 312 1
189 311 328 1
22 23 352 1
31 32 349 1
303 269 315 1
32 33 348 1
249 189 328 1
303 155 312 1
283 40 336 1
119 301 309 1
259 131 286 1
297 203 311 1
267 312 318 1
207 275 314 1
192 249 344 1
261 260 333 1
315 213 327 1
213 268 327 1
249 328 344 1
332 31 349 1
314 188 338 1
216 300 319 1
24 257 351 1
215 264 329 1
264 224 335 1
188 258 338 1
244 222 334 1
135 317 321 1
216 324 342 1
329 150 340 1
154 303 315 1
33 326 348 1
268 209 339 1
254 194 346 1
182 271 330 1
266 215 340 1
209 266 341 1
258 191 347 1
32 348 349 1
327 268 339 1
215 329 340 1
329 264 335 1
148 335 350 1
335 224 350 1
339 209 341 1
224 256 350 1
338 258 347 1
317 121 321 1
247 181 331 1
266 340 341 1
290 221 331 1
260 129 333 1
238 306 352 1
41 42 336 1
182 330 337 1
149 329 335 1
277 182 337 1
181 290 331 1
290 277 337 1
205 318 343 1
324 227 342 1
326 48 348 1
191 345 347 1
345 233 347 1
46 47 320 1
39 40 283 1

End
