MeshVersionFormatted 2
Dimension 3

Vertices
963
-1.5193446520218090e-01 -4.1180716334176048e-01 0.0000000000000000e+00 1
-1.4568689823599029e-01 -4.1881867021850872e-01 0.0000000000000000e+00 1
-1.3947554310420834e-01 -4.2469622592589273e-01 0.0000000000000000e+00 1
-1.3330070627628832e-01 -4.2946655678381795e-01 0.0000000000000000e+00 1
-1.2716269422168308e-01 -4.3315638911218912e-01 0.0000000000000000e+00 1
-1.2106181340984597e-01 -4.3579244923091154e-01 0.0000000000000000e+00 1
-1.1499837031022990e-01 -4.3740146345989039e-01 0.0000000000000000e+00 1
-1.0897267139228815e-01 -4.3801015811903088e-01 0.0000000000000000e+00 1
-1.0298502312547360e-01 -4.3764525952823774e-01 0.0000000000000000e+00 1
-9.7035731979239523e-02 -4.3633349400741661e-01 0.0000000000000000e+00 1
-9.1125104423038852e-02 -4.3410158787647191e-01 0.0000000000000000e+00 1
-8.5253446926324847e-02 -4.3097626745530948e-01 0.0000000000000000e+00 1
-7.9421065958550516e-02 -4.2698425906383386e-01 0.0000000000000000e+00 1
-7.3628267989169008e-02 -4.2215228902195068e-01 0.0000000000000000e+00 1
-6.7875359487633333e-02 -4.1650708364956490e-01 0.0000000000000000e+00 1
-6.2162646923396611e-02 -4.1007536926658117e-01 0.0000000000000000e+00 1
-5.6490436765911936e-02 -4.0288387219290500e-01 0.0000000000000000e+00 1
-5.0859035484632498e-02 -3.9495931874844170e-01 0.0000000000000000e+00 1
-4.5268749549011320e-02 -3.8632843525309613e-01 0.0000000000000000e+00 1
-3.9719885428501425e-02 -3.7701794802677335e-01 0.0000000000000000e+00 1
-3.4212749592556005e-02 -3.6705458338937846e-01 0.0000000000000000e+00 1
-2.8747648510628165e-02 -3.5646506766081687e-01 0.0000000000000000e+00 1
-2.3324888652170958e-02 -3.4527612716099354e-01 0.0000000000000000e+00 1
-1.7944776486637462e-02 -3.3351448820981333e-01 0.0000000000000000e+00 1
-1.2607618483480805e-02 -3.2120687712718154e-01 0.0000000000000000e+00 1
-7.3137211121540660e-03 -3.0838002023300348e-01 0.0000000000000000e+00 1
-2.0633908421103658e-03 -2.9506064384718411e-01 0.0000000000000000e+00 1
3.1430658571972026e-03 -2.8127547428962874e-01 0.0000000000000000e+00 1
8.3053425163155947e-03 -2.6705123788024199e-01 0.0000000000000000e+00 1
1.3423132665791690e-02 -2.5241466093892917e-01 0.0000000000000000e+00 1
1.8496129836172340e-02 -2.3739246978559578e-01 0.0000000000000000e+00 1
2.3524027558004496e-02 -2.2201139074014667e-01 0.0000000000000000e+00 1
2.8506519361835087e-02 -2.0629815012248678e-01 0.0000000000000000e+00 1
3.3443298778210992e-02 -1.9027947425252131e-01 0.0000000000000000e+00 1
3.8334059337679090e-02 -1.7398208945015561e-01 0.0000000000000000e+00 1
4.3178494570786298e-02 -1.5743272203529471e-01 0.0000000000000000e+00 1
4.7976298008079565e-02 -1.4065809832784351e-01 0.0000000000000000e+00 1
5.2727163180105743e-02 -1.2368494464770735e-01 0.0000000000000000e+00 1
5.7430783617411760e-02 -1.0653998731479117e-01 0.0000000000000000e+00 1
6.2086852850544522e-02 -8.9249952649000291e-02 0.0000000000000000e+00 1
6.6695064410050936e-02 -7.1841566970239606e-02 0.0000000000000000e+00 1
7.1255111826477868e-02 -5.4341556598414442e-02 0.0000000000000000e+00 1
7.5766688630372281e-02 -3.6776647853429767e-02 0.0000000000000000e+00 1
8.0229488352281025e-02 -1.9173567055190771e-02 0.0000000000000000e+00 1
8.4643204522751064e-02 -1.5590405236024923e-03 0.0000000000000000e+00 1
8.9007530672329249e-02 1.6040205421429796e-02 0.0000000000000000e+00 1
9.3322160331562543e-02 3.3597444460001236e-02 0.0000000000000000e+00 1
9.7586787030997754e-02 5.1085950272206429e-02 0.0000000000000000e+00 1
1.0180110430118187e-01 6.8478996538140366e-02 0.0000000000000000e+00 1
1.0596480567266180e-01 8.5749856937898050e-02 0.0000000000000000e+00 1
1.1007758467598439e-01 1.0287180515157421e-01 0.0000000000000000e+00 1
1.1413913484169659e-01 1.1981811485926384e-01 0.0000000000000000e+00 1
1.1814914970034528e-01 1.3656205974106170e-01 0.0000000000000000e+00 1
1.2210732278247739e-01 1.5307691347706287e-01 0.0000000000000000e+00 1
1.2601334761863980e-01 1.6933594974736199e-01 0.0000000000000000e+00 1
1.2986691773937944e-01 1.8531244223205418e-01 0.0000000000000000e+00 1
1.3366772667524318e-01 2.0097966461123409e-01 0.0000000000000000e+00 1
1.3741546795677795e-01 2.1631089056499686e-01 0.0000000000000000e+00 1
1.4110983511453062e-01 2.3127939377343709e-01 0.0000000000000000e+00 1
1.4475052167904817e-01 2.4585844791664993e-01 0.0000000000000000e+00 1
1.4833722118087742e-01 2.6002132667473005e-01 0.0000000000000000e+00 1
1.5186962715056535e-01 2.7374130372777256e-01 0.0000000000000000e+00 1
1.5534743311865878e-01 2.8699165275587213e-01 0.0000000000000000e+00 1
1.5877033261570472e-01 2.9974564743912374e-01 0.0000000000000000e+00 1
1.6213801917224996e-01 3.1197656145762220e-01 0.0000000000000000e+00 1
1.6545018631884151e-01 3.2365766849146249e-01 0.0000000000000000e+00 1
1.6870652758602622e-01 3.3476224222073958e-01 0.0000000000000000e+00 1
1.7190673650435095e-01 3.4526355632554806e-01 0.0000000000000000e+00 1
1.7505050660436272e-01 3.5513488448598318e-01 0.0000000000000000e+00 1
1.7568236823103772e-01 3.5844594748517472e-01 0.0000000000000000e+00 1
1.7562233505758168e-01 3.6221674330428888e-01 0.0000000000000000e+00 1
1.7492945581273966e-01 3.6637425336928919e-01 0.0000000000000000e+00 1
1.7366277922525625e-01 3.7084545910613892e-01 0.0000000000000000e+00 1
1.7188135402387644e-01 3.7555734194080148e-01 0.0000000000000000e+00 1
1.6964422893734499e-01 3.8043688329924030e-01 0.0000000000000000e+00 1
1.6701045269440676e-01 3.8541106460741859e-01 0.0000000000000000e+00 1
1.6403907402380652e-01 3.9040686729129992e-01 0.0000000000000000e+00 1
1.6078914165428912e-01 3.9535127277684734e-01 0.0000000000000000e+00 1
1.5731970431459952e-01 4.0017126249002477e-01 0.0000000000000000e+00 1
1.5368981073348237e-01 4.0479381785679502e-01 0.0000000000000000e+00 1
1.4995850963968260e-01 4.0914592030312180e-01 0.0000000000000000e+00 1
1.4618484976194501e-01 4.1315455125496847e-01 0.0000000000000000e+00 1
1.4242787982901445e-01 4.1674669213829829e-01 0.0000000000000000e+00 1
1.3874664856963576e-01 4.1984932437907463e-01 0.0000000000000000e+00 1
1.3520020471255373e-01 4.2238942940326085e-01 0.0000000000000000e+00 1
1.3184759698651327e-01 4.2429398863682055e-01 0.0000000000000000e+00 1
1.2874787412025912e-01 4.2548998350571687e-01 0.0000000000000000e+00 1
1.2596008484253615e-01 4.2590439543591330e-01 0.0000000000000000e+00 1
1.2354327788208920e-01 4.2546420585337308e-01 0.0000000000000000e+00 1
1.2155650196766307e-01 4.2409639618405981e-01 0.0000000000000000e+00 1
1.2005880582800264e-01 4.2172794785393664e-01 0.0000000000000000e+00 1
1.1597971253670293e-01 4.1236240915455125e-01 0.0000000000000000e+00 1
1.1162211427892005e-01 4.0273353565794279e-01 0.0000000000000000e+00 1
1.0699854544912639e-01 3.9284969430114203e-01 0.0000000000000000e+00 1
1.0212154044179429e-01 3.8271925202117940e-01 0.0000000000000000e+00 1
9.7003633651396165e-02 3.7235057575508557e-01 0.0000000000000000e+00 1
9.1657359472404359e-02 3.6175203243989107e-01 0.0000000000000000e+00 1
8.6095252299291269e-02 3.5093198901262662e-01 0.0000000000000000e+00 1
8.0329846526529233e-02 3.3989881241032260e-01 0.0000000000000000e+00 1
7.4373676548590659e-02 3.2866086957000989e-01 0.0000000000000000e+00 1
6.8239276759947884e-02 3.1722652742871899e-01 0.0000000000000000e+00 1
6.1939181555073275e-02 3.0560415292348031e-01 0.0000000000000000e+00 1
5.5485925328439240e-02 2.9380211299132453e-01 0.0000000000000000e+00 1
4.8892042474518137e-02 2.8182877456928246e-01 0.0000000000000000e+00 1
4.2170067387782353e-02 2.6969250459438454e-01 0.0000000000000000e+00 1
3.5332534462704214e-02 2.5740167000366121e-01 0.0000000000000000e+00 1
2.8391978093756126e-02 2.4496463773414334e-01 0.0000000000000000e+00 1
2.1360932675410449e-02 2.3238977472286138e-01 0.0000000000000000e+00 1
1.4251932602139583e-02 2.1968544790684597e-01 0.0000000000000000e+00 1
7.0775122684158531e-03 2.0686002422312771e-01 0.0000000000000000e+00 1
-1.4979393128833340e-04 1.9392187060873708e-01 0.0000000000000000e+00 1
-7.4174516025006243e-03 1.8087935400070482e-01 0.0000000000000000e+00 1
-1.4712926350748640e-02 1.6774084133606149e-01 0.0000000000000000e+00 1
-2.2023683781560013e-02 1.5451469955183772e-01 0.0000000000000000e+00 1
-2.9337189500462366e-02 1.4120929558506395e-01 0.0000000000000000e+00 1
-3.6640909112983330e-02 1.2783299637277096e-01 0.0000000000000000e+00 1
-4.3922308224650541e-02 1.1439416885198928e-01 0.0000000000000000e+00 1
-5.1168852440991563e-02 1.0090117995974954e-01 0.0000000000000000e+00 1
-5.8368007367534128e-02 8.7362396633082276e-02 0.0000000000000000e+00 1
-6.5507238609805812e-02 7.3786185809018051e-02 0.0000000000000000e+00 1
-7.2574011773334252e-02 6.0180914424587492e-02 0.0000000000000000e+00 1
-7.9555792463647065e-02 4.6554949416821284e-02 0.0000000000000000e+00 1
-8.6440046286271902e-02 3.2916657722749959e-02 0.0000000000000000e+00 1
-9.3214238846736366e-02 1.9274406279404091e-02 0.0000000000000000e+00 1
-9.9865835750568080e-02 5.6365620238142539e-03 0.0000000000000000e+00 1
-1.0638230260329472e-01 -7.9885081069888120e-03 0.0000000000000000e+00 1
-1.1275110501044384e-01 -2.1592437175974616e-02 0.0000000000000000e+00 1
-1.1895970857754316e-01 -3.5166858246112681e-02 0.0000000000000000e+00 1
-1.2499557891012021e-01 -4.8703404380372156e-02 0.0000000000000000e+00 1
-1.3084618161370271e-01 -6.2193708641722634e-02 0.0000000000000000e+00 1
-1.3649898229381818e-01 -7.5629404093133401e-02 0.0000000000000000e+00 1
-1.4194144655599439e-01 -8.9002123797574023e-02 0.0000000000000000e+00 1
-1.4716104000575886e-01 -1.0230350081801368e-01 0.0000000000000000e+00 1
-1.5214522824863919e-01 -1.1552516821742190e-01 0.0000000000000000e+00 1
-1.5688147689016319e-01 -1.2865875905876820e-01 0.0000000000000000e+00 1
-1.6135725153585823e-01 -1.4169590640502175e-01 0.0000000000000000e+00 1
-1.6556001779125218e-01 -1.5462824331915218e-01 0.0000000000000000e+00 1
-1.6947724126187247e-01 -1.6744740286412854e-01 0.0000000000000000e+00 1
-1.7309638755324691e-01 -1.8014501810292080e-01 0.0000000000000000e+00 1
-1.7640492227090299e-01 -1.9271272209849780e-01 0.0000000000000000e+00 1
-1.7939031102036845e-01 -2.0514214791382937e-01 0.0000000000000000e+00 1
-1.8204001940717079e-01 -2.1742492861188459e-01 0.0000000000000000e+00 1
-1.8434151303683777e-01 -2.2955269725563313e-01 0.0000000000000000e+00 1
-1.8628225751489685e-01 -2.4151708690804405e-01 0.0000000000000000e+00 1
-1.8784971844687581e-01 -2.5330973063208706e-01 0.0000000000000000e+00 1
-1.8903136143830224e-01 -2.6492226149073150e-01 0.0000000000000000e+00 1
-1.8981465209470377e-01 -2.7634631254694675e-01 0.0000000000000000e+00 1
-1.9018705602160796e-01 -2.8757351686370214e-01 0.0000000000000000e+00 1
-1.9013603882454255e-01 -2.9859550750396713e-01 0.0000000000000000e+00 1
-1.8964906610903504e-01 -3.0940391753071128e-01 0.0000000000000000e+00 1
-1.8871360348061322e-01 -3.1999038000690383e-01 0.0000000000000000e+00 1
-1.8731711654480465e-01 -3.3034652799551423e-01 0.0000000000000000e+00 1
-1.8544707090713680e-01 -3.4046399455951160e-01 0.0000000000000000e+00 1
-1.8309093217313754e-01 -3.5033441276186583e-01 0.0000000000000000e+00 1
-1.8023616594833436e-01 -3.5994941566554595e-01 0.0000000000000000e+00 1
-1.7687023783825495e-01 -3.6930063633352161e-01 0.0000000000000000e+00 1
-1.7298061344842691e-01 -3.7837970782876207e-01 0.0000000000000000e+00 1
-1.6855475838437783e-01 -3.8717826321423676e-01 0.0000000000000000e+00 1
-1.6358013825163542e-01 -3.9568793555291526e-01 0.0000000000000000e+00 1
-1.5804421865572726e-01 -4.0390035790776657e-01 0.0000000000000000e+00 1
-1.7971461043039963e-01 -3.2407804098362619e-01 0.0000000000000000e+00 1
-1.8065508940465605e-01 -2.5952043702460953e-01 0.0000000000000000e+00 1
-1.7045282195927219e-01 -2.1319701750598863e-01 0.0000000000000000e+00 1
-1.6778426450655939e-01 -3.7077967119287614e-01 0.0000000000000000e+00 1
-3.0973137914762059e-02 -3.3404670010808113e-01 0.0000000000000000e+00 1
-1.5656390949634807e-01 -1.6499211432230587e-01 0.0000000000000000e+00 1
-1.0790583483071926e-02 -2.8396333398434992e-01 0.0000000000000000e+00 1
-5.0237372983311664e-02 -3.7710524676458357e-01 0.0000000000000000e+00 1
-1.3668096470038057e-01 -1.1501784944669571e-01 0.0000000000000000e+00 1
-7.5448223025474714e-02 -4.1465281639748369e-01 0.0000000000000000e+00 1
1.7064505128171234e-01 3.6733102034519105e-01 0.0000000000000000e+00 1
7.9253174456281397e-03 -2.2548405396516460e-01 0.0000000000000000e+00 1
-1.1540902120185084e-01 -6.1108660321546521e-02 0.0000000000000000e+00 1
-1.4793703949671266e-01 -4.0342397600946689e-01 0.0000000000000000e+00 1
2.6637396240890916e-02 -1.6044677919433412e-01 0.0000000000000000e+00 1
-9.2138556706913927e-02 -6.8155589622609447e-03 0.0000000000000000e+00 1
4.1068480335879939e-02 -1.1132192179804382e-01 0.0000000000000000e+00 1
-7.2314544876872000e-02 3.3333469966638760e-02 0.0000000000000000e+00 1
-5.1747131036506418e-02 7.6330492927541932e-02 0.0000000000000000e+00 1
-1.2189337314294678e-01 -4.2933905582213189e-01 0.0000000000000000e+00 1
5.2858418102515722e-02 -5.8667991579166308e-02 0.0000000000000000e+00 1
-2.7361352450575270e-02 1.1352145518507584e-01 0.0000000000000000e+00 1
1.6107681222921388e-01 3.8623140540890488e-01 0.0000000000000000e+00 1
6.6107960010708358e-02 -9.4739878450312547e-03 0.0000000000000000e+00 1
-1.8070400897298433e-01 -2.9304073632531596e-01 0.0000000000000000e+00 1
1.5190904907230396e-01 3.9954556782984635e-01 0.0000000000000000e+00 1
-6.2970003689953452e-03 1.5425322981422535e-01 0.0000000000000000e+00 1
8.0353004539848130e-02 4.6024237726773290e-02 0.0000000000000000e+00 1
1.4552189716758795e-02 1.9525271287131751e-01 0.0000000000000000e+00 1
-9.5971402694923158e-02 -4.2986183622521307e-01 0.0000000000000000e+00 1
9.3399190875218696e-02 9.7900387937416955e-02 0.0000000000000000e+00 1
3.5114660484111493e-02 2.3473925227318282e-01 0.0000000000000000e+00 1
1.0834832000240710e-01 3.7347853145734167e-01 0.0000000000000000e+00 1
5.5977765016429315e-02 2.6999784618558426e-01 0.0000000000000000e+00 1
1.0603366953945584e-01 1.4823611928214228e-01 0.0000000000000000e+00 1
7.5188667059589015e-02 3.0612313010457881e-01 0.0000000000000000e+00 1
1.5442485120358196e-01 3.2042982106735279e-01 0.0000000000000000e+00 1
1.1841940494699277e-01 1.9633870119256960e-01 0.0000000000000000e+00 1
1.3451262403473990e-01 2.5590970471547070e-01 0.0000000000000000e+00 1
9.3015797128968139e-02 3.4093060831432331e-01 0.0000000000000000e+00 1
1.4600887561825554e-01 2.9620347177626205e-01 0.0000000000000000e+00 1
1.6113172971422865e-01 3.4149330091914787e-01 0.0000000000000000e+00 1
1.4132209477057989e-01 4.1174221786913412e-01 0.0000000000000000e+00 1
1.3198858256548870e-01 4.2063907848467957e-01 0.0000000000000000e+00 1
1.2683708519897949e-01 2.2689610735960222e-01 0.0000000000000000e+00 1
1.7589001567104138e-02 -1.9518821202295522e-01 0.0000000000000000e+00 1
-7.1424732225323895e-04 -2.5555243046633375e-01 0.0000000000000000e+00 1
-2.0974847432423952e-02 -3.1017301910699280e-01 0.0000000000000000e+00 1
1.1686426522303431e-01 3.9240868924294492e-01 0.0000000000000000e+00 1
-1.0356917792489653e-01 -3.3889434313636384e-02 0.0000000000000000e+00 1
-1.2644187841111229e-01 -8.8068279113301368e-02 0.0000000000000000e+00 1
-1.4790501136684564e-01 -1.3902732497357714e-01 0.0000000000000000e+00 1
-4.0084334015444360e-02 -3.5724549449463550e-01 0.0000000000000000e+00 1
-1.6379003158445679e-01 -1.8884117990558033e-01 0.0000000000000000e+00 1
-1.7546649795922176e-01 -2.3782502827927876e-01 0.0000000000000000e+00 1
-6.0339073599684101e-02 -3.9418573762640546e-01 0.0000000000000000e+00 1
1.2533414154627381e-01 4.2354242294363076e-01 0.0000000000000000e+00 1
-1.7647708393904496e-01 -3.4351980216034944e-01 0.0000000000000000e+00 1
-1.3869599609591629e-01 -4.1622222426648531e-01 0.0000000000000000e+00 1
-1.5890087124191810e-01 -3.8742422672378507e-01 0.0000000000000000e+00 1
1.6625322035956075e-01 3.7596039500309353e-01 0.0000000000000000e+00 1
1.7172949154327705e-01 3.5748446697068614e-01 0.0000000000000000e+00 1
-8.5826655730809054e-02 -4.2433335676047723e-01 0.0000000000000000e+00 1
-1.1103015332615476e-01 -4.3133652084098434e-01 0.0000000000000000e+00 1
1.2410235500769826e-01 4.1439572969323968e-01 0.0000000000000000e+00 1
1.2197622763679611e-01 4.0564842018532687e-01 0.0000000000000000e+00 1
1.2742558167850504e-01 3.9702854144800526e-01 0.0000000000000000e+00 1
1.2919833910533721e-01 4.0926507035586140e-01 0.0000000000000000e+00 1
1.1279254959232132e-01 3.8347326575191854e-01 0.0000000000000000e+00 1
1.1885260639682491e-01 3.7453784714269223e-01 0.0000000000000000e+00 1
1.1453906143744594e-01 3.6490057976467705e-01 0.0000000000000000e+00 1
1.2480261598993311e-01 3.6584522206897307e-01 0.0000000000000000e+00 1
1.2055543866884512e-01 3.5634484114553083e-01 0.0000000000000000e+00 1
1.3089005403223972e-01 3.5742251134752479e-01 0.0000000000000000e+00 1
1.2664322559207797e-01 3.4757041028908076e-01 0.0000000000000000e+00 1
1.3506900752581250e-01 3.6667907751303630e-01 0.0000000000000000e+00 1
1.4083106778729895e-01 3.5869260888503363e-01 0.0000000000000000e+00 1
1.4454783656546027e-01 3.6762177860944895e-01 0.0000000000000000e+00 1
1.3916699954762948e-01 3.7495592647144271e-01 0.0000000000000000e+00 1
1.5013607274902924e-01 3.6059833488158272e-01 0.0000000000000000e+00 1
1.4803485113078924e-01 3.7566394345650572e-01 0.0000000000000000e+00 1
1.4314867525601171e-01 3.8258711022536984e-01 0.0000000000000000e+00 1
1.1615882476802322e-01 3.4573452101261748e-01 0.0000000000000000e+00 1
1.2248166280832136e-01 3.3704950091980496e-01 0.0000000000000000e+00 1
1.3309962727084626e-01 3.3876506898648073e-01 0.0000000000000000e+00 1
1.2846652629862498e-01 3.2811073664944529e-01 0.0000000000000000e+00 1
1.1724697601300312e-01 3.2677157607763985e-01 0.0000000000000000e+00 1
1.2364759400771104e-01 3.1717297931485838e-01 0.0000000000000000e+00 1
1.1233294765875186e-01 3.1548328161919698e-01 0.0000000000000000e+00 1
1.1892985869670497e-01 3.0573538086751678e-01 0.0000000000000000e+00 1
1.0720298725106954e-01 3.0392552052507815e-01 0.0000000000000000e+00 1
1.1376982817314363e-01 2.9391460034339306e-01 0.0000000000000000e+00 1
1.0156575562740276e-01 2.9222763790332906e-01 0.0000000000000000e+00 1
1.0862193204379496e-01 2.8173435718362883e-01 0.0000000000000000e+00 1
9.6167073067304057e-02 2.7989017097078484e-01 0.0000000000000000e+00 1
1.0298203722809582e-01 2.6937255517909608e-01 0.0000000000000000e+00 1
9.0450669036573034e-02 2.6738167543573105e-01 0.0000000000000000e+00 1
9.7852643297379097e-02 2.5644477970274598e-01 0.0000000000000000e+00 1
8.4541855114662626e-02 2.5468056168328312e-01 0.0000000000000000e+00 1
9.2481121944176181e-02 2.4337633642759446e-01 0.0000000000000000e+00 1
7.8755942520201849e-02 2.4151755818616619e-01 0.0000000000000000e+00 1
8.6801957537154667e-02 2.3003387114963531e-01 0.0000000000000000e+00 1
7.2162840182673244e-02 2.2849400745796217e-01 0.0000000000000000e+00 1
8.1268063253597311e-02 2.1622458448271936e-01 0.0000000000000000e+00 1
6.6042632543491991e-02 2.1483295320669815e-01 0.0000000000000000e+00 1
7.6055958826426406e-02 2.0198461984567886e-01 0.0000000000000000e+00 1
5.9975346355889497e-02 2.0096455784977979e-01 0.0000000000000000e+00 1
6.9749869828671554e-02 1.8816488149690494e-01 0.0000000000000000e+00 1
5.3599680295446692e-02 1.8696759353182218e-01 0.0000000000000000e+00 1
6.2242720662293645e-02 1.7470361653216843e-01 0.0000000000000000e+00 1
4.7067127157189512e-02 1.7295228511906141e-01 0.0000000000000000e+00 1
5.5394179316753944e-02 1.6068080360145159e-01 0.0000000000000000e+00 1
4.0447509783013987e-02 1.5864949944069298e-01 0.0000000000000000e+00 1
4.9485666058039793e-02 1.4603116742300087e-01 0.0000000000000000e+00 1
3.4051494983789093e-02 1.4415563041683860e-01 0.0000000000000000e+00 1
4.3476184482565072e-02 1.3127166205835702e-01 0.0000000000000000e+00 1
2.7601200191353543e-02 1.2951876828333042e-01 0.0000000000000000e+00 1
3.7081921322335606e-02 1.1654186879226458e-01 0.0000000000000000e+00 1
2.1099822236715707e-02 1.1483090961740285e-01 0.0000000000000000e+00 1
3.0622875276646408e-02 1.0173278479551918e-01 0.0000000000000000e+00 1
1.4503942275680772e-02 1.0000245905032973e-01 0.0000000000000000e+00 1
2.4949492784286792e-02 8.6467408995137732e-02 0.0000000000000000e+00 1
8.0012919224894102e-03 8.5029567722694113e-02 0.0000000000000000e+00 1
1.8526144461736230e-02 7.1456147241640441e-02 0.0000000000000000e+00 1
1.4109594140177758e-03 7.0058341778661673e-02 0.0000000000000000e+00 1
1.1053557038681260e-02 5.6861871205113129e-02 0.0000000000000000e+00 1
-5.3696923398496100e-03 5.5139196009668497e-02 0.0000000000000000e+00 1
4.2509267845806317e-03 4.1941947671325627e-02 0.0000000000000000e+00 1
-1.2068521081211191e-02 4.0205240915424573e-02 0.0000000000000000e+00 1
-2.4433126806885060e-03 2.6972664640145139e-02 0.0000000000000000e+00 1
-1.8694598387433169e-02 2.5249422692877239e-02 0.0000000000000000e+00 1
-8.9737196845785412e-03 1.2050709093349533e-02 0.0000000000000000e+00 1
-2.5290673400471302e-02 1.0291800808002589e-02 0.0000000000000000e+00 1
-1.5581723460618530e-02 -2.9154387700148273e-03 0.0000000000000000e+00 1
-3.1893335063294635e-02 -4.6434157181430621e-03 0.0000000000000000e+00 1
-2.2313194500062958e-02 -1.7870171248221038e-02 0.0000000000000000e+00 1
-5.5812105033217225e-03 -1.6088510407813131e-02 0.0000000000000000e+00 1
-1.2432711361532534e-02 -3.1139720566106831e-02 0.0000000000000000e+00 1
-2.9111493163767953e-02 -3.2818335408756005e-02 0.0000000000000000e+00 1
-1.9488694330996648e-02 -4.6085755220775099e-02 0.0000000000000000e+00 1
-3.5731001311782647e-02 -4.7690247913115165e-02 0.0000000000000000e+00 1
-2.6282541554025398e-02 -6.0940496913063691e-02 0.0000000000000000e+00 1
-4.2355480039388091e-02 -6.2494741999617645e-02 0.0000000000000000e+00 1
-3.2984366201054993e-02 -7.5606750568745842e-02 0.0000000000000000e+00 1
-4.8693934021793256e-02 -7.7309001041338282e-02 0.0000000000000000e+00 1
-3.9636231451775118e-02 -9.0216895547447468e-02 0.0000000000000000e+00 1
-5.5152024100556057e-02 -9.1886326088610942e-02 0.0000000000000000e+00 1
-4.5885598521443000e-02 -1.0546717071524236e-01 0.0000000000000000e+00 1
-6.1715982279527334e-02 -1.0652187862028278e-01 0.0000000000000000e+00 1
-5.2623758350649065e-02 -1.2004561944624005e-01 0.0000000000000000e+00 1
-6.8114215903164160e-02 -1.2084485412197134e-01 0.0000000000000000e+00 1
-5.9414795220562228e-02 -1.3333686499630890e-01 0.0000000000000000e+00 1
-7.4504668082770564e-02 -1.3464606366804932e-01 0.0000000000000000e+00 1
-6.5669851313162136e-02 -1.4622232330105628e-01 0.0000000000000000e+00 1
-8.0665202060802979e-02 -1.4829127303784664e-01 0.0000000000000000e+00 1
-7.2499168699481698e-02 -1.5943305978593730e-01 0.0000000000000000e+00 1
-8.6756136741305792e-02 -1.6175883079766423e-01 0.0000000000000000e+00 1
-7.8758011352725601e-02 -1.7343867636811308e-01 0.0000000000000000e+00 1
-9.2696267928125395e-02 -1.7536944743422889e-01 0.0000000000000000e+00 1
-8.4247404178440205e-02 -1.8715944346358329e-01 0.0000000000000000e+00 1
-7.1267529990396566e-02 -1.8438665714929253e-01 0.0000000000000000e+00 1
-7.6536966950234292e-02 -1.9850537851520156e-01 0.0000000000000000e+00 1
-9.0184907532906089e-02 -2.0025196924259039e-01 0.0000000000000000e+00 1
-8.2147349753440790e-02 -2.1174057985377365e-01 0.0000000000000000e+00 1
-9.5929719579253364e-02 -2.1314274241890499e-01 0.0000000000000000e+00 1
-8.7970270914268067e-02 -2.2454739898811849e-01 0.0000000000000000e+00 1
-1.0161637686836864e-01 -2.2578645508143674e-01 0.0000000000000000e+00 1
-9.3859130093066193e-02 -2.3691023341690789e-01 0.0000000000000000e+00 1
-1.0723073099440980e-01 -2.3804332767215555e-01 0.0000000000000000e+00 1
-9.9529889761882123e-02 -2.4897945741021021e-01 0.0000000000000000e+00 1
-8.6243907524364727e-02 -2.4795654956332583e-01 0.0000000000000000e+00 1
-9.2085066474853094e-02 -2.5980826579684602e-01 0.0000000000000000e+00 1
-1.0499226932478004e-01 -2.6089955869774645e-01 0.0000000000000000e+00 1
-9.7685298653099412e-02 -2.7161243856566208e-01 0.0000000000000000e+00 1
-1.1034211543176660e-01 -2.7261532009242756e-01 0.0000000000000000e+00 1
-1.0329782483536712e-01 -2.8296172884255810e-01 0.0000000000000000e+00 1
-1.1563836624555869e-01 -2.8396358668841981e-01 0.0000000000000000e+00 1
-1.0867650516036217e-01 -2.9398697861005330e-01 0.0000000000000000e+00 1
-9.6463097161792632e-02 -2.9315587410063176e-01 0.0000000000000000e+00 1
-1.0183215039941614e-01 -3.0398656216773212e-01 0.0000000000000000e+00 1
-1.1378304638790068e-01 -3.0480759692855097e-01 0.0000000000000000e+00 1
-1.0711816878277844e-01 -3.1456652684670283e-01 0.0000000000000000e+00 1
-1.1913666316751274e-01 -3.1521316043843695e-01 0.0000000000000000e+00 1
-1.1275603965104145e-01 -3.2464093961283524e-01 0.0000000000000000e+00 1
-1.0067230140127795e-01 -3.2437406636528299e-01 0.0000000000000000e+00 1
-1.0606740171035353e-01 -3.3432049416877452e-01 0.0000000000000000e+00 1
-1.1722570246250574e-01 -3.3430879752253873e-01 0.0000000000000000e+00 1
-1.1043018802265575e-01 -3.4371944791611819e-01 0.0000000000000000e+00 1
-1.0037025162712142e-01 -3.4342155634200311e-01 0.0000000000000000e+00 1
-1.0553084806425422e-01 -3.5287182842156201e-01 0.0000000000000000e+00 1
-6.9035975893074003e-02 -2.0959862919371977e-01 0.0000000000000000e+00 1
-7.8843786581809988e-02 -2.5881525348417977e-01 0.0000000000000000e+00 1
-1.1569510676336175e-01 -3.5390716989592091e-01 0.0000000000000000e+00 1
-1.0951081950592963e-01 -3.6279246879928473e-01 0.0000000000000000e+00 1
-9.8910990288112580e-02 -3.6124347807476831e-01 0.0000000000000000e+00 1
-1.0424890421188052e-01 -3.7117247398316550e-01 0.0000000000000000e+00 1
-5.1626868460099964e-02 -1.4377477829116725e-01 0.0000000000000000e+00 1
-1.2264678593219061e-01 -2.7379467531211515e-01 0.0000000000000000e+00 1
-1.1370828709988073e-01 -3.7216328312716618e-01 0.0000000000000000e+00 1
-1.0874265080852491e-01 -3.8017216580930924e-01 0.0000000000000000e+00 1
-8.9696803376561079e-02 -3.0323359677747908e-01 0.0000000000000000e+00 1
-1.0446360333869414e-01 -2.0108843087308528e-01 0.0000000000000000e+00 1
-1.2787340018238641e-01 -2.8485523546046981e-01 0.0000000000000000e+00 1
-2.9453892040583868e-02 -1.0546606439329015e-01 0.0000000000000000e+00 1
-1.1500908564702911e-01 -2.2649754786702028e-01 0.0000000000000000e+00 1
-9.9160646967929825e-02 -3.7968492000385839e-01 0.0000000000000000e+00 1
-1.0365032143716310e-01 -3.8806541816694701e-01 0.0000000000000000e+00 1
-1.1286516010308707e-01 -3.8860551091378726e-01 0.0000000000000000e+00 1
-1.0799561899010725e-01 -3.9618629488948570e-01 0.0000000000000000e+00 1
-1.6345699442419669e-02 -7.4862997309762702e-02 0.0000000000000000e+00 1
-9.4220813731381831e-02 -3.8768713111504272e-01 0.0000000000000000e+00 1
-8.9686473908096614e-02 -3.7927772684405398e-01 0.0000000000000000e+00 1
-1.3477546073020907e-01 -2.7500218112902558e-01 0.0000000000000000e+00 1
-8.3595984913344329e-02 -1.2296426280663139e-01 0.0000000000000000e+00 1
-9.5411031089693871e-02 -1.5002497805300194e-01 0.0000000000000000e+00 1
-1.3983739556672342e-01 -2.8584928492435019e-01 0.0000000000000000e+00 1
1.4179395120064150e-02 2.8917170656042993e-02 0.0000000000000000e+00 1
-7.1051724544294315e-02 -9.4933787905056521e-02 0.0000000000000000e+00 1
-5.9246864632080475e-02 -6.3331513743530354e-02 0.0000000000000000e+00 1
4.2224694368686339e-02 8.7644409176409366e-02 0.0000000000000000e+00 1
-2.3079151354983918e-03 -4.4730902769704220e-02 0.0000000000000000e+00 1
-4.5127855989836943e-02 -3.4358176858109594e-02 0.0000000000000000e+00 1
-1.1688304336230676e-01 -3.9678448041014358e-01 0.0000000000000000e+00 1
-1.2197237441896136e-01 -3.8919567562773932e-01 0.0000000000000000e+00 1
-1.1197528926915529e-01 -4.0407794831433225e-01 0.0000000000000000e+00 1
-1.0352538642789363e-01 -4.0360409894648575e-01 0.0000000000000000e+00 1
-1.2041995708631206e-01 -2.3912212799886956e-01 0.0000000000000000e+00 1
-1.2810434138410351e-01 -2.2800371491719323e-01 0.0000000000000000e+00 1
-1.3342853342311461e-01 -2.4033236601599020e-01 0.0000000000000000e+00 1
2.7218157946916517e-02 5.8686433623308984e-02 0.0000000000000000e+00 1
-8.4231311522207225e-02 -2.9226265431313231e-01 0.0000000000000000e+00 1
-7.7303352120443675e-02 -3.0263848136688615e-01 0.0000000000000000e+00 1
-7.1861072026720513e-02 -2.9141019729303241e-01 0.0000000000000000e+00 1
-6.5120188013503985e-02 -3.0202190329188433e-01 0.0000000000000000e+00 1
-7.0446535979909825e-02 -3.1310769389123083e-01 0.0000000000000000e+00 1
-5.8892282437238243e-02 -2.9068232155643275e-01 0.0000000000000000e+00 1
-7.2926184073501155e-02 -2.4683039403396673e-01 0.0000000000000000e+00 1
-6.5213314210757906e-02 -2.5794881597935237e-01 0.0000000000000000e+00 1
-5.9308723085385859e-02 -2.4563824941007928e-01 0.0000000000000000e+00 1
-5.1479488235089757e-02 -2.5702136442007928e-01 0.0000000000000000e+00 1
-4.5409456947125462e-02 -2.4441641283669430e-01 0.0000000000000000e+00 1
5.8804306533292161e-02 1.3392927907799787e-01 0.0000000000000000e+00 1
-1.4672008942332043e-01 -2.7614163206047593e-01 0.0000000000000000e+00 1
-1.0735918737504527e-01 -4.1097008711030264e-01 0.0000000000000000e+00 1
-2.8243260756753437e-02 3.8406798466460612e-02 0.0000000000000000e+00 1
-5.8407192484461877e-02 -3.1257258997036658e-01 0.0000000000000000e+00 1
-6.3813708171669703e-02 -3.2338920888944261e-01 0.0000000000000000e+00 1
-1.1540734787373148e-01 -4.1161614956580334e-01 0.0000000000000000e+00 1
-1.5158577369291593e-01 -2.8687826493057700e-01 0.0000000000000000e+00 1
-1.4494123696941486e-01 -2.9641244675792455e-01 0.0000000000000000e+00 1
-1.2590049713164458e-01 -3.9744579884496767e-01 0.0000000000000000e+00 1
-1.3107827970011313e-01 -3.8982888362610901e-01 0.0000000000000000e+00 1
-8.4773499931566049e-02 -3.8740922655871735e-01 0.0000000000000000e+00 1
-8.0067137592882337e-02 -3.7896351898129099e-01 0.0000000000000000e+00 1
-1.4114888995535099e-01 -2.2948702495427345e-01 0.0000000000000000e+00 1
-1.3650253815047775e-01 -2.1641239189950648e-01 0.0000000000000000e+00 1
-1.4584428166223062e-01 -2.4198538610818066e-01 0.0000000000000000e+00 1
-3.7991151845427784e-02 -2.5576403823100391e-01 0.0000000000000000e+00 1
-3.1804155792883183e-02 -2.4287782279743481e-01 0.0000000000000000e+00 1
-3.9495526453878493e-02 -2.3129499331367548e-01 0.0000000000000000e+00 1
7.8060207524918795e-02 1.7631188374324600e-01 0.0000000000000000e+00 1
-8.2254585690809713e-03 8.3301085512415191e-02 0.0000000000000000e+00 1
-4.1406455939898036e-02 8.4741679368668318e-03 0.0000000000000000e+00 1
-9.9268299829118181e-02 -4.1070586678161636e-01 0.0000000000000000e+00 1
-1.5643235678317244e-01 -2.9739176404223866e-01 0.0000000000000000e+00 1
-1.4996656143151024e-01 -3.0669847221715957e-01 0.0000000000000000e+00 1
-1.5839563627828293e-01 -2.7728548814593967e-01 0.0000000000000000e+00 1
1.2174400992105999e-01 2.8315602446790167e-01 0.0000000000000000e+00 1
-2.4625927900928817e-02 -2.2998384542298622e-01 0.0000000000000000e+00 1
-3.3342386025344853e-02 -2.1775829311166486e-01 0.0000000000000000e+00 1
1.0049192714078867e-01 3.1470963792254836e-01 0.0000000000000000e+00 1
-7.5917027540324672e-02 -3.2400184045403491e-01 0.0000000000000000e+00 1
-6.9285375675876948e-02 -3.3408065135841958e-01 0.0000000000000000e+00 1
-5.7301370844825492e-02 -3.3352351741654235e-01 0.0000000000000000e+00 1
-6.2790137361592294e-02 -3.4406324334603744e-01 0.0000000000000000e+00 1
-7.4477808118963484e-02 -3.4454495315139555e-01 0.0000000000000000e+00 1
-6.8228368948169638e-02 -3.5409593233063985e-01 0.0000000000000000e+00 1
-1.6112435768497649e-01 -3.0764578530215514e-01 0.0000000000000000e+00 1
-1.5475524538331023e-01 -3.1678935697140931e-01 0.0000000000000000e+00 1
-1.4370399506620329e-01 -3.1591926395823500e-01 0.0000000000000000e+00 1
-1.4846912631848863e-01 -3.2586561260109226e-01 0.0000000000000000e+00 1
8.2801849195721713e-02 2.7881825286761164e-01 0.0000000000000000e+00 1
-8.9615580620602403e-02 -3.9557833975961493e-01 0.0000000000000000e+00 1
-8.0075265947051860e-02 -3.9537588042256094e-01 0.0000000000000000e+00 1
1.1765498308643473e-02 1.2786007065173960e-01 0.0000000000000000e+00 1
-1.5363375548236677e-01 -2.6660240667487073e-01 0.0000000000000000e+00 1
6.4452331404163163e-02 2.3954645110098063e-01 0.0000000000000000e+00 1
-4.7908287654333748e-02 -6.2564786603747586e-03 0.0000000000000000e+00 1
2.4842915869138012e-02 1.5693085301889378e-01 0.0000000000000000e+00 1
4.4544843965386313e-02 1.9959639714913660e-01 0.0000000000000000e+00 1
-4.3612828012582025e-02 -2.6857756362959057e-01 0.0000000000000000e+00 1
-5.7306956681227025e-02 6.5726237111452717e-03 0.0000000000000000e+00 1
-1.7801552914386579e-02 -2.1636195713884809e-01 0.0000000000000000e+00 1
-2.7005898537760396e-02 -2.0416318948513354e-01 0.0000000000000000e+00 1
1.3481113013618526e-01 3.8221739605065430e-01 0.0000000000000000e+00 1
9.6638405867595617e-02 2.1860991700754739e-01 0.0000000000000000e+00 1
-1.3701353215562218e-01 -3.2530045524426632e-01 0.0000000000000000e+00 1
-1.4188096703359962e-01 -3.3508436868448704e-01 0.0000000000000000e+00 1
-1.5306733519039109e-01 -3.3575656536924642e-01 0.0000000000000000e+00 1
-1.4691581292102801e-01 -3.4454196047323160e-01 0.0000000000000000e+00 1
-1.3593636036183321e-01 -3.4465159666729900e-01 0.0000000000000000e+00 1
-1.4115185936918123e-01 -3.5350213038504807e-01 0.0000000000000000e+00 1
-1.5151035877427813e-01 -3.5401702100336035e-01 0.0000000000000000e+00 1
-1.4563629695891911e-01 -3.6257078896439288e-01 0.0000000000000000e+00 1
-1.3557907747698600e-01 -3.6201905308495763e-01 0.0000000000000000e+00 1
-1.3998937715651233e-01 -3.7034283262764645e-01 0.0000000000000000e+00 1
-1.0311066909305584e-01 -4.1760396464776395e-01 0.0000000000000000e+00 1
-7.9111152929749823e-02 -3.5394529039791528e-01 0.0000000000000000e+00 1
1.4739207219065303e-01 3.5022540648894890e-01 0.0000000000000000e+00 1
-1.5362846464358720e-01 -2.3111007042584308e-01 0.0000000000000000e+00 1
-1.1792595428269456e-02 -2.0285007036588865e-01 0.0000000000000000e+00 1
-2.0551171345368182e-02 -1.9016086850383229e-01 0.0000000000000000e+00 1
-3.5902017816233783e-02 -1.9148818541539517e-01 0.0000000000000000e+00 1
-2.9469772998117406e-02 -1.7743084177094220e-01 0.0000000000000000e+00 1
-1.3899918563544736e-02 -1.7604501759239669e-01 0.0000000000000000e+00 1
-2.2994371122344315e-02 -1.6315466562526162e-01 0.0000000000000000e+00 1
-7.2063753060678248e-03 -1.6171803144573149e-01 0.0000000000000000e+00 1
-1.6434085833078912e-02 -1.4865933401131570e-01 0.0000000000000000e+00 1
-3.9695535134707388e-04 -1.4716918952955912e-01 0.0000000000000000e+00 1
-9.7639712797352937e-03 -1.3388790668592737e-01 0.0000000000000000e+00 1
6.4989167622200783e-03 -1.3243340350070576e-01 0.0000000000000000e+00 1
-2.9877533108357973e-03 -1.1897593158930597e-01 0.0000000000000000e+00 1
-1.2766104290599600e-01 -3.8033504312278216e-01 0.0000000000000000e+00 1
-1.3021807482696396e-01 -2.6326028114726896e-01 0.0000000000000000e+00 1
-6.3557988423386488e-02 -7.4597568667528558e-03 0.0000000000000000e+00 1
-1.2610035111040466e-01 -3.0544382903712741e-01 0.0000000000000000e+00 1
-4.4526300518035231e-02 -1.7867440488816344e-01 0.0000000000000000e+00 1
1.0672485598730214e-01 2.4672194732478175e-01 0.0000000000000000e+00 1
-1.4973433759224697e-01 -3.7133484655936694e-01 0.0000000000000000e+00 1
-1.4341776705023865e-01 -3.7958171595184609e-01 0.0000000000000000e+00 1
-2.4962686253476397e-02 -1.3592802433389117e-01 0.0000000000000000e+00 1
1.3866151812396238e-01 3.8959750615381039e-01 0.0000000000000000e+00 1
-8.4313306157019235e-02 -4.0342153170728834e-01 0.0000000000000000e+00 1
-2.9765652792166759e-02 -2.6498533092727644e-01 0.0000000000000000e+00 1
-3.5010998079409279e-02 -2.7843152108240898e-01 0.0000000000000000e+00 1
-7.8331936817313305e-02 -2.8119694671097872e-01 0.0000000000000000e+00 1
-5.0355153726781662e-02 2.1253938623600803e-02 0.0000000000000000e+00 1
-6.7024623929639815e-02 -2.3453975671703856e-01 0.0000000000000000e+00 1
1.3133347075066391e-02 -1.1770604903959275e-01 0.0000000000000000e+00 1
3.8419436628311376e-03 -1.0383920706591555e-01 0.0000000000000000e+00 1
-8.5393093969701309e-02 -3.7106571896157875e-01 0.0000000000000000e+00 1
-7.6030540558872678e-02 -3.7051200419475094e-01 0.0000000000000000e+00 1
-7.0563339807171499e-02 -3.7874952613311985e-01 0.0000000000000000e+00 1
-6.6321879955678731e-02 -3.6975725015201927e-01 0.0000000000000000e+00 1
-7.2038205373944023e-02 6.6284049663136143e-03 0.0000000000000000e+00 1
-9.5669199286529949e-02 -4.1722565881518114e-01 0.0000000000000000e+00 1
2.2526121612188279e-02 -1.3115404453496418e-01 0.0000000000000000e+00 1
1.9379774507575307e-03 -1.7482161802146098e-01 0.0000000000000000e+00 1
1.4672093584521689e-01 3.8929105473252068e-01 0.0000000000000000e+00 1
1.4262862821741842e-01 3.9640069034690040e-01 0.0000000000000000e+00 1
-1.5680256301881862e-01 -2.4466719413881793e-01 0.0000000000000000e+00 1
1.3579187645815763e-01 3.1892809875515282e-01 0.0000000000000000e+00 1
-1.3464370730799050e-01 -3.9825971515030845e-01 0.0000000000000000e+00 1
-1.2900523378462980e-01 -4.0556198145789846e-01 0.0000000000000000e+00 1
-5.3151594227775559e-02 -3.4274700561465699e-01 0.0000000000000000e+00 1
-4.7618176713956364e-02 -2.1920201669078559e-01 0.0000000000000000e+00 1
-7.4698342532906623e-02 -4.0228041270709869e-01 0.0000000000000000e+00 1
-5.0105446197071371e-02 -1.9272133623420146e-01 0.0000000000000000e+00 1
-1.6514599142544351e-01 -3.1768796855183556e-01 0.0000000000000000e+00 1
-1.7157206014310999e-01 -3.0990325611020952e-01 0.0000000000000000e+00 1
1.9448300378985928e-02 -1.0242882428619535e-01 0.0000000000000000e+00 1
1.0867407711517327e-02 -8.8481329343626944e-02 0.0000000000000000e+00 1
2.6867707386515081e-02 -8.6627920264562147e-02 0.0000000000000000e+00 1
1.7790595582291346e-02 -7.2879066262827530e-02 0.0000000000000000e+00 1
-8.5880047773727708e-02 -3.4682080622592371e-01 0.0000000000000000e+00 1
-1.8834788183430165e-02 -2.4317108458907072e-01 0.0000000000000000e+00 1
1.2395132409142402e-01 3.8399794660037423e-01 0.0000000000000000e+00 1
-1.6526776950271893e-01 -2.6830708821490767e-01 0.0000000000000000e+00 1
-1.7001104992623151e-01 -2.7914561763071549e-01 0.0000000000000000e+00 1
1.5309365232569630e-01 3.6890888600540006e-01 0.0000000000000000e+00 1
1.5825122752258497e-01 3.6269138731213058e-01 0.0000000000000000e+00 1
1.5595020282184785e-01 3.7643205628899146e-01 0.0000000000000000e+00 1
1.5628003561918222e-01 3.5445514117856308e-01 0.0000000000000000e+00 1
3.6076635482623527e-02 -6.9983332393007136e-02 0.0000000000000000e+00 1
2.5068665893166822e-02 -5.7311855851464977e-02 0.0000000000000000e+00 1
1.6130711017944385e-01 3.7107660546391708e-01 0.0000000000000000e+00 1
1.5087255172600486e-01 3.8266745198019186e-01 0.0000000000000000e+00 1
1.5437298638287272e-01 3.8860952832225332e-01 0.0000000000000000e+00 1
-1.3771310394418679e-01 -2.5305613475844152e-01 0.0000000000000000e+00 1
-4.4301392080152484e-02 -3.3596442285744338e-01 0.0000000000000000e+00 1
-1.3011059117914547e-01 -3.7040774318479536e-01 0.0000000000000000e+00 1
-9.1026055955507737e-02 -4.1057299456453544e-01 0.0000000000000000e+00 1
-1.4036920001940176e-01 -3.9039194886993017e-01 0.0000000000000000e+00 1
-6.1822173196478605e-03 -8.9301479352439164e-02 0.0000000000000000e+00 1
-1.6026114311246772e-01 -2.5722508549759049e-01 0.0000000000000000e+00 1
-1.2525248239647371e-01 -3.6169071452047702e-01 0.0000000000000000e+00 1
-7.0629592966634458e-02 -3.9501852298215578e-01 0.0000000000000000e+00 1
-1.1083554113661484e-01 -4.1803512595740139e-01 0.0000000000000000e+00 1
-1.1863272206055088e-01 -4.1839019461091165e-01 0.0000000000000000e+00 1
-1.0625080306900266e-01 -4.2506681428841570e-01 0.0000000000000000e+00 1
-1.2343224778202935e-01 -4.1236613518170839e-01 0.0000000000000000e+00 1
-1.2618078838480146e-01 -4.1970763606566353e-01 0.0000000000000000e+00 1
-1.3867723219068470e-01 -4.0650027336275141e-01 0.0000000000000000e+00 1
1.0355632822869815e-01 3.6347686182562289e-01 0.0000000000000000e+00 1
9.8766389450517328e-02 3.5260643837173045e-01 0.0000000000000000e+00 1
7.7472037569422782e-03 -5.8700265841716975e-02 0.0000000000000000e+00 1
1.4977709972483280e-02 -4.3270196751032920e-02 0.0000000000000000e+00 1
3.1740775747566410e-02 -4.1524796418212918e-02 0.0000000000000000e+00 1
2.2053477462565519e-02 -2.7677235537708615e-02 0.0000000000000000e+00 1
3.8544089119530792e-02 -2.5693831474715850e-02 0.0000000000000000e+00 1
2.9067583172878747e-02 -1.1945522249395490e-02 0.0000000000000000e+00 1
4.6684455931818643e-02 -1.0361882148921000e-02 0.0000000000000000e+00 1
3.6326839271023467e-02 3.6837662918887014e-03 0.0000000000000000e+00 1
1.8988012274713563e-02 1.8195759028462185e-03 0.0000000000000000e+00 1
5.4076564062690749e-02 -2.5264888127555122e-02 0.0000000000000000e+00 1
-9.9088909955811655e-02 -3.9579564962326486e-01 0.0000000000000000e+00 1
-1.2043394320058287e-01 -4.0464208229580900e-01 0.0000000000000000e+00 1
-8.9752276068829739e-02 -3.5600070650597504e-01 0.0000000000000000e+00 1
-8.2782776102396455e-02 -3.1361373223237576e-01 0.0000000000000000e+00 1
-8.7935861471829177e-02 -3.2478443639158677e-01 0.0000000000000000e+00 1
-5.6510363382439630e-02 -3.5236845951889079e-01 0.0000000000000000e+00 1
5.4220145072565187e-02 5.7087036039779994e-03 0.0000000000000000e+00 1
4.3430523588784756e-02 1.9640803626704371e-02 0.0000000000000000e+00 1
6.0318418477249461e-02 2.3473250042820408e-02 0.0000000000000000e+00 1
4.7862924783605265e-02 3.7227863467157098e-02 0.0000000000000000e+00 1
3.2008695426574994e-02 3.2812695218001772e-02 0.0000000000000000e+00 1
-1.1535098669577910e-01 -4.2542962636119180e-01 0.0000000000000000e+00 1
-1.0500870328645753e-01 -4.3199447931780638e-01 0.0000000000000000e+00 1
1.3881614353835986e-01 2.6958031664544690e-01 0.0000000000000000e+00 1
1.2461434839408667e-01 2.6680256899392252e-01 0.0000000000000000e+00 1
1.2082132510925350e-01 2.5119837606415318e-01 0.0000000000000000e+00 1
1.5772501255544163e-01 3.3187099520893637e-01 0.0000000000000000e+00 1
1.4617036633022559e-01 3.2870630410721458e-01 0.0000000000000000e+00 1
1.5153140762224124e-01 3.4013120045165396e-01 0.0000000000000000e+00 1
1.0512164607480336e-01 3.4353350386276116e-01 0.0000000000000000e+00 1
9.9648280534717776e-02 3.2978213440226523e-01 0.0000000000000000e+00 1
8.6678773149670055e-02 3.2955030298824317e-01 0.0000000000000000e+00 1
8.0645686768751945e-02 3.1803897908269513e-01 0.0000000000000000e+00 1
8.7782377530507272e-02 3.0923644882683859e-01 0.0000000000000000e+00 1
8.2208959217534863e-02 2.9498081208832405e-01 0.0000000000000000e+00 1
1.4288210298515369e-01 2.8311046731928108e-01 0.0000000000000000e+00 1
1.3319535724807099e-01 2.9342972458048744e-01 0.0000000000000000e+00 1
-5.4396633498533534e-02 -2.1009029818352391e-02 0.0000000000000000e+00 1
-6.9502778640051333e-02 -2.0587003266534409e-02 0.0000000000000000e+00 1
-1.1256800788056993e-01 -2.5008746028653156e-01 0.0000000000000000e+00 1
-1.2529611054065309e-01 -2.5136410511650592e-01 0.0000000000000000e+00 1
-1.6289726495427667e-01 -2.8786561751901796e-01 0.0000000000000000e+00 1
-1.5915656388953303e-01 -3.2679731478866514e-01 0.0000000000000000e+00 1
-1.6300329493389970e-01 -3.3659504504641147e-01 0.0000000000000000e+00 1
-1.5722472999311973e-01 -3.4537218053185592e-01 0.0000000000000000e+00 1
-1.6285789310380294e-01 -3.5535731276606453e-01 0.0000000000000000e+00 1
-1.3269861913445063e-01 -3.1517398672357355e-01 0.0000000000000000e+00 1
-1.2509707647649698e-01 -3.2483553383849312e-01 0.0000000000000000e+00 1
-1.2878202041963163e-01 -3.3614389322026689e-01 0.0000000000000000e+00 1
-1.2771173722908455e-01 -3.4610193279265655e-01 0.0000000000000000e+00 1
1.5070316671206824e-01 3.0841998956337446e-01 0.0000000000000000e+00 1
-1.0122552407671642e-01 -1.6340827313617740e-01 0.0000000000000000e+00 1
-1.0986650774292236e-01 -1.5176682566679323e-01 0.0000000000000000e+00 1
-1.1557025518469789e-01 -1.6493009374457096e-01 0.0000000000000000e+00 1
-1.0423355493449889e-01 -1.3844497545910350e-01 0.0000000000000000e+00 1
-1.1857147153682041e-01 -1.4023572254308789e-01 0.0000000000000000e+00 1
-1.1300405273909510e-01 -1.2696506734103977e-01 0.0000000000000000e+00 1
-1.2732320407019523e-01 -1.2777523959701492e-01 0.0000000000000000e+00 1
-1.2182116832811324e-01 -1.1496664423312986e-01 0.0000000000000000e+00 1
-1.0746453013449869e-01 -1.1348839010085694e-01 0.0000000000000000e+00 1
-1.1639714614814325e-01 -1.0132747747344943e-01 0.0000000000000000e+00 1
-1.0178734387274092e-01 -9.9961667058156900e-02 0.0000000000000000e+00 1
-1.1089126884887109e-01 -8.7544854598026550e-02 0.0000000000000000e+00 1
-9.6048756909730665e-02 -8.6410833605722048e-02 0.0000000000000000e+00 1
-1.0511712834078515e-01 -7.4379454023535213e-02 0.0000000000000000e+00 1
-9.0311272354110322e-02 -7.2576252852866452e-02 0.0000000000000000e+00 1
-9.9865883373793013e-02 -6.0102829104517655e-02 0.0000000000000000e+00 1
-8.4589139393438234e-02 -5.8562683396473025e-02 0.0000000000000000e+00 1
-7.4954323060583861e-02 -6.9118056283719059e-02 0.0000000000000000e+00 1
-1.3285081853769698e-01 -1.4088181650395060e-01 0.0000000000000000e+00 1
-9.4111322185747207e-02 -4.6152518536654238e-02 0.0000000000000000e+00 1
-7.9252291167595815e-02 -4.5697359061478628e-02 0.0000000000000000e+00 1
-8.9082847260654019e-02 -3.2958580103512547e-02 0.0000000000000000e+00 1
-8.6904896059424169e-02 -9.8025296204182960e-02 0.0000000000000000e+00 1
-1.3313047364520952e-01 -2.9552305738998208e-01 0.0000000000000000e+00 1
1.2250712082475776e-01 2.1180252325439836e-01 0.0000000000000000e+00 1
1.1199611301315848e-01 2.2236304168790372e-01 0.0000000000000000e+00 1
-8.9520915977734442e-02 -1.3658274998917422e-01 0.0000000000000000e+00 1
-5.1117770836032451e-02 -4.8602388753106303e-02 0.0000000000000000e+00 1
-5.9827198558110695e-02 -3.4173464765721320e-02 0.0000000000000000e+00 1
1.0749750350983751e-01 2.0736815394001398e-01 0.0000000000000000e+00 1
1.0312420095960695e-01 1.9180681814035927e-01 0.0000000000000000e+00 1
-1.2411009775205419e-01 -1.5325520375189267e-01 0.0000000000000000e+00 1
-1.2969044629979251e-01 -1.6647781030328090e-01 0.0000000000000000e+00 1
-1.2136880457079809e-01 -1.7774645508041897e-01 0.0000000000000000e+00 1
-1.3516021657494223e-01 -1.7926312440640277e-01 0.0000000000000000e+00 1
-1.2711967573953897e-01 -1.9014390751140831e-01 0.0000000000000000e+00 1
-1.4041881236992357e-01 -1.9179208228295647e-01 0.0000000000000000e+00 1
-1.4869881066828924e-01 -1.8081550772083999e-01 0.0000000000000000e+00 1
-1.3206409260744140e-01 -2.0254919627954895e-01 0.0000000000000000e+00 1
-1.4530447443962946e-01 -2.0474001084349819e-01 0.0000000000000000e+00 1
-1.2321775441852086e-01 -2.1367679161033015e-01 0.0000000000000000e+00 1
-1.4967385094441063e-01 -2.1799463373236325e-01 0.0000000000000000e+00 1
-1.1294695175076827e-01 -1.8912436028645102e-01 0.0000000000000000e+00 1
-1.0982245292812221e-01 -2.1380130446348719e-01 0.0000000000000000e+00 1
1.1008236690361461e-01 1.6443167594892233e-01 0.0000000000000000e+00 1
9.4315889501826622e-02 1.5880557276526910e-01 0.0000000000000000e+00 1
9.0061813749989936e-02 1.4367845823809750e-01 0.0000000000000000e+00 1
7.8880334820250184e-02 1.5377035105030604e-01 0.0000000000000000e+00 1
9.6013110673284330e-02 1.7508456466547628e-01 0.0000000000000000e+00 1
-8.2977215367278381e-02 -3.3565286021534807e-01 0.0000000000000000e+00 1
-1.3832814542181313e-01 -1.5384765487219698e-01 0.0000000000000000e+00 1
1.2923157434590360e-01 3.7454749354807737e-01 0.0000000000000000e+00 1
-1.5531827063114223e-01 -3.6319295235983295e-01 0.0000000000000000e+00 1
-1.2086702378863701e-01 -2.9476338068576718e-01 0.0000000000000000e+00 1
-1.4342631479424267e-01 -1.6727326016132110e-01 0.0000000000000000e+00 1
-3.4867798217333150e-02 2.3625216904192843e-02 0.0000000000000000e+00 1
-4.3746573742813911e-02 3.6210182786835174e-02 0.0000000000000000e+00 1
-3.7197974043778712e-02 5.1049888053578116e-02 0.0000000000000000e+00 1
-5.1813091070655320e-02 4.8894949276239844e-02 0.0000000000000000e+00 1
-9.8607492395199628e-02 -1.8823407803801942e-01 0.0000000000000000e+00 1
1.8215147196412408e-02 1.4241429456695462e-01 0.0000000000000000e+00 1
2.6488416755031507e-03 1.4090684616713853e-01 0.0000000000000000e+00 1
-3.8897914405277203e-03 1.2627749992962278e-01 0.0000000000000000e+00 1
-1.2922652807932297e-02 1.4045079932264176e-01 0.0000000000000000e+00 1
9.2632854908725401e-03 1.5538711097340208e-01 0.0000000000000000e+00 1
1.6049007478447924e-02 1.6935302949348691e-01 0.0000000000000000e+00 1
3.1619095715884594e-02 1.7109853865986915e-01 0.0000000000000000e+00 1
3.8303437101251288e-02 1.8535464003665375e-01 0.0000000000000000e+00 1
1.2076519707068741e-02 -1.3818169333303241e-02 0.0000000000000000e+00 1
4.7976450236274807e-03 -2.9454122560944821e-02 0.0000000000000000e+00 1
7.9419593597265846e-04 -7.4206491976801514e-02 0.0000000000000000e+00 1
9.7563624325028436e-02 1.1478612659113302e-01 0.0000000000000000e+00 1
8.0954791609047755e-02 1.0957030126056823e-01 0.0000000000000000e+00 1
7.6878368680835377e-02 9.3113625667416572e-02 0.0000000000000000e+00 1
6.4438695799926865e-02 1.0553468996512745e-01 0.0000000000000000e+00 1
5.9854820850003522e-02 8.9738727881955110e-02 0.0000000000000000e+00 1
7.2319933452771268e-02 7.6377940548583212e-02 0.0000000000000000e+00 1
5.5311947083106591e-02 7.2634493607342948e-02 0.0000000000000000e+00 1
8.5612203762984534e-02 1.2656822994319938e-01 0.0000000000000000e+00 1
3.7475540888929876e-02 7.1855817384079645e-02 0.0000000000000000e+00 1
4.8101506731580479e-02 5.7026348877795535e-02 0.0000000000000000e+00 1
6.7644777148867935e-02 5.9504935511334602e-02 0.0000000000000000e+00 1
8.4842440732466343e-02 6.3750790416758199e-02 0.0000000000000000e+00 1
-1.5775044706289811e-03 9.8163876299344727e-02 0.0000000000000000e+00 1
-2.0299819479425558e-02 9.8361301525676237e-02 0.0000000000000000e+00 1
-2.4212431115567874e-02 8.1869534513445016e-02 0.0000000000000000e+00 1
-3.5351698141448902e-02 9.3561583401807757e-02 0.0000000000000000e+00 1
-1.1099103332716621e-02 1.1252157622301562e-01 0.0000000000000000e+00 1
-4.1605258358769708e-02 -2.0510712840934556e-01 0.0000000000000000e+00 1
-2.1598031654771532e-02 5.3186726561095951e-02 0.0000000000000000e+00 1
-3.0097287332616025e-02 6.6440530731849676e-02 0.0000000000000000e+00 1
-1.4681990266311371e-02 6.8332569184522657e-02 0.0000000000000000e+00 1
-1.5796993890219407e-01 -2.0883878043899146e-01 0.0000000000000000e+00 1
-1.6949971888111964e-01 -2.9815811330467795e-01 0.0000000000000000e+00 1
2.9520628447598139e-02 1.9721496526493623e-01 0.0000000000000000e+00 1
3.6203446849301851e-02 2.1057668344376640e-01 0.0000000000000000e+00 1
5.1503176942785556e-02 2.1288123913421556e-01 0.0000000000000000e+00 1
5.1709412764092862e-03 1.1326209951041187e-01 0.0000000000000000e+00 1
-1.2984855265018186e-02 -1.0445371433744741e-01 0.0000000000000000e+00 1
1.9123048654028706e-02 -1.7732810472189886e-01 0.0000000000000000e+00 1
6.1992932776064116e-02 2.8244210326633024e-01 0.0000000000000000e+00 1
6.9363724890950454e-02 2.7309984250354052e-01 0.0000000000000000e+00 1
6.3728704709750048e-02 2.6028988980103951e-01 0.0000000000000000e+00 1
1.2812056304803074e-02 -2.1073730587875519e-01 0.0000000000000000e+00 1
6.8279312740361642e-02 2.9455154026050623e-01 0.0000000000000000e+00 1
-1.9261109307141012e-02 -1.2020205291050609e-01 0.0000000000000000e+00 1
-3.5727798847928004e-02 -1.2259162090855269e-01 0.0000000000000000e+00 1
-3.0873175917464316e-02 -1.5132020469561358e-01 0.0000000000000000e+00 1
-9.5006343589043210e-02 -3.1409315346352656e-01 0.0000000000000000e+00 1
4.2239584560776651e-03 -2.4087799916356137e-01 0.0000000000000000e+00 1
-8.2876020045731941e-03 -2.3088029382193020e-01 0.0000000000000000e+00 1
9.2149253812886939e-02 2.0369863415893877e-01 0.0000000000000000e+00 1
-7.1905798793591588e-02 -2.6977578813990144e-01 0.0000000000000000e+00 1
5.8034998996206302e-02 2.2653949880941576e-01 0.0000000000000000e+00 1
4.9866037228251288e-02 2.3682656447023645e-01 0.0000000000000000e+00 1
-5.7926479629887128e-03 -2.6992649192553797e-01 0.0000000000000000e+00 1
-1.5188342397054430e-02 -2.5801937780932876e-01 0.0000000000000000e+00 1
-5.7974388391656251e-02 -2.6920533599682966e-01 0.0000000000000000e+00 1
-1.5950384313403253e-02 -2.9744202007870801e-01 0.0000000000000000e+00 1
-3.0187675927861542e-02 -2.9995987864500895e-01 0.0000000000000000e+00 1
-3.4081974410030122e-02 -3.1182744725068973e-01 0.0000000000000000e+00 1
-4.1408109354688874e-02 -3.0334748203960965e-01 0.0000000000000000e+00 1
-2.5731327714386319e-02 -3.2243556540945861e-01 0.0000000000000000e+00 1
1.0192659931991677e-01 1.3160818477581626e-01 0.0000000000000000e+00 1
4.6198823954932994e-02 -9.4276982251752947e-02 0.0000000000000000e+00 1
-3.8432009626698481e-02 -1.9481527318445057e-02 0.0000000000000000e+00 1
-9.4923635258760769e-02 -3.3392034643724655e-01 0.0000000000000000e+00 1
1.2026299150276112e-03 -1.1492911367077009e-03 0.0000000000000000e+00 1
-1.0710581964226369e-01 -1.7641081692817787e-01 0.0000000000000000e+00 1
-9.9026285772146339e-02 -4.2369731380748266e-01 0.0000000000000000e+00 1
-3.7922603349642078e-02 -1.6548196034676807e-01 0.0000000000000000e+00 1
-5.1705978675842319e-02 -1.6755007602862051e-01 0.0000000000000000e+00 1
1.1391989147358630e-01 1.8038502532112391e-01 0.0000000000000000e+00 1
4.7650242731831242e-04 1.6808555375638265e-01 0.0000000000000000e+00 1
-5.0647115354735685e-02 -2.7967174819720098e-01 0.0000000000000000e+00 1
4.8961694839807231e-02 2.5885813410060710e-01 0.0000000000000000e+00 1
-3.5490211847500765e-02 -3.4599905782299467e-01 0.0000000000000000e+00 1
8.9200973952522550e-02 8.0895266341035554e-02 0.0000000000000000e+00 1
-1.3140914264377559e-01 -1.0157931309158902e-01 0.0000000000000000e+00 1
1.3100106727331082e-01 2.4143016440679035e-01 0.0000000000000000e+00 1
-6.5428041708851054e-02 1.9971944971463877e-02 0.0000000000000000e+00 1
-2.2931210286749944e-02 -8.9984650251522108e-02 0.0000000000000000e+00 1
6.1432001515918586e-02 -3.9846240331071800e-02 0.0000000000000000e+00 1
-1.1760630125423516e-01 -2.6209576498014725e-01 0.0000000000000000e+00 1
-1.2052928160891069e-01 -7.4798559043347618e-02 0.0000000000000000e+00 1
1.6492192311314299e-01 3.5760202310914846e-01 0.0000000000000000e+00 1
-9.3139084616708605e-03 -5.9921151671970693e-02 0.0000000000000000e+00 1
-1.4190444968162469e-01 -2.6520783962121108e-01 0.0000000000000000e+00 1
-5.3350423417824703e-03 -1.8869995472531298e-01 0.0000000000000000e+00 1
-9.7972881450087604e-02 -2.0340002045044520e-02 0.0000000000000000e+00 1
7.4410325097604743e-02 1.3891645321944213e-01 0.0000000000000000e+00 1
-1.0948511536232515e-01 -4.7520617483806600e-02 0.0000000000000000e+00 1
-1.4172013175565323e-01 -1.2734252304514848e-01 0.0000000000000000e+00 1
-9.8715054785296047e-02 -1.2512494691041251e-01 0.0000000000000000e+00 1
-1.3879434788786926e-01 -3.0582020403766136e-01 0.0000000000000000e+00 1
4.7873736988290956e-02 1.0325667661416008e-01 0.0000000000000000e+00 1
2.5757761782038282e-02 1.6994961041482091e-02 0.0000000000000000e+00 1
1.5942288292191523e-02 -1.4588265483610791e-01 0.0000000000000000e+00 1
-1.5244376900144069e-01 -1.5238065069947679e-01 0.0000000000000000e+00 1
-4.4914279953329042e-02 -3.6748352850586657e-01 0.0000000000000000e+00 1
8.7081435523158918e-02 1.8873523096858874e-01 0.0000000000000000e+00 1
5.3204634640219406e-02 1.1839905111383775e-01 0.0000000000000000e+00 1
7.6639407348630256e-02 2.8529361514157178e-02 0.0000000000000000e+00 1
-5.1440140669563490e-02 -3.2334882876901150e-01 0.0000000000000000e+00 1
-1.7783975425652651e-01 -2.6998194226622013e-01 0.0000000000000000e+00 1
9.3395633300756287e-03 -1.6122772962484871e-01 0.0000000000000000e+00 1
1.3993034335322549e-01 3.0705641465951983e-01 0.0000000000000000e+00 1
-8.0434180670111335e-02 -2.3565753752780472e-01 0.0000000000000000e+00 1
-1.7312996099055797e-01 -2.2539805772805391e-01 0.0000000000000000e+00 1
-9.4472923157658775e-02 -4.0327974689713419e-01 0.0000000000000000e+00 1
-8.3251078750643331e-02 -4.1163440018531533e-01 0.0000000000000000e+00 1
-9.0892115288101233e-02 -2.8193366383595087e-01 0.0000000000000000e+00 1
-7.5417920530325311e-02 -3.8714879894391491e-01 0.0000000000000000e+00 1
2.0929030926234660e-02 4.4509718121676485e-02 0.0000000000000000e+00 1
-5.5579166879640457e-02 -3.8637998002581286e-01 0.0000000000000000e+00 1
-1.7775789972808764e-01 -2.5008206168514652e-01 0.0000000000000000e+00 1
-5.3442524305116028e-02 -2.3323141296624211e-01 0.0000000000000000e+00 1
-1.6969240734785834e-01 -3.2811721910353830e-01 0.0000000000000000e+00 1
7.2014383392110951e-03 1.3925761309305949e-02 0.0000000000000000e+00 1
-1.8021288580059339e-01 -2.8229109576477718e-01 0.0000000000000000e+00 1
-1.6153678311212305e-01 -2.2178538867257941e-01 0.0000000000000000e+00 1
-1.1799552384674214e-01 -3.8109659366290849e-01 0.0000000000000000e+00 1
7.8614448941226080e-03 1.8179064769050385e-01 0.0000000000000000e+00 1
-1.6232527611284270e-01 -1.7644824458315511e-01 0.0000000000000000e+00 1
-6.5163030103282338e-02 -4.0187615810638888e-01 0.0000000000000000e+00 1
-1.8036469701839652e-01 -3.0385821813363290e-01 0.0000000000000000e+00 1
-9.4722160576671419e-02 -3.7128875458663713e-01 0.0000000000000000e+00 1
-9.2609192293405002e-02 -1.1143166582544096e-01 0.0000000000000000e+00 1
1.4837224150309586e-01 4.0404837576391933e-01 0.0000000000000000e+00 1
-7.4658716571134154e-02 -2.2307880978290689e-01 0.0000000000000000e+00 1
-8.5067587759756563e-02 -2.7049190163001197e-01 0.0000000000000000e+00 1
-2.5398050634156000e-03 -2.1451969484073152e-01 0.0000000000000000e+00 1
1.3677818149876445e-01 3.4905964247793558e-01 0.0000000000000000e+00 1
-1.5407421609793043e-01 -3.9552228606422224e-01 0.0000000000000000e+00 1
-1.7377355123250193e-01 -3.5279931488852195e-01 0.0000000000000000e+00 1
-1.7833617392314993e-01 -3.3395311626438329e-01 0.0000000000000000e+00 1
3.2304116724718196e-02 -1.4433820674572329e-01 0.0000000000000000e+00 1
1.0210291114211674e-01 2.3309067836814862e-01 0.0000000000000000e+00 1
-6.5745002994757495e-02 -3.8684646113019794e-01 0.0000000000000000e+00 1
-7.7187343995125793e-02 -1.0902543187240497e-01 0.0000000000000000e+00 1
-1.7101462593479907e-01 -3.6191155086835908e-01 0.0000000000000000e+00 1
-1.6366937246026922e-01 -3.7920838726080103e-01 0.0000000000000000e+00 1
6.9570826240512570e-02 1.2215300076336214e-01 0.0000000000000000e+00 1
-2.0208499774199598e-02 1.2696893710303181e-01 0.0000000000000000e+00 1
-1.8062636416956915e-01 -3.1413458407218953e-01 0.0000000000000000e+00 1
-7.0522294268272973e-02 -4.0903117142107370e-01 0.0000000000000000e+00 1
-2.4907367453121051e-02 -2.8749162478288792e-01 0.0000000000000000e+00 1
5.0568247517115174e-02 -7.7824263603752913e-02 0.0000000000000000e+00 1
1.3795102009563789e-01 4.1517014022640714e-01 0.0000000000000000e+00 1
1.0978294810472218e-01 3.5443279099715658e-01 0.0000000000000000e+00 1
-6.1239607045861982e-02 -2.2082672914493090e-01 0.0000000000000000e+00 1
-1.3077398065899895e-01 -4.1368155222973019e-01 0.0000000000000000e+00 1
-1.1827242179718096e-01 -2.0173066517071847e-01 0.0000000000000000e+00 1
-8.0442223726925374e-02 -8.3431102914492905e-02 0.0000000000000000e+00 1
-1.4950626327445043e-01 -3.8797243086064837e-01 0.0000000000000000e+00 1
-9.2475926613967002e-02 -4.2343579949211874e-01 0.0000000000000000e+00 1
1.3484987155514155e-01 3.9622011671944335e-01 0.0000000000000000e+00 1
1.3815095240705291e-01 4.0254884127375867e-01 0.0000000000000000e+00 1
1.3064919226003713e-01 3.8952924158976365e-01 0.0000000000000000e+00 1
-3.8888515100141456e-02 -3.2335097405463259e-01 0.0000000000000000e+00 1
-6.0457021043874820e-02 -3.7815407199092121e-01 0.0000000000000000e+00 1
-6.4168668539342610e-02 -7.9766901193597958e-02 0.0000000000000000e+00 1
7.1822777684038913e-02 1.0453082035625271e-02 0.0000000000000000e+00 1
2.2984300559010552e-02 1.8334408900279453e-01 0.0000000000000000e+00 1
-1.6678359739127013e-01 -2.0042672875193127e-01 0.0000000000000000e+00 1
-1.3275095172685436e-01 -4.2212643445505660e-01 0.0000000000000000e+00 1
-1.3541190553705221e-01 -3.8312983565037273e-01 0.0000000000000000e+00 1
-1.5269355861042624e-01 -1.9382852464870018e-01 0.0000000000000000e+00 1
-1.4935988281694917e-01 -2.5479067446651871e-01 0.0000000000000000e+00 1
1.4492643347706483e-01 4.0818935221986002e-01 0.0000000000000000e+00 1
-8.0950667439443430e-02 -4.1942583607747658e-01 0.0000000000000000e+00 1
-7.1668380694647135e-02 -5.6719771252497136e-02 0.0000000000000000e+00 1
-8.3786966000761812e-02 -2.0118949454379347e-02 0.0000000000000000e+00 1
1.3582289856120933e-01 4.0889563411313185e-01 0.0000000000000000e+00 1
1.3195347961469739e-01 4.1396979627618158e-01 0.0000000000000000e+00 1
-5.5184158216026194e-02 -3.6829713453174612e-01 0.0000000000000000e+00 1
1.7044995636159360e-01 3.6268604211105521e-01 0.0000000000000000e+00 1
1.6580707345496651e-01 3.6554389678929144e-01 0.0000000000000000e+00 1
-6.4935432303542595e-02 -2.8032372298239594e-01 0.0000000000000000e+00 1
1.1658055962068686e-01 2.3695005253522997e-01 0.0000000000000000e+00 1
1.6375647629678303e-01 3.8109670872415019e-01 0.0000000000000000e+00 1
-1.6745088459533744e-01 -3.4513946136282725e-01 0.0000000000000000e+00 1
-1.6459477961533850e-01 -2.3495645939541521e-01 0.0000000000000000e+00 1
6.5155491898319304e-02 4.1624343543885521e-02 0.0000000000000000e+00 1
-1.5386464618791607e-01 -3.7966958737300194e-01 0.0000000000000000e+00 1
-1.3153210138504379e-01 -3.5360718240425471e-01 0.0000000000000000e+00 1
-4.7177490105446002e-02 -1.3189348707704177e-01 0.0000000000000000e+00 1
2.1086495590246349e-02 2.0827538601276047e-01 0.0000000000000000e+00 1
-5.5592918708191948e-02 -2.0732367634716276e-01 0.0000000000000000e+00 1
-1.2720184628482548e-01 -4.2622142327704049e-01 0.0000000000000000e+00 1
-3.8738279453762181e-02 7.8458382474147326e-02 0.0000000000000000e+00 1
-8.6217509692687794e-02 7.1311474996211509e-03 0.0000000000000000e+00 1
-5.8041776294469341e-02 -1.8181253439041817e-01 0.0000000000000000e+00 1
-5.8068509313077665e-02 6.1999620722264420e-02 0.0000000000000000e+00 1
-8.8199930629483406e-02 -4.1777134098251734e-01 0.0000000000000000e+00 1
3.7820211180663421e-02 -1.2845488391642540e-01 0.0000000000000000e+00 1
-4.6803117811954294e-02 -3.1248287993311152e-01 0.0000000000000000e+00 1
1.6931147037451766e-01 3.5303262691898984e-01 0.0000000000000000e+00 1
-7.9465204942390025e-02 2.0250231233100709e-02 0.0000000000000000e+00 1
-1.5899010500124530e-01 -3.7131010546749149e-01 0.0000000000000000e+00 1
1.1128081941951358e-01 2.6039003406145900e-01 0.0000000000000000e+00 1
2.6923492696100948e-03 -2.0001955192464524e-01 0.0000000000000000e+00 1
-5.8109476295190560e-02 3.3980487937548584e-02 0.0000000000000000e+00 1
6.3953170325679931e-02 1.4881669573373979e-01 0.0000000000000000e+00 1
2.8841767204009834e-02 2.2167230582971389e-01 0.0000000000000000e+00 1
-1.9070330179595342e-02 -2.7355661716615631e-01 0.0000000000000000e+00 1
-4.2128307131089802e-02 -2.9167988115779586e-01 0.0000000000000000e+00 1
1.3139553973380677e-01 4.0289770754282284e-01 0.0000000000000000e+00 1
1.3421824263104778e-01 4.1824984776176516e-01 0.0000000000000000e+00 1
-1.1689175017880482e-01 -4.3230720558511365e-01 0.0000000000000000e+00 1
1.5562650626106733e-01 3.9476163094472394e-01 0.0000000000000000e+00 1
1.2895738067333321e-01 4.2191705651646905e-01 0.0000000000000000e+00 1
1.2621807115449446e-01 4.1966016880287554e-01 0.0000000000000000e+00 1
-5.2617409568846980e-02 -3.0214358074662534e-01 0.0000000000000000e+00 1
3.5224063162982384e-02 4.6052611861587975e-02 0.0000000000000000e+00 1
-1.6713474462362340e-01 -2.4837021807347709e-01 0.0000000000000000e+00 1
-6.6017037118772978e-02 4.6582656367022787e-02 0.0000000000000000e+00 1
3.8218846959717070e-02 -5.3149615674546694e-02 0.0000000000000000e+00 1
-1.7272079353150635e-01 -2.8765844895576276e-01 0.0000000000000000e+00 1
-1.2209174883789614e-01 -3.7170096795449514e-01 0.0000000000000000e+00 1
-7.7873667472957556e-02 -6.8702860139987984e-03 0.0000000000000000e+00 1
4.3260681284111049e-02 2.2387259066008847e-01 0.0000000000000000e+00 1
1.1137563308427603e-01 3.3456635934390766e-01 0.0000000000000000e+00 1
-4.4610378708399380e-02 6.3862310697603536e-02 0.0000000000000000e+00 1
-1.4454251958226080e-01 -4.1137096066184919e-01 0.0000000000000000e+00 1
1.6825943142080263e-01 3.7105245310807217e-01 0.0000000000000000e+00 1
2.7799372342910092e-02 -1.1638155563477348e-01 0.0000000000000000e+00 1
-6.1684552624564265e-02 -3.6094676329686548e-01 0.0000000000000000e+00 1
-6.3430102338906252e-02 -1.9572470197166603e-01 0.0000000000000000e+00 1
-9.0338211745057906e-02 -3.6418069687375865e-01 0.0000000000000000e+00 1
-7.2924420812425339e-02 -3.6173599898163045e-01 0.0000000000000000e+00 1
4.2370010171616637e-02 2.4698662409571365e-01 0.0000000000000000e+00 1
1.1384862940131019e-01 2.7229110797720163e-01 0.0000000000000000e+00 1
1.4963567202888114e-01 3.9461949150710174e-01 0.0000000000000000e+00 1
-9.0233303017379529e-02 -4.2869873630855992e-01 0.0000000000000000e+00 1
7.2541997486098020e-02 2.5196691728209958e-01 0.0000000000000000e+00 1
-8.2229035755108190e-02 -3.6287199714794960e-01 0.0000000000000000e+00 1
-1.4669651499155226e-01 -3.9546318621029619e-01 0.0000000000000000e+00 1
1.0821915288630748e-01 3.2426259787311162e-01 0.0000000000000000e+00 1
-1.1725168892070839e-01 -3.6445092085946884e-01 0.0000000000000000e+00 1
1.5918090411024993e-01 3.9107214094880588e-01 0.0000000000000000e+00 1
6.9870097983339624e-02 1.6337411162568313e-01 0.0000000000000000e+00 1
1.4206798003257101e-01 3.3958975981255363e-01 0.0000000000000000e+00 1
1.6116896415050613e-01 3.7694206521166551e-01 0.0000000000000000e+00 1
-6.4903317844781594e-02 -1.7029011064982827e-01 0.0000000000000000e+00 1
1.5747694289561640e-01 3.8198894530908889e-01 0.0000000000000000e+00 1
5.6553155921069534e-02 2.4912948599245124e-01 0.0000000000000000e+00 1
7.8248104362367246e-02 2.6459579273536571e-01 0.0000000000000000e+00 1
1.6294869410745455e-01 3.4967820370358360e-01 0.0000000000000000e+00 1
1.3205518123701190e-01 2.7871633442984578e-01 0.0000000000000000e+00 1
-1.2192256395637899e-01 -4.2353246742338413e-01 0.0000000000000000e+00 1
1.4349462667713017e-01 4.0292050095690840e-01 0.0000000000000000e+00 1
-7.4095580982179790e-02 -3.3504970283101267e-02 0.0000000000000000e+00 1
7.2929355764126555e-02 2.8477851019726252e-01 0.0000000000000000e+00 1
7.2540420973530306e-03 -1.8673478909288538e-01 0.0000000000000000e+00 1
4.6145115917989879e-02 -4.0691227267544774e-02 0.0000000000000000e+00 1
-1.7041016161402725e-01 -2.5913615278590602e-01 0.0000000000000000e+00 1
9.1946779951773791e-02 2.8949506695385685e-01 0.0000000000000000e+00 1
-4.9100532535970444e-02 -3.5908557811928810e-01 0.0000000000000000e+00 1
-2.6716818202192461e-02 -2.5296353087082291e-01 0.0000000000000000e+00 1
-5.8698295200884133e-02 -1.5718291680484386e-01 0.0000000000000000e+00 1
9.1049409024887146e-02 3.2026350064451814e-01 0.0000000000000000e+00 1
9.6524189956092799e-02 3.0135127116520677e-01 0.0000000000000000e+00 1
-4.6978097687899914e-02 8.8047944808744005e-02 0.0000000000000000e+00 1
1.4720804349976591e-01 3.9950692528093523e-01 0.0000000000000000e+00 1
-1.6343245481234517e-01 -3.6397953589866749e-01 0.0000000000000000e+00 1
1.2321682411658440e-01 2.9693986339122297e-01 0.0000000000000000e+00 1
1.4054267148969357e-01 4.0703953458488729e-01 0.0000000000000000e+00 1
1.3711927527808510e-01 3.3081999366216946e-01 0.0000000000000000e+00 1
1.4543771753885809e-01 3.1689361658502624e-01 0.0000000000000000e+00 1
-1.0031539946688811e-01 -4.3290196307736911e-01 0.0000000000000000e+00 1
1.2869053876313577e-01 3.0776393542056846e-01 0.0000000000000000e+00 1
3.3479395783541227e-02 -9.8993826669113133e-02 0.0000000000000000e+00 1
-1.2370634201293551e-01 -3.5219816246891067e-01 0.0000000000000000e+00 1
-1.7373881977815414e-01 -3.1807369448882977e-01 0.0000000000000000e+00 1
-4.5702905121229181e-02 -3.4891344054941853e-01 0.0000000000000000e+00 1
1.5559948355723077e-01 3.4708599242459431e-01 0.0000000000000000e+00 1
-3.5894897647568404e-02 1.0530617064887959e-01 0.0000000000000000e+00 1
1.2952232552394685e-01 4.1781667245483822e-01 0.0000000000000000e+00 1
-9.6384006444812681e-02 -3.5072097921321699e-01 0.0000000000000000e+00 1
8.3427928100723914e-02 1.6546929676999611e-01 0.0000000000000000e+00 1
-4.4553525208653917e-02 -1.5417141465165884e-01 0.0000000000000000e+00 1
1.2345397510082644e-01 4.2068453309554849e-01 0.0000000000000000e+00 1
-1.7109962192551445e-01 -3.3738726707214722e-01 0.0000000000000000e+00 1
-6.4122355509540652e-02 -4.7316056250671049e-02 0.0000000000000000e+00 1
-7.7735320027439547e-02 -4.0857976496066839e-01 0.0000000000000000e+00 1
-1.4161378680958325e-01 -3.9969357815634932e-01 0.0000000000000000e+00 1
-1.0095286206953896e-01 -4.2868991724443994e-01 0.0000000000000000e+00 1
-1.1934545760583407e-01 -3.4333404700746017e-01 0.0000000000000000e+00 1
-3.7463384586348611e-02 -1.3980165545408457e-01 0.0000000000000000e+00 1
3.9493690302023356e-02 -8.2925755779351185e-02 0.0000000000000000e+00 1
-1.3493369655863269e-01 -3.7614824353134535e-01 0.0000000000000000e+00 1
-9.2260690283952840e-02 -3.4176919269184908e-01 0.0000000000000000e+00 1
1.2103286626826389e-01 3.9871266044594916e-01 0.0000000000000000e+00 1
6.8643013727874791e-02 -2.5890457790814232e-02 0.0000000000000000e+00 1
-6.8462201117558529e-03 -2.4566549620438172e-01 0.0000000000000000e+00 1
1.2442411351382467e-01 3.9161563419288092e-01 0.0000000000000000e+00 1

Edges
160
1 2 1
2 3 1
3 4 1
4 5 1
5 6 1
6 7 1
7 8 1
8 9 1
9 10 1
10 11 1
11 12 1
12 13 1
13 14 1
14 15 1
15 16 1
16 17 1
17 18 1
18 19 1
19 20 1
20 21 1
21 22 1
22 23 1
23 24 1
24 25 1
25 26 1
26 27 1
27 28 1
28 29 1
29 30 1
30 31 1
31 32 1
32 33 1
33 34 1
34 35 1
35 36 1
36 37 1
37 38 1
38 39 1
39 40 1
40 41 1
41 42 1
42 43 1
43 44 1
44 45 1
45 46 1
46 47 1
47 48 1
48 49 1
49 50 1
50 51 1
51 52 1
52 53 1
53 54 1
54 55 1
55 56 1
56 57 1
57 58 1
58 59 1
59 60 1
60 61 1
61 62 1
62 63 1
63 64 1
64 65 1
65 66 1
66 67 1
67 68 1
68 69 1
69 70 1
70 71 1
71 72 1
72 73 1
73 74 1
74 75 1
75 76 1
76 77 1
77 78 1
78 79 1
79 80 1
80 81 1
81 82 1
82 83 1
83 84 1
84 85 1
85 86 1
86 87 1
87 88 1
88 89 1
89 90 1
90 91 1
91 92 1
92 93 1
93 94 1
94 95 1
95 96 1
96 97 1
97 98 1
98 99 1
99 100 1
100 101 1
101 102 1
102 103 1
103 104 1
104 105 1
105 106 1
106 107 1
107 108 1
108 109 1
109 110 1
110 111 1
111 112 1
112 113 1
113 114 1
114 115 1
115 116 1
116 117 1
117 118 1
118 119 1
119 120 1
120 121 1
121 122 1
122 123 1
123 124 1
124 125 1
125 126 1
126 127 1
127 128 1
128 129 1
129 130 1
130 131 1
131 132 1
132 133 1
133 134 1
134 135 1
135 136 1
136 137 1
137 138 1
138 139 1
139 140 1
140 141 1
141 142 1
142 143 1
143 144 1
144 145 1
145 146 1
146 147 1
147 148 1
148 149 1
149 150 1
150 151 1
151 152 1
152 153 1
153 154 1
154 155 1
155 156 1
156 157 1
157 158 1
158 159 1
159 160 1
160 1 1

Triangles
1764
691 182 944 1
661 657 765 1
166 661 765 1
682 380 684 1
224 550 577 1
455 527 658 1
282 284 686 1
417 511 835 1
550 224 578 1
182 691 694 1
364 308 713 1
347 344 603 1
70 71 222 1
87 217 878 1
508 706 772 1
416 645 646 1
162 771 923 1
771 528 923 1
457 458 604 1
266 268 767 1
625 212 657 1
700 185 792 1
873 396 880 1
657 212 765 1
687 575 850 1
416 646 648 1
511 545 835 1
89 90 217 1
743 540 942 1
712 364 713 1
388 365 647 1
169 613 614 1
684 380 686 1
542 493 776 1
183 538 912 1
165 540 743 1
527 230 658 1
493 443 776 1
849 215 882 1
831 699 834 1
644 166 790 1
538 183 907 1
308 310 713 1
166 644 661 1
211 616 618 1
68 69 864 1
91 92 225 1
613 169 759 1
495 813 872 1
706 175 772 1
509 537 538 1
8 9 578 1
553 219 818 1
718 266 767 1
511 849 882 1
577 180 876 1
540 515 942 1
221 536 892 1
693 691 944 1
115 116 810 1
650 362 819 1
688 687 850 1
644 214 834 1
347 603 604 1
214 831 834 1
536 844 892 1
494 495 872 1
726 813 873 1
705 364 712 1
214 644 790 1
380 682 762 1
509 242 537 1
741 724 845 1
529 528 771 1
458 461 604 1
520 700 792 1
380 282 686 1
616 211 745 1
284 390 686 1
683 688 689 1
344 343 603 1
416 388 647 1
555 585 816 1
527 455 825 1
184 562 565 1
212 625 759 1
224 8 578 1
173 620 622 1
585 243 816 1
705 544 748 1
228 226 874 1
364 705 748 1
546 541 886 1
603 457 604 1
586 431 905 1
169 614 745 1
484 539 754 1
180 577 917 1
647 650 819 1
181 534 814 1
514 553 818 1
226 227 874 1
431 586 928 1
539 484 596 1
546 886 906 1
343 602 603 1
132 133 745 1
343 486 602 1
647 365 650 1
229 230 527 1
396 741 845 1
686 390 687 1
486 630 761 1
534 181 884 1
817 516 855 1
741 396 873 1
130 131 751 1
884 181 922 1
752 843 844 1
682 681 762 1
670 115 810 1
601 801 807 1
173 622 758 1
575 687 881 1
470 415 648 1
268 421 767 1
622 626 758 1
697 857 890 1
209 229 527 1
530 240 531 1
857 179 890 1
98 200 555 1
181 749 922 1
824 840 874 1
185 700 885 1
645 416 647 1
428 580 916 1
211 618 751 1
421 655 767 1
871 702 888 1
813 495 873 1
685 757 809 1
192 871 888 1
209 94 229 1
370 544 677 1
728 873 880 1
752 222 843 1
134 135 759 1
415 416 648 1
625 613 759 1
264 266 718 1
820 378 828 1
860 121 883 1
538 537 912 1
544 370 748 1
224 577 876 1
688 188 689 1
187 114 670 1
443 566 776 1
238 240 530 1
624 820 828 1
620 173 751 1
114 115 670 1
576 377 763 1
580 428 899 1
345 570 715 1
512 583 935 1
562 184 572 1
518 859 895 1
602 486 761 1
804 632 846 1
514 551 567 1
411 514 567 1
351 817 855 1
655 421 947 1
493 542 777 1
656 570 733 1
530 531 536 1
316 911 927 1
683 684 688 1
757 402 809 1
583 512 936 1
677 556 753 1
626 210 758 1
649 362 666 1
429 526 717 1
71 72 843 1
555 200 585 1
453 429 717 1
708 709 914 1
859 321 895 1
687 390 881 1
540 165 826 1
570 569 715 1
919 627 951 1
242 241 537 1
539 417 835 1
362 649 819 1
706 508 921 1
668 187 670 1
241 530 532 1
225 226 228 1
709 902 914 1
370 677 753 1
656 733 959 1
911 738 927 1
632 456 636 1
210 626 628 1
614 616 745 1
187 668 671 1
239 238 241 1
592 773 938 1
133 169 745 1
635 919 951 1
488 804 846 1
175 764 772 1
837 777 861 1
589 590 929 1
840 228 874 1
456 264 718 1
805 781 827 1
377 576 780 1
225 228 841 1
637 655 739 1
596 484 750 1
381 556 557 1
131 211 751 1
574 769 850 1
649 666 735 1
692 697 698 1
239 455 658 1
116 182 810 1
492 242 509 1
443 371 566 1
236 239 658 1
211 132 745 1
182 694 810 1
236 237 238 1
510 900 931 1
590 924 929 1
118 693 944 1
894 842 925 1
575 574 850 1
46 769 829 1
236 238 239 1
933 592 938 1
556 381 753 1
383 411 567 1
653 685 730 1
379 624 828 1
665 860 883 1
844 171 892 1
173 130 751 1
532 530 536 1
492 509 510 1
241 238 530 1
135 212 759 1
510 509 900 1
595 596 750 1
770 826 863 1
693 118 930 1
241 532 537 1
699 646 834 1
229 193 230 1
564 763 785 1
764 175 803 1
97 98 555 1
341 338 660 1
378 629 806 1
669 694 704 1
543 490 821 1
801 601 848 1
675 297 676 1
569 361 715 1
536 221 910 1
593 594 635 1
630 486 660 1
238 237 240 1
239 241 242 1
554 97 555 1
648 699 787 1
699 163 787 1
570 345 733 1
590 442 924 1
95 193 229 1
381 557 676 1
436 433 656 1
94 95 229 1
666 319 735 1
763 377 785 1
568 525 946 1
216 781 805 1
169 134 759 1
442 590 920 1
382 593 635 1
210 628 756 1
685 678 730 1
655 651 739 1
96 97 554 1
225 841 945 1
309 378 806 1
215 782 882 1
353 546 906 1
297 298 676 1
93 94 209 1
63 201 591 1
548 408 549 1
525 436 656 1
99 100 587 1
618 620 751 1
219 553 891 1
762 681 768 1
490 543 833 1
467 548 550 1
624 379 838 1
357 948 956 1
648 646 699 1
298 381 676 1
232 234 236 1
404 408 548 1
789 672 830 1
547 517 791 1
424 404 467 1
728 726 873 1
62 63 591 1
742 898 913 1
65 197 606 1
604 461 605 1
386 385 404 1
92 93 226 1
675 564 734 1
497 662 663 1
297 675 734 1
697 692 857 1
723 494 872 1
170 777 837 1
769 574 829 1
313 374 633 1
64 65 606 1
486 341 660 1
719 352 797 1
369 386 566 1
369 383 385 1
694 690 704 1
435 437 571 1
447 902 913 1
694 669 810 1
338 337 660 1
392 361 569 1
631 632 636 1
593 382 732 1
184 565 961 1
389 539 596 1
367 368 369 1
333 330 595 1
385 383 567 1
948 714 956 1
579 62 591 1
791 517 812 1
946 525 959 1
583 584 909 1
95 96 193 1
467 404 548 1
910 847 912 1
548 549 577 1
101 196 588 1
633 374 760 1
61 62 579 1
573 576 763 1
223 837 861 1
546 353 940 1
591 201 592 1
592 428 916 1
463 460 600 1
858 505 865 1
369 385 386 1
459 598 599 1
504 894 897 1
216 547 791 1
463 600 601 1
550 548 577 1
594 485 887 1
58 205 631 1
444 443 493 1
470 648 787 1
685 653 757 1
506 467 736 1
269 450 674 1
571 925 942 1
427 529 597 1
587 100 588 1
366 360 367 1
459 441 598 1
551 514 818 1
683 689 744 1
227 226 960 1
371 367 566 1
404 385 408 1
505 747 865 1
822 223 861 1
496 719 797 1
673 271 674 1
678 52 730 1
433 432 656 1
356 359 360 1
588 196 589 1
437 436 468 1
655 637 767 1
355 354 356 1
386 404 424 1
24 25 729 1
631 205 632 1
165 24 729 1
541 483 886 1
689 49 744 1
435 436 437 1
690 281 704 1
581 488 846 1
387 389 596 1
413 371 443 1
583 582 584 1
208 726 727 1
456 632 804 1
609 638 639 1
367 369 566 1
424 467 506 1
516 430 695 1
379 303 634 1
333 595 750 1
668 667 671 1
571 894 925 1
208 26 725 1
545 511 882 1
435 433 436 1
940 353 955 1
734 564 785 1
430 454 695 1
422 692 698 1
236 234 237 1
57 58 631 1
697 696 698 1
453 717 798 1
350 353 354 1
497 423 662 1
367 360 368 1
376 410 630 1
483 541 958 1
407 432 433 1
207 30 716 1
609 608 638 1
520 438 700 1
423 293 662 1
407 395 432 1
902 709 913 1
512 773 936 1
187 671 740 1
167 28 722 1
208 725 726 1
232 236 658 1
489 464 659 1
674 450 701 1
460 459 600 1
285 422 698 1
826 727 863 1
847 183 912 1
271 269 674 1
552 818 832 1
582 202 584 1
213 22 743 1
667 449 671 1
713 310 853 1
172 32 710 1
340 341 342 1
636 456 718 1
411 513 514 1
369 368 383 1
189 789 830 1
273 271 673 1
206 34 706 1
320 319 666 1
356 360 366 1
432 569 570 1
330 329 595 1
468 525 568 1
438 425 700 1
342 341 343 1
336 335 337 1
651 55 739 1
275 449 667 1
515 571 942 1
340 338 341 1
336 337 338 1
525 656 959 1
160 1 174 1
199 61 579 1
315 313 633 1
54 55 651 1
544 522 677 1
702 450 703 1
334 333 335 1
639 657 661 1
466 489 490 1
459 599 600 1
531 752 844 1
770 540 826 1
463 601 659 1
664 405 696 1
26 27 725 1
349 348 350 1
22 23 743 1
334 335 336 1
100 101 588 1
410 409 425 1
395 392 569 1
595 387 596 1
491 712 713 1
2 3 219 1
455 242 492 1
441 439 598 1
382 299 732 1
823 510 824 1
332 330 333 1
28 29 722 1
607 375 608 1
356 354 359 1
515 435 571 1
464 463 659 1
328 327 329 1
426 425 438 1
366 367 371 1
342 343 344 1
325 362 650 1
444 493 517 1
398 719 724 1
491 480 712 1
332 333 334 1
350 348 353 1
346 347 348 1
410 425 426 1
754 539 835 1
363 376 630 1
664 696 697 1
720 447 721 1
326 325 327 1
346 344 347 1
67 202 582 1
671 672 740 1
230 232 658 1
439 438 519 1
263 447 720 1
434 433 435 1
727 726 728 1
30 31 716 1
376 409 410 1
329 365 387 1
572 184 829 1
337 358 363 1
350 354 355 1
20 21 766 1
387 388 389 1
652 651 655 1
324 323 325 1
175 36 803 1
465 464 466 1
198 57 631 1
607 608 609 1
201 64 606 1
439 519 598 1
197 582 583 1
413 443 444 1
561 564 675 1
426 438 439 1
405 289 696 1
389 415 417 1
642 641 643 1
303 301 634 1
645 643 646 1
363 373 376 1
640 639 641 1
329 387 595 1
328 329 330 1
487 474 737 1
317 375 607 1
417 470 511 1
487 737 738 1
458 441 459 1
67 68 202 1
32 33 710 1
195 54 651 1
376 403 409 1
466 464 489 1
389 417 539 1
326 327 328 1
432 570 656 1
458 459 460 1
451 724 741 1
462 460 463 1
671 449 672 1
473 487 518 1
679 678 685 1
51 52 678 1
898 721 913 1
25 26 208 1
462 463 464 1
461 460 462 1
639 638 657 1
318 317 319 1
322 320 323 1
465 466 541 1
701 450 702 1
66 67 582 1
638 625 657 1
197 66 582 1
168 20 766 1
345 344 346 1
21 22 213 1
324 325 326 1
406 395 407 1
724 719 845 1
339 338 340 1
609 639 640 1
316 315 317 1
609 640 735 1
454 473 695 1
29 30 207 1
34 35 706 1
191 678 679 1
226 93 960 1
292 294 734 1
195 651 652 1
191 51 678 1
58 59 205 1
547 216 805 1
314 313 315 1
640 649 735 1
63 64 201 1
500 544 705 1
23 24 165 1
642 643 645 1
524 556 677 1
27 28 167 1
611 613 625 1
427 528 529 1
432 395 569 1
322 323 324 1
701 189 830 1
445 667 668 1
200 99 587 1
502 504 897 1
640 641 642 1
634 382 635 1
409 427 597 1
630 410 761 1
230 193 231 1
60 61 199 1
312 311 313 1
448 423 452 1
33 34 206 1
522 524 677 1
422 690 691 1
581 580 867 1
448 593 732 1
301 382 634 1
65 66 197 1
33 206 710 1
557 559 676 1
485 452 505 1
31 32 172 1
662 405 663 1
319 317 607 1
293 291 662 1
310 309 311 1
305 303 379 1
450 267 703 1
198 631 636 1
277 275 667 1
317 315 375 1
309 307 378 1
457 441 458 1
313 311 374 1
318 319 320 1
188 48 689 1
325 323 362 1
445 277 667 1
559 675 676 1
643 641 644 1
598 519 784 1
301 299 382 1
663 664 665 1
573 575 576 1
608 611 638 1
692 691 693 1
387 365 388 1
199 579 580 1
478 491 714 1
329 327 365 1
440 439 441 1
205 59 746 1
35 175 706 1
283 281 690 1
308 307 309 1
295 448 732 1
295 293 423 1
56 57 198 1
337 363 660 1
389 388 415 1
691 690 694 1
291 289 405 1
448 452 485 1
295 423 448 1
669 668 670 1
316 317 318 1
198 637 739 1
680 679 681 1
480 482 712 1
629 794 806 1
473 518 695 1
48 49 689 1
287 285 698 1
306 305 307 1
561 563 564 1
482 705 712 1
417 415 470 1
289 287 696 1
17 18 216 1
684 686 687 1
35 36 175 1
230 231 232 1
422 283 690 1
19 20 168 1
559 561 675 1
294 297 734 1
53 54 195 1
468 436 525 1
337 335 358 1
285 283 422 1
583 909 935 1
31 172 716 1
56 198 739 1
314 315 316 1
425 597 700 1
716 172 717 1
208 727 729 1
29 207 722 1
331 330 332 1
291 405 662 1
425 409 597 1
363 358 373 1
304 303 305 1
736 190 822 1
265 263 720 1
462 464 465 1
611 625 638 1
50 51 191 1
445 669 704 1
519 438 520 1
103 707 711 1
449 273 673 1
38 39 177 1
394 392 395 1
376 373 403 1
409 403 427 1
494 451 495 1
279 277 445 1
312 313 314 1
696 287 698 1
653 652 654 1
524 535 556 1
302 301 303 1
319 607 735 1
514 513 553 1
663 405 664 1
275 273 449 1
60 199 746 1
703 265 720 1
98 99 200 1
47 48 188 1
400 398 724 1
467 550 736 1
529 771 786 1
25 208 729 1
722 207 723 1
346 348 349 1
102 103 711 1
365 327 650 1
500 522 544 1
41 42 181 1
422 691 692 1
310 311 312 1
300 299 301 1
327 325 650 1
516 695 855 1
629 378 820 1
818 219 832 1
420 516 783 1
343 341 486 1
503 414 779 1
482 500 705 1
593 485 594 1
452 423 497 1
474 476 737 1
199 581 746 1
44 45 184 1
308 309 310 1
679 685 809 1
608 610 611 1
269 267 450 1
451 400 724 1
574 572 829 1
445 668 669 1
473 474 487 1
428 592 933 1
360 359 788 1
306 307 308 1
267 265 703 1
611 612 613 1
458 460 461 1
298 296 299 1
478 480 491 1
294 293 295 1
672 449 673 1
27 167 725 1
279 445 704 1
476 478 714 1
281 279 704 1
549 551 552 1
177 39 731 1
299 296 732 1
407 433 434 1
363 630 660 1
418 400 451 1
304 305 306 1
680 681 682 1
191 679 680 1
342 344 345 1
556 535 557 1
321 320 322 1
292 291 293 1
426 439 440 1
358 335 750 1
263 261 447 1
336 338 339 1
434 435 515 1
674 701 830 1
440 441 457 1
290 289 291 1
302 303 304 1
452 497 747 1
476 714 737 1
454 472 473 1
701 702 854 1
323 320 666 1
101 102 196 1
641 639 661 1
645 647 819 1
288 287 289 1
566 386 776 1
342 345 715 1
637 636 718 1
573 574 575 1
361 340 715 1
300 301 302 1
484 358 750 1
607 609 735 1
794 374 806 1
420 430 516 1
340 342 715 1
191 680 744 1
448 485 593 1
195 652 653 1
158 159 220 1
39 40 731 1
608 375 610 1
286 285 287 1
563 572 573 1
103 104 707 1
773 606 936 1
193 96 554 1
298 299 300 1
339 340 361 1
52 53 730 1
143 144 215 1
867 580 899 1
284 283 285 1
717 526 962 1
139 140 214 1
632 205 846 1
296 295 732 1
195 653 730 1
141 142 163 1
383 384 411 1
145 146 162 1
294 295 296 1
148 149 185 1
561 562 563 1
282 281 283 1
495 451 741 1
494 723 926 1
328 330 331 1
104 105 194 1
563 573 763 1
559 560 561 1
135 136 212 1
394 395 406 1
680 683 744 1
375 315 633 1
257 255 442 1
427 446 528 1
613 612 614 1
137 138 166 1
292 293 294 1
151 152 161 1
398 352 719 1
557 558 559 1
55 56 739 1
488 581 867 1
611 610 612 1
280 279 281 1
156 157 164 1
640 642 649 1
53 195 730 1
131 132 211 1
813 167 872 1
133 134 169 1
331 332 352 1
105 106 742 1
747 497 869 1
49 50 744 1
290 291 292 1
278 277 279 1
683 682 684 1
107 108 192 1
355 356 793 1
322 324 351 1
196 102 711 1
42 43 749 1
198 636 637 1
288 289 290 1
153 154 218 1
276 275 277 1
104 194 707 1
127 128 210 1
644 641 661 1
345 346 733 1
362 323 666 1
129 130 173 1
347 604 955 1
626 627 628 1
178 747 869 1
473 472 474 1
318 320 321 1
536 531 844 1
110 111 189 1
622 623 626 1
707 194 708 1
426 440 761 1
165 729 826 1
286 287 288 1
407 434 770 1
505 452 747 1
112 113 740 1
181 42 749 1
372 371 413 1
524 534 535 1
585 586 889 1
274 273 275 1
418 451 494 1
125 126 176 1
240 469 533 1
201 606 773 1
59 60 746 1
23 165 743 1
522 523 524 1
573 572 574 1
620 621 622 1
113 114 187 1
604 605 955 1
415 388 416 1
272 271 273 1
122 123 178 1
284 285 286 1
312 314 357 1
602 457 603 1
500 521 522 1
116 117 182 1
589 196 590 1
282 283 284 1
297 296 298 1
270 269 271 1
119 120 179 1
577 549 917 1
335 333 750 1
334 778 797 1
618 619 620 1
50 191 744 1
563 562 572 1
46 47 769 1
616 617 618 1
592 201 773 1
614 615 616 1
280 281 282 1
465 541 546 1
760 374 794 1
482 499 500 1
306 308 364 1
561 560 562 1
557 535 558 1
427 403 446 1
680 682 683 1
268 267 269 1
14 15 170 1
559 558 560 1
251 249 431 1
480 481 482 1
373 358 484 1
194 105 742 1
278 279 280 1
302 304 370 1
502 414 503 1
199 580 581 1
782 162 923 1
440 602 761 1
266 265 267 1
626 623 627 1
276 277 278 1
478 479 480 1
653 654 757 1
684 687 688 1
585 200 586 1
146 147 771 1
16 17 791 1
637 718 767 1
528 446 545 1
298 300 381 1
622 621 623 1
172 710 798 1
294 296 297 1
476 477 478 1
264 263 265 1
408 385 567 1
274 275 276 1
854 702 871 1
410 426 761 1
601 807 932 1
474 475 476 1
614 612 615 1
126 127 756 1
620 619 621 1
524 523 534 1
553 174 891 1
440 457 602 1
663 665 869 1
672 673 830 1
272 273 274 1
610 375 633 1
549 408 551 1
128 129 758 1
288 290 377 1
411 412 513 1
618 617 619 1
270 271 272 1
522 521 523 1
590 196 711 1
21 213 766 1
605 940 955 1
262 261 263 1
113 187 740 1
616 615 617 1
623 621 624 1
391 361 392 1
576 575 881 1
619 617 629 1
397 352 398 1
454 471 472 1
311 309 806 1
564 563 763 1
284 286 390 1
304 306 748 1
305 379 828 1
12 13 223 1
280 282 380 1
346 349 733 1
471 453 798 1
500 499 521 1
260 259 261 1
268 269 270 1
217 90 949 1
506 822 861 1
246 248 512 1
708 194 709 1
252 254 428 1
434 540 770 1
326 774 796 1
300 302 753 1
430 453 454 1
731 40 814 1
47 188 769 1
709 194 742 1
562 560 565 1
334 336 778 1
166 138 790 1
482 481 499 1
393 392 394 1
274 276 402 1
258 260 488 1
379 634 951 1
232 233 234 1
239 242 455 1
399 398 400 1
383 368 384 1
266 267 268 1
41 181 814 1
326 328 774 1
258 257 259 1
480 479 481 1
268 270 421 1
352 332 797 1
235 244 245 1
499 481 507 1
378 307 828 1
740 672 789 1
292 734 785 1
591 592 916 1
477 475 508 1
554 555 816 1
262 264 456 1
222 71 843 1
474 472 475 1
136 137 765 1
264 265 266 1
401 400 418 1
599 598 784 1
478 477 479 1
429 419 526 1
643 644 834 1
526 723 962 1
127 210 756 1
403 373 754 1
506 736 822 1
306 364 748 1
420 429 430 1
210 128 758 1
256 255 257 1
397 399 498 1
370 304 748 1
237 234 799 1
411 384 412 1
176 126 756 1
355 568 946 1
262 263 264 1
481 479 764 1
401 419 420 1
476 475 477 1
129 173 758 1
278 280 762 1
406 407 770 1
302 370 753 1
858 176 887 1
589 431 928 1
331 352 397 1
642 645 819 1
612 610 760 1
472 471 755 1
503 805 827 1
366 371 372 1
768 681 809 1
381 300 753 1
260 261 262 1
373 484 754 1
5 6 180 1
446 403 754 1
254 253 255 1
454 453 471 1
869 665 883 1
262 456 804 1
212 136 765 1
290 292 785 1
424 506 542 1
339 361 391 1
258 259 260 1
708 442 920 1
746 581 846 1
882 782 923 1
397 398 399 1
778 496 797 1
586 200 587 1
444 517 547 1
256 257 258 1
586 587 928 1
137 166 765 1
391 393 496 1
112 740 789 1
430 429 453 1
189 111 789 1
76 77 183 1
531 240 533 1
142 143 775 1
399 400 401 1
878 217 879 1
254 255 256 1
839 594 887 1
615 612 760 1
401 418 419 1
351 324 796 1
286 288 780 1
475 472 755 1
391 392 393 1
280 380 762 1
513 412 543 1
252 251 253 1
420 419 429 1
507 481 764 1
442 708 914 1
827 168 842 1
138 139 790 1
721 192 888 1
434 515 540 1
162 146 771 1
610 633 760 1
276 278 768 1
288 377 780 1
393 394 396 1
252 253 254 1
19 168 781 1
722 723 872 1
774 498 796 1
502 503 504 1
390 286 780 1
111 112 789 1
144 145 782 1
163 142 775 1
17 216 791 1
508 475 755 1
250 249 251 1
702 703 888 1
402 276 768 1
18 19 781 1
372 413 414 1
222 752 864 1
45 46 829 1
143 215 775 1
79 80 186 1
278 762 768 1
723 526 926 1
412 384 483 1
518 487 859 1
328 331 774 1
250 251 252 1
215 144 782 1
248 247 249 1
248 249 250 1
245 244 246 1
889 586 905 1
10 11 190 1
605 461 852 1
232 231 233 1
188 688 850 1
580 579 916 1
716 717 962 1
477 508 772 1
377 290 785 1
764 479 772 1
336 339 778 1
368 360 788 1
147 148 786 1
466 490 958 1
461 462 852 1
397 498 774 1
725 167 813 1
36 37 803 1
145 162 782 1
629 617 794 1
710 206 868 1
149 150 792 1
246 244 247 1
93 209 960 1
246 247 248 1
479 477 772 1
700 597 885 1
38 177 862 1
401 420 783 1
501 414 502 1
492 510 823 1
356 366 793 1
234 233 235 1
372 414 501 1
720 721 888 1
163 699 831 1
139 214 790 1
80 81 795 1
331 397 774 1
498 399 783 1
600 599 848 1
386 424 776 1
216 18 781 1
235 245 799 1
756 628 839 1
185 149 792 1
154 155 801 1
148 185 786 1
324 326 796 1
332 334 797 1
615 760 794 1
391 496 778 1
220 159 800 1
875 204 945 1
584 469 909 1
504 827 842 1
231 193 554 1
339 391 778 1
491 713 956 1
159 160 800 1
469 237 799 1
189 701 854 1
413 444 779 1
468 568 903 1
783 516 817 1
414 413 779 1
824 510 918 1
771 147 786 1
784 161 802 1
399 401 783 1
214 140 831 1
717 172 798 1
617 615 794 1
150 151 811 1
225 92 226 1
83 84 815 1
7 8 224 1
624 621 820 1
354 353 906 1
235 233 243 1
235 243 244 1
160 174 800 1
588 589 928 1
163 775 787 1
152 153 802 1
431 589 929 1
260 262 804 1
509 538 900 1
619 629 820 1
681 679 809 1
384 368 788 1
240 237 469 1
565 749 961 1
374 311 806 1
141 163 831 1
652 655 947 1
424 542 776 1
161 152 802 1
838 379 951 1
455 492 825 1
669 670 810 1
719 496 845 1
366 372 793 1
551 408 567 1
490 833 958 1
158 220 808 1
218 154 801 1
110 189 854 1
749 43 961 1
444 547 779 1
310 312 853 1
665 664 890 1
174 1 891 1
623 624 838 1
120 121 860 1
157 158 808 1
155 156 807 1
488 260 804 1
3 4 832 1
503 779 805 1
483 384 788 1
164 157 808 1
15 16 812 1
521 893 939 1
219 3 832 1
153 218 802 1
531 533 752 1
192 721 898 1
550 578 954 1
350 355 946 1
209 527 963 1
156 164 807 1
447 261 902 1
353 348 955 1
507 764 803 1
792 150 811 1
490 489 851 1
151 161 811 1
601 600 848 1
465 546 852 1
125 176 858 1
243 585 889 1
773 512 938 1
372 501 793 1
44 184 961 1
40 41 814 1
726 725 813 1
446 754 835 1
192 108 871 1
673 674 830 1
543 412 833 1
723 207 962 1
781 168 827 1
206 706 921 1
178 123 865 1
121 122 883 1
442 255 924 1
402 768 809 1
307 305 828 1
82 83 203 1
234 235 799 1
16 791 812 1
197 583 936 1
590 711 920 1
107 192 898 1
747 178 865 1
258 488 867 1
729 727 826 1
140 141 831 1
535 534 884 1
649 642 819 1
505 858 887 1
742 106 898 1
496 393 845 1
635 594 919 1
841 815 875 1
707 708 920 1
184 45 829 1
314 316 927 1
431 249 905 1
322 351 895 1
205 746 846 1
621 619 820 1
274 402 870 1
646 643 834 1
86 87 878 1
784 519 941 1
727 728 863 1
351 796 817 1
520 792 811 1
497 663 869 1
489 659 866 1
257 442 914 1
390 780 881 1
511 470 849 1
552 551 818 1
808 220 851 1
736 550 954 1
713 853 956 1
532 536 910 1
769 188 850 1
568 355 896 1
801 155 807 1
402 757 870 1
74 75 221 1
757 654 870 1
117 118 944 1
839 628 919 1
202 68 915 1
246 512 935 1
840 815 841 1
396 394 880 1
318 321 911 1
779 547 805 1
840 824 934 1
469 584 943 1
252 428 933 1
498 783 817 1
168 766 842 1
507 803 862 1
545 446 835 1
627 623 838 1
412 483 833 1
119 179 930 1
13 14 837 1
504 503 827 1
780 576 881 1
81 82 836 1
521 499 893 1
526 419 926 1
170 15 812 1
176 756 839 1
251 431 929 1
428 254 899 1
537 532 912 1
220 800 821 1
565 560 922 1
418 494 926 1
578 9 937 1
749 565 922 1
796 498 817 1
868 206 921 1
186 80 795 1
75 76 847 1
421 270 908 1
243 233 816 1
594 839 919 1
225 879 949 1
462 465 852 1
233 231 816 1
2 219 891 1
244 243 889 1
803 37 862 1
492 823 825 1
821 490 851 1
695 518 855 1
231 554 816 1
109 110 854 1
393 396 845 1
485 505 887 1
14 170 837 1
513 543 953 1
777 542 861 1
692 693 857 1
487 738 859 1
542 506 861 1
512 248 938 1
469 799 909 1
4 5 856 1
552 832 856 1
161 784 941 1
124 125 858 1
775 215 849 1
597 529 885 1
860 665 890 1
167 722 872 1
312 357 853 1
571 437 894 1
798 710 868 1
517 493 952 1
568 896 903 1
533 469 943 1
893 177 939 1
870 654 908 1
787 775 849 1
37 38 862 1
862 177 893 1
1 2 891 1
109 854 871 1
823 227 825 1
179 120 860 1
808 851 866 1
351 855 895 1
174 553 953 1
501 502 903 1
886 359 906 1
88 89 217 1
123 124 865 1
841 875 945 1
894 437 897 1
124 858 865 1
470 787 849 1
848 599 950 1
76 183 847 1
108 109 871 1
822 190 901 1
85 86 204 1
218 801 848 1
68 864 915 1
223 13 837 1
178 869 883 1
788 359 886 1
795 81 836 1
78 79 877 1
79 186 877 1
471 798 868 1
355 793 896 1
321 859 911 1
272 274 870 1
493 777 952 1
256 258 867 1
12 223 901 1
755 471 868 1
495 741 873 1
421 908 947 1
220 821 851 1
437 468 897 1
179 857 930 1
529 786 885 1
406 770 863 1
6 7 876 1
703 720 888 1
72 171 843 1
832 4 856 1
183 77 907 1
737 714 948 1
122 178 883 1
659 601 932 1
664 697 890 1
721 447 913 1
523 939 957 1
483 788 886 1
394 406 880 1
606 197 936 1
558 535 884 1
406 863 880 1
866 659 932 1
584 202 943 1
823 824 874 1
543 821 904 1
84 85 875 1
11 12 901 1
627 838 951 1
909 245 935 1
5 180 856 1
549 552 917 1
842 766 925 1
256 867 899 1
190 736 954 1
106 107 898 1
228 840 841 1
786 185 885 1
164 808 866 1
519 520 941 1
939 731 957 1
918 510 931 1
321 322 895 1
180 6 876 1
272 870 908 1
552 856 917 1
247 244 889 1
833 483 958 1
218 848 950 1
207 716 962 1
499 507 893 1
863 728 880 1
504 842 894 1
738 737 948 1
164 866 932 1
879 225 945 1
82 203 836 1
203 83 815 1
579 591 916 1
731 814 957 1
532 910 912 1
190 11 901 1
77 78 907 1
213 743 942 1
851 489 866 1
223 822 901 1
10 190 937 1
711 707 920 1
543 904 953 1
254 256 899 1
558 884 922 1
261 259 902 1
247 889 905 1
902 259 914 1
73 74 892 1
359 354 906 1
541 466 958 1
784 802 950 1
316 318 911 1
587 588 928 1
221 75 847 1
755 868 921 1
72 73 171 1
349 350 946 1
599 784 950 1
878 879 945 1
502 897 903 1
348 347 955 1
259 257 914 1
249 247 905 1
270 272 908 1
714 491 956 1
654 652 947 1
7 224 876 1
177 731 939 1
634 635 951 1
357 314 927 1
523 521 939 1
853 357 956 1
528 545 923 1
118 119 930 1
204 878 945 1
628 627 919 1
924 253 929 1
255 253 924 1
815 84 875 1
709 742 913 1
507 862 893 1
176 839 887 1
855 518 895 1
843 171 844 1
793 501 896 1
560 558 922 1
821 800 904 1
799 245 909 1
253 251 929 1
78 877 907 1
170 812 952 1
864 752 915 1
203 815 840 1
752 533 915 1
9 10 937 1
43 44 961 1
800 174 904 1
419 418 926 1
69 222 864 1
852 546 940 1
856 180 917 1
349 946 959 1
182 117 944 1
859 738 911 1
250 252 933 1
857 693 930 1
508 755 921 1
925 213 942 1
245 246 935 1
766 213 925 1
250 933 938 1
520 811 941 1
248 250 938 1
877 186 900 1
777 170 952 1
733 349 959 1
179 860 890 1
900 186 931 1
534 523 957 1
812 517 952 1
553 513 953 1
545 882 923 1
807 164 932 1
74 221 892 1
908 654 947 1
227 823 874 1
915 533 943 1
538 877 900 1
877 538 907 1
811 161 941 1
802 218 950 1
814 534 957 1
795 836 918 1
186 795 931 1
204 86 878 1
227 960 963 1
221 847 910 1
896 501 903 1
605 852 940 1
825 227 963 1
85 204 875 1
960 209 963 1
795 918 931 1
897 468 903 1
527 825 963 1
927 738 948 1
203 840 934 1
937 190 954 1
836 203 934 1
879 217 949 1
202 915 943 1
69 70 222 1
90 91 949 1
171 73 892 1
904 174 953 1
918 836 934 1
357 927 948 1
578 937 954 1
824 918 934 1
87 88 217 1
91 225 949 1

End
