MeshVersionFormatted 2
Dimension 3

Vertices
302
-7.5554407873909213e-02 -1.7777621791066556e-01 0.0000000000000000e+00 1
-7.6832216906772374e-02 -1.8221659727332884e-01 0.0000000000000000e+00 1
-7.8158012156019585e-02 -1.8735750326524231e-01 0.0000000000000000e+00 1
-7.9521826408378404e-02 -1.9312772005655193e-01 0.0000000000000000e+00 1
-8.0913692450576336e-02 -1.9945603181740329e-01 0.0000000000000000e+00 1
-8.2323643069341007e-02 -2.0627122271794235e-01 0.0000000000000000e+00 1
-8.3741711051399909e-02 -2.1350207692831485e-01 0.0000000000000000e+00 1
-8.5157929183480530e-02 -2.2107737861866644e-01 0.0000000000000000e+00 1
-8.6562330252310526e-02 -2.2892591195914308e-01 0.0000000000000000e+00 1
-8.7944947044617389e-02 -2.3697646111989057e-01 0.0000000000000000e+00 1
-8.9295812347128661e-02 -2.4515781027105454e-01 0.0000000000000000e+00 1
-9.0604958946571862e-02 -2.5339874358278092e-01 0.0000000000000000e+00 1
-9.1862419629674591e-02 -2.6162804522521554e-01 0.0000000000000000e+00 1
-9.3058227183164338e-02 -2.6977449936850401e-01 0.0000000000000000e+00 1
-9.4182414393768676e-02 -2.7776689018279221e-01 0.0000000000000000e+00 1
-9.5225014048215151e-02 -2.8553400183822597e-01 0.0000000000000000e+00 1
-9.6176058933231279e-02 -2.9300461850495108e-01 0.0000000000000000e+00 1
-9.7025581835544633e-02 -3.0010752435311322e-01 0.0000000000000000e+00 1
-9.7763615541882759e-02 -3.0677150355285832e-01 0.0000000000000000e+00 1
-9.8380192838973202e-02 -3.1292534027433216e-01 0.0000000000000000e+00 1
-9.8865346513543478e-02 -3.1849781868768046e-01 0.0000000000000000e+00 1
-9.9209109352321162e-02 -3.2341772296304899e-01 0.0000000000000000e+00 1
-9.9401514142033770e-02 -3.2761383727058357e-01 0.0000000000000000e+00 1
-9.9432593669408847e-02 -3.3101494578043000e-01 0.0000000000000000e+00 1
-9.9292380721173967e-02 -3.3354983266273414e-01 0.0000000000000000e+00 1
-9.8970908084056647e-02 -3.3514728208764166e-01 0.0000000000000000e+00 1
-9.8458208544784459e-02 -3.3573607822529844e-01 0.0000000000000000e+00 1
-9.7744314890084893e-02 -3.3524500524585021e-01 0.0000000000000000e+00 1
-9.6819259906685551e-02 -3.3360284731944279e-01 0.0000000000000000e+00 1
-9.5673076381313948e-02 -3.3073838861622196e-01 0.0000000000000000e+00 1
-9.2958738986111095e-02 -3.2320602177904167e-01 0.0000000000000000e+00 1
-9.0135114196731758e-02 -3.1537939479923616e-01 0.0000000000000000e+00 1
-8.7206708269543715e-02 -3.0726798349237294e-01 0.0000000000000000e+00 1
-8.4178027460914601e-02 -2.9888126367401963e-01 0.0000000000000000e+00 1
-8.1053578027212150e-02 -2.9022871115974352e-01 0.0000000000000000e+00 1
-7.7837866224804070e-02 -2.8131980176511234e-01 0.0000000000000000e+00 1
-7.4535398310058065e-02 -2.7216401130569362e-01 0.0000000000000000e+00 1
-7.1150680539341815e-02 -2.6277081559705473e-01 0.0000000000000000e+00 1
-6.7688219169023039e-02 -2.5314969045476327e-01 0.0000000000000000e+00 1
-6.4152520455469458e-02 -2.4331011169438677e-01 0.0000000000000000e+00 1
-6.0548090655048722e-02 -2.3326155513149260e-01 0.0000000000000000e+00 1
-5.6879436024128593e-02 -2.2301349658164848e-01 0.0000000000000000e+00 1
-5.3151062819076757e-02 -2.1257541186042184e-01 0.0000000000000000e+00 1
-4.9367477296260905e-02 -2.0195677678338020e-01 0.0000000000000000e+00 1
-4.5533185712048729e-02 -1.9116706716609105e-01 0.0000000000000000e+00 1
-4.1652694322807972e-02 -1.8021575882412197e-01 0.0000000000000000e+00 1
-3.7730509384906297e-02 -1.6911232757304037e-01 0.0000000000000000e+00 1
-3.3771137154711445e-02 -1.5786624922841386e-01 0.0000000000000000e+00 1
-2.9779083888591081e-02 -1.4648699960580991e-01 0.0000000000000000e+00 1
-2.5758855842912928e-02 -1.3498405452079609e-01 0.0000000000000000e+00 1
-2.1714959274044685e-02 -1.2336688978893982e-01 0.0000000000000000e+00 1
-1.7651900438354046e-02 -1.1164498122580865e-01 0.0000000000000000e+00 1
-1.3574185592208746e-02 -9.9827804646970164e-02 0.0000000000000000e+00 1
-9.4863209919764709e-03 -8.7924835867991838e-02 0.0000000000000000e+00 1
-5.3928128940249152e-03 -7.5945550704441200e-02 0.0000000000000000e+00 1
-1.2981675547217852e-03 -6.3899424971885735e-02 0.0000000000000000e+00 1
2.7931087695652126e-03 -5.1795934485892946e-02 0.0000000000000000e+00 1
6.8765098224683741e-03 -3.9644555062030407e-02 0.0000000000000000e+00 1
1.0947529347620000e-02 -2.7454762515865587e-02 0.0000000000000000e+00 1
1.5001661088652384e-02 -1.5236032662966040e-02 0.0000000000000000e+00 1
1.9034398789197819e-02 -2.9978413188992692e-03 0.0000000000000000e+00 1
2.3041236192888608e-02 9.2503357007672204e-03 0.0000000000000000e+00 1
2.7017667043357042e-02 2.1499022580465918e-02 0.0000000000000000e+00 1
3.0959185084235431e-02 3.3738743504629298e-02 0.0000000000000000e+00 1
3.4861284059156054e-02 4.5960022657689850e-02 0.0000000000000000e+00 1
3.8719457711751205e-02 5.8153384224080007e-02 0.0000000000000000e+00 1
4.2529199785653220e-02 7.0309352388232396e-02 0.0000000000000000e+00 1
4.6286004024494350e-02 8.2418451334579326e-02 0.0000000000000000e+00 1
4.9985364171906917e-02 9.4471205247553383e-02 0.0000000000000000e+00 1
5.3622773971523201e-02 1.0645813831158700e-01 0.0000000000000000e+00 1
5.7193727166975510e-02 1.1836977471111269e-01 0.0000000000000000e+00 1
6.0693717501896137e-02 1.3019663863056297e-01 0.0000000000000000e+00 1
6.4118238719917370e-02 1.4192925425437020e-01 0.0000000000000000e+00 1
6.7462784564671557e-02 1.5355814576696714e-01 0.0000000000000000e+00 1
7.0722848779790931e-02 1.6507383735278591e-01 0.0000000000000000e+00 1
7.3893925108907799e-02 1.7646685319625921e-01 0.0000000000000000e+00 1
7.6971507295654468e-02 1.8772771748181949e-01 0.0000000000000000e+00 1
7.9951089083663246e-02 1.9884695439389921e-01 0.0000000000000000e+00 1
8.2828164216566413e-02 2.0981508811693089e-01 0.0000000000000000e+00 1
8.5598226437996278e-02 2.2062264283534694e-01 0.0000000000000000e+00 1
8.8256769491585146e-02 2.3126014273357998e-01 0.0000000000000000e+00 1
9.0799287120965300e-02 2.4171811199606230e-01 0.0000000000000000e+00 1
9.3221273069769017e-02 2.5198707480722665e-01 0.0000000000000000e+00 1
9.5518221081628635e-02 2.6205755535150527e-01 0.0000000000000000e+00 1
9.7685624900176404e-02 2.7192007781333072e-01 0.0000000000000000e+00 1
9.9718978269044661e-02 2.8156516637713552e-01 0.0000000000000000e+00 1
1.0161377493186571e-01 2.9098334522735209e-01 0.0000000000000000e+00 1
1.0336550863227181e-01 3.0016513854841298e-01 0.0000000000000000e+00 1
1.0496967311389527e-01 3.0910107052475067e-01 0.0000000000000000e+00 1
1.0642176212036841e-01 3.1778166534079760e-01 0.0000000000000000e+00 1
1.0771726939532347e-01 3.2619744718098631e-01 0.0000000000000000e+00 1
1.0885168868239281e-01 3.3433894022974919e-01 0.0000000000000000e+00 1
1.0960710886865654e-01 3.4077358218879217e-01 0.0000000000000000e+00 1
1.1002439103748840e-01 3.4599032438593935e-01 0.0000000000000000e+00 1
1.1011406237581753e-01 3.5002509442479429e-01 0.0000000000000000e+00 1
1.0988665007057302e-01 3.5291381990895959e-01 0.0000000000000000e+00 1
1.0935268130868406e-01 3.5469242844203874e-01 0.0000000000000000e+00 1
1.0852268327707973e-01 3.5539684762763468e-01 0.0000000000000000e+00 1
1.0740718316268916e-01 3.5506300506935068e-01 0.0000000000000000e+00 1
1.0601670815244141e-01 3.5372682837078923e-01 0.0000000000000000e+00 1
1.0436178543326574e-01 3.5142424513555426e-01 0.0000000000000000e+00 1
1.0245294219209108e-01 3.4819118296724810e-01 0.0000000000000000e+00 1
1.0030070561584681e-01 3.4406356946947464e-01 0.0000000000000000e+00 1
9.7915602891461784e-02 3.3907733224583619e-01 0.0000000000000000e+00 1
9.5308161205865272e-02 3.3326839889993637e-01 0.0000000000000000e+00 1
9.2488907745986337e-02 3.2667269703537799e-01 0.0000000000000000e+00 1
8.9468369698754130e-02 3.1932615425576416e-01 0.0000000000000000e+00 1
8.6257074251097798e-02 3.1126469816469821e-01 0.0000000000000000e+00 1
8.2865548589946408e-02 3.0252425636578306e-01 0.0000000000000000e+00 1
7.9304319902229109e-02 2.9314075646262178e-01 0.0000000000000000e+00 1
7.5583915374875021e-02 2.8315012605881751e-01 0.0000000000000000e+00 1
7.1714862194813211e-02 2.7258829275797331e-01 0.0000000000000000e+00 1
6.7707687548972911e-02 2.6149118416369238e-01 0.0000000000000000e+00 1
6.3572918624283214e-02 2.4989472787957795e-01 0.0000000000000000e+00 1
5.9321082607673124e-02 2.3783485150923256e-01 0.0000000000000000e+00 1
5.4962706686071928e-02 2.2534748265625987e-01 0.0000000000000000e+00 1
5.0508318046408575e-02 2.1246854892426248e-01 0.0000000000000000e+00 1
4.5968443875612365e-02 1.9923397791684416e-01 0.0000000000000000e+00 1
4.1353611360612268e-02 1.8567969723760724e-01 0.0000000000000000e+00 1
3.6674347688337543e-02 1.7184163449015544e-01 0.0000000000000000e+00 1
3.1941180045717180e-02 1.5775571727809146e-01 0.0000000000000000e+00 1
2.7164635619680383e-02 1.4345787320501852e-01 0.0000000000000000e+00 1
2.2355241597156232e-02 1.2898402987453977e-01 0.0000000000000000e+00 1
1.7523525165073862e-02 1.1437011489025818e-01 0.0000000000000000e+00 1
1.2680013510362423e-02 9.9652055855776980e-02 0.0000000000000000e+00 1
7.8352338199509826e-03 8.4865780374699176e-02 0.0000000000000000e+00 1
2.9997132807687045e-03 7.0047216050627900e-02 0.0000000000000000e+00 1
-1.8160209202553040e-03 5.5232290487166158e-02 0.0000000000000000e+00 1
-6.6014415961919287e-03 4.0456931287917192e-02 0.0000000000000000e+00 1
-1.1346021560112045e-02 2.5757066056483993e-02 0.0000000000000000e+00 1
-1.6039233625086517e-02 1.1168622396469693e-02 0.0000000000000000e+00 1
-2.0670550604186252e-02 -3.2724720885226322e-03 0.0000000000000000e+00 1
-2.5229445310482063e-02 -1.7530289794889756e-02 0.0000000000000000e+00 1
-2.9705390557044926e-02 -3.1568903119028852e-02 0.0000000000000000e+00 1
-3.4087859156945663e-02 -4.5352384457336664e-02 0.0000000000000000e+00 1
-3.8366323923255161e-02 -5.8844806206210097e-02 0.0000000000000000e+00 1
-4.2530257669044301e-02 -7.2010240762046096e-02 0.0000000000000000e+00 1
-4.6569133207383956e-02 -8.4812760521241537e-02 0.0000000000000000e+00 1
-5.0472423351345011e-02 -9.7216437880193352e-02 0.0000000000000000e+00 1
-5.4229600913998345e-02 -1.0918534523529842e-01 0.0000000000000000e+00 1
-5.7830138708414830e-02 -1.2068355498295369e-01 0.0000000000000000e+00 1
-6.1263509547665351e-02 -1.3167513951955601e-01 0.0000000000000000e+00 1
-6.4519186244820781e-02 -1.4212417124150234e-01 0.0000000000000000e+00 1
-6.7586641612952011e-02 -1.5199472254518953e-01 0.0000000000000000e+00 1
-7.0455348465129908e-02 -1.6125086582701453e-01 0.0000000000000000e+00 1
-7.3114779614425349e-02 -1.6985667348337424e-01 0.0000000000000000e+00 1
-7.2765725746873081e-02 -1.8114556367927714e-01 0.0000000000000000e+00 1
-7.4104071542652611e-02 -1.9136194857279984e-01 0.0000000000000000e+00 1
-7.5920050317268367e-02 -2.0404257724965927e-01 0.0000000000000000e+00 1
-6.4297722594074250e-02 -1.6834833400909502e-01 0.0000000000000000e+00 1
-7.8404526092783422e-02 -2.1841841054993077e-01 0.0000000000000000e+00 1
-5.8959491691598170e-02 -1.5123818057425162e-01 0.0000000000000000e+00 1
-5.1047159691153587e-02 -1.3014270907222134e-01 0.0000000000000000e+00 1
-8.0364971256471740e-02 -2.3413425952281394e-01 0.0000000000000000e+00 1
-2.9791846594249983e-02 -1.1400214670701106e-01 0.0000000000000000e+00 1
-2.3284341585358238e-02 -9.0635943867301089e-02 0.0000000000000000e+00 1
-5.6539186368903573e-02 -1.9407333018758033e-01 0.0000000000000000e+00 1
2.4019565565843500e-03 -1.7837433136458216e-02 0.0000000000000000e+00 1
2.6251340336666124e-02 5.5391420431424004e-02 0.0000000000000000e+00 1
-1.4629839856048057e-02 -6.6191305141719697e-02 0.0000000000000000e+00 1
4.8747738930130999e-02 1.2730056136546569e-01 0.0000000000000000e+00 1
-5.6709994969038040e-03 -4.2189828251672314e-02 0.0000000000000000e+00 1
1.0434842385095917e-02 6.5948774349854893e-03 0.0000000000000000e+00 1
6.5748318017512408e-02 1.8474402102353052e-01 0.0000000000000000e+00 1
3.3950086129729898e-02 7.9608308383033302e-02 0.0000000000000000e+00 1
1.7795022239313164e-02 3.1679959675978947e-02 0.0000000000000000e+00 1
4.1460902745607250e-02 1.0360328399611209e-01 0.0000000000000000e+00 1
5.8577574588428806e-02 1.6280809072751976e-01 0.0000000000000000e+00 1
8.0985511908402197e-02 2.3995898270051974e-01 0.0000000000000000e+00 1
7.1967299126185963e-02 2.0680261258514510e-01 0.0000000000000000e+00 1
1.0836101881871082e-01 3.5315698224261105e-01 0.0000000000000000e+00 1
8.5954120047723695e-02 2.5828433479951618e-01 0.0000000000000000e+00 1
-8.2660268636744236e-02 -2.5006449950250753e-01 0.0000000000000000e+00 1
-6.3156260674541553e-02 -2.1470137111957854e-01 0.0000000000000000e+00 1
4.1664834209615205e-02 1.4677952286444859e-01 0.0000000000000000e+00 1
6.6774183310567725e-02 2.2764843307966859e-01 0.0000000000000000e+00 1
9.0681319469354829e-02 2.7843038481841387e-01 0.0000000000000000e+00 1
-4.7838043637217026e-02 -1.7048455633370369e-01 0.0000000000000000e+00 1
1.0754323504247565e-01 3.4800798032555430e-01 0.0000000000000000e+00 1
-4.1232950374008377e-02 -1.4885585918445357e-01 0.0000000000000000e+00 1
9.5828698733239542e-02 2.9739196014167341e-01 0.0000000000000000e+00 1
1.0670341195323912e-01 3.5154902269526894e-01 0.0000000000000000e+00 1
-8.5952553882067045e-02 -2.6665873767584769e-01 0.0000000000000000e+00 1
-3.7170519712662206e-02 -9.3728441144555807e-02 0.0000000000000000e+00 1
1.0306705560560844e-01 3.4060587975808476e-01 0.0000000000000000e+00 1
9.3804015784857753e-02 3.1308726319609215e-01 0.0000000000000000e+00 1
-5.9296143916964875e-03 -3.6761296482794650e-05 0.0000000000000000e+00 1
-1.5519421107516142e-02 -2.9077643334772189e-02 0.0000000000000000e+00 1
-6.1105425530349831e-02 -2.0418358120916158e-01 0.0000000000000000e+00 1
-6.6105699006680355e-02 -1.9577337540926257e-01 0.0000000000000000e+00 1
-6.2633002820367378e-02 -1.8809035758087947e-01 0.0000000000000000e+00 1
-5.5116993999082375e-02 -1.8580640561219278e-01 0.0000000000000000e+00 1
-6.1117738518509018e-02 -1.7897457687725415e-01 0.0000000000000000e+00 1
1.8235331207234085e-02 7.3273838367036798e-02 0.0000000000000000e+00 1
1.0432311822924763e-01 3.4556806801415224e-01 0.0000000000000000e+00 1
-2.8505818144670972e-02 -6.8799890447200196e-02 0.0000000000000000e+00 1
3.3128015637205958e-02 1.1767098572279588e-01 0.0000000000000000e+00 1
-8.7381143446138190e-02 -2.8327945750685612e-01 0.0000000000000000e+00 1
5.0374432457127451e-02 1.7242958840780603e-01 0.0000000000000000e+00 1
8.5523382073495278e-03 4.3711575281157149e-02 0.0000000000000000e+00 1
9.8849845181258722e-02 3.2814030271691447e-01 0.0000000000000000e+00 1
7.5690509604315309e-02 2.5217841897137044e-01 0.0000000000000000e+00 1
-6.9184644856601252e-02 -1.7679450236822927e-01 0.0000000000000000e+00 1
-6.6031973405399028e-02 -2.2402918141947104e-01 0.0000000000000000e+00 1
-4.4246070757852501e-02 -1.6023205385476313e-01 0.0000000000000000e+00 1
-4.0317279793354276e-02 -1.0740239191348640e-01 0.0000000000000000e+00 1
-1.9851895929645008e-02 -4.3016326148150721e-02 0.0000000000000000e+00 1
-2.4187777346693959e-02 -5.6087664352841335e-02 0.0000000000000000e+00 1
5.9276814934759003e-02 2.0348496595570353e-01 0.0000000000000000e+00 1
-7.4089791702892260e-02 -2.4542440467807314e-01 0.0000000000000000e+00 1
-7.0768211512488771e-02 -2.3425846356692243e-01 0.0000000000000000e+00 1
-3.3134870283292352e-02 -8.1662404875951375e-02 0.0000000000000000e+00 1
3.6078283658322959e-03 2.9287458870496184e-02 0.0000000000000000e+00 1
-3.7256329571813879e-02 -1.3770684849946646e-01 0.0000000000000000e+00 1
-3.2233126767905712e-02 -1.2639466447520792e-01 0.0000000000000000e+00 1
-4.7050158071888962e-02 -1.1928700808983231e-01 0.0000000000000000e+00 1
1.0111353272833808e-01 3.3494904324076696e-01 0.0000000000000000e+00 1
-2.7281680365109470e-02 -1.0223149384868468e-01 0.0000000000000000e+00 1
6.3348904027638320e-02 2.1593437258029308e-01 0.0000000000000000e+00 1
-1.0038073483621614e-03 1.5287720098787771e-02 0.0000000000000000e+00 1
-5.5147437791886925e-02 -1.4140949520856361e-01 0.0000000000000000e+00 1
-5.5246993643722764e-02 -1.6246471670041876e-01 0.0000000000000000e+00 1
-1.1382618124481846e-02 -1.4883664052505975e-02 0.0000000000000000e+00 1
9.3246092469611103e-02 2.8785228741593283e-01 0.0000000000000000e+00 1
4.5583163161812608e-02 1.5996929602695520e-01 0.0000000000000000e+00 1
5.4958427771962040e-02 1.5059945873407976e-01 0.0000000000000000e+00 1
-1.9072333959228499e-02 -7.8526655150767566e-02 0.0000000000000000e+00 1
9.6273516060856615e-02 3.2088333108414319e-01 0.0000000000000000e+00 1
-8.9118951301404833e-02 -2.9056561505843087e-01 0.0000000000000000e+00 1
-1.0474261902407899e-02 -5.3863413892027125e-02 0.0000000000000000e+00 1
2.2915473888444504e-02 8.8513220681670793e-02 0.0000000000000000e+00 1
2.7418617386033767e-02 1.0242472493021404e-01 0.0000000000000000e+00 1
8.8350132604992943e-02 2.6868973966807441e-01 0.0000000000000000e+00 1
-1.6041863254170805e-03 -3.0037566238572948e-02 0.0000000000000000e+00 1
7.4812809508372297e-02 2.1762825911811162e-01 0.0000000000000000e+00 1
6.4509527372122117e-03 -5.6348660363400322e-03 0.0000000000000000e+00 1
6.8985579803179403e-02 1.9582650999772522e-01 0.0000000000000000e+00 1
1.3482131479687475e-02 1.8933229060246921e-02 0.0000000000000000e+00 1
6.2578960743592024e-02 1.7347838619581971e-01 0.0000000000000000e+00 1
-8.6582886390389219e-02 -2.7506957246019748e-01 0.0000000000000000e+00 1
2.2380003922838624e-02 4.3211551779375829e-02 0.0000000000000000e+00 1
3.0165097593420547e-02 6.7509344396160395e-02 0.0000000000000000e+00 1
4.6830631690288581e-02 1.1468054882141465e-01 0.0000000000000000e+00 1
3.7002741391036119e-02 9.1839865762193801e-02 0.0000000000000000e+00 1
-7.7001972736238405e-02 -2.1106528607117062e-01 0.0000000000000000e+00 1
-8.4299560772039442e-02 -2.5851845490298020e-01 0.0000000000000000e+00 1
-7.4394015684614789e-02 -1.9752009032550891e-01 0.0000000000000000e+00 1
1.3092488046536857e-02 5.7619842703708249e-02 0.0000000000000000e+00 1
-7.9148751881432139e-02 -2.2665956781460286e-01 0.0000000000000000e+00 1
3.6811392894694539e-02 1.3384998917955959e-01 0.0000000000000000e+00 1
-6.9909293567415570e-02 -2.0862786443474213e-01 0.0000000000000000e+00 1
-7.3561553041090202e-02 -1.8580148180035710e-01 0.0000000000000000e+00 1
5.6468119375093537e-02 1.9166030360750880e-01 0.0000000000000000e+00 1
9.1270735262487357e-02 3.0457492292477673e-01 0.0000000000000000e+00 1
-8.1667413649021303e-02 -2.4221517624583758e-01 0.0000000000000000e+00 1
-7.6094252860465159e-02 -2.5573478703421509e-01 0.0000000000000000e+00 1
8.1337751504146322e-02 2.7545840285783862e-01 0.0000000000000000e+00 1
7.7710647681536016e-02 2.2967091407908408e-01 0.0000000000000000e+00 1
7.8459177250827378e-02 2.6478172886974416e-01 0.0000000000000000e+00 1
5.1165725004702713e-02 1.3844257083808112e-01 0.0000000000000000e+00 1
-9.7824738392731370e-02 -3.3203656532476350e-01 0.0000000000000000e+00 1
7.0054894262945616e-02 2.4054884790772665e-01 0.0000000000000000e+00 1
-9.1064068311749374e-02 -2.9726449704675945e-01 0.0000000000000000e+00 1
-6.9639643381690416e-02 -2.0170103623425950e-01 0.0000000000000000e+00 1
8.5330140350235104e-02 2.4882538465493906e-01 0.0000000000000000e+00 1
8.4578076907952243e-02 2.8530356583157379e-01 0.0000000000000000e+00 1
-9.8167270842369328e-02 -3.3411792199314033e-01 0.0000000000000000e+00 1
-9.3441499828117627e-02 -3.1039763711794915e-01 0.0000000000000000e+00 1
-6.3309239601495412e-02 -1.5905936393119391e-01 0.0000000000000000e+00 1
-7.1501460316853685e-02 -2.1584092304112013e-01 0.0000000000000000e+00 1
1.0852167565216325e-01 3.5113057991943764e-01 0.0000000000000000e+00 1
-6.7931285362195781e-02 -1.8355227325871343e-01 0.0000000000000000e+00 1
-9.1779916874625445e-02 -3.0344840153951208e-01 0.0000000000000000e+00 1
-9.6439147166201944e-02 -3.2579121953871093e-01 0.0000000000000000e+00 1
-5.6119187728107554e-02 -1.7184238021252946e-01 0.0000000000000000e+00 1
-6.8867122354597257e-02 -1.8891588732440245e-01 0.0000000000000000e+00 1
8.7696383620411794e-02 2.9474790462432443e-01 0.0000000000000000e+00 1
-7.8852926596060774e-02 -2.6457747579631063e-01 0.0000000000000000e+00 1
9.8352854534012157e-02 3.0671593700733801e-01 0.0000000000000000e+00 1
-4.9503637072738901e-02 -1.5225304876609502e-01 0.0000000000000000e+00 1
1.0041464078817117e-01 3.1502604118486777e-01 0.0000000000000000e+00 1
1.0479178624452593e-01 3.3075485850333164e-01 0.0000000000000000e+00 1
1.0241146996508405e-01 3.2313060766850682e-01 0.0000000000000000e+00 1
-4.5591642503344819e-02 -1.4102372207775529e-01 0.0000000000000000e+00 1
1.0726530337817702e-01 3.5377812670339304e-01 0.0000000000000000e+00 1
1.0818177398906814e-01 3.5441747801700568e-01 0.0000000000000000e+00 1
-9.4989622289625500e-02 -3.1692754023932446e-01 0.0000000000000000e+00 1
-4.9912468389792665e-02 -1.7930974626021348e-01 0.0000000000000000e+00 1
-9.6492392861560639e-02 -3.2156806464156129e-01 0.0000000000000000e+00 1
-9.7754213950337981e-02 -3.2943899130614196e-01 0.0000000000000000e+00 1
-4.1690692664418556e-02 -1.2970596405440502e-01 0.0000000000000000e+00 1
-9.8335175590323828e-02 -3.3506157188798263e-01 0.0000000000000000e+00 1
-8.0752326280675843e-02 -2.7195791980063233e-01 0.0000000000000000e+00 1
1.0714475094535938e-01 3.4324980956123086e-01 0.0000000000000000e+00 1
-7.6722597030218526e-02 -2.3900807600341178e-01 0.0000000000000000e+00 1
-7.3170984641791406e-02 -2.2384130927840948e-01 0.0000000000000000e+00 1
1.0493253932972227e-01 3.4897156746989710e-01 0.0000000000000000e+00 1
-2.1148308055954426e-03 -9.5981811304467549e-03 0.0000000000000000e+00 1
1.0604439424452633e-01 3.3756024798227990e-01 0.0000000000000000e+00 1
2.1936064295964404e-02 6.3448611474582362e-02 0.0000000000000000e+00 1
-3.7464490624287028e-02 -1.1856489916192306e-01 0.0000000000000000e+00 1
5.5304688390787539e-02 1.8159839929445445e-01 0.0000000000000000e+00 1

Edges
146
1 2 1
2 3 1
3 4 1
4 5 1
5 6 1
6 7 1
7 8 1
8 9 1
9 10 1
10 11 1
11 12 1
12 13 1
13 14 1
14 15 1
15 16 1
16 17 1
17 18 1
18 19 1
19 20 1
20 21 1
21 22 1
22 23 1
23 24 1
24 25 1
25 26 1
26 27 1
27 28 1
28 29 1
29 30 1
30 31 1
31 32 1
32 33 1
33 34 1
34 35 1
35 36 1
36 37 1
37 38 1
38 39 1
39 40 1
40 41 1
41 42 1
42 43 1
43 44 1
44 45 1
45 46 1
46 47 1
47 48 1
48 49 1
49 50 1
50 51 1
51 52 1
52 53 1
53 54 1
54 55 1
55 56 1
56 57 1
57 58 1
58 59 1
59 60 1
60 61 1
61 62 1
62 63 1
63 64 1
64 65 1
65 66 1
66 67 1
67 68 1
68 69 1
69 70 1
70 71 1
71 72 1
72 73 1
73 74 1
74 75 1
75 76 1
76 77 1
77 78 1
78 79 1
79 80 1
80 81 1
81 82 1
82 83 1
83 84 1
84 85 1
85 86 1
86 87 1
87 88 1
88 89 1
89 90 1
90 91 1
91 92 1
92 93 1
93 94 1
94 95 1
95 96 1
96 97 1
97 98 1
98 99 1
99 100 1
100 101 1
101 102 1
102 103 1
103 104 1
104 105 1
105 106 1
106 107 1
107 108 1
108 109 1
109 110 1
110 111 1
111 112 1
112 113 1
113 114 1
114 115 1
115 116 1
116 117 1
117 118 1
118 119 1
119 120 1
120 121 1
121 122 1
122 123 1
123 124 1
124 125 1
125 126 1
126 127 1
127 128 1
128 129 1
129 130 1
130 131 1
131 132 1
132 133 1
133 134 1
134 135 1
135 136 1
136 137 1
137 138 1
138 139 1
139 140 1
140 141 1
141 142 1
142 143 1
143 144 1
144 145 1
145 146 1
146 1 1

Triangles
456
161 197 243 1
197 161 250 1
267 26 292 1
190 148 247 1
182 179 271 1
249 211 296 1
184 156 212 1
193 203 272 1
154 211 249 1
193 150 203 1
148 190 276 1
179 95 271 1
156 184 218 1
187 163 220 1
158 223 234 1
258 169 262 1
198 36 240 1
174 189 251 1
223 188 234 1
196 212 227 1
222 152 269 1
206 155 218 1
196 160 208 1
113 202 259 1
202 172 259 1
167 197 232 1
176 258 262 1
212 156 227 1
162 188 207 1
168 199 225 1
210 211 295 1
254 109 277 1
251 189 264 1
35 36 198 1
28 29 267 1
152 222 280 1
169 202 262 1
174 43 189 1
25 26 267 1
163 187 236 1
194 165 231 1
202 169 265 1
160 196 227 1
207 208 230 1
182 171 285 1
31 287 289 1
275 193 288 1
188 162 234 1
241 159 248 1
181 254 277 1
193 192 288 1
195 185 294 1
52 53 218 1
166 200 213 1
209 170 219 1
123 197 250 1
210 40 211 1
184 206 218 1
200 241 248 1
162 207 230 1
199 120 225 1
240 36 293 1
208 160 230 1
211 204 296 1
189 157 190 1
30 274 290 1
194 248 300 1
221 152 280 1
194 127 248 1
190 157 191 1
42 174 204 1
213 220 238 1
253 119 302 1
232 231 244 1
192 45 288 1
94 95 179 1
197 124 232 1
100 101 182 1
100 182 285 1
44 157 189 1
165 194 242 1
96 97 171 1
119 199 302 1
221 280 284 1
150 193 275 1
99 100 285 1
250 161 260 1
157 45 192 1
117 209 219 1
175 250 260 1
164 237 253 1
35 198 229 1
197 167 243 1
131 187 220 1
178 47 205 1
155 52 218 1
146 1 203 1
44 45 157 1
231 165 244 1
210 173 256 1
220 163 238 1
95 96 271 1
187 132 223 1
195 179 297 1
34 35 229 1
190 247 264 1
53 156 218 1
34 229 263 1
237 209 253 1
73 74 226 1
204 174 270 1
294 185 299 1
166 213 238 1
42 43 174 1
41 42 204 1
189 190 264 1
136 196 208 1
43 44 189 1
200 166 241 1
102 103 195 1
102 195 297 1
200 129 213 1
138 184 212 1
181 88 279 1
178 205 222 1
51 155 215 1
140 141 216 1
48 180 205 1
199 168 239 1
188 134 207 1
141 153 216 1
46 47 178 1
139 140 206 1
191 193 272 1
167 232 244 1
126 194 231 1
119 120 199 1
115 116 176 1
31 32 287 1
137 138 212 1
121 122 175 1
217 282 299 1
113 114 202 1
34 263 273 1
123 124 197 1
74 168 226 1
135 136 208 1
207 135 208 1
47 48 205 1
41 204 211 1
126 127 194 1
190 191 276 1
206 140 216 1
196 137 212 1
103 104 185 1
128 129 200 1
131 132 187 1
40 41 211 1
33 34 273 1
155 206 301 1
24 25 261 1
48 49 180 1
184 139 206 1
134 135 207 1
133 134 188 1
39 210 256 1
136 137 196 1
39 40 210 1
117 118 209 1
107 108 186 1
115 176 262 1
138 139 184 1
93 94 294 1
180 49 214 1
120 121 225 1
50 51 215 1
103 185 195 1
129 130 213 1
130 131 220 1
107 186 228 1
124 125 232 1
116 117 219 1
1 147 203 1
141 142 153 1
214 50 215 1
153 221 284 1
51 52 155 1
168 225 226 1
176 116 219 1
87 88 181 1
105 201 217 1
49 50 214 1
121 175 225 1
191 192 193 1
202 114 262 1
132 133 223 1
45 46 288 1
112 113 259 1
143 144 152 1
16 17 229 1
191 157 192 1
282 92 299 1
142 143 221 1
213 130 220 1
176 219 235 1
53 54 156 1
133 188 223 1
105 106 201 1
170 209 237 1
187 223 298 1
127 128 248 1
122 123 250 1
222 205 280 1
172 202 265 1
85 86 177 1
153 142 221 1
254 181 279 1
92 93 299 1
28 267 292 1
179 195 294 1
54 55 227 1
108 109 254 1
55 56 160 1
145 146 150 1
86 87 224 1
153 284 291 1
173 210 255 1
118 119 253 1
156 54 227 1
29 30 261 1
79 80 235 1
87 181 224 1
171 182 271 1
83 84 172 1
56 57 230 1
216 153 291 1
57 58 162 1
91 92 282 1
125 126 231 1
81 82 169 1
143 152 221 1
84 85 233 1
93 294 299 1
55 160 227 1
106 107 228 1
58 59 234 1
59 60 158 1
128 200 248 1
125 231 232 1
101 102 297 1
216 291 301 1
61 62 163 1
78 79 170 1
60 61 236 1
177 86 224 1
175 122 250 1
15 16 198 1
76 77 164 1
63 64 166 1
160 56 230 1
94 179 294 1
62 63 238 1
74 75 168 1
9 10 154 1
13 14 183 1
104 105 217 1
65 66 159 1
71 72 161 1
67 68 165 1
69 70 167 1
5 6 149 1
64 65 241 1
3 4 148 1
77 78 237 1
11 12 173 1
7 8 151 1
66 67 242 1
75 76 239 1
68 69 244 1
70 71 243 1
14 15 240 1
57 162 230 1
12 13 246 1
85 177 233 1
225 175 226 1
8 9 249 1
185 217 299 1
219 170 235 1
150 146 203 1
10 11 255 1
162 58 234 1
72 73 260 1
73 226 260 1
6 7 245 1
282 201 283 1
36 37 293 1
172 84 233 1
59 158 234 1
109 110 277 1
204 270 296 1
22 23 274 1
150 222 269 1
158 60 236 1
4 5 247 1
61 163 236 1
176 235 258 1
170 79 235 1
163 62 238 1
63 166 238 1
152 144 269 1
80 81 258 1
166 64 241 1
186 108 254 1
252 148 276 1
17 18 263 1
78 170 237 1
65 159 241 1
111 112 257 1
164 77 237 1
222 150 275 1
198 16 229 1
159 66 242 1
67 165 242 1
76 164 239 1
209 118 253 1
235 80 258 1
168 75 239 1
165 68 244 1
69 167 244 1
167 70 243 1
71 161 243 1
81 169 258 1
2 3 252 1
110 111 266 1
171 97 286 1
13 183 246 1
226 175 260 1
183 14 240 1
173 12 246 1
206 216 301 1
15 198 240 1
154 10 255 1
11 173 255 1
9 154 249 1
169 82 265 1
272 252 276 1
83 172 265 1
114 115 262 1
151 8 249 1
229 17 263 1
37 38 278 1
201 106 228 1
1 2 147 1
7 151 245 1
179 182 297 1
182 101 297 1
5 149 247 1
38 39 256 1
149 6 245 1
145 150 269 1
91 282 283 1
233 177 257 1
161 72 260 1
211 154 295 1
173 246 256 1
19 20 268 1
82 83 265 1
46 178 288 1
144 145 269 1
185 104 217 1
215 155 301 1
279 89 281 1
257 177 266 1
172 233 259 1
217 201 282 1
149 245 251 1
23 24 290 1
18 19 273 1
88 89 279 1
148 4 247 1
32 33 268 1
177 224 266 1
3 148 252 1
261 25 267 1
280 180 284 1
89 90 281 1
97 98 286 1
205 180 280 1
291 215 301 1
178 222 275 1
178 275 288 1
274 23 290 1
233 257 259 1
111 257 266 1
186 279 281 1
110 266 277 1
257 112 259 1
147 2 252 1
228 186 281 1
263 18 273 1
224 181 277 1
24 261 290 1
90 91 283 1
266 224 277 1
37 278 293 1
180 214 284 1
20 21 287 1
247 149 264 1
149 251 264 1
21 22 289 1
256 246 278 1
223 158 298 1
214 215 291 1
29 261 267 1
147 252 272 1
98 99 286 1
284 214 291 1
248 159 300 1
19 268 273 1
246 183 278 1
245 151 270 1
186 254 279 1
251 245 270 1
268 20 287 1
27 28 292 1
174 251 270 1
96 171 271 1
22 274 289 1
38 256 278 1
236 187 298 1
164 253 302 1
201 228 283 1
278 183 293 1
287 21 289 1
228 281 283 1
158 236 298 1
270 151 296 1
26 27 292 1
261 30 290 1
242 194 300 1
183 240 293 1
239 164 302 1
159 242 300 1
151 249 296 1
154 255 295 1
281 90 283 1
268 33 273 1
199 239 302 1
191 272 276 1
99 285 286 1
255 210 295 1
32 268 287 1
274 31 289 1
285 171 286 1
30 31 274 1
203 147 272 1

End
