MeshVersionFormatted 2
Dimension 3

Vertices
771
1.8062674244717955e-01 -8.0261034910068266e-02 0.0000000000000000e+00 1
1.8501141081801153e-01 -7.8045148441241469e-02 0.0000000000000000e+00 1
1.8833678027707093e-01 -7.5420957237069194e-02 0.0000000000000000e+00 1
1.9064740642511105e-01 -7.2412061910674716e-02 0.0000000000000000e+00 1
1.9198784486288542e-01 -6.9042063075181501e-02 0.0000000000000000e+00 1
1.9240265119114716e-01 -6.5334561343712738e-02 0.0000000000000000e+00 1
1.9193638101064961e-01 -6.1313157329391792e-02 0.0000000000000000e+00 1
1.9063358992214616e-01 -5.7001451645342018e-02 0.0000000000000000e+00 1
1.8853883352639017e-01 -5.2423044904686765e-02 0.0000000000000000e+00 1
1.8569666742413490e-01 -4.7601537720549279e-02 0.0000000000000000e+00 1
1.8215164721613364e-01 -4.2560530706052944e-02 0.0000000000000000e+00 1
1.7794832850313969e-01 -3.7323624474321040e-02 0.0000000000000000e+00 1
1.7313126688590647e-01 -3.1914419638476951e-02 0.0000000000000000e+00 1
1.6774501796518726e-01 -2.6356516811643985e-02 0.0000000000000000e+00 1
1.6183413734173530e-01 -2.0673516606945413e-02 0.0000000000000000e+00 1
1.5544318061630411e-01 -1.4889019637504627e-02 0.0000000000000000e+00 1
1.4861670338964683e-01 -9.0266265164449608e-03 0.0000000000000000e+00 1
1.4139926126251687e-01 -3.1099378568897017e-03 0.0000000000000000e+00 1
1.3383540983566752e-01 2.8374457280378254e-03 0.0000000000000000e+00 1
1.2596970470985203e-01 8.7919236252142988e-03 0.0000000000000000e+00 1
1.1784670148582384e-01 1.4729895221516352e-02 0.0000000000000000e+00 1
1.0951095576433624e-01 2.0627759903820680e-02 0.0000000000000000e+00 1
1.0100702314614247e-01 2.6461917059003991e-02 0.0000000000000000e+00 1
9.2379459231996031e-02 3.2208766073942900e-02 0.0000000000000000e+00 1
8.3672819622650080e-02 3.7844706335514108e-02 0.0000000000000000e+00 1
7.4931659918857987e-02 4.3346137230594280e-02 0.0000000000000000e+00 1
6.6200535721373119e-02 4.8689458146060120e-02 0.0000000000000000e+00 1
5.7524002630948694e-02 5.3851068468788281e-02 0.0000000000000000e+00 1
4.8946616248338126e-02 5.8807367585655426e-02 0.0000000000000000e+00 1
4.0512932174294726e-02 6.3534754883538241e-02 0.0000000000000000e+00 1
3.2267506009571734e-02 6.8009629749313433e-02 0.0000000000000000e+00 1
2.4254893354922584e-02 7.2208391569857588e-02 0.0000000000000000e+00 1
1.6519649811100552e-02 7.6107439732047449e-02 0.0000000000000000e+00 1
9.1063309788589394e-03 7.9683173622759687e-02 0.0000000000000000e+00 1
2.0594924589510920e-03 8.2911992628870945e-02 0.0000000000000000e+00 1
-4.5763101478697096e-03 8.5770296137257923e-02 0.0000000000000000e+00 1
-1.0756521240850084e-02 8.8234483534797292e-02 0.0000000000000000e+00 1
-1.6436585219236740e-02 9.0280954208365710e-02 0.0000000000000000e+00 1
-2.1571946482276373e-02 9.1886107544839876e-02 0.0000000000000000e+00 1
-2.5940686099910522e-02 9.2833906377566180e-02 0.0000000000000000e+00 1
-3.0977077971018549e-02 9.3408994550583255e-02 0.0000000000000000e+00 1
-3.6618891793707663e-02 9.3628363751101090e-02 0.0000000000000000e+00 1
-4.2803897266085092e-02 9.3509005666329803e-02 0.0000000000000000e+00 1
-4.9469864086258059e-02 9.3067911983479371e-02 0.0000000000000000e+00 1
-5.6554561952333743e-02 9.2322074389759826e-02 0.0000000000000000e+00 1
-6.3995760562419415e-02 9.1288484572381215e-02 0.0000000000000000e+00 1
-7.1731229614622263e-02 8.9984134218553571e-02 0.0000000000000000e+00 1
-7.9698738807049502e-02 8.8426015015486928e-02 0.0000000000000000e+00 1
-8.7836057837808346e-02 8.6631118650391345e-02 0.0000000000000000e+00 1
-9.6080956405006024e-02 8.4616436810476758e-02 0.0000000000000000e+00 1
-1.0437120420674972e-01 8.2398961182953298e-02 0.0000000000000000e+00 1
-1.1264457094114669e-01 7.9995683455030983e-02 0.0000000000000000e+00 1
-1.2083882630630413e-01 7.7423595313919805e-02 0.0000000000000000e+00 1
-1.2889174000032927e-01 7.4699688446829837e-02 0.0000000000000000e+00 1
-1.3674108172132932e-01 7.1840954540971100e-02 0.0000000000000000e+00 1
-1.4432462116741146e-01 6.8864385283553625e-02 0.0000000000000000e+00 1
-1.5158012803668297e-01 6.5786972361787432e-02 0.0000000000000000e+00 1
-1.5844537202725104e-01 6.2625707462882582e-02 0.0000000000000000e+00 1
-1.6485812283722287e-01 5.9397582274049079e-02 0.0000000000000000e+00 1
-1.7075615016470572e-01 5.6119588482496971e-02 0.0000000000000000e+00 1
-1.7607722370780676e-01 5.2808717775436283e-02 0.0000000000000000e+00 1
-1.8075911316463322e-01 4.9481961840077061e-02 0.0000000000000000e+00 1
-1.8473958823329228e-01 4.6156312363629333e-02 0.0000000000000000e+00 1
-1.8795641861189125e-01 4.2848761033303137e-02 0.0000000000000000e+00 1
-1.9034737399853727e-01 3.9576299536308507e-02 0.0000000000000000e+00 1
-1.9185022409133756e-01 3.6355919559855433e-02 0.0000000000000000e+00 1
-1.9240273858839935e-01 3.3204612791154012e-02 0.0000000000000000e+00 1
-1.9194268718782992e-01 3.0139370917414240e-02 0.0000000000000000e+00 1
-1.9040783958773635e-01 2.7177185625846152e-02 0.0000000000000000e+00 1
-1.8773596548622598e-01 2.4335048603659794e-02 0.0000000000000000e+00 1
-1.8285616495730783e-01 2.0315474292280734e-02 0.0000000000000000e+00 1
-1.7761058615343933e-01 1.6251211091070625e-02 0.0000000000000000e+00 1
-1.7201468945874232e-01 1.2150596110423734e-02 0.0000000000000000e+00 1
-1.6608393525733875e-01 8.0219664607343102e-03 0.0000000000000000e+00 1
-1.5983378393335049e-01 3.8736592523966173e-03 0.0000000000000000e+00 1
-1.5327969587089946e-01 -2.8598840419508630e-04 0.0000000000000000e+00 1
-1.4643713145410756e-01 -4.4486393986465488e-03 0.0000000000000000e+00 1
-1.3932155106709671e-01 -8.6059566205634961e-03 0.0000000000000000e+00 1
-1.3194841509398883e-01 -1.2749602959551682e-02 0.0000000000000000e+00 1
-1.2433318391890576e-01 -1.6871241305216861e-02 0.0000000000000000e+00 1
-1.1649131792596941e-01 -2.0962534547164756e-02 0.0000000000000000e+00 1
-1.0843827749930168e-01 -2.5015145575001098e-02 0.0000000000000000e+00 1
-1.0018952302302457e-01 -2.9020737278331661e-02 0.0000000000000000e+00 1
-9.1760514881259803e-02 -3.2970972546762158e-02 0.0000000000000000e+00 1
-8.3166713458129468e-02 -3.6857514269898348e-02 0.0000000000000000e+00 1
-7.4423579137755352e-02 -4.0672025337345971e-02 0.0000000000000000e+00 1
-6.5546572304259379e-02 -4.4406168638710754e-02 0.0000000000000000e+00 1
-5.6551153341763478e-02 -4.8051607063598449e-02 0.0000000000000000e+00 1
-4.7452782634389477e-02 -5.1600003501614804e-02 0.0000000000000000e+00 1
-3.8266920566259424e-02 -5.5043020842365585e-02 0.0000000000000000e+00 1
-2.9009027521495048e-02 -5.8372321975456463e-02 0.0000000000000000e+00 1
-1.9694563884218357e-02 -6.1579569790493248e-02 0.0000000000000000e+00 1
-1.0338990038551236e-02 -6.4656427177081630e-02 0.0000000000000000e+00 1
-9.5776636861557955e-04 -6.7594557024827390e-02 0.0000000000000000e+00 1
8.4336467414667191e-03 -7.0385622223336233e-02 0.0000000000000000e+00 1
1.7819788907573741e-02 -7.3021285662213956e-02 0.0000000000000000e+00 1
2.7185199745583595e-02 -7.5493210231066241e-02 0.0000000000000000e+00 1
3.6514418871374431e-02 -7.7793058819498870e-02 0.0000000000000000e+00 1
4.5791985900824235e-02 -7.9912494317117583e-02 0.0000000000000000e+00 1
5.5002440449811181e-02 -8.1843179613528091e-02 0.0000000000000000e+00 1
6.4130322134213338e-02 -8.3576777598336177e-02 0.0000000000000000e+00 1
7.3160170569908825e-02 -8.5104951161147510e-02 0.0000000000000000e+00 1
8.2076525372775738e-02 -8.6419363191567941e-02 0.0000000000000000e+00 1
9.0863926158692154e-02 -8.7511676579203126e-02 0.0000000000000000e+00 1
9.9506912543536191e-02 -8.8373554213658820e-02 0.0000000000000000e+00 1
1.0799002414318594e-01 -8.8996658984540802e-02 0.0000000000000000e+00 1
1.1629780057351956e-01 -8.9372653781454772e-02 0.0000000000000000e+00 1
1.2441478145041505e-01 -8.9493201494006511e-02 0.0000000000000000e+00 1
1.3232550638975057e-01 -8.9349965011801730e-02 0.0000000000000000e+00 1
1.4001451500740414e-01 -8.8934607224446183e-02 0.0000000000000000e+00 1
1.4746634691925398e-01 -8.8238791021545609e-02 0.0000000000000000e+00 1
1.5466554174117808e-01 -8.7254179292705750e-02 0.0000000000000000e+00 1
1.6159663908905458e-01 -8.5972434927532329e-02 0.0000000000000000e+00 1
1.6824417857876164e-01 -8.4385220815631129e-02 0.0000000000000000e+00 1
1.7459269982617726e-01 -8.2484199846607847e-02 0.0000000000000000e+00 1
-3.3668473168153357e-02 8.9093076099008420e-02 0.0000000000000000e+00 1
-3.3788405885286530e-03 7.9535287277845840e-02 0.0000000000000000e+00 1
-6.6790962087213801e-02 -3.5323878116575308e-02 0.0000000000000000e+00 1
-3.0794702318157230e-02 -4.8818589125635560e-02 0.0000000000000000e+00 1
-5.9556413111239284e-02 8.6051213054251979e-02 0.0000000000000000e+00 1
2.5626339210999261e-02 6.3099617389579782e-02 0.0000000000000000e+00 1
6.0901950418420798e-03 -6.1061896592350139e-02 0.0000000000000000e+00 1
-9.0283026140560468e-02 7.8391195996080923e-02 0.0000000000000000e+00 1
4.2978470463924216e-02 -7.0862891073910528e-02 0.0000000000000000e+00 1
5.7412809646340143e-02 4.3770174812370964e-02 0.0000000000000000e+00 1
-1.0072222887158663e-01 -1.9046619570287499e-02 0.0000000000000000e+00 1
7.8746704213226243e-02 -7.8107917589514617e-02 0.0000000000000000e+00 1
-1.2252676290233164e-01 6.9148078872608931e-02 0.0000000000000000e+00 1
9.0175570181530190e-02 2.2533894951742139e-02 0.0000000000000000e+00 1
1.1299092375129893e-01 -8.2058241737069187e-02 0.0000000000000000e+00 1
1.1824815953661501e-01 4.1263132179774446e-03 0.0000000000000000e+00 1
-1.3130416722819968e-01 -3.7679951300925449e-03 0.0000000000000000e+00 1
1.4380966317069968e-01 -8.2262721336860828e-02 0.0000000000000000e+00 1
1.4076087527149861e-01 -1.1449703612546162e-02 0.0000000000000000e+00 1
-1.5321246946506645e-01 7.1608157749293057e-03 0.0000000000000000e+00 1
-1.4515521202208964e-01 6.0796876879870981e-02 0.0000000000000000e+00 1
1.6045795161667775e-01 -2.7771532372092296e-02 0.0000000000000000e+00 1
1.7570124638830409e-01 -4.3432525116947444e-02 0.0000000000000000e+00 1
1.8576008656844237e-01 -5.6249545971008355e-02 0.0000000000000000e+00 1
-1.7052255817558712e-01 4.9579577879042658e-02 0.0000000000000000e+00 1
1.6272675898320921e-01 -7.9959212064036639e-02 0.0000000000000000e+00 1
-1.8684644492346211e-01 3.9341899309300807e-02 0.0000000000000000e+00 1
-2.0276812278488487e-02 8.7012277693558793e-02 0.0000000000000000e+00 1
-1.7171458971151371e-01 1.8651205030015286e-02 0.0000000000000000e+00 1
1.8115623017436128e-01 -7.5537807928200376e-02 0.0000000000000000e+00 1
9.7901382563292220e-03 7.1851903427093758e-02 0.0000000000000000e+00 1
4.1303100649484059e-02 5.3706808672805646e-02 0.0000000000000000e+00 1
7.5105294193471214e-02 3.2247899275998838e-02 0.0000000000000000e+00 1
-4.9060325906178162e-02 -4.2322438227052984e-02 0.0000000000000000e+00 1
-1.1742262080080065e-01 -1.1875864481438115e-02 0.0000000000000000e+00 1
-8.3824217781657342e-02 -2.7926787948691988e-02 0.0000000000000000e+00 1
-7.4478225620632305e-02 8.4097272110643828e-02 0.0000000000000000e+00 1
-1.2592832171003446e-02 -5.4029862111332393e-02 0.0000000000000000e+00 1
2.4597619499149764e-02 -6.6296749073596672e-02 0.0000000000000000e+00 1
6.1056991429802192e-02 -7.4861496377324074e-02 0.0000000000000000e+00 1
-1.0651171324854482e-01 7.4329911778931806e-02 0.0000000000000000e+00 1
9.6158161827060801e-02 -8.0468866942355027e-02 0.0000000000000000e+00 1
-1.5853498480167216e-01 5.5296370568583240e-02 0.0000000000000000e+00 1
-4.6536087570391863e-02 8.7689108622808737e-02 0.0000000000000000e+00 1
1.2843699625432137e-01 -8.2019094537232759e-02 0.0000000000000000e+00 1
-1.8286576521000178e-01 2.6033622130412656e-02 0.0000000000000000e+00 1
1.8908436846671697e-01 -6.6715108086886701e-02 0.0000000000000000e+00 1
-1.8017021958409848e-01 4.3969391373049366e-02 0.0000000000000000e+00 1
-1.8935901483819323e-01 3.2467749666561380e-02 0.0000000000000000e+00 1
1.8694364571625016e-01 -7.1959475811242249e-02 0.0000000000000000e+00 1
-1.8678867900346402e-01 2.7902560364864337e-02 0.0000000000000000e+00 1
-1.8521625165535444e-01 3.1132816746289472e-02 0.0000000000000000e+00 1
-1.7942770089399435e-01 3.0350913651419210e-02 0.0000000000000000e+00 1
-1.8139613645436301e-01 3.5096647878378504e-02 0.0000000000000000e+00 1
-1.7563508494718527e-01 3.4772499673186151e-02 0.0000000000000000e+00 1
-1.7369530028503205e-01 2.9278519471072715e-02 0.0000000000000000e+00 1
-1.6958076587399160e-01 3.4043913001737806e-02 0.0000000000000000e+00 1
-1.6742036644652486e-01 2.7978412888516917e-02 0.0000000000000000e+00 1
-1.6302288920475336e-01 3.3022045593439339e-02 0.0000000000000000e+00 1
-1.6064150092223228e-01 2.6534295551768731e-02 0.0000000000000000e+00 1
-1.5593010652529177e-01 3.2268042682575986e-02 0.0000000000000000e+00 1
-1.5351358324649012e-01 2.5068467812880718e-02 0.0000000000000000e+00 1
-1.4859975686057700e-01 3.1119640332011048e-02 0.0000000000000000e+00 1
-1.4609794413940042e-01 2.3564301425961474e-02 0.0000000000000000e+00 1
-1.4116250959985757e-01 2.9412329581108253e-02 0.0000000000000000e+00 1
-1.3848140190748559e-01 2.1997691150297084e-02 0.0000000000000000e+00 1
-1.3326668630680294e-01 2.8056507387210300e-02 0.0000000000000000e+00 1
-1.3053383207370123e-01 2.0419914672259770e-02 0.0000000000000000e+00 1
-1.2519613025708279e-01 2.6671768526839786e-02 0.0000000000000000e+00 1
-1.2245431770321535e-01 1.8873802435770574e-02 0.0000000000000000e+00 1
-1.1702777538070538e-01 2.5201283500256438e-02 0.0000000000000000e+00 1
-1.1425951320557254e-01 1.7318462570558964e-02 0.0000000000000000e+00 1
-1.0881424969288361e-01 2.3700050986581442e-02 0.0000000000000000e+00 1
-1.1161258282026527e-01 3.1570756267938080e-02 0.0000000000000000e+00 1
-1.0339601586363206e-01 3.0056115023408408e-02 0.0000000000000000e+00 1
-1.0058068798057065e-01 2.2233311071312968e-02 0.0000000000000000e+00 1
-9.5194517254692829e-02 2.8543760253382348e-02 0.0000000000000000e+00 1
-9.2419466591865562e-02 2.0733435576116951e-02 0.0000000000000000e+00 1
-8.7106303349907627e-02 2.6708377685076352e-02 0.0000000000000000e+00 1
-8.4295771486071730e-02 1.9193259858580176e-02 0.0000000000000000e+00 1
-7.8956363074336455e-02 2.5356331631872002e-02 0.0000000000000000e+00 1
-7.6194502115573340e-02 1.7720843199937296e-02 0.0000000000000000e+00 1
-7.0908631447083995e-02 2.3689935025424578e-02 0.0000000000000000e+00 1
-6.8109823384214327e-02 1.6195954423939996e-02 0.0000000000000000e+00 1
-6.2739146606023311e-02 2.2511869496202534e-02 0.0000000000000000e+00 1
-6.0184606461725548e-02 1.4902029309994043e-02 0.0000000000000000e+00 1
-5.4618544461270437e-02 2.1055515922336256e-02 0.0000000000000000e+00 1
-5.1747073531112152e-02 1.2246928447335442e-02 0.0000000000000000e+00 1
-4.6363253235405674e-02 1.9419630691215564e-02 0.0000000000000000e+00 1
-4.3560361662097057e-02 1.1668703084972743e-02 0.0000000000000000e+00 1
-3.8119840966801419e-02 1.8107501516262170e-02 0.0000000000000000e+00 1
-3.5310807963759107e-02 1.0170059427023825e-02 0.0000000000000000e+00 1
-2.9945845690712236e-02 1.6630366366769487e-02 0.0000000000000000e+00 1
-2.7208421118183796e-02 8.4922535487127991e-03 0.0000000000000000e+00 1
-4.1077720212051506e-02 2.5977423526247493e-02 0.0000000000000000e+00 1
-2.1461656826486389e-02 1.5079509468785316e-02 0.0000000000000000e+00 1
-1.8613874419142022e-02 6.7461731657021719e-03 0.0000000000000000e+00 1
-1.2536065761646504e-02 1.3954761568060152e-02 0.0000000000000000e+00 1
-9.5834300332578344e-03 5.2755331523369146e-03 0.0000000000000000e+00 1
-3.6137261973183971e-03 1.2874927806034645e-02 0.0000000000000000e+00 1
-7.2824314968849072e-04 3.6957564431194471e-03 0.0000000000000000e+00 1
-6.6226435547617341e-02 3.0714378542427135e-02 0.0000000000000000e+00 1
5.2335780346353120e-03 1.1006745788111033e-02 0.0000000000000000e+00 1
8.2066524402756511e-03 1.9595311867768601e-03 0.0000000000000000e+00 1
-1.6289623417937611e-02 2.2296201522601748e-02 0.0000000000000000e+00 1
1.4171600092303742e-02 8.9706083087320154e-03 0.0000000000000000e+00 1
1.7273331544764427e-02 2.0750793147779421e-04 0.0000000000000000e+00 1
1.1237750861625123e-02 -6.8414561920411609e-03 0.0000000000000000e+00 1
2.0398383603390434e-02 -8.5473545038313135e-03 0.0000000000000000e+00 1
2.6436737692732006e-02 -1.4495855331242511e-03 0.0000000000000000e+00 1
2.9611892482659431e-02 -1.0279884159660895e-02 0.0000000000000000e+00 1
3.5715503827996861e-02 -3.0572002939839990e-03 0.0000000000000000e+00 1
3.8911194505976215e-02 -1.2012605856755457e-02 0.0000000000000000e+00 1
4.5081830673660339e-02 -4.7549746027682896e-03 0.0000000000000000e+00 1
4.8274889434843572e-02 -1.3741417186650572e-02 0.0000000000000000e+00 1
-1.6049903983163735e-02 -1.7975457544555716e-03 0.0000000000000000e+00 1
-8.9496747346302669e-02 3.4752554638788888e-02 0.0000000000000000e+00 1
1.1085648146272390e-02 1.8062928048165224e-02 0.0000000000000000e+00 1
-4.0760514165892353e-02 3.5929371360688038e-03 0.0000000000000000e+00 1
4.2083037485657115e-02 -2.0984011985399498e-02 0.0000000000000000e+00 1
5.1508283768558316e-02 -2.2750093026161419e-02 0.0000000000000000e+00 1
5.7650808896712036e-02 -1.5488071346743845e-02 0.0000000000000000e+00 1
6.0845854875716567e-02 -2.4482450664713787e-02 0.0000000000000000e+00 1
6.7055284509330335e-02 -1.7209620867686900e-02 0.0000000000000000e+00 1
7.0302553266656978e-02 -2.6214989348021651e-02 0.0000000000000000e+00 1
7.6481791759916123e-02 -1.8921964682437495e-02 0.0000000000000000e+00 1
7.9653846465389755e-02 -2.7946367472881629e-02 0.0000000000000000e+00 1
1.4336623434664453e-02 -1.5602380740365846e-02 0.0000000000000000e+00 1
-6.5390600475182137e-02 9.1420604949112774e-03 0.0000000000000000e+00 1
7.3523491204023850e-02 -3.5170176343030532e-02 0.0000000000000000e+00 1
8.2824741961733589e-02 -3.6902311961358708e-02 0.0000000000000000e+00 1
8.8919911775993371e-02 -2.9710290608187230e-02 0.0000000000000000e+00 1
9.2066519622130083e-02 -3.8559198352101733e-02 0.0000000000000000e+00 1
9.8104397490263562e-02 -3.1498406685861013e-02 0.0000000000000000e+00 1
1.0117679601031149e-01 -4.0250911029591725e-02 0.0000000000000000e+00 1
4.1846211708916316e-02 4.2593835992112286e-03 0.0000000000000000e+00 1
-1.0620211467487943e-01 3.7907889867809505e-02 0.0000000000000000e+00 1
5.1304516303331479e-02 2.5492808440289098e-03 0.0000000000000000e+00 1
4.5390006876215028e-02 -3.0002690242751311e-02 0.0000000000000000e+00 1
1.0716531159826310e-01 -3.3256921778235859e-02 0.0000000000000000e+00 1
1.1019118833748548e-01 -4.1876701668099911e-02 0.0000000000000000e+00 1
-1.2812840831678246e-01 3.4420164720935953e-02 0.0000000000000000e+00 1
-8.1519598308409436e-02 1.1439843527630176e-02 0.0000000000000000e+00 1
-9.7698719794453451e-02 1.4208799715881581e-02 0.0000000000000000e+00 1
9.5071836669366638e-02 -2.2630708041617827e-02 0.0000000000000000e+00 1
7.3310520196045351e-02 -9.8845042988161720e-03 0.0000000000000000e+00 1
1.1615734414947500e-01 -3.4926018815424717e-02 0.0000000000000000e+00 1
1.1909021419095334e-01 -4.3425150604555873e-02 0.0000000000000000e+00 1
7.6715437107320011e-02 -4.4046575652678180e-02 0.0000000000000000e+00 1
9.5023297165293244e-02 -4.7425624867255434e-02 0.0000000000000000e+00 1
1.1284554251779384e-01 -5.0637426801593388e-02 0.0000000000000000e+00 1
1.2169593625947109e-01 -5.1991073426826739e-02 0.0000000000000000e+00 1
1.2764007106721284e-01 -4.5165623836092343e-02 0.0000000000000000e+00 1
1.3034155237261397e-01 -5.3528675399768938e-02 0.0000000000000000e+00 1
1.3593173947435302e-01 -4.6916891024747900e-02 0.0000000000000000e+00 1
1.3873958067413078e-01 -5.4825680507372215e-02 0.0000000000000000e+00 1
4.8025771987520109e-02 1.1606459063701684e-02 0.0000000000000000e+00 1
1.4404364765588734e-01 -4.8537924735236999e-02 0.0000000000000000e+00 1
1.4678996382078349e-01 -5.6128942952924331e-02 0.0000000000000000e+00 1
1.1313895086330834e-01 -2.6317052014791415e-02 0.0000000000000000e+00 1
1.5187122020589985e-01 -5.0135781659281634e-02 0.0000000000000000e+00 1
1.5444374922988657e-01 -5.7378575597796216e-02 0.0000000000000000e+00 1
6.7440920912511679e-02 -4.2367312559276879e-02 0.0000000000000000e+00 1
3.5907953320314635e-02 -2.8219608289234324e-02 0.0000000000000000e+00 1
3.9061417086120681e-02 -3.7192831573283285e-02 0.0000000000000000e+00 1
2.9713011753776095e-02 -3.5451840065154769e-02 0.0000000000000000e+00 1
1.4181732225950042e-01 -4.0227796315249649e-02 0.0000000000000000e+00 1
5.7465283935924247e-02 9.8736548997149613e-03 0.0000000000000000e+00 1
5.1529734561526512e-03 -1.3902616207523389e-02 0.0000000000000000e+00 1
8.2510572689068057e-03 -2.2680493424983530e-02 0.0000000000000000e+00 1
-9.3911488081233898e-04 -2.0951087982442509e-02 0.0000000000000000e+00 1
3.8613483920939440e-02 1.3322194738503747e-02 0.0000000000000000e+00 1
-1.4397784832462315e-01 3.7716430091128350e-02 0.0000000000000000e+00 1
2.1477280841073047e-03 -2.9799361388084762e-02 0.0000000000000000e+00 1
-7.0654041365657812e-03 -2.8041677731391983e-02 0.0000000000000000e+00 1
1.2414925525663485e-01 -6.0699668257399850e-02 0.0000000000000000e+00 1
4.4746231054591232e-02 2.0668865572293971e-02 0.0000000000000000e+00 1
3.5350597450196898e-02 2.2378202508263365e-02 0.0000000000000000e+00 1
7.0575392594168687e-02 -5.1242371100378360e-02 0.0000000000000000e+00 1
6.1382143231332162e-02 -4.9547584455738265e-02 0.0000000000000000e+00 1
1.2214915573424129e-01 -2.8020956845831363e-02 0.0000000000000000e+00 1
1.4967378947807866e-01 -6.3308305272170295e-02 0.0000000000000000e+00 1
1.1904930720558050e-01 -1.9832746104484274e-02 0.0000000000000000e+00 1
1.5936955462216937e-01 -5.1635582025463186e-02 0.0000000000000000e+00 1
1.6181710735203769e-01 -5.8498350666499145e-02 0.0000000000000000e+00 1
-1.1970789133597720e-01 1.0925832225625855e-02 0.0000000000000000e+00 1
3.2880484224234535e-02 -4.4455887052831891e-02 0.0000000000000000e+00 1
2.3507086973595659e-02 -4.2697981086825432e-02 0.0000000000000000e+00 1
4.1428509044357888e-02 2.9702399956224840e-02 0.0000000000000000e+00 1
3.2006965066721016e-02 3.1291759465824215e-02 0.0000000000000000e+00 1
-1.5858092476712823e-01 3.8622662674743159e-02 0.0000000000000000e+00 1
-1.3600286341430420e-01 1.4123753184762210e-02 0.0000000000000000e+00 1
7.9818373114609084e-02 -5.2866546839972384e-02 0.0000000000000000e+00 1
4.2403285972122465e-02 -4.6205630083480942e-02 0.0000000000000000e+00 1
-1.1441913119609189e-01 3.9432711707948168e-02 0.0000000000000000e+00 1
-1.0898580097266333e-01 4.5765884381115791e-02 0.0000000000000000e+00 1
-1.1721301566261891e-01 4.7298534156501773e-02 0.0000000000000000e+00 1
-1.1178269983985868e-01 5.3652568089405335e-02 0.0000000000000000e+00 1
-1.0431139300468792e-01 5.1672076478298731e-02 0.0000000000000000e+00 1
7.3775949934042503e-02 -6.0035819977519313e-02 0.0000000000000000e+00 1
8.2907942042753466e-02 -6.1559309662779296e-02 0.0000000000000000e+00 1
-1.0147628147258982e-02 -1.9224347677564042e-02 0.0000000000000000e+00 1
-1.6265060451278908e-02 -2.6269670931170462e-02 0.0000000000000000e+00 1
-1.9328849649288098e-02 -1.7441805114535681e-02 0.0000000000000000e+00 1
-2.5370261013919704e-02 -2.4368752139778505e-02 0.0000000000000000e+00 1
-2.8462935449170963e-02 -1.5751888756121574e-02 0.0000000000000000e+00 1
-3.4431962505323377e-02 -2.2587523406566629e-02 0.0000000000000000e+00 1
-3.7481262296751958e-02 -1.4041823109882433e-02 0.0000000000000000e+00 1
-4.3368456866318940e-02 -2.0578027435589719e-02 0.0000000000000000e+00 1
-4.6448877545362116e-02 -1.2356668342748896e-02 0.0000000000000000e+00 1
-5.2279951188814268e-02 -1.8801487179320456e-02 0.0000000000000000e+00 1
-5.5346926815316250e-02 -1.0688979404682167e-02 0.0000000000000000e+00 1
-6.1206479339833211e-02 -1.7449099849149032e-02 0.0000000000000000e+00 1
-6.4152076260972551e-02 -9.0509340614469032e-03 0.0000000000000000e+00 1
-3.9796689728743640e-03 -3.6959488675290447e-02 0.0000000000000000e+00 1
8.2795961965664730e-02 -1.1564609606479672e-02 0.0000000000000000e+00 1
7.9578143118868322e-02 -2.4198132528850565e-03 0.0000000000000000e+00 1
8.9170145959963712e-02 -4.1719854824683600e-03 0.0000000000000000e+00 1
-1.1144380044702479e-01 9.3385969402073818e-03 0.0000000000000000e+00 1
1.5698676313101151e-01 -4.4439182544572145e-02 0.0000000000000000e+00 1
-7.0014960842436691e-02 -1.5814065717680154e-02 0.0000000000000000e+00 1
-7.2934601239789509e-02 -7.4066193623289929e-03 0.0000000000000000e+00 1
5.2388256402437269e-03 -3.8744356619101472e-02 0.0000000000000000e+00 1
1.1006253971373736e-01 -1.7628995159319812e-02 0.0000000000000000e+00 1
1.6647480795492559e-01 -5.3155316609020314e-02 0.0000000000000000e+00 1
1.6881181264060607e-01 -5.9648031488744840e-02 0.0000000000000000e+00 1
1.7309367727686226e-01 -5.4701483458512709e-02 0.0000000000000000e+00 1
1.7515491571897579e-01 -6.0776592668309426e-02 0.0000000000000000e+00 1
1.7115095602451069e-01 -6.5536531894192687e-02 0.0000000000000000e+00 1
5.0946368296079389e-02 2.8046152772592779e-02 0.0000000000000000e+00 1
-1.5852695813996223e-01 1.8600934737418542e-02 0.0000000000000000e+00 1
3.6441299540251486e-02 -5.3406357207127608e-02 0.0000000000000000e+00 1
4.5864663051961921e-02 -5.5216650131654166e-02 0.0000000000000000e+00 1
-2.3316711992490080e-02 -3.3143873136830197e-02 0.0000000000000000e+00 1
1.7722765460114967e-01 -6.6295171751889176e-02 0.0000000000000000e+00 1
1.7354417734483057e-01 -7.1104334618114065e-02 0.0000000000000000e+00 1
-1.2004685660959200e-01 5.4969817269666890e-02 0.0000000000000000e+00 1
-1.2557821585500678e-01 4.8767140419354676e-02 0.0000000000000000e+00 1
-1.2826656819699117e-01 5.6398641594183313e-02 0.0000000000000000e+00 1
-1.3379178606471098e-01 5.0315246160161739e-02 0.0000000000000000e+00 1
-3.1281015341598564e-02 -6.9877538673362265e-03 0.0000000000000000e+00 1
5.8160050058391789e-02 -4.0705798347899377e-02 0.0000000000000000e+00 1
8.5879913081985629e-02 5.0705311736680761e-03 0.0000000000000000e+00 1
9.5589567113049806e-02 3.2541763078584919e-03 0.0000000000000000e+00 1
7.6285667777896901e-02 6.7642449600107896e-03 0.0000000000000000e+00 1
-7.8740210325712393e-02 -1.3945833288832860e-02 0.0000000000000000e+00 1
-8.1712124059978547e-02 -5.7229810091822724e-03 0.0000000000000000e+00 1
-1.1693779788330694e-01 2.9852675953341763e-03 0.0000000000000000e+00 1
-1.0826406032990832e-01 6.5484540548450267e-04 0.0000000000000000e+00 1
2.5926356183799210e-02 2.4093578597319240e-02 0.0000000000000000e+00 1
2.2791770634440121e-02 3.2733901499724959e-02 0.0000000000000000e+00 1
2.8702964866349961e-02 3.9996397120293042e-02 0.0000000000000000e+00 1
1.9672015342531660e-02 4.1506092588055168e-02 0.0000000000000000e+00 1
1.3799222211190700e-02 3.4586935077280327e-02 0.0000000000000000e+00 1
1.0812752122060985e-02 4.2950891158731082e-02 0.0000000000000000e+00 1
5.2006519160081345e-03 3.6187335114419107e-02 0.0000000000000000e+00 1
2.2280789342553524e-03 4.4352591870865932e-02 0.0000000000000000e+00 1
7.6859399622106550e-03 5.0986167389470934e-02 0.0000000000000000e+00 1
-6.6313664508250558e-04 5.2113845817179795e-02 0.0000000000000000e+00 1
-5.8523507103830016e-03 4.5828342628597307e-02 0.0000000000000000e+00 1
-8.6352354785095113e-03 5.3396421060607463e-02 0.0000000000000000e+00 1
-1.3698383152963563e-02 4.7345355598536351e-02 0.0000000000000000e+00 1
-1.6375597570741692e-02 5.4624663325020875e-02 0.0000000000000000e+00 1
-2.1292282893163338e-02 4.8745868316833321e-02 0.0000000000000000e+00 1
-2.3972833155515016e-02 5.5866029593161837e-02 0.0000000000000000e+00 1
-2.8709334539050824e-02 5.0104732086402995e-02 0.0000000000000000e+00 1
-3.1232020479924228e-02 5.7047890805387511e-02 0.0000000000000000e+00 1
-3.5982591814993296e-02 5.1511802305176185e-02 0.0000000000000000e+00 1
-3.8485649079608178e-02 5.8227394477145103e-02 0.0000000000000000e+00 1
-4.3275747558091784e-02 5.2712200178202204e-02 0.0000000000000000e+00 1
-4.5782023191605417e-02 5.9498157348391104e-02 0.0000000000000000e+00 1
-5.0617041352621218e-02 5.3998051195377296e-02 0.0000000000000000e+00 1
-5.3238481091674630e-02 6.0859122031715493e-02 0.0000000000000000e+00 1
-5.8075040436672554e-02 5.5259542223952490e-02 0.0000000000000000e+00 1
-3.3368401353125673e-02 6.3813610488229033e-02 0.0000000000000000e+00 1
-1.9074854565774520e-02 6.1672827282059375e-02 0.0000000000000000e+00 1
-6.0734566665931425e-02 6.2271460513971449e-02 0.0000000000000000e+00 1
-6.5646307183183178e-02 5.6335020169957443e-02 0.0000000000000000e+00 1
-2.6177887957371443e-02 4.3161177156154210e-02 0.0000000000000000e+00 1
-4.8773626078802070e-02 6.6363130547110197e-02 0.0000000000000000e+00 1
-4.8551230451114605e-02 4.7424783817599354e-02 0.0000000000000000e+00 1
-6.8315734411991458e-02 6.3583824767183453e-02 0.0000000000000000e+00 1
-7.3344450393957206e-02 5.7624396973385679e-02 0.0000000000000000e+00 1
-7.0627416161220313e-02 5.0264644564284901e-02 0.0000000000000000e+00 1
-7.8424081609939703e-02 5.1565933555666646e-02 0.0000000000000000e+00 1
-8.1154528023036160e-02 5.9043581665987568e-02 0.0000000000000000e+00 1
-3.6166037511990491e-03 5.9485375228191473e-02 0.0000000000000000e+00 1
-7.5636625394988430e-02 4.4118873643245501e-02 0.0000000000000000e+00 1
-1.0846235385109565e-02 3.8548001362171916e-02 0.0000000000000000e+00 1
-6.3367124200328293e-02 6.9518780985826728e-02 0.0000000000000000e+00 1
-8.6335484600158052e-02 5.2912350973794993e-02 0.0000000000000000e+00 1
-8.9021291330137448e-02 6.0457020052607072e-02 0.0000000000000000e+00 1
1.7407541396335213e-02 -2.4505909948560091e-02 0.0000000000000000e+00 1
-8.3627942272494593e-02 6.6393937122508226e-02 0.0000000000000000e+00 1
-8.7431611726421277e-02 -1.2016816997672399e-02 0.0000000000000000e+00 1
-9.0400142938131187e-02 -4.0262975595310186e-03 0.0000000000000000e+00 1
-6.7998145172401200e-02 4.3058329954808502e-02 0.0000000000000000e+00 1
-1.0534182338661251e-01 6.0172547314508107e-02 0.0000000000000000e+00 1
6.0719349998684891e-02 7.9054486403543197e-04 0.0000000000000000e+00 1
9.8709203374717058e-02 -6.0725181263371350e-03 0.0000000000000000e+00 1
2.4466506566223484e-02 4.8456434206823773e-02 0.0000000000000000e+00 1
1.6751473492690358e-01 -7.0410689531377052e-02 0.0000000000000000e+00 1
1.2785162209865125e-01 -2.1295026321895116e-02 0.0000000000000000e+00 1
1.2434863385472195e-01 -1.1936467141102330e-02 0.0000000000000000e+00 1
1.3088911334488251e-01 -2.9858629034522736e-02 0.0000000000000000e+00 1
-4.0489365809422390e-02 -2.9669701465673631e-02 0.0000000000000000e+00 1
-5.2512588361815302e-04 -4.5403213169114276e-02 0.0000000000000000e+00 1
-7.0677458342683519e-02 7.0632053155734648e-02 0.0000000000000000e+00 1
-1.7186635678562712e-01 3.9315646293603970e-02 0.0000000000000000e+00 1
-5.8376947255446295e-02 -2.8467517945315090e-03 0.0000000000000000e+00 1
8.7413578145657048e-03 -4.7391342071350928e-02 0.0000000000000000e+00 1
-6.5481873078623090e-02 7.6194512207537313e-02 0.0000000000000000e+00 1
-5.8869907576225580e-02 7.4789260567645108e-02 0.0000000000000000e+00 1
-7.5920130799551316e-02 1.2607598174000322e-03 0.0000000000000000e+00 1
1.8076316072387943e-01 -6.2275204372966880e-02 0.0000000000000000e+00 1
-9.1937196369736990e-02 6.9305574986400262e-02 0.0000000000000000e+00 1
-5.6768463206644457e-02 -2.5179269944921957e-02 0.0000000000000000e+00 1
-1.2539277147927222e-01 4.2198164069355473e-03 0.0000000000000000e+00 1
1.8209374518692714e-01 -6.7126617578953302e-02 0.0000000000000000e+00 1
1.3638896475614781e-01 -2.3412987916349513e-02 0.0000000000000000e+00 1
-7.2084591607420631e-02 3.6944754072897233e-02 0.0000000000000000e+00 1
4.8072932288486948e-02 3.8393973762723604e-02 0.0000000000000000e+00 1
-1.2198041878349572e-01 -3.7454418184290836e-03 0.0000000000000000e+00 1
-1.3387557228776706e-01 5.5012049614758061e-03 0.0000000000000000e+00 1
1.0467173790935391e-01 1.5464924625237079e-03 0.0000000000000000e+00 1
1.0207384025713491e-01 1.0840362349976132e-02 0.0000000000000000e+00 1
8.0775927179163112e-03 2.7756960111208307e-02 0.0000000000000000e+00 1
2.9770898763832741e-05 2.9696300733057238e-02 0.0000000000000000e+00 1
-8.9016447826167633e-03 -4.4855532314092950e-02 0.0000000000000000e+00 1
-1.3636846560768606e-01 5.8112625156003496e-02 0.0000000000000000e+00 1
-1.4202655574480302e-01 5.2311994151635371e-02 0.0000000000000000e+00 1
-1.4990843341660065e-01 5.3877412359593292e-02 0.0000000000000000e+00 1
-1.4809834412313211e-01 4.5535906171490066e-02 0.0000000000000000e+00 1
-1.5509163757393293e-01 4.8161579097412657e-02 0.0000000000000000e+00 1
-1.6264491074478429e-01 4.8953620066094550e-02 0.0000000000000000e+00 1
-1.3072828036179715e-01 6.5013827331499990e-02 0.0000000000000000e+00 1
8.2657298982038288e-02 1.4484835967577520e-02 0.0000000000000000e+00 1
7.3326985840980824e-02 1.5710183732500237e-02 0.0000000000000000e+00 1
-8.0748295912283122e-02 3.7922650042053925e-02 0.0000000000000000e+00 1
-9.6224383492458751e-02 -1.0779769023300630e-02 0.0000000000000000e+00 1
-9.9378365820287806e-02 -1.8805606634020471e-03 0.0000000000000000e+00 1
-1.0489525144205589e-01 -9.1101281919093637e-03 0.0000000000000000e+00 1
-9.3910262381629750e-02 4.9664101657274588e-03 0.0000000000000000e+00 1
-1.3942589452444976e-01 4.4034999434793484e-02 0.0000000000000000e+00 1
1.8003622016770221e-01 -5.6590939474174276e-02 0.0000000000000000e+00 1
-9.3588485185438094e-02 5.4662213218968303e-02 0.0000000000000000e+00 1
-9.0509387725219617e-02 4.7370931203045398e-02 0.0000000000000000e+00 1
1.3953563356612822e-01 -3.1615232508424962e-02 0.0000000000000000e+00 1
1.4588756947743509e-01 -2.5108154468911223e-02 0.0000000000000000e+00 1
1.4750192245791216e-01 -3.4377904350601722e-02 0.0000000000000000e+00 1
1.6965357627634467e-01 -7.6612404637933076e-02 0.0000000000000000e+00 1
-1.3117910438958147e-01 4.2326658248560141e-02 0.0000000000000000e+00 1
2.3930198280942032e-03 2.0600006720407345e-02 0.0000000000000000e+00 1
1.7744183811789241e-01 -5.0373752542285023e-02 0.0000000000000000e+00 1
2.0084867806072226e-02 1.6235841284486699e-02 0.0000000000000000e+00 1
-1.1475658141743072e-02 6.0569701826354218e-02 0.0000000000000000e+00 1
-1.4510848433298400e-02 6.7444458102176363e-02 0.0000000000000000e+00 1
-2.1733400493480444e-02 6.8383567410874618e-02 0.0000000000000000e+00 1
-1.7445628471344773e-02 7.3976875397142816e-02 0.0000000000000000e+00 1
-2.4330484839975249e-02 7.4793790620961323e-02 0.0000000000000000e+00 1
-1.0562783709713254e-02 7.3013809278597797e-02 0.0000000000000000e+00 1
-1.3509754238084721e-02 7.8892681390502206e-02 0.0000000000000000e+00 1
-2.8625933306526928e-02 6.9346257392557356e-02 0.0000000000000000e+00 1
-3.0958771627366884e-02 7.5682573571875550e-02 0.0000000000000000e+00 1
-2.7052518194440843e-02 8.0402794144058265e-02 0.0000000000000000e+00 1
-3.3418834280189019e-02 8.1497292632792817e-02 0.0000000000000000e+00 1
-3.7365798264733269e-02 7.6614669057927826e-02 0.0000000000000000e+00 1
-3.9417973553623420e-02 8.2378523095695488e-02 0.0000000000000000e+00 1
-4.4334254156803581e-02 7.6980464382039676e-02 0.0000000000000000e+00 1
-4.0745405426749849e-02 7.2018146725579310e-02 0.0000000000000000e+00 1
-2.0231985812688896e-02 8.0592625239877383e-02 0.0000000000000000e+00 1
1.5712331308601757e-01 -6.4190534908839428e-02 0.0000000000000000e+00 1
1.5254861700844430e-01 -7.0115065141606203e-02 0.0000000000000000e+00 1
1.4552844624249053e-01 -6.9138444183883097e-02 0.0000000000000000e+00 1
1.6016947004264481e-01 -7.0068127759225413e-02 0.0000000000000000e+00 1
1.5646390836810919e-01 -7.6395440213968505e-02 0.0000000000000000e+00 1
-7.0219439150866108e-03 6.6387640657416189e-02 0.0000000000000000e+00 1
6.0907642263078752e-04 6.5143932160068585e-02 0.0000000000000000e+00 1
8.8909835971421824e-02 -5.4519093074411759e-02 0.0000000000000000e+00 1
9.1891568943548538e-02 -6.3184147354660825e-02 0.0000000000000000e+00 1
8.5769480542220652e-02 -7.0267090403227872e-02 0.0000000000000000e+00 1
9.7746241644862689e-02 -5.6301729441284115e-02 0.0000000000000000e+00 1
1.0074439476004296e-01 -6.4706563260996317e-02 0.0000000000000000e+00 1
1.0648641583316240e-01 -5.7986789339665154e-02 0.0000000000000000e+00 1
1.0940976194657401e-01 -6.6165715429044508e-02 0.0000000000000000e+00 1
1.0357281361274162e-01 -7.2993735518882608e-02 0.0000000000000000e+00 1
1.1541891358847825e-01 -5.9212842010014533e-02 0.0000000000000000e+00 1
1.1823512242321643e-01 -6.7454449028992391e-02 0.0000000000000000e+00 1
1.2691143690666670e-01 -6.8587854634912446e-02 0.0000000000000000e+00 1
1.2178887756120976e-01 -7.5345330972726346e-02 0.0000000000000000e+00 1
1.3381971354329744e-01 -6.2634485365051049e-02 0.0000000000000000e+00 1
1.3434243644871358e-01 -7.1096474122396128e-02 0.0000000000000000e+00 1
1.4237734835541785e-01 -6.2284486164986511e-02 0.0000000000000000e+00 1
1.0391158025148485e-01 -4.9079863857914949e-02 0.0000000000000000e+00 1
-7.6547265316987162e-02 -2.2209576441622719e-02 0.0000000000000000e+00 1
1.6139668589076613e-02 4.9866317728878236e-02 0.0000000000000000e+00 1
1.2351374275124671e-02 5.8074245437082117e-02 0.0000000000000000e+00 1
-6.8283023841225988e-03 2.3096971244106153e-02 0.0000000000000000e+00 1
-1.2860906956497147e-02 3.0059788645117064e-02 0.0000000000000000e+00 1
-2.0479261944971829e-02 2.9669929351415873e-02 0.0000000000000000e+00 1
-1.7730259216288025e-01 2.3134674659932419e-02 0.0000000000000000e+00 1
-5.5908923776522276e-02 6.8082394360962736e-02 0.0000000000000000e+00 1
-5.1131804102132042e-02 7.3882225045161468e-02 0.0000000000000000e+00 1
-4.9868913910754986e-02 8.1083508846157420e-02 0.0000000000000000e+00 1
1.6439073316763222e-01 -4.5980415261822276e-02 0.0000000000000000e+00 1
1.6177196675311797e-01 -3.9252679354483400e-02 0.0000000000000000e+00 1
1.0864694158837264e-01 -8.5537356718552830e-03 0.0000000000000000e+00 1
-6.7110583974401838e-02 -1.0730167940442303e-03 0.0000000000000000e+00 1
-8.5234503719368179e-02 3.2227257157044233e-03 0.0000000000000000e+00 1
8.5893034157084630e-02 -4.5719891791296360e-02 0.0000000000000000e+00 1
-3.9710228589417786e-02 -5.1846402902232681e-03 0.0000000000000000e+00 1
-4.8524289496428730e-02 -2.4236794930857517e-03 0.0000000000000000e+00 1
-5.3404301568439630e-02 4.1853064431646367e-03 0.0000000000000000e+00 1
1.2486612206863679e-01 -3.6718161697629481e-02 0.0000000000000000e+00 1
5.1919694548417640e-02 -4.7966639638701791e-02 0.0000000000000000e+00 1
5.5013582346270143e-02 -5.7011120960866885e-02 0.0000000000000000e+00 1
6.4350511710975153e-02 -5.8624176065688094e-02 0.0000000000000000e+00 1
6.7409101509416453e-02 -6.7456637869721739e-02 0.0000000000000000e+00 1
1.7103267193538596e-01 -4.8020452665920213e-02 0.0000000000000000e+00 1
-2.2339512024075879e-02 -8.8102023821088841e-03 0.0000000000000000e+00 1
3.7892071964946941e-02 3.8582956983320010e-02 0.0000000000000000e+00 1
-4.9187338347877238e-02 2.7384515043362968e-02 0.0000000000000000e+00 1
-4.3960799062872535e-02 3.3438457241128504e-02 0.0000000000000000e+00 1
-5.1943668894067943e-02 3.4795042838652583e-02 0.0000000000000000e+00 1
-3.6004329115251081e-02 3.2180884418708228e-02 0.0000000000000000e+00 1
-3.8698234350939692e-02 3.9070794944732354e-02 0.0000000000000000e+00 1
-3.2996248801169949e-02 2.4725922667272093e-02 0.0000000000000000e+00 1
-5.7422906137339108e-02 2.8841680161798115e-02 0.0000000000000000e+00 1
-5.9579309756120427e-02 3.6058677137279005e-02 0.0000000000000000e+00 1
-1.5174210555824957e-01 3.8010746454296661e-02 0.0000000000000000e+00 1
9.4699699015223571e-02 -7.1690182229866783e-02 0.0000000000000000e+00 1
4.8706811304063485e-02 -3.8997592214528289e-02 0.0000000000000000e+00 1
-2.6334573892391133e-02 6.2688363828711610e-02 0.0000000000000000e+00 1
-9.8225885662751727e-02 3.6111079129652793e-02 0.0000000000000000e+00 1
2.0474989335178377e-02 -3.3520927592334618e-02 0.0000000000000000e+00 1
1.6896202921075937e-02 2.5341653987211769e-02 0.0000000000000000e+00 1
1.4938633195225434e-01 -4.2599393785325235e-02 0.0000000000000000e+00 1
7.9483794934546992e-02 2.3342654610575875e-02 0.0000000000000000e+00 1
-5.8165720753777718e-02 -3.9183146490733657e-02 0.0000000000000000e+00 1
-5.0866430294921557e-02 -3.3139269238772383e-02 0.0000000000000000e+00 1
5.8248010210134205e-02 -6.5877195419549478e-02 0.0000000000000000e+00 1
-1.0129553125218155e-01 4.3770166151820243e-02 0.0000000000000000e+00 1
-4.0208122153743801e-03 -1.2137329327893329e-02 0.0000000000000000e+00 1
1.6735053554347505e-02 6.6110532682873813e-02 0.0000000000000000e+00 1
-1.3078120411060136e-02 -1.0423321182715830e-02 0.0000000000000000e+00 1
1.6866061334904628e-01 -4.1154422525640860e-02 0.0000000000000000e+00 1
-2.4741472924693031e-02 3.3963702480923678e-05 0.0000000000000000e+00 1
-4.0032690420530870e-02 -4.5776689733102491e-02 0.0000000000000000e+00 1
-3.2918945364680867e-02 -3.8608129204115757e-02 0.0000000000000000e+00 1
3.3522170554883851e-02 5.8441688868284297e-02 0.0000000000000000e+00 1
4.9230053397358531e-02 4.8958634664857448e-02 0.0000000000000000e+00 1
3.2729168418650818e-02 -1.9245907034286240e-02 0.0000000000000000e+00 1
-1.2272143411052874e-01 4.0886556916770449e-02 0.0000000000000000e+00 1
1.2548811375716112e-01 -1.5821623593317386e-03 0.0000000000000000e+00 1
7.6422006867242986e-02 -6.9036385217964763e-02 0.0000000000000000e+00 1
-1.5957010029839039e-01 1.0925620254098579e-02 0.0000000000000000e+00 1
-1.1985091034690942e-01 3.3030540273448136e-02 0.0000000000000000e+00 1
2.2110508242984680e-03 -5.0591351562165078e-03 0.0000000000000000e+00 1
6.6043693934082395e-02 3.8517763199648190e-02 0.0000000000000000e+00 1
6.5422748413375698e-02 2.8588602965734795e-02 0.0000000000000000e+00 1
-2.2104343126979165e-02 -5.1983065796952763e-02 0.0000000000000000e+00 1
9.2114695199922519e-02 -1.3512757446321622e-02 0.0000000000000000e+00 1
3.2530525450573791e-02 5.9047895511896691e-03 0.0000000000000000e+00 1
-9.2293164932353955e-02 -2.4249550202067430e-02 0.0000000000000000e+00 1
2.7207296749481628e-02 -5.1555638651705968e-02 0.0000000000000000e+00 1
4.0877877662177046e-03 5.8401248004587084e-02 0.0000000000000000e+00 1
3.1109738027912054e-03 7.5565688431656119e-02 0.0000000000000000e+00 1
-1.1515980436888523e-01 6.2657753234975022e-02 0.0000000000000000e+00 1
1.8571826156563040e-01 -6.4018408319806971e-02 0.0000000000000000e+00 1
1.3344666696345228e-01 -3.8417055736111178e-02 0.0000000000000000e+00 1
-3.2264785098309696e-03 -5.8274882183049284e-02 0.0000000000000000e+00 1
6.4204511491042421e-02 -3.3463615221220461e-02 0.0000000000000000e+00 1
-8.1459946437486080e-02 8.0249985108464386e-02 0.0000000000000000e+00 1
-1.4337351825221201e-01 1.6150208380090160e-02 0.0000000000000000e+00 1
2.3510286525480407e-02 -1.7360524304328516e-02 0.0000000000000000e+00 1
5.4476109712009245e-02 -6.4718548177679410e-03 0.0000000000000000e+00 1
1.3288253775180464e-01 -6.5082091170437124e-03 0.0000000000000000e+00 1
3.3562824610092155e-02 4.8506694047207491e-02 0.0000000000000000e+00 1
2.6631231912301833e-02 -2.6394464559479823e-02 0.0000000000000000e+00 1
5.4845904176604371e-02 -3.1764351603784276e-02 0.0000000000000000e+00 1
8.5839673972708863e-02 -2.0714449642987579e-02 0.0000000000000000e+00 1
-8.3315802007102674e-02 4.5823806332089635e-02 0.0000000000000000e+00 1
-5.2807456887738163e-02 8.6918503274922843e-02 0.0000000000000000e+00 1
-1.4294774743260977e-02 -3.6909756366796435e-02 0.0000000000000000e+00 1
1.5297227369714598e-02 -6.3888397138187128e-02 0.0000000000000000e+00 1
-6.6992628860411019e-02 8.3550137633231117e-02 0.0000000000000000e+00 1
-5.3884609808048045e-02 4.1701514232487309e-02 0.0000000000000000e+00 1
-9.8245987511098393e-02 7.6219754682835747e-02 0.0000000000000000e+00 1
-1.0097761918692214e-01 6.8152665669109838e-02 0.0000000000000000e+00 1
-7.5928354685860899e-02 6.4906852648571933e-02 0.0000000000000000e+00 1
-1.6552663307646648e-01 1.5003277738414891e-02 0.0000000000000000e+00 1
-6.3109677039876896e-02 4.9485486517935523e-02 0.0000000000000000e+00 1
-2.5508369966682721e-03 3.7837727338629959e-02 0.0000000000000000e+00 1
-1.4678351838593831e-01 3.4817999398967237e-03 0.0000000000000000e+00 1
-1.0600001353968327e-01 1.5770312935641479e-02 0.0000000000000000e+00 1
-1.0278253705216456e-01 7.1764007499233911e-03 0.0000000000000000e+00 1
5.3821233440270767e-02 1.8834583707808054e-02 0.0000000000000000e+00 1
-1.1453952240922916e-01 7.1796836721020718e-02 0.0000000000000000e+00 1
2.3312441894813605e-02 7.4970187550058506e-03 0.0000000000000000e+00 1
-1.2799454138237285e-01 1.2344053981138291e-02 0.0000000000000000e+00 1
-2.8988344141678109e-02 8.9709089536741407e-02 0.0000000000000000e+00 1
1.5416440781525970e-01 -2.2468270068313121e-02 0.0000000000000000e+00 1
1.4827949885582456e-01 -7.5911958084367681e-02 0.0000000000000000e+00 1
3.3757290087910397e-02 -6.8787152252259287e-02 0.0000000000000000e+00 1
-6.6728918328937292e-02 -2.5718130303708817e-02 0.0000000000000000e+00 1
-2.3427138679093053e-02 -4.2636977190212290e-02 0.0000000000000000e+00 1
5.2060165173342783e-02 -7.2942249439645723e-02 0.0000000000000000e+00 1
-8.9629793117374998e-02 1.2969763141604768e-02 0.0000000000000000e+00 1
2.9377588782435463e-02 1.5112950987273180e-02 0.0000000000000000e+00 1
7.0154216120634993e-02 -7.6357360969001462e-02 0.0000000000000000e+00 1
8.7553789508101568e-02 -7.9508488389264415e-02 0.0000000000000000e+00 1
6.3898887228579337e-02 -8.1924599729115456e-03 0.0000000000000000e+00 1
-7.3435290818541110e-02 1.0041940153140225e-02 0.0000000000000000e+00 1
-1.3619007524368287e-01 3.5994514910622749e-02 0.0000000000000000e+00 1
-1.5049011111672533e-01 1.7826232387247287e-02 0.0000000000000000e+00 1
1.1300843875179685e-02 -3.1641064816579946e-02 0.0000000000000000e+00 1
1.0411676681885842e-01 -2.4544135523945236e-02 0.0000000000000000e+00 1
-1.8727022622183127e-02 4.1545194086023925e-02 0.0000000000000000e+00 1
-6.8749098280410171e-03 -3.4076736376374792e-03 0.0000000000000000e+00 1
1.0486796342425467e-01 -8.1399340774799392e-02 0.0000000000000000e+00 1
-1.6533934037794690e-01 3.9079106770307750e-02 0.0000000000000000e+00 1
1.3632749683806553e-01 -8.2677184336303319e-02 0.0000000000000000e+00 1
-2.8198577443935131e-02 3.0794306932529391e-02 0.0000000000000000e+00 1
-7.5226460443118537e-02 -3.1648950161684973e-02 0.0000000000000000e+00 1
-4.1219534120341031e-02 6.5948406888412747e-02 0.0000000000000000e+00 1
1.6443123234545340e-01 -6.4725377708146403e-02 0.0000000000000000e+00 1
7.0120655917019936e-02 -8.3715395653614303e-04 0.0000000000000000e+00 1
1.8016423768020946e-02 -4.9468513023037980e-02 0.0000000000000000e+00 1
1.1247301577409449e-01 -7.3894651406100381e-02 0.0000000000000000e+00 1
1.1775358764521399e-01 -6.8922667268814198e-03 0.0000000000000000e+00 1
-3.9989782654360574e-02 8.7729913535488882e-02 0.0000000000000000e+00 1
-3.5000872665615877e-02 7.0564410041625059e-02 0.0000000000000000e+00 1
4.9114866337106329e-02 -6.4118435150728570e-02 0.0000000000000000e+00 1
1.5471561914838478e-01 -3.7355632609056520e-02 0.0000000000000000e+00 1
-1.0946574890985279e-01 -1.6237318411483025e-02 0.0000000000000000e+00 1
1.4086892155474448e-01 -7.5259172287135342e-02 0.0000000000000000e+00 1
1.7622820773135844e-01 -7.6232855775100097e-02 0.0000000000000000e+00 1
-1.6601753804544633e-01 2.1830716431591540e-02 0.0000000000000000e+00 1
6.6858504647307054e-02 8.1953486683739446e-03 0.0000000000000000e+00 1
1.4546587901130680e-02 -4.0577364201538388e-02 0.0000000000000000e+00 1
-1.5074339953245589e-02 8.4680489429249786e-02 0.0000000000000000e+00 1
-7.8251053041867205e-02 7.2113893814544250e-02 0.0000000000000000e+00 1
1.2078587591815293e-01 -8.3657704504497929e-02 0.0000000000000000e+00 1
9.2591508926456512e-02 1.2445542674859549e-02 0.0000000000000000e+00 1
6.3835052913157192e-02 1.8657038132010532e-02 0.0000000000000000e+00 1
1.0145366389416244e-01 -1.5490474994899486e-02 0.0000000000000000e+00 1
-1.7648594286256133e-01 4.7830358750649081e-02 0.0000000000000000e+00 1
-1.4118967050953973e-01 8.6542202415936312e-03 0.0000000000000000e+00 1
1.7891837023873597e-01 -7.1296746171058925e-02 0.0000000000000000e+00 1
-3.3570980622777705e-02 4.4676726010120044e-02 0.0000000000000000e+00 1
3.9876970146304126e-02 -6.2146943389250732e-02 0.0000000000000000e+00 1
-1.7782682671586372e-01 3.9245303887164851e-02 0.0000000000000000e+00 1
5.7686081034351855e-02 3.4018298795468582e-02 0.0000000000000000e+00 1
1.6626320933445363e-01 -3.3928781167365300e-02 0.0000000000000000e+00 1
-1.1406427879734321e-01 -4.6312443615676661e-03 0.0000000000000000e+00 1
1.8308236047658416e-01 -5.1726966781443437e-02 0.0000000000000000e+00 1
-2.5118987887431880e-02 2.3134879133037238e-02 0.0000000000000000e+00 1
-2.4923052922752990e-02 8.8448143071264959e-02 0.0000000000000000e+00 1
-1.3995324620481264e-01 -3.1113694923819401e-04 0.0000000000000000e+00 1
-9.6970624341929115e-02 6.1703914772227073e-02 0.0000000000000000e+00 1
-1.6802778730552023e-01 4.4436217370842836e-02 0.0000000000000000e+00 1
-3.1031801537580051e-02 3.7730545199135448e-02 0.0000000000000000e+00 1
-3.1305449337167286e-02 -2.9675595870592944e-02 0.0000000000000000e+00 1
1.4772451798085234e-01 -1.6890845162752705e-02 0.0000000000000000e+00 1
1.5133210491728893e-01 -8.2037285338450755e-02 0.0000000000000000e+00 1
8.0916059642386386e-03 6.4752082807788769e-02 0.0000000000000000e+00 1
1.2933908394982904e-01 -7.4792733157446320e-02 0.0000000000000000e+00 1
1.8800057668751716e-01 -6.0345055651057494e-02 0.0000000000000000e+00 1
-3.3168743350590772e-02 1.6861366094544760e-03 0.0000000000000000e+00 1
3.0848839294309146e-02 -6.0290529272071056e-02 0.0000000000000000e+00 1
-1.8724479898155816e-01 3.5350279261424797e-02 0.0000000000000000e+00 1
2.0375173490662521e-02 5.6791217539560429e-02 0.0000000000000000e+00 1
-3.0367125371730556e-03 7.2504193779343071e-02 0.0000000000000000e+00 1
-4.1166846876519697e-02 4.5888584443768872e-02 0.0000000000000000e+00 1
-1.3866353217606273e-01 6.4925733838379837e-02 0.0000000000000000e+00 1
-1.0850609652003879e-01 6.7421942943709109e-02 0.0000000000000000e+00 1
-1.8454104683919428e-01 4.2264371459682752e-02 0.0000000000000000e+00 1
-2.3570183019221192e-02 3.6312088845856350e-02 0.0000000000000000e+00 1
-4.6526059636957759e-02 4.0257578106505765e-02 0.0000000000000000e+00 1
-1.2334565448791944e-01 6.1637623660586831e-02 0.0000000000000000e+00 1
-1.6546334534479445e-01 5.3869347854053298e-02 0.0000000000000000e+00 1
-8.5286716458447168e-02 -1.9536410315427022e-02 0.0000000000000000e+00 1
2.1624899250209266e-02 -5.8234437866591347e-02 0.0000000000000000e+00 1
-5.5881129357059953e-02 4.8466822605288236e-02 0.0000000000000000e+00 1
-1.5276462540127927e-01 5.9637682573183193e-02 0.0000000000000000e+00 1
-4.2673551559146768e-02 -3.7903245573743451e-02 0.0000000000000000e+00 1
-8.5111832852429070e-02 7.3290917405599607e-02 0.0000000000000000e+00 1
-1.7156671878079142e-02 3.5153966141477679e-02 0.0000000000000000e+00 1
1.1082153722878521e-01 8.4074224539347209e-03 0.0000000000000000e+00 1
1.3356717085006853e-01 -1.5281322291766536e-02 0.0000000000000000e+00 1
-9.2343809301246218e-03 8.3069914508397347e-02 0.0000000000000000e+00 1
1.2299605399435792e-02 -5.5762527732321057e-02 0.0000000000000000e+00 1
4.2065418951941221e-02 4.5430271288526336e-02 0.0000000000000000e+00 1
-7.5158408970236942e-02 3.1005508999667974e-02 0.0000000000000000e+00 1
-1.2549269232958735e-01 -9.9177200957306366e-03 0.0000000000000000e+00 1
-1.7152867808619346e-01 2.4186553395422663e-02 0.0000000000000000e+00 1
-1.4795690641733064e-01 1.0920385758015821e-02 0.0000000000000000e+00 1
1.8942844778433227e-01 -6.3545258146171138e-02 0.0000000000000000e+00 1
1.5735699061976802e-01 -8.2323710367338793e-02 0.0000000000000000e+00 1
-5.8475465148017484e-02 8.2411659491499634e-03 0.0000000000000000e+00 1
-8.2293223730613360e-02 3.1149084599491828e-02 0.0000000000000000e+00 1
-6.1081924816696442e-02 4.2744078883045114e-02 0.0000000000000000e+00 1
3.0020254433402154e-03 -5.3297763191700286e-02 0.0000000000000000e+00 1
1.8498248264142175e-01 -7.4554950505262854e-02 0.0000000000000000e+00 1
-5.6089660202467140e-02 8.0723214357907053e-02 0.0000000000000000e+00 1
1.8326020639378904e-01 -7.1483689374096590e-02 0.0000000000000000e+00 1
9.9071779655120068e-02 1.8581895387880500e-02 0.0000000000000000e+00 1
-1.6082504225300961e-01 4.3675830458872057e-02 0.0000000000000000e+00 1
-6.5802190849243269e-02 3.7272070559123058e-02 0.0000000000000000e+00 1
5.8336508781500956e-02 2.5590281755541681e-02 0.0000000000000000e+00 1
-8.7840176854153712e-02 4.1312740412412625e-02 0.0000000000000000e+00 1
1.8898536998718501e-01 -6.9743796256500595e-02 0.0000000000000000e+00 1
8.4543026299832652e-02 2.9795862496714925e-02 0.0000000000000000e+00 1
-4.4794488226678801e-02 8.2706195648144715e-02 0.0000000000000000e+00 1
1.8102051705494299e-01 -4.7122980075956930e-02 0.0000000000000000e+00 1
-7.2019262202341727e-02 7.6826605170901174e-02 0.0000000000000000e+00 1
-4.8754533473224317e-02 -2.5473551052855634e-02 0.0000000000000000e+00 1
-2.4281038572946622e-02 8.4190529498415601e-02 0.0000000000000000e+00 1
1.6362783184675933e-01 -7.4486572055023653e-02 0.0000000000000000e+00 1
-2.9781540184545232e-02 8.5219102410854716e-02 0.0000000000000000e+00 1
1.1243480581486101e-01 -1.1261183001397171e-03 0.0000000000000000e+00 1
1.5365904035981010e-01 -3.0186337096417777e-02 0.0000000000000000e+00 1
1.3452552687971389e-01 -7.7044513646565393e-02 0.0000000000000000e+00 1
-9.2755702998221057e-02 -1.6936519308571724e-02 0.0000000000000000e+00 1
1.8405566114263430e-01 -5.9895830757802804e-02 0.0000000000000000e+00 1
1.8601426621941644e-01 -6.8507849237914392e-02 0.0000000000000000e+00 1
-5.5746290106838134e-03 -5.1254385789104143e-02 0.0000000000000000e+00 1
-6.1398096565793231e-02 8.0261667564114514e-02 0.0000000000000000e+00 1
7.1614105332740818e-02 2.3806611194400078e-02 0.0000000000000000e+00 1
-1.7414994857154298e-01 4.4062749259058794e-02 0.0000000000000000e+00 1
-1.6264146700590679e-02 -4.6083038755877367e-02 0.0000000000000000e+00 1
2.6932098748203608e-02 5.5140157792124868e-02 0.0000000000000000e+00 1
-1.8874289445451559e-01 2.9763936664195113e-02 0.0000000000000000e+00 1
-8.5952859554405299e-03 7.8098957236177269e-02 0.0000000000000000e+00 1
-1.5402861774099569e-01 1.2941709341102154e-02 0.0000000000000000e+00 1
-9.4144939417854179e-02 4.1806229851043826e-02 0.0000000000000000e+00 1
1.1559612947792712e-01 -1.3469844256920799e-02 0.0000000000000000e+00 1
-6.9917937064012295e-02 4.5746663048159631e-03 0.0000000000000000e+00 1
-4.7284960729620094e-02 5.9319192784214464e-03 0.0000000000000000e+00 1
1.3959407481950131e-01 -6.7821041841233984e-02 0.0000000000000000e+00 1
-9.7467844529684822e-02 4.9459180715824225e-02 0.0000000000000000e+00 1
-6.4551980129603607e-03 3.2009481995488413e-02 0.0000000000000000e+00 1
1.7258972190566152e-01 -3.7288524792780914e-02 0.0000000000000000e+00 1
-1.5498133711042039e-01 4.2801474057782493e-02 0.0000000000000000e+00 1
-1.8927224389401109e-01 3.7113713682331052e-02 0.0000000000000000e+00 1
-6.1940521563227359e-02 3.0486770471813539e-03 0.0000000000000000e+00 1
-6.0198991080598507e-02 -3.2048330529335145e-02 0.0000000000000000e+00 1
-1.9002580407869987e-01 3.4898454992265335e-02 0.0000000000000000e+00 1
4.5818161831356627e-03 6.9784041413639725e-02 0.0000000000000000e+00 1
-1.0023217931565767e-01 5.6483936324522158e-02 0.0000000000000000e+00 1
-1.8299256284322737e-01 3.9005493219131111e-02 0.0000000000000000e+00 1
-1.1146197498751313e-01 -1.0463638861599541e-02 0.0000000000000000e+00 1
1.4147437131496995e-01 -1.8403296672796155e-02 0.0000000000000000e+00 1
1.5922677164319113e-01 -3.4036528709531839e-02 0.0000000000000000e+00 1
-3.6088667001883831e-02 8.5105121865333963e-02 0.0000000000000000e+00 1
-4.5799211929576866e-02 7.1095057839202905e-02 0.0000000000000000e+00 1

Edges
115
1 2 1
2 3 1
3 4 1
4 5 1
5 6 1
6 7 1
7 8 1
8 9 1
9 10 1
10 11 1
11 12 1
12 13 1
13 14 1
14 15 1
15 16 1
16 17 1
17 18 1
18 19 1
19 20 1
20 21 1
21 22 1
22 23 1
23 24 1
24 25 1
25 26 1
26 27 1
27 28 1
28 29 1
29 30 1
30 31 1
31 32 1
32 33 1
33 34 1
34 35 1
35 36 1
36 37 1
37 38 1
38 39 1
39 40 1
40 41 1
41 42 1
42 43 1
43 44 1
44 45 1
45 46 1
46 47 1
47 48 1
48 49 1
49 50 1
50 51 1
51 52 1
52 53 1
53 54 1
54 55 1
55 56 1
56 57 1
57 58 1
58 59 1
59 60 1
60 61 1
61 62 1
62 63 1
63 64 1
64 65 1
65 66 1
66 67 1
67 68 1
68 69 1
69 70 1
70 71 1
71 72 1
72 73 1
73 74 1
74 75 1
75 76 1
76 77 1
77 78 1
78 79 1
79 80 1
80 81 1
81 82 1
82 83 1
83 84 1
84 85 1
85 86 1
86 87 1
87 88 1
88 89 1
89 90 1
90 91 1
91 92 1
92 93 1
93 94 1
94 95 1
95 96 1
96 97 1
97 98 1
98 99 1
99 100 1
100 101 1
101 102 1
102 103 1
103 104 1
104 105 1
105 106 1
106 107 1
107 108 1
108 109 1
109 110 1
110 111 1
111 112 1
112 113 1
113 114 1
114 115 1
115 1 1

Triangles
1425
152 588 731 1
588 657 731 1
505 130 658 1
258 429 628 1
559 512 687 1
429 258 524 1
130 505 644 1
171 168 516 1
458 524 623 1
168 161 516 1
132 433 439 1
128 583 613 1
524 258 623 1
114 115 466 1
431 123 603 1
458 259 611 1
213 215 513 1
447 158 449 1
433 132 438 1
599 621 746 1
512 559 681 1
456 458 611 1
215 468 513 1
445 136 446 1
307 439 615 1
446 136 447 1
291 503 504 1
291 502 503 1
126 455 457 1
599 349 621 1
501 635 644 1
448 288 459 1
54 55 451 1
288 448 545 1
128 54 451 1
635 130 644 1
140 662 745 1
215 218 468 1
456 364 457 1
176 178 545 1
465 282 552 1
491 141 734 1
364 456 611 1
259 458 623 1
437 125 566 1
546 496 626 1
457 364 670 1
452 129 553 1
526 234 527 1
421 564 678 1
166 161 167 1
291 267 502 1
527 234 754 1
526 356 684 1
121 559 687 1
271 269 506 1
564 421 701 1
439 433 615 1
271 506 508 1
126 457 650 1
141 114 466 1
463 282 465 1
157 546 626 1
583 128 695 1
220 213 513 1
676 140 745 1
450 140 676 1
604 413 675 1
449 158 450 1
652 145 664 1
593 565 747 1
267 266 502 1
436 454 709 1
157 501 546 1
306 176 545 1
431 603 604 1
231 212 562 1
490 491 734 1
709 454 716 1
501 157 635 1
571 346 606 1
118 620 639 1
490 417 641 1
115 1 652 1
349 564 621 1
167 161 168 1
535 231 562 1
218 233 468 1
234 526 684 1
147 565 593 1
466 115 652 1
140 450 696 1
266 499 502 1
496 127 626 1
158 447 700 1
459 288 629 1
569 419 592 1
127 496 570 1
282 463 585 1
163 692 766 1
675 413 765 1
483 646 729 1
518 519 720 1
127 570 625 1
518 484 519 1
570 533 625 1
351 652 664 1
123 431 702 1
646 159 729 1
463 420 585 1
1 145 652 1
233 442 468 1
564 349 678 1
499 266 509 1
366 369 551 1
442 233 551 1
487 490 641 1
139 460 740 1
178 288 545 1
467 459 629 1
428 518 720 1
478 390 548 1
159 519 729 1
519 159 598 1
125 437 668 1
553 129 728 1
167 169 686 1
444 599 746 1
269 291 506 1
353 467 568 1
70 71 161 1
569 131 645 1
413 604 691 1
211 220 672 1
467 257 568 1
343 430 460 1
522 415 661 1
480 475 486 1
457 670 767 1
534 138 561 1
141 491 714 1
212 209 562 1
419 569 645 1
231 535 560 1
460 139 671 1
620 510 639 1
704 440 736 1
390 382 548 1
437 566 708 1
430 350 434 1
439 307 663 1
686 169 766 1
637 133 651 1
22 441 704 1
160 505 658 1
131 704 736 1
645 131 736 1
342 341 343 1
520 534 561 1
505 160 682 1
606 346 653 1
667 163 766 1
640 485 771 1
441 22 722 1
476 472 492 1
395 640 771 1
673 616 735 1
438 150 670 1
613 583 691 1
472 471 492 1
339 522 661 1
155 533 556 1
369 442 551 1
342 343 460 1
460 430 740 1
343 350 430 1
136 445 690 1
291 504 506 1
465 552 649 1
217 436 709 1
446 447 448 1
150 438 710 1
469 460 671 1
395 386 640 1
220 515 672 1
391 378 471 1
533 155 625 1
640 390 647 1
504 503 505 1
559 146 681 1
343 344 350 1
475 474 486 1
427 601 731 1
505 503 644 1
485 640 647 1
391 471 472 1
265 497 509 1
340 341 342 1
514 404 703 1
541 689 694 1
404 514 757 1
142 686 766 1
560 558 634 1
416 593 747 1
637 651 738 1
340 300 341 1
373 370 511 1
129 452 659 1
601 152 731 1
428 517 518 1
353 355 467 1
497 499 509 1
365 366 551 1
436 217 724 1
454 232 716 1
528 527 754 1
474 477 486 1
220 513 514 1
378 376 471 1
128 451 695 1
663 609 674 1
265 494 497 1
143 486 656 1
620 118 762 1
470 365 551 1
370 368 511 1
388 395 517 1
167 168 169 1
449 450 723 1
373 511 512 1
448 447 449 1
382 380 548 1
355 459 467 1
365 470 624 1
132 439 674 1
473 474 475 1
167 164 748 1
295 531 532 1
439 663 674 1
517 395 518 1
299 340 520 1
299 277 300 1
689 396 694 1
256 250 509 1
217 543 544 1
391 472 473 1
473 472 474 1
231 560 634 1
479 475 480 1
299 300 340 1
72 144 516 1
494 265 525 1
34 35 582 1
487 488 490 1
266 256 509 1
733 673 735 1
506 504 507 1
510 151 639 1
309 348 530 1
217 200 543 1
263 268 529 1
425 527 528 1
469 138 534 1
479 480 481 1
614 578 624 1
657 588 702 1
276 274 277 1
343 341 344 1
262 263 529 1
448 449 759 1
35 117 582 1
355 446 459 1
274 271 508 1
232 454 726 1
375 374 376 1
425 327 527 1
276 277 299 1
315 294 532 1
220 514 515 1
372 373 374 1
151 85 639 1
474 476 477 1
257 467 629 1
171 516 711 1
392 388 517 1
429 337 523 1
390 478 647 1
420 529 585 1
377 376 378 1
376 402 471 1
280 309 547 1
487 297 488 1
254 280 547 1
295 530 531 1
421 555 701 1
533 532 556 1
309 530 547 1
376 374 402 1
575 660 744 1
537 210 538 1
273 274 276 1
464 463 465 1
458 411 524 1
369 368 370 1
236 254 595 1
294 295 532 1
379 378 380 1
273 271 274 1
371 370 372 1
384 382 390 1
206 208 542 1
264 308 525 1
476 688 749 1
250 265 509 1
277 297 487 1
478 475 479 1
204 210 537 1
380 378 391 1
402 374 581 1
530 348 531 1
535 319 560 1
435 420 463 1
200 202 543 1
270 269 271 1
471 402 492 1
31 121 565 1
254 547 595 1
78 132 674 1
300 277 487 1
43 44 159 1
368 416 511 1
268 267 269 1
246 264 525 1
495 496 546 1
493 402 581 1
30 31 565 1
372 374 375 1
430 434 584 1
372 370 373 1
162 584 741 1
545 448 759 1
484 518 771 1
470 614 624 1
315 532 533 1
427 405 428 1
29 147 566 1
577 331 596 1
323 356 526 1
366 367 368 1
33 34 146 1
502 500 503 1
366 368 369 1
270 271 273 1
538 540 541 1
327 325 527 1
263 266 267 1
375 376 377 1
268 269 270 1
369 370 371 1
153 444 746 1
418 296 420 1
435 463 464 1
260 577 596 1
47 48 152 1
451 55 690 1
277 274 297 1
405 392 517 1
45 46 120 1
118 87 554 1
355 445 446 1
82 126 650 1
308 494 525 1
568 257 572 1
420 296 529 1
296 262 529 1
223 219 573 1
508 506 755 1
262 256 263 1
365 305 366 1
263 267 268 1
248 246 525 1
499 498 500 1
428 405 517 1
660 575 725 1
438 132 710 1
337 329 523 1
269 267 291 1
520 340 534 1
356 562 684 1
490 488 491 1
476 492 688 1
537 538 539 1
204 206 210 1
381 380 382 1
377 378 379 1
497 495 498 1
408 550 594 1
255 250 256 1
335 299 520 1
329 327 425 1
538 210 540 1
293 305 365 1
29 30 147 1
418 420 435 1
388 386 395 1
325 526 527 1
325 323 526 1
160 637 738 1
263 256 266 1
411 362 524 1
28 29 566 1
499 500 502 1
233 470 551 1
355 354 445 1
58 59 158 1
554 149 555 1
323 321 356 1
362 337 429 1
300 487 641 1
353 354 355 1
86 87 118 1
473 475 478 1
329 425 523 1
380 391 548 1
494 316 495 1
35 36 117 1
219 216 573 1
14 15 137 1
249 248 250 1
368 367 416 1
149 89 563 1
473 478 548 1
317 558 560 1
31 32 121 1
88 149 554 1
372 375 608 1
391 473 548 1
456 411 458 1
70 161 166 1
532 531 556 1
293 304 305 1
88 89 149 1
17 18 134 1
497 498 499 1
362 429 524 1
344 341 641 1
500 498 501 1
19 20 569 1
250 248 265 1
202 204 537 1
308 315 316 1
84 85 151 1
265 248 525 1
550 281 594 1
304 437 536 1
494 495 497 1
379 380 381 1
72 73 144 1
350 351 664 1
322 321 323 1
346 571 750 1
242 245 246 1
25 26 148 1
440 415 522 1
255 256 262 1
563 119 564 1
350 344 351 1
326 325 327 1
375 404 608 1
320 319 321 1
324 323 325 1
308 316 494 1
314 311 557 1
317 286 558 1
486 477 656 1
373 512 581 1
247 246 248 1
447 136 700 1
51 52 156 1
238 236 595 1
424 172 636 1
27 125 574 1
20 21 131 1
495 316 496 1
328 327 329 1
194 195 196 1
321 319 535 1
11 12 138 1
564 119 621 1
202 537 543 1
366 305 367 1
90 91 119 1
246 245 264 1
264 294 308 1
531 348 648 1
249 250 255 1
126 83 579 1
315 533 570 1
318 317 319 1
240 238 587 1
27 28 125 1
286 284 558 1
47 152 601 1
192 193 194 1
353 352 354 1
474 472 476 1
359 333 415 1
92 93 153 1
74 75 571 1
80 81 150 1
336 329 337 1
242 240 245 1
308 294 315 1
90 119 563 1
511 416 687 1
87 88 554 1
190 191 192 1
148 574 575 1
41 42 116 1
455 411 456 1
147 30 565 1
83 84 579 1
312 353 568 1
20 131 569 1
423 405 427 1
1 2 145 1
26 27 574 1
410 362 411 1
252 190 549 1
82 83 126 1
287 292 293 1
361 337 362 1
192 194 232 1
293 365 624 1
198 200 217 1
155 556 622 1
284 223 573 1
252 549 557 1
49 50 123 1
189 188 190 1
417 490 734 1
56 57 136 1
247 248 249 1
310 568 572 1
383 382 384 1
210 206 542 1
190 192 549 1
342 460 469 1
241 240 242 1
319 317 560 1
192 232 549 1
75 76 135 1
119 91 576 1
184 186 572 1
148 26 574 1
196 197 198 1
290 286 317 1
228 226 567 1
312 352 353 1
84 151 579 1
356 321 535 1
94 95 122 1
311 252 557 1
78 79 132 1
397 392 405 1
225 227 578 1
23 24 129 1
242 246 247 1
333 331 577 1
62 63 163 1
113 114 141 1
33 146 559 1
189 190 252 1
211 213 220 1
442 371 443 1
92 153 576 1
19 569 592 1
264 278 294 1
96 97 154 1
567 590 594 1
320 321 322 1
498 495 546 1
257 184 572 1
415 577 661 1
133 618 651 1
108 109 160 1
543 539 544 1
53 54 128 1
356 535 562 1
455 456 457 1
177 346 630 1
558 284 573 1
251 272 287 1
60 61 140 1
322 323 324 1
374 373 581 1
276 299 335 1
45 120 598 1
318 319 320 1
89 90 563 1
324 325 326 1
279 235 567 1
235 228 567 1
316 315 570 1
310 312 568 1
104 105 157 1
110 111 133 1
186 188 189 1
326 327 328 1
417 344 641 1
578 287 624 1
251 287 578 1
415 333 577 1
359 415 440 1
100 101 155 1
125 28 566 1
121 32 559 1
227 251 578 1
309 347 348 1
239 238 240 1
303 281 550 1
153 93 586 1
236 235 254 1
290 317 318 1
230 235 236 1
264 245 278 1
433 301 615 1
363 301 433 1
190 188 191 1
310 252 311 1
254 235 279 1
468 443 513 1
590 408 594 1
446 448 459 1
106 107 130 1
32 33 559 1
293 292 304 1
328 329 336 1
146 34 582 1
280 302 309 1
189 252 310 1
102 103 127 1
445 354 451 1
603 156 604 1
198 199 200 1
230 228 235 1
587 238 595 1
254 279 280 1
196 195 197 1
98 99 124 1
243 223 284 1
192 191 193 1
309 302 347 1
275 262 296 1
94 122 586 1
298 296 418 1
313 311 314 1
8 9 139 1
336 337 361 1
273 276 552 1
285 284 286 1
500 501 644 1
410 411 455 1
242 247 596 1
287 272 292 1
189 310 572 1
537 539 543 1
237 236 238 1
186 189 572 1
181 179 589 1
361 362 410 1
305 304 536 1
437 345 668 1
280 279 281 1
381 382 383 1
186 187 188 1
443 371 608 1
239 240 241 1
194 193 195 1
310 311 312 1
313 314 413 1
218 221 233 1
450 158 696 1
555 421 732 1
360 452 453 1
294 278 295 1
91 92 576 1
281 279 594 1
312 313 352 1
276 335 552 1
270 273 282 1
567 226 590 1
183 307 615 1
385 384 386 1
558 573 634 1
40 41 616 1
280 281 302 1
49 123 588 1
555 432 762 1
482 481 483 1
347 302 580 1
302 281 303 1
363 433 438 1
96 154 600 1
230 236 237 1
653 173 711 1
312 311 313 1
501 498 546 1
200 201 202 1
51 156 603 1
123 50 603 1
243 284 285 1
93 94 586 1
342 469 534 1
229 228 230 1
496 316 570 1
618 133 680 1
50 51 603 1
444 330 599 1
399 403 412 1
289 286 290 1
530 357 547 1
369 371 442 1
302 303 580 1
95 96 600 1
422 330 444 1
283 253 414 1
245 240 587 1
295 357 530 1
352 313 583 1
455 126 739 1
397 405 423 1
295 278 357 1
479 481 482 1
297 274 508 1
156 52 613 1
406 461 462 1
313 413 583 1
204 205 206 1
224 223 243 1
529 268 585 1
222 219 223 1
492 402 493 1
550 408 631 1
237 238 239 1
340 342 534 1
122 95 600 1
307 181 589 1
279 567 594 1
202 203 204 1
227 226 228 1
152 48 588 1
97 98 619 1
52 53 613 1
338 422 426 1
225 578 614 1
285 286 289 1
187 301 334 1
383 384 385 1
247 260 596 1
191 188 610 1
229 230 591 1
243 285 408 1
304 345 437 1
453 452 553 1
182 184 257 1
332 358 360 1
222 223 224 1
412 403 436 1
358 333 359 1
261 241 331 1
334 301 363 1
332 331 333 1
233 221 470 1
198 197 199 1
357 278 587 1
251 253 272 1
544 539 602 1
289 330 338 1
278 245 587 1
371 372 608 1
335 520 521 1
521 520 561 1
360 453 654 1
225 224 226 1
75 135 571 1
643 303 655 1
227 229 251 1
187 185 301 1
241 242 596 1
289 290 330 1
436 403 454 1
200 199 201 1
338 330 422 1
222 224 225 1
251 229 253 1
547 357 595 1
442 443 468 1
407 401 409 1
226 224 590 1
206 207 208 1
227 228 229 1
414 253 591 1
184 185 186 1
53 128 613 1
255 262 275 1
318 320 349 1
224 243 590 1
230 237 591 1
399 400 403 1
185 183 615 1
282 273 552 1
247 249 260 1
331 241 596 1
18 19 592 1
272 253 283 1
183 181 307 1
387 386 388 1
360 358 452 1
444 153 742 1
682 160 738 1
98 124 619 1
85 86 639 1
179 177 630 1
610 334 611 1
514 513 757 1
225 226 227 1
74 571 606 1
357 587 595 1
218 216 219 1
239 241 261 1
540 210 542 1
367 305 536 1
322 324 421 1
253 229 591 1
186 185 187 1
206 205 207 1
215 216 218 1
488 297 489 1
243 408 590 1
48 49 588 1
304 292 345 1
389 388 392 1
221 219 222 1
208 209 211 1
359 440 441 1
259 610 611 1
275 296 298 1
214 212 231 1
154 97 619 1
204 203 205 1
211 212 213 1
393 392 397 1
213 214 215 1
215 214 216 1
406 462 597 1
326 328 432 1
298 418 419 1
406 407 461 1
218 219 221 1
268 270 585 1
416 367 593 1
202 201 203 1
188 187 610 1
119 576 621 1
261 331 332 1
134 18 592 1
290 318 599 1
407 409 431 1
334 363 364 1
332 333 358 1
464 465 737 1
330 290 599 1
386 384 640 1
259 191 610 1
399 412 607 1
393 398 399 1
287 293 624 1
336 361 510 1
403 400 597 1
193 191 259 1
208 211 672 1
213 212 214 1
211 209 212 1
399 398 400 1
400 398 401 1
389 393 607 1
393 397 398 1
76 77 609 1
454 403 597 1
409 401 605 1
208 207 209 1
270 282 585 1
207 205 234 1
348 347 666 1
178 180 288 1
46 47 601 1
187 334 610 1
400 401 406 1
387 388 389 1
375 377 404 1
406 401 407 1
389 392 393 1
648 348 666 1
385 386 387 1
177 175 346 1
301 185 615 1
292 272 612 1
400 406 597 1
318 349 599 1
99 100 622 1
432 620 762 1
197 195 258 1
272 283 612 1
15 16 617 1
201 199 244 1
182 183 184 1
184 183 185 1
172 174 636 1
174 176 306 1
622 556 648 1
408 285 631 1
521 561 669 1
222 225 614 1
589 179 630 1
73 74 606 1
71 72 516 1
138 469 730 1
289 338 631 1
334 364 611 1
101 102 625 1
249 255 632 1
182 257 629 1
275 298 339 1
654 453 660 1
379 381 394 1
130 107 658 1
100 155 622 1
221 222 614 1
124 99 622 1
120 46 601 1
491 488 618 1
470 221 614 1
393 399 607 1
345 292 612 1
260 249 632 1
155 101 625 1
573 216 634 1
237 239 627 1
239 261 627 1
103 104 626 1
341 300 641 1
591 237 627 1
328 336 620 1
81 82 650 1
397 423 605 1
166 167 748 1
285 289 631 1
255 275 632 1
332 360 642 1
182 181 183 1
367 536 593 1
135 76 609 1
398 397 605 1
617 464 737 1
170 172 424 1
216 214 634 1
631 338 655 1
385 387 396 1
432 555 732 1
43 159 646 1
195 193 623 1
688 117 749 1
627 261 642 1
426 643 655 1
105 106 635 1
414 591 627 1
44 45 598 1
102 127 625 1
575 574 668 1
180 181 182 1
432 328 620 1
127 103 626 1
144 73 606 1
104 157 626 1
464 617 679 1
336 510 620 1
401 398 605 1
214 231 634 1
193 259 623 1
86 118 639 1
288 180 629 1
550 631 655 1
513 443 757 1
540 542 638 1
157 105 635 1
303 550 655 1
434 350 664 1
538 541 694 1
199 197 628 1
275 339 632 1
414 627 642 1
479 482 647 1
503 500 644 1
384 390 640 1
137 15 617 1
17 134 679 1
14 137 669 1
38 39 143 1
258 195 623 1
180 179 181 1
756 461 765 1
488 489 618 1
396 602 694 1
491 618 680 1
197 258 628 1
109 110 637 1
180 182 629 1
106 130 635 1
178 179 180 1
478 479 647 1
482 483 484 1
244 199 628 1
449 723 759 1
425 528 761 1
489 297 508 1
174 306 636 1
555 149 701 1
178 177 179 1
359 441 659 1
492 493 688 1
347 580 685 1
351 417 466 1
160 109 637 1
480 486 733 1
580 303 643 1
377 379 633 1
77 78 674 1
556 531 648 1
699 607 717 1
107 108 658 1
159 44 598 1
346 175 653 1
314 756 765 1
452 358 659 1
638 542 672 1
404 377 633 1
176 177 178 1
604 156 691 1
37 38 656 1
541 540 677 1
482 484 485 1
482 485 647 1
42 43 646 1
261 332 642 1
735 116 770 1
110 133 637 1
598 120 720 1
379 394 633 1
515 638 672 1
669 561 758 1
151 510 697 1
124 622 648 1
363 438 670 1
176 175 177 1
144 653 711 1
150 81 650 1
431 604 675 1
642 360 654 1
283 414 654 1
542 208 672 1
338 426 655 1
13 14 669 1
117 36 706 1
158 59 696 1
64 65 142 1
349 320 678 1
174 175 176 1
441 440 704 1
577 260 661 1
602 539 694 1
450 676 723 1
260 632 661 1
581 512 681 1
685 580 698 1
617 16 679 1
174 173 175 1
358 359 659 1
407 431 675 1
322 421 678 1
605 423 657 1
414 642 654 1
552 335 649 1
283 654 660 1
394 381 665 1
418 435 705 1
705 435 768 1
666 347 685 1
563 564 701 1
536 437 708 1
504 505 682 1
562 209 684 1
3 4 165 1
133 111 680 1
632 339 661 1
172 173 174 1
409 605 657 1
108 160 658 1
136 57 700 1
335 521 649 1
506 507 755 1
554 555 762 1
198 217 709 1
612 283 660 1
584 434 741 1
148 553 728 1
351 344 417 1
232 194 716 1
519 598 720 1
352 583 695 1
61 62 662 1
451 354 695 1
80 150 710 1
469 671 730 1
144 606 653 1
431 409 702 1
5 6 162 1
170 424 667 1
21 22 704 1
381 383 665 1
574 125 668 1
169 168 170 1
608 404 757 1
172 171 173 1
579 151 697 1
209 207 684 1
124 648 666 1
351 466 652 1
424 676 745 1
528 203 715 1
22 23 722 1
56 136 690 1
69 70 166 1
25 148 728 1
307 589 663 1
203 528 754 1
41 116 616 1
491 680 714 1
7 8 683 1
175 173 653 1
486 143 733 1
140 61 662 1
630 346 750 1
528 715 761 1
618 489 651 1
129 24 728 1
9 10 671 1
619 124 666 1
584 162 713 1
616 116 735 1
510 361 697 1
111 112 680 1
58 158 700 1
11 138 730 1
170 171 172 1
16 17 679 1
385 396 689 1
389 607 699 1
132 79 710 1
364 363 670 1
507 504 682 1
116 42 646 1
628 429 753 1
665 541 677 1
141 466 734 1
424 636 676 1
589 630 712 1
602 396 699 1
582 117 688 1
688 493 764 1
320 322 678 1
461 407 675 1
576 153 746 1
493 581 681 1
170 168 171 1
421 324 732 1
638 515 693 1
561 138 758 1
396 387 699 1
203 201 715 1
588 123 702 1
602 699 717 1
660 453 744 1
583 413 691 1
326 432 732 1
580 643 698 1
205 203 754 1
609 77 674 1
707 426 718 1
540 638 677 1
60 140 696 1
164 167 686 1
113 141 714 1
59 60 696 1
516 144 711 1
665 383 689 1
512 511 687 1
62 163 662 1
161 71 516 1
55 56 690 1
445 451 690 1
566 147 708 1
698 643 707 1
454 597 726 1
519 484 729 1
169 170 667 1
394 665 677 1
298 419 752 1
579 697 739 1
592 419 705 1
207 234 684 1
522 339 752 1
13 669 758 1
619 666 685 1
67 68 164 1
687 416 747 1
394 677 693 1
163 63 692 1
539 538 694 1
63 64 692 1
154 619 685 1
643 426 707 1
383 385 689 1
8 139 683 1
657 423 731 1
138 12 758 1
553 148 744 1
57 58 700 1
485 484 771 1
515 514 703 1
419 645 752 1
148 575 744 1
677 638 693 1
139 9 671 1
154 685 698 1
541 665 689 1
36 37 706 1
354 352 695 1
156 613 691 1
565 121 747 1
38 143 656 1
39 40 673 1
147 593 708 1
135 609 712 1
507 651 755 1
126 579 739 1
612 660 725 1
712 630 750 1
149 563 701 1
217 544 724 1
549 232 751 1
37 656 706 1
134 592 705 1
361 410 697 1
680 112 714 1
134 705 768 1
582 688 764 1
600 154 698 1
404 633 703 1
481 480 735 1
465 649 737 1
575 668 725 1
659 441 722 1
651 489 755 1
426 422 718 1
145 2 719 1
676 636 723 1
387 389 699 1
633 394 693 1
173 171 711 1
10 11 730 1
131 21 704 1
481 735 770 1
717 412 724 1
466 417 734 1
518 395 771 1
429 523 753 1
196 709 716 1
306 545 759 1
419 418 705 1
112 113 714 1
196 198 709 1
609 663 712 1
79 80 710 1
40 616 673 1
194 196 716 1
2 3 719 1
693 515 703 1
664 145 721 1
544 717 724 1
145 719 721 1
122 707 718 1
169 667 766 1
607 412 717 1
6 7 713 1
656 477 706 1
601 427 743 1
718 422 742 1
122 600 707 1
314 557 756 1
12 13 758 1
697 410 739 1
600 698 707 1
645 522 752 1
737 649 769 1
586 122 718 1
427 428 743 1
422 444 742 1
143 39 673 1
23 129 722 1
129 659 722 1
671 10 730 1
163 667 745 1
557 549 751 1
669 137 769 1
593 536 708 1
483 481 770 1
201 244 715 1
120 601 743 1
409 657 702 1
412 436 724 1
668 345 725 1
118 554 762 1
544 602 717 1
117 706 749 1
435 464 768 1
440 522 736 1
24 25 728 1
477 476 749 1
164 686 763 1
662 163 745 1
523 425 761 1
423 427 731 1
557 751 756 1
597 462 726 1
679 134 768 1
443 608 757 1
65 66 760 1
244 753 761 1
434 664 721 1
153 586 742 1
324 326 732 1
651 507 738 1
66 67 763 1
586 718 742 1
345 612 725 1
646 483 770 1
410 455 739 1
453 553 744 1
663 589 712 1
121 687 747 1
4 5 727 1
137 617 737 1
7 683 713 1
484 483 729 1
753 523 761 1
413 314 765 1
480 733 735 1
64 142 692 1
142 65 760 1
683 584 713 1
751 462 756 1
721 165 741 1
68 69 748 1
521 669 769 1
234 205 754 1
621 576 746 1
462 461 756 1
636 306 723 1
571 135 750 1
633 693 703 1
339 298 752 1
116 646 770 1
522 645 736 1
461 675 765 1
232 726 751 1
146 582 764 1
489 508 755 1
667 424 745 1
464 679 768 1
162 6 713 1
244 628 753 1
69 166 748 1
3 165 719 1
430 584 740 1
165 4 727 1
434 721 741 1
150 650 767 1
5 162 727 1
507 682 738 1
650 457 767 1
135 712 750 1
649 521 769 1
686 142 760 1
493 681 764 1
681 146 764 1
67 164 763 1
670 150 767 1
137 737 769 1
719 165 721 1
723 306 759 1
165 727 741 1
683 139 740 1
584 683 740 1
428 720 743 1
143 673 733 1
164 68 748 1
720 120 743 1
715 244 761 1
706 477 749 1
727 162 741 1
692 142 766 1
726 462 751 1
760 66 763 1
686 760 763 1

End
