MeshVersionFormatted 2
Dimension 3

Vertices
624
-9.6617441251281244e-02 -4.2625849862984080e-02 0.0000000000000000e+00 1
-9.7254350333699668e-02 -4.5720382911605004e-02 0.0000000000000000e+00 1
-9.7052904347464469e-02 -4.9005397253821137e-02 0.0000000000000000e+00 1
-9.6072843255781748e-02 -5.2445790420353439e-02 0.0000000000000000e+00 1
-9.4373907021857675e-02 -5.6006459941922895e-02 0.0000000000000000e+00 1
-9.2015835608898519e-02 -5.9652303349250493e-02 0.0000000000000000e+00 1
-8.9058368980110270e-02 -6.3348218173057150e-02 0.0000000000000000e+00 1
-8.5561247098699222e-02 -6.7059101944063879e-02 0.0000000000000000e+00 1
-8.1584209927871479e-02 -7.0749852192991625e-02 0.0000000000000000e+00 1
-7.7186997430833293e-02 -7.4385366450561402e-02 0.0000000000000000e+00 1
-7.2429349570790710e-02 -7.7930542247494114e-02 0.0000000000000000e+00 1
-6.7371006310949971e-02 -8.1350277114510774e-02 0.0000000000000000e+00 1
-6.2071707614517198e-02 -8.4609468582332342e-02 0.0000000000000000e+00 1
-5.6591193444698588e-02 -8.7673014181679790e-02 0.0000000000000000e+00 1
-5.0989203764700286e-02 -9.0505811443274062e-02 0.0000000000000000e+00 1
-4.5325478537728496e-02 -9.3072757897836159e-02 0.0000000000000000e+00 1
-3.9659757726989327e-02 -9.5338751076087053e-02 0.0000000000000000e+00 1
-3.4051781295688970e-02 -9.7268688508747689e-02 0.0000000000000000e+00 1
-2.8561289207033613e-02 -9.8827467726539039e-02 0.0000000000000000e+00 1
-2.3248021424229375e-02 -9.9979986260182105e-02 0.0000000000000000e+00 1
-1.8171717910482443e-02 -1.0069114164039783e-01 0.0000000000000000e+00 1
-1.3392118628998997e-02 -1.0092583139790716e-01 0.0000000000000000e+00 1
-8.9689635429851741e-03 -1.0064895306343112e-01 0.0000000000000000e+00 1
-4.9619926156471497e-03 -9.9825404167690632e-02 0.0000000000000000e+00 1
-1.4309458101911020e-03 -9.8420082241406706e-02 0.0000000000000000e+00 1
1.5644369101768278e-03 -9.6397884815300275e-02 0.0000000000000000e+00 1
5.4519334125399362e-03 -9.2844287517187582e-02 0.0000000000000000e+00 1
9.4814685981143981e-03 -8.8795205417416784e-02 0.0000000000000000e+00 1
1.3629764848749649e-02 -8.4283610848918097e-02 0.0000000000000000e+00 1
1.7873544546295132e-02 -7.9342476144621810e-02 0.0000000000000000e+00 1
2.2189530072600296e-02 -7.4004773637458166e-02 0.0000000000000000e+00 1
2.6554443809514546e-02 -6.8303475660357438e-02 0.0000000000000000e+00 1
3.0945008138887366e-02 -6.2271554546249858e-02 0.0000000000000000e+00 1
3.5337945442568144e-02 -5.5941982628065656e-02 0.0000000000000000e+00 1
3.9709978102406382e-02 -4.9347732238735162e-02 0.0000000000000000e+00 1
4.4037828500251439e-02 -4.2521775711188543e-02 0.0000000000000000e+00 1
4.8298219017952844e-02 -3.5497085378356122e-02 0.0000000000000000e+00 1
5.2467872037359933e-02 -2.8306633573168101e-02 0.0000000000000000e+00 1
5.6523509940322236e-02 -2.0983392628554760e-02 0.0000000000000000e+00 1
6.0441855108689158e-02 -1.3560334877446357e-02 0.0000000000000000e+00 1
6.4199629924310109e-02 -6.0704326527731452e-03 0.0000000000000000e+00 1
6.7773556769034571e-02 1.4533417125346393e-03 0.0000000000000000e+00 1
7.1140358024711969e-02 8.9780158855467355e-03 0.0000000000000000e+00 1
7.4276756073191730e-02 1.6470617533332881e-02 0.0000000000000000e+00 1
7.7159473296323292e-02 2.3898174322962821e-02 0.0000000000000000e+00 1
7.9765232075956122e-02 3.1227713921506323e-02 0.0000000000000000e+00 1
8.2070754793939618e-02 3.8426263996033105e-02 0.0000000000000000e+00 1
8.4052763832123248e-02 4.5460852213612929e-02 0.0000000000000000e+00 1
8.5687981572356436e-02 5.2298506241315532e-02 0.0000000000000000e+00 1
8.6953130396488623e-02 5.8906253746210654e-02 0.0000000000000000e+00 1
8.7824932686369261e-02 6.5251122395368066e-02 0.0000000000000000e+00 1
8.8280110823847777e-02 7.1300139855857508e-02 0.0000000000000000e+00 1
8.8295387190773594e-02 7.7020333794748722e-02 0.0000000000000000e+00 1
8.7847484168996182e-02 8.2378731879111447e-02 0.0000000000000000e+00 1
8.6913124140364964e-02 8.7342361776015412e-02 0.0000000000000000e+00 1
8.5469029486729367e-02 9.1878251152530399e-02 0.0000000000000000e+00 1
8.3491922589938844e-02 9.5953427675726150e-02 0.0000000000000000e+00 1
8.0958525831842848e-02 9.9534919012672390e-02 0.0000000000000000e+00 1
7.7845561594290763e-02 1.0258975283043888e-01 0.0000000000000000e+00 1
7.4129752259132098e-02 1.0508495679609535e-01 0.0000000000000000e+00 1
6.9872616556323791e-02 1.0698001214129937e-01 0.0000000000000000e+00 1
6.5358855388138681e-02 1.0817083291510309e-01 0.0000000000000000e+00 1
6.0608475585438068e-02 1.0868873796032417e-01 0.0000000000000000e+00 1
5.5641483979083195e-02 1.0856504611978042e-01 0.0000000000000000e+00 1
5.0477887399935376e-02 1.0783107623628951e-01 0.0000000000000000e+00 1
4.5137692678855833e-02 1.0651814715266908e-01 0.0000000000000000e+00 1
3.9640906646705949e-02 1.0465757771173703e-01 0.0000000000000000e+00 1
3.4007536134346886e-02 1.0228068675631090e-01 0.0000000000000000e+00 1
2.8257587972640007e-02 9.9418793129208496e-02 0.0000000000000000e+00 1
2.2411068992446548e-02 9.6103215673247533e-02 0.0000000000000000e+00 1
1.6487986024627803e-02 9.2365273231245729e-02 0.0000000000000000e+00 1
1.0508345900045048e-02 8.8236284646020763e-02 0.0000000000000000e+00 1
4.4921554495595635e-03 8.3747568760390398e-02 0.0000000000000000e+00 1
-1.5405784959673374e-03 7.8930444417172368e-02 0.0000000000000000e+00 1
-7.5698491056744536e-03 7.3816230459184312e-02 0.0000000000000000e+00 1
-1.3575649548700431e-02 6.8436245729244047e-02 0.0000000000000000e+00 1
-1.9537972994184038e-02 6.2821809070169196e-02 0.0000000000000000e+00 1
-2.5436812611263942e-02 5.7004239324777578e-02 0.0000000000000000e+00 1
-3.1252161569078916e-02 5.1014855335886830e-02 0.0000000000000000e+00 1
-3.6964013036767662e-02 4.4884975946314701e-02 0.0000000000000000e+00 1
-4.2552360183468897e-02 3.8645919998878925e-02 0.0000000000000000e+00 1
-4.7997196178321350e-02 3.2329006336397209e-02 0.0000000000000000e+00 1
-5.3278514190463727e-02 2.5965553801687243e-02 0.0000000000000000e+00 1
-5.8376307389034765e-02 1.9586881237566776e-02 0.0000000000000000e+00 1
-6.3270568943173164e-02 1.3224307486853524e-02 0.0000000000000000e+00 1
-6.7941292022017666e-02 6.9091513923652155e-03 0.0000000000000000e+00 1
-7.2368469794706958e-02 6.7273179691956612e-04 0.0000000000000000e+00 1
-7.6532095430379810e-02 -5.4536324566657260e-03 0.0000000000000000e+00 1
-8.0412162098174922e-02 -1.1438622525572935e-02 0.0000000000000000e+00 1
-8.3988662967231009e-02 -1.7250919566984341e-02 0.0000000000000000e+00 1
-8.7241591206686772e-02 -2.2859204738082211e-02 0.0000000000000000e+00 1
-9.0150939985680967e-02 -2.8232159196048844e-02 0.0000000000000000e+00 1
-9.2696702473352294e-02 -3.3338464098066511e-02 0.0000000000000000e+00 1
-9.4858871838839495e-02 -3.8146800601317504e-02 0.0000000000000000e+00 1
-4.6200988070299494e-02 -8.6146261488984743e-02 0.0000000000000000e+00 1
1.9688415750069407e-02 -6.7528192362516795e-02 0.0000000000000000e+00 1
-6.9243048918581657e-02 -5.9294125596213816e-03 0.0000000000000000e+00 1
-4.9073845572367533e-02 1.7699393252572811e-02 0.0000000000000000e+00 1
3.4704172922475178e-02 -4.1789991301182626e-02 0.0000000000000000e+00 1
-6.7054007800051663e-02 -7.5680748800490610e-02 0.0000000000000000e+00 1
-2.8809964027284668e-02 4.3013098571023832e-02 0.0000000000000000e+00 1
-1.9788154136071722e-02 -9.6178319171603632e-02 0.0000000000000000e+00 1
6.6583336087669046e-02 1.4899469175886642e-02 0.0000000000000000e+00 1
5.2068121964334788e-02 -1.3885865257382004e-02 0.0000000000000000e+00 1
7.7331836512409505e-02 4.2312775161115750e-02 0.0000000000000000e+00 1
8.3144136692585774e-02 6.8385155875623993e-02 0.0000000000000000e+00 1
-7.4259871187356864e-03 6.5646194825448367e-02 0.0000000000000000e+00 1
1.7524509870885486e-02 8.5389585326680992e-02 0.0000000000000000e+00 1
-8.4197115941209363e-02 -2.7981882693800489e-02 0.0000000000000000e+00 1
8.1389407956616339e-02 9.2165729799104312e-02 0.0000000000000000e+00 1
4.8555445214246179e-02 1.0263095175525759e-01 0.0000000000000000e+00 1
7.7811865126377108e-03 -8.3068915726547454e-02 0.0000000000000000e+00 1
-8.4501035318362699e-02 -6.2449434161299028e-02 0.0000000000000000e+00 1
-9.3063238721101962e-02 -5.0231807984059101e-02 0.0000000000000000e+00 1
3.2537664908592480e-02 9.5799288187952150e-02 0.0000000000000000e+00 1
-1.9159822745362361e-03 -9.4420768190210350e-02 0.0000000000000000e+00 1
6.6879644126987964e-02 1.0393831171712307e-01 0.0000000000000000e+00 1
-6.0329612422396796e-02 6.2918488931409198e-03 0.0000000000000000e+00 1
-7.6483302178358234e-02 -1.7797516655304144e-02 0.0000000000000000e+00 1
2.7869059135922671e-02 -5.5429096941394508e-02 0.0000000000000000e+00 1
4.4465383159431771e-02 -2.8160816352221316e-02 0.0000000000000000e+00 1
-3.9827152236451474e-02 3.0791905904449846e-02 0.0000000000000000e+00 1
5.9272347990299679e-02 3.1349334334370820e-04 0.0000000000000000e+00 1
-1.7664861292505933e-02 5.4984516592546988e-02 0.0000000000000000e+00 1
7.3019626111924446e-02 3.0731521088552413e-02 0.0000000000000000e+00 1
5.5897722616989314e-03 7.6186851929233870e-02 0.0000000000000000e+00 1
-8.9831046545335413e-02 -3.7456259630999134e-02 0.0000000000000000e+00 1
-5.6584864295087300e-02 -8.1900792373351974e-02 0.0000000000000000e+00 1
8.1099580828179890e-02 5.6950680818585182e-02 0.0000000000000000e+00 1
-3.5215858490495820e-02 -9.1538496734568972e-02 0.0000000000000000e+00 1
-7.6314343765175929e-02 -6.8852871455421169e-02 0.0000000000000000e+00 1
8.4528186459092033e-02 7.9529293021398981e-02 0.0000000000000000e+00 1
-1.1467285348519280e-02 -9.7329510336284453e-02 0.0000000000000000e+00 1
-9.0181731937872309e-02 -5.5880532768786947e-02 0.0000000000000000e+00 1
5.8236501096616163e-02 1.0474591912609173e-01 0.0000000000000000e+00 1
7.3854355378558709e-02 1.0066048353683453e-01 0.0000000000000000e+00 1
-9.3831128246576245e-02 -4.4955487554475454e-02 0.0000000000000000e+00 1
4.0968345844276857e-03 -8.7466148051881312e-02 0.0000000000000000e+00 1
1.8198411812648963e-03 -8.2088140809478988e-02 0.0000000000000000e+00 1
5.8846887511856318e-03 -7.7290098121762366e-02 0.0000000000000000e+00 1
-5.0841810823625141e-04 -7.6337569010208980e-02 0.0000000000000000e+00 1
3.6128845491081351e-03 -7.1232331921227687e-02 0.0000000000000000e+00 1
-2.8428624565258161e-03 -7.0142923685691846e-02 0.0000000000000000e+00 1
1.3957117897160092e-03 -6.4948072704043652e-02 0.0000000000000000e+00 1
-5.2628676981123787e-03 -6.3862052963256408e-02 0.0000000000000000e+00 1
-9.4986623168564696e-04 -5.8561610837010641e-02 0.0000000000000000e+00 1
-7.8097735097434973e-03 -5.7451914847708598e-02 0.0000000000000000e+00 1
-3.3825000968745575e-03 -5.2139400448840585e-02 0.0000000000000000e+00 1
-1.0386415759775319e-02 -5.0953202572871927e-02 0.0000000000000000e+00 1
-5.7105300878173672e-03 -4.5670424531995130e-02 0.0000000000000000e+00 1
-1.2862275225972077e-02 -4.4372314885939651e-02 0.0000000000000000e+00 1
-8.1462086930074833e-03 -3.8925906869466433e-02 0.0000000000000000e+00 1
-1.5399177535098537e-02 -3.7683900286279048e-02 0.0000000000000000e+00 1
-1.0848632927207908e-02 -3.2016155808731121e-02 0.0000000000000000e+00 1
-1.9948541663448168e-02 -4.3242309663323410e-02 0.0000000000000000e+00 1
-2.2523654339678005e-02 -3.6579814315348104e-02 0.0000000000000000e+00 1
-2.6982224205675850e-02 -4.2141244640452657e-02 0.0000000000000000e+00 1
-2.9585945747761161e-02 -3.5505234452010918e-02 0.0000000000000000e+00 1
-3.4008354073728680e-02 -4.1032768367423096e-02 0.0000000000000000e+00 1
-1.3073563923025689e-02 -6.3705723932390032e-02 0.0000000000000000e+00 1
-3.4470248499694181e-03 -3.3301977305324020e-02 0.0000000000000000e+00 1
-6.2052146041490178e-03 -2.6227716960185027e-02 0.0000000000000000e+00 1
-3.6616444370233328e-02 -3.4455862459774458e-02 0.0000000000000000e+00 1
-3.2178387579871785e-02 -2.8861529212817403e-02 0.0000000000000000e+00 1
-4.0978564386640687e-02 -3.9996496107922837e-02 0.0000000000000000e+00 1
-3.8425724372805663e-02 -4.6454420133977166e-02 0.0000000000000000e+00 1
-4.5263791340828766e-02 -4.5385461201117833e-02 0.0000000000000000e+00 1
1.1381453343494779e-03 -2.7454827868610525e-02 0.0000000000000000e+00 1
-1.5080990217434841e-03 -2.0372427643470022e-02 0.0000000000000000e+00 1
6.1009044148915229e-03 -2.1606665522019067e-02 0.0000000000000000e+00 1
3.3488057222856010e-03 -1.4363242733966053e-02 0.0000000000000000e+00 1
-4.3234195913476239e-03 -1.3128764625667024e-02 0.0000000000000000e+00 1
5.6792357657259969e-04 -7.0765457368774055e-03 0.0000000000000000e+00 1
-7.1980936017787102e-03 -5.8604367982309745e-03 0.0000000000000000e+00 1
-2.2468148998870904e-03 2.4952659526700048e-04 0.0000000000000000e+00 1
5.5340426197961912e-03 -9.8592900516715661e-04 0.0000000000000000e+00 1
2.7150750590897231e-03 6.4001430234368684e-03 0.0000000000000000e+00 1
1.0554211129216576e-02 5.1501682200520418e-03 0.0000000000000000e+00 1
7.7084496263158369e-03 1.2592778449342633e-02 0.0000000000000000e+00 1
1.5598146364591257e-02 1.1335842955848812e-02 0.0000000000000000e+00 1
1.2750133777470161e-02 1.8814605045865400e-02 0.0000000000000000e+00 1
2.0645947477907857e-02 1.7546054031690128e-02 0.0000000000000000e+00 1
1.7801964818173727e-02 2.5024829035356508e-02 0.0000000000000000e+00 1
2.5674140203754206e-02 2.3774690292634963e-02 0.0000000000000000e+00 1
2.2839336869876638e-02 3.1197183853272258e-02 0.0000000000000000e+00 1
3.0657094734236768e-02 2.9966508069979483e-02 0.0000000000000000e+00 1
2.7851960033456989e-02 3.7311952123279910e-02 0.0000000000000000e+00 1
-4.7792545817730750e-02 -3.9040815934741853e-02 0.0000000000000000e+00 1
-5.1986716475551559e-02 -4.4333536610955626e-02 0.0000000000000000e+00 1
3.5560121033059632e-02 3.6101285460933219e-02 0.0000000000000000e+00 1
3.2834402652665115e-02 4.3323537248008671e-02 0.0000000000000000e+00 1
-1.0014866157257538e-02 1.4514799238327764e-03 0.0000000000000000e+00 1
-4.2778778793949833e-02 -5.1713644905990980e-02 0.0000000000000000e+00 1
4.0412989515978534e-02 4.2149166947354301e-02 0.0000000000000000e+00 1
3.7722635152126177e-02 4.9253939040044471e-02 0.0000000000000000e+00 1
4.9144911972874832e-03 2.0079676663453814e-02 0.0000000000000000e+00 1
2.5138373281224528e-02 4.4631890372938562e-02 0.0000000000000000e+00 1
1.8435106009439151e-02 3.8599214379932642e-03 0.0000000000000000e+00 1
4.5142302590679251e-02 4.8050990007306400e-02 0.0000000000000000e+00 1
4.2449314234162733e-02 5.5039359925178243e-02 0.0000000000000000e+00 1
-5.4478998666296616e-02 -3.8096944411680468e-02 0.0000000000000000e+00 1
-5.8623703431195426e-02 -4.3314106329700078e-02 0.0000000000000000e+00 1
-6.5984426055124938e-03 -7.5801446916715559e-02 0.0000000000000000e+00 1
3.5159375644410497e-02 5.6227272135054733e-02 0.0000000000000000e+00 1
3.9856865892870380e-02 6.1915451287276234e-02 0.0000000000000000e+00 1
4.6960576142476521e-02 6.0698013017413198e-02 0.0000000000000000e+00 1
4.4445498764671673e-02 6.7340008264308693e-02 0.0000000000000000e+00 1
5.1468384085270047e-02 6.6079021533287263e-02 0.0000000000000000e+00 1
4.8756983396593553e-02 7.2750379152746888e-02 0.0000000000000000e+00 1
5.5656794539255483e-02 7.1384848670403012e-02 0.0000000000000000e+00 1
-5.6182026192153428e-02 -4.9439974614034619e-02 0.0000000000000000e+00 1
1.5021854987998965e-02 3.2554009877632274e-02 0.0000000000000000e+00 1
-3.9271254872918465e-02 -2.7776450719103750e-02 0.0000000000000000e+00 1
-3.4772888853649139e-02 -2.2113693002602838e-02 0.0000000000000000e+00 1
2.8499808027494695e-02 1.6394490110407351e-02 0.0000000000000000e+00 1
-6.2587384293501080e-02 -4.8429096663394837e-02 0.0000000000000000e+00 1
-4.2011664452718235e-02 -2.1007243900073917e-02 0.0000000000000000e+00 1
-3.7592799438422690e-02 -1.5358700719932887e-02 0.0000000000000000e+00 1
5.3238163768840871e-02 7.7715210736840748e-02 0.0000000000000000e+00 1
4.0118658321884231e-03 -3.4766078655538164e-02 0.0000000000000000e+00 1
5.9496025171356742e-02 7.6625030454267565e-02 0.0000000000000000e+00 1
5.4140756029947348e-02 5.9529931087094888e-02 0.0000000000000000e+00 1
-6.1054030371712226e-02 -3.7163720854290781e-02 0.0000000000000000e+00 1
3.8357707765136140e-02 2.8864282731034710e-02 0.0000000000000000e+00 1
-3.6025747038865678e-02 -5.2861187853390140e-02 0.0000000000000000e+00 1
-4.0352070564397220e-02 -5.8024683502754602e-02 0.0000000000000000e+00 1
4.1645884823243148e-02 7.4217652764915626e-02 0.0000000000000000e+00 1
5.7379384857523787e-02 8.2396692795630375e-02 0.0000000000000000e+00 1
3.2636962144219996e-02 6.3147958741100255e-02 0.0000000000000000e+00 1
6.3271906849927020e-02 8.1476439427201550e-02 0.0000000000000000e+00 1
6.1924720923147575e-02 7.0683403200038325e-02 0.0000000000000000e+00 1
4.7894604345928439e-02 4.1021965241417206e-02 0.0000000000000000e+00 1
3.6872228472258446e-03 -5.3364526196948169e-02 0.0000000000000000e+00 1
-3.3738404660862718e-02 -5.9168632249952065e-02 0.0000000000000000e+00 1
-3.7951403656398854e-02 -6.4311647526219845e-02 0.0000000000000000e+00 1
-4.4566554158896848e-02 -6.3274492209091454e-02 0.0000000000000000e+00 1
-3.1447948886293389e-02 -6.5417462627730225e-02 0.0000000000000000e+00 1
-6.0265506859107823e-02 -5.4375987670285446e-02 0.0000000000000000e+00 1
5.1224083136396759e-02 8.3591761385902894e-02 0.0000000000000000e+00 1
-4.4706831044089859e-02 -1.4235126214839409e-02 0.0000000000000000e+00 1
-4.0735987126474651e-02 -8.2002707564304295e-03 0.0000000000000000e+00 1
-6.6469212706327996e-02 -5.3446875163407667e-02 0.0000000000000000e+00 1
-6.8779385869093795e-02 -4.7664546443130722e-02 0.0000000000000000e+00 1
-3.0876408198981894e-02 -1.6339491230529343e-02 0.0000000000000000e+00 1
-4.9252743258057487e-02 -1.9920470936026256e-02 0.0000000000000000e+00 1
6.1288189406953852e-02 8.6927243548996391e-02 0.0000000000000000e+00 1
1.1001678539540203e-02 -1.5617790355882765e-02 0.0000000000000000e+00 1
1.3736951974447815e-02 -2.2939752558221831e-02 0.0000000000000000e+00 1
1.8760079365628998e-02 -1.6903639994518931e-02 0.0000000000000000e+00 1
-3.5593442725788751e-02 -7.0510332030971887e-02 0.0000000000000000e+00 1
-2.9173301393971875e-02 -7.1596009027226751e-02 0.0000000000000000e+00 1
2.1490580963945127e-02 -2.4296800804384462e-02 0.0000000000000000e+00 1
2.6586692165334526e-02 -1.8199446460612435e-02 0.0000000000000000e+00 1
6.7001872416118199e-02 8.6064239754612568e-02 0.0000000000000000e+00 1
6.9021474323051071e-02 8.0691727201510882e-02 0.0000000000000000e+00 1
-7.2448709705409037e-02 -5.2475571555541660e-02 0.0000000000000000e+00 1
-7.4688403770741041e-02 -4.7026663731698719e-02 0.0000000000000000e+00 1
-6.4184511481578430e-02 -5.9277645288752505e-02 0.0000000000000000e+00 1
-5.1919248092825179e-02 -1.3188977314161771e-02 0.0000000000000000e+00 1
-5.6085410989474463e-02 -1.9436021452497166e-02 0.0000000000000000e+00 1
-1.4968761239127376e-02 -4.6575395514595825e-03 0.0000000000000000e+00 1
-1.7804559849975199e-02 2.6411708742588879e-03 0.0000000000000000e+00 1
-1.2870519064766425e-02 8.8166799509915798e-03 0.0000000000000000e+00 1
-2.0752234939482472e-02 1.0010370462962442e-02 0.0000000000000000e+00 1
-1.5764050077305101e-02 1.6249395938273337e-02 0.0000000000000000e+00 1
-2.3667655061495801e-02 1.7442003009337827e-02 0.0000000000000000e+00 1
-2.8658736549922806e-02 1.1178828465396489e-02 0.0000000000000000e+00 1
-1.8660162941947001e-02 2.3744627141505086e-02 0.0000000000000000e+00 1
-1.3599086432786463e-02 -2.5099339915600986e-02 0.0000000000000000e+00 1
-7.8193315600877555e-02 -5.1554198374468806e-02 0.0000000000000000e+00 1
-8.0244918190763043e-02 -4.6407562514137329e-02 0.0000000000000000e+00 1
-7.6974484678906718e-02 -4.1908380560324643e-02 0.0000000000000000e+00 1
-2.7079640813900886e-02 -6.0372962330335726e-02 0.0000000000000000e+00 1
-3.3204155321780976e-02 -7.6602033952437532e-02 0.0000000000000000e+00 1
-2.6885160378907397e-02 -7.7652034049027291e-02 0.0000000000000000e+00 1
6.4945107944233110e-02 9.1283058759115229e-02 0.0000000000000000e+00 1
5.9456080136899687e-02 9.2250470755237776e-02 0.0000000000000000e+00 1
-2.2863356272665947e-02 -7.2698707733391044e-02 0.0000000000000000e+00 1
-2.0730698392380564e-02 -7.8665013733333913e-02 0.0000000000000000e+00 1
-2.4570061665717235e-02 -8.3432259688794211e-02 0.0000000000000000e+00 1
-1.8717472910995195e-02 -8.4421238781857103e-02 0.0000000000000000e+00 1
-5.8014207815296689e-02 -6.0252214319901104e-02 0.0000000000000000e+00 1
-3.9637354546796802e-02 -7.5542115651128491e-02 0.0000000000000000e+00 1
5.2560527228463466e-02 4.6887217119714580e-02 0.0000000000000000e+00 1
5.5354010784565581e-02 3.9950108791538347e-02 0.0000000000000000e+00 1
5.9960688422962996e-02 4.5811043769901250e-02 0.0000000000000000e+00 1
7.2567864612626196e-02 8.5135844737552577e-02 0.0000000000000000e+00 1
-2.2708769344515121e-02 -3.4825801732799506e-03 0.0000000000000000e+00 1
1.6512595379179359e-02 -3.0342497200744650e-02 0.0000000000000000e+00 1
2.7847100658471756e-02 5.7467515843018242e-02 0.0000000000000000e+00 1
2.5418418083024755e-02 6.4451916535460993e-02 0.0000000000000000e+00 1
2.0600646069065726e-02 5.8781585843979696e-02 0.0000000000000000e+00 1
3.0141591860960736e-02 7.0046406918468002e-02 0.0000000000000000e+00 1
2.2982061465586050e-02 7.1366837760710539e-02 0.0000000000000000e+00 1
2.7678847195333832e-02 7.6882624682216780e-02 0.0000000000000000e+00 1
5.0678800736527842e-02 3.3975762622349449e-02 0.0000000000000000e+00 1
-1.0755595581832100e-02 2.2506633120079052e-02 0.0000000000000000e+00 1
-1.3617779843577187e-02 3.0060088585272395e-02 0.0000000000000000e+00 1
-5.6961107443929630e-03 2.8837216249936942e-02 0.0000000000000000e+00 1
-8.5374995154537444e-03 3.6378513041824580e-02 0.0000000000000000e+00 1
-5.9699029255305984e-04 3.5180941411786855e-02 0.0000000000000000e+00 1
-3.4723613619734449e-03 4.2661590100032447e-02 0.0000000000000000e+00 1
4.4339399510878001e-03 4.1467854370991306e-02 0.0000000000000000e+00 1
1.5733992512196098e-03 4.8896053027092122e-02 0.0000000000000000e+00 1
9.4430921604982399e-03 4.7662614965860252e-02 0.0000000000000000e+00 1
6.5744969074862294e-03 5.5065991680790856e-02 0.0000000000000000e+00 1
2.3830812617940622e-02 -1.0784203478524613e-02 0.0000000000000000e+00 1
3.1722398023368834e-02 -1.2045984246919416e-02 0.0000000000000000e+00 1
2.4195351565785214e-02 -3.1673195389478472e-02 0.0000000000000000e+00 1
1.9214579863023658e-02 -3.7709094392217313e-02 0.0000000000000000e+00 1
2.8945263691290309e-02 -4.5888268862806104e-03 0.0000000000000000e+00 1
3.6898976685109108e-02 -5.8224998333893377e-03 0.0000000000000000e+00 1
3.4078979522570912e-02 1.6503138351051114e-03 0.0000000000000000e+00 1
4.2089109773847277e-02 4.2937649365566445e-04 0.0000000000000000e+00 1
3.9246777833957060e-02 7.9219941202286290e-03 0.0000000000000000e+00 1
-2.1158624143280524e-03 -8.7454939838803078e-02 0.0000000000000000e+00 1
-7.6103226537239929e-02 -5.6887036869187536e-02 0.0000000000000000e+00 1
5.8133544400436457e-02 3.2975238314169070e-02 0.0000000000000000e+00 1
5.3510685577237295e-02 2.6867741343456448e-02 0.0000000000000000e+00 1
-5.7194010736241446e-02 -3.1760233945998785e-02 0.0000000000000000e+00 1
-6.3610648888342544e-02 -3.1013983185019991e-02 0.0000000000000000e+00 1
-6.1954561538035871e-02 -6.5043690306740579e-02 0.0000000000000000e+00 1
-5.5798125741239858e-02 -6.6116793659434556e-02 0.0000000000000000e+00 1
4.7125385315723842e-02 6.8027713546740210e-03 0.0000000000000000e+00 1
4.4216479823245142e-02 1.4239737070452561e-02 0.0000000000000000e+00 1
-3.1526792094714644e-02 1.8560635970610102e-02 0.0000000000000000e+00 1
-3.6509909939259996e-02 1.2314709169229785e-02 0.0000000000000000e+00 1
-3.3591131577148776e-02 5.0087331727658229e-03 0.0000000000000000e+00 1
-4.1041121257673688e-02 6.2920400487182946e-03 0.0000000000000000e+00 1
-6.7614012783302993e-02 -3.6251535123996252e-02 0.0000000000000000e+00 1
-7.0977625144187872e-02 -3.0935004883386394e-02 0.0000000000000000e+00 1
-6.6325145656851631e-02 -2.5059588977712547e-02 0.0000000000000000e+00 1
5.1684808091436774e-02 1.3518157598472857e-02 0.0000000000000000e+00 1
-8.3355092067507533e-02 -5.0645540914876747e-02 0.0000000000000000e+00 1
-8.5349247334380124e-02 -4.5943638211606463e-02 0.0000000000000000e+00 1
-2.4515333858549732e-02 -4.8716455192117376e-02 0.0000000000000000e+00 1
7.4485849105919585e-02 8.0044625970525488e-02 0.0000000000000000e+00 1
7.1183173556407478e-02 7.5426778238079056e-02 0.0000000000000000e+00 1
-1.9710543491605510e-02 -1.0883807107691488e-02 0.0000000000000000e+00 1
7.9287770504675274e-03 -6.6117753301170062e-02 0.0000000000000000e+00 1
-3.7246045077904341e-02 -8.1310537129892654e-02 0.0000000000000000e+00 1
-2.1459541946340255e-02 3.1151476534933057e-02 0.0000000000000000e+00 1
-5.8774403257301600e-02 -1.2892293405155839e-02 0.0000000000000000e+00 1
-5.4879482298971001e-02 -6.7499143107506423e-03 0.0000000000000000e+00 1
-6.8059719065088259e-02 -6.3697781737529713e-02 0.0000000000000000e+00 1
-1.6774013281737950e-02 -7.3892583360754438e-02 0.0000000000000000e+00 1
3.4199311805068744e-02 -1.9689029981067533e-02 0.0000000000000000e+00 1
6.3461786901398087e-02 9.6808055352982050e-02 0.0000000000000000e+00 1
-1.1197250907403368e-02 4.3711679861169993e-02 0.0000000000000000e+00 1
6.8815004538232999e-02 9.4959229491123939e-02 0.0000000000000000e+00 1
7.8073353971142082e-02 8.4326618919436450e-02 0.0000000000000000e+00 1
6.1127151391784283e-02 2.5732232324488371e-02 0.0000000000000000e+00 1
-5.9515611413009206e-02 -7.0493977442809760e-02 0.0000000000000000e+00 1
-5.3012961372155845e-02 -7.2315271621015781e-02 0.0000000000000000e+00 1
-4.0130359208795048e-02 2.0479745253278874e-02 0.0000000000000000e+00 1
7.6845217911277977e-02 7.5045211632587303e-02 0.0000000000000000e+00 1
7.3628457943695283e-02 6.9592138057126968e-02 0.0000000000000000e+00 1
5.7727180565931902e-02 9.7125818161522215e-02 0.0000000000000000e+00 1
5.4334789404413469e-02 9.3140839944848605e-02 0.0000000000000000e+00 1
-9.2253335801626183e-04 5.6035409225517779e-02 0.0000000000000000e+00 1
4.1637745977232323e-03 6.2100883496215391e-02 0.0000000000000000e+00 1
-2.2394486556401281e-02 -8.8598529529076334e-02 0.0000000000000000e+00 1
-1.6531072868156436e-02 -8.9261476796544004e-02 0.0000000000000000e+00 1
-1.3107808617619770e-02 -8.5584715373284506e-02 0.0000000000000000e+00 1
-2.9180320033612837e-02 -8.8515145933052958e-02 0.0000000000000000e+00 1
-1.8764797343126007e-02 -6.7822017332963128e-02 0.0000000000000000e+00 1
-1.1112550149706855e-02 -9.0205111726156612e-02 0.0000000000000000e+00 1
-8.8492134106675321e-02 -4.9572397507354489e-02 0.0000000000000000e+00 1
1.1949069808939183e-02 6.0839534373750524e-02 0.0000000000000000e+00 1
2.6753348494203300e-02 -3.8947987520320665e-02 0.0000000000000000e+00 1
2.1960577340674001e-02 -4.4186757528981963e-02 0.0000000000000000e+00 1
1.4379966624263595e-02 -4.3501003397593586e-02 0.0000000000000000e+00 1
1.7609752303527203e-02 -4.9619811355284364e-02 0.0000000000000000e+00 1
3.1917771467209116e-02 -3.3037225306791845e-02 0.0000000000000000e+00 1
-7.2667127885355301e-02 -2.4122787101762418e-02 0.0000000000000000e+00 1
-6.8676839016375252e-02 -1.8798184951749706e-02 0.0000000000000000e+00 1
-7.7975486716557296e-02 -2.8686067693502546e-02 0.0000000000000000e+00 1
5.0649168782778635e-02 -4.5048280877077313e-05 0.0000000000000000e+00 1
-5.1794985523414064e-02 -6.1245158531744649e-02 0.0000000000000000e+00 1
7.5868890892246701e-02 8.9282618901576891e-02 0.0000000000000000e+00 1
-7.8290647171112109e-03 -8.6564332129874799e-02 0.0000000000000000e+00 1
-6.0262169532284554e-03 -9.1716796486476543e-02 0.0000000000000000e+00 1
-4.1989717954165444e-03 -8.1641343670096775e-02 0.0000000000000000e+00 1
-8.1228121895766767e-02 -5.5449179441249691e-02 0.0000000000000000e+00 1
3.4708832636917375e-02 7.5533644524433438e-02 0.0000000000000000e+00 1
3.2288845078162438e-02 8.2136509211684264e-02 0.0000000000000000e+00 1
3.9043479953752132e-02 8.0876808660560573e-02 0.0000000000000000e+00 1
3.7031581581800435e-02 8.6980905652697879e-02 0.0000000000000000e+00 1
3.0329317378479582e-02 8.8764507846152876e-02 0.0000000000000000e+00 1
4.4597873125159747e-02 8.6116318421781801e-02 0.0000000000000000e+00 1
4.1519939885958299e-02 9.1949014841860979e-02 0.0000000000000000e+00 1
4.6408001130094162e-02 9.1574171042887620e-02 0.0000000000000000e+00 1
4.5881867695218299e-02 9.7125604643477428e-02 0.0000000000000000e+00 1
5.7112522799930850e-02 5.2634442053020231e-02 0.0000000000000000e+00 1
6.4447206322733666e-02 5.1504849524057629e-02 0.0000000000000000e+00 1
6.6851700899665190e-02 4.5046023265379903e-02 0.0000000000000000e+00 1
7.1131039031188184e-02 5.1008312313386268e-02 0.0000000000000000e+00 1
6.8703564143674636e-02 5.7194053165438893e-02 0.0000000000000000e+00 1
7.0544905283196013e-02 9.0160307857604149e-02 0.0000000000000000e+00 1
7.4070691295718916e-02 9.4236855501643749e-02 0.0000000000000000e+00 1
4.6417744700664357e-02 7.9211355187124743e-02 0.0000000000000000e+00 1
1.8770924255659103e-02 7.8018207060127784e-02 0.0000000000000000e+00 1
1.5878414768164782e-02 7.2248734211317320e-02 0.0000000000000000e+00 1
-4.3501738417132604e-02 -8.0426303404515898e-02 0.0000000000000000e+00 1
-4.6289319184129547e-02 -7.4068860636876274e-02 0.0000000000000000e+00 1
-5.0642064043220553e-02 -7.9398355790206737e-02 0.0000000000000000e+00 1
9.4157153260411835e-03 6.8798792657186567e-02 0.0000000000000000e+00 1
-6.5104286600062303e-02 -4.2246987828274726e-02 0.0000000000000000e+00 1
-7.0291588217902004e-02 -5.8039905084172040e-02 0.0000000000000000e+00 1
-7.4669206240169331e-02 -6.3044685325488695e-02 0.0000000000000000e+00 1
-2.4869964246627317e-02 -9.3982051081612270e-02 0.0000000000000000e+00 1
6.1682416267826390e-02 5.8153010405900270e-02 0.0000000000000000e+00 1
6.6164668802673576e-02 6.3902098891217132e-02 0.0000000000000000e+00 1
7.2835649956049214e-02 6.2747526791445532e-02 0.0000000000000000e+00 1
-1.4912911694812552e-02 -7.9892239564429604e-02 0.0000000000000000e+00 1
-7.2444124255081760e-02 -1.2286020855668300e-02 0.0000000000000000e+00 1
-3.0820637617375107e-02 -8.2395802271574656e-02 0.0000000000000000e+00 1
1.2351863022692748e-02 4.0285174420038157e-02 0.0000000000000000e+00 1
-4.9500141083777045e-02 -5.0723041533020048e-02 0.0000000000000000e+00 1
1.1641342197885122e-02 -3.6265947050022222e-02 0.0000000000000000e+00 1
6.7843545305911043e-03 -4.2227911269490853e-02 0.0000000000000000e+00 1
-8.9890540259947360e-02 -4.5134962554134399e-02 0.0000000000000000e+00 1
-5.3260443187566037e-02 -2.6084303547156042e-02 0.0000000000000000e+00 1
-4.6294870176609181e-02 -2.6869709602574076e-02 0.0000000000000000e+00 1
5.8784869909507521e-02 6.4641013403674272e-02 0.0000000000000000e+00 1
-1.7433730326975327e-02 -4.9827109468070660e-02 0.0000000000000000e+00 1
-2.2396551875192402e-02 -5.5174951297902508e-02 0.0000000000000000e+00 1
-1.5325317093130980e-02 -5.6468256347464663e-02 0.0000000000000000e+00 1
3.6923591191889195e-04 6.9677438768057903e-02 0.0000000000000000e+00 1
1.7403210976105189e-02 4.6117564660741496e-02 0.0000000000000000e+00 1
-8.2417392614578006e-02 -4.1646931458546838e-02 0.0000000000000000e+00 1
-7.9460370128968796e-02 -3.7357931764147423e-02 0.0000000000000000e+00 1
1.4825739144325129e-02 5.3368453339698807e-02 0.0000000000000000e+00 1
-1.2094179979228457e-02 -1.1934422475383835e-02 0.0000000000000000e+00 1
-1.6457105864154303e-02 -1.8228237331151552e-02 0.0000000000000000e+00 1
-8.9946318493284681e-03 -6.9798852438520631e-02 0.0000000000000000e+00 1
-4.3551667552950625e-02 -3.3494985086317056e-02 0.0000000000000000e+00 1
3.7274611306584909e-02 6.8653742292441450e-02 0.0000000000000000e+00 1
2.4835634447596767e-02 8.3452759401146451e-02 0.0000000000000000e+00 1
-3.1573489874625903e-02 -4.7544257288223653e-02 0.0000000000000000e+00 1
6.2746545024010572e-02 3.9024141318965790e-02 0.0000000000000000e+00 1
7.0538723473207957e-02 3.8741031295879053e-02 0.0000000000000000e+00 1
-2.5697662403984554e-02 3.8310553502658769e-03 0.0000000000000000e+00 1
-3.0326996612203370e-02 -2.4790948179875291e-03 0.0000000000000000e+00 1
2.0101099861892509e-02 3.8682962551317104e-02 0.0000000000000000e+00 1
4.9727666504276694e-02 5.3806658868287928e-02 0.0000000000000000e+00 1
9.9925504524151984e-03 2.6385872268774993e-02 0.0000000000000000e+00 1
1.5666208455994930e-02 -7.3141862458576762e-02 0.0000000000000000e+00 1
4.0019845451907086e-02 -3.4691824492654448e-02 0.0000000000000000e+00 1
3.3483430953277146e-02 2.2643542152818583e-02 0.0000000000000000e+00 1
-6.1900372622394124e-02 -6.3915998909139134e-03 0.0000000000000000e+00 1
-1.0745990162400505e-04 1.3801881255067488e-02 0.0000000000000000e+00 1
-6.0036211148375897e-03 4.9870019181500302e-02 0.0000000000000000e+00 1
-8.5899820585093618e-03 5.7287385300747458e-02 0.0000000000000000e+00 1
4.6163730970327617e-02 -7.8129059459025874e-03 0.0000000000000000e+00 1
-1.6321893366573369e-02 3.7436571064899400e-02 0.0000000000000000e+00 1
-1.9260912637313742e-02 4.5382795363448261e-02 0.0000000000000000e+00 1
-4.2274451166700151e-02 -6.9138290254047857e-02 0.0000000000000000e+00 1
2.3461438086638593e-02 1.0106786730061422e-02 0.0000000000000000e+00 1
1.3359421907600550e-02 -2.2735540438372989e-03 0.0000000000000000e+00 1
-1.8037096186611715e-02 -3.0933028651946408e-02 0.0000000000000000e+00 1
-7.1257043879993043e-02 -4.2394779625871612e-02 0.0000000000000000e+00 1
-2.6528342585260718e-02 2.4849126212281147e-02 0.0000000000000000e+00 1
-2.9867469071966829e-02 3.2873523805717855e-02 0.0000000000000000e+00 1
-9.1860511309616185e-04 -4.0334940062450482e-02 0.0000000000000000e+00 1
-5.0817228188612864e-03 7.6183445916398881e-03 0.0000000000000000e+00 1
-5.5115249039324223e-02 1.1643619892699434e-02 0.0000000000000000e+00 1
-5.2849796437561103e-02 4.3395889702534359e-03 0.0000000000000000e+00 1
-8.7355902855234979e-02 -3.2793136608088851e-02 0.0000000000000000e+00 1
-7.3736312013047825e-02 -3.7083147423406827e-02 0.0000000000000000e+00 1
8.2980937439144260e-03 -8.3242469356623831e-03 0.0000000000000000e+00 1
3.2035834525224009e-02 -4.9417423654801174e-02 0.0000000000000000e+00 1
3.9578328702410126e-02 -1.3484171250506405e-02 0.0000000000000000e+00 1
-4.7018004286209815e-02 -5.6775696754828180e-02 0.0000000000000000e+00 1
8.9217280375536619e-03 -2.8888191764701893e-02 0.0000000000000000e+00 1
2.3805785418598357e-02 -6.1648700152286538e-02 0.0000000000000000e+00 1
1.6816151299773104e-02 -6.1346425289798522e-02 0.0000000000000000e+00 1
3.0280967722125705e-02 5.0441263858689120e-02 0.0000000000000000e+00 1
4.8325558464624087e-02 -2.1227970903182344e-02 0.0000000000000000e+00 1
-2.6871132624913752e-02 -1.0199665384437846e-02 0.0000000000000000e+00 1
9.2870673365964447e-03 -4.8577934613681255e-02 0.0000000000000000e+00 1
-5.0428756022899104e-02 -3.2557832088078033e-02 0.0000000000000000e+00 1
-8.9995461159879699e-03 -1.9143807031891991e-02 0.0000000000000000e+00 1
5.5980255858265660e-02 -6.6560541771863912e-03 0.0000000000000000e+00 1
-2.5118165033527044e-02 -2.9911812499954230e-02 0.0000000000000000e+00 1
4.3143644373003838e-02 3.5023392955918074e-02 0.0000000000000000e+00 1
6.3065062702256813e-02 7.5304136812138290e-03 0.0000000000000000e+00 1
2.9180900935244149e-02 -2.5673291808086838e-02 0.0000000000000000e+00 1
-5.4064159028580056e-02 -5.5390056446767005e-02 0.0000000000000000e+00 1
-4.9142513773118165e-02 -6.7530044195262942e-02 0.0000000000000000e+00 1
-4.2787590502082425e-02 1.2962497326242405e-02 0.0000000000000000e+00 1
7.2639211227900650e-03 3.4073441917494153e-02 0.0000000000000000e+00 1
6.8554378335990984e-02 2.3414733297015319e-02 0.0000000000000000e+00 1
-3.7870500441407981e-02 -1.3904662409301093e-03 0.0000000000000000e+00 1
-4.5727687816443263e-02 1.4793693678697790e-05 0.0000000000000000e+00 1
-7.9203951092765689e-03 1.5025645053313316e-02 0.0000000000000000e+00 1
-8.0923637114898639e-02 -2.2789573694094657e-02 0.0000000000000000e+00 1
-8.7355158627033594e-02 -4.1413805654174220e-02 0.0000000000000000e+00 1
4.1271366962966669e-02 2.1492235425867742e-02 0.0000000000000000e+00 1
-4.8293492665464455e-02 -7.2873387160032098e-03 0.0000000000000000e+00 1
1.6051990489291117e-02 -9.5593318426770348e-03 0.0000000000000000e+00 1
-2.9221528020332878e-02 -5.3973074368653569e-02 0.0000000000000000e+00 1
1.8262424034641653e-02 6.5845989635955907e-02 0.0000000000000000e+00 1
-2.5030151979005287e-02 -6.6600632502915189e-02 0.0000000000000000e+00 1
-2.7886347536633150e-02 -2.3259467869127217e-02 0.0000000000000000e+00 1
5.6095455794908530e-02 2.0060456972414552e-02 0.0000000000000000e+00 1
2.1692722464435868e-03 2.7662249351203583e-02 0.0000000000000000e+00 1
3.9084049850258942e-02 9.7931271901271044e-02 0.0000000000000000e+00 1
1.1317170171101698e-02 8.1158368152839763e-02 0.0000000000000000e+00 1
-2.0278337171230204e-02 -6.1690757290661868e-02 0.0000000000000000e+00 1
5.5652553930592513e-02 8.7924041932675848e-02 0.0000000000000000e+00 1
7.8060410882112505e-02 5.0040813856713662e-02 0.0000000000000000e+00 1
-2.8992996488990943e-03 2.1318883615509029e-02 0.0000000000000000e+00 1
5.2254291987720788e-02 9.8617565401859425e-02 0.0000000000000000e+00 1
3.6318115339303667e-02 1.5283391666972422e-02 0.0000000000000000e+00 1
5.7053792197579766e-03 -5.9755979101990035e-02 0.0000000000000000e+00 1
6.5426599724986170e-02 7.5936066712332398e-02 0.0000000000000000e+00 1
-6.2166585336686099e-02 -7.8969824341155029e-02 0.0000000000000000e+00 1
2.2682672975219670e-02 5.1801378986510986e-02 0.0000000000000000e+00 1
4.5965313557551936e-02 2.7848736855021049e-02 0.0000000000000000e+00 1
2.1121830531102701e-02 -3.4314792514731920e-03 0.0000000000000000e+00 1
-7.1743424096546715e-02 -7.2314916150989852e-02 0.0000000000000000e+00 1
-4.0353496529249931e-02 -8.9507495481375779e-02 0.0000000000000000e+00 1
-6.6092056311598105e-02 -6.9857102123397588e-02 0.0000000000000000e+00 1
1.1731595769684498e-02 -7.8280005246254253e-02 0.0000000000000000e+00 1
-4.6061413477279822e-02 2.5453120909677187e-02 0.0000000000000000e+00 1
-2.0737547367142277e-02 -2.4280493305856635e-02 0.0000000000000000e+00 1
2.6205574379320501e-02 2.7675111645776118e-03 0.0000000000000000e+00 1
3.1301782198214230e-02 9.0207479378920912e-03 0.0000000000000000e+00 1
8.2391283286315314e-02 6.2776577824517635e-02 0.0000000000000000e+00 1
4.8790684967891053e-02 2.0671177544280866e-02 0.0000000000000000e+00 1
2.3204438580654053e-02 8.9962327912547227e-02 0.0000000000000000e+00 1
-8.4803422492267147e-02 -3.7221815192665493e-02 0.0000000000000000e+00 1
6.5422344549833505e-02 3.2303393529121288e-02 0.0000000000000000e+00 1
6.7627123167866995e-04 -9.1193061978615902e-02 0.0000000000000000e+00 1
-8.0470505692836813e-02 -6.5556571792538307e-02 0.0000000000000000e+00 1
8.2690812916913090e-02 8.4270532534411441e-02 0.0000000000000000e+00 1
3.6748743696286917e-02 -2.7151577855872053e-02 0.0000000000000000e+00 1
8.3092755735617363e-02 7.4447308739786597e-02 0.0000000000000000e+00 1
-9.2064031128168883e-02 -4.1622194309680789e-02 0.0000000000000000e+00 1
-3.3742715143467265e-02 2.5576192289593468e-02 0.0000000000000000e+00 1
-8.7847017853189116e-02 -5.9347658403392171e-02 0.0000000000000000e+00 1
-6.5552322297297363e-02 -1.3066087991161487e-02 0.0000000000000000e+00 1
7.8086490996857619e-02 6.5834407642063872e-02 0.0000000000000000e+00 1
6.7765923464456229e-02 7.0617698389286762e-02 0.0000000000000000e+00 1
-8.0202776126563846e-02 -6.0332100895918735e-02 0.0000000000000000e+00 1
-6.4874280152296862e-02 2.2689617438862350e-04 0.0000000000000000e+00 1
1.6245015694375509e-03 -4.7052522853901067e-02 0.0000000000000000e+00 1
-5.9839291572375171e-02 -2.5534425122203264e-02 0.0000000000000000e+00 1
1.2199857631749043e-02 -5.5645471681415697e-02 0.0000000000000000e+00 1
-8.6429590291472944e-02 -5.4602630080780402e-02 0.0000000000000000e+00 1
-1.5304936559573087e-02 -9.7810029344998550e-02 0.0000000000000000e+00 1
5.3598368031469237e-02 1.0440834396925490e-01 0.0000000000000000e+00 1
-5.7682879508148120e-02 -4.8892140032596153e-04 0.0000000000000000e+00 1
-7.5101515196420651e-03 -9.6724219051745872e-02 0.0000000000000000e+00 1
-3.5604191711187907e-02 3.8041884845277034e-02 0.0000000000000000e+00 1
-6.2542235464945917e-02 -1.9131100316746669e-02 0.0000000000000000e+00 1
9.6998693121219254e-03 -7.2343858158440175e-02 0.0000000000000000e+00 1
-5.2201662723601244e-02 -8.5124847055499442e-02 0.0000000000000000e+00 1
5.5154204303306323e-02 6.9379445181057091e-03 0.0000000000000000e+00 1
7.4903211634941236e-02 5.6465249627624621e-02 0.0000000000000000e+00 1
-3.5352559369252370e-02 -8.6295340802014689e-02 0.0000000000000000e+00 1
4.3700301899195257e-02 1.0169243746926872e-01 0.0000000000000000e+00 1
-2.3756514180571814e-02 -1.7198527038132343e-02 0.0000000000000000e+00 1
6.0607070072134797e-02 1.0085013350277468e-01 0.0000000000000000e+00 1
8.3109607945679204e-02 8.8655533911254039e-02 0.0000000000000000e+00 1
6.2721377046833393e-02 1.0450773505967585e-01 0.0000000000000000e+00 1
-9.7564159452492114e-03 -8.0857784783551281e-02 0.0000000000000000e+00 1
-9.2719408771471223e-02 -5.3351792040875583e-02 0.0000000000000000e+00 1
-5.7436434589334132e-02 -7.6224591420530549e-02 0.0000000000000000e+00 1
-8.1717293893582454e-02 -3.2963363220700849e-02 0.0000000000000000e+00 1
2.7348015566562529e-02 9.4009626549821632e-02 0.0000000000000000e+00 1
4.1519341203185851e-02 -2.0838098032019182e-02 0.0000000000000000e+00 1
7.0569725701036382e-02 1.0328151999581288e-01 0.0000000000000000e+00 1
7.9580591282976343e-02 9.5873470931263818e-02 0.0000000000000000e+00 1
6.8568585297564502e-02 9.9667804375121669e-02 0.0000000000000000e+00 1
-2.3143956209895775e-02 3.7971493068004479e-02 0.0000000000000000e+00 1
2.0709823987076232e-02 -5.5535944327929486e-02 0.0000000000000000e+00 1
7.6345264968073367e-02 9.8378339534698336e-02 0.0000000000000000e+00 1
7.6545234593487527e-02 3.6287861092617321e-02 0.0000000000000000e+00 1
-3.4045637407067383e-02 -8.9946148583746888e-03 0.0000000000000000e+00 1
5.9145804636798034e-02 1.3802361175142745e-02 0.0000000000000000e+00 1
-3.0375842654691711e-02 -9.4026369996904155e-02 0.0000000000000000e+00 1
-2.4484942427489439e-02 5.0279901037536698e-02 0.0000000000000000e+00 1
1.3590019530736672e-02 -6.7232920320249343e-02 0.0000000000000000e+00 1
-7.1375749895715657e-02 -6.7553471358565390e-02 0.0000000000000000e+00 1
7.9431396744717372e-02 7.9837563589420291e-02 0.0000000000000000e+00 1
-4.3690578346490018e-03 -9.6221454027506023e-02 0.0000000000000000e+00 1
-1.1889795777007963e-02 -7.5172804483656000e-02 0.0000000000000000e+00 1
-1.2543325602113999e-02 5.0247279259882600e-02 0.0000000000000000e+00 1
-1.4820190228094320e-02 -9.3848876681989837e-02 0.0000000000000000e+00 1
2.5133401455528292e-02 -4.9704928261211527e-02 0.0000000000000000e+00 1
7.1761864425052641e-02 9.7374555395336820e-02 0.0000000000000000e+00 1
-4.1128721633489726e-02 -8.4759648908148785e-02 0.0000000000000000e+00 1
4.9978438004783972e-02 9.3739001158156865e-02 0.0000000000000000e+00 1
-9.4674231924717245e-02 -4.7467049789589530e-02 0.0000000000000000e+00 1
1.1167131097918257e-02 -6.1838891893537022e-02 0.0000000000000000e+00 1
4.5798721391293505e-02 -1.5315021849265488e-02 0.0000000000000000e+00 1
-4.7765881770908701e-02 8.8253221973608464e-03 0.0000000000000000e+00 1
5.0550894555592404e-02 8.9030299202947721e-02 0.0000000000000000e+00 1
-1.0187278839838197e-02 -9.3964902856530655e-02 0.0000000000000000e+00 1
5.6484682350774577e-02 1.0114955603230059e-01 0.0000000000000000e+00 1
-1.3356558341975348e-02 6.2126946696629715e-02 0.0000000000000000e+00 1
-5.1886667745317590e-02 -2.0343583526295358e-03 0.0000000000000000e+00 1
7.0034700635668329e-02 6.6540480016718209e-02 0.0000000000000000e+00 1
-9.1990254651803618e-02 -4.7472341077922593e-02 0.0000000000000000e+00 1
7.7761763994375233e-02 9.2391618568452558e-02 0.0000000000000000e+00 1
3.6277018546624469e-02 9.2060321888435714e-02 0.0000000000000000e+00 1
-9.0177220765718755e-02 -5.2727832076371300e-02 0.0000000000000000e+00 1
6.2294372442683932e-02 1.9793309622731080e-02 0.0000000000000000e+00 1
7.7728932301109166e-02 6.0903568840927798e-02 0.0000000000000000e+00 1
7.8959411856006800e-02 7.0660844389437732e-02 0.0000000000000000e+00 1
2.8117466947620951e-02 -4.4809417653299592e-02 0.0000000000000000e+00 1
-1.4153205060646913e-02 -6.9785996517465781e-02 0.0000000000000000e+00 1
1.1446280514626157e-02 7.5339087144860512e-02 0.0000000000000000e+00 1
-2.3454476026035184e-03 -9.1196391623526468e-02 0.0000000000000000e+00 1
6.4447692688983746e-02 1.0115440800153545e-01 0.0000000000000000e+00 1
7.9536999641041786e-02 8.8039230822255551e-02 0.0000000000000000e+00 1
-2.0022638289446719e-02 -9.2130882728390373e-02 0.0000000000000000e+00 1
-8.4041708297071083e-02 -5.8436200596528015e-02 0.0000000000000000e+00 1
-6.2696521075845849e-02 -7.4269326954644069e-02 0.0000000000000000e+00 1
-7.6698574050122661e-02 -3.3500600818449237e-02 0.0000000000000000e+00 1
-2.1270265142358255e-03 6.2036829386412522e-02 0.0000000000000000e+00 1
7.2407717179126557e-02 4.5412741306815725e-02 0.0000000000000000e+00 1

Edges
94
1 2 1
2 3 1
3 4 1
4 5 1
5 6 1
6 7 1
7 8 1
8 9 1
9 10 1
10 11 1
11 12 1
12 13 1
13 14 1
14 15 1
15 16 1
16 17 1
17 18 1
18 19 1
19 20 1
20 21 1
21 22 1
22 23 1
23 24 1
24 25 1
25 26 1
26 27 1
27 28 1
28 29 1
29 30 1
30 31 1
31 32 1
32 33 1
33 34 1
34 35 1
35 36 1
36 37 1
37 38 1
38 39 1
39 40 1
40 41 1
41 42 1
42 43 1
43 44 1
44 45 1
45 46 1
46 47 1
47 48 1
48 49 1
49 50 1
50 51 1
51 52 1
52 53 1
53 54 1
54 55 1
55 56 1
56 57 1
57 58 1
58 59 1
59 60 1
60 61 1
61 62 1
62 63 1
63 64 1
64 65 1
65 66 1
66 67 1
67 68 1
68 69 1
69 70 1
70 71 1
71 72 1
72 73 1
73 74 1
74 75 1
75 76 1
76 77 1
77 78 1
78 79 1
79 80 1
80 81 1
81 82 1
82 83 1
83 84 1
84 85 1
85 86 1
86 87 1
87 88 1
88 89 1
89 90 1
90 91 1
91 92 1
92 93 1
93 94 1
94 1 1

Triangles
1152
316 382 616 1
405 354 406 1
377 375 497 1
356 539 587 1
366 160 510 1
539 132 587 1
98 467 599 1
352 493 534 1
406 354 570 1
491 98 599 1
402 509 615 1
354 405 490 1
390 239 600 1
375 119 497 1
26 27 535 1
160 428 510 1
316 381 382 1
405 458 490 1
455 104 484 1
111 393 514 1
493 125 534 1
403 402 615 1
116 26 535 1
119 375 376 1
241 495 500 1
109 377 497 1
20 102 411 1
209 219 401 1
355 98 491 1
402 108 509 1
370 99 374 1
241 494 495 1
102 552 591 1
444 494 581 1
355 122 526 1
413 231 425 1
122 355 541 1
95 404 406 1
98 355 526 1
378 455 484 1
239 390 401 1
19 20 411 1
231 413 545 1
74 75 429 1
403 407 503 1
95 406 559 1
407 369 503 1
494 241 581 1
365 130 583 1
131 410 536 1
130 365 562 1
88 89 416 1
514 393 595 1
382 555 588 1
1 137 540 1
128 406 570 1
119 376 416 1
102 591 619 1
339 480 564 1
392 390 600 1
94 1 540 1
219 239 401 1
233 516 550 1
210 208 425 1
397 512 561 1
536 410 546 1
139 141 383 1
141 203 383 1
374 99 449 1
481 421 548 1
116 382 588 1
464 101 556 1
369 292 503 1
292 369 433 1
227 209 401 1
101 464 577 1
330 331 470 1
470 331 622 1
350 399 400 1
385 227 387 1
368 114 609 1
400 575 579 1
114 368 606 1
89 119 416 1
377 109 571 1
480 244 564 1
126 74 429 1
222 394 412 1
160 366 614 1
451 97 543 1
115 389 608 1
391 393 508 1
464 122 541 1
458 236 490 1
233 481 548 1
108 402 439 1
481 233 550 1
122 464 556 1
231 210 425 1
550 477 578 1
75 107 429 1
137 422 540 1
389 115 572 1
400 579 593 1
387 227 401 1
316 139 383 1
383 203 568 1
379 236 474 1
334 335 368 1
227 385 438 1
222 412 425 1
161 152 465 1
274 341 417 1
591 363 619 1
420 220 421 1
424 423 482 1
97 88 416 1
427 336 502 1
423 320 482 1
99 370 613 1
394 222 446 1
512 397 624 1
575 400 607 1
114 569 609 1
273 427 502 1
343 543 557 1
408 330 462 1
442 105 624 1
373 578 592 1
373 550 578 1
350 276 399 1
105 442 580 1
270 334 384 1
393 111 563 1
334 368 551 1
123 378 484 1
108 439 532 1
439 389 532 1
357 414 544 1
399 380 400 1
208 222 425 1
412 413 425 1
539 356 612 1
136 574 576 1
411 102 619 1
428 427 510 1
345 409 410 1
433 430 519 1
292 433 519 1
555 382 601 1
213 424 437 1
551 368 609 1
260 343 557 1
243 216 408 1
334 271 335 1
371 373 592 1
462 330 470 1
512 129 561 1
457 124 584 1
391 508 608 1
124 457 590 1
348 350 576 1
414 357 605 1
381 316 383 1
236 379 490 1
287 380 399 1
435 269 483 1
343 451 543 1
152 150 465 1
381 367 382 1
270 271 334 1
220 420 475 1
421 220 465 1
136 576 593 1
579 136 593 1
276 254 399 1
105 512 624 1
36 37 449 1
256 317 409 1
160 147 428 1
523 562 594 1
242 256 409 1
412 398 413 1
284 394 446 1
256 257 270 1
378 123 560 1
216 202 408 1
434 435 483 1
382 116 616 1
281 362 363 1
364 363 367 1
407 126 429 1
532 389 572 1
350 400 593 1
147 149 428 1
197 430 445 1
395 398 412 1
270 257 271 1
287 351 380 1
246 254 276 1
368 335 422 1
246 230 254 1
220 161 465 1
275 274 417 1
437 424 482 1
474 419 489 1
228 230 246 1
523 130 562 1
254 287 399 1
348 576 617 1
348 276 350 1
379 474 489 1
409 317 410 1
385 293 438 1
467 468 599 1
281 280 362 1
228 221 230 1
279 280 281 1
386 389 439 1
522 100 524 1
423 260 549 1
219 221 228 1
391 392 393 1
391 390 392 1
410 131 586 1
413 398 414 1
101 457 584 1
104 455 598 1
207 227 438 1
209 210 219 1
219 210 221 1
325 333 531 1
236 226 474 1
125 442 534 1
457 101 577 1
189 211 419 1
242 243 256 1
388 390 391 1
159 166 440 1
388 387 390 1
317 270 384 1
213 217 424 1
295 386 439 1
149 426 428 1
209 208 210 1
203 143 436 1
386 387 388 1
256 243 257 1
386 385 387 1
205 207 438 1
166 225 440 1
27 28 138 1
99 36 449 1
395 397 398 1
430 418 445 1
207 208 209 1
279 275 280 1
277 276 348 1
97 416 543 1
242 216 243 1
394 395 412 1
138 139 316 1
223 330 408 1
295 385 386 1
93 94 127 1
254 255 287 1
420 289 475 1
167 189 419 1
369 306 433 1
238 216 242 1
295 293 385 1
287 337 351 1
207 206 208 1
205 206 207 1
211 202 216 1
149 151 426 1
288 443 444 1
251 274 275 1
442 125 580 1
331 377 622 1
202 223 408 1
37 121 449 1
522 524 586 1
345 258 409 1
243 408 462 1
258 242 409 1
394 286 395 1
281 363 364 1
418 212 445 1
281 364 415 1
222 206 446 1
362 365 411 1
205 200 206 1
560 487 582 1
206 200 446 1
223 321 330 1
195 199 200 1
284 286 394 1
245 260 423 1
256 270 317 1
336 440 502 1
189 201 202 1
331 375 377 1
212 418 492 1
166 165 167 1
359 595 600 1
322 258 345 1
172 174 434 1
143 145 436 1
371 310 372 1
191 194 195 1
195 194 199 1
204 200 205 1
274 283 341 1
251 250 274 1
288 262 443 1
371 372 373 1
157 159 440 1
193 167 419 1
189 202 211 1
170 168 475 1
172 434 483 1
262 264 443 1
167 188 189 1
364 367 381 1
294 293 295 1
406 128 559 1
199 284 446 1
211 216 238 1
145 160 436 1
306 305 433 1
245 259 260 1
293 229 438 1
278 275 279 1
159 165 166 1
166 167 193 1
217 245 424 1
426 336 427 1
568 203 589 1
155 157 336 1
246 276 277 1
238 242 258 1
219 228 239 1
361 369 407 1
168 220 475 1
395 396 397 1
390 387 401 1
545 413 605 1
361 306 369 1
32 33 476 1
372 420 421 1
68 69 115 1
549 260 557 1
291 229 293 1
111 514 553 1
261 288 339 1
310 289 420 1
89 90 119 1
196 507 513 1
49 50 129 1
279 281 415 1
207 209 227 1
254 230 255 1
33 34 120 1
330 321 331 1
467 118 468 1
159 163 165 1
191 190 194 1
151 155 426 1
202 201 223 1
336 157 440 1
187 190 191 1
30 31 448 1
85 86 118 1
370 310 371 1
163 213 437 1
372 421 481 1
434 339 435 1
199 232 284 1
277 348 358 1
225 193 226 1
237 235 250 1
235 226 236 1
85 118 467 1
328 327 329 1
267 327 328 1
45 46 125 1
443 328 444 1
507 299 513 1
426 427 428 1
309 289 310 1
167 165 188 1
96 32 476 1
27 138 535 1
284 285 286 1
187 186 190 1
237 250 251 1
405 283 458 1
235 236 458 1
217 240 245 1
386 388 389 1
234 226 235 1
185 186 187 1
304 303 305 1
339 288 480 1
333 506 531 1
305 430 433 1
73 74 126 1
134 542 551 1
229 205 438 1
365 417 562 1
264 267 443 1
155 336 426 1
274 250 283 1
195 200 204 1
362 280 365 1
174 261 434 1
537 351 587 1
419 211 489 1
141 143 203 1
87 88 97 1
304 305 306 1
447 492 507 1
157 158 159 1
221 210 231 1
444 328 494 1
422 498 540 1
28 29 112 1
305 418 430 1
9 10 131 1
155 156 157 1
37 38 121 1
47 48 105 1
189 188 201 1
31 32 96 1
234 235 237 1
404 405 406 1
305 303 418 1
145 147 160 1
447 212 492 1
372 310 420 1
508 393 563 1
315 324 325 1
96 476 477 1
35 36 99 1
267 328 443 1
81 82 122 1
13 14 128 1
51 52 106 1
245 423 424 1
71 72 108 1
17 18 130 1
41 42 123 1
493 352 610 1
261 262 288 1
200 199 446 1
84 85 467 1
225 226 234 1
83 84 98 1
77 78 124 1
252 248 289 1
302 301 303 1
287 255 337 1
5 6 134 1
341 283 404 1
251 275 278 1
402 295 439 1
261 339 434 1
204 205 229 1
185 184 186 1
288 444 480 1
360 306 361 1
166 193 225 1
43 44 103 1
151 153 155 1
183 184 185 1
208 206 222 1
212 185 445 1
325 324 333 1
75 76 107 1
226 193 474 1
302 303 304 1
185 187 445 1
11 12 100 1
183 185 212 1
283 250 458 1
508 115 608 1
91 92 109 1
67 68 508 1
187 197 445 1
300 299 301 1
282 258 322 1
291 293 294 1
174 192 261 1
427 273 510 1
239 228 511 1
53 54 132 1
345 410 586 1
187 191 197 1
280 275 417 1
300 301 302 1
196 181 447 1
294 295 402 1
183 182 184 1
313 314 315 1
260 259 343 1
267 326 327 1
195 204 478 1
264 266 267 1
196 447 507 1
181 182 183 1
346 279 415 1
435 339 564 1
361 407 429 1
245 240 259 1
374 449 538 1
323 322 353 1
315 314 324 1
395 286 396 1
39 40 104 1
199 194 232 1
28 112 138 1
157 156 158 1
159 158 163 1
309 310 370 1
79 80 101 1
65 66 111 1
269 435 527 1
298 297 299 1
181 183 447 1
72 73 509 1
252 289 309 1
298 299 300 1
430 197 519 1
261 192 262 1
50 51 530 1
284 232 285 1
155 153 156 1
184 215 450 1
418 303 492 1
190 186 224 1
335 271 431 1
248 170 475 1
183 212 447 1
269 162 483 1
181 180 182 1
267 266 326 1
311 312 313 1
285 318 441 1
246 277 511 1
182 180 459 1
165 163 437 1
313 312 314 1
184 182 215 1
250 235 458 1
304 306 360 1
108 72 509 1
179 180 181 1
234 237 273 1
315 515 529 1
178 176 460 1
300 302 349 1
204 290 478 1
404 283 405 1
323 353 354 1
15 16 95 1
186 184 450 1
179 181 196 1
177 179 452 1
223 320 321 1
197 191 478 1
138 316 535 1
42 43 487 1
278 279 346 1
268 297 298 1
35 99 472 1
179 178 180 1
417 341 562 1
118 547 554 1
43 103 487 1
268 265 297 1
324 314 378 1
460 176 471 1
302 304 453 1
331 332 375 1
177 178 179 1
327 326 355 1
180 178 198 1
180 198 459 1
175 173 176 1
215 182 459 1
41 123 484 1
262 263 264 1
174 175 192 1
168 161 220 1
121 38 479 1
172 173 174 1
238 258 282 1
179 196 452 1
98 84 467 1
298 300 456 1
174 173 175 1
453 360 454 1
282 322 323 1
213 214 217 1
349 302 453 1
221 231 517 1
169 171 172 1
247 170 248 1
163 164 213 1
314 312 455 1
307 308 311 1
31 96 448 1
384 334 551 1
175 176 177 1
198 178 460 1
262 192 263 1
177 176 178 1
268 298 342 1
193 419 474 1
494 329 495 1
373 372 481 1
249 248 252 1
232 194 486 1
304 360 453 1
107 454 623 1
311 308 312 1
255 230 517 1
162 169 483 1
308 253 347 1
33 120 476 1
454 107 603 1
191 195 478 1
290 229 291 1
300 349 456 1
264 265 266 1
154 162 269 1
289 248 475 1
172 171 173 1
440 225 502 1
63 64 135 1
151 152 153 1
249 253 307 1
192 175 466 1
147 148 149 1
190 224 486 1
266 265 268 1
353 322 524 1
264 263 265 1
498 431 533 1
175 177 466 1
378 314 455 1
123 487 560 1
177 452 466 1
224 186 450 1
329 327 491 1
203 436 589 1
342 298 456 1
51 106 530 1
149 150 151 1
449 121 538 1
40 41 484 1
326 266 463 1
456 349 457 1
286 285 441 1
123 42 487 1
217 218 240 1
315 325 515 1
247 248 249 1
251 278 504 1
263 192 466 1
299 297 513 1
145 146 147 1
327 355 491 1
285 296 318 1
7 8 113 1
120 34 472 1
249 252 253 1
252 309 488 1
34 35 472 1
38 39 479 1
188 165 437 1
328 329 494 1
176 173 471 1
343 344 451 1
307 253 308 1
463 342 464 1
277 359 511 1
30 448 525 1
39 104 479 1
194 190 486 1
266 268 463 1
296 232 486 1
173 171 471 1
515 215 529 1
171 170 247 1
154 269 461 1
156 153 461 1
213 164 214 1
303 301 492 1
223 201 320 1
163 158 164 1
268 342 463 1
273 237 504 1
318 319 352 1
396 441 442 1
297 265 496 1
309 370 374 1
455 312 473 1
104 40 484 1
263 466 496 1
308 347 473 1
492 301 507 1
143 144 145 1
45 125 493 1
127 498 533 1
225 234 502 1
171 247 471 1
169 170 171 1
153 152 154 1
312 308 473 1
3 4 114 1
309 374 488 1
466 452 496 1
347 253 488 1
398 397 561 1
331 321 332 1
151 150 152 1
282 323 379 1
218 214 244 1
22 23 133 1
450 215 515 1
217 214 218 1
204 229 290 1
103 44 493 1
278 366 504 1
122 82 526 1
285 232 296 1
44 45 493 1
119 90 497 1
93 127 469 1
169 172 483 1
61 62 117 1
362 411 619 1
59 60 136 1
169 168 170 1
149 148 150 1
224 499 520 1
162 168 169 1
318 296 319 1
92 93 469 1
20 21 102 1
478 290 519 1
153 154 461 1
271 257 272 1
90 91 497 1
12 13 518 1
154 152 161 1
240 218 241 1
147 146 148 1
290 291 292 1
253 252 488 1
313 315 529 1
460 471 501 1
237 251 504 1
294 402 403 1
249 307 501 1
343 259 344 1
265 263 496 1
162 161 168 1
318 352 534 1
224 450 499 1
323 354 490 1
301 299 507 1
83 98 526 1
154 161 162 1
68 115 508 1
158 156 485 1
257 243 462 1
471 247 501 1
228 246 511 1
338 255 517 1
396 286 441 1
234 273 502 1
325 499 515 1
73 126 509 1
145 144 146 1
148 146 233 1
290 292 519 1
411 365 583 1
375 332 376 1
365 280 417 1
335 431 498 1
201 188 482 1
124 454 603 1
480 444 581 1
100 12 518 1
337 338 356 1
211 238 489 1
247 249 501 1
141 142 143 1
278 346 366 1
238 282 489 1
156 461 485 1
230 221 517 1
501 307 521 1
297 496 513 1
352 319 506 1
19 411 583 1
311 313 528 1
110 607 618 1
164 158 485 1
56 57 110 1
13 128 518 1
322 345 524 1
496 452 513 1
188 437 482 1
282 379 489 1
379 323 490 1
105 48 512 1
144 142 340 1
460 501 521 1
277 358 359 1
307 311 521 1
240 241 500 1
244 214 505 1
320 201 482 1
48 49 512 1
118 86 547 1
452 196 513 1
454 124 590 1
259 240 500 1
143 142 144 1
54 55 537 1
520 499 531 1
292 291 503 1
109 92 469 1
528 313 529 1
197 478 519 1
320 423 549 1
71 108 532 1
291 294 503 1
214 164 505 1
49 129 512 1
296 486 520 1
70 71 532 1
29 30 525 1
273 504 510 1
319 296 520 1
468 495 599 1
486 224 520 1
547 451 554 1
337 255 338 1
344 259 500 1
499 450 515 1
10 11 522 1
132 537 587 1
421 465 548 1
82 83 526 1
294 403 503 1
91 109 497 1
521 311 528 1
359 358 514 1
164 485 505 1
198 460 521 1
11 100 522 1
141 140 142 1
16 17 523 1
504 366 510 1
97 451 547 1
431 272 432 1
499 325 531 1
356 338 357 1
129 50 530 1
459 528 529 1
442 441 534 1
595 392 600 1
355 326 541 1
271 272 431 1
543 376 557 1
198 521 528 1
459 198 528 1
215 459 529 1
473 347 573 1
233 146 516 1
87 97 547 1
485 461 527 1
463 464 541 1
139 140 141 1
81 122 556 1
436 160 614 1
131 10 522 1
389 388 608 1
17 130 523 1
146 144 516 1
138 112 139 1
410 317 546 1
505 485 527 1
144 340 516 1
441 318 534 1
95 16 523 1
461 269 527 1
101 80 556 1
272 257 462 1
321 320 549 1
18 19 583 1
324 378 560 1
272 462 470 1
589 436 614 1
347 488 538 1
506 319 531 1
432 272 470 1
319 520 531 1
125 46 580 1
553 514 602 1
127 94 540 1
416 376 543 1
333 560 582 1
9 131 536 1
8 9 536 1
465 150 548 1
128 14 559 1
112 29 525 1
377 571 622 1
150 148 548 1
469 127 533 1
407 403 615 1
106 52 539 1
52 53 539 1
464 342 577 1
351 537 618 1
23 24 555 1
422 335 498 1
124 78 584 1
126 407 615 1
477 476 578 1
525 448 558 1
495 329 599 1
79 101 584 1
338 517 545 1
96 477 585 1
422 137 606 1
488 374 538 1
456 457 577 1
468 118 554 1
67 508 563 1
77 124 603 1
357 338 545 1
326 463 541 1
132 54 537 1
517 231 545 1
340 142 558 1
607 380 618 1
431 432 533 1
367 363 591 1
15 95 559 1
115 69 572 1
337 356 587 1
381 383 568 1
364 381 568 1
86 87 547 1
47 105 580 1
429 107 623 1
457 349 590 1
562 341 594 1
361 429 623 1
113 536 546 1
139 112 140 1
6 7 542 1
524 345 586 1
454 360 623 1
244 480 581 1
453 454 590 1
140 112 525 1
368 422 606 1
396 442 624 1
107 76 603 1
317 384 546 1
25 26 116 1
218 244 581 1
382 367 601 1
70 532 572 1
53 132 539 1
1 2 137 1
530 106 544 1
537 566 618 1
373 481 550 1
332 321 549 1
148 233 548 1
66 67 563 1
404 95 594 1
550 516 597 1
64 65 553 1
65 111 553 1
473 573 598 1
511 359 600 1
358 348 565 1
113 8 536 1
415 364 568 1
7 113 542 1
14 15 559 1
21 22 552 1
80 81 556 1
111 66 563 1
451 344 554 1
140 525 558 1
414 398 561 1
106 539 612 1
551 542 620 1
455 473 598 1
333 324 560 1
5 134 569 1
527 435 564 1
69 70 572 1
498 127 540 1
376 332 557 1
354 353 570 1
332 549 557 1
134 6 542 1
505 527 564 1
500 495 604 1
4 5 569 1
142 140 558 1
472 99 613 1
55 56 566 1
102 21 552 1
344 500 604 1
487 103 582 1
62 63 567 1
135 64 553 1
340 558 585 1
60 61 574 1
103 493 610 1
495 468 604 1
585 477 597 1
415 568 589 1
535 316 616 1
63 135 567 1
121 479 573 1
400 380 607 1
244 505 564 1
393 392 595 1
57 58 575 1
46 47 580 1
133 23 555 1
342 456 577 1
537 55 566 1
518 128 570 1
117 62 567 1
380 351 618 1
363 362 619 1
476 120 578 1
61 117 574 1
353 524 621 1
130 18 583 1
22 133 552 1
78 79 584 1
347 538 573 1
58 59 579 1
413 414 605 1
109 469 571 1
351 337 587 1
578 120 592 1
565 135 602 1
136 60 574 1
135 565 567 1
558 448 585 1
241 218 581 1
356 357 612 1
56 110 566 1
239 511 600 1
110 57 575 1
346 415 589 1
448 96 585 1
370 371 613 1
538 121 573 1
59 136 579 1
134 551 609 1
506 333 582 1
533 432 571 1
571 432 622 1
341 404 594 1
114 4 569 1
469 533 571 1
116 535 616 1
131 522 586 1
24 25 588 1
524 100 621 1
388 391 608 1
349 453 590 1
120 472 592 1
346 589 614 1
358 565 602 1
76 77 603 1
546 384 620 1
113 546 620 1
95 523 594 1
3 114 596 1
567 565 617 1
514 358 602 1
329 491 599 1
2 3 596 1
573 479 598 1
479 104 598 1
117 567 617 1
357 544 612 1
574 117 576 1
397 396 624 1
566 110 618 1
544 414 611 1
360 361 623 1
340 585 597 1
570 353 621 1
359 514 595 1
468 554 604 1
582 103 610 1
555 24 588 1
352 506 610 1
516 340 597 1
366 346 614 1
518 570 621 1
477 550 597 1
100 518 621 1
530 544 611 1
129 530 611 1
575 58 579 1
509 126 615 1
432 470 622 1
576 350 593 1
506 582 610 1
25 116 588 1
565 348 617 1
384 551 620 1
357 545 605 1
544 106 612 1
552 133 591 1
554 344 604 1
569 134 609 1
137 2 596 1
591 133 601 1
371 592 613 1
561 129 611 1
135 553 602 1
542 113 620 1
137 596 606 1
414 561 611 1
133 555 601 1
367 591 601 1
596 114 606 1
110 575 607 1
576 117 617 1
592 472 613 1

End
