MeshVersionFormatted 2
Dimension 3

Vertices
129
1.2752952146514718e-01 -2.4001769057217665e-01 0.0000000000000000e+00 1
1.3058780760471450e-01 -2.4554606753192176e-01 0.0000000000000000e+00 1
1.3300034808493985e-01 -2.4987014495662085e-01 0.0000000000000000e+00 1
1.3478976746362384e-01 -2.5303225336177537e-01 0.0000000000000000e+00 1
1.3597869029856710e-01 -2.5507472326288744e-01 0.0000000000000000e+00 1
1.3658974114757058e-01 -2.5603988517545873e-01 0.0000000000000000e+00 1
1.3664554456843483e-01 -2.5597006961499130e-01 0.0000000000000000e+00 1
1.3616872511896058e-01 -2.5490760709698673e-01 0.0000000000000000e+00 1
1.3518190735694860e-01 -2.5289482813694703e-01 0.0000000000000000e+00 1
1.3370771584019966e-01 -2.4997406325037419e-01 0.0000000000000000e+00 1
1.3176877512651430e-01 -2.4618764295276963e-01 0.0000000000000000e+00 1
1.2938770977369332e-01 -2.4157789775963545e-01 0.0000000000000000e+00 1
1.2658714433953752e-01 -2.3618715818647362e-01 0.0000000000000000e+00 1
1.2338970338184747e-01 -2.3005775474878559e-01 0.0000000000000000e+00 1
1.1981801145842404e-01 -2.2323201796207370e-01 0.0000000000000000e+00 1
1.1589469312706786e-01 -2.1575227834183941e-01 0.0000000000000000e+00 1
1.1164237294557962e-01 -2.0766086640358461e-01 0.0000000000000000e+00 1
1.0708367547176008e-01 -1.9900011266281137e-01 0.0000000000000000e+00 1
1.0224122526340995e-01 -1.8981234763502136e-01 0.0000000000000000e+00 1
9.7137646878329917e-02 -1.8013990183571638e-01 0.0000000000000000e+00 1
9.1795564874320806e-02 -1.7002510578039842e-01 0.0000000000000000e+00 1
8.6237603809183175e-02 -1.5951028998456923e-01 0.0000000000000000e+00 1
8.0486388240717799e-02 -1.4863778496373053e-01 0.0000000000000000e+00 1
7.4564542726725511e-02 -1.3744992123338451e-01 0.0000000000000000e+00 1
6.8494691825006851e-02 -1.2598902930903266e-01 0.0000000000000000e+00 1
6.2299460093362638e-02 -1.1429743970617694e-01 0.0000000000000000e+00 1
5.6001472089593538e-02 -1.0241748294031923e-01 0.0000000000000000e+00 1
4.9623352371500354e-02 -9.0391489526961397e-02 0.0000000000000000e+00 1
4.3187725496883683e-02 -7.8261789981605184e-02 0.0000000000000000e+00 1
3.6717216023544288e-02 -6.6070714819752449e-02 0.0000000000000000e+00 1
3.0234448509282929e-02 -5.3860594556905131e-02 0.0000000000000000e+00 1
2.3762047511900305e-02 -4.1673759708565059e-02 0.0000000000000000e+00 1
1.7322637589197099e-02 -2.9552540790233978e-02 0.0000000000000000e+00 1
1.0938843298974033e-02 -1.7539268317413759e-02 0.0000000000000000e+00 1
4.6332891990318766e-03 -5.6762728056063208e-03 0.0000000000000000e+00 1
-1.5714001528287329e-03 5.9941152296865904e-03 0.0000000000000000e+00 1
-7.6526001988070323e-03 1.7429565272963105e-02 0.0000000000000000e+00 1
-1.3587686381102311e-02 2.8587746808721358e-02 0.0000000000000000e+00 1
-1.9354034141913837e-02 3.9426329321459473e-02 0.0000000000000000e+00 1
-2.4929018923440936e-02 4.9902982295675691e-02 0.0000000000000000e+00 1
-3.0290016167882867e-02 5.9975375215868126e-02 0.0000000000000000e+00 1
-3.5414401317438893e-02 6.9601177566534916e-02 0.0000000000000000e+00 1
-4.0279549814308341e-02 7.8738058832174274e-02 0.0000000000000000e+00 1
-4.4862837100690472e-02 8.7343688497284327e-02 0.0000000000000000e+00 1
-4.9141638618784567e-02 9.5375736046363235e-02 0.0000000000000000e+00 1
-5.3093329810789902e-02 1.0279187096390914e-01 0.0000000000000000e+00 1
-5.6695286118905786e-02 1.0954976273442021e-01 0.0000000000000000e+00 1
-5.9924882985331482e-02 1.1560708084239464e-01 0.0000000000000000e+00 1
-6.1931499023200443e-02 1.1935489430681670e-01 0.0000000000000000e+00 1
-6.4314007330028927e-02 1.2377898321734565e-01 0.0000000000000000e+00 1
-6.7031447813650419e-02 1.2880470545941325e-01 0.0000000000000000e+00 1
-7.0042860381898414e-02 1.3435741891845121e-01 0.0000000000000000e+00 1
-7.3307284942606382e-02 1.4036248147989122e-01 0.0000000000000000e+00 1
-7.6783761403607778e-02 1.4674525102916497e-01 0.0000000000000000e+00 1
-8.0431329672736057e-02 1.5343108545170425e-01 0.0000000000000000e+00 1
-8.4209029657824758e-02 1.6034534263294070e-01 0.0000000000000000e+00 1
-8.8075901266707321e-02 1.6741338045830612e-01 0.0000000000000000e+00 1
-9.1990984407217161e-02 1.7456055681323213e-01 0.0000000000000000e+00 1
-9.5913318987187829e-02 1.8171222958315048e-01 0.0000000000000000e+00 1
-9.9801944914452795e-02 1.8879375665349291e-01 0.0000000000000000e+00 1
-1.0361590209684550e-01 1.9573049590969105e-01 0.0000000000000000e+00 1
-1.0731423044219941e-01 2.0244780523717670e-01 0.0000000000000000e+00 1
-1.1085596985834804e-01 2.0887104252138161e-01 0.0000000000000000e+00 1
-1.1420016025312482e-01 2.1492556564773735e-01 0.0000000000000000e+00 1
-1.1730584153436323e-01 2.2053673250167577e-01 0.0000000000000000e+00 1
-1.2013205360989679e-01 2.2562990096862851e-01 0.0000000000000000e+00 1
-1.2263783638755893e-01 2.3013042893402730e-01 0.0000000000000000e+00 1
-1.2478222977518311e-01 2.3396367428330384e-01 0.0000000000000000e+00 1
-1.2652427368060284e-01 2.3705499490188986e-01 0.0000000000000000e+00 1
-1.2782300801165158e-01 2.3932974867521706e-01 0.0000000000000000e+00 1
-1.2863747267616280e-01 2.4071329348871723e-01 0.0000000000000000e+00 1
-1.2892670758196995e-01 2.4113098722782195e-01 0.0000000000000000e+00 1
-1.2864975263690653e-01 2.4050818777796301e-01 0.0000000000000000e+00 1
-1.2776564774880605e-01 2.3877025302457217e-01 0.0000000000000000e+00 1
-1.2623343282550192e-01 2.3584254085308104e-01 0.0000000000000000e+00 1
-1.2257865700560489e-01 2.2890860012978109e-01 0.0000000000000000e+00 1
-1.1882747221806630e-01 2.2179118750571519e-01 0.0000000000000000e+00 1
-1.1498332489066403e-01 2.1449708637257364e-01 0.0000000000000000e+00 1
-1.1104966145117585e-01 2.0703308012204663e-01 0.0000000000000000e+00 1
-1.0702992832737961e-01 1.9940595214582446e-01 0.0000000000000000e+00 1
-1.0292757194705315e-01 1.9162248583559738e-01 0.0000000000000000e+00 1
-9.8746038737974343e-02 1.8368946458305568e-01 0.0000000000000000e+00 1
-9.4488775127920893e-02 1.7561367177988946e-01 0.0000000000000000e+00 1
-9.0159227544670775e-02 1.6740189081778911e-01 0.0000000000000000e+00 1
-8.5760842416001695e-02 1.5906090508844475e-01 0.0000000000000000e+00 1
-8.1297066169691609e-02 1.5059749798354677e-01 0.0000000000000000e+00 1
-7.6771345233518223e-02 1.4201845289478532e-01 0.0000000000000000e+00 1
-7.2187126035259452e-02 1.3333055321385062e-01 0.0000000000000000e+00 1
-6.7547855002693113e-02 1.2454058233243301e-01 0.0000000000000000e+00 1
-6.2856978563596996e-02 1.1565532364222268e-01 0.0000000000000000e+00 1
-5.8117943145748974e-02 1.0668156053490989e-01 0.0000000000000000e+00 1
-5.3334195176926849e-02 9.7626076402184903e-02 0.0000000000000000e+00 1
-4.8509181084908475e-02 8.8495654635737914e-02 0.0000000000000000e+00 1
-4.3646347297471681e-02 7.9297078627259224e-02 0.0000000000000000e+00 1
-3.8749140242394287e-02 7.0037131768439065e-02 0.0000000000000000e+00 1
-3.3821006347454129e-02 6.0722597450967683e-02 0.0000000000000000e+00 1
-2.8865392040429032e-02 5.1360259066535338e-02 0.0000000000000000e+00 1
-2.3885743749096813e-02 4.1956900006832221e-02 0.0000000000000000e+00 1
-1.8885507901235339e-02 3.2519303663548660e-02 0.0000000000000000e+00 1
-1.3868130924622409e-02 2.3054253428374815e-02 0.0000000000000000e+00 1
-8.8370592470358757e-03 1.3568532693001022e-02 0.0000000000000000e+00 1
-3.7957392962535419e-03 4.0689248491174307e-03 0.0000000000000000e+00 1
1.2523824999467088e-03 -5.4377867115855683e-03 0.0000000000000000e+00 1
6.3038597137871112e-03 -1.4944818597417898e-02 0.0000000000000000e+00 1
1.1355245917489796e-02 -2.4445387416689210e-02 0.0000000000000000e+00 1
1.6403094683276952e-02 -3.3932709777709277e-02 0.0000000000000000e+00 1
2.1443959583370722e-02 -4.3400002288787862e-02 0.0000000000000000e+00 1
2.6474394189993308e-02 -5.2840481558234717e-02 0.0000000000000000e+00 1
3.1490952075366854e-02 -6.2247364194359583e-02 0.0000000000000000e+00 1
3.6490186811713538e-02 -7.1613866805472229e-02 0.0000000000000000e+00 1
4.1468651971255530e-02 -8.0933205999882379e-02 0.0000000000000000e+00 1
4.6422901126215013e-02 -9.0198598385899817e-02 0.0000000000000000e+00 1
5.1349487848814129e-02 -9.9403260571834309e-02 0.0000000000000000e+00 1
5.6244965711275061e-02 -1.0854040916599554e-01 0.0000000000000000e+00 1
6.1105888285819976e-02 -1.1760326077669332e-01 0.0000000000000000e+00 1
6.5928809144671016e-02 -1.2658503201223736e-01 0.0000000000000000e+00 1
7.0710281860050420e-02 -1.3547893948093748e-01 0.0000000000000000e+00 1
7.5446860004180313e-02 -1.4427819979110340e-01 0.0000000000000000e+00 1
8.0135097149282866e-02 -1.5297602955104489e-01 0.0000000000000000e+00 1
8.4771546867580247e-02 -1.6156564536907164e-01 0.0000000000000000e+00 1
8.9352762731294652e-02 -1.7004026385349341e-01 0.0000000000000000e+00 1
9.3875298312648209e-02 -1.7839310161262006e-01 0.0000000000000000e+00 1
9.8335707183863100e-02 -1.8661737525476124e-01 0.0000000000000000e+00 1
1.0273054291716154e-01 -1.9470630138822681e-01 0.0000000000000000e+00 1
1.0705635908476561e-01 -2.0265309662132636e-01 0.0000000000000000e+00 1
1.1130970925889754e-01 -2.1045097756236975e-01 0.0000000000000000e+00 1
1.1548714701177952e-01 -2.1809316081966673e-01 0.0000000000000000e+00 1
1.1958522591563366e-01 -2.2557286300152701e-01 0.0000000000000000e+00 1
1.2360049954268217e-01 -2.3288330071626046e-01 0.0000000000000000e+00 1

Edges
129
1 2 1
2 3 1
3 4 1
4 5 1
5 6 1
6 7 1
7 8 1
8 9 1
9 10 1
10 11 1
11 12 1
12 13 1
13 14 1
14 15 1
15 16 1
16 17 1
17 18 1
18 19 1
19 20 1
20 21 1
21 22 1
22 23 1
23 24 1
24 25 1
25 26 1
26 27 1
27 28 1
28 29 1
29 30 1
30 31 1
31 32 1
32 33 1
33 34 1
34 35 1
35 36 1
36 37 1
37 38 1
38 39 1
39 40 1
40 41 1
41 42 1
42 43 1
43 44 1
44 45 1
45 46 1
46 47 1
47 48 1
48 49 1
49 50 1
50 51 1
51 52 1
52 53 1
53 54 1
54 55 1
55 56 1
56 57 1
57 58 1
58 59 1
59 60 1
60 61 1
61 62 1
62 63 1
63 64 1
64 65 1
65 66 1
66 67 1
67 68 1
68 69 1
69 70 1
70 71 1
71 72 1
72 73 1
73 74 1
74 75 1
75 76 1
76 77 1
77 78 1
78 79 1
79 80 1
80 81 1
81 82 1
82 83 1
83 84 1
84 85 1
85 86 1
86 87 1
87 88 1
88 89 1
89 90 1
90 91 1
91 92 1
92 93 1
93 94 1
94 95 1
95 96 1
96 97 1
97 98 1
98 99 1
99 100 1
100 101 1
101 102 1
102 103 1
103 104 1
104 105 1
105 106 1
106 107 1
107 108 1
108 109 1
109 110 1
110 111 1
111 112 1
112 113 1
113 114 1
114 115 1
115 116 1
116 117 1
117 118 1
118 119 1
119 120 1
120 121 1
121 122 1
122 123 1
123 124 1
124 125 1
125 126 1
126 127 1
127 128 1
128 129 1
129 1 1

Triangles
127
51 89 50 1
7 8 5 1
49 90 48 1
2 12 1 1
12 13 1 1
13 129 1 1
3 11 2 1
11 12 2 1
4 10 3 1
10 11 3 1
8 9 4 1
9 10 4 1
14 129 13 1
15 128 14 1
128 129 14 1
16 127 15 1
127 128 15 1
17 126 16 1
126 127 16 1
18 125 17 1
125 126 17 1
19 124 18 1
124 125 18 1
20 123 19 1
123 124 19 1
21 122 20 1
122 123 20 1
23 119 22 1
120 121 22 1
24 118 23 1
118 119 23 1
25 117 24 1
117 118 24 1
26 115 25 1
115 116 25 1
27 114 26 1
28 113 27 1
113 114 27 1
30 110 29 1
111 112 29 1
31 109 30 1
109 110 30 1
32 108 31 1
33 106 32 1
34 105 33 1
105 106 33 1
35 104 34 1
104 105 34 1
37 101 36 1
38 100 37 1
39 99 38 1
99 100 38 1
40 98 39 1
98 99 39 1
41 97 40 1
97 98 40 1
92 93 45 1
91 92 46 1
48 90 47 1
50 89 49 1
89 90 49 1
88 89 51 1
87 88 53 1
86 87 54 1
85 86 55 1
59 83 58 1
83 84 58 1
60 82 59 1
82 83 59 1
61 81 60 1
81 82 60 1
62 80 61 1
80 81 61 1
63 79 62 1
79 80 62 1
78 79 63 1
66 77 65 1
77 78 65 1
67 76 66 1
76 77 66 1
68 76 67 1
69 75 68 1
75 76 68 1
70 74 69 1
74 75 69 1
71 73 70 1
73 74 70 1
72 73 71 1
5 8 4 1
6 7 5 1
22 121 21 1
121 122 21 1
119 120 22 1
116 117 25 1
114 115 26 1
29 112 28 1
112 113 28 1
110 111 29 1
108 109 31 1
106 107 32 1
107 108 32 1
36 103 35 1
103 104 35 1
101 102 36 1
102 103 36 1
100 101 37 1
42 96 41 1
96 97 41 1
43 95 42 1
95 96 42 1
44 94 43 1
94 95 43 1
45 93 44 1
93 94 44 1
46 92 45 1
47 91 46 1
90 91 47 1
52 88 51 1
53 88 52 1
54 87 53 1
55 86 54 1
56 85 55 1
57 85 56 1
58 84 57 1
84 85 57 1
64 78 63 1
65 78 64 1

End
