MeshVersionFormatted 2
Dimension 3

Vertices
554
-9.0295966176088316e-02 -8.8910466056163970e-02 0.0000000000000000e+00 1
-9.0855215964064762e-02 -9.1643414961592617e-02 0.0000000000000000e+00 1
-9.0586864959515928e-02 -9.4697215480990055e-02 0.0000000000000000e+00 1
-8.9567518276586072e-02 -9.8008491713074741e-02 0.0000000000000000e+00 1
-8.7873781029419645e-02 -1.0151386775656523e-01 0.0000000000000000e+00 1
-8.5582258332160863e-02 -1.0514996771017994e-01 0.0000000000000000e+00 1
-8.2769555298954162e-02 -1.0885341567263739e-01 0.0000000000000000e+00 1
-7.9512277043943869e-02 -1.1256083574265605e-01 0.0000000000000000e+00 1
-7.5887028681274352e-02 -1.1620885201895444e-01 0.0000000000000000e+00 1
-7.1970415325089909e-02 -1.1973408860025102e-01 0.0000000000000000e+00 1
-6.7839042089534882e-02 -1.2307316958526424e-01 0.0000000000000000e+00 1
-6.3569514088753651e-02 -1.2616271907271265e-01 0.0000000000000000e+00 1
-5.9238436436890543e-02 -1.2893936116131469e-01 0.0000000000000000e+00 1
-5.4922414248089912e-02 -1.3133971994978888e-01 0.0000000000000000e+00 1
-5.0698052636496085e-02 -1.3330041953685368e-01 0.0000000000000000e+00 1
-4.6641956716253423e-02 -1.3475808402122758e-01 0.0000000000000000e+00 1
-4.2830731601506258e-02 -1.3564933750162908e-01 0.0000000000000000e+00 1
-3.9340982406398939e-02 -1.3591080407677664e-01 0.0000000000000000e+00 1
-3.6249314245075825e-02 -1.3547910784538877e-01 0.0000000000000000e+00 1
-3.3632332231681245e-02 -1.3429087290618397e-01 0.0000000000000000e+00 1
-3.1566641480359536e-02 -1.3228272335788066e-01 0.0000000000000000e+00 1
-2.7915322720146435e-02 -1.2723348851791030e-01 0.0000000000000000e+00 1
-2.4020638424207666e-02 -1.2183660575171912e-01 0.0000000000000000e+00 1
-1.9905833118987030e-02 -1.1611249371982614e-01 0.0000000000000000e+00 1
-1.5594151330928310e-02 -1.1008157108275020e-01 0.0000000000000000e+00 1
-1.1108837586475302e-02 -1.0376425650101023e-01 0.0000000000000000e+00 1
-6.4731364120717960e-03 -9.7180968635125195e-02 0.0000000000000000e+00 1
-1.7102923341615894e-03 -9.0352126145614053e-02 0.0000000000000000e+00 1
3.1564501208115395e-03 -8.3298147692995692e-02 0.0000000000000000e+00 1
8.1038464264037782e-03 -7.6039451937789021e-02 0.0000000000000000e+00 1
1.3108652056171347e-02 -6.8596457540512981e-02 0.0000000000000000e+00 1
1.8147622483670470e-02 -6.0989583161686525e-02 0.0000000000000000e+00 1
2.3197513182457326e-02 -5.3239247461828544e-02 0.0000000000000000e+00 1
2.8235079626088139e-02 -4.5365869101458026e-02 0.0000000000000000e+00 1
3.3237077288119102e-02 -3.7389866741093819e-02 0.0000000000000000e+00 1
3.8180261642106444e-02 -2.9331659041254926e-02 0.0000000000000000e+00 1
4.3041388161606381e-02 -2.1211664662460231e-02 0.0000000000000000e+00 1
4.7797212320175100e-02 -1.3050302265228669e-02 0.0000000000000000e+00 1
5.2424489591368820e-02 -4.8679905100792002e-03 0.0000000000000000e+00 1
5.6899975448743714e-02 3.3148519424693081e-03 0.0000000000000000e+00 1
6.1200425365856043e-02 1.1477806431897861e-02 0.0000000000000000e+00 1
6.5302594816261994e-02 1.9600454297687583e-02 0.0000000000000000e+00 1
6.9183239273517785e-02 2.7662376879319519e-02 0.0000000000000000e+00 1
7.2819114211179578e-02 3.5643155516274741e-02 0.0000000000000000e+00 1
7.6186975102803658e-02 4.3522371548034330e-02 0.0000000000000000e+00 1
7.9263577421946160e-02 5.1279606314079323e-02 0.0000000000000000e+00 1
8.2025676642163328e-02 5.8894441153890850e-02 0.0000000000000000e+00 1
8.4450028237011379e-02 6.6346457406949957e-02 0.0000000000000000e+00 1
8.6513387680046488e-02 7.3615236412737692e-02 0.0000000000000000e+00 1
8.8192510444824929e-02 8.0680359510735170e-02 0.0000000000000000e+00 1
8.9464152004902833e-02 8.7521408040423396e-02 0.0000000000000000e+00 1
9.0305067833836447e-02 9.4117963341283528e-02 0.0000000000000000e+00 1
9.0692013405181987e-02 1.0044960675279659e-01 0.0000000000000000e+00 1
9.0601744192495615e-02 1.0649591961444364e-01 0.0000000000000000e+00 1
9.0011015669333588e-02 1.1223648326570575e-01 0.0000000000000000e+00 1
8.8896583309252097e-02 1.1765087904606401e-01 0.0000000000000000e+00 1
8.7235202585807359e-02 1.2271868829499953e-01 0.0000000000000000e+00 1
8.5003628972555548e-02 1.2741949235199329e-01 0.0000000000000000e+00 1
8.2178617943052937e-02 1.3173287255652646e-01 0.0000000000000000e+00 1
7.8736924970855660e-02 1.3563841024808004e-01 0.0000000000000000e+00 1
7.4655305529519989e-02 1.3911568676613512e-01 0.0000000000000000e+00 1
7.0238875553693458e-02 1.4186146605358441e-01 0.0000000000000000e+00 1
6.5729238566950385e-02 1.4367455688503702e-01 0.0000000000000000e+00 1
6.1134749519771159e-02 1.4459391435414226e-01 0.0000000000000000e+00 1
5.6463763362636255e-02 1.4465849355454941e-01 0.0000000000000000e+00 1
5.1724635046026091e-02 1.4390724957990764e-01 0.0000000000000000e+00 1
4.6925719520421141e-02 1.4237913752386633e-01 0.0000000000000000e+00 1
4.2075371736301853e-02 1.4011311248007469e-01 0.0000000000000000e+00 1
3.7181946644148686e-02 1.3714812954218211e-01 0.0000000000000000e+00 1
3.2253799194442045e-02 1.3352314380383767e-01 0.0000000000000000e+00 1
2.7299284337662429e-02 1.2927711035869083e-01 0.0000000000000000e+00 1
2.2326757024290250e-02 1.2444898430039077e-01 0.0000000000000000e+00 1
1.7344572204805963e-02 1.1907772072258672e-01 0.0000000000000000e+00 1
1.2361084829690051e-02 1.1320227471892809e-01 0.0000000000000000e+00 1
7.3846498494228897e-03 1.0686160138306398e-01 0.0000000000000000e+00 1
2.4236222144849960e-03 1.0009465580864389e-01 0.0000000000000000e+00 1
-2.5136431246432119e-03 9.2940393089316869e-02 0.0000000000000000e+00 1
-7.4187912174813013e-03 8.5437768318732274e-02 0.0000000000000000e+00 1
-1.2283467113548781e-02 7.7625736590539438e-02 0.0000000000000000e+00 1
-1.7099315862365256e-02 6.9543252998387484e-02 0.0000000000000000e+00 1
-2.1857982513450228e-02 6.1229272635925883e-02 0.0000000000000000e+00 1
-2.6551112116323286e-02 5.2722750596803772e-02 0.0000000000000000e+00 1
-3.1170349720503976e-02 4.4062641974670441e-02 0.0000000000000000e+00 1
-3.5707340375511848e-02 3.5287901863175167e-02 0.0000000000000000e+00 1
-4.0153729130866428e-02 2.6437485355967291e-02 0.0000000000000000e+00 1
-4.4501161036087283e-02 1.7550347546696040e-02 0.0000000000000000e+00 1
-4.8741281140693996e-02 8.6654435290106462e-03 0.0000000000000000e+00 1
-5.2865734494206090e-02 -1.7827160343959758e-04 0.0000000000000000e+00 1
-5.6866166146143121e-02 -8.9418427570053909e-03 0.0000000000000000e+00 1
-6.0734221146024642e-02 -1.7586314838037454e-02 0.0000000000000000e+00 1
-6.4461544543370192e-02 -2.6072732752886525e-02 0.0000000000000000e+00 1
-6.8039781387699352e-02 -3.4362141407903363e-02 0.0000000000000000e+00 1
-7.1460576728531663e-02 -4.2415585709438673e-02 0.0000000000000000e+00 1
-7.4715575615386678e-02 -5.0194110563843181e-02 0.0000000000000000e+00 1
-7.7796423097783937e-02 -5.7658760877467602e-02 0.0000000000000000e+00 1
-8.0694764225242979e-02 -6.4770581556662640e-02 0.0000000000000000e+00 1
-8.3402244047283400e-02 -7.1490617507779103e-02 0.0000000000000000e+00 1
-8.5910507613424725e-02 -7.7779913637167658e-02 0.0000000000000000e+00 1
-8.8211199973186522e-02 -8.3599514851179030e-02 0.0000000000000000e+00 1
-7.1249322103864435e-02 -1.1364675889709464e-01 0.0000000000000000e+00 1
8.5079033120226591e-02 1.1403263563799396e-01 0.0000000000000000e+00 1
2.3920386581585962e-02 1.1816456891655930e-01 0.0000000000000000e+00 1
7.6248300915196326e-02 6.5094287698421460e-02 0.0000000000000000e+00 1
-1.8995250022960142e-02 -1.0342546725522572e-01 0.0000000000000000e+00 1
8.4381812200944525e-02 9.2247862512262233e-02 0.0000000000000000e+00 1
5.4663571690019987e-02 1.4068271941319238e-01 0.0000000000000000e+00 1
-2.4411438128274991e-03 7.7810409498095978e-02 0.0000000000000000e+00 1
-7.9517690393596047e-02 -7.6781462445744381e-02 0.0000000000000000e+00 1
5.6246209455599577e-02 1.9126652128817902e-02 0.0000000000000000e+00 1
4.2165450172107433e-02 -5.4078746569355919e-03 0.0000000000000000e+00 1
-7.0391439948267839e-02 -5.6779427943647598e-02 0.0000000000000000e+00 1
4.4372253786780520e-03 -6.8161794049682575e-02 0.0000000000000000e+00 1
2.8822530274213849e-02 -2.9442735894546622e-02 0.0000000000000000e+00 1
6.6916367302615562e-02 4.2960022420203837e-02 0.0000000000000000e+00 1
1.1353658334361003e-02 9.9552777045847529e-02 0.0000000000000000e+00 1
-5.1298460077928466e-02 -1.7424426922545578e-02 0.0000000000000000e+00 1
-1.5795957210047135e-02 5.3285634594131027e-02 0.0000000000000000e+00 1
-5.4965972951726644e-02 -1.2667902845955220e-01 0.0000000000000000e+00 1
-3.0290554912419200e-02 2.6499476212788396e-02 0.0000000000000000e+00 1
-8.6982265613132617e-02 -9.4869481148201595e-02 0.0000000000000000e+00 1
3.7852754174907348e-02 1.3090050094860600e-01 0.0000000000000000e+00 1
7.4124903822156529e-02 1.3377941618839995e-01 0.0000000000000000e+00 1
-4.0881911877730992e-02 -1.3267368186485451e-01 0.0000000000000000e+00 1
-8.1090189100654103e-02 -1.0465814382349982e-01 0.0000000000000000e+00 1
-3.0916729610264565e-02 -1.2121636745707255e-01 0.0000000000000000e+00 1
-9.6212779811241083e-03 -8.8457067498448824e-02 0.0000000000000000e+00 1
-6.3962740296191894e-02 -4.1948934362870512e-02 0.0000000000000000e+00 1
1.4044324881770202e-02 -5.2802515920012921e-02 0.0000000000000000e+00 1
-4.3264465206687898e-02 7.0441983767166073e-04 0.0000000000000000e+00 1
8.0630424200879819e-02 7.9407256680800245e-02 0.0000000000000000e+00 1
-6.3357685876532371e-02 -1.2138186482831088e-01 0.0000000000000000e+00 1
8.5698517158453627e-02 1.0291888391900117e-01 0.0000000000000000e+00 1
-8.5382296871761049e-02 -8.7673528953517377e-02 0.0000000000000000e+00 1
-4.7433750402316940e-02 -1.3053240407732739e-01 0.0000000000000000e+00 1
8.2461999546845938e-02 1.2345954299885578e-01 0.0000000000000000e+00 1
4.6496578086881436e-02 1.3766231001598378e-01 0.0000000000000000e+00 1
6.6442124810651579e-02 1.3893281767563059e-01 0.0000000000000000e+00 1
-3.4855763551581320e-02 -1.3221074652104492e-01 0.0000000000000000e+00 1
-8.2337702506326368e-02 -8.2606223834754453e-02 0.0000000000000000e+00 1
-7.6063967114004261e-02 -8.2172068467080306e-02 0.0000000000000000e+00 1
-7.2914632482104336e-02 -7.6166514559466492e-02 0.0000000000000000e+00 1
-6.9322325786414091e-02 -8.1977620212574875e-02 0.0000000000000000e+00 1
-6.6059166592484106e-02 -7.5756021170843124e-02 0.0000000000000000e+00 1
-6.2365712590652551e-02 -8.1737671715865379e-02 0.0000000000000000e+00 1
-5.8995764180261479e-02 -7.5302578335599807e-02 0.0000000000000000e+00 1
-5.5160484628994949e-02 -8.1320687323295629e-02 0.0000000000000000e+00 1
-5.1750884420639888e-02 -7.4840431003333513e-02 0.0000000000000000e+00 1
-5.8517345804673507e-02 -8.7673405443146363e-02 0.0000000000000000e+00 1
-5.1395650972806607e-02 -8.7320899947884445e-02 0.0000000000000000e+00 1
-5.4647031464845626e-02 -9.3445052060582928e-02 0.0000000000000000e+00 1
-4.7708289741062178e-02 -9.3210787330683775e-02 0.0000000000000000e+00 1
-5.0900100790469374e-02 -9.9219601553804521e-02 0.0000000000000000e+00 1
-4.4316652900362047e-02 -8.7054855378207965e-02 0.0000000000000000e+00 1
-6.0982296587708901e-02 -9.3846230866948502e-02 0.0000000000000000e+00 1
-4.4094040277980945e-02 -9.9019533471549182e-02 0.0000000000000000e+00 1
-4.7206033233425961e-02 -1.0496965682229850e-01 0.0000000000000000e+00 1
-5.3651562555506807e-02 -1.0500658641726221e-01 0.0000000000000000e+00 1
-4.0558020181933357e-02 -1.0476497773465260e-01 0.0000000000000000e+00 1
-3.7253720599485618e-02 -9.9002512033496026e-02 0.0000000000000000e+00 1
-4.3768137811113300e-02 -1.1052158960654201e-01 0.0000000000000000e+00 1
-5.5766069485876257e-02 -6.8626294484457256e-02 0.0000000000000000e+00 1
-4.8120156275827705e-02 -6.8187071271918864e-02 0.0000000000000000e+00 1
-5.2434157861419389e-02 -6.1676647217588518e-02 0.0000000000000000e+00 1
-4.4554523861291356e-02 -6.1169590784783491e-02 0.0000000000000000e+00 1
-4.0215294915495893e-02 -6.7889961517207081e-02 0.0000000000000000e+00 1
-3.6459396257301192e-02 -6.0723303925642597e-02 0.0000000000000000e+00 1
-4.0930770496693754e-02 -5.3857608757999081e-02 0.0000000000000000e+00 1
-3.2586429538634748e-02 -5.3390648056277537e-02 0.0000000000000000e+00 1
-3.2172984497542620e-02 -6.7584013881508323e-02 0.0000000000000000e+00 1
-3.7193107118989821e-02 -4.6307436582824824e-02 0.0000000000000000e+00 1
-2.8648881112661867e-02 -4.5856708100336083e-02 0.0000000000000000e+00 1
-2.4073307316648883e-02 -5.3164558172623978e-02 0.0000000000000000e+00 1
-2.0095337873596561e-02 -4.5390040301116243e-02 0.0000000000000000e+00 1
-2.4627016023336543e-02 -3.8073296938112920e-02 0.0000000000000000e+00 1
-1.5826434488548913e-02 -3.7651293954163077e-02 0.0000000000000000e+00 1
-2.0562789607648402e-02 -3.0074980875206787e-02 0.0000000000000000e+00 1
-1.1557234256717338e-02 -2.9644350087596992e-02 0.0000000000000000e+00 1
-1.6455957874915710e-02 -2.1942446220240441e-02 0.0000000000000000e+00 1
-7.2385094074133988e-03 -2.1499855263200536e-02 0.0000000000000000e+00 1
-1.2475359546771567e-02 -1.3675164091662946e-02 0.0000000000000000e+00 1
-2.9352759582202616e-03 -1.3246768243505888e-02 0.0000000000000000e+00 1
-8.1701773247577093e-03 -5.3222324402375544e-03 0.0000000000000000e+00 1
1.4147009916237832e-03 -4.9139192991900166e-03 0.0000000000000000e+00 1
-3.9245446153019781e-03 3.2272574069213914e-03 0.0000000000000000e+00 1
5.7576740777558338e-03 3.5033723086796385e-03 0.0000000000000000e+00 1
2.8204136551524560e-05 1.1917122009470069e-02 0.0000000000000000e+00 1
1.0042578671631348e-02 1.1973333859495106e-02 0.0000000000000000e+00 1
4.5666561700468998e-03 2.0182078624273601e-02 0.0000000000000000e+00 1
1.4387052879642608e-02 2.0346141239348609e-02 0.0000000000000000e+00 1
9.3995406096109794e-03 2.8207911767329584e-02 0.0000000000000000e+00 1
1.8530055779990996e-02 2.8719059105011272e-02 0.0000000000000000e+00 1
1.3826151921558828e-02 3.6420709943429275e-02 0.0000000000000000e+00 1
2.2910391558193650e-02 3.6899098995538539e-02 0.0000000000000000e+00 1
1.8110905441512570e-02 4.4556112249412888e-02 0.0000000000000000e+00 1
2.6895614052774713e-02 4.5077712995993405e-02 0.0000000000000000e+00 1
2.2307218299918996e-02 5.2566793289057182e-02 0.0000000000000000e+00 1
3.1108719845162669e-02 5.2962777809359679e-02 0.0000000000000000e+00 1
2.6442714833781800e-02 6.0338215746803536e-02 0.0000000000000000e+00 1
3.5191149698242732e-02 6.0735090905588436e-02 0.0000000000000000e+00 1
3.0555919219817030e-02 6.7918290323501204e-02 0.0000000000000000e+00 1
3.8944714322510232e-02 6.8482140301109842e-02 0.0000000000000000e+00 1
3.4582480212218089e-02 7.5292355110421483e-02 0.0000000000000000e+00 1
4.2745848098615591e-02 7.5712403931539038e-02 0.0000000000000000e+00 1
3.8337357320672810e-02 8.2549981762387800e-02 0.0000000000000000e+00 1
4.6276402559542552e-02 8.2893586928352775e-02 0.0000000000000000e+00 1
4.2158176216573869e-02 8.9425759257042048e-02 0.0000000000000000e+00 1
4.9691628194945422e-02 8.9751371104695249e-02 0.0000000000000000e+00 1
4.5660445803896339e-02 9.6048205266708347e-02 0.0000000000000000e+00 1
5.3033133166260939e-02 9.6356370828667270e-02 0.0000000000000000e+00 1
4.8970877184628288e-02 1.0244709637821083e-01 0.0000000000000000e+00 1
5.6109754600544515e-02 1.0265240114333299e-01 0.0000000000000000e+00 1
5.2300307345346575e-02 1.0846920631795766e-01 0.0000000000000000e+00 1
5.9095353588027248e-02 1.0876615130953803e-01 0.0000000000000000e+00 1
5.5649314635787706e-02 1.1414940837832921e-01 0.0000000000000000e+00 1
4.7231743816056881e-02 6.9448341038626460e-02 0.0000000000000000e+00 1
5.3909556143129228e-02 8.3496708174490258e-02 0.0000000000000000e+00 1
3.5898038107666133e-02 4.6360753639127818e-02 0.0000000000000000e+00 1
6.2798898778969756e-02 1.0322374013945818e-01 0.0000000000000000e+00 1
3.8223617336397349e-02 9.5826591470104708e-02 0.0000000000000000e+00 1
6.1896465348466545e-02 1.1450816358303803e-01 0.0000000000000000e+00 1
5.8659846801591350e-02 1.1963706424649062e-01 0.0000000000000000e+00 1
2.3514694930583852e-02 2.1489454483320014e-02 0.0000000000000000e+00 1
2.6462506333126294e-02 7.4971079488374753e-02 0.0000000000000000e+00 1
4.9164457448938381e-02 1.1409878369438203e-01 0.0000000000000000e+00 1
1.3312875229814385e-02 5.2194669006922524e-02 0.0000000000000000e+00 1
-1.7593411933084090e-04 2.8301991699855662e-02 0.0000000000000000e+00 1
1.0398843272654999e-02 -4.2547208414305303e-03 0.0000000000000000e+00 1
-2.3505708966037736e-03 -2.9334605052638532e-02 0.0000000000000000e+00 1
-1.3915324666925445e-02 2.8103331498019442e-03 0.0000000000000000e+00 1
6.4676773749471006e-02 1.1992625422927941e-01 0.0000000000000000e+00 1
6.7964128951745528e-02 1.1492745761708077e-01 0.0000000000000000e+00 1
-1.0919313535102153e-02 -4.5044880626955636e-02 0.0000000000000000e+00 1
-2.5702885826419899e-02 -2.2599385688915719e-02 0.0000000000000000e+00 1
6.1501109623027142e-02 1.2482431894484709e-01 0.0000000000000000e+00 1
5.5678950656310934e-02 1.2463501673179847e-01 0.0000000000000000e+00 1
-7.2525279278737503e-02 -8.7742058840952514e-02 0.0000000000000000e+00 1
-3.3873996804181565e-02 -1.0456353361427813e-01 0.0000000000000000e+00 1
7.0617629213438518e-02 1.2016980315883292e-01 0.0000000000000000e+00 1
5.8408981341443261e-02 1.2964304215581204e-01 0.0000000000000000e+00 1
-4.5711940020284100e-02 -4.6837907477867022e-02 0.0000000000000000e+00 1
-4.1876443831119811e-02 -3.9103945833125639e-02 0.0000000000000000e+00 1
-3.5856830330027775e-02 -7.4631446484907688e-02 0.0000000000000000e+00 1
-2.7959489995118547e-02 -7.4417187786161743e-02 0.0000000000000000e+00 1
-3.1584889049927498e-02 -8.1371399064235989e-02 0.0000000000000000e+00 1
-2.3556027346465933e-02 -8.1373189604806620e-02 0.0000000000000000e+00 1
-1.9968298517333581e-02 -7.4124793100684816e-02 0.0000000000000000e+00 1
-2.7470910618592203e-02 -8.8118132807548127e-02 0.0000000000000000e+00 1
7.3821323864714641e-02 1.1532709024898642e-01 0.0000000000000000e+00 1
7.1284412318098400e-02 1.1003548385008469e-01 0.0000000000000000e+00 1
6.3987735177561414e-02 1.2990112161420003e-01 0.0000000000000000e+00 1
5.2827249718380903e-02 1.2948437488888204e-01 0.0000000000000000e+00 1
4.9904404549001094e-02 1.2449242630267737e-01 0.0000000000000000e+00 1
-6.9822991280914598e-02 -6.9918051516378255e-02 0.0000000000000000e+00 1
7.6875348621567544e-02 1.1042165145841371e-01 0.0000000000000000e+00 1
7.4612279491247810e-02 1.0507106715180041e-01 0.0000000000000000e+00 1
-3.0304016302630653e-02 -9.8494866170545869e-02 0.0000000000000000e+00 1
4.7131747735596807e-02 1.2917478527325454e-01 0.0000000000000000e+00 1
4.4147508827364082e-02 1.2467441742343663e-01 0.0000000000000000e+00 1
-5.0057299208497781e-02 -3.9793155639164642e-02 0.0000000000000000e+00 1
-4.6559804365106386e-02 -3.1873432771951503e-02 0.0000000000000000e+00 1
-3.7806514167618752e-02 -3.1285996078206472e-02 0.0000000000000000e+00 1
6.1069931001623445e-02 1.3451262384002005e-01 0.0000000000000000e+00 1
-5.9946427770318660e-02 -6.2386758947198431e-02 0.0000000000000000e+00 1
-5.6816866919224482e-02 -5.5107893099347778e-02 0.0000000000000000e+00 1
-7.9404951947119121e-02 -8.8546799776185431e-02 0.0000000000000000e+00 1
-7.5766645209015632e-02 -9.3356285934613717e-02 0.0000000000000000e+00 1
-7.0222489107607172e-02 -9.3512361657331247e-02 0.0000000000000000e+00 1
-7.3371994141427671e-02 -9.8219945095752548e-02 0.0000000000000000e+00 1
-6.8025977697229983e-02 -9.8834580466377608e-02 0.0000000000000000e+00 1
-7.0839142120435433e-02 -1.0334780348997569e-01 0.0000000000000000e+00 1
-6.5416731480893386e-02 -1.0391922432362735e-01 0.0000000000000000e+00 1
-7.8144344740411362e-02 -9.7757592427502038e-02 0.0000000000000000e+00 1
-1.5326556200108948e-02 -8.1208866701669699e-02 0.0000000000000000e+00 1
-9.8996072218872511e-03 -7.3428492586457589e-02 0.0000000000000000e+00 1
-1.5734170857150002e-02 -6.6762750361959736e-02 0.0000000000000000e+00 1
-8.7097331910480132e-03 -6.5482927182580905e-02 0.0000000000000000e+00 1
-1.1549603352835964e-02 -5.9016243291644656e-02 0.0000000000000000e+00 1
-3.6159551952492461e-03 -5.8832644964540555e-02 0.0000000000000000e+00 1
-4.3865426602522906e-02 -2.4009399093299886e-02 0.0000000000000000e+00 1
-3.6249838040881263e-02 -8.7527670610774183e-02 0.0000000000000000e+00 1
-6.5848082643625308e-02 -8.8661008406883540e-02 0.0000000000000000e+00 1
-7.6273840558514286e-03 -8.0597482500068485e-02 0.0000000000000000e+00 1
-2.0057598525202364e-02 -8.9339305221373580e-02 0.0000000000000000e+00 1
-5.5534377650727558e-02 -3.1832804555434357e-02 0.0000000000000000e+00 1
-6.8387024840056071e-02 -1.0848231049127641e-01 0.0000000000000000e+00 1
-6.2702582594865067e-02 -1.0894412902201310e-01 0.0000000000000000e+00 1
-7.3384414349795035e-02 -1.0807105680518456e-01 0.0000000000000000e+00 1
-8.3744054603399398e-02 -9.2169928666801598e-02 0.0000000000000000e+00 1
-5.7121108838550760e-02 -9.9237332228453240e-02 0.0000000000000000e+00 1
7.6235786861676244e-02 1.2043351004995881e-01 0.0000000000000000e+00 1
7.2513564446780227e-02 1.2498151201906145e-01 0.0000000000000000e+00 1
6.7145089104960365e-02 1.2500854080499990e-01 0.0000000000000000e+00 1
-5.0019817635702936e-02 -1.1069363719309419e-01 0.0000000000000000e+00 1
-4.6662192746661439e-02 -1.1601142642080067e-01 0.0000000000000000e+00 1
-5.2663965372279971e-02 -1.1614923766050012e-01 0.0000000000000000e+00 1
-4.0459884023256815e-02 -1.1584003223100708e-01 0.0000000000000000e+00 1
-4.3307728264264753e-02 -1.2102286716880420e-01 0.0000000000000000e+00 1
-3.7277062291620547e-02 -1.2096437200815979e-01 0.0000000000000000e+00 1
-4.0288792092843473e-02 -1.2535451939349182e-01 0.0000000000000000e+00 1
-3.4328029487442319e-02 -1.2543059460434330e-01 0.0000000000000000e+00 1
-3.3974386475651014e-02 -1.1574964980659697e-01 0.0000000000000000e+00 1
-4.8867015586357351e-02 -1.2092525581181973e-01 0.0000000000000000e+00 1
-5.6879088142168729e-02 -1.1065367154957954e-01 0.0000000000000000e+00 1
-5.8286945761162098e-02 -1.1640531443866474e-01 0.0000000000000000e+00 1
-2.7132770036297275e-02 -1.1584368523693907e-01 0.0000000000000000e+00 1
-2.3219566731164338e-02 -1.1000370151463743e-01 0.0000000000000000e+00 1
5.5639411593770068e-02 1.3367076510489639e-01 0.0000000000000000e+00 1
6.9573722419483883e-02 1.3024823486377859e-01 0.0000000000000000e+00 1
5.7088978347364351e-02 9.0210102738790876e-02 0.0000000000000000e+00 1
6.1315362234159350e-02 8.4225136934567249e-02 0.0000000000000000e+00 1
5.8318084287492591e-02 7.7368249735116787e-02 0.0000000000000000e+00 1
6.4251876944763087e-02 9.0860235757731070e-02 0.0000000000000000e+00 1
6.5735747328894589e-02 7.8200548977851198e-02 0.0000000000000000e+00 1
6.2733266310770433e-02 7.1232590264893619e-02 0.0000000000000000e+00 1
7.0355000839279147e-02 7.1994663059709363e-02 0.0000000000000000e+00 1
6.7488422468793580e-02 6.4798636668953566e-02 0.0000000000000000e+00 1
5.9602745936095818e-02 6.4101573870611092e-02 0.0000000000000000e+00 1
6.4287564499718688e-02 5.7600259961085518e-02 0.0000000000000000e+00 1
5.6240803545200314e-02 5.6791793700224920e-02 0.0000000000000000e+00 1
6.1227925314353761e-02 5.0062677687814250e-02 0.0000000000000000e+00 1
5.2885884511350074e-02 4.9258764712403202e-02 0.0000000000000000e+00 1
4.8274763258964862e-02 5.5542319956879332e-02 0.0000000000000000e+00 1
5.8135757439060222e-02 4.2236587229014882e-02 0.0000000000000000e+00 1
4.9193509204125858e-02 4.1709245960626411e-02 0.0000000000000000e+00 1
5.4587439092961085e-02 3.4469777614872868e-02 0.0000000000000000e+00 1
4.5799567953783850e-02 3.3661166045433816e-02 0.0000000000000000e+00 1
7.3106296526510670e-02 7.8803331852887307e-02 0.0000000000000000e+00 1
6.9976681837750479e-02 5.0656425153238906e-02 0.0000000000000000e+00 1
4.1632505316989685e-02 1.0227332634079639e-01 0.0000000000000000e+00 1
3.4369762651937891e-02 1.0236502713557760e-01 0.0000000000000000e+00 1
3.0742514372283959e-02 9.5613869693405046e-02 0.0000000000000000e+00 1
3.8048594211146092e-02 1.0872847232123606e-01 0.0000000000000000e+00 1
2.6872622500332455e-02 1.0230407665649795e-01 0.0000000000000000e+00 1
2.3437289269505033e-02 9.5571183936799642e-02 0.0000000000000000e+00 1
2.7020031524139780e-02 8.8842056467030889e-02 0.0000000000000000e+00 1
1.9127949117917955e-02 8.8650555159747430e-02 0.0000000000000000e+00 1
1.9119415939376886e-02 1.0193616228396649e-01 0.0000000000000000e+00 1
2.2896634256096927e-02 1.0865366869290617e-01 0.0000000000000000e+00 1
-1.4776687212605702e-02 -9.6412533083377772e-02 0.0000000000000000e+00 1
-2.2404022747800494e-02 -9.6308133389083089e-02 0.0000000000000000e+00 1
5.0849377748549175e-02 2.6710470257416231e-02 0.0000000000000000e+00 1
4.1933456414974625e-02 2.5860965418911228e-02 0.0000000000000000e+00 1
3.6641778738020485e-02 3.2077244864387754e-02 0.0000000000000000e+00 1
3.2960762972490648e-02 2.4795376051734604e-02 0.0000000000000000e+00 1
3.8916732772951254e-02 1.7135868630886203e-02 0.0000000000000000e+00 1
5.9660662411383833e-02 2.7517604947728463e-02 0.0000000000000000e+00 1
6.0080632826936611e-02 9.6756309968689586e-02 0.0000000000000000e+00 1
6.6844164961306629e-02 9.7508342828241945e-02 0.0000000000000000e+00 1
7.1170614317341396e-02 9.1631259632869333e-02 0.0000000000000000e+00 1
7.3948648647772536e-02 9.8541355715192944e-02 0.0000000000000000e+00 1
5.0631928195091838e-02 7.6575089757343576e-02 0.0000000000000000e+00 1
6.8549410205662964e-02 8.4935035877021114e-02 0.0000000000000000e+00 1
7.5593540094388512e-02 8.5394810097365853e-02 0.0000000000000000e+00 1
-8.3648324737315620e-04 -7.6166592643126085e-02 0.0000000000000000e+00 1
4.5441904171758786e-02 1.0849550794238284e-01 0.0000000000000000e+00 1
4.2492204599880422e-02 1.1481242470982195e-01 0.0000000000000000e+00 1
3.5812177870918685e-02 1.1549507068720861e-01 0.0000000000000000e+00 1
3.0635292352934052e-02 1.0961496315818310e-01 0.0000000000000000e+00 1
-6.7298633420114634e-02 -4.9549090227164097e-02 0.0000000000000000e+00 1
-7.6487176964110920e-02 -1.0306387052848677e-01 0.0000000000000000e+00 1
-8.7269596205902203e-02 -9.0953454044556944e-02 0.0000000000000000e+00 1
-4.3871371931929436e-02 -7.4695956902250338e-02 0.0000000000000000e+00 1
1.7501003850784937e-02 6.0133613302607802e-02 0.0000000000000000e+00 1
8.5261081933203069e-03 5.9279202418047502e-02 0.0000000000000000e+00 1
4.2541429223392933e-03 5.1724312614382789e-02 0.0000000000000000e+00 1
1.1946470742380968e-02 6.7342287463666647e-02 0.0000000000000000e+00 1
-5.8110761393969073e-04 5.8919266616891210e-02 0.0000000000000000e+00 1
-5.2085446333898370e-03 5.1671694977301542e-02 0.0000000000000000e+00 1
-1.1825804808074929e-04 4.3743308175665366e-02 0.0000000000000000e+00 1
-9.9003885505290923e-03 4.3696053768327664e-02 0.0000000000000000e+00 1
-2.0283818927588994e-02 4.3820494424237313e-02 0.0000000000000000e+00 1
-1.4835995300920429e-02 3.5421005716324075e-02 0.0000000000000000e+00 1
1.9459874427020782e-02 1.2536595970195632e-02 0.0000000000000000e+00 1
2.9429686537662984e-02 1.4755804800845564e-02 0.0000000000000000e+00 1
2.4776673932887149e-02 4.5246296278547878e-03 0.0000000000000000e+00 1
3.5411168330400679e-02 8.0751426266761472e-03 0.0000000000000000e+00 1
4.3897988642142727e-02 9.9927911864142634e-03 0.0000000000000000e+00 1
3.3098956743241523e-02 -1.1310876086258342e-03 0.0000000000000000e+00 1
2.4049635602750648e-02 -6.0398603716154938e-03 0.0000000000000000e+00 1
3.2207516436892195e-02 -1.0430682023297846e-02 0.0000000000000000e+00 1
2.2690858197096705e-02 -1.4318887515284453e-02 0.0000000000000000e+00 1
-4.5502285294882386e-02 -1.2568634480755991e-01 0.0000000000000000e+00 1
-8.4789446604357672e-03 5.8885167944920228e-02 0.0000000000000000e+00 1
-6.1242034502395478e-03 6.7597859014767669e-02 0.0000000000000000e+00 1
3.9247202392005175e-03 7.1827395379847794e-02 0.0000000000000000e+00 1
5.6748520423368278e-03 7.9511964152303022e-02 0.0000000000000000e+00 1
-4.7336490737967425e-02 -7.9937185589145122e-03 0.0000000000000000e+00 1
-3.7826310094195681e-02 -7.0282153293315499e-03 0.0000000000000000e+00 1
-3.3739514732526191e-02 1.4890364855061140e-03 0.0000000000000000e+00 1
-2.8078091190932505e-02 -6.3817312555751356e-03 0.0000000000000000e+00 1
-2.4041249560525713e-02 2.1942688722785806e-03 0.0000000000000000e+00 1
-2.9555264835597891e-02 1.0103177354701657e-02 0.0000000000000000e+00 1
-1.9896836671544835e-02 1.0884122305294100e-02 0.0000000000000000e+00 1
-1.0102385499097408e-02 1.1584260529052010e-02 0.0000000000000000e+00 1
-1.5442425653245400e-02 1.9478586130331051e-02 0.0000000000000000e+00 1
-1.8619715731273877e-02 -5.6845917711155977e-03 0.0000000000000000e+00 1
-3.1519056984530378e-02 -1.4811114812450486e-02 0.0000000000000000e+00 1
-4.9816533381232906e-03 2.0053225162781924e-02 0.0000000000000000e+00 1
1.4660674352761966e-02 4.2776105998776643e-03 0.0000000000000000e+00 1
2.1762868454499432e-02 6.7607801671291018e-02 0.0000000000000000e+00 1
1.8546611470083463e-02 7.4554147739306381e-02 0.0000000000000000e+00 1
5.9766457856780036e-03 -1.2594773536214866e-02 0.0000000000000000e+00 1
9.5335724359219259e-03 -6.0740322404324212e-02 0.0000000000000000e+00 1
4.0585493312756534e-03 -5.3352376347312103e-02 0.0000000000000000e+00 1
9.7426938110675449e-03 -4.4862147814067783e-02 0.0000000000000000e+00 1
7.7540467102767217e-04 -4.4266070014998500e-02 0.0000000000000000e+00 1
4.4427764784343874e-03 -3.5581511333889433e-02 0.0000000000000000e+00 1
1.4600781503201996e-02 -3.6804748490193120e-02 0.0000000000000000e+00 1
1.1210499241877184e-02 -2.8255287048786763e-02 0.0000000000000000e+00 1
7.9593517734751304e-02 1.1573674421995772e-01 0.0000000000000000e+00 1
-3.7287528809224452e-02 -1.1036093990183365e-01 0.0000000000000000e+00 1
1.8340232146734636e-03 -2.0991802869593783e-02 0.0000000000000000e+00 1
3.9861705345674923e-02 5.4348104238114453e-02 0.0000000000000000e+00 1
-2.5675635206712625e-02 3.5203075843982315e-02 0.0000000000000000e+00 1
6.0188962471961083e-03 9.2585539242138859e-02 0.0000000000000000e+00 1
-3.4850924679217472e-02 1.8071285568693130e-02 0.0000000000000000e+00 1
-5.4908561093638647e-02 -1.2132336585939872e-01 0.0000000000000000e+00 1
-3.9108768605135118e-02 9.4306183870465389e-03 0.0000000000000000e+00 1
-6.1318322668244760e-03 -3.7023100975365569e-02 0.0000000000000000e+00 1
3.2632703206460723e-02 -2.0103578709879857e-02 0.0000000000000000e+00 1
2.8665859213022921e-02 1.2285684106274819e-01 0.0000000000000000e+00 1
6.3786892494233416e-02 3.4964026455192213e-02 0.0000000000000000e+00 1
7.8320106481048257e-02 7.2409001346730159e-02 0.0000000000000000e+00 1
1.8996428371359435e-02 -4.5119203468380678e-02 0.0000000000000000e+00 1
7.8003858085688618e-02 9.1899440421699896e-02 0.0000000000000000e+00 1
8.0879222297733144e-02 9.8681421101846412e-02 0.0000000000000000e+00 1
-5.3523089949974817e-02 -4.7568899879537392e-02 0.0000000000000000e+00 1
4.0065407459130453e-02 1.2039613078177527e-01 0.0000000000000000e+00 1
-3.9990484619868441e-02 -8.1064013985620104e-02 0.0000000000000000e+00 1
7.3215037297594737e-02 5.8053942824944929e-02 0.0000000000000000e+00 1
-7.6774979087070191e-02 -7.0578919804156051e-02 0.0000000000000000e+00 1
-7.3707525554102468e-02 -6.3935143692636046e-02 0.0000000000000000e+00 1
6.5357788625574814e-02 1.0957610225147538e-01 0.0000000000000000e+00 1
9.0271364385159786e-03 4.4090819965752190e-02 0.0000000000000000e+00 1
2.3931677955557715e-02 -3.7230327296169485e-02 0.0000000000000000e+00 1
5.2665507088592023e-02 1.1940133265424466e-01 0.0000000000000000e+00 1
-2.8206829653324019e-02 -6.0370492513256657e-02 0.0000000000000000e+00 1
4.8256851273254582e-02 2.5415655912814504e-03 0.0000000000000000e+00 1
-2.4055892873718888e-02 -6.7220248146731457e-02 0.0000000000000000e+00 1
-3.3263465108506376e-02 -3.8607669338824348e-02 0.0000000000000000e+00 1
-4.8995224851481313e-02 -5.4369757869520544e-02 0.0000000000000000e+00 1
-4.7747588245766893e-02 -8.1049474090098661e-02 0.0000000000000000e+00 1
-8.4045307098774391e-02 -1.0128887144590590e-01 0.0000000000000000e+00 1
-2.1941966266246539e-02 -1.4228410567597726e-02 0.0000000000000000e+00 1
3.4537791621623418e-02 8.9045100554042050e-02 0.0000000000000000e+00 1
-4.0602944371667116e-02 -9.3308696076100595e-02 0.0000000000000000e+00 1
4.6048086283962545e-03 3.6073483297289294e-02 0.0000000000000000e+00 1
1.9698170670363786e-02 -2.9259540081344695e-02 0.0000000000000000e+00 1
1.6879593117753784e-02 -2.0917650703849801e-02 0.0000000000000000e+00 1
5.5098571837725131e-02 7.0317646497171704e-02 0.0000000000000000e+00 1
-3.3222392618380663e-02 -1.2919650490636933e-01 0.0000000000000000e+00 1
-2.5420562117801020e-02 1.8436205303814922e-02 0.0000000000000000e+00 1
8.2711049505271528e-02 8.6191856210547771e-02 0.0000000000000000e+00 1
3.3189523827158098e-02 1.2740363733205590e-01 0.0000000000000000e+00 1
-6.7242469012540454e-02 -1.1790022049993018e-01 0.0000000000000000e+00 1
-4.8649670756882295e-03 3.6015192440195201e-02 0.0000000000000000e+00 1
-6.2925412890579777e-02 -6.9545185302683485e-02 0.0000000000000000e+00 1
-2.9350164905137678e-02 -3.0697883192741700e-02 0.0000000000000000e+00 1
6.9141032137161662e-02 1.0399268198937558e-01 0.0000000000000000e+00 1
3.0745052959672746e-02 8.2012344674281881e-02 0.0000000000000000e+00 1
-6.5561704814368377e-02 -1.1305193089387666e-01 0.0000000000000000e+00 1
-4.1262807184383958e-02 -1.5563804440325842e-02 0.0000000000000000e+00 1
-2.6587413739723821e-02 -1.0384069410612635e-01 0.0000000000000000e+00 1
8.0520587441814617e-02 1.0551134483521918e-01 0.0000000000000000e+00 1
-3.0345943766040405e-02 -1.1006036736340194e-01 0.0000000000000000e+00 1
4.9760561166449294e-02 1.3426919086971376e-01 0.0000000000000000e+00 1
4.3197382799059457e-02 1.3371240859307021e-01 0.0000000000000000e+00 1
-5.9226639998314561e-02 -1.2415477664343469e-01 0.0000000000000000e+00 1
-3.4917809278435602e-02 -2.3161263884323345e-02 0.0000000000000000e+00 1
4.6665922124733097e-02 1.1952316529080358e-01 0.0000000000000000e+00 1
6.6533159386713642e-02 1.3405873697928483e-01 0.0000000000000000e+00 1
6.1428804681940327e-02 1.3955117006620973e-01 0.0000000000000000e+00 1
-5.2591160506125596e-03 -5.1142002368819030e-02 0.0000000000000000e+00 1
8.5612605196811534e-02 1.0863708009378373e-01 0.0000000000000000e+00 1
-5.1184757384774460e-02 -2.5551179485414403e-02 0.0000000000000000e+00 1
5.1659404560406394e-02 6.3082313906968987e-02 0.0000000000000000e+00 1
-1.9978911783305936e-02 -5.9821282183014614e-02 0.0000000000000000e+00 1
-5.1530698695188018e-02 -1.2945287891038373e-01 0.0000000000000000e+00 1
2.3199755841667662e-02 8.1762576364378586e-02 0.0000000000000000e+00 1
1.5226666619628732e-03 8.5930331926815401e-02 0.0000000000000000e+00 1
-8.2919540102675882e-02 -9.7012836827459148e-02 0.0000000000000000e+00 1
4.3527246833642660e-02 6.1939718391214572e-02 0.0000000000000000e+00 1
-7.8319291633649299e-02 -1.0817794848861681e-01 0.0000000000000000e+00 1
7.7743648276921956e-02 1.3044373611541585e-01 0.0000000000000000e+00 1
-5.9773612680874458e-02 -1.0439605653502917e-01 0.0000000000000000e+00 1
-4.2617358629738179e-02 -1.2929557248327042e-01 0.0000000000000000e+00 1
-1.5312598318683675e-02 -5.2263167824029025e-02 0.0000000000000000e+00 1
8.4323027401449743e-02 1.1895775945488882e-01 0.0000000000000000e+00 1
3.9568854059448370e-02 -1.4040820463560439e-02 0.0000000000000000e+00 1
8.0949071685084459e-02 1.2753163690838709e-01 0.0000000000000000e+00 1
-6.6708660122602959e-02 -6.3369468299170117e-02 0.0000000000000000e+00 1
1.3263107825913396e-02 9.2317240215067126e-02 0.0000000000000000e+00 1
1.1047562674559216e-02 8.4776240383154552e-02 0.0000000000000000e+00 1
4.4634662733106290e-02 4.7930797324836800e-02 0.0000000000000000e+00 1
5.0404439870962138e-02 1.3975385442061969e-01 0.0000000000000000e+00 1
4.7537120821780646e-02 1.8201804846176957e-02 0.0000000000000000e+00 1
7.0355380575727114e-02 1.3656604640532918e-01 0.0000000000000000e+00 1
-2.0071534709127196e-02 2.7315610198491651e-02 0.0000000000000000e+00 1
1.5193397073202625e-02 -1.1453720374664333e-02 0.0000000000000000e+00 1
3.8938636613760590e-02 1.2589096569956937e-01 0.0000000000000000e+00 1
8.6391326579229932e-02 9.7683147525437997e-02 0.0000000000000000e+00 1
2.6713420386814454e-02 2.9753049274741771e-02 0.0000000000000000e+00 1
4.0486157577651012e-02 3.9961087464674673e-02 0.0000000000000000e+00 1
1.4965588409479789e-02 1.0704342505476658e-01 0.0000000000000000e+00 1
2.4144771093177770e-02 -2.2808478580981086e-02 0.0000000000000000e+00 1
3.1178731250113292e-02 3.8194412660493574e-02 0.0000000000000000e+00 1
5.2339761834562876e-02 1.0775912021176290e-02 0.0000000000000000e+00 1
-3.7758610200044194e-02 -1.2965122493439499e-01 0.0000000000000000e+00 1
-1.0062085032739230e-02 2.7764268557996592e-02 0.0000000000000000e+00 1
-8.6277682424117721e-02 -9.8538709778241321e-02 0.0000000000000000e+00 1
-6.3516580361993605e-02 -5.6130407347872925e-02 0.0000000000000000e+00 1
-7.5310646580510579e-02 -1.1201074780868654e-01 0.0000000000000000e+00 1
-6.2416259009396576e-02 -1.1698123172247489e-01 0.0000000000000000e+00 1
1.8938947540089273e-02 1.1306065121184138e-01 0.0000000000000000e+00 1
2.9927634823309585e-02 1.1679293972550134e-01 0.0000000000000000e+00 1
-6.2853978842476677e-02 -9.9144858383701129e-02 0.0000000000000000e+00 1
-3.7817316456166261e-02 -1.3318511304849198e-01 0.0000000000000000e+00 1
1.1179296390751707e-02 7.5908387361234217e-02 0.0000000000000000e+00 1
3.4345664575865256e-02 1.2161564456835461e-01 0.0000000000000000e+00 1
-5.0093206689712455e-02 -1.2559329385115695e-01 0.0000000000000000e+00 1
-4.4115459108907885e-02 -1.3264044320732357e-01 0.0000000000000000e+00 1
-3.3209084175050016e-02 -9.3361973796923320e-02 0.0000000000000000e+00 1
8.1536218423034323e-02 1.1086789124907366e-01 0.0000000000000000e+00 1
7.3676835602187227e-02 1.2943141357678165e-01 0.0000000000000000e+00 1
5.7581087255391031e-02 1.3765975627591356e-01 0.0000000000000000e+00 1
-6.0970152986804582e-02 -1.1301788518617448e-01 0.0000000000000000e+00 1
4.0625557562649045e-02 2.5339436287454904e-03 0.0000000000000000e+00 1
-6.0185656202562582e-02 -4.8900553640615456e-02 0.0000000000000000e+00 1
7.7720919631068516e-02 1.2512319506242953e-01 0.0000000000000000e+00 1
-8.8869855380482310e-02 -9.3028025732090430e-02 0.0000000000000000e+00 1
5.8237742745202339e-02 1.4141602940238748e-01 0.0000000000000000e+00 1
-6.1718031090515192e-02 -3.5132101074753785e-02 0.0000000000000000e+00 1
2.4755217544154165e-03 -6.2063128407653580e-02 0.0000000000000000e+00 1
-8.0181007975846250e-02 -1.0122342368485815e-01 0.0000000000000000e+00 1
4.2253606030137662e-02 1.2887061558758736e-01 0.0000000000000000e+00 1
-2.7373075117043261e-02 -9.3719965083075230e-02 0.0000000000000000e+00 1
-7.9995907320524293e-02 -9.3768688726512395e-02 0.0000000000000000e+00 1
9.0174564367605774e-03 -1.9869432694728417e-02 0.0000000000000000e+00 1
-5.7496865733078287e-02 -4.0862741525396019e-02 0.0000000000000000e+00 1
-5.7360990781389058e-02 -2.3746140460981939e-02 0.0000000000000000e+00 1
1.7528401734621706e-02 -2.6175473255286436e-03 0.0000000000000000e+00 1
1.7366276860223576e-02 9.6163869674231683e-02 0.0000000000000000e+00 1
-2.5041561132122052e-03 -6.7890951200931152e-02 0.0000000000000000e+00 1
2.6108140535807959e-02 1.1281026943867706e-01 0.0000000000000000e+00 1
-6.5804145769602598e-02 -9.4635725881770896e-02 0.0000000000000000e+00 1
4.0914708843910984e-03 -2.7519504543431710e-02 0.0000000000000000e+00 1
7.7648385750033494e-02 1.0194382171102789e-01 0.0000000000000000e+00 1
5.3419329948487679e-02 1.3718008371839263e-01 0.0000000000000000e+00 1
8.0361803185919553e-02 1.1988326714960400e-01 0.0000000000000000e+00 1
1.6812386298114552e-02 8.1075305359607497e-02 0.0000000000000000e+00 1
3.7545882861082383e-03 6.4521810670586099e-02 0.0000000000000000e+00 1
-2.8709235995039136e-03 -8.4278882629545748e-02 0.0000000000000000e+00 1
-5.9286057144125340e-02 -1.2032743525783757e-01 0.0000000000000000e+00 1
-1.4309119070179377e-02 6.2378425529645731e-02 0.0000000000000000e+00 1

Edges
99
1 2 1
2 3 1
3 4 1
4 5 1
5 6 1
6 7 1
7 8 1
8 9 1
9 10 1
10 11 1
11 12 1
12 13 1
13 14 1
14 15 1
15 16 1
16 17 1
17 18 1
18 19 1
19 20 1
20 21 1
21 22 1
22 23 1
23 24 1
24 25 1
25 26 1
26 27 1
27 28 1
28 29 1
29 30 1
30 31 1
31 32 1
32 33 1
33 34 1
34 35 1
35 36 1
36 37 1
37 38 1
38 39 1
39 40 1
40 41 1
41 42 1
42 43 1
43 44 1
44 45 1
45 46 1
46 47 1
47 48 1
48 49 1
49 50 1
50 51 1
51 52 1
52 53 1
53 54 1
54 55 1
55 56 1
56 57 1
57 58 1
58 59 1
59 60 1
60 61 1
61 62 1
62 63 1
63 64 1
64 65 1
65 66 1
66 67 1
67 68 1
68 69 1
69 70 1
70 71 1
71 72 1
72 73 1
73 74 1
74 75 1
75 76 1
76 77 1
77 78 1
78 79 1
79 80 1
80 81 1
81 82 1
82 83 1
83 84 1
84 85 1
85 86 1
86 87 1
87 88 1
88 89 1
89 90 1
90 91 1
91 92 1
92 93 1
93 94 1
94 95 1
95 96 1
96 97 1
97 98 1
98 99 1
99 1 1

Triangles
1007
79 80 384 1
376 375 378 1
100 287 512 1
100 285 287 1
22 300 451 1
498 395 509 1
110 378 380 1
277 473 487 1
21 22 451 1
368 117 370 1
46 47 430 1
372 498 509 1
262 137 472 1
380 381 420 1
407 228 419 1
345 344 374 1
374 375 376 1
110 380 489 1
348 350 459 1
68 69 467 1
417 118 520 1
406 407 419 1
486 123 508 1
344 222 374 1
186 188 398 1
466 136 467 1
103 315 316 1
350 255 459 1
137 262 471 1
236 265 266 1
420 381 505 1
415 480 493 1
107 79 384 1
286 303 485 1
126 273 283 1
232 406 419 1
236 140 265 1
274 354 543 1
274 282 354 1
302 417 520 1
327 130 353 1
257 466 467 1
328 46 430 1
370 117 371 1
308 122 497 1
471 308 497 1
114 320 323 1
394 186 398 1
83 84 414 1
273 126 282 1
371 83 414 1
82 83 371 1
114 323 422 1
406 232 473 1
104 340 463 1
19 138 517 1
473 232 487 1
45 46 328 1
303 157 485 1
48 49 423 1
353 130 453 1
323 325 422 1
320 114 328 1
315 103 423 1
136 68 467 1
245 247 283 1
148 144 281 1
277 278 473 1
333 330 358 1
120 361 530 1
47 103 430 1
117 368 383 1
340 256 463 1
480 386 493 1
22 125 300 1
63 64 472 1
283 247 536 1
105 425 453 1
153 280 429 1
117 82 371 1
184 186 394 1
338 333 358 1
99 1 133 1
154 148 281 1
384 80 554 1
508 123 517 1
340 283 536 1
188 226 398 1
273 245 283 1
280 153 446 1
103 316 430 1
425 353 453 1
120 288 361 1
137 63 472 1
390 397 444 1
391 229 393 1
125 298 300 1
109 496 507 1
503 217 506 1
397 462 469 1
114 45 328 1
144 142 281 1
258 428 470 1
278 404 473 1
210 212 355 1
426 132 464 1
138 451 508 1
49 130 423 1
343 503 506 1
218 348 459 1
299 486 508 1
462 279 469 1
332 356 357 1
130 327 423 1
492 415 493 1
276 274 543 1
180 182 396 1
484 524 529 1
429 362 442 1
116 279 462 1
397 233 444 1
266 265 537 1
428 356 470 1
229 391 396 1
425 105 426 1
157 152 289 1
84 119 414 1
69 121 467 1
229 184 394 1
42 43 346 1
140 139 265 1
250 234 292 1
395 398 509 1
360 124 483 1
265 288 537 1
212 224 355 1
306 104 463 1
138 508 517 1
381 379 499 1
182 229 396 1
332 355 356 1
284 91 532 1
153 429 442 1
303 286 526 1
279 116 475 1
393 229 394 1
218 347 348 1
330 332 358 1
50 51 453 1
302 295 417 1
292 291 308 1
345 374 376 1
25 104 306 1
1 2 361 1
250 292 308 1
107 384 385 1
490 484 529 1
103 48 423 1
499 379 541 1
426 105 501 1
298 125 301 1
325 346 422 1
285 100 461 1
268 272 360 1
426 464 547 1
404 278 533 1
496 377 507 1
23 24 305 1
268 266 272 1
329 210 355 1
91 284 540 1
234 230 292 1
109 42 346 1
294 295 302 1
378 375 379 1
298 299 300 1
139 133 265 1
126 283 339 1
313 327 352 1
287 360 483 1
352 327 353 1
298 297 299 1
199 413 482 1
293 157 303 1
156 157 293 1
372 414 498 1
239 262 307 1
481 443 534 1
493 518 550 1
297 302 382 1
26 27 339 1
160 293 294 1
104 26 339 1
218 211 347 1
327 315 423 1
267 266 268 1
78 107 480 1
278 276 543 1
152 150 289 1
265 133 288 1
294 293 295 1
318 320 328 1
211 209 347 1
288 120 481 1
236 266 267 1
533 278 543 1
297 294 302 1
150 148 154 1
370 371 372 1
150 154 289 1
502 343 506 1
208 210 329 1
247 280 522 1
337 338 504 1
377 376 527 1
504 338 514 1
287 270 360 1
396 390 444 1
296 294 297 1
160 156 293 1
51 105 453 1
305 24 306 1
203 215 351 1
214 220 221 1
142 236 281 1
107 385 386 1
438 377 527 1
156 152 157 1
239 250 262 1
212 213 214 1
210 211 212 1
212 211 213 1
221 230 234 1
296 298 301 1
355 224 356 1
134 382 520 1
210 209 211 1
214 213 220 1
104 339 340 1
366 363 400 1
344 343 502 1
208 209 210 1
208 207 209 1
221 220 230 1
493 386 518 1
94 111 359 1
24 25 306 1
285 270 287 1
213 218 433 1
235 234 239 1
93 94 359 1
339 283 340 1
239 234 250 1
251 239 307 1
295 303 304 1
27 126 339 1
98 99 139 1
133 1 361 1
413 322 482 1
206 207 208 1
349 352 353 1
341 109 346 1
107 386 480 1
366 400 401 1
346 43 422 1
115 337 504 1
240 427 441 1
206 205 207 1
180 396 444 1
299 297 382 1
238 290 291 1
309 310 312 1
204 203 205 1
247 244 280 1
158 156 160 1
347 312 348 1
157 289 485 1
204 205 206 1
142 140 236 1
427 264 441 1
348 349 350 1
238 248 290 1
155 152 156 1
230 231 238 1
162 147 362 1
351 215 450 1
202 201 203 1
202 203 204 1
99 133 139 1
151 150 152 1
280 244 429 1
149 148 150 1
22 23 125 1
228 407 546 1
230 238 292 1
345 376 377 1
383 384 554 1
247 522 536 1
309 312 347 1
209 309 347 1
219 208 329 1
200 199 201 1
242 362 429 1
330 329 332 1
200 201 202 1
60 61 122 1
380 420 489 1
269 268 270 1
75 76 115 1
198 197 199 1
393 394 395 1
108 98 139 1
221 234 235 1
205 203 351 1
313 315 327 1
198 199 200 1
332 329 355 1
196 198 363 1
309 216 310 1
165 162 362 1
310 313 352 1
27 28 126 1
318 328 430 1
196 197 198 1
196 195 197 1
207 216 309 1
404 406 473 1
96 431 432 1
146 144 148 1
25 26 104 1
71 72 421 1
92 93 127 1
243 242 244 1
413 217 494 1
242 165 362 1
160 294 296 1
305 306 465 1
245 244 247 1
209 207 309 1
235 239 251 1
295 293 303 1
69 70 121 1
125 23 305 1
478 134 520 1
97 98 108 1
194 193 195 1
72 73 102 1
349 353 425 1
127 93 359 1
212 214 224 1
130 50 453 1
378 379 380 1
169 165 242 1
350 425 426 1
213 211 218 1
207 205 216 1
238 231 248 1
194 195 196 1
370 372 456 1
89 116 387 1
238 291 292 1
192 191 193 1
337 333 338 1
237 158 411 1
267 268 269 1
94 95 111 1
44 45 114 1
348 312 349 1
373 187 399 1
88 89 387 1
112 31 403 1
29 30 354 1
203 201 215 1
230 220 231 1
49 50 130 1
192 193 194 1
78 79 107 1
31 32 403 1
87 88 129 1
416 86 418 1
197 195 217 1
282 126 552 1
375 373 399 1
6 7 124 1
270 268 360 1
392 416 418 1
262 250 471 1
431 253 432 1
271 270 285 1
357 356 428 1
190 189 191 1
47 48 103 1
363 198 400 1
190 191 192 1
129 88 387 1
390 388 397 1
296 297 298 1
32 33 128 1
464 132 474 1
222 344 502 1
206 208 219 1
30 112 354 1
306 463 465 1
51 52 105 1
197 217 413 1
296 301 411 1
89 90 116 1
395 394 398 1
81 82 117 1
364 363 366 1
225 196 363 1
290 248 410 1
30 31 112 1
191 189 222 1
129 387 388 1
70 71 454 1
221 235 436 1
53 54 132 1
188 187 189 1
149 150 151 1
451 300 508 1
67 68 136 1
151 152 155 1
372 371 414 1
155 156 158 1
362 147 442 1
32 128 403 1
146 148 149 1
188 189 190 1
224 214 436 1
121 70 454 1
41 42 109 1
169 242 243 1
84 85 119 1
183 181 402 1
132 426 501 1
179 228 412 1
295 304 417 1
187 185 399 1
108 139 140 1
186 185 187 1
383 367 384 1
189 187 373 1
243 244 245 1
185 227 399 1
200 202 223 1
219 329 330 1
222 373 374 1
389 388 390 1
403 128 404 1
227 183 402 1
391 390 396 1
181 179 412 1
186 187 188 1
38 39 110 1
175 232 419 1
380 379 381 1
248 254 410 1
185 183 227 1
332 357 358 1
402 181 412 1
11 12 131 1
194 196 225 1
35 36 113 1
401 223 479 1
55 56 101 1
111 95 432 1
204 445 460 1
222 189 373 1
184 185 186 1
129 388 389 1
184 183 185 1
374 373 375 1
404 405 406 1
5 6 443 1
166 169 437 1
389 390 391 1
198 200 400 1
199 197 413 1
129 389 418 1
400 223 401 1
312 310 352 1
310 311 313 1
188 190 226 1
85 86 416 1
179 177 228 1
200 223 400 1
62 63 137 1
177 175 419 1
392 391 393 1
316 318 430 1
225 363 364 1
308 291 524 1
182 181 183 1
389 392 418 1
235 252 436 1
182 183 184 1
175 173 232 1
72 102 421 1
424 34 435 1
44 114 422 1
96 97 431 1
404 128 405 1
325 341 346 1
387 116 462 1
182 184 229 1
9 10 100 1
119 85 416 1
87 129 418 1
350 349 425 1
86 87 418 1
313 314 315 1
248 249 254 1
36 37 420 1
115 76 415 1
180 179 181 1
216 205 351 1
389 391 392 1
271 285 286 1
494 217 503 1
342 326 343 1
180 181 182 1
33 34 424 1
269 270 271 1
406 405 407 1
176 178 233 1
407 408 409 1
408 424 435 1
244 242 429 1
113 36 420 1
240 241 259 1
65 66 106 1
95 96 432 1
171 168 172 1
228 177 419 1
128 33 424 1
166 165 169 1
43 44 422 1
167 170 240 1
407 405 408 1
76 77 415 1
259 260 284 1
178 179 180 1
405 128 424 1
365 368 369 1
233 397 469 1
178 177 179 1
109 341 496 1
192 434 447 1
252 251 257 1
321 319 322 1
164 162 165 1
161 263 457 1
342 344 345 1
246 245 273 1
168 166 437 1
35 113 435 1
410 101 488 1
167 240 441 1
57 58 135 1
365 364 367 1
368 367 383 1
161 163 263 1
192 194 434 1
342 343 344 1
369 368 370 1
220 213 433 1
366 385 551 1
274 273 282 1
300 299 508 1
214 221 436 1
408 405 424 1
158 160 411 1
310 216 311 1
331 330 333 1
176 175 177 1
397 388 462 1
176 177 178 1
334 333 337 1
433 218 459 1
171 172 173 1
110 39 438 1
136 466 495 1
445 335 460 1
378 110 527 1
240 259 427 1
145 144 146 1
34 35 435 1
174 175 176 1
174 173 175 1
225 364 365 1
255 350 547 1
171 173 174 1
365 367 368 1
341 326 342 1
325 326 341 1
119 416 452 1
159 158 237 1
434 369 447 1
226 190 447 1
315 314 316 1
349 312 352 1
248 231 249 1
450 215 476 1
111 432 491 1
325 324 326 1
277 276 278 1
260 241 261 1
204 206 445 1
288 133 361 1
143 142 144 1
223 202 460 1
259 241 260 1
313 311 314 1
323 324 325 1
240 170 241 1
243 245 246 1
39 40 438 1
275 276 277 1
164 165 166 1
320 321 323 1
318 319 320 1
260 261 279 1
13 14 118 1
237 411 465 1
323 321 324 1
15 16 134 1
365 369 434 1
194 225 434 1
246 273 274 1
316 317 318 1
320 319 321 1
263 163 264 1
141 140 142 1
246 274 275 1
170 168 171 1
318 317 319 1
178 180 444 1
409 448 449 1
149 151 153 1
301 125 305 1
235 251 252 1
172 168 437 1
164 166 167 1
316 314 317 1
111 491 511 1
167 166 168 1
219 330 331 1
331 333 334 1
154 281 545 1
167 168 170 1
275 274 276 1
331 334 335 1
360 272 534 1
322 476 482 1
254 249 255 1
145 146 147 1
311 216 351 1
272 481 534 1
338 358 544 1
354 282 552 1
225 365 434 1
257 251 466 1
409 408 448 1
75 115 504 1
382 302 520 1
233 178 444 1
190 192 447 1
176 233 458 1
201 199 482 1
236 267 281 1
393 395 452 1
163 162 164 1
335 334 336 1
155 158 159 1
159 237 256 1
356 224 470 1
145 147 161 1
171 174 440 1
143 144 145 1
443 481 510 1
231 220 433 1
440 174 458 1
161 162 163 1
392 393 452 1
169 243 439 1
416 392 452 1
77 78 480 1
408 435 448 1
161 147 162 1
261 241 440 1
252 257 258 1
141 253 431 1
437 169 439 1
170 171 440 1
436 252 470 1
71 421 454 1
385 384 551 1
261 440 458 1
379 375 541 1
141 142 143 1
191 222 502 1
435 113 448 1
97 108 431 1
241 170 440 1
385 366 518 1
108 141 431 1
147 146 442 1
411 301 465 1
10 11 455 1
243 246 439 1
524 291 529 1
226 447 456 1
337 115 542 1
141 143 253 1
249 231 433 1
160 296 411 1
146 149 442 1
250 308 471 1
246 275 439 1
217 195 506 1
29 354 552 1
164 167 441 1
464 474 523 1
322 319 476 1
206 219 445 1
264 163 441 1
163 164 441 1
232 173 487 1
375 399 541 1
202 204 460 1
151 155 446 1
252 258 470 1
149 153 442 1
102 514 544 1
369 370 456 1
38 110 489 1
376 378 527 1
127 528 539 1
476 215 482 1
331 335 445 1
251 307 466 1
113 420 505 1
108 140 141 1
345 377 496 1
153 151 446 1
420 37 489 1
11 131 455 1
219 331 445 1
449 381 499 1
174 176 458 1
317 314 450 1
388 387 462 1
116 90 540 1
224 436 470 1
403 404 533 1
126 28 552 1
314 311 450 1
127 359 528 1
384 367 551 1
447 369 456 1
311 351 450 1
322 413 494 1
117 383 554 1
6 124 443 1
343 326 503 1
155 159 446 1
91 92 532 1
342 345 496 1
358 357 515 1
81 117 554 1
317 450 476 1
118 478 520 1
100 10 455 1
382 134 486 1
359 111 511 1
41 109 507 1
260 279 475 1
61 62 497 1
12 13 468 1
321 322 494 1
145 161 457 1
7 8 483 1
105 52 501 1
458 233 469 1
463 237 465 1
137 471 497 1
256 340 536 1
286 285 461 1
437 439 477 1
254 255 464 1
259 284 539 1
118 417 468 1
131 12 468 1
495 466 548 1
377 438 507 1
439 275 477 1
438 40 507 1
143 145 457 1
335 336 479 1
256 237 463 1
132 54 474 1
364 366 551 1
275 277 477 1
279 261 469 1
289 154 516 1
253 143 457 1
54 55 474 1
255 249 459 1
301 305 465 1
223 460 479 1
102 73 514 1
135 529 549 1
121 454 500 1
3 4 120 1
261 458 469 1
249 433 459 1
284 260 475 1
124 360 534 1
477 277 487 1
357 428 519 1
299 382 486 1
381 449 505 1
100 455 461 1
460 335 479 1
14 15 478 1
62 137 497 1
307 262 525 1
319 317 476 1
53 132 501 1
101 410 523 1
60 122 484 1
215 201 482 1
59 60 484 1
518 401 550 1
172 477 487 1
491 263 511 1
475 116 540 1
17 18 123 1
336 492 493 1
55 101 474 1
409 538 546 1
398 226 509 1
284 532 539 1
409 449 538 1
124 7 483 1
9 100 512 1
456 372 509 1
52 53 501 1
457 263 491 1
271 286 485 1
37 38 489 1
172 437 477 1
101 56 488 1
56 57 488 1
67 136 495 1
386 385 518 1
415 77 480 1
410 254 523 1
515 357 519 1
428 258 500 1
173 172 487 1
13 118 468 1
122 61 497 1
115 415 492 1
119 452 498 1
122 308 524 1
74 75 504 1
449 499 538 1
401 479 550 1
529 290 549 1
66 67 495 1
472 64 531 1
280 446 522 1
336 334 542 1
58 59 490 1
449 448 505 1
227 402 499 1
193 502 506 1
432 253 491 1
193 191 502 1
118 14 478 1
324 321 494 1
272 266 537 1
407 409 546 1
195 193 506 1
341 342 496 1
57 135 488 1
514 338 544 1
135 58 490 1
414 119 498 1
281 267 545 1
40 41 507 1
324 494 503 1
525 106 548 1
500 454 519 1
4 5 510 1
226 456 509 1
326 324 503 1
5 443 510 1
361 2 530 1
253 457 491 1
16 17 521 1
446 159 522 1
452 395 498 1
483 8 512 1
106 66 495 1
74 504 514 1
73 74 514 1
410 488 549 1
8 9 512 1
15 134 478 1
499 402 538 1
528 427 539 1
304 303 526 1
350 426 547 1
227 499 541 1
64 65 531 1
134 16 521 1
20 21 138 1
284 475 540 1
448 113 505 1
359 511 528 1
271 485 516 1
18 19 517 1
291 290 529 1
481 120 510 1
366 401 518 1
492 336 542 1
263 264 511 1
59 484 490 1
358 515 544 1
467 121 535 1
428 500 519 1
336 493 550 1
269 271 516 1
287 483 512 1
421 102 515 1
307 525 548 1
112 403 533 1
286 461 526 1
264 427 528 1
28 29 552 1
516 154 545 1
290 410 549 1
90 91 540 1
262 472 525 1
254 464 523 1
112 533 543 1
80 81 554 1
121 500 535 1
354 112 543 1
485 289 516 1
399 227 541 1
461 455 513 1
479 336 550 1
110 438 527 1
455 131 513 1
2 3 530 1
538 412 546 1
159 256 522 1
412 228 546 1
92 127 532 1
513 131 553 1
65 106 531 1
402 412 538 1
367 364 551 1
417 304 553 1
135 490 529 1
421 515 519 1
461 513 526 1
486 134 521 1
138 21 451 1
454 421 519 1
115 492 542 1
258 257 535 1
484 122 524 1
269 516 545 1
304 513 553 1
334 337 542 1
427 259 539 1
511 264 528 1
123 486 521 1
106 525 531 1
267 269 545 1
474 101 523 1
532 127 539 1
466 307 548 1
120 4 510 1
257 467 535 1
17 123 521 1
522 256 536 1
3 120 530 1
131 468 553 1
123 18 517 1
443 124 534 1
464 255 547 1
500 258 535 1
468 417 553 1
525 472 531 1
288 481 537 1
481 272 537 1
488 135 549 1
515 102 544 1
513 304 526 1
106 495 548 1
19 20 138 1

End
