MeshVersionFormatted 2
Dimension 3

Vertices
225
-1.3393365663827081e-01 -1.8167131807330078e-01 0.0000000000000000e+00 1
-1.2865232896249293e-01 -1.7688657212099593e-01 0.0000000000000000e+00 1
-1.2331088613918696e-01 -1.7187151079173998e-01 0.0000000000000000e+00 1
-1.1791270633304694e-01 -1.6663455653123294e-01 0.0000000000000000e+00 1
-1.1246116770876687e-01 -1.6118413178517485e-01 0.0000000000000000e+00 1
-1.0695964843104065e-01 -1.5552865899926582e-01 0.0000000000000000e+00 1
-1.0141152666456220e-01 -1.4967656061920578e-01 0.0000000000000000e+00 1
-9.5820180574025637e-02 -1.4363625909069491e-01 0.0000000000000000e+00 1
-9.0188988324124864e-02 -1.3741617685943319e-01 0.0000000000000000e+00 1
-8.4521328079553898e-02 -1.3102473637112078e-01 0.0000000000000000e+00 1
-7.8820578005006664e-02 -1.2447036007145762e-01 0.0000000000000000e+00 1
-7.3090116265177141e-02 -1.1776147040614371e-01 0.0000000000000000e+00 1
-6.7333321024759321e-02 -1.1090648982087928e-01 0.0000000000000000e+00 1
-6.1553570448447184e-02 -1.0391384076136423e-01 0.0000000000000000e+00 1
-5.5754242700934695e-02 -9.6791945673298685e-02 0.0000000000000000e+00 1
-4.9938715946915832e-02 -8.9549227002382686e-02 0.0000000000000000e+00 1
-4.4110368351084575e-02 -8.2194107194316302e-02 0.0000000000000000e+00 1
-3.8272578078134903e-02 -7.4735008694799571e-02 0.0000000000000000e+00 1
-3.2428723292760794e-02 -6.7180353949532590e-02 0.0000000000000000e+00 1
-2.6582182159656197e-02 -5.9538565404215336e-02 0.0000000000000000e+00 1
-2.0736332843515105e-02 -5.1818065504547865e-02 0.0000000000000000e+00 1
-1.4894553509031534e-02 -4.4027276696230334e-02 0.0000000000000000e+00 1
-9.0602223208993658e-03 -3.6174621424962659e-02 0.0000000000000000e+00 1
-3.2367174438126395e-03 -2.8268522136444978e-02 0.0000000000000000e+00 1
2.5725829575346769e-03 -2.0317401276377302e-02 0.0000000000000000e+00 1
8.3643007184486182e-03 -1.2329681290459707e-02 0.0000000000000000e+00 1
1.4135057674235198e-02 -4.3137846243922404e-03 0.0000000000000000e+00 1
1.9881475660200452e-02 3.7218662761250229e-03 0.0000000000000000e+00 1
2.5600176511650394e-02 1.1768848965392060e-02 0.0000000000000000e+00 1
3.1287782063891031e-02 1.9818740997708754e-02 0.0000000000000000e+00 1
3.6940914152228443e-02 2.7863119927375151e-02 0.0000000000000000e+00 1
4.2556194611968613e-02 3.5893563308691145e-02 0.0000000000000000e+00 1
4.8130245278417590e-02 4.3901648695956710e-02 0.0000000000000000e+00 1
5.3659687986881366e-02 5.1878953643471754e-02 0.0000000000000000e+00 1
5.9141144572665991e-02 5.9817055705536241e-02 0.0000000000000000e+00 1
6.4571236871077478e-02 6.7707532436450113e-02 0.0000000000000000e+00 1
6.9946586717421821e-02 7.5541961390513279e-02 0.0000000000000000e+00 1
7.5263815947005125e-02 8.3311920122025762e-02 0.0000000000000000e+00 1
8.0519546395133354e-02 9.1008986185287508e-02 0.0000000000000000e+00 1
8.5710399897112557e-02 9.8624737134598406e-02 0.0000000000000000e+00 1
9.0832998288248756e-02 1.0615075052425846e-01 0.0000000000000000e+00 1
9.5883963403847944e-02 1.1357860390856753e-01 0.0000000000000000e+00 1
1.0085991707921617e-01 1.2089987484182560e-01 0.0000000000000000e+00 1
1.0575748114965947e-01 1.2810614087833269e-01 0.0000000000000000e+00 1
1.1057327745048386e-01 1.3518897957238868e-01 0.0000000000000000e+00 1
1.1530392781699539e-01 1.4213996847829355e-01 0.0000000000000000e+00 1
1.1994605408450001e-01 1.4895068515034721e-01 0.0000000000000000e+00 1
1.2449627808830381e-01 1.5561270714284961e-01 0.0000000000000000e+00 1
1.2895122166371278e-01 1.6211761201010066e-01 0.0000000000000000e+00 1
1.3330750664603300e-01 1.6845697730640044e-01 0.0000000000000000e+00 1
1.3756175487057046e-01 1.7462238058604879e-01 0.0000000000000000e+00 1
1.3893568358657957e-01 1.7681692451205638e-01 0.0000000000000000e+00 1
1.3939475387938066e-01 1.7807945302915751e-01 0.0000000000000000e+00 1
1.3901430618282098e-01 1.7848085279856601e-01 0.0000000000000000e+00 1
1.3786968093074756e-01 1.7809201048149534e-01 0.0000000000000000e+00 1
1.3603621855700754e-01 1.7698381273915925e-01 0.0000000000000000e+00 1
1.3358925949544800e-01 1.7522714623277136e-01 0.0000000000000000e+00 1
1.3060414417991609e-01 1.7289289762354534e-01 0.0000000000000000e+00 1
1.2715621304425884e-01 1.7005195357269479e-01 0.0000000000000000e+00 1
1.2332080652232344e-01 1.6677520074143340e-01 0.0000000000000000e+00 1
1.1917326504795701e-01 1.6313352579097484e-01 0.0000000000000000e+00 1
1.1478892905500662e-01 1.5919781538253275e-01 0.0000000000000000e+00 1
1.1024313897731938e-01 1.5503895617732072e-01 0.0000000000000000e+00 1
1.0561123524874240e-01 1.5072783483655247e-01 0.0000000000000000e+00 1
1.0096855830312282e-01 1.4633533802144164e-01 0.0000000000000000e+00 1
9.6390448574307716e-02 1.4193235239320184e-01 0.0000000000000000e+00 1
9.1952246496144224e-02 1.3758976461304676e-01 0.0000000000000000e+00 1
8.7729292502479447e-02 1.3337846134219003e-01 0.0000000000000000e+00 1
8.3796927027160489e-02 1.2936932924184530e-01 0.0000000000000000e+00 1
8.0230490504034482e-02 1.2563325497322625e-01 0.0000000000000000e+00 1
7.7105323366948503e-02 1.2224112519754649e-01 0.0000000000000000e+00 1
7.4496766049749696e-02 1.1926382657601969e-01 0.0000000000000000e+00 1
7.2480158986285140e-02 1.1677224576985951e-01 0.0000000000000000e+00 1
6.8773688022910728e-02 1.1191136033510918e-01 0.0000000000000000e+00 1
6.4583595994286688e-02 1.0642078065132107e-01 0.0000000000000000e+00 1
5.9940831613050360e-02 1.0033882198186844e-01 0.0000000000000000e+00 1
5.4876343591839141e-02 9.3703799590124745e-02 0.0000000000000000e+00 1
4.9421080643290406e-02 8.6554028739463301e-02 0.0000000000000000e+00 1
4.3605991480041580e-02 7.8927824693257514e-02 0.0000000000000000e+00 1
3.7462024814729981e-02 7.0863502714880705e-02 0.0000000000000000e+00 1
3.1020129359993022e-02 6.2399378067706270e-02 0.0000000000000000e+00 1
2.4311253828468091e-02 5.3573766015107563e-02 0.0000000000000000e+00 1
1.7366346932792563e-02 4.4424981820457940e-02 0.0000000000000000e+00 1
1.0216357385603813e-02 3.4991340747130784e-02 0.0000000000000000e+00 1
2.8922338995392427e-03 2.5311158058499466e-02 0.0000000000000000e+00 1
-4.5750748127638026e-03 1.5422749017937293e-02 0.0000000000000000e+00 1
-1.2154620038667897e-02 5.3644288888177183e-03 0.0000000000000000e+00 1
-1.9815453065535695e-02 -4.8254870654859602e-03 0.0000000000000000e+00 1
-2.7526625180729788e-02 -1.5108683581600342e-02 0.0000000000000000e+00 1
-3.5257187671612816e-02 -2.5446845396152051e-02 0.0000000000000000e+00 1
-4.2976191825547391e-02 -3.5801657245767789e-02 0.0000000000000000e+00 1
-5.0652688929896092e-02 -4.6134803867074102e-02 0.0000000000000000e+00 1
-5.8255730272021633e-02 -5.6407969996697706e-02 0.0000000000000000e+00 1
-6.5754367139286521e-02 -6.6582840371265162e-02 0.0000000000000000e+00 1
-7.3117650819053456e-02 -7.6621099727403164e-02 0.0000000000000000e+00 1
-8.0314632598685015e-02 -8.6484432801738315e-02 0.0000000000000000e+00 1
-8.7314363765543787e-02 -9.6134524330897225e-02 0.0000000000000000e+00 1
-9.4085895606992487e-02 -1.0553305905150662e-01 0.0000000000000000e+00 1
-1.0059827941039366e-01 -1.1464172170019304e-01 0.0000000000000000e+00 1
-1.0682056646310993e-01 -1.2342219701358317e-01 0.0000000000000000e+00 1
-1.1272180805250394e-01 -1.3183616972830361e-01 0.0000000000000000e+00 1
-1.1827105546593829e-01 -1.3984532458098103e-01 0.0000000000000000e+00 1
-1.2343735999077558e-01 -1.4741134630824207e-01 0.0000000000000000e+00 1
-1.2818977291437844e-01 -1.5449591964671330e-01 0.0000000000000000e+00 1
-1.3249734552410952e-01 -1.6106072933302146e-01 0.0000000000000000e+00 1
-1.3632912910733141e-01 -1.6706746010379306e-01 0.0000000000000000e+00 1
-1.3965417495140672e-01 -1.7247779669565477e-01 0.0000000000000000e+00 1
-1.4244153434369813e-01 -1.7725342384523335e-01 0.0000000000000000e+00 1
-1.4466025857156820e-01 -1.8135602628915531e-01 0.0000000000000000e+00 1
-1.4627939892237954e-01 -1.8474728876404728e-01 0.0000000000000000e+00 1
-1.4726800668349477e-01 -1.8738889600653591e-01 0.0000000000000000e+00 1
-1.4759513314227654e-01 -1.8924253275324793e-01 0.0000000000000000e+00 1
-1.4722982958608746e-01 -1.9026988374080983e-01 0.0000000000000000e+00 1
-1.4614114730229014e-01 -1.9043263370584829e-01 0.0000000000000000e+00 1
-1.4429813757824719e-01 -1.8969246738499002e-01 0.0000000000000000e+00 1
-1.4166985170132121e-01 -1.8801106951486157e-01 0.0000000000000000e+00 1
-1.3822534095887490e-01 -1.8535012483208960e-01 0.0000000000000000e+00 1
7.6073316540758981e-02 1.1623275081120366e-01 0.0000000000000000e+00 1
8.1121002923568539e-02 1.2125902368005725e-01 0.0000000000000000e+00 1
7.0507546753610192e-02 1.0533998372418796e-01 0.0000000000000000e+00 1
8.9644469096967508e-02 1.2774095198470825e-01 0.0000000000000000e+00 1
6.2915291287348726e-02 9.2818064255395738e-02 0.0000000000000000e+00 1
-4.6566446183603262e-02 -7.4039318962223613e-02 0.0000000000000000e+00 1
-1.4597989930116426e-01 -1.8838930193202022e-01 0.0000000000000000e+00 1
-7.0803383616803675e-02 -1.0273936377037854e-01 0.0000000000000000e+00 1
-2.4271603545064736e-02 -4.2793729108431662e-02 0.0000000000000000e+00 1
-1.4024194881896743e-03 -1.1343352496399410e-02 0.0000000000000000e+00 1
2.1649185685639588e-02 2.0175190246873885e-02 0.0000000000000000e+00 1
-3.6024137595693090e-02 -5.7825858038122735e-02 0.0000000000000000e+00 1
-5.9053417594631064e-02 -8.7712903664191072e-02 0.0000000000000000e+00 1
5.2612444613816735e-02 7.8003399113522456e-02 0.0000000000000000e+00 1
-1.3089752909058026e-02 -2.7111743891078288e-02 0.0000000000000000e+00 1
-9.2985229900094335e-02 -1.3026752042144896e-01 0.0000000000000000e+00 1
-8.1568258748819261e-02 -1.1584352852124419e-01 0.0000000000000000e+00 1
3.2893868619575682e-02 3.5829385680861379e-02 0.0000000000000000e+00 1
9.9743985819036284e-03 4.7339581788019124e-03 0.0000000000000000e+00 1
5.0145617794604552e-02 6.0805300998416585e-02 0.0000000000000000e+00 1
3.4796283930187279e-02 5.2868539547042202e-02 0.0000000000000000e+00 1
9.7914082540377534e-02 1.3611678779212702e-01 0.0000000000000000e+00 1
-1.0297639557696642e-01 -1.4183574147106567e-01 0.0000000000000000e+00 1
8.7951624289981781e-02 1.1475926128541489e-01 0.0000000000000000e+00 1
-1.1406556665226317e-01 -1.5456477555424786e-01 0.0000000000000000e+00 1
-1.4244574906669669e-01 -1.8468820428287960e-01 0.0000000000000000e+00 1
-1.3973648174735581e-01 -1.8124313830304742e-01 0.0000000000000000e+00 1
9.1678921215339354e-02 1.2110856975764508e-01 0.0000000000000000e+00 1
-1.4404391242897430e-01 -1.8719495241279213e-01 0.0000000000000000e+00 1
-1.2568272206791781e-01 -1.6090656900170089e-01 0.0000000000000000e+00 1
8.1465374724666084e-02 1.0631901491750759e-01 0.0000000000000000e+00 1
1.0774462848125363e-01 1.4393053070268891e-01 0.0000000000000000e+00 1
7.6001495875888989e-02 1.0037406406856587e-01 0.0000000000000000e+00 1
-1.2937644888076083e-01 -1.6699240562988305e-01 0.0000000000000000e+00 1
7.3968207555589457e-02 1.1326557337049069e-01 0.0000000000000000e+00 1
6.6238975824887636e-02 8.4220726035938998e-02 0.0000000000000000e+00 1
-1.3623838051706300e-01 -1.7696155650543582e-01 0.0000000000000000e+00 1
2.2228506445943708e-02 3.5328442475534155e-02 0.0000000000000000e+00 1
7.1363968294033617e-02 9.1950698069649145e-02 0.0000000000000000e+00 1
7.8182886207294744e-02 1.1221073364641855e-01 0.0000000000000000e+00 1
8.1098286312138168e-02 1.1644953165758049e-01 0.0000000000000000e+00 1
1.3880360614488221e-01 1.7786731020531882e-01 0.0000000000000000e+00 1
4.7095490320383862e-02 7.0104420812230422e-02 0.0000000000000000e+00 1
-1.0313193687193509e-01 -1.3228570197730408e-01 0.0000000000000000e+00 1
6.7552121636369755e-02 9.9540402125164698e-02 0.0000000000000000e+00 1
-1.0876619781688358e-01 -1.4819464815285113e-01 0.0000000000000000e+00 1
8.4969679457822758e-02 1.2467953828786704e-01 0.0000000000000000e+00 1
-3.9807215556495273e-02 -4.8049735484467115e-02 0.0000000000000000e+00 1
1.5801287575030496e-02 1.2677037770121359e-02 0.0000000000000000e+00 1
9.6166416148723857e-02 1.2644305803982148e-01 0.0000000000000000e+00 1
-6.2557122192646586e-02 -7.7444373445666764e-02 0.0000000000000000e+00 1
-8.7222564373677314e-02 -1.2291896541426503e-01 0.0000000000000000e+00 1
-1.3301210645915368e-01 -1.7223708999438292e-01 0.0000000000000000e+00 1
-8.3363383177291361e-02 -1.0586809276468578e-01 0.0000000000000000e+00 1
9.3825866684622464e-02 1.3200633700712688e-01 0.0000000000000000e+00 1
-6.5589811440590590e-02 -9.5570126360329091e-02 0.0000000000000000e+00 1
4.2357002739533420e-03 -3.2734448767545187e-03 0.0000000000000000e+00 1
-7.1742672134563522e-03 -1.9293868404573814e-02 0.0000000000000000e+00 1
-5.3304073563126206e-02 -8.0895637777884971e-02 0.0000000000000000e+00 1
-4.1814607698298374e-02 -6.5957528781023816e-02 0.0000000000000000e+00 1
-1.8835747640112942e-02 -3.4960709182559738e-02 0.0000000000000000e+00 1
-4.6980830546629444e-02 -5.6798368088413140e-02 0.0000000000000000e+00 1
1.1204798616190620e-01 1.4897595153498563e-01 0.0000000000000000e+00 1
1.0253298665503238e-01 1.4009443637134689e-01 0.0000000000000000e+00 1
5.7874315852744634e-02 8.5474236372935330e-02 0.0000000000000000e+00 1
-2.3369968283355077e-02 -2.5677663173068035e-02 0.0000000000000000e+00 1
-6.9704044685987260e-02 -8.6609365586984580e-02 0.0000000000000000e+00 1
-9.0680948032670725e-02 -1.1438485151185490e-01 0.0000000000000000e+00 1
4.4413492110698172e-02 5.2382913934462719e-02 0.0000000000000000e+00 1
6.1227784382068190e-02 7.6787619927803655e-02 0.0000000000000000e+00 1
5.5798953092436133e-02 6.8870888165659894e-02 0.0000000000000000e+00 1
-2.9401199315271751e-04 5.7803840813658103e-03 0.0000000000000000e+00 1
-3.0029595765887238e-02 -5.0190376110957592e-02 0.0000000000000000e+00 1
4.0822173055099470e-02 6.1570676012456478e-02 0.0000000000000000e+00 1
-7.5231692566570155e-02 -1.1062378905666631e-01 0.0000000000000000e+00 1
8.6276379030815586e-02 1.1965869995531087e-01 0.0000000000000000e+00 1
5.9427914606306996e-03 1.3893609901817967e-02 0.0000000000000000e+00 1
3.8603421270221747e-02 4.4360800970405914e-02 0.0000000000000000e+00 1
-1.6974651240187020e-02 -1.8166434655172203e-02 0.0000000000000000e+00 1
-1.2099211445522015e-01 -1.5411976706051289e-01 0.0000000000000000e+00 1
-5.3992508712766805e-03 -2.3589822598181053e-03 0.0000000000000000e+00 1
2.8366613504531513e-02 4.4397652751568192e-02 0.0000000000000000e+00 1
1.1662610337954717e-01 1.5402549501370108e-01 0.0000000000000000e+00 1
-5.3604739656516000e-02 -6.8303719631882157e-02 0.0000000000000000e+00 1
-9.6906587508646849e-02 -1.2298682633977487e-01 0.0000000000000000e+00 1
-1.0153208375729084e-02 -1.1197624976289898e-02 0.0000000000000000e+00 1
1.1817191696945473e-02 2.1518288370941566e-02 0.0000000000000000e+00 1
-7.7591633470316890e-02 -9.5823257522579197e-02 0.0000000000000000e+00 1
-2.8328385273268940e-02 -3.3979220801587509e-02 0.0000000000000000e+00 1
2.7027271757588598e-02 2.7717281331252973e-02 0.0000000000000000e+00 1
1.0388831358929727e-01 1.3413370534745092e-01 0.0000000000000000e+00 1
-1.1610977247299747e-01 -1.4726697180596693e-01 0.0000000000000000e+00 1
-1.1103708899387714e-01 -1.4088747424477491e-01 0.0000000000000000e+00 1
1.2385902719108401e-01 1.6192269915967142e-01 0.0000000000000000e+00 1
-9.7020546249429268e-02 -1.3708827996398937e-01 0.0000000000000000e+00 1
7.7978939038632775e-02 1.1908925158448153e-01 0.0000000000000000e+00 1
1.1978872055237973e-01 1.5877844849794595e-01 0.0000000000000000e+00 1
8.2572107918508220e-02 1.1217493517315727e-01 0.0000000000000000e+00 1
7.4772897300781072e-02 1.0884519314707809e-01 0.0000000000000000e+00 1
-1.4583073978770303e-01 -1.8694030201877196e-01 0.0000000000000000e+00 1
-1.1921850541868391e-01 -1.6067098580149713e-01 0.0000000000000000e+00 1
-1.4655687105274082e-01 -1.8949089924230186e-01 0.0000000000000000e+00 1
9.9510432022536122e-02 1.3136120581297181e-01 0.0000000000000000e+00 1
-3.3082598393252720e-02 -4.2162943750242335e-02 0.0000000000000000e+00 1
1.2782342159893045e-01 1.6650302702971759e-01 0.0000000000000000e+00 1
-1.2363731574031239e-01 -1.6600340603687749e-01 0.0000000000000000e+00 1
1.8587702594344235e-02 2.7946108634346673e-02 0.0000000000000000e+00 1
1.2990080226982348e-01 1.6953835831306535e-01 0.0000000000000000e+00 1

Edges
117
1 2 1
2 3 1
3 4 1
4 5 1
5 6 1
6 7 1
7 8 1
8 9 1
9 10 1
10 11 1
11 12 1
12 13 1
13 14 1
14 15 1
15 16 1
16 17 1
17 18 1
18 19 1
19 20 1
20 21 1
21 22 1
22 23 1
23 24 1
24 25 1
25 26 1
26 27 1
27 28 1
28 29 1
29 30 1
30 31 1
31 32 1
32 33 1
33 34 1
34 35 1
35 36 1
36 37 1
37 38 1
38 39 1
39 40 1
40 41 1
41 42 1
42 43 1
43 44 1
44 45 1
45 46 1
46 47 1
47 48 1
48 49 1
49 50 1
50 51 1
51 52 1
52 53 1
53 54 1
54 55 1
55 56 1
56 57 1
57 58 1
58 59 1
59 60 1
60 61 1
61 62 1
62 63 1
63 64 1
64 65 1
65 66 1
66 67 1
67 68 1
68 69 1
69 70 1
70 71 1
71 72 1
72 73 1
73 74 1
74 75 1
75 76 1
76 77 1
77 78 1
78 79 1
79 80 1
80 81 1
81 82 1
82 83 1
83 84 1
84 85 1
85 86 1
86 87 1
87 88 1
88 89 1
89 90 1
90 91 1
91 92 1
92 93 1
93 94 1
94 95 1
95 96 1
96 97 1
97 98 1
98 99 1
99 100 1
100 101 1
101 102 1
102 103 1
103 104 1
104 105 1
105 106 1
106 107 1
107 108 1
108 109 1
109 110 1
110 111 1
111 112 1
112 113 1
113 114 1
114 115 1
115 116 1
116 117 1
117 1 1

Triangles
331
3 151 170 1
161 133 202 1
2 3 170 1
125 171 192 1
100 161 202 1
146 110 217 1
116 117 143 1
45 149 181 1
52 53 159 1
176 123 201 1
56 57 51 1
41 141 215 1
1 2 154 1
168 176 201 1
171 125 205 1
145 121 164 1
52 56 51 1
150 148 216 1
54 55 159 1
45 46 149 1
115 124 219 1
148 41 215 1
173 184 205 1
120 150 216 1
150 120 162 1
140 161 210 1
124 115 146 1
177 179 201 1
155 135 199 1
83 155 199 1
108 109 144 1
154 2 170 1
156 150 162 1
161 101 210 1
167 44 220 1
73 74 152 1
222 50 225 1
122 153 156 1
117 1 144 1
153 38 156 1
116 143 146 1
143 110 146 1
137 35 188 1
200 48 214 1
125 173 205 1
49 50 222 1
123 177 201 1
160 80 191 1
145 164 193 1
108 144 154 1
45 181 208 1
109 143 144 1
41 42 141 1
121 145 167 1
141 42 145 1
111 112 124 1
115 116 146 1
137 160 191 1
197 142 209 1
206 91 221 1
103 197 209 1
107 108 154 1
119 158 193 1
43 44 167 1
143 117 144 1
198 88 203 1
107 154 170 1
90 91 206 1
160 137 188 1
106 107 170 1
87 88 198 1
40 41 148 1
109 110 143 1
144 1 154 1
40 148 150 1
122 156 162 1
46 47 180 1
158 141 193 1
110 111 217 1
42 43 145 1
50 58 225 1
84 204 224 1
84 85 204 1
149 46 180 1
47 48 200 1
38 39 156 1
184 96 205 1
39 150 156 1
134 171 185 1
129 165 179 1
81 82 138 1
104 105 147 1
133 161 212 1
83 84 155 1
39 40 150 1
145 43 167 1
37 38 153 1
88 89 196 1
105 106 151 1
130 168 184 1
78 79 131 1
179 93 201 1
99 100 202 1
147 105 151 1
182 131 187 1
35 36 188 1
153 122 182 1
148 157 216 1
76 77 122 1
79 80 160 1
100 101 161 1
76 122 162 1
141 145 193 1
78 131 182 1
153 182 187 1
152 74 216 1
34 35 137 1
5 6 142 1
74 75 120 1
131 79 160 1
103 104 197 1
80 81 191 1
165 92 179 1
88 196 203 1
75 76 162 1
82 83 199 1
95 96 184 1
7 8 140 1
77 78 182 1
92 93 179 1
180 47 200 1
31 32 135 1
70 71 119 1
94 168 201 1
122 77 182 1
6 7 163 1
85 86 194 1
9 10 133 1
94 95 168 1
97 98 171 1
91 92 165 1
29 30 128 1
36 37 187 1
97 171 205 1
171 98 185 1
168 95 184 1
11 12 134 1
151 106 170 1
28 29 166 1
27 28 136 1
68 69 121 1
13 14 125 1
135 155 207 1
121 167 172 1
10 11 169 1
15 16 130 1
25 26 127 1
26 27 174 1
17 18 123 1
23 24 132 1
124 112 219 1
19 20 129 1
124 146 217 1
34 137 186 1
21 22 126 1
142 6 163 1
69 70 164 1
81 138 191 1
24 25 175 1
66 67 139 1
89 90 183 1
14 15 173 1
22 23 178 1
16 17 176 1
18 19 177 1
63 64 180 1
67 68 172 1
86 87 189 1
64 65 149 1
65 66 181 1
141 158 215 1
165 129 190 1
33 34 186 1
168 130 176 1
101 102 210 1
7 140 163 1
20 21 190 1
37 153 187 1
161 140 212 1
98 99 185 1
12 13 192 1
29 128 166 1
4 218 223 1
135 195 199 1
171 134 192 1
218 147 223 1
62 63 200 1
136 28 166 1
135 32 195 1
133 10 169 1
36 187 188 1
131 160 188 1
27 136 174 1
11 134 169 1
5 142 218 1
186 137 191 1
127 26 174 1
48 49 211 1
32 33 195 1
125 14 173 1
25 127 175 1
33 186 195 1
132 24 175 1
15 130 173 1
71 72 213 1
23 132 178 1
130 16 176 1
120 75 162 1
17 123 176 1
126 22 178 1
123 18 177 1
19 129 177 1
134 12 192 1
169 134 185 1
13 125 192 1
31 135 207 1
21 126 190 1
129 20 190 1
74 120 216 1
138 82 199 1
128 30 207 1
174 136 189 1
96 97 205 1
93 94 201 1
121 69 164 1
128 207 224 1
173 130 184 1
9 133 212 1
195 138 199 1
178 132 183 1
138 186 191 1
157 148 215 1
151 3 223 1
139 67 172 1
72 73 118 1
104 147 197 1
140 8 212 1
68 121 172 1
70 119 164 1
177 129 179 1
66 139 181 1
102 103 209 1
64 149 180 1
149 65 181 1
85 194 204 1
187 131 188 1
186 138 195 1
30 31 207 1
63 180 200 1
119 71 213 1
44 45 208 1
60 61 211 1
136 166 194 1
118 157 158 1
189 87 198 1
155 84 224 1
8 9 212 1
183 90 206 1
142 197 218 1
166 128 204 1
61 62 214 1
91 165 221 1
158 119 213 1
189 136 194 1
164 119 193 1
133 169 202 1
58 59 225 1
207 155 224 1
89 183 196 1
3 4 223 1
127 174 198 1
132 175 196 1
169 185 202 1
142 163 209 1
174 189 198 1
4 5 218 1
183 132 196 1
112 113 219 1
175 127 203 1
194 166 204 1
59 60 222 1
62 200 214 1
147 151 223 1
126 178 206 1
163 140 210 1
178 183 206 1
86 189 194 1
113 114 219 1
185 99 202 1
181 139 208 1
72 118 213 1
118 158 213 1
127 198 203 1
139 172 220 1
196 175 203 1
190 126 221 1
209 163 210 1
172 167 220 1
197 147 218 1
211 61 214 1
59 222 225 1
118 152 157 1
118 73 152 1
60 211 222 1
102 209 210 1
165 190 221 1
158 157 215 1
157 152 216 1
48 211 214 1
111 124 217 1
53 54 159 1
204 128 224 1
126 206 221 1
208 139 220 1
44 208 220 1
211 49 222 1
51 57 50 1
57 58 50 1
55 56 52 1
55 52 159 1
114 115 219 1

End
