MeshVersionFormatted 2
Dimension 3

Vertices
984
-3.0037393642092902e-01 -1.5501771649199933e-01 0.0000000000000000e+00 1
-2.9201988518390254e-01 -1.5545982886274937e-01 0.0000000000000000e+00 1
-2.8340866060197478e-01 -1.5562992065848377e-01 0.0000000000000000e+00 1
-2.7455038321107195e-01 -1.5553419620395720e-01 0.0000000000000000e+00 1
-2.6545517354712023e-01 -1.5517885982392446e-01 0.0000000000000000e+00 1
-2.5613315214604532e-01 -1.5457011584314009e-01 0.0000000000000000e+00 1
-2.4659443954377361e-01 -1.5371416858635886e-01 0.0000000000000000e+00 1
-2.3684915627623110e-01 -1.5261722237833544e-01 0.0000000000000000e+00 1
-2.2690742287934401e-01 -1.5128548154382457e-01 0.0000000000000000e+00 1
-2.1677935988903840e-01 -1.4972515040758091e-01 0.0000000000000000e+00 1
-2.0647508784124027e-01 -1.4794243329435916e-01 0.0000000000000000e+00 1
-1.9600472727187579e-01 -1.4594353452891398e-01 0.0000000000000000e+00 1
-1.8537839871687101e-01 -1.4373465843600008e-01 0.0000000000000000e+00 1
-1.7460622271215209e-01 -1.4132200934037217e-01 0.0000000000000000e+00 1
-1.6369831979364516e-01 -1.3871179156678498e-01 0.0000000000000000e+00 1
-1.5266481049727615e-01 -1.3591020943999313e-01 0.0000000000000000e+00 1
-1.4151581535897137e-01 -1.3292346728475130e-01 0.0000000000000000e+00 1
-1.3026145491465682e-01 -1.2975776942581432e-01 0.0000000000000000e+00 1
-1.1891184970025862e-01 -1.2641932018793675e-01 0.0000000000000000e+00 1
-1.0747712025170281e-01 -1.2291432389587335e-01 0.0000000000000000e+00 1
-9.5967387104915508e-02 -1.1924898487437875e-01 0.0000000000000000e+00 1
-8.4392770795822913e-02 -1.1542950744820767e-01 0.0000000000000000e+00 1
-7.2763391860350995e-02 -1.1146209594211483e-01 0.0000000000000000e+00 1
-6.1089370834425887e-02 -1.0735295468085489e-01 0.0000000000000000e+00 1
-4.9380828253973684e-02 -1.0310828798918255e-01 0.0000000000000000e+00 1
-3.7647884654920478e-02 -9.8734300191852517e-02 0.0000000000000000e+00 1
-2.5900660573192430e-02 -9.4237195613619471e-02 0.0000000000000000e+00 1
-1.4149276544715556e-02 -8.9623178579238141e-02 0.0000000000000000e+00 1
-2.4038531054160484e-03 -8.4898453413463165e-02 0.0000000000000000e+00 1
9.3254892087800689e-03 -8.0069224441049261e-02 0.0000000000000000e+00 1
2.1028629861946695e-02 -7.5141695986751147e-02 0.0000000000000000e+00 1
3.2695448318157599e-02 -7.0122072375323516e-02 0.0000000000000000e+00 1
4.4315824041486915e-02 -6.5016557931520988e-02 0.0000000000000000e+00 1
5.5879636496008370e-02 -5.9831356980098338e-02 0.0000000000000000e+00 1
6.7376765145795964e-02 -5.4572673845810202e-02 0.0000000000000000e+00 1
7.8797089454923530e-02 -4.9246712853411312e-02 0.0000000000000000e+00 1
9.0130488887464916e-02 -4.3859678327656373e-02 0.0000000000000000e+00 1
1.0136684290749420e-01 -3.8417774593300008e-02 0.0000000000000000e+00 1
1.1249603097908517e-01 -3.2927205975096963e-02 0.0000000000000000e+00 1
1.2350793256631176e-01 -2.7394176797801918e-02 0.0000000000000000e+00 1
1.3439242713324781e-01 -2.1824891386169585e-02 0.0000000000000000e+00 1
1.4513939414396732e-01 -1.6225554064954639e-02 0.0000000000000000e+00 1
1.5573871306254403e-01 -1.0602369158911811e-02 0.0000000000000000e+00 1
1.6618026335305200e-01 -4.9615409927957106e-03 0.0000000000000000e+00 1
1.7645392447956512e-01 6.9072610863890258e-04 0.0000000000000000e+00 1
1.8654957590615723e-01 6.3482278206373616e-03 0.0000000000000000e+00 1
1.9645709709690221e-01 1.2004759818444958e-02 0.0000000000000000e+00 1
2.0616636751587408e-01 1.7654117777307018e-02 0.0000000000000000e+00 1
2.1566726662714658e-01 2.3290097372468791e-02 0.0000000000000000e+00 1
2.2494967389479373e-01 2.8906494279175660e-02 0.0000000000000000e+00 1
2.3400346878288944e-01 3.4497104172672911e-02 0.0000000000000000e+00 1
2.4281853075550755e-01 4.0055722728205831e-02 0.0000000000000000e+00 1
2.5138473927672195e-01 4.5576145621019734e-02 0.0000000000000000e+00 1
2.5969197381060660e-01 5.1052168526359937e-02 0.0000000000000000e+00 1
2.6773011382123535e-01 5.6477587119471748e-02 0.0000000000000000e+00 1
2.7548903877268210e-01 6.1846197075600406e-02 0.0000000000000000e+00 1
2.8295862812902089e-01 6.7151794069991347e-02 0.0000000000000000e+00 1
2.9012876135432542e-01 7.2388173777889780e-02 0.0000000000000000e+00 1
2.9698931791266964e-01 7.7549131874541044e-02 0.0000000000000000e+00 1
3.0353017726812764e-01 8.2628464035190433e-02 0.0000000000000000e+00 1
3.0974121888477307e-01 8.7619965935083283e-02 0.0000000000000000e+00 1
3.1561232222667990e-01 9.2517433249464834e-02 0.0000000000000000e+00 1
3.1887597420547975e-01 9.5720476262513857e-02 0.0000000000000000e+00 1
3.2101197830606215e-01 9.8789660208704791e-02 0.0000000000000000e+00 1
3.2206636357543866e-01 1.0172494969142509e-01 0.0000000000000000e+00 1
3.2208515906062102e-01 1.0452630931406219e-01 0.0000000000000000e+00 1
3.2111439380862078e-01 1.0719370368000343e-01 0.0000000000000000e+00 1
3.1920009686644946e-01 1.0972709739263627e-01 0.0000000000000000e+00 1
3.1638829728111878e-01 1.1212645505534811e-01 0.0000000000000000e+00 1
3.1272502409964031e-01 1.1439174127152640e-01 0.0000000000000000e+00 1
3.0825630636902579e-01 1.1652292064455853e-01 0.0000000000000000e+00 1
3.0302817313628672e-01 1.1851995777783189e-01 0.0000000000000000e+00 1
2.9708665344843471e-01 1.2038281727473393e-01 0.0000000000000000e+00 1
2.9047777635248145e-01 1.2211146373865209e-01 0.0000000000000000e+00 1
2.8324757089543845e-01 1.2370586177297370e-01 0.0000000000000000e+00 1
2.7544206612431743e-01 1.2516597598108625e-01 0.0000000000000000e+00 1
2.6710729108613002e-01 1.2649177096637715e-01 0.0000000000000000e+00 1
2.5828927482788772e-01 1.2768321133223376e-01 0.0000000000000000e+00 1
2.4903404639660223e-01 1.2874026168204353e-01 0.0000000000000000e+00 1
2.3938763483928516e-01 1.2966288661919392e-01 0.0000000000000000e+00 1
2.2939606920294811e-01 1.3045105074707225e-01 0.0000000000000000e+00 1
2.1910537853460263e-01 1.3110471866906598e-01 0.0000000000000000e+00 1
2.0856159188126042e-01 1.3162385498856255e-01 0.0000000000000000e+00 1
1.9781073828993309e-01 1.3200842430894938e-01 0.0000000000000000e+00 1
1.8689884680763225e-01 1.3225839123361383e-01 0.0000000000000000e+00 1
1.7587194648136953e-01 1.3237372036594333e-01 0.0000000000000000e+00 1
1.6477606635815659e-01 1.3235437630932534e-01 0.0000000000000000e+00 1
1.5365723548500490e-01 1.3220032366714721e-01 0.0000000000000000e+00 1
1.4256148290892615e-01 1.3191152704279641e-01 0.0000000000000000e+00 1
1.3153483767693200e-01 1.3148795103966035e-01 0.0000000000000000e+00 1
1.2062332883603402e-01 1.3092956026112640e-01 0.0000000000000000e+00 1
1.0987298543324392e-01 1.3023631931058202e-01 0.0000000000000000e+00 1
9.9329836515573172e-02 1.2940819279141461e-01 0.0000000000000000e+00 1
8.9039911130033428e-02 1.2844514530701157e-01 0.0000000000000000e+00 1
7.9049238323636389e-02 1.2734714146076032e-01 0.0000000000000000e+00 1
6.9403847143393579e-02 1.2611414585604830e-01 0.0000000000000000e+00 1
6.0149766636316722e-02 1.2474612309626291e-01 0.0000000000000000e+00 1
5.1333025849417312e-02 1.2324303778479158e-01 0.0000000000000000e+00 1
4.2999653829707010e-02 1.2160485452502166e-01 0.0000000000000000e+00 1
3.5195679624197451e-02 1.1983153792034064e-01 0.0000000000000000e+00 1
2.7967132279900241e-02 1.1792305257413591e-01 0.0000000000000000e+00 1
2.1360040843827026e-02 1.1587936308979489e-01 0.0000000000000000e+00 1
1.5420434362989364e-02 1.1370043407070497e-01 0.0000000000000000e+00 1
8.5735042655722300e-03 1.1082978723591885e-01 0.0000000000000000e+00 1
1.2146865491441013e-03 1.0751995122952139e-01 0.0000000000000000e+00 1
-6.6218913864258856e-03 1.0379199903272694e-01 0.0000000000000000e+00 1
-1.4902102141268598e-02 9.9667003626749961e-02 0.0000000000000000e+00 1
-2.3591818315514913e-02 9.5166037992804944e-02 0.0000000000000000e+00 1
-3.2656912509295692e-02 9.0310175112106178e-02 0.0000000000000000e+00 1
-4.2063257322741798e-02 8.5120487965868227e-02 0.0000000000000000e+00 1
-5.1776725355984120e-02 7.9618049535305407e-02 0.0000000000000000e+00 1
-6.1763189209153503e-02 7.3823932801632172e-02 0.0000000000000000e+00 1
-7.1988521482380829e-02 6.7759210746062962e-02 0.0000000000000000e+00 1
-8.2418594775796938e-02 6.1444956349812174e-02 0.0000000000000000e+00 1
-9.3019281689532746e-02 5.4902242594094236e-02 0.0000000000000000e+00 1
-1.0375645482371912e-01 4.8152142460123615e-02 0.0000000000000000e+00 1
-1.1459598677848681e-01 4.1215728929114681e-02 0.0000000000000000e+00 1
-1.2550375015396686e-01 3.4114074982281861e-02 0.0000000000000000e+00 1
-1.3644561755029005e-01 2.6868253600839598e-02 0.0000000000000000e+00 1
-1.4738746156758725e-01 1.9499337766002302e-02 0.0000000000000000e+00 1
-1.5829515480598932e-01 1.2028400458984385e-02 0.0000000000000000e+00 1
-1.6913456986562717e-01 4.4765146610003144e-03 0.0000000000000000e+00 1
-1.7987157934663159e-01 -3.1352466467355379e-03 0.0000000000000000e+00 1
-1.9047205584913354e-01 -1.0785810483008740e-02 0.0000000000000000e+00 1
-2.0090187197326384e-01 -1.8454103866604826e-02 0.0000000000000000e+00 1
-2.1112690031915332e-01 -2.6119053816309436e-02 0.0000000000000000e+00 1
-2.2111301348693296e-01 -3.3759587350908116e-02 0.0000000000000000e+00 1
-2.3082608407673352e-01 -4.1354631489186430e-02 0.0000000000000000e+00 1
-2.4023198468868592e-01 -4.8883113249929985e-02 0.0000000000000000e+00 1
-2.4929658792292106e-01 -5.6323959651924355e-02 0.0000000000000000e+00 1
-2.5798576637956971e-01 -6.3656097713955043e-02 0.0000000000000000e+00 1
-2.6626539265876281e-01 -7.0858454454807748e-02 0.0000000000000000e+00 1
-2.7410133936063125e-01 -7.7909956893268004e-02 0.0000000000000000e+00 1
-2.8145947908530583e-01 -8.4789532048121341e-02 0.0000000000000000e+00 1
-2.8830568443291743e-01 -9.1476106938153390e-02 0.0000000000000000e+00 1
-2.9460582800359697e-01 -9.7948608582149724e-02 0.0000000000000000e+00 1
-3.0032578239747526e-01 -1.0418596399889583e-01 0.0000000000000000e+00 1
-3.0543142021468322e-01 -1.1016710020717745e-01 0.0000000000000000e+00 1
-3.0988861405535167e-01 -1.1587094422578002e-01 0.0000000000000000e+00 1
-3.1366323651961148e-01 -1.2127642307348917e-01 0.0000000000000000e+00 1
-3.1672116020759361e-01 -1.2636246376909049e-01 0.0000000000000000e+00 1
-3.1902825771942878e-01 -1.3110799333136955e-01 0.0000000000000000e+00 1
-3.2055040165524790e-01 -1.3549193877911189e-01 0.0000000000000000e+00 1
-3.2125346461518195e-01 -1.3949322713110315e-01 0.0000000000000000e+00 1
-3.2110331919936175e-01 -1.4309078540612888e-01 0.0000000000000000e+00 1
-3.2006583800791810e-01 -1.4626354062297461e-01 0.0000000000000000e+00 1
-3.1810689364098188e-01 -1.4899041980042602e-01 0.0000000000000000e+00 1
-3.1519235869868406e-01 -1.5125034995726860e-01 0.0000000000000000e+00 1
-3.1128810578115534e-01 -1.5302225811228795e-01 0.0000000000000000e+00 1
-3.0636000748852676e-01 -1.5428507128426969e-01 0.0000000000000000e+00 1
2.0231034870285349e-02 1.0852774055753465e-01 0.0000000000000000e+00 1
-7.4186557806779022e-03 9.5210419452213202e-02 0.0000000000000000e+00 1
5.7010280788743158e-02 1.1655160561793292e-01 0.0000000000000000e+00 1
7.9521764936955244e-02 -3.7515771971326245e-02 0.0000000000000000e+00 1
-4.2244527857906319e-02 7.4115661619706882e-02 0.0000000000000000e+00 1
9.5297590612124977e-02 1.2037730399112669e-01 0.0000000000000000e+00 1
5.5596171891520590e-04 -7.1780516080869189e-02 0.0000000000000000e+00 1
1.2443650328067782e-01 -1.3121389762150899e-02 0.0000000000000000e+00 1
-1.0281772530361129e-01 3.5967944492841665e-02 0.0000000000000000e+00 1
1.3681882173857399e-01 1.2313596437749276e-01 0.0000000000000000e+00 1
-8.2000121781513974e-02 -1.0341502845565706e-01 0.0000000000000000e+00 1
1.6647476863573993e-01 6.6768759581295909e-03 0.0000000000000000e+00 1
-1.2679533156417769e-01 -1.1815870955169133e-01 0.0000000000000000e+00 1
1.8131039956989786e-01 1.2361523807973979e-01 0.0000000000000000e+00 1
-7.1527586479716326e-02 5.5576011045396945e-02 0.0000000000000000e+00 1
-1.4664825494233411e-01 6.0750725287762415e-03 0.0000000000000000e+00 1
4.5897787079442760e-02 -5.3072031005486769e-02 0.0000000000000000e+00 1
-3.3859631307741236e-02 -8.6814691562992055e-02 0.0000000000000000e+00 1
1.9667397707319745e-01 2.2799711875101821e-02 0.0000000000000000e+00 1
-1.7133923783354660e-01 -1.3089454896506250e-01 0.0000000000000000e+00 1
-1.7914357098613737e-01 -1.5906692540133115e-02 0.0000000000000000e+00 1
-2.0225730954623938e-01 -1.3823129313159535e-01 0.0000000000000000e+00 1
2.1347468579159856e-01 1.2239608719280726e-01 0.0000000000000000e+00 1
2.2493265496749726e-01 3.9252839608758229e-02 0.0000000000000000e+00 1
-2.0950928212164455e-01 -3.8189810967098767e-02 0.0000000000000000e+00 1
-2.3425011226715600e-01 -1.4359465178932662e-01 0.0000000000000000e+00 1
2.5896296592173745e-01 6.0870589364499544e-02 0.0000000000000000e+00 1
-2.3732648589902328e-01 -6.0500229729531667e-02 0.0000000000000000e+00 1
-2.8671543139969702e-01 -9.8662048338013328e-02 0.0000000000000000e+00 1
-2.6371748347999996e-01 -8.0409192755361583e-02 0.0000000000000000e+00 1
2.4301947572915270e-01 1.2031866118115726e-01 0.0000000000000000e+00 1
2.7070220122388899e-01 1.1919899246519293e-01 0.0000000000000000e+00 1
-3.1672840512481931e-01 -1.3458985962798295e-01 0.0000000000000000e+00 1
-3.0294070800292755e-01 -1.1670686422743803e-01 0.0000000000000000e+00 1
-2.6150295275969582e-01 -1.4648511856034271e-01 0.0000000000000000e+00 1
2.9247933988793240e-01 1.1613669313164780e-01 0.0000000000000000e+00 1
3.0877016845881050e-01 1.1174849685077753e-01 0.0000000000000000e+00 1
2.8208384223413974e-01 7.5876824609307100e-02 0.0000000000000000e+00 1
3.1804626509223499e-01 1.0688992040788266e-01 0.0000000000000000e+00 1
-3.0267272438313303e-01 -1.4957004313579370e-01 0.0000000000000000e+00 1
-2.8657101271118085e-01 -1.4804401704830872e-01 0.0000000000000000e+00 1
-2.4020792331595407e-02 8.5077413196293070e-02 0.0000000000000000e+00 1
2.4228583441484497e-01 5.0229340545797842e-02 0.0000000000000000e+00 1
2.9600919075068033e-01 8.7113388112045775e-02 0.0000000000000000e+00 1
1.4687388370399646e-01 -4.3691859761890647e-03 0.0000000000000000e+00 1
-1.2449046933586710e-01 2.2157054080850575e-02 0.0000000000000000e+00 1
1.0265043520550235e-01 -2.5782372741394805e-02 0.0000000000000000e+00 1
7.3297375419424174e-03 1.0295694150569112e-01 0.0000000000000000e+00 1
7.5141144360680659e-02 1.1879687461516987e-01 0.0000000000000000e+00 1
1.1583464967711851e-01 1.2183090661581308e-01 0.0000000000000000e+00 1
2.2516798388149416e-02 -6.2532494596880928e-02 0.0000000000000000e+00 1
-5.9058872586317826e-02 -9.2830747928370372e-02 0.0000000000000000e+00 1
-1.0586542275775992e-01 -1.1038270629832068e-01 0.0000000000000000e+00 1
-1.4864378209089318e-01 -1.2543014842925854e-01 0.0000000000000000e+00 1
1.5933999056976755e-01 1.2202972613905477e-01 0.0000000000000000e+00 1
4.1620582638397810e-02 1.1431538597033890e-01 0.0000000000000000e+00 1
-3.1489890516063346e-01 -1.4776685768355716e-01 0.0000000000000000e+00 1
3.1472304676700363e-01 9.6687761262649663e-02 0.0000000000000000e+00 1
-3.1122738625408036e-01 -1.2650005840646045e-01 0.0000000000000000e+00 1
-3.1793244887840333e-01 -1.4107156722563552e-01 0.0000000000000000e+00 1
3.1865828145510561e-01 1.0155737065102483e-01 0.0000000000000000e+00 1
3.0984205580004720e-01 9.3466966942941723e-02 0.0000000000000000e+00 1
3.0976987573948156e-01 9.9020993309466607e-02 0.0000000000000000e+00 1
3.0419321125399484e-01 9.6134547223050551e-02 0.0000000000000000e+00 1
3.0480357988838852e-01 1.0189450159235995e-01 0.0000000000000000e+00 1
2.9921738430605560e-01 9.9067085753233211e-02 0.0000000000000000e+00 1
2.9977002030210842e-01 1.0519252799293061e-01 0.0000000000000000e+00 1
2.9375697073518375e-01 1.0221350881132013e-01 0.0000000000000000e+00 1
3.1006013507425861e-01 1.0470514801039213e-01 0.0000000000000000e+00 1
2.9381514963233801e-01 9.5188836400911303e-02 0.0000000000000000e+00 1
2.8734047835522081e-01 9.8420629974782237e-02 0.0000000000000000e+00 1
2.8755919841032679e-01 1.0572407767828713e-01 0.0000000000000000e+00 1
2.8072177507803653e-01 1.0231937734399808e-01 0.0000000000000000e+00 1
2.8064053090679153e-01 9.4303437536192622e-02 0.0000000000000000e+00 1
2.7346562091309812e-01 9.8453857617293986e-02 0.0000000000000000e+00 1
2.7354147798091577e-01 8.9722657216907420e-02 0.0000000000000000e+00 1
2.6588167885630576e-01 9.4336826868077872e-02 0.0000000000000000e+00 1
2.6619597007223100e-01 8.4854247386453849e-02 0.0000000000000000e+00 1
2.5816577507856708e-01 8.9602531959938281e-02 0.0000000000000000e+00 1
2.5814721234209237e-01 9.9034335400937049e-02 0.0000000000000000e+00 1
2.5004336597583177e-01 9.4469246299719423e-02 0.0000000000000000e+00 1
2.5005997129278618e-01 8.4885438046899908e-02 0.0000000000000000e+00 1
2.4169646631660982e-01 8.9837365754328311e-02 0.0000000000000000e+00 1
2.4165653844257651e-01 8.0205578428182808e-02 0.0000000000000000e+00 1
2.3310319640406385e-01 8.5110793523846082e-02 0.0000000000000000e+00 1
2.3323854080797796e-01 9.4986930787439028e-02 0.0000000000000000e+00 1
2.2446784287029115e-01 9.0189789279524910e-02 0.0000000000000000e+00 1
2.2434636461850027e-01 8.0065945757841525e-02 0.0000000000000000e+00 1
2.1548935753112081e-01 8.5231124986149834e-02 0.0000000000000000e+00 1
2.1540375785634652e-01 7.4794261744162815e-02 0.0000000000000000e+00 1
2.0637481316397674e-01 8.0167831904042364e-02 0.0000000000000000e+00 1
2.0627606591840966e-01 6.9517710582660250e-02 0.0000000000000000e+00 1
1.9707117621217130e-01 7.4969026601907990e-02 0.0000000000000000e+00 1
1.9698203086521357e-01 6.4263605075012317e-02 0.0000000000000000e+00 1
1.8767061740770641e-01 6.9721146226514041e-02 0.0000000000000000e+00 1
1.8775967056524900e-01 8.0558758111889020e-02 0.0000000000000000e+00 1
1.7829668973079998e-01 7.5244244070517705e-02 0.0000000000000000e+00 1
1.7822499472645906e-01 6.4351698752362449e-02 0.0000000000000000e+00 1
1.6876149761380022e-01 6.9872594298745941e-02 0.0000000000000000e+00 1
1.6871780509410053e-01 5.8878140125998207e-02 0.0000000000000000e+00 1
1.5920031795470896e-01 6.4475113001253651e-02 0.0000000000000000e+00 1
1.5912434031394143e-01 5.3436582419173588e-02 0.0000000000000000e+00 1
1.4962572451360717e-01 5.9069728409520038e-02 0.0000000000000000e+00 1
1.4971005443656685e-01 7.0032502496743629e-02 0.0000000000000000e+00 1
1.4017856686454513e-01 6.4634713116591747e-02 0.0000000000000000e+00 1
1.4008166552210644e-01 5.3705428300496010e-02 0.0000000000000000e+00 1
1.3067217541071680e-01 5.9248179990303199e-02 0.0000000000000000e+00 1
1.3051666904524847e-01 4.8470889072337008e-02 0.0000000000000000e+00 1
1.2120274931799814e-01 5.3900297093983106e-02 0.0000000000000000e+00 1
1.2105680216196946e-01 4.3310263423185530e-02 0.0000000000000000e+00 1
1.1183200289151857e-01 4.8706159711508330e-02 0.0000000000000000e+00 1
1.1197946568078045e-01 5.9247922215660907e-02 0.0000000000000000e+00 1
1.0269307368457319e-01 5.4015588511423837e-02 0.0000000000000000e+00 1
1.0262733497998164e-01 4.3548226265270919e-02 0.0000000000000000e+00 1
9.3638523872651869e-02 4.8833437756414154e-02 0.0000000000000000e+00 1
9.3546506275462599e-02 3.8446787676461119e-02 0.0000000000000000e+00 1
8.4634652629626647e-02 4.3752640798641974e-02 0.0000000000000000e+00 1
8.4713563044949938e-02 5.4022555633376969e-02 0.0000000000000000e+00 1
7.5801203587607349e-02 4.9008752615985668e-02 0.0000000000000000e+00 1
7.5615460380769939e-02 3.8755611480459709e-02 0.0000000000000000e+00 1
6.6678479457592060e-02 4.4064233046992668e-02 0.0000000000000000e+00 1
6.6548198487995203e-02 3.3679605777166076e-02 0.0000000000000000e+00 1
5.7490432643992104e-02 3.9076226331687072e-02 0.0000000000000000e+00 1
5.7410092895249745e-02 2.8528099429178208e-02 0.0000000000000000e+00 1
4.8362216473970931e-02 3.3976619742180331e-02 0.0000000000000000e+00 1
4.8488846328566981e-02 4.4459573213406399e-02 0.0000000000000000e+00 1
3.9410720287494087e-02 3.9503320622544191e-02 0.0000000000000000e+00 1
3.9016300952212167e-02 2.8925775755328721e-02 0.0000000000000000e+00 1
3.0005810711415844e-02 3.4567293603241213e-02 0.0000000000000000e+00 1
2.9508087945015068e-02 2.3764170298785553e-02 0.0000000000000000e+00 1
2.0338568315748835e-02 2.9584621473012718e-02 0.0000000000000000e+00 1
1.9859027796551222e-02 1.8533125353083133e-02 0.0000000000000000e+00 1
1.0146803159998840e-02 2.4933068498570868e-02 0.0000000000000000e+00 1
9.7850351348094337e-03 1.3576785692256043e-02 0.0000000000000000e+00 1
3.2972331754794116e-05 1.9877538029824431e-02 0.0000000000000000e+00 1
-2.8451499648343329e-04 8.2367275208763656e-03 0.0000000000000000e+00 1
-9.9055593051889049e-03 1.4128868574444982e-02 0.0000000000000000e+00 1
-1.0303187512147191e-02 2.4511208803398902e-03 0.0000000000000000e+00 1
-2.0267116374226426e-02 8.7937080324252265e-03 0.0000000000000000e+00 1
-2.0623013075203325e-02 -3.1319315629924306e-03 0.0000000000000000e+00 1
-3.0752368558260829e-02 3.3541616230719638e-03 0.0000000000000000e+00 1
-3.1341746781411453e-02 -8.3176967784490009e-03 0.0000000000000000e+00 1
3.9807666267976063e-02 4.9837084168602018e-02 0.0000000000000000e+00 1
-4.1317697919702162e-02 -2.2671926686594936e-03 0.0000000000000000e+00 1
-4.2007443930731227e-02 -1.3940005973010395e-02 0.0000000000000000e+00 1
-5.2021719822434448e-02 -7.8975250420116969e-03 0.0000000000000000e+00 1
-5.2804494714087415e-02 -1.9609168650208481e-02 0.0000000000000000e+00 1
7.5597392816109610e-02 5.9163623627117273e-02 0.0000000000000000e+00 1
-6.2890618976668922e-02 -1.3559140131145326e-02 0.0000000000000000e+00 1
-6.3690078606643663e-02 -2.5373313292796486e-02 0.0000000000000000e+00 1
-7.3853461251095334e-02 -1.9358469501005688e-02 0.0000000000000000e+00 1
-7.4391529248811608e-02 -3.1711164091801580e-02 0.0000000000000000e+00 1
2.9211040055226963e-02 1.2743204491936555e-02 0.0000000000000000e+00 1
-8.4843532541226285e-02 -2.5226342605465042e-02 0.0000000000000000e+00 1
-8.5360565924649162e-02 -3.7646594071501907e-02 0.0000000000000000e+00 1
1.1050592589104728e-02 3.5765440969559019e-02 0.0000000000000000e+00 1
-9.5905500553982892e-02 -3.1075297096446616e-02 0.0000000000000000e+00 1
-9.6456626102505230e-02 -4.3505587764663019e-02 0.0000000000000000e+00 1
-1.0701443487104478e-01 -3.6916596374178094e-02 0.0000000000000000e+00 1
-1.0757595738660633e-01 -4.9352088526918761e-02 0.0000000000000000e+00 1
-1.1814372176066514e-01 -4.2727845636812256e-02 0.0000000000000000e+00 1
-1.1869161584371023e-01 -5.5185948922194229e-02 0.0000000000000000e+00 1
6.6332481588813483e-02 2.3077225699771570e-02 0.0000000000000000e+00 1
-1.6321782717493337e-03 -3.7380634138874220e-03 0.0000000000000000e+00 1
-1.2923225593484000e-01 -4.8565280762191437e-02 0.0000000000000000e+00 1
-1.2976058097921006e-01 -6.0972436804693241e-02 0.0000000000000000e+00 1
-1.4031735604047524e-01 -5.4315953653446401e-02 0.0000000000000000e+00 1
-1.4086917526943010e-01 -6.6726209789384525e-02 0.0000000000000000e+00 1
-1.5127803310666194e-01 -6.0122837905280530e-02 0.0000000000000000e+00 1
-1.9759286029428877e-02 2.0728910318148636e-02 0.0000000000000000e+00 1
-4.2049269859323515e-02 -2.5466272386634362e-02 0.0000000000000000e+00 1
-1.5183767004444582e-01 -7.2426178329863242e-02 0.0000000000000000e+00 1
-1.6216360424063964e-01 -6.5875359456749064e-02 0.0000000000000000e+00 1
-1.6263211144185619e-01 -7.8089583996574216e-02 0.0000000000000000e+00 1
-1.7287560853266087e-01 -7.1589764392545094e-02 0.0000000000000000e+00 1
-5.1375989184043701e-02 4.4432051908673761e-03 0.0000000000000000e+00 1
1.4015314429008702e-01 7.5442656866796326e-02 0.0000000000000000e+00 1
-1.7334179352681814e-01 -8.3618269019458388e-02 0.0000000000000000e+00 1
-1.8345937178996558e-01 -7.7260065413432139e-02 0.0000000000000000e+00 1
-1.8395890660284731e-01 -8.9044221623441056e-02 0.0000000000000000e+00 1
-1.9388449712695779e-01 -8.2829247542845819e-02 0.0000000000000000e+00 1
1.0285581227365918e-01 6.4485000917249541e-02 0.0000000000000000e+00 1
-6.4577096067212417e-02 -3.7477758254442613e-02 0.0000000000000000e+00 1
-2.2841675724622628e-02 -1.4503391249558378e-02 0.0000000000000000e+00 1
1.0257254720199963e-01 3.3004212244096783e-02 0.0000000000000000e+00 1
-8.6154522131713346e-02 -4.9676389044605827e-02 0.0000000000000000e+00 1
-7.2641636221829564e-02 -6.6454339187999043e-03 0.0000000000000000e+00 1
-1.9437793273349674e-01 -9.4405463686847269e-02 0.0000000000000000e+00 1
-2.0410400654534455e-01 -8.8317785503985738e-02 0.0000000000000000e+00 1
1.6883063533570619e-01 8.0792757046307770e-02 0.0000000000000000e+00 1
1.3996562386801445e-01 4.2980361961978367e-02 0.0000000000000000e+00 1
-1.3961863239643169e-01 -4.1885946574267745e-02 0.0000000000000000e+00 1
-1.0809533429197485e-01 -6.1829537667358742e-02 0.0000000000000000e+00 1
-9.4740189395747382e-02 -1.8362386874554520e-02 0.0000000000000000e+00 1
-2.0457184673722850e-01 -9.9736418057009030e-02 0.0000000000000000e+00 1
-2.1417362047510080e-01 -9.3714804708328339e-02 0.0000000000000000e+00 1
-2.1458770291229379e-01 -1.0483574594563567e-01 0.0000000000000000e+00 1
-2.2393835907046325e-01 -9.9007789105353780e-02 0.0000000000000000e+00 1
-1.3050098868829652e-01 -7.3339062301270172e-02 0.0000000000000000e+00 1
-1.1709901902957293e-01 -3.0081684263358745e-02 0.0000000000000000e+00 1
-1.7233773645248696e-01 -5.9680158716665543e-02 0.0000000000000000e+00 1
2.0635008531242566e-01 9.0964810988325137e-02 0.0000000000000000e+00 1
-1.5241473711992809e-01 -8.4583550786943448e-02 0.0000000000000000e+00 1
1.6868460954725387e-01 4.7816402752566149e-02 0.0000000000000000e+00 1
4.8521048903721067e-02 5.4663825904359170e-02 0.0000000000000000e+00 1
4.0183793553754593e-02 5.9786253086849643e-02 0.0000000000000000e+00 1
4.8604614777038896e-02 6.4432340274453964e-02 0.0000000000000000e+00 1
4.0466207114130542e-02 6.9303801418637540e-02 0.0000000000000000e+00 1
3.2224108572878753e-02 6.4918019778090238e-02 0.0000000000000000e+00 1
4.8584268612057911e-02 7.3738984494755133e-02 0.0000000000000000e+00 1
3.2538654226217198e-02 7.4176105392114958e-02 0.0000000000000000e+00 1
2.4503184423665385e-02 6.9893127670740907e-02 0.0000000000000000e+00 1
2.4927135659204180e-02 7.8913334223290110e-02 0.0000000000000000e+00 1
1.6814151265523745e-02 7.4768121353933820e-02 0.0000000000000000e+00 1
3.2668285366126371e-02 8.3004517582251885e-02 0.0000000000000000e+00 1
-2.2439283398113760e-01 -1.0984868523142106e-01 0.0000000000000000e+00 1
-2.3353956285428615e-01 -1.0412819073693906e-01 0.0000000000000000e+00 1
-2.0378687595429462e-01 -7.6715318103639143e-02 0.0000000000000000e+00 1
1.1198603174614724e-01 6.9768776332127150e-02 0.0000000000000000e+00 1
1.0287594249330401e-01 7.4913610219593321e-02 0.0000000000000000e+00 1
1.1191384970988887e-01 8.0221743320425296e-02 0.0000000000000000e+00 1
1.0282575004828982e-01 8.5383857959859991e-02 0.0000000000000000e+00 1
9.3857415169078723e-02 7.9967289470964750e-02 0.0000000000000000e+00 1
-1.7403594228407918e-01 -9.5375095609002036e-02 0.0000000000000000e+00 1
1.6344764532276731e-02 6.5447610211794294e-02 0.0000000000000000e+00 1
8.1242504880904391e-03 7.0817549669332236e-02 0.0000000000000000e+00 1
5.7122013190508504e-02 1.7766051981717389e-02 0.0000000000000000e+00 1
6.6331069955991584e-02 1.2169601865526803e-02 0.0000000000000000e+00 1
5.6815465338373325e-02 6.7622022279425599e-03 0.0000000000000000e+00 1
6.6458739636494304e-02 1.0952518463197521e-03 0.0000000000000000e+00 1
5.6635315805143645e-02 -4.4685410418055281e-03 0.0000000000000000e+00 1
7.5660249399418233e-02 6.6539625379048494e-03 0.0000000000000000e+00 1
9.3822417690778759e-02 9.0548501939613488e-02 0.0000000000000000e+00 1
8.4997884495975090e-02 8.5209038665034820e-02 0.0000000000000000e+00 1
-2.3326440186710384e-01 -9.3408075922625233e-02 0.0000000000000000e+00 1
-1.9496666296463833e-01 -1.0582217457606623e-01 0.0000000000000000e+00 1
1.1187149421868905e-01 9.0691698645736729e-02 0.0000000000000000e+00 1
-2.3390107160903895e-01 -1.1477044314677927e-01 0.0000000000000000e+00 1
-2.4278749484113141e-01 -1.0920000769990208e-01 0.0000000000000000e+00 1
-2.4305765309213648e-01 -1.1958123800835414e-01 0.0000000000000000e+00 1
-2.5169669362400221e-01 -1.1406396497707964e-01 0.0000000000000000e+00 1
2.5272318242773952e-02 8.7614587528378321e-02 0.0000000000000000e+00 1
3.2746914384197488e-02 9.1574491935329613e-02 0.0000000000000000e+00 1
7.6069468503982718e-02 -4.6870773442150232e-03 0.0000000000000000e+00 1
8.5219210284379815e-02 1.1009269669099691e-03 0.0000000000000000e+00 1
7.9107935181797744e-03 6.0988109349902765e-02 0.0000000000000000e+00 1
-6.9561524821137931e-04 6.6482649701050667e-02 0.0000000000000000e+00 1
-7.3274491958756258e-04 5.4497219998374341e-02 0.0000000000000000e+00 1
-9.5294028255849504e-03 6.1302821504081235e-02 0.0000000000000000e+00 1
-1.0208573373786013e-02 5.1011782736933228e-02 0.0000000000000000e+00 1
-1.8961855631237916e-02 5.6706491930212759e-02 0.0000000000000000e+00 1
-2.2496370176584171e-01 -1.2045111965657733e-01 0.0000000000000000e+00 1
2.2437905629736676e-01 6.9813363562528222e-02 0.0000000000000000e+00 1
-2.5158811848341917e-01 -1.0396382383127101e-01 0.0000000000000000e+00 1
-2.6026767828044184e-01 -1.0884716554472172e-01 0.0000000000000000e+00 1
-2.6046183537562451e-01 -1.1862545484075304e-01 0.0000000000000000e+00 1
-2.6883576395763337e-01 -1.1346338421197277e-01 0.0000000000000000e+00 1
-2.6907953229522480e-01 -1.2287178625352846e-01 0.0000000000000000e+00 1
-2.7691654071997074e-01 -1.1817738160800513e-01 0.0000000000000000e+00 1
-2.7720123204154895e-01 -1.2706647433430071e-01 0.0000000000000000e+00 1
8.4974033512834793e-02 9.5453496219602071e-02 0.0000000000000000e+00 1
7.6930144890362540e-02 9.0746467885291282e-02 0.0000000000000000e+00 1
2.0627000032986842e-01 5.8813103376150387e-02 0.0000000000000000e+00 1
1.9692430910852596e-01 5.3498188115288510e-02 0.0000000000000000e+00 1
9.3299087785115503e-02 2.7792735586745318e-02 0.0000000000000000e+00 1
1.0252213136251759e-01 2.2265392914096366e-02 0.0000000000000000e+00 1
-1.9377034858607999e-02 4.5418946613318328e-02 0.0000000000000000e+00 1
-2.8946294451969390e-02 5.2202329148072664e-02 0.0000000000000000e+00 1
-2.9165070413212139e-02 4.0188347307059336e-02 0.0000000000000000e+00 1
-3.8975467840269146e-02 4.7212477362298146e-02 0.0000000000000000e+00 1
-3.9305097009952772e-02 3.5405845204070273e-02 0.0000000000000000e+00 1
-4.9149921318881240e-02 4.1873329218371155e-02 0.0000000000000000e+00 1
9.1935025666647786e-03 8.0337313013348149e-02 0.0000000000000000e+00 1
2.2462284134040270e-01 1.0028619451402219e-01 0.0000000000000000e+00 1
-2.8461547895883033e-01 -1.2255490858285052e-01 0.0000000000000000e+00 1
5.6872369367425880e-02 6.9072516202736356e-02 0.0000000000000000e+00 1
5.6572262661933596e-02 7.8248055939579855e-02 0.0000000000000000e+00 1
-4.9658582141623109e-02 2.9717548639978258e-02 0.0000000000000000e+00 1
-5.9930877258876025e-02 3.6634184235395932e-02 0.0000000000000000e+00 1
1.5532488828053125e-02 5.5685173681717694e-02 0.0000000000000000e+00 1
7.6252127518722040e-02 8.0493116412394261e-02 0.0000000000000000e+00 1
-2.6862632333034897e-01 -1.0398718752112079e-01 0.0000000000000000e+00 1
-6.0361256865708937e-02 2.4146543365277245e-02 0.0000000000000000e+00 1
-7.0076174873842795e-02 3.0913089599927435e-02 0.0000000000000000e+00 1
-7.0714369201437102e-02 1.8820327976663276e-02 0.0000000000000000e+00 1
4.0017818639771503e-02 8.7249716165798380e-02 0.0000000000000000e+00 1
3.9991710067059934e-02 9.5745912690697543e-02 0.0000000000000000e+00 1
3.2497580165667228e-02 9.9827583399625663e-02 0.0000000000000000e+00 1
-4.8755130083070669e-02 5.3500840901566191e-02 0.0000000000000000e+00 1
1.4976402634757646e-01 8.0927781182003403e-02 0.0000000000000000e+00 1
1.4009070511719282e-01 8.6128933385318338e-02 0.0000000000000000e+00 1
1.4980782936672551e-01 9.1781297297558725e-02 0.0000000000000000e+00 1
1.4038932586968272e-01 9.7223454151959904e-02 0.0000000000000000e+00 1
-1.0412432310267020e-02 3.9224128457683652e-02 0.0000000000000000e+00 1
-2.6107757895171335e-01 -1.2809668053878143e-01 0.0000000000000000e+00 1
1.5902012587826359e-01 4.2327732694446632e-02 0.0000000000000000e+00 1
1.6844355998480381e-01 3.6997940620451079e-02 0.0000000000000000e+00 1
1.5872159406910624e-01 3.1811659057385457e-02 0.0000000000000000e+00 1
-2.8483084275877635e-01 -1.3112839571234550e-01 0.0000000000000000e+00 1
-2.7758850566821036e-01 -1.3579691035879524e-01 0.0000000000000000e+00 1
1.7830726953097223e-01 4.2232725604684357e-02 0.0000000000000000e+00 1
4.7677190232336644e-02 9.1353920013792791e-02 0.0000000000000000e+00 1
4.7103777539274416e-02 9.9568366844078368e-02 0.0000000000000000e+00 1
5.5095286630976847e-02 9.5488738957813762e-02 0.0000000000000000e+00 1
-2.9191556472558877e-01 -1.2681911061036344e-01 0.0000000000000000e+00 1
-8.6821958289408901e-03 7.2686299582099517e-02 0.0000000000000000e+00 1
2.0630696544737828e-01 4.8202431279117580e-02 0.0000000000000000e+00 1
1.4989060365441115e-01 1.0299706491105169e-01 0.0000000000000000e+00 1
1.5934519136901859e-01 9.7262091803858627e-02 0.0000000000000000e+00 1
-8.0758191148120578e-02 2.5441762594199474e-02 0.0000000000000000e+00 1
-8.1349310527424404e-02 1.3172459949272738e-02 0.0000000000000000e+00 1
9.3660485544864724e-02 1.0063437374286316e-01 0.0000000000000000e+00 1
1.1193120062022255e-01 2.7590619056424005e-02 0.0000000000000000e+00 1
1.1195297913411868e-01 1.6609823497259091e-02 0.0000000000000000e+00 1
1.2157715208293958e-01 2.2010925672490075e-02 0.0000000000000000e+00 1
1.2159812568723680e-01 1.0873322288876268e-02 0.0000000000000000e+00 1
1.1142394639790296e-01 4.8478884945456725e-03 0.0000000000000000e+00 1
1.3140779928305615e-01 1.6472885704094418e-02 0.0000000000000000e+00 1
7.6712989880841076e-02 1.0178074218711931e-01 0.0000000000000000e+00 1
4.7063622554785675e-02 1.3798716422882568e-03 0.0000000000000000e+00 1
4.6597208566469886e-02 -1.0017104335661853e-02 0.0000000000000000e+00 1
5.6368044698585001e-02 -1.5727844689565396e-02 0.0000000000000000e+00 1
4.6101063701953680e-02 -2.1206297306806138e-02 0.0000000000000000e+00 1
3.6250796425482130e-02 -1.5490870144668413e-02 0.0000000000000000e+00 1
3.5668016614537119e-02 -2.6872586408755891e-02 0.0000000000000000e+00 1
2.5789033118813302e-02 -2.1088255428510741e-02 0.0000000000000000e+00 1
2.5512103617655456e-02 -3.3089056474686497e-02 0.0000000000000000e+00 1
1.5270632862914874e-02 -2.6846334103153267e-02 0.0000000000000000e+00 1
1.4992434334839481e-02 -3.8940822000389723e-02 0.0000000000000000e+00 1
4.6428857084369014e-03 -3.2617622613908694e-02 0.0000000000000000e+00 1
4.3436029341681979e-03 -4.4799658838337440e-02 0.0000000000000000e+00 1
-6.0911302967802325e-03 -3.8429090491735325e-02 0.0000000000000000e+00 1
5.5589003815630721e-02 -2.7937705630233636e-02 0.0000000000000000e+00 1
2.6484308286598771e-02 -9.3292051276027237e-03 0.0000000000000000e+00 1
-6.4480378912034559e-03 -5.0598996971552589e-02 0.0000000000000000e+00 1
-1.6909934815336838e-02 -4.4258852502105615e-02 0.0000000000000000e+00 1
-1.7276032121689187e-02 -5.6492853479343290e-02 0.0000000000000000e+00 1
-2.7777689803917038e-02 -5.0129926184476113e-02 0.0000000000000000e+00 1
-2.8097110565831824e-02 -6.2518685467586391e-02 0.0000000000000000e+00 1
-3.8680674914338360e-02 -5.6049702821243746e-02 0.0000000000000000e+00 1
-2.9217953490726611e-01 -1.3475311618773109e-01 0.0000000000000000e+00 1
2.5019074055219270e-01 1.0387412754706811e-01 0.0000000000000000e+00 1
8.5521566581014230e-02 -1.0502573913070946e-02 0.0000000000000000e+00 1
7.6171083262198805e-02 -1.6048345341557770e-02 0.0000000000000000e+00 1
-4.0171050440511252e-02 2.2733506025515132e-02 0.0000000000000000e+00 1
-2.9865343263237776e-01 -1.3091621438081388e-01 0.0000000000000000e+00 1
2.3343262959433833e-01 1.0483490789994759e-01 0.0000000000000000e+00 1
1.7756049064045989e-01 3.2023556790523974e-02 0.0000000000000000e+00 1
-2.9900409897197389e-01 -1.3793104968371869e-01 0.0000000000000000e+00 1
1.9684584159474394e-01 4.2631731241297072e-02 0.0000000000000000e+00 1
8.4747769450721988e-02 6.4178139311474855e-02 0.0000000000000000e+00 1
1.2103261087241193e-01 8.5490414387913730e-02 0.0000000000000000e+00 1
1.2101943346891290e-01 9.6050421147488602e-02 0.0000000000000000e+00 1
1.1174270752978971e-01 1.0117006566652824e-01 0.0000000000000000e+00 1
2.5821562801953912e-01 1.0817103367453479e-01 0.0000000000000000e+00 1
2.1556044296641796e-01 5.4013038608886656e-02 0.0000000000000000e+00 1
2.5014268953601754e-01 7.5220788937108388e-02 0.0000000000000000e+00 1
2.4168253414054064e-01 7.0368825566928847e-02 0.0000000000000000e+00 1
-3.0471847340387326e-01 -1.3464062874120400e-01 0.0000000000000000e+00 1
-8.0961534924857137e-02 3.6951684231132660e-02 0.0000000000000000e+00 1
2.8107099844809325e-01 1.1063316983861875e-01 0.0000000000000000e+00 1
-9.1683276003779915e-02 1.9571235117012423e-02 0.0000000000000000e+00 1
-9.2430812570409693e-02 7.3814087109856383e-03 0.0000000000000000e+00 1
-1.0287760878038885e-01 1.3900400769105169e-02 0.0000000000000000e+00 1
-1.0363698021333474e-01 1.5778522167130594e-03 0.0000000000000000e+00 1
9.5460997594822530e-02 -4.5443476108859120e-03 0.0000000000000000e+00 1
-2.8079108774588260e-02 6.2837692133552447e-02 0.0000000000000000e+00 1
2.2494640358012252e-01 1.1012569188972821e-01 0.0000000000000000e+00 1
2.1589017031778662e-01 1.0556453236064846e-01 0.0000000000000000e+00 1
-2.8476864820909215e-01 -1.1423581686344438e-01 0.0000000000000000e+00 1
1.2108887116450165e-01 1.0639717869764327e-01 0.0000000000000000e+00 1
-5.7113978823841519e-03 -2.6226619507163481e-02 0.0000000000000000e+00 1
-3.0513301648436009e-01 -1.4064252319369919e-01 0.0000000000000000e+00 1
9.3104210302240822e-02 1.7105706080453066e-02 0.0000000000000000e+00 1
8.4211208559375278e-02 2.2868196616145770e-02 0.0000000000000000e+00 1
-3.9264015498562878e-02 -6.8001249982821796e-02 0.0000000000000000e+00 1
-4.9377180217000695e-02 -6.2423234570485993e-02 0.0000000000000000e+00 1
-5.0095246656807278e-02 -7.4158535448700824e-02 0.0000000000000000e+00 1
-6.0270012357026989e-02 -6.8472963354555924e-02 0.0000000000000000e+00 1
1.3094724721052262e-01 2.7350869664772182e-02 0.0000000000000000e+00 1
1.4048588064355122e-01 2.2037981005633690e-02 0.0000000000000000e+00 1
2.0656213880126056e-01 3.8128810142874330e-02 0.0000000000000000e+00 1
-2.7140568018150128e-02 -3.8330656365826728e-02 0.0000000000000000e+00 1
-5.0559008511164939e-02 -5.0259519589569424e-02 0.0000000000000000e+00 1
1.3124112798308002e-01 5.3623961164058209e-03 0.0000000000000000e+00 1
2.5575507848105323e-02 -4.4210845248036590e-02 0.0000000000000000e+00 1
-1.9267226467693150e-02 -6.9846799604793480e-02 0.0000000000000000e+00 1
8.5128994206203970e-02 -2.0565835258798862e-02 0.0000000000000000e+00 1
5.4826581029537622e-02 1.0435562826136842e-01 0.0000000000000000e+00 1
6.2466484132423644e-02 9.9638034799300557e-02 0.0000000000000000e+00 1
6.2740964217975065e-02 9.1250336613884375e-02 0.0000000000000000e+00 1
6.3041589221834837e-02 7.3769246967002350e-02 0.0000000000000000e+00 1
-1.1412056291202273e-01 8.0463003264627190e-03 0.0000000000000000e+00 1
-1.1491952654632157e-01 -4.3112387524872030e-03 0.0000000000000000e+00 1
-1.2562021020562608e-01 2.4894574109150841e-03 0.0000000000000000e+00 1
-1.2630910636622544e-01 -1.0180830607423160e-02 0.0000000000000000e+00 1
1.5937632712899147e-01 1.0897147690544480e-01 0.0000000000000000e+00 1
1.6886429053959864e-01 1.0276802394963991e-01 0.0000000000000000e+00 1
1.6890609948097896e-01 1.1357596242470409e-01 0.0000000000000000e+00 1
1.7808486219155331e-01 1.0754573781540742e-01 0.0000000000000000e+00 1
1.7829891933672207e-01 9.7056752123065623e-02 0.0000000000000000e+00 1
1.8773951847558726e-01 1.0242948250363844e-01 0.0000000000000000e+00 1
3.7949428484185393e-03 -5.7332836561706631e-02 0.0000000000000000e+00 1
1.4990453258467359e-01 1.1423668884327885e-01 0.0000000000000000e+00 1
-3.1030468866290595e-01 -1.3775098657206197e-01 0.0000000000000000e+00 1
-3.1048411923690611e-01 -1.4252049847333531e-01 0.0000000000000000e+00 1
6.6792650011556404e-02 6.5738562991361285e-02 0.0000000000000000e+00 1
-6.0896734828999419e-02 -8.0387957971711846e-02 0.0000000000000000e+00 1
-7.1070744826827625e-02 -7.4305099662357640e-02 0.0000000000000000e+00 1
-7.1572575814403086e-02 -8.6295414567419057e-02 0.0000000000000000e+00 1
-8.0756336430483674e-02 -8.0230136382855977e-02 0.0000000000000000e+00 1
-7.1190017984528731e-02 -6.1413762322646254e-02 0.0000000000000000e+00 1
2.3375476390945327e-01 1.1467546266638490e-01 0.0000000000000000e+00 1
2.8122436125787903e-01 8.5158293902805174e-02 0.0000000000000000e+00 1
6.2436420768649595e-02 1.0892550338066527e-01 0.0000000000000000e+00 1
4.9647022793435518e-02 1.1143164227439194e-01 0.0000000000000000e+00 1
1.4051249877768604e-01 1.0745137877336702e-01 0.0000000000000000e+00 1
7.6524561596437016e-02 6.9651974105620365e-02 0.0000000000000000e+00 1
-7.1699451582427562e-02 6.2483356841133942e-03 0.0000000000000000e+00 1
2.5043164419667946e-01 1.1319512777718824e-01 0.0000000000000000e+00 1
2.5805698703963104e-01 1.1713137024940555e-01 0.0000000000000000e+00 1
2.2478395003943205e-01 1.2071919189746308e-01 0.0000000000000000e+00 1
-2.9162676584151814e-01 -1.1907139981310338e-01 0.0000000000000000e+00 1
-2.9211299921329503e-01 -1.1224511200490024e-01 0.0000000000000000e+00 1
5.7520375524581696e-02 4.9361236611534236e-02 0.0000000000000000e+00 1
1.8693239070610912e-01 1.1429306284819168e-01 0.0000000000000000e+00 1
1.9723037489554807e-01 1.0784803280967177e-01 0.0000000000000000e+00 1
1.9729402614555583e-01 1.1864009314544230e-01 0.0000000000000000e+00 1
2.0735507554236363e-01 1.1354287725101772e-01 0.0000000000000000e+00 1
1.7579715188039965e-02 8.3684055734114596e-02 0.0000000000000000e+00 1
1.8398247835956699e-02 9.2406444370107643e-02 0.0000000000000000e+00 1
2.5511755014862782e-02 9.5887224073180455e-02 0.0000000000000000e+00 1
1.9379595210853202e-02 1.0084604739360677e-01 0.0000000000000000e+00 1
2.6003632308145175e-02 1.0408535493924133e-01 0.0000000000000000e+00 1
3.2344662791043283e-02 1.0729859047986741e-01 0.0000000000000000e+00 1
3.9124939225650052e-02 1.0372999872416692e-01 0.0000000000000000e+00 1
1.9707299266307901e-01 9.6816276921620217e-02 0.0000000000000000e+00 1
-9.3574540218864299e-02 -5.3259001933875574e-03 0.0000000000000000e+00 1
8.5037348646995040e-02 7.4810229604145434e-02 0.0000000000000000e+00 1
-2.7702779501299568e-01 -1.0930707145383137e-01 0.0000000000000000e+00 1
3.1708730969298216e-02 5.5217878211280630e-02 0.0000000000000000e+00 1
2.7827536259266067e-01 1.1816216115545768e-01 0.0000000000000000e+00 1
2.5024118866491057e-01 6.5534351407577546e-02 0.0000000000000000e+00 1
-2.3445124732172365e-01 -1.2501233266799244e-01 0.0000000000000000e+00 1
-2.4391444187830960e-01 -1.2950791026221684e-01 0.0000000000000000e+00 1
-2.2616992672947206e-01 -1.3005685092980238e-01 0.0000000000000000e+00 1
-2.1617614515204642e-01 -1.2595298979436137e-01 0.0000000000000000e+00 1
-2.1774669755801876e-01 -1.3674423767883601e-01 0.0000000000000000e+00 1
-2.6018672728948627e-01 -9.9083944701246540e-02 0.0000000000000000e+00 1
-2.5157079280493033e-01 -9.3797298092854878e-02 0.0000000000000000e+00 1
-2.6989761531254486e-01 -9.5125469534741602e-02 0.0000000000000000e+00 1
-2.0507130180658173e-01 -1.1087897815403390e-01 0.0000000000000000e+00 1
-1.9555339517542678e-01 -1.1706335067465352e-01 0.0000000000000000e+00 1
-1.8543613222370253e-01 -1.1193723863036414e-01 0.0000000000000000e+00 1
-1.8595836759230910e-01 -1.2294619604135747e-01 0.0000000000000000e+00 1
-1.7612559710184350e-01 -1.1731196449896569e-01 0.0000000000000000e+00 1
-1.9613601809085482e-01 -1.2824776276354746e-01 0.0000000000000000e+00 1
2.4189329138229260e-01 6.0343517882388176e-02 0.0000000000000000e+00 1
2.5860934732380902e-01 7.0446673226502013e-02 0.0000000000000000e+00 1
-2.8538135418330035e-01 -1.3932794889408337e-01 0.0000000000000000e+00 1
-2.7818052288158646e-01 -1.4384740482105288e-01 0.0000000000000000e+00 1
-2.6988738327310946e-01 -1.4061667300352676e-01 0.0000000000000000e+00 1
-1.3704988141446642e-01 -3.3869180965654332e-03 0.0000000000000000e+00 1
-1.3774667301301363e-01 -1.6093065270744607e-02 0.0000000000000000e+00 1
-1.4839050867420051e-01 -9.1021761654310057e-03 0.0000000000000000e+00 1
-1.4923431133975459e-01 -2.2142714295373716e-02 0.0000000000000000e+00 1
-1.5946556702199163e-01 -1.5012281188932853e-02 0.0000000000000000e+00 1
-1.6036595680282104e-01 -2.8136815984614309e-02 0.0000000000000000e+00 1
-2.9883722860240036e-01 -1.2311275721491631e-01 0.0000000000000000e+00 1
6.6534911610233921e-02 5.4497885747044304e-02 0.0000000000000000e+00 1
-2.9576928724669005e-01 -1.4906420999673289e-01 0.0000000000000000e+00 1
-6.1699409706267319e-02 6.2063904425996304e-02 0.0000000000000000e+00 1
-6.0710120598200204e-02 4.9458001339427467e-02 0.0000000000000000e+00 1
-5.0386212922233900e-02 6.5841046220313795e-02 0.0000000000000000e+00 1
-3.8681992690216847e-02 6.0916525962590763e-02 0.0000000000000000e+00 1
-1.1604184526251138e-01 -1.7060066618881344e-02 0.0000000000000000e+00 1
1.3056651849002321e-01 6.9907637628864289e-02 0.0000000000000000e+00 1
-2.4255021215016739e-01 -9.8754906467413417e-02 0.0000000000000000e+00 1
-2.4255517418021988e-01 -8.8064498608180483e-02 0.0000000000000000e+00 1
-2.3320865666929635e-01 -8.2556004680314973e-02 0.0000000000000000e+00 1
-2.4325335466748729e-01 -7.7387384705460388e-02 0.0000000000000000e+00 1
-2.3398923189387180e-01 -7.1647490027285682e-02 0.0000000000000000e+00 1
-2.2332544184366016e-01 -7.6359406382718362e-02 0.0000000000000000e+00 1
-2.2498331589578249e-01 -6.4374965973364423e-02 0.0000000000000000e+00 1
-2.2810559249392148e-01 -5.2820018703040254e-02 0.0000000000000000e+00 1
-2.1610162215076031e-01 -5.6322384882944089e-02 0.0000000000000000e+00 1
-2.5205396419087839e-01 -8.3280780988005704e-02 0.0000000000000000e+00 1
-2.1210401276815638e-01 -6.8064182671229184e-02 0.0000000000000000e+00 1
-2.0423370944376004e-01 -5.8491718354798904e-02 0.0000000000000000e+00 1
-1.6323557048622703e-01 -9.0046644014699362e-02 0.0000000000000000e+00 1
-1.5304970807095014e-01 -9.6548229910083772e-02 0.0000000000000000e+00 1
-1.4230961793942171e-01 -9.1070059537081846e-02 0.0000000000000000e+00 1
-1.4295635002695933e-01 -1.0286313274839892e-01 0.0000000000000000e+00 1
-1.3172147593317304e-01 -9.7516663609428136e-02 0.0000000000000000e+00 1
-1.5385323510405594e-01 -1.0795692654985845e-01 0.0000000000000000e+00 1
-1.6393808296312579e-01 -1.0184724771000477e-01 0.0000000000000000e+00 1
-1.6541657259033929e-01 -1.1227926885015559e-01 0.0000000000000000e+00 1
8.5640027411843844e-02 1.0401278116225600e-01 0.0000000000000000e+00 1
1.4476449763187898e-04 9.9591050964728464e-02 0.0000000000000000e+00 1
5.4108255978375592e-03 9.4865791062208604e-02 0.0000000000000000e+00 1
1.3038838987365958e-01 9.0969467559289363e-02 0.0000000000000000e+00 1
9.3748845996265262e-02 5.9149423631553837e-02 0.0000000000000000e+00 1
-1.1922927937838085e-01 -6.7614657379233514e-02 0.0000000000000000e+00 1
-1.0868082870779971e-01 -7.4248611903822800e-02 0.0000000000000000e+00 1
-9.7833157283109415e-02 -6.8036507011427383e-02 0.0000000000000000e+00 1
-9.9003860545232317e-02 -8.0312417482819920e-02 0.0000000000000000e+00 1
-1.0928811602584056e-01 -8.6509198305043736e-02 0.0000000000000000e+00 1
-1.0002021110763618e-01 -9.2250066780269702e-02 0.0000000000000000e+00 1
-1.0956466849104757e-01 -9.8905638915514821e-02 0.0000000000000000e+00 1
-1.2040696158226262e-01 -9.2169823230151424e-02 0.0000000000000000e+00 1
-1.2035550203431966e-01 -1.0453552876345892e-01 0.0000000000000000e+00 1
1.8776228272293288e-01 9.1429804508781909e-02 0.0000000000000000e+00 1
3.0538296427380263e-01 1.0742602750790688e-01 0.0000000000000000e+00 1
3.0068189954807445e-01 1.1031506076340801e-01 0.0000000000000000e+00 1
3.1259588785818077e-01 1.0950722774899735e-01 0.0000000000000000e+00 1
2.9461236262067675e-01 1.0940156341355693e-01 0.0000000000000000e+00 1
3.0983270344464402e-02 4.5071280878092625e-02 0.0000000000000000e+00 1
2.1515350395249530e-02 3.9984299628892765e-02 0.0000000000000000e+00 1
2.6601659348780710e-01 1.0338855149898656e-01 0.0000000000000000e+00 1
-1.1995326260978634e-01 -7.9905367343901204e-02 0.0000000000000000e+00 1
1.1342352140373479e-01 -2.0305755481936437e-02 0.0000000000000000e+00 1
1.1366781184289595e-01 -8.1046578210349166e-03 0.0000000000000000e+00 1
4.0401098053626232e-02 7.8348360123641866e-02 0.0000000000000000e+00 1
-2.0610945200054046e-01 -1.2140979041787721e-01 0.0000000000000000e+00 1
-2.5225707462042191e-01 -1.2396734045520057e-01 0.0000000000000000e+00 1
-2.5333817338422687e-01 -1.3311924430447375e-01 0.0000000000000000e+00 1
-2.4533908231441393e-01 -1.3920443178372913e-01 0.0000000000000000e+00 1
2.6705534042458945e-01 6.5957833381972295e-02 0.0000000000000000e+00 1
2.6659081191640699e-01 7.5302551447866781e-02 0.0000000000000000e+00 1
-3.2889373961940568e-02 8.0183639567420875e-02 0.0000000000000000e+00 1
-2.4935611470331367e-02 7.4512128600173616e-02 0.0000000000000000e+00 1
-1.5408654753049797e-02 9.0138294485196668e-02 0.0000000000000000e+00 1
-6.9232562829492361e-03 8.5244769730997191e-02 0.0000000000000000e+00 1
-1.5999763766563490e-02 7.9466605511110178e-02 0.0000000000000000e+00 1
5.2842672313398241e-04 7.7046540215430434e-02 0.0000000000000000e+00 1
6.8650734973416366e-02 -4.2665334343274908e-02 0.0000000000000000e+00 1
6.7934415107044635e-02 -3.2260488355598436e-02 0.0000000000000000e+00 1
5.7380214417056492e-02 -4.7933383737623292e-02 0.0000000000000000e+00 1
4.7659921303559713e-02 -4.0543496222009819e-02 0.0000000000000000e+00 1
-1.3880153960255809e-01 -2.9035417278926796e-02 0.0000000000000000e+00 1
1.2122841215339311e-01 6.4520736451516902e-02 0.0000000000000000e+00 1
-9.2198556651786528e-02 4.2764465590818125e-02 0.0000000000000000e+00 1
3.1125067948872655e-03 8.6452091490507962e-02 0.0000000000000000e+00 1
4.9971169661366570e-03 -2.0476094998422009e-02 0.0000000000000000e+00 1
1.5901123561543461e-02 -1.5254637406871266e-02 0.0000000000000000e+00 1
1.7631167438299886e-02 -3.6639265531004904e-03 0.0000000000000000e+00 1
1.3061699190167947e-01 1.0180645159219226e-01 0.0000000000000000e+00 1
1.3098266334773842e-01 1.1302884277328225e-01 0.0000000000000000e+00 1
2.8899590563317662e-01 8.1403125096633569e-02 0.0000000000000000e+00 1
6.5960922741965605e-02 1.1762115828860982e-01 0.0000000000000000e+00 1
1.7639853369119740e-01 1.1906412114443895e-02 0.0000000000000000e+00 1
1.6671240084148867e-01 1.7085332670682865e-02 0.0000000000000000e+00 1
1.5765142166803342e-01 1.1967467770513567e-02 0.0000000000000000e+00 1
3.4116696071756228e-02 -5.7595725225410996e-02 0.0000000000000000e+00 1
1.3667408857372859e-01 -9.4246109967296345e-03 0.0000000000000000e+00 1
-1.4537876480199061e-01 -1.1431862112719032e-01 0.0000000000000000e+00 1
-1.8911639676034192e-01 -2.3608492313650767e-02 0.0000000000000000e+00 1
-1.7773179717468413e-01 -2.8892689924079121e-02 0.0000000000000000e+00 1
-1.8771484388893148e-01 -3.6287512061435011e-02 0.0000000000000000e+00 1
-1.7629770474737241e-01 -4.2230458487389953e-02 0.0000000000000000e+00 1
-1.8894743411406567e-01 -4.8469341575386182e-02 0.0000000000000000e+00 1
-1.9861338733891792e-01 -4.2615367320570467e-02 0.0000000000000000e+00 1
-1.9949711373370882e-01 -3.0879056724278209e-02 0.0000000000000000e+00 1
-1.6239378507857470e-02 -3.2564257881454381e-02 0.0000000000000000e+00 1
-9.7100924991012721e-02 -5.5879067707364942e-02 0.0000000000000000e+00 1
-8.5379519237891943e-02 -6.1496752892166988e-02 0.0000000000000000e+00 1
-1.8272410832611241e-01 -6.5973019381730100e-02 0.0000000000000000e+00 1
2.5074333224518569e-01 5.5601018891273779e-02 0.0000000000000000e+00 1
2.3344521938942614e-01 5.5014327360751521e-02 0.0000000000000000e+00 1
-1.1350104051947674e-01 2.9412194831461774e-02 0.0000000000000000e+00 1
3.7189153716041826e-02 -3.9555206495977442e-03 0.0000000000000000e+00 1
1.7829421720070920e-01 8.6131289917873541e-02 0.0000000000000000e+00 1
-7.5262970241504273e-02 -4.3511403271962762e-02 0.0000000000000000e+00 1
-6.4180012996788979e-02 -5.0860041770096190e-02 0.0000000000000000e+00 1
-1.3440000936223442e-01 1.2196703144085401e-02 0.0000000000000000e+00 1
-1.3110136320047877e-01 -8.5522152677081464e-02 0.0000000000000000e+00 1
-9.6222755620483016e-03 2.6018304627928642e-02 0.0000000000000000e+00 1
-1.9335104985148958e-02 3.2636045878301302e-02 0.0000000000000000e+00 1
-4.0622541274567197e-04 3.3544180671334127e-02 0.0000000000000000e+00 1
4.4437707291616708e-03 4.4249317828564123e-02 0.0000000000000000e+00 1
9.3846812311134162e-02 6.9419641712637481e-02 0.0000000000000000e+00 1
1.1021520350557269e-02 -6.7568213330175098e-02 0.0000000000000000e+00 1
2.7407130848263250e-01 8.0275646111610421e-02 0.0000000000000000e+00 1
-3.8228280905853736e-02 -4.4366787491754205e-02 0.0000000000000000e+00 1
-4.7553246451778108e-02 -3.7485452758041680e-02 0.0000000000000000e+00 1
1.5925618840601535e-01 7.5405038430323604e-02 0.0000000000000000e+00 1
1.0415606561697445e-01 -1.2974026031961511e-02 0.0000000000000000e+00 1
-3.0494500258606483e-01 -1.2805469679410122e-01 0.0000000000000000e+00 1
1.5707248753168332e-01 9.6904520757696037e-04 0.0000000000000000e+00 1
1.0268640839182244e-01 9.5746981911528986e-02 0.0000000000000000e+00 1
1.0220688450384370e-01 1.0564558111051407e-01 0.0000000000000000e+00 1
1.1119548530652006e-01 1.1214760314174027e-01 0.0000000000000000e+00 1
1.4075647334369246e-01 1.1350418170817467e-02 0.0000000000000000e+00 1
1.7820694290786096e-01 5.3393431198814671e-02 0.0000000000000000e+00 1
-1.5079961577613249e-01 -4.7747680794125419e-02 0.0000000000000000e+00 1
2.7470816165991191e-01 7.1068474449391378e-02 0.0000000000000000e+00 1
1.8658870297562963e-01 1.6987609087352834e-02 0.0000000000000000e+00 1
8.5230085424525662e-02 1.1952695983929394e-01 0.0000000000000000e+00 1
-4.0779053791204757e-02 9.8681797058726047e-03 0.0000000000000000e+00 1
-5.0617089675865180e-02 1.7222795684036406e-02 0.0000000000000000e+00 1
-3.0677215819980216e-02 1.5997917257857579e-02 0.0000000000000000e+00 1
-1.9316761595784110e-01 -7.1701627522213388e-02 0.0000000000000000e+00 1
2.1540657519563658e-01 6.4430709959018270e-02 0.0000000000000000e+00 1
-1.8464981018326002e-01 -1.0056379908922003e-01 0.0000000000000000e+00 1
1.6881710551284532e-01 9.1705423646679260e-02 0.0000000000000000e+00 1
1.5928738308884632e-01 8.6320766065850499e-02 0.0000000000000000e+00 1
-1.6146302701185106e-01 -5.4059129778239519e-02 0.0000000000000000e+00 1
-1.6272157532091894e-01 -4.1661202251076390e-02 0.0000000000000000e+00 1
-2.7442962591876795e-02 -2.6545373984514432e-02 0.0000000000000000e+00 1
2.5838820219740311e-01 7.9972075182345795e-02 0.0000000000000000e+00 1
-3.0744633970192704e-02 -7.4886668090328970e-02 0.0000000000000000e+00 1
1.0534481008521993e-01 1.2135047282193152e-01 0.0000000000000000e+00 1
-2.7813942234453803e-01 -1.0107933575798067e-01 0.0000000000000000e+00 1
1.4949812390104503e-01 3.7289748076908935e-02 0.0000000000000000e+00 1
-4.5511986810072791e-02 -9.0467419138924435e-02 0.0000000000000000e+00 1
1.3884223498384488e-02 1.0592981835824498e-01 0.0000000000000000e+00 1
-2.4724760035807156e-01 -6.7237990972241229e-02 0.0000000000000000e+00 1
4.7591680276914336e-02 1.2513821182525297e-02 0.0000000000000000e+00 1
-7.0703595512540088e-02 -9.8561889760798244e-02 0.0000000000000000e+00 1
-9.3295866217777773e-02 -1.0795804004850355e-01 0.0000000000000000e+00 1
-2.1521685626974024e-01 -1.1556288486665110e-01 0.0000000000000000e+00 1
1.9706517010663907e-01 8.5817751506094428e-02 0.0000000000000000e+00 1
1.4955260066616299e-01 4.8134930310420591e-02 0.0000000000000000e+00 1
-1.8302911810881492e-01 -1.3302304189172379e-01 0.0000000000000000e+00 1
-2.2360942080052304e-01 -8.7925033466709435e-02 0.0000000000000000e+00 1
-1.4150559204366681e-01 -7.8944535570270785e-02 0.0000000000000000e+00 1
1.8762044374488868e-01 5.8921141190245462e-02 0.0000000000000000e+00 1
-1.5996756438292917e-01 -1.2845126205560065e-01 0.0000000000000000e+00 1
1.5438022630989272e-02 -5.2797937779196800e-02 0.0000000000000000e+00 1
2.3380288936033822e-01 4.4758956447575333e-02 0.0000000000000000e+00 1
-1.2343879137920889e-02 -9.6585306929200514e-03 0.0000000000000000e+00 1
-3.0033558884026257e-01 -1.4409312583427686e-01 0.0000000000000000e+00 1
-8.1638329230506040e-02 4.9011773209269638e-02 0.0000000000000000e+00 1
-2.1351722973117992e-01 -8.1849421806101691e-02 0.0000000000000000e+00 1
8.4472717100428252e-02 3.3378434451548422e-02 0.0000000000000000e+00 1
-2.5129248451417763e-01 -1.4690274131965922e-01 0.0000000000000000e+00 1
-1.7493368955772504e-01 -1.0655243573128537e-01 0.0000000000000000e+00 1
5.7474328365759622e-02 5.9627727955248205e-02 0.0000000000000000e+00 1
2.3311609767120303e-01 7.5258414910317997e-02 0.0000000000000000e+00 1
-1.5043769610187888e-01 -3.5286074259382294e-02 0.0000000000000000e+00 1
6.6248768163581967e-02 -1.0037286886103572e-02 0.0000000000000000e+00 1
1.8761344010938308e-01 3.7495633327995007e-02 0.0000000000000000e+00 1
2.1556290497329389e-01 9.5654789416146094e-02 0.0000000000000000e+00 1
1.2113381071424290e-01 7.5056900523297734e-02 0.0000000000000000e+00 1
-3.0974382161342334e-01 -1.3205086689611081e-01 0.0000000000000000e+00 1
4.8016402897401139e-02 2.3346513009089801e-02 0.0000000000000000e+00 1
1.0221714268250533e-01 1.1919679456579227e-02 0.0000000000000000e+00 1
-6.2039248027686685e-02 -1.4796647337750788e-03 0.0000000000000000e+00 1
-3.0843122660138989e-01 -1.4979195459607875e-01 0.0000000000000000e+00 1
2.0603113534567699e-01 1.0238239771595015e-01 0.0000000000000000e+00 1
2.4200819227570849e-01 9.9277439478852106e-02 0.0000000000000000e+00 1
2.4213957437625414e-01 1.0936262109176637e-01 0.0000000000000000e+00 1
1.1186836534796973e-01 3.8128198651275313e-02 0.0000000000000000e+00 1
2.8766082376638447e-01 9.0315154098892167e-02 0.0000000000000000e+00 1
2.8566393315021044e-01 1.1724326955133030e-01 0.0000000000000000e+00 1
4.8131354363453886e-02 8.2617035688293303e-02 0.0000000000000000e+00 1
-2.1904218948909243e-01 -4.5232830775833614e-02 0.0000000000000000e+00 1
3.0370409057768133e-01 9.0134456031680202e-02 0.0000000000000000e+00 1
1.8758637449939577e-01 4.8028808446387510e-02 0.0000000000000000e+00 1
1.8954819329289746e-02 7.8395186376790903e-03 0.0000000000000000e+00 1
-1.7792542745926818e-02 6.7323145259128178e-02 0.0000000000000000e+00 1
-2.6944570050482375e-01 -1.3192106982065854e-01 0.0000000000000000e+00 1
9.2160990701693701e-02 1.1075155380553099e-01 0.0000000000000000e+00 1
-2.5508726028912826e-01 -7.3804983598305271e-02 0.0000000000000000e+00 1
-2.6183997079913585e-01 -1.3707789443501886e-01 0.0000000000000000e+00 1
2.3317772111437329e-01 6.5071871860439348e-02 0.0000000000000000e+00 1
1.3056086322626956e-01 8.0499335058579938e-02 0.0000000000000000e+00 1
2.2446314564325365e-01 5.9678034088408494e-02 0.0000000000000000e+00 1
-1.1603045539756326e-01 -1.1556569465815539e-01 0.0000000000000000e+00 1
-2.9735470783039029e-02 2.7948428665158703e-02 0.0000000000000000e+00 1
-3.0715142810617641e-01 -1.2176985072241844e-01 0.0000000000000000e+00 1
1.2153853912544636e-01 -3.0482494139911180e-04 0.0000000000000000e+00 1
2.6638352702191642e-02 1.1142840445003087e-01 0.0000000000000000e+00 1
-1.2834687962248603e-01 -3.5789359547038990e-02 0.0000000000000000e+00 1
1.2622148770029892e-01 1.2258383411518470e-01 0.0000000000000000e+00 1
-1.5781171186042034e-01 -7.9020141193771856e-04 0.0000000000000000e+00 1
-8.2624354603100469e-02 2.6156903881831940e-04 0.0000000000000000e+00 1
-2.9308083495006843e-01 -1.4187129455598246e-01 0.0000000000000000e+00 1
7.5357340636357392e-02 2.8233716359070220e-02 0.0000000000000000e+00 1
2.7345439851293163e-01 1.0659634774136269e-01 0.0000000000000000e+00 1
2.1580708064832382e-01 3.3444932584403543e-02 0.0000000000000000e+00 1
3.8605406210530095e-02 1.8101776436387655e-02 0.0000000000000000e+00 1
1.1010972120341769e-02 8.9410609176050093e-02 0.0000000000000000e+00 1
-8.1059809871633262e-02 -9.2354056119716421e-02 0.0000000000000000e+00 1
3.1475301848852111e-01 1.0149027338091987e-01 0.0000000000000000e+00 1
3.6028901692238019e-02 -3.7373121641319236e-02 0.0000000000000000e+00 1
-8.3712952371977206e-02 -1.2442827342399066e-02 0.0000000000000000e+00 1
-1.2739084381606125e-01 -2.3040070597728935e-02 0.0000000000000000e+00 1
-7.0492289694432192e-02 4.2902358848455120e-02 0.0000000000000000e+00 1
2.2468670707261462e-01 4.9403588966770579e-02 0.0000000000000000e+00 1
2.3998610913381971e-02 6.0296439236186612e-02 0.0000000000000000e+00 1
1.2119030423212657e-01 3.2609711207166305e-02 0.0000000000000000e+00 1
-1.0485950825115345e-01 -1.1390508446188823e-02 0.0000000000000000e+00 1
-1.0594341622733545e-01 -2.4147756612268020e-02 0.0000000000000000e+00 1
9.0180410657951404e-02 -3.0011196171248703e-02 0.0000000000000000e+00 1
-8.3964487137894693e-03 -6.4117853735030539e-02 0.0000000000000000e+00 1
7.1599446741963502e-02 1.1051443001668203e-01 0.0000000000000000e+00 1
-1.9287212198838932e-01 -6.0135164683494134e-02 0.0000000000000000e+00 1
-2.6132091811243696e-01 -8.9690917225097921e-02 0.0000000000000000e+00 1
2.6592599743653939e-01 1.1175743282573466e-01 0.0000000000000000e+00 1
-1.3319777529278246e-01 -1.0870739701308962e-01 0.0000000000000000e+00 1
1.3064053444260426e-01 3.7908845616419010e-02 0.0000000000000000e+00 1
1.7075637800514720e-01 1.2352658460891709e-01 0.0000000000000000e+00 1
3.8018494023333738e-02 7.1983605484897050e-03 0.0000000000000000e+00 1
-3.1376166449847154e-01 -1.4066801471791524e-01 0.0000000000000000e+00 1
-2.3551184954720675e-01 -1.3413244020727721e-01 0.0000000000000000e+00 1
-6.1134567422861510e-02 1.1566923861197105e-02 0.0000000000000000e+00 1
7.5146646154057112e-02 1.7631367193671702e-02 0.0000000000000000e+00 1
-3.1442059535316341e-01 -1.3076662253682006e-01 0.0000000000000000e+00 1
5.5196807223510856e-02 8.7114126125646063e-02 0.0000000000000000e+00 1
2.1564266498391538e-01 4.3740940198468477e-02 0.0000000000000000e+00 1
-9.1336058601953013e-02 3.0970618024946318e-02 0.0000000000000000e+00 1
-1.6896974221509770e-01 -8.0255902100602218e-03 0.0000000000000000e+00 1
-2.7110069286452287e-01 -1.4870949613591353e-01 0.0000000000000000e+00 1
-2.2492597587314447e-01 -1.4375359704603280e-01 0.0000000000000000e+00 1
2.7914830474798483e-02 1.8054052246340658e-03 0.0000000000000000e+00 1
1.4022160787887405e-01 3.2506462950624544e-02 0.0000000000000000e+00 1
8.4482623405296775e-02 1.2092685271824319e-02 0.0000000000000000e+00 1
6.5043854557666300e-02 8.1950049251712676e-02 0.0000000000000000e+00 1
2.0639042382636844e-01 2.8033580462201779e-02 0.0000000000000000e+00 1
-1.1579639393918926e-02 -7.8325579715084998e-02 0.0000000000000000e+00 1
-1.9256111434693118e-01 -1.3783605815035610e-01 0.0000000000000000e+00 1
-2.7264005290350313e-01 -8.6599791605189005e-02 0.0000000000000000e+00 1
-2.9874711659394326e-01 -1.1100579148913807e-01 0.0000000000000000e+00 1
2.2795653951181830e-02 5.0092567770354236e-02 0.0000000000000000e+00 1
1.9734041990510864e-01 3.2834230289885760e-02 0.0000000000000000e+00 1
8.0334168926069864e-03 5.1794152698062638e-02 0.0000000000000000e+00 1
1.4930874087815277e-01 2.7246458977992053e-02 0.0000000000000000e+00 1
-3.3366122950996668e-02 7.0513129576688899e-02 0.0000000000000000e+00 1
3.3053852147764247e-02 1.1378274181561990e-01 0.0000000000000000e+00 1
6.6520454413708741e-02 -2.1257703134020922e-02 0.0000000000000000e+00 1
-1.3812919985795499e-01 -1.2337519521821733e-01 0.0000000000000000e+00 1
9.3538259572531285e-02 6.8613272803568770e-03 0.0000000000000000e+00 1
-2.0755033367939871e-01 -4.8888081898607223e-02 0.0000000000000000e+00 1
1.0564046344810378e-01 -2.9663617745505385e-03 0.0000000000000000e+00 1
6.9626610851003329e-02 9.5776596722303528e-02 0.0000000000000000e+00 1
2.5139000724117633e-01 1.2113304649917347e-01 0.0000000000000000e+00 1
8.5169342132148697e-03 1.9179357795931443e-03 0.0000000000000000e+00 1
-1.0211053718366409e-01 2.4702472639860317e-02 0.0000000000000000e+00 1
2.1729005705426063e-01 1.1446967611833293e-01 0.0000000000000000e+00 1
-1.6910269283001148e-01 -2.1739340645672720e-02 0.0000000000000000e+00 1
1.8690159197515091e-01 2.7322789218308444e-02 0.0000000000000000e+00 1
1.4783911856653581e-01 1.2388489363022274e-01 0.0000000000000000e+00 1
1.3895212230892979e-02 4.6261825429525075e-02 0.0000000000000000e+00 1
-2.0838846041390224e-01 -1.3072971332316732e-01 0.0000000000000000e+00 1
8.0383537479789852e-02 1.1129616330439492e-01 0.0000000000000000e+00 1
1.7693158996056185e-01 2.2136648002878762e-02 0.0000000000000000e+00 1
3.1621524204451668e-01 1.0890730719434169e-01 0.0000000000000000e+00 1
-3.0646447883966166e-01 -1.4553443812434497e-01 0.0000000000000000e+00 1
-2.2583511376242330e-02 -8.2289018861009491e-02 0.0000000000000000e+00 1
2.0489922353014234e-01 1.2364226737735583e-01 0.0000000000000000e+00 1
3.0429959265167239e-01 1.1350906627094536e-01 0.0000000000000000e+00 1
-3.1837564018753400e-01 -1.3783163739315030e-01 0.0000000000000000e+00 1
-3.1528069410443688e-01 -1.4406630448132482e-01 0.0000000000000000e+00 1
2.3401363170123626e-01 1.2326880563306554e-01 0.0000000000000000e+00 1
3.1477836106981927e-01 1.0586933133256271e-01 0.0000000000000000e+00 1
3.1705267241304302e-01 1.0384233523819347e-01 0.0000000000000000e+00 1
-3.1218275345825591e-01 -1.4980623709150076e-01 0.0000000000000000e+00 1
5.9442857923341585e-02 -3.8268081657748018e-02 0.0000000000000000e+00 1
9.3849744977078153e-02 -1.7396725287893454e-02 0.0000000000000000e+00 1
6.7130875035233640e-03 -1.0452602692059968e-02 0.0000000000000000e+00 1
-2.8025179279364015e-01 -9.2633048290105449e-02 0.0000000000000000e+00 1
1.2568933634219355e-02 9.7735941977651522e-02 0.0000000000000000e+00 1
1.9004928030382565e-01 1.2416304192318740e-01 0.0000000000000000e+00 1
-4.0135900749213209e-03 -1.6542387922286513e-02 0.0000000000000000e+00 1
3.1760445984443447e-01 9.8849108353162601e-02 0.0000000000000000e+00 1
1.6761118502859687e-01 2.7138779903990305e-02 0.0000000000000000e+00 1
1.5785762831318312e-01 2.1994440678531322e-02 0.0000000000000000e+00 1
2.7388579164282278e-01 1.1326962080527335e-01 0.0000000000000000e+00 1
-2.4241099958777765e-01 -1.4704281951152948e-01 0.0000000000000000e+00 1
-2.8548332787365721e-01 -1.0660842726742291e-01 0.0000000000000000e+00 1
2.9888648985794802e-01 1.1561141400600834e-01 0.0000000000000000e+00 1
-1.6905046395857343e-01 -3.3758667696898122e-02 0.0000000000000000e+00 1
-1.6786117535634321e-01 -1.2213936820075381e-01 0.0000000000000000e+00 1
-1.5685351572109188e-01 -1.1842926586880288e-01 0.0000000000000000e+00 1
-1.4708737558872531e-02 -2.1731545846880737e-02 0.0000000000000000e+00 1
-9.1077368990499563e-02 -9.7771012628943652e-02 0.0000000000000000e+00 1
-1.7078489634816119e-01 -5.0781541247427404e-02 0.0000000000000000e+00 1
1.0124115224188046e-01 1.1405450297416872e-01 0.0000000000000000e+00 1
1.4926266993555781e-01 1.6949965041367209e-02 0.0000000000000000e+00 1
-1.1304908944978473e-01 1.8300000741346370e-02 0.0000000000000000e+00 1
2.8827716650344792e-01 1.1182775472268819e-01 0.0000000000000000e+00 1
6.8814630868033716e-02 1.0335692635529960e-01 0.0000000000000000e+00 1
1.2106463143923551e-01 1.1519767306873270e-01 0.0000000000000000e+00 1
3.1983718923417725e-01 1.0428909816376525e-01 0.0000000000000000e+00 1
-3.3136619777593121e-02 -1.7754548074433309e-02 0.0000000000000000e+00 1
-2.0212573633655254e-01 -6.7557309856167272e-02 0.0000000000000000e+00 1
4.5336095705978643e-02 1.0638363251191131e-01 0.0000000000000000e+00 1
-4.1422753308042140e-02 -7.8848664883152106e-02 0.0000000000000000e+00 1
-8.8828694626155918e-02 -7.3437746311204491e-02 0.0000000000000000e+00 1
4.4209381425583845e-02 -3.0786641441824945e-02 0.0000000000000000e+00 1
1.4854874273136889e-01 6.5112963001260774e-03 0.0000000000000000e+00 1
-9.0124380261940140e-02 -8.6059239284301689e-02 0.0000000000000000e+00 1
-3.1729883006408266e-01 -1.4627454264262910e-01 0.0000000000000000e+00 1
-1.1347630346540871e-03 9.2272824540131082e-02 0.0000000000000000e+00 1
4.8098295389392309e-02 1.1768312594675735e-01 0.0000000000000000e+00 1
-3.6309799324089141e-02 -3.4307444795468711e-02 0.0000000000000000e+00 1
-7.6914095079850198e-02 -5.3696472399328461e-02 0.0000000000000000e+00 1
-5.4517179777068950e-02 -2.9470950237529683e-02 0.0000000000000000e+00 1
7.8204394424521109e-02 -2.7132847566557441e-02 0.0000000000000000e+00 1
-5.8543965600134605e-02 -5.8582926306751132e-02 0.0000000000000000e+00 1
-3.1847676406617520e-01 -1.4409576589598341e-01 0.0000000000000000e+00 1
7.0118740407145844e-02 8.8043313377117211e-02 0.0000000000000000e+00 1
3.6177031263056859e-02 -4.8061025293711847e-02 0.0000000000000000e+00 1
-2.9299841424694406e-01 -1.0510932528008665e-01 0.0000000000000000e+00 1
-1.0093839189283786e-01 -1.0215127842667153e-01 0.0000000000000000e+00 1
-7.9539599498764019e-02 -6.9961821405380778e-02 0.0000000000000000e+00 1
1.3940632669696512e-01 1.7763063935717330e-03 0.0000000000000000e+00 1
-1.8098892092056759e-01 -5.5825952741197039e-02 0.0000000000000000e+00 1
-2.1021622584377503e-01 -1.4101146121572361e-01 0.0000000000000000e+00 1
-2.7903109717455049e-01 -1.5080931741159906e-01 0.0000000000000000e+00 1
1.7690536187308578e-01 1.1620200013955828e-01 0.0000000000000000e+00 1
2.6408937051596432e-01 1.2084836938756839e-01 0.0000000000000000e+00 1
-5.6086351399690010e-02 -4.2098167360097777e-02 0.0000000000000000e+00 1
-1.2294417055425691e-01 1.1925403582563030e-02 0.0000000000000000e+00 1
-4.3178870310521984e-03 4.5594577648099502e-02 0.0000000000000000e+00 1
-1.7821634349944240e-01 -1.2607498340841103e-01 0.0000000000000000e+00 1
-5.2032996605715573e-02 -8.3270163630067423e-02 0.0000000000000000e+00 1
-3.1129036290021400e-01 -1.4658104840835695e-01 0.0000000000000000e+00 1
-2.5520706237671203e-01 -1.4048045304499271e-01 0.0000000000000000e+00 1
-2.9731023304133630e-01 -1.1738410039751809e-01 0.0000000000000000e+00 1
-1.9803562559223503e-01 -5.2200706960723292e-02 0.0000000000000000e+00 1
1.3033574165862319e-01 -3.1607925636385798e-03 0.0000000000000000e+00 1
-3.1511446118887637e-01 -1.3764994434437083e-01 0.0000000000000000e+00 1
2.5821351712686680e-02 -5.4200693878851229e-02 0.0000000000000000e+00 1
-2.2894628677216516e-01 -1.3741846381059603e-01 0.0000000000000000e+00 1
2.9925091507681134e-01 9.3617874486351435e-02 0.0000000000000000e+00 1
5.5980076345091473e-02 1.1031609488358964e-01 0.0000000000000000e+00 1
3.8296026501766806e-02 1.0910206990038089e-01 0.0000000000000000e+00 1
3.0908619738988918e-01 1.0814522463049316e-01 0.0000000000000000e+00 1
-3.1309716721830250e-01 -1.3469359240340356e-01 0.0000000000000000e+00 1
1.4184806830647173e-01 1.1602703886172630e-01 0.0000000000000000e+00 1
7.0243363536873105e-02 7.4504150688518553e-02 0.0000000000000000e+00 1
1.0121006131554997e-01 3.3557235437649173e-03 0.0000000000000000e+00 1

Edges
150
1 2 1
2 3 1
3 4 1
4 5 1
5 6 1
6 7 1
7 8 1
8 9 1
9 10 1
10 11 1
11 12 1
12 13 1
13 14 1
14 15 1
15 16 1
16 17 1
17 18 1
18 19 1
19 20 1
20 21 1
21 22 1
22 23 1
23 24 1
24 25 1
25 26 1
26 27 1
27 28 1
28 29 1
29 30 1
30 31 1
31 32 1
32 33 1
33 34 1
34 35 1
35 36 1
36 37 1
37 38 1
38 39 1
39 40 1
40 41 1
41 42 1
42 43 1
43 44 1
44 45 1
45 46 1
46 47 1
47 48 1
48 49 1
49 50 1
50 51 1
51 52 1
52 53 1
53 54 1
54 55 1
55 56 1
56 57 1
57 58 1
58 59 1
59 60 1
60 61 1
61 62 1
62 63 1
63 64 1
64 65 1
65 66 1
66 67 1
67 68 1
68 69 1
69 70 1
70 71 1
71 72 1
72 73 1
73 74 1
74 75 1
75 76 1
76 77 1
77 78 1
78 79 1
79 80 1
80 81 1
81 82 1
82 83 1
83 84 1
84 85 1
85 86 1
86 87 1
87 88 1
88 89 1
89 90 1
90 91 1
91 92 1
92 93 1
93 94 1
94 95 1
95 96 1
96 97 1
97 98 1
98 99 1
99 100 1
100 101 1
101 102 1
102 103 1
103 104 1
104 105 1
105 106 1
106 107 1
107 108 1
108 109 1
109 110 1
110 111 1
111 112 1
112 113 1
113 114 1
114 115 1
115 116 1
116 117 1
117 118 1
118 119 1
119 120 1
120 121 1
121 122 1
122 123 1
123 124 1
124 125 1
125 126 1
126 127 1
127 128 1
128 129 1
129 130 1
130 131 1
131 132 1
132 133 1
133 134 1
134 135 1
135 136 1
136 137 1
137 138 1
138 139 1
139 140 1
140 141 1
141 142 1
142 143 1
143 144 1
144 145 1
145 146 1
146 147 1
147 148 1
148 149 1
149 150 1
150 1 1

Triangles
1816
683 456 685 1
813 748 896 1
622 439 624 1
439 622 623 1
638 633 784 1
151 583 584 1
111 112 624 1
211 65 935 1
203 659 661 1
456 683 684 1
203 661 819 1
178 634 635 1
69 70 665 1
211 835 916 1
178 632 634 1
212 214 808 1
285 283 729 1
205 547 549 1
648 813 896 1
732 201 779 1
738 619 821 1
590 763 921 1
583 151 766 1
547 205 554 1
613 545 725 1
774 607 872 1
845 197 910 1
538 845 910 1
553 732 779 1
181 563 802 1
605 607 774 1
417 419 728 1
444 727 729 1
429 422 623 1
846 537 871 1
157 846 871 1
727 444 728 1
422 439 623 1
632 178 767 1
763 179 921 1
190 1 621 1
202 558 560 1
194 220 804 1
631 632 767 1
420 418 625 1
456 684 811 1
155 111 624 1
166 613 725 1
835 211 907 1
557 298 568 1
163 661 851 1
637 631 814 1
631 767 814 1
542 557 983 1
61 212 808 1
570 181 802 1
684 681 811 1
283 306 729 1
444 417 728 1
368 638 784 1
557 568 983 1
699 194 804 1
634 633 638 1
833 581 913 1
163 851 882 1
851 706 882 1
112 622 624 1
397 376 685 1
727 285 729 1
1 2 621 1
677 176 856 1
661 163 819 1
553 157 732 1
155 624 625 1
601 849 873 1
61 62 212 1
619 184 821 1
749 495 750 1
751 320 820 1
672 158 822 1
82 173 572 1
176 677 920 1
157 553 846 1
849 180 873 1
871 537 900 1
564 699 804 1
483 689 909 1
418 517 625 1
564 188 699 1
202 560 769 1
689 483 941 1
537 761 900 1
495 428 750 1
822 158 973 1
220 194 977 1
847 469 896 1
835 208 916 1
763 601 912 1
376 423 685 1
155 625 879 1
151 584 823 1
62 208 212 1
650 833 913 1
81 82 572 1
165 783 839 1
610 191 611 1
10 598 865 1
523 555 556 1
103 104 766 1
601 873 912 1
875 430 894 1
612 185 815 1
613 166 615 1
439 420 625 1
710 711 959 1
70 187 665 1
298 557 620 1
523 509 555 1
928 710 959 1
575 620 788 1
494 881 950 1
606 647 787 1
660 644 661 1
598 10 960 1
129 178 635 1
495 749 751 1
84 578 901 1
458 547 554 1
69 665 898 1
151 103 766 1
578 84 914 1
437 453 586 1
352 793 800 1
499 496 509 1
156 748 813 1
128 129 635 1
615 166 826 1
499 509 523 1
458 554 567 1
696 888 911 1
321 759 936 1
728 419 820 1
681 517 811 1
661 644 851 1
226 228 733 1
582 438 584 1
456 397 685 1
759 321 947 1
716 562 948 1
881 687 950 1
644 660 726 1
584 585 823 1
320 728 820 1
696 484 866 1
186 666 922 1
467 672 822 1
428 433 750 1
205 549 853 1
647 646 787 1
940 656 943 1
620 557 788 1
562 716 957 1
431 568 589 1
429 623 839 1
185 612 864 1
888 314 911 1
398 730 877 1
660 670 726 1
228 679 733 1
188 564 733 1
798 326 857 1
491 496 499 1
590 432 763 1
393 438 582 1
561 940 943 1
597 674 771 1
519 579 800 1
291 289 751 1
219 835 906 1
373 384 589 1
666 664 922 1
384 431 589 1
491 455 496 1
869 431 953 1
637 180 849 1
566 206 938 1
172 607 895 1
469 648 896 1
697 567 698 1
584 438 585 1
730 398 966 1
431 869 983 1
327 441 817 1
212 208 213 1
337 827 837 1
575 271 620 1
558 202 968 1
938 206 979 1
441 443 651 1
827 588 837 1
564 226 733 1
534 724 951 1
587 352 800 1
191 610 828 1
495 751 820 1
180 637 814 1
674 602 771 1
672 467 885 1
651 443 697 1
793 519 800 1
229 232 760 1
738 209 795 1
617 615 826 1
583 582 584 1
783 510 839 1
391 406 675 1
611 191 961 1
747 892 897 1
352 587 772 1
153 565 700 1
729 306 730 1
209 738 821 1
724 534 964 1
190 621 782 1
373 589 731 1
595 676 677 1
592 511 805 1
843 626 844 1
907 211 935 1
289 320 751 1
344 843 844 1
650 693 833 1
587 662 772 1
635 634 636 1
23 24 769 1
539 566 938 1
496 619 738 1
645 641 646 1
443 567 697 1
306 281 668 1
581 582 583 1
685 423 693 1
690 616 790 1
668 875 894 1
569 337 798 1
222 218 666 1
623 165 839 1
449 425 455 1
517 681 879 1
441 651 817 1
617 826 863 1
273 271 575 1
449 455 491 1
392 393 582 1
645 646 647 1
406 445 675 1
758 710 928 1
410 409 425 1
679 228 760 1
407 432 590 1
624 439 625 1
683 685 693 1
749 291 751 1
215 213 219 1
438 437 586 1
455 573 619 1
363 365 392 1
423 364 580 1
393 437 438 1
356 357 358 1
152 107 682 1
370 373 731 1
810 696 866 1
595 675 676 1
593 177 609 1
496 455 619 1
408 407 409 1
690 824 838 1
607 674 895 1
337 569 827 1
53 54 718 1
213 208 835 1
574 874 971 1
581 392 582 1
107 108 682 1
698 160 825 1
594 390 595 1
692 510 783 1
449 491 610 1
924 778 925 1
263 332 652 1
865 598 976 1
219 213 835 1
509 738 795 1
892 498 897 1
363 361 365 1
568 431 983 1
573 520 574 1
521 697 698 1
573 574 971 1
365 361 673 1
579 519 890 1
571 78 887 1
342 690 790 1
293 355 356 1
457 532 861 1
408 409 410 1
190 782 899 1
125 126 713 1
232 507 760 1
469 847 933 1
410 425 449 1
563 181 905 1
915 781 926 1
104 105 198 1
455 425 573 1
563 497 802 1
598 596 976 1
670 349 726 1
96 97 700 1
392 365 393 1
359 358 361 1
161 769 834 1
106 152 649 1
228 229 760 1
569 798 857 1
388 390 594 1
555 509 795 1
657 654 670 1
356 355 357 1
425 520 573 1
444 729 966 1
824 350 838 1
60 61 808 1
662 246 772 1
641 640 646 1
406 405 407 1
293 276 355 1
390 391 675 1
150 1 190 1
769 560 834 1
126 175 713 1
97 153 700 1
349 318 776 1
906 835 907 1
406 407 408 1
345 347 602 1
390 389 391 1
175 712 713 1
669 830 850 1
391 405 406 1
663 187 902 1
388 389 390 1
580 392 581 1
710 758 923 1
227 225 669 1
729 730 966 1
161 23 769 1
388 367 389 1
128 635 807 1
445 812 815 1
572 173 890 1
595 677 856 1
276 273 575 1
686 154 687 1
328 374 640 1
54 177 718 1
660 657 670 1
62 63 208 1
436 365 673 1
436 673 806 1
24 202 769 1
362 361 363 1
453 539 938 1
149 150 799 1
177 593 718 1
366 367 388 1
425 409 520 1
358 360 673 1
581 583 913 1
640 374 646 1
602 347 771 1
687 483 909 1
55 56 678 1
347 348 366 1
99 100 206 1
188 733 746 1
384 411 412 1
345 346 347 1
277 276 293 1
497 236 801 1
391 404 405 1
152 682 683 1
675 445 676 1
366 348 367 1
240 242 753 1
36 154 686 1
412 411 469 1
265 263 652 1
261 262 263 1
59 60 194 1
358 357 360 1
781 334 926 1
104 198 766 1
275 273 276 1
324 328 640 1
347 346 348 1
609 177 678 1
387 504 740 1
108 109 192 1
695 484 696 1
671 158 672 1
608 193 718 1
402 388 594 1
570 505 571 1
361 358 673 1
106 107 152 1
725 545 965 1
192 681 684 1
356 358 359 1
476 484 695 1
403 240 753 1
600 629 637 1
367 385 628 1
652 332 731 1
707 125 713 1
338 339 345 1
556 555 855 1
2 3 191 1
386 345 602 1
230 227 669 1
911 314 915 1
140 141 209 1
345 339 346 1
507 593 609 1
654 653 670 1
384 383 411 1
679 678 746 1
330 331 338 1
628 385 629 1
36 37 154 1
740 504 741 1
113 165 622 1
246 662 722 1
505 230 669 1
113 114 165 1
356 359 591 1
609 678 679 1
373 383 384 1
262 259 691 1
767 131 814 1
708 707 709 1
328 329 330 1
733 679 746 1
629 631 637 1
607 603 674 1
316 349 653 1
95 96 199 1
269 268 298 1
110 155 680 1
193 608 719 1
710 709 711 1
603 602 674 1
115 692 783 1
154 845 950 1
719 816 818 1
492 230 505 1
197 39 671 1
167 688 689 1
369 262 691 1
646 374 787 1
40 158 671 1
605 603 607 1
571 505 850 1
653 349 670 1
726 349 776 1
636 634 638 1
693 423 833 1
338 331 339 1
112 113 622 1
194 808 977 1
742 200 762 1
627 327 817 1
589 501 731 1
132 133 180 1
267 265 268 1
97 98 153 1
261 259 262 1
407 405 432 1
35 686 688 1
38 39 197 1
521 503 697 1
330 329 331 1
293 356 591 1
263 262 332 1
595 390 675 1
160 90 825 1
193 53 718 1
445 408 812 1
324 325 328 1
451 792 809 1
353 324 640 1
691 627 794 1
501 652 731 1
370 372 373 1
129 130 178 1
708 709 710 1
471 470 721 1
503 651 697 1
578 577 579 1
255 327 627 1
600 628 629 1
42 195 705 1
483 687 881 1
264 263 265 1
384 412 431 1
625 517 879 1
260 259 261 1
694 478 695 1
622 165 623 1
45 46 701 1
517 401 811 1
338 345 386 1
386 602 603 1
124 125 707 1
332 370 731 1
610 491 828 1
257 627 691 1
344 588 843 1
373 372 383 1
621 191 828 1
322 323 324 1
643 641 645 1
366 388 402 1
328 330 374 1
328 325 329 1
336 715 716 1
616 618 790 1
389 367 628 1
135 136 179 1
312 316 653 1
57 58 188 1
110 111 155 1
711 709 712 1
281 279 668 1
258 257 259 1
402 594 596 1
522 480 694 1
269 298 620 1
318 319 322 1
171 707 708 1
126 127 175 1
310 343 715 1
167 34 688 1
736 340 756 1
452 436 806 1
195 43 739 1
478 476 695 1
320 727 728 1
159 117 720 1
353 640 641 1
518 497 563 1
92 93 762 1
259 257 691 1
576 552 577 1
482 522 714 1
413 457 506 1
160 698 982 1
509 496 738 1
322 324 353 1
765 168 939 1
257 255 627 1
39 40 671 1
480 478 694 1
171 124 707 1
91 92 200 1
374 330 754 1
261 263 264 1
206 566 946 1
279 667 668 1
253 254 255 1
267 268 269 1
659 660 661 1
115 116 692 1
298 501 568 1
79 80 181 1
249 340 736 1
93 156 762 1
320 287 727 1
75 76 592 1
474 471 721 1
363 392 580 1
76 77 182 1
33 167 704 1
338 386 754 1
118 119 196 1
46 47 747 1
324 323 325 1
59 194 699 1
577 552 587 1
391 389 404 1
40 41 158 1
42 43 195 1
586 453 938 1
719 608 816 1
316 318 349 1
316 317 318 1
658 657 659 1
618 758 790 1
196 119 725 1
41 42 705 1
197 671 737 1
47 169 747 1
33 34 167 1
117 118 720 1
255 254 327 1
108 192 682 1
656 654 657 1
722 551 755 1
52 53 193 1
256 255 257 1
5 6 185 1
476 474 484 1
576 577 578 1
201 32 704 1
287 285 727 1
343 655 715 1
93 94 156 1
123 124 171 1
588 344 837 1
31 32 201 1
54 55 177 1
616 617 618 1
116 117 159 1
386 604 754 1
659 657 660 1
376 364 423 1
177 55 678 1
863 171 891 1
162 45 701 1
322 319 323 1
82 83 173 1
550 551 552 1
754 604 787 1
298 268 501 1
614 616 690 1
157 30 732 1
318 322 776 1
268 265 652 1
162 701 702 1
406 408 445 1
87 88 205 1
424 236 497 1
116 159 692 1
343 312 653 1
158 41 705 1
35 36 686 1
44 45 162 1
504 521 742 1
340 755 756 1
34 35 688 1
242 413 753 1
656 657 658 1
462 740 741 1
355 276 575 1
343 653 654 1
327 440 441 1
308 310 715 1
312 315 316 1
318 317 319 1
2 191 621 1
118 196 720 1
29 30 157 1
283 281 306 1
251 249 736 1
310 312 343 1
484 474 721 1
253 251 254 1
550 552 576 1
409 407 590 1
340 722 755 1
50 51 174 1
579 577 800 1
47 48 169 1
271 269 620 1
366 402 771 1
450 449 610 1
332 369 370 1
792 500 809 1
465 468 530 1
662 551 722 1
544 546 626 1
120 121 166 1
310 311 312 1
593 608 718 1
678 56 746 1
488 533 734 1
486 482 714 1
138 139 184 1
482 480 522 1
642 641 643 1
860 427 869 1
765 939 968 1
370 371 372 1
302 305 723 1
360 427 806 1
333 302 723 1
469 411 648 1
607 172 872 1
715 655 716 1
85 86 164 1
89 90 160 1
614 615 616 1
604 606 787 1
655 654 656 1
8 9 176 1
305 308 336 1
550 548 551 1
333 723 724 1
247 246 722 1
316 315 317 1
643 645 706 1
119 120 725 1
199 96 700 1
558 559 560 1
253 255 256 1
399 397 456 1
26 27 168 1
266 265 267 1
178 130 767 1
174 51 780 1
701 46 747 1
604 603 605 1
248 250 744 1
275 276 277 1
387 503 504 1
336 308 715 1
252 251 253 1
367 348 385 1
24 25 202 1
533 486 714 1
308 309 310 1
220 221 804 1
393 436 437 1
120 166 725 1
560 559 561 1
326 749 750 1
326 294 749 1
305 336 723 1
845 538 950 1
492 505 570 1
549 548 550 1
402 597 771 1
32 33 704 1
162 702 703 1
709 707 713 1
552 551 662 1
490 488 734 1
11 12 172 1
327 254 440 1
488 486 533 1
534 734 735 1
250 354 744 1
16 17 204 1
258 259 260 1
188 58 699 1
312 311 315 1
528 529 558 1
294 291 749 1
20 21 203 1
647 924 925 1
558 529 559 1
31 201 732 1
513 515 588 1
340 247 722 1
527 490 534 1
534 490 734 1
337 299 798 1
671 672 737 1
441 440 442 1
289 287 320 1
279 277 667 1
568 501 589 1
14 15 170 1
343 654 655 1
616 615 617 1
528 527 529 1
22 23 161 1
18 19 163 1
58 59 699 1
411 383 462 1
441 442 443 1
305 307 308 1
546 613 614 1
359 361 362 1
526 527 528 1
350 626 838 1
559 529 562 1
353 641 642 1
300 302 333 1
507 508 593 1
354 451 744 1
310 309 311 1
597 596 598 1
548 459 755 1
326 750 857 1
130 131 767 1
530 468 531 1
411 462 648 1
330 338 754 1
413 506 753 1
372 387 740 1
755 459 756 1
547 548 549 1
554 205 893 1
249 247 340 1
547 459 548 1
354 447 451 1
314 781 915 1
440 254 736 1
254 251 736 1
329 325 717 1
73 74 186 1
764 446 773 1
507 609 760 1
256 257 258 1
812 612 815 1
339 331 368 1
526 490 527 1
238 403 789 1
25 26 765 1
341 764 773 1
443 458 567 1
95 199 748 1
296 294 326 1
370 369 371 1
202 25 765 1
424 497 518 1
308 307 309 1
78 571 963 1
587 552 662 1
489 488 490 1
238 240 403 1
518 563 572 1
642 643 644 1
270 269 271 1
413 414 457 1
487 486 488 1
458 442 459 1
457 500 532 1
302 304 305 1
458 459 547 1
442 440 756 1
544 545 546 1
30 31 732 1
489 490 526 1
422 420 439 1
451 447 498 1
614 613 615 1
372 371 387 1
200 92 762 1
410 449 450 1
459 442 756 1
443 442 458 1
250 249 251 1
524 415 525 1
551 548 755 1
556 855 904 1
13 14 774 1
242 244 413 1
43 44 739 1
418 401 517 1
162 703 739 1
556 904 969 1
487 488 489 1
360 426 427 1
541 860 869 1
504 503 521 1
332 262 369 1
440 736 756 1
435 461 569 1
232 234 507 1
325 323 351 1
430 877 894 1
319 317 745 1
741 504 742 1
253 256 773 1
264 265 266 1
300 301 302 1
712 709 713 1
753 506 818 1
354 252 446 1
245 246 247 1
664 663 902 1
295 297 321 1
56 57 746 1
248 247 249 1
57 188 746 1
329 717 752 1
481 480 482 1
485 482 486 1
142 143 183 1
515 543 544 1
775 346 784 1
487 489 537 1
305 304 307 1
386 603 604 1
485 486 487 1
245 247 248 1
479 478 480 1
301 299 337 1
501 268 652 1
26 168 765 1
154 37 845 1
317 315 342 1
94 95 748 1
307 304 344 1
497 801 802 1
510 692 862 1
477 476 478 1
250 252 354 1
297 299 300 1
250 251 252 1
311 309 350 1
302 301 304 1
379 377 768 1
546 545 613 1
347 366 771 1
245 243 246 1
489 526 761 1
44 162 739 1
799 899 969 1
364 363 580 1
513 514 515 1
354 446 447 1
156 94 748 1
290 292 334 1
533 714 759 1
325 351 717 1
604 605 606 1
636 638 639 1
481 482 485 1
267 269 270 1
475 474 476 1
378 380 382 1
300 299 301 1
374 754 787 1
692 159 862 1
387 502 503 1
481 485 553 1
544 543 545 1
256 341 773 1
460 434 510 1
479 480 481 1
295 296 297 1
272 271 273 1
174 780 840 1
405 404 599 1
248 249 250 1
515 514 543 1
447 446 448 1
537 489 761 1
248 744 777 1
297 296 299 1
473 471 474 1
323 319 757 1
596 594 856 1
413 244 414 1
757 745 758 1
404 389 628 1
317 342 745 1
241 239 352 1
381 379 470 1
383 372 740 1
387 371 502 1
470 379 768 1
503 502 651 1
794 627 817 1
21 22 770 1
642 644 726 1
109 110 680 1
462 741 813 1
319 745 757 1
382 394 395 1
114 115 783 1
477 478 479 1
252 253 773 1
322 353 776 1
402 596 597 1
448 446 764 1
355 575 788 1
432 601 763 1
457 414 500 1
348 346 775 1
331 329 752 1
369 691 794 1
286 288 314 1
217 663 664 1
525 415 785 1
437 452 453 1
461 512 513 1
421 428 495 1
531 468 743 1
51 52 780 1
513 512 514 1
244 243 245 1
295 294 296 1
395 493 516 1
292 294 295 1
38 197 845 1
477 479 536 1
274 273 275 1
360 357 426 1
683 693 945 1
609 679 760 1
256 258 341 1
351 323 757 1
446 252 773 1
221 224 804 1
593 508 608 1
465 466 468 1
475 476 477 1
761 168 900 1
105 106 649 1
949 333 964 1
242 243 244 1
290 289 291 1
339 368 784 1
290 291 292 1
173 579 890 1
203 21 770 1
579 173 901 1
288 289 290 1
22 161 770 1
242 241 243 1
224 226 564 1
288 287 289 1
507 234 508 1
393 365 436 1
292 291 294 1
15 16 778 1
633 775 784 1
284 283 285 1
346 339 784 1
362 363 364 1
850 830 919 1
286 285 287 1
127 128 807 1
237 236 424 1
629 630 631 1
246 243 772 1
260 803 842 1
165 114 783 1
282 281 283 1
14 170 774 1
566 153 946 1
270 271 272 1
432 599 601 1
280 279 281 1
473 474 475 1
235 233 236 1
286 287 288 1
240 241 242 1
423 580 833 1
280 282 303 1
461 460 512 1
435 460 461 1
278 277 279 1
682 192 684 1
758 745 790 1
241 352 772 1
353 642 776 1
277 293 667 1
468 535 743 1
192 680 681 1
70 71 187 1
427 426 542 1
284 285 286 1
382 380 394 1
368 331 752 1
626 350 844 1
614 690 838 1
468 466 535 1
102 103 151 1
245 248 777 1
493 394 494 1
463 464 465 1
290 334 781 1
450 610 611 1
462 383 740 1
381 470 471 1
282 283 284 1
16 204 778 1
698 567 982 1
633 630 775 1
243 241 772 1
481 553 779 1
453 454 539 1
532 831 861 1
266 267 785 1
382 395 868 1
231 230 492 1
335 416 463 1
272 273 274 1
542 426 557 1
371 369 794 1
433 434 435 1
240 239 241 1
6 7 786 1
395 394 493 1
166 121 826 1
152 683 945 1
673 360 806 1
235 237 238 1
244 245 777 1
424 518 519 1
381 471 472 1
280 281 282 1
435 434 460 1
466 464 467 1
421 420 422 1
626 546 838 1
479 481 779 1
433 429 434 1
539 540 565 1
585 438 586 1
428 422 429 1
677 676 970 1
642 726 776 1
472 473 483 1
260 261 803 1
629 385 630 1
428 429 433 1
170 15 778 1
76 182 592 1
414 244 777 1
750 433 857 1
238 239 240 1
278 279 280 1
185 6 786 1
451 498 792 1
513 588 827 1
499 523 782 1
378 379 380 1
235 236 237 1
665 219 906 1
472 471 473 1
630 385 775 1
493 494 538 1
229 227 230 1
215 219 663 1
385 348 775 1
400 417 444 1
421 422 428 1
617 863 891 1
314 288 781 1
536 479 779 1
380 379 381 1
52 193 780 1
288 290 781 1
805 511 932 1
745 342 790 1
690 342 824 1
465 530 842 1
267 270 785 1
335 266 415 1
272 274 313 1
599 404 600 1
131 132 814 1
193 719 780 1
416 415 524 1
744 451 809 1
437 436 452 1
465 464 466 1
419 418 420 1
635 636 807 1
419 420 421 1
544 626 843 1
264 266 335 1
192 109 680 1
299 296 798 1
238 237 239 1
378 377 379 1
49 50 831 1
313 377 378 1
395 516 883 1
197 737 910 1
632 630 633 1
419 421 820 1
502 371 794 1
432 405 599 1
20 203 819 1
463 416 464 1
577 587 800 1
768 377 796 1
600 637 849 1
520 409 590 1
742 762 929 1
569 461 827 1
90 91 825 1
275 277 278 1
313 274 377 1
357 355 788 1
296 326 798 1
588 515 843 1
632 633 634 1
352 239 793 1
232 233 234 1
335 415 416 1
168 761 939 1
223 222 511 1
234 233 235 1
417 401 418 1
163 19 819 1
229 231 232 1
631 630 632 1
417 418 419 1
434 429 839 1
669 225 830 1
311 350 824 1
415 266 785 1
342 315 824 1
400 399 401 1
643 706 851 1
237 424 793 1
600 404 628 1
499 782 828 1
508 234 789 1
229 230 231 1
492 570 802 1
78 79 887 1
782 523 899 1
175 127 807 1
424 519 793 1
274 275 796 1
803 463 842 1
217 215 663 1
275 278 796 1
494 394 791 1
232 231 233 1
426 357 788 1
235 238 789 1
398 397 399 1
344 304 837 1
394 380 791 1
676 445 815 1
396 376 397 1
301 337 837 1
381 472 791 1
453 452 454 1
375 396 430 1
400 401 417 1
380 381 791 1
539 454 540 1
293 591 667 1
571 850 963 1
375 364 376 1
87 205 853 1
414 777 809 1
683 682 684 1
408 410 812 1
475 477 836 1
282 284 810 1
648 462 813 1
777 744 809 1
49 831 870 1
19 20 819 1
484 721 866 1
234 235 789 1
557 426 788 1
786 677 970 1
487 537 846 1
307 344 844 1
705 195 958 1
398 399 400 1
236 233 801 1
239 237 793 1
198 105 649 1
450 611 612 1
224 564 804 1
502 794 817 1
221 218 222 1
194 60 808 1
350 309 844 1
721 470 854 1
467 464 797 1
403 753 818 1
303 282 810 1
789 403 816 1
816 403 818 1
158 705 973 1
218 217 666 1
540 454 541 1
74 75 805 1
226 227 228 1
198 649 650 1
180 133 873 1
75 592 805 1
553 485 846 1
396 397 398 1
416 524 797 1
228 227 229 1
500 414 809 1
780 719 840 1
164 86 853 1
261 264 803 1
377 274 796 1
231 492 801 1
67 68 189 1
693 650 945 1
818 506 840 1
466 467 822 1
147 148 207 1
123 171 863 1
801 492 802 1
464 416 797 1
280 303 832 1
335 463 803 1
375 376 396 1
651 502 817 1
399 456 811 1
433 435 857 1
796 278 832 1
608 508 816 1
421 495 820 1
315 311 824 1
101 102 823 1
121 122 826 1
576 164 962 1
401 399 811 1
862 159 889 1
868 395 883 1
91 200 825 1
491 499 828 1
206 100 880 1
689 688 909 1
508 789 816 1
535 466 822 1
226 225 227 1
64 65 211 1
181 570 887 1
378 382 858 1
695 696 911 1
224 225 226 1
5 185 864 1
29 157 871 1
768 796 832 1
686 687 909 1
362 364 375 1
264 335 803 1
272 313 829 1
204 706 925 1
461 513 827 1
169 48 870 1
202 765 968 1
591 359 841 1
741 742 929 1
150 190 799 1
336 716 948 1
50 174 831 1
712 175 884 1
341 258 852 1
139 140 821 1
341 852 867 1
779 201 975 1
233 231 801 1
164 576 914 1
144 145 210 1
132 180 814 1
806 427 860 1
785 270 829 1
159 720 889 1
560 561 834 1
506 457 861 1
9 10 865 1
270 272 829 1
174 840 861 1
222 666 932 1
647 606 924 1
546 614 838 1
525 785 829 1
782 621 828 1
137 138 874 1
410 450 812 1
167 689 954 1
460 510 862 1
224 223 225 1
711 848 959 1
706 645 925 1
304 301 837 1
278 280 832 1
477 536 836 1
153 98 946 1
829 313 858 1
831 532 870 1
586 938 979 1
510 434 839 1
221 223 224 1
81 572 905 1
334 759 926 1
841 430 875 1
515 544 843 1
221 222 223 1
705 958 973 1
223 511 830 1
832 303 854 1
921 179 955 1
309 307 844 1
37 38 845 1
13 774 872 1
450 612 812 1
179 136 955 1
184 139 821 1
485 487 846 1
216 215 217 1
205 88 893 1
612 611 864 1
591 841 875 1
701 747 897 1
84 85 914 1
562 724 948 1
706 204 882 1
463 465 842 1
842 530 852 1
668 667 875 1
18 163 882 1
172 12 872 1
700 565 847 1
735 949 964 1
375 430 841 1
752 717 848 1
321 735 947 1
102 151 823 1
505 669 850 1
580 581 833 1
83 84 901 1
169 870 876 1
759 714 926 1
168 27 900 1
452 806 860 1
204 17 882 1
724 562 951 1
826 122 863 1
89 160 893 1
179 763 912 1
454 452 860 1
644 643 851 1
565 153 978 1
472 483 881 1
719 818 840 1
195 739 942 1
214 213 215 1
735 734 947 1
10 11 960 1
840 506 861 1
724 723 948 1
525 829 858 1
578 579 901 1
594 595 856 1
258 260 852 1
286 314 888 1
475 836 941 1
86 87 853 1
209 141 859 1
904 207 969 1
8 176 920 1
850 182 963 1
77 78 963 1
768 832 854 1
137 874 955 1
217 664 666 1
181 80 905 1
689 836 954 1
140 209 821 1
601 599 849 1
550 576 962 1
527 534 951 1
599 600 849 1
735 321 949 1
516 737 885 1
300 333 949 1
186 74 805 1
562 529 951 1
225 223 830 1
71 72 902 1
737 516 910 1
295 321 936 1
191 3 961 1
359 362 841 1
520 590 921 1
655 656 940 1
533 759 947 1
721 854 866 1
848 711 972 1
498 447 917 1
852 530 867 1
576 578 914 1
518 572 890 1
761 526 939 1
742 521 934 1
220 218 221 1
889 720 931 1
674 597 895 1
216 217 218 1
141 142 859 1
321 297 949 1
759 334 936 1
199 700 847 1
431 412 953 1
530 531 867 1
823 585 880 1
135 179 912 1
516 493 910 1
73 186 922 1
737 672 885 1
99 206 946 1
470 768 854 1
810 284 888 1
216 218 220 1
435 569 857 1
306 668 894 1
748 199 896 1
334 292 936 1
362 375 841 1
855 210 904 1
260 842 852 1
757 758 928 1
210 855 974 1
4 5 864 1
597 598 895 1
200 742 934 1
864 611 961 1
867 531 878 1
677 786 920 1
899 556 969 1
511 592 919 1
583 766 913 1
313 378 858 1
778 204 925 1
122 123 863 1
720 196 931 1
396 398 877 1
858 382 868 1
681 680 879 1
680 155 879 1
398 400 966 1
666 186 932 1
133 134 873 1
908 799 969 1
208 63 916 1
483 473 941 1
786 7 920 1
795 209 859 1
500 792 876 1
212 213 214 1
512 460 862 1
869 542 983 1
836 689 941 1
696 810 888 1
876 792 892 1
176 9 865 1
808 214 977 1
149 799 908 1
730 306 894 1
659 203 956 1
541 454 860 1
567 554 982 1
100 101 880 1
764 341 867 1
903 210 974 1
48 49 870 1
619 573 971 1
12 13 872 1
764 867 878 1
902 72 922 1
854 303 866 1
28 29 871 1
524 525 868 1
214 215 216 1
523 556 899 1
511 222 932 1
766 198 913 1
799 190 899 1
815 185 970 1
494 791 881 1
572 563 905 1
807 636 884 1
427 542 869 1
538 494 950 1
101 823 880 1
831 174 861 1
555 795 981 1
412 469 886 1
874 574 955 1
303 810 866 1
532 500 876 1
196 725 965 1
931 196 965 1
175 807 884 1
195 942 958 1
870 532 876 1
954 536 975 1
153 566 978 1
711 712 972 1
848 717 959 1
883 516 984 1
17 18 882 1
512 862 889 1
649 152 945 1
566 539 978 1
897 498 917 1
895 598 960 1
873 134 912 1
893 160 982 1
63 64 916 1
169 876 892 1
570 571 887 1
752 848 937 1
792 498 892 1
448 764 878 1
138 184 874 1
618 617 891 1
524 868 883 1
667 591 875 1
28 871 900 1
148 149 908 1
758 618 923 1
430 396 877 1
68 69 898 1
525 858 868 1
848 639 937 1
521 698 934 1
79 181 887 1
636 639 884 1
830 511 919 1
531 743 930 1
559 562 957 1
4 864 961 1
134 135 912 1
183 143 903 1
80 81 905 1
688 686 909 1
791 472 881 1
72 73 922 1
702 701 897 1
747 169 892 1
836 536 954 1
143 144 903 1
142 183 859 1
638 368 937 1
88 89 893 1
171 708 891 1
284 286 888 1
618 891 923 1
694 911 915 1
797 524 883 1
514 512 889 1
596 856 976 1
694 695 911 1
27 28 900 1
519 518 890 1
650 649 945 1
467 797 984 1
703 702 918 1
540 541 886 1
333 724 964 1
164 853 962 1
173 83 901 1
645 647 925 1
891 708 923 1
522 694 915 1
565 540 933 1
574 921 955 1
182 850 919 1
85 164 914 1
712 884 972 1
7 8 920 1
536 779 975 1
522 915 926 1
98 99 946 1
663 219 980 1
493 538 910 1
136 137 955 1
834 561 943 1
714 522 926 1
514 889 931 1
198 650 913 1
185 786 970 1
702 917 918 1
561 559 957 1
187 663 980 1
447 448 917 1
762 156 929 1
687 154 950 1
664 902 922 1
708 710 923 1
930 743 942 1
539 565 978 1
917 448 918 1
639 638 937 1
170 778 924 1
813 741 929 1
574 520 921 1
214 216 977 1
716 655 940 1
3 4 961 1
351 757 928 1
734 533 947 1
704 167 954 1
543 514 931 1
526 528 939 1
847 565 933 1
739 703 942 1
770 161 927 1
656 658 943 1
292 295 936 1
592 182 919 1
206 880 979 1
187 71 902 1
184 619 971 1
172 895 960 1
723 336 948 1
859 183 981 1
658 659 956 1
351 928 959 1
529 527 951 1
368 752 937 1
297 300 949 1
939 528 968 1
146 147 944 1
203 770 956 1
201 704 975 1
853 549 962 1
473 475 941 1
11 172 960 1
199 847 896 1
66 67 935 1
877 730 894 1
161 834 927 1
704 954 975 1
543 931 965 1
698 825 934 1
549 550 962 1
219 665 980 1
534 735 964 1
189 906 907 1
606 605 967 1
528 558 968 1
665 187 980 1
400 444 966 1
717 351 959 1
189 907 935 1
554 893 982 1
545 543 965 1
825 200 934 1
885 467 984 1
743 535 958 1
156 813 929 1
855 555 974 1
170 924 967 1
605 774 967 1
884 639 972 1
958 535 973 1
145 146 952 1
585 586 979 1
774 170 967 1
924 606 967 1
186 805 932 1
886 469 933 1
540 886 933 1
182 77 963 1
147 207 944 1
207 148 908 1
189 68 898 1
144 210 903 1
703 930 942 1
904 210 952 1
702 897 917 1
67 189 935 1
210 145 952 1
942 743 958 1
795 859 981 1
770 927 956 1
448 878 918 1
676 815 970 1
535 822 973 1
216 220 977 1
927 658 956 1
64 211 916 1
927 834 943 1
207 904 944 1
874 184 971 1
189 898 906 1
658 927 943 1
878 531 930 1
639 848 972 1
898 665 906 1
541 869 953 1
918 878 930 1
856 176 976 1
703 918 930 1
516 885 984 1
940 561 957 1
176 865 976 1
974 555 981 1
880 585 979 1
886 541 953 1
412 886 953 1
183 903 974 1
797 883 984 1
716 940 957 1
207 908 969 1
146 944 952 1
944 904 952 1
183 974 981 1
65 66 935 1

End
