MeshVersionFormatted 2
Dimension 3

Vertices
660
-1.9692097375753440e-01 -1.0034174238088898e-01 0.0000000000000000e+00 1
-1.9837943478397047e-01 -1.0212774831292240e-01 0.0000000000000000e+00 1
-1.9901380763363535e-01 -1.0444701237844374e-01 0.0000000000000000e+00 1
-1.9889811565227722e-01 -1.0721307329249792e-01 0.0000000000000000e+00 1
-1.9810638218564403e-01 -1.1033946977012971e-01 0.0000000000000000e+00 1
-1.9671263057948388e-01 -1.1373974052638398e-01 0.0000000000000000e+00 1
-1.9479088417954496e-01 -1.1732742427630559e-01 0.0000000000000000e+00 1
-1.9241516633157532e-01 -1.2101605973493935e-01 0.0000000000000000e+00 1
-1.8965950038132307e-01 -1.2471918561733016e-01 0.0000000000000000e+00 1
-1.8659790967453629e-01 -1.2835034063852283e-01 0.0000000000000000e+00 1
-1.8330441755696311e-01 -1.3182306351356221e-01 0.0000000000000000e+00 1
-1.7985304737435165e-01 -1.3505089295749317e-01 0.0000000000000000e+00 1
-1.7631782247244993e-01 -1.3794736768536048e-01 0.0000000000000000e+00 1
-1.7277276619700610e-01 -1.4042602641220908e-01 0.0000000000000000e+00 1
-1.6929190189376825e-01 -1.4240040785308378e-01 0.0000000000000000e+00 1
-1.6594925290848447e-01 -1.4378405072302941e-01 0.0000000000000000e+00 1
-1.6281884258690288e-01 -1.4449049373709083e-01 0.0000000000000000e+00 1
-1.5997469427477157e-01 -1.4443327561031291e-01 0.0000000000000000e+00 1
-1.5749083131783861e-01 -1.4352593505774047e-01 0.0000000000000000e+00 1
-1.5093331155611275e-01 -1.3968924295157051e-01 0.0000000000000000e+00 1
-1.4387153267876762e-01 -1.3570259182648325e-01 0.0000000000000000e+00 1
-1.3633574529941753e-01 -1.3157098938277817e-01 0.0000000000000000e+00 1
-1.2835620003167675e-01 -1.2729944332075474e-01 0.0000000000000000e+00 1
-1.1996314748915962e-01 -1.2289296134071236e-01 0.0000000000000000e+00 1
-1.1118683828548037e-01 -1.1835655114295048e-01 0.0000000000000000e+00 1
-1.0205752303425344e-01 -1.1369522042776858e-01 0.0000000000000000e+00 1
-9.2605452349093037e-02 -1.0891397689546610e-01 0.0000000000000000e+00 1
-8.2860876843613568e-02 -1.0401782824634254e-01 0.0000000000000000e+00 1
-7.2854047131429248e-02 -9.9011782180697255e-02 0.0000000000000000e+00 1
-6.2615213826154398e-02 -9.3900846398829757e-02 0.0000000000000000e+00 1
-5.2174627541403389e-02 -8.8690028601039500e-02 0.0000000000000000e+00 1
-4.1562538890790465e-02 -8.3384336487625929e-02 0.0000000000000000e+00 1
-3.0809198487929991e-02 -7.7988777758888489e-02 0.0000000000000000e+00 1
-1.9944856946436225e-02 -7.2508360115126624e-02 0.0000000000000000e+00 1
-8.9997648799235094e-03 -6.6948091256639808e-02 0.0000000000000000e+00 1
1.9958270979938478e-03 -6.1312978883727484e-02 0.0000000000000000e+00 1
1.3011668373701539e-02 -5.5608030696689126e-02 0.0000000000000000e+00 1
2.4017508333585270e-02 -4.9838254395824129e-02 0.0000000000000000e+00 1
3.4983096364030720e-02 -4.4008657681431980e-02 0.0000000000000000e+00 1
4.5878181851423540e-02 -3.8124248253812158e-02 0.0000000000000000e+00 1
5.6672514182149518e-02 -3.2190033813264053e-02 0.0000000000000000e+00 1
6.7335842742594298e-02 -2.6211022060087148e-02 0.0000000000000000e+00 1
7.7837916919143491e-02 -2.0192220694580921e-02 0.0000000000000000e+00 1
8.8148486098182904e-02 -1.4138637417044780e-02 0.0000000000000000e+00 1
9.8237299666098205e-02 -8.0552799277781931e-03 0.0000000000000000e+00 1
1.0807410700927497e-01 -1.9471559270806266e-03 0.0000000000000000e+00 1
1.1762865751409904e-01 4.1807268847484924e-03 0.0000000000000000e+00 1
1.2687070056695599e-01 1.0323360807409671e-02 0.0000000000000000e+00 1
1.3576998555423164e-01 1.6475738140603505e-02 0.0000000000000000e+00 1
1.4429626186231154e-01 2.2632851184030522e-02 0.0000000000000000e+00 1
1.5241927887758150e-01 2.8789692237391293e-02 0.0000000000000000e+00 1
1.6010878598642711e-01 3.4941253600386316e-02 0.0000000000000000e+00 1
1.6733453257523415e-01 4.1082527572716174e-02 0.0000000000000000e+00 1
1.7406626803038822e-01 4.7208506454081409e-02 0.0000000000000000e+00 1
1.8027374173827504e-01 5.3314182544182562e-02 0.0000000000000000e+00 1
1.8592670308528034e-01 5.9394548142720188e-02 0.0000000000000000e+00 1
1.9099490145778983e-01 6.5444595549394857e-02 0.0000000000000000e+00 1
1.9544808624218912e-01 7.1459317063907082e-02 0.0000000000000000e+00 1
1.9925600682486397e-01 7.7433704985957433e-02 0.0000000000000000e+00 1
2.0238841259219995e-01 8.3362751615246436e-02 0.0000000000000000e+00 1
2.0481505293058286e-01 8.9241449251474633e-02 0.0000000000000000e+00 1
2.0650567722639843e-01 9.5064790194342622e-02 0.0000000000000000e+00 1
2.0743003486603226e-01 1.0082776674355091e-01 0.0000000000000000e+00 1
2.0755787523587013e-01 1.0652537119880008e-01 0.0000000000000000e+00 1
2.0685894772229754e-01 1.1215259585979066e-01 0.0000000000000000e+00 1
2.0530300171170038e-01 1.1770443302622315e-01 0.0000000000000000e+00 1
2.0285978659046430e-01 1.2317587499779815e-01 0.0000000000000000e+00 1
1.9949905174497493e-01 1.2856191407421624e-01 0.0000000000000000e+00 1
1.9519054656161802e-01 1.3385754255517790e-01 0.0000000000000000e+00 1
1.9014561516068149e-01 1.3879356750853722e-01 0.0000000000000000e+00 1
1.8477617415325384e-01 1.4293298290010209e-01 0.0000000000000000e+00 1
1.7909536942289014e-01 1.4630103598398447e-01 0.0000000000000000e+00 1
1.7311634685314548e-01 1.4892297401429627e-01 0.0000000000000000e+00 1
1.6685225232757486e-01 1.5082404424514945e-01 0.0000000000000000e+00 1
1.6031623172973333e-01 1.5202949393065596e-01 0.0000000000000000e+00 1
1.5352143094317602e-01 1.5256457032492771e-01 0.0000000000000000e+00 1
1.4648099585145793e-01 1.5245452068207671e-01 0.0000000000000000e+00 1
1.3920807233813431e-01 1.5172459225621499e-01 0.0000000000000000e+00 1
1.3171580628676002e-01 1.5040003230145432e-01 0.0000000000000000e+00 1
1.2401734358089020e-01 1.4850608807190663e-01 0.0000000000000000e+00 1
1.1612583010407990e-01 1.4606800682168403e-01 0.0000000000000000e+00 1
1.0805441173988420e-01 1.4311103580489837e-01 0.0000000000000000e+00 1
9.9816234371858159e-02 1.3966042227566172e-01 0.0000000000000000e+00 1
9.1424443883556833e-02 1.3574141348808577e-01 0.0000000000000000e+00 1
8.2892186158535386e-02 1.3137925669628275e-01 0.0000000000000000e+00 1
7.4232607080348761e-02 1.2659919915436446e-01 0.0000000000000000e+00 1
6.5458852532552153e-02 1.2142648811644295e-01 0.0000000000000000e+00 1
5.6584068398700456e-02 1.1588637083663005e-01 0.0000000000000000e+00 1
4.7621400562348835e-02 1.1000409456903769e-01 0.0000000000000000e+00 1
3.8583994907052437e-02 1.0380490656777798e-01 0.0000000000000000e+00 1
2.9484997316366161e-02 9.7314054086962712e-02 0.0000000000000000e+00 1
2.0337553673845161e-02 9.0556784380703900e-02 0.0000000000000000e+00 1
1.1154809863044519e-02 8.3558344703113449e-02 0.0000000000000000e+00 1
1.9499117675192620e-03 7.6343982308303387e-02 0.0000000000000000e+00 1
-7.2639947291755075e-03 6.8938944450385592e-02 0.0000000000000000e+00 1
-1.6473763743484741e-02 6.1368478383472022e-02 0.0000000000000000e+00 1
-2.5666249391853375e-02 5.3657831361674679e-02 0.0000000000000000e+00 1
-3.4828305790726294e-02 4.5832250639105468e-02 0.0000000000000000e+00 1
-4.3946787056548517e-02 3.7916983469876347e-02 0.0000000000000000e+00 1
-5.3008547305764910e-02 2.9937277108099208e-02 0.0000000000000000e+00 1
-6.2000440654820473e-02 2.1918378807886073e-02 0.0000000000000000e+00 1
-7.0909321220160054e-02 1.3885535823348866e-02 0.0000000000000000e+00 1
-7.9722043118228642e-02 5.8639954085995261e-03 0.0000000000000000e+00 1
-8.8425460465471159e-02 -2.1209951822499726e-03 0.0000000000000000e+00 1
-9.7006427378332483e-02 -1.0044188695087664e-02 0.0000000000000000e+00 1
-1.0545179797325765e-01 -1.7880337875801677e-02 0.0000000000000000e+00 1
-1.1374842636669155e-01 -2.5604195470280033e-02 0.0000000000000000e+00 1
-1.2188316667507909e-01 -3.3190514224410772e-02 0.0000000000000000e+00 1
-1.2984287301486525e-01 -4.0614046884081934e-02 0.0000000000000000e+00 1
-1.3761439950249491e-01 -4.7849546195181600e-02 0.0000000000000000e+00 1
-1.4518460025441299e-01 -5.4871764903597742e-02 0.0000000000000000e+00 1
-1.5254032938706449e-01 -6.1655455755218545e-02 0.0000000000000000e+00 1
-1.5966844101689434e-01 -6.8175371495931975e-02 0.0000000000000000e+00 1
-1.6655578926034745e-01 -7.4406264871626104e-02 0.0000000000000000e+00 1
-1.7318922823386873e-01 -8.0322888628188982e-02 0.0000000000000000e+00 1
-1.7955561205390314e-01 -8.5899995511508648e-02 0.0000000000000000e+00 1
-1.8564179483689555e-01 -9.1112338267473170e-02 0.0000000000000000e+00 1
-1.9143463069929101e-01 -9.5934669641970588e-02 0.0000000000000000e+00 1
1.6808196654072066e-01 1.4518736200398374e-01 0.0000000000000000e+00 1
1.7796444188787219e-01 6.1129138885904599e-02 0.0000000000000000e+00 1
9.8953809823255717e-02 1.3056294264573357e-01 0.0000000000000000e+00 1
2.0300526154084883e-01 9.8430479228894030e-02 0.0000000000000000e+00 1
1.3627993698558644e-01 1.4402390437572449e-01 0.0000000000000000e+00 1
1.3608853550627653e-01 2.7127952351338948e-02 0.0000000000000000e+00 1
4.8227499714251276e-02 9.9385339215794427e-02 0.0000000000000000e+00 1
8.6988741833694455e-02 -3.6537008903111600e-03 0.0000000000000000e+00 1
2.5573169668164689e-03 6.5824205170181727e-02 0.0000000000000000e+00 1
-1.7892098401883061e-01 -1.3046881918921299e-01 0.0000000000000000e+00 1
1.9262146541743269e-01 1.2730963994693212e-01 0.0000000000000000e+00 1
7.4094894542243953e-02 1.1669169083201972e-01 0.0000000000000000e+00 1
1.5902562558695049e-01 4.3865346304747040e-02 0.0000000000000000e+00 1
-2.2353189107609368e-02 4.2319120013863773e-02 0.0000000000000000e+00 1
5.5895363033203305e-02 -2.0633440407183165e-02 0.0000000000000000e+00 1
-5.2094627897370738e-02 1.7292993400662718e-02 0.0000000000000000e+00 1
2.4692563271457555e-02 -3.8242271360661391e-02 0.0000000000000000e+00 1
-7.7186749525125387e-02 -5.6086781847467706e-03 0.0000000000000000e+00 1
-1.8790968969424096e-01 -1.2054019946174895e-01 0.0000000000000000e+00 1
-1.6656103728704019e-01 -1.4025047183666375e-01 0.0000000000000000e+00 1
1.9215032597617449e-01 7.7755431036089451e-02 0.0000000000000000e+00 1
-1.9290752825899374e-02 -6.0326049575497510e-02 0.0000000000000000e+00 1
-1.0370388371908314e-01 -2.8594508805877217e-02 0.0000000000000000e+00 1
-1.7167236027772950e-01 -8.8475044614066370e-02 0.0000000000000000e+00 1
-1.2803415535182838e-01 -5.0965832127482180e-02 0.0000000000000000e+00 1
-1.2797328098145536e-01 -1.1814272601116478e-01 0.0000000000000000e+00 1
-5.1472374331478124e-02 -7.6975165117546762e-02 0.0000000000000000e+00 1
-8.2210007774264862e-02 -9.3028496108366124e-02 0.0000000000000000e+00 1
-1.5080077527119923e-01 -1.3255800493067302e-01 0.0000000000000000e+00 1
-1.5056686133517944e-01 -7.0969493132909262e-02 0.0000000000000000e+00 1
-1.9561317695464800e-01 -1.0830517134312959e-01 0.0000000000000000e+00 1
2.0119315039173064e-01 1.1387500282453022e-01 0.0000000000000000e+00 1
-1.1058594254962410e-01 -1.0826277390090693e-01 0.0000000000000000e+00 1
-1.8450051355806191e-01 -9.8373798753857947e-02 0.0000000000000000e+00 1
2.5949499868170756e-03 -4.8965601572878520e-02 0.0000000000000000e+00 1
1.1640934213370491e-01 1.5182039879162225e-02 0.0000000000000000e+00 1
2.9849503018725944e-02 8.6691398415049886e-02 0.0000000000000000e+00 1
1.1468433985936367e-01 1.3791610507604540e-01 0.0000000000000000e+00 1
1.5026120296604861e-01 1.4788046661932913e-01 0.0000000000000000e+00 1
1.8481220718372848e-01 1.3736622086625949e-01 0.0000000000000000e+00 1
-1.7248960611261671e-01 -1.3662134786720953e-01 0.0000000000000000e+00 1
1.9904855634122323e-01 8.8253070587511709e-02 0.0000000000000000e+00 1
-1.9199567212430535e-01 -1.1344260969339685e-01 0.0000000000000000e+00 1
-1.5990200643296820e-01 -1.4161751175267487e-01 0.0000000000000000e+00 1
-1.9569672847779179e-01 -1.0282996306652303e-01 0.0000000000000000e+00 1
-1.7824401948613802e-01 -9.3588943705788519e-02 0.0000000000000000e+00 1
-1.7748027147816384e-01 -1.0084854091870263e-01 0.0000000000000000e+00 1
-1.8292779623904368e-01 -1.0541080544664691e-01 0.0000000000000000e+00 1
-1.7661448046001826e-01 -1.0810268905422329e-01 0.0000000000000000e+00 1
-1.7081086507116353e-01 -1.0368922432138769e-01 0.0000000000000000e+00 1
-1.7018139069681987e-01 -1.1105710485286054e-01 0.0000000000000000e+00 1
-1.6425125082464395e-01 -1.0663767253739201e-01 0.0000000000000000e+00 1
-1.6365619681687193e-01 -1.1390120081937777e-01 0.0000000000000000e+00 1
-1.5740178808989158e-01 -1.0957863167889792e-01 0.0000000000000000e+00 1
-1.5804224329399744e-01 -1.0208663634054171e-01 0.0000000000000000e+00 1
-1.5080779202106553e-01 -1.0503645758919307e-01 0.0000000000000000e+00 1
-1.5149171612804313e-01 -9.7016311836399707e-02 0.0000000000000000e+00 1
-1.4390568764719736e-01 -1.0022184133977424e-01 0.0000000000000000e+00 1
-1.4483267296514524e-01 -9.1604902811998679e-02 0.0000000000000000e+00 1
-1.3657957145408162e-01 -9.5111118701202160e-02 0.0000000000000000e+00 1
-1.3816247382465813e-01 -8.6047720968258246e-02 0.0000000000000000e+00 1
-1.2896502175562649e-01 -8.9602798706610837e-02 0.0000000000000000e+00 1
-1.3062623595336567e-01 -8.0034931473313864e-02 0.0000000000000000e+00 1
-1.2100178905259691e-01 -8.3951089032506712e-02 0.0000000000000000e+00 1
-1.2233944397712651e-01 -7.3669299006297484e-02 0.0000000000000000e+00 1
-1.1270340248829611e-01 -7.8020150754842199e-02 0.0000000000000000e+00 1
-1.1384958638754823e-01 -6.7867437121374358e-02 0.0000000000000000e+00 1
-1.0364578240621947e-01 -7.1983035749149965e-02 0.0000000000000000e+00 1
-1.0492187453369957e-01 -6.1905056896406102e-02 0.0000000000000000e+00 1
-9.4592099193261378e-02 -6.6000801087692296e-02 0.0000000000000000e+00 1
-9.5933229067491382e-02 -5.4643703285530837e-02 0.0000000000000000e+00 1
-8.5727556183308795e-02 -5.9648827147867740e-02 0.0000000000000000e+00 1
-8.6604220108796162e-02 -4.8197802685903568e-02 0.0000000000000000e+00 1
-7.7524241239924047e-02 -5.2798481890315815e-02 0.0000000000000000e+00 1
-7.8134636966221693e-02 -4.1783765471268317e-02 0.0000000000000000e+00 1
-6.8806903098830710e-02 -4.5856942878734652e-02 0.0000000000000000e+00 1
-6.9222626552683242e-02 -3.4941099134555453e-02 0.0000000000000000e+00 1
-5.9083349155071213e-02 -3.8984397244949079e-02 0.0000000000000000e+00 1
-5.9632580236162649e-02 -2.8238610906197451e-02 0.0000000000000000e+00 1
-4.9308985934489638e-02 -3.2367117873588258e-02 0.0000000000000000e+00 1
-5.0303946665400612e-02 -2.0943048350215536e-02 0.0000000000000000e+00 1
-3.9793225493375280e-02 -2.5378808631169744e-02 0.0000000000000000e+00 1
-4.0946625703401941e-02 -1.3522728186531847e-02 0.0000000000000000e+00 1
-3.0027910600458466e-02 -1.8258542984917310e-02 0.0000000000000000e+00 1
-3.1305640530438071e-02 -6.3325650224111615e-03 0.0000000000000000e+00 1
-2.0039112654693082e-02 -1.1457904212800374e-02 0.0000000000000000e+00 1
-2.1532646760802965e-02 7.9327082876203014e-04 0.0000000000000000e+00 1
-1.0233436767799031e-02 -4.3613576325045016e-03 0.0000000000000000e+00 1
-1.1756059131618313e-02 7.9364655621551820e-03 0.0000000000000000e+00 1
-6.8867840765251859e-04 3.0881155442630385e-03 0.0000000000000000e+00 1
-2.0435170588136960e-03 1.5148515637024127e-02 0.0000000000000000e+00 1
8.9868478367709590e-03 1.0309585129383878e-02 0.0000000000000000e+00 1
7.6520986447726905e-03 2.2274080983953243e-02 0.0000000000000000e+00 1
1.8649892037245062e-02 1.7441948027257157e-02 0.0000000000000000e+00 1
1.9986692687093893e-02 5.5086388230380177e-03 0.0000000000000000e+00 1
2.9616609035079473e-02 1.2648202444608689e-02 0.0000000000000000e+00 1
2.8282272865090378e-02 2.4487260926759340e-02 0.0000000000000000e+00 1
3.9156572284368307e-02 1.9768020183476780e-02 0.0000000000000000e+00 1
3.7758516482518996e-02 3.1546276050739341e-02 0.0000000000000000e+00 1
4.8576928861161967e-02 2.6801104732189780e-02 0.0000000000000000e+00 1
4.7293021951046281e-02 3.8362939164117475e-02 0.0000000000000000e+00 1
5.7813075742845617e-02 3.3178557422219937e-02 0.0000000000000000e+00 1
5.6578001874277840e-02 4.4977518950196922e-02 0.0000000000000000e+00 1
6.6578203341328412e-02 3.9296438823430764e-02 0.0000000000000000e+00 1
6.5659434106509235e-02 5.1466746828829485e-02 0.0000000000000000e+00 1
7.6504299352163421e-02 4.4897157957205405e-02 0.0000000000000000e+00 1
7.4746628862888326e-02 5.7766701340851552e-02 0.0000000000000000e+00 1
8.4773154773014628e-02 5.3437573336085210e-02 0.0000000000000000e+00 1
8.3465876143768436e-02 6.4401746906616042e-02 0.0000000000000000e+00 1
9.3286935501690829e-02 6.0303739865528415e-02 0.0000000000000000e+00 1
9.1931182296582328e-02 7.0502263727800524e-02 0.0000000000000000e+00 1
1.0154157093559221e-01 6.6610064551849646e-02 0.0000000000000000e+00 1
1.0040922457762214e-01 7.6811764256866408e-02 0.0000000000000000e+00 1
1.0960230309133032e-01 7.2794349972185604e-02 0.0000000000000000e+00 1
1.0881047521496640e-01 8.2586317705578186e-02 0.0000000000000000e+00 1
1.1751744925059157e-01 7.8670710764838211e-02 0.0000000000000000e+00 1
1.1643436432933418e-01 8.8173433904915832e-02 0.0000000000000000e+00 1
1.2497641415573627e-01 8.4485204459102098e-02 0.0000000000000000e+00 1
1.2398226464634882e-01 9.3612314429149593e-02 0.0000000000000000e+00 1
1.3224346251934627e-01 9.0069886423423812e-02 0.0000000000000000e+00 1
1.3134945378891213e-01 9.8778434981976818e-02 0.0000000000000000e+00 1
1.3942176744627210e-01 9.5196303068444538e-02 0.0000000000000000e+00 1
1.4037376534296797e-01 8.6703103689066696e-02 0.0000000000000000e+00 1
1.4727708770430806e-01 9.1949315084681960e-02 0.0000000000000000e+00 1
1.4624229592110610e-01 1.0035661749636587e-01 0.0000000000000000e+00 1
1.5375545537449911e-01 9.7039924369892006e-02 0.0000000000000000e+00 1
1.5285663010180256e-01 1.0502708302444422e-01 0.0000000000000000e+00 1
1.6003483561099494e-01 1.0187726253675222e-01 0.0000000000000000e+00 1
1.6111320081263492e-01 9.4185854220416393e-02 0.0000000000000000e+00 1
1.6714972157168984e-01 9.8878709415154892e-02 0.0000000000000000e+00 1
1.5906822118650399e-01 1.0958699866494689e-01 0.0000000000000000e+00 1
1.5206642092939121e-01 1.1274015258718420e-01 0.0000000000000000e+00 1
1.1864488612728652e-01 6.9602635108187094e-02 0.0000000000000000e+00 1
1.4823205711774787e-01 8.3571411365960163e-02 0.0000000000000000e+00 1
1.0832778111555566e-01 9.1961912297148243e-02 0.0000000000000000e+00 1
1.0270074566566685e-01 5.7286619918044956e-02 0.0000000000000000e+00 1
1.2316496754923918e-01 1.0252723964305843e-01 0.0000000000000000e+00 1
8.3047670957851413e-02 7.4506712077641243e-02 0.0000000000000000e+00 1
1.5824049681865809e-01 1.1715703744852324e-01 0.0000000000000000e+00 1
1.6516901857241922e-01 1.1393724998131401e-01 0.0000000000000000e+00 1
1.6820855538131316e-01 9.1424363230201144e-02 0.0000000000000000e+00 1
8.7464658396332662e-02 4.3377939641092912e-02 0.0000000000000000e+00 1
1.7407831320436071e-01 9.5972629120340575e-02 0.0000000000000000e+00 1
1.5131913380358430e-01 1.2030095166298778e-01 0.0000000000000000e+00 1
6.5609860629822991e-02 6.2293494563849888e-02 0.0000000000000000e+00 1
4.5409512089610568e-02 4.9794804459624677e-02 0.0000000000000000e+00 1
1.6426047815718772e-01 1.2159655046870969e-01 0.0000000000000000e+00 1
1.7093298536949930e-01 1.1862445786261548e-01 0.0000000000000000e+00 1
5.9146533480044929e-02 2.1109753138993954e-02 0.0000000000000000e+00 1
1.4148568301690601e-01 7.8123470462371364e-02 0.0000000000000000e+00 1
1.4922908310878852e-01 7.4989685601427131e-02 0.0000000000000000e+00 1
1.4259866288629564e-01 6.9480144601076446e-02 0.0000000000000000e+00 1
1.3066327309956013e-01 1.0723380433932037e-01 0.0000000000000000e+00 1
1.2245020842313277e-01 1.1119936715171500e-01 0.0000000000000000e+00 1
1.2998664998297382e-01 1.1555973334045300e-01 0.0000000000000000e+00 1
2.6219046029750146e-02 3.6134941594376080e-02 0.0000000000000000e+00 1
6.0723642664819565e-04 -8.8919558212741216e-03 0.0000000000000000e+00 1
1.7510616965720704e-01 8.8706777228104911e-02 0.0000000000000000e+00 1
1.6920750621112957e-01 8.4006486310671119e-02 0.0000000000000000e+00 1
-4.9306506279068782e-02 -4.3292423597637644e-02 0.0000000000000000e+00 1
3.0990005392413596e-02 7.2870385748385370e-04 0.0000000000000000e+00 1
1.8078944404760558e-01 9.3264675313590506e-02 0.0000000000000000e+00 1
1.7982189680653948e-01 1.0024758120078205e-01 0.0000000000000000e+00 1
-1.8707862055877093e-02 -2.3923621848782054e-02 0.0000000000000000e+00 1
1.7008693588312318e-01 1.2576269536376197e-01 0.0000000000000000e+00 1
1.6359990093837598e-01 1.2865330905360756e-01 0.0000000000000000e+00 1
1.5058132991807063e-01 6.6363686212237122e-02 0.0000000000000000e+00 1
1.4364444356615952e-01 6.0802189937850838e-02 0.0000000000000000e+00 1
-2.2881124160949274e-02 1.2830929649012057e-02 0.0000000000000000e+00 1
-7.6761163371941638e-02 -6.2712561681251180e-02 0.0000000000000000e+00 1
-1.5035710554436890e-01 -1.1312767288283426e-01 0.0000000000000000e+00 1
1.7657624922386889e-01 1.2287278983422692e-01 0.0000000000000000e+00 1
1.7624317789619520e-01 8.1282672725856903e-02 0.0000000000000000e+00 1
1.7025844195136788e-01 7.6434897155732998e-02 0.0000000000000000e+00 1
-5.3404565850808008e-02 -8.7597557121354575e-03 0.0000000000000000e+00 1
-1.6945294546292611e-01 -1.1820957305996260e-01 0.0000000000000000e+00 1
1.8626950940621240e-01 9.7597173876411716e-02 0.0000000000000000e+00 1
1.8562454068641282e-01 1.0401747963776943e-01 0.0000000000000000e+00 1
-1.0193445997896573e-01 -8.2472443782569141e-02 0.0000000000000000e+00 1
1.2190918941936355e-01 1.1939656081346245e-01 0.0000000000000000e+00 1
1.1451507381222294e-01 1.1481211125422211e-01 0.0000000000000000e+00 1
1.2951024687597981e-01 1.2366175271101612e-01 0.0000000000000000e+00 1
-7.9749432286501512e-02 -3.0215555726285731e-02 0.0000000000000000e+00 1
-1.6315813591725120e-01 -1.2101534009793127e-01 0.0000000000000000e+00 1
-1.5260955600315476e-01 -8.7112255806855762e-02 0.0000000000000000e+00 1
-1.2810902516029923e-01 -9.9280047299998342e-02 0.0000000000000000e+00 1
-1.0674752557016978e-01 -5.0652911457759173e-02 0.0000000000000000e+00 1
-3.3382423815180237e-03 2.7106112530051532e-02 0.0000000000000000e+00 1
6.2318160368086649e-03 3.3961444817994783e-02 0.0000000000000000e+00 1
2.1239598853416974e-02 -6.6633199733283216e-03 0.0000000000000000e+00 1
3.2383105398229348e-02 -1.1252194744870173e-02 0.0000000000000000e+00 1
4.2129531688102240e-02 -3.9506007790826815e-03 0.0000000000000000e+00 1
-1.3204858775519995e-01 -6.9696726995908218e-02 0.0000000000000000e+00 1
1.7744918425599146e-01 1.1586497676242792e-01 0.0000000000000000e+00 1
-1.6862660613933672e-01 -1.2495848277646433e-01 0.0000000000000000e+00 1
1.4508055699582331e-01 1.1590122301212251e-01 0.0000000000000000e+00 1
1.4433375450992902e-01 1.2353716337490397e-01 0.0000000000000000e+00 1
1.5067512842944897e-01 1.2777004189846319e-01 0.0000000000000000e+00 1
1.4368529392167206e-01 1.3111361612042841e-01 0.0000000000000000e+00 1
1.8294014788733062e-01 1.1995177448036951e-01 0.0000000000000000e+00 1
-1.6279933002425720e-01 -1.2773578855288237e-01 0.0000000000000000e+00 1
1.3546045818859750e-01 6.3925318084923008e-02 0.0000000000000000e+00 1
1.3646889944947518e-01 5.4930589012835443e-02 0.0000000000000000e+00 1
1.8711751030315518e-01 9.0721765038341298e-02 0.0000000000000000e+00 1
-1.8212716197657297e-01 -1.1319161614565003e-01 0.0000000000000000e+00 1
1.6946438798455069e-01 1.3258273738016699e-01 0.0000000000000000e+00 1
1.6307805172992423e-01 1.3540218899576567e-01 0.0000000000000000e+00 1
-1.7456576555233674e-01 -1.2212396892758688e-01 0.0000000000000000e+00 1
1.9141919380706374e-01 1.0167991508958518e-01 0.0000000000000000e+00 1
1.9102134494202522e-01 1.0777276500741470e-01 0.0000000000000000e+00 1
1.1427002969688206e-01 1.2269346486168116e-01 0.0000000000000000e+00 1
1.0664109768465491e-01 1.1815254600499948e-01 0.0000000000000000e+00 1
1.0717329168242319e-01 1.0962868511552293e-01 0.0000000000000000e+00 1
9.8960779079952238e-02 1.1322015862483836e-01 0.0000000000000000e+00 1
-4.2658969384031936e-03 3.8472973760935704e-02 0.0000000000000000e+00 1
9.9800247747838591e-02 1.0412439806156708e-01 0.0000000000000000e+00 1
9.1216567037438537e-02 1.0799273760336212e-01 0.0000000000000000e+00 1
9.1939336325210924e-02 9.8592242070559971e-02 0.0000000000000000e+00 1
8.3205042296150403e-02 1.0244203160132312e-01 0.0000000000000000e+00 1
8.3851626109906277e-02 9.2936254235114063e-02 0.0000000000000000e+00 1
7.4924239403880849e-02 9.6801577918341486e-02 0.0000000000000000e+00 1
1.6299464818266490e-01 7.8530865426906266e-02 0.0000000000000000e+00 1
1.6415373436229788e-01 7.1460236589322296e-02 0.0000000000000000e+00 1
1.4465052462743874e-01 5.1556038842170811e-02 0.0000000000000000e+00 1
1.3747324283970186e-01 4.5850226629954888e-02 0.0000000000000000e+00 1
1.2875484536293885e-01 4.9185086624195413e-02 0.0000000000000000e+00 1
9.0733202435330618e-02 1.1732062357445712e-01 0.0000000000000000e+00 1
1.7751989705452600e-01 7.3917117564620119e-02 0.0000000000000000e+00 1
4.8450373728497285e-03 4.5760975029028927e-02 0.0000000000000000e+00 1
2.2659330013015209e-02 -1.8458103705919982e-02 0.0000000000000000e+00 1
1.9677965125034802e-01 1.0573413403665805e-01 0.0000000000000000e+00 1
3.4067240381497117e-02 -2.2951626380905629e-02 0.0000000000000000e+00 1
1.5043796999856981e-01 1.3480232862979999e-01 0.0000000000000000e+00 1
-1.5710836437751854e-01 -1.2383140526160219e-01 0.0000000000000000e+00 1
1.8195722581104531e-01 1.2632964528708751e-01 0.0000000000000000e+00 1
1.4454092942178362e-01 4.2038724170296589e-02 0.0000000000000000e+00 1
1.3007432688710391e-01 3.9657779569885795e-02 0.0000000000000000e+00 1
1.2086616302763821e-01 4.3176289085290281e-02 0.0000000000000000e+00 1
1.2228137862932698e-01 3.3234802054032959e-02 0.0000000000000000e+00 1
1.1276405121802036e-01 3.6940782859404789e-02 0.0000000000000000e+00 1
1.1972708669354176e-01 5.3086222874414009e-02 0.0000000000000000e+00 1
7.5954525943660117e-02 8.6660362727107879e-02 0.0000000000000000e+00 1
6.6598932408070591e-02 9.0892652880896888e-02 0.0000000000000000e+00 1
6.7533639423781697e-02 8.0503964531941696e-02 0.0000000000000000e+00 1
5.8087330112815652e-02 8.4787172118423376e-02 0.0000000000000000e+00 1
6.5968607810044336e-02 1.0114244989628782e-01 0.0000000000000000e+00 1
9.1874002075444300e-02 8.9743056469763910e-02 0.0000000000000000e+00 1
1.7975819306791277e-01 1.0799367098690502e-01 0.0000000000000000e+00 1
-1.8818798856864805e-01 -1.0948741141201272e-01 0.0000000000000000e+00 1
-1.8827168594235824e-01 -1.0306470639022652e-01 0.0000000000000000e+00 1
-6.5944348092572755e-03 5.0351950329354044e-02 0.0000000000000000e+00 1
1.8440744613131529e-01 7.8100941108074598e-02 0.0000000000000000e+00 1
5.8888616737229456e-02 7.4206467166841983e-02 0.0000000000000000e+00 1
4.9321101047324054e-02 7.8517149284973331e-02 0.0000000000000000e+00 1
5.0046872948375988e-02 6.7779782224533167e-02 0.0000000000000000e+00 1
4.0065830579338366e-02 7.2037137628709697e-02 0.0000000000000000e+00 1
-1.7560218798854210e-01 -1.1540179269171016e-01 0.0000000000000000e+00 1
-1.8026930703421423e-01 -1.1973445644245023e-01 0.0000000000000000e+00 1
-1.6797651833770325e-01 -1.3093639573692439e-01 0.0000000000000000e+00 1
-1.6273247499304269e-01 -1.3382832005136577e-01 0.0000000000000000e+00 1
1.8445042537270673e-01 1.1387018617932139e-01 0.0000000000000000e+00 1
1.8902989385096958e-01 1.1813649999880418e-01 0.0000000000000000e+00 1
1.7223061839094084e-01 1.1067475840905411e-01 0.0000000000000000e+00 1
1.4366946196168207e-01 1.3863540016626832e-01 0.0000000000000000e+00 1
1.3680831237268926e-01 1.3462713115421968e-01 0.0000000000000000e+00 1
1.3003608983835335e-01 1.3939897664232742e-01 0.0000000000000000e+00 1
-1.5076563973774472e-02 3.2310426408087629e-02 0.0000000000000000e+00 1
4.1026547863407321e-02 6.1233668454797746e-02 0.0000000000000000e+00 1
3.0647179071904201e-02 6.5643213709861481e-02 0.0000000000000000e+00 1
3.2102727107705863e-02 5.4578529481204507e-02 0.0000000000000000e+00 1
2.1931348025701475e-02 5.9034227890714726e-02 0.0000000000000000e+00 1
2.0947387235814754e-02 6.9295880624432066e-02 0.0000000000000000e+00 1
1.8456799233124760e-01 7.0783937862501436e-02 0.0000000000000000e+00 1
1.1463158417845229e-01 2.6123085885458797e-02 0.0000000000000000e+00 1
1.0443007410005441e-01 3.0447661925688946e-02 0.0000000000000000e+00 1
1.0323810395959063e-01 4.0786984292848633e-02 0.0000000000000000e+00 1
1.0608753107264146e-01 1.9653410919827599e-02 0.0000000000000000e+00 1
9.5805239622491337e-02 2.3891883211870614e-02 0.0000000000000000e+00 1
9.7367452329945287e-02 1.3149116678881691e-02 0.0000000000000000e+00 1
8.7122560748796263e-02 1.7416577730322284e-02 0.0000000000000000e+00 1
8.5295352453771192e-02 2.7631790956166791e-02 0.0000000000000000e+00 1
7.6694056778006420e-02 2.1460104564484182e-02 0.0000000000000000e+00 1
7.8851731171310294e-02 1.1403508506141422e-02 0.0000000000000000e+00 1
-1.3590280470521626e-01 -1.2261012317450905e-01 0.0000000000000000e+00 1
-1.3577286473964686e-01 -1.1346395991041364e-01 0.0000000000000000e+00 1
-1.4464260691194630e-01 -1.2676671515287108e-01 0.0000000000000000e+00 1
1.9177406372193712e-01 9.4977702356972796e-02 0.0000000000000000e+00 1
1.3794816101761093e-01 1.1904257267918232e-01 0.0000000000000000e+00 1
1.3873061402291789e-01 1.1115143892475704e-01 0.0000000000000000e+00 1
2.2931347347990259e-02 4.7784619795586798e-02 0.0000000000000000e+00 1
-1.5767552251624287e-01 -7.8402647108955184e-02 0.0000000000000000e+00 1
-1.6535753058296146e-01 -8.3402164646255286e-02 0.0000000000000000e+00 1
-1.6508395280892979e-01 -9.1668331942247799e-02 0.0000000000000000e+00 1
1.7561605320580492e-01 1.2939822473304630e-01 0.0000000000000000e+00 1
1.7478914725417127e-01 1.3604599894835578e-01 0.0000000000000000e+00 1
1.8199948105308822e-01 8.6093065826428089e-02 0.0000000000000000e+00 1
-1.8758804435614621e-01 -1.1542418180191949e-01 0.0000000000000000e+00 1
1.2613062814877940e-01 7.5608843929888092e-02 0.0000000000000000e+00 1
-1.1951144509338781e-01 -1.1336426046763715e-01 0.0000000000000000e+00 1
-9.1912520500250908e-02 -9.8147926118720419e-02 0.0000000000000000e+00 1
-9.1687704032785255e-02 -8.7527871937957483e-02 0.0000000000000000e+00 1
-8.1936268572923437e-02 -8.2207349622713852e-02 0.0000000000000000e+00 1
-1.3486675465054060e-01 -5.8497082880047381e-02 0.0000000000000000e+00 1
-1.2310167730448979e-01 -6.2111050818308852e-02 0.0000000000000000e+00 1
-1.4239774222733936e-01 -6.5709300305349230e-02 0.0000000000000000e+00 1
-1.4231415777806594e-01 -7.6417053266233145e-02 0.0000000000000000e+00 1
-1.1808995503011285e-01 -5.1940271507998383e-02 0.0000000000000000e+00 1
-1.1431278653661706e-01 -4.2465393100143536e-02 0.0000000000000000e+00 1
1.5707654800008955e-01 1.3162500870180793e-01 0.0000000000000000e+00 1
1.5677250345739641e-01 1.3865083813291787e-01 0.0000000000000000e+00 1
1.4458802106419369e-01 3.2534863129679438e-02 0.0000000000000000e+00 1
1.5470968847550506e-01 8.9089926460884136e-02 0.0000000000000000e+00 1
-1.2778230140039920e-01 -1.0874018637656829e-01 0.0000000000000000e+00 1
1.8844979259898620e-01 8.3836484288569352e-02 0.0000000000000000e+00 1
1.7317131176260414e-01 1.0330991273340615e-01 0.0000000000000000e+00 1
-1.4327347579558647e-01 -1.1825253892790312e-01 0.0000000000000000e+00 1
-1.0159234418190907e-01 -1.0355431108264145e-01 0.0000000000000000e+00 1
-1.1064475671969472e-01 -9.8467251694803276e-02 0.0000000000000000e+00 1
-9.2231472070924331e-02 -7.6813571161468114e-02 0.0000000000000000e+00 1
3.5521102128977668e-02 4.3217603718185532e-02 0.0000000000000000e+00 1
-7.2252100536399133e-02 -8.7848006193696732e-02 0.0000000000000000e+00 1
-7.1481297267756566e-02 -7.7307711007109453e-02 0.0000000000000000e+00 1
-6.1864089822115401e-02 -8.2340845760085976e-02 0.0000000000000000e+00 1
-6.0998903764424045e-02 -7.1590001848701540e-02 0.0000000000000000e+00 1
-5.0976777088178805e-02 -6.5536935465785207e-02 0.0000000000000000e+00 1
-6.0211600415909179e-02 -6.1153533585592786e-02 0.0000000000000000e+00 1
1.1583958540344574e-01 9.7267106623452809e-02 0.0000000000000000e+00 1
1.1073071427799597e-01 6.3744585571613360e-02 0.0000000000000000e+00 1
-4.0962598979798356e-02 -7.1530482933642170e-02 0.0000000000000000e+00 1
-4.0123294331891698e-02 -5.9820330119149029e-02 0.0000000000000000e+00 1
7.4794878376873764e-02 6.8398537411935564e-02 0.0000000000000000e+00 1
-1.1931259580832868e-01 -1.0367922920674495e-01 0.0000000000000000e+00 1
-1.7399178126045786e-01 -1.2855620539387036e-01 0.0000000000000000e+00 1
7.5214789980150645e-02 3.2596849568534376e-02 0.0000000000000000e+00 1
5.4584971247828129e-02 5.7714773576232094e-02 0.0000000000000000e+00 1
9.4590610070452566e-02 5.0905032393235683e-02 0.0000000000000000e+00 1
-1.1973549987820269e-01 -9.3924920618637928e-02 0.0000000000000000e+00 1
4.0580830371719917e-02 7.9515052966177991e-03 0.0000000000000000e+00 1
5.1562357945876866e-02 3.3927220394415654e-03 0.0000000000000000e+00 1
1.6613758982685450e-01 1.0633062858587913e-01 0.0000000000000000e+00 1
1.7069726480101084e-02 2.9030603273157877e-02 0.0000000000000000e+00 1
-3.0096432730373789e-02 -6.5892853502746207e-02 0.0000000000000000e+00 1
-2.9225290193035665e-02 -5.3927235039527850e-02 0.0000000000000000e+00 1
-1.8731903259419001e-02 -4.8157120141867557e-02 0.0000000000000000e+00 1
-2.8746686617027912e-02 -4.2173164459107002e-02 0.0000000000000000e+00 1
-1.8212515749099170e-02 -3.6046154546309217e-02 0.0000000000000000e+00 1
-8.3531924648522372e-03 -5.4664940839829576e-02 0.0000000000000000e+00 1
-8.6219771017092856e-02 -1.3114223662887493e-02 0.0000000000000000e+00 1
-7.4655482238155227e-02 -1.7056899806820590e-02 0.0000000000000000e+00 1
-6.5980143628873167e-02 -9.1292094032744634e-03 0.0000000000000000e+00 1
-1.0445509515380881e-01 -3.9979491450286883e-02 0.0000000000000000e+00 1
-9.5004338902311247e-02 -2.0768878928177692e-02 0.0000000000000000e+00 1
-9.2876069390991717e-02 -3.1828588156168805e-02 0.0000000000000000e+00 1
4.9968352889781201e-02 1.4934912266108390e-02 0.0000000000000000e+00 1
6.0453513075667265e-02 9.7334640619856638e-03 0.0000000000000000e+00 1
6.2885692038769064e-02 -1.3848863957488314e-03 0.0000000000000000e+00 1
5.3964812848295907e-02 -8.7763979054724193e-03 0.0000000000000000e+00 1
4.4193278750624489e-02 -1.5739088886506297e-02 0.0000000000000000e+00 1
-3.2528633822206922e-02 5.5385089685644710e-03 0.0000000000000000e+00 1
-3.3720452780191076e-02 1.8035283350436734e-02 0.0000000000000000e+00 1
-2.4523148370321345e-02 2.4382423819484661e-02 0.0000000000000000e+00 1
1.6545389737579075e-01 4.9910811091840424e-02 0.0000000000000000e+00 1
1.5792248474473597e-01 5.3551045960538640e-02 0.0000000000000000e+00 1
1.6426004889705209e-01 5.8570158502696285e-02 0.0000000000000000e+00 1
1.0747897954519052e-01 8.8876834267385720e-03 0.0000000000000000e+00 1
1.3584650987177574e-02 -4.3381934414689405e-02 0.0000000000000000e+00 1
3.1795313056239582e-03 -3.6683805667184904e-02 0.0000000000000000e+00 1
6.7417546575271159e-02 -1.3813633266233975e-02 0.0000000000000000e+00 1
7.4601866703604192e-02 -3.8925711173784031e-03 0.0000000000000000e+00 1
-7.7338511537143450e-03 -4.2355931076158954e-02 0.0000000000000000e+00 1
-7.3160549853631737e-03 -3.0109269233361442e-02 0.0000000000000000e+00 1
3.7075679177751594e-03 -2.4420623175568233e-02 0.0000000000000000e+00 1
-7.8992740158532089e-03 -1.7778096843221267e-02 0.0000000000000000e+00 1
-4.2323334985102996e-02 -1.4855395745163029e-03 0.0000000000000000e+00 1
-5.2402066180872744e-02 4.0257321228387719e-03 0.0000000000000000e+00 1
1.2228815337913303e-01 1.4116034353130938e-01 0.0000000000000000e+00 1
1.2186922759284662e-01 1.3398969164506683e-01 0.0000000000000000e+00 1
-1.3269775846165852e-02 1.9952478934302527e-02 0.0000000000000000e+00 1
1.4878827971941622e-02 -2.9121027198443228e-02 0.0000000000000000e+00 1
1.2596188714611836e-01 2.2941477296080696e-02 0.0000000000000000e+00 1
1.0207933418119724e-02 -1.9194403358055456e-03 0.0000000000000000e+00 1
-3.5284134745009903e-02 2.9622455536852811e-02 0.0000000000000000e+00 1
-1.3592926921528187e-01 -1.0420555140167788e-01 0.0000000000000000e+00 1
-1.0142165653756000e-01 -9.3112871269104613e-02 0.0000000000000000e+00 1
3.9176546258875081e-02 9.3199075939858447e-02 0.0000000000000000e+00 1
-6.9156207692475574e-02 2.3897389002052604e-03 0.0000000000000000e+00 1
1.1402462355389607e-02 -1.4879343051569937e-02 0.0000000000000000e+00 1
6.5591033384399505e-02 1.1133174529270962e-01 0.0000000000000000e+00 1
9.4009881733081085e-02 3.4752626893867690e-02 0.0000000000000000e+00 1
1.5765899387175761e-01 1.2445086921954941e-01 0.0000000000000000e+00 1
1.1163640380749698e-01 4.6799993740713419e-02 0.0000000000000000e+00 1
-1.7125876476279350e-01 -9.6258503589085304e-02 0.0000000000000000e+00 1
1.3331618540980228e-01 8.1285314784039997e-02 0.0000000000000000e+00 1
1.2767153076631599e-01 5.8532333388244595e-02 0.0000000000000000e+00 1
1.3713920258782752e-01 1.2719120601861908e-01 0.0000000000000000e+00 1
1.7189437698880766e-01 5.5433530403431949e-02 0.0000000000000000e+00 1
9.0818606321026896e-02 1.2651347237741245e-01 0.0000000000000000e+00 1
7.4399233980116858e-02 1.0673588626691785e-01 0.0000000000000000e+00 1
1.1515756302739834e-01 1.0608160281195184e-01 0.0000000000000000e+00 1
-1.1124026077588602e-01 -8.8324787858743981e-02 0.0000000000000000e+00 1
1.4564692127788914e-01 1.0807305993148393e-01 0.0000000000000000e+00 1
1.6197019171683660e-01 8.6370188534699716e-02 0.0000000000000000e+00 1
8.2651465923796144e-02 1.1215648140466471e-01 0.0000000000000000e+00 1
1.0699299620547005e-01 1.3473497786329211e-01 0.0000000000000000e+00 1
-2.9064742151198447e-02 -3.0343860653103138e-02 0.0000000000000000e+00 1
-1.7959430651944397e-01 -1.2508477502373980e-01 0.0000000000000000e+00 1
-1.5707738187277390e-01 -1.3006503705919112e-01 0.0000000000000000e+00 1
-1.5646215803613317e-01 -1.3563727162557701e-01 0.0000000000000000e+00 1
-1.4334103249385782e-01 -1.0905133700863269e-01 0.0000000000000000e+00 1
1.7190950636734373e-01 6.8254425678568501e-02 0.0000000000000000e+00 1
1.6214306046197047e-01 1.4220539474774560e-01 0.0000000000000000e+00 1
8.2570493743546955e-02 1.2177678733986687e-01 0.0000000000000000e+00 1
1.3890500969629396e-01 1.0326184454402978e-01 0.0000000000000000e+00 1
5.6935748840056206e-02 1.0550898483685502e-01 0.0000000000000000e+00 1
-1.5703849024942160e-01 -1.1695754210989466e-01 0.0000000000000000e+00 1
1.9601975985837738e-01 1.1136383762091434e-01 0.0000000000000000e+00 1
1.8839206841064998e-01 1.3292464687365568e-01 0.0000000000000000e+00 1
1.3444103605718855e-01 7.2559821592183674e-02 0.0000000000000000e+00 1
1.9691541169519042e-01 1.2320827542592762e-01 0.0000000000000000e+00 1
5.7444568735554154e-02 9.5144912573015605e-02 0.0000000000000000e+00 1
-1.5061428470772328e-01 -1.2053204346779053e-01 0.0000000000000000e+00 1
1.4340419748178457e-01 1.4651313436725316e-01 0.0000000000000000e+00 1
9.8680268447620012e-02 1.2201876994999075e-01 0.0000000000000000e+00 1
-3.9060828548155048e-02 -3.6879686611444897e-02 0.0000000000000000e+00 1
1.5675227746179357e-01 1.4596178323521547e-01 0.0000000000000000e+00 1
-4.2881582367522382e-02 1.1503090400994873e-02 0.0000000000000000e+00 1
-1.8444016041478445e-01 -1.2353690522482272e-01 0.0000000000000000e+00 1
1.8766991061671506e-01 1.2353785680287568e-01 0.0000000000000000e+00 1
9.8315899043590005e-02 2.5704543669142921e-03 0.0000000000000000e+00 1
1.9586458716407956e-01 8.3011705300020611e-02 0.0000000000000000e+00 1
1.5560059088814945e-01 8.0673766028539054e-02 0.0000000000000000e+00 1
4.5857705046252556e-02 -2.7104424066752723e-02 0.0000000000000000e+00 1
4.8757064214880526e-02 8.9029337329928737e-02 0.0000000000000000e+00 1
1.2967441466733393e-01 1.3119934146054285e-01 0.0000000000000000e+00 1
1.0772058516949902e-01 1.0079925660685859e-01 0.0000000000000000e+00 1
-1.9093989133716255e-01 -1.1755009499366205e-01 0.0000000000000000e+00 1
-5.0034895445692722e-02 -5.4432547988946201e-02 0.0000000000000000e+00 1
-1.7587060888350156e-01 -1.3379587588102043e-01 0.0000000000000000e+00 1
1.7399813047482404e-01 1.4260406861719768e-01 0.0000000000000000e+00 1
2.0109117918624270e-01 9.3798813116888868e-02 0.0000000000000000e+00 1
1.5228775862008694e-02 4.0403168695953930e-02 0.0000000000000000e+00 1
1.3378308902453905e-02 5.1822240311568513e-02 0.0000000000000000e+00 1
3.0356460074649136e-02 7.6208068381556013e-02 0.0000000000000000e+00 1
-6.1203664709160145e-02 9.5940112462213102e-03 0.0000000000000000e+00 1
9.1567124090327967e-02 8.0303332100577995e-02 0.0000000000000000e+00 1
-1.6806231122286486e-01 -1.3578533584092456e-01 0.0000000000000000e+00 1
2.0239120800756577e-01 1.0323911436115553e-01 0.0000000000000000e+00 1
1.0661774246239859e-01 1.2647266181235534e-01 0.0000000000000000e+00 1
-1.9240197375403539e-01 -1.0968521200536857e-01 0.0000000000000000e+00 1
3.9587750865632182e-02 8.2613694496679352e-02 0.0000000000000000e+00 1
1.5663971297047766e-01 7.2091929950168915e-02 0.0000000000000000e+00 1
-8.1732183261908259e-02 -7.0480978470536984e-02 0.0000000000000000e+00 1
1.5826866812328766e-01 6.3997468174938926e-02 0.0000000000000000e+00 1
1.9315191958309444e-01 8.8918412933901597e-02 0.0000000000000000e+00 1
-1.6460653619157789e-01 -9.9277056545337652e-02 0.0000000000000000e+00 1
2.0022143231703282e-01 1.1902477599929649e-01 0.0000000000000000e+00 1
1.7948454146884862e-01 1.4048258505921762e-01 0.0000000000000000e+00 1
-1.4600170718115923e-01 -8.3655460765038825e-02 0.0000000000000000e+00 1
2.0180009874436491e-01 1.0881500931697481e-01 0.0000000000000000e+00 1
-3.9416250235811967e-02 -4.8420897969302101e-02 0.0000000000000000e+00 1
8.8219673244169239e-02 7.1587306842273643e-03 0.0000000000000000e+00 1
1.9758822355474165e-01 9.8652844031735493e-02 0.0000000000000000e+00 1
1.9516514938704430e-01 1.1714461990996172e-01 0.0000000000000000e+00 1
1.2721979718886056e-01 6.6901193673944759e-02 0.0000000000000000e+00 1
1.6859245740769357e-01 1.3900462511553591e-01 0.0000000000000000e+00 1
1.0002504204033272e-01 9.5731834731508675e-02 0.0000000000000000e+00 1
-1.6885705917765653e-02 4.9707469619801353e-02 0.0000000000000000e+00 1
-1.9282783908423598e-01 -1.0556731280193282e-01 0.0000000000000000e+00 1
1.5127103886430199e-01 5.8126405673364058e-02 0.0000000000000000e+00 1
-1.6331053392352951e-01 -1.4096418355452267e-01 0.0000000000000000e+00 1
-9.5131601524525294e-02 -4.2508871336319393e-02 0.0000000000000000e+00 1
2.0541243538109998e-02 7.9669479337255378e-02 0.0000000000000000e+00 1
3.5913373986550354e-02 -3.3363210389349862e-02 0.0000000000000000e+00 1
-6.1657497134597498e-02 -1.7997627533599739e-02 0.0000000000000000e+00 1
-1.9253594910301577e-01 -1.0055388477974544e-01 0.0000000000000000e+00 1
1.0049781408285184e-01 8.6358730808473644e-02 0.0000000000000000e+00 1
6.7499987285334087e-02 2.7079318857782989e-02 0.0000000000000000e+00 1
6.8764097578488032e-02 1.5994215761558399e-02 0.0000000000000000e+00 1
1.1655313169616143e-02 7.2895978002716716e-02 0.0000000000000000e+00 1
-1.1162067169025594e-01 -3.3966820610199691e-02 0.0000000000000000e+00 1
7.1038092484252982e-02 5.6533597549956504e-03 0.0000000000000000e+00 1
1.1424254639353837e-01 1.3058725113236125e-01 0.0000000000000000e+00 1
-1.9496596711962333e-01 -1.1110244066768174e-01 0.0000000000000000e+00 1
-5.9547332502921060e-02 -5.0233159644474369e-02 0.0000000000000000e+00 1
1.7942615118347371e-01 6.7852368627882909e-02 0.0000000000000000e+00 1
-6.8983523689620019e-02 -2.5689958621491794e-02 0.0000000000000000e+00 1
1.1962074687277549e-01 6.1126983041052574e-02 0.0000000000000000e+00 1
-1.8257155563691171e-01 -1.2785278071797213e-01 0.0000000000000000e+00 1
1.7008531883629679e-01 6.1720570795042562e-02 0.0000000000000000e+00 1
1.5208420369756431e-01 3.8291524927981248e-02 0.0000000000000000e+00 1
-4.4030087207482513e-02 2.5205426870482585e-02 0.0000000000000000e+00 1
1.5182258124844961e-01 4.7579270125386861e-02 0.0000000000000000e+00 1
-1.6983552454265921e-01 -1.3909671796201814e-01 0.0000000000000000e+00 1
-1.5717840195890484e-01 -1.3964247844382210e-01 0.0000000000000000e+00 1
-1.9640993356051767e-01 -1.0567250657650543e-01 0.0000000000000000e+00 1
-1.6070232830273501e-01 -1.3817181067543147e-01 0.0000000000000000e+00 1
3.6150551121759940e-03 5.6074800166457536e-02 0.0000000000000000e+00 1
1.2347454902096456e-02 6.2491222027678546e-02 0.0000000000000000e+00 1
1.8171417105808216e-01 1.3295853499339474e-01 0.0000000000000000e+00 1
-6.9262698366580111e-02 -5.7284217319294548e-02 0.0000000000000000e+00 1
1.5140665187030719e-01 1.4098391921303857e-01 0.0000000000000000e+00 1
-8.5701018767010514e-02 -2.2596829256068061e-02 0.0000000000000000e+00 1
1.1154817955695204e-01 5.5111811498934668e-02 0.0000000000000000e+00 1
8.3709495345283075e-02 8.4290422485671812e-02 0.0000000000000000e+00 1
2.5839809363851728e-02 -2.8116471582292059e-02 0.0000000000000000e+00 1
1.6283364430423411e-01 1.4729195393121963e-01 0.0000000000000000e+00 1
-1.5853252211897298e-01 -9.4036671679621819e-02 0.0000000000000000e+00 1
1.8995555117045920e-01 7.2573251629406255e-02 0.0000000000000000e+00 1
-4.8319642405850131e-03 6.0511675699970180e-02 0.0000000000000000e+00 1
1.3739583558655954e-01 3.7258131415331484e-02 0.0000000000000000e+00 1
1.8377603798913278e-01 6.4920917813680798e-02 0.0000000000000000e+00 1
7.5286372130402915e-02 7.8086325569986431e-02 0.0000000000000000e+00 1
1.2201975410839275e-01 1.2672953867878736e-01 0.0000000000000000e+00 1
1.2891309045264596e-01 1.4519920700184891e-01 0.0000000000000000e+00 1
7.9465051991672878e-02 -1.1358187791630118e-02 0.0000000000000000e+00 1
-2.6605452217818633e-02 3.4496168103106926e-02 0.0000000000000000e+00 1
-1.8447476466052962e-01 -1.1849559305695431e-01 0.0000000000000000e+00 1
-1.2260696281317851e-01 -4.4121797241356606e-02 0.0000000000000000e+00 1
1.9653078847744782e-01 9.2920168605402087e-02 0.0000000000000000e+00 1
-6.0541980223126929e-02 -1.1460590223154007e-03 0.0000000000000000e+00 1
-1.5018935411048315e-01 -7.8640975493285664e-02 0.0000000000000000e+00 1
-8.6499192055407292e-02 -3.8906916675189168e-02 0.0000000000000000e+00 1
-1.3229473299283288e-02 4.1493182302102229e-02 0.0000000000000000e+00 1
1.9243443465400095e-01 1.2153038696273780e-01 0.0000000000000000e+00 1
1.6573545531725564e-01 6.4800571948113714e-02 0.0000000000000000e+00 1
-1.5194895328465560e-01 -1.2657637637029270e-01 0.0000000000000000e+00 1
1.0338620764210217e-01 4.8821761914068777e-02 0.0000000000000000e+00 1
7.9940021087406221e-02 3.3338653875349747e-03 0.0000000000000000e+00 1
-1.5971162008664744e-01 -8.6962992342376089e-02 0.0000000000000000e+00 1
-6.9642953469711028e-02 -6.7975884145334953e-02 0.0000000000000000e+00 1
1.9029620150042781e-01 1.1289078144559896e-01 0.0000000000000000e+00 1
8.3168469149518379e-02 3.6209519417398514e-02 0.0000000000000000e+00 1
1.8694795407232648e-01 1.2816242318614096e-01 0.0000000000000000e+00 1
6.6623464202009569e-02 7.1969586716187778e-02 0.0000000000000000e+00 1
-1.1324965538706530e-01 -5.9260863428174798e-02 0.0000000000000000e+00 1
9.5735035201758120e-02 4.2685690651659849e-02 0.0000000000000000e+00 1
-1.7202568232683624e-01 -1.3283834059043265e-01 0.0000000000000000e+00 1
-1.6444744685653107e-01 -1.3757524442419544e-01 0.0000000000000000e+00 1
1.3002796370755215e-01 3.2082885721280818e-02 0.0000000000000000e+00 1
-1.8878983547031458e-01 -9.9553560656240908e-02 0.0000000000000000e+00 1
5.8125405314593322e-02 6.6544712467696679e-02 0.0000000000000000e+00 1
1.8609063559144381e-01 1.0905677995717748e-01 0.0000000000000000e+00 1

Edges
118
1 2 1
2 3 1
3 4 1
4 5 1
5 6 1
6 7 1
7 8 1
8 9 1
9 10 1
10 11 1
11 12 1
12 13 1
13 14 1
14 15 1
15 16 1
16 17 1
17 18 1
18 19 1
19 20 1
20 21 1
21 22 1
22 23 1
23 24 1
24 25 1
25 26 1
26 27 1
27 28 1
28 29 1
29 30 1
30 31 1
31 32 1
32 33 1
33 34 1
34 35 1
35 36 1
36 37 1
37 38 1
38 39 1
39 40 1
40 41 1
41 42 1
42 43 1
43 44 1
44 45 1
45 46 1
46 47 1
47 48 1
48 49 1
49 50 1
50 51 1
51 52 1
52 53 1
53 54 1
54 55 1
55 56 1
56 57 1
57 58 1
58 59 1
59 60 1
60 61 1
61 62 1
62 63 1
63 64 1
64 65 1
65 66 1
66 67 1
67 68 1
68 69 1
69 70 1
70 71 1
71 72 1
72 73 1
73 74 1
74 75 1
75 76 1
76 77 1
77 78 1
78 79 1
79 80 1
80 81 1
81 82 1
82 83 1
83 84 1
84 85 1
85 86 1
86 87 1
87 88 1
88 89 1
89 90 1
90 91 1
91 92 1
92 93 1
93 94 1
94 95 1
95 96 1
96 97 1
97 98 1
98 99 1
99 100 1
100 101 1
101 102 1
102 103 1
103 104 1
104 105 1
105 106 1
106 107 1
107 108 1
108 109 1
109 110 1
110 111 1
111 112 1
112 113 1
113 114 1
114 115 1
115 116 1
116 117 1
117 118 1
118 1 1

Triangles
1200
181 311 424 1
497 348 505 1
367 161 415 1
384 495 552 1
540 382 619 1
384 494 495 1
305 189 589 1
183 185 422 1
375 323 376 1
376 323 635 1
157 540 619 1
190 188 570 1
373 386 453 1
382 123 383 1
300 406 513 1
111 112 423 1
565 349 580 1
386 264 453 1
186 297 437 1
383 123 384 1
128 451 524 1
300 273 406 1
122 565 580 1
161 367 567 1
451 326 524 1
98 500 634 1
179 181 424 1
264 386 388 1
98 99 500 1
490 497 505 1
544 478 609 1
469 305 589 1
17 18 162 1
188 437 570 1
474 475 486 1
312 366 379 1
490 275 491 1
222 220 595 1
297 419 437 1
167 323 375 1
311 183 422 1
224 222 452 1
134 544 609 1
224 452 650 1
534 349 577 1
264 388 438 1
357 392 498 1
366 312 381 1
563 231 594 1
406 273 407 1
311 423 424 1
273 271 407 1
112 148 423 1
275 490 505 1
311 421 423 1
141 469 471 1
365 563 594 1
415 161 554 1
150 534 577 1
421 311 422 1
471 469 589 1
421 111 423 1
188 186 437 1
370 139 432 1
452 222 595 1
139 370 626 1
303 409 647 1
340 549 569 1
575 413 617 1
475 133 486 1
392 154 498 1
266 258 381 1
169 167 375 1
158 575 617 1
409 303 639 1
408 274 438 1
422 185 653 1
206 204 491 1
134 493 544 1
493 134 562 1
419 297 502 1
474 486 487 1
388 408 438 1
166 152 368 1
2 3 163 1
555 448 578 1
535 617 651 1
481 482 571 1
535 158 617 1
567 367 586 1
367 368 586 1
524 376 545 1
369 96 585 1
312 266 381 1
323 415 635 1
96 369 627 1
528 120 603 1
20 147 526 1
381 258 458 1
313 326 451 1
323 166 367 1
428 529 543 1
341 340 569 1
481 571 587 1
529 325 583 1
348 497 623 1
123 382 540 1
282 464 489 1
357 498 657 1
351 316 427 1
367 166 368 1
300 513 552 1
120 528 607 1
407 271 531 1
165 152 166 1
313 294 326 1
351 427 428 1
154 392 395 1
468 467 592 1
368 152 658 1
271 239 531 1
592 467 604 1
432 139 548 1
147 21 404 1
204 282 491 1
349 565 577 1
558 122 580 1
275 206 491 1
278 555 578 1
301 467 620 1
308 499 505 1
319 313 377 1
434 403 527 1
291 370 414 1
288 190 570 1
319 377 378 1
467 301 604 1
119 529 583 1
189 191 589 1
289 434 527 1
428 543 619 1
302 294 313 1
282 489 491 1
163 586 593 1
326 375 376 1
602 194 618 1
167 166 323 1
21 22 404 1
260 224 650 1
258 249 458 1
132 98 634 1
294 169 375 1
217 219 438 1
561 374 568 1
164 152 165 1
404 434 539 1
293 468 592 1
133 475 476 1
115 142 410 1
117 152 164 1
502 297 518 1
534 150 581 1
323 367 415 1
558 580 637 1
414 370 432 1
423 148 424 1
114 115 410 1
545 376 635 1
590 93 597 1
370 391 626 1
150 574 581 1
489 490 491 1
436 502 518 1
382 351 619 1
247 244 430 1
513 383 552 1
432 548 572 1
316 262 508 1
154 395 483 1
113 114 409 1
427 316 508 1
410 142 411 1
444 602 618 1
608 131 610 1
117 118 152 1
440 441 442 1
409 114 410 1
244 242 430 1
219 264 438 1
290 353 412 1
171 169 294 1
164 165 510 1
304 431 450 1
378 377 564 1
499 275 505 1
587 342 610 1
450 436 455 1
302 313 319 1
54 55 514 1
348 308 505 1
165 166 167 1
552 495 631 1
481 587 610 1
133 476 550 1
366 381 433 1
296 295 327 1
245 244 246 1
476 350 550 1
377 313 451 1
25 151 417 1
281 280 295 1
328 327 349 1
243 242 244 1
433 381 458 1
464 282 523 1
239 238 240 1
22 402 404 1
142 116 164 1
110 111 421 1
431 417 450 1
245 246 249 1
243 244 245 1
274 217 438 1
237 238 239 1
249 246 458 1
116 117 164 1
240 242 243 1
151 436 450 1
20 21 147 1
237 236 238 1
20 526 612 1
487 126 646 1
165 168 510 1
404 539 644 1
417 151 450 1
246 247 248 1
261 276 280 1
261 281 433 1
248 259 261 1
261 280 281 1
235 234 236 1
235 236 237 1
468 293 638 1
425 305 426 1
27 418 435 1
439 30 441 1
281 295 296 1
295 322 405 1
233 234 235 1
418 419 502 1
326 294 375 1
233 232 234 1
283 290 412 1
309 350 476 1
240 241 242 1
549 269 569 1
448 460 461 1
347 559 560 1
304 178 501 1
55 120 514 1
53 54 480 1
296 327 328 1
248 433 458 1
231 232 233 1
16 17 588 1
257 258 265 1
231 230 232 1
402 144 403 1
147 525 526 1
318 379 380 1
68 69 129 1
126 487 633 1
257 249 258 1
227 256 449 1
229 230 231 1
148 113 409 1
281 366 433 1
291 346 370 1
327 295 405 1
229 228 230 1
265 266 283 1
152 118 658 1
456 457 472 1
255 239 271 1
481 480 482 1
227 228 229 1
324 412 413 1
265 258 266 1
23 144 402 1
272 271 273 1
586 368 593 1
298 273 300 1
225 227 449 1
276 291 414 1
324 283 412 1
440 439 441 1
295 280 322 1
284 283 324 1
250 249 257 1
317 316 351 1
227 226 228 1
290 312 318 1
171 294 302 1
225 226 227 1
22 23 402 1
283 266 290 1
462 465 488 1
464 488 489 1
390 590 597 1
52 53 131 1
290 318 353 1
225 224 226 1
223 224 225 1
248 261 433 1
318 312 379 1
447 33 460 1
49 124 498 1
246 244 247 1
570 440 648 1
115 116 142 1
411 142 510 1
155 561 568 1
212 215 459 1
223 222 224 1
143 110 421 1
274 408 559 1
221 222 223 1
315 262 316 1
230 254 446 1
70 71 158 1
23 24 144 1
472 457 473 1
385 132 634 1
50 51 429 1
431 304 501 1
242 252 430 1
426 108 636 1
48 49 498 1
221 220 222 1
219 220 221 1
215 274 459 1
47 48 154 1
248 247 259 1
404 402 434 1
465 153 488 1
86 87 130 1
464 462 488 1
326 376 524 1
246 248 458 1
456 310 457 1
261 259 276 1
29 30 439 1
240 238 241 1
219 218 220 1
290 266 312 1
385 479 496 1
226 260 454 1
25 26 151 1
265 283 284 1
36 153 465 1
310 309 476 1
55 56 120 1
418 146 419 1
217 218 219 1
49 50 124 1
220 267 595 1
425 422 653 1
131 53 480 1
81 82 156 1
448 447 460 1
284 324 325 1
112 113 148 1
104 105 466 1
27 28 418 1
28 146 418 1
124 429 628 1
83 84 121 1
288 570 648 1
405 322 572 1
215 216 217 1
217 216 218 1
370 346 391 1
58 59 139 1
236 234 416 1
182 180 455 1
237 239 255 1
242 241 252 1
234 251 416 1
28 29 146 1
91 92 155 1
451 128 556 1
233 235 253 1
42 43 486 1
279 310 456 1
215 214 216 1
234 232 251 1
523 200 542 1
441 145 442 1
212 214 215 1
30 31 441 1
180 304 455 1
44 45 126 1
211 212 459 1
227 229 256 1
32 33 447 1
479 287 496 1
245 249 250 1
379 366 660 1
31 145 441 1
317 351 382 1
89 90 125 1
109 110 143 1
255 271 272 1
253 235 445 1
272 273 298 1
402 403 434 1
223 225 263 1
393 394 507 1
237 255 445 1
125 90 503 1
230 228 254 1
435 418 502 1
31 32 145 1
78 79 123 1
356 359 509 1
124 50 429 1
263 225 449 1
223 263 453 1
307 211 459 1
264 221 453 1
219 221 264 1
250 257 262 1
90 91 503 1
33 34 460 1
333 307 347 1
36 37 153 1
315 316 317 1
41 42 133 1
306 211 307 1
460 140 461 1
133 42 486 1
226 224 260 1
211 210 212 1
153 484 485 1
209 210 211 1
35 36 465 1
221 223 453 1
34 140 460 1
215 217 274 1
265 284 508 1
267 472 473 1
106 107 141 1
143 421 422 1
466 105 470 1
235 237 445 1
34 35 140 1
178 176 501 1
262 257 508 1
136 104 466 1
293 201 492 1
137 415 554 1
94 95 127 1
153 37 484 1
212 213 214 1
209 208 210 1
306 307 333 1
216 456 472 1
461 462 463 1
207 208 209 1
293 492 493 1
182 455 518 1
38 39 135 1
209 211 306 1
220 218 267 1
480 54 514 1
333 347 369 1
477 287 478 1
103 104 136 1
349 327 580 1
550 350 591 1
470 141 471 1
201 203 492 1
205 287 477 1
105 106 470 1
478 287 479 1
205 207 287 1
457 310 475 1
279 309 310 1
38 135 484 1
488 485 489 1
154 48 498 1
156 82 522 1
82 83 522 1
209 306 496 1
153 485 488 1
207 206 208 1
489 485 490 1
60 61 160 1
287 207 496 1
241 238 511 1
203 205 477 1
205 206 207 1
97 98 132 1
216 214 456 1
475 310 476 1
106 141 470 1
321 320 512 1
236 416 511 1
100 101 134 1
203 477 492 1
300 552 631 1
442 443 444 1
37 38 484 1
455 436 518 1
306 385 496 1
212 210 213 1
461 140 462 1
24 25 417 1
131 480 481 1
80 81 494 1
26 27 435 1
76 77 157 1
463 462 464 1
214 279 456 1
199 201 293 1
136 466 467 1
207 209 496 1
243 519 531 1
214 213 279 1
239 240 531 1
340 520 549 1
485 484 497 1
520 430 549 1
498 124 657 1
267 473 596 1
400 399 452 1
205 204 206 1
140 35 465 1
419 420 437 1
208 206 275 1
203 204 205 1
490 485 497 1
130 521 530 1
484 135 497 1
304 450 455 1
473 457 474 1
306 333 385 1
193 195 301 1
281 296 366 1
398 396 399 1
142 164 510 1
354 608 610 1
145 32 447 1
204 202 282 1
73 74 119 1
396 393 507 1
213 210 499 1
201 202 203 1
284 427 508 1
280 276 414 1
203 202 204 1
91 155 503 1
218 216 472 1
210 208 499 1
279 308 309 1
462 140 465 1
358 356 509 1
151 435 436 1
389 387 390 1
208 275 499 1
478 479 500 1
442 145 443 1
103 136 504 1
228 226 454 1
393 358 394 1
146 29 439 1
187 189 305 1
268 241 511 1
232 230 446 1
463 464 523 1
309 348 350 1
199 200 201 1
308 213 499 1
47 154 483 1
201 200 202 1
279 213 308 1
179 424 576 1
198 196 278 1
102 103 504 1
391 57 626 1
136 467 468 1
309 308 348 1
341 569 571 1
427 325 428 1
356 344 359 1
136 468 504 1
395 397 483 1
46 47 483 1
199 198 200 1
426 305 469 1
600 329 631 1
197 198 199 1
257 265 508 1
344 321 512 1
322 414 432 1
62 63 122 1
336 338 365 1
192 190 288 1
276 277 291 1
252 268 269 1
353 318 546 1
419 146 420 1
521 345 530 1
181 183 311 1
267 218 472 1
361 339 364 1
398 399 400 1
443 447 448 1
299 298 329 1
108 426 598 1
595 267 596 1
197 196 198 1
474 457 475 1
269 270 285 1
399 396 507 1
195 196 197 1
314 262 315 1
335 332 345 1
130 87 506 1
443 145 447 1
373 453 659 1
342 343 354 1
186 184 297 1
559 408 560 1
193 194 195 1
17 162 588 1
286 321 342 1
195 194 196 1
144 417 431 1
388 389 408 1
388 387 389 1
394 358 509 1
238 236 511 1
482 480 514 1
507 260 650 1
386 387 388 1
291 292 346 1
87 88 506 1
184 182 518 1
254 228 454 1
193 192 194 1
386 374 387 1
191 192 193 1
151 26 435 1
284 325 427 1
124 628 657 1
143 422 425 1
459 274 559 1
403 501 527 1
175 177 303 1
180 178 304 1
373 374 386 1
364 339 516 1
373 372 374 1
251 232 446 1
409 410 647 1
413 412 617 1
420 439 440 1
371 372 373 1
81 156 494 1
86 130 530 1
398 400 401 1
420 146 439 1
191 190 192 1
436 435 502 1
519 407 531 1
189 190 191 1
397 396 398 1
371 363 372 1
243 245 519 1
403 144 431 1
229 231 563 1
282 202 523 1
322 280 414 1
247 430 520 1
403 431 501 1
168 167 169 1
359 344 512 1
144 24 417 1
362 363 371 1
187 188 189 1
463 523 542 1
317 382 383 1
84 85 515 1
252 241 268 1
189 188 190 1
442 444 648 1
483 397 547 1
272 298 299 1
65 66 150 1
562 504 638 1
395 393 396 1
362 361 363 1
250 262 314 1
395 396 397 1
392 358 393 1
170 169 171 1
187 186 188 1
121 84 515 1
444 618 648 1
185 186 187 1
380 379 649 1
276 259 277 1
360 361 362 1
89 125 532 1
299 329 330 1
392 393 395 1
357 356 358 1
448 461 578 1
357 358 392 1
174 172 289 1
269 268 270 1
360 339 361 1
338 339 360 1
494 156 495 1
285 270 286 1
342 321 343 1
338 337 339 1
336 337 338 1
126 45 547 1
336 335 337 1
445 255 517 1
314 315 406 1
185 184 186 1
334 335 336 1
183 184 185 1
334 332 335 1
493 492 544 1
83 121 522 1
331 332 334 1
355 344 356 1
341 571 643 1
355 356 357 1
171 302 533 1
299 330 331 1
325 324 583 1
331 330 332 1
147 404 644 1
343 321 344 1
477 478 544 1
181 182 183 1
130 506 516 1
183 182 184 1
339 337 516 1
8 9 137 1
286 270 320 1
343 344 355 1
291 277 292 1
303 576 639 1
314 406 407 1
335 345 521 1
516 337 521 1
67 68 537 1
181 180 182 1
347 307 559 1
383 384 552 1
202 200 523 1
297 184 518 1
46 483 547 1
378 564 656 1
286 320 321 1
41 133 550 1
179 180 181 1
315 317 513 1
506 364 516 1
69 70 535 1
130 516 521 1
487 486 633 1
255 272 517 1
515 345 541 1
364 506 532 1
354 429 608 1
406 315 513 1
179 178 180 1
478 500 609 1
252 269 549 1
85 86 530 1
337 335 521 1
506 88 532 1
292 277 340 1
200 198 542 1
411 510 573 1
245 250 519 1
471 301 620 1
532 125 538 1
177 178 179 1
345 332 541 1
292 340 341 1
259 247 520 1
317 383 513 1
345 515 530 1
272 299 517 1
428 325 529 1
511 416 536 1
6 7 161 1
177 176 178 1
328 349 534 1
387 374 561 1
175 176 177 1
515 85 530 1
268 511 536 1
88 89 532 1
170 171 172 1
305 425 653 1
134 101 562 1
240 243 531 1
132 385 641 1
384 123 632 1
250 314 519 1
543 157 619 1
479 385 634 1
289 172 533 1
346 292 528 1
168 169 170 1
302 352 533 1
165 167 168 1
11 12 128 1
319 378 525 1
270 268 536 1
175 174 176 1
443 448 555 1
363 361 538 1
429 51 608 1
615 560 616 1
299 331 517 1
277 259 520 1
174 289 527 1
70 158 535 1
57 391 629 1
649 379 660 1
159 564 655 1
96 97 585 1
102 504 562 1
13 14 159 1
231 233 594 1
68 129 537 1
121 515 541 1
173 174 175 1
524 545 606 1
364 532 538 1
170 172 173 1
75 76 543 1
93 94 597 1
314 407 519 1
135 39 591 1
199 293 592 1
137 545 635 1
467 466 620 1
155 92 590 1
173 172 174 1
336 365 584 1
363 538 551 1
493 562 638 1
302 319 352 1
163 3 613 1
522 566 600 1
445 517 553 1
253 445 553 1
486 43 633 1
318 380 546 1
340 277 520 1
129 69 535 1
501 176 527 1
78 123 540 1
434 289 539 1
286 342 587 1
108 109 636 1
372 363 551 1
292 341 528 1
139 59 548 1
361 364 538 1
405 572 637 1
45 46 547 1
420 440 570 1
120 56 629 1
77 78 540 1
176 174 527 1
52 131 608 1
329 298 631 1
492 477 544 1
617 353 651 1
198 278 542 1
135 591 623 1
517 331 553 1
99 100 609 1
543 529 624 1
366 296 660 1
278 196 602 1
398 401 579 1
59 60 548 1
320 270 536 1
416 251 582 1
187 305 653 1
301 195 604 1
301 471 640 1
44 126 633 1
399 507 650 1
500 99 609 1
172 171 533 1
40 41 550 1
76 157 543 1
175 303 625 1
333 369 641 1
332 330 541 1
430 252 549 1
510 168 573 1
125 503 551 1
9 10 545 1
429 354 628 1
121 541 566 1
162 612 614 1
470 471 620 1
538 125 551 1
157 77 540 1
533 352 539 1
372 551 568 1
495 600 631 1
177 179 576 1
374 372 568 1
494 384 632 1
57 58 626 1
194 192 618 1
158 71 575 1
80 494 632 1
444 443 555 1
260 507 654 1
365 338 622 1
425 426 636 1
514 120 607 1
60 160 548 1
474 487 599 1
7 8 554 1
307 459 559 1
331 334 553 1
256 229 563 1
574 537 581 1
72 73 557 1
126 547 579 1
168 170 573 1
156 522 600 1
101 102 562 1
160 61 558 1
61 62 558 1
141 107 598 1
586 163 613 1
525 378 526 1
390 387 561 1
541 330 566 1
469 141 598 1
289 533 539 1
461 463 578 1
73 119 557 1
548 160 572 1
253 553 584 1
143 425 636 1
354 343 628 1
346 528 603 1
12 13 556 1
127 615 616 1
561 155 590 1
269 285 569 1
408 389 560 1
40 550 591 1
536 416 582 1
352 319 525 1
327 405 580 1
322 432 572 1
551 503 568 1
63 64 565 1
582 251 605 1
413 557 583 1
584 365 594 1
123 79 632 1
564 377 655 1
437 420 570 1
71 72 575 1
522 121 566 1
320 536 582 1
107 108 598 1
503 155 568 1
415 137 635 1
66 67 574 1
440 442 648 1
553 334 584 1
446 254 621 1
324 413 583 1
625 303 647 1
555 278 602 1
330 329 566 1
389 390 616 1
571 285 587 1
193 301 640 1
512 320 582 1
62 122 558 1
95 96 627 1
449 256 630 1
128 524 606 1
412 353 617 1
122 63 565 1
566 329 600 1
97 132 585 1
497 135 623 1
473 474 599 1
137 9 545 1
303 177 576 1
369 585 641 1
563 365 622 1
64 65 577 1
251 446 605 1
119 74 624 1
92 93 590 1
397 398 579 1
15 16 138 1
424 148 639 1
8 137 554 1
557 119 583 1
411 573 625 1
547 397 579 1
39 40 591 1
605 446 621 1
334 336 584 1
603 120 629 1
170 173 573 1
67 537 574 1
14 15 611 1
197 199 592 1
591 350 623 1
453 263 659 1
285 286 587 1
557 413 575 1
529 119 624 1
263 449 652 1
293 493 638 1
400 452 595 1
94 127 597 1
463 542 578 1
233 253 594 1
4 5 149 1
150 66 574 1
454 260 654 1
65 150 577 1
256 622 630 1
149 567 586 1
451 556 655 1
512 582 605 1
51 52 608 1
351 428 619 1
197 592 604 1
128 12 556 1
400 595 596 1
401 400 596 1
5 6 601 1
75 543 624 1
542 278 578 1
263 652 659 1
426 469 598 1
10 11 606 1
449 630 652 1
377 451 655 1
621 254 645 1
72 557 575 1
353 546 651 1
196 194 602 1
352 525 644 1
342 354 610 1
127 95 627 1
161 7 554 1
195 197 604 1
149 586 613 1
11 128 606 1
254 454 645 1
100 134 609 1
525 147 644 1
369 347 615 1
56 57 629 1
580 405 637 1
391 346 603 1
3 4 613 1
645 454 654 1
537 129 642 1
495 156 600 1
528 341 643 1
13 159 556 1
509 359 621 1
253 584 594 1
129 546 642 1
131 481 610 1
74 75 624 1
79 80 632 1
466 470 620 1
545 10 606 1
573 173 625 1
359 605 621 1
569 285 571 1
138 16 588 1
482 514 607 1
579 401 646 1
159 14 611 1
298 300 631 1
148 409 639 1
350 348 623 1
191 193 640 1
347 560 615 1
43 44 633 1
192 288 618 1
359 512 605 1
572 160 637 1
390 561 590 1
338 360 622 1
256 563 622 1
6 161 601 1
390 597 616 1
452 399 650 1
129 535 651 1
526 378 614 1
509 621 645 1
507 394 654 1
565 64 577 1
444 555 602 1
1 163 593 1
622 360 630 1
581 537 642 1
599 487 646 1
410 411 647 1
385 333 641 1
500 479 634 1
360 362 630 1
58 139 626 1
546 129 651 1
109 143 636 1
504 468 638 1
296 328 660 1
343 355 628 1
394 645 654 1
173 175 625 1
630 362 652 1
596 473 599 1
401 599 646 1
185 187 653 1
362 371 652 1
652 371 659 1
612 526 614 1
371 373 659 1
628 355 657 1
411 625 647 1
607 528 643 1
394 509 645 1
355 357 657 1
560 389 616 1
593 368 658 1
328 649 660 1
618 288 648 1
564 159 611 1
161 567 601 1
576 424 639 1
138 564 611 1
401 596 599 1
546 380 642 1
567 149 601 1
539 352 644 1
534 581 649 1
126 579 646 1
585 132 641 1
160 558 637 1
328 534 649 1
589 191 640 1
581 380 649 1
615 127 627 1
15 138 611 1
18 19 162 1
597 127 616 1
564 138 656 1
588 162 614 1
391 603 629 1
571 482 643 1
1 2 163 1
380 581 642 1
162 19 612 1
588 614 656 1
471 589 640 1
149 5 601 1
138 588 656 1
369 615 627 1
556 159 655 1
482 607 643 1
4 149 613 1
614 378 656 1
118 593 658 1
118 1 593 1
19 20 612 1

End
