MeshVersionFormatted 2
Dimension 3

Vertices
916
6.1661595077092332e-02 -9.7415619828036579e-02 0.0000000000000000e+00 1
6.6360423900971924e-02 -9.6361412252911574e-02 0.0000000000000000e+00 1
7.1385313995428565e-02 -9.4654864852861578e-02 0.0000000000000000e+00 1
7.6700191713762383e-02 -9.2335287947995559e-02 0.0000000000000000e+00 1
8.2268983409273591e-02 -8.9441991858422484e-02 0.0000000000000000e+00 1
8.8055615435262358e-02 -8.6014286904251377e-02 0.0000000000000000e+00 1
9.4024014145028839e-02 -8.2091483405591179e-02 0.0000000000000000e+00 1
1.0013810589187326e-01 -7.7712891682550855e-02 0.0000000000000000e+00 1
1.0636181702909572e-01 -7.2917822055239362e-02 0.0000000000000000e+00 1
1.1265907390999649e-01 -6.7745584843765777e-02 0.0000000000000000e+00 1
1.1899380288787563e-01 -6.2235490368238944e-02 0.0000000000000000e+00 1
1.2532993031603346e-01 -5.6426848948767927e-02 0.0000000000000000e+00 1
1.3163138254776999e-01 -5.0358970905461653e-02 0.0000000000000000e+00 1
1.3786208593638552e-01 -4.4071166558429131e-02 0.0000000000000000e+00 1
1.4398596683518020e-01 -3.7602746227779330e-02 0.0000000000000000e+00 1
1.4996695159745413e-01 -3.0993020233621209e-02 0.0000000000000000e+00 1
1.5576896657650760e-01 -2.4281298896063754e-02 0.0000000000000000e+00 1
1.6135593812564072e-01 -1.7506892535215937e-02 0.0000000000000000e+00 1
1.6669179259815370e-01 -1.0709111471186739e-02 0.0000000000000000e+00 1
1.7174045634734664e-01 -3.9272660240851362e-03 0.0000000000000000e+00 1
1.7646585572651979e-01 2.7993334859799093e-03 0.0000000000000000e+00 1
1.8083191708897331e-01 9.4313767388993983e-03 0.0000000000000000e+00 1
1.8480256678800736e-01 1.5929553414564378e-02 0.0000000000000000e+00 1
1.8834173117692216e-01 2.2254553192865869e-02 0.0000000000000000e+00 1
1.9141333660901777e-01 2.8367065753694864e-02 0.0000000000000000e+00 1
1.9398130943759451e-01 3.4227780776942433e-02 0.0000000000000000e+00 1
1.9600957601595248e-01 3.9797387942499582e-02 0.0000000000000000e+00 1
1.9746206269739186e-01 4.5036576930257338e-02 0.0000000000000000e+00 1
1.9830269583521284e-01 4.9906037420106714e-02 0.0000000000000000e+00 1
1.9849540178271557e-01 5.4366459091938754e-02 0.0000000000000000e+00 1
1.9800410689320025e-01 5.8378531625644450e-02 0.0000000000000000e+00 1
1.9679273751996706e-01 6.1902944701114876e-02 0.0000000000000000e+00 1
1.9482522001631619e-01 6.4900387998241008e-02 0.0000000000000000e+00 1
1.9206548073554772e-01 6.7331551196913905e-02 0.0000000000000000e+00 1
1.8847744603096195e-01 6.9157123977024573e-02 0.0000000000000000e+00 1
1.8262295967251599e-01 7.1205210807437108e-02 0.0000000000000000e+00 1
1.7634016609128350e-01 7.3111936594754748e-02 0.0000000000000000e+00 1
1.6964984885299500e-01 7.4876879067147878e-02 0.0000000000000000e+00 1
1.6257279152338117e-01 7.6499615952786870e-02 0.0000000000000000e+00 1
1.5512977766817274e-01 7.7979724979842152e-02 0.0000000000000000e+00 1
1.4734159085310036e-01 7.9316783876484151e-02 0.0000000000000000e+00 1
1.3922901464389462e-01 8.0510370370883183e-02 0.0000000000000000e+00 1
1.3081283260628623e-01 8.1560062191209717e-02 0.0000000000000000e+00 1
1.2211382830600592e-01 8.2465437065634167e-02 0.0000000000000000e+00 1
1.1315278530878416e-01 8.3226072722326877e-02 0.0000000000000000e+00 1
1.0395048718035174e-01 8.3841546889458218e-02 0.0000000000000000e+00 1
9.4527717486439358e-02 8.4311437295198674e-02 0.0000000000000000e+00 1
8.4905259792777493e-02 8.4635321667718602e-02 0.0000000000000000e+00 1
7.5103897665097022e-02 8.4812777735188430e-02 0.0000000000000000e+00 1
6.5144414669128459e-02 8.4843383225778515e-02 0.0000000000000000e+00 1
5.5047594370602498e-02 8.4726715867659258e-02 0.0000000000000000e+00 1
4.4834220335249864e-02 8.4462353389001099e-02 0.0000000000000000e+00 1
3.4525076128801103e-02 8.4049873517974397e-02 0.0000000000000000e+00 1
2.4140945316986927e-02 8.3488853982749536e-02 0.0000000000000000e+00 1
1.3702611465538007e-02 8.2778872511497015e-02 0.0000000000000000e+00 1
3.2308581401849883e-03 8.1919506832387121e-02 0.0000000000000000e+00 1
-7.2535310933415018e-03 8.0910334673590267e-02 0.0000000000000000e+00 1
-1.7729772669310726e-02 7.9750933763276965e-02 0.0000000000000000e+00 1
-2.8177083021992091e-02 7.8440881829617462e-02 0.0000000000000000e+00 1
-3.8574678585654928e-02 7.6979756600782198e-02 0.0000000000000000e+00 1
-4.8901775794568614e-02 7.5367135804941657e-02 0.0000000000000000e+00 1
-5.9137591083002358e-02 7.3602597170266154e-02 0.0000000000000000e+00 1
-6.9261340885225647e-02 7.1685718424926118e-02 0.0000000000000000e+00 1
-7.9252241635507800e-02 6.9616077297091905e-02 0.0000000000000000e+00 1
-8.9089509768118094e-02 6.7393251514933999e-02 0.0000000000000000e+00 1
-9.8752361717325848e-02 6.5016818806622731e-02 0.0000000000000000e+00 1
-1.0822001391740053e-01 6.2486356900328527e-02 0.0000000000000000e+00 1
-1.1747168280261140e-01 5.9801443524221773e-02 0.0000000000000000e+00 1
-1.2648658480722774e-01 5.6961656406472869e-02 0.0000000000000000e+00 1
-1.3524393636551901e-01 5.3966573275252228e-02 0.0000000000000000e+00 1
-1.4372295391175452e-01 5.0815771858730222e-02 0.0000000000000000e+00 1
-1.5190285388020361e-01 4.7508829885077278e-02 0.0000000000000000e+00 1
-1.5976285270513554e-01 4.4045325082463796e-02 0.0000000000000000e+00 1
-1.6728216682081978e-01 4.0424835179060148e-02 0.0000000000000000e+00 1
-1.7444001266152553e-01 3.6646937903036747e-02 0.0000000000000000e+00 1
-1.8121560666152228e-01 3.2711210982564014e-02 0.0000000000000000e+00 1
-1.8758816525507932e-01 2.8617232145812303e-02 0.0000000000000000e+00 1
-1.9353690487646591e-01 2.4364579120952041e-02 0.0000000000000000e+00 1
-1.9904104195995151e-01 1.9952829636153621e-02 0.0000000000000000e+00 1
-2.0407979293980533e-01 1.5381561419587467e-02 0.0000000000000000e+00 1
-2.0863237425029682e-01 1.0650352199423934e-02 0.0000000000000000e+00 1
-2.1267800232569534e-01 5.7587797038334389e-03 0.0000000000000000e+00 1
-2.1535470016327576e-01 1.5399395240431575e-03 0.0000000000000000e+00 1
-2.1699410373075445e-01 -2.6800143004615876e-03 0.0000000000000000e+00 1
-2.1763950068195453e-01 -6.8943562787357497e-03 0.0000000000000000e+00 1
-2.1733417867069918e-01 -1.1096360919834286e-02 0.0000000000000000e+00 1
-2.1612142535081166e-01 -1.5279302732812160e-02 0.0000000000000000e+00 1
-2.1404452837611515e-01 -1.9436456226724328e-02 0.0000000000000000e+00 1
-2.1114677540043292e-01 -2.3561095910625739e-02 0.0000000000000000e+00 1
-2.0747145407758832e-01 -2.7646496293571365e-02 0.0000000000000000e+00 1
-2.0306185206140431e-01 -3.1685931884616145e-02 0.0000000000000000e+00 1
-1.9796125700570422e-01 -3.5672677192815042e-02 0.0000000000000000e+00 1
-1.9221295656431134e-01 -3.9600006727223032e-02 0.0000000000000000e+00 1
-1.8586023839104876e-01 -4.3461194996895040e-02 0.0000000000000000e+00 1
-1.7894639013973990e-01 -4.7249516510886054e-02 0.0000000000000000e+00 1
-1.7151469946420772e-01 -5.0958245778251005e-02 0.0000000000000000e+00 1
-1.6360845401827570e-01 -5.4580657308044872e-02 0.0000000000000000e+00 1
-1.5527094145576689e-01 -5.8110025609322616e-02 0.0000000000000000e+00 1
-1.4654544943050457e-01 -6.1539625191139161e-02 0.0000000000000000e+00 1
-1.3747526559631196e-01 -6.4862730562549500e-02 0.0000000000000000e+00 1
-1.2810367760701216e-01 -6.8072616232608560e-02 0.0000000000000000e+00 1
-1.1847397311642867e-01 -7.1162556710371319e-02 0.0000000000000000e+00 1
-1.0862943977838449e-01 -7.4125826504892731e-02 0.0000000000000000e+00 1
-9.8613365246702861e-02 -7.6955700125227761e-02 0.0000000000000000e+00 1
-8.8469037175207058e-02 -7.9645452080431348e-02 0.0000000000000000e+00 1
-7.8239743217720259e-02 -8.2188356879558458e-02 0.0000000000000000e+00 1
-6.7968771028065769e-02 -8.4577689031664058e-02 0.0000000000000000e+00 1
-5.7699408260066698e-02 -8.6806723045803086e-02 0.0000000000000000e+00 1
-4.7474942567546322e-02 -8.8868733431030508e-02 0.0000000000000000e+00 1
-3.7338661604327847e-02 -9.0756994696401291e-02 0.0000000000000000e+00 1
-2.7333853024234505e-02 -9.2464781350970374e-02 0.0000000000000000e+00 1
-1.7503804481089565e-02 -9.3985367903792735e-02 0.0000000000000000e+00 1
-7.8918036287161479e-03 -9.5312028863923315e-02 0.0000000000000000e+00 1
1.4588618790624813e-03 -9.6438038740417079e-02 0.0000000000000000e+00 1
1.0504904388423091e-02 -9.7356672042328979e-02 0.0000000000000000e+00 1
1.9203036245542461e-02 -9.8061203278713968e-02 0.0000000000000000e+00 1
2.7509969796597342e-02 -9.8544906958627013e-02 0.0000000000000000e+00 1
3.5382417387764584e-02 -9.8801057591123079e-02 0.0000000000000000e+00 1
4.2777091365220926e-02 -9.8822929685257105e-02 0.0000000000000000e+00 1
4.9650704075143159e-02 -9.8603797750084057e-02 0.0000000000000000e+00 1
5.5959967863708035e-02 -9.8136936294658902e-02 0.0000000000000000e+00 1
8.8055702949508610e-02 -7.9659169749501962e-02 0.0000000000000000e+00 1
3.1702836847843863e-02 -9.2331029956089522e-02 0.0000000000000000e+00 1
4.0063047859350512e-02 7.5430463752237886e-02 0.0000000000000000e+00 1
-1.1578842543571968e-02 -8.6492033754367564e-02 0.0000000000000000e+00 1
1.1664433218113909e-01 -5.3671753058551222e-02 0.0000000000000000e+00 1
-1.1384418658246997e-03 7.2346332426197452e-02 0.0000000000000000e+00 1
-4.2410349371989536e-02 6.7741880487573986e-02 0.0000000000000000e+00 1
8.0326368154258518e-02 7.5132037499688956e-02 0.0000000000000000e+00 1
-5.0872193591467427e-02 -7.9190290441321601e-02 0.0000000000000000e+00 1
-8.2465042672933128e-02 6.0841621338585297e-02 0.0000000000000000e+00 1
1.4178493394313954e-01 -2.8952453648178229e-02 0.0000000000000000e+00 1
-1.2023223512860853e-01 5.0693022822268327e-02 0.0000000000000000e+00 1
-1.0110546490276807e-01 -6.6411157610842736e-02 0.0000000000000000e+00 1
1.1788442917787095e-01 7.5404566242609022e-02 0.0000000000000000e+00 1
5.7701372216946802e-02 -9.2453417057450138e-02 0.0000000000000000e+00 1
-1.5399766263484749e-01 3.8908826633167810e-02 0.0000000000000000e+00 1
-1.3895383481065285e-01 -5.6089761477577278e-02 0.0000000000000000e+00 1
1.6306060658018923e-01 -2.9950415053219964e-03 0.0000000000000000e+00 1
-1.8070024696636183e-01 2.5246986027120277e-02 0.0000000000000000e+00 1
1.8086350037049909e-01 2.2221964244032773e-02 0.0000000000000000e+00 1
-1.7265531428366171e-01 -4.3194284010513867e-02 0.0000000000000000e+00 1
1.5029905600564478e-01 7.2309970200425872e-02 0.0000000000000000e+00 1
-2.0259508016501637e-01 -2.6680188230512693e-02 0.0000000000000000e+00 1
1.9293190611127536e-01 4.4288898492124126e-02 0.0000000000000000e+00 1
1.7178997386313127e-01 6.8410909506456632e-02 0.0000000000000000e+00 1
-1.9809626231015603e-01 1.3808579471331989e-02 0.0000000000000000e+00 1
1.9375726726623804e-01 5.8756604970193832e-02 0.0000000000000000e+00 1
-2.1401068647405244e-01 -5.3054128301090230e-03 0.0000000000000000e+00 1
7.1907025706117539e-02 -8.9221593966436946e-02 0.0000000000000000e+00 1
1.8399566616581908e-01 6.5970111771716050e-02 0.0000000000000000e+00 1
-3.0290002140526663e-02 -8.1806048886818028e-02 0.0000000000000000e+00 1
1.5156011769553127e-02 -8.9596841104446795e-02 0.0000000000000000e+00 1
6.0179220595131380e-02 7.6150200447938438e-02 0.0000000000000000e+00 1
9.9719976362516533e-02 7.6795344048049163e-02 0.0000000000000000e+00 1
1.9524741975524024e-02 7.4631771584585796e-02 0.0000000000000000e+00 1
1.3412694869345948e-01 7.3867535618998739e-02 0.0000000000000000e+00 1
-1.2021966678661791e-01 -6.1543770599960454e-02 0.0000000000000000e+00 1
-7.1766585896426857e-02 -7.5375986334673239e-02 0.0000000000000000e+00 1
-2.2005964004226483e-02 7.0251429388337006e-02 0.0000000000000000e+00 1
-6.2569686017472731e-02 6.3900242253713074e-02 0.0000000000000000e+00 1
-1.5718260390196193e-01 -4.9303525353081031e-02 0.0000000000000000e+00 1
-1.0074944442930313e-01 5.6153634693815443e-02 0.0000000000000000e+00 1
1.2996881120080081e-01 -4.1952546813160636e-02 0.0000000000000000e+00 1
1.5320634844193032e-01 -1.5628481498949416e-02 0.0000000000000000e+00 1
4.6031720689936141e-02 -9.2998932593949604e-02 0.0000000000000000e+00 1
1.7302288022304077e-01 9.8191138623778193e-03 0.0000000000000000e+00 1
1.0499825021760802e-01 -6.4941468665743907e-02 0.0000000000000000e+00 1
-1.3637779224082933e-01 4.5281911972147239e-02 0.0000000000000000e+00 1
-1.8661207904196919e-01 -3.7395510556331488e-02 0.0000000000000000e+00 1
-1.6764721021680129e-01 3.2277358812269986e-02 0.0000000000000000e+00 1
-2.1138594630419311e-01 -1.5309344513931867e-02 0.0000000000000000e+00 1
-2.0729999984235048e-01 4.9071721322722431e-03 0.0000000000000000e+00 1
1.8714814367219618e-01 3.4317141873960705e-02 0.0000000000000000e+00 1
1.9514664980727653e-01 5.1966185444940347e-02 0.0000000000000000e+00 1
1.9136634082891441e-01 6.3755978168319280e-02 0.0000000000000000e+00 1
1.7830281099191780e-01 6.7158485590321629e-02 0.0000000000000000e+00 1
1.7410411900704564e-01 6.2139496800590666e-02 0.0000000000000000e+00 1
1.6737390684484790e-01 6.3018698033493012e-02 0.0000000000000000e+00 1
1.7003762898118907e-01 5.6546385163143517e-02 0.0000000000000000e+00 1
1.6297250488986342e-01 5.7418243454601295e-02 0.0000000000000000e+00 1
1.6581334447875742e-01 5.0729082207219035e-02 0.0000000000000000e+00 1
1.5844276071372282e-01 5.1601177934914921e-02 0.0000000000000000e+00 1
1.6149354738564761e-01 4.4585404295827365e-02 0.0000000000000000e+00 1
1.5376268707008317e-01 4.5538419162692231e-02 0.0000000000000000e+00 1
1.5693223743413445e-01 3.8264547751036590e-02 0.0000000000000000e+00 1
1.4893511085644379e-01 3.9248666337936729e-02 0.0000000000000000e+00 1
1.5211999053933323e-01 3.1864191587033353e-02 0.0000000000000000e+00 1
1.4398887457256171e-01 3.2813967234237490e-02 0.0000000000000000e+00 1
1.4077533969835732e-01 4.0426397002174833e-02 0.0000000000000000e+00 1
1.3571991064016997e-01 3.4045818103066297e-02 0.0000000000000000e+00 1
1.3896807300422120e-01 2.6164417042310900e-02 0.0000000000000000e+00 1
1.3049866999004645e-01 2.7013428294971976e-02 0.0000000000000000e+00 1
1.2740763269281197e-01 3.5357784731629059e-02 0.0000000000000000e+00 1
1.2198296324568765e-01 2.8095509838919001e-02 0.0000000000000000e+00 1
1.2512734994370800e-01 1.9896867051181686e-02 0.0000000000000000e+00 1
1.1663577737542548e-01 2.1082850512510371e-02 0.0000000000000000e+00 1
1.1339457484759707e-01 2.9208869582026970e-02 0.0000000000000000e+00 1
1.0797855430080185e-01 2.2192578023249077e-02 0.0000000000000000e+00 1
1.1124213976014487e-01 1.4208933337534688e-02 0.0000000000000000e+00 1
1.0263080217407178e-01 1.5200452005163258e-02 0.0000000000000000e+00 1
9.9232510790572465e-02 2.3324523696217826e-02 0.0000000000000000e+00 1
9.3892195523105917e-02 1.6278790136298321e-02 0.0000000000000000e+00 1
9.7322669993176569e-02 8.1503657841658379e-03 0.0000000000000000e+00 1
8.8557956763609474e-02 9.2248626394529597e-03 0.0000000000000000e+00 1
9.2001008351474373e-02 1.0656534789149443e-03 0.0000000000000000e+00 1
8.3220457792759217e-02 2.1175462960998895e-03 0.0000000000000000e+00 1
7.9771208174832076e-02 1.0284787013591061e-02 0.0000000000000000e+00 1
7.4462083395895634e-02 3.1681073684242320e-03 0.0000000000000000e+00 1
7.7876360742001244e-02 -5.0381449683154864e-03 0.0000000000000000e+00 1
6.9038371108471788e-02 -3.9911952938699608e-03 0.0000000000000000e+00 1
6.5312351611916689e-02 3.8742170436051834e-03 0.0000000000000000e+00 1
6.0107498902970173e-02 -2.9910125221042014e-03 0.0000000000000000e+00 1
6.3661590776027593e-02 -1.1202802237313486e-02 0.0000000000000000e+00 1
5.4759478957965610e-02 -1.0184460974040861e-02 0.0000000000000000e+00 1
5.1081028584752643e-02 -1.9427686341037930e-03 0.0000000000000000e+00 1
4.5667739697994265e-02 -9.2152596953536288e-03 0.0000000000000000e+00 1
4.1873155591207925e-02 -1.0034271278709607e-03 0.0000000000000000e+00 1
3.6368844018117477e-02 -8.2824469076416430e-03 0.0000000000000000e+00 1
5.8420314109890743e-02 -1.8379757724857358e-02 0.0000000000000000e+00 1
3.2531353081184676e-02 -5.9419951134325605e-05 0.0000000000000000e+00 1
2.6960775753956518e-02 -7.3801039886919485e-03 0.0000000000000000e+00 1
2.3153039210755649e-02 1.4418579341276593e-03 0.0000000000000000e+00 1
1.7454530128435636e-02 -6.3665467200665436e-03 0.0000000000000000e+00 1
3.0784951231241583e-02 -1.5970040708019023e-02 0.0000000000000000e+00 1
1.3503968730603666e-02 2.1260665903453297e-03 0.0000000000000000e+00 1
7.7921029769293286e-03 -5.4074225555078587e-03 0.0000000000000000e+00 1
3.8370847228867636e-03 3.5833252962397624e-03 0.0000000000000000e+00 1
-1.9945425569634304e-03 -4.3651243121750694e-03 0.0000000000000000e+00 1
-5.9696049666699696e-03 4.7750649748301887e-03 0.0000000000000000e+00 1
-1.1865244496360616e-02 -3.3440798480178641e-03 0.0000000000000000e+00 1
2.0338234202867964e-03 -1.3321647951376258e-02 0.0000000000000000e+00 1
-1.5877348339830649e-02 5.9223758307388793e-03 0.0000000000000000e+00 1
-2.1812462393862045e-02 -2.2171858794884456e-03 0.0000000000000000e+00 1
-2.5866707807811241e-02 7.0414192650290900e-03 0.0000000000000000e+00 1
-3.1830142026507968e-02 -1.0872092036814450e-03 0.0000000000000000e+00 1
-2.7747239615797357e-02 -1.0351375493963744e-02 0.0000000000000000e+00 1
-3.7786811301254199e-02 -9.1760951787879762e-03 0.0000000000000000e+00 1
-4.1882586840137251e-02 2.4578878167338253e-05 0.0000000000000000e+00 1
-4.7849297855481795e-02 -8.0812682842630549e-03 0.0000000000000000e+00 1
-5.1958551739160898e-02 1.1148623158147319e-03 0.0000000000000000e+00 1
-5.7926434127738083e-02 -7.0067669065870435e-03 0.0000000000000000e+00 1
3.7650064143589394e-02 6.2877164091305424e-03 0.0000000000000000e+00 1
-6.2040263894465250e-02 2.1952225715077406e-03 0.0000000000000000e+00 1
-6.7985140048849979e-02 -5.9123778996473505e-03 0.0000000000000000e+00 1
-7.2110854424020987e-02 3.2866539838983235e-03 0.0000000000000000e+00 1
-7.8004317332932852e-02 -4.8412917812057019e-03 0.0000000000000000e+00 1
9.0483357877868178e-03 1.0391953257490719e-02 0.0000000000000000e+00 1
-8.2077766231159893e-02 4.2764168143591148e-03 0.0000000000000000e+00 1
-8.7930395489924346e-02 -3.6844545555604633e-03 0.0000000000000000e+00 1
-3.3555675373880801e-02 -1.8512544907979787e-02 0.0000000000000000e+00 1
-7.3963252479790006e-02 -1.4099291748801817e-02 0.0000000000000000e+00 1
-9.1992662816857612e-02 5.5444204309986339e-03 0.0000000000000000e+00 1
-9.7772523082091722e-02 -2.5439946918695369e-03 0.0000000000000000e+00 1
-1.0180181789624010e-01 6.9173023290312313e-03 0.0000000000000000e+00 1
-1.0750590063456780e-01 -1.4400898851411456e-03 0.0000000000000000e+00 1
-1.0337117425157696e-01 -1.0643050370932203e-02 0.0000000000000000e+00 1
-1.1310556928776862e-01 -9.6250431081543256e-03 0.0000000000000000e+00 1
-1.1704909560586819e-01 -5.8966528583693232e-04 0.0000000000000000e+00 1
-1.2259764869883338e-01 -7.7521933071231690e-03 0.0000000000000000e+00 1
-1.9880653495224870e-02 1.5173557716795790e-02 0.0000000000000000e+00 1
-5.6130079871755695e-02 1.0449699831492659e-02 0.0000000000000000e+00 1
-1.2649151686235383e-01 -1.3573680754819513e-04 0.0000000000000000e+00 1
-1.3188125790634159e-01 -6.5875561004593974e-03 0.0000000000000000e+00 1
-1.3568593239608490e-01 7.1423958901165345e-04 0.0000000000000000e+00 1
-1.4099663402883075e-01 -5.9827032963207516e-03 0.0000000000000000e+00 1
-8.6179166246668965e-02 1.3895689112956643e-02 0.0000000000000000e+00 1
-1.1965257670975005e-01 -1.7615989092034833e-02 0.0000000000000000e+00 1
-1.4463445170480468e-01 1.6758811767596743e-03 0.0000000000000000e+00 1
-1.4989023414298483e-01 -4.9936119934664586e-03 0.0000000000000000e+00 1
6.7220376915143085e-02 -1.9306878949587103e-02 0.0000000000000000e+00 1
6.2051622384737083e-02 -2.6354258987865545e-02 0.0000000000000000e+00 1
7.0653234469834875e-02 -2.7264670585974666e-02 0.0000000000000000e+00 1
6.5579592386235813e-02 -3.4195495635311053e-02 0.0000000000000000e+00 1
7.3961462451224036e-02 -3.5099212408164458e-02 0.0000000000000000e+00 1
6.8971207146488245e-02 -4.1817083931423152e-02 0.0000000000000000e+00 1
6.0759639623498299e-02 -4.0936400164562271e-02 0.0000000000000000e+00 1
6.4093061333811679e-02 -4.8456319171008733e-02 0.0000000000000000e+00 1
5.6032108509600088e-02 -4.7641964162711214e-02 0.0000000000000000e+00 1
5.9295881417714857e-02 -5.5034184006312763e-02 0.0000000000000000e+00 1
5.1268086923084794e-02 -5.4166911922025981e-02 0.0000000000000000e+00 1
7.1848267128646337e-02 -4.9578432109765688e-02 0.0000000000000000e+00 1
-1.3647141059725046e-01 -1.4100143534362466e-02 0.0000000000000000e+00 1
7.9128282983054118e-02 -2.8303100331395104e-02 0.0000000000000000e+00 1
8.2268625442146609e-02 -3.6058316245198591e-02 0.0000000000000000e+00 1
8.7423173910609220e-02 -2.9374771170234393e-02 0.0000000000000000e+00 1
-1.2234329256267433e-01 8.5613576535616357e-03 0.0000000000000000e+00 1
1.0040790283432305e-01 -2.7728587513527767e-04 0.0000000000000000e+00 1
5.4626361661639741e-02 -6.1495080576119368e-02 0.0000000000000000e+00 1
4.6583931374816215e-02 -6.0744001940430982e-02 0.0000000000000000e+00 1
4.3088839306609686e-02 -5.3525526533380892e-02 0.0000000000000000e+00 1
3.8216523261508886e-02 -6.0048050343931771e-02 0.0000000000000000e+00 1
3.4704257693496846e-02 -5.2595203723469097e-02 0.0000000000000000e+00 1
2.9710371874875324e-02 -5.9304181664779521e-02 0.0000000000000000e+00 1
2.6191817628517307e-02 -5.0913422710997691e-02 0.0000000000000000e+00 1
2.1039245721527201e-02 -5.8379484574609682e-02 0.0000000000000000e+00 1
1.7404648538113909e-02 -4.9793249051562585e-02 0.0000000000000000e+00 1
9.0405803205878002e-02 2.4438160999991541e-02 0.0000000000000000e+00 1
-5.3248996789910477e-02 -1.6331456185181534e-02 0.0000000000000000e+00 1
1.2110646754287618e-02 -5.7546812976432063e-02 0.0000000000000000e+00 1
8.3508705860468845e-03 -4.8928503086009073e-02 0.0000000000000000e+00 1
9.5859833550044488e-02 3.1592215043546645e-02 0.0000000000000000e+00 1
8.6888402691056757e-02 3.2709783017769861e-02 0.0000000000000000e+00 1
-1.5345498235377100e-01 2.2873669734534184e-03 0.0000000000000000e+00 1
-1.5839229409094122e-01 -4.0732875748913456e-03 0.0000000000000000e+00 1
-1.5507689768806016e-01 -1.1707591059379956e-02 0.0000000000000000e+00 1
-1.6335123368224269e-01 -1.0607129649329000e-02 0.0000000000000000e+00 1
-1.6657659657159793e-01 -3.1783796239575461e-03 0.0000000000000000e+00 1
-1.7137666349738906e-01 -9.4850152277242625e-03 0.0000000000000000e+00 1
2.9496873893456736e-03 -5.6615666444241410e-02 0.0000000000000000e+00 1
-9.0589966116080682e-04 -4.7927594279598792e-02 0.0000000000000000e+00 1
-1.3945424126940062e-01 9.1418479954048903e-03 0.0000000000000000e+00 1
6.2391927868611752e-02 -6.2272205638823616e-02 0.0000000000000000e+00 1
9.2455761563252775e-02 3.9975596954176386e-02 0.0000000000000000e+00 1
8.3382457725728790e-02 4.1132528227644759e-02 0.0000000000000000e+00 1
7.7796843982420830e-02 3.3805798412486550e-02 0.0000000000000000e+00 1
7.4224778102163907e-02 4.2340191045286857e-02 0.0000000000000000e+00 1
6.8621463320735265e-02 3.4931270831816699e-02 0.0000000000000000e+00 1
6.4920632412940243e-02 4.3341139226780789e-02 0.0000000000000000e+00 1
5.9209178475519306e-02 3.5946279862829340e-02 0.0000000000000000e+00 1
-6.4159972087454685e-03 -5.5758234195366747e-02 0.0000000000000000e+00 1
-1.0370124724343847e-02 -4.7207856915876791e-02 0.0000000000000000e+00 1
5.2584969013082308e-02 -4.0154031671542571e-02 0.0000000000000000e+00 1
-1.7453377462829536e-01 -2.2363421256713107e-03 0.0000000000000000e+00 1
-1.7908312276010757e-01 -8.3895082192847487e-03 0.0000000000000000e+00 1
5.5496621833050763e-02 4.4531029512498883e-02 0.0000000000000000e+00 1
4.9706552200492471e-02 3.7035446400919034e-02 0.0000000000000000e+00 1
9.0625548444732265e-02 -3.7102259816529148e-02 0.0000000000000000e+00 1
9.5762890160947287e-02 -3.0389415332015397e-02 0.0000000000000000e+00 1
-1.5939453496297749e-02 -5.5151399844678303e-02 0.0000000000000000e+00 1
1.3841198416312787e-02 -4.1054475766228601e-02 0.0000000000000000e+00 1
4.6024942423479757e-02 4.6067301949008717e-02 0.0000000000000000e+00 1
4.0093600868900597e-02 3.8187808864258030e-02 0.0000000000000000e+00 1
5.7932856107728234e-02 -6.8567846850438610e-02 0.0000000000000000e+00 1
-1.6015970295255855e-01 -1.8317364909876885e-02 0.0000000000000000e+00 1
-1.6982226984011528e-01 4.0831154075843569e-03 0.0000000000000000e+00 1
4.1778483783822110e-02 -6.7528263983594988e-02 0.0000000000000000e+00 1
-1.9959571286550105e-02 -4.6352941097964867e-02 0.0000000000000000e+00 1
-2.5673762446529257e-02 -5.4283449179296873e-02 0.0000000000000000e+00 1
3.6332773748686195e-02 4.7327204960722263e-02 0.0000000000000000e+00 1
3.0373662477797193e-02 3.9450784551390908e-02 0.0000000000000000e+00 1
-1.4395874540627147e-02 -3.8380276836159556e-02 0.0000000000000000e+00 1
-2.9921694716109955e-02 1.6304517407169719e-02 0.0000000000000000e+00 1
-2.3902560047276259e-02 2.4446462955295678e-02 0.0000000000000000e+00 1
-3.3988175178568357e-02 2.5595252832735428e-02 0.0000000000000000e+00 1
-2.7945398571028533e-02 3.3773461091877260e-02 0.0000000000000000e+00 1
-1.8081879627895821e-02 3.1584599916042545e-02 0.0000000000000000e+00 1
-3.8063949947446954e-02 3.4919711247872576e-02 0.0000000000000000e+00 1
6.5423442871512541e-02 -6.9299226512206935e-02 0.0000000000000000e+00 1
-2.9756967460167663e-02 -4.5315233305734517e-02 0.0000000000000000e+00 1
-3.5572715990277677e-02 -5.3394007735340615e-02 0.0000000000000000e+00 1
-3.9724038179295304e-02 -4.4328436536406619e-02 0.0000000000000000e+00 1
-4.5573586359386832e-02 -5.2463962377866373e-02 0.0000000000000000e+00 1
8.8963772690036080e-02 4.8405305644119691e-02 0.0000000000000000e+00 1
9.8037542296624897e-02 4.7221179505066338e-02 0.0000000000000000e+00 1
-4.9743809347544493e-02 -4.3269950615207282e-02 0.0000000000000000e+00 1
1.7679259658370411e-01 5.6387256367962303e-02 0.0000000000000000e+00 1
3.1329652199088107e-02 -4.4296227448711381e-02 0.0000000000000000e+00 1
-1.7624828744945883e-01 -1.5499160458240352e-02 0.0000000000000000e+00 1
-1.8363399796840513e-01 -1.4302181226030084e-02 0.0000000000000000e+00 1
-1.8644525792110730e-01 -7.6835953511907298e-03 0.0000000000000000e+00 1
6.7310737219222969e-03 -6.4755128475477847e-02 0.0000000000000000e+00 1
1.7022740398670808e-01 4.3809794003414844e-02 0.0000000000000000e+00 1
2.4857074060230012e-02 -6.6317607755026292e-02 0.0000000000000000e+00 1
1.6015482662307956e-01 3.1013415732548049e-02 0.0000000000000000e+00 1
1.5535532182585715e-01 2.4468376669801367e-02 0.0000000000000000e+00 1
-1.7760661026968533e-01 4.9920443529077544e-03 0.0000000000000000e+00 1
1.5078887313817438e-01 5.2782718564500022e-02 0.0000000000000000e+00 1
2.6532552040128346e-02 4.8499934783493126e-02 0.0000000000000000e+00 1
2.0551708790463325e-02 4.0720450113805200e-02 0.0000000000000000e+00 1
-5.5623291423730972e-02 -5.1274476038279032e-02 0.0000000000000000e+00 1
-5.9845924197566576e-02 -4.2225965394291166e-02 0.0000000000000000e+00 1
-6.5733373204582529e-02 -5.0253761957259759e-02 0.0000000000000000e+00 1
-6.9971545959043216e-02 -4.1209726314801222e-02 0.0000000000000000e+00 1
-7.5883613376709486e-02 -4.9495262164328854e-02 0.0000000000000000e+00 1
-8.0104077381791289e-02 -4.0177991049816252e-02 0.0000000000000000e+00 1
5.3477701917807895e-02 2.8268773852899491e-02 0.0000000000000000e+00 1
1.6643319970923401e-02 4.9788226973235733e-02 0.0000000000000000e+00 1
1.0572821496303803e-02 4.1904526198416787e-02 0.0000000000000000e+00 1
7.0753624846387420e-02 5.0946668828898214e-02 0.0000000000000000e+00 1
9.9091422937200746e-02 -3.8189043590388813e-02 0.0000000000000000e+00 1
1.0421834891208812e-01 -3.1388486595048032e-02 0.0000000000000000e+00 1
9.3971191059826931e-02 -4.4927530102446545e-02 0.0000000000000000e+00 1
9.2752417856983210e-02 -2.2586431776230508e-02 0.0000000000000000e+00 1
-2.2154173990690782e-02 4.0650643203948615e-02 0.0000000000000000e+00 1
-1.9061385226332295e-01 -1.3249884895597617e-02 0.0000000000000000e+00 1
-1.9326547775887365e-01 -7.1070169383126713e-03 0.0000000000000000e+00 1
2.4422082455166760e-02 3.1547976927002515e-02 0.0000000000000000e+00 1
6.1019655199756662e-02 -7.5371890254747165e-02 0.0000000000000000e+00 1
-1.9717628190943803e-01 -1.2212492888603267e-02 0.0000000000000000e+00 1
5.2720715082342495e-02 5.2818582270531558e-02 0.0000000000000000e+00 1
-8.6002823016483765e-02 -4.8532827963591152e-02 0.0000000000000000e+00 1
-9.0208125426949698e-02 -3.9233479622325304e-02 0.0000000000000000e+00 1
-1.8819800433324665e-01 -1.9672039613783335e-02 0.0000000000000000e+00 1
6.7120964750335176e-03 5.1590253175503593e-02 0.0000000000000000e+00 1
-1.1933250338947592e-02 -6.3627769820059590e-02 0.0000000000000000e+00 1
-1.9960252150178595e-01 -6.4707241186187092e-03 0.0000000000000000e+00 1
-9.6078630797642228e-02 -4.7527759893402688e-02 0.0000000000000000e+00 1
-1.0025563672599366e-01 -3.8261229433797214e-02 0.0000000000000000e+00 1
-9.4497231901295137e-02 -2.9573265148300658e-02 0.0000000000000000e+00 1
-1.9600823535771109e-01 -1.7115427780524874e-03 0.0000000000000000e+00 1
9.4568933468274871e-02 5.5646516869589234e-02 0.0000000000000000e+00 1
1.0359034578000126e-01 5.4394173554084727e-02 0.0000000000000000e+00 1
-1.7305657740082708e-01 1.1305422821722710e-02 0.0000000000000000e+00 1
6.9953445290587168e-02 -6.3182916425873120e-02 0.0000000000000000e+00 1
7.2887188475658365e-02 -7.0119423708748491e-02 0.0000000000000000e+00 1
7.7371805706748426e-02 -6.4146537160474679e-02 0.0000000000000000e+00 1
-2.3660961559571016e-02 -1.9589375356607725e-02 0.0000000000000000e+00 1
5.3566247986881227e-02 -7.4708646147784996e-02 0.0000000000000000e+00 1
1.6336872828457977e-01 2.3674821932436141e-02 0.0000000000000000e+00 1
1.5864116584953308e-01 1.7058495783378574e-02 0.0000000000000000e+00 1
1.6805568265073581e-01 3.0007683292520224e-02 0.0000000000000000e+00 1
1.0700664101692603e-01 4.6047287127400055e-02 0.0000000000000000e+00 1
1.1250820377053537e-01 5.3174716438848593e-02 0.0000000000000000e+00 1
-1.0609727619151871e-01 -4.6551701937615889e-02 0.0000000000000000e+00 1
-1.1020604738972696e-01 -3.7355380297694599e-02 0.0000000000000000e+00 1
5.3162624245642248e-02 -2.5591029700146609e-02 0.0000000000000000e+00 1
-4.4100706015633942e-02 2.6724668031597943e-02 0.0000000000000000e+00 1
-4.8200270128208440e-02 3.6060631827854475e-02 0.0000000000000000e+00 1
-4.2139543281097619e-02 4.4260702156000670e-02 0.0000000000000000e+00 1
-5.2278527869742408e-02 4.5378428097000989e-02 0.0000000000000000e+00 1
-5.8313967176631329e-02 3.7193592800443057e-02 0.0000000000000000e+00 1
-8.1835858416406476e-02 -5.7800820307010961e-02 0.0000000000000000e+00 1
1.0756454881582114e-01 -3.9252769413856588e-02 0.0000000000000000e+00 1
1.1275659287792916e-01 -3.2396405229404082e-02 0.0000000000000000e+00 1
1.0936038911138996e-01 -2.4474097211995050e-02 0.0000000000000000e+00 1
1.1796683205780187e-01 -2.5486524296749080e-02 0.0000000000000000e+00 1
1.1453674574712652e-01 -1.7470634077443984e-02 0.0000000000000000e+00 1
1.2323126071388743e-01 -1.8497234816902210e-02 0.0000000000000000e+00 1
1.1978333083326256e-01 -1.0440846663864755e-02 0.0000000000000000e+00 1
1.2848967006473988e-01 -1.1473522418061176e-02 0.0000000000000000e+00 1
1.2505471347592459e-01 -3.4358419255576221e-03 0.0000000000000000e+00 1
1.3389713111511578e-01 -4.3788586161627088e-03 0.0000000000000000e+00 1
5.7254099682108495e-04 4.3245400125833708e-02 0.0000000000000000e+00 1
-3.3328537535260621e-03 5.2983030452316393e-02 0.0000000000000000e+00 1
4.5039200378998905e-03 3.3884939896021149e-02 0.0000000000000000e+00 1
-1.5170520747105387e-01 -1.9518629129869951e-02 0.0000000000000000e+00 1
-1.5693285101752011e-01 -2.6193264604338257e-02 0.0000000000000000e+00 1
-1.4845543799086666e-01 -2.7366667963492103e-02 0.0000000000000000e+00 1
-1.6527244271730268e-01 -2.4979382886951913e-02 0.0000000000000000e+00 1
1.0593500454027642e-01 -1.6527676271335206e-02 0.0000000000000000e+00 1
-3.1381195343600864e-02 -6.1816822631402937e-02 0.0000000000000000e+00 1
7.2201299153846807e-02 2.6304082596086256e-02 0.0000000000000000e+00 1
8.5453880099794988e-02 5.6912169212312611e-02 0.0000000000000000e+00 1
3.1438149043376148e-02 5.6694085292072885e-02 0.0000000000000000e+00 1
-1.6522983406225469e-01 1.0499226754902707e-02 0.0000000000000000e+00 1
1.3046290094237289e-01 3.4624196235410352e-03 0.0000000000000000e+00 1
1.3948238210455571e-01 3.0247541342534935e-03 0.0000000000000000e+00 1
1.5046238009518001e-01 1.7899459527864529e-02 0.0000000000000000e+00 1
1.5382011670024318e-01 1.0307714250390934e-02 0.0000000000000000e+00 1
-6.4057371427892931e-02 -3.3047281877930310e-02 0.0000000000000000e+00 1
-1.8072275181277692e-01 1.1988216066952967e-02 0.0000000000000000e+00 1
-4.4013883772278453e-02 -3.5196324459186717e-02 0.0000000000000000e+00 1
-6.2322632149447763e-02 4.6369031556467329e-02 0.0000000000000000e+00 1
-6.8365676020607613e-02 3.8267648475646100e-02 0.0000000000000000e+00 1
-6.4323653411325066e-02 2.9032095125036218e-02 0.0000000000000000e+00 1
-7.4349878510068246e-02 3.0151715757340936e-02 0.0000000000000000e+00 1
-7.8401145181820786e-02 3.9348712116809403e-02 0.0000000000000000e+00 1
-8.4303277529779785e-02 3.1305928131287644e-02 0.0000000000000000e+00 1
-8.8329705828352562e-02 4.0391480207298297e-02 0.0000000000000000e+00 1
-9.4178934289048569e-02 3.2443131438811945e-02 0.0000000000000000e+00 1
1.3717006546469102e-01 -1.2388968254399960e-02 0.0000000000000000e+00 1
-1.1592978043668267e-01 -4.5350233069842427e-02 0.0000000000000000e+00 1
-1.1998960439416156e-01 -3.6553070012549954e-02 0.0000000000000000e+00 1
1.1667333184021228e-01 -2.3381145449046133e-03 0.0000000000000000e+00 1
-1.8616516709706804e-01 5.0981087060894791e-03 0.0000000000000000e+00 1
1.3655934285793314e-01 1.1066210942107977e-02 0.0000000000000000e+00 1
-1.6849108519735001e-01 1.7790856443312898e-02 0.0000000000000000e+00 1
-1.6113900321007008e-01 1.7445421442758791e-02 0.0000000000000000e+00 1
9.5072717162143022e-02 -7.4511891876936536e-03 0.0000000000000000e+00 1
-1.2562846394921245e-01 -4.4175557370717322e-02 0.0000000000000000e+00 1
-1.2962095880585381e-01 -3.5696872957279635e-02 0.0000000000000000e+00 1
1.0911175662248218e-01 6.1344483797963596e-02 0.0000000000000000e+00 1
1.1793357871743809e-01 6.0000625397292319e-02 0.0000000000000000e+00 1
1.2125635572719359e-01 5.1995700295591918e-02 0.0000000000000000e+00 1
1.2663232032415117e-01 5.8861634397702270e-02 0.0000000000000000e+00 1
-1.6210750985757216e-01 -3.2605396998860239e-02 0.0000000000000000e+00 1
-5.0373022760677490e-02 -6.0853663216839118e-02 0.0000000000000000e+00 1
1.2983535403098825e-01 5.0912161711608520e-02 0.0000000000000000e+00 1
1.3511341661971910e-01 5.7691034529632763e-02 0.0000000000000000e+00 1
-7.0301813328173229e-02 2.0841641427860300e-02 0.0000000000000000e+00 1
-2.9252669106690020e-02 -2.7853115859214503e-02 0.0000000000000000e+00 1
5.6764105622354066e-02 -8.1176165290458152e-02 0.0000000000000000e+00 1
4.9565838053396261e-02 -8.0720817850454901e-02 0.0000000000000000e+00 1
1.2649080894081824e-01 -2.6441538239488742e-02 0.0000000000000000e+00 1
-2.0322465869538409e-01 -1.1257353999994540e-02 0.0000000000000000e+00 1
1.6047686808841438e-01 6.4263184996932426e-02 0.0000000000000000e+00 1
6.4177700726508510e-02 -8.1329318195997966e-02 0.0000000000000000e+00 1
-2.0593634686985096e-01 -5.9679497452413280e-03 0.0000000000000000e+00 1
1.2783875527337502e-02 5.8164805307478307e-02 0.0000000000000000e+00 1
1.1592360126758110e-01 -4.0188285541529700e-02 0.0000000000000000e+00 1
-9.8197275734572112e-02 4.1001584349192620e-02 0.0000000000000000e+00 1
-1.0392092148074100e-01 3.3431939231410440e-02 0.0000000000000000e+00 1
-1.0001059134563681e-01 2.4598400322302323e-02 0.0000000000000000e+00 1
-1.0968034797650107e-01 2.5395776924608177e-02 0.0000000000000000e+00 1
-1.1352252951114429e-01 3.4289593646444336e-02 0.0000000000000000e+00 1
-1.1918804184517073e-01 2.6637740600291816e-02 0.0000000000000000e+00 1
-1.2305945733463770e-01 3.5335248478771286e-02 0.0000000000000000e+00 1
-1.2846325223910804e-01 2.7871632597747029e-02 0.0000000000000000e+00 1
9.1074813297501667e-02 6.3999338118104682e-02 0.0000000000000000e+00 1
-2.0120120054443924e-01 -1.6876234245007574e-02 0.0000000000000000e+00 1
-1.7005717208065388e-01 -3.1106983558161442e-02 0.0000000000000000e+00 1
8.0052360607458545e-02 -7.1073690823215685e-02 0.0000000000000000e+00 1
8.4821359934367013e-02 -6.4978175683164649e-02 0.0000000000000000e+00 1
8.1959888340224815e-02 -5.8050746871854686e-02 0.0000000000000000e+00 1
8.9541093727939780e-02 -5.8876427090087169e-02 0.0000000000000000e+00 1
7.5461167466112034e-02 -7.6911170975416276e-02 0.0000000000000000e+00 1
9.2393437159151645e-02 -6.6227020083650667e-02 0.0000000000000000e+00 1
1.6211544817676757e-01 9.4936454495401328e-03 0.0000000000000000e+00 1
-1.8816822591603999e-01 1.2473690466383199e-02 0.0000000000000000e+00 1
-1.3515449512197802e-01 -4.3117074152798661e-02 0.0000000000000000e+00 1
-4.4938678340102879e-02 5.3178329013420844e-02 0.0000000000000000e+00 1
-3.4962327739651480e-02 5.2255007479787029e-02 0.0000000000000000e+00 1
1.7137847643458232e-01 2.2943825347831185e-02 0.0000000000000000e+00 1
-1.9248535550618029e-01 6.9720863301783349e-03 0.0000000000000000e+00 1
1.7594956731026729e-01 2.9195124867331505e-02 0.0000000000000000e+00 1
-1.3862400204329017e-01 -3.5067452366838246e-02 0.0000000000000000e+00 1
-1.4453713917614347e-01 -4.2551494706787374e-02 0.0000000000000000e+00 1
-1.3304557241665460e-01 -2.7739002954664586e-02 0.0000000000000000e+00 1
-1.1455036716116046e-01 -2.7930396053678239e-02 0.0000000000000000e+00 1
-1.2494178091746885e-01 1.8854131587049239e-02 0.0000000000000000e+00 1
-1.3391027223756691e-01 2.0918614769113473e-02 0.0000000000000000e+00 1
-1.3753329735844680e-01 2.8950375404361038e-02 0.0000000000000000e+00 1
-1.4284377737904144e-01 2.2225032809182019e-02 0.0000000000000000e+00 1
-1.4558354793864481e-01 2.9887182255066404e-02 0.0000000000000000e+00 1
8.6689164287932302e-02 -5.1648627768340151e-02 0.0000000000000000e+00 1
5.2601387344428915e-02 -8.7263972634838455e-02 0.0000000000000000e+00 1
-1.5094597045737138e-01 2.3174023164981100e-02 0.0000000000000000e+00 1
-1.4750559620916773e-01 1.5040895482507579e-02 0.0000000000000000e+00 1
9.7522210036101384e-02 -6.0624992944925397e-02 0.0000000000000000e+00 1
-5.5120609372687757e-03 3.5117158254666124e-02 0.0000000000000000e+00 1
-4.8389890037653848e-04 2.6794711590221870e-02 0.0000000000000000e+00 1
9.1349253636733886e-03 2.5491722764182732e-02 0.0000000000000000e+00 1
1.2248901394319128e-01 6.7041740230429234e-02 0.0000000000000000e+00 1
1.7270491544475908e-01 3.6038667824012174e-02 0.0000000000000000e+00 1
1.7992631645303997e-01 3.5142443280248625e-02 0.0000000000000000e+00 1
1.7740882988354384e-01 4.1537046549684466e-02 0.0000000000000000e+00 1
1.8392254657759272e-01 4.0383333252205465e-02 0.0000000000000000e+00 1
1.8171009089917833e-01 4.6450940946629354e-02 0.0000000000000000e+00 1
-1.0580442065898106e-01 1.6275587825370304e-02 0.0000000000000000e+00 1
8.1879916893274424e-02 6.5526130138978886e-02 0.0000000000000000e+00 1
-1.7325558521545328e-01 -2.3316952932219873e-02 0.0000000000000000e+00 1
-1.7825611624710624e-01 -2.9959527109896304e-02 0.0000000000000000e+00 1
1.4523701840992037e-01 1.0726286703082125e-02 0.0000000000000000e+00 1
1.4821120175924246e-01 2.4493012209141972e-03 0.0000000000000000e+00 1
-2.0858495104360264e-01 -1.1311976514772944e-02 0.0000000000000000e+00 1
1.3836758062061885e-01 4.9782067327334256e-02 0.0000000000000000e+00 1
1.4267937198212080e-01 -4.9132800320164493e-03 0.0000000000000000e+00 1
1.5202344523191516e-01 -5.3193030614545611e-03 0.0000000000000000e+00 1
-9.2364057448727943e-02 4.9410127087529870e-02 0.0000000000000000e+00 1
-1.1284944783513569e-01 -5.4339883869167861e-02 0.0000000000000000e+00 1
-1.8222989306165294e-01 -1.6597092094752393e-03 0.0000000000000000e+00 1
-1.9403059086593840e-02 -2.8839133320493236e-02 0.0000000000000000e+00 1
-1.3607957855247885e-02 -2.0741700155438889e-02 0.0000000000000000e+00 1
-1.6435544772214661e-01 2.4876508894522923e-02 0.0000000000000000e+00 1
-1.7198223849199692e-01 2.5014045630278359e-02 0.0000000000000000e+00 1
-1.5937345481078496e-01 3.1387363694419551e-02 0.0000000000000000e+00 1
1.6498065352890320e-01 3.7279595124780567e-02 0.0000000000000000e+00 1
1.2452869075320475e-01 4.3908551092797503e-02 0.0000000000000000e+00 1
1.1089515920856556e-01 -4.7175101203856686e-02 0.0000000000000000e+00 1
-1.9481755735563602e-01 -1.8067378102443528e-02 0.0000000000000000e+00 1
-1.9290739498906739e-01 -2.4733741099790516e-02 0.0000000000000000e+00 1
-1.8612778769892241e-01 -2.6340327414109570e-02 0.0000000000000000e+00 1
-2.0167652456676424e-01 -1.2804919844384484e-03 0.0000000000000000e+00 1
-1.9820627554488940e-01 3.9555103080627409e-03 0.0000000000000000e+00 1
-1.3172989051226175e-01 1.3184378746840648e-02 0.0000000000000000e+00 1
-1.1558257351497636e-01 1.6675277714631696e-02 0.0000000000000000e+00 1
-1.8095329648543207e-01 -2.1515031459046586e-02 0.0000000000000000e+00 1
6.8360517306575858e-02 -7.6026588990497995e-02 0.0000000000000000e+00 1
-9.6002787988749741e-02 1.5114754990215636e-02 0.0000000000000000e+00 1
-1.6832969546376630e-01 -1.6978236607026360e-02 0.0000000000000000e+00 1
1.7324481750603626e-01 5.0986377299561465e-02 0.0000000000000000e+00 1
5.0028880877970201e-02 -6.7860093837866842e-02 0.0000000000000000e+00 1
-1.4089414052849838e-01 3.6757814492934054e-02 0.0000000000000000e+00 1
7.6914335797995517e-02 -4.2908666550436077e-02 0.0000000000000000e+00 1
1.6738455778046579e-01 1.6640771217633479e-02 0.0000000000000000e+00 1
7.2555025931927669e-02 -1.2143519396981883e-02 0.0000000000000000e+00 1
8.1304697497753542e-02 -1.3223927382185920e-02 0.0000000000000000e+00 1
6.6998025206683298e-02 -5.5988902291308901e-02 0.0000000000000000e+00 1
-1.2422185173168317e-01 -2.7437114053855269e-02 0.0000000000000000e+00 1
-1.0901908169528679e-01 -1.8957662304142073e-02 0.0000000000000000e+00 1
-9.8984695011258950e-02 -2.0092552120149813e-02 0.0000000000000000e+00 1
-1.2962854530035653e-01 -2.0070143881911934e-02 0.0000000000000000e+00 1
-1.0450925482862808e-01 -2.8608182891653490e-02 0.0000000000000000e+00 1
-8.8749003444125757e-02 -2.1464573584866156e-02 0.0000000000000000e+00 1
-8.4318246471210195e-02 -3.0890802476405091e-02 0.0000000000000000e+00 1
1.0139855730969052e-01 3.8805100575039095e-02 0.0000000000000000e+00 1
-1.1157947278784663e-01 7.6411752611625725e-03 0.0000000000000000e+00 1
-7.4132721850899808e-02 -3.2007190427641510e-02 0.0000000000000000e+00 1
-6.8723072317768710e-02 -2.3698175047812707e-02 0.0000000000000000e+00 1
-6.0258943658074618e-02 1.9760197619372318e-02 0.0000000000000000e+00 1
-1.7743683665504949e-02 -1.1506928443549662e-02 0.0000000000000000e+00 1
-1.0800459476836471e-01 4.1361226504248262e-02 0.0000000000000000e+00 1
1.1015873970920045e-01 3.7530928888487164e-02 0.0000000000000000e+00 1
-2.1053489896967253e-01 1.1342268769679773e-03 0.0000000000000000e+00 1
1.0160862153448376e-01 -4.7234063260276772e-02 0.0000000000000000e+00 1
1.0680830367443161e-01 -5.3695352786544560e-02 0.0000000000000000e+00 1
-1.7644675944911939e-01 1.8387895407495067e-02 0.0000000000000000e+00 1
1.3170068136804353e-01 6.5725692296864008e-02 0.0000000000000000e+00 1
1.4037863443415946e-01 6.4359021197408606e-02 0.0000000000000000e+00 1
1.4335292227751870e-01 5.6305839625055712e-02 0.0000000000000000e+00 1
1.4844346480789561e-01 6.1576590850581071e-02 0.0000000000000000e+00 1
1.5688597181779035e-01 2.7164769805111079e-03 0.0000000000000000e+00 1
-6.6184101329145317e-02 1.1480969141381782e-02 0.0000000000000000e+00 1
-1.8943655867202902e-01 -1.8439312777835675e-03 0.0000000000000000e+00 1
8.6648138199956537e-02 -6.1270054261604945e-03 0.0000000000000000e+00 1
-8.0298856342873925e-02 2.2038832339702594e-02 0.0000000000000000e+00 1
4.9450704750285346e-02 -1.7458183353891408e-02 0.0000000000000000e+00 1
4.3966311194701638e-02 -2.4988674910796958e-02 0.0000000000000000e+00 1
1.0011754857966695e-01 6.2405795378355208e-02 0.0000000000000000e+00 1
1.0468439682607646e-01 6.9083794231987516e-02 0.0000000000000000e+00 1
1.4586698000210317e-02 3.2826472025497384e-02 0.0000000000000000e+00 1
1.9008228198513371e-02 2.3877196860756570e-02 0.0000000000000000e+00 1
2.8246551748401239e-02 2.2485761366140351e-02 0.0000000000000000e+00 1
2.3589389912674785e-02 1.5236044627713621e-02 0.0000000000000000e+00 1
3.4155847268569593e-02 3.0294674343686788e-02 0.0000000000000000e+00 1
3.8239920344792219e-02 2.1423086484216938e-02 0.0000000000000000e+00 1
4.3852078884546786e-02 2.9059748651373341e-02 0.0000000000000000e+00 1
4.8156956797263423e-02 2.0441438199677898e-02 0.0000000000000000e+00 1
5.7258637063559881e-02 1.9510692540421041e-02 0.0000000000000000e+00 1
5.2315017378967973e-02 1.2298215623838329e-02 0.0000000000000000e+00 1
6.2868859479807873e-02 2.7085863814435798e-02 0.0000000000000000e+00 1
6.6690804525459391e-02 1.8968453111963313e-02 0.0000000000000000e+00 1
8.9660878551237180e-02 -1.4569642716896328e-02 0.0000000000000000e+00 1
-2.2746200744570098e-03 -8.7744882406225383e-02 0.0000000000000000e+00 1
-5.6064416527836069e-03 -7.9224144952170894e-02 0.0000000000000000e+00 1
3.4708594761215222e-03 -8.0406936712143370e-02 0.0000000000000000e+00 1
-1.4926635266296654e-02 -7.7834517842123169e-02 0.0000000000000000e+00 1
2.0222685526136803e-05 -7.1814935950939587e-02 0.0000000000000000e+00 1
-1.3210163627886939e-01 3.6403003407643839e-02 0.0000000000000000e+00 1
-1.2642991641016632e-01 4.3478251504004431e-02 0.0000000000000000e+00 1
1.8358641099678141e-01 2.8647783783834938e-02 0.0000000000000000e+00 1
9.9186216686856968e-02 -7.0040861278173924e-02 0.0000000000000000e+00 1
-7.2287407395298528e-02 4.7067070925337552e-02 0.0000000000000000e+00 1
3.3410184689614195e-02 -6.6920420782372120e-02 0.0000000000000000e+00 1
3.7155918619184776e-02 -7.4237405531389564e-02 0.0000000000000000e+00 1
2.8787267864644778e-02 -7.3937490383178733e-02 0.0000000000000000e+00 1
2.0241420133348956e-02 -7.3564028764404973e-02 0.0000000000000000e+00 1
2.4332378374798680e-02 -8.0969190995217794e-02 0.0000000000000000e+00 1
1.6326206312908285e-02 -8.0997823330821950e-02 0.0000000000000000e+00 1
1.0333244426815755e-02 -7.4290583046888334e-02 0.0000000000000000e+00 1
1.3156683285782875e-01 -1.9241559284957594e-02 0.0000000000000000e+00 1
-8.2304522123316598e-02 4.7562807971638379e-02 0.0000000000000000e+00 1
1.1939609007314607e-01 1.2892988723870036e-02 0.0000000000000000e+00 1
1.0567511317966863e-01 6.9938478073065776e-03 0.0000000000000000e+00 1
-5.5327451579434112e-02 5.5837748776159900e-02 0.0000000000000000e+00 1
1.1570139288331101e-01 4.4759595928875802e-02 0.0000000000000000e+00 1
1.1131647644587708e-01 -9.5577189344793912e-03 0.0000000000000000e+00 1
7.1754925605462927e-02 -8.2958635192086738e-02 0.0000000000000000e+00 1
7.8497416704209039e-02 -8.3331928279746031e-02 0.0000000000000000e+00 1
-4.0018092914833409e-02 1.7450254293588045e-02 0.0000000000000000e+00 1
7.5852858832063566e-02 -2.0336841604474631e-02 0.0000000000000000e+00 1
-5.3966599610157276e-02 -3.4117822005269978e-02 0.0000000000000000e+00 1
-4.8657755226519168e-02 -2.5851403794880698e-02 0.0000000000000000e+00 1
5.0146279367620158e-02 7.5862003435293465e-02 0.0000000000000000e+00 1
4.5499210834831473e-02 6.6907023471668145e-02 0.0000000000000000e+00 1
3.5769626149769432e-02 6.5800802283632956e-02 0.0000000000000000e+00 1
2.9926710436867773e-02 7.4881046583979441e-02 0.0000000000000000e+00 1
-7.8519786639055181e-03 -1.2648545921932685e-02 0.0000000000000000e+00 1
-3.7575378098795116e-03 -2.1688055221649707e-02 0.0000000000000000e+00 1
6.1091898360586486e-03 -2.2360927419656770e-02 0.0000000000000000e+00 1
5.8007604335471284e-04 -3.0634404425730805e-02 0.0000000000000000e+00 1
1.0121668759495763e-02 -3.1335233803136582e-02 0.0000000000000000e+00 1
1.5680516569475979e-02 -2.3156696800715474e-02 0.0000000000000000e+00 1
1.9625946309795941e-02 -3.1904565626503061e-02 0.0000000000000000e+00 1
2.5079896699911692e-02 -2.3923314770358448e-02 0.0000000000000000e+00 1
2.9629466703079786e-02 -3.3924134025828251e-02 0.0000000000000000e+00 1
3.4561576267468877e-02 -2.4711075023421326e-02 0.0000000000000000e+00 1
3.8938143574932284e-02 -3.2799872860311503e-02 0.0000000000000000e+00 1
2.1298427923004598e-02 -1.5193605113810892e-02 0.0000000000000000e+00 1
1.1757183812643545e-02 -1.4319365836805615e-02 0.0000000000000000e+00 1
2.2953882467713314e-02 -4.1242025640972485e-02 0.0000000000000000e+00 1
4.7605654113011743e-02 -3.3058683623454072e-02 0.0000000000000000e+00 1
4.3138153016993051e-02 -4.0285950095259940e-02 0.0000000000000000e+00 1
-9.2204969024744232e-03 -2.9978774223633008e-02 0.0000000000000000e+00 1
-5.0130556147027605e-02 1.8593585463063191e-02 0.0000000000000000e+00 1
6.4063977735955482e-03 -8.8984394990567151e-02 0.0000000000000000e+00 1
-1.4136981776428959e-02 2.2124617709374239e-02 0.0000000000000000e+00 1
-9.4803191129209912e-03 4.4431199812805286e-02 0.0000000000000000e+00 1
-1.5007352974981108e-02 5.4315162906613812e-02 0.0000000000000000e+00 1
-7.3348675504717638e-03 6.2000409098870939e-02 0.0000000000000000e+00 1
-1.0085481638504906e-02 1.3299251739730233e-02 0.0000000000000000e+00 1
4.0209707935718875e-02 -1.6615897593461923e-02 0.0000000000000000e+00 1
-1.0260631942681214e-01 -5.5846481911611817e-02 0.0000000000000000e+00 1
-7.6226652892918662e-02 1.2497450973275223e-02 0.0000000000000000e+00 1
-3.5916998197859096e-02 8.1666367954690254e-03 0.0000000000000000e+00 1
7.0023189431950572e-02 7.6310600995206354e-02 0.0000000000000000e+00 1
6.5100993594907827e-02 6.7786442593997270e-02 0.0000000000000000e+00 1
5.5380338302601403e-02 6.7858826487573354e-02 0.0000000000000000e+00 1
5.8955478912300963e-02 6.0158569885381707e-02 0.0000000000000000e+00 1
-4.6006144285128982e-02 9.2999362629324969e-03 0.0000000000000000e+00 1
-9.2807559792889210e-02 -5.8961242747374618e-02 0.0000000000000000e+00 1
-8.5684001617768180e-02 -6.5759264209310567e-02 0.0000000000000000e+00 1
-5.4221349422816825e-02 2.7894128477894534e-02 0.0000000000000000e+00 1
1.3370302089225583e-01 1.9037348571608763e-02 0.0000000000000000e+00 1
8.1359437761749795e-02 2.5374534518243910e-02 0.0000000000000000e+00 1
-3.1879068707992946e-02 4.2772019422816859e-02 0.0000000000000000e+00 1
-7.1086643605703770e-02 -5.8330567898045062e-02 0.0000000000000000e+00 1
-6.1073388539252101e-02 -7.7157686782863263e-02 0.0000000000000000e+00 1
-6.6222189982374127e-02 -6.7713511802623541e-02 0.0000000000000000e+00 1
-1.9100932316683197e-01 -3.2112882058560374e-02 0.0000000000000000e+00 1
-4.0863674008800116e-02 -8.1142231254051095e-02 0.0000000000000000e+00 1
-4.4306934881313736e-02 -7.0558985620930284e-02 0.0000000000000000e+00 1
8.8584782972948427e-03 7.3638384350331182e-02 0.0000000000000000e+00 1
9.0525179527868538e-02 7.6633034615634490e-02 0.0000000000000000e+00 1
-9.0162268957126285e-02 2.3232789389212794e-02 0.0000000000000000e+00 1
1.0467046175131779e-01 3.0442369301427789e-02 0.0000000000000000e+00 1
-4.1218173381929638e-02 -6.1461231920564754e-02 0.0000000000000000e+00 1
1.5792163568863307e-01 7.1133916159635824e-02 0.0000000000000000e+00 1
-3.2206229372178007e-02 6.9180944701393160e-02 0.0000000000000000e+00 1
-2.6023444203942495e-02 6.0280549453925136e-02 0.0000000000000000e+00 1
1.8019288961882590e-01 6.1647410737595033e-02 0.0000000000000000e+00 1
1.8317780125863892e-01 5.6201286766265651e-02 0.0000000000000000e+00 1
3.2584124089928529e-02 -8.1043703320309607e-02 0.0000000000000000e+00 1
4.1066893641357655e-02 -8.0863232576042637e-02 0.0000000000000000e+00 1
-4.8750055852951404e-03 -3.9070562560323749e-02 0.0000000000000000e+00 1
4.5805787713238504e-03 -3.9603674392923789e-02 0.0000000000000000e+00 1
-1.5417483627824180e-01 -3.4101725179054312e-02 0.0000000000000000e+00 1
-1.5958653868812286e-01 -4.0576641172184215e-02 0.0000000000000000e+00 1
-1.2958549490433380e-01 -5.8929547267410981e-02 0.0000000000000000e+00 1
1.7578064771429128e-01 1.6854724930237024e-02 0.0000000000000000e+00 1
-5.2493960292166054e-02 6.6257665315033715e-02 0.0000000000000000e+00 1
-8.3347573274518156e-04 1.1805585012132441e-02 0.0000000000000000e+00 1
-8.3571843830910764e-02 -1.2996595577949735e-02 0.0000000000000000e+00 1
-1.1875953536859669e-02 7.1337143389470906e-02 0.0000000000000000e+00 1
4.4775583725212651e-03 6.2579960518025668e-02 0.0000000000000000e+00 1
1.2093584154647259e-01 -3.3139229408515922e-02 0.0000000000000000e+00 1
-1.4785014569053481e-01 -5.1319059462857482e-02 0.0000000000000000e+00 1
-2.1558659115357804e-02 -6.2696206665951854e-02 0.0000000000000000e+00 1
-2.7954171056699083e-02 -7.0722076660981806e-02 0.0000000000000000e+00 1
-7.2606031469532414e-02 6.2673669469092197e-02 0.0000000000000000e+00 1
8.5136122273530762e-02 -4.3786623420644273e-02 0.0000000000000000e+00 1
1.2221142011769039e-01 4.6975950434680518e-03 0.0000000000000000e+00 1
1.5999112482382463e-02 -6.5611895151048205e-02 0.0000000000000000e+00 1
1.4203414754563004e-01 7.2256938257410475e-02 0.0000000000000000e+00 1
2.5683622167192298e-02 6.6061815207678815e-02 0.0000000000000000e+00 1
1.1055408283283541e-01 -6.0266726659521028e-02 0.0000000000000000e+00 1
2.3559320128249933e-02 -9.1172158670900214e-02 0.0000000000000000e+00 1
8.5090666990855199e-02 1.7359695633743184e-02 0.0000000000000000e+00 1
4.2657024252872794e-02 5.6711945719567641e-02 0.0000000000000000e+00 1
1.0099346932960060e-01 -2.3602742789168078e-02 0.0000000000000000e+00 1
-2.4196932865073031e-02 -3.7333231167694096e-02 0.0000000000000000e+00 1
4.5527043827102029e-02 -7.4319743321188986e-02 0.0000000000000000e+00 1
1.2393761106158066e-01 -4.8169604385203929e-02 0.0000000000000000e+00 1
1.6488736330920797e-01 6.9912789348221011e-02 0.0000000000000000e+00 1
7.9862874998975555e-02 4.9656737705114147e-02 0.0000000000000000e+00 1
1.3605959885835725e-01 -3.5469496753921977e-02 0.0000000000000000e+00 1
-1.1104164277398201e-01 -6.4238942532881510e-02 0.0000000000000000e+00 1
1.4764631244110751e-01 -2.2111561559470083e-02 0.0000000000000000e+00 1
5.7260903017460604e-02 -3.3294225273077752e-02 0.0000000000000000e+00 1
-1.1031294797404073e-01 5.4012783882942700e-02 0.0000000000000000e+00 1
1.6860533217668788e-01 3.2982249342640262e-03 0.0000000000000000e+00 1
-2.0233117600102696e-01 8.6204894602014085e-03 0.0000000000000000e+00 1
-2.0968428775517529e-02 -8.5148382605777881e-02 0.0000000000000000e+00 1
-1.4622235208960285e-01 -1.2833126618546461e-02 0.0000000000000000e+00 1
8.6787879111251659e-02 -7.2594462214922051e-02 0.0000000000000000e+00 1
-1.8446411939234933e-01 1.8122086396612391e-02 0.0000000000000000e+00 1
-1.8000343985607817e-01 -3.8470799570135474e-02 0.0000000000000000e+00 1
-1.6182791763118143e-01 3.2327673363759706e-03 0.0000000000000000e+00 1
1.4721372386689663e-01 2.5310832398200596e-02 0.0000000000000000e+00 1
-7.6786493230395075e-02 -6.6712966880463409e-02 0.0000000000000000e+00 1
3.9710297289263466e-02 -9.2684951643864699e-02 0.0000000000000000e+00 1
7.5994401103330764e-02 1.8318528796195856e-02 0.0000000000000000e+00 1
-3.4174008437845918e-02 -3.6290252390055601e-02 0.0000000000000000e+00 1
-6.3336178857176406e-02 -1.5366874163947383e-02 0.0000000000000000e+00 1
-7.8689744438557002e-02 -2.2650278239416732e-02 0.0000000000000000e+00 1
1.4604237241636631e-01 4.6561104310554387e-02 0.0000000000000000e+00 1
1.3287292173366749e-01 4.2935869125366607e-02 0.0000000000000000e+00 1
1.2592829846916923e-01 7.4895531632539661e-02 0.0000000000000000e+00 1
-5.8664995704904160e-02 -2.4735502179170428e-02 0.0000000000000000e+00 1
1.1886233235530214e-01 3.6476873343789240e-02 0.0000000000000000e+00 1
4.7617139379296805e-02 -4.7152999332865993e-02 0.0000000000000000e+00 1
7.6725934598627241e-02 5.8650653411294530e-02 0.0000000000000000e+00 1
-9.3396605851648065e-02 -1.1904203483554650e-02 0.0000000000000000e+00 1
-4.3510148919977579e-02 -1.7282230571614696e-02 0.0000000000000000e+00 1
9.4213598512976865e-02 -5.2689691049840753e-02 0.0000000000000000e+00 1
7.4553512564869806e-02 -5.7028257315660205e-02 0.0000000000000000e+00 1
8.4353718271950123e-02 -2.1399119163569475e-02 0.0000000000000000e+00 1
1.5588590980696568e-01 5.8900905257988356e-02 0.0000000000000000e+00 1
-1.9204317967802623e-01 1.7597578773827074e-02 0.0000000000000000e+00 1
1.4202392652106788e-01 1.8367425864195812e-02 0.0000000000000000e+00 1
-2.0552226194661921e-01 -2.1919764496786447e-02 0.0000000000000000e+00 1
-1.6501157787652679e-01 -4.6314100681344166e-02 0.0000000000000000e+00 1
-2.0653100812500058e-01 -1.5932930096975526e-02 0.0000000000000000e+00 1
-1.4339627115701456e-01 -2.0444153603938840e-02 0.0000000000000000e+00 1
6.0403874837783228e-02 -8.6606723403083646e-02 0.0000000000000000e+00 1
6.3621855637407160e-02 -9.1357579484890053e-02 0.0000000000000000e+00 1
7.0467572342678170e-02 1.1004335999420078e-02 0.0000000000000000e+00 1
-1.5597863915173346e-01 1.0477144498297649e-02 0.0000000000000000e+00 1
1.8698520009920105e-01 4.5840653750980988e-02 0.0000000000000000e+00 1
-2.4411530794495907e-02 4.9545495716204015e-02 0.0000000000000000e+00 1
-1.9751887831248305e-01 -2.9850509780967472e-02 0.0000000000000000e+00 1
9.3675145177606764e-02 -7.5146303201330575e-02 0.0000000000000000e+00 1
1.5926762619556581e-01 -1.0431766014425728e-02 0.0000000000000000e+00 1
5.2389030438032606e-02 -9.3891411266196226e-02 0.0000000000000000e+00 1
-5.5707698682109549e-02 -6.8976095581011920e-02 0.0000000000000000e+00 1
1.9066126900893085e-01 3.8860845106761750e-02 0.0000000000000000e+00 1
-9.1763551130096210e-02 5.8796853338106900e-02 0.0000000000000000e+00 1
6.1410528975876406e-02 1.1672177894373638e-02 0.0000000000000000e+00 1
1.4529200621720464e-01 -1.2866605615249155e-02 0.0000000000000000e+00 1
3.2161114158488137e-02 1.4017343128987593e-02 0.0000000000000000e+00 1
4.5098552647192897e-02 -8.6623470262243221e-02 0.0000000000000000e+00 1
1.9140053058630285e-01 4.9154265092248871e-02 0.0000000000000000e+00 1
1.8645652264929191e-01 5.1399668773111064e-02 0.0000000000000000e+00 1
-6.6088642575287987e-02 5.5169625593519303e-02 0.0000000000000000e+00 1
7.9516881732199909e-02 -5.0500225672783505e-02 0.0000000000000000e+00 1
-1.1737654864595740e-01 4.2090187732726853e-02 0.0000000000000000e+00 1
2.1694174004084448e-02 5.7548738146024819e-02 0.0000000000000000e+00 1
-3.8855425632730027e-02 -2.6964341306757539e-02 0.0000000000000000e+00 1
9.7927781661624261e-02 -1.5803815224557531e-02 0.0000000000000000e+00 1
-1.2256011386439994e-01 -5.2477041354233957e-02 0.0000000000000000e+00 1
-2.4634120406386794e-03 -6.3673479461735363e-02 0.0000000000000000e+00 1
1.1337325598296608e-01 6.8366666949477947e-02 0.0000000000000000e+00 1
1.0318187433798405e-01 -8.5928411273069258e-03 0.0000000000000000e+00 1
1.1393824305908712e-01 5.7526481827723762e-03 0.0000000000000000e+00 1
1.2791002080451772e-01 1.1842238325962923e-02 0.0000000000000000e+00 1
1.8543917775264662e-01 6.0936907015147423e-02 0.0000000000000000e+00 1
1.8849106224337858e-01 5.6937544243321689e-02 0.0000000000000000e+00 1
1.3985866787040896e-01 -1.9947509464758727e-02 0.0000000000000000e+00 1
1.0853215694952537e-01 -1.3365774152912088e-03 0.0000000000000000e+00 1
-2.1331357041748492e-01 -1.1641139442646459e-02 0.0000000000000000e+00 1
-1.6449516454096303e-02 6.3636938847443550e-02 0.0000000000000000e+00 1
5.6248442682729306e-02 4.6710987624534886e-03 0.0000000000000000e+00 1
7.3806592151396233e-02 6.7926625265997395e-02 0.0000000000000000e+00 1
-2.0973169368916178e-01 -1.9307521178576724e-02 0.0000000000000000e+00 1
-6.0791036609863069e-02 -5.9567012749009732e-02 0.0000000000000000e+00 1
-3.5573954639117174e-02 -7.4066209415348139e-02 0.0000000000000000e+00 1
-1.4556477103397172e-01 4.3078568518611332e-02 0.0000000000000000e+00 1
-8.1627381946878502e-03 -7.1208716005918035e-02 0.0000000000000000e+00 1
3.6429100881486272e-02 -8.6650071146314372e-02 0.0000000000000000e+00 1
8.1729268839417446e-02 -7.8482413748668794e-02 0.0000000000000000e+00 1
6.1157101545870771e-02 5.0859471784038934e-02 0.0000000000000000e+00 1
-1.6716509604019406e-01 -3.8055304113030264e-02 0.0000000000000000e+00 1
-1.9900738243578850e-01 -2.1999227902857611e-02 0.0000000000000000e+00 1
1.0879422180642764e-01 7.6119665180651455e-02 0.0000000000000000e+00 1
4.7264230641892037e-02 5.1157631691117755e-03 0.0000000000000000e+00 1
1.3413418823662915e-01 -2.6847506846897396e-02 0.0000000000000000e+00 1
-1.5186926838519027e-01 -4.2786855181412051e-02 0.0000000000000000e+00 1
-1.3179625955962015e-01 -5.0531911560711004e-02 0.0000000000000000e+00 1
-3.7023231973259893e-02 6.0888960893890759e-02 0.0000000000000000e+00 1
6.8349118080632029e-02 6.0032642650336976e-02 0.0000000000000000e+00 1
1.9550617395308528e-01 5.5681161988371454e-02 0.0000000000000000e+00 1
1.8802322301347302e-01 6.5162350896952104e-02 0.0000000000000000e+00 1
-1.7709893850970156e-02 -7.0428048587134043e-02 0.0000000000000000e+00 1
-2.1342844976228020e-01 -1.6368082570368981e-03 0.0000000000000000e+00 1
-2.1032085636314574e-01 -3.4301815539639902e-03 0.0000000000000000e+00 1
4.2631217244165527e-02 1.3263927169160510e-02 0.0000000000000000e+00 1
1.7999031071141064e-01 5.1733287705798013e-02 0.0000000000000000e+00 1
1.2852556625326306e-01 -3.3699212735969770e-02 0.0000000000000000e+00 1
3.9290308121638196e-02 -4.6186454171602200e-02 0.0000000000000000e+00 1
1.5316437154041868e-01 6.6060249505332291e-02 0.0000000000000000e+00 1
6.6609614207254420e-02 -8.7300047681139747e-02 0.0000000000000000e+00 1
-1.4106256190633434e-01 -2.7679039438070253e-02 0.0000000000000000e+00 1
-1.4645387429667778e-01 -3.4925539139275721e-02 0.0000000000000000e+00 1
-1.7533649814869209e-01 3.0390129686328763e-02 0.0000000000000000e+00 1
-8.2311184991308378e-02 -7.3687162932275257e-02 0.0000000000000000e+00 1
-7.7032871348550191e-02 5.4607586814051715e-02 0.0000000000000000e+00 1
2.8101201944201348e-02 -8.6339998944611362e-02 0.0000000000000000e+00 1
6.7840341036991422e-02 -9.2183959741496638e-02 0.0000000000000000e+00 1
1.5156417521778416e-02 6.6367667167627570e-02 0.0000000000000000e+00 1
-1.0311917304639462e-01 4.8045120264523948e-02 0.0000000000000000e+00 1
-1.8793389107201552e-01 2.2813878943273150e-02 0.0000000000000000e+00 1
1.8973419377903972e-01 6.0851987422391729e-02 0.0000000000000000e+00 1
-2.0646662219132531e-01 -7.6318270853135332e-04 0.0000000000000000e+00 1
2.8430275472227241e-02 6.9873550861543447e-03 0.0000000000000000e+00 1
-1.6132081375272972e-01 3.7662427166658963e-02 0.0000000000000000e+00 1
-1.4820558213777552e-01 7.7246272252846420e-03 0.0000000000000000e+00 1
1.9179303441759549e-01 5.3982571752031208e-02 0.0000000000000000e+00 1
9.6010975621738784e-02 6.9464867875291075e-02 0.0000000000000000e+00 1
-1.5266157472561540e-01 3.1941558006035035e-02 0.0000000000000000e+00 1
-2.2682107757740887e-02 -7.7558969828477292e-02 0.0000000000000000e+00 1
-1.7372502902500064e-01 -3.6351888956745376e-02 0.0000000000000000e+00 1
1.9369206163385105e-01 6.2085528410494376e-02 0.0000000000000000e+00 1
5.1042553476989820e-02 6.0890989566944477e-02 0.0000000000000000e+00 1
1.2277515487421616e-01 -4.0453402062380538e-02 0.0000000000000000e+00 1
1.9502838534984435e-01 4.7964002796456108e-02 0.0000000000000000e+00 1
1.8884033039550184e-02 8.4888129231662883e-03 0.0000000000000000e+00 1
8.3721397467534209e-02 -8.3385958108118136e-02 0.0000000000000000e+00 1
3.6465144723146291e-02 -3.9498527720342652e-02 0.0000000000000000e+00 1
-1.4024495972611517e-01 -4.8500988996820274e-02 0.0000000000000000e+00 1
-2.1490678722390991e-01 -8.8078893146941971e-03 0.0000000000000000e+00 1
2.0388761100044055e-02 -8.5858575894528846e-02 0.0000000000000000e+00 1
-1.5755820899587447e-01 2.5288102536012016e-02 0.0000000000000000e+00 1
1.3735756771072402e-02 1.7190463152003996e-02 0.0000000000000000e+00 1
-1.3911051489426307e-01 1.6132468828735737e-02 0.0000000000000000e+00 1
-9.2843983175455433e-02 -7.0360036133981799e-02 0.0000000000000000e+00 1
4.3368044438675370e-03 1.8466883683636907e-02 0.0000000000000000e+00 1
-1.5436113611247484e-01 1.7440317086758965e-02 0.0000000000000000e+00 1
-1.3643883748377050e-01 -2.1075944143131263e-02 0.0000000000000000e+00 1
1.0393779943000095e-01 -5.8809460806929031e-02 0.0000000000000000e+00 1
1.1742957245530398e-01 -4.6403994536313407e-02 0.0000000000000000e+00 1
-1.8420836616023434e-01 -3.2381978569486304e-02 0.0000000000000000e+00 1
9.8334400006821910e-03 -8.2873122627635798e-02 0.0000000000000000e+00 1
7.6532095005230477e-02 -8.7717708750118528e-02 0.0000000000000000e+00 1
-4.8431438679793224e-03 1.9853157537963642e-02 0.0000000000000000e+00 1
-1.9685808580385852e-01 8.8804474099493415e-03 0.0000000000000000e+00 1
-8.6843961545872428e-03 2.8497492569353931e-02 0.0000000000000000e+00 1
1.0052897628086445e-01 -5.4584440972048134e-02 0.0000000000000000e+00 1
-1.9339639052181037e-01 1.1861028173690898e-02 0.0000000000000000e+00 1
1.6258009640570883e-01 3.4834962355596174e-03 0.0000000000000000e+00 1
-1.2912777995177654e-01 5.0486046909138479e-02 0.0000000000000000e+00 1
-4.6526003011050185e-02 6.0935433060643668e-02 0.0000000000000000e+00 1
-1.2688682614248529e-02 3.7722810888916929e-02 0.0000000000000000e+00 1
-1.6442817149716630e-02 4.6999591830132713e-02 0.0000000000000000e+00 1
1.7645997903265404e-01 4.6692870087320711e-02 0.0000000000000000e+00 1
-2.0309066759691483e-01 3.0607212318376174e-03 0.0000000000000000e+00 1
-1.3080937731769188e-01 5.7877079840139151e-03 0.0000000000000000e+00 1
8.7466228746519312e-02 6.9923283546668200e-02 0.0000000000000000e+00 1
-2.1117886639867439e-01 -7.7440915669046567e-03 0.0000000000000000e+00 1
-1.2799472948521207e-01 -1.2846820365339101e-02 0.0000000000000000e+00 1
-1.4742226909202083e-01 3.6025157442482546e-02 0.0000000000000000e+00 1
-8.6117704691717312e-02 5.4308097963231758e-02 0.0000000000000000e+00 1
-1.9248236042750322e-01 2.2521466560048642e-03 0.0000000000000000e+00 1
1.4619478006512496e-01 6.7951925514941641e-02 0.0000000000000000e+00 1
-3.6818527757348153e-02 -6.7056024208337464e-02 0.0000000000000000e+00 1
-1.1271505881332271e-01 4.7015982240204771e-02 0.0000000000000000e+00 1

Edges
121
1 2 1
2 3 1
3 4 1
4 5 1
5 6 1
6 7 1
7 8 1
8 9 1
9 10 1
10 11 1
11 12 1
12 13 1
13 14 1
14 15 1
15 16 1
16 17 1
17 18 1
18 19 1
19 20 1
20 21 1
21 22 1
22 23 1
23 24 1
24 25 1
25 26 1
26 27 1
27 28 1
28 29 1
29 30 1
30 31 1
31 32 1
32 33 1
33 34 1
34 35 1
35 36 1
36 37 1
37 38 1
38 39 1
39 40 1
40 41 1
41 42 1
42 43 1
43 44 1
44 45 1
45 46 1
46 47 1
47 48 1
48 49 1
49 50 1
50 51 1
51 52 1
52 53 1
53 54 1
54 55 1
55 56 1
56 57 1
57 58 1
58 59 1
59 60 1
60 61 1
61 62 1
62 63 1
63 64 1
64 65 1
65 66 1
66 67 1
67 68 1
68 69 1
69 70 1
70 71 1
71 72 1
72 73 1
73 74 1
74 75 1
75 76 1
76 77 1
77 78 1
78 79 1
79 80 1
80 81 1
81 82 1
82 83 1
83 84 1
84 85 1
85 86 1
86 87 1
87 88 1
88 89 1
89 90 1
90 91 1
91 92 1
92 93 1
93 94 1
94 95 1
95 96 1
96 97 1
97 98 1
98 99 1
99 100 1
100 101 1
101 102 1
102 103 1
103 104 1
104 105 1
105 106 1
106 107 1
107 108 1
108 109 1
109 110 1
110 111 1
111 112 1
112 113 1
113 114 1
114 115 1
115 116 1
116 117 1
117 118 1
118 119 1
119 120 1
120 121 1
121 1 1

Triangles
1709
680 711 791 1
514 141 516 1
145 790 797 1
24 25 632 1
509 167 576 1
656 657 740 1
692 134 886 1
520 268 580 1
790 538 797 1
157 600 735 1
358 667 672 1
126 560 597 1
536 174 538 1
711 680 822 1
549 139 603 1
563 543 568 1
126 597 737 1
693 692 886 1
167 509 752 1
157 599 600 1
700 698 761 1
168 530 633 1
804 803 868 1
297 295 672 1
762 802 830 1
684 134 692 1
782 501 784 1
139 549 794 1
629 627 641 1
617 801 847 1
663 331 665 1
667 358 879 1
538 174 797 1
602 368 779 1
801 243 847 1
792 562 834 1
159 700 761 1
268 520 581 1
144 792 834 1
287 521 566 1
141 514 721 1
657 445 740 1
543 542 568 1
601 368 602 1
467 448 544 1
818 148 863 1
25 174 632 1
563 562 701 1
530 508 633 1
796 478 826 1
521 287 567 1
148 818 868 1
22 23 721 1
544 448 545 1
758 543 892 1
700 796 826 1
363 535 537 1
362 629 641 1
599 157 769 1
134 684 748 1
495 497 567 1
467 544 781 1
501 782 834 1
165 549 800 1
762 166 802 1
170 758 892 1
813 135 835 1
534 599 769 1
715 484 743 1
803 175 868 1
435 395 726 1
665 331 672 1
248 884 887 1
580 268 583 1
368 601 767 1
295 358 672 1
601 547 767 1
478 703 708 1
611 813 835 1
884 533 887 1
596 383 776 1
552 466 605 1
526 383 732 1
808 736 860 1
703 478 796 1
684 551 748 1
1 2 787 1
527 136 786 1
576 167 721 1
596 776 898 1
605 466 913 1
417 673 750 1
255 540 588 1
818 804 868 1
311 301 717 1
782 784 825 1
400 582 584 1
704 726 860 1
695 467 781 1
359 542 571 1
546 172 784 1
194 191 768 1
832 380 841 1
331 297 672 1
527 166 795 1
802 715 830 1
756 503 831 1
711 513 791 1
490 808 860 1
540 255 570 1
636 715 743 1
549 165 794 1
732 575 806 1
609 668 669 1
701 562 792 1
582 400 585 1
516 141 632 1
141 24 632 1
856 693 886 1
510 757 780 1
497 521 567 1
542 359 568 1
255 253 570 1
105 856 886 1
23 141 721 1
535 363 558 1
331 663 717 1
695 196 816 1
257 258 581 1
563 701 892 1
174 536 632 1
383 526 776 1
513 711 840 1
680 791 904 1
656 740 874 1
361 325 552 1
258 268 581 1
433 462 548 1
35 36 151 1
559 647 771 1
161 646 722 1
540 495 567 1
724 585 766 1
556 140 598 1
323 673 674 1
559 194 768 1
543 563 892 1
633 508 793 1
450 544 545 1
152 730 827 1
668 609 683 1
863 148 873 1
395 490 726 1
194 559 771 1
786 787 852 1
529 789 867 1
690 832 841 1
673 323 750 1
445 657 736 1
136 527 795 1
122 756 831 1
624 578 778 1
704 127 726 1
166 527 802 1
508 756 793 1
681 435 726 1
543 758 872 1
728 518 838 1
730 152 871 1
553 342 675 1
253 267 570 1
135 534 769 1
363 537 905 1
726 490 860 1
542 440 571 1
789 529 888 1
512 513 840 1
81 82 173 1
780 757 862 1
489 846 909 1
167 22 721 1
546 489 909 1
127 681 726 1
514 576 721 1
301 331 717 1
41 42 735 1
450 545 603 1
526 732 806 1
681 127 725 1
540 567 588 1
662 675 716 1
512 840 902 1
486 489 546 1
325 324 552 1
609 669 673 1
555 171 556 1
815 645 820 1
641 627 893 1
582 585 774 1
267 607 706 1
252 724 766 1
465 815 820 1
467 695 816 1
323 674 772 1
190 547 768 1
416 399 584 1
765 590 770 1
299 765 770 1
361 552 605 1
357 180 572 1
716 311 717 1
547 190 767 1
570 267 706 1
534 135 813 1
549 548 800 1
169 574 630 1
390 397 486 1
569 488 649 1
486 397 489 1
667 665 672 1
184 186 558 1
585 724 774 1
448 433 548 1
251 775 809 1
484 715 802 1
212 788 799 1
788 623 799 1
290 337 573 1
712 357 713 1
377 619 620 1
417 609 673 1
553 482 742 1
312 529 867 1
386 387 390 1
445 736 808 1
537 536 538 1
507 406 569 1
191 190 768 1
557 137 866 1
390 387 397 1
384 624 778 1
257 581 582 1
722 646 902 1
363 184 558 1
169 630 631 1
718 838 854 1
357 572 848 1
582 581 584 1
631 498 807 1
554 553 675 1
530 168 890 1
486 546 784 1
171 555 557 1
742 482 764 1
749 165 800 1
114 115 677 1
749 800 819 1
133 631 807 1
225 668 683 1
440 335 571 1
399 400 584 1
519 580 583 1
535 516 536 1
143 41 735 1
360 361 386 1
186 365 558 1
386 361 387 1
342 553 742 1
377 618 619 1
466 515 913 1
393 376 586 1
529 312 885 1
509 450 603 1
537 538 539 1
383 328 732 1
252 590 765 1
607 267 685 1
327 333 618 1
82 83 595 1
545 448 548 1
232 660 661 1
271 273 652 1
630 498 631 1
115 153 677 1
136 1 787 1
360 325 361 1
389 488 569 1
541 129 824 1
337 636 743 1
581 520 584 1
481 607 685 1
520 416 584 1
172 546 821 1
37 146 177 1
466 510 515 1
137 557 870 1
654 299 770 1
590 252 766 1
259 256 588 1
535 536 537 1
594 587 707 1
412 514 516 1
309 324 325 1
502 542 543 1
551 158 748 1
177 146 178 1
367 452 466 1
662 716 717 1
443 622 623 1
299 654 775 1
675 342 716 1
198 594 707 1
349 334 389 1
502 440 542 1
389 483 488 1
782 144 834 1
586 376 589 1
307 308 309 1
333 616 618 1
452 404 598 1
313 405 579 1
390 501 561 1
412 516 535 1
178 357 712 1
359 325 360 1
318 320 622 1
280 313 579 1
377 327 618 1
337 635 636 1
466 452 510 1
309 308 324 1
282 579 777 1
273 284 652 1
225 666 668 1
636 714 715 1
173 82 595 1
519 472 580 1
539 790 804 1
324 367 552 1
229 231 659 1
349 389 569 1
313 334 349 1
507 569 649 1
365 412 558 1
282 278 579 1
365 410 412 1
256 255 588 1
232 659 660 1
337 292 635 1
647 594 771 1
178 180 357 1
666 225 670 1
163 550 798 1
388 613 614 1
503 406 507 1
270 304 305 1
406 349 569 1
472 464 580 1
313 289 334 1
390 486 501 1
210 577 578 1
443 623 763 1
367 466 552 1
307 305 308 1
443 318 622 1
276 282 575 1
484 409 743 1
400 393 586 1
585 400 586 1
386 390 561 1
280 289 313 1
483 527 786 1
42 157 735 1
412 535 558 1
270 269 304 1
113 114 625 1
573 337 743 1
266 269 270 1
585 586 766 1
411 509 576 1
545 549 603 1
210 211 577 1
180 182 572 1
333 341 616 1
140 556 855 1
575 282 806 1
275 274 276 1
273 272 274 1
412 410 514 1
182 363 572 1
389 409 483 1
620 619 621 1
116 117 738 1
158 551 811 1
232 661 671 1
524 525 528 1
246 244 604 1
388 612 613 1
394 561 562 1
244 262 604 1
470 810 814 1
775 654 809 1
660 554 675 1
362 641 734 1
625 114 677 1
600 601 602 1
278 280 579 1
306 305 307 1
287 259 588 1
608 217 683 1
231 592 659 1
271 220 272 1
567 287 588 1
394 386 561 1
480 547 601 1
487 179 745 1
511 472 517 1
266 265 269 1
477 440 502 1
522 523 524 1
276 278 282 1
483 484 527 1
713 804 818 1
381 383 596 1
264 265 266 1
609 608 683 1
574 523 630 1
668 667 669 1
264 263 265 1
599 480 600 1
524 523 525 1
577 271 652 1
661 660 662 1
309 359 571 1
314 302 587 1
511 517 518 1
232 229 659 1
606 578 624 1
471 464 472 1
476 479 480 1
206 207 606 1
666 665 667 1
539 804 848 1
664 666 670 1
649 150 894 1
309 325 359 1
470 624 810 1
604 481 685 1
86 87 821 1
523 499 630 1
324 336 367 1
262 591 604 1
214 220 271 1
838 518 854 1
548 462 800 1
497 498 499 1
661 662 663 1
626 625 627 1
260 263 264 1
367 404 452 1
773 824 841 1
522 499 523 1
598 140 757 1
93 94 170 1
404 468 598 1
664 663 665 1
360 386 394 1
275 276 575 1
560 596 597 1
231 234 592 1
470 206 606 1
276 277 278 1
320 377 622 1
518 728 880 1
438 335 440 1
271 272 273 1
278 279 280 1
92 93 701 1
377 620 622 1
260 259 263 1
224 227 671 1
115 116 153 1
464 520 580 1
258 256 259 1
600 480 601 1
227 232 671 1
280 281 289 1
474 475 476 1
34 35 843 1
162 728 838 1
258 259 260 1
480 479 547 1
670 224 671 1
471 472 511 1
497 496 498 1
341 388 616 1
405 349 406 1
54 156 658 1
307 309 571 1
117 123 738 1
521 499 522 1
289 290 573 1
463 416 464 1
664 670 671 1
273 274 275 1
495 496 497 1
211 214 577 1
9 10 168 1
468 556 598 1
97 98 162 1
550 163 861 1
37 38 146 1
474 414 475 1
517 472 519 1
388 370 612 1
614 613 615 1
488 786 852 1
403 413 414 1
587 302 707 1
388 614 616 1
666 667 668 1
476 475 479 1
234 237 592 1
507 649 650 1
616 614 617 1
335 307 571 1
376 374 589 1
254 255 256 1
415 399 416 1
664 665 666 1
463 464 471 1
370 379 612 1
285 275 575 1
651 676 691 1
475 414 647 1
468 555 556 1
222 224 670 1
476 480 599 1
403 355 413 1
524 528 529 1
154 51 655 1
461 492 493 1
622 620 623 1
495 493 496 1
473 414 474 1
207 210 606 1
661 663 664 1
638 364 734 1
545 548 549 1
559 475 647 1
129 541 908 1
355 314 587 1
374 451 589 1
110 111 152 1
560 424 596 1
125 113 625 1
101 102 158 1
618 617 619 1
494 493 495 1
254 253 255 1
536 516 632 1
276 274 277 1
409 573 743 1
661 664 671 1
50 51 154 1
225 222 670 1
290 292 337 1
773 541 824 1
182 184 363 1
214 215 220 1
464 416 520 1
155 47 705 1
459 460 461 1
457 459 607 1
461 460 492 1
489 397 564 1
381 328 383 1
52 53 124 1
424 381 596 1
21 22 167 1
591 262 676 1
8 9 633 1
415 416 463 1
110 152 702 1
663 662 717 1
270 305 306 1
95 96 142 1
257 256 258 1
112 113 125 1
641 638 734 1
152 111 754 1
413 594 647 1
636 637 714 1
413 587 594 1
42 43 157 1
106 107 159 1
46 47 155 1
313 349 405 1
389 334 409 1
129 49 687 1
398 393 399 1
534 476 599 1
284 275 285 1
99 100 138 1
250 249 253 1
408 482 553 1
452 598 757 1
470 606 624 1
210 578 606 1
138 100 720 1
637 638 639 1
673 669 674 1
447 433 448 1
54 55 156 1
100 101 720 1
250 253 254 1
25 26 174 1
497 499 521 1
398 399 415 1
612 533 613 1
459 458 460 1
48 49 129 1
399 393 400 1
521 522 566 1
701 170 892 1
589 451 590 1
47 48 705 1
499 498 630 1
214 271 577 1
616 617 618 1
292 294 635 1
408 553 554 1
13 14 164 1
402 355 403 1
365 366 410 1
457 458 459 1
247 249 250 1
637 639 714 1
698 700 826 1
153 640 893 1
676 262 691 1
269 265 312 1
436 532 533 1
379 436 612 1
246 604 685 1
287 566 907 1
247 246 249 1
413 355 587 1
49 50 687 1
40 41 143 1
607 459 706 1
651 418 676 1
117 118 123 1
44 45 135 1
17 18 165 1
272 220 417 1
447 448 467 1
298 303 696 1
655 656 689 1
11 12 126 1
418 419 694 1
97 162 783 1
493 492 593 1
62 63 161 1
688 689 690 1
461 493 494 1
263 259 287 1
306 307 335 1
51 52 655 1
655 124 656 1
474 476 534 1
491 424 560 1
481 457 607 1
103 104 134 1
494 495 540 1
436 533 612 1
457 455 458 1
58 59 160 1
79 80 147 1
245 244 246 1
66 67 163 1
288 206 470 1
578 577 652 1
237 251 408 1
74 75 171 1
70 71 169 1
211 213 214 1
108 109 130 1
52 124 655 1
456 455 457 1
422 454 455 1
354 314 355 1
109 110 702 1
411 450 509 1
650 649 894 1
237 408 592 1
578 652 778 1
60 61 128 1
186 188 365 1
245 246 247 1
407 406 503 1
392 376 393 1
264 266 283 1
525 523 574 1
626 627 629 1
414 413 647 1
294 364 635 1
219 225 683 1
659 554 660 1
408 251 482 1
64 65 131 1
458 634 643 1
432 431 433 1
154 655 689 1
305 304 759 1
403 414 473 1
103 134 748 1
53 54 658 1
159 699 700 1
419 421 422 1
436 531 532 1
56 57 127 1
324 308 336 1
375 374 376 1
438 440 477 1
6 7 122 1
156 55 704 1
23 24 141 1
19 20 139 1
432 433 447 1
422 421 454 1
242 244 245 1
422 455 456 1
456 457 481 1
379 434 436 1
687 154 688 1
72 73 137 1
441 428 648 1
125 625 626 1
303 316 696 1
68 69 133 1
403 473 610 1
253 249 267 1
204 288 645 1
328 285 732 1
676 418 694 1
372 356 653 1
433 431 462 1
496 493 593 1
316 318 443 1
374 372 451 1
392 393 398 1
610 473 611 1
76 77 140 1
159 107 699 1
258 260 268 1
219 222 225 1
50 154 687 1
204 205 206 1
233 230 682 1
207 209 210 1
653 453 654 1
396 330 729 1
492 460 550 1
204 206 288 1
627 625 677 1
356 453 653 1
254 256 257 1
242 241 244 1
528 525 870 1
44 135 769 1
347 344 678 1
461 494 706 1
341 370 388 1
320 327 377 1
428 430 648 1
451 372 653 1
397 387 401 1
528 870 883 1
455 454 634 1
430 431 432 1
215 217 608 1
244 241 262 1
345 348 418 1
201 204 645 1
240 242 299 1
709 487 745 1
90 91 144 1
206 205 207 1
345 418 651 1
367 336 404 1
286 285 328 1
375 376 392 1
300 310 362 1
458 455 634 1
430 465 648 1
430 429 431 1
284 285 286 1
294 296 364 1
656 124 657 1
662 660 675 1
419 422 694 1
479 475 559 1
344 261 678 1
418 348 419 1
108 130 699 1
402 403 610 1
373 372 374 1
249 246 685 1
591 481 604 1
436 434 531 1
240 239 241 1
245 247 252 1
261 233 682 1
343 345 651 1
201 203 204 1
429 485 642 1
346 344 347 1
197 200 644 1
160 710 711 1
39 40 709 1
494 570 706 1
408 554 592 1
430 432 465 1
62 161 722 1
234 236 237 1
431 429 642 1
200 201 645 1
300 362 734 1
316 443 696 1
483 409 484 1
688 154 689 1
426 428 441 1
678 261 682 1
636 635 637 1
419 420 421 1
240 241 242 1
354 355 402 1
273 275 284 1
239 686 691 1
107 108 699 1
15 16 132 1
227 229 232 1
373 374 375 1
686 651 691 1
442 351 708 1
278 277 279 1
238 239 240 1
262 241 691 1
646 512 902 1
454 421 646 1
345 346 348 1
646 161 805 1
356 352 453 1
200 199 201 1
238 236 239 1
270 306 755 1
592 554 659 1
241 239 691 1
343 651 686 1
277 274 750 1
282 777 806 1
239 236 686 1
456 481 591 1
197 199 200 1
237 238 251 1
426 441 741 1
428 429 430 1
130 702 703 1
237 236 238 1
817 713 818 1
127 57 725 1
415 463 551 1
196 644 816 1
346 347 385 1
462 431 642 1
60 128 710 1
9 168 633 1
272 417 750 1
204 203 205 1
658 156 736 1
89 90 782 1
63 64 731 1
288 470 814 1
371 356 372 1
425 491 727 1
562 561 834 1
12 13 744 1
64 131 731 1
196 197 644 1
419 348 420 1
124 53 658 1
460 458 643 1
179 146 745 1
591 676 694 1
236 235 686 1
343 344 345 1
235 343 686 1
61 62 722 1
235 233 261 1
55 56 704 1
234 235 236 1
421 512 646 1
422 456 694 1
56 127 704 1
210 209 211 1
421 420 512 1
160 59 710 1
371 372 373 1
359 360 568 1
119 120 166 1
235 261 343 1
514 410 576 1
126 12 744 1
48 129 705 1
420 348 697 1
345 344 346 1
348 346 697 1
343 261 344 1
101 158 720 1
512 420 513 1
547 479 768 1
513 420 697 1
459 461 706 1
375 392 423 1
351 353 708 1
353 352 356 1
456 591 694 1
429 427 485 1
329 328 381 1
267 249 685 1
130 109 702 1
379 395 434 1
425 424 491 1
234 233 235 1
196 195 197 1
382 381 424 1
214 213 215 1
783 719 833 1
59 60 710 1
321 330 396 1
428 427 429 1
339 351 442 1
506 504 508 1
392 398 692 1
572 363 905 1
848 572 905 1
353 356 371 1
564 401 565 1
405 406 407 1
531 434 679 1
252 247 724 1
197 195 198 1
373 375 698 1
370 378 379 1
330 339 729 1
322 311 716 1
197 198 199 1
353 371 478 1
465 432 733 1
288 814 820 1
201 199 202 1
201 202 203 1
494 540 570 1
280 279 281 1
427 425 727 1
231 233 234 1
718 477 719 1
128 61 722 1
283 266 755 1
397 401 564 1
346 385 697 1
637 364 638 1
410 411 576 1
550 460 643 1
99 138 728 1
231 230 233 1
228 226 248 1
274 272 750 1
193 195 196 1
375 423 698 1
208 739 763 1
229 230 231 1
207 205 208 1
635 364 637 1
434 395 435 1
426 427 428 1
679 435 680 1
247 250 724 1
434 435 679 1
423 392 692 1
192 193 695 1
286 328 329 1
398 415 684 1
645 288 820 1
257 582 774 1
341 369 370 1
161 63 731 1
220 215 608 1
602 779 851 1
207 208 209 1
193 196 695 1
351 352 353 1
285 575 732 1
500 402 610 1
682 230 723 1
510 452 757 1
680 435 681 1
395 378 490 1
382 424 425 1
58 160 725 1
333 340 341 1
329 381 382 1
444 402 500 1
364 296 734 1
415 551 684 1
379 378 395 1
315 314 354 1
382 425 426 1
365 188 366 1
303 302 314 1
334 289 573 1
217 219 683 1
639 638 640 1
229 228 230 1
221 218 243 1
369 340 445 1
327 332 333 1
298 202 302 1
351 350 352 1
338 322 342 1
653 654 770 1
93 170 701 1
657 124 658 1
289 281 290 1
320 326 327 1
153 116 738 1
398 684 692 1
332 326 391 1
286 329 384 1
426 425 427 1
465 733 815 1
657 658 736 1
29 30 175 1
353 478 708 1
316 317 318 1
423 692 693 1
57 58 725 1
227 228 229 1
318 319 320 1
303 315 316 1
410 366 411 1
222 223 224 1
306 437 755 1
193 191 194 1
205 203 739 1
224 226 227 1
370 369 378 1
162 719 783 1
319 317 380 1
283 583 910 1
193 194 195 1
432 447 733 1
729 442 730 1
211 212 213 1
224 223 226 1
199 198 707 1
13 164 744 1
227 226 228 1
341 340 369 1
342 322 716 1
211 209 212 1
217 218 219 1
203 202 298 1
339 442 729 1
164 14 747 1
27 28 145 1
219 221 222 1
333 332 340 1
299 242 765 1
215 216 217 1
468 469 555 1
222 221 223 1
354 402 444 1
407 503 504 1
404 446 468 1
323 277 750 1
327 326 332 1
336 308 759 1
192 191 193 1
298 302 303 1
228 248 723 1
485 427 727 1
437 335 438 1
339 350 351 1
303 314 315 1
81 173 753 1
320 319 326 1
245 252 765 1
316 315 317 1
266 270 755 1
230 228 723 1
339 338 350 1
318 317 319 1
417 608 609 1
438 477 718 1
202 199 707 1
219 218 221 1
11 126 737 1
590 451 770 1
168 10 737 1
189 191 192 1
217 216 218 1
208 205 739 1
298 696 739 1
594 198 771 1
40 143 709 1
98 99 728 1
240 299 775 1
102 103 748 1
111 112 754 1
453 352 764 1
301 297 331 1
506 508 530 1
17 165 749 1
14 15 747 1
321 322 330 1
330 322 338 1
10 11 737 1
321 311 322 1
163 67 751 1
387 361 605 1
330 338 339 1
411 449 450 1
125 626 628 1
215 213 216 1
450 449 544 1
444 500 541 1
310 311 321 1
698 423 761 1
67 68 751 1
16 17 749 1
203 298 739 1
302 202 707 1
539 538 790 1
295 293 358 1
162 98 728 1
619 617 847 1
739 696 763 1
254 257 774 1
382 426 741 1
589 590 766 1
445 340 740 1
310 301 311 1
446 336 759 1
36 37 177 1
712 713 817 1
189 187 190 1
292 293 294 1
332 391 740 1
251 238 775 1
290 291 292 1
503 507 831 1
417 220 608 1
586 589 766 1
508 504 756 1
189 192 760 1
15 132 747 1
20 21 752 1
384 329 741 1
329 382 741 1
453 764 809 1
350 338 742 1
629 362 812 1
315 354 746 1
354 444 746 1
158 102 748 1
724 250 774 1
300 301 310 1
338 342 742 1
308 305 759 1
380 317 746 1
43 44 769 1
617 614 801 1
132 16 749 1
720 158 811 1
294 295 296 1
177 178 712 1
68 133 751 1
394 563 568 1
340 332 740 1
189 190 191 1
883 469 888 1
411 366 449 1
39 709 745 1
296 297 300 1
186 187 188 1
38 39 745 1
95 142 758 1
306 335 437 1
505 504 506 1
652 284 778 1
294 293 295 1
300 297 301 1
87 88 172 1
468 446 469 1
296 300 734 1
350 742 764 1
21 167 752 1
404 336 446 1
279 277 323 1
292 291 293 1
198 195 771 1
631 133 901 1
505 506 526 1
317 315 746 1
296 295 297 1
139 20 752 1
188 187 189 1
407 504 505 1
184 185 186 1
640 638 641 1
437 438 439 1
112 125 754 1
579 405 777 1
151 177 712 1
130 703 796 1
132 749 819 1
439 438 718 1
94 95 758 1
242 245 765 1
185 183 368 1
80 81 753 1
96 97 783 1
852 787 859 1
312 566 885 1
423 693 761 1
623 620 799 1
360 394 568 1
147 80 753 1
284 286 778 1
165 18 794 1
394 562 563 1
352 350 764 1
118 119 762 1
186 185 187 1
290 281 291 1
182 183 184 1
746 444 773 1
146 38 745 1
192 695 781 1
479 559 768 1
451 653 770 1
180 181 182 1
677 153 893 1
504 503 756 1
764 482 809 1
125 628 754 1
513 697 791 1
696 443 763 1
131 65 798 1
482 251 809 1
496 593 807 1
409 334 573 1
250 254 774 1
488 483 786 1
178 179 180 1
155 705 869 1
556 171 855 1
8 633 793 1
188 189 760 1
181 179 487 1
380 746 773 1
753 173 906 1
195 194 771 1
66 163 798 1
238 240 775 1
121 1 136 1
157 43 769 1
474 534 813 1
170 94 758 1
640 641 893 1
366 188 760 1
5 650 894 1
184 183 185 1
720 811 839 1
212 209 788 1
176 843 863 1
755 437 785 1
669 667 879 1
35 151 843 1
700 699 796 1
574 169 828 1
123 118 762 1
449 366 760 1
634 454 805 1
362 310 812 1
19 139 794 1
644 200 815 1
321 396 812 1
526 506 776 1
804 713 848 1
760 192 781 1
551 463 811 1
190 187 767 1
690 391 832 1
501 486 784 1
176 34 843 1
182 181 183 1
506 530 776 1
132 819 837 1
87 172 821 1
649 488 852 1
286 384 778 1
444 541 773 1
129 687 824 1
437 439 785 1
763 623 788 1
178 146 179 1
611 473 813 1
3 4 150 1
180 179 181 1
733 644 815 1
490 378 808 1
740 391 874 1
583 268 910 1
718 719 838 1
702 152 827 1
7 8 793 1
92 701 792 1
31 32 148 1
155 611 835 1
283 755 785 1
78 79 780 1
401 387 605 1
566 312 907 1
449 760 781 1
185 368 767 1
369 445 808 1
84 85 149 1
733 447 816 1
46 155 835 1
624 384 810 1
405 407 777 1
281 279 772 1
407 505 777 1
18 19 794 1
279 323 772 1
566 522 885 1
644 733 816 1
759 304 789 1
187 185 767 1
544 449 781 1
597 596 898 1
565 753 906 1
269 312 867 1
176 863 873 1
515 565 913 1
291 281 772 1
492 550 861 1
812 396 829 1
613 533 884 1
91 92 792 1
142 96 783 1
697 385 791 1
723 248 887 1
151 712 817 1
120 121 795 1
122 7 793 1
756 122 793 1
142 783 833 1
209 208 788 1
263 287 907 1
79 147 780 1
368 183 779 1
373 698 826 1
789 304 867 1
391 690 874 1
169 71 828 1
620 621 799 1
454 646 805 1
478 371 826 1
583 283 889 1
861 751 916 1
843 817 863 1
213 212 823 1
65 66 798 1
555 469 883 1
106 159 856 1
268 260 910 1
614 615 801 1
119 166 762 1
173 595 864 1
699 130 796 1
777 505 806 1
181 487 779 1
26 27 797 1
747 837 849 1
135 45 835 1
736 156 860 1
681 725 822 1
729 730 844 1
851 143 914 1
524 529 885 1
719 477 833 1
747 132 837 1
208 763 788 1
174 26 797 1
869 705 908 1
391 326 832 1
384 741 810 1
243 218 836 1
90 144 782 1
628 626 829 1
725 160 822 1
800 462 819 1
183 181 779 1
469 446 789 1
312 265 907 1
72 137 828 1
446 759 789 1
640 153 882 1
319 380 832 1
33 34 176 1
264 283 910 1
784 172 825 1
104 105 886 1
810 441 814 1
159 761 856 1
133 69 901 1
171 75 855 1
611 155 869 1
711 710 840 1
650 5 878 1
166 120 795 1
137 73 866 1
752 509 900 1
161 731 805 1
509 603 900 1
498 496 807 1
248 226 877 1
527 484 802 1
790 145 803 1
138 720 839 1
730 442 915 1
169 631 901 1
786 136 787 1
610 611 869 1
741 441 810 1
358 293 850 1
690 689 874 1
6 122 878 1
151 36 177 1
140 77 862 1
654 453 809 1
171 557 866 1
790 803 804 1
502 543 872 1
163 751 861 1
221 243 865 1
463 471 811 1
378 369 808 1
212 799 823 1
473 474 813 1
152 754 871 1
842 148 868 1
144 91 792 1
70 169 901 1
441 648 814 1
629 812 829 1
814 648 820 1
160 711 822 1
505 526 806 1
602 851 914 1
74 171 866 1
817 818 863 1
248 877 884 1
447 467 816 1
200 645 815 1
310 321 812 1
76 140 855 1
560 126 891 1
865 615 877 1
648 465 820 1
844 730 871 1
462 642 819 1
4 5 894 1
565 401 913 1
761 693 856 1
385 347 903 1
347 678 897 1
380 773 841 1
705 129 908 1
634 805 857 1
595 83 845 1
561 501 834 1
678 682 895 1
757 140 862 1
385 903 904 1
358 850 879 1
347 897 903 1
687 688 824 1
709 143 851 1
138 839 880 1
678 895 897 1
628 829 844 1
518 517 854 1
680 681 822 1
715 714 830 1
565 515 896 1
595 845 846 1
291 772 850 1
772 674 850 1
243 801 865 1
88 89 825 1
71 72 828 1
779 487 851 1
27 145 797 1
168 737 890 1
811 471 839 1
164 747 849 1
89 782 825 1
703 702 827 1
824 688 841 1
216 213 823 1
122 831 878 1
145 28 876 1
801 615 865 1
150 852 859 1
819 642 837 1
150 649 852 1
593 861 916 1
827 730 915 1
371 373 826 1
643 857 912 1
519 583 889 1
489 564 864 1
123 762 830 1
643 634 857 1
737 597 890 1
823 621 836 1
164 849 875 1
507 650 831 1
151 817 843 1
528 883 888 1
173 864 906 1
45 46 835 1
626 629 829 1
753 565 896 1
123 830 858 1
728 138 880 1
243 836 847 1
805 731 857 1
216 823 836 1
78 780 862 1
477 502 833 1
787 2 859 1
791 385 904 1
713 357 848 1
642 485 837 1
719 162 838 1
799 621 823 1
326 319 832 1
121 136 795 1
688 690 841 1
471 511 839 1
857 131 912 1
218 216 836 1
175 803 876 1
744 164 875 1
738 123 858 1
30 31 842 1
28 29 876 1
744 875 891 1
710 128 840 1
175 30 842 1
75 76 855 1
621 619 847 1
837 485 849 1
396 729 844 1
517 519 853 1
83 84 845 1
830 714 858 1
738 858 882 1
515 510 899 1
539 848 905 1
77 78 862 1
2 3 859 1
73 74 866 1
839 511 880 1
105 106 856 1
5 6 878 1
593 492 861 1
304 269 867 1
172 88 825 1
156 704 860 1
564 565 906 1
3 150 859 1
600 602 914 1
485 727 849 1
840 128 902 1
731 131 857 1
803 145 876 1
714 639 858 1
487 709 851 1
870 557 883 1
293 291 850 1
29 175 876 1
469 789 888 1
858 639 882 1
829 396 844 1
126 744 891 1
849 727 875 1
850 674 879 1
603 139 900 1
689 656 874 1
147 753 896 1
529 528 888 1
522 524 885 1
223 221 865 1
439 718 854 1
828 137 911 1
595 846 864 1
511 518 880 1
628 844 871 1
510 780 899 1
557 555 883 1
758 142 872 1
727 491 875 1
708 703 915 1
223 865 877 1
533 532 887 1
674 669 879 1
615 613 884 1
69 70 901 1
265 263 907 1
500 610 869 1
525 574 911 1
846 149 909 1
639 640 882 1
807 593 916 1
260 264 910 1
226 223 877 1
735 600 914 1
143 735 914 1
134 104 886 1
875 491 891 1
491 560 891 1
845 149 846 1
537 539 905 1
846 489 864 1
785 439 853 1
500 869 908 1
532 531 897 1
682 723 895 1
627 677 893 1
853 439 854 1
780 147 899 1
550 643 912 1
32 33 873 1
895 532 897 1
877 615 884 1
442 708 915 1
754 628 871 1
897 531 903 1
531 679 903 1
679 680 904 1
85 86 881 1
751 133 916 1
903 679 904 1
139 752 900 1
131 798 912 1
128 722 902 1
84 149 845 1
517 853 854 1
541 500 908 1
836 621 847 1
31 148 842 1
153 738 882 1
149 85 881 1
831 650 878 1
148 32 873 1
86 821 881 1
776 530 898 1
401 605 913 1
833 502 872 1
283 785 889 1
798 550 912 1
785 853 889 1
133 807 916 1
33 176 873 1
142 833 872 1
175 842 868 1
574 828 911 1
853 519 889 1
150 4 894 1
703 827 915 1
864 564 906 1
821 546 909 1
723 887 895 1
881 821 909 1
137 870 911 1
149 881 909 1
870 525 911 1
887 532 895 1
530 890 898 1
890 597 898 1
147 896 899 1
896 515 899 1

End
