MeshVersionFormatted 2
Dimension 3

Vertices
290
-3.0051477139468646e-01 -4.8634995923389886e-02 0.0000000000000000e+00 1
-3.0424709967848662e-01 -4.9664698264162289e-02 0.0000000000000000e+00 1
-3.0668549955347585e-01 -5.0575264660658779e-02 0.0000000000000000e+00 1
-3.0789808784255090e-01 -5.1370729217951799e-02 0.0000000000000000e+00 1
-3.0795298136860838e-01 -5.2055126041113835e-02 0.0000000000000000e+00 1
-3.0691829695454498e-01 -5.2632489235217357e-02 0.0000000000000000e+00 1
-3.0486215142325745e-01 -5.3106852905334838e-02 0.0000000000000000e+00 1
-3.0185266159764240e-01 -5.3482251156538749e-02 0.0000000000000000e+00 1
-2.9795794430059652e-01 -5.3762718093901554e-02 0.0000000000000000e+00 1
-2.9324611635501646e-01 -5.3952287822495754e-02 0.0000000000000000e+00 1
-2.8778529458379898e-01 -5.4054994447393777e-02 0.0000000000000000e+00 1
-2.8164359580984061e-01 -5.4074872073668137e-02 0.0000000000000000e+00 1
-2.7488913685603816e-01 -5.4015954806391285e-02 0.0000000000000000e+00 1
-2.6759003454528824e-01 -5.3882276750635685e-02 0.0000000000000000e+00 1
-2.5981440570048753e-01 -5.3677872011473837e-02 0.0000000000000000e+00 1
-2.5163036714453269e-01 -5.3406774693978185e-02 0.0000000000000000e+00 1
-2.4310603570032044e-01 -5.3073018903221213e-02 0.0000000000000000e+00 1
-2.3430952819074741e-01 -5.2680638744275400e-02 0.0000000000000000e+00 1
-2.2530896143871029e-01 -5.2233668322213204e-02 0.0000000000000000e+00 1
-2.1617245226710580e-01 -5.1736141742107104e-02 0.0000000000000000e+00 1
-2.0696811749883057e-01 -5.1192093109029578e-02 0.0000000000000000e+00 1
-1.9776407395678125e-01 -5.0605556528053076e-02 0.0000000000000000e+00 1
-1.8862843846385455e-01 -4.9980566104250099e-02 0.0000000000000000e+00 1
-1.7962932784294716e-01 -4.9321155942693103e-02 0.0000000000000000e+00 1
-1.7083485891695574e-01 -4.8631360148454560e-02 0.0000000000000000e+00 1
-1.6231314850877696e-01 -4.7915212826606948e-02 0.0000000000000000e+00 1
-1.5413231344130748e-01 -4.7176748082222733e-02 0.0000000000000000e+00 1
-1.4636047053744400e-01 -4.6420000020374393e-02 0.0000000000000000e+00 1
-1.3906573662008320e-01 -4.5649002746134391e-02 0.0000000000000000e+00 1
-1.3231622851212171e-01 -4.4867790364575215e-02 0.0000000000000000e+00 1
-1.2618006303645626e-01 -4.4080396980769321e-02 0.0000000000000000e+00 1
-1.2072535701598350e-01 -4.3290856699789187e-02 0.0000000000000000e+00 1
-1.1602022727360009e-01 -4.2503203626707294e-02 0.0000000000000000e+00 1
-1.0903668141848713e-01 -4.1215848401605096e-02 0.0000000000000000e+00 1
-1.0131355157550367e-01 -3.9765633494454999e-02 0.0000000000000000e+00 1
-9.2893803672536565e-02 -3.8160725545721919e-02 0.0000000000000000e+00 1
-8.3820403637472424e-02 -3.6409291195870774e-02 0.0000000000000000e+00 1
-7.4136317398198065e-02 -3.4519497085366502e-02 0.0000000000000000e+00 1
-6.3884510882600165e-02 -3.2499509854674022e-02 0.0000000000000000e+00 1
-5.3107950018565518e-02 -3.0357496144258280e-02 0.0000000000000000e+00 1
-4.1849600733980821e-02 -2.8101622594584184e-02 0.0000000000000000e+00 1
-3.0152428956732827e-02 -2.5740055846116675e-02 0.0000000000000000e+00 1
-1.8059400614708253e-02 -2.3280962539320674e-02 0.0000000000000000e+00 1
-5.6134816357938447e-03 -2.0732509314661113e-02 0.0000000000000000e+00 1
7.1423620521236519e-03 -1.8102862812602920e-02 0.0000000000000000e+00 1
2.0165164521157485e-02 -1.5400189673611035e-02 0.0000000000000000e+00 1
3.3411959843421012e-02 -1.2632656538150364e-02 0.0000000000000000e+00 1
4.6839782091027370e-02 -9.8084300466858530e-03 0.0000000000000000e+00 1
6.0405665336089896e-02 -6.9356768396824243e-03 0.0000000000000000e+00 1
7.4066643650721853e-02 -4.0225635576049967e-03 0.0000000000000000e+00 1
8.7779751107036480e-02 -1.0772568409185175e-03 0.0000000000000000e+00 1
1.0150202177714707e-01 1.8920766699121044e-03 0.0000000000000000e+00 1
1.1519048973316684e-01 4.8772703344219168e-03 0.0000000000000000e+00 1
1.2880218904720911e-01 7.8701575121460192e-03 0.0000000000000000e+00 1
1.4229415379138707e-01 1.0862571562619452e-02 0.0000000000000000e+00 1
1.5562341803781410e-01 1.3846345845377320e-02 0.0000000000000000e+00 1
1.6874701585860341e-01 1.6813313719954679e-02 0.0000000000000000e+00 1
1.8162198132586821e-01 1.9755308545886599e-02 0.0000000000000000e+00 1
1.9420534851172175e-01 2.2664163682708134e-02 0.0000000000000000e+00 1
2.0645415148827742e-01 2.5531712489954402e-02 0.0000000000000000e+00 1
2.1832542432764843e-01 2.8349788327160438e-02 0.0000000000000000e+00 1
2.2977620110194805e-01 3.1110224553861324e-02 0.0000000000000000e+00 1
2.4076351588328945e-01 3.3804854529592122e-02 0.0000000000000000e+00 1
2.5124440274378596e-01 3.6425511613887927e-02 0.0000000000000000e+00 1
2.6117589575555084e-01 3.8964029166283783e-02 0.0000000000000000e+00 1
2.7051502899069746e-01 4.1412240546314795e-02 0.0000000000000000e+00 1
2.7921883652133894e-01 4.3761979113516002e-02 0.0000000000000000e+00 1
2.8724435241958862e-01 4.6005078227422481e-02 0.0000000000000000e+00 1
2.9454861075755967e-01 4.8133371247569313e-02 0.0000000000000000e+00 1
3.0108864560736553e-01 5.0138691533491583e-02 0.0000000000000000e+00 1
3.0682149104111928e-01 5.2012872444724335e-02 0.0000000000000000e+00 1
3.1170418113093429e-01 5.3747747340802655e-02 0.0000000000000000e+00 1
3.1569374994892380e-01 5.5335149581261615e-02 0.0000000000000000e+00 1
3.1874723156720108e-01 5.6766912525636280e-02 0.0000000000000000e+00 1
3.2082166005787938e-01 5.8034869533461729e-02 0.0000000000000000e+00 1
3.2187406949307196e-01 5.9130853964273027e-02 0.0000000000000000e+00 1
3.2186149394489205e-01 6.0046699177605252e-02 0.0000000000000000e+00 1
3.2074096748545300e-01 6.0774238532993484e-02 0.0000000000000000e+00 1
3.1846952418686808e-01 6.1305305389972760e-02 0.0000000000000000e+00 1
3.1500419812125041e-01 6.1631733108078200e-02 0.0000000000000000e+00 1
3.1030202336071339e-01 6.1745355046844828e-02 0.0000000000000000e+00 1
3.0432003397737023e-01 6.1638004565807751e-02 0.0000000000000000e+00 1
2.9623644025436641e-01 6.1319253073868672e-02 0.0000000000000000e+00 1
2.8791050494539733e-01 6.0893904802541469e-02 0.0000000000000000e+00 1
2.7935080350652214e-01 6.0364695656103064e-02 0.0000000000000000e+00 1
2.7056591139380004e-01 5.9734361538830529e-02 0.0000000000000000e+00 1
2.6156440406329035e-01 5.9005638355000896e-02 0.0000000000000000e+00 1
2.5235485697105220e-01 5.8181262008891226e-02 0.0000000000000000e+00 1
2.4294584557314466e-01 5.7263968404778480e-02 0.0000000000000000e+00 1
2.3334594532562716e-01 5.6256493446939719e-02 0.0000000000000000e+00 1
2.2356373168455887e-01 5.5161573039651988e-02 0.0000000000000000e+00 1
2.1360778010599887e-01 5.3981943087192279e-02 0.0000000000000000e+00 1
2.0348666604600632e-01 5.2720339493837580e-02 0.0000000000000000e+00 1
1.9320896496064066e-01 5.1379498163865028e-02 0.0000000000000000e+00 1
1.8278325230596085e-01 4.9962155001551566e-02 0.0000000000000000e+00 1
1.7221810353802622e-01 4.8471045911174217e-02 0.0000000000000000e+00 1
1.6152209411289600e-01 4.6908906797010083e-02 0.0000000000000000e+00 1
1.5070379948662929e-01 4.5278473563336114e-02 0.0000000000000000e+00 1
1.3977179511528537e-01 4.3582482114429354e-02 0.0000000000000000e+00 1
1.2873465645492352e-01 4.1823668354566863e-02 0.0000000000000000e+00 1
1.1760095896160266e-01 4.0004768188025619e-02 0.0000000000000000e+00 1
1.0637927809138226e-01 3.8128517519082673e-02 0.0000000000000000e+00 1
9.5078189300321497e-02 3.6197652252015079e-02 0.0000000000000000e+00 1
8.3706268044479420e-02 3.4214908291099792e-02 0.0000000000000000e+00 1
7.2272089779915366e-02 3.2183021540613900e-02 0.0000000000000000e+00 1
6.0784229962688556e-02 3.0104727904834434e-02 0.0000000000000000e+00 1
4.9251264048858080e-02 2.7982763288038365e-02 0.0000000000000000e+00 1
3.7681767494483147e-02 2.5819863594502751e-02 0.0000000000000000e+00 1
2.6084315755623137e-02 2.3618764728504639e-02 0.0000000000000000e+00 1
1.4467484288337058e-02 2.1382202594321026e-02 0.0000000000000000e+00 1
2.8398485486841804e-03 1.9112913096228944e-02 0.0000000000000000e+00 1
-8.7900160072763162e-03 1.6813632138505421e-02 0.0000000000000000e+00 1
-2.0413533923485085e-02 1.4487095625427507e-02 0.0000000000000000e+00 1
-3.2022129743883125e-02 1.2136039461272188e-02 0.0000000000000000e+00 1
-4.3607228012411181e-02 9.7631995503165009e-03 0.0000000000000000e+00 1
-5.5160253273009899e-02 7.3713117968375111e-03 0.0000000000000000e+00 1
-6.6672630069620292e-02 4.9631121051121954e-03 0.0000000000000000e+00 1
-7.8135782946183049e-02 2.5413363794175928e-03 0.0000000000000000e+00 1
-8.9541136446638886e-02 1.0872052403075941e-04 0.0000000000000000e+00 1
-1.0088011511492881e-01 -2.3319995567713265e-03 0.0000000000000000e+00 1
-1.1214414349499346e-01 -4.7780879587116069e-03 0.0000000000000000e+00 1
-1.2332464613077368e-01 -7.2268087775130621e-03 0.0000000000000000e+00 1
-1.3441304756621020e-01 -9.6754261088986496e-03 0.0000000000000000e+00 1
-1.4540077234524393e-01 -1.2121204048591377e-02 0.0000000000000000e+00 1
-1.5627924501181559e-01 -1.4561406692314195e-02 0.0000000000000000e+00 1
-1.6703989010986597e-01 -1.6993298135790071e-02 0.0000000000000000e+00 1
-1.7767413218333594e-01 -1.9414142474742005e-02 0.0000000000000000e+00 1
-1.8817339577616626e-01 -2.1821203804892955e-02 0.0000000000000000e+00 1
-1.9852910543229763e-01 -2.4211746221965872e-02 0.0000000000000000e+00 1
-2.0873268569567102e-01 -2.6583033821683772e-02 0.0000000000000000e+00 1
-2.1877556111022714e-01 -2.8932330699769609e-02 0.0000000000000000e+00 1
-2.2864915621990670e-01 -3.1256900951946345e-02 0.0000000000000000e+00 1
-2.3834489556865068e-01 -3.3554008673936972e-02 0.0000000000000000e+00 1
-2.4785420370039979e-01 -3.5820917961464457e-02 0.0000000000000000e+00 1
-2.5716850515909473e-01 -3.8054892910251770e-02 0.0000000000000000e+00 1
-2.6627922448867647e-01 -4.0253197616021891e-02 0.0000000000000000e+00 1
-2.7517778623308575e-01 -4.2413096174497789e-02 0.0000000000000000e+00 1
-2.8385561493626321e-01 -4.4531852681402431e-02 0.0000000000000000e+00 1
-2.9230413514214987e-01 -4.6606731232458808e-02 0.0000000000000000e+00 1
-1.1896217106827499e-01 -3.9443147524866669e-02 0.0000000000000000e+00 1
-1.2989285160084302e-01 -3.9449893931826276e-02 0.0000000000000000e+00 1
-1.0788886338011539e-01 -3.3344518054420333e-02 0.0000000000000000e+00 1
-1.4298064319589937e-01 -4.0139506999694978e-02 0.0000000000000000e+00 1
-8.9723707553213045e-02 -2.9098307456604178e-02 0.0000000000000000e+00 1
-1.5850444741636369e-01 -4.0444593340340215e-02 0.0000000000000000e+00 1
-6.9536317596835151e-02 -2.4952009157758973e-02 0.0000000000000000e+00 1
-1.2737391975446388e-01 -1.7839458870335827e-02 0.0000000000000000e+00 1
-4.8850543537733548e-02 -1.9956479982269584e-02 0.0000000000000000e+00 1
-3.5772840778489828e-02 1.0682461041476071e-03 0.0000000000000000e+00 1
-1.7579732863976355e-01 -4.1786371565295605e-02 0.0000000000000000e+00 1
-1.2135978639539920e-02 6.7620884252968163e-03 0.0000000000000000e+00 1
2.1910562131245235e-02 1.3161554104596383e-02 0.0000000000000000e+00 1
-1.0287254287021347e-01 -1.3790801097439543e-02 0.0000000000000000e+00 1
4.5336189756075673e-02 1.6900301011045858e-02 0.0000000000000000e+00 1
9.1103487566557784e-02 2.5391447001943915e-02 0.0000000000000000e+00 1
6.8789240856554384e-02 2.0065169191625563e-02 0.0000000000000000e+00 1
1.1360813282423754e-01 2.9389449718705753e-02 0.0000000000000000e+00 1
-1.9438911003614889e-01 -4.1975007983113002e-02 0.0000000000000000e+00 1
-1.4792595118846252e-01 -2.3737841918696358e-02 0.0000000000000000e+00 1
1.5742167631187032e-01 3.8173652715907828e-02 0.0000000000000000e+00 1
1.3576866102321172e-01 3.3193217377179535e-02 0.0000000000000000e+00 1
-8.2041741000040413e-02 -8.3081888887770947e-03 0.0000000000000000e+00 1
1.1575006109499403e-02 -6.3902085859413264e-03 0.0000000000000000e+00 1
1.7863455887054352e-01 3.9856186845409182e-02 0.0000000000000000e+00 1
2.1088003781924319e-01 4.5128672403859836e-02 0.0000000000000000e+00 1
-2.1348501666465683e-01 -4.4230642291552415e-02 0.0000000000000000e+00 1
-5.7535352781267819e-02 -4.0369173783711635e-03 0.0000000000000000e+00 1
-1.6995164497678050e-01 -2.6506212146643546e-02 0.0000000000000000e+00 1
2.2872355808782877e-01 4.7864975590778749e-02 0.0000000000000000e+00 1
-2.6021753410697474e-02 -1.4577600119307511e-02 0.0000000000000000e+00 1
1.9774210978348306e-01 3.3355783705713654e-02 0.0000000000000000e+00 1
3.7784323208070049e-02 -1.1366835467303150e-03 0.0000000000000000e+00 1
3.1953819513624199e-01 5.9370936994844359e-02 0.0000000000000000e+00 1
-2.2930048705346384e-01 -4.5008396671183767e-02 0.0000000000000000e+00 1
2.4867402942051720e-01 5.0691613132868470e-02 0.0000000000000000e+00 1
1.0576776935261023e-01 1.5208204054275745e-02 0.0000000000000000e+00 1
3.2096727722350771e-01 5.9471519640635573e-02 0.0000000000000000e+00 1
2.6454369361253666e-01 4.6373950904639444e-02 0.0000000000000000e+00 1
3.0799162015126147e-01 5.7281792414292022e-02 0.0000000000000000e+00 1
7.7791052383373721e-02 9.4211198549774521e-03 0.0000000000000000e+00 1
3.1280822513951528e-01 5.8011363983120935e-02 0.0000000000000000e+00 1
-1.3754502058814905e-01 -1.9986856235211840e-02 0.0000000000000000e+00 1
-1.3064488094772930e-01 -2.6526642910638679e-02 0.0000000000000000e+00 1
-1.2114360100140331e-01 -2.6359548599669089e-02 0.0000000000000000e+00 1
-1.3914009410850192e-01 -2.8741653636240726e-02 0.0000000000000000e+00 1
-1.1773289338643148e-01 -1.6359469641239591e-02 0.0000000000000000e+00 1
-1.1263345993712598e-01 -2.5013027252991156e-02 0.0000000000000000e+00 1
-2.0123978751604832e-01 -3.3760580399491494e-02 0.0000000000000000e+00 1
-2.3930699628480567e-01 -4.3197071908166289e-02 0.0000000000000000e+00 1
-1.2651769019597128e-01 -3.3263586081845632e-02 0.0000000000000000e+00 1
1.4544935685473995e-01 2.3088740572625097e-02 0.0000000000000000e+00 1
2.7549707076482305e-01 5.2541544784901979e-02 0.0000000000000000e+00 1
-1.5917578328146295e-01 -2.4805420081349006e-02 0.0000000000000000e+00 1
-1.5421469926851239e-01 -3.2662551650012021e-02 0.0000000000000000e+00 1
3.0211825055945984e-01 5.6106388096461873e-02 0.0000000000000000e+00 1
-2.2223549620089683e-01 -3.8266894536931328e-02 0.0000000000000000e+00 1
3.1592571115972784e-01 5.8302313871670078e-02 0.0000000000000000e+00 1
-9.2959604787422850e-02 -1.0809587373757422e-02 0.0000000000000000e+00 1
-8.5672735140760237e-02 -1.8998145421809266e-02 0.0000000000000000e+00 1
-9.5674987539981493e-02 -2.1882167608559922e-02 0.0000000000000000e+00 1
2.4737705271886509e-02 -3.5452385969633239e-03 0.0000000000000000e+00 1
-1.1513447653550893e-01 -3.1328106565848446e-02 0.0000000000000000e+00 1
-1.7982063180446409e-01 -2.8515448226685960e-02 0.0000000000000000e+00 1
-1.8963093174140022e-01 -3.2681885193619503e-02 0.0000000000000000e+00 1
9.1658065521733889e-02 1.2437005645057397e-02 0.0000000000000000e+00 1
-1.2332206813261790e-03 -9.3057082918453042e-03 0.0000000000000000e+00 1
2.1485569899065138e-03 1.8187859883210175e-03 0.0000000000000000e+00 1
6.4890309730856924e-02 6.8263705482657713e-03 0.0000000000000000e+00 1
5.0422042379016353e-02 4.8407385625392069e-03 0.0000000000000000e+00 1
1.7397160023774710e-01 2.8590856311490921e-02 0.0000000000000000e+00 1
-1.3776301963001178e-02 -1.2233166857288843e-02 0.0000000000000000e+00 1
-2.2390315347076167e-02 -2.9192149942722304e-03 0.0000000000000000e+00 1
-1.1437917680950205e-01 -3.7228010422983494e-02 0.0000000000000000e+00 1
-7.0470018321030919e-02 -6.0075535224969282e-03 0.0000000000000000e+00 1
-6.3285321103456652e-02 -1.4678743401256609e-02 0.0000000000000000e+00 1
-3.0714060413101829e-01 -5.1686714609520727e-02 0.0000000000000000e+00 1
-3.0605946375619347e-01 -5.1976594557064673e-02 0.0000000000000000e+00 1
2.2180852476786134e-01 3.9031412680481402e-02 0.0000000000000000e+00 1
-3.7764622110855989e-02 -1.7520629025218129e-02 0.0000000000000000e+00 1
-4.5375928691343083e-02 -8.5419584631393833e-03 0.0000000000000000e+00 1
2.8324129875088710e-01 5.2699745139644871e-02 0.0000000000000000e+00 1
1.2007070877422438e-01 1.8206616082946443e-02 0.0000000000000000e+00 1
1.3285188037689050e-01 2.0766057405464337e-02 0.0000000000000000e+00 1
-2.4929075482870827e-01 -4.5125956810004295e-02 0.0000000000000000e+00 1
-9.8667688243042423e-02 -3.2306522555660577e-02 0.0000000000000000e+00 1
2.9625127232527626e-01 5.4247714546586841e-02 0.0000000000000000e+00 1
-7.9797854842586197e-02 -2.6743174768085645e-02 0.0000000000000000e+00 1
2.3889894971792583e-01 4.9108387691521219e-02 0.0000000000000000e+00 1
-1.6711028403875253e-01 -4.1172450409675064e-02 0.0000000000000000e+00 1
-1.8477523813106034e-01 -4.2036074231941209e-02 0.0000000000000000e+00 1
1.8589833589401564e-01 3.0988579773190684e-02 0.0000000000000000e+00 1
-1.5025691699159149e-01 -4.0017750563830487e-02 0.0000000000000000e+00 1
3.3722681087454277e-02 1.4987169426856881e-02 0.0000000000000000e+00 1
-1.3627187396093263e-01 -3.9840278584131618e-02 0.0000000000000000e+00 1
5.6578879455674982e-02 1.7786678417724865e-02 0.0000000000000000e+00 1
8.0886700692102409e-02 2.2285445254219667e-02 0.0000000000000000e+00 1
1.0238560398443400e-01 2.7465651011784279e-02 0.0000000000000000e+00 1
1.4668849361087435e-01 3.5079594370850904e-02 0.0000000000000000e+00 1
1.2477249973584836e-01 3.0563962854481420e-02 0.0000000000000000e+00 1
-1.6345095487971148e-01 -3.3419594365944071e-02 0.0000000000000000e+00 1
-2.0432885195714329e-01 -4.2746205630119896e-02 0.0000000000000000e+00 1
1.8921441663473032e-01 4.1709179547935626e-02 0.0000000000000000e+00 1
-1.2369788340738926e-01 -3.8937479016703615e-02 0.0000000000000000e+00 1
1.6820203860135099e-01 3.8570148121478402e-02 0.0000000000000000e+00 1
1.5960010975574312e-01 2.6964269968663600e-02 0.0000000000000000e+00 1
-1.0467567191154203e-01 -2.3966740409878229e-02 0.0000000000000000e+00 1
-2.6387092722684824e-01 -4.7362396252566399e-02 0.0000000000000000e+00 1
9.3580736419210248e-03 1.1589860494555543e-02 0.0000000000000000e+00 1
-1.3365270631181458e-01 -3.3793787180504492e-02 0.0000000000000000e+00 1
-7.5897647729038301e-02 -1.6481798291104185e-02 0.0000000000000000e+00 1
-2.7860215374582636e-01 -4.8819023725379412e-02 0.0000000000000000e+00 1
-2.7106821051596053e-01 -4.7790990887582076e-02 0.0000000000000000e+00 1
2.0084749099852167e-01 4.3162137741489692e-02 0.0000000000000000e+00 1
2.5460547785261678e-01 4.4515405831139263e-02 0.0000000000000000e+00 1
-2.1188619962738370e-01 -3.5092335889467051e-02 0.0000000000000000e+00 1
-3.0315060277831340e-01 -5.1636649454746962e-02 0.0000000000000000e+00 1
-5.9139345827370807e-02 -2.2853923667870594e-02 0.0000000000000000e+00 1
2.4461053658591003e-01 4.2075214502609384e-02 0.0000000000000000e+00 1
2.1023783138629487e-01 3.4960633006101680e-02 0.0000000000000000e+00 1
-2.5635499201193429e-01 -4.7525578535654894e-02 0.0000000000000000e+00 1
-2.9558050874607000e-01 -5.0486795159798425e-02 0.0000000000000000e+00 1
2.3409688102412718e-01 4.0499178258140693e-02 0.0000000000000000e+00 1
2.1971672649309820e-01 4.8233715360392858e-02 0.0000000000000000e+00 1
2.8983920783974176e-01 5.2395962792752993e-02 0.0000000000000000e+00 1
-4.7490320707304363e-02 1.1247763219582143e-03 0.0000000000000000e+00 1
-1.7278452273361994e-01 -3.4645255886153359e-02 0.0000000000000000e+00 1
-1.4573954353057694e-01 -3.3430763739815586e-02 0.0000000000000000e+00 1
-2.2130048272496672e-01 -4.6295148712797565e-02 0.0000000000000000e+00 1
2.5838407076951764e-01 5.1973610209329654e-02 0.0000000000000000e+00 1
-3.3465092067692506e-02 -8.4982312995579273e-03 0.0000000000000000e+00 1
-2.9981129776346177e-01 -5.1600681957675115e-02 0.0000000000000000e+00 1
2.6825645231272782e-01 5.2979175521456340e-02 0.0000000000000000e+00 1
2.9246686065767892e-02 5.8323924166469249e-03 0.0000000000000000e+00 1
-2.8577367691098310e-01 -4.9777498533415405e-02 0.0000000000000000e+00 1
-5.4369834949126825e-02 -1.2910537534280984e-02 0.0000000000000000e+00 1
1.6488782621612127e-02 3.4198073159073033e-03 0.0000000000000000e+00 1
-2.4832544533516951e-02 6.4715606528515327e-03 0.0000000000000000e+00 1
-2.3190032196063512e-01 -3.7974780499923373e-02 0.0000000000000000e+00 1
-9.1094484220365056e-03 -3.0921518567812887e-03 0.0000000000000000e+00 1
-2.9093794634760367e-01 -5.0975661439112432e-02 0.0000000000000000e+00 1
-1.1001174232006128e-01 -1.6781625272052025e-02 0.0000000000000000e+00 1
3.1749073745925521e-01 5.9558574601529773e-02 0.0000000000000000e+00 1
-1.6885033613615362e-03 1.1455692337029985e-02 0.0000000000000000e+00 1
-1.3955697222154509e-01 -3.5189198028077483e-02 0.0000000000000000e+00 1
4.0288765820988878e-02 8.6882136693624493e-03 0.0000000000000000e+00 1
-3.0500096343794536e-01 -5.1392011968393506e-02 0.0000000000000000e+00 1
-1.8056173061006164e-01 -3.5933007020739129e-02 0.0000000000000000e+00 1
-1.1997249983634162e-01 -3.4426646368652822e-02 0.0000000000000000e+00 1
9.7728731606333968e-02 2.0125576928265335e-02 0.0000000000000000e+00 1
2.7222579272119757e-01 4.7190638945386318e-02 0.0000000000000000e+00 1

Edges
139
1 2 1
2 3 1
3 4 1
4 5 1
5 6 1
6 7 1
7 8 1
8 9 1
9 10 1
10 11 1
11 12 1
12 13 1
13 14 1
14 15 1
15 16 1
16 17 1
17 18 1
18 19 1
19 20 1
20 21 1
21 22 1
22 23 1
23 24 1
24 25 1
25 26 1
26 27 1
27 28 1
28 29 1
29 30 1
30 31 1
31 32 1
32 33 1
33 34 1
34 35 1
35 36 1
36 37 1
37 38 1
38 39 1
39 40 1
40 41 1
41 42 1
42 43 1
43 44 1
44 45 1
45 46 1
46 47 1
47 48 1
48 49 1
49 50 1
50 51 1
51 52 1
52 53 1
53 54 1
54 55 1
55 56 1
56 57 1
57 58 1
58 59 1
59 60 1
60 61 1
61 62 1
62 63 1
63 64 1
64 65 1
65 66 1
66 67 1
67 68 1
68 69 1
69 70 1
70 71 1
71 72 1
72 73 1
73 74 1
74 75 1
75 76 1
76 77 1
77 78 1
78 79 1
79 80 1
80 81 1
81 82 1
82 83 1
83 84 1
84 85 1
85 86 1
86 87 1
87 88 1
88 89 1
89 90 1
90 91 1
91 92 1
92 93 1
93 94 1
94 95 1
95 96 1
96 97 1
97 98 1
98 99 1
99 100 1
100 101 1
101 102 1
102 103 1
103 104 1
104 105 1
105 106 1
106 107 1
107 108 1
108 109 1
109 110 1
110 111 1
111 112 1
112 113 1
113 114 1
114 115 1
115 116 1
116 117 1
117 118 1
118 119 1
119 120 1
120 121 1
121 122 1
122 123 1
123 124 1
124 125 1
125 126 1
126 127 1
127 128 1
128 129 1
129 130 1
130 131 1
131 132 1
132 133 1
133 134 1
134 135 1
135 136 1
136 137 1
137 138 1
138 139 1
139 1 1

Triangles
439
142 187 202 1
160 238 245 1
17 18 189 1
226 84 264 1
18 174 189 1
67 68 221 1
209 208 235 1
192 67 221 1
3 4 216 1
154 209 235 1
238 191 245 1
74 173 282 1
83 84 226 1
173 75 177 1
142 202 213 1
2 3 286 1
180 156 208 1
180 205 236 1
200 153 246 1
157 176 222 1
244 160 245 1
205 155 236 1
17 189 224 1
121 186 281 1
246 153 281 1
210 244 245 1
165 253 259 1
145 194 240 1
144 199 200 1
146 215 250 1
16 17 224 1
75 76 177 1
141 190 249 1
135 247 260 1
176 157 237 1
182 159 185 1
208 156 235 1
6 7 217 1
144 200 225 1
188 158 204 1
253 171 259 1
121 122 186 1
241 188 255 1
166 241 255 1
78 173 177 1
191 161 223 1
81 82 179 1
156 180 236 1
204 158 230 1
190 141 243 1
135 136 247 1
1 2 256 1
215 214 250 1
169 218 262 1
218 62 262 1
72 73 181 1
124 159 182 1
187 142 246 1
78 79 173 1
185 159 267 1
164 210 231 1
147 182 183 1
222 223 239 1
218 165 259 1
82 83 195 1
194 193 240 1
207 151 279 1
151 207 283 1
165 218 263 1
157 222 239 1
194 145 232 1
204 230 287 1
70 71 195 1
147 183 184 1
274 139 280 1
199 198 200 1
81 179 181 1
210 58 231 1
198 153 200 1
80 81 181 1
55 191 223 1
126 168 193 1
184 183 190 1
225 200 246 1
159 193 194 1
5 6 216 1
129 188 204 1
87 269 272 1
120 153 198 1
80 181 197 1
189 174 278 1
183 182 185 1
159 194 267 1
147 123 182 1
79 80 282 1
153 121 281 1
179 72 181 1
52 176 205 1
215 146 257 1
149 220 270 1
269 178 272 1
73 74 197 1
220 149 265 1
158 188 241 1
122 123 147 1
172 48 209 1
122 147 186 1
227 146 250 1
181 73 197 1
64 254 258 1
159 125 193 1
71 179 195 1
163 46 201 1
34 142 213 1
196 166 255 1
162 198 199 1
254 175 258 1
50 180 208 1
197 74 282 1
124 125 159 1
199 144 227 1
199 227 250 1
190 183 249 1
161 191 238 1
120 121 153 1
203 128 204 1
176 53 222 1
168 127 203 1
167 220 265 1
223 161 239 1
123 124 182 1
193 168 240 1
206 163 207 1
59 60 171 1
128 129 204 1
162 119 198 1
49 208 209 1
55 56 191 1
170 43 211 1
45 163 206 1
47 172 201 1
77 78 177 1
170 211 212 1
126 127 168 1
71 72 179 1
125 126 193 1
52 53 176 1
43 44 211 1
41 42 219 1
174 196 278 1
127 128 203 1
148 41 219 1
133 134 189 1
118 162 214 1
119 120 198 1
65 66 178 1
46 47 201 1
49 50 208 1
257 148 275 1
50 51 180 1
209 154 285 1
191 56 245 1
47 48 172 1
129 130 188 1
44 206 211 1
167 214 215 1
48 49 209 1
131 132 196 1
212 149 270 1
45 46 163 1
134 135 224 1
184 190 288 1
180 51 205 1
33 34 213 1
85 192 221 1
44 45 206 1
187 184 202 1
54 55 223 1
220 167 275 1
118 119 162 1
148 219 220 1
85 86 192 1
179 82 195 1
167 117 214 1
51 52 205 1
149 212 277 1
42 43 170 1
215 257 275 1
57 58 210 1
117 118 214 1
171 60 259 1
151 212 279 1
186 184 187 1
166 196 268 1
42 170 219 1
40 41 148 1
61 62 218 1
57 210 245 1
116 117 167 1
189 134 224 1
84 85 221 1
261 1 271 1
138 139 274 1
214 162 250 1
38 39 146 1
203 204 287 1
202 184 288 1
58 59 231 1
207 163 276 1
114 115 149 1
7 8 256 1
195 83 226 1
222 54 223 1
53 54 222 1
36 37 144 1
188 130 255 1
34 35 142 1
187 246 281 1
38 146 227 1
178 66 290 1
112 113 151 1
88 89 175 1
18 19 174 1
224 135 260 1
147 184 186 1
59 171 231 1
248 207 276 1
196 174 268 1
20 21 166 1
22 23 158 1
212 211 279 1
26 27 145 1
131 196 255 1
136 137 252 1
210 164 244 1
24 25 150 1
109 110 152 1
90 91 169 1
67 192 290 1
37 38 227 1
107 108 154 1
36 144 225 1
23 24 230 1
92 93 165 1
108 109 233 1
28 29 143 1
89 90 228 1
30 31 141 1
183 185 249 1
64 65 254 1
25 26 229 1
196 132 278 1
61 218 259 1
105 106 156 1
84 221 264 1
106 107 235 1
206 207 279 1
94 95 242 1
272 178 290 1
95 96 164 1
205 176 289 1
103 104 155 1
35 36 225 1
101 102 157 1
27 28 232 1
97 98 160 1
168 203 266 1
99 100 161 1
133 189 278 1
70 195 226 1
104 105 236 1
21 22 241 1
102 103 237 1
100 101 239 1
98 99 238 1
96 97 244 1
29 30 234 1
232 143 267 1
40 148 257 1
69 70 226 1
110 111 248 1
175 89 228 1
220 219 270 1
1 256 271 1
212 151 277 1
247 136 252 1
14 15 247 1
109 152 233 1
243 140 288 1
12 13 251 1
158 23 230 1
154 108 233 1
166 21 241 1
22 158 241 1
68 69 264 1
90 169 228 1
107 154 235 1
24 150 230 1
80 197 282 1
62 63 262 1
231 171 242 1
150 25 229 1
156 106 235 1
170 212 270 1
26 145 229 1
116 167 265 1
105 156 236 1
31 32 243 1
218 169 263 1
155 104 236 1
56 57 245 1
145 27 232 1
15 16 260 1
95 164 242 1
149 115 265 1
248 111 283 1
103 155 237 1
16 224 260 1
146 39 257 1
157 102 237 1
101 157 239 1
161 100 239 1
144 37 227 1
99 161 238 1
164 96 244 1
160 98 238 1
9 10 261 1
97 160 244 1
86 87 272 1
164 231 242 1
162 199 250 1
221 68 264 1
172 209 285 1
273 152 276 1
229 145 240 1
28 143 232 1
114 149 277 1
13 14 252 1
32 33 140 1
140 213 288 1
143 29 234 1
194 232 267 1
88 175 269 1
151 113 277 1
165 93 253 1
94 242 253 1
190 243 288 1
152 110 248 1
142 35 225 1
93 94 253 1
112 151 283 1
8 9 271 1
20 166 268 1
30 141 234 1
92 165 263 1
174 19 268 1
169 91 263 1
242 171 253 1
207 248 283 1
39 40 257 1
163 201 276 1
141 31 243 1
137 138 251 1
266 203 287 1
3 216 217 1
130 131 255 1
65 178 254 1
63 64 258 1
60 61 259 1
234 141 249 1
142 225 246 1
14 247 252 1
155 205 289 1
256 8 271 1
201 273 276 1
9 261 271 1
91 92 263 1
32 140 243 1
251 13 252 1
201 172 273 1
213 202 288 1
175 254 269 1
11 12 274 1
175 228 258 1
167 215 275 1
66 67 290 1
115 116 265 1
87 88 269 1
12 251 274 1
19 20 268 1
229 240 266 1
228 169 262 1
76 77 177 1
211 206 279 1
247 15 260 1
219 170 270 1
132 133 278 1
148 220 275 1
10 11 280 1
192 86 272 1
258 228 262 1
140 33 213 1
152 248 276 1
113 114 277 1
150 229 266 1
176 237 289 1
69 226 264 1
240 168 266 1
7 256 286 1
111 112 283 1
63 258 262 1
4 5 216 1
233 152 273 1
217 7 286 1
254 178 269 1
186 187 281 1
150 266 287 1
137 251 252 1
261 10 280 1
249 185 284 1
234 249 284 1
192 272 290 1
11 274 280 1
233 273 285 1
154 233 285 1
230 150 287 1
256 2 286 1
273 172 285 1
216 6 217 1
143 234 284 1
237 155 289 1
251 138 274 1
173 79 282 1
267 143 284 1
185 267 284 1
139 261 280 1
139 1 261 1
3 217 286 1
74 75 173 1

End
