MeshVersionFormatted 2
Dimension 3

Vertices
178
9.1643215994268584e-02 -2.0165058994612814e-01 0.0000000000000000e+00 1
9.3775599803097826e-02 -2.0539245905493408e-01 0.0000000000000000e+00 1
9.5377875379791768e-02 -2.0796253816757365e-01 0.0000000000000000e+00 1
9.6473383420947717e-02 -2.0941419850239537e-01 0.0000000000000000e+00 1
9.7085464623163018e-02 -2.0980081127774802e-01 0.0000000000000000e+00 1
9.7237459683034960e-02 -2.0917574771198000e-01 0.0000000000000000e+00 1
9.6952709297160780e-02 -2.0759237902343985e-01 0.0000000000000000e+00 1
9.6254554162137795e-02 -2.0510407643047618e-01 0.0000000000000000e+00 1
9.5166334974563394e-02 -2.0176421115143772e-01 0.0000000000000000e+00 1
9.3711392431034782e-02 -1.9762615440467285e-01 0.0000000000000000e+00 1
9.1913067228149209e-02 -1.9274327740853006e-01 0.0000000000000000e+00 1
8.9794700062504076e-02 -1.8716895138135806e-01 0.0000000000000000e+00 1
8.7379631630696675e-02 -1.8095654754150545e-01 0.0000000000000000e+00 1
8.4691202629324266e-02 -1.7415943710732074e-01 0.0000000000000000e+00 1
8.1752753754984100e-02 -1.6683099129715240e-01 0.0000000000000000e+00 1
7.8587625704273537e-02 -1.5902458132934907e-01 0.0000000000000000e+00 1
7.5219159173789893e-02 -1.5079357842225941e-01 0.0000000000000000e+00 1
7.1670694860130432e-02 -1.4219135379423195e-01 0.0000000000000000e+00 1
6.7965573459892431e-02 -1.3327127866361510e-01 0.0000000000000000e+00 1
6.4127135669673208e-02 -1.2408672424875752e-01 0.0000000000000000e+00 1
6.0178722186070080e-02 -1.1469106176800789e-01 0.0000000000000000e+00 1
5.6143673705680325e-02 -1.0513766243971467e-01 0.0000000000000000e+00 1
5.2045330925101226e-02 -9.5479897482226364e-02 0.0000000000000000e+00 1
4.7907034540930094e-02 -8.5771138113891629e-02 0.0000000000000000e+00 1
4.3752125249764254e-02 -7.6064755553059069e-02 0.0000000000000000e+00 1
3.9603943748200969e-02 -6.6414121018077171e-02 0.0000000000000000e+00 1
3.5485830732837523e-02 -5.6872605727294474e-02 0.0000000000000000e+00 1
3.1421126900271240e-02 -4.7493580899059598e-02 0.0000000000000000e+00 1
2.7433172947099422e-02 -3.8330417751721142e-02 0.0000000000000000e+00 1
2.3545309569919366e-02 -2.9436487503627637e-02 0.0000000000000000e+00 1
1.9780877465328334e-02 -2.0865161373127598e-02 0.0000000000000000e+00 1
1.6163217329923651e-02 -1.2669810578569645e-02 0.0000000000000000e+00 1
1.2715669860302620e-02 -4.9038063383023654e-03 0.0000000000000000e+00 1
9.4615757530625306e-03 2.3794801293257062e-03 0.0000000000000000e+00 1
6.4242757048006650e-03 9.1266776059660271e-03 0.0000000000000000e+00 1
3.6271104121143359e-03 1.5284414873270005e-02 0.0000000000000000e+00 1
1.0934205716008497e-03 2.0799320712889056e-02 0.0000000000000000e+00 1
-1.1534531201425099e-03 2.5618023906474628e-02 0.0000000000000000e+00 1
-3.2141714610815306e-03 2.9930311685695855e-02 0.0000000000000000e+00 1
-5.6350787355819755e-03 3.4880280361341082e-02 0.0000000000000000e+00 1
-8.3862000442444188e-03 4.0411476059656101e-02 0.0000000000000000e+00 1
-1.1437560487669434e-02 4.6467444906886785e-02 0.0000000000000000e+00 1
-1.4759185166457588e-02 5.2991733029278919e-02 0.0000000000000000e+00 1
-1.8321099181209451e-02 5.9927886553078312e-02 0.0000000000000000e+00 1
-2.2093327632525608e-02 6.7219451604530814e-02 0.0000000000000000e+00 1
-2.6045895621006617e-02 7.4809974309882232e-02 0.0000000000000000e+00 1
-3.0148828247253054e-02 8.2643000795378369e-02 0.0000000000000000e+00 1
-3.4372150611865507e-02 9.0662077187265072e-02 0.0000000000000000e+00 1
-3.8685887815444513e-02 9.8810749611788123e-02 0.0000000000000000e+00 1
-4.3060064958590667e-02 1.0703256419519336e-01 0.0000000000000000e+00 1
-4.7464707141904539e-02 1.1527106706372661e-01 0.0000000000000000e+00 1
-5.1869839465986708e-02 1.2346980434363371e-01 0.0000000000000000e+00 1
-5.6245487031437731e-02 1.3157232216116044e-01 0.0000000000000000e+00 1
-6.0561674938858182e-02 1.3952216664255260e-01 0.0000000000000000e+00 1
-6.4788428288848621e-02 1.4726288391405604e-01 0.0000000000000000e+00 1
-6.8895772182009651e-02 1.5473802010191662e-01 0.0000000000000000e+00 1
-7.2853731718941842e-02 1.6189112133238012e-01 0.0000000000000000e+00 1
-7.6632332000245745e-02 1.6866573373169233e-01 0.0000000000000000e+00 1
-8.0201598126521931e-02 1.7500540342609908e-01 0.0000000000000000e+00 1
-8.3531555198370980e-02 1.8085367654184625e-01 0.0000000000000000e+00 1
-8.6592228316393474e-02 1.8615409920517959e-01 0.0000000000000000e+00 1
-8.9353642581189968e-02 1.9085021754234494e-01 0.0000000000000000e+00 1
-9.1785823093361030e-02 1.9488557767958814e-01 0.0000000000000000e+00 1
-9.3858794953507269e-02 1.9820372574315498e-01 0.0000000000000000e+00 1
-9.5542583262229211e-02 2.0074820785929129e-01 0.0000000000000000e+00 1
-9.6807213120127467e-02 2.0246257015424290e-01 0.0000000000000000e+00 1
-9.7622709627802562e-02 2.0329035875425558e-01 0.0000000000000000e+00 1
-9.7959097885855106e-02 2.0317511978557520e-01 0.0000000000000000e+00 1
-9.7786402994885654e-02 2.0206039937444759e-01 0.0000000000000000e+00 1
-9.7074650055494802e-02 1.9988974364711853e-01 0.0000000000000000e+00 1
-9.5793864168283088e-02 1.9660669872983386e-01 0.0000000000000000e+00 1
-9.3335060447704940e-02 1.9061794316842220e-01 0.0000000000000000e+00 1
-9.0740841448138265e-02 1.8436310937645051e-01 0.0000000000000000e+00 1
-8.8016216541610653e-02 1.7785349238936018e-01 0.0000000000000000e+00 1
-8.5166195100149680e-02 1.7110038724259247e-01 0.0000000000000000e+00 1
-8.2195786495782935e-02 1.6411508897158886e-01 0.0000000000000000e+00 1
-7.9110000100537967e-02 1.5690889261179061e-01 0.0000000000000000e+00 1
-7.5913845286442461e-02 1.4949309319863927e-01 0.0000000000000000e+00 1
-7.2612331425523924e-02 1.4187898576757602e-01 0.0000000000000000e+00 1
-6.9210467889809973e-02 1.3407786535404234e-01 0.0000000000000000e+00 1
-6.5713264051328171e-02 1.2610102699347953e-01 0.0000000000000000e+00 1
-6.2125729282106155e-02 1.1795976572132905e-01 0.0000000000000000e+00 1
-5.8452872954171488e-02 1.0966537657303221e-01 0.0000000000000000e+00 1
-5.4699704439551765e-02 1.0122915458403046e-01 0.0000000000000000e+00 1
-5.0871233110274562e-02 9.2662394789765054e-02 0.0000000000000000e+00 1
-4.6972468338367497e-02 8.3976392225677488e-02 0.0000000000000000e+00 1
-4.3008419495858111e-02 7.5182441927209021e-02 0.0000000000000000e+00 1
-3.8984095954774020e-02 6.6291838929801103e-02 0.0000000000000000e+00 1
-3.4904507087142822e-02 5.7315878268895011e-02 0.0000000000000000e+00 1
-3.0774662264992089e-02 4.8265854979932230e-02 0.0000000000000000e+00 1
-2.6599570860349420e-02 3.9153064098354083e-02 0.0000000000000000e+00 1
-2.2384242245242401e-02 2.9988800659601925e-02 0.0000000000000000e+00 1
-1.8133685791698651e-02 2.0784359699117204e-02 0.0000000000000000e+00 1
-1.3852910871745699e-02 1.1551036252341209e-02 0.0000000000000000e+00 1
-9.5469268574111601e-03 2.3001253547153145e-03 0.0000000000000000e+00 1
-5.2207431207226445e-03 -6.9570779583190776e-03 0.0000000000000000e+00 1
-8.7936903370774175e-04 -1.6209278651320533e-02 0.0000000000000000e+00 1
3.4721860316060038e-03 -2.5445181688847830e-02 0.0000000000000000e+00 1
7.8289127031909780e-03 -3.4653492035459511e-02 0.0000000000000000e+00 1
1.2185801609019581e-02 -4.3822914655714182e-02 0.0000000000000000e+00 1
1.6537843377064220e-02 -5.2942154514170482e-02 0.0000000000000000e+00 1
2.0880028635297334e-02 -6.1999916575387080e-02 0.0000000000000000e+00 1
2.5207348011691319e-02 -7.0984905803922568e-02 0.0000000000000000e+00 1
2.9514792134218596e-02 -7.9885827164335607e-02 0.0000000000000000e+00 1
3.3797351630851548e-02 -8.8691385621184782e-02 0.0000000000000000e+00 1
3.8050017129562595e-02 -9.7390286139028712e-02 0.0000000000000000e+00 1
4.2267779258324166e-02 -1.0597123368242609e-01 0.0000000000000000e+00 1
4.6445628645108678e-02 -1.1442293321593551e-01 0.0000000000000000e+00 1
5.0578555917888519e-02 -1.2273408970411559e-01 0.0000000000000000e+00 1
5.4661551704636095e-02 -1.3089340811152492e-01 0.0000000000000000e+00 1
5.8689606633323850e-02 -1.3888959340272225e-01 0.0000000000000000e+00 1
6.2657711331924187e-02 -1.4671135054226611e-01 0.0000000000000000e+00 1
6.6560856428409476e-02 -1.5434738449471516e-01 0.0000000000000000e+00 1
7.0394032550752175e-02 -1.6178640022462798e-01 0.0000000000000000e+00 1
7.4152230326924640e-02 -1.6901710269656323e-01 0.0000000000000000e+00 1
7.7830440384899377e-02 -1.7602819687507956e-01 0.0000000000000000e+00 1
8.1423653352648701e-02 -1.8280838772473559e-01 0.0000000000000000e+00 1
8.4926859858145076e-02 -1.8934638021008995e-01 0.0000000000000000e+00 1
8.8335050529360901e-02 -1.9563087929570125e-01 0.0000000000000000e+00 1
-3.6420171410641677e-03 2.1919275493567557e-02 0.0000000000000000e+00 1
-8.4271195207334289e-03 3.0447774976766262e-02 0.0000000000000000e+00 1
-2.1585102026863121e-05 9.9262722466178926e-03 0.0000000000000000e+00 1
-1.4763277313973529e-02 4.0999325495542166e-02 0.0000000000000000e+00 1
5.4913819357467180e-03 -3.7903521190918565e-03 0.0000000000000000e+00 1
-2.2363636645548496e-02 5.3469278151061540e-02 0.0000000000000000e+00 1
1.1057465026055448e-02 -1.9819778626361331e-02 0.0000000000000000e+00 1
1.4277552905500559e-02 -2.8136625730544831e-02 0.0000000000000000e+00 1
7.9971335643980405e-03 -1.1646730878996207e-02 0.0000000000000000e+00 1
-9.6802712358184287e-02 2.0129023025877507e-01 0.0000000000000000e+00 1
2.6669391444990097e-03 3.3575635045903231e-03 0.0000000000000000e+00 1
-2.6294810381022868e-02 6.0424303154752300e-02 0.0000000000000000e+00 1
-3.0452047755810147e-02 6.7691224745466044e-02 0.0000000000000000e+00 1
-1.9179311904040007e-02 4.7276799114411822e-02 0.0000000000000000e+00 1
-2.0067225451444117e-03 1.6035560968490081e-02 0.0000000000000000e+00 1
-1.1505383143755654e-02 3.5406290245774748e-02 0.0000000000000000e+00 1
-6.2764788123131363e-03 2.5897168198469506e-02 0.0000000000000000e+00 1
1.7786111570817876e-02 -3.6602312735712399e-02 0.0000000000000000e+00 1
-3.4540496889218147e-02 7.4897509746873231e-02 0.0000000000000000e+00 1
-9.1854858911645243e-03 1.9695071006236371e-02 0.0000000000000000e+00 1
2.1700683055320587e-02 -4.5475187519778693e-02 0.0000000000000000e+00 1
-3.8607428021273461e-02 8.2904009025305717e-02 0.0000000000000000e+00 1
-9.5529087650790642e-02 1.9892778146610485e-01 0.0000000000000000e+00 1
-4.2674120356818064e-02 9.1485384560900579e-02 0.0000000000000000e+00 1
2.5930669817840746e-02 -5.4689702068762058e-02 0.0000000000000000e+00 1
-1.4973542857269572e-02 2.9903502687192024e-02 0.0000000000000000e+00 1
3.0115895877341592e-02 -6.3897236715450778e-02 0.0000000000000000e+00 1
-4.6779134482364586e-02 9.9853700034467738e-02 0.0000000000000000e+00 1
9.6634357613427063e-02 -2.0858661014656882e-01 0.0000000000000000e+00 1
-6.3878296412915635e-03 1.0710870234691680e-02 0.0000000000000000e+00 1
-5.0887592317195571e-02 1.0821076297479001e-01 0.0000000000000000e+00 1
3.4291941633901792e-02 -7.3110881215504603e-02 0.0000000000000000e+00 1
-8.7220210376128343e-02 1.8230609437820913e-01 0.0000000000000000e+00 1
-5.4949174620681579e-02 1.1647026289413565e-01 0.0000000000000000e+00 1
3.8459083220684281e-02 -8.2307163993271398e-02 0.0000000000000000e+00 1
-1.8533927661031575e-02 3.6153023551705694e-02 0.0000000000000000e+00 1
4.2611688095637847e-02 -9.1456488619533843e-02 0.0000000000000000e+00 1
-5.8961812158663404e-02 1.2461282375701800e-01 0.0000000000000000e+00 1
8.5943982221951390e-02 -1.8509028558044746e-01 0.0000000000000000e+00 1
-9.0005443198356669e-02 1.8799634232309931e-01 0.0000000000000000e+00 1
4.6742538261473933e-02 -1.0052848617679602e-01 0.0000000000000000e+00 1
8.8742419419539809e-02 -1.9122237207391982e-01 0.0000000000000000e+00 1
-6.2909756615453713e-02 1.3261206713964868e-01 0.0000000000000000e+00 1
6.5212229345766842e-02 -1.4031920525746269e-01 0.0000000000000000e+00 1
6.8941941549770541e-02 -1.4840735094762803e-01 0.0000000000000000e+00 1
4.8975913786079878e-02 -1.0845357855131166e-01 0.0000000000000000e+00 1
6.1316696273346578e-02 -1.3199334236412644e-01 0.0000000000000000e+00 1
5.3261095844602410e-02 -1.1498986169662692e-01 0.0000000000000000e+00 1
5.7353959599369481e-02 -1.2323141464885987e-01 0.0000000000000000e+00 1
-2.8775141048486379e-03 4.8472017691950815e-03 0.0000000000000000e+00 1
-1.1399262574635860e-02 2.5345575313556270e-02 0.0000000000000000e+00 1
1.3861139358429943e-03 -9.3574425023681754e-03 0.0000000000000000e+00 1
-8.4006200379511078e-02 1.7671125640064461e-01 0.0000000000000000e+00 1
-6.6570784218489595e-02 1.3959997235538268e-01 0.0000000000000000e+00 1
-2.0977549545598901e-02 4.1467158123769263e-02 0.0000000000000000e+00 1
-2.8584404094676566e-02 5.4868828638660272e-02 0.0000000000000000e+00 1
7.2330998158602486e-02 -1.5608123317483302e-01 0.0000000000000000e+00 1
-1.3501248444822865e-03 -1.5999969918797316e-03 0.0000000000000000e+00 1
8.3383229842552586e-02 -1.7860699944143915e-01 0.0000000000000000e+00 1

Edges
119
1 2 1
2 3 1
3 4 1
4 5 1
5 6 1
6 7 1
7 8 1
8 9 1
9 10 1
10 11 1
11 12 1
12 13 1
13 14 1
14 15 1
15 16 1
16 17 1
17 18 1
18 19 1
19 20 1
20 21 1
21 22 1
22 23 1
23 24 1
24 25 1
25 26 1
26 27 1
27 28 1
28 29 1
29 30 1
30 31 1
31 32 1
32 33 1
33 34 1
34 35 1
35 36 1
36 37 1
37 38 1
38 39 1
39 40 1
40 41 1
41 42 1
42 43 1
43 44 1
44 45 1
45 46 1
46 47 1
47 48 1
48 49 1
49 50 1
50 51 1
51 52 1
52 53 1
53 54 1
54 55 1
55 56 1
56 57 1
57 58 1
58 59 1
59 60 1
60 61 1
61 62 1
62 63 1
63 64 1
64 65 1
65 66 1
66 67 1
67 68 1
68 69 1
69 70 1
70 71 1
71 72 1
72 73 1
73 74 1
74 75 1
75 76 1
76 77 1
77 78 1
78 79 1
79 80 1
80 81 1
81 82 1
82 83 1
83 84 1
84 85 1
85 86 1
86 87 1
87 88 1
88 89 1
89 90 1
90 91 1
91 92 1
92 93 1
93 94 1
94 95 1
95 96 1
96 97 1
97 98 1
98 99 1
99 100 1
100 101 1
101 102 1
102 103 1
103 104 1
104 105 1
105 106 1
106 107 1
107 108 1
108 109 1
109 110 1
110 111 1
111 112 1
112 113 1
113 114 1
114 115 1
115 116 1
116 117 1
117 118 1
118 119 1
119 1 1

Triangles
235
133 90 174 1
125 90 133 1
8 9 2 1
78 79 55 1
134 139 149 1
56 78 55 1
64 71 63 1
15 116 14 1
16 115 15 1
59 75 58 1
114 115 16 1
61 62 159 1
75 76 58 1
77 78 56 1
11 119 10 1
115 116 15 1
57 77 56 1
58 76 57 1
97 126 128 1
117 118 158 1
76 77 57 1
63 72 62 1
97 98 126 1
9 10 1 1
74 75 172 1
139 94 149 1
60 61 152 1
90 91 174 1
89 131 132 1
22 160 165 1
88 89 132 1
11 12 161 1
126 98 127 1
59 60 172 1
22 23 160 1
98 99 127 1
93 94 139 1
62 72 159 1
66 69 129 1
12 13 158 1
23 156 160 1
23 24 156 1
87 88 138 1
21 22 167 1
22 165 167 1
116 117 178 1
28 29 140 1
99 100 137 1
88 132 138 1
31 32 126 1
30 31 127 1
29 30 137 1
27 28 144 1
141 48 143 1
24 25 154 1
127 99 137 1
45 46 132 1
32 33 128 1
13 14 178 1
47 48 141 1
28 140 144 1
33 34 124 1
55 79 173 1
26 27 146 1
46 47 138 1
92 93 145 1
25 26 151 1
44 45 131 1
43 44 125 1
35 36 122 1
24 154 156 1
31 126 127 1
91 92 155 1
41 42 123 1
27 144 146 1
34 35 130 1
145 93 170 1
42 43 133 1
86 141 143 1
126 32 128 1
36 37 134 1
26 146 151 1
132 46 138 1
30 127 137 1
25 151 154 1
100 101 140 1
90 125 175 1
40 41 135 1
37 38 120 1
7 3 148 1
86 87 141 1
20 21 168 1
29 137 140 1
131 45 132 1
39 40 121 1
85 86 143 1
65 70 142 1
119 11 161 1
33 124 128 1
48 49 143 1
91 155 174 1
101 102 144 1
125 44 131 1
140 101 144 1
138 47 141 1
124 34 130 1
43 125 133 1
143 49 147 1
94 95 149 1
85 143 147 1
21 167 168 1
84 85 147 1
137 100 140 1
5 6 4 1
144 102 146 1
70 65 129 1
38 39 136 1
102 103 146 1
49 50 147 1
35 122 130 1
123 42 133 1
87 138 141 1
95 96 177 1
19 20 166 1
122 36 134 1
50 51 150 1
83 84 150 1
84 147 150 1
146 103 151 1
41 123 135 1
103 104 151 1
147 50 150 1
75 59 172 1
51 52 153 1
83 150 153 1
54 55 173 1
97 128 171 1
52 53 157 1
53 54 162 1
74 60 152 1
93 139 170 1
150 51 153 1
61 73 152 1
37 120 134 1
82 83 153 1
18 19 163 1
114 16 176 1
104 105 154 1
16 17 176 1
151 104 154 1
14 116 178 1
13 117 158 1
17 18 164 1
153 52 157 1
82 153 157 1
81 82 157 1
96 97 171 1
121 40 135 1
12 118 161 1
89 90 175 1
105 106 156 1
157 53 162 1
162 54 173 1
73 61 159 1
122 134 149 1
166 20 168 1
154 105 156 1
80 81 162 1
81 157 162 1
106 107 160 1
169 95 177 1
112 113 164 1
79 80 173 1
111 112 163 1
121 135 145 1
120 38 136 1
118 12 158 1
107 108 165 1
80 162 173 1
113 114 176 1
110 111 166 1
156 106 160 1
108 109 167 1
109 110 168 1
39 121 136 1
164 113 176 1
163 112 164 1
160 107 165 1
71 64 142 1
111 163 166 1
149 95 169 1
165 108 167 1
60 74 172 1
131 89 175 1
110 166 168 1
167 109 168 1
163 19 166 1
117 13 178 1
17 164 176 1
4 6 148 1
120 136 139 1
18 163 164 1
128 124 171 1
122 149 169 1
130 122 169 1
135 123 155 1
124 130 177 1
171 124 177 1
123 133 174 1
125 131 175 1
145 135 155 1
92 145 155 1
155 123 174 1
130 169 177 1
121 145 170 1
96 171 177 1
139 136 170 1
136 121 170 1
3 4 148 1
6 7 148 1
71 72 63 1
64 65 142 1
65 66 129 1
69 70 129 1
70 71 142 1
72 73 159 1
73 74 152 1
118 119 161 1
2 9 1 1
10 119 1 1
3 8 2 1
7 8 3 1
67 69 66 1
68 69 67 1
134 120 139 1

End
