MeshVersionFormatted 2
Dimension 3

Vertices
888
-2.2183577454418693e-01 -2.1133511857925852e-01 0.0000000000000000e+00 1
-2.2315640429984712e-01 -2.1490312006436402e-01 0.0000000000000000e+00 1
-2.2345468724925360e-01 -2.1795170249885512e-01 0.0000000000000000e+00 1
-2.2278416887514182e-01 -2.2049968966534908e-01 0.0000000000000000e+00 1
-2.2119839466024743e-01 -2.2256590534646309e-01 0.0000000000000000e+00 1
-2.1875091008730582e-01 -2.2416917332481451e-01 0.0000000000000000e+00 1
-2.1549526063905233e-01 -2.2532831738302020e-01 0.0000000000000000e+00 1
-2.1148499179822275e-01 -2.2606216130369786e-01 0.0000000000000000e+00 1
-2.0677364904755227e-01 -2.2638952886946428e-01 0.0000000000000000e+00 1
-2.0141477786977649e-01 -2.2632924386293690e-01 0.0000000000000000e+00 1
-1.9546192374763091e-01 -2.2590013006673293e-01 0.0000000000000000e+00 1
-1.8896863216385099e-01 -2.2512101126346953e-01 0.0000000000000000e+00 1
-1.8198844860117219e-01 -2.2401071123576397e-01 0.0000000000000000e+00 1
-1.7457491854233004e-01 -2.2258805376623339e-01 0.0000000000000000e+00 1
-1.6678158747006000e-01 -2.2087186263749517e-01 0.0000000000000000e+00 1
-1.5866200086709745e-01 -2.1888096163216630e-01 0.0000000000000000e+00 1
-1.5026970421617811e-01 -2.1663417453286427e-01 0.0000000000000000e+00 1
-1.4165824300003718e-01 -2.1415032512220603e-01 0.0000000000000000e+00 1
-1.3288116270141034e-01 -2.1144823718280897e-01 0.0000000000000000e+00 1
-1.2399200880303299e-01 -2.0854673449729025e-01 0.0000000000000000e+00 1
-1.1504432678764068e-01 -2.0546464084826713e-01 0.0000000000000000e+00 1
-1.0609166213796881e-01 -2.0222078001835678e-01 0.0000000000000000e+00 1
-9.7187560336752882e-02 -1.9883397579017645e-01 0.0000000000000000e+00 1
-8.8385566866728410e-02 -1.9532305194634333e-01 0.0000000000000000e+00 1
-7.9739227210630814e-02 -1.9170683226947463e-01 0.0000000000000000e+00 1
-7.1302086851195656e-02 -1.8800414054218764e-01 0.0000000000000000e+00 1
-6.3127691271158373e-02 -1.8423380054709956e-01 0.0000000000000000e+00 1
-5.5269585953254471e-02 -1.8041463606682756e-01 0.0000000000000000e+00 1
-4.7781316380219395e-02 -1.7656547088398891e-01 0.0000000000000000e+00 1
-4.0716428034788629e-02 -1.7270512878120076e-01 0.0000000000000000e+00 1
-3.4128466399697674e-02 -1.6885243354108040e-01 0.0000000000000000e+00 1
-2.8070976957682011e-02 -1.6502620894624501e-01 0.0000000000000000e+00 1
-2.2597505191477109e-02 -1.6124527877931183e-01 0.0000000000000000e+00 1
-1.7761596583818463e-02 -1.5752846682289809e-01 0.0000000000000000e+00 1
-1.3616796617441548e-02 -1.5389459685962098e-01 0.0000000000000000e+00 1
-1.0216650775081847e-02 -1.5036249267209773e-01 0.0000000000000000e+00 1
-5.6373089947837698e-03 -1.4496374146325031e-01 0.0000000000000000e+00 1
-7.0644381557436776e-04 -1.3893832322281480e-01 0.0000000000000000e+00 1
4.5524782985160890e-03 -1.3231806380491865e-01 0.0000000000000000e+00 1
1.0115990883457330e-02 -1.2513478906368919e-01 0.0000000000000000e+00 1
1.5960627475219091e-02 -1.1742032485325379e-01 0.0000000000000000e+00 1
2.2062921609771087e-02 -1.0920649702773988e-01 0.0000000000000000e+00 1
2.8399406823083055e-02 -1.0052513144127481e-01 0.0000000000000000e+00 1
3.4946616651124737e-02 -9.1408053947985943e-02 0.0000000000000000e+00 1
4.1681084629865854e-02 -8.1887090402000734e-02 0.0000000000000000e+00 1
4.8579344295276154e-02 -7.1994066657446468e-02 0.0000000000000000e+00 1
5.5617929183325317e-02 -6.1760808568450565e-02 0.0000000000000000e+00 1
6.2773372829983104e-02 -5.1219141989140390e-02 0.0000000000000000e+00 1
7.0022208771219258e-02 -4.0400892773643352e-02 0.0000000000000000e+00 1
7.7340970543003512e-02 -2.9337886776086827e-02 0.0000000000000000e+00 1
8.4706191681305582e-02 -1.8061949850598162e-02 0.0000000000000000e+00 1
9.2094405722095180e-02 -6.6049078513047803e-03 0.0000000000000000e+00 1
9.9482146201342048e-02 5.0014133676659703e-03 0.0000000000000000e+00 1
1.0684594665501596e-01 1.6725187952186672e-02 0.0000000000000000e+00 1
1.1416234061908659e-01 2.8534590048130005e-02 0.0000000000000000e+00 1
1.2140786162952372e-01 4.0397793801368549e-02 0.0000000000000000e+00 1
1.2855904322229697e-01 5.2282973357774883e-02 0.0000000000000000e+00 1
1.3559241893337620e-01 6.4158302863221717e-02 0.0000000000000000e+00 1
1.4248452229873110e-01 7.5991956463581645e-02 0.0000000000000000e+00 1
1.4921188685433137e-01 8.7752108304727267e-02 0.0000000000000000e+00 1
1.5575104613614674e-01 9.9406932532531161e-02 0.0000000000000000e+00 1
1.6207853368014702e-01 1.1092460329286605e-01 0.0000000000000000e+00 1
1.6817088302230182e-01 1.2227329473160448e-01 0.0000000000000000e+00 1
1.7400462769858094e-01 1.3342118099461908e-01 0.0000000000000000e+00 1
1.7955630124495406e-01 1.4433643622778242e-01 0.0000000000000000e+00 1
1.8480243719739106e-01 1.5498723457696725e-01 0.0000000000000000e+00 1
1.8971956909186150e-01 1.6534175018804612e-01 0.0000000000000000e+00 1
1.9428423046433518e-01 1.7536815720689164e-01 0.0000000000000000e+00 1
1.9847295485078179e-01 1.8503462977937640e-01 0.0000000000000000e+00 1
2.0226227578717107e-01 1.9430934205137310e-01 0.0000000000000000e+00 1
2.0562872680947283e-01 2.0316046816875430e-01 0.0000000000000000e+00 1
2.0854884145365674e-01 2.1155618227739259e-01 0.0000000000000000e+00 1
2.1099915325569249e-01 2.1946465852316069e-01 0.0000000000000000e+00 1
2.1295619575154989e-01 2.2685407105193114e-01 0.0000000000000000e+00 1
2.1439650247719863e-01 2.3369259400957668e-01 0.0000000000000000e+00 1
2.1529660696860844e-01 2.3994840154196975e-01 0.0000000000000000e+00 1
2.1563304276174897e-01 2.4558966779498306e-01 0.0000000000000000e+00 1
2.1538234339259010e-01 2.5058456691448916e-01 0.0000000000000000e+00 1
2.1452104239710151e-01 2.5490127304636084e-01 0.0000000000000000e+00 1
2.1302567331125291e-01 2.5850796033647061e-01 0.0000000000000000e+00 1
2.1087276967101404e-01 2.6137280293069109e-01 0.0000000000000000e+00 1
2.0803886501235455e-01 2.6346397497489488e-01 0.0000000000000000e+00 1
2.0450049287124430e-01 2.6474965061495470e-01 0.0000000000000000e+00 1
2.0023418678365298e-01 2.6519800399674304e-01 0.0000000000000000e+00 1
1.9521648028555030e-01 2.6477720926613257e-01 0.0000000000000000e+00 1
1.8942390691290598e-01 2.6345544056899595e-01 0.0000000000000000e+00 1
1.8219744218097075e-01 2.6116278871142939e-01 0.0000000000000000e+00 1
1.7486052293921234e-01 2.5842471010028079e-01 0.0000000000000000e+00 1
1.6741942712309579e-01 2.5525420424571127e-01 0.0000000000000000e+00 1
1.5988043266808621e-01 2.5166427065788199e-01 0.0000000000000000e+00 1
1.5224981750964872e-01 2.4766790884695403e-01 0.0000000000000000e+00 1
1.4453385958324841e-01 2.4327811832308840e-01 0.0000000000000000e+00 1
1.3673883682435026e-01 2.3850789859644619e-01 0.0000000000000000e+00 1
1.2887102716841950e-01 2.3337024917718860e-01 0.0000000000000000e+00 1
1.2093670855092109e-01 2.2787816957547666e-01 0.0000000000000000e+00 1
1.1294215890732029e-01 2.2204465930147152e-01 0.0000000000000000e+00 1
1.0489365617308211e-01 2.1588271786533419e-01 0.0000000000000000e+00 1
9.6797478283671495e-02 2.0940534477722572e-01 0.0000000000000000e+00 1
8.8659903174553745e-02 2.0262553954730736e-01 0.0000000000000000e+00 1
8.0487208781193809e-02 1.9555630168574006e-01 0.0000000000000000e+00 1
7.2285673039056864e-02 1.8821063070268504e-01 0.0000000000000000e+00 1
6.4061573883607975e-02 1.8060152610830332e-01 0.0000000000000000e+00 1
5.5821189250312188e-02 1.7274198741275587e-01 0.0000000000000000e+00 1
4.7570797074634609e-02 1.6464501412620400e-01 0.0000000000000000e+00 1
3.9316675292040401e-02 1.5632360575880874e-01 0.0000000000000000e+00 1
3.1065101837994581e-02 1.4779076182073120e-01 0.0000000000000000e+00 1
2.2822354647962256e-02 1.3905948182213237e-01 0.0000000000000000e+00 1
1.4594711657408492e-02 1.3014276527317339e-01 0.0000000000000000e+00 1
6.3884508017983677e-03 1.2105361168401529e-01 0.0000000000000000e+00 1
-1.7901499834029454e-03 1.1180502056481936e-01 0.0000000000000000e+00 1
-9.9348127627303870e-03 1.0240999142574658e-01 0.0000000000000000e+00 1
-1.8039259600718931e-02 9.2881523776958047e-02 0.0000000000000000e+00 1
-2.6097212561903456e-02 8.3232617128614739e-02 0.0000000000000000e+00 1
-3.4102393710818864e-02 7.3476270990877834e-02 0.0000000000000000e+00 1
-4.2048525112000038e-02 6.3625484873908539e-02 0.0000000000000000e+00 1
-4.9929328829981912e-02 5.3693258287867841e-02 0.0000000000000000e+00 1
-5.7738526929299455e-02 4.3692590742916780e-02 0.0000000000000000e+00 1
-6.5469841474487464e-02 3.3636481749216553e-02 0.0000000000000000e+00 1
-7.3116994530080900e-02 2.3537930816928225e-02 0.0000000000000000e+00 1
-8.0673708160614754e-02 1.3409937456212800e-02 0.0000000000000000e+00 1
-8.8133704430623794e-02 3.2655011772315043e-03 0.0000000000000000e+00 1
-9.5490705404643078e-02 -6.8823785098546877e-03 0.0000000000000000e+00 1
-1.0273843314720740e-01 -1.7020702094884571e-02 0.0000000000000000e+00 1
-1.0987060972285170e-01 -2.7136470067697094e-02 0.0000000000000000e+00 1
-1.1688095719611094e-01 -3.7216682918131246e-02 0.0000000000000000e+00 1
-1.2376319763151991e-01 -4.7248341136025801e-02 0.0000000000000000e+00 1
-1.3051105309361369e-01 -5.7218445211219805e-02 0.0000000000000000e+00 1
-1.3711824564692707e-01 -6.7113995633552012e-02 0.0000000000000000e+00 1
-1.4357849735599496e-01 -7.6921992892861418e-02 0.0000000000000000e+00 1
-1.4988553028535237e-01 -8.6629437478986993e-02 0.0000000000000000e+00 1
-1.5603306649953411e-01 -9.6223329881767489e-02 0.0000000000000000e+00 1
-1.6201482806307516e-01 -1.0569067059104198e-01 0.0000000000000000e+00 1
-1.6782453704051034e-01 -1.1501846009664923e-01 0.0000000000000000e+00 1
-1.7345591549637468e-01 -1.2419369888842824e-01 0.0000000000000000e+00 1
-1.7890268549520297e-01 -1.3320338745621785e-01 0.0000000000000000e+00 1
-1.8415856910153020e-01 -1.4203452628985699e-01 0.0000000000000000e+00 1
-1.8921728837989130e-01 -1.5067411587918464e-01 0.0000000000000000e+00 1
-1.9407256539482107e-01 -1.5910915671403958e-01 0.0000000000000000e+00 1
-1.9871812221085453e-01 -1.6732664928426083e-01 0.0000000000000000e+00 1
-2.0314768089252655e-01 -1.7531359407968722e-01 0.0000000000000000e+00 1
-2.0735496350437202e-01 -1.8305699159015767e-01 0.0000000000000000e+00 1
-2.1133369211092590e-01 -1.9054384230551116e-01 0.0000000000000000e+00 1
-2.1507758877672306e-01 -1.9776114671558651e-01 0.0000000000000000e+00 1
-2.1858037556629845e-01 -2.0469590531022266e-01 0.0000000000000000e+00 1
-1.8662240134066539e-02 -1.5232047193489126e-01 0.0000000000000000e+00 1
-3.0454530077534169e-03 -1.3188531279077981e-01 0.0000000000000000e+00 1
-4.7218151858964011e-02 -1.6901356963652492e-01 0.0000000000000000e+00 1
-9.7673649316665820e-02 -2.8560068732929194e-02 0.0000000000000000e+00 1
-1.2538097028191694e-01 -6.7826302618484408e-02 0.0000000000000000e+00 1
1.7632979445090902e-02 -9.9320363486756075e-02 0.0000000000000000e+00 1
-7.8623695032153440e-02 -1.8310850632242731e-01 0.0000000000000000e+00 1
4.4239600199992027e-02 -5.9847079558443685e-02 0.0000000000000000e+00 1
-4.7436388663435226e-02 4.1229947638739078e-02 0.0000000000000000e+00 1
-1.3128813758865598e-02 8.0202245249218179e-02 0.0000000000000000e+00 1
-1.5065575971897244e-01 -1.0589615093036060e-01 0.0000000000000000e+00 1
1.8845714507527821e-02 1.1849773021761228e-01 0.0000000000000000e+00 1
6.3649718232330843e-02 -2.8775615264805689e-02 0.0000000000000000e+00 1
-7.5638584170949069e-02 1.8920404679434065e-03 0.0000000000000000e+00 1
5.0923143405979809e-02 1.5316352633243699e-01 0.0000000000000000e+00 1
-1.1353735372474474e-01 -1.9547335338640762e-01 0.0000000000000000e+00 1
1.0115560595717477e-01 2.8784324167227582e-02 0.0000000000000000e+00 1
8.2126382043166649e-02 1.8479528126796541e-01 0.0000000000000000e+00 1
1.0639238599554357e-01 2.0571096897510319e-01 0.0000000000000000e+00 1
1.2192966919129701e-01 6.4175704367473885e-02 0.0000000000000000e+00 1
-1.6683269253344485e-01 -1.3292002717856161e-01 0.0000000000000000e+00 1
1.2909056499803201e-01 2.2493750262407844e-01 0.0000000000000000e+00 1
1.4968770076748916e-01 1.0994868216808357e-01 0.0000000000000000e+00 1
-1.4808208845520401e-01 -2.0804878376279140e-01 0.0000000000000000e+00 1
1.6753535136956527e-01 1.4290848343290849e-01 0.0000000000000000e+00 1
1.5154998668028247e-01 2.3951061624669628e-01 0.0000000000000000e+00 1
1.8323543041855828e-01 1.7390279991253260e-01 0.0000000000000000e+00 1
-1.8536085913431549e-01 -1.5871433884169400e-01 0.0000000000000000e+00 1
2.0585268704659557e-01 2.2478153173157858e-01 0.0000000000000000e+00 1
-1.7212435780870289e-01 -2.1516310600083388e-01 0.0000000000000000e+00 1
1.9628294629205850e-01 2.0043422333699615e-01 0.0000000000000000e+00 1
2.1184198585773065e-01 2.4812010184501121e-01 0.0000000000000000e+00 1
1.7441341306275102e-01 2.5041921379883486e-01 0.0000000000000000e+00 1
-1.9286052955652958e-01 -2.2013294818792295e-01 0.0000000000000000e+00 1
-1.9906010054918311e-01 -1.8295202184652998e-01 0.0000000000000000e+00 1
1.9404028890966421e-01 2.5997191181528989e-01 0.0000000000000000e+00 1
-2.1619621200768416e-01 -2.2214546692009748e-01 0.0000000000000000e+00 1
5.2584014455444002e-03 -1.1678296483484119e-01 0.0000000000000000e+00 1
3.1018035786741567e-02 -7.9853360101020482e-02 0.0000000000000000e+00 1
-1.3839116517662475e-01 -8.7194855783645525e-02 0.0000000000000000e+00 1
-1.1213385815227914e-01 -4.7830783369169697e-02 0.0000000000000000e+00 1
8.0382771966718475e-02 -5.2026096291915161e-03 0.0000000000000000e+00 1
1.3583018784215956e-01 8.7626701186071021e-02 0.0000000000000000e+00 1
-6.0996615845716896e-02 2.2527653331155400e-02 0.0000000000000000e+00 1
-6.2344268352428928e-02 -1.7534791621762438e-01 0.0000000000000000e+00 1
-2.9250041479592415e-02 6.1600530761450167e-02 0.0000000000000000e+00 1
2.2986981837764160e-03 9.9751643951883892e-02 0.0000000000000000e+00 1
3.4280863238334139e-02 1.3653784841189021e-01 0.0000000000000000e+00 1
-1.3012495365695292e-01 -2.0135293382833885e-01 0.0000000000000000e+00 1
-9.4995013216933460e-02 -1.9114833838812373e-01 0.0000000000000000e+00 1
6.6214373004452098e-02 1.6913926012277006e-01 0.0000000000000000e+00 1
2.0757943961319306e-01 2.5983242641872550e-01 0.0000000000000000e+00 1
-3.4120241259780637e-02 -1.6219104475659638e-01 0.0000000000000000e+00 1
-2.0726514825656817e-01 -1.9734894368309958e-01 0.0000000000000000e+00 1
-2.0414332144117139e-01 -2.2199406624408669e-01 0.0000000000000000e+00 1
2.0993577358904714e-01 2.3796515890581685e-01 0.0000000000000000e+00 1
-2.1573233416910179e-01 -2.1006069893708973e-01 0.0000000000000000e+00 1
-1.1830000140922295e-02 -1.4371941574450789e-01 0.0000000000000000e+00 1
-2.2080761287595257e-01 -2.1726938108952390e-01 0.0000000000000000e+00 1
2.0186741878048564e-01 2.6149778978371041e-01 0.0000000000000000e+00 1
2.1051723655249349e-01 2.5518237987587300e-01 0.0000000000000000e+00 1
-2.2060145227201269e-01 -2.1992048833533562e-01 0.0000000000000000e+00 1
-2.1751448280618288e-01 -2.1827459544117123e-01 0.0000000000000000e+00 1
-2.1355410390368945e-01 -2.1905480335779354e-01 0.0000000000000000e+00 1
-2.1148196372363973e-01 -2.0411955360474501e-01 0.0000000000000000e+00 1
-2.0374058627554215e-01 -2.0407876594881005e-01 0.0000000000000000e+00 1
-1.9945797576103175e-01 -1.9739242721641354e-01 0.0000000000000000e+00 1
-1.9570150007427567e-01 -2.0410847675832045e-01 0.0000000000000000e+00 1
-1.9168060106727161e-01 -1.9745089857981196e-01 0.0000000000000000e+00 1
-1.8779903516905322e-01 -2.0433653338191982e-01 0.0000000000000000e+00 1
-1.8344131914622508e-01 -1.9746752955863645e-01 0.0000000000000000e+00 1
-1.8765496082596544e-01 -1.9028461200876517e-01 0.0000000000000000e+00 1
-1.7902445131201739e-01 -1.9030093151440625e-01 0.0000000000000000e+00 1
-1.8235437996397780e-01 -1.8286069566030907e-01 0.0000000000000000e+00 1
-1.7428143060598117e-01 -1.8290092616628545e-01 0.0000000000000000e+00 1
-1.7021203921063691e-01 -1.9062550994856153e-01 0.0000000000000000e+00 1
-1.6547623270701373e-01 -1.8298544609597256e-01 0.0000000000000000e+00 1
-1.6930420130848811e-01 -1.7486995929106899e-01 0.0000000000000000e+00 1
-1.6064409833309359e-01 -1.7500946385298616e-01 0.0000000000000000e+00 1
-1.5624282137819168e-01 -1.8323671564532557e-01 0.0000000000000000e+00 1
-1.5128556649582151e-01 -1.7522271527504862e-01 0.0000000000000000e+00 1
-1.5591703748184710e-01 -1.6686142100930845e-01 0.0000000000000000e+00 1
-1.4628054305050756e-01 -1.6706576137656437e-01 0.0000000000000000e+00 1
-1.5100545096955298e-01 -1.5855639430320589e-01 0.0000000000000000e+00 1
-1.4125571634537568e-01 -1.5877598053916037e-01 0.0000000000000000e+00 1
-1.3658164663198474e-01 -1.6734601958077844e-01 0.0000000000000000e+00 1
-1.3148431056544890e-01 -1.5903002424775839e-01 0.0000000000000000e+00 1
-1.3618360497772558e-01 -1.5039453429238953e-01 0.0000000000000000e+00 1
-1.2632337616383726e-01 -1.5065036953082919e-01 0.0000000000000000e+00 1
-1.3104662656475558e-01 -1.4195069883807879e-01 0.0000000000000000e+00 1
-1.2115151549957301e-01 -1.4227350066928740e-01 0.0000000000000000e+00 1
-1.1650954861456427e-01 -1.5089704041739171e-01 0.0000000000000000e+00 1
-1.1134363123774388e-01 -1.4254702768615449e-01 0.0000000000000000e+00 1
-1.1600044596438597e-01 -1.3395596147433364e-01 0.0000000000000000e+00 1
-1.0622497783844029e-01 -1.3424956433193413e-01 0.0000000000000000e+00 1
-1.1082743614723430e-01 -1.2563214881384174e-01 0.0000000000000000e+00 1
-1.0108072219651801e-01 -1.2600085158146745e-01 0.0000000000000000e+00 1
-9.6532000292988029e-02 -1.3452671104320008e-01 0.0000000000000000e+00 1
-9.1211800065761309e-02 -1.2652559992144011e-01 0.0000000000000000e+00 1
-9.5886726704610944e-02 -1.1778959384357005e-01 0.0000000000000000e+00 1
-8.5933933442335977e-02 -1.1833295819904510e-01 0.0000000000000000e+00 1
-9.0680001668523927e-02 -1.0941929038384407e-01 0.0000000000000000e+00 1
-8.0799921860208970e-02 -1.0985245488844432e-01 0.0000000000000000e+00 1
-7.6076160729193709e-02 -1.1946807718968401e-01 0.0000000000000000e+00 1
-7.0862162001407616e-02 -1.1075457873423035e-01 0.0000000000000000e+00 1
-7.5467378073700325e-02 -1.0140831549872273e-01 0.0000000000000000e+00 1
-6.5379058046913532e-02 -1.0198286483520763e-01 0.0000000000000000e+00 1
-6.9932986985372286e-02 -9.2836233738309543e-02 0.0000000000000000e+00 1
-6.0091537909978884e-02 -9.3084631385176392e-02 0.0000000000000000e+00 1
-6.1479918192359109e-02 -1.1092342985953632e-01 0.0000000000000000e+00 1
-6.4421731450360037e-02 -8.3987592186043014e-02 0.0000000000000000e+00 1
-5.4292058185168975e-02 -8.4282891903948637e-02 0.0000000000000000e+00 1
-5.8698008535717466e-02 -7.4988661219906633e-02 0.0000000000000000e+00 1
-4.7921243714300683e-02 -7.5582656490593619e-02 0.0000000000000000e+00 1
-5.2751198860557347e-02 -6.5835762875360498e-02 0.0000000000000000e+00 1
-4.1795143655655405e-02 -6.6396944445300018e-02 0.0000000000000000e+00 1
-4.6709253424244535e-02 -5.6434481714277146e-02 0.0000000000000000e+00 1
-3.5455108828069529e-02 -5.7019680892541072e-02 0.0000000000000000e+00 1
-4.0519815402506695e-02 -4.6817778496776735e-02 0.0000000000000000e+00 1
-2.8923578077527601e-02 -4.7480183946634891e-02 0.0000000000000000e+00 1
-3.3633810550555199e-02 -3.7351974927984290e-02 0.0000000000000000e+00 1
-2.2232880892322060e-02 -3.7727163920342921e-02 0.0000000000000000e+00 1
-4.2939897872393044e-02 -8.5475630429118307e-02 0.0000000000000000e+00 1
-2.7082313867873915e-02 -2.7388709338521340e-02 0.0000000000000000e+00 1
-1.5521116578588125e-02 -2.7749687446047201e-02 0.0000000000000000e+00 1
-2.1463364208325265e-02 -1.6569560448848750e-02 0.0000000000000000e+00 1
-8.8955622997808504e-03 -1.7480660578314544e-02 0.0000000000000000e+00 1
-1.4944082497527961e-02 -6.1200165853756809e-03 0.0000000000000000e+00 1
6.8903112569561125e-04 -7.6567399646895488e-03 0.0000000000000000e+00 1
-7.6283366797489267e-03 3.9451771217239402e-03 0.0000000000000000e+00 1
6.1629542729170813e-03 4.2640727907203683e-03 0.0000000000000000e+00 1
-2.3801664953951703e-02 -5.7948322149308673e-02 0.0000000000000000e+00 1
-9.4735386449532109e-04 1.4973164317030857e-02 0.0000000000000000e+00 1
1.1960654031420472e-02 1.3968917520395495e-02 0.0000000000000000e+00 1
5.8001610338184600e-03 2.5531665360237092e-02 0.0000000000000000e+00 1
1.8908011894905111e-02 2.4508460975792214e-02 0.0000000000000000e+00 1
1.4313157271810797e-03 -1.9080547349705185e-02 0.0000000000000000e+00 1
-7.4652989090760319e-02 -8.3617484096920880e-02 0.0000000000000000e+00 1
1.2764667887061425e-02 3.6210454519747151e-02 0.0000000000000000e+00 1
2.5965429780709832e-02 3.5194851702610420e-02 0.0000000000000000e+00 1
1.9612460104506013e-02 4.7085375047709883e-02 0.0000000000000000e+00 1
3.3049007874975611e-02 4.5954808017826518e-02 0.0000000000000000e+00 1
2.4688418601004892e-02 1.2944648935284797e-02 0.0000000000000000e+00 1
-1.0675243175342929e-01 -1.5113168053258652e-01 0.0000000000000000e+00 1
-1.0331011300267912e-02 -3.8540082348580529e-02 0.0000000000000000e+00 1
2.6535267624320361e-02 5.8095088301735737e-02 0.0000000000000000e+00 1
4.0085819881538073e-02 5.6856902984036131e-02 0.0000000000000000e+00 1
4.6072710876944839e-02 4.5094236463540889e-02 0.0000000000000000e+00 1
5.3239139812900751e-02 5.5966509270656981e-02 0.0000000000000000e+00 1
4.7394405912468546e-02 6.7581695463902913e-02 0.0000000000000000e+00 1
6.0418161251056410e-02 6.6831033394134348e-02 0.0000000000000000e+00 1
5.4552365311990994e-02 7.8405358105605463e-02 0.0000000000000000e+00 1
6.7112285231950466e-02 7.7944252197574962e-02 0.0000000000000000e+00 1
6.1671665942629732e-02 8.9260772245944031e-02 0.0000000000000000e+00 1
7.4074814266412062e-02 8.8909246786670171e-02 0.0000000000000000e+00 1
6.8798850769806810e-02 9.9952116110385680e-02 0.0000000000000000e+00 1
8.1435739699438472e-02 9.9405986709288255e-02 0.0000000000000000e+00 1
7.5898314026366723e-02 1.1053393950696255e-01 0.0000000000000000e+00 1
8.8400682572022882e-02 1.0990546649099919e-01 0.0000000000000000e+00 1
8.2745900613094003e-02 1.2109437424668419e-01 0.0000000000000000e+00 1
9.5197971327934977e-02 1.2040934622307904e-01 0.0000000000000000e+00 1
-8.6828297016031647e-02 -1.3527856253993689e-01 0.0000000000000000e+00 1
-6.3501498172468779e-02 -6.5489977070486205e-02 0.0000000000000000e+00 1
-5.1792493529360523e-02 -4.6439595428274250e-02 0.0000000000000000e+00 1
-1.0058644927656960e-01 -1.0895471030056848e-01 0.0000000000000000e+00 1
8.9611862744232176e-02 1.3144709080531852e-01 0.0000000000000000e+00 1
1.0182825099287718e-01 1.3082486365228529e-01 0.0000000000000000e+00 1
9.6447540690931644e-02 1.4164474784050288e-01 0.0000000000000000e+00 1
1.0837875525715265e-01 1.4107050077715080e-01 0.0000000000000000e+00 1
-1.1184703361750621e-01 -1.5943237560628024e-01 0.0000000000000000e+00 1
-3.3438458028790828e-02 -1.9021264731872739e-02 0.0000000000000000e+00 1
1.0313124061219039e-01 1.5167820534031373e-01 0.0000000000000000e+00 1
1.1490864778954514e-01 1.5107131655618039e-01 0.0000000000000000e+00 1
1.0965053581177514e-01 1.6162217577579607e-01 0.0000000000000000e+00 1
1.2130230923874585e-01 1.6094020569099715e-01 0.0000000000000000e+00 1
1.2663168331903293e-01 1.5049669662312049e-01 0.0000000000000000e+00 1
1.3287081829372152e-01 1.6034847975545330e-01 0.0000000000000000e+00 1
1.2762209149020676e-01 1.7055483081853398e-01 0.0000000000000000e+00 1
1.3893745644682265e-01 1.7001245860597938e-01 0.0000000000000000e+00 1
1.3358859348695518e-01 1.8005499069517497e-01 0.0000000000000000e+00 1
1.4479209487533257e-01 1.7943067100150359e-01 0.0000000000000000e+00 1
1.3986615370424113e-01 1.8913441464690806e-01 0.0000000000000000e+00 1
1.5047765227602847e-01 1.8860434239048698e-01 0.0000000000000000e+00 1
7.2176919327341910e-02 6.6813368537075368e-02 0.0000000000000000e+00 1
-2.1785561492815065e-02 5.3836930599296387e-03 0.0000000000000000e+00 1
-1.0217438228055659e-01 -1.5960738131490834e-01 0.0000000000000000e+00 1
4.1948124306826179e-02 7.8849799399220821e-02 0.0000000000000000e+00 1
-1.2066585348204203e-01 -1.2525174316796808e-01 0.0000000000000000e+00 1
1.0719470143356907e-01 1.2009869177296363e-01 0.0000000000000000e+00 1
9.3987450883085230e-02 9.8781979144790949e-02 0.0000000000000000e+00 1
5.5718237082843285e-02 1.0123860935020290e-01 0.0000000000000000e+00 1
-8.0943975304176592e-03 2.6580407820186804e-02 0.0000000000000000e+00 1
5.9159400256932351e-02 4.4239940853329773e-02 0.0000000000000000e+00 1
1.4577820051251805e-01 1.9794405134909954e-01 0.0000000000000000e+00 1
1.5602926652783317e-01 1.9747078898344952e-01 0.0000000000000000e+00 1
1.5148450155459403e-01 2.0643383130572848e-01 0.0000000000000000e+00 1
1.6143849216482120e-01 2.0603535740051915e-01 0.0000000000000000e+00 1
5.1942055278949517e-02 3.3286513513452499e-02 0.0000000000000000e+00 1
7.0835212379175394e-02 1.2194696854661968e-01 0.0000000000000000e+00 1
5.6191115768884411e-03 4.8085109191609778e-02 0.0000000000000000e+00 1
-9.5327201922579069e-02 -1.0039322340642690e-01 0.0000000000000000e+00 1
-1.0554819468877072e-01 -9.9971203264901026e-02 0.0000000000000000e+00 1
-1.0007299050871273e-01 -9.1141275698324531e-02 0.0000000000000000e+00 1
1.3529194919834889e-01 1.9907848878234150e-01 0.0000000000000000e+00 1
1.2213016417675543e-01 1.8072570152556136e-01 0.0000000000000000e+00 1
1.6604265389554601e-01 1.9717805367239960e-01 0.0000000000000000e+00 1
1.7134695283912332e-01 2.0565124331233267e-01 0.0000000000000000e+00 1
1.6670724850605306e-01 2.1409591351903862e-01 0.0000000000000000e+00 1
1.7624986162963793e-01 2.1383513787889347e-01 0.0000000000000000e+00 1
1.7169892929720992e-01 2.2193923762375459e-01 0.0000000000000000e+00 1
1.8090358159005920e-01 2.2166357056871325e-01 0.0000000000000000e+00 1
1.5003052446697776e-01 1.6970200988876638e-01 0.0000000000000000e+00 1
-1.4097589219118151e-01 -1.4167245574822374e-01 0.0000000000000000e+00 1
8.4231378695400649e-02 1.4241252852454486e-01 0.0000000000000000e+00 1
6.5078873546205424e-02 3.2455033799678366e-02 0.0000000000000000e+00 1
5.7804128458040366e-02 2.1414061950882541e-02 0.0000000000000000e+00 1
-1.0726619374985835e-01 -1.6791925472554628e-01 0.0000000000000000e+00 1
-1.4691558379191305e-01 -1.8352057101765470e-01 0.0000000000000000e+00 1
-1.6072538821668986e-01 -1.5840317513106356e-01 0.0000000000000000e+00 1
1.3831566161034112e-01 1.4999658178109126e-01 0.0000000000000000e+00 1
1.3196854260795693e-01 1.3995752959646102e-01 0.0000000000000000e+00 1
-1.1026743910166883e-01 -9.1011044615382133e-02 0.0000000000000000e+00 1
-1.1578713583716134e-01 -9.9719587090207978e-02 0.0000000000000000e+00 1
-1.0503211277301652e-01 -8.1698052211559485e-02 0.0000000000000000e+00 1
-9.7580988367370516e-02 -1.6805034417493278e-01 0.0000000000000000e+00 1
-9.2637705811727936e-02 -1.5989332586117927e-01 0.0000000000000000e+00 1
1.7652652201421831e-01 2.2940012289318548e-01 0.0000000000000000e+00 1
1.8530933021255122e-01 2.2914339532089770e-01 0.0000000000000000e+00 1
1.7594160902008926e-01 1.9695685578627775e-01 0.0000000000000000e+00 1
9.7996546031923981e-02 1.6222005376777163e-01 0.0000000000000000e+00 1
7.1017824706181246e-02 2.0610714279173676e-02 0.0000000000000000e+00 1
1.8964025381463828e-01 2.2211409792999032e-01 0.0000000000000000e+00 1
1.6238752977850804e-01 2.2246072347426005e-01 0.0000000000000000e+00 1
1.4364033615642863e-01 1.3958786957859767e-01 0.0000000000000000e+00 1
1.0436224225044791e-01 1.7189561906384043e-01 0.0000000000000000e+00 1
-1.2681413622917770e-01 -1.6759276640768431e-01 0.0000000000000000e+00 1
-1.3195376576310464e-01 -1.7592753355692414e-01 0.0000000000000000e+00 1
-1.2222910199104098e-01 -1.7611205865110105e-01 0.0000000000000000e+00 1
7.1482707573352594e-02 4.3481760196669890e-02 0.0000000000000000e+00 1
-1.3580298395351872e-01 -1.3320004824380688e-01 0.0000000000000000e+00 1
-1.4590958132898491e-01 -1.3283018186221807e-01 0.0000000000000000e+00 1
-1.4070883007638724e-01 -1.2426935468849289e-01 0.0000000000000000e+00 1
-1.5580325821312968e-01 -1.4999796345130201e-01 0.0000000000000000e+00 1
1.7081553489749191e-01 1.8877931297309361e-01 0.0000000000000000e+00 1
1.8128441568942957e-01 2.3642090180300981e-01 0.0000000000000000e+00 1
1.8928394874502241e-01 2.3635552634312618e-01 0.0000000000000000e+00 1
1.8566247605057257e-01 2.4304574842839127e-01 0.0000000000000000e+00 1
1.9316387826029327e-01 2.4273177456668166e-01 0.0000000000000000e+00 1
1.9670931511141679e-01 2.3645367154856148e-01 0.0000000000000000e+00 1
1.7309856305997079e-01 2.3684444348281186e-01 0.0000000000000000e+00 1
-1.2729370001550783e-01 -1.8435613977692203e-01 0.0000000000000000e+00 1
-8.8073248349713779e-02 -1.6824898454460827e-01 0.0000000000000000e+00 1
-8.3127901032221507e-02 -1.6018596881440542e-01 0.0000000000000000e+00 1
-9.4451114269410011e-02 -8.2187735528851030e-02 0.0000000000000000e+00 1
-9.8830539619846336e-02 -7.2704037031672747e-02 0.0000000000000000e+00 1
-8.8692326034625707e-02 -7.3250676863063136e-02 0.0000000000000000e+00 1
-9.3348229185376178e-02 -6.3122601556550584e-02 0.0000000000000000e+00 1
1.3739580788282729e-01 1.2948625258121421e-01 0.0000000000000000e+00 1
-1.5183825122742678e-01 -1.9136583825829467e-01 0.0000000000000000e+00 1
-1.6562714136028681e-01 -1.5003928353029344e-01 0.0000000000000000e+00 1
-8.7633388403587420e-02 -1.5202200783021236e-01 0.0000000000000000e+00 1
-7.8405379572073261e-02 -1.5236864485133586e-01 0.0000000000000000e+00 1
-7.3747954483997263e-02 -1.6028103774614522e-01 0.0000000000000000e+00 1
-6.9244010353687227e-02 -1.5261058820439055e-01 0.0000000000000000e+00 1
-7.3546531762732001e-02 -1.4479971498624758e-01 0.0000000000000000e+00 1
-6.4710106523753474e-02 -1.4520507202121602e-01 0.0000000000000000e+00 1
-6.0431630808387017e-02 -1.5264019876195120e-01 0.0000000000000000e+00 1
-5.6145633666027428e-02 -1.4535626038618354e-01 0.0000000000000000e+00 1
-5.9771332114418818e-02 -1.3780456204436764e-01 0.0000000000000000e+00 1
-5.1641804977952371e-02 -1.3831121188129436e-01 0.0000000000000000e+00 1
-4.7906069221328243e-02 -1.4555655702642392e-01 0.0000000000000000e+00 1
-4.3544513730847501e-02 -1.3863371894736723e-01 0.0000000000000000e+00 1
-4.7284662877024992e-02 -1.3131599911223490e-01 0.0000000000000000e+00 1
-3.9018203383025779e-02 -1.3179814330636019e-01 0.0000000000000000e+00 1
-4.2908931619677911e-02 -1.2415343909007356e-01 0.0000000000000000e+00 1
-3.4303919893794430e-02 -1.2466386047491951e-01 0.0000000000000000e+00 1
-3.8329337333857037e-02 -1.1667855178265471e-01 0.0000000000000000e+00 1
-2.9347640527002415e-02 -1.1717714494063178e-01 0.0000000000000000e+00 1
-3.5576233672293796e-02 -1.3929684932409298e-01 0.0000000000000000e+00 1
-3.3576527035576786e-02 -1.0897251102324818e-01 0.0000000000000000e+00 1
-2.4189813828882120e-02 -1.0943901331309056e-01 0.0000000000000000e+00 1
-2.5701634756164576e-02 -1.2541096643828459e-01 0.0000000000000000e+00 1
-2.8609242407101759e-02 -1.0087605617553959e-01 0.0000000000000000e+00 1
-1.8633080909893587e-02 -1.0147378830469539e-01 0.0000000000000000e+00 1
-2.3600890690914006e-02 -9.2329895642094664e-02 0.0000000000000000e+00 1
-1.3017604633685051e-02 -9.3043265549892756e-02 0.0000000000000000e+00 1
-1.7962366319983006e-02 -8.3563419349062751e-02 0.0000000000000000e+00 1
-7.3868782607792562e-03 -8.4055657200605496e-02 0.0000000000000000e+00 1
-1.4608018308453909e-02 -1.1078881250109524e-01 0.0000000000000000e+00 1
-4.2741744541280713e-02 -1.0941871892474703e-01 0.0000000000000000e+00 1
-2.6680850796378516e-03 -9.3545757354784306e-02 0.0000000000000000e+00 1
3.3841839009727246e-03 -8.4662484667576268e-02 0.0000000000000000e+00 1
-1.2928423339416159e-03 -7.5035706791759069e-02 0.0000000000000000e+00 1
9.4955559540122157e-03 -7.5513102654947956e-02 0.0000000000000000e+00 1
4.7394551831382390e-03 -6.5570158084506974e-02 0.0000000000000000e+00 1
1.5860530551032481e-02 -6.6100138221765026e-02 0.0000000000000000e+00 1
1.0681166052210846e-02 -5.5754327437937026e-02 0.0000000000000000e+00 1
2.2271433412502456e-02 -5.6274360616999808e-02 0.0000000000000000e+00 1
1.7090972900457135e-02 -4.5712877338697333e-02 0.0000000000000000e+00 1
2.9107019538782641e-02 -4.6452710594162713e-02 0.0000000000000000e+00 1
2.3710263543358298e-02 -3.5565045321135205e-02 0.0000000000000000e+00 1
3.5827606505963311e-02 -3.6099374923632618e-02 0.0000000000000000e+00 1
2.9976854139050678e-02 -2.4666308994373040e-02 0.0000000000000000e+00 1
2.0016201710159137e-01 2.4264247268874911e-01 0.0000000000000000e+00 1
1.9697303330453070e-01 2.4842664336442369e-01 0.0000000000000000e+00 1
-1.5094408222718772e-01 -1.2393145186869228e-01 0.0000000000000000e+00 1
6.3427217878941899e-02 9.7498201658201659e-03 0.0000000000000000e+00 1
5.0487706804426630e-02 1.0392183533326532e-02 0.0000000000000000e+00 1
5.6049425705291492e-02 -1.1806890583923345e-03 0.0000000000000000e+00 1
4.2770600511275104e-02 -8.9636668087009728e-04 0.0000000000000000e+00 1
4.9030085597433659e-02 -1.2535151419639262e-02 0.0000000000000000e+00 1
-5.1734272792726368e-02 -1.2432643546295896e-01 0.0000000000000000e+00 1
-2.0022118691807536e-01 -2.1026854685832513e-01 0.0000000000000000e+00 1
-8.2881098164832329e-02 -6.4130672217320800e-02 0.0000000000000000e+00 1
-8.7465361924480026e-02 -5.3589330154198159e-02 0.0000000000000000e+00 1
-7.6910879286568284e-02 -5.4772991930414586e-02 0.0000000000000000e+00 1
-8.1418971508760124e-02 -4.3913790641206991e-02 0.0000000000000000e+00 1
-1.4242628928199658e-01 -1.9170383454899045e-01 0.0000000000000000e+00 1
1.4978982818958481e-01 1.5039395870866376e-01 0.0000000000000000e+00 1
-6.8057875182345195e-04 -5.6480918918996370e-02 0.0000000000000000e+00 1
1.2550077976818044e-01 1.2999237506051414e-01 0.0000000000000000e+00 1
1.3085826486051055e-01 1.1983234068851252e-01 0.0000000000000000e+00 1
-1.1552478151876366e-01 -1.1698565208285616e-01 0.0000000000000000e+00 1
-1.2549347129741906e-01 -1.1647875604701302e-01 0.0000000000000000e+00 1
-1.7967502926373277e-01 -2.0457191136336125e-01 0.0000000000000000e+00 1
-1.8379768668211738e-01 -2.1126723081286569e-01 0.0000000000000000e+00 1
-1.0274409570434125e-01 -1.7597085583397087e-01 0.0000000000000000e+00 1
-1.1935260598537067e-01 -8.9633247492386825e-02 0.0000000000000000e+00 1
-1.2500827940221571e-01 -9.8089708824312727e-02 0.0000000000000000e+00 1
-7.0805801673694824e-02 -4.5204599402931742e-02 0.0000000000000000e+00 1
-7.5248163177762561e-02 -3.4070489889596586e-02 0.0000000000000000e+00 1
-6.4579903964945617e-02 -3.5462559276988742e-02 0.0000000000000000e+00 1
-6.8840112625412619e-02 -2.4146829687964600e-02 0.0000000000000000e+00 1
-5.5874886838886334e-02 -2.6696566552463365e-02 0.0000000000000000e+00 1
-6.2308217233178635e-02 -1.3724755066986742e-02 0.0000000000000000e+00 1
-7.9971112408202413e-02 -2.2339011359967537e-02 0.0000000000000000e+00 1
1.4956363251469110e-01 1.3041141760763220e-01 0.0000000000000000e+00 1
1.1537829252253705e-02 -3.6052448982364871e-02 0.0000000000000000e+00 1
1.8135558818499842e-01 1.8908828350193668e-01 0.0000000000000000e+00 1
-2.8840977992368778e-02 -8.3407547905780199e-02 0.0000000000000000e+00 1
-1.7038974539999849e-01 -1.5821311487521891e-01 0.0000000000000000e+00 1
-2.3485163507136801e-02 -7.4700348912289993e-02 0.0000000000000000e+00 1
9.3365537292339623e-02 1.7228172803145481e-01 0.0000000000000000e+00 1
9.9755070993048617e-02 1.8163328058849629e-01 0.0000000000000000e+00 1
8.6451950239975262e-02 1.6298542804883409e-01 0.0000000000000000e+00 1
-5.0598215823474429e-02 -1.4234920760252137e-02 0.0000000000000000e+00 1
-5.5615381478023779e-02 -3.5188376398780658e-03 0.0000000000000000e+00 1
-4.3856028398990811e-02 -3.4747720625205600e-03 0.0000000000000000e+00 1
-4.8776231728740252e-02 6.8411916724440518e-03 0.0000000000000000e+00 1
2.0378182963806449e-01 2.4831504681881855e-01 0.0000000000000000e+00 1
2.0066688191601295e-01 2.5315998980228671e-01 0.0000000000000000e+00 1
-1.0372163726949662e-01 -6.4672598134522100e-02 0.0000000000000000e+00 1
-9.4262185305300908e-02 -4.2486630622965288e-02 0.0000000000000000e+00 1
-2.0884154804252955e-01 -2.1091465862577594e-01 0.0000000000000000e+00 1
1.4195360320610485e-02 -8.5834054223599063e-02 0.0000000000000000e+00 1
-3.6788837436893672e-02 6.4795722440227962e-03 0.0000000000000000e+00 1
-4.1998499350325680e-02 1.7258354936115494e-02 0.0000000000000000e+00 1
-2.9228105079880828e-02 1.6945127070687453e-02 0.0000000000000000e+00 1
-3.4910081689815187e-02 2.7683729999747053e-02 0.0000000000000000e+00 1
-2.3192513824074432e-02 2.7554114815026617e-02 0.0000000000000000e+00 1
-2.8210753961681781e-02 3.8304419390143223e-02 0.0000000000000000e+00 1
-1.5506454784494330e-02 3.8144583173407465e-02 0.0000000000000000e+00 1
-1.1778094301995978e-01 -1.8501408903024597e-01 0.0000000000000000e+00 1
-4.4655319674728390e-02 -2.5073198927959034e-02 0.0000000000000000e+00 1
2.6721689382436801e-02 -6.7798888323147427e-02 0.0000000000000000e+00 1
6.0610890809920000e-02 -1.4129558027427243e-02 0.0000000000000000e+00 1
-6.1553784017951467e-02 7.5823454157860938e-03 0.0000000000000000e+00 1
1.8634903015492812e-01 1.9854934887257525e-01 0.0000000000000000e+00 1
-1.5607513039847537e-01 -1.3271492388310352e-01 0.0000000000000000e+00 1
3.5877694820843686e-02 -1.3331849313176916e-02 0.0000000000000000e+00 1
4.2245523643065643e-02 -2.4419417374260947e-02 0.0000000000000000e+00 1
2.3211395348047371e-02 -1.3952344272762604e-02 0.0000000000000000e+00 1
4.9322918980812369e-02 -3.5708799133961994e-02 0.0000000000000000e+00 1
2.8119849250937887e-02 -4.4762139901065084e-04 0.0000000000000000e+00 1
-1.7510158339886095e-01 -1.5007573249545897e-01 0.0000000000000000e+00 1
1.8989423719533141e-01 2.4847204057484498e-01 0.0000000000000000e+00 1
1.8239249738557731e-01 2.4898215495761661e-01 0.0000000000000000e+00 1
-2.2152283483579796e-02 4.9440499029318130e-02 0.0000000000000000e+00 1
-9.4862198444428010e-03 4.8848029305294159e-02 0.0000000000000000e+00 1
-1.6356196515288059e-02 5.9992808713769726e-02 0.0000000000000000e+00 1
-2.5666125785155569e-03 6.1100788843002130e-02 0.0000000000000000e+00 1
1.2530720667302318e-02 5.9847510273073293e-02 0.0000000000000000e+00 1
2.1504114374999501e-02 7.0255874107278335e-02 0.0000000000000000e+00 1
6.7978447109878614e-03 7.3313798111275252e-02 0.0000000000000000e+00 1
1.7462662341255902e-02 8.2396230637649920e-02 0.0000000000000000e+00 1
5.5674583247797742e-03 8.5705436810891655e-02 0.0000000000000000e+00 1
1.4649901916047915e-02 9.5006183106260605e-02 0.0000000000000000e+00 1
2.6422600455537265e-02 9.1551059722188355e-02 0.0000000000000000e+00 1
2.3408649180613951e-02 1.0413447500005257e-01 0.0000000000000000e+00 1
3.5408430328072810e-02 1.0035741273438423e-01 0.0000000000000000e+00 1
3.2254789683597178e-02 1.1278200574370881e-01 0.0000000000000000e+00 1
7.5816038379296846e-02 8.0112612694798364e-03 0.0000000000000000e+00 1
8.3302570091293826e-02 1.8797003433148593e-02 0.0000000000000000e+00 1
1.1064907018111569e-01 1.8127270365055637e-01 0.0000000000000000e+00 1
1.0589024004706835e-01 1.9313167350858251e-01 0.0000000000000000e+00 1
1.1726680630288942e-01 1.9104464540725977e-01 0.0000000000000000e+00 1
9.2320401793632503e-02 1.9128533256542563e-01 0.0000000000000000e+00 1
-4.7345268137602467e-02 2.8049398827805640e-02 0.0000000000000000e+00 1
4.4719169987545590e-02 1.0868739520044962e-01 0.0000000000000000e+00 1
4.1967851393770808e-02 1.2041771648398464e-01 0.0000000000000000e+00 1
5.3322434332955686e-02 1.1680656111482379e-01 0.0000000000000000e+00 1
5.0489362078216325e-02 1.2936842032098986e-01 0.0000000000000000e+00 1
1.9322511528328423e-01 2.2950687104612147e-01 0.0000000000000000e+00 1
1.9765108690765565e-01 2.2281324279960593e-01 0.0000000000000000e+00 1
1.9448657901175795e-01 2.1535387363040437e-01 0.0000000000000000e+00 1
1.8535864950441194e-01 2.1422729086553294e-01 0.0000000000000000e+00 1
1.8081053835137964e-01 2.0591868754469944e-01 0.0000000000000000e+00 1
-5.1881897162874648e-02 -1.5284543421464736e-01 0.0000000000000000e+00 1
-4.4026481058748575e-02 -1.5265703924416191e-01 0.0000000000000000e+00 1
-5.6046941174122539e-02 -1.5982438011679978e-01 0.0000000000000000e+00 1
-3.9986554283886984e-02 -1.4589810761668542e-01 0.0000000000000000e+00 1
-3.2346587925857845e-02 -1.4612432823011379e-01 0.0000000000000000e+00 1
-2.7859007410334941e-02 -1.3982079584544044e-01 0.0000000000000000e+00 1
-2.5541304857754361e-02 -1.4621108778081768e-01 0.0000000000000000e+00 1
-2.8911817966701340e-02 -1.5243830170252975e-01 0.0000000000000000e+00 1
-2.1282648396885418e-02 -1.4083537981537236e-01 0.0000000000000000e+00 1
-3.0820258468535179e-02 -1.3229538518725967e-01 0.0000000000000000e+00 1
-6.4744720888518223e-02 -1.6010411339992453e-01 0.0000000000000000e+00 1
-6.8591033069589885e-02 -1.6798315230742389e-01 0.0000000000000000e+00 1
-7.8015139542081113e-02 -1.6810651185452075e-01 0.0000000000000000e+00 1
-2.3037024779095833e-02 -1.3340770210844080e-01 0.0000000000000000e+00 1
-1.7221993860557269e-02 -1.2635441073315359e-01 0.0000000000000000e+00 1
-1.5577621969832501e-02 -1.3661308580499479e-01 0.0000000000000000e+00 1
2.0585502154431268e-01 2.5325848961844316e-01 0.0000000000000000e+00 1
1.2883268299466416e-01 1.9017046728366108e-01 0.0000000000000000e+00 1
1.2491101677135841e-01 2.0073817373771927e-01 0.0000000000000000e+00 1
1.3184397005362372e-01 2.0834220539137929e-01 0.0000000000000000e+00 1
1.2278242107867295e-01 2.0967930663206147e-01 0.0000000000000000e+00 1
-1.9198047637513060e-01 -2.1216485172371335e-01 0.0000000000000000e+00 1
-7.9935127973089996e-03 -1.3798032129267879e-01 0.0000000000000000e+00 1
-9.2099503249689768e-02 -1.4333122262945533e-01 0.0000000000000000e+00 1
-2.0433806310978256e-02 -1.1814729494308414e-01 0.0000000000000000e+00 1
-1.1019235171558398e-02 -1.2070129260806864e-01 0.0000000000000000e+00 1
-4.9482833464836121e-03 -1.1288430487454806e-01 0.0000000000000000e+00 1
-2.7751690824972921e-03 -1.2034864982782947e-01 0.0000000000000000e+00 1
2.6520166100645953e-03 -1.0719494292547657e-01 0.0000000000000000e+00 1
-7.0121616947431921e-03 -1.0260020398472595e-01 0.0000000000000000e+00 1
-1.1250234535447486e-01 -1.7627285318992383e-01 0.0000000000000000e+00 1
-1.0812674744474411e-01 -1.8469006011900505e-01 0.0000000000000000e+00 1
-3.6472405772379556e-02 -1.5204281351989507e-01 0.0000000000000000e+00 1
-1.2327450725357050e-01 -1.9301400598103088e-01 0.0000000000000000e+00 1
-1.3261714493370197e-01 -1.9230006520706747e-01 0.0000000000000000e+00 1
-1.6034852157420618e-03 3.7492418833764828e-02 0.0000000000000000e+00 1
1.1595273552484112e-01 1.7116853942088087e-01 0.0000000000000000e+00 1
-3.0530959295874946e-02 -6.5595891206647727e-03 0.0000000000000000e+00 1
-1.5488023366347761e-02 1.6371852796084670e-02 0.0000000000000000e+00 1
-2.0360379433826697e-01 -2.1658204529497344e-01 0.0000000000000000e+00 1
-2.0335867002364638e-01 -1.9027142396488250e-01 0.0000000000000000e+00 1
3.1983790976754453e-02 1.2476840346234309e-01 0.0000000000000000e+00 1
7.7391058324287929e-02 1.3218614264647299e-01 0.0000000000000000e+00 1
7.1977913122872036e-02 1.4321314421021430e-01 0.0000000000000000e+00 1
6.5320600120992556e-02 1.3313278401538797e-01 0.0000000000000000e+00 1
5.9900496000821812e-02 1.4409905419494845e-01 0.0000000000000000e+00 1
6.6490239111754015e-02 1.5445825850287115e-01 0.0000000000000000e+00 1
7.8547999940161178e-02 1.5335376144798674e-01 0.0000000000000000e+00 1
4.7674919539846664e-02 1.3944449203934256e-01 0.0000000000000000e+00 1
-4.2671143244903450e-03 7.2328979032445714e-02 0.0000000000000000e+00 1
8.3653457523318292e-02 1.7400882560923295e-01 0.0000000000000000e+00 1
-1.1933942726094737e-01 -5.7566272475147853e-02 0.0000000000000000e+00 1
-1.8928645873685990e-01 -1.6711973203585967e-01 0.0000000000000000e+00 1
-1.8110577469109074e-01 -1.6637076620252172e-01 0.0000000000000000e+00 1
-1.0504569448020978e-01 -3.8212667726014671e-02 0.0000000000000000e+00 1
-8.2762676696598217e-02 -1.4419009183022979e-01 0.0000000000000000e+00 1
-7.7338260676327958e-02 -1.3654275151460776e-01 0.0000000000000000e+00 1
-8.1112575227412789e-02 -1.2772736038606153e-01 0.0000000000000000e+00 1
-7.1871253870335938e-02 -1.2884822759427259e-01 0.0000000000000000e+00 1
-6.6448573367543728e-02 -1.2089823533609544e-01 0.0000000000000000e+00 1
-1.3236310793176664e-01 -7.7260262251467857e-02 0.0000000000000000e+00 1
-1.2017007319372648e-01 -7.8064926936895526e-02 0.0000000000000000e+00 1
4.9474838808666377e-02 8.9330247196459767e-02 0.0000000000000000e+00 1
1.7336733658918496e-01 1.5385247954976763e-01 0.0000000000000000e+00 1
3.4480282937220080e-02 6.8519257761552474e-02 0.0000000000000000e+00 1
-1.0167072051926904e-01 -1.4277552609885177e-01 0.0000000000000000e+00 1
-1.2169935541264433e-01 -1.5930454128883292e-01 0.0000000000000000e+00 1
-9.2745178458942618e-02 -1.7597667870021261e-01 0.0000000000000000e+00 1
1.5695159025657110e-01 2.1459717385410385e-01 0.0000000000000000e+00 1
1.4724429619510843e-01 2.1526894152807163e-01 0.0000000000000000e+00 1
1.5311023249647057e-01 2.2293481880283356e-01 0.0000000000000000e+00 1
1.4357269143229345e-01 2.2442286749974266e-01 0.0000000000000000e+00 1
1.5930811274361648e-01 2.3024591389207816e-01 0.0000000000000000e+00 1
-1.4503282480986629e-01 -9.6424424862756541e-02 0.0000000000000000e+00 1
-1.4038154941878811e-01 -1.0624146376917860e-01 0.0000000000000000e+00 1
1.5546804547024087e-01 1.7936492993071065e-01 0.0000000000000000e+00 1
1.6127440525716463e-01 1.7101917885218421e-01 0.0000000000000000e+00 1
-3.6774566172670220e-02 -7.6136028712871992e-02 0.0000000000000000e+00 1
-3.4297460362043841e-02 -9.3170712274162140e-02 0.0000000000000000e+00 1
-4.3264649233541633e-02 -9.5228594992893670e-02 0.0000000000000000e+00 1
-6.1683804156925003e-02 -1.2852545363161691e-01 0.0000000000000000e+00 1
-3.6683091722095051e-02 4.9253828950739063e-02 0.0000000000000000e+00 1
-5.9883964238125462e-02 -1.6691924071546210e-01 0.0000000000000000e+00 1
-7.2155159996006066e-02 -1.7743277447142583e-01 0.0000000000000000e+00 1
-1.3712584593747873e-01 -1.8389872486142977e-01 0.0000000000000000e+00 1
1.7789594167864384e-01 2.4353359877922909e-01 0.0000000000000000e+00 1
-9.7161355336376667e-02 -1.5146019071119893e-01 0.0000000000000000e+00 1
4.4739108126590349e-02 2.2353692263236236e-02 0.0000000000000000e+00 1
1.4287666950898051e-01 9.8904236014995900e-02 0.0000000000000000e+00 1
1.2961627988305074e-01 9.8772466578218449e-02 0.0000000000000000e+00 1
1.2260449614916960e-01 8.7768537783506503e-02 0.0000000000000000e+00 1
1.1667973458376427e-01 9.8919007382650193e-02 0.0000000000000000e+00 1
1.1005262904608853e-01 8.7709149409425952e-02 0.0000000000000000e+00 1
1.2907062348730464e-01 7.6015986740247579e-02 0.0000000000000000e+00 1
-1.6158678903582469e-01 -1.2380269977895106e-01 0.0000000000000000e+00 1
-5.6490597672794532e-02 -1.0193432908981867e-01 0.0000000000000000e+00 1
-1.9392562946343803e-01 -1.7502913322565591e-01 0.0000000000000000e+00 1
-1.1699016999303666e-01 -1.6775304208593111e-01 0.0000000000000000e+00 1
-1.6113446825634886e-01 -1.9103245105676153e-01 0.0000000000000000e+00 1
-1.6600796001253873e-01 -1.9863124664676132e-01 0.0000000000000000e+00 1
-1.5708389770166947e-01 -1.9869826018180220e-01 0.0000000000000000e+00 1
-1.6147320942554322e-01 -2.0567928204631436e-01 0.0000000000000000e+00 1
-1.7084580826144102e-01 -2.0662604546493304e-01 0.0000000000000000e+00 1
2.4230608603322171e-02 -8.9824733380905630e-02 0.0000000000000000e+00 1
7.9639817330576512e-03 -9.4401671939021090e-02 0.0000000000000000e+00 1
1.6788266268923663e-01 2.2987324933994813e-01 0.0000000000000000e+00 1
1.6506970949771102e-01 2.3838375467478407e-01 0.0000000000000000e+00 1
1.7867296883753159e-01 1.6412595509048752e-01 0.0000000000000000e+00 1
1.7216270897450658e-01 1.7232888429693230e-01 0.0000000000000000e+00 1
2.0639775478527703e-01 2.4279865995767586e-01 0.0000000000000000e+00 1
5.1842252441331602e-02 -4.9305900149420157e-02 0.0000000000000000e+00 1
1.6180294973524847e-01 1.3163687973450705e-01 0.0000000000000000e+00 1
1.1039202490953063e-02 1.0819929354035143e-01 0.0000000000000000e+00 1
1.5609165789613511e-01 1.6115805812178968e-01 0.0000000000000000e+00 1
-8.3946868859307827e-02 -9.2722886328719060e-03 0.0000000000000000e+00 1
1.0769896173893835e-01 4.0635288382428247e-02 0.0000000000000000e+00 1
9.4947866640423165e-02 4.1064687788419436e-02 0.0000000000000000e+00 1
1.0106785174483014e-01 5.2672839518131252e-02 0.0000000000000000e+00 1
8.9143074446332862e-02 5.3666806129700359e-02 0.0000000000000000e+00 1
9.5399694118688039e-02 6.4840189319377420e-02 0.0000000000000000e+00 1
1.0839428102803496e-01 6.4341620171519079e-02 0.0000000000000000e+00 1
1.0221009679147730e-01 7.6085326273710036e-02 0.0000000000000000e+00 1
9.0922083240173382e-02 7.7110166790942458e-02 0.0000000000000000e+00 1
1.1475418834429849e-01 5.2394199840991598e-02 0.0000000000000000e+00 1
9.1333399055556944e-02 1.5235921202362313e-01 0.0000000000000000e+00 1
3.7415099622358422e-02 1.1145034881088757e-02 0.0000000000000000e+00 1
1.4433932448393050e-01 1.6026859114362396e-01 0.0000000000000000e+00 1
-1.4169049194513500e-01 -1.7549688761139998e-01 0.0000000000000000e+00 1
-4.0499717746048797e-02 -1.6551676615059557e-01 0.0000000000000000e+00 1
-4.7619777658937865e-02 -1.6058742943467100e-01 0.0000000000000000e+00 1
1.0057748953231682e-01 1.0951297683948844e-01 0.0000000000000000e+00 1
-1.7456244600674846e-02 -4.8062694142150864e-02 0.0000000000000000e+00 1
-1.2005720469291270e-02 -5.7638147976250262e-02 0.0000000000000000e+00 1
-1.1437441887902636e-01 -6.6391353957845858e-02 0.0000000000000000e+00 1
1.4981965719590953e-02 -4.4000715099420289e-03 0.0000000000000000e+00 1
-3.8884105034560469e-03 -2.8283164937758593e-02 0.0000000000000000e+00 1
6.5593070027895398e-02 5.5542655920117076e-02 0.0000000000000000e+00 1
-2.8335700223711714e-02 -1.5889932808440604e-01 0.0000000000000000e+00 1
1.1571029928222866e-01 7.6016054124313837e-02 0.0000000000000000e+00 1
3.8941905152209758e-02 3.4311892501169963e-02 0.0000000000000000e+00 1
7.7188244344880044e-02 3.1096125569364141e-02 0.0000000000000000e+00 1
-5.8570153490072850e-03 9.0730760976593439e-02 0.0000000000000000e+00 1
-2.1756347317065924e-02 7.1508553774746242e-02 0.0000000000000000e+00 1
3.1729036503798290e-02 2.3637814283843862e-02 0.0000000000000000e+00 1
-8.9829700931654016e-02 -9.1736440205019032e-02 0.0000000000000000e+00 1
-2.0929523521986093e-01 -2.2169808181400649e-01 0.0000000000000000e+00 1
-8.7907889585911003e-02 -1.8495397719196122e-01 0.0000000000000000e+00 1
-1.3952533803632383e-01 -2.0547239483627733e-01 0.0000000000000000e+00 1
-1.6492803143668211e-01 -1.6646866069371039e-01 0.0000000000000000e+00 1
5.0777394242462279e-03 -4.6575172627322969e-02 0.0000000000000000e+00 1
-1.4601683042381258e-01 -1.5013267532402078e-01 0.0000000000000000e+00 1
2.0075675690842121e-01 2.3016129233454727e-01 0.0000000000000000e+00 1
1.8777018663139031e-01 2.5785606874838607e-01 0.0000000000000000e+00 1
-5.7442870831155263e-02 -5.6232148628428374e-02 0.0000000000000000e+00 1
-8.6594228711643545e-02 -3.2106674846308698e-02 0.0000000000000000e+00 1
-1.2585986668096188e-01 -1.3361164949444454e-01 0.0000000000000000e+00 1
1.9353343709449047e-01 2.5413376792684045e-01 0.0000000000000000e+00 1
1.2016775192827490e-01 1.4051829831865237e-01 0.0000000000000000e+00 1
2.0309649923306561e-01 2.1729640815493151e-01 0.0000000000000000e+00 1
-9.8758621339741448e-02 -5.4459001472147772e-02 0.0000000000000000e+00 1
1.4160203340905003e-01 2.0721570292946864e-01 0.0000000000000000e+00 1
-4.5390931965168080e-02 -3.5500301752869508e-02 0.0000000000000000e+00 1
-1.7945478009652197e-01 -2.1718632539865954e-01 0.0000000000000000e+00 1
-1.0569765115822075e-01 -1.1734512759508792e-01 0.0000000000000000e+00 1
-1.5087705984591021e-01 -1.4139872360984315e-01 0.0000000000000000e+00 1
1.4399420663376025e-01 2.3434656340795437e-01 0.0000000000000000e+00 1
-6.8863881796253135e-02 -7.4830116923363221e-02 0.0000000000000000e+00 1
1.6076202071002310e-01 1.8863012703812490e-01 0.0000000000000000e+00 1
5.7403948369426541e-02 1.6282960929940760e-01 0.0000000000000000e+00 1
2.0352772971215213e-01 2.3688377455789522e-01 0.0000000000000000e+00 1
-8.5314800402698870e-02 -1.0090245251005633e-01 0.0000000000000000e+00 1
1.6621515562640340e-01 2.4716003844051870e-01 0.0000000000000000e+00 1
1.9961011996001646e-01 2.0901556735351060e-01 0.0000000000000000e+00 1
-1.7459562684208316e-01 -1.9786276438086361e-01 0.0000000000000000e+00 1
-1.2105473954312504e-02 -7.4986803477913866e-02 0.0000000000000000e+00 1
-1.8650842557922045e-01 -2.1831384643706581e-01 0.0000000000000000e+00 1
2.0281566415135496e-02 -7.6927468393967913e-02 0.0000000000000000e+00 1
1.3814882987533147e-01 2.1583658271390077e-01 0.0000000000000000e+00 1
-1.9537798748422533e-01 -1.9029783057715524e-01 0.0000000000000000e+00 1
-1.6084220837951610e-01 -1.4155011212394353e-01 0.0000000000000000e+00 1
2.0808319090031946e-01 2.3161851821090676e-01 0.0000000000000000e+00 1
-1.4572202706786153e-01 -1.1515330589383782e-01 0.0000000000000000e+00 1
-1.3070442340928040e-01 -1.2473849090186102e-01 0.0000000000000000e+00 1
1.2149795947429076e-02 -1.0893787623943296e-01 0.0000000000000000e+00 1
-2.2976064202425601e-02 -1.5574835598374795e-01 0.0000000000000000e+00 1
-1.4726476764208307e-01 -1.9979033310566766e-01 0.0000000000000000e+00 1
-1.9909933646579520e-01 -2.2114936806763291e-01 0.0000000000000000e+00 1
1.2348304317014644e-01 1.0958171446574738e-01 0.0000000000000000e+00 1
-1.0388020128269652e-01 -1.9294221856602406e-01 0.0000000000000000e+00 1
1.7869310312394707e-02 -2.5341255922612167e-02 0.0000000000000000e+00 1
-6.8153548184082188e-02 -1.3695429696538808e-01 0.0000000000000000e+00 1
6.3913131360540762e-02 1.1148260841540204e-01 0.0000000000000000e+00 1
-1.5645800385890529e-01 -1.1491545652658881e-01 0.0000000000000000e+00 1
1.1361810282778136e-01 1.3052137129848743e-01 0.0000000000000000e+00 1
-3.9346036543349838e-02 -1.5829031190732087e-01 0.0000000000000000e+00 1
-9.1046222965812412e-02 -1.8905508640057987e-02 0.0000000000000000e+00 1
-3.0332850941810235e-02 -6.6702241158691278e-02 0.0000000000000000e+00 1
-4.7769129505284065e-02 -1.1732512594050842e-01 0.0000000000000000e+00 1
8.6152688364684996e-02 8.8511043475666462e-02 0.0000000000000000e+00 1
-1.5137018050506707e-02 -1.4846106701858322e-01 0.0000000000000000e+00 1
1.1489402105914973e-01 2.0050288432034333e-01 0.0000000000000000e+00 1
-1.1042456889555440e-01 -1.0856675984568649e-01 0.0000000000000000e+00 1
-7.9962836851291255e-02 -9.2298169682354686e-02 0.0000000000000000e+00 1
2.9889023741771291e-02 8.0127733814136098e-02 0.0000000000000000e+00 1
-8.2999474207533522e-02 -1.7578579079041273e-01 0.0000000000000000e+00 1
-5.4185354264894292e-02 -1.7238310829408166e-01 0.0000000000000000e+00 1
7.5948640745003460e-02 1.6430494108794821e-01 0.0000000000000000e+00 1
3.7591150830094476e-02 -6.9656355289352281e-02 0.0000000000000000e+00 1
1.8860334206927620e-01 1.8318915711266742e-01 0.0000000000000000e+00 1
1.3652780017029059e-01 2.2980899509792013e-01 0.0000000000000000e+00 1
-1.3569553496535361e-01 -1.1561939376944075e-01 0.0000000000000000e+00 1
-1.8583884799292238e-01 -1.7513523513142529e-01 0.0000000000000000e+00 1
2.1122860206517252e-01 2.4338045914492040e-01 0.0000000000000000e+00 1
1.1879177870608953e-01 1.2010852281595141e-01 0.0000000000000000e+00 1
2.0398492485253863e-01 2.5773733679077920e-01 0.0000000000000000e+00 1
1.9868597488232145e-01 2.5806163190852827e-01 0.0000000000000000e+00 1
-1.2036509428359032e-01 -1.0804430962280862e-01 0.0000000000000000e+00 1
-1.6445802180279845e-01 -2.1328019480533791e-01 0.0000000000000000e+00 1
1.9048297721242541e-01 2.0724983193395310e-01 0.0000000000000000e+00 1
-7.3040595837200267e-02 -1.2448751103658093e-02 0.0000000000000000e+00 1
1.9222102288986900e-01 1.9176749744248747e-01 0.0000000000000000e+00 1
-1.0811556061576317e-02 -1.2994221936890019e-01 0.0000000000000000e+00 1
1.6601584914760792e-01 1.8027106553264707e-01 0.0000000000000000e+00 1
1.5903210503513293e-01 2.4400096651686848e-01 0.0000000000000000e+00 1
-8.4395338736787673e-02 -8.2970304099286740e-02 0.0000000000000000e+00 1
-1.5611203967819423e-01 -2.1160865846967233e-01 0.0000000000000000e+00 1
-5.8307203573532147e-02 -1.1891399432192076e-01 0.0000000000000000e+00 1
-2.0930802918608160e-01 -2.1635363012061903e-01 0.0000000000000000e+00 1
-1.7191081337814029e-01 -1.4163717817905536e-01 0.0000000000000000e+00 1
3.3318856249744705e-02 -5.6990918091456455e-02 0.0000000000000000e+00 1
1.3659893939819828e-01 1.0948052102117761e-01 0.0000000000000000e+00 1
-2.1880487966078391e-01 -2.1435032193430548e-01 0.0000000000000000e+00 1
-1.9742695247665565e-01 -2.1603047280440818e-01 0.0000000000000000e+00 1
5.2971827452712499e-02 -2.3113708244019027e-02 0.0000000000000000e+00 1
7.2440438853781278e-02 -1.6124324168013352e-02 0.0000000000000000e+00 1
-5.4423175383809509e-02 -1.3205673242649457e-01 0.0000000000000000e+00 1
-2.1320516071370196e-01 -2.2285776615572309e-01 0.0000000000000000e+00 1
1.1340177105985377e-01 2.1310702990335947e-01 0.0000000000000000e+00 1
9.8012081858893929e-02 2.0043177187472888e-01 0.0000000000000000e+00 1
-2.0001996456267553e-02 -1.4706776634394619e-01 0.0000000000000000e+00 1
-3.8079496121839508e-02 -1.0154448112357968e-01 0.0000000000000000e+00 1
-7.8768605351414445e-02 -7.4160820491210921e-02 0.0000000000000000e+00 1
4.0288760974302520e-02 -4.6796415269529643e-02 0.0000000000000000e+00 1
1.6158338373278008e-01 1.5189031696846311e-01 0.0000000000000000e+00 1
-1.9070198437995201e-01 -1.8275992140830677e-01 0.0000000000000000e+00 1
1.4356225324040395e-01 1.1999587854203204e-01 0.0000000000000000e+00 1
6.8121130598991664e-02 -3.1460165746207396e-03 0.0000000000000000e+00 1
1.6719207688121712e-01 1.6239581214660406e-01 0.0000000000000000e+00 1
1.5622761554823561e-01 1.2085110634786891e-01 0.0000000000000000e+00 1
-5.2593287170630235e-02 -1.1045961606069551e-01 0.0000000000000000e+00 1
-6.5631312547460643e-02 -4.0435915853586800e-03 0.0000000000000000e+00 1
-1.3039581399318470e-01 -1.0673277876955840e-01 0.0000000000000000e+00 1
1.2141981229692614e-01 2.1893110935349874e-01 0.0000000000000000e+00 1
1.1192483711657224e-01 1.0961983367939811e-01 0.0000000000000000e+00 1
1.5565258028304968e-01 1.4113815433846202e-01 0.0000000000000000e+00 1
8.7753066438085253e-02 5.1494285094491393e-03 0.0000000000000000e+00 1
5.9522094251135443e-02 -4.1082069862194315e-02 0.0000000000000000e+00 1
7.3628784129345592e-02 1.7819422610644695e-01 0.0000000000000000e+00 1
-2.1395922962806149e-01 -2.1483478473612583e-01 0.0000000000000000e+00 1
-1.2132718871679718e-01 -2.0077646764482382e-01 0.0000000000000000e+00 1
9.8080403273852729e-02 8.7903861773476547e-02 0.0000000000000000e+00 1
3.8097549968965527e-02 8.9874835947874626e-02 0.0000000000000000e+00 1
1.0521709073927996e-01 9.8741134704871683e-02 0.0000000000000000e+00 1
-1.7720661352958547e-01 -2.1092755255889445e-01 0.0000000000000000e+00 1
-6.4250440969937338e-03 -6.6068170839005486e-02 0.0000000000000000e+00 1
2.1219544620670761e-01 2.5187493772104780e-01 0.0000000000000000e+00 1
1.9800886992833491e-01 2.6190130935408085e-01 0.0000000000000000e+00 1
9.4930193822848369e-02 1.6624636712471125e-02 0.0000000000000000e+00 1
-7.3033169715037483e-02 -6.5335362608575920e-02 0.0000000000000000e+00 1
-7.0395937345062623e-02 1.3789981497605184e-02 0.0000000000000000e+00 1
-1.3543095459174151e-01 -9.5923040584596816e-02 0.0000000000000000e+00 1
-1.3779952163603551e-01 -1.9792794856101922e-01 0.0000000000000000e+00 1
-1.8025986320582707e-02 -6.6340672418909924e-02 0.0000000000000000e+00 1
-6.9987023850398514e-03 -4.7724687504045640e-02 0.0000000000000000e+00 1
-6.7135302214246212e-02 -5.5762069445899988e-02 0.0000000000000000e+00 1
8.9091936622296336e-02 2.9628077409058845e-02 0.0000000000000000e+00 1
7.7588038302076917e-02 5.4555580833458073e-02 0.0000000000000000e+00 1
7.9090684998490590e-02 7.7619214203565490e-02 0.0000000000000000e+00 1
1.5138107325354874e-01 2.3116082249783790e-01 0.0000000000000000e+00 1
8.4068245402144942e-02 6.5956026625527575e-02 0.0000000000000000e+00 1
1.7703140894873987e-01 1.8125991722163495e-01 0.0000000000000000e+00 1
1.1313345753989871e-02 -1.5761125960387767e-02 0.0000000000000000e+00 1
8.3240311321560290e-02 4.2248839654445119e-02 0.0000000000000000e+00 1
-1.2890957048082149e-01 -8.6985511475860366e-02 0.0000000000000000e+00 1
1.8132483816387238e-01 2.5498022447520152e-01 0.0000000000000000e+00 1
-9.8008653079064978e-02 -1.8293846908870942e-01 0.0000000000000000e+00 1
2.0735501744691273e-01 2.5642118663134439e-01 0.0000000000000000e+00 1
1.2993502612237545e-01 2.1680778966775455e-01 0.0000000000000000e+00 1
-5.2990837839008834e-02 -1.6574554563950791e-01 0.0000000000000000e+00 1
1.7779053193685661e-02 5.4229452516502737e-03 0.0000000000000000e+00 1
-1.7757872540707259e-01 -1.7459873540903781e-01 0.0000000000000000e+00 1
6.0058547868171566e-02 1.2477601843489096e-01 0.0000000000000000e+00 1
-5.2134079816067359e-02 1.6451788836661336e-02 0.0000000000000000e+00 1
4.0475631699874011e-02 1.4691438945986535e-01 0.0000000000000000e+00 1
-6.1098381126277829e-02 -4.6527040549826884e-02 0.0000000000000000e+00 1
-2.9646448820502445e-04 -3.7535554031488075e-02 0.0000000000000000e+00 1
2.2145081038277789e-03 -1.2544565351912237e-01 0.0000000000000000e+00 1
-2.3218684723443080e-02 -1.5075719674918658e-01 0.0000000000000000e+00 1
9.0547101981753655e-02 1.8101597774099890e-01 0.0000000000000000e+00 1
2.0519422822596325e-01 2.6145623571661297e-01 0.0000000000000000e+00 1
2.0871462283362244e-01 2.5058636692350483e-01 0.0000000000000000e+00 1
1.7147584637164356e-01 2.4323782074903169e-01 0.0000000000000000e+00 1
-5.1379152874934809e-02 -9.2919901754628942e-02 0.0000000000000000e+00 1
2.0995358355341481e-01 2.5835886715499656e-01 0.0000000000000000e+00 1
-5.5137482030862564e-02 -3.7814640150379400e-02 0.0000000000000000e+00 1
-1.7258771787997557e-01 -1.6545483000261638e-01 0.0000000000000000e+00 1
4.5165810985710583e-02 9.8619110220645637e-02 0.0000000000000000e+00 1
-4.7552301045267628e-02 -1.0231771536471039e-01 0.0000000000000000e+00 1
4.1246509466892643e-02 1.3001711522118597e-01 0.0000000000000000e+00 1
-1.1244116683865416e-01 -8.2838041936490539e-02 0.0000000000000000e+00 1
-3.3337595764203615e-02 -1.5674677833800543e-01 0.0000000000000000e+00 1
6.3278210090263820e-03 -2.7009016197386104e-02 0.0000000000000000e+00 1
-2.1909638432389503e-01 -2.2202681056663659e-01 0.0000000000000000e+00 1
-5.5975972151192453e-02 3.4337467225807744e-02 0.0000000000000000e+00 1
-2.5846408708205554e-03 8.1068995287250450e-02 0.0000000000000000e+00 1
-1.5409798715592543e-01 -2.0531527159049845e-01 0.0000000000000000e+00 1
8.8771558725215301e-03 -1.0194795689548046e-01 0.0000000000000000e+00 1
-1.6765857002882894e-02 -1.4333934294548087e-01 0.0000000000000000e+00 1
-1.7773702695386664e-01 -1.5750416291987018e-01 0.0000000000000000e+00 1
-1.0909499142896106e-01 -7.4394835034831019e-02 0.0000000000000000e+00 1
-2.0658759504634522e-01 -2.1915695586842140e-01 0.0000000000000000e+00 1
-3.6472393168534400e-02 -2.8486438383557532e-02 0.0000000000000000e+00 1
5.6550079803205935e-02 1.3527933146324694e-01 0.0000000000000000e+00 1
2.0839295903597344e-01 2.4664012693798620e-01 0.0000000000000000e+00 1
2.0922807611983597e-03 -9.9444325186553467e-02 0.0000000000000000e+00 1
-1.2547778286164980e-02 6.9026178857482245e-02 0.0000000000000000e+00 1
-4.1019675475429423e-02 -1.3144761952980840e-02 0.0000000000000000e+00 1
-1.0983112726894115e-01 -5.6381169325713118e-02 0.0000000000000000e+00 1
1.8698303929413237e-01 2.5288485133657795e-01 0.0000000000000000e+00 1
2.3618988997724379e-02 1.3021307579671634e-01 0.0000000000000000e+00 1
-5.7007360327365475e-03 -1.2576582333155772e-01 0.0000000000000000e+00 1
-1.8231506539369291e-01 -1.5180057528521296e-01 0.0000000000000000e+00 1
-2.2191198031809015e-01 -2.1891031539726594e-01 0.0000000000000000e+00 1
1.3609820068697626e-01 2.2292290411258717e-01 0.0000000000000000e+00 1
-3.8347583948134881e-02 3.6893684249097683e-02 0.0000000000000000e+00 1
-1.0363439130790768e-01 -4.6819037494138224e-02 0.0000000000000000e+00 1
1.5813974460757674e-01 2.3711686388183681e-01 0.0000000000000000e+00 1

Edges
144
1 2 1
2 3 1
3 4 1
4 5 1
5 6 1
6 7 1
7 8 1
8 9 1
9 10 1
10 11 1
11 12 1
12 13 1
13 14 1
14 15 1
15 16 1
16 17 1
17 18 1
18 19 1
19 20 1
20 21 1
21 22 1
22 23 1
23 24 1
24 25 1
25 26 1
26 27 1
27 28 1
28 29 1
29 30 1
30 31 1
31 32 1
32 33 1
33 34 1
34 35 1
35 36 1
36 37 1
37 38 1
38 39 1
39 40 1
40 41 1
41 42 1
42 43 1
43 44 1
44 45 1
45 46 1
46 47 1
47 48 1
48 49 1
49 50 1
50 51 1
51 52 1
52 53 1
53 54 1
54 55 1
55 56 1
56 57 1
57 58 1
58 59 1
59 60 1
60 61 1
61 62 1
62 63 1
63 64 1
64 65 1
65 66 1
66 67 1
67 68 1
68 69 1
69 70 1
70 71 1
71 72 1
72 73 1
73 74 1
74 75 1
75 76 1
76 77 1
77 78 1
78 79 1
79 80 1
80 81 1
81 82 1
82 83 1
83 84 1
84 85 1
85 86 1
86 87 1
87 88 1
88 89 1
89 90 1
90 91 1
91 92 1
92 93 1
93 94 1
94 95 1
95 96 1
96 97 1
97 98 1
98 99 1
99 100 1
100 101 1
101 102 1
102 103 1
103 104 1
104 105 1
105 106 1
106 107 1
107 108 1
108 109 1
109 110 1
110 111 1
111 112 1
112 113 1
113 114 1
114 115 1
115 116 1
116 117 1
117 118 1
118 119 1
119 120 1
120 121 1
121 122 1
122 123 1
123 124 1
124 125 1
125 126 1
126 127 1
127 128 1
128 129 1
129 130 1
130 131 1
131 132 1
132 133 1
133 134 1
134 135 1
135 136 1
136 137 1
137 138 1
138 139 1
139 140 1
140 141 1
141 142 1
142 143 1
143 144 1
144 1 1

Triangles
1630
163 539 752 1
500 329 502 1
285 290 526 1
573 178 727 1
686 273 833 1
525 526 528 1
135 136 780 1
100 162 541 1
457 210 498 1
525 528 601 1
523 344 525 1
156 533 535 1
507 160 583 1
504 336 506 1
517 157 785 1
484 267 630 1
26 27 635 1
157 517 808 1
159 597 598 1
591 199 738 1
456 632 787 1
740 194 837 1
136 519 780 1
583 740 837 1
632 456 778 1
713 478 856 1
182 578 579 1
195 598 758 1
99 100 541 1
619 698 756 1
159 598 720 1
208 697 779 1
267 484 629 1
543 335 545 1
518 454 677 1
508 478 713 1
275 273 686 1
457 498 591 1
148 706 747 1
512 483 772 1
539 163 790 1
497 148 606 1
193 585 586 1
526 290 527 1
706 480 747 1
329 500 589 1
697 208 788 1
578 182 580 1
150 499 656 1
545 335 743 1
270 272 589 1
344 523 587 1
287 518 677 1
470 573 727 1
510 786 798 1
336 504 590 1
635 564 756 1
483 760 772 1
553 552 681 1
499 655 728 1
598 195 720 1
585 193 811 1
148 497 706 1
786 186 798 1
552 554 681 1
499 150 655 1
724 549 770 1
248 610 611 1
115 116 633 1
655 183 728 1
344 285 526 1
274 277 590 1
502 329 590 1
760 483 832 1
514 447 515 1
2 203 783 1
455 514 515 1
202 567 869 1
273 281 833 1
506 336 587 1
484 486 629 1
752 572 789 1
254 249 611 1
279 283 587 1
171 760 832 1
509 759 781 1
248 609 610 1
533 156 664 1
160 507 585 1
169 795 806 1
27 189 635 1
591 738 784 1
629 486 748 1
156 535 593 1
525 344 526 1
567 202 574 1
795 463 806 1
1 2 783 1
540 569 570 1
708 704 880 1
759 152 781 1
583 160 740 1
763 648 796 1
178 573 784 1
151 635 756 1
144 1 201 1
210 209 498 1
109 110 664 1
151 26 635 1
181 207 864 1
324 326 569 1
165 513 646 1
626 803 822 1
158 666 771 1
195 758 809 1
207 206 864 1
698 619 837 1
480 666 747 1
315 270 589 1
758 602 809 1
158 771 802 1
557 560 565 1
134 165 646 1
180 704 708 1
540 570 752 1
778 749 801 1
456 749 778 1
698 151 756 1
563 189 634 1
175 724 770 1
514 454 518 1
272 329 589 1
426 420 561 1
116 153 633 1
520 708 880 1
245 243 609 1
666 480 771 1
329 274 590 1
249 248 611 1
803 473 822 1
539 540 752 1
191 530 531 1
512 175 770 1
513 165 731 1
430 428 581 1
277 336 590 1
218 763 796 1
190 522 524 1
183 509 728 1
336 279 587 1
190 115 633 1
447 514 516 1
189 563 635 1
248 245 609 1
326 348 569 1
283 344 587 1
570 572 752 1
563 564 635 1
163 752 789 1
822 473 835 1
541 162 850 1
423 555 556 1
561 557 565 1
674 673 812 1
435 430 581 1
509 183 759 1
276 748 824 1
473 472 835 1
566 565 567 1
538 349 540 1
209 201 498 1
779 697 872 1
721 703 732 1
392 449 520 1
426 561 565 1
547 376 548 1
373 512 551 1
842 222 857 1
578 580 581 1
413 632 742 1
598 599 758 1
449 494 495 1
654 174 769 1
559 556 584 1
766 196 851 1
511 158 802 1
175 512 772 1
574 146 773 1
355 353 550 1
156 109 664 1
349 324 569 1
158 511 821 1
449 448 494 1
530 191 693 1
133 134 646 1
515 517 785 1
423 416 555 1
372 376 547 1
110 191 664 1
741 833 863 1
605 842 857 1
556 555 584 1
739 641 782 1
748 486 824 1
567 574 773 1
600 192 860 1
36 37 202 1
489 599 676 1
165 135 780 1
613 861 871 1
408 407 562 1
589 492 878 1
523 506 587 1
781 152 794 1
191 531 664 1
190 524 694 1
212 457 573 1
611 632 778 1
391 390 392 1
469 654 725 1
510 157 786 1
540 349 569 1
500 492 589 1
349 538 588 1
522 190 633 1
351 373 551 1
420 418 561 1
433 576 577 1
471 582 583 1
354 371 657 1
397 396 564 1
577 566 773 1
504 502 590 1
644 673 690 1
433 425 576 1
392 393 448 1
192 600 845 1
392 448 449 1
622 377 624 1
597 159 600 1
152 662 794 1
685 613 871 1
632 610 742 1
391 392 520 1
557 556 558 1
599 358 676 1
750 674 812 1
562 407 563 1
194 698 837 1
520 449 708 1
521 177 637 1
565 560 567 1
243 306 609 1
620 377 622 1
526 527 528 1
495 494 568 1
38 146 574 1
665 795 799 1
254 611 778 1
132 133 744 1
157 510 785 1
471 361 582 1
717 623 830 1
673 672 690 1
428 433 581 1
537 536 807 1
628 665 799 1
371 394 657 1
652 651 653 1
537 807 819 1
427 429 630 1
201 1 783 1
389 372 390 1
558 556 559 1
433 577 578 1
405 575 638 1
466 739 782 1
389 390 391 1
550 353 551 1
315 589 878 1
562 563 634 1
833 281 863 1
462 586 636 1
315 508 873 1
200 721 732 1
527 290 616 1
551 512 770 1
628 660 774 1
362 636 679 1
306 607 608 1
198 143 209 1
306 575 607 1
508 315 878 1
423 556 557 1
577 773 882 1
470 214 573 1
653 654 769 1
611 610 632 1
624 657 658 1
392 390 393 1
205 568 852 1
319 322 588 1
828 383 834 1
650 651 652 1
143 144 209 1
569 348 570 1
371 355 372 1
494 448 661 1
471 583 837 1
133 646 744 1
144 201 209 1
596 595 597 1
429 484 630 1
548 173 703 1
566 567 773 1
531 533 664 1
214 212 573 1
200 661 721 1
354 353 355 1
380 382 649 1
511 188 821 1
623 717 761 1
653 651 654 1
418 416 423 1
549 550 770 1
568 205 838 1
371 372 389 1
362 462 636 1
212 210 457 1
425 422 576 1
582 361 649 1
204 766 851 1
168 699 737 1
352 351 353 1
207 181 208 1
198 209 210 1
578 577 579 1
318 319 588 1
681 554 840 1
553 681 746 1
594 595 596 1
352 353 354 1
518 287 841 1
352 377 620 1
354 355 371 1
348 338 712 1
547 548 703 1
410 411 412 1
415 553 555 1
353 351 551 1
291 294 616 1
677 639 695 1
654 651 725 1
555 553 584 1
217 215 725 1
414 412 415 1
42 150 735 1
330 370 638 1
672 164 690 1
65 66 615 1
67 171 659 1
322 349 588 1
341 351 352 1
182 579 848 1
570 348 571 1
416 415 555 1
341 352 620 1
310 358 594 1
650 220 651 1
415 552 553 1
138 139 604 1
575 405 607 1
412 411 552 1
140 179 648 1
670 828 834 1
797 167 800 1
575 617 638 1
177 521 836 1
338 339 340 1
406 407 408 1
548 549 710 1
180 708 767 1
379 318 588 1
472 613 835 1
340 339 341 1
31 32 197 1
188 511 844 1
594 358 595 1
287 677 695 1
129 184 612 1
625 155 626 1
127 149 603 1
326 327 338 1
630 267 631 1
338 327 339 1
663 169 806 1
661 448 721 1
66 67 659 1
376 355 550 1
382 582 649 1
595 358 599 1
139 140 648 1
215 469 725 1
179 141 592 1
659 171 660 1
125 185 606 1
469 214 470 1
407 397 564 1
377 354 657 1
571 348 712 1
605 857 870 1
251 254 647 1
559 689 736 1
516 514 518 1
364 463 678 1
411 408 562 1
324 325 326 1
535 544 593 1
85 86 180 1
657 394 658 1
189 28 757 1
703 173 732 1
99 541 790 1
370 405 638 1
38 39 146 1
131 155 625 1
40 41 182 1
57 164 675 1
322 323 324 1
597 595 598 1
326 325 327 1
372 355 376 1
142 143 198 1
304 310 594 1
294 331 616 1
627 628 774 1
538 379 588 1
298 335 614 1
406 397 407 1
290 291 616 1
488 538 539 1
169 65 615 1
410 408 411 1
324 323 325 1
552 411 554 1
149 612 613 1
621 620 622 1
61 167 640 1
185 126 603 1
341 350 351 1
319 321 322 1
314 236 618 1
528 527 529 1
519 136 883 1
237 288 617 1
581 580 876 1
487 379 488 1
374 318 379 1
575 242 617 1
227 225 679 1
618 380 649 1
436 435 656 1
570 571 572 1
148 124 606 1
149 128 612 1
316 317 318 1
418 423 561 1
455 515 785 1
539 538 540 1
164 672 675 1
251 249 254 1
322 321 323 1
221 220 650 1
44 183 655 1
536 186 807 1
75 76 200 1
130 131 625 1
128 129 612 1
603 149 685 1
373 483 512 1
737 699 823 1
363 485 700 1
312 313 316 1
660 628 799 1
488 379 538 1
415 412 552 1
370 396 397 1
624 377 657 1
225 362 679 1
557 558 560 1
172 138 604 1
499 436 656 1
126 127 603 1
70 71 175 1
236 233 618 1
173 548 710 1
615 66 659 1
184 130 625 1
67 68 171 1
247 245 248 1
318 317 319 1
604 139 648 1
403 650 652 1
310 311 312 1
242 239 617 1
288 330 638 1
340 341 620 1
235 236 237 1
125 126 185 1
343 304 594 1
414 415 416 1
34 35 145 1
665 463 795 1
127 128 149 1
636 381 679 1
390 372 547 1
322 324 349 1
44 45 183 1
60 61 640 1
617 288 638 1
296 298 614 1
405 397 406 1
129 130 184 1
326 338 348 1
316 318 374 1
488 539 541 1
124 125 606 1
27 28 189 1
64 65 169 1
186 536 798 1
598 595 599 1
304 305 310 1
374 379 487 1
224 221 650 1
123 124 148 1
140 141 179 1
409 408 410 1
310 312 358 1
243 242 306 1
639 342 691 1
316 313 317 1
239 237 617 1
314 618 649 1
237 236 288 1
358 312 676 1
343 594 596 1
463 665 678 1
302 303 304 1
370 369 396 1
59 60 187 1
302 304 343 1
29 30 147 1
671 673 674 1
61 62 167 1
312 311 313 1
131 132 155 1
164 58 645 1
187 60 640 1
819 161 827 1
455 454 514 1
316 374 676 1
56 57 675 1
161 667 668 1
187 640 641 1
621 622 623 1
42 43 150 1
374 489 676 1
710 549 724 1
51 52 186 1
683 276 684 1
330 369 370 1
241 239 242 1
670 669 671 1
668 669 670 1
382 381 395 1
300 301 302 1
528 529 530 1
413 412 414 1
306 242 575 1
298 300 335 1
422 420 426 1
406 408 409 1
544 545 546 1
137 138 172 1
406 409 607 1
310 305 311 1
380 381 382 1
46 47 152 1
8 9 697 1
609 608 610 1
585 395 586 1
668 667 669 1
134 135 165 1
362 224 403 1
298 299 300 1
330 361 369 1
331 296 614 1
352 354 377 1
73 74 173 1
505 522 633 1
731 165 780 1
535 543 544 1
645 642 690 1
235 233 236 1
671 672 673 1
294 296 331 1
530 529 531 1
380 230 381 1
32 33 689 1
88 89 177 1
199 591 872 1
403 224 650 1
453 452 454 1
288 314 330 1
304 303 305 1
642 641 643 1
49 50 157 1
264 276 683 1
642 644 690 1
161 55 667 1
360 342 639 1
319 320 321 1
64 169 663 1
296 297 298 1
369 471 619 1
57 58 164 1
9 10 199 1
533 534 535 1
453 454 455 1
238 237 239 1
233 231 618 1
607 409 608 1
158 121 666 1
54 55 161 1
451 360 452 1
452 360 639 1
172 604 605 1
405 406 607 1
302 301 303 1
121 122 666 1
241 242 243 1
363 404 485 1
269 289 687 1
396 369 619 1
370 397 405 1
396 619 756 1
531 532 533 1
294 295 296 1
639 691 695 1
231 230 380 1
634 189 757 1
403 652 737 1
369 361 471 1
23 24 194 1
489 487 602 1
300 299 301 1
330 314 361 1
362 403 462 1
341 339 350 1
452 639 677 1
120 121 158 1
258 256 267 1
19 20 193 1
451 452 453 1
351 350 373 1
410 412 413 1
371 389 394 1
714 470 727 1
544 543 545 1
187 642 645 1
118 119 188 1
507 395 585 1
25 26 151 1
586 395 636 1
391 520 521 1
582 507 583 1
231 380 618 1
476 474 846 1
395 381 636 1
283 285 344 1
55 56 667 1
298 297 299 1
535 534 543 1
59 187 645 1
573 457 784 1
364 378 463 1
91 92 170 1
72 73 710 1
382 395 507 1
230 227 679 1
14 15 174 1
361 314 649 1
63 64 663 1
235 237 238 1
327 325 627 1
291 293 294 1
428 425 433 1
658 723 775 1
531 529 532 1
671 669 672 1
340 620 621 1
517 662 808 1
17 18 168 1
296 295 297 1
116 117 153 1
542 188 844 1
533 532 534 1
229 230 231 1
179 592 730 1
306 608 609 1
187 641 642 1
94 95 166 1
464 441 701 1
149 613 685 1
288 236 314 1
114 115 190 1
285 286 290 1
490 478 508 1
312 316 676 1
97 98 163 1
24 25 698 1
247 248 249 1
485 404 519 1
277 279 336 1
422 426 576 1
375 360 451 1
563 407 564 1
102 103 195 1
642 643 644 1
516 518 686 1
382 507 582 1
325 323 356 1
522 523 524 1
454 452 677 1
207 208 810 1
106 107 192 1
164 645 690 1
601 528 866 1
110 111 191 1
100 101 162 1
509 440 728 1
294 293 295 1
58 59 645 1
188 542 865 1
234 233 235 1
599 489 758 1
460 458 820 1
229 227 230 1
359 342 360 1
283 284 285 1
524 523 525 1
505 506 522 1
104 105 159 1
86 87 704 1
385 450 513 1
112 113 154 1
269 266 289 1
667 56 675 1
108 109 156 1
96 789 804 1
453 455 510 1
240 239 241 1
253 251 647 1
528 530 866 1
501 503 542 1
272 274 329 1
25 151 698 1
266 264 683 1
232 231 233 1
225 224 362 1
522 506 523 1
290 286 291 1
264 262 276 1
319 317 320 1
197 32 689 1
374 487 489 1
447 516 741 1
723 658 853 1
854 647 859 1
438 436 499 1
476 846 856 1
381 230 679 1
505 504 506 1
503 504 505 1
21 22 160 1
279 280 283 1
47 48 662 1
432 430 435 1
31 197 680 1
325 356 627 1
285 284 286 1
271 269 687 1
321 364 678 1
337 292 342 1
273 271 281 1
258 267 629 1
289 266 683 1
77 78 176 1
211 210 212 1
554 562 634 1
277 278 279 1
375 451 536 1
311 305 333 1
141 142 592 1
501 502 503 1
359 360 375 1
503 502 504 1
335 300 743 1
501 500 502 1
11 12 178 1
321 320 364 1
443 445 482 1
491 493 511 1
481 797 800 1
662 517 794 1
302 343 743 1
337 359 383 1
291 292 293 1
442 440 509 1
627 356 628 1
303 301 334 1
367 472 473 1
229 231 232 1
346 366 367 1
274 275 277 1
493 500 501 1
669 667 675 1
268 270 315 1
564 396 756 1
283 280 284 1
297 295 328 1
337 342 359 1
337 383 688 1
338 340 712 1
347 345 696 1
13 14 714 1
123 148 747 1
280 278 287 1
220 217 725 1
441 443 701 1
493 492 500 1
279 278 280 1
244 243 245 1
491 490 492 1
393 547 703 1
113 114 694 1
291 286 292 1
114 190 694 1
608 409 742 1
192 593 860 1
174 654 815 1
281 271 687 1
43 44 655 1
272 273 274 1
491 492 493 1
6 7 181 1
172 605 870 1
277 275 278 1
147 680 681 1
342 292 691 1
515 446 517 1
293 292 337 1
323 321 678 1
194 24 698 1
286 284 691 1
274 273 275 1
363 387 404 1
30 31 680 1
111 112 693 1
672 669 675 1
223 221 224 1
375 536 537 1
367 473 768 1
513 450 646 1
478 476 856 1
226 228 363 1
146 848 882 1
399 398 400 1
439 441 464 1
147 30 680 1
238 239 240 1
385 513 716 1
548 376 549 1
398 347 696 1
604 648 763 1
580 182 735 1
36 202 751 1
155 132 744 1
401 400 458 1
368 347 398 1
295 293 688 1
152 47 662 1
270 271 272 1
479 490 491 1
327 627 719 1
475 474 476 1
154 113 694 1
241 243 244 1
459 458 460 1
460 820 826 1
477 476 478 1
479 478 490 1
272 271 273 1
305 303 682 1
350 339 719 1
235 238 707 1
394 389 637 1
142 198 592 1
357 384 385 1
363 228 387 1
383 359 692 1
783 207 810 1
475 477 480 1
198 211 592 1
232 233 234 1
293 337 688 1
18 19 699 1
228 227 229 1
292 286 691 1
261 263 308 1
223 224 225 1
191 111 693 1
603 685 879 1
246 245 247 1
685 496 879 1
112 154 693 1
280 287 695 1
461 460 474 1
303 334 682 1
328 295 688 1
356 323 678 1
73 173 710 1
666 122 747 1
357 234 384 1
268 269 270 1
270 269 271 1
83 84 204 1
19 193 699 1
554 411 562 1
393 703 721 1
257 259 307 1
359 375 692 1
391 521 637 1
284 280 695 1
623 622 830 1
402 365 465 1
219 217 220 1
387 702 716 1
459 461 497 1
232 234 357 1
333 305 682 1
475 476 477 1
691 284 695 1
104 159 720 1
477 478 479 1
445 446 447 1
226 225 227 1
265 266 268 1
250 249 251 1
206 203 884 1
268 266 269 1
375 537 692 1
232 357 702 1
449 495 708 1
417 416 418 1
389 391 637 1
448 393 721 1
443 482 701 1
447 446 515 1
175 71 724 1
461 474 475 1
265 264 266 1
702 357 716 1
171 68 760 1
673 644 812 1
367 366 472 1
432 435 436 1
215 214 469 1
373 388 483 1
223 225 226 1
401 458 459 1
213 212 214 1
364 365 378 1
399 400 401 1
474 460 826 1
252 251 253 1
263 264 265 1
320 317 709 1
385 386 450 1
229 232 702 1
459 460 461 1
368 398 399 1
103 104 720 1
464 701 825 1
385 384 386 1
252 255 282 1
399 401 496 1
378 402 481 1
817 205 852 1
263 262 264 1
238 332 707 1
259 258 260 1
226 363 700 1
443 444 445 1
260 258 629 1
402 465 466 1
651 220 725 1
734 468 762 1
255 253 256 1
226 227 228 1
445 444 446 1
276 262 748 1
386 734 762 1
257 256 258 1
317 313 709 1
41 42 735 1
244 245 246 1
261 260 262 1
610 608 742 1
37 38 574 1
261 262 263 1
426 565 566 1
46 152 759 1
339 327 719 1
546 600 860 1
228 229 702 1
168 18 699 1
259 260 261 1
743 343 843 1
641 640 782 1
257 258 259 1
364 320 365 1
414 416 417 1
238 240 332 1
234 235 707 1
250 251 252 1
219 220 221 1
613 472 861 1
443 442 444 1
260 629 748 1
654 469 815 1
567 560 869 1
663 481 800 1
222 223 700 1
23 194 740 1
332 240 467 1
393 390 547 1
626 155 733 1
665 356 678 1
441 442 443 1
255 256 257 1
429 431 484 1
378 365 402 1
252 253 255 1
387 228 702 1
244 246 309 1
247 249 250 1
183 45 759 1
542 153 865 1
366 347 368 1
346 347 366 1
541 539 790 1
628 356 665 1
240 241 715 1
441 440 442 1
308 263 713 1
458 400 793 1
388 350 719 1
219 221 222 1
475 480 706 1
222 221 223 1
241 244 715 1
437 436 438 1
680 197 746 1
439 440 441 1
696 345 722 1
365 320 709 1
150 43 655 1
613 612 835 1
384 234 707 1
198 210 211 1
439 438 440 1
340 621 712 1
92 93 717 1
332 467 468 1
708 495 767 1
309 345 346 1
263 265 713 1
621 623 729 1
40 182 848 1
223 226 700 1
437 438 439 1
419 418 420 1
261 308 705 1
432 436 437 1
346 345 347 1
433 578 581 1
309 246 345 1
311 333 745 1
195 103 720 1
373 350 388 1
357 385 716 1
625 626 822 1
307 259 705 1
497 461 706 1
153 542 886 1
409 410 742 1
71 72 724 1
525 601 877 1
301 299 750 1
459 497 711 1
527 616 755 1
445 447 741 1
431 430 432 1
529 527 755 1
421 420 422 1
89 90 723 1
461 475 706 1
465 365 709 1
498 201 810 1
51 186 786 1
484 431 486 1
257 307 718 1
769 16 777 1
14 174 714 1
643 641 739 1
160 22 740 1
576 566 577 1
825 701 847 1
346 367 753 1
712 621 729 1
386 384 734 1
424 422 425 1
648 179 796 1
259 261 705 1
177 89 723 1
218 217 219 1
496 401 711 1
170 92 717 1
401 459 711 1
429 428 430 1
211 212 213 1
28 29 757 1
246 247 722 1
247 250 722 1
244 309 715 1
421 424 434 1
462 403 737 1
524 525 877 1
537 819 827 1
216 217 218 1
427 425 428 1
282 255 718 1
12 13 727 1
417 419 456 1
300 302 743 1
559 736 849 1
167 62 800 1
429 430 431 1
467 240 715 1
213 214 215 1
22 23 740 1
709 313 745 1
79 80 205 1
417 418 419 1
160 585 811 1
438 499 728 1
2 3 203 1
33 34 736 1
162 602 850 1
74 75 732 1
255 257 718 1
593 192 881 1
450 386 733 1
213 215 216 1
419 420 421 1
593 544 860 1
482 445 741 1
216 215 217 1
157 50 786 1
631 267 854 1
423 557 561 1
15 16 769 1
203 207 783 1
726 816 824 1
716 513 731 1
427 428 429 1
659 660 799 1
440 438 728 1
424 425 427 1
421 422 424 1
404 387 731 1
549 376 550 1
704 836 880 1
481 663 806 1
592 211 730 1
400 398 776 1
70 175 772 1
49 157 808 1
122 123 747 1
345 246 722 1
313 311 745 1
435 581 876 1
681 680 746 1
689 33 736 1
173 74 732 1
457 591 784 1
186 52 807 1
432 437 726 1
94 166 761 1
465 709 745 1
545 743 843 1
662 48 808 1
252 282 754 1
387 716 731 1
427 630 792 1
646 450 744 1
196 766 838 1
633 153 886 1
616 331 755 1
431 432 726 1
584 553 746 1
180 767 818 1
410 413 742 1
54 161 819 1
450 733 744 1
182 41 735 1
10 11 738 1
486 431 726 1
267 256 854 1
17 168 777 1
13 714 727 1
722 250 754 1
72 710 724 1
63 663 800 1
536 451 798 1
334 301 750 1
474 826 846 1
262 260 748 1
98 99 790 1
670 671 831 1
442 509 781 1
91 170 775 1
602 487 850 1
384 707 734 1
426 566 576 1
571 712 729 1
332 468 734 1
208 181 788 1
684 464 825 1
707 332 734 1
602 162 809 1
632 413 787 1
480 477 771 1
749 434 801 1
170 830 888 1
829 328 831 1
68 69 760 1
517 446 794 1
453 510 798 1
704 87 836 1
488 541 850 1
789 572 804 1
696 722 754 1
97 163 789 1
254 778 801 1
733 155 744 1
467 715 753 1
750 299 829 1
715 309 753 1
491 511 802 1
188 119 821 1
495 568 766 1
120 158 821 1
624 658 888 1
9 199 697 1
45 46 759 1
203 206 207 1
683 684 825 1
464 684 816 1
658 394 853 1
95 96 804 1
568 494 852 1
88 177 836 1
75 200 732 1
879 711 887 1
505 633 886 1
102 195 809 1
200 76 764 1
532 529 755 1
586 462 823 1
193 20 811 1
211 213 730 1
439 464 816 1
11 178 738 1
768 473 803 1
497 606 887 1
462 737 823 1
378 481 806 1
156 593 881 1
560 558 791 1
421 434 749 1
93 94 761 1
21 160 811 1
34 145 736 1
717 93 761 1
600 159 845 1
250 252 754 1
85 180 818 1
660 171 832 1
146 39 848 1
413 414 787 1
309 346 753 1
179 730 796 1
719 627 774 1
466 465 765 1
559 584 862 1
253 647 854 1
605 604 763 1
501 542 844 1
118 188 865 1
275 686 841 1
754 282 776 1
162 101 809 1
335 543 858 1
213 216 730 1
630 631 792 1
489 602 758 1
760 69 772 1
153 117 865 1
456 419 749 1
76 77 764 1
297 328 829 1
81 82 196 1
830 624 888 1
69 70 772 1
178 12 727 1
278 275 841 1
490 508 878 1
653 769 777 1
29 147 757 1
701 482 847 1
106 192 845 1
510 455 785 1
542 503 886 1
458 793 820 1
434 792 859 1
737 652 867 1
550 551 770 1
402 466 797 1
419 421 749 1
108 156 881 1
268 315 873 1
147 681 840 1
511 493 844 1
404 731 780 1
739 466 765 1
661 200 764 1
222 700 857 1
847 482 863 1
723 90 775 1
688 383 828 1
828 670 831 1
400 776 793 1
753 367 768 1
193 586 823 1
159 105 845 1
726 437 816 1
192 107 881 1
90 91 775 1
674 750 829 1
733 386 762 1
496 711 879 1
640 167 782 1
417 456 787 1
8 697 788 1
16 17 777 1
848 579 882 1
631 854 859 1
696 754 776 1
591 498 779 1
765 333 805 1
434 424 792 1
745 333 765 1
477 479 771 1
7 8 788 1
4 5 206 1
399 496 871 1
174 15 769 1
684 276 824 1
739 765 805 1
755 331 813 1
558 559 849 1
218 219 842 1
468 467 768 1
199 10 738 1
496 685 871 1
644 643 814 1
735 150 868 1
50 51 786 1
647 254 801 1
84 85 818 1
766 204 767 1
35 36 751 1
532 755 813 1
730 216 796 1
713 265 873 1
472 366 861 1
795 615 799 1
96 97 789 1
519 404 780 1
467 753 768 1
626 733 762 1
466 782 797 1
208 779 810 1
444 442 781 1
398 696 776 1
202 37 574 1
169 615 795 1
801 434 859 1
508 713 873 1
812 644 814 1
494 661 875 1
546 843 874 1
388 719 774 1
163 98 790 1
482 741 863 1
746 197 862 1
444 781 794 1
145 35 751 1
771 479 802 1
180 86 704 1
465 745 765 1
763 218 842 1
168 737 867 1
62 63 800 1
816 684 824 1
668 670 834 1
546 545 843 1
579 577 882 1
414 417 787 1
451 453 798 1
446 444 794 1
686 518 841 1
331 614 813 1
738 178 784 1
601 154 877 1
136 137 883 1
424 427 792 1
615 659 799 1
48 49 808 1
792 631 859 1
637 177 853 1
101 102 809 1
481 402 797 1
161 668 827 1
479 491 802 1
52 53 807 1
20 21 811 1
463 378 806 1
216 218 796 1
584 746 862 1
282 718 793 1
572 571 839 1
166 95 804 1
78 79 817 1
77 176 764 1
176 78 817 1
776 282 793 1
807 53 819 1
170 717 830 1
857 485 870 1
469 470 815 1
652 653 867 1
534 532 813 1
333 682 805 1
699 193 823 1
53 54 819 1
622 624 830 1
762 468 803 1
674 829 831 1
612 184 835 1
334 812 814 1
154 694 877 1
150 656 868 1
643 739 805 1
184 625 822 1
643 805 814 1
626 762 803 1
184 822 835 1
682 334 814 1
779 498 810 1
437 439 816 1
614 335 858 1
605 763 842 1
468 768 803 1
741 516 833 1
39 40 848 1
700 485 857 1
820 307 826 1
177 723 853 1
119 120 821 1
805 682 814 1
843 596 874 1
87 88 836 1
827 668 834 1
154 601 866 1
839 729 885 1
711 497 887 1
656 435 876 1
718 307 820 1
813 614 858 1
600 546 874 1
606 185 887 1
689 559 862 1
619 471 837 1
671 674 831 1
597 600 874 1
203 3 884 1
694 524 877 1
534 813 858 1
714 174 815 1
751 202 869 1
289 825 847 1
782 167 797 1
554 634 840 1
334 750 812 1
166 839 885 1
289 683 825 1
388 774 832 1
299 297 829 1
852 494 875 1
6 181 864 1
185 879 887 1
487 488 850 1
516 686 833 1
692 537 827 1
470 714 815 1
791 751 869 1
328 688 828 1
687 289 847 1
793 718 820 1
343 596 843 1
105 106 845 1
185 603 879 1
287 278 841 1
383 692 834 1
764 176 875 1
307 705 826 1
181 7 788 1
5 6 864 1
521 520 880 1
493 501 844 1
693 154 866 1
846 308 856 1
544 546 860 1
483 388 832 1
394 637 853 1
83 204 851 1
692 827 834 1
495 766 767 1
596 597 874 1
145 751 791 1
82 83 851 1
486 726 824 1
219 222 842 1
687 847 863 1
774 660 832 1
256 253 854 1
204 84 818 1
485 519 870 1
543 534 858 1
117 118 865 1
137 172 883 1
705 308 846 1
328 828 831 1
571 729 839 1
107 108 881 1
281 687 863 1
530 693 866 1
777 168 867 1
492 490 878 1
197 689 862 1
503 505 886 1
80 81 855 1
308 713 856 1
265 268 873 1
366 368 861 1
826 705 846 1
653 777 867 1
647 801 859 1
775 170 888 1
79 205 817 1
766 568 838 1
861 368 871 1
368 399 871 1
757 147 840 1
3 4 884 1
205 80 855 1
736 145 849 1
767 204 818 1
729 623 885 1
145 791 849 1
761 166 885 1
804 572 839 1
661 764 875 1
634 757 840 1
560 791 869 1
166 804 839 1
580 735 868 1
196 82 851 1
836 521 880 1
81 196 855 1
176 817 852 1
838 205 855 1
658 775 888 1
196 838 855 1
697 199 872 1
591 779 872 1
791 558 849 1
623 761 885 1
206 5 864 1
4 206 884 1
773 146 882 1
201 783 810 1
172 870 883 1
176 852 875 1
580 868 876 1
868 656 876 1
870 519 883 1

End
