MeshVersionFormatted 2
Dimension 3

Vertices
913
1.2111157536026178e-01 -1.3810175968977070e-01 0.0000000000000000e+00 1
1.2516781866401958e-01 -1.3837536966097352e-01 0.0000000000000000e+00 1
1.2902606342284670e-01 -1.3767181523609684e-01 0.0000000000000000e+00 1
1.3268256887317970e-01 -1.3605319486800385e-01 0.0000000000000000e+00 1
1.3613359425145516e-01 -1.3358160700955779e-01 0.0000000000000000e+00 1
1.3937539879410968e-01 -1.3031915011362188e-01 0.0000000000000000e+00 1
1.4240424173757985e-01 -1.2632792263305945e-01 0.0000000000000000e+00 1
1.4521638231830217e-01 -1.2167002302073361e-01 0.0000000000000000e+00 1
1.4780807977271337e-01 -1.1640754972950780e-01 0.0000000000000000e+00 1
1.5017559333724989e-01 -1.1060260121224506e-01 0.0000000000000000e+00 1
1.5231518224834847e-01 -1.0431727592180884e-01 0.0000000000000000e+00 1
1.5422310574244549e-01 -9.7613672311062188e-02 0.0000000000000000e+00 1
1.5589562305597776e-01 -9.0553888832868482e-02 0.0000000000000000e+00 1
1.5732899342538167e-01 -8.3200023940090906e-02 0.0000000000000000e+00 1
1.5851947608709391e-01 -7.5614176085592719e-02 0.0000000000000000e+00 1
1.5946333027755102e-01 -6.7858443722237205e-02 0.0000000000000000e+00 1
1.6015681523318961e-01 -5.9994925302887553e-02 0.0000000000000000e+00 1
1.6059619019044621e-01 -5.2085719280407027e-02 0.0000000000000000e+00 1
1.6077771438575750e-01 -4.4192924107658869e-02 0.0000000000000000e+00 1
1.6069764705555997e-01 -3.6378638237506339e-02 0.0000000000000000e+00 1
1.6035224743629023e-01 -2.8704960122812664e-02 0.0000000000000000e+00 1
1.5973777476438489e-01 -2.1233988216441103e-02 0.0000000000000000e+00 1
1.5885048827628051e-01 -1.4027820971254899e-02 0.0000000000000000e+00 1
1.5768664720841369e-01 -7.1485568401172877e-03 0.0000000000000000e+00 1
1.5624251079722101e-01 -6.5829427589150172e-04 0.0000000000000000e+00 1
1.5451433827913899e-01 5.3808682685591728e-03 0.0000000000000000e+00 1
1.5249838889060430e-01 1.0906832340371514e-02 0.0000000000000000e+00 1
1.5019092186805350e-01 1.5857499486682275e-02 0.0000000000000000e+00 1
1.4758819644792312e-01 2.0170771254628211e-02 0.0000000000000000e+00 1
1.4468647186664979e-01 2.3784549191346076e-02 0.0000000000000000e+00 1
1.4148200736067013e-01 2.6636734843972630e-02 0.0000000000000000e+00 1
1.3642491199049767e-01 3.0181799928466181e-02 0.0000000000000000e+00 1
1.3079946080783122e-01 3.3853192037892541e-02 0.0000000000000000e+00 1
1.2463798638880932e-01 3.7634380637919546e-02 0.0000000000000000e+00 1
1.1797282130957060e-01 4.1508835194215096e-02 0.0000000000000000e+00 1
1.1083629814625356e-01 4.5460025172447030e-02 0.0000000000000000e+00 1
1.0326074947499685e-01 4.9471420038283240e-02 0.0000000000000000e+00 1
9.5278507871939019e-02 5.3526489257391584e-02 0.0000000000000000e+00 1
8.6921905913218689e-02 5.7608702295439941e-02 0.0000000000000000e+00 1
7.8223276174974377e-02 6.1701528618096156e-02 0.0000000000000000e+00 1
6.9214951233344674e-02 6.5788437691028115e-02 0.0000000000000000e+00 1
5.9929263664468144e-02 6.9852898979903655e-02 0.0000000000000000e+00 1
5.0398546044483433e-02 7.3878381950390676e-02 0.0000000000000000e+00 1
4.0655130949529078e-02 7.7848356068157057e-02 0.0000000000000000e+00 1
3.0731350955743642e-02 8.1746290798870622e-02 0.0000000000000000e+00 1
2.0659538639265736e-02 8.5555655608199305e-02 0.0000000000000000e+00 1
1.0472026576233907e-02 8.9259919961810874e-02 0.0000000000000000e+00 1
2.0114734278674565e-04 9.2842553325373250e-02 0.0000000000000000e+00 1
-1.0120766484937153e-02 9.6287025164554327e-02 0.0000000000000000e+00 1
-2.0461382330799246e-02 9.9576804945021954e-02 0.0000000000000000e+00 1
-3.0788367618660922e-02 1.0269536213244400e-01 0.0000000000000000e+00 1
-4.1069389772383613e-02 1.0562616619248830e-01 0.0000000000000000e+00 1
-5.1272116215828764e-02 1.0835268659082276e-01 0.0000000000000000e+00 1
-6.1364214372857731e-02 1.1085839279311521e-01 0.0000000000000000e+00 1
-7.1313351667332006e-02 1.1312675426503356e-01 0.0000000000000000e+00 1
-8.1087195523112970e-02 1.1514124047224567e-01 0.0000000000000000e+00 1
-9.0653413364062033e-02 1.1688532088041936e-01 0.0000000000000000e+00 1
-9.9979672614040685e-02 1.1834246495522258e-01 0.0000000000000000e+00 1
-1.0903364069691028e-01 1.1949614216232313e-01 0.0000000000000000e+00 1
-1.1778298503653224e-01 1.2032982196738889e-01 0.0000000000000000e+00 1
-1.2619537305676806e-01 1.2082697383608776e-01 0.0000000000000000e+00 1
-1.3423847218147902e-01 1.2097106723408757e-01 0.0000000000000000e+00 1
-1.4187994983452670e-01 1.2074557162705621e-01 0.0000000000000000e+00 1
-1.4908747343977249e-01 1.2013395648066152e-01 0.0000000000000000e+00 1
-1.5582871042107768e-01 1.1911969126057140e-01 0.0000000000000000e+00 1
-1.6207132820230388e-01 1.1768624543245371e-01 0.0000000000000000e+00 1
-1.6778299420731232e-01 1.1581708846197630e-01 0.0000000000000000e+00 1
-1.7293137585996460e-01 1.1349568981480707e-01 0.0000000000000000e+00 1
-1.7748414058412201e-01 1.1070551895661382e-01 0.0000000000000000e+00 1
-1.8140895580364605e-01 1.0743004535306452e-01 0.0000000000000000e+00 1
-1.8467348894239813e-01 1.0365273846982696e-01 0.0000000000000000e+00 1
-1.8724540742423962e-01 9.9357067772569016e-02 0.0000000000000000e+00 1
-1.8909237867303197e-01 9.4526502726958589e-02 0.0000000000000000e+00 1
-1.9018207011263660e-01 8.9144512798663506e-02 0.0000000000000000e+00 1
-1.9059627886074587e-01 8.3066807649838231e-02 0.0000000000000000e+00 1
-1.9035894973697953e-01 7.6929479019519784e-02 0.0000000000000000e+00 1
-1.8949274377226683e-01 7.0740039323235415e-02 0.0000000000000000e+00 1
-1.8802032199753688e-01 6.4506000976512295e-02 0.0000000000000000e+00 1
-1.8596434544371895e-01 5.8234876394877629e-02 0.0000000000000000e+00 1
-1.8334747514174216e-01 5.1934177993858618e-02 0.0000000000000000e+00 1
-1.8019237212253594e-01 4.5611418188982511e-02 0.0000000000000000e+00 1
-1.7652169741702925e-01 3.9274109395776455e-02 0.0000000000000000e+00 1
-1.7235811205615140e-01 3.2929764029767682e-02 0.0000000000000000e+00 1
-1.6772427707083162e-01 2.6585894506483389e-02 0.0000000000000000e+00 1
-1.6264285349199903e-01 2.0250013241450756e-02 0.0000000000000000e+00 1
-1.5713650235058282e-01 1.3929632650197005e-02 0.0000000000000000e+00 1
-1.5122788467751241e-01 7.6322651482493608e-03 0.0000000000000000e+00 1
-1.4493966150371670e-01 1.3654231511349658e-03 0.0000000000000000e+00 1
-1.3829449386012513e-01 -4.8633809256189153e-03 0.0000000000000000e+00 1
-1.3131504277766681e-01 -1.1046634666485113e-02 0.0000000000000000e+00 1
-1.2402396928727101e-01 -1.7176825655936413e-02 0.0000000000000000e+00 1
-1.1644393441986677e-01 -2.3246441478445616e-02 0.0000000000000000e+00 1
-1.0859759920638347e-01 -2.9247969718485544e-02 0.0000000000000000e+00 1
-1.0050762467775029e-01 -3.5173897960528951e-02 0.0000000000000000e+00 1
-9.2196671864896274e-02 -4.1016713789048663e-02 0.0000000000000000e+00 1
-8.3687401798750810e-02 -4.6768904788517481e-02 0.0000000000000000e+00 1
-7.5002475510243041e-02 -5.2422958543408164e-02 0.0000000000000000e+00 1
-6.6164554030302178e-02 -5.7971362638193559e-02 0.0000000000000000e+00 1
-5.7196298389857375e-02 -6.3406604657346419e-02 0.0000000000000000e+00 1
-4.8120369619837955e-02 -6.8721172185339574e-02 0.0000000000000000e+00 1
-3.8959428751172989e-02 -7.3907552806645793e-02 0.0000000000000000e+00 1
-2.9736136814791699e-02 -7.8958234105737934e-02 0.0000000000000000e+00 1
-2.0473154841623400e-02 -8.3865703667088731e-02 0.0000000000000000e+00 1
-1.1193143862597208e-02 -8.8622449075171000e-02 0.0000000000000000e+00 1
-1.9187649086423592e-03 -9.3220957914457558e-02 0.0000000000000000e+00 1
7.3273209893119674e-03 -9.7653717769421167e-02 0.0000000000000000e+00 1
1.6522452800336544e-02 -1.0191321622453464e-01 0.0000000000000000e+00 1
2.5643969493502190e-02 -1.0599194086427079e-01 0.0000000000000000e+00 1
3.4669210037879664e-02 -1.0988237927310239e-01 0.0000000000000000e+00 1
4.3575513402539810e-02 -1.1357701903550227e-01 0.0000000000000000e+00 1
5.2340218556553436e-02 -1.1706834773594320e-01 0.0000000000000000e+00 1
6.0940664468991254e-02 -1.2034885295889797e-01 0.0000000000000000e+00 1
6.9354190108924088e-02 -1.2341102228883941e-01 0.0000000000000000e+00 1
7.7558134445422755e-02 -1.2624734331024029e-01 0.0000000000000000e+00 1
8.5529836447558072e-02 -1.2885030360757344e-01 0.0000000000000000e+00 1
9.3246635084400786e-02 -1.3121239076531160e-01 0.0000000000000000e+00 1
1.0068586932502172e-01 -1.3332609236792761e-01 0.0000000000000000e+00 1
1.0782487813849169e-01 -1.3518389599989428e-01 0.0000000000000000e+00 1
1.1464100049388144e-01 -1.3677828924568439e-01 0.0000000000000000e+00 1
1.5362091134643002e-01 -2.5799901310192393e-02 0.0000000000000000e+00 1
1.0365859430381701e-01 4.1063815829827204e-02 0.0000000000000000e+00 1
4.2278372677775768e-02 -1.0404246653127350e-01 0.0000000000000000e+00 1
6.3816630155176645e-03 -8.7695034370278396e-02 0.0000000000000000e+00 1
7.0829552361299966e-02 5.6079255987003376e-02 0.0000000000000000e+00 1
-3.0298849023181633e-02 -6.8218196366463785e-02 0.0000000000000000e+00 1
1.5233245243181753e-01 -7.0925931428297687e-02 0.0000000000000000e+00 1
-6.5901433492522782e-02 -4.7784396390177036e-02 0.0000000000000000e+00 1
1.4959654194799887e-01 5.9909369678410318e-03 0.0000000000000000e+00 1
3.2339804508381295e-02 7.1259785533325015e-02 0.0000000000000000e+00 1
-1.0014984457477806e-01 -2.5014892334096990e-02 0.0000000000000000e+00 1
-1.2951205572468349e-01 -1.9807699282652575e-03 0.0000000000000000e+00 1
-8.4264690147561501e-03 8.6502243749569122e-02 0.0000000000000000e+00 1
-1.6012903039312854e-01 2.7068262007033772e-02 0.0000000000000000e+00 1
7.5355441409515986e-02 -1.1803540225292536e-01 0.0000000000000000e+00 1
-5.8298304421352240e-02 1.0067584150337820e-01 0.0000000000000000e+00 1
-9.5762550527466656e-02 1.0998252383867620e-01 0.0000000000000000e+00 1
-1.7968992515806909e-01 5.7227704563274431e-02 0.0000000000000000e+00 1
-1.2909299606369806e-01 1.1452642704046780e-01 0.0000000000000000e+00 1
1.4784576410992512e-01 -9.9379387789376245e-02 0.0000000000000000e+00 1
-1.6840158155773316e-01 1.1031926545328445e-01 0.0000000000000000e+00 1
1.3069683728650291e-01 2.7336910024045535e-02 0.0000000000000000e+00 1
-1.8431043485617962e-01 7.9696444212205148e-02 0.0000000000000000e+00 1
9.8978722548581061e-02 -1.2547438720343768e-01 0.0000000000000000e+00 1
1.3444567056293352e-01 -1.2912599585712420e-01 0.0000000000000000e+00 1
1.5388630364874081e-01 -4.7982915472303364e-02 0.0000000000000000e+00 1
-1.5104815096448157e-01 1.1354223151331133e-01 0.0000000000000000e+00 1
1.4188881986157073e-01 -1.1692129880785410e-01 0.0000000000000000e+00 1
-1.8233460423990350e-01 9.9316792083606678e-02 0.0000000000000000e+00 1
1.1903204978115836e-01 -1.3290226234008995e-01 0.0000000000000000e+00 1
1.4280456935163310e-01 1.9410772836068669e-02 0.0000000000000000e+00 1
8.8104424165685202e-02 4.8249684559647101e-02 0.0000000000000000e+00 1
5.2178698810964347e-02 6.3808040210199590e-02 0.0000000000000000e+00 1
1.1826528460121349e-01 3.4097919782040825e-02 0.0000000000000000e+00 1
5.9442645361073472e-02 -1.1136210918371132e-01 0.0000000000000000e+00 1
2.4555009475067058e-02 -9.6180261238604972e-02 0.0000000000000000e+00 1
-1.1738180887842795e-02 -7.8284109054292089e-02 0.0000000000000000e+00 1
-3.8451615050403308e-02 9.5311210312680084e-02 0.0000000000000000e+00 1
1.1899747048021001e-02 7.8702112571875218e-02 0.0000000000000000e+00 1
-7.7028737055826316e-02 1.0569386846474590e-01 0.0000000000000000e+00 1
-4.9830557157079597e-02 -5.7988176946016365e-02 0.0000000000000000e+00 1
-8.1740621237041136e-02 -3.6593069987335802e-02 0.0000000000000000e+00 1
-1.1502757326737564e-01 -1.3709651832219043e-02 0.0000000000000000e+00 1
-1.1535428985110260e-01 1.1304774997824869e-01 0.0000000000000000e+00 1
-1.4308329837980527e-01 9.4495980748897507e-03 0.0000000000000000e+00 1
1.5013031302954888e-01 -8.5612737325300836e-02 0.0000000000000000e+00 1
1.5257294309285074e-01 -1.1006070725274018e-02 0.0000000000000000e+00 1
-1.6887522001860106e-01 3.9272752393910718e-02 0.0000000000000000e+00 1
-1.8342335697438858e-01 6.8882666610539794e-02 0.0000000000000000e+00 1
-1.8426570909161361e-01 9.1319983246812259e-02 0.0000000000000000e+00 1
-1.7698614617508346e-01 1.0560306712174289e-01 0.0000000000000000e+00 1
1.2832859253274589e-01 -1.3373712120798537e-01 0.0000000000000000e+00 1
1.3635211058050306e-01 2.4698398854502444e-02 0.0000000000000000e+00 1
1.3114818726140337e-01 1.9485514462256593e-02 0.0000000000000000e+00 1
1.2479017620023286e-01 2.3339247758315619e-02 0.0000000000000000e+00 1
1.2496073861487109e-01 1.5969215994413179e-02 0.0000000000000000e+00 1
1.1849584268117454e-01 1.9235561896350291e-02 0.0000000000000000e+00 1
1.1931270831577967e-01 1.1821958576834123e-02 0.0000000000000000e+00 1
1.1220101818801226e-01 1.4911132436071603e-02 0.0000000000000000e+00 1
1.1308277399190038e-01 7.1826578664016720e-03 0.0000000000000000e+00 1
1.0571592512563732e-01 1.0272227623319006e-02 0.0000000000000000e+00 1
1.0655178017757010e-01 2.1575473364827463e-03 0.0000000000000000e+00 1
9.8982975738629547e-02 5.4825590015979090e-03 0.0000000000000000e+00 1
9.9860099966586791e-02 -2.8091798662767111e-03 0.0000000000000000e+00 1
9.2140190753305068e-02 5.9301056085363419e-04 0.0000000000000000e+00 1
9.3041989235335854e-02 -7.8976548550921833e-03 0.0000000000000000e+00 1
8.5194028860521076e-02 -4.4059281090658847e-03 0.0000000000000000e+00 1
8.6111873640288328e-02 -1.3030608967652410e-02 0.0000000000000000e+00 1
7.8144879878481510e-02 -9.4591819105877828e-03 0.0000000000000000e+00 1
7.9111840962006047e-02 -1.8159650438466943e-02 0.0000000000000000e+00 1
7.1066270372198495e-02 -1.4772963108247467e-02 0.0000000000000000e+00 1
8.7090752199308924e-02 -2.1699440674185683e-02 0.0000000000000000e+00 1
8.0100142791597190e-02 -2.6864471611078477e-02 0.0000000000000000e+00 1
8.8078171859366020e-02 -3.0378191346207617e-02 0.0000000000000000e+00 1
8.1085574803776927e-02 -3.5573794956542372e-02 0.0000000000000000e+00 1
8.9068060639443281e-02 -3.9215095966371141e-02 0.0000000000000000e+00 1
8.2080779946092045e-02 -4.4299958248180379e-02 0.0000000000000000e+00 1
7.4265202287637860e-02 -4.1173615445619080e-02 0.0000000000000000e+00 1
9.0020620270462787e-02 -4.7996315095366712e-02 0.0000000000000000e+00 1
7.0170548537764083e-02 -5.6762546563501153e-03 0.0000000000000000e+00 1
6.2792022134437839e-02 -1.1012385593526627e-02 0.0000000000000000e+00 1
6.1945790324626784e-02 -1.8058186009672354e-03 0.0000000000000000e+00 1
5.4375736225582623e-02 -7.3943332124637041e-03 0.0000000000000000e+00 1
5.3404514902934130e-02 1.9372463893826413e-03 0.0000000000000000e+00 1
4.5754375378554347e-02 -3.5713781646344580e-03 0.0000000000000000e+00 1
4.6794562654381096e-02 -1.3026787718671148e-02 0.0000000000000000e+00 1
3.8044574114591168e-02 -9.1676700319101995e-03 0.0000000000000000e+00 1
3.7025484047225776e-02 3.8032538168516675e-04 0.0000000000000000e+00 1
2.9204986862967533e-02 -5.2623423150832370e-03 0.0000000000000000e+00 1
2.8159539024926968e-02 4.4077813377294169e-03 0.0000000000000000e+00 1
2.0191995312839807e-02 -1.3322933887243403e-03 0.0000000000000000e+00 1
3.9116219338132883e-02 -1.8656603486250183e-02 0.0000000000000000e+00 1
1.9050388985018415e-02 8.3400273580886836e-03 0.0000000000000000e+00 1
1.1075060005408109e-02 2.6092653566429074e-03 0.0000000000000000e+00 1
9.6769768751239753e-03 1.2412938215227123e-02 0.0000000000000000e+00 1
1.8232774938517886e-03 6.7172770367957772e-03 0.0000000000000000e+00 1
1.2660789724669840e-02 -7.3441009188510197e-03 0.0000000000000000e+00 1
4.5743222164334768e-04 1.6751535964404780e-02 0.0000000000000000e+00 1
-7.5635424662527902e-03 1.0847725945994924e-02 0.0000000000000000e+00 1
-8.6817537735411759e-03 2.0992052653257251e-02 0.0000000000000000e+00 1
-1.6866476317749884e-02 1.4965613306744969e-02 0.0000000000000000e+00 1
-1.8038256763892674e-02 2.5176856538774797e-02 0.0000000000000000e+00 1
-2.6258851098817326e-02 1.9036245988448674e-02 0.0000000000000000e+00 1
8.3067106951899450e-02 -5.2988325915179796e-02 0.0000000000000000e+00 1
9.0960534328412612e-02 -5.6548608232505862e-02 0.0000000000000000e+00 1
9.6066319094301245e-02 -3.4290114927538057e-02 0.0000000000000000e+00 1
-2.7446024582964426e-02 2.9355348289620900e-02 0.0000000000000000e+00 1
-3.5652601613513794e-02 2.3123901593860165e-02 0.0000000000000000e+00 1
-3.6860726849821439e-02 3.3513498722344923e-02 0.0000000000000000e+00 1
-4.5172598191965688e-02 2.7457077535952654e-02 0.0000000000000000e+00 1
-1.5042312413807591e-02 4.4396359605741436e-03 0.0000000000000000e+00 1
-4.6296046229821045e-02 3.7645946839978489e-02 0.0000000000000000e+00 1
-5.4549310363231074e-02 3.1679911519079826e-02 0.0000000000000000e+00 1
-5.5752438491787737e-02 4.1556287919789700e-02 0.0000000000000000e+00 1
-6.3886019425028251e-02 3.5845640019902182e-02 0.0000000000000000e+00 1
-4.3962883440205575e-02 1.7067020390169850e-02 0.0000000000000000e+00 1
-6.5037281257768573e-02 4.5638670025719308e-02 0.0000000000000000e+00 1
-7.3084074667286503e-02 3.9989598175946134e-02 0.0000000000000000e+00 1
-7.4172990230400096e-02 4.9736042964244873e-02 0.0000000000000000e+00 1
-8.2102583781885993e-02 4.4055468743011764e-02 0.0000000000000000e+00 1
-8.3196802586920804e-02 5.3686200107688660e-02 0.0000000000000000e+00 1
-9.1010387004823112e-02 4.8100033995551572e-02 0.0000000000000000e+00 1
8.4005636248971657e-02 -6.1614689116851279e-02 0.0000000000000000e+00 1
9.1924951607940758e-02 -6.5059169654808111e-02 0.0000000000000000e+00 1
9.8853335672571291e-02 -5.9955027101785602e-02 0.0000000000000000e+00 1
9.9747159670228971e-02 -6.8380087153614863e-02 0.0000000000000000e+00 1
-7.2005155938556289e-02 3.0024459210329233e-02 0.0000000000000000e+00 1
-9.2051407430614574e-02 5.7699919633488320e-02 0.0000000000000000e+00 1
-9.9727035988337057e-02 5.2093388776045607e-02 0.0000000000000000e+00 1
1.1447221256474063e-01 -1.1551737756797213e-04 0.0000000000000000e+00 1
-1.0076338131150754e-01 6.1472570296493237e-02 0.0000000000000000e+00 1
-1.0833357351877432e-01 5.6005111254244642e-02 0.0000000000000000e+00 1
-1.0915291309826787e-01 6.5369507712696839e-02 0.0000000000000000e+00 1
-1.1666361696331883e-01 5.9816481387803003e-02 0.0000000000000000e+00 1
-1.0785020795702879e-01 4.7316432147168935e-02 0.0000000000000000e+00 1
1.0653405181841097e-01 -6.3424152265949010e-02 0.0000000000000000e+00 1
1.0747935716975879e-01 -7.1686133356062234e-02 0.0000000000000000e+00 1
1.0077472437062976e-01 -7.6643162470294790e-02 0.0000000000000000e+00 1
1.0835430690150256e-01 -7.9849895527091444e-02 0.0000000000000000e+00 1
-1.1757513917230673e-01 6.8805077963522684e-02 0.0000000000000000e+00 1
-1.2467113714359412e-01 6.3530705442206653e-02 0.0000000000000000e+00 1
-1.2565192560505634e-01 7.2164280798670766e-02 0.0000000000000000e+00 1
-1.3248478728828450e-01 6.7191080728067093e-02 0.0000000000000000e+00 1
-1.3344626576369925e-01 7.5465962521586466e-02 0.0000000000000000e+00 1
2.6791460557714506e-02 1.3835235763559725e-02 0.0000000000000000e+00 1
-1.4001768410564047e-01 7.0690072219746602e-02 0.0000000000000000e+00 1
1.0181733132757782e-01 -8.4755935695201692e-02 0.0000000000000000e+00 1
1.0931279845446679e-01 -8.7925426236395793e-02 0.0000000000000000e+00 1
6.1142169659665742e-02 7.5188859177447859e-03 0.0000000000000000e+00 1
-1.3200415167133664e-01 5.8646150618894367e-02 0.0000000000000000e+00 1
-4.2873501650172785e-04 2.6873839639863988e-02 0.0000000000000000e+00 1
-1.4095158182348183e-01 7.8665480185366218e-02 0.0000000000000000e+00 1
-3.8562330417335020e-02 4.3637653531447142e-02 0.0000000000000000e+00 1
-1.4737914328629925e-01 7.3729563852416594e-02 0.0000000000000000e+00 1
-1.4816265347792443e-01 8.1652533609262917e-02 0.0000000000000000e+00 1
9.1293917482581005e-02 9.0525276123266836e-03 0.0000000000000000e+00 1
1.1406440299312667e-01 -6.6734831045192733e-02 0.0000000000000000e+00 1
1.1325140424213045e-01 -5.8559069031204086e-02 0.0000000000000000e+00 1
-6.6908791212366259e-02 5.5536708526345499e-02 0.0000000000000000e+00 1
-1.4745397812624669e-01 6.5312986426436570e-02 0.0000000000000000e+00 1
-9.1059775180920913e-02 3.7364783135330600e-02 0.0000000000000000e+00 1
1.1568545818215754e-01 -8.3123878254204323e-02 0.0000000000000000e+00 1
1.1664286494589701e-01 -9.0913066464284015e-02 0.0000000000000000e+00 1
8.4995435171758199e-02 -7.0132634777518826e-02 0.0000000000000000e+00 1
7.6991184866004661e-02 -6.6711134112474507e-02 0.0000000000000000e+00 1
7.8022530307413518e-02 -7.5364778322507139e-02 0.0000000000000000e+00 1
6.9882933887261606e-02 -7.1902723695927526e-02 0.0000000000000000e+00 1
-8.5003643060459627e-02 6.3782767593539777e-02 0.0000000000000000e+00 1
-1.9118649511283215e-02 3.5450113343473436e-02 0.0000000000000000e+00 1
1.0283240801291270e-01 -9.2725901264688118e-02 0.0000000000000000e+00 1
-1.0186381441437078e-01 7.0706398920118679e-02 0.0000000000000000e+00 1
-1.5425277437323467e-01 7.7242429387778033e-02 0.0000000000000000e+00 1
-1.5500863490406724e-01 8.4481748435136117e-02 0.0000000000000000e+00 1
1.2069614167296486e-01 -6.1855795160486213e-02 0.0000000000000000e+00 1
1.1990474687747550e-01 -5.3717907228295031e-02 0.0000000000000000e+00 1
-1.1864955857331383e-01 7.7424120474016880e-02 0.0000000000000000e+00 1
-1.3457494984336699e-01 8.3363418304038733e-02 0.0000000000000000e+00 1
1.2642099243296273e-01 8.7979518935536669e-03 0.0000000000000000e+00 1
-1.4879376412806639e-01 8.8899008334445723e-02 0.0000000000000000e+00 1
7.0811981001984242e-02 -8.0628621093124117e-02 0.0000000000000000e+00 1
6.2674448403778865e-02 -7.7240770568078335e-02 0.0000000000000000e+00 1
6.1642195826807446e-02 -6.8261144771763149e-02 0.0000000000000000e+00 1
5.4318582468174892e-02 -7.3701316750300769e-02 0.0000000000000000e+00 1
5.3259448416985100e-02 -6.4545359751447234e-02 0.0000000000000000e+00 1
4.5799598999232277e-02 -7.0083716754040792e-02 0.0000000000000000e+00 1
4.4721425381997061e-02 -6.0761928738401791e-02 0.0000000000000000e+00 1
3.7131412966810690e-02 -6.6394340587626943e-02 0.0000000000000000e+00 1
3.6257807809366799e-02 -5.7364977018672408e-02 0.0000000000000000e+00 1
2.8358534894352375e-02 -6.2650199269412801e-02 0.0000000000000000e+00 1
2.8212205298128113e-02 -5.2110798458552064e-02 0.0000000000000000e+00 1
1.9546801616430878e-02 -5.8672248681920391e-02 0.0000000000000000e+00 1
1.8278622421177511e-02 -4.9097366736261847e-02 0.0000000000000000e+00 1
4.3791504875484874e-02 -5.2690773495784243e-02 0.0000000000000000e+00 1
1.0336563928038571e-02 -5.4925688542487951e-02 0.0000000000000000e+00 1
9.1627625674826317e-03 -4.4936346521983597e-02 0.0000000000000000e+00 1
1.1265718329416718e-03 -5.0985496032042624e-02 0.0000000000000000e+00 1
-6.3363353547672891e-05 -4.0808979718207086e-02 0.0000000000000000e+00 1
1.2282318094848789e-01 -8.6324250314028753e-02 0.0000000000000000e+00 1
1.2361167750669808e-01 -9.3911307504125685e-02 0.0000000000000000e+00 1
1.1769429695734099e-01 -9.8434177014808388e-02 0.0000000000000000e+00 1
-1.6074737696978658e-01 8.0365320666997170e-02 0.0000000000000000e+00 1
-1.6017663927562401e-01 7.3149737195303280e-02 0.0000000000000000e+00 1
-1.6154774489206397e-01 8.7210298498260258e-02 0.0000000000000000e+00 1
1.2733289640095466e-01 -5.7024880691071547e-02 0.0000000000000000e+00 1
1.2649713529641593e-01 -4.8884733623564616e-02 0.0000000000000000e+00 1
4.7872857994963117e-02 -2.2481849365405395e-02 0.0000000000000000e+00 1
1.2445262894391501e-01 -1.0135066895463113e-01 0.0000000000000000e+00 1
1.1867744255624872e-01 -1.0573260707417501e-01 0.0000000000000000e+00 1
1.2796688262797623e-01 -6.5284273605737284e-02 0.0000000000000000e+00 1
-8.1651210752576656e-03 -4.6989961053593494e-02 0.0000000000000000e+00 1
-9.3418628884832620e-03 -3.6834177210670040e-02 0.0000000000000000e+00 1
-1.7524432388663809e-02 -4.2975924900621590e-02 0.0000000000000000e+00 1
-1.8669272570628441e-02 -3.2834979522788223e-02 0.0000000000000000e+00 1
1.1908667877657622e-01 -4.5601810766715184e-02 0.0000000000000000e+00 1
1.2566797721593798e-01 -4.0797193131775066e-02 0.0000000000000000e+00 1
1.0228465923600050e-01 -1.1979618556195346e-02 0.0000000000000000e+00 1
7.9279576758230788e-02 -8.3520146188918121e-02 0.0000000000000000e+00 1
1.1828652422117947e-01 -3.7517752466772525e-02 0.0000000000000000e+00 1
1.2489502070766165e-01 -3.2850092994509875e-02 0.0000000000000000e+00 1
1.6434217610524569e-02 -3.8019989659202988e-02 0.0000000000000000e+00 1
5.2514623465590667e-02 1.1317874776417783e-02 0.0000000000000000e+00 1
6.0241405764037526e-02 1.6848584963636323e-02 0.0000000000000000e+00 1
5.1554044756395162e-02 2.0767199535131842e-02 0.0000000000000000e+00 1
5.9337351774610414e-02 2.6255835536823174e-02 0.0000000000000000e+00 1
5.0582633867655880e-02 3.0294578497190444e-02 0.0000000000000000e+00 1
6.7970572202709537e-02 2.2325760584974312e-02 0.0000000000000000e+00 1
1.3215656039641097e-01 -3.6081342504876227e-02 0.0000000000000000e+00 1
1.3141137212484327e-01 -2.8144186609958505e-02 0.0000000000000000e+00 1
1.2418067614447104e-01 -2.4953622802270193e-02 0.0000000000000000e+00 1
1.3064003666908836e-01 -2.0308467545856190e-02 0.0000000000000000e+00 1
-1.0462329930476636e-02 -2.6700045234247148e-02 0.0000000000000000e+00 1
-1.9816959216174428e-02 -2.2635338335073994e-02 0.0000000000000000e+00 1
-2.8083018049302778e-02 -2.8740116861069129e-02 0.0000000000000000e+00 1
-2.9222934317072752e-02 -1.8509157008793381e-02 0.0000000000000000e+00 1
-3.7513602208996362e-02 -2.4605995436658822e-02 0.0000000000000000e+00 1
-3.8652097639338155e-02 -1.4364282443116660e-02 0.0000000000000000e+00 1
-4.6946313987336126e-02 -2.0455624237608667e-02 0.0000000000000000e+00 1
-4.8109398612809023e-02 -1.0304463511680739e-02 0.0000000000000000e+00 1
-5.6368428310972662e-02 -1.6314248193210371e-02 0.0000000000000000e+00 1
-5.7509423195823486e-02 -6.1643245146814837e-03 0.0000000000000000e+00 1
-6.5725065574690600e-02 -1.2176976985795715e-02 0.0000000000000000e+00 1
-6.6871350292713683e-02 -2.1111832160171347e-03 0.0000000000000000e+00 1
-7.5027943518261503e-02 -8.0597565363610454e-03 0.0000000000000000e+00 1
-7.6162551427588501e-02 1.9855815725030226e-03 0.0000000000000000e+00 1
-8.4245631334140259e-02 -3.9507763505803855e-03 0.0000000000000000e+00 1
-8.5375824628817321e-02 5.9672325070865631e-03 0.0000000000000000e+00 1
1.0491416500410596e-01 1.8370487203310346e-02 0.0000000000000000e+00 1
1.2525752691630870e-01 -1.0851231333484110e-01 0.0000000000000000e+00 1
1.1970936395675486e-01 -1.1279829006762931e-01 0.0000000000000000e+00 1
1.1298659899673487e-01 -1.1006939369024962e-01 0.0000000000000000e+00 1
6.3864726043881909e-02 -8.6025132827375089e-02 0.0000000000000000e+00 1
1.3467502287397531e-01 -6.0330010651007807e-02 0.0000000000000000e+00 1
-1.6703901606645541e-01 8.3287970076313639e-02 0.0000000000000000e+00 1
-1.6770035362785121e-01 8.9918850627059205e-02 0.0000000000000000e+00 1
-1.6244117843662492e-01 9.3812419618058002e-02 0.0000000000000000e+00 1
1.2970934923038691e-01 -8.9397549422019246e-02 0.0000000000000000e+00 1
-9.3352799899201713e-02 1.1261362052449446e-04 0.0000000000000000e+00 1
-9.4456292078643117e-02 9.8707153575703123e-03 0.0000000000000000e+00 1
4.7098274318819779e-02 -7.9415110232227581e-02 0.0000000000000000e+00 1
1.1407158922160443e-01 -1.1719444787795659e-01 0.0000000000000000e+00 1
4.0217679121126566e-02 -2.8135940151522924e-02 0.0000000000000000e+00 1
-4.5838583168552390e-02 -3.0718368153118826e-02 0.0000000000000000e+00 1
-1.0234397590726406e-01 4.0972293881946856e-03 0.0000000000000000e+00 1
-1.0341197178969265e-01 1.3716992423401884e-02 0.0000000000000000e+00 1
1.2624346824468513e-01 -1.1535215661072691e-01 0.0000000000000000e+00 1
6.7117845042112836e-02 3.1698537802513166e-02 0.0000000000000000e+00 1
7.5629531608901152e-02 2.7720182864241202e-02 0.0000000000000000e+00 1
2.9622733250895737e-02 -7.2007244227481518e-02 0.0000000000000000e+00 1
4.8965013202587740e-02 -3.1875380524791233e-02 0.0000000000000000e+00 1
6.0873762562985115e-02 -5.9450250114587523e-02 0.0000000000000000e+00 1
1.3091916459129715e-01 -1.0426544820363305e-01 0.0000000000000000e+00 1
1.3514171414870235e-01 -6.8681078653515706e-02 0.0000000000000000e+00 1
-6.8007847094842214e-02 8.0170626969887568e-03 0.0000000000000000e+00 1
-6.4632950443041848e-02 -2.2331786800323827e-02 0.0000000000000000e+00 1
1.2351234660415554e-01 -1.7122675725559526e-02 0.0000000000000000e+00 1
1.2987822793369524e-01 -1.2684948677950645e-02 0.0000000000000000e+00 1
1.1702540501202388e-01 -2.1640873915676553e-02 0.0000000000000000e+00 1
1.1698438011941018e-02 -6.4457921482087510e-02 0.0000000000000000e+00 1
3.1377947345249069e-02 -2.4344176760550538e-02 0.0000000000000000e+00 1
-4.0181748426578498e-02 -4.0535918290274626e-03 0.0000000000000000e+00 1
-1.1548921549280042e-02 -1.6579419226844271e-02 0.0000000000000000e+00 1
-1.1119662021054542e-01 8.0564669763841766e-03 0.0000000000000000e+00 1
-1.1217058907396113e-01 1.7597740793678197e-02 0.0000000000000000e+00 1
1.1161452966484606e-01 -4.2286845662766651e-02 0.0000000000000000e+00 1
-1.0454001438279770e-01 2.3212569248145441e-02 0.0000000000000000e+00 1
-1.1325074697986970e-01 2.6983684801724764e-02 0.0000000000000000e+00 1
-1.2072696758074394e-01 2.1435457376133921e-02 0.0000000000000000e+00 1
-1.2175290524968130e-01 3.0576960665241210e-02 0.0000000000000000e+00 1
-1.2907583062572506e-01 2.5183289273363791e-02 0.0000000000000000e+00 1
-1.3016173913504370e-01 3.3933494240483079e-02 0.0000000000000000e+00 1
-1.3722087427186927e-01 2.8814250858971178e-02 0.0000000000000000e+00 1
-1.3828237380231839e-01 3.7308982124815350e-02 0.0000000000000000e+00 1
-1.7300214826050186e-01 8.6046517672848835e-02 0.0000000000000000e+00 1
-1.7240901792262778e-01 7.9532299867126316e-02 0.0000000000000000e+00 1
1.3684777479656388e-01 -1.5685645208906619e-02 0.0000000000000000e+00 1
1.3605424152860665e-01 -8.2801273276501951e-03 0.0000000000000000e+00 1
1.0721392018353540e-01 -1.1450659994396969e-01 0.0000000000000000e+00 1
5.6506165857734547e-02 -2.6301671981527976e-02 0.0000000000000000e+00 1
1.3858785868910281e-01 -3.1377059622466411e-02 0.0000000000000000e+00 1
1.3937699096381359e-01 -3.9251579239456991e-02 0.0000000000000000e+00 1
-7.7522111852482240e-03 -5.7991385609492470e-02 0.0000000000000000e+00 1
9.5349647354990269e-02 -8.9604119955241548e-02 0.0000000000000000e+00 1
9.6744474680664119e-02 -9.7341715091614600e-02 0.0000000000000000e+00 1
-8.6763559214648178e-02 1.6403763764923633e-02 0.0000000000000000e+00 1
1.1086305482899218e-01 -3.3844145820552798e-02 0.0000000000000000e+00 1
-1.2301363590118625e-01 3.9330722180596807e-02 0.0000000000000000e+00 1
-1.6840608905205290e-01 9.6385764060570728e-02 0.0000000000000000e+00 1
-1.6334631356544849e-01 1.0016442399485781e-01 0.0000000000000000e+00 1
-1.5687228086601596e-01 9.7859377221970315e-02 0.0000000000000000e+00 1
-8.3430595926119303e-02 -1.4176158933705527e-02 0.0000000000000000e+00 1
-2.5392561679132100e-03 -2.0677330157544013e-02 0.0000000000000000e+00 1
5.7451644083264433e-02 -3.5604143309380748e-02 0.0000000000000000e+00 1
7.6419684735400700e-02 1.8496124152908376e-02 0.0000000000000000e+00 1
8.3953005556746910e-02 2.3825989672967257e-02 0.0000000000000000e+00 1
1.2928049662669855e-01 -5.1269181121291491e-03 0.0000000000000000e+00 1
1.3545473420478737e-01 -1.0170181317144952e-03 0.0000000000000000e+00 1
1.4153583328603814e-01 -4.0922515873417532e-03 0.0000000000000000e+00 1
4.2699771989555255e-02 2.4744234399450848e-02 0.0000000000000000e+00 1
4.1624442368960068e-02 3.4431293155771502e-02 0.0000000000000000e+00 1
4.9660538947785396e-02 3.9939418655104510e-02 0.0000000000000000e+00 1
4.0518673238773187e-02 4.3959660342803117e-02 0.0000000000000000e+00 1
3.2444789050680531e-02 3.8470631521821161e-02 0.0000000000000000e+00 1
3.1654051496580717e-02 4.8892888081479603e-02 0.0000000000000000e+00 1
2.3211743830612114e-02 4.2751956997025428e-02 0.0000000000000000e+00 1
2.2414400936705204e-02 5.3340100195336922e-02 0.0000000000000000e+00 1
1.3834411155814077e-02 4.7042947679601384e-02 0.0000000000000000e+00 1
1.2873297901819892e-02 5.7390698506079044e-02 0.0000000000000000e+00 1
4.3465172440939025e-03 5.1298201053158597e-02 0.0000000000000000e+00 1
3.3616749634612854e-03 6.1719402259432045e-02 0.0000000000000000e+00 1
-5.2192136035639856e-03 5.5640106384521049e-02 0.0000000000000000e+00 1
8.8937650623090891e-02 -9.4532240108796600e-02 0.0000000000000000e+00 1
9.0198413911919809e-02 -1.0245462077218516e-01 0.0000000000000000e+00 1
8.2251570547010766e-02 -9.9513784937248065e-02 0.0000000000000000e+00 1
1.2896488614259005e-01 -8.1818847465581768e-02 0.0000000000000000e+00 1
-1.2802213820123964e-01 1.6228847383025883e-02 0.0000000000000000e+00 1
2.4096685494643656e-02 3.2704174422480720e-02 0.0000000000000000e+00 1
-6.2563068216998892e-03 6.5992800177525540e-02 0.0000000000000000e+00 1
-1.4826187642182288e-02 6.0003301959212059e-02 0.0000000000000000e+00 1
-1.5926612951232648e-02 7.0368965086016533e-02 0.0000000000000000e+00 1
-2.4426167100528782e-02 6.4391967709475043e-02 0.0000000000000000e+00 1
-2.5479620024356123e-02 7.4888179629135659e-02 0.0000000000000000e+00 1
-3.3984853699038545e-02 6.8825591248182563e-02 0.0000000000000000e+00 1
1.3592924423490124e-01 -8.4897355002770458e-02 0.0000000000000000e+00 1
7.4757393155124224e-02 3.6973274912340384e-02 0.0000000000000000e+00 1
-1.4511951891226560e-01 3.2344991919023028e-02 0.0000000000000000e+00 1
-1.4603847767881831e-01 4.0791153150455534e-02 0.0000000000000000e+00 1
3.2583997891396321e-02 -3.4500298556018889e-02 0.0000000000000000e+00 1
6.5661408183730285e-02 4.0791711363714768e-02 0.0000000000000000e+00 1
1.3638339317092321e-01 -9.2367058307309235e-02 0.0000000000000000e+00 1
-3.9861752912745425e-03 4.5362286163364185e-02 0.0000000000000000e+00 1
-1.5829691527713921e-01 1.0404120914177611e-01 0.0000000000000000e+00 1
-1.5219665579453945e-01 1.0180971431594736e-01 0.0000000000000000e+00 1
-2.3032031167787046e-02 5.4319339023500418e-02 0.0000000000000000e+00 1
-3.8182674775224228e-03 -1.0232979178581876e-02 0.0000000000000000e+00 1
-1.3912549402889859e-01 4.5559209148172422e-02 0.0000000000000000e+00 1
-1.4701468710591539e-01 4.8997911257422568e-02 0.0000000000000000e+00 1
-1.5355380320650289e-01 4.4148488898776136e-02 0.0000000000000000e+00 1
-1.5449935931311634e-01 5.2139413327529305e-02 0.0000000000000000e+00 1
1.0599848848638527e-01 -1.0729853772699928e-01 0.0000000000000000e+00 1
1.0025095720677862e-01 -1.1176469857949391e-01 0.0000000000000000e+00 1
-1.0099263192696591e-01 -5.6332235833936664e-03 0.0000000000000000e+00 1
1.4168859350826213e-01 -6.3572710993835158e-02 0.0000000000000000e+00 1
1.4120186171929172e-01 -5.5596007880036498e-02 0.0000000000000000e+00 1
6.4819445144654611e-02 -2.9586294153963237e-02 0.0000000000000000e+00 1
1.4558970296651191e-01 -3.4885517236527164e-02 0.0000000000000000e+00 1
-1.4523479541275064e-01 2.3142561441525284e-02 0.0000000000000000e+00 1
1.1639815478387174e-01 -1.3858090711100128e-02 0.0000000000000000e+00 1
-3.4837841116617273e-02 7.8921373374269355e-02 0.0000000000000000e+00 1
-4.3442825954451481e-02 7.3139646837172653e-02 0.0000000000000000e+00 1
-4.2382832546681688e-02 6.3048720965721256e-02 0.0000000000000000e+00 1
-5.1801976801140633e-02 6.7439583339152231e-02 0.0000000000000000e+00 1
-5.2915346257049224e-02 7.7485876830583264e-02 0.0000000000000000e+00 1
-6.1129769592941668e-02 7.1783965289772239e-02 0.0000000000000000e+00 1
-6.2207508028253700e-02 8.1696683054668928e-02 0.0000000000000000e+00 1
-7.0366516429777495e-02 7.5977176977431518e-02 0.0000000000000000e+00 1
-7.1402205948875808e-02 8.5820282914110507e-02 0.0000000000000000e+00 1
-7.9413332056344640e-02 8.0188098046540035e-02 0.0000000000000000e+00 1
-8.0486585940316463e-02 8.9653008561199302e-02 0.0000000000000000e+00 1
-8.8325619758503587e-02 8.4175221541412326e-02 0.0000000000000000e+00 1
-8.9427300819760164e-02 9.3388970140523081e-02 0.0000000000000000e+00 1
-9.7007576919061436e-02 8.8188799656473915e-02 0.0000000000000000e+00 1
-1.0569994779181634e-01 3.2606814823735113e-02 0.0000000000000000e+00 1
-4.9961274321483548e-02 5.7519472876905869e-02 0.0000000000000000e+00 1
-1.6068113080151036e-01 4.7749089720915586e-02 0.0000000000000000e+00 1
-1.6170048775243054e-01 5.5158596490101200e-02 0.0000000000000000e+00 1
-1.6874589760543110e-01 5.1210221769049248e-02 0.0000000000000000e+00 1
-1.6880261694305237e-01 5.8856083389227265e-02 0.0000000000000000e+00 1
-1.6288203104344157e-01 6.2502613503227694e-02 0.0000000000000000e+00 1
-1.6965074310584641e-01 6.5260055239341044e-02 0.0000000000000000e+00 1
3.9889957690368918e-02 5.4465996472713468e-02 0.0000000000000000e+00 1
1.4813532896288922e-01 -5.8970716693970221e-02 0.0000000000000000e+00 1
8.3468545065358751e-02 -1.0745619303096499e-01 0.0000000000000000e+00 1
7.5595046713266861e-02 -1.0425352884541984e-01 0.0000000000000000e+00 1
7.3943539958796323e-02 -9.6555522123322135e-02 0.0000000000000000e+00 1
6.7485011114156321e-02 -1.0130117228277269e-01 0.0000000000000000e+00 1
1.0768511296867070e-01 -1.2163006884229502e-01 0.0000000000000000e+00 1
1.0971631861318339e-01 -1.8325602619992040e-02 0.0000000000000000e+00 1
-5.3489313402673745e-02 8.8966342738178480e-02 0.0000000000000000e+00 1
-2.6776462909022164e-02 8.4440353982881716e-02 0.0000000000000000e+00 1
1.1495467651093151e-01 -1.2440138698346433e-01 0.0000000000000000e+00 1
-9.8041232347259061e-02 9.7333834608603176e-02 0.0000000000000000e+00 1
-1.0544535111291393e-01 9.2174828322860475e-02 0.0000000000000000e+00 1
-1.0632942336598288e-01 1.0140496711651201e-01 0.0000000000000000e+00 1
-1.1369045185458072e-01 9.5877841912874642e-02 0.0000000000000000e+00 1
-1.0519800565858752e-01 8.1810897617992942e-02 0.0000000000000000e+00 1
-1.6929468271147796e-01 1.0341079204675577e-01 0.0000000000000000e+00 1
-1.7402551106568478e-01 9.8980639978420173e-02 0.0000000000000000e+00 1
2.2245262469457794e-02 6.4255181563259586e-02 0.0000000000000000e+00 1
-9.7003471093970270e-02 2.8914538344870018e-02 0.0000000000000000e+00 1
1.4069629008435403e-01 2.9545233848391164e-03 0.0000000000000000e+00 1
1.3376482888681968e-01 6.9621894670873112e-03 0.0000000000000000e+00 1
1.4059818519631834e-01 9.7934038993256825e-03 0.0000000000000000e+00 1
4.9958637498526193e-02 -4.0447960550009147e-02 0.0000000000000000e+00 1
5.9091615115980559e-02 -4.3598279373457144e-02 0.0000000000000000e+00 1
1.3503090139654583e-01 1.3309749869534319e-02 0.0000000000000000e+00 1
1.4337175906120436e-01 -7.2206426202147483e-02 0.0000000000000000e+00 1
-1.6042911802169907e-01 3.9737462750609381e-02 0.0000000000000000e+00 1
-7.3734147861098401e-02 9.5868026264659068e-02 0.0000000000000000e+00 1
-8.7518398506657130e-02 7.4527495164930818e-02 0.0000000000000000e+00 1
1.4515350149616010e-01 -2.6856058966166205e-02 0.0000000000000000e+00 1
-1.4020322838345506e-01 5.4049392131967078e-02 0.0000000000000000e+00 1
1.4774431870466317e-01 -4.2901992910035394e-02 0.0000000000000000e+00 1
9.2299807599567504e-02 -1.1106630811761838e-01 0.0000000000000000e+00 1
2.3601280975710067e-02 -3.0112640151288356e-02 0.0000000000000000e+00 1
2.2619492107626569e-02 -2.0481456839850618e-02 0.0000000000000000e+00 1
1.5126743675978400e-02 -2.7397642936198979e-02 0.0000000000000000e+00 1
1.3513847087364586e-01 -7.7299503411808149e-02 0.0000000000000000e+00 1
1.4239334508025597e-01 -8.0630150703996747e-02 0.0000000000000000e+00 1
1.2841676466742591e-01 -7.3644459274860630e-02 0.0000000000000000e+00 1
-1.7832878881491171e-01 8.2549618481200127e-02 0.0000000000000000e+00 1
-1.7896219866901689e-01 7.5398669930357765e-02 0.0000000000000000e+00 1
-1.7180059536232972e-01 7.2819262874259300e-02 0.0000000000000000e+00 1
-1.7862455308121952e-01 8.8753924091042283e-02 0.0000000000000000e+00 1
1.0392423693717323e-01 -3.8284503695984864e-02 0.0000000000000000e+00 1
1.0478469162721778e-01 -4.6881183552961656e-02 0.0000000000000000e+00 1
-1.3302629764797689e-02 -6.0926085320163713e-03 0.0000000000000000e+00 1
2.5759910172208338e-03 7.2132106206073715e-02 0.0000000000000000e+00 1
-1.7346887350712639e-01 9.2418576504923092e-02 0.0000000000000000e+00 1
1.4027633291770591e-01 -4.7191375642981745e-02 0.0000000000000000e+00 1
1.3146913142086999e-01 -1.1125494196285940e-01 0.0000000000000000e+00 1
1.3771333813025646e-01 -1.0684614600145578e-01 0.0000000000000000e+00 1
1.3192769712665378e-01 -1.1801175284405008e-01 0.0000000000000000e+00 1
1.2700531524664760e-01 -1.2182060846480466e-01 0.0000000000000000e+00 1
1.2071192393421966e-01 -1.1956174332443312e-01 0.0000000000000000e+00 1
1.2212478495336995e-01 -1.2525077892917857e-01 0.0000000000000000e+00 1
1.2872759058343505e-01 -1.2806106548241100e-01 0.0000000000000000e+00 1
7.5217546534052139e-03 -3.4451428117853122e-02 0.0000000000000000e+00 1
1.3673487236274431e-01 -9.9398834978733669e-02 0.0000000000000000e+00 1
7.3350463245184599e-02 4.6427377730753699e-02 0.0000000000000000e+00 1
1.4251641169904400e-01 -1.1207734093290012e-02 0.0000000000000000e+00 1
1.4311073538690799e-01 -1.8860320183001517e-02 0.0000000000000000e+00 1
1.3762521319377774e-01 -2.3538623022725906e-02 0.0000000000000000e+00 1
-1.4776448593658781e-01 5.7128260210244836e-02 0.0000000000000000e+00 1
-1.1323892127282967e-01 8.7563575814807421e-02 0.0000000000000000e+00 1
-1.2111223934950978e-01 9.1497459233222056e-02 0.0000000000000000e+00 1
-1.2166013408584991e-01 9.9555315382202150e-02 0.0000000000000000e+00 1
-1.2870383247016962e-01 9.5042923485277764e-02 0.0000000000000000e+00 1
-1.2948047663955575e-01 1.0248202692454986e-01 0.0000000000000000e+00 1
-1.3596703456684661e-01 9.8286143926229599e-02 0.0000000000000000e+00 1
-1.3687275914392730e-01 1.0567599807868483e-01 0.0000000000000000e+00 1
-1.4399870248269356e-01 1.0146348303660335e-01 0.0000000000000000e+00 1
-1.4389638762389834e-01 1.0929931114198957e-01 0.0000000000000000e+00 1
-1.2344372336743420e-01 1.0815956082399943e-01 0.0000000000000000e+00 1
-1.4239097224952252e-01 9.3788978603669554e-02 0.0000000000000000e+00 1
-6.8687480338507342e-02 6.5915265898113223e-02 0.0000000000000000e+00 1
8.3110596016669258e-02 3.2879914619540901e-02 0.0000000000000000e+00 1
9.1319653125477934e-02 2.8995084428493967e-02 0.0000000000000000e+00 1
9.1907449733031776e-02 1.9831379063463411e-02 0.0000000000000000e+00 1
8.9896913021120822e-02 3.8443930661107142e-02 0.0000000000000000e+00 1
9.9384521729172726e-02 2.4958880125781888e-02 0.0000000000000000e+00 1
6.8838104934210109e-02 1.3064493896978288e-02 0.0000000000000000e+00 1
7.6916510778667957e-02 8.9480896606604805e-03 0.0000000000000000e+00 1
6.9380149666976504e-02 3.5464837402740799e-03 0.0000000000000000e+00 1
6.8804579079606035e-02 -1.0994950989602841e-01 0.0000000000000000e+00 1
1.1056308858266167e-01 -9.5534532225041671e-02 0.0000000000000000e+00 1
8.7752808642575370e-02 -8.6403989663501310e-02 0.0000000000000000e+00 1
8.4102754189998907e-02 -1.1523641013708635e-01 0.0000000000000000e+00 1
9.2487639905017252e-02 -1.1926170991998770e-01 0.0000000000000000e+00 1
6.3830288262316431e-02 -2.0322216142984639e-02 0.0000000000000000e+00 1
1.5291919138229343e-01 -3.6847621968138483e-02 0.0000000000000000e+00 1
1.1504371629492054e-01 -7.4899520084541704e-02 0.0000000000000000e+00 1
-1.1627315207512359e-01 5.1305316022397449e-02 0.0000000000000000e+00 1
9.8303424159922673e-02 3.4204920143445769e-02 0.0000000000000000e+00 1
1.0633388532345858e-01 3.0170643845373889e-02 0.0000000000000000e+00 1
5.5361938854902606e-02 -1.6756540669096581e-02 0.0000000000000000e+00 1
-9.5954503704775249e-02 7.8293773578061068e-02 0.0000000000000000e+00 1
-1.4175725051797611e-01 8.6190876172052094e-02 0.0000000000000000e+00 1
-1.5552171735008230e-01 6.1073189386740015e-02 0.0000000000000000e+00 1
-1.5432816373973532e-01 6.7826903174654479e-02 0.0000000000000000e+00 1
1.2302333488406517e-01 -9.6029752515570874e-03 0.0000000000000000e+00 1
1.2217980166323497e-01 -2.4640236421755654e-03 0.0000000000000000e+00 1
-1.1034402161684759e-01 7.4756127825701790e-02 0.0000000000000000e+00 1
-1.2420403221050953e-01 5.5036391318032486e-02 0.0000000000000000e+00 1
-1.3144096863694507e-01 5.0074133742852134e-02 0.0000000000000000e+00 1
1.3295035010121253e-01 -1.2404929611283456e-01 0.0000000000000000e+00 1
1.3716408143132838e-01 -1.2031744774511363e-01 0.0000000000000000e+00 1
-1.2697412334460018e-01 7.9971961072963740e-02 0.0000000000000000e+00 1
-9.9466441243761167e-02 4.3315113930590572e-02 0.0000000000000000e+00 1
1.4289783654710972e-01 -8.8129091306634974e-02 0.0000000000000000e+00 1
9.5036781499677508e-02 -2.5228767323821819e-02 0.0000000000000000e+00 1
1.0302139748613511e-01 -2.9630970329793387e-02 0.0000000000000000e+00 1
-3.2750739992780629e-02 5.8802117129115095e-02 0.0000000000000000e+00 1
-1.0922658626315865e-01 -1.5265969215641541e-03 0.0000000000000000e+00 1
-1.1899811941242637e-01 1.4305600327023504e-03 0.0000000000000000e+00 1
-8.1110959426481000e-02 3.4112347612120252e-02 0.0000000000000000e+00 1
-7.9751446420929045e-02 2.3862264301911771e-02 0.0000000000000000e+00 1
-7.0781563938569061e-02 1.9804468355923501e-02 0.0000000000000000e+00 1
-1.1437100843361134e-01 3.6026693848164495e-02 0.0000000000000000e+00 1
-1.5253663039202248e-01 3.6349245865983995e-02 0.0000000000000000e+00 1
-1.3979202817191269e-01 6.2278266420464495e-02 0.0000000000000000e+00 1
-1.1974466648917932e-01 1.1950627051499583e-02 0.0000000000000000e+00 1
9.2990166252014339e-02 -7.3352812953758395e-02 0.0000000000000000e+00 1
-1.3609209392152660e-01 2.0259805790630192e-02 0.0000000000000000e+00 1
9.4196979555444177e-02 -1.6649845974569675e-02 0.0000000000000000e+00 1
-1.3237258375467425e-02 4.9911870011650546e-02 0.0000000000000000e+00 1
-5.3452659479515829e-02 2.1532391572539712e-02 0.0000000000000000e+00 1
-5.2417405965416920e-02 1.1259592460469068e-02 0.0000000000000000e+00 1
-4.3064785941938945e-02 7.0865497880481651e-03 0.0000000000000000e+00 1
1.0832635986675961e-01 -5.3072363811776987e-03 0.0000000000000000e+00 1
5.5034505926333105e-03 4.1049020449733430e-02 0.0000000000000000e+00 1
1.3383760929178373e-01 -5.2156470757642209e-02 0.0000000000000000e+00 1
-7.7632704124293614e-02 1.2308510117785682e-02 0.0000000000000000e+00 1
4.1081669502406923e-02 -3.7193937625461568e-02 0.0000000000000000e+00 1
3.3845085421225218e-02 -4.3468638503207389e-02 0.0000000000000000e+00 1
-9.2313950205380801e-02 -9.7723371544018028e-03 0.0000000000000000e+00 1
-7.4139040172237144e-02 -1.8356255562165778e-02 0.0000000000000000e+00 1
-7.3095354990841716e-02 -2.8651838876523346e-02 0.0000000000000000e+00 1
-6.3444242402874232e-02 -3.2218610562634975e-02 0.0000000000000000e+00 1
-7.0332524877011249e-02 -3.8434667963436128e-02 0.0000000000000000e+00 1
-8.3066188066518915e-02 -2.5152900997983760e-02 0.0000000000000000e+00 1
-3.0453048470588162e-02 -8.3606493862682027e-03 0.0000000000000000e+00 1
-3.1741711647266753e-02 2.0196936056019335e-03 0.0000000000000000e+00 1
-3.4030867008468690e-02 1.2257771914996737e-02 0.0000000000000000e+00 1
9.6102417697995351e-02 4.4919475292965576e-02 0.0000000000000000e+00 1
-1.7937637449337149e-01 9.5162751834136639e-02 0.0000000000000000e+00 1
-5.5239752160333083e-02 -2.6469390921996322e-02 0.0000000000000000e+00 1
-5.3996690764340501e-02 -3.6336788987864500e-02 0.0000000000000000e+00 1
-4.4641114085352540e-02 -4.0759995999845623e-02 0.0000000000000000e+00 1
-5.3870029237311531e-02 -4.6880757697810173e-02 0.0000000000000000e+00 1
-3.6366212584668753e-02 -3.4936692099484343e-02 0.0000000000000000e+00 1
-3.5140089796630941e-02 -4.4921874723208334e-02 0.0000000000000000e+00 1
1.5005165254405421e-02 3.6940572292449743e-02 0.0000000000000000e+00 1
1.6102634307394288e-02 2.7433545075230686e-02 0.0000000000000000e+00 1
3.3458047127811030e-02 -1.0018409554755864e-01 0.0000000000000000e+00 1
3.2509721872746158e-02 -9.0489604129773693e-02 0.0000000000000000e+00 1
2.3520725811478408e-02 -8.6810262445306277e-02 0.0000000000000000e+00 1
4.1197086985001179e-02 -9.4592559698427350e-02 0.0000000000000000e+00 1
4.9825493428173551e-02 -9.8438364672453996e-02 0.0000000000000000e+00 1
4.8535303638076954e-02 -8.8940889352995225e-02 0.0000000000000000e+00 1
5.0962940330887087e-02 -1.0778672421885027e-01 0.0000000000000000e+00 1
5.8315398559206519e-02 -1.0223203815421743e-01 0.0000000000000000e+00 1
5.6914806428447304e-02 -9.2015631852973873e-02 0.0000000000000000e+00 1
-6.3968860140414266e-02 9.2259533594148596e-02 0.0000000000000000e+00 1
-4.8114254260651815e-02 9.7879839365841811e-02 0.0000000000000000e+00 1
1.5583623753853909e-02 -9.2241779548184771e-02 0.0000000000000000e+00 1
1.4989428013868572e-01 -7.8033698064777765e-02 0.0000000000000000e+00 1
6.1254991543813780e-02 5.9894843496643313e-02 0.0000000000000000e+00 1
5.4565974455051409e-02 5.3890766787040037e-02 0.0000000000000000e+00 1
6.3796050262689960e-02 5.0143789440087433e-02 0.0000000000000000e+00 1
-2.1096765304859356e-02 -1.2486581517830386e-02 0.0000000000000000e+00 1
-4.4046567135345827e-02 8.2844259579076013e-02 0.0000000000000000e+00 1
4.1955352805982483e-02 6.5717890586318592e-02 0.0000000000000000e+00 1
-2.9017088083639470e-02 3.9276578286054860e-02 0.0000000000000000e+00 1
-2.8515479738346425e-03 -8.3019926311021286e-02 0.0000000000000000e+00 1
-3.2573225978669643e-03 -7.2934544958349112e-02 0.0000000000000000e+00 1
-1.1182183263096817e-02 -6.8084916787275768e-02 0.0000000000000000e+00 1
-2.0610762946755231e-02 -7.1146779965462981e-02 0.0000000000000000e+00 1
-9.6994306779810847e-03 3.1247252260645376e-02 0.0000000000000000e+00 1
-9.3328103065815654e-02 6.7097065052479393e-02 0.0000000000000000e+00 1
5.2663827956487635e-02 -5.6219211342717665e-02 0.0000000000000000e+00 1
-2.6924317102518872e-02 -3.8931498746382118e-02 0.0000000000000000e+00 1
-2.5700351218068108e-02 -4.9143328747424525e-02 0.0000000000000000e+00 1
-3.3010127913663728e-02 -5.5979845413027668e-02 0.0000000000000000e+00 1
-2.4372065640342552e-02 -5.9451351507649089e-02 0.0000000000000000e+00 1
-1.2735356445615958e-01 6.9546897470729660e-03 0.0000000000000000e+00 1
-6.2750909371577207e-02 2.5795498605218407e-02 0.0000000000000000e+00 1
-1.2223921400159329e-01 -8.2331761354905719e-03 0.0000000000000000e+00 1
2.2005874593331205e-02 7.4959205833591516e-02 0.0000000000000000e+00 1
3.1649881331845972e-02 6.0220244263643648e-02 0.0000000000000000e+00 1
3.5970964999027577e-02 9.8329041286031871e-03 0.0000000000000000e+00 1
1.3021639867999901e-01 -9.6971971672794241e-02 0.0000000000000000e+00 1
-1.0008891021603589e-01 -1.5116997031751192e-02 0.0000000000000000e+00 1
1.1163960082725156e-01 3.7100331249291442e-02 0.0000000000000000e+00 1
8.4385976689709902e-02 1.4458770905420689e-02 0.0000000000000000e+00 1
1.3296876768034466e-01 -4.4060449150049474e-02 0.0000000000000000e+00 1
3.3430351682107340e-02 2.8833645395527623e-02 0.0000000000000000e+00 1
-1.6288889804905778e-02 -5.3086016513707292e-02 0.0000000000000000e+00 1
6.8893617308382921e-02 -6.2938640387986675e-02 0.0000000000000000e+00 1
6.8441979167530184e-02 -5.4687351641006798e-02 0.0000000000000000e+00 1
-9.5703629493550560e-02 2.0090270465613687e-02 0.0000000000000000e+00 1
1.4654608412467271e-01 9.9719540754697678e-05 0.0000000000000000e+00 1
1.2348668048490233e-01 -1.3427032339964556e-01 0.0000000000000000e+00 1
-8.6276772126845036e-02 1.0787313751064616e-01 0.0000000000000000e+00 1
1.2324071270584928e-02 6.8045134879766156e-02 0.0000000000000000e+00 1
2.3627403306113251e-03 -6.0877331385485033e-02 0.0000000000000000e+00 1
-1.3753251361837807e-01 1.1351847369924013e-01 0.0000000000000000e+00 1
-1.4893383667958895e-01 1.5542708381418833e-02 0.0000000000000000e+00 1
3.0348162431383361e-02 -1.4809766473999675e-02 0.0000000000000000e+00 1
2.0681834025859241e-02 -6.8307937738035021e-02 0.0000000000000000e+00 1
1.3077355659215237e-02 -7.3369805589371367e-02 0.0000000000000000e+00 1
1.1348373786019697e-01 -1.3097614306829850e-01 0.0000000000000000e+00 1
-9.1551904645552559e-02 -1.9678945167931509e-02 0.0000000000000000e+00 1
-6.1423638760959881e-02 1.5442917323979344e-02 0.0000000000000000e+00 1
4.4843921102341006e-02 5.7820470100917636e-03 0.0000000000000000e+00 1
5.8245614933825754e-02 3.5459810521785914e-02 0.0000000000000000e+00 1
-1.0592867952593074e-01 1.1007909762940309e-01 0.0000000000000000e+00 1
1.1761814146179633e-01 -2.9532590205074587e-02 0.0000000000000000e+00 1
3.8518039551845983e-02 -7.5806613107151338e-02 0.0000000000000000e+00 1
9.7853971418336128e-02 -5.1654656864571935e-02 0.0000000000000000e+00 1
1.1241574957457530e-01 -5.0388491684386014e-02 0.0000000000000000e+00 1
1.2795697065816386e-01 2.0226763158644992e-03 0.0000000000000000e+00 1
1.2204112911699562e-01 -7.8310608868124104e-02 0.0000000000000000e+00 1
1.2131276846639198e-01 -7.0052697815527545e-02 0.0000000000000000e+00 1
5.5567690216863280e-02 -8.2889808597325143e-02 0.0000000000000000e+00 1
1.0663222153316965e-01 -1.2846959135444069e-01 0.0000000000000000e+00 1
-1.5305095668702294e-03 -3.0735400651576740e-02 0.0000000000000000e+00 1
1.5189173241752402e-01 -4.0909018410983863e-03 0.0000000000000000e+00 1
7.7267773766924480e-02 -7.7049377642172262e-04 0.0000000000000000e+00 1
-1.5558620454505254e-01 9.1352078866550973e-02 0.0000000000000000e+00 1
-1.3634123989785726e-01 3.7540269042820413e-03 0.0000000000000000e+00 1
1.0223289036642651e-01 -2.0957294604034990e-02 0.0000000000000000e+00 1
1.1121835285433672e-01 2.3414739815660432e-02 0.0000000000000000e+00 1
-1.6386593458759424e-01 1.0682774980253025e-01 0.0000000000000000e+00 1
-1.5953927680320310e-01 1.0927415643009604e-01 0.0000000000000000e+00 1
9.4357829070807975e-02 -8.1584428739742240e-02 0.0000000000000000e+00 1
1.2470814917929118e-01 3.0729045119114021e-02 0.0000000000000000e+00 1
8.4434721589135550e-02 4.0602232122511324e-03 0.0000000000000000e+00 1
7.6099272357579656e-02 -5.8115076260456103e-02 0.0000000000000000e+00 1
1.4497578311521805e-01 -1.0643284305267750e-01 0.0000000000000000e+00 1
9.8289704499404676e-02 1.3610869671365496e-02 0.0000000000000000e+00 1
1.0565992234665411e-01 -5.5187674169004844e-02 0.0000000000000000e+00 1
-4.8140417976121092e-02 4.7479962098042727e-02 0.0000000000000000e+00 1
9.6952983331155734e-02 -4.3053645017132394e-02 0.0000000000000000e+00 1
-1.5280209410378107e-01 2.8942868800484235e-02 0.0000000000000000e+00 1
1.0114357064955723e-01 -1.1881660931463314e-01 0.0000000000000000e+00 1
4.9436364537889070e-03 -1.3826961220603536e-02 0.0000000000000000e+00 1
-1.7290360643113234e-01 4.5245683047237889e-02 0.0000000000000000e+00 1
2.1476475595484500e-02 -1.0910936345270225e-02 0.0000000000000000e+00 1
-9.1596090645257949e-02 -3.0858117332469095e-02 0.0000000000000000e+00 1
-1.6636710867390483e-01 7.6676419241712909e-02 0.0000000000000000e+00 1
-5.8786502771885629e-02 3.6956373464904933e-03 0.0000000000000000e+00 1
3.2474151555547479e-03 -3.2845264545403054e-03 0.0000000000000000e+00 1
1.5348691782148124e-01 -1.8049505337636523e-02 0.0000000000000000e+00 1
1.7828003083038193e-03 8.2575306214787092e-02 0.0000000000000000e+00 1
-1.6489196478049789e-01 3.3396267207521119e-02 0.0000000000000000e+00 1
4.3765384911988919e-02 1.5305741300075332e-02 0.0000000000000000e+00 1
1.4911017660467718e-01 -9.2678959920582449e-02 0.0000000000000000e+00 1
-1.7088577980433214e-02 8.0400581677765925e-02 0.0000000000000000e+00 1
8.6140897620720330e-02 -7.8317394926571526e-02 0.0000000000000000e+00 1
1.1193764471844964e-01 -1.0290767436066919e-01 0.0000000000000000e+00 1
7.2188044386128761e-02 -2.3408208200443328e-02 0.0000000000000000e+00 1
-4.9718550654269875e-02 -9.3461811903733540e-05 0.0000000000000000e+00 1
-1.1489906015056144e-01 1.0428052100293482e-01 0.0000000000000000e+00 1
-5.7760099121623252e-03 3.9908746303771522e-04 0.0000000000000000e+00 1
1.1807873034672153e-01 2.6657284502577375e-02 0.0000000000000000e+00 1
4.0003723788729378e-02 -8.5296799873357504e-02 0.0000000000000000e+00 1
1.1062217103461257e-01 -2.6075304740392186e-02 0.0000000000000000e+00 1
-1.7711810203513936e-01 6.9188838853794093e-02 0.0000000000000000e+00 1
-1.7542298457252109e-01 6.1995692229303664e-02 0.0000000000000000e+00 1
1.4722320907360129e-01 -5.0954904992442311e-02 0.0000000000000000e+00 1
-4.0569797334440966e-02 -6.2507630460243990e-02 0.0000000000000000e+00 1
7.5393620509350001e-02 -4.9597344190688765e-02 0.0000000000000000e+00 1
7.2975601613508911e-02 -3.2659543859870625e-02 0.0000000000000000e+00 1
-2.2720961691797801e-02 -1.9181857362756580e-03 0.0000000000000000e+00 1
-7.7759516988858107e-02 6.9888101069575922e-02 0.0000000000000000e+00 1
1.0459535585991955e-01 -9.9942362530906478e-02 0.0000000000000000e+00 1
-6.7617935919813479e-02 1.0308040281418009e-01 0.0000000000000000e+00 1
6.6168481765067871e-02 -3.8156935629330216e-02 0.0000000000000000e+00 1
-2.4513750749598752e-02 8.6109671578065046e-03 0.0000000000000000e+00 1
8.1558415778206952e-02 4.2576208715827416e-02 0.0000000000000000e+00 1
-1.7646524931672972e-01 5.1197159563624875e-02 0.0000000000000000e+00 1
1.4497094695677867e-01 -1.1224762982233459e-01 0.0000000000000000e+00 1
-1.4926159512007003e-01 9.5854171251212844e-02 0.0000000000000000e+00 1
3.1202424926409740e-02 -8.1402136486379936e-02 0.0000000000000000e+00 1
1.4627180113914845e-01 1.1504870043319260e-02 0.0000000000000000e+00 1
-1.8438463913621783e-01 8.5755215079960229e-02 0.0000000000000000e+00 1
-1.3542077304201361e-01 9.0712469764562570e-02 0.0000000000000000e+00 1
3.4560895361695709e-02 1.9302185318350269e-02 0.0000000000000000e+00 1
1.3669492111130341e-01 -1.1403757394512024e-01 0.0000000000000000e+00 1
-1.8160650603022899e-01 6.3339296604716988e-02 0.0000000000000000e+00 1
2.2216607350878360e-02 -7.7515928621256225e-02 0.0000000000000000e+00 1
-1.5393359307596194e-01 1.0808721867492856e-01 0.0000000000000000e+00 1
9.8347916290872472e-02 -1.0497804046980297e-01 0.0000000000000000e+00 1
-1.3121832452335269e-01 4.2133912048091984e-02 0.0000000000000000e+00 1
-7.5954870736252025e-02 5.9757514359917975e-02 0.0000000000000000e+00 1
-1.8522649298656776e-01 7.4453032123088084e-02 0.0000000000000000e+00 1
8.0582827828736631e-02 -9.1547096327411329e-02 0.0000000000000000e+00 1
-7.3699228891950762e-03 7.6084555397994691e-02 0.0000000000000000e+00 1
2.5445326907997418e-02 2.3260972379685663e-02 0.0000000000000000e+00 1
-8.8311266906754782e-02 2.7590535635735550e-02 0.0000000000000000e+00 1
-1.0811444091583960e-01 -1.9581837558752320e-02 0.0000000000000000e+00 1
8.0052777780204351e-02 5.2385208635559899e-02 0.0000000000000000e+00 1
1.3786775888003663e-01 1.9113351588086282e-02 0.0000000000000000e+00 1
1.5363240768467751e-01 -6.3397345368918542e-02 0.0000000000000000e+00 1
1.4253152219606127e-01 -9.5544598360421257e-02 0.0000000000000000e+00 1
1.2059092713684930e-01 4.6675008383651150e-03 0.0000000000000000e+00 1
-1.6515010550002737e-01 6.9641940104805025e-02 0.0000000000000000e+00 1
1.7463077841827979e-02 1.7986445553939370e-02 0.0000000000000000e+00 1
-5.9302753546773009e-02 6.1470398340401029e-02 0.0000000000000000e+00 1
1.3754856307223732e-02 -1.7483590288618900e-02 0.0000000000000000e+00 1
-1.4506397973780405e-01 1.1525401146139252e-01 0.0000000000000000e+00 1
-4.3069775052048828e-02 -5.0695686406478542e-02 0.0000000000000000e+00 1
2.5255884332637042e-02 -4.2273280926322335e-02 0.0000000000000000e+00 1
-1.3550448240191831e-01 1.2206375396719513e-02 0.0000000000000000e+00 1
1.4203713133818914e-02 -8.2531820008969942e-02 0.0000000000000000e+00 1
7.2319162196958442e-02 -8.8681041512587322e-02 0.0000000000000000e+00 1
6.2128708926021351e-03 -2.4095392228732547e-02 0.0000000000000000e+00 1
8.2362286232621207e-03 2.2307948250458547e-02 0.0000000000000000e+00 1
1.5416377348202653e-01 -5.5100777176976444e-02 0.0000000000000000e+00 1
-1.5535424481590568e-01 2.1041117792088823e-02 0.0000000000000000e+00 1
5.0804239304808145e-03 -7.7968509015703111e-02 0.0000000000000000e+00 1
-8.2722000018133027e-02 9.8760784409148261e-02 0.0000000000000000e+00 1
-1.8746645539207640e-02 9.0167835892673881e-02 0.0000000000000000e+00 1
-4.0625931027080640e-02 5.3498419237927308e-02 0.0000000000000000e+00 1
-5.7517159467716711e-02 5.1533583297867350e-02 0.0000000000000000e+00 1
-1.7307172604953142e-01 1.0777629338612400e-01 0.0000000000000000e+00 1
7.1671405279301968e-03 3.1696342087074274e-02 0.0000000000000000e+00 1
-1.2796241670532993e-01 8.7425303642957877e-02 0.0000000000000000e+00 1
6.5432321590120773e-02 -9.3809730515373169e-02 0.0000000000000000e+00 1
-2.1015646271543135e-03 3.5969709579506376e-02 0.0000000000000000e+00 1
-1.2433787058709481e-01 4.6950151356228507e-02 0.0000000000000000e+00 1
1.3793612447782744e-01 -1.2543488946265435e-01 0.0000000000000000e+00 1
-1.1510217461259882e-02 4.0348088954994810e-02 0.0000000000000000e+00 1
-1.2237387347510703e-01 1.1537810672923852e-01 0.0000000000000000e+00 1
-3.0817724495503580e-02 4.8946901596562301e-02 0.0000000000000000e+00 1
-1.8446289478443204e-01 9.5936619532816625e-02 0.0000000000000000e+00 1
-2.1063894306844945e-02 4.4548382965169754e-02 0.0000000000000000e+00 1
1.4564726086535268e-01 1.6330965421881991e-02 0.0000000000000000e+00 1
1.4095358155741106e-01 1.4999722750592057e-02 0.0000000000000000e+00 1
-1.8070352485167274e-01 1.0313958886322244e-01 0.0000000000000000e+00 1
-5.8592574461414686e-02 -5.4806259665908713e-02 0.0000000000000000e+00 1
-2.8748983015902625e-02 9.3445468609378496e-02 0.0000000000000000e+00 1
6.7405150989747600e-02 -4.6504419728088386e-02 0.0000000000000000e+00 1
1.5079056111280123e-01 -3.1420887223300435e-02 0.0000000000000000e+00 1
5.6765259884334507e-02 4.4415039844471677e-02 0.0000000000000000e+00 1
-1.0780230742592001e-01 -1.0625094840593853e-02 0.0000000000000000e+00 1
1.1617667961278047e-01 -7.1747765117667981e-03 0.0000000000000000e+00 1
1.4063858360789858e-01 2.2728761462795219e-02 0.0000000000000000e+00 1
-1.6330221006310688e-01 1.1247545883089961e-01 0.0000000000000000e+00 1
1.4221709038098826e-01 -1.0131425785989102e-01 0.0000000000000000e+00 1
4.0503445272978000e-03 -6.9073716440670924e-02 0.0000000000000000e+00 1
1.4864117306262217e-01 -2.1559977345529724e-02 0.0000000000000000e+00 1
1.1310717079059639e-01 3.0288183838988791e-02 0.0000000000000000e+00 1
-1.1589649808870534e-01 4.3361898201933230e-02 0.0000000000000000e+00 1
-1.2058353277442926e-01 8.4027130781589354e-02 0.0000000000000000e+00 1
-9.1798917622314513e-02 1.0171156655476177e-01 0.0000000000000000e+00 1
8.3980528028486018e-02 -1.2228913407469739e-01 0.0000000000000000e+00 1
1.4779679888569536e-01 -6.6015637694944493e-02 0.0000000000000000e+00 1
-1.4901469798831496e-01 1.0684039173655605e-01 0.0000000000000000e+00 1
6.0123859200214270e-02 -5.1418912677919065e-02 0.0000000000000000e+00 1
1.3206360336074988e-01 -1.3211179688501645e-01 0.0000000000000000e+00 1
9.0844672402808635e-02 -1.2541758511420156e-01 0.0000000000000000e+00 1
7.7465273291549314e-02 -1.1098620883248499e-01 0.0000000000000000e+00 1
6.6995298827540822e-02 -1.1680278058452620e-01 0.0000000000000000e+00 1
-6.1508984154812055e-02 -4.0331044320384563e-02 0.0000000000000000e+00 1
-3.8923019803221537e-03 -6.5323060102430053e-02 0.0000000000000000e+00 1
-3.5922909759149732e-02 8.7642557216315004e-02 0.0000000000000000e+00 1
4.8013323610146957e-02 4.9104472577785538e-02 0.0000000000000000e+00 1
-1.7382533471916067e-01 5.6097372302895888e-02 0.0000000000000000e+00 1
-1.6041222568069721e-02 -6.1952090076717529e-02 0.0000000000000000e+00 1
1.4757824153390647e-01 -1.4367111407635450e-02 0.0000000000000000e+00 1
-1.6625635243373710e-01 4.4867790105295104e-02 0.0000000000000000e+00 1
1.4667890763877697e-01 -7.2820455516512169e-03 0.0000000000000000e+00 1
1.1046676272130562e-01 -1.1511707535748168e-02 0.0000000000000000e+00 1
-1.0744946552135973e-01 3.9606369662631521e-02 0.0000000000000000e+00 1
-1.6002351553901789e-01 6.7443552574985993e-02 0.0000000000000000e+00 1
-1.4213455955492174e-01 1.6591284480416267e-02 0.0000000000000000e+00 1
5.1091508087712179e-02 -4.8185090817851189e-02 0.0000000000000000e+00 1
1.5183994335058681e-01 1.3536925183860915e-03 0.0000000000000000e+00 1
-1.5788092048028782e-01 1.1413024721049221e-01 0.0000000000000000e+00 1
-1.5836530816017366e-01 3.3551669853124133e-02 0.0000000000000000e+00 1
-1.7779309837242058e-01 1.0088771113411146e-01 0.0000000000000000e+00 1
4.7320661474502819e-02 5.7397433326811444e-02 0.0000000000000000e+00 1
4.2178958602484787e-02 -4.5159848317723260e-02 0.0000000000000000e+00 1
1.2367429537258712e-01 -1.3005946103350485e-01 0.0000000000000000e+00 1
1.1820101374783085e-01 -1.2828429302378902e-01 0.0000000000000000e+00 1
-7.5786123020775475e-02 -4.4623068095815663e-02 0.0000000000000000e+00 1
1.4102337975803000e-01 -1.2223009004253718e-01 0.0000000000000000e+00 1
-9.9747176886759298e-02 3.5936308458241160e-02 0.0000000000000000e+00 1
-1.3129029576730611e-01 1.0849259788615907e-01 0.0000000000000000e+00 1
-1.7423423287483963e-01 1.0333170073343086e-01 0.0000000000000000e+00 1
-1.0014211947545076e-01 1.0399931435190428e-01 0.0000000000000000e+00 1
1.4440005448314594e-01 6.5329375294832497e-03 0.0000000000000000e+00 1
3.6857112401337960e-02 -5.0159007158787884e-02 0.0000000000000000e+00 1
1.0554026720774551e-01 2.4236868720835431e-02 0.0000000000000000e+00 1
6.3466998999296129e-02 -1.0622055257968875e-01 0.0000000000000000e+00 1
1.5567611166667497e-01 -3.1830401772390070e-02 0.0000000000000000e+00 1
1.4064028682871479e-01 -1.1108979611372516e-01 0.0000000000000000e+00 1
-1.1323085281154543e-01 8.0646359366871812e-02 0.0000000000000000e+00 1
1.5532869744899247e-01 -4.2159758860483204e-02 0.0000000000000000e+00 1
-1.1455852354013658e-01 -6.9157347627399595e-03 0.0000000000000000e+00 1
1.2984577418832943e-01 1.2973266383470228e-02 0.0000000000000000e+00 1
9.6545493840230145e-02 -1.1522733148293327e-01 0.0000000000000000e+00 1
-4.4382007032509434e-02 9.0921962648175148e-02 0.0000000000000000e+00 1

Edges
119
1 2 1
2 3 1
3 4 1
4 5 1
5 6 1
6 7 1
7 8 1
8 9 1
9 10 1
10 11 1
11 12 1
12 13 1
13 14 1
14 15 1
15 16 1
16 17 1
17 18 1
18 19 1
19 20 1
20 21 1
21 22 1
22 23 1
23 24 1
24 25 1
25 26 1
26 27 1
27 28 1
28 29 1
29 30 1
30 31 1
31 32 1
32 33 1
33 34 1
34 35 1
35 36 1
36 37 1
37 38 1
38 39 1
39 40 1
40 41 1
41 42 1
42 43 1
43 44 1
44 45 1
45 46 1
46 47 1
47 48 1
48 49 1
49 50 1
50 51 1
51 52 1
52 53 1
53 54 1
54 55 1
55 56 1
56 57 1
57 58 1
58 59 1
59 60 1
60 61 1
61 62 1
62 63 1
63 64 1
64 65 1
65 66 1
66 67 1
67 68 1
68 69 1
69 70 1
70 71 1
71 72 1
72 73 1
73 74 1
74 75 1
75 76 1
76 77 1
77 78 1
78 79 1
79 80 1
80 81 1
81 82 1
82 83 1
83 84 1
84 85 1
85 86 1
86 87 1
87 88 1
88 89 1
89 90 1
90 91 1
91 92 1
92 93 1
93 94 1
94 95 1
95 96 1
96 97 1
97 98 1
98 99 1
99 100 1
100 101 1
101 102 1
102 103 1
103 104 1
104 105 1
105 106 1
106 107 1
107 108 1
108 109 1
109 110 1
110 111 1
111 112 1
112 113 1
113 114 1
114 115 1
115 116 1
116 117 1
117 118 1
118 119 1
119 1 1

Triangles
1705
466 543 822 1
572 279 607 1
693 686 879 1
607 279 608 1
168 550 805 1
2 171 711 1
515 143 734 1
74 75 795 1
144 565 870 1
125 686 693 1
525 140 835 1
290 524 611 1
121 603 702 1
549 142 550 1
522 725 772 1
524 290 605 1
366 589 749 1
550 142 805 1
517 135 672 1
143 515 754 1
709 423 809 1
335 516 883 1
589 587 749 1
581 146 868 1
516 335 740 1
135 517 673 1
550 168 777 1
509 681 698 1
780 692 821 1
339 543 545 1
273 291 608 1
725 163 772 1
543 339 822 1
279 572 629 1
160 780 821 1
428 738 792 1
716 485 829 1
485 753 829 1
720 519 734 1
121 602 603 1
339 545 566 1
14 15 675 1
146 581 820 1
161 646 649 1
672 135 786 1
537 672 786 1
519 515 734 1
748 560 907 1
508 551 777 1
580 471 792 1
527 129 697 1
602 121 653 1
565 171 870 1
535 546 547 1
565 144 614 1
451 542 802 1
146 801 868 1
535 391 546 1
169 74 795 1
542 479 802 1
572 540 629 1
692 125 693 1
165 547 618 1
646 161 648 1
743 801 889 1
740 620 776 1
588 602 653 1
291 321 608 1
597 143 754 1
568 124 678 1
587 275 749 1
275 587 703 1
516 740 776 1
625 423 641 1
423 625 809 1
560 748 859 1
637 399 651 1
269 540 613 1
126 535 675 1
125 692 780 1
129 527 698 1
140 525 742 1
553 424 620 1
471 580 868 1
547 165 675 1
546 391 548 1
169 552 654 1
391 328 548 1
525 835 900 1
645 429 649 1
535 547 675 1
626 625 641 1
225 553 620 1
801 146 889 1
605 290 688 1
444 442 698 1
467 568 678 1
297 530 911 1
681 509 892 1
379 519 563 1
563 519 564 1
392 626 641 1
527 697 713 1
173 534 812 1
471 428 792 1
538 605 688 1
508 777 778 1
165 14 675 1
597 754 912 1
90 91 696 1
506 508 778 1
259 252 611 1
171 565 894 1
637 651 652 1
646 645 649 1
636 722 760 1
279 273 608 1
722 392 760 1
530 534 911 1
626 392 722 1
151 588 653 1
711 171 894 1
686 685 879 1
703 591 746 1
131 623 694 1
540 474 613 1
275 703 746 1
790 505 878 1
169 654 845 1
784 287 804 1
777 168 799 1
280 528 809 1
52 53 673 1
697 158 713 1
530 297 730 1
623 131 696 1
588 151 789 1
887 532 893 1
756 505 790 1
557 526 654 1
643 466 822 1
584 784 804 1
15 126 675 1
778 777 799 1
540 269 629 1
312 887 893 1
287 538 688 1
806 336 825 1
738 298 792 1
75 142 795 1
534 173 911 1
506 778 878 1
145 541 779 1
794 847 848 1
681 129 698 1
123 824 830 1
227 235 652 1
670 514 838 1
442 509 698 1
528 709 809 1
468 567 814 1
553 225 752 1
582 138 899 1
538 287 784 1
552 412 557 1
548 328 732 1
671 670 838 1
593 134 872 1
513 806 825 1
782 483 787 1
819 755 826 1
295 259 611 1
531 794 848 1
508 507 816 1
528 280 898 1
636 760 771 1
197 782 787 1
134 593 873 1
527 444 698 1
545 819 826 1
473 761 773 1
138 582 843 1
368 379 563 1
309 643 822 1
119 1 149 1
658 127 850 1
637 636 771 1
671 370 733 1
581 579 715 1
818 278 834 1
668 671 733 1
541 145 909 1
559 384 561 1
225 195 752 1
127 658 874 1
131 90 696 1
567 468 700 1
502 818 834 1
347 418 571 1
555 473 773 1
53 135 673 1
143 597 871 1
159 537 786 1
651 783 788 1
791 748 907 1
536 167 764 1
539 570 571 1
649 429 721 1
367 384 559 1
824 719 830 1
201 199 592 1
615 147 798 1
157 52 673 1
561 384 562 1
252 290 611 1
91 162 696 1
658 160 821 1
179 249 815 1
755 216 761 1
789 151 811 1
120 539 853 1
163 582 772 1
426 526 557 1
568 789 811 1
721 130 758 1
537 159 831 1
482 558 640 1
158 556 713 1
649 721 758 1
190 200 598 1
235 637 652 1
399 637 771 1
349 347 571 1
222 227 652 1
249 610 815 1
813 17 828 1
314 339 566 1
468 375 700 1
643 309 903 1
473 755 761 1
583 298 606 1
814 567 859 1
783 230 788 1
142 549 795 1
412 373 557 1
31 32 172 1
268 201 592 1
143 117 734 1
598 200 604 1
620 424 776 1
597 866 871 1
552 557 654 1
160 658 850 1
610 730 815 1
418 539 571 1
230 555 773 1
316 314 566 1
165 618 766 1
167 536 881 1
816 507 885 1
730 297 815 1
573 523 574 1
507 607 885 1
591 592 737 1
556 763 807 1
562 564 565 1
40 124 811 1
591 737 746 1
555 230 783 1
372 322 373 1
530 529 531 1
426 525 526 1
124 568 811 1
582 163 843 1
367 368 384 1
654 526 891 1
507 504 607 1
535 126 867 1
715 579 899 1
578 579 580 1
597 596 866 1
561 614 615 1
320 292 322 1
561 615 798 1
585 433 586 1
580 579 581 1
685 420 879 1
556 158 763 1
583 580 792 1
291 274 292 1
549 412 552 1
422 451 802 1
373 426 557 1
521 523 573 1
607 608 885 1
561 562 614 1
435 436 529 1
372 373 412 1
267 289 594 1
373 374 426 1
273 271 274 1
336 595 768 1
420 685 875 1
328 293 732 1
504 477 607 1
273 274 291 1
576 577 578 1
426 427 525 1
320 322 372 1
324 640 704 1
600 731 732 1
500 524 605 1
291 292 320 1
260 269 612 1
390 367 559 1
574 575 576 1
731 548 732 1
326 327 367 1
578 577 579 1
590 268 592 1
265 263 271 1
386 433 585 1
285 336 768 1
615 614 841 1
265 271 273 1
574 523 575 1
505 504 506 1
262 263 265 1
341 268 590 1
623 401 630 1
503 477 504 1
379 515 519 1
640 558 704 1
552 169 795 1
253 260 612 1
395 414 415 1
551 508 816 1
476 536 628 1
262 261 263 1
503 504 505 1
539 120 861 1
435 415 436 1
576 575 577 1
797 705 808 1
476 475 477 1
598 483 770 1
498 500 605 1
623 630 694 1
476 477 503 1
251 253 601 1
521 522 523 1
602 589 603 1
271 296 606 1
281 267 282 1
258 281 600 1
298 583 792 1
161 649 758 1
763 132 807 1
586 433 587 1
316 566 735 1
506 507 508 1
465 476 628 1
260 261 262 1
317 282 318 1
202 205 604 1
318 319 326 1
779 510 828 1
425 407 627 1
465 475 476 1
586 587 589 1
612 269 613 1
464 411 465 1
253 259 260 1
373 322 374 1
384 368 563 1
395 349 414 1
260 259 261 1
248 254 617 1
500 520 521 1
410 409 411 1
335 633 740 1
410 411 464 1
601 253 612 1
407 405 627 1
256 258 600 1
619 225 620 1
462 468 618 1
524 521 573 1
93 130 810 1
434 415 435 1
253 252 259 1
587 433 703 1
257 245 631 1
521 520 522 1
245 243 631 1
386 432 433 1
578 580 583 1
251 252 253 1
258 266 267 1
367 327 368 1
335 185 633 1
408 409 410 1
241 248 617 1
110 111 669 1
239 280 624 1
408 407 409 1
498 499 500 1
185 187 633 1
111 154 669 1
326 367 390 1
406 407 408 1
248 250 251 1
386 345 432 1
465 474 475 1
560 559 798 1
406 405 407 1
330 316 735 1
390 559 560 1
159 712 831 1
326 319 327 1
338 346 347 1
261 295 616 1
415 414 569 1
622 401 623 1
542 596 597 1
251 250 252 1
249 638 856 1
214 817 827 1
500 499 520 1
249 181 638 1
496 497 498 1
562 565 614 1
200 202 604 1
193 225 619 1
463 386 585 1
237 239 624 1
131 694 739 1
62 63 715 1
413 412 549 1
205 325 604 1
258 267 281 1
248 247 250 1
585 586 588 1
461 489 621 1
244 243 245 1
318 282 319 1
402 405 406 1
292 274 298 1
666 122 667 1
494 495 496 1
241 247 248 1
831 712 865 1
254 251 601 1
426 374 427 1
378 668 733 1
538 498 605 1
382 401 622 1
326 390 700 1
281 282 317 1
255 245 256 1
195 198 752 1
417 431 483 1
462 375 468 1
498 497 499 1
385 345 386 1
668 667 671 1
38 39 151 1
414 349 571 1
224 243 244 1
325 388 417 1
753 628 890 1
475 540 572 1
401 383 402 1
770 483 782 1
586 589 602 1
506 504 507 1
588 586 602 1
239 240 241 1
432 590 591 1
371 482 640 1
669 154 670 1
496 495 497 1
500 521 524 1
432 591 703 1
347 346 418 1
109 122 663 1
325 417 604 1
417 598 604 1
338 334 346 1
276 256 600 1
124 41 676 1
345 341 590 1
1 2 711 1
382 383 401 1
59 60 163 1
477 572 607 1
619 620 740 1
382 377 383 1
237 238 239 1
710 128 902 1
492 493 494 1
241 240 247 1
663 122 666 1
417 388 431 1
36 37 121 1
547 462 618 1
435 529 530 1
317 318 375 1
482 510 779 1
394 349 395 1
41 42 676 1
117 118 734 1
469 449 634 1
323 293 328 1
64 65 146 1
376 377 382 1
402 404 405 1
418 484 539 1
477 475 572 1
376 365 377 1
451 511 542 1
239 238 240 1
375 318 700 1
267 266 289 1
334 324 704 1
234 236 237 1
496 498 538 1
244 245 255 1
348 347 349 1
494 493 495 1
417 483 598 1
459 461 621 1
191 193 619 1
34 35 153 1
280 241 617 1
256 257 258 1
55 56 159 1
289 422 785 1
666 667 668 1
464 465 628 1
152 43 681 1
224 242 243 1
38 151 653 1
193 195 225 1
364 365 376 1
237 236 238 1
111 112 154 1
107 108 155 1
390 567 700 1
260 262 269 1
108 109 663 1
323 328 371 1
490 491 492 1
479 542 912 1
42 43 152 1
371 328 391 1
109 110 122 1
181 183 638 1
294 323 324 1
364 363 365 1
187 191 633 1
265 273 279 1
343 341 345 1
255 256 276 1
294 293 323 1
492 494 584 1
465 411 474 1
18 19 145 1
61 62 138 1
271 263 296 1
57 58 136 1
285 299 336 1
323 371 640 1
592 199 737 1
57 136 712 1
229 232 635 1
51 52 157 1
480 382 622 1
636 635 722 1
489 488 490 1
56 57 712 1
269 262 629 1
40 41 124 1
303 389 689 1
239 241 280 1
337 334 338 1
124 676 678 1
132 49 832 1
116 117 143 1
374 322 738 1
248 251 254 1
475 474 540 1
569 414 570 1
363 392 641 1
492 491 493 1
844 682 846 1
401 402 630 1
606 296 796 1
324 323 640 1
395 415 434 1
362 363 364 1
282 267 594 1
385 386 463 1
481 391 535 1
461 487 488 1
476 503 536 1
191 619 633 1
234 233 236 1
246 237 624 1
558 482 779 1
613 474 803 1
256 245 257 1
232 233 234 1
409 407 425 1
418 419 484 1
105 106 123 1
292 298 738 1
410 464 485 1
489 490 502 1
198 223 224 1
53 54 135 1
472 459 621 1
668 378 775 1
564 519 895 1
449 457 634 1
461 488 489 1
43 44 681 1
455 661 662 1
635 232 695 1
362 361 363 1
405 501 627 1
432 345 590 1
832 50 851 1
103 104 156 1
87 88 164 1
715 63 820 1
431 532 533 1
175 177 297 1
406 454 630 1
291 320 321 1
459 460 461 1
455 443 661 1
406 408 454 1
265 279 629 1
325 380 388 1
277 293 294 1
183 335 638 1
46 47 158 1
277 276 293 1
599 541 909 1
113 114 134 1
609 434 610 1
195 196 198 1
395 434 609 1
490 488 491 1
402 383 404 1
258 257 266 1
484 541 599 1
436 415 569 1
410 485 632 1
105 123 683 1
482 481 510 1
261 259 295 1
338 347 348 1
229 231 232 1
234 237 246 1
457 459 472 1
447 469 639 1
457 472 634 1
243 283 631 1
360 361 362 1
581 715 820 1
664 663 666 1
170 891 900 1
360 359 361 1
454 408 632 1
562 384 563 1
44 45 129 1
122 110 669 1
562 563 564 1
667 122 669 1
91 92 162 1
728 244 750 1
247 287 688 1
405 404 501 1
690 660 691 1
82 83 167 1
775 727 793 1
400 350 430 1
205 211 325 1
402 406 630 1
591 590 592 1
542 511 596 1
461 460 487 1
630 454 694 1
123 106 674 1
523 522 772 1
659 660 690 1
235 229 635 1
358 359 360 1
541 558 779 1
23 24 166 1
232 231 233 1
183 185 335 1
13 14 165 1
638 335 883 1
667 670 671 1
377 365 423 1
36 121 702 1
577 575 582 1
624 280 809 1
491 488 680 1
676 677 678 1
371 391 481 1
447 449 469 1
155 108 663 1
358 357 359 1
352 354 659 1
667 669 670 1
408 410 632 1
376 382 480 1
343 345 385 1
179 181 249 1
89 90 131 1
86 87 716 1
95 96 161 1
84 85 133 1
530 531 534 1
227 228 229 1
262 265 629 1
24 25 736 1
99 100 160 1
510 813 828 1
443 445 661 1
333 324 334 1
400 430 473 1
243 242 283 1
286 284 707 1
229 228 231 1
252 250 290 1
484 419 541 1
371 481 482 1
372 412 413 1
101 102 125 1
363 361 392 1
246 624 625 1
235 635 636 1
193 194 195 1
227 229 235 1
191 192 193 1
376 480 644 1
356 357 358 1
505 506 878 1
437 438 705 1
93 94 130 1
354 381 659 1
318 326 700 1
529 436 710 1
10 11 748 1
129 45 697 1
48 49 132 1
356 355 357 1
457 458 459 1
155 663 664 1
234 246 695 1
464 628 753 1
517 491 680 1
600 281 731 1
445 447 639 1
394 395 609 1
104 105 683 1
187 189 191 1
362 364 429 1
125 102 686 1
133 753 890 1
364 376 644 1
650 353 679 1
554 553 752 1
459 458 460 1
222 226 227 1
610 434 730 1
355 353 650 1
429 364 644 1
42 152 676 1
644 480 701 1
156 683 684 1
378 727 775 1
45 46 697 1
247 240 287 1
97 98 127 1
198 224 728 1
418 346 419 1
453 375 462 1
445 639 661 1
399 650 651 1
357 355 399 1
198 196 223 1
255 276 277 1
332 330 350 1
305 303 689 1
246 626 695 1
358 360 393 1
360 362 645 1
354 355 356 1
227 226 228 1
156 104 683 1
351 350 400 1
362 429 645 1
224 223 242 1
220 221 222 1
431 388 532 1
585 588 789 1
399 355 650 1
642 466 643 1
381 657 659 1
438 441 705 1
433 432 703 1
314 311 339 1
393 360 645 1
404 383 709 1
102 103 686 1
393 645 646 1
428 374 738 1
303 301 389 1
79 80 137 1
659 657 660 1
222 221 226 1
413 549 550 1
307 305 312 1
354 353 355 1
325 211 380 1
546 462 547 1
21 22 120 1
497 495 537 1
377 423 709 1
294 324 333 1
301 286 707 1
218 220 230 1
381 656 657 1
238 236 278 1
380 466 642 1
46 158 697 1
441 443 455 1
331 690 691 1
356 358 655 1
365 363 641 1
332 350 351 1
156 684 685 1
352 351 353 1
354 356 381 1
75 76 142 1
352 353 354 1
358 393 655 1
728 554 752 1
235 636 637 1
226 221 288 1
488 487 680 1
449 456 457 1
195 194 196 1
691 692 693 1
676 152 677 1
725 522 901 1
348 349 394 1
381 655 656 1
743 470 801 1
103 156 686 1
221 219 687 1
381 356 655 1
232 234 695 1
353 351 679 1
264 797 808 1
351 400 679 1
400 473 555 1
368 369 379 1
657 656 658 1
44 129 681 1
77 78 168 1
209 207 699 1
554 728 750 1
447 448 449 1
472 844 846 1
193 192 194 1
220 219 221 1
493 491 517 1
338 348 726 1
15 16 126 1
293 276 732 1
228 226 682 1
352 659 690 1
231 228 272 1
312 305 689 1
493 517 672 1
742 470 743 1
289 421 422 1
528 404 709 1
745 153 774 1
332 351 352 1
457 456 458 1
218 219 220 1
695 626 722 1
191 189 192 1
11 12 139 1
95 161 758 1
288 221 687 1
226 288 682 1
400 555 679 1
691 693 706 1
332 352 690 1
219 270 687 1
174 745 774 1
350 330 735 1
393 647 655 1
333 334 337 1
439 344 724 1
107 155 674 1
331 330 332 1
274 271 606 1
331 332 690 1
210 213 216 1
584 278 818 1
389 707 708 1
487 460 518 1
340 268 341 1
655 647 656 1
8 9 147 1
445 446 447 1
647 646 648 1
691 660 692 1
155 664 665 1
264 209 699 1
541 419 558 1
219 217 270 1
155 665 674 1
272 228 682 1
203 201 268 1
388 380 642 1
67 68 140 1
441 455 705 1
393 646 647 1
263 261 616 1
315 329 420 1
215 217 218 1
32 33 141 1
389 301 707 1
467 463 568 1
246 625 626 1
218 217 219 1
212 209 264 1
449 448 456 1
73 74 169 1
106 107 674 1
423 365 641 1
699 207 723 1
383 377 709 1
346 334 704 1
856 638 883 1
329 330 331 1
380 398 466 1
329 316 330 1
614 144 841 1
159 56 712 1
744 631 768 1
205 206 211 1
156 685 686 1
635 695 722 1
250 247 688 1
202 204 205 1
342 341 343 1
443 444 445 1
447 446 448 1
294 333 729 1
442 440 509 1
379 416 515 1
278 584 804 1
456 448 556 1
483 431 787 1
595 744 768 1
331 691 706 1
583 606 796 1
315 314 316 1
549 552 795 1
138 715 899 1
310 313 397 1
283 284 285 1
438 344 439 1
190 598 770 1
584 494 784 1
654 148 845 1
446 444 527 1
299 300 370 1
213 214 215 1
317 375 453 1
285 286 299 1
495 493 672 1
315 316 329 1
306 308 387 1
403 337 424 1
429 644 721 1
445 444 446 1
453 462 546 1
321 320 759 1
187 188 189 1
501 404 528 1
567 560 859 1
145 779 828 1
215 214 217 1
422 450 451 1
185 186 187 1
708 707 747 1
313 311 314 1
496 538 784 1
277 294 729 1
403 553 554 1
302 304 378 1
348 396 726 1
81 82 756 1
196 194 197 1
761 215 773 1
310 309 311 1
380 211 398 1
313 314 315 1
543 398 544 1
210 212 213 1
37 38 653 1
441 442 443 1
213 212 214 1
87 164 716 1
203 268 340 1
420 329 706 1
466 398 543 1
543 544 545 1
532 388 642 1
138 62 715 1
322 292 738 1
130 701 810 1
329 331 706 1
205 204 206 1
183 184 185 1
308 307 309 1
181 182 183 1
718 397 719 1
310 311 313 1
443 442 444 1
392 361 760 1
419 346 704 1
558 419 704 1
512 514 593 1
319 282 594 1
451 452 511 1
438 440 441 1
208 209 210 1
427 428 470 1
306 305 307 1
289 266 421 1
594 289 785 1
210 209 212 1
308 309 310 1
769 594 785 1
333 337 403 1
257 631 744 1
304 303 305 1
302 301 303 1
333 403 729 1
189 188 190 1
340 341 342 1
678 677 854 1
396 394 486 1
136 58 725 1
315 420 714 1
486 394 609 1
206 204 207 1
434 435 730 1
337 338 726 1
283 242 284 1
342 343 344 1
441 440 442 1
300 286 301 1
438 439 440 1
537 495 672 1
187 186 188 1
403 424 553 1
385 463 467 1
158 47 763 1
306 307 308 1
208 207 209 1
206 207 208 1
576 578 796 1
556 448 713 1
342 344 437 1
224 244 728 1
140 742 858 1
453 546 548 1
35 36 702 1
59 163 725 1
397 313 714 1
304 305 306 1
290 250 688 1
299 286 300 1
302 303 304 1
285 284 286 1
58 59 725 1
448 446 713 1
446 527 713 1
651 650 783 1
276 600 732 1
422 421 450 1
211 206 717 1
357 399 771 1
300 301 302 1
430 350 735 1
390 560 567 1
529 710 902 1
190 188 199 1
424 337 726 1
185 184 186 1
544 398 717 1
231 272 751 1
310 397 718 1
244 255 750 1
202 203 204 1
603 741 862 1
437 344 438 1
570 414 571 1
313 315 714 1
387 308 718 1
398 211 717 1
644 701 721 1
368 327 369 1
372 413 759 1
179 180 181 1
218 230 773 1
348 394 396 1
48 132 763 1
184 182 275 1
633 619 740 1
266 257 744 1
188 186 737 1
200 201 202 1
306 387 727 1
861 762 880 1
170 849 891 1
190 199 200 1
210 216 757 1
202 201 203 1
512 452 513 1
403 554 729 1
396 486 516 1
648 161 896 1
200 199 201 1
183 182 184 1
702 603 862 1
460 458 767 1
94 95 758 1
302 378 733 1
511 452 512 1
378 304 727 1
451 450 452 1
206 208 717 1
582 575 772 1
178 176 741 1
478 769 785 1
766 618 814 1
308 310 718 1
277 729 750 1
198 728 752 1
88 89 739 1
666 668 775 1
450 421 595 1
135 54 786 1
370 300 733 1
515 416 754 1
222 652 788 1
181 180 182 1
254 601 863 1
213 215 761 1
701 130 721 1
242 223 747 1
344 343 724 1
817 662 827 1
343 385 724 1
296 263 616 1
55 159 786 1
427 470 742 1
409 425 803 1
739 694 823 1
512 513 514 1
121 37 653 1
27 28 794 1
89 131 739 1
160 100 780 1
568 463 789 1
118 119 720 1
707 284 747 1
679 555 783 1
164 88 739 1
101 125 780 1
207 204 723 1
413 551 759 1
298 274 606 1
793 387 800 1
180 178 366 1
283 285 768 1
742 743 858 1
203 340 723 1
254 863 884 1
304 306 727 1
220 222 788 1
473 430 755 1
485 464 753 1
204 203 723 1
177 178 179 1
525 427 742 1
34 153 745 1
413 550 551 1
281 317 731 1
427 374 428 1
284 242 747 1
199 188 737 1
233 231 751 1
361 359 760 1
317 453 731 1
570 539 861 1
255 277 750 1
421 266 744 1
544 717 757 1
474 411 803 1
26 27 128 1
300 302 733 1
379 369 416 1
854 677 877 1
69 70 170 1
435 530 730 1
385 467 724 1
729 554 750 1
717 208 757 1
453 548 731 1
189 190 770 1
320 372 759 1
767 458 807 1
366 178 741 1
336 299 825 1
175 176 177 1
502 490 818 1
179 178 180 1
785 422 802 1
760 359 771 1
130 94 758 1
33 34 745 1
492 584 818 1
82 167 756 1
416 478 479 1
852 533 869 1
166 24 736 1
575 523 772 1
610 249 856 1
595 421 744 1
208 210 757 1
737 186 746 1
216 213 761 1
196 197 781 1
238 278 804 1
708 747 781 1
601 612 840 1
47 48 763 1
595 336 806 1
342 437 765 1
699 723 765 1
692 660 821 1
186 184 746 1
197 194 782 1
177 176 178 1
767 132 832 1
184 275 746 1
593 154 873 1
287 240 804 1
416 369 478 1
22 23 762 1
359 357 771 1
275 182 749 1
71 72 148 1
470 428 471 1
153 35 702 1
833 272 844 1
705 455 808 1
39 40 811 1
12 13 766 1
518 460 767 1
765 437 797 1
812 150 857 1
596 134 866 1
83 84 764 1
327 319 769 1
192 189 770 1
215 218 773 1
723 340 765 1
712 136 865 1
416 479 754 1
118 720 734 1
514 513 838 1
566 545 826 1
13 165 766 1
574 576 837 1
534 531 848 1
741 176 774 1
84 133 764 1
311 309 822 1
340 342 765 1
494 496 784 1
539 484 853 1
631 283 768 1
664 666 775 1
747 223 781 1
11 139 748 1
489 502 833 1
559 561 798 1
180 366 749 1
182 180 749 1
736 710 882 1
665 793 800 1
127 648 896 1
650 679 783 1
369 327 769 1
648 127 874 1
92 93 810 1
751 272 833 1
424 726 776 1
319 594 769 1
175 174 176 1
120 22 762 1
54 55 786 1
664 775 793 1
787 533 852 1
100 101 780 1
479 478 802 1
880 166 882 1
657 658 821 1
652 651 788 1
456 556 807 1
194 192 782 1
167 83 764 1
223 196 781 1
163 60 843 1
497 537 831 1
518 832 851 1
463 585 789 1
431 533 787 1
699 765 797 1
741 603 904 1
23 166 762 1
727 387 793 1
536 503 881 1
230 220 788 1
217 214 827 1
683 123 830 1
192 770 782 1
20 599 909 1
478 369 769 1
212 264 817 1
173 175 911 1
16 17 813 1
278 236 834 1
803 425 840 1
154 112 873 1
173 174 175 1
478 785 802 1
577 582 899 1
622 623 910 1
80 81 790 1
132 767 807 1
149 1 711 1
718 719 800 1
480 622 855 1
865 136 901 1
726 396 776 1
623 696 910 1
396 516 776 1
513 452 806 1
755 430 826 1
502 751 833 1
166 736 882 1
172 812 857 1
86 716 829 1
134 114 866 1
9 10 791 1
32 141 172 1
134 596 872 1
174 141 745 1
139 12 766 1
99 160 850 1
437 705 797 1
63 64 820 1
177 179 815 1
176 174 774 1
545 544 819 1
17 18 828 1
50 51 851 1
665 664 793 1
694 454 823 1
123 674 824 1
551 550 777 1
578 583 796 1
450 595 806 1
689 389 869 1
689 869 887 1
454 632 823 1
127 98 850 1
10 748 791 1
81 756 790 1
778 137 878 1
560 798 907 1
233 751 834 1
172 173 812 1
264 699 797 1
573 574 864 1
78 79 799 1
617 254 884 1
152 681 892 1
751 502 834 1
710 436 882 1
137 80 790 1
172 141 173 1
411 409 803 1
19 20 909 1
812 534 848 1
133 85 829 1
240 238 804 1
658 656 874 1
141 33 745 1
272 682 844 1
79 137 799 1
609 610 856 1
513 825 838 1
576 796 837 1
61 138 843 1
147 615 897 1
662 661 836 1
467 678 854 1
150 812 848 1
753 133 829 1
97 127 896 1
618 468 814 1
509 440 877 1
113 134 873 1
387 718 800 1
5 6 144 1
794 531 902 1
146 65 889 1
321 759 816 1
455 662 808 1
647 648 874 1
512 593 872 1
735 566 826 1
625 624 809 1
161 96 896 1
116 143 871 1
596 511 872 1
601 840 863 1
757 216 819 1
76 77 805 1
634 472 846 1
532 642 893 1
458 456 807 1
168 78 799 1
509 877 892 1
469 634 842 1
77 168 805 1
470 471 801 1
49 50 832 1
162 92 810 1
719 397 860 1
452 450 806 1
151 39 811 1
574 837 864 1
137 778 799 1
280 617 898 1
142 76 805 1
264 808 817 1
173 141 174 1
148 654 891 1
736 25 888 1
420 706 879 1
490 492 818 1
147 9 791 1
29 30 150 1
216 755 819 1
613 803 840 1
762 166 880 1
485 716 886 1
639 469 839 1
724 467 854 1
674 665 824 1
339 311 822 1
580 581 868 1
66 67 858 1
149 894 895 1
660 657 821 1
126 16 813 1
370 671 838 1
297 177 815 1
510 481 867 1
842 634 846 1
621 489 833 1
661 639 836 1
21 120 906 1
85 86 829 1
299 370 825 1
214 212 817 1
570 861 880 1
710 736 888 1
31 172 857 1
839 469 842 1
617 884 898 1
524 573 908 1
621 833 844 1
139 766 814 1
3 4 171 1
18 145 828 1
608 321 885 1
836 639 839 1
136 725 901 1
66 858 889 1
499 497 831 1
64 146 820 1
270 217 827 1
128 27 794 1
164 739 823 1
8 147 897 1
684 683 830 1
611 524 908 1
236 233 834 1
60 61 843 1
680 487 876 1
544 757 819 1
741 774 862 1
119 149 720 1
796 296 837 1
309 307 903 1
823 632 886 1
312 689 887 1
68 69 835 1
430 735 826 1
128 710 888 1
759 551 816 1
531 529 902 1
153 702 862 1
673 517 913 1
140 68 835 1
542 597 912 1
800 719 824 1
6 7 841 1
612 613 840 1
616 295 864 1
270 836 839 1
472 621 844 1
517 680 913 1
687 270 839 1
589 366 904 1
687 839 842 1
798 147 907 1
827 662 836 1
665 800 824 1
499 831 865 1
288 687 842 1
288 842 846 1
296 616 837 1
98 99 850 1
518 767 832 1
682 288 846 1
863 627 884 1
72 73 845 1
830 719 860 1
526 525 900 1
28 29 847 1
149 711 894 1
51 157 851 1
484 599 853 1
425 627 863 1
573 864 908 1
147 791 907 1
599 20 906 1
73 169 845 1
808 662 817 1
505 756 881 1
781 197 852 1
481 535 867 1
164 823 886 1
835 170 900 1
869 533 887 1
439 724 854 1
70 71 849 1
855 622 910 1
701 480 855 1
632 485 886 1
813 510 867 1
708 852 869 1
114 115 866 1
439 854 877 1
837 616 864 1
321 816 885 1
397 714 860 1
115 116 871 1
487 518 876 1
858 743 889 1
139 814 859 1
120 853 906 1
860 714 875 1
154 593 905 1
295 611 908 1
891 526 900 1
565 564 894 1
26 128 888 1
794 28 847 1
175 297 911 1
520 499 865 1
628 536 890 1
69 170 835 1
112 113 873 1
197 787 852 1
866 115 871 1
603 589 904 1
65 66 889 1
25 26 888 1
756 167 881 1
503 505 881 1
170 70 849 1
486 609 856 1
514 670 905 1
7 8 897 1
684 860 875 1
569 570 880 1
436 569 882 1
389 708 869 1
877 677 892 1
680 876 913 1
685 684 875 1
520 865 901 1
486 856 883 1
536 764 890 1
148 72 845 1
67 140 858 1
840 425 863 1
71 148 849 1
656 647 874 1
670 154 905 1
708 781 852 1
706 693 879 1
627 501 884 1
511 512 872 1
714 420 875 1
533 532 887 1
579 577 899 1
519 720 895 1
569 880 882 1
440 439 877 1
162 810 855 1
145 19 909 1
4 5 870 1
270 827 836 1
120 762 861 1
20 21 906 1
894 564 895 1
642 643 893 1
825 370 838 1
522 520 901 1
774 153 862 1
96 97 896 1
516 486 883 1
307 312 903 1
884 501 898 1
720 149 895 1
157 673 913 1
748 139 859 1
810 701 855 1
30 31 857 1
677 152 892 1
716 164 886 1
501 528 898 1
764 133 890 1
864 295 908 1
593 514 905 1
696 162 910 1
615 841 897 1
144 6 841 1
137 790 878 1
801 471 868 1
128 794 902 1
126 813 867 1
847 150 848 1
684 830 860 1
841 7 897 1
5 144 870 1
366 741 904 1
29 150 847 1
518 851 876 1
876 157 913 1
754 479 912 1
150 30 857 1
162 855 910 1
851 157 876 1
171 4 870 1
853 599 906 1
849 148 891 1
312 893 903 1
893 643 903 1
2 3 171 1

End
