MeshVersionFormatted 2
Dimension 3

Vertices
727
4.3790744552196822e-02 -3.3753158930347987e-01 0.0000000000000000e+00 1
4.5549619613347525e-02 -3.4141747994636940e-01 0.0000000000000000e+00 1
4.7360403132879918e-02 -3.4405230129790842e-01 0.0000000000000000e+00 1
4.9215851161942964e-02 -3.4549504138847109e-01 0.0000000000000000e+00 1
5.1108719751685634e-02 -3.4580468824843125e-01 0.0000000000000000e+00 1
5.3031764953256920e-02 -3.4504022990816341e-01 0.0000000000000000e+00 1
5.4977742817805764e-02 -3.4326065439804121e-01 0.0000000000000000e+00 1
5.6939409396481150e-02 -3.4052494974843894e-01 0.0000000000000000e+00 1
5.8909520740432063e-02 -3.3689210398973063e-01 0.0000000000000000e+00 1
6.0880832900807459e-02 -3.3242110515229040e-01 0.0000000000000000e+00 1
6.2846101928756337e-02 -3.2717094126649221e-01 0.0000000000000000e+00 1
6.4798083875427626e-02 -3.2120060036271031e-01 0.0000000000000000e+00 1
6.6729534791970371e-02 -3.1456907047131866e-01 0.0000000000000000e+00 1
6.8633210729533461e-02 -3.0733533962269127e-01 0.0000000000000000e+00 1
7.0501867739265922e-02 -2.9955839584720245e-01 0.0000000000000000e+00 1
7.2328261872316724e-02 -2.9129722717522605e-01 0.0000000000000000e+00 1
7.4105149179834809e-02 -2.8261082163713624e-01 0.0000000000000000e+00 1
7.5825285712969176e-02 -2.7355816726330701e-01 0.0000000000000000e+00 1
7.7481427522868795e-02 -2.6419825208411263e-01 0.0000000000000000e+00 1
7.9066330660682638e-02 -2.5459006412992702e-01 0.0000000000000000e+00 1
8.0572751177559687e-02 -2.4479259143112428e-01 0.0000000000000000e+00 1
8.1993445124648887e-02 -2.3486482201807848e-01 0.0000000000000000e+00 1
8.3321168553099248e-02 -2.2486574392116376e-01 0.0000000000000000e+00 1
8.4548677514059700e-02 -2.1485434517075411e-01 0.0000000000000000e+00 1
8.5668728058679269e-02 -2.0488961379722367e-01 0.0000000000000000e+00 1
8.6674076238106870e-02 -1.9503053783094648e-01 0.0000000000000000e+00 1
8.7557478103491529e-02 -1.8533610530229661e-01 0.0000000000000000e+00 1
8.8311689705982174e-02 -1.7586530424164820e-01 0.0000000000000000e+00 1
8.8929467096727818e-02 -1.6667712267937526e-01 0.0000000000000000e+00 1
8.9403566326877390e-02 -1.5783054864585186e-01 0.0000000000000000e+00 1
8.9726743447579901e-02 -1.4938457017145212e-01 0.0000000000000000e+00 1
8.9891754509984337e-02 -1.4139817528655013e-01 0.0000000000000000e+00 1
8.9891355565239611e-02 -1.3393035202151990e-01 0.0000000000000000e+00 1
8.9718302664494751e-02 -1.2704008840673556e-01 0.0000000000000000e+00 1
8.9365351858898698e-02 -1.2078637247257118e-01 0.0000000000000000e+00 1
8.8825259199600423e-02 -1.1522819224940078e-01 0.0000000000000000e+00 1
8.8090780737748939e-02 -1.1042453576759853e-01 0.0000000000000000e+00 1
8.6763286602447184e-02 -1.0364205651759306e-01 0.0000000000000000e+00 1
8.5207583102523798e-02 -9.6111287547092722e-02 0.0000000000000000e+00 1
8.3432656190101762e-02 -8.7872582927892975e-02 0.0000000000000000e+00 1
8.1447491817304166e-02 -7.8966296731789315e-02 0.0000000000000000e+00 1
7.9261075936254047e-02 -6.9432783030577205e-02 0.0000000000000000e+00 1
7.6882394499074469e-02 -5.9312395896052153e-02 0.0000000000000000e+00 1
7.4320433457888524e-02 -4.8645489400009650e-02 0.0000000000000000e+00 1
7.1584178764819206e-02 -3.7472417614245149e-02 0.0000000000000000e+00 1
6.8682616371989580e-02 -2.5833534610554161e-02 0.0000000000000000e+00 1
6.5624732231522737e-02 -1.3769194460732128e-02 0.0000000000000000e+00 1
6.2419512295541713e-02 -1.3197512365745664e-03 0.0000000000000000e+00 1
5.9075942516169551e-02 1.1474440990123021e-02 0.0000000000000000e+00 1
5.5603008845529336e-02 2.4573028147565179e-02 0.0000000000000000e+00 1
5.2009697235744078e-02 3.7935656163956451e-02 0.0000000000000000e+00 1
4.8304993638936859e-02 5.1521970967501309e-02 0.0000000000000000e+00 1
4.4497884007230745e-02 6.5291618486404218e-02 0.0000000000000000e+00 1
4.0597354292748786e-02 7.9204244648869826e-02 0.0000000000000000e+00 1
3.6612390447613996e-02 9.3219495383102535e-02 0.0000000000000000e+00 1
3.2551978423949468e-02 1.0729701661730701e-01 0.0000000000000000e+00 1
2.8425104173878255e-02 1.2139645427968759e-01 0.0000000000000000e+00 1
2.4240753649523404e-02 1.3547745429844885e-01 0.0000000000000000e+00 1
2.0007912803007958e-02 1.4949966260179534e-01 0.0000000000000000e+00 1
1.5735567586455002e-02 1.6342272511793160e-01 0.0000000000000000e+00 1
1.1432703951987566e-02 1.7720628777506203e-01 0.0000000000000000e+00 1
7.1083078517287165e-03 1.9080999650139122e-01 0.0000000000000000e+00 1
2.7713652378015124e-03 2.0419349722512375e-01 0.0000000000000000e+00 1
-1.5691379376710154e-03 2.1731643587446409e-01 0.0000000000000000e+00 1
-5.9042157225657962e-03 2.3013845837761671e-01 0.0000000000000000e+00 1
-1.0224882164759762e-02 2.4261921066278608e-01 0.0000000000000000e+00 1
-1.4522151312129892e-02 2.5471833865817695e-01 0.0000000000000000e+00 1
-1.8787037212553079e-02 2.6639548829199350e-01 0.0000000000000000e+00 1
-2.3010553913906329e-02 2.7761030549244053e-01 0.0000000000000000e+00 1
-2.7183715464066560e-02 2.8832243618772246e-01 0.0000000000000000e+00 1
-3.1297535910910709e-02 2.9849152630604381e-01 0.0000000000000000e+00 1
-3.5343029302315733e-02 3.0807722177560909e-01 0.0000000000000000e+00 1
-3.9311209686158560e-02 3.1703916852462272e-01 0.0000000000000000e+00 1
-4.3193091110316162e-02 3.2533701248128943e-01 0.0000000000000000e+00 1
-4.6979687622665481e-02 3.3293039957381360e-01 0.0000000000000000e+00 1
-5.0662013271083425e-02 3.3977897573039967e-01 0.0000000000000000e+00 1
-5.4231082103446973e-02 3.4584238687925228e-01 0.0000000000000000e+00 1
-5.7677908167633088e-02 3.5108027894857591e-01 0.0000000000000000e+00 1
-6.0993505511518664e-02 3.5545229786657512e-01 0.0000000000000000e+00 1
-6.4168888182980707e-02 3.5891808956145438e-01 0.0000000000000000e+00 1
-6.7195070229896098e-02 3.6143729996141821e-01 0.0000000000000000e+00 1
-7.0063065700141813e-02 3.6296957499467108e-01 0.0000000000000000e+00 1
-7.2763888641594818e-02 3.6347456058941763e-01 0.0000000000000000e+00 1
-7.5288553102132019e-02 3.6291190267386225e-01 0.0000000000000000e+00 1
-7.7628073129630396e-02 3.6124124717620953e-01 0.0000000000000000e+00 1
-7.9773462771966869e-02 3.5842224002466400e-01 0.0000000000000000e+00 1
-8.1715736077018389e-02 3.5441452714743010e-01 0.0000000000000000e+00 1
-8.3445907092661906e-02 3.4917775447271238e-01 0.0000000000000000e+00 1
-8.4954989866774369e-02 3.4267156792871539e-01 0.0000000000000000e+00 1
-8.6520472169759749e-02 3.3398078332464687e-01 0.0000000000000000e+00 1
-8.7878589735073676e-02 3.2504335428157244e-01 0.0000000000000000e+00 1
-8.9033740264507000e-02 3.1586787493281787e-01 0.0000000000000000e+00 1
-8.9990321459850697e-02 3.0646293941170877e-01 0.0000000000000000e+00 1
-9.0752731022895633e-02 2.9683714185157095e-01 0.0000000000000000e+00 1
-9.1325366655432796e-02 2.8699907638573041e-01 0.0000000000000000e+00 1
-9.1712626059253122e-02 2.7695733714751264e-01 0.0000000000000000e+00 1
-9.1918906936147488e-02 2.6672051827024357e-01 0.0000000000000000e+00 1
-9.1948606987906814e-02 2.5629721388724885e-01 0.0000000000000000e+00 1
-9.1806123916322036e-02 2.4569601813185432e-01 0.0000000000000000e+00 1
-9.1495855423184058e-02 2.3492552513738557e-01 0.0000000000000000e+00 1
-9.1022199210283858e-02 2.2399432903716854e-01 0.0000000000000000e+00 1
-9.0389552979412299e-02 2.1291102396452902e-01 0.0000000000000000e+00 1
-8.9602314432360358e-02 2.0168420405279269e-01 0.0000000000000000e+00 1
-8.8664881270918927e-02 1.9032246343528531e-01 0.0000000000000000e+00 1
-8.7581651196878940e-02 1.7883439624533262e-01 0.0000000000000000e+00 1
-8.6357021912031290e-02 1.6722859661626044e-01 0.0000000000000000e+00 1
-8.4995391118166952e-02 1.5551365868139447e-01 0.0000000000000000e+00 1
-8.3501156517076819e-02 1.4369817657406050e-01 0.0000000000000000e+00 1
-8.1878715810551797e-02 1.3179074442758432e-01 0.0000000000000000e+00 1
-8.0132466700382834e-02 1.1979995637529162e-01 0.0000000000000000e+00 1
-7.8266806888360838e-02 1.0773440655050812e-01 0.0000000000000000e+00 1
-7.6286134076276740e-02 9.5602689086559750e-02 0.0000000000000000e+00 1
-7.4194845965921477e-02 8.3413398116772203e-02 0.0000000000000000e+00 1
-7.1997340259085982e-02 7.1175127774471186e-02 0.0000000000000000e+00 1
-6.9698014657561133e-02 5.8896472192982531e-02 0.0000000000000000e+00 1
-6.7301266863137893e-02 4.6586025505631921e-02 0.0000000000000000e+00 1
-6.4811494577607154e-02 3.4252381845745188e-02 0.0000000000000000e+00 1
-6.2233095502759850e-02 2.1904135346648070e-02 0.0000000000000000e+00 1
-5.9570467340386943e-02 9.5498801416663073e-03 0.0000000000000000e+00 1
-5.6828007792279311e-02 -2.8017896358742897e-03 0.0000000000000000e+00 1
-5.4010114560227904e-02 -1.5142279852648002e-02 0.0000000000000000e+00 1
-5.1121185346023612e-02 -2.7462996375329077e-02 0.0000000000000000e+00 1
-4.8165617851457385e-02 -3.9755345070591731e-02 0.0000000000000000e+00 1
-4.5147809778320142e-02 -5.2010731805110205e-02 0.0000000000000000e+00 1
-4.2072158828402789e-02 -6.4220562445558724e-02 0.0000000000000000e+00 1
-3.8943062703496255e-02 -7.6376242858611637e-02 0.0000000000000000e+00 1
-3.5764919105391493e-02 -8.8469178910943025e-02 0.0000000000000000e+00 1
-3.2542125735879411e-02 -1.0049077646922719e-01 0.0000000000000000e+00 1
-2.9279080296750921e-02 -1.1243244140013836e-01 0.0000000000000000e+00 1
-2.5980180489796945e-02 -1.2428557957035077e-01 0.0000000000000000e+00 1
-2.2649824016808415e-02 -1.3604159684653874e-01 0.0000000000000000e+00 1
-1.9292408579576266e-02 -1.4769189909537642e-01 0.0000000000000000e+00 1
-1.5912331879891377e-02 -1.5922789218353814e-01 0.0000000000000000e+00 1
-1.2513991619544723e-02 -1.7064098197769800e-01 0.0000000000000000e+00 1
-9.1017855003272113e-03 -1.8192257434453030e-01 0.0000000000000000e+00 1
-5.6801112240297616e-03 -1.9306407515070931e-01 0.0000000000000000e+00 1
-2.2533664924432872e-03 -2.0405689026290921e-01 0.0000000000000000e+00 1
1.1740509926412655e-03 -2.1489242554780433e-01 0.0000000000000000e+00 1
4.5977435294329971e-03 -2.2556208687206886e-01 0.0000000000000000e+00 1
8.0133134161409700e-03 -2.3605728010237700e-01 0.0000000000000000e+00 1
1.1416362950974264e-02 -2.4636941110540303e-01 0.0000000000000000e+00 1
1.4802494432141981e-02 -2.5648988574782122e-01 0.0000000000000000e+00 1
1.8167310157853150e-02 -2.6641010989630581e-01 0.0000000000000000e+00 1
2.1506412426316866e-02 -2.7612148941753095e-01 0.0000000000000000e+00 1
2.4815403535742214e-02 -2.8561543017817093e-01 0.0000000000000000e+00 1
2.8089885784338270e-02 -2.9488333804489997e-01 0.0000000000000000e+00 1
3.1325461470314106e-02 -3.0391661888439236e-01 0.0000000000000000e+00 1
3.4517732891878802e-02 -3.1270667856332229e-01 0.0000000000000000e+00 1
3.7662302347241453e-02 -3.2124492294836410e-01 0.0000000000000000e+00 1
4.0754772134611095e-02 -3.2952275790619184e-01 0.0000000000000000e+00 1
8.4297931424380149e-02 -1.1346244101499556e-01 0.0000000000000000e+00 1
8.3564911541808146e-02 -1.3720795668024513e-01 0.0000000000000000e+00 1
7.7639684472516804e-02 -9.3594548928157453e-02 0.0000000000000000e+00 1
7.0559729174385050e-02 -6.6616458411948701e-02 0.0000000000000000e+00 1
8.1401327647030092e-02 -1.6285488841187162e-01 0.0000000000000000e+00 1
-1.1485988728986457e-02 -1.3848920263594250e-01 0.0000000000000000e+00 1
6.0260488262422932e-02 -3.4114282952666788e-02 0.0000000000000000e+00 1
-2.0600483244145630e-02 -1.0364438122865643e-01 0.0000000000000000e+00 1
-3.9006839955109132e-02 -3.1051720017060538e-02 0.0000000000000000e+00 1
7.9130061455217907e-02 -1.8966433869678920e-01 0.0000000000000000e+00 1
-4.7421363243903981e-02 6.7801543440811525e-03 0.0000000000000000e+00 1
1.6769991070591551e-04 -1.7467479652593479e-01 0.0000000000000000e+00 1
-3.0278382305357832e-02 -6.7402785409275037e-02 0.0000000000000000e+00 1
-5.4321704518042281e-02 4.1401232216806097e-02 0.0000000000000000e+00 1
-6.2525828561483421e-02 7.9192261275773029e-02 0.0000000000000000e+00 1
4.9336137570330035e-02 1.4883939279668303e-03 0.0000000000000000e+00 1
-7.0007729062663462e-02 1.1497994168999950e-01 0.0000000000000000e+00 1
-7.4065507220377955e-02 1.5089367229116032e-01 0.0000000000000000e+00 1
3.6664442907069016e-02 4.1033252547529563e-02 0.0000000000000000e+00 1
7.5287087255546670e-02 -2.1855094072914147e-01 0.0000000000000000e+00 1
-7.8812515407021222e-02 1.8542445732197949e-01 0.0000000000000000e+00 1
8.9295449662111590e-03 -2.0539327564011015e-01 0.0000000000000000e+00 1
2.6001537989496757e-02 8.3119804775011394e-02 0.0000000000000000e+00 1
-8.1649567587362734e-02 2.1857555482716554e-01 0.0000000000000000e+00 1
1.4187464685179106e-02 1.2495480696663420e-01 0.0000000000000000e+00 1
-8.2773879120552687e-02 2.5111896944255846e-01 0.0000000000000000e+00 1
7.2094069498682231e-02 -2.4889815144785171e-01 0.0000000000000000e+00 1
-2.3470952576034134e-03 1.8032431813927124e-01 0.0000000000000000e+00 1
1.7846572939428776e-02 -2.4076889330536225e-01 0.0000000000000000e+00 1
-1.4610633972073014e-02 2.2010282320706068e-01 0.0000000000000000e+00 1
-8.2906747849583379e-02 2.8164607563439964e-01 0.0000000000000000e+00 1
-4.4947849639984494e-02 3.0850115108431686e-01 0.0000000000000000e+00 1
-2.6051887127552978e-02 2.5703864592731784e-01 0.0000000000000000e+00 1
6.7663987475537202e-02 -2.7630212365909818e-01 0.0000000000000000e+00 1
-6.7206960934147353e-02 3.5810311999178424e-01 0.0000000000000000e+00 1
2.7096478487259757e-02 -2.6717665866944074e-01 0.0000000000000000e+00 1
-3.6787657837905829e-02 2.8922559563207950e-01 0.0000000000000000e+00 1
6.2930411989873579e-03 1.5230120886959569e-01 0.0000000000000000e+00 1
-5.3994562205806923e-02 3.3513438617535335e-01 0.0000000000000000e+00 1
6.4583484914948586e-02 -2.9425853975946559e-01 0.0000000000000000e+00 1
-7.9196276348765512e-02 3.4471925823126176e-01 0.0000000000000000e+00 1
-8.2708452970595620e-02 3.0062845294886814e-01 0.0000000000000000e+00 1
8.4372825921529587e-02 -1.2399970844499007e-01 0.0000000000000000e+00 1
-8.0900284715926085e-02 3.1835029152593630e-01 0.0000000000000000e+00 1
3.3941957882491276e-02 -2.8766749557744220e-01 0.0000000000000000e+00 1
-6.2850613118396653e-02 3.5060069748936462e-01 0.0000000000000000e+00 1
6.1758211311638417e-02 -3.0928123624344755e-01 0.0000000000000000e+00 1
5.6321775467949635e-02 -3.3308105293332485e-01 0.0000000000000000e+00 1
5.2629451164508144e-02 -3.4264653931956474e-01 0.0000000000000000e+00 1
5.8890038913729695e-02 -3.2308234748415665e-01 0.0000000000000000e+00 1
-7.7219782491158420e-02 3.5482510424272884e-01 0.0000000000000000e+00 1
4.0313764624677166e-02 -3.0573528864721872e-01 0.0000000000000000e+00 1
4.7620744052593360e-02 -3.3813901843519462e-01 0.0000000000000000e+00 1
-7.3538944823351146e-02 3.6100680807278324e-01 0.0000000000000000e+00 1
4.7033054613240317e-02 -3.2237207005561275e-01 0.0000000000000000e+00 1
4.9899325502143141e-02 -3.4296923567677157e-01 0.0000000000000000e+00 1
4.8646273406322188e-02 -3.2908922510406813e-01 0.0000000000000000e+00 1
7.9837579903596939e-02 -1.0095054474357290e-01 0.0000000000000000e+00 1
7.2388408528122658e-02 -9.9204613250869170e-02 0.0000000000000000e+00 1
6.9771031841806455e-02 -9.1695175367388707e-02 0.0000000000000000e+00 1
6.4327742632265483e-02 -9.7786805227596169e-02 0.0000000000000000e+00 1
6.7154279172333547e-02 -1.0484325715940292e-01 0.0000000000000000e+00 1
5.8822774904992471e-02 -1.0368478368071467e-01 0.0000000000000000e+00 1
5.5802182309969452e-02 -9.5913966904504211e-02 0.0000000000000000e+00 1
5.0058702026559911e-02 -1.0278970900520767e-01 0.0000000000000000e+00 1
4.6856382677941823e-02 -9.4119925217115000e-02 0.0000000000000000e+00 1
5.4644813659289006e-02 -1.1159704093836656e-01 0.0000000000000000e+00 1
4.4302367162487852e-02 -1.0991620918077812e-01 0.0000000000000000e+00 1
4.7712732726051421e-02 -1.1895258811950490e-01 0.0000000000000000e+00 1
3.8049045540310154e-02 -1.1724319643550635e-01 0.0000000000000000e+00 1
4.1545398736492059e-02 -1.2620406491306030e-01 0.0000000000000000e+00 1
3.4598132628664797e-02 -1.0820912361006504e-01 0.0000000000000000e+00 1
2.8236705419992333e-02 -1.1576794544167573e-01 0.0000000000000000e+00 1
2.4652827279915468e-02 -1.0642248797634707e-01 0.0000000000000000e+00 1
5.0933918242123080e-02 -1.2782433518281472e-01 0.0000000000000000e+00 1
4.5096573186621122e-02 -1.3517981960984748e-01 0.0000000000000000e+00 1
3.5537565340025008e-02 -1.3372665537429532e-01 0.0000000000000000e+00 1
3.9229032282336408e-02 -1.4284480423266471e-01 0.0000000000000000e+00 1
2.9436681190639302e-02 -1.4147616361203244e-01 0.0000000000000000e+00 1
3.3205228770211426e-02 -1.5063731948039130e-01 0.0000000000000000e+00 1
4.3041892691155714e-02 -1.5192719372124766e-01 0.0000000000000000e+00 1
3.7099993435170397e-02 -1.5975639833553160e-01 0.0000000000000000e+00 1
4.6863516811154561e-02 -1.6093582634064821e-01 0.0000000000000000e+00 1
4.0960913570363348e-02 -1.6885596338423967e-01 0.0000000000000000e+00 1
5.2430424393212383e-02 -1.5251039170565789e-01 0.0000000000000000e+00 1
1.8144198997780095e-02 -1.1423129320974905e-01 0.0000000000000000e+00 1
1.4505106893273157e-02 -1.0448227191680981e-01 0.0000000000000000e+00 1
2.1103676636632603e-02 -9.6613263944342359e-02 0.0000000000000000e+00 1
1.0833804627862490e-02 -9.4537386158628250e-02 0.0000000000000000e+00 1
1.7667100501013212e-02 -8.6297047467448068e-02 0.0000000000000000e+00 1
6.9693524443183935e-03 -8.4315618552186639e-02 0.0000000000000000e+00 1
1.4133119302882609e-02 -7.5863898088599752e-02 0.0000000000000000e+00 1
5.0707206335181339e-02 -1.6993666414653025e-01 0.0000000000000000e+00 1
4.4839925128823468e-02 -1.7802184903762425e-01 0.0000000000000000e+00 1
3.4849712290146939e-02 -1.7682925058190740e-01 0.0000000000000000e+00 1
3.8832287945019375e-02 -1.8616359008115271e-01 0.0000000000000000e+00 1
2.3162031261993357e-02 -1.4939481226956236e-01 0.0000000000000000e+00 1
2.4765928158977810e-02 -7.8417448039609525e-02 0.0000000000000000e+00 1
2.1460190501990713e-02 -6.7432561526071272e-02 0.0000000000000000e+00 1
1.0306671704208398e-02 -6.5125296101457758e-02 0.0000000000000000e+00 1
1.7914833394758179e-02 -5.6366359403340241e-02 0.0000000000000000e+00 1
6.4165514327570068e-03 -5.4069091801569213e-02 0.0000000000000000e+00 1
1.4233607587269780e-02 -4.5151755281804457e-02 0.0000000000000000e+00 1
2.4719893698801820e-03 -4.2738152050589173e-02 0.0000000000000000e+00 1
1.0472808350651151e-02 -3.3627134172795836e-02 0.0000000000000000e+00 1
-1.5965074851487205e-03 -3.1187982866522430e-02 0.0000000000000000e+00 1
6.6250740293701087e-03 -2.1901590499871490e-02 0.0000000000000000e+00 1
-5.6529534512784353e-03 -1.9420134043510312e-02 0.0000000000000000e+00 1
2.7124020464969418e-03 -9.9901841404654128e-03 0.0000000000000000e+00 1
3.1712190628267183e-02 -7.1355537111534612e-02 0.0000000000000000e+00 1
1.8490288798578662e-02 -2.4275230867443143e-02 0.0000000000000000e+00 1
-9.6617889802863531e-03 -7.4884405113458874e-03 0.0000000000000000e+00 1
-1.2614238982727199e-03 2.1032563397441772e-03 0.0000000000000000e+00 1
4.8903589915304004e-02 -1.8729983884191451e-01 0.0000000000000000e+00 1
4.2934611446147464e-02 -1.9551999823179012e-01 0.0000000000000000e+00 1
5.3063517330538525e-02 -1.9659213081824692e-01 0.0000000000000000e+00 1
4.7072415488902550e-02 -2.0488369792895833e-01 0.0000000000000000e+00 1
2.7551309880584934e-02 -4.8232328513516443e-02 0.0000000000000000e+00 1
1.1277689694738986e-02 -4.8207377467271786e-04 0.0000000000000000e+00 1
7.2704643377889105e-03 1.1785065248781578e-02 0.0000000000000000e+00 1
-5.4303372637993248e-03 1.4434638843810341e-02 0.0000000000000000e+00 1
3.1901251632977775e-03 2.4194567137241024e-02 0.0000000000000000e+00 1
-9.6802779801439323e-03 2.6880502604235568e-02 0.0000000000000000e+00 1
-3.4580168447707373e-04 3.6914023658942016e-02 0.0000000000000000e+00 1
-1.3918255047631986e-02 3.9397468030194699e-02 0.0000000000000000e+00 1
-4.4185236434762954e-03 4.9539082896236028e-02 0.0000000000000000e+00 1
-1.8138004654240661e-02 5.2038063532478529e-02 0.0000000000000000e+00 1
-9.3288167014099563e-03 6.1293701355174625e-02 0.0000000000000000e+00 1
-2.2374560829630186e-02 6.4534820739895499e-02 0.0000000000000000e+00 1
-1.1987185140874998e-02 7.4058160257033698e-02 0.0000000000000000e+00 1
-2.6335793545579092e-02 7.7177299228695775e-02 0.0000000000000000e+00 1
-1.8091836793936004e-02 8.6984101718929174e-02 0.0000000000000000e+00 1
-3.0818981526838971e-02 8.9899919611430401e-02 0.0000000000000000e+00 1
-2.2106736615832893e-02 9.9515154449381471e-02 0.0000000000000000e+00 1
1.9331410542398911e-02 -1.4010396703336017e-01 0.0000000000000000e+00 1
7.8684539669843061e-03 -1.1263676469044079e-01 0.0000000000000000e+00 1
2.8618907042812350e-02 -1.8492628998028593e-01 0.0000000000000000e+00 1
-3.5025884667851351e-02 1.0257761355346401e-01 0.0000000000000000e+00 1
-2.6727504079707518e-02 1.1197055300013797e-01 0.0000000000000000e+00 1
5.3033080479489805e-02 -8.7152042394245691e-02 0.0000000000000000e+00 1
-8.3686801868653495e-03 9.6546592971472139e-02 0.0000000000000000e+00 1
-2.3053233095903864e-02 2.9743172200325036e-02 0.0000000000000000e+00 1
-1.1350477600877729e-02 -4.1229899393422968e-02 0.0000000000000000e+00 1
3.6817261377156303e-02 -2.0379376884894801e-01 0.0000000000000000e+00 1
4.1028200829948805e-02 -2.1324408772255879e-01 0.0000000000000000e+00 1
1.2824551347088004e-02 -1.4809025504892556e-01 0.0000000000000000e+00 1
-3.9281195772034511e-02 1.1523215474876881e-01 0.0000000000000000e+00 1
-3.0940659551671697e-02 1.2489326162457501e-01 0.0000000000000000e+00 1
-4.3381143240549980e-02 1.2782954691913345e-01 0.0000000000000000e+00 1
-3.4635037557313890e-02 1.3760251987624975e-01 0.0000000000000000e+00 1
-3.5302753893621620e-02 6.7314214421515736e-02 0.0000000000000000e+00 1
2.4708747176319157e-02 -1.7553358084177875e-01 0.0000000000000000e+00 1
2.0009389285030328e-02 9.1371276323330419e-03 0.0000000000000000e+00 1
5.1143418704024746e-03 5.9826935456383734e-02 0.0000000000000000e+00 1
5.1289756741683790e-02 -2.1428262003130483e-01 0.0000000000000000e+00 1
4.5286309657088686e-02 -2.2267702012550530e-01 0.0000000000000000e+00 1
-2.2604152522274736e-02 1.3450245344806908e-01 0.0000000000000000e+00 1
-2.6443556971780958e-02 1.4737460678153408e-01 0.0000000000000000e+00 1
-3.8943528653616416e-02 1.5015540361181262e-01 0.0000000000000000e+00 1
-3.0624413023248809e-02 1.5991681591004109e-01 0.0000000000000000e+00 1
-4.3151370079286877e-02 1.6256035205740879e-01 0.0000000000000000e+00 1
-3.4857757203803609e-02 1.7226180048031592e-01 0.0000000000000000e+00 1
-4.7284337987727833e-02 1.7482062540839502e-01 0.0000000000000000e+00 1
-3.9100703949166024e-02 1.8436267540983753e-01 0.0000000000000000e+00 1
-5.1351310346087517e-02 1.8689246242539989e-01 0.0000000000000000e+00 1
-4.3112247846676624e-02 1.9634178839019084e-01 0.0000000000000000e+00 1
-5.5292975103134981e-02 1.9866536100161741e-01 0.0000000000000000e+00 1
-4.7217468085197417e-02 2.0802923193076009e-01 0.0000000000000000e+00 1
-2.9753330184592749e-02 1.9418384698452312e-01 0.0000000000000000e+00 1
-8.1756374720175879e-04 -6.3163578723276673e-02 0.0000000000000000e+00 1
1.8127630028713999e-02 -1.8370991137607429e-01 0.0000000000000000e+00 1
3.0452122715039907e-02 -2.1223350863541227e-01 0.0000000000000000e+00 1
5.5548035369701092e-02 -2.2369661526069373e-01 0.0000000000000000e+00 1
4.9510519723676705e-02 -2.3210393354463735e-01 0.0000000000000000e+00 1
5.4377020925999997e-02 -1.3633267707316576e-01 0.0000000000000000e+00 1
5.9973621963150953e-02 -1.2935408384231487e-01 0.0000000000000000e+00 1
6.3171620015397167e-02 -1.3742966555471622e-01 0.0000000000000000e+00 1
6.8323988348607506e-02 -1.3073727974117808e-01 0.0000000000000000e+00 1
6.5410576981168339e-02 -1.2309534233599780e-01 0.0000000000000000e+00 1
3.9253782082850672e-02 -2.3106531265581415e-01 0.0000000000000000e+00 1
4.3475565422746304e-02 -2.4049121321223055e-01 0.0000000000000000e+00 1
2.3752890570781220e-02 -3.1181573842211964e-03 0.0000000000000000e+00 1
5.8858605615903947e-02 -1.8826498320432308e-01 0.0000000000000000e+00 1
6.2742558822403927e-02 -1.9717582705023234e-01 0.0000000000000000e+00 1
-5.9203185429464955e-02 2.1028215416035570e-01 0.0000000000000000e+00 1
-5.1262616328397806e-02 2.1950971680328507e-01 0.0000000000000000e+00 1
-1.8011280591965721e-02 -1.7005158377363449e-02 0.0000000000000000e+00 1
-2.2095343475466128e-02 -5.0283974997209213e-03 0.0000000000000000e+00 1
1.2617429973172039e-02 3.4019710978664991e-02 0.0000000000000000e+00 1
-1.5104936795910722e-04 -9.2818919890904905e-02 0.0000000000000000e+00 1
-4.1268829660613690e-03 -8.2320910419814666e-02 0.0000000000000000e+00 1
-4.7469488497477404e-02 1.0566562359492922e-01 0.0000000000000000e+00 1
-3.9301856678763861e-02 2.1736757097839929e-01 0.0000000000000000e+00 1
-4.0693181323182469e-02 2.2869218696223564e-01 0.0000000000000000e+00 1
-5.5247756725689219e-02 2.3097106812962676e-01 0.0000000000000000e+00 1
-4.7082752923266642e-02 2.3998060055835282e-01 0.0000000000000000e+00 1
-5.9094027637371899e-02 2.4210148284584726e-01 0.0000000000000000e+00 1
-5.1575219191150337e-02 2.5089413229568219e-01 0.0000000000000000e+00 1
-6.2790553158160081e-02 2.5301628596565473e-01 0.0000000000000000e+00 1
-5.5583841237063683e-02 2.6156775947138733e-01 0.0000000000000000e+00 1
-6.6412240017177299e-02 2.6362343667352417e-01 0.0000000000000000e+00 1
-5.9379317469456488e-02 2.7189136845314343e-01 0.0000000000000000e+00 1
-4.8638104861182488e-02 2.7002049519022664e-01 0.0000000000000000e+00 1
9.1386398336115015e-03 -1.3909798233117898e-01 0.0000000000000000e+00 1
5.9668858455356411e-02 -2.3306079435877836e-01 0.0000000000000000e+00 1
-3.5006232090290579e-02 2.4057888916825343e-01 0.0000000000000000e+00 1
-5.5463604119563810e-02 1.6514234449455781e-01 0.0000000000000000e+00 1
1.6253561647946738e-02 -1.5758630433273590e-01 0.0000000000000000e+00 1
2.6554175838441517e-02 -2.0261051483686801e-01 0.0000000000000000e+00 1
4.3792885360691626e-02 -8.5169557367379842e-02 0.0000000000000000e+00 1
5.0263112441601698e-02 -7.7837108935124272e-02 0.0000000000000000e+00 1
-6.6617699677508788e-02 2.3337364999596599e-01 0.0000000000000000e+00 1
6.2855058460915061e-03 -1.5646131302192171e-01 0.0000000000000000e+00 1
-1.8879503954764541e-02 1.5749306945500838e-01 0.0000000000000000e+00 1
-5.2469699685145615e-02 2.8028331867116701e-01 0.0000000000000000e+00 1
-6.2967993336306122e-02 2.8196875315461734e-01 0.0000000000000000e+00 1
-5.6526295246342770e-02 2.9015893105960505e-01 0.0000000000000000e+00 1
-6.6197657961107118e-02 2.9184221745729044e-01 0.0000000000000000e+00 1
-6.0026165538294630e-02 2.9960880713082266e-01 0.0000000000000000e+00 1
5.9426297309402867e-02 -8.0224477730563654e-02 0.0000000000000000e+00 1
-6.7613554826654654e-02 2.0120440276721188e-01 0.0000000000000000e+00 1
7.1066485572282012e-02 -1.3859454148788355e-01 0.0000000000000000e+00 1
6.6284119423035873e-02 -1.4518797466169153e-01 0.0000000000000000e+00 1
7.3982227691564012e-02 -1.4579470337388661e-01 0.0000000000000000e+00 1
6.9600032619013472e-02 -1.5294008033727743e-01 0.0000000000000000e+00 1
3.7603531456238022e-02 -9.1882994144073193e-02 0.0000000000000000e+00 1
7.2997277674701780e-02 -1.2461106647487936e-01 0.0000000000000000e+00 1
-3.0689469810060724e-02 -1.4132602767444831e-02 0.0000000000000000e+00 1
7.0798281427734061e-02 -1.1746015763626413e-01 0.0000000000000000e+00 1
2.1928942098172900e-02 -1.2370048556582938e-01 0.0000000000000000e+00 1
6.1757617861374806e-02 -2.1460051508338468e-01 0.0000000000000000e+00 1
5.6993827740883803e-02 -7.0477687090525154e-02 0.0000000000000000e+00 1
4.7485913183841544e-02 -6.7917175970793595e-02 0.0000000000000000e+00 1
5.3799873210671485e-02 -6.0416955265404387e-02 0.0000000000000000e+00 1
4.3950355157651291e-02 -5.7875486095622458e-02 0.0000000000000000e+00 1
5.0986816461043888e-02 -5.0138569344905994e-02 0.0000000000000000e+00 1
3.3741216880600181e-02 -2.3921641678930711e-01 0.0000000000000000e+00 1
3.7592805878612558e-02 -2.4877923307480027e-01 0.0000000000000000e+00 1
4.7653482038409287e-02 -2.4983124933087880e-01 0.0000000000000000e+00 1
4.1934977456813752e-02 -2.5798034276694065e-01 0.0000000000000000e+00 1
5.1747446588920366e-02 -2.5903315871277177e-01 0.0000000000000000e+00 1
4.6157710260374907e-02 -2.6701259781102171e-01 0.0000000000000000e+00 1
5.5101510081990580e-02 -2.6844742039549840e-01 0.0000000000000000e+00 1
4.9888245473669018e-02 -2.7604245403044786e-01 0.0000000000000000e+00 1
6.1630332883151298e-02 -2.6113210133170228e-01 0.0000000000000000e+00 1
4.0468292820803282e-02 -2.7511283353467370e-01 0.0000000000000000e+00 1
2.8770047902046764e-02 -2.2966149982042175e-01 0.0000000000000000e+00 1
1.3080866898823613e-02 -1.7488201545256837e-01 0.0000000000000000e+00 1
2.7229733278667213e-02 -2.4783737227540661e-01 0.0000000000000000e+00 1
3.2732565309160702e-02 6.4343558974559473e-03 0.0000000000000000e+00 1
2.8727449466616109e-02 1.8878728206140630e-02 0.0000000000000000e+00 1
-1.1429292304597698e-02 -9.1124792017599182e-02 0.0000000000000000e+00 1
-1.5604994676151354e-02 -8.0188545928176355e-02 0.0000000000000000e+00 1
3.6741023779665538e-02 -6.7582826098429982e-03 0.0000000000000000e+00 1
4.8726978619622344e-02 -1.3136673183778400e-02 0.0000000000000000e+00 1
3.8564506792958954e-02 -1.8754553602311406e-02 0.0000000000000000e+00 1
7.8254030917318071e-02 -1.1848415379866947e-01 0.0000000000000000e+00 1
7.5584109172691330e-02 -1.1182134068981896e-01 0.0000000000000000e+00 1
-5.0692328753227392e-02 2.9929189637665110e-01 0.0000000000000000e+00 1
-6.9228166614054315e-02 3.0137932776271215e-01 0.0000000000000000e+00 1
-6.3672037150621238e-02 3.0871773264473523e-01 0.0000000000000000e+00 1
-7.3180918923172925e-02 3.1114714005028044e-01 0.0000000000000000e+00 1
-6.6667631790056803e-02 3.1764527726265362e-01 0.0000000000000000e+00 1
-5.8149767686766031e-02 3.1613972898502268e-01 0.0000000000000000e+00 1
-6.1908539009945730e-02 3.2415371113983232e-01 0.0000000000000000e+00 1
-6.9936813093900596e-02 3.2599800925402062e-01 0.0000000000000000e+00 1
-6.5369065671635099e-02 3.3199680752563210e-01 0.0000000000000000e+00 1
-7.2830086903497376e-02 3.3428835000813978e-01 0.0000000000000000e+00 1
-6.7583958233583249e-02 3.3940437495869369e-01 0.0000000000000000e+00 1
4.0183051287678372e-02 -4.7373255093605786e-02 0.0000000000000000e+00 1
-7.2059430250433600e-03 -1.0242782173322884e-01 0.0000000000000000e+00 1
-1.2063766272394850e-02 -1.1152648998192907e-01 0.0000000000000000e+00 1
6.3233889518965719e-02 -1.1567188221265559e-01 0.0000000000000000e+00 1
4.4062474141212934e-02 1.5130646406499918e-02 0.0000000000000000e+00 1
-3.4854530056462010e-02 -3.6223070977494840e-04 0.0000000000000000e+00 1
-2.6382248009258105e-02 7.7423896981237365e-03 0.0000000000000000e+00 1
4.9432942282675120e-02 -2.5655978068833490e-02 0.0000000000000000e+00 1
3.9785478650512796e-02 -3.0166218984324013e-02 0.0000000000000000e+00 1
4.4750428749521266e-02 -2.8369394243306312e-01 0.0000000000000000e+00 1
5.4403260117511093e-02 -2.8416369607489572e-01 0.0000000000000000e+00 1
5.0335750653760176e-02 -2.9086180239991416e-01 0.0000000000000000e+00 1
8.1245164641530025e-03 -1.8229655268828077e-01 0.0000000000000000e+00 1
1.1654688216695915e-02 -1.9249562546001447e-01 0.0000000000000000e+00 1
6.1832428826898392e-02 -5.2508048586395316e-02 0.0000000000000000e+00 1
-4.2525631394275433e-02 2.7953971025517060e-01 0.0000000000000000e+00 1
-3.8420475220429545e-02 2.6926782272681615e-01 0.0000000000000000e+00 1
7.6567278011223025e-02 -1.3237997837169210e-01 0.0000000000000000e+00 1
-5.2651418764488311e-02 3.2304279024809684e-01 0.0000000000000000e+00 1
1.9657824575717395e-02 -2.1003782943194108e-01 0.0000000000000000e+00 1
4.3352440790993652e-02 -3.1427439833525678e-01 0.0000000000000000e+00 1
4.8814249913040210e-02 -3.0853207641483055e-01 0.0000000000000000e+00 1
5.1589297087691000e-02 -3.1545038011012505e-01 0.0000000000000000e+00 1
-2.7575549015393903e-02 -2.6144624068335197e-02 0.0000000000000000e+00 1
8.1403191657446791e-02 -1.0857171216483368e-01 0.0000000000000000e+00 1
7.3060678126692521e-02 -7.6303212202162907e-02 0.0000000000000000e+00 1
-7.9708780370103427e-02 3.3778892574923658e-01 0.0000000000000000e+00 1
-6.0364860329435416e-02 3.3862625905676813e-01 0.0000000000000000e+00 1
-7.2310209969455294e-02 2.4473638817031276e-01 0.0000000000000000e+00 1
-7.7957209195188462e-02 2.3530769752988481e-01 0.0000000000000000e+00 1
-5.9158259287773247e-02 1.7733683642752596e-01 0.0000000000000000e+00 1
-6.6899410967358103e-02 1.6921154919333314e-01 0.0000000000000000e+00 1
-6.2466672015562615e-02 1.8940286135424866e-01 0.0000000000000000e+00 1
5.6285196948560941e-02 -1.6150162866285966e-01 0.0000000000000000e+00 1
6.0359395204502148e-02 -1.7076309424204192e-01 0.0000000000000000e+00 1
6.5965672485967061e-02 -1.6299851026733503e-01 0.0000000000000000e+00 1
6.9841447640306364e-02 -1.7208304198059327e-01 0.0000000000000000e+00 1
6.4429969212808802e-02 -1.7999304952590767e-01 0.0000000000000000e+00 1
7.3899365292030589e-02 -1.8062308645324593e-01 0.0000000000000000e+00 1
3.6877263601320973e-02 -2.9707939245628956e-01 0.0000000000000000e+00 1
-7.1060907124551181e-02 2.1427046128779081e-01 0.0000000000000000e+00 1
-6.2878782058156807e-02 2.2241341739948045e-01 0.0000000000000000e+00 1
-5.4582912557928999e-02 3.0794682435828374e-01 0.0000000000000000e+00 1
7.5425937732893508e-02 -8.5389147945868465e-02 0.0000000000000000e+00 1
-5.1399063174813582e-02 1.5285555158350900e-01 0.0000000000000000e+00 1
7.9514902168591306e-02 -1.7225312799691420e-01 0.0000000000000000e+00 1
-4.7451674055610564e-02 1.4039968113180562e-01 0.0000000000000000e+00 1
-5.5898499709390655e-02 1.3118252700603469e-01 0.0000000000000000e+00 1
-5.1308522327811024e-02 1.1891980876800497e-01 0.0000000000000000e+00 1
-6.2073361391890701e-02 1.4366921686400894e-01 0.0000000000000000e+00 1
-6.8399299178695167e-02 1.3331261278849824e-01 0.0000000000000000e+00 1
4.8992725602370994e-02 -1.4428484063917560e-01 0.0000000000000000e+00 1
-2.3802561192087214e-02 -9.1679747695534913e-02 0.0000000000000000e+00 1
-7.8776397188896868e-02 3.2789129962362384e-01 0.0000000000000000e+00 1
-4.3432795759352071e-02 9.2796984166022431e-02 0.0000000000000000e+00 1
-5.5559566203120025e-02 9.7566394491465175e-02 0.0000000000000000e+00 1
-3.9211332565912499e-02 8.0064318490509406e-02 0.0000000000000000e+00 1
-5.0162529242183895e-02 7.0973022037689917e-02 0.0000000000000000e+00 1
-4.4265746918677767e-02 5.8372226585655079e-02 0.0000000000000000e+00 1
-1.8226220067203772e-02 2.3207592265616089e-01 0.0000000000000000e+00 1
-2.7433609153148124e-02 2.2273024410694012e-01 0.0000000000000000e+00 1
-2.3991747819749755e-02 2.1004478413156497e-01 0.0000000000000000e+00 1
-2.3011900332027858e-02 2.4446179688390235e-01 0.0000000000000000e+00 1
-6.9341712710451919e-02 2.7393457055074533e-01 0.0000000000000000e+00 1
-7.5820410502715069e-02 2.6729149100509364e-01 0.0000000000000000e+00 1
5.3586602503198438e-02 -2.4145100999064395e-01 0.0000000000000000e+00 1
-5.6759076075061671e-02 6.0337164498856365e-02 0.0000000000000000e+00 1
8.2237565473653809e-02 -1.5463620953713197e-01 0.0000000000000000e+00 1
2.2101459902876411e-03 1.6620459425300355e-01 0.0000000000000000e+00 1
-7.3721100388204541e-03 -1.5028207645534178e-01 0.0000000000000000e+00 1
-3.9475988715961018e-03 -1.6263655480811740e-01 0.0000000000000000e+00 1
1.0134762314621735e-02 1.3876665627770979e-01 0.0000000000000000e+00 1
6.4580628281469892e-04 1.2799987693091469e-01 0.0000000000000000e+00 1
4.7504481143122099e-03 1.1491221855847795e-01 0.0000000000000000e+00 1
-7.0623819336839951e-03 1.1803209125730305e-01 0.0000000000000000e+00 1
-2.5492139814146763e-03 1.4110185873670295e-01 0.0000000000000000e+00 1
1.8163754610079540e-02 1.1110143557795610e-01 0.0000000000000000e+00 1
6.4968681331088844e-03 1.0029436214347721e-01 0.0000000000000000e+00 1
2.1942793309179982e-02 9.7029813119337019e-02 0.0000000000000000e+00 1
1.1830230250831289e-02 8.7146764219167921e-02 0.0000000000000000e+00 1
1.3078191377486618e-02 7.1857743620041561e-02 0.0000000000000000e+00 1
4.8393031736255798e-04 7.8822557640890953e-02 0.0000000000000000e+00 1
2.9184121755575984e-02 6.8826409559151466e-02 0.0000000000000000e+00 1
1.8665199850038644e-02 5.9452238730155101e-02 0.0000000000000000e+00 1
3.2411279005228805e-02 5.5035374942567536e-02 0.0000000000000000e+00 1
2.3947958151041056e-02 4.3510290850783707e-02 0.0000000000000000e+00 1
-6.2253945205178029e-03 1.9398863470096062e-01 0.0000000000000000e+00 1
-1.5892907955375301e-02 1.8341699313158621e-01 0.0000000000000000e+00 1
5.7212678557803799e-02 -2.5107444515616750e-01 0.0000000000000000e+00 1
-1.5309442768031084e-02 -1.2775210787237690e-01 0.0000000000000000e+00 1
-4.7551138848590090e-03 -1.2943988573007520e-01 0.0000000000000000e+00 1
-3.1317358173882197e-02 5.4929645893609158e-02 0.0000000000000000e+00 1
-4.1252345564850787e-02 4.5383395899040120e-02 0.0000000000000000e+00 1
-2.7510267315211182e-02 4.2206095813332935e-02 0.0000000000000000e+00 1
-3.5991614213460477e-02 3.2808565887951245e-02 0.0000000000000000e+00 1
-3.0965535261731198e-02 2.0038107008657706e-02 0.0000000000000000e+00 1
-4.3845273088878138e-02 2.2285581745166986e-02 0.0000000000000000e+00 1
3.2320172239612123e-02 -2.5780524508884495e-01 0.0000000000000000e+00 1
6.6598888096747744e-02 -2.2382277773005099e-01 0.0000000000000000e+00 1
7.0540253244285117e-02 -2.0931974245071649e-01 0.0000000000000000e+00 1
7.0125394150590464e-02 -2.3370391810873881e-01 0.0000000000000000e+00 1
3.1342907507190959e-02 -2.7797026277681158e-01 0.0000000000000000e+00 1
-1.0718475694133015e-02 1.6841360876198544e-01 0.0000000000000000e+00 1
3.9585461365399532e-02 2.7981517213648995e-02 0.0000000000000000e+00 1
-1.0450873101675487e-02 2.0742188606043960e-01 0.0000000000000000e+00 1
9.8726738569517112e-03 4.7371146194117024e-02 0.0000000000000000e+00 1
1.7209796809317109e-02 -2.2971257878976012e-01 0.0000000000000000e+00 1
5.4812559510279107e-02 -3.3725709176616914e-01 0.0000000000000000e+00 1
5.6718851250293224e-02 -2.0538489365510559e-01 0.0000000000000000e+00 1
-4.0805195480633605e-02 2.4989115349911994e-01 0.0000000000000000e+00 1
8.1857366328796755e-02 -1.4588706291014220e-01 0.0000000000000000e+00 1
8.3859285089151914e-02 -1.3018282893253508e-01 0.0000000000000000e+00 1
-3.6758090782625687e-02 -4.3443786477224806e-02 0.0000000000000000e+00 1
-3.3249355682079200e-02 -5.5453780612069278e-02 0.0000000000000000e+00 1
-2.1882066486961421e-02 -5.8774184806141175e-02 0.0000000000000000e+00 1
-2.4362009332920598e-02 -4.6198978695284595e-02 0.0000000000000000e+00 1
5.4683115235420611e-02 -1.7904657983305694e-01 0.0000000000000000e+00 1
-1.4326451912298361e-02 -2.8550559261223813e-02 0.0000000000000000e+00 1
6.8843481056732020e-02 -1.8895309997225707e-01 0.0000000000000000e+00 1
7.2197479137484200e-02 -1.9978229817739340e-01 0.0000000000000000e+00 1
-7.3744028784054630e-02 2.8450393857076750e-01 0.0000000000000000e+00 1
-1.3864712434892592e-02 4.8327349478920166e-03 0.0000000000000000e+00 1
6.4315901591985900e-02 -2.8515184933497556e-01 0.0000000000000000e+00 1
6.9264431271249649e-02 -2.6740377516200686e-01 0.0000000000000000e+00 1
2.7050659905429021e-02 -1.5855324792825748e-01 0.0000000000000000e+00 1
-1.8357132982272931e-02 1.7232962816740659e-02 0.0000000000000000e+00 1
-3.6675330122996085e-02 2.0519344448308768e-01 0.0000000000000000e+00 1
3.2685367153435563e-02 -1.9435012198461737e-01 0.0000000000000000e+00 1
-7.9357030645825721e-02 1.9680997760366642e-01 0.0000000000000000e+00 1
3.4681991065377234e-02 -2.2166425087246791e-01 0.0000000000000000e+00 1
-4.9763892055318566e-03 -5.2388658313805653e-02 0.0000000000000000e+00 1
-6.7415831126280509e-02 1.0271247692521203e-01 0.0000000000000000e+00 1
2.2175159403344590e-02 -3.6227512853422628e-02 0.0000000000000000e+00 1
-8.2695836251077307e-02 2.9079511958437249e-01 0.0000000000000000e+00 1
1.4951540638512908e-02 -1.2500831013684748e-02 0.0000000000000000e+00 1
6.4503224042412752e-02 -2.4311417285501202e-01 0.0000000000000000e+00 1
1.6035050387245644e-02 2.1436887675038957e-02 0.0000000000000000e+00 1
2.9052543937824849e-02 -6.0498932050226502e-02 0.0000000000000000e+00 1
2.7877189725193589e-02 -8.9266246607517641e-02 0.0000000000000000e+00 1
-4.2124119924019432e-02 -1.8854335607673550e-02 0.0000000000000000e+00 1
6.3304701237879485e-02 -3.0203089178668036e-01 0.0000000000000000e+00 1
5.6513480106963887e-02 -2.9689843688983419e-01 0.0000000000000000e+00 1
2.3775602333234155e-02 -2.2018575972201943e-01 0.0000000000000000e+00 1
5.3396363984031539e-02 -3.2547132095513526e-01 0.0000000000000000e+00 1
5.7927873606465598e-02 -1.4413441685355702e-01 0.0000000000000000e+00 1
5.6779077195442798e-02 -1.2130998733886973e-01 0.0000000000000000e+00 1
-6.4325153240251898e-02 3.4491266017012912e-01 0.0000000000000000e+00 1
-6.9865369911864872e-02 3.4638433299254773e-01 0.0000000000000000e+00 1
-6.8509335309874270e-02 3.5171352977377390e-01 0.0000000000000000e+00 1
-4.5085184925647094e-02 2.6016726558367287e-01 0.0000000000000000e+00 1
1.2557427201092347e-02 -2.1763065933395059e-01 0.0000000000000000e+00 1
3.1011470483350796e-02 -1.6763556262931095e-01 0.0000000000000000e+00 1
3.1892191842645870e-02 -1.2485498617507951e-01 0.0000000000000000e+00 1
1.1959072717119235e-02 -1.2201879965855229e-01 0.0000000000000000e+00 1
3.8951750345176091e-03 -1.0303197626446400e-01 0.0000000000000000e+00 1
5.9074662201196948e-02 -3.1637965659994111e-01 0.0000000000000000e+00 1
4.1281039937390032e-02 -7.5045740558885993e-02 0.0000000000000000e+00 1
2.6850898691111551e-02 -1.5237749415434544e-02 0.0000000000000000e+00 1
2.7286737999312619e-03 -1.4659696301307604e-01 0.0000000000000000e+00 1
3.0954846425396126e-03 -7.3811938579670569e-02 0.0000000000000000e+00 1
-7.3528911190586563e-02 2.5585000974597383e-01 0.0000000000000000e+00 1
4.0752806722036163e-02 -1.0106081339660131e-01 0.0000000000000000e+00 1
-2.7449051524521151e-02 -7.9612669475381981e-02 0.0000000000000000e+00 1
5.7608867369754353e-02 -3.2845684082667936e-01 0.0000000000000000e+00 1
-7.7660806221473283e-02 1.7392807090456236e-01 0.0000000000000000e+00 1
4.7862770527539657e-02 -3.9111143703526259e-02 0.0000000000000000e+00 1
-6.3655651655943488e-02 1.5641045128458261e-01 0.0000000000000000e+00 1
2.2354959271036406e-02 -1.9308656992865980e-01 0.0000000000000000e+00 1
-7.3937227013970916e-02 3.4159517506990156e-01 0.0000000000000000e+00 1
8.4131936899165830e-02 -1.1766812826064184e-01 0.0000000000000000e+00 1
-8.1979603872987417e-02 3.0942755289846696e-01 0.0000000000000000e+00 1
6.1563114185597984e-02 -8.9860047597697071e-02 0.0000000000000000e+00 1
6.1415553246042559e-02 -1.5321216708139640e-01 0.0000000000000000e+00 1
7.0770784273590986e-02 -2.5815688477119403e-01 0.0000000000000000e+00 1
-4.1022813342431852e-02 2.9881054800013196e-01 0.0000000000000000e+00 1
-7.9945487932694487e-02 2.0757593741719266e-01 0.0000000000000000e+00 1
-1.7262850716382221e-02 1.9781122900181491e-01 0.0000000000000000e+00 1
-7.8296974037637884e-02 3.5031499323816417e-01 0.0000000000000000e+00 1
-7.3073635343351748e-02 3.5167754369029774e-01 0.0000000000000000e+00 1
-7.3626009624661926e-02 3.5590281547580332e-01 0.0000000000000000e+00 1
2.5741206676041645e-02 -1.3248443943238217e-01 0.0000000000000000e+00 1
-7.9754827730712120e-03 -7.1896213171426721e-02 0.0000000000000000e+00 1
1.7742237159211413e-03 -1.2093634966729813e-01 0.0000000000000000e+00 1
-7.5653088481802119e-02 3.5872034300865147e-01 0.0000000000000000e+00 1
-5.2391058594465037e-02 8.4673843317358097e-02 0.0000000000000000e+00 1
-4.4321267564492214e-02 -7.4188473715557438e-03 0.0000000000000000e+00 1
5.8641827168507681e-02 -2.7734728337372588e-01 0.0000000000000000e+00 1
-5.4022120412305641e-02 2.9011393803180439e-02 0.0000000000000000e+00 1
6.7284411457781912e-02 -8.3116933167026022e-02 0.0000000000000000e+00 1
2.5729387867227175e-02 3.0989891893426293e-02 0.0000000000000000e+00 1
5.1654583443276343e-02 -3.3334724535853510e-01 0.0000000000000000e+00 1
3.1098027408113439e-02 -9.8909154946491107e-02 0.0000000000000000e+00 1
7.4345942183964592e-02 -1.5942600998055867e-01 0.0000000000000000e+00 1
4.7238358005295078e-02 -2.9912050489327680e-01 0.0000000000000000e+00 1
7.8023372697597852e-03 -1.6604241817912818e-01 0.0000000000000000e+00 1
-6.5401077221866902e-02 3.5501759389113058e-01 0.0000000000000000e+00 1
3.6660615188380874e-02 -2.6680156347487954e-01 0.0000000000000000e+00 1
-8.3833283298835493e-02 2.7203791380076747e-01 0.0000000000000000e+00 1
7.4929453651003355e-02 -1.0587895309801887e-01 0.0000000000000000e+00 1
4.7170925207361471e-02 -3.3408274248667907e-01 0.0000000000000000e+00 1
-1.8945057806901332e-02 -6.9675332199553255e-02 0.0000000000000000e+00 1
5.5479887313924982e-02 -3.0444180195130027e-01 0.0000000000000000e+00 1
-2.2576618037407469e-03 -1.1189098488314803e-01 0.0000000000000000e+00 1
1.9984607230271515e-02 -1.6670552156062993e-01 0.0000000000000000e+00 1
3.3356424428317627e-02 -3.8978480758641271e-02 0.0000000000000000e+00 1
-6.9754954908206254e-02 3.5977025433263449e-01 0.0000000000000000e+00 1
1.5834108675406820e-02 -1.3117749837845649e-01 0.0000000000000000e+00 1
2.9883895770483185e-02 -2.6915099636942615e-02 0.0000000000000000e+00 1
-7.3868338729643157e-02 2.2587477083887894e-01 0.0000000000000000e+00 1
-4.6784377967133528e-02 2.8947287528302684e-01 0.0000000000000000e+00 1
-2.8597693018165046e-02 1.8072438493625290e-01 0.0000000000000000e+00 1
1.7830238573620479e-02 -2.0072476305951870e-01 0.0000000000000000e+00 1
-7.6962564959341243e-02 1.6238391685308803e-01 0.0000000000000000e+00 1
-4.8806041574273762e-02 3.1633444594693866e-01 0.0000000000000000e+00 1
-3.6693789932046687e-02 1.1296800417250927e-02 0.0000000000000000e+00 1
5.4279050161999132e-02 -3.4073866807388720e-01 0.0000000000000000e+00 1
5.1267214743709363e-02 -3.3991621034963976e-01 0.0000000000000000e+00 1
3.7912350903901822e-04 8.9228300732711513e-02 0.0000000000000000e+00 1
-6.5207847402570462e-02 9.0668854537398522e-02 0.0000000000000000e+00 1
-2.3261791808248378e-02 1.7037111211253164e-01 0.0000000000000000e+00 1
3.4653951260702261e-02 -8.2165840501718310e-02 0.0000000000000000e+00 1
-7.4873896531118200e-02 3.4693826064443462e-01 0.0000000000000000e+00 1
-3.2572896797802328e-02 2.7924012787731595e-01 0.0000000000000000e+00 1
-7.5106341247460184e-02 2.9554294580753349e-01 0.0000000000000000e+00 1
-2.1757913169879722e-02 -3.6115105652132690e-02 0.0000000000000000e+00 1
-6.4359921397677544e-03 1.5496861663726802e-01 0.0000000000000000e+00 1
-6.9504987257117470e-02 1.8118939525133429e-01 0.0000000000000000e+00 1
2.3120655455754507e-02 -2.5752366500758317e-01 0.0000000000000000e+00 1
-5.9268744298892673e-02 1.1068094954746466e-01 0.0000000000000000e+00 1
-1.1079658320722330e-02 1.3127511043584841e-01 0.0000000000000000e+00 1
-8.4431981912521298e-02 2.6150529815144830e-01 0.0000000000000000e+00 1
-1.1620252103794224e-02 -6.1135370325018402e-02 0.0000000000000000e+00 1
5.7547043470104156e-02 -4.4087893103680567e-02 0.0000000000000000e+00 1
-1.4815517784075184e-02 1.4437657377882229e-01 0.0000000000000000e+00 1
-2.8794576175416746e-02 2.6847308358221089e-01 0.0000000000000000e+00 1
7.9041036830616279e-02 -1.2653888967002763e-01 0.0000000000000000e+00 1
4.8277040715885441e-02 -3.4099733446593083e-01 0.0000000000000000e+00 1
7.5465196636126594e-02 -2.2716164050143470e-01 0.0000000000000000e+00 1
5.5343261565498320e-02 -3.1081703026392893e-01 0.0000000000000000e+00 1
2.3401336926446455e-03 -1.9610502674512345e-01 0.0000000000000000e+00 1
5.3466292245405292e-02 -3.2978203421644248e-01 0.0000000000000000e+00 1
8.1682699345062698e-02 -1.8074839253817881e-01 0.0000000000000000e+00 1
-1.4506804864642158e-02 1.0902918351644426e-01 0.0000000000000000e+00 1
7.7551893562630397e-02 -1.4017656047199478e-01 0.0000000000000000e+00 1
-8.3584165338311478e-02 2.4223520537188442e-01 0.0000000000000000e+00 1
6.4788190821789229e-02 -7.3385873410022312e-02 0.0000000000000000e+00 1
-1.8820193545450406e-02 1.2161710888039630e-01 0.0000000000000000e+00 1
-8.3198634029132468e-02 2.2773557547409667e-01 0.0000000000000000e+00 1
7.8532933227822802e-02 -2.0866225847626935e-01 0.0000000000000000e+00 1
-6.3399138200773489e-02 1.2330640467036741e-01 0.0000000000000000e+00 1
5.8485340415245265e-02 -2.9008325366528159e-01 0.0000000000000000e+00 1
5.2971853170772467e-03 -1.3029577088233676e-01 0.0000000000000000e+00 1
6.8891413588590342e-02 -5.8080721974206467e-02 0.0000000000000000e+00 1
-1.4978670124995416e-02 -5.1440358598574119e-02 0.0000000000000000e+00 1
5.9061080513326078e-02 -2.0965416630534361e-02 0.0000000000000000e+00 1
-6.2177866191950870e-02 6.8375728730842050e-02 0.0000000000000000e+00 1
-5.9193872274940940e-02 3.4532498148148560e-01 0.0000000000000000e+00 1
-7.4080750137205581e-02 1.4104365149955903e-01 0.0000000000000000e+00 1
-3.5488273563422962e-02 2.5936223031880534e-01 0.0000000000000000e+00 1
6.2502247463878807e-02 -6.3609207715209420e-02 0.0000000000000000e+00 1
5.1529454939201531e-02 -3.4406207279512385e-01 0.0000000000000000e+00 1
4.1759808118998376e-02 -2.9012020483185563e-01 0.0000000000000000e+00 1
6.9372469726674629e-02 -1.1109449524766946e-01 0.0000000000000000e+00 1
-5.3347762911950328e-02 1.7355073709210102e-02 0.0000000000000000e+00 1
7.3857776798778793e-02 -2.4107473117216111e-01 0.0000000000000000e+00 1
1.8883163811393350e-02 -2.4979784548831524e-01 0.0000000000000000e+00 1
-7.3659753334017225e-02 3.1978938322181433e-01 0.0000000000000000e+00 1
-6.9965621323252514e-02 3.5585103685563413e-01 0.0000000000000000e+00 1
-3.1669595870196261e-03 1.0689266752465412e-01 0.0000000000000000e+00 1
6.2465277538610427e-02 -2.7111683153011068e-01 0.0000000000000000e+00 1
6.2201580382578421e-04 -1.8640420145512987e-01 0.0000000000000000e+00 1
6.5242217851128201e-02 -2.5247515111238544e-01 0.0000000000000000e+00 1
-4.5797120220961350e-02 3.4947155066165331e-02 0.0000000000000000e+00 1
-2.1678191547361992e-03 -1.3910410952845970e-01 0.0000000000000000e+00 1
-5.2545733955303611e-02 5.0803191079663634e-02 0.0000000000000000e+00 1
5.0531276377758255e-02 -3.3670429374456334e-01 0.0000000000000000e+00 1
-5.5689278036942735e-02 3.4094139786465183e-01 0.0000000000000000e+00 1
-2.0414284230293126e-02 -1.1658974249464532e-01 0.0000000000000000e+00 1
-8.1871317223140300e-03 -1.2038663565809604e-01 0.0000000000000000e+00 1
-3.1253341881458896e-02 2.4925421321840968e-01 0.0000000000000000e+00 1
6.5589999903909291e-02 -4.3708996216973495e-02 0.0000000000000000e+00 1
-2.8621440770998249e-02 2.3294196143123994e-01 0.0000000000000000e+00 1
7.4691389585527859e-02 -1.6654430847902224e-01 0.0000000000000000e+00 1
8.0216027145172328e-02 -1.1402425546208519e-01 0.0000000000000000e+00 1
-7.1786694534802103e-02 1.9130893434377050e-01 0.0000000000000000e+00 1
3.8610538949413215e-02 -6.4687742563293751e-02 0.0000000000000000e+00 1
7.6081498420272037e-02 -1.5215771956788568e-01 0.0000000000000000e+00 1
-7.7222193146665369e-02 2.7653938402772299e-01 0.0000000000000000e+00 1
-7.2804597869255971e-02 1.2484901332684828e-01 0.0000000000000000e+00 1
-6.6387617895096923e-02 3.4840280510645383e-01 0.0000000000000000e+00 1
-3.0693652668037478e-02 -3.5860481432190006e-02 0.0000000000000000e+00 1
-7.8111586048227651e-03 8.4614595242590865e-02 0.0000000000000000e+00 1
-7.2409573127203850e-02 3.5890801460092447e-01 0.0000000000000000e+00 1
6.2264987871402340e-02 -1.0938597406353999e-01 0.0000000000000000e+00 1
8.0869902958830855e-02 -1.9947937125419415e-01 0.0000000000000000e+00 1
-5.7540797583520632e-02 3.3026582116459913e-01 0.0000000000000000e+00 1
3.7996742631047603e-02 -2.8156176206643657e-01 0.0000000000000000e+00 1
-9.0992704424705713e-04 6.8441761603158791e-02 0.0000000000000000e+00 1
-7.5561845240289957e-02 3.6092193319278543e-01 0.0000000000000000e+00 1
-5.0925571275478199e-02 3.2889647906885044e-01 0.0000000000000000e+00 1
2.5497324425177614e-02 -2.3723852224086656e-01 0.0000000000000000e+00 1
6.4387241256855715e-02 -2.0477457101850646e-01 0.0000000000000000e+00 1
-7.1706085440099585e-02 3.6122584251808620e-01 0.0000000000000000e+00 1
3.6065585272877759e-02 -5.5154609961582869e-02 0.0000000000000000e+00 1
6.8621437936513083e-02 -2.1627757384451690e-01 0.0000000000000000e+00 1
-7.6440696725654095e-02 3.0362508389357229e-01 0.0000000000000000e+00 1
5.7691486000253249e-02 -9.2255855930959297e-03 0.0000000000000000e+00 1
5.4374268474662792e-02 -3.2035524101709373e-01 0.0000000000000000e+00 1

Edges
150
1 2 1
2 3 1
3 4 1
4 5 1
5 6 1
6 7 1
7 8 1
8 9 1
9 10 1
10 11 1
11 12 1
12 13 1
13 14 1
14 15 1
15 16 1
16 17 1
17 18 1
18 19 1
19 20 1
20 21 1
21 22 1
22 23 1
23 24 1
24 25 1
25 26 1
26 27 1
27 28 1
28 29 1
29 30 1
30 31 1
31 32 1
32 33 1
33 34 1
34 35 1
35 36 1
36 37 1
37 38 1
38 39 1
39 40 1
40 41 1
41 42 1
42 43 1
43 44 1
44 45 1
45 46 1
46 47 1
47 48 1
48 49 1
49 50 1
50 51 1
51 52 1
52 53 1
53 54 1
54 55 1
55 56 1
56 57 1
57 58 1
58 59 1
59 60 1
60 61 1
61 62 1
62 63 1
63 64 1
64 65 1
65 66 1
66 67 1
67 68 1
68 69 1
69 70 1
70 71 1
71 72 1
72 73 1
73 74 1
74 75 1
75 76 1
76 77 1
77 78 1
78 79 1
79 80 1
80 81 1
81 82 1
82 83 1
83 84 1
84 85 1
85 86 1
86 87 1
87 88 1
88 89 1
89 90 1
90 91 1
91 92 1
92 93 1
93 94 1
94 95 1
95 96 1
96 97 1
97 98 1
98 99 1
99 100 1
100 101 1
101 102 1
102 103 1
103 104 1
104 105 1
105 106 1
106 107 1
107 108 1
108 109 1
109 110 1
110 111 1
111 112 1
112 113 1
113 114 1
114 115 1
115 116 1
116 117 1
117 118 1
118 119 1
119 120 1
120 121 1
121 122 1
122 123 1
123 124 1
124 125 1
125 126 1
126 127 1
127 128 1
128 129 1
129 130 1
130 131 1
131 132 1
132 133 1
133 134 1
134 135 1
135 136 1
136 137 1
137 138 1
138 139 1
139 140 1
140 141 1
141 142 1
142 143 1
143 144 1
144 145 1
145 146 1
146 147 1
147 148 1
148 149 1
149 150 1
150 1 1

Triangles
1302
407 193 589 1
159 443 559 1
73 74 633 1
166 400 404 1
521 396 616 1
443 378 559 1
358 614 623 1
453 455 592 1
157 427 585 1
486 116 694 1
319 481 546 1
430 542 606 1
507 319 630 1
542 430 670 1
319 507 596 1
344 480 701 1
561 613 621 1
344 343 480 1
400 166 424 1
115 116 486 1
151 37 444 1
74 438 633 1
455 375 592 1
186 521 616 1
480 343 481 1
193 407 655 1
437 152 531 1
481 319 596 1
398 162 432 1
481 343 546 1
206 199 636 1
304 500 717 1
516 161 634 1
397 526 720 1
363 489 490 1
162 398 614 1
161 516 683 1
559 378 605 1
165 604 638 1
489 363 578 1
603 204 718 1
378 425 605 1
604 475 638 1
50 51 523 1
500 304 503 1
614 398 623 1
402 158 421 1
418 446 473 1
276 274 525 1
165 477 604 1
477 165 675 1
523 169 609 1
37 38 444 1
448 176 664 1
548 371 595 1
526 179 720 1
176 448 580 1
168 469 586 1
29 155 465 1
488 522 645 1
199 206 680 1
469 168 677 1
424 50 523 1
567 568 598 1
423 217 565 1
158 402 472 1
409 182 462 1
613 441 621 1
194 412 686 1
152 437 663 1
169 505 609 1
4 5 680 1
371 460 595 1
526 397 562 1
433 172 631 1
206 636 656 1
260 248 640 1
500 501 717 1
412 194 590 1
522 364 645 1
293 535 673 1
52 53 504 1
172 433 659 1
535 293 644 1
504 503 505 1
561 431 613 1
505 503 525 1
433 432 690 1
427 428 585 1
416 418 473 1
659 433 690 1
204 603 712 1
166 404 405 1
28 29 465 1
416 473 686 1
167 648 669 1
116 164 694 1
168 586 632 1
49 50 424 1
648 468 669 1
576 260 640 1
169 52 504 1
612 487 706 1
274 339 525 1
586 451 632 1
420 585 624 1
187 594 629 1
155 487 612 1
166 49 424 1
205 150 207 1
594 409 629 1
304 276 525 1
181 540 553 1
401 400 424 1
497 291 637 1
182 409 594 1
100 449 664 1
53 502 504 1
356 344 701 1
530 374 706 1
449 100 667 1
446 90 473 1
460 461 628 1
553 540 643 1
441 440 442 1
51 169 523 1
585 428 624 1
358 363 614 1
217 219 565 1
440 205 442 1
235 453 592 1
458 457 538 1
487 530 706 1
291 497 688 1
542 184 606 1
539 519 668 1
418 417 419 1
407 377 655 1
401 424 523 1
379 377 407 1
174 460 628 1
687 625 712 1
515 426 545 1
446 418 588 1
421 158 422 1
425 161 605 1
149 205 440 1
402 403 472 1
575 442 727 1
201 87 597 1
399 179 685 1
567 598 641 1
457 333 538 1
87 88 597 1
161 425 634 1
53 54 502 1
160 458 538 1
549 322 562 1
207 150 619 1
217 423 713 1
472 403 582 1
176 580 650 1
151 444 703 1
420 268 723 1
3 206 656 1
2 3 656 1
442 575 658 1
435 187 629 1
589 151 703 1
473 194 686 1
179 399 720 1
635 527 636 1
568 196 615 1
292 514 515 1
539 668 714 1
482 356 701 1
439 172 570 1
448 349 580 1
449 448 664 1
339 505 525 1
206 4 680 1
520 22 657 1
326 327 328 1
164 512 694 1
292 513 514 1
507 630 639 1
697 509 698 1
22 520 684 1
268 420 624 1
419 417 447 1
173 498 499 1
317 371 452 1
365 435 629 1
517 186 616 1
44 434 672 1
522 507 639 1
173 499 500 1
566 447 676 1
471 235 564 1
1 2 203 1
329 328 377 1
169 504 505 1
201 598 599 1
375 455 612 1
405 427 674 1
427 157 674 1
416 417 418 1
515 516 634 1
431 561 670 1
407 589 703 1
38 39 208 1
225 325 326 1
205 207 563 1
519 539 721 1
405 404 406 1
416 415 417 1
345 362 461 1
147 202 459 1
580 484 650 1
552 624 627 1
292 515 545 1
328 372 437 1
182 73 633 1
342 297 468 1
512 164 692 1
435 436 642 1
636 527 695 1
325 226 471 1
39 153 208 1
41 445 463 1
148 149 440 1
517 399 647 1
202 148 440 1
149 150 205 1
539 334 721 1
186 517 647 1
379 407 408 1
292 275 513 1
418 419 588 1
333 457 536 1
422 697 698 1
377 328 437 1
642 436 654 1
326 325 327 1
275 277 513 1
354 671 693 1
202 440 441 1
88 89 191 1
558 238 611 1
134 162 490 1
336 345 461 1
437 531 655 1
356 482 699 1
185 625 687 1
54 173 502 1
226 228 471 1
636 203 656 1
315 317 452 1
173 55 498 1
437 372 663 1
67 183 482 1
543 395 689 1
369 409 462 1
397 549 562 1
38 208 444 1
503 304 525 1
412 411 413 1
413 414 415 1
326 328 329 1
509 156 510 1
410 369 411 1
187 71 594 1
506 63 524 1
450 315 452 1
538 334 539 1
376 558 611 1
30 31 487 1
328 327 372 1
299 466 467 1
347 349 448 1
405 674 726 1
469 464 586 1
465 155 702 1
172 138 570 1
205 563 727 1
405 406 427 1
647 399 685 1
66 67 482 1
283 474 476 1
146 147 459 1
89 90 446 1
491 188 495 1
410 411 412 1
406 404 577 1
363 490 614 1
65 66 479 1
676 447 696 1
352 366 483 1
231 233 235 1
299 300 466 1
131 156 509 1
313 315 450 1
479 66 482 1
453 454 455 1
562 439 570 1
526 562 570 1
86 87 201 1
507 506 596 1
39 40 153 1
610 619 695 1
394 429 430 1
413 415 416 1
434 44 700 1
368 367 369 1
311 357 464 1
322 439 562 1
56 496 498 1
474 342 475 1
500 499 501 1
415 414 438 1
430 429 431 1
366 367 368 1
515 514 516 1
187 435 642 1
61 178 488 1
366 365 367 1
368 369 410 1
442 205 727 1
147 148 202 1
195 146 459 1
180 65 479 1
329 377 379 1
489 133 490 1
466 464 469 1
349 350 351 1
459 613 681 1
347 348 349 1
156 132 489 1
225 226 325 1
34 35 193 1
490 162 614 1
59 188 491 1
351 352 483 1
401 523 609 1
427 406 428 1
362 347 448 1
352 365 366 1
355 324 485 1
289 662 666 1
180 479 480 1
564 235 592 1
498 497 499 1
288 342 474 1
235 233 453 1
371 335 460 1
178 506 507 1
467 466 469 1
186 144 521 1
231 235 471 1
133 134 490 1
91 194 473 1
413 411 414 1
488 178 522 1
55 56 498 1
483 366 540 1
8 9 527 1
345 346 347 1
349 348 350 1
541 271 545 1
56 57 496 1
357 313 450 1
178 62 506 1
301 478 511 1
62 63 506 1
404 332 577 1
485 508 555 1
351 350 352 1
326 329 565 1
470 469 677 1
297 299 468 1
453 243 454 1
208 153 209 1
357 450 451 1
391 392 393 1
393 392 394 1
228 231 471 1
496 497 498 1
467 469 470 1
175 491 492 1
317 318 335 1
317 335 371 1
501 280 717 1
131 132 156 1
336 344 345 1
188 60 488 1
362 448 449 1
209 212 618 1
311 313 357 1
335 336 461 1
430 431 670 1
309 311 464 1
454 243 536 1
345 347 362 1
505 339 609 1
279 301 511 1
492 491 495 1
219 225 565 1
511 478 512 1
219 221 225 1
70 71 187 1
315 316 317 1
277 511 513 1
67 68 183 1
347 346 348 1
391 390 392 1
493 492 494 1
40 41 463 1
128 158 472 1
145 146 195 1
41 42 445 1
441 442 658 1
313 314 315 1
395 543 593 1
78 79 196 1
649 495 653 1
91 92 194 1
132 133 489 1
64 65 180 1
389 390 391 1
42 43 154 1
288 297 342 1
311 312 313 1
32 33 152 1
457 454 536 1
426 541 545 1
256 258 537 1
264 333 536 1
60 61 488 1
173 500 502 1
175 58 491 1
134 135 162 1
283 288 474 1
394 396 429 1
281 283 476 1
72 73 182 1
351 483 484 1
163 582 620 1
201 597 598 1
233 243 453 1
59 60 188 1
301 476 477 1
456 458 465 1
345 344 346 1
300 309 466 1
61 62 178 1
309 310 311 1
305 381 528 1
352 353 365 1
608 445 665 1
518 355 520 1
370 290 591 1
460 335 461 1
671 510 693 1
335 318 336 1
502 500 503 1
130 131 509 1
279 281 301 1
293 256 537 1
299 467 468 1
520 355 555 1
395 393 689 1
331 388 389 1
432 162 690 1
157 585 652 1
369 367 409 1
137 138 172 1
301 281 476 1
323 355 518 1
478 477 486 1
317 316 318 1
455 454 456 1
175 492 493 1
715 438 719 1
85 86 603 1
391 395 508 1
143 144 186 1
249 260 557 1
277 279 511 1
297 298 299 1
42 154 445 1
324 331 485 1
389 388 390 1
54 55 173 1
45 46 157 1
58 59 491 1
48 49 166 1
128 129 158 1
57 58 175 1
415 438 715 1
300 308 309 1
533 163 534 1
51 52 169 1
225 221 226 1
389 391 508 1
29 30 155 1
288 289 297 1
264 266 333 1
127 128 472 1
178 507 522 1
140 179 526 1
315 314 316 1
438 74 719 1
155 30 487 1
551 475 648 1
90 91 473 1
140 141 179 1
323 324 355 1
231 232 233 1
332 269 554 1
485 389 508 1
309 464 466 1
313 312 314 1
329 423 565 1
93 192 590 1
533 534 535 1
301 477 478 1
474 475 604 1
391 393 395 1
283 284 288 1
487 31 530 1
519 170 668 1
613 431 681 1
333 266 334 1
463 445 608 1
228 230 231 1
357 451 586 1
381 519 721 1
331 389 485 1
381 323 518 1
311 310 312 1
582 403 620 1
273 275 292 1
419 566 567 1
459 202 613 1
502 503 504 1
419 447 566 1
189 447 715 1
305 323 381 1
80 81 185 1
172 439 631 1
15 16 190 1
400 332 404 1
139 140 526 1
331 387 388 1
337 378 443 1
281 282 283 1
57 175 496 1
496 493 497 1
394 392 396 1
125 163 533 1
93 94 192 1
125 126 163 1
180 480 481 1
323 306 324 1
267 305 528 1
200 563 583 1
513 512 514 1
279 280 281 1
324 330 331 1
258 337 537 1
122 123 159 1
309 308 310 1
303 269 332 1
159 123 532 1
242 240 248 1
271 273 545 1
299 298 300 1
26 27 160 1
615 185 687 1
267 295 305 1
305 306 323 1
9 10 198 1
180 481 524 1
352 350 353 1
280 501 711 1
233 234 243 1
411 369 462 1
277 278 279 1
160 538 539 1
336 343 344 1
355 485 555 1
477 476 604 1
17 18 184 1
124 125 533 1
249 248 260 1
511 512 513 1
532 124 533 1
297 289 298 1
75 76 189 1
264 265 266 1
123 124 532 1
366 368 540 1
532 533 535 1
337 338 378 1
390 388 517 1
624 428 627 1
20 21 177 1
288 284 289 1
63 64 524 1
201 599 603 1
365 353 435 1
444 408 703 1
275 276 277 1
244 246 264 1
372 373 374 1
95 96 181 1
388 399 517 1
258 262 337 1
333 334 538 1
378 338 425 1
64 180 524 1
305 295 306 1
524 481 596 1
273 274 275 1
144 145 521 1
145 195 521 1
303 332 400 1
283 282 284 1
23 24 170 1
6 7 199 1
119 120 161 1
334 266 528 1
337 443 537 1
231 230 232 1
388 387 399 1
233 232 234 1
475 342 648 1
98 99 176 1
271 272 273 1
337 262 338 1
266 265 267 1
324 306 330 1
254 256 293 1
348 346 529 1
331 330 387 1
175 493 496 1
281 280 282 1
361 290 370 1
266 267 528 1
279 278 280 1
264 246 265 1
109 470 677 1
116 117 164 1
251 249 557 1
127 472 582 1
447 417 715 1
101 102 174 1
13 14 197 1
103 104 548 1
253 251 268 1
425 338 426 1
188 488 645 1
31 32 530 1
33 34 531 1
248 240 558 1
599 598 687 1
122 159 559 1
244 264 536 1
104 105 171 1
277 276 278 1
113 114 165 1
273 292 545 1
346 344 356 1
110 111 167 1
107 108 168 1
456 457 458 1
237 224 238 1
300 307 308 1
152 33 531 1
267 294 295 1
263 270 271 1
386 384 434 1
275 274 276 1
349 351 580 1
338 262 541 1
458 160 661 1
273 272 274 1
163 126 582 1
340 402 421 1
336 318 343 1
257 255 261 1
258 259 262 1
138 139 570 1
263 259 269 1
243 244 536 1
603 599 712 1
270 269 303 1
243 234 244 1
306 295 549 1
321 432 433 1
461 362 628 1
271 270 272 1
426 338 541 1
256 257 258 1
316 314 319 1
226 227 228 1
250 252 320 1
263 271 541 1
18 19 543 1
460 174 595 1
225 326 565 1
295 322 549 1
254 293 550 1
274 272 339 1
393 394 606 1
330 306 549 1
32 152 530 1
17 184 542 1
295 294 322 1
11 12 200 1
346 356 529 1
267 265 294 1
310 308 364 1
262 259 263 1
303 400 401 1
387 330 397 1
353 350 569 1
300 298 307 1
258 257 259 1
263 269 270 1
278 276 304 1
242 248 249 1
111 112 551 1
156 489 693 1
223 236 380 1
170 519 724 1
253 268 552 1
121 122 559 1
34 193 531 1
262 263 541 1
284 282 291 1
254 255 256 1
166 405 726 1
426 515 634 1
265 246 547 1
456 454 457 1
209 211 212 1
322 294 359 1
464 357 586 1
228 229 230 1
325 471 564 1
94 95 553 1
256 255 257 1
261 255 552 1
348 529 569 1
252 253 254 1
486 477 675 1
219 220 221 1
268 251 557 1
16 17 542 1
516 514 692 1
372 327 373 1
322 359 439 1
320 252 550 1
254 253 255 1
519 381 724 1
269 259 554 1
257 261 554 1
247 296 358 1
252 251 253 1
397 330 549 1
192 94 553 1
244 245 246 1
451 450 646 1
560 190 561 1
71 72 594 1
332 554 577 1
226 221 227 1
414 411 462 1
318 316 546 1
81 82 625 1
237 238 239 1
170 518 657 1
252 254 550 1
250 320 579 1
506 524 596 1
250 251 252 1
217 218 219 1
287 245 302 1
499 497 637 1
239 238 240 1
246 245 287 1
350 348 569 1
270 303 556 1
303 401 556 1
246 287 547 1
104 171 548 1
95 181 553 1
339 272 556 1
294 265 547 1
15 190 560 1
321 302 398 1
259 257 554 1
167 111 551 1
232 230 544 1
287 302 321 1
479 482 701 1
250 249 251 1
3 4 206 1
662 494 666 1
340 421 574 1
361 370 382 1
343 318 546 1
193 35 589 1
213 215 217 1
316 319 546 1
244 234 245 1
272 270 556 1
321 398 432 1
14 15 560 1
255 253 552 1
184 18 543 1
153 40 463 1
555 508 691 1
221 220 572 1
36 37 151 1
20 177 593 1
435 353 436 1
241 240 242 1
230 229 247 1
261 552 627 1
219 218 220 1
436 353 569 1
239 241 340 1
105 106 584 1
358 296 363 1
228 227 229 1
139 526 570 1
374 373 375 1
183 654 678 1
402 341 403 1
247 229 285 1
247 358 544 1
296 285 354 1
220 218 222 1
568 615 687 1
183 68 654 1
321 433 587 1
370 608 665 1
242 249 250 1
359 294 547 1
223 380 572 1
216 360 376 1
92 93 590 1
492 495 649 1
618 212 682 1
422 158 697 1
223 222 224 1
240 238 558 1
236 224 237 1
340 341 402 1
216 214 290 1
247 285 296 1
543 19 593 1
223 224 236 1
380 236 573 1
293 537 644 1
547 287 587 1
236 237 286 1
35 36 589 1
220 222 223 1
390 517 616 1
171 105 584 1
126 127 582 1
227 221 572 1
239 240 241 1
447 189 696 1
489 578 693 1
230 247 544 1
351 484 580 1
117 118 607 1
248 558 640 1
340 241 341 1
412 413 686 1
396 392 616 1
161 120 605 1
234 232 571 1
385 384 386 1
238 224 611 1
476 474 604 1
103 548 595 1
19 20 593 1
217 215 218 1
554 261 577 1
220 223 572 1
102 103 595 1
385 386 420 1
174 102 595 1
190 16 542 1
212 211 213 1
383 382 384 1
327 325 564 1
367 365 629 1
619 203 695 1
557 260 705 1
383 384 385 1
307 649 653 1
121 559 605 1
360 290 361 1
359 547 587 1
540 368 643 1
194 92 590 1
531 193 655 1
12 13 575 1
162 135 690 1
88 191 597 1
361 382 383 1
329 379 423 1
607 516 692 1
215 214 216 1
373 327 564 1
242 250 579 1
96 97 617 1
216 290 360 1
584 451 646 1
420 386 585 1
70 187 642 1
216 376 581 1
48 166 726 1
45 157 700 1
408 407 703 1
236 286 573 1
241 242 579 1
374 530 663 1
232 544 571 1
617 97 650 1
302 245 571 1
137 172 659 1
607 118 683 1
245 234 571 1
287 321 587 1
222 581 611 1
360 361 576 1
143 186 647 1
579 320 601 1
237 239 574 1
296 354 578 1
581 376 611 1
213 214 215 1
209 210 211 1
470 109 708 1
528 381 721 1
455 456 702 1
363 296 578 1
192 553 643 1
341 241 579 1
222 218 581 1
158 129 697 1
475 551 638 1
130 509 697 1
43 44 672 1
213 211 214 1
179 141 685 1
286 237 574 1
239 340 574 1
520 555 684 1
468 467 669 1
218 215 581 1
10 11 583 1
425 426 634 1
215 216 581 1
13 197 575 1
394 430 606 1
408 444 618 1
8 527 635 1
177 555 691 1
421 422 622 1
115 486 675 1
518 170 724 1
364 522 639 1
371 548 704 1
361 383 576 1
285 229 600 1
160 27 661 1
512 478 694 1
434 384 679 1
72 182 594 1
196 79 615 1
9 198 527 1
22 23 657 1
107 168 632 1
462 182 633 1
319 314 630 1
100 101 667 1
227 572 600 1
189 76 696 1
120 121 605 1
197 14 560 1
285 600 626 1
74 75 719 1
419 567 588 1
157 46 674 1
398 302 623 1
113 165 638 1
210 153 463 1
209 153 210 1
484 483 707 1
341 579 601 1
196 566 676 1
192 643 725 1
375 373 592 1
408 618 682 1
203 2 656 1
310 364 639 1
208 209 618 1
11 200 583 1
403 341 601 1
598 568 687 1
370 591 608 1
339 556 609 1
36 151 589 1
575 197 658 1
202 441 613 1
574 421 622 1
229 227 600 1
610 207 619 1
79 80 615 1
98 176 650 1
99 100 664 1
170 24 668 1
164 117 607 1
290 214 591 1
532 535 710 1
551 112 638 1
211 210 591 1
21 22 684 1
373 564 592 1
439 359 631 1
114 115 675 1
268 557 723 1
320 550 651 1
289 284 662 1
392 390 616 1
108 109 677 1
7 8 635 1
572 380 600 1
414 462 633 1
600 380 626 1
364 308 653 1
119 161 683 1
191 446 588 1
555 177 684 1
612 455 702 1
86 201 603 1
556 401 609 1
584 106 632 1
516 607 683 1
557 705 723 1
196 568 709 1
428 406 627 1
342 468 648 1
213 217 713 1
203 636 695 1
160 539 714 1
534 163 620 1
26 160 714 1
214 211 591 1
558 376 640 1
224 222 611 1
167 551 648 1
573 286 602 1
286 574 622 1
307 298 666 1
518 520 657 1
181 96 617 1
530 152 663 1
190 542 670 1
552 268 624 1
452 371 704 1
280 278 717 1
484 617 650 1
399 387 720 1
645 364 653 1
566 196 709 1
362 449 628 1
651 550 673 1
291 282 711 1
585 386 652 1
376 360 640 1
83 84 204 1
451 584 632 1
571 544 623 1
563 207 660 1
527 198 610 1
654 436 678 1
200 12 575 1
354 285 626 1
28 465 661 1
314 312 630 1
409 367 629 1
302 571 623 1
106 107 632 1
587 433 631 1
438 414 633 1
493 494 688 1
567 566 709 1
560 561 621 1
495 188 645 1
527 610 695 1
550 293 673 1
443 159 710 1
191 89 446 1
377 437 655 1
569 529 678 1
204 712 722 1
501 499 637 1
544 358 623 1
509 510 698 1
406 577 627 1
157 652 700 1
69 70 642 1
380 573 626 1
197 560 621 1
712 625 722 1
577 261 627 1
617 484 707 1
529 356 699 1
444 208 618 1
210 463 608 1
112 113 638 1
368 410 643 1
77 78 676 1
625 82 722 1
630 312 639 1
591 210 608 1
78 196 676 1
578 354 693 1
602 286 622 1
450 452 646 1
312 310 639 1
535 644 710 1
69 642 654 1
403 601 620 1
359 587 631 1
198 10 583 1
590 192 725 1
423 379 682 1
185 81 625 1
417 415 715 1
200 575 727 1
68 69 654 1
494 492 649 1
672 434 679 1
142 143 647 1
537 443 644 1
445 154 665 1
583 563 660 1
465 458 661 1
602 510 671 1
568 567 709 1
97 98 650 1
381 518 724 1
576 383 705 1
649 307 666 1
482 183 699 1
360 576 640 1
372 374 663 1
76 77 696 1
643 410 725 1
27 28 661 1
678 529 699 1
80 185 615 1
599 687 712 1
195 459 681 1
136 137 659 1
497 493 688 1
189 715 719 1
637 291 711 1
1 203 619 1
109 110 708 1
23 170 657 1
308 307 653 1
85 603 718 1
573 602 671 1
386 434 652 1
142 647 685 1
171 584 646 1
46 47 674 1
191 588 641 1
260 576 705 1
508 395 691 1
588 567 641 1
467 470 669 1
136 659 690 1
510 156 693 1
483 540 707 1
24 25 668 1
535 534 673 1
510 602 698 1
602 622 698 1
284 291 662 1
480 479 701 1
621 441 658 1
298 289 666 1
393 606 689 1
176 99 664 1
101 174 667 1
5 6 680 1
110 167 708 1
665 154 679 1
382 370 665 1
598 597 641 1
456 465 702 1
44 45 700 1
674 47 726 1
141 142 685 1
431 429 681 1
155 612 702 1
135 136 690 1
165 114 675 1
82 83 722 1
195 681 716 1
154 43 672 1
77 676 696 1
534 651 673 1
118 119 683 1
681 429 716 1
495 645 653 1
540 181 707 1
171 646 704 1
514 512 692 1
668 25 714 1
413 416 686 1
478 486 694 1
168 108 677 1
412 590 725 1
199 635 636 1
47 48 726 1
396 521 716 1
622 422 698 1
601 320 651 1
561 190 670 1
620 601 651 1
129 130 697 1
382 665 679 1
84 85 718 1
177 21 684 1
494 662 688 1
521 195 716 1
384 382 679 1
646 452 704 1
593 177 691 1
25 26 714 1
375 612 706 1
410 412 725 1
429 396 716 1
423 682 713 1
159 532 710 1
534 620 651 1
164 607 692 1
610 198 660 1
436 569 678 1
6 199 680 1
199 7 635 1
197 621 658 1
334 528 721 1
395 593 691 1
184 543 689 1
198 583 660 1
282 280 711 1
379 408 682 1
374 375 706 1
278 304 717 1
387 397 720 1
383 385 705 1
212 213 713 1
563 200 727 1
548 171 704 1
597 191 641 1
628 449 667 1
705 385 723 1
183 678 699 1
207 610 660 1
385 420 723 1
174 628 667 1
501 637 711 1
354 626 671 1
606 184 689 1
494 649 666 1
626 573 671 1
75 189 719 1
154 672 679 1
652 434 700 1
181 617 707 1
167 669 708 1
644 443 710 1
682 212 713 1
662 291 688 1
204 84 718 1
83 204 722 1
669 470 708 1
150 1 619 1

End
