MeshVersionFormatted 2
Dimension 3

Vertices
832
1.7014210523316864e-01 -3.5950598125833566e-01 0.0000000000000000e+00 1
1.7764556091943887e-01 -3.5972371766039996e-01 0.0000000000000000e+00 1
1.8438349255354927e-01 -3.5914682309719581e-01 0.0000000000000000e+00 1
1.9037461019250623e-01 -3.5779679744925730e-01 0.0000000000000000e+00 1
1.9563762389331618e-01 -3.5569514059711826e-01 0.0000000000000000e+00 1
2.0019124371298533e-01 -3.5286335242131261e-01 0.0000000000000000e+00 1
2.0405417970852024e-01 -3.4932293280237453e-01 0.0000000000000000e+00 1
2.0724514193692711e-01 -3.4509538162083758e-01 0.0000000000000000e+00 1
2.0978284045521245e-01 -3.4020219875723595e-01 0.0000000000000000e+00 1
2.1168598532038252e-01 -3.3466488409210360e-01 0.0000000000000000e+00 1
2.1297328658944370e-01 -3.2850493750597437e-01 0.0000000000000000e+00 1
2.1366345431940242e-01 -3.2174385887938217e-01 0.0000000000000000e+00 1
2.1377519856726496e-01 -3.1440314809286102e-01 0.0000000000000000e+00 1
2.1332722939003779e-01 -3.0650430502694481e-01 0.0000000000000000e+00 1
2.1233825684472712e-01 -2.9806882956216763e-01 0.0000000000000000e+00 1
2.1082699098833951e-01 -2.8911822157906314e-01 0.0000000000000000e+00 1
2.0881214187788122e-01 -2.7967398095816537e-01 0.0000000000000000e+00 1
2.0631241957035856e-01 -2.6975760758000839e-01 0.0000000000000000e+00 1
2.0334653412277803e-01 -2.5939060132512609e-01 0.0000000000000000e+00 1
1.9993319559214584e-01 -2.4859446207405234e-01 0.0000000000000000e+00 1
1.9609111403546850e-01 -2.3739068970732113e-01 0.0000000000000000e+00 1
1.9183899950975231e-01 -2.2580078410546639e-01 0.0000000000000000e+00 1
1.8719556207200361e-01 -2.1384624514902206e-01 0.0000000000000000e+00 1
1.8217951177922886e-01 -2.0154857271852200e-01 0.0000000000000000e+00 1
1.7680955868843432e-01 -1.8892926669450028e-01 0.0000000000000000e+00 1
1.7110441285662642e-01 -1.7600982695749084e-01 0.0000000000000000e+00 1
1.6508278434081147e-01 -1.6281175338802750e-01 0.0000000000000000e+00 1
1.5876338319799593e-01 -1.4935654586664426e-01 0.0000000000000000e+00 1
1.5216491948518607e-01 -1.3566570427387509e-01 0.0000000000000000e+00 1
1.4530610325938836e-01 -1.2176072849025386e-01 0.0000000000000000e+00 1
1.3820564457760903e-01 -1.0766311839631455e-01 0.0000000000000000e+00 1
1.3088225349685456e-01 -9.3394373872591099e-02 0.0000000000000000e+00 1
1.2335464007413127e-01 -7.8975994799617436e-02 0.0000000000000000e+00 1
1.1564151436644551e-01 -6.4429481057927465e-02 0.0000000000000000e+00 1
1.0776158643080369e-01 -4.9776332528055175e-02 0.0000000000000000e+00 1
9.9733566324212153e-02 -3.5038049090534526e-02 0.0000000000000000e+00 1
9.1576164103677277e-02 -2.0236130625899421e-02 0.0000000000000000e+00 1
8.3308089826205384e-02 -5.3920770146837632e-03 0.0000000000000000e+00 1
7.4948053548802906e-02 9.4726118625784450e-03 0.0000000000000000e+00 1
6.6514765328476139e-02 2.4336436125353300e-02 0.0000000000000000e+00 1
5.8026935222231506e-02 3.9177895893106857e-02 0.0000000000000000e+00 1
4.9503273287075371e-02 5.3975491285305190e-02 0.0000000000000000e+00 1
4.0962489580014048e-02 6.8707722421414333e-02 0.0000000000000000e+00 1
3.2423294158053957e-02 8.3353089420900348e-02 0.0000000000000000e+00 1
2.3904397078201446e-02 9.7890092403229351e-02 0.0000000000000000e+00 1
1.5424508397462872e-02 1.1229723148786733e-01 0.0000000000000000e+00 1
7.0023381728446174e-03 1.2655300679428039e-01 0.0000000000000000e+00 1
-1.3434035386469464e-03 1.4063591844193457e-01 0.0000000000000000e+00 1
-9.5940066800054985e-03 1.5452446655029595e-01 0.0000000000000000e+00 1
-1.7730761194224624e-02 1.6819715123883058e-01 0.0000000000000000e+00 1
-2.5734957024297983e-02 1.8163247262700455e-01 0.0000000000000000e+00 1
-3.3587884113219196e-02 1.9480893083428386e-01 0.0000000000000000e+00 1
-4.1270832403981890e-02 2.0770502598013463e-01 0.0000000000000000e+00 1
-4.8765091839579722e-02 2.2029925818402288e-01 0.0000000000000000e+00 1
-5.6051952363006308e-02 2.3257012756541473e-01 0.0000000000000000e+00 1
-6.3112703917255292e-02 2.4449613424377620e-01 0.0000000000000000e+00 1
-6.9928636445320297e-02 2.5605577833857329e-01 0.0000000000000000e+00 1
-7.6481039890194974e-02 2.6722755996927217e-01 0.0000000000000000e+00 1
-8.2751204194872946e-02 2.7798997925533886e-01 0.0000000000000000e+00 1
-8.8720419302347836e-02 2.8832153631623941e-01 0.0000000000000000e+00 1
-9.4369975155613295e-02 2.9820073127143992e-01 0.0000000000000000e+00 1
-9.9681161697662959e-02 3.0760606424040637e-01 0.0000000000000000e+00 1
-1.0463526887149044e-01 3.1651603534260492e-01 0.0000000000000000e+00 1
-1.0921358662008940e-01 3.2490914469750154e-01 0.0000000000000000e+00 1
-1.1339740488645345e-01 3.3276389242456239e-01 0.0000000000000000e+00 1
-1.1523371604847935e-01 3.3528529007514268e-01 0.0000000000000000e+00 1
-1.1795520514409635e-01 3.3766814343709656e-01 0.0000000000000000e+00 1
-1.2145590449428553e-01 3.3989946669607973e-01 0.0000000000000000e+00 1
-1.2562984642002781e-01 3.4196627403774799e-01 0.0000000000000000e+00 1
-1.3037106324230421e-01 3.4385557964775720e-01 0.0000000000000000e+00 1
-1.3557358728209581e-01 3.4555439771176333e-01 0.0000000000000000e+00 1
-1.4113145086038356e-01 3.4704974241542208e-01 0.0000000000000000e+00 1
-1.4693868629814844e-01 3.4832862794438912e-01 0.0000000000000000e+00 1
-1.5288932591637150e-01 3.4937806848432040e-01 0.0000000000000000e+00 1
-1.5887740203603379e-01 3.5018507822087191e-01 0.0000000000000000e+00 1
-1.6479694697811620e-01 3.5073667133969927e-01 0.0000000000000000e+00 1
-1.7054199306359985e-01 3.5101986202645830e-01 0.0000000000000000e+00 1
-1.7600657261346567e-01 3.5102166446680494e-01 0.0000000000000000e+00 1
-1.8108471794869471e-01 3.5072909284639492e-01 0.0000000000000000e+00 1
-1.8567046139026797e-01 3.5012916135088407e-01 0.0000000000000000e+00 1
-1.8965783525916641e-01 3.4920888416592827e-01 0.0000000000000000e+00 1
-1.9294087187637116e-01 3.4795527547718330e-01 0.0000000000000000e+00 1
-1.9541360356286308e-01 3.4635534947030505e-01 0.0000000000000000e+00 1
-1.9697006263962324e-01 3.4439612033094924e-01 0.0000000000000000e+00 1
-1.9750428142763268e-01 3.4206460224477175e-01 0.0000000000000000e+00 1
-1.9691029224787238e-01 3.3934780939742837e-01 0.0000000000000000e+00 1
-1.9331004327658780e-01 3.3040749821937454e-01 0.0000000000000000e+00 1
-1.8966505732503544e-01 3.2106959159110948e-01 0.0000000000000000e+00 1
-1.8597460285600584e-01 3.1135034932442951e-01 0.0000000000000000e+00 1
-1.8223794833228973e-01 3.0126603123113088e-01 0.0000000000000000e+00 1
-1.7845436221667763e-01 2.9083289712300986e-01 0.0000000000000000e+00 1
-1.7462311297196020e-01 2.8006720681186281e-01 0.0000000000000000e+00 1
-1.7074346906092805e-01 2.6898522010948611e-01 0.0000000000000000e+00 1
-1.6681469894637174e-01 2.5760319682767596e-01 0.0000000000000000e+00 1
-1.6283607109108189e-01 2.4593739677822868e-01 0.0000000000000000e+00 1
-1.5880685395784913e-01 2.3400407977294063e-01 0.0000000000000000e+00 1
-1.5472631600946396e-01 2.2181950562360797e-01 0.0000000000000000e+00 1
-1.5059372570871715e-01 2.0939993414202721e-01 0.0000000000000000e+00 1
-1.4640835151839920e-01 1.9676162513999454e-01 0.0000000000000000e+00 1
-1.4216946190130078e-01 1.8392083842930629e-01 0.0000000000000000e+00 1
-1.3787632532021246e-01 1.7089383382175874e-01 0.0000000000000000e+00 1
-1.3352821023792480e-01 1.5769687112914821e-01 0.0000000000000000e+00 1
-1.2912438511722849e-01 1.4434621016327104e-01 0.0000000000000000e+00 1
-1.2466411842091407e-01 1.3085811073592346e-01 0.0000000000000000e+00 1
-1.2014667861177220e-01 1.1724883265890179e-01 0.0000000000000000e+00 1
-1.1557133415259344e-01 1.0353463574400240e-01 0.0000000000000000e+00 1
-1.1093735350616840e-01 8.9731779803021564e-02 0.0000000000000000e+00 1
-1.0624400513528773e-01 7.5856524647755511e-02 0.0000000000000000e+00 1
-1.0149055750274197e-01 6.1925130090000682e-02 0.0000000000000000e+00 1
-9.6676279071321786e-02 4.7953855941553290e-02 0.0000000000000000e+00 1
-9.1800438303817775e-02 3.3958962014209712e-02 0.0000000000000000e+00 1
-8.6862303663020529e-02 1.9956708119766145e-02 0.0000000000000000e+00 1
-8.1861143611720602e-02 5.9633540700189530e-03 0.0000000000000000e+00 1
-7.6796226612708685e-02 -8.0048403232355625e-03 0.0000000000000000e+00 1
-7.1666821128775343e-02 -2.1931615248201017e-02 0.0000000000000000e+00 1
-6.6472195622711200e-02 -3.5800710893081303e-02 0.0000000000000000e+00 1
-6.1211618557306849e-02 -4.9595867446079869e-02 0.0000000000000000e+00 1
-5.5884358395352898e-02 -6.3300825095400595e-02 0.0000000000000000e+00 1
-5.0489683599639956e-02 -7.6899324029247110e-02 0.0000000000000000e+00 1
-4.5026862632958617e-02 -9.0375104435823098e-02 0.0000000000000000e+00 1
-3.9495163958099488e-02 -1.0371190650333224e-01 0.0000000000000000e+00 1
-3.3893856037853200e-02 -1.1689347041997829e-01 0.0000000000000000e+00 1
-2.8222207335010289e-02 -1.2990353637396501e-01 0.0000000000000000e+00 1
-2.2479486312361449e-02 -1.4272584455349591e-01 0.0000000000000000e+00 1
-1.6664961432697249e-02 -1.5534413514677470e-01 0.0000000000000000e+00 1
-1.0777901158808306e-02 -1.6774214834200529e-01 0.0000000000000000e+00 1
-4.8175739534851922e-03 -1.7990362432739115e-01 0.0000000000000000e+00 1
1.2167517204814335e-03 -1.9181230329113602e-01 0.0000000000000000e+00 1
7.3258074003010251e-03 -2.0345192542144369e-01 0.0000000000000000e+00 1
1.3510324623182975e-02 -2.1480623090651785e-01 0.0000000000000000e+00 1
1.9771034926336618e-02 -2.2585895993456206e-01 0.0000000000000000e+00 1
2.6108669846971376e-02 -2.3659385269378019e-01 0.0000000000000000e+00 1
3.2523960922296639e-02 -2.4699464937237581e-01 0.0000000000000000e+00 1
3.9017639689521814e-02 -2.5704509015855254e-01 0.0000000000000000e+00 1
4.5590437685856279e-02 -2.6672891524051423e-01 0.0000000000000000e+00 1
5.2243086448509467e-02 -2.7602986480646458e-01 0.0000000000000000e+00 1
5.8976317514690728e-02 -2.8493167904460726e-01 0.0000000000000000e+00 1
6.5790862421609475e-02 -2.9341809814314590e-01 0.0000000000000000e+00 1
7.2687452706475142e-02 -3.0147286229028425e-01 0.0000000000000000e+00 1
7.9666819906497044e-02 -3.0907971167422588e-01 0.0000000000000000e+00 1
8.6729695558884629e-02 -3.1622238648317480e-01 0.0000000000000000e+00 1
9.3876811200847232e-02 -3.2288462690533426e-01 0.0000000000000000e+00 1
1.0110889836959436e-01 -3.2905017312890839e-01 0.0000000000000000e+00 1
1.0842668860233529e-01 -3.3470276534210053e-01 0.0000000000000000e+00 1
1.1583091343627944e-01 -3.3982614373311459e-01 0.0000000000000000e+00 1
1.2332230440863631e-01 -3.4440404849015427e-01 0.0000000000000000e+00 1
1.3090159305661514e-01 -3.4842021980142313e-01 0.0000000000000000e+00 1
1.3856951091742542e-01 -3.5185839785512496e-01 0.0000000000000000e+00 1
1.4632678952827649e-01 -3.5470232283946346e-01 0.0000000000000000e+00 1
1.5417416042637783e-01 -3.5693573494264230e-01 0.0000000000000000e+00 1
1.6211235514893874e-01 -3.5854237435286507e-01 0.0000000000000000e+00 1
1.0287584211074154e-01 -3.2006668995541609e-01 0.0000000000000000e+00 1
7.5955979101012663e-02 -2.9195137074242006e-01 0.0000000000000000e+00 1
1.3874517759299812e-01 -3.4374226401992880e-01 0.0000000000000000e+00 1
5.0594280533944443e-02 -2.5626008518140347e-01 0.0000000000000000e+00 1
1.9946235782868829e-01 -2.7677206986972264e-01 0.0000000000000000e+00 1
2.5716838731864755e-02 -2.1722450416373443e-01 0.0000000000000000e+00 1
2.0908064415695385e-01 -3.1784139021244523e-01 0.0000000000000000e+00 1
1.7422052585490067e-01 -2.1196675780791541e-01 0.0000000000000000e+00 1
2.6592682181964828e-03 -1.6869791827342540e-01 0.0000000000000000e+00 1
-1.2956512618225621e-01 3.3898438044823576e-01 0.0000000000000000e+00 1
1.5680544614199399e-01 -1.7384180162775262e-01 0.0000000000000000e+00 1
-2.0182150303383745e-02 -1.2160330039006848e-01 0.0000000000000000e+00 1
-3.7789543584376147e-02 -7.8616115170168005e-02 0.0000000000000000e+00 1
1.3551897430132240e-01 -1.3382502410792121e-01 0.0000000000000000e+00 1
1.8783578724600289e-01 -2.4504068233500365e-01 0.0000000000000000e+00 1
1.1569208831823256e-01 -9.3910227910262753e-02 0.0000000000000000e+00 1
1.6729148630706900e-01 -3.5223906785258341e-01 0.0000000000000000e+00 1
-5.1572509900641460e-02 -4.0221808609381668e-02 0.0000000000000000e+00 1
-1.1409807504567093e-01 3.1768127749077479e-01 0.0000000000000000e+00 1
8.9979924039670589e-02 -5.1307620815380428e-02 0.0000000000000000e+00 1
-6.8046191999603101e-02 3.9458039629921690e-03 0.0000000000000000e+00 1
2.0200809554373209e-01 -3.4446049805680062e-01 0.0000000000000000e+00 1
-1.4581657110395865e-01 3.4231829807338354e-01 0.0000000000000000e+00 1
6.6285587827477704e-02 -4.3160625716125948e-03 0.0000000000000000e+00 1
-8.0481514732322082e-02 4.4244753478847286e-02 0.0000000000000000e+00 1
-9.7137715628712040e-02 8.7225938107181947e-02 0.0000000000000000e+00 1
4.1724456016556222e-02 3.9516930994880212e-02 0.0000000000000000e+00 1
-1.1122398275521102e-01 1.2788359994029874e-01 0.0000000000000000e+00 1
1.7930579588486855e-02 8.2005663037536175e-02 0.0000000000000000e+00 1
-1.7168428927591628e-01 2.9939523497266596e-01 0.0000000000000000e+00 1
-1.2476919813546108e-01 1.6784843669138083e-01 0.0000000000000000e+00 1
-9.9715954636048987e-02 2.8837739763756476e-01 0.0000000000000000e+00 1
-1.3796795053996530e-01 2.0604875482233004e-01 0.0000000000000000e+00 1
-1.7373070602658358e-02 1.4128168495900301e-01 0.0000000000000000e+00 1
-1.6284161394763963e-01 3.4590176596942046e-01 0.0000000000000000e+00 1
-1.4820382980066479e-01 2.4298290813382409e-01 0.0000000000000000e+00 1
-4.0950617543329106e-02 1.8149254767443540e-01 0.0000000000000000e+00 1
-6.3165354817997066e-02 2.2046193739463257e-01 0.0000000000000000e+00 1
-8.3171658921511807e-02 2.5645774397870574e-01 0.0000000000000000e+00 1
1.8653027141267312e-01 -3.5392295776671334e-01 0.0000000000000000e+00 1
-1.1846946750074908e-01 3.3417608961310857e-01 0.0000000000000000e+00 1
-1.6327476600183355e-01 2.7811622851549578e-01 0.0000000000000000e+00 1
-1.0624667814602747e-03 1.1217264541884753e-01 0.0000000000000000e+00 1
-1.1052944805596758e-02 -1.4317090385513712e-01 0.0000000000000000e+00 1
1.2366538921676117e-02 -1.9099069083588688e-01 0.0000000000000000e+00 1
3.8507086304364765e-02 -2.3524857742654720e-01 0.0000000000000000e+00 1
-1.7786128741051616e-01 3.4612143802540168e-01 0.0000000000000000e+00 1
6.3882217814061795e-02 -2.7498335650443484e-01 0.0000000000000000e+00 1
-1.7816495120367137e-01 3.1864187690425966e-01 0.0000000000000000e+00 1
2.0504664017015542e-01 -2.9584193633917422e-01 0.0000000000000000e+00 1
8.9418129716193853e-02 -3.0683984546392806e-01 0.0000000000000000e+00 1
-1.9002836731771378e-01 3.4634821315871855e-01 0.0000000000000000e+00 1
1.1613104873423583e-01 -3.3143917921164023e-01 0.0000000000000000e+00 1
1.5206112127015065e-01 -3.4871106681041031e-01 0.0000000000000000e+00 1
2.0738720007666209e-01 -3.3051769503488476e-01 0.0000000000000000e+00 1
1.9546700104679232e-01 -3.5090683489381813e-01 0.0000000000000000e+00 1
-1.9537777270078316e-01 3.4273565070942102e-01 0.0000000000000000e+00 1
-1.1679229926115853e-01 3.2571501139726555e-01 0.0000000000000000e+00 1
-1.2283742829282768e-01 3.1993851612837271e-01 0.0000000000000000e+00 1
-1.2066483818307197e-01 3.1106213973425317e-01 0.0000000000000000e+00 1
-1.2954433919021974e-01 3.1424010440292283e-01 0.0000000000000000e+00 1
-1.2759299021927881e-01 3.0489039960268782e-01 0.0000000000000000e+00 1
-1.3629522594717283e-01 3.0816604306259049e-01 0.0000000000000000e+00 1
-1.3481438771762666e-01 2.9858109792806831e-01 0.0000000000000000e+00 1
-1.3768549162633117e-01 3.1741118035213073e-01 0.0000000000000000e+00 1
-1.4473609921651359e-01 3.1152617655116921e-01 0.0000000000000000e+00 1
-1.4603757480107676e-01 3.2033431745162255e-01 0.0000000000000000e+00 1
-1.2552022063619278e-01 2.9519469154495559e-01 0.0000000000000000e+00 1
-1.3330462095099657e-01 2.8845789811834033e-01 0.0000000000000000e+00 1
-1.2355643985238898e-01 2.8517424629060933e-01 0.0000000000000000e+00 1
-1.3152245109808558e-01 2.7802652250482129e-01 0.0000000000000000e+00 1
-1.2151718750217286e-01 2.7436112450027039e-01 0.0000000000000000e+00 1
-1.2964315498192436e-01 2.6717229776087781e-01 0.0000000000000000e+00 1
-1.1910632812201377e-01 2.6293202868163290e-01 0.0000000000000000e+00 1
-1.5285693684879920e-01 3.1512852259398538e-01 0.0000000000000000e+00 1
-1.5419046300339212e-01 3.2343420977612969e-01 0.0000000000000000e+00 1
-1.5178717632955402e-01 3.0669161745025342e-01 0.0000000000000000e+00 1
-1.2960929489774117e-01 2.5494839420321380e-01 0.0000000000000000e+00 1
-1.1682020306919612e-01 2.5111253230459296e-01 0.0000000000000000e+00 1
-1.2576636649062989e-01 2.4329357897376691e-01 0.0000000000000000e+00 1
-1.1411032262908577e-01 2.3904458899782649e-01 0.0000000000000000e+00 1
-1.3968584718485577e-01 3.2581975862591445e-01 0.0000000000000000e+00 1
-1.4026116839274622e-01 2.7137012634806057e-01 0.0000000000000000e+00 1
-1.2365328814221163e-01 2.3086293658393942e-01 0.0000000000000000e+00 1
-1.1161056731831326e-01 2.2647445464881583e-01 0.0000000000000000e+00 1
-1.0188087694171646e-01 2.3490479067697870e-01 0.0000000000000000e+00 1
-9.9304649443555576e-02 2.2212523015831576e-01 0.0000000000000000e+00 1
-1.0990284233827505e-01 2.1339522372822883e-01 0.0000000000000000e+00 1
-9.6745383848692551e-02 2.0900599631109920e-01 0.0000000000000000e+00 1
-1.0770103815966989e-01 2.0003367978029732e-01 0.0000000000000000e+00 1
-9.4085757514183049e-02 1.9560969378038442e-01 0.0000000000000000e+00 1
-8.9358254548784100e-02 2.3076878085028751e-01 0.0000000000000000e+00 1
-1.6111142767408024e-01 3.1856161629026647e-01 0.0000000000000000e+00 1
-1.6214994844788094e-01 3.2654941394013093e-01 0.0000000000000000e+00 1
-1.5571282151175336e-01 3.3150942887147983e-01 0.0000000000000000e+00 1
-1.0467528842485097e-01 1.8655832910968645e-01 0.0000000000000000e+00 1
-9.1464875794809691e-02 1.8182879279097366e-01 0.0000000000000000e+00 1
-8.0696123156070942e-02 1.9113546787218008e-01 0.0000000000000000e+00 1
-7.8020644148008939e-02 1.7719005023916193e-01 0.0000000000000000e+00 1
-8.8885409485661718e-02 1.6779761040384977e-01 0.0000000000000000e+00 1
-7.5270035502898805e-02 1.6304248826492662e-01 0.0000000000000000e+00 1
-8.6301181590760861e-02 1.5354290689026656e-01 0.0000000000000000e+00 1
-7.2501783147342042e-02 1.4875551298296952e-01 0.0000000000000000e+00 1
-8.3662084242417778e-02 1.3911922205870994e-01 0.0000000000000000e+00 1
-6.9690497088352107e-02 1.3423655550460556e-01 0.0000000000000000e+00 1
-8.0961303132038948e-02 1.2454306225399624e-01 0.0000000000000000e+00 1
-6.6874642873517687e-02 1.1960056367636815e-01 0.0000000000000000e+00 1
-5.9598676266877183e-02 1.4369909748623888e-01 0.0000000000000000e+00 1
-1.0825546185568266e-01 2.5938440350029046e-01 0.0000000000000000e+00 1
-7.8213015028125110e-02 1.0987016849119918e-01 0.0000000000000000e+00 1
-6.4036685236331659e-02 1.0480608986427278e-01 0.0000000000000000e+00 1
-5.2557685973318238e-02 1.1470274397660470e-01 0.0000000000000000e+00 1
-4.9682554888619120e-02 9.9729484370460725e-02 0.0000000000000000e+00 1
-6.1282083967777075e-02 8.9801373911560248e-02 0.0000000000000000e+00 1
-4.6873095356957044e-02 8.4654406370601662e-02 0.0000000000000000e+00 1
-5.8551012386902510e-02 7.4691060305836512e-02 0.0000000000000000e+00 1
-4.4025977905736889e-02 6.9441634165142360e-02 0.0000000000000000e+00 1
-3.2191234317107562e-02 7.9546180278677658e-02 0.0000000000000000e+00 1
-2.9347932159985830e-02 6.4183388216085727e-02 0.0000000000000000e+00 1
-4.1256400269626924e-02 5.4083233301508354e-02 0.0000000000000000e+00 1
-2.6547452766146500e-02 4.8763076483207712e-02 0.0000000000000000e+00 1
-3.8548915889359922e-02 3.8713046554294923e-02 0.0000000000000000e+00 1
-2.3798324972331454e-02 3.3320168333810102e-02 0.0000000000000000e+00 1
-1.1680090835855287e-02 4.3481337073882451e-02 0.0000000000000000e+00 1
-8.9201054662535334e-03 2.7869310631290018e-02 0.0000000000000000e+00 1
-2.1049196421943091e-02 1.7713456530944957e-02 0.0000000000000000e+00 1
-6.2060051778174748e-03 1.2251149555700393e-02 0.0000000000000000e+00 1
-1.8293535036355564e-02 2.0908365438354701e-03 0.0000000000000000e+00 1
-3.5259893055483707e-03 -3.3166280486390922e-03 0.0000000000000000e+00 1
-1.5629145994464393e-02 -1.3419954820821091e-02 0.0000000000000000e+00 1
-8.7736366883134462e-04 -1.8813668937331929e-02 0.0000000000000000e+00 1
-1.3062516426569262e-02 -2.8852207912078438e-02 0.0000000000000000e+00 1
1.6748029561318039e-03 -3.4315377876667795e-02 0.0000000000000000e+00 1
1.3677830735353884e-02 -2.4572020055870242e-02 0.0000000000000000e+00 1
1.6446528104123476e-02 -3.9706632835086894e-02 0.0000000000000000e+00 1
4.2893422064034844e-03 -4.9851731006131134e-02 0.0000000000000000e+00 1
1.8954419843858650e-02 -5.5220131596960910e-02 0.0000000000000000e+00 1
3.1062710972238429e-02 -4.5192649286892907e-02 0.0000000000000000e+00 1
3.3559055173889449e-02 -6.0634153092921313e-02 0.0000000000000000e+00 1
2.1463708260013464e-02 -7.0457382827045209e-02 0.0000000000000000e+00 1
3.5918893251347700e-02 -7.5931805487537599e-02 0.0000000000000000e+00 1
2.4022655266501845e-02 -8.5603077570499633e-02 0.0000000000000000e+00 1
3.8245972585715743e-02 -9.1073238222479272e-02 0.0000000000000000e+00 1
2.6445762514395184e-02 -1.0065915359547803e-01 0.0000000000000000e+00 1
4.0639503837853821e-02 -1.0600989369717595e-01 0.0000000000000000e+00 1
5.2353658364273442e-02 -9.6520173149910266e-02 0.0000000000000000e+00 1
5.4578731875122993e-02 -1.1144008850475062e-01 0.0000000000000000e+00 1
4.2988902640849355e-02 -1.2079124548714459e-01 0.0000000000000000e+00 1
5.6750886316518506e-02 -1.2618609370682835e-01 0.0000000000000000e+00 1
4.5238013015096619e-02 -1.3532297289822176e-01 0.0000000000000000e+00 1
5.8863151952343082e-02 -1.4064949947722111e-01 0.0000000000000000e+00 1
7.0340465664256890e-02 -1.3160208762879511e-01 0.0000000000000000e+00 1
7.2323442891516113e-02 -1.4601221341111056e-01 0.0000000000000000e+00 1
6.1051439843774154e-02 -1.5490303540599903e-01 0.0000000000000000e+00 1
7.4266637653785911e-02 -1.6019537972717168e-01 0.0000000000000000e+00 1
6.3199518273778149e-02 -1.6889027748138985e-01 0.0000000000000000e+00 1
7.6229159000638300e-02 -1.7408124586696488e-01 0.0000000000000000e+00 1
8.7277028031823273e-02 -1.6552192915846164e-01 0.0000000000000000e+00 1
8.9040513289153994e-02 -1.7931215261186031e-01 0.0000000000000000e+00 1
7.8234312603160605e-02 -1.8769844563920918e-01 0.0000000000000000e+00 1
9.0754627050330883e-02 -1.9283819227862667e-01 0.0000000000000000e+00 1
8.0178771327013426e-02 -2.0099743304317258e-01 0.0000000000000000e+00 1
9.2489817957870729e-02 -2.0599886602521394e-01 0.0000000000000000e+00 1
1.0299683696384268e-01 -1.9799999499551385e-01 0.0000000000000000e+00 1
1.0465432497032190e-01 -2.1102965735911816e-01 0.0000000000000000e+00 1
9.4310931535631276e-02 -2.1882726827358862e-01 0.0000000000000000e+00 1
1.0612210944792991e-01 -2.2369977604138286e-01 0.0000000000000000e+00 1
9.6091093049280762e-02 -2.3134346033990033e-01 0.0000000000000000e+00 1
1.0754094997146590e-01 -2.3606414146718827e-01 0.0000000000000000e+00 1
1.1741659869006205e-01 -2.2879769201679820e-01 0.0000000000000000e+00 1
1.1869345094483003e-01 -2.4083456529844416e-01 0.0000000000000000e+00 1
1.0929645021529297e-01 -2.4791952722546262e-01 0.0000000000000000e+00 1
1.2006274526657719e-01 -2.5263541578082238e-01 0.0000000000000000e+00 1
1.2932546642238105e-01 -2.4590097233225650e-01 0.0000000000000000e+00 1
1.3050491812510251e-01 -2.5722303659933748e-01 0.0000000000000000e+00 1
1.2147096296075473e-01 -2.6387306847187658e-01 0.0000000000000000e+00 1
1.3161041104048071e-01 -2.6835369529275011e-01 0.0000000000000000e+00 1
1.2306919924361505e-01 -2.7481590700305025e-01 0.0000000000000000e+00 1
1.3307999882570232e-01 -2.7906836068391483e-01 0.0000000000000000e+00 1
1.4149399257218340e-01 -2.7282869483354549e-01 0.0000000000000000e+00 1
1.4259734909189872e-01 -2.8344571300469801e-01 0.0000000000000000e+00 1
1.5125131162563793e-01 -2.7728505524055969e-01 0.0000000000000000e+00 1
1.5213422458931891e-01 -2.8769395494680433e-01 0.0000000000000000e+00 1
1.4381464134042590e-01 -2.9354790627179422e-01 0.0000000000000000e+00 1
1.5288138095657006e-01 -2.9769116076726698e-01 0.0000000000000000e+00 1
1.4496188280588782e-01 -3.0343916061909743e-01 0.0000000000000000e+00 1
1.5378065871000846e-01 -3.0730205190348403e-01 0.0000000000000000e+00 1
1.6157072633344613e-01 -3.0179004765253492e-01 0.0000000000000000e+00 1
1.6251108554663179e-01 -3.1103422388476099e-01 0.0000000000000000e+00 1
1.5016640197722572e-01 -2.6672788606499276e-01 0.0000000000000000e+00 1
1.3591286941681435e-01 -2.9948904656245301e-01 0.0000000000000000e+00 1
9.9905561608978566e-02 -1.7093640071975338e-01 0.0000000000000000e+00 1
1.1276023253133571e-01 -2.7054543072540105e-01 0.0000000000000000e+00 1
1.1513849551752994e-01 -2.0314060751016261e-01 0.0000000000000000e+00 1
1.6999546861959550e-01 -3.0581033443968891e-01 0.0000000000000000e+00 1
1.7093422964307542e-01 -3.1475729287501741e-01 0.0000000000000000e+00 1
1.6990999956358213e-01 -2.9596939243006926e-01 0.0000000000000000e+00 1
1.5995865655508457e-01 -2.7116311370841878e-01 0.0000000000000000e+00 1
8.4440673692207049e-02 -2.2662513707690546e-01 0.0000000000000000e+00 1
8.6241752620033599e-02 -2.3884492927125947e-01 0.0000000000000000e+00 1
1.5494242159152743e-01 -3.1650151642804636e-01 0.0000000000000000e+00 1
8.3595664502886621e-02 -1.3713208016233353e-01 0.0000000000000000e+00 1
6.7775691748819894e-02 -1.9606813962802772e-01 0.0000000000000000e+00 1
1.7814727419461912e-01 -3.0968136711590599e-01 0.0000000000000000e+00 1
1.7882457749738814e-01 -3.1833940595111343e-01 0.0000000000000000e+00 1
1.7196122333218444e-01 -3.2326805573871553e-01 0.0000000000000000e+00 1
1.7958220511940720e-01 -3.2672873920368595e-01 0.0000000000000000e+00 1
1.1491303922993197e-01 -2.8123807286554514e-01 0.0000000000000000e+00 1
5.0112318029569433e-02 -1.6377300217672680e-01 0.0000000000000000e+00 1
1.5887045696518198e-01 -2.6050395227052558e-01 0.0000000000000000e+00 1
1.3707181899104548e-01 -3.0917558329039763e-01 0.0000000000000000e+00 1
1.2825425167798726e-01 -3.0537169064600694e-01 0.0000000000000000e+00 1
6.6418618197527354e-02 -1.0202988686985444e-01 0.0000000000000000e+00 1
1.0184246371903649e-02 7.2115570127153222e-03 0.0000000000000000e+00 1
9.7532048346714480e-03 -8.0331045934591658e-02 0.0000000000000000e+00 1
1.0434952913895369e-01 -2.7715270607459225e-01 0.0000000000000000e+00 1
3.1662175656329471e-02 -1.3005439297121807e-01 0.0000000000000000e+00 1
7.4921891242230393e-02 -2.3428896180195571e-01 0.0000000000000000e+00 1
6.4245361979150581e-02 -8.6983356572631482e-02 0.0000000000000000e+00 1
4.5799879167530824e-02 -5.0751923158053408e-02 0.0000000000000000e+00 1
1.8583946069464613e-01 -3.1339338618158696e-01 0.0000000000000000e+00 1
1.6859204125886001e-01 -2.6502710318196732e-01 0.0000000000000000e+00 1
1.7308063368941934e-01 -3.3155039264808966e-01 0.0000000000000000e+00 1
1.8048065849752618e-01 -3.3459955189693341e-01 0.0000000000000000e+00 1
1.8657010874601915e-01 -3.3013216517200755e-01 0.0000000000000000e+00 1
1.8523424657081225e-01 -3.0476516086487471e-01 0.0000000000000000e+00 1
7.6688556673866592e-02 -2.4627174260308018e-01 0.0000000000000000e+00 1
-3.0297413011727892e-02 -7.9359781849884410e-03 0.0000000000000000e+00 1
1.0643621454206884e-01 -2.8767149577251511e-01 0.0000000000000000e+00 1
4.3244482903405282e-02 -3.5071779619362566e-02 0.0000000000000000e+00 1
-3.8045624096513145e-02 1.0975526021588046e-01 0.0000000000000000e+00 1
1.9294965255718269e-01 -3.0850478412196047e-01 0.0000000000000000e+00 1
7.8063014303918030e-02 -9.2563232730872552e-02 0.0000000000000000e+00 1
3.3521469016606588e-03 3.8110547482265417e-02 0.0000000000000000e+00 1
1.6762798904114606e-01 -2.5416300811941361e-01 0.0000000000000000e+00 1
1.5786426743393667e-01 -2.4948995916884759e-01 0.0000000000000000e+00 1
1.6680459045343976e-01 -2.4285700370497743e-01 0.0000000000000000e+00 1
1.5648429524153540e-01 -2.3799764680361701e-01 0.0000000000000000e+00 1
1.8733101179240597e-01 -3.3751509764609000e-01 0.0000000000000000e+00 1
8.8833529242679454e-02 -2.5063437333347433e-01 0.0000000000000000e+00 1
1.2946174681230946e-01 -3.1487219707875724e-01 0.0000000000000000e+00 1
1.3804465065509347e-01 -3.1861821160216031e-01 0.0000000000000000e+00 1
1.6964195400079124e-01 -2.7557411742090043e-01 0.0000000000000000e+00 1
1.7821990256083778e-01 -2.6956519981434146e-01 0.0000000000000000e+00 1
1.7901231195271999e-01 -2.7989049433355001e-01 0.0000000000000000e+00 1
5.2521320334301611e-02 -1.7757345714740383e-01 0.0000000000000000e+00 1
3.9533907009564981e-02 -1.7253598888814228e-01 0.0000000000000000e+00 1
4.2202790532672313e-02 -1.8612534933689756e-01 0.0000000000000000e+00 1
1.6527161825114051e-01 -3.2831564127020552e-01 0.0000000000000000e+00 1
5.8193891549885551e-02 -4.0717763460765478e-02 0.0000000000000000e+00 1
3.4126997015583527e-02 -1.4444460631100350e-01 0.0000000000000000e+00 1
7.0021529161555296e-02 -2.0915343876901218e-01 0.0000000000000000e+00 1
5.7699719537205041e-02 -2.0432092073638120e-01 0.0000000000000000e+00 1
6.0254959750480910e-02 -2.1716474537595859e-01 0.0000000000000000e+00 1
1.2061475535343727e-01 -3.1115425851143280e-01 0.0000000000000000e+00 1
-1.7376069134670338e-02 7.4382829256063598e-02 0.0000000000000000e+00 1
1.9312815317100612e-01 -3.3336396050797568e-01 0.0000000000000000e+00 1
1.9270482162519262e-01 -3.2626515184353688e-01 0.0000000000000000e+00 1
2.0388629921952364e-02 -1.3915487633582457e-01 0.0000000000000000e+00 1
1.7579499592375619e-02 -1.2461948219466619e-01 0.0000000000000000e+00 1
1.1357241844379568e-01 -1.8998915612104611e-01 0.0000000000000000e+00 1
1.2571704207878906e-01 -1.9527805860933767e-01 0.0000000000000000e+00 1
1.2390309589502810e-01 -1.8185170109341176e-01 0.0000000000000000e+00 1
1.2725425475086868e-01 -2.0839686681311156e-01 0.0000000000000000e+00 1
1.3779446088531744e-01 -2.0056226648741174e-01 0.0000000000000000e+00 1
1.3917507741059501e-01 -2.1340896715545377e-01 0.0000000000000000e+00 1
7.9511611967291507e-02 -1.0787818078380569e-01 0.0000000000000000e+00 1
9.8337993903833590e-02 -1.5696373874842154e-01 0.0000000000000000e+00 1
1.1111227216571469e-01 -1.6226293884425530e-01 0.0000000000000000e+00 1
1.0954836648366517e-01 -1.4819038666854784e-01 0.0000000000000000e+00 1
6.0288087450605904e-02 -5.6449664677628589e-02 0.0000000000000000e+00 1
5.0700136007834407e-04 5.3809591630122444e-02 0.0000000000000000e+00 1
1.8141382751631152e-01 -3.4184847252707351e-01 0.0000000000000000e+00 1
9.5856334612588315e-02 -2.8362210213185363e-01 0.0000000000000000e+00 1
9.4305556012751812e-02 -2.7302499603067704e-01 0.0000000000000000e+00 1
7.9466337562890732e-02 -2.5784039861596963e-01 0.0000000000000000e+00 1
-1.4225486938098508e-01 2.9214142683899813e-01 0.0000000000000000e+00 1
1.4952141014323517e-01 -2.0537628271942424e-01 0.0000000000000000e+00 1
1.6661039234369493e-01 -3.3644626523511240e-01 0.0000000000000000e+00 1
1.5876514829020869e-01 -3.3339091809449534e-01 0.0000000000000000e+00 1
-9.9692166971851987e-02 1.5845859816484725e-01 0.0000000000000000e+00 1
1.1938727834162412e-01 -3.0152236786450204e-01 0.0000000000000000e+00 1
-3.9617129983500914e-02 1.2635552663670502e-01 0.0000000000000000e+00 1
7.6238677194117171e-02 -7.7270780421702559e-02 0.0000000000000000e+00 1
-5.3110569264766407e-02 4.4134610748545890e-02 0.0000000000000000e+00 1
-5.0464021472246171e-02 2.8801289193947519e-02 0.0000000000000000e+00 1
2.1330662180959813e-02 -1.5422057618368346e-01 0.0000000000000000e+00 1
-1.1883479166092828e-01 1.9066487767757601e-01 0.0000000000000000e+00 1
-2.0346917175530593e-02 8.9685769128593620e-02 0.0000000000000000e+00 1
-1.9236075152315305e-01 3.3964703900468940e-01 0.0000000000000000e+00 1
-6.7363402056061492e-02 1.8654834085721053e-01 0.0000000000000000e+00 1
6.5397445463907564e-02 -2.4149305498996798e-01 0.0000000000000000e+00 1
1.3072739470750547e-01 -3.2389244054407784e-01 0.0000000000000000e+00 1
1.3971340724267414e-01 -3.2840465920491585e-01 0.0000000000000000e+00 1
1.2225441808430899e-01 -1.5385069535394691e-01 0.0000000000000000e+00 1
1.1161350322302882e-01 -3.0741905751807252e-01 0.0000000000000000e+00 1
9.0505264862653950e-02 -8.3430354929384110e-02 0.0000000000000000e+00 1
4.7577284942356815e-02 -2.1283049674914359e-01 0.0000000000000000e+00 1
1.5902471799313526e-02 4.7727334090686038e-02 0.0000000000000000e+00 1
1.6612621461199500e-01 -2.3127427383954050e-01 0.0000000000000000e+00 1
-7.2365280057887227e-02 8.0051852092132836e-02 0.0000000000000000e+00 1
-1.2434369584454243e-01 3.2736304033669844e-01 0.0000000000000000e+00 1
1.8270680999982553e-02 3.2435522759125104e-02 0.0000000000000000e+00 1
-9.2264334496406697e-02 1.1440429495301131e-01 0.0000000000000000e+00 1
-1.6338793526605419e-01 3.3527422845951821e-01 0.0000000000000000e+00 1
-1.6951893298405332e-01 3.2984065884272673e-01 0.0000000000000000e+00 1
-1.7082443949682269e-01 3.3731310707311668e-01 0.0000000000000000e+00 1
-1.7650331365725191e-01 3.3281737763358266e-01 0.0000000000000000e+00 1
1.5488131897282997e-01 -2.2622936320662279e-01 0.0000000000000000e+00 1
1.4742877560950904e-01 -2.3479285044235626e-01 0.0000000000000000e+00 1
-2.5403270426586973e-02 1.1916296952149658e-01 0.0000000000000000e+00 1
1.3951360990707060e-01 -2.5094716847837867e-01 0.0000000000000000e+00 1
1.9202459546500217e-01 -2.9984965684266229e-01 0.0000000000000000e+00 1
1.8513212045067129e-01 -2.9710100069046458e-01 0.0000000000000000e+00 1
1.9143669164308919e-01 -2.9069827509136587e-01 0.0000000000000000e+00 1
-6.9240103804563552e-02 6.5004879514397110e-02 0.0000000000000000e+00 1
8.5898453955127962e-02 -2.7905119110082588e-01 0.0000000000000000e+00 1
1.9370801487398262e-01 -3.3969316924556942e-01 0.0000000000000000e+00 1
1.9955548925116640e-01 -3.3629094175549562e-01 0.0000000000000000e+00 1
1.3090530906508907e-01 -3.3231681039922056e-01 0.0000000000000000e+00 1
-1.1606858328957938e-01 2.9209455201958745e-01 0.0000000000000000e+00 1
-7.1413455178758078e-02 2.0042687144790231e-01 0.0000000000000000e+00 1
1.4935417068641582e-01 -1.9319687900469976e-01 0.0000000000000000e+00 1
9.8675116556048617e-02 -2.9356577788689076e-01 0.0000000000000000e+00 1
-1.3555029165884777e-01 2.3524260574778233e-01 0.0000000000000000e+00 1
-6.4967927732999114e-02 3.3988987128771367e-02 0.0000000000000000e+00 1
2.9804456021084058e-02 -1.8095841954388697e-01 0.0000000000000000e+00 1
3.2807952477202126e-02 -1.9450529519888471e-01 0.0000000000000000e+00 1
1.7672333154621148e-01 -2.3657372192605761e-01 0.0000000000000000e+00 1
1.5888104466070871e-01 -1.9927026863792174e-01 0.0000000000000000e+00 1
5.7473496469535840e-02 -2.5925578296292870e-02 0.0000000000000000e+00 1
4.2020370817551722e-02 -1.8455224759131857e-02 0.0000000000000000e+00 1
6.9653877189935126e-02 -3.3131852604178023e-02 0.0000000000000000e+00 1
9.5246769370340365e-03 -1.4822301805626356e-01 0.0000000000000000e+00 1
-5.6866396621134394e-02 1.9718871897263082e-01 0.0000000000000000e+00 1
1.5965239395395647e-01 -3.4176703839866907e-01 0.0000000000000000e+00 1
1.5193730482331427e-01 -3.3884899183855355e-01 0.0000000000000000e+00 1
1.5068711610998017e-01 -3.3026604622731809e-01 0.0000000000000000e+00 1
4.9421794341759265e-02 -2.2502052380963608e-01 0.0000000000000000e+00 1
-1.1064027930590639e-01 3.0897360384713990e-01 0.0000000000000000e+00 1
-6.1461228874436962e-03 8.4807550827333725e-02 0.0000000000000000e+00 1
-8.3933219275240459e-02 6.9130477679997693e-02 0.0000000000000000e+00 1
-1.3350940345493206e-01 2.2363413769514495e-01 0.0000000000000000e+00 1
1.9409241288080245e-01 -3.1746859749704121e-01 0.0000000000000000e+00 1
-1.4741863704023692e-01 3.2979387738876975e-01 0.0000000000000000e+00 1
-1.4023605626590069e-01 3.3380923004448665e-01 0.0000000000000000e+00 1
-1.3430379461370215e-01 3.3125535112196114e-01 0.0000000000000000e+00 1
-1.3088535619494893e-01 3.2411759075991237e-01 0.0000000000000000e+00 1
1.9936290683375382e-01 -3.1161921508386425e-01 0.0000000000000000e+00 1
-1.5670303652959050e-01 3.3867749105110856e-01 0.0000000000000000e+00 1
-1.5035382929574620e-01 3.3665142135605758e-01 0.0000000000000000e+00 1
-1.0676625296957803e-01 2.9790615384334235e-01 0.0000000000000000e+00 1
-9.0056056852471117e-02 2.4480288762380653e-01 0.0000000000000000e+00 1
-7.7202497076396023e-02 2.3817928113157555e-01 0.0000000000000000e+00 1
1.8896135426434296e-01 -2.7486535374923265e-01 0.0000000000000000e+00 1
1.8678908679270148e-01 -2.6368576443296377e-01 0.0000000000000000e+00 1
1.2828119493524134e-02 6.4561764439063835e-02 0.0000000000000000e+00 1
-1.7538536945813293e-01 3.0861596075075026e-01 0.0000000000000000e+00 1
-1.6590473062473815e-01 3.0586873035262252e-01 0.0000000000000000e+00 1
-1.6203807713143803e-01 2.9704246364583109e-01 0.0000000000000000e+00 1
1.8833338271869171e-01 -3.4375145762692505e-01 0.0000000000000000e+00 1
1.2096878329102162e-01 -1.3940319004883966e-01 0.0000000000000000e+00 1
1.0764050754085391e-01 -1.3367801835829282e-01 0.0000000000000000e+00 1
1.1939100073971770e-01 -1.2514671179956730e-01 0.0000000000000000e+00 1
1.0558890681476460e-01 -1.1895388447036406e-01 0.0000000000000000e+00 1
1.1289191858387375e-01 -3.1706342713856794e-01 0.0000000000000000e+00 1
1.2803539273661418e-01 -2.2076467985896514e-01 0.0000000000000000e+00 1
8.9995837166013018e-02 -6.9214120179350413e-02 0.0000000000000000e+00 1
-7.6514849154715209e-02 2.2585109410753956e-01 0.0000000000000000e+00 1
1.6996171002361921e-01 -2.8574613864414156e-01 0.0000000000000000e+00 1
1.6062553103427535e-01 -2.8163260669477364e-01 0.0000000000000000e+00 1
1.7421594359392958e-01 -3.3925261268465073e-01 0.0000000000000000e+00 1
1.7483332986392480e-01 -3.4664997563946504e-01 0.0000000000000000e+00 1
1.4585160826527455e-01 -3.1291888046020533e-01 0.0000000000000000e+00 1
1.1703602337301777e-01 -1.1082025743843855e-01 0.0000000000000000e+00 1
-6.2260922944992407e-02 1.8910336574981916e-02 0.0000000000000000e+00 1
-4.7911420912267154e-02 1.3635751582713407e-02 0.0000000000000000e+00 1
2.6467096059835660e-02 -1.6772634002583778e-01 0.0000000000000000e+00 1
1.6344817842752185e-02 -1.7685778940992902e-01 0.0000000000000000e+00 1
4.5351396213714798e-02 -1.9948514371345327e-01 0.0000000000000000e+00 1
8.4246997473381866e-02 -2.6875334689577873e-01 0.0000000000000000e+00 1
7.5234363942545207e-02 -2.7571008907334521e-01 0.0000000000000000e+00 1
9.3039736749236365e-02 -2.6202725851411135e-01 0.0000000000000000e+00 1
1.0334797719406107e-01 -1.0402545970374230e-01 0.0000000000000000e+00 1
1.7880902562310813e-01 -2.2500375046147120e-01 0.0000000000000000e+00 1
-8.8994697807842540e-02 2.6733878877007650e-01 0.0000000000000000e+00 1
6.3314104872483179e-02 -2.2971320779520193e-01 0.0000000000000000e+00 1
5.2877758822699447e-02 -2.3759652000247256e-01 0.0000000000000000e+00 1
3.7654486494135844e-02 -2.2096950981574684e-01 0.0000000000000000e+00 1
-1.6774789405758206e-01 2.8876599760622002e-01 0.0000000000000000e+00 1
-1.5756828245950846e-01 2.8713696258420357e-01 0.0000000000000000e+00 1
-1.5118059934905201e-01 2.7662836206626168e-01 0.0000000000000000e+00 1
-1.5922887516062706e-01 2.6695076037821008e-01 0.0000000000000000e+00 1
-1.5474098513565807e-01 2.5538939545736772e-01 0.0000000000000000e+00 1
-1.4268022056669200e-01 2.5304281687434232e-01 0.0000000000000000e+00 1
1.0936235719508863e-01 -2.9758849878308802e-01 0.0000000000000000e+00 1
9.9928535076743971e-02 -3.0420806996579813e-01 0.0000000000000000e+00 1
1.1747585355084664e-01 -2.9157425633099454e-01 0.0000000000000000e+00 1
1.4416966665493064e-01 -3.3614790727063149e-01 0.0000000000000000e+00 1
1.2226193717442163e-01 -3.1985756263724796e-01 0.0000000000000000e+00 1
6.7748777794071055e-02 -2.5238802778381558e-01 0.0000000000000000e+00 1
2.0019459863786665e-01 -3.0368372507579955e-01 0.0000000000000000e+00 1
-1.6919707506393505e-01 3.2188575595803159e-01 0.0000000000000000e+00 1
9.8179495370725636e-02 -2.4330208077612886e-01 0.0000000000000000e+00 1
-9.4681165986508622e-02 2.7826469453311342e-01 0.0000000000000000e+00 1
-1.0506024663944682e-01 2.7948187002110469e-01 0.0000000000000000e+00 1
1.2846309000433953e-01 -2.3353952818153867e-01 0.0000000000000000e+00 1
1.2338954396442392e-02 -9.5249234584606934e-02 0.0000000000000000e+00 1
-1.8046667789596731e-03 -8.9967363628807195e-02 0.0000000000000000e+00 1
-4.5899477932494076e-03 -7.5013757226092492e-02 0.0000000000000000e+00 1
1.2220313594445171e-03 -1.0462435348150824e-01 0.0000000000000000e+00 1
-1.3097991156850168e-02 -9.9525250774199631e-02 0.0000000000000000e+00 1
7.0646832658243265e-03 -6.5090191752263285e-02 0.0000000000000000e+00 1
-7.4540679236416449e-03 -5.9993660402235610e-02 0.0000000000000000e+00 1
-1.8201057937017102e-02 -6.9630420859089714e-02 0.0000000000000000e+00 1
-2.1904399462921387e-02 -5.5150813983180572e-02 0.0000000000000000e+00 1
-1.0251176336428563e-02 -4.4464875331645594e-02 0.0000000000000000e+00 1
-2.4626477492762172e-02 -3.8990340094658862e-02 0.0000000000000000e+00 1
-3.6525100273651037e-02 -4.7352430319565687e-02 0.0000000000000000e+00 1
4.7792540840350957e-02 -1.4968803176708639e-01 0.0000000000000000e+00 1
6.5611360545609065e-02 -1.8263954066869070e-01 0.0000000000000000e+00 1
-1.5000400046595851e-02 -8.4598252281118447e-02 0.0000000000000000e+00 1
-2.8758138128908060e-02 -9.1836351158682342e-02 0.0000000000000000e+00 1
-2.5521597809576288e-02 1.5419757976161191e-01 0.0000000000000000e+00 1
-3.3192520182705264e-02 1.4039956315244306e-01 0.0000000000000000e+00 1
-3.9936269024621614e-02 1.5364758791332939e-01 0.0000000000000000e+00 1
-3.3450804797762357e-02 1.6760867347889796e-01 0.0000000000000000e+00 1
-4.9542544513254155e-02 1.6687539036356336e-01 0.0000000000000000e+00 1
1.9836672801649963e-01 -3.2958366655478066e-01 0.0000000000000000e+00 1
8.2435412672477587e-02 -2.1399298802069325e-01 0.0000000000000000e+00 1
-1.1132549866545815e-02 1.2653462668256577e-01 0.0000000000000000e+00 1
-3.3067001745760299e-02 7.7110227212015313e-03 0.0000000000000000e+00 1
-4.4181845422906263e-02 -2.1836767815478710e-03 0.0000000000000000e+00 1
-4.2432265565145788e-02 -1.7453750205734468e-02 0.0000000000000000e+00 1
-5.6527425960838457e-02 -1.2547048553950503e-02 0.0000000000000000e+00 1
-2.7406254073881940e-02 -2.3274758561367882e-02 0.0000000000000000e+00 1
6.6072899544034440e-03 9.5280748223114317e-02 0.0000000000000000e+00 1
-8.8325903138167572e-02 9.8770880139662648e-02 0.0000000000000000e+00 1
1.4844612889529188e-02 -1.1002686083551269e-01 0.0000000000000000e+00 1
4.0309098388555233e-03 -1.1928689606362881e-01 0.0000000000000000e+00 1
7.5456477728217232e-03 -1.3379886068715535e-01 0.0000000000000000e+00 1
-6.3224617421154990e-03 -1.2957111800500176e-01 0.0000000000000000e+00 1
1.4409318432108981e-01 -1.4776433023837177e-01 0.0000000000000000e+00 1
1.8605107417310512e-01 -3.2203124293019253e-01 0.0000000000000000e+00 1
1.1643686268555445e-01 -2.1597154659992307e-01 0.0000000000000000e+00 1
-9.5894313941405046e-02 1.2909148081706512e-01 0.0000000000000000e+00 1
-9.7004994123973801e-02 1.4441084859740724e-01 0.0000000000000000e+00 1
-1.0854606729532286e-01 1.4964414163909784e-01 0.0000000000000000e+00 1
1.5051944103939213e-01 -1.6133210288624641e-01 0.0000000000000000e+00 1
1.4243393918858907e-01 -1.7349291559317467e-01 0.0000000000000000e+00 1
1.3593790904587269e-01 -1.6072527060350769e-01 0.0000000000000000e+00 1
1.4707342291632070e-01 -3.2223202481336688e-01 0.0000000000000000e+00 1
-9.6171059348200139e-02 2.5732323419155201e-01 0.0000000000000000e+00 1
1.3452848480092816e-01 -2.8946004261382718e-01 0.0000000000000000e+00 1
-1.2867495528051398e-01 1.8089074126389529e-01 0.0000000000000000e+00 1
1.1103257217294385e-01 -2.5940527736864510e-01 0.0000000000000000e+00 1
-1.3291118095356613e-01 1.9376143390314229e-01 0.0000000000000000e+00 1
-1.2314606420827742e-01 2.0456469595060084e-01 0.0000000000000000e+00 1
-3.3344612151951523e-02 -6.4142746491366143e-02 0.0000000000000000e+00 1
3.0767124024861828e-02 5.5157177969564583e-02 0.0000000000000000e+00 1
-5.5631381168830631e-02 5.9529660791658119e-02 0.0000000000000000e+00 1
-6.6934409695303995e-02 5.0292392269246838e-02 0.0000000000000000e+00 1
4.7937174901642135e-02 -6.6236123569515359e-02 0.0000000000000000e+00 1
1.0660564246314291e-01 -7.8055097052819933e-02 0.0000000000000000e+00 1
4.9522889894247864e-02 2.4436198028639999e-02 0.0000000000000000e+00 1
5.7948908229281011e-02 9.8494637370176129e-03 0.0000000000000000e+00 1
4.1192642586252132e-02 9.7970723850027037e-03 0.0000000000000000e+00 1
4.9642672929698914e-02 -3.4708987368545939e-03 0.0000000000000000e+00 1
3.3643262299030724e-02 -3.7179902151127458e-03 0.0000000000000000e+00 1
1.7689134493702868e-01 -2.4870267664007376e-01 0.0000000000000000e+00 1
-7.4713987448606481e-02 9.4864928060867104e-02 0.0000000000000000e+00 1
-1.0194879556268389e-01 1.7270257488505358e-01 0.0000000000000000e+00 1
2.5459568816424596e-02 9.4618430696714606e-03 0.0000000000000000e+00 1
3.1762012237868197e-02 2.5335502321526759e-02 0.0000000000000000e+00 1
2.9163973789477240e-02 -1.1539612519858308e-01 0.0000000000000000e+00 1
-3.5806480235651347e-02 2.3315789152818737e-02 0.0000000000000000e+00 1
6.8226736896078277e-02 -1.1696328114347149e-01 0.0000000000000000e+00 1
8.6917961971463953e-02 -2.9000663652085801e-01 0.0000000000000000e+00 1
6.9238157405018680e-02 -2.6500426168847252e-01 0.0000000000000000e+00 1
-8.3896160201319125e-02 2.0474480203024026e-01 0.0000000000000000e+00 1
1.0943706416669585e-02 -9.5773148595942499e-03 0.0000000000000000e+00 1
1.6387158316809541e-01 -3.1985831611855775e-01 0.0000000000000000e+00 1
7.3148079201820093e-02 -4.6477520434911587e-02 0.0000000000000000e+00 1
1.6118059541680196e-01 -2.9175388352259846e-01 0.0000000000000000e+00 1
5.9489789487068489e-03 2.2376690680367475e-02 0.0000000000000000e+00 1
-2.8120121911952836e-03 -1.5527820695580544e-01 0.0000000000000000e+00 1
1.9656679831171531e-01 -2.6706109449042426e-01 0.0000000000000000e+00 1
-3.5145889836906988e-02 9.4691672905104149e-02 0.0000000000000000e+00 1
-1.4503066550815217e-02 5.8986187893392994e-02 0.0000000000000000e+00 1
2.8600042970145213e-02 -2.9856013903431261e-02 0.0000000000000000e+00 1
2.1572312871258974e-02 -2.0248128390714842e-01 0.0000000000000000e+00 1
-6.2242028248624293e-02 1.5794739786018244e-01 0.0000000000000000e+00 1
1.4042615194182395e-01 -2.6208532937795287e-01 0.0000000000000000e+00 1
-1.2139896765852320e-01 2.1827182417341548e-01 0.0000000000000000e+00 1
3.6560586855977392e-02 -1.5873142422541334e-01 0.0000000000000000e+00 1
5.6791665996997039e-02 -2.6587384785906248e-01 0.0000000000000000e+00 1
-5.5692957291538690e-02 1.2937182275325484e-01 0.0000000000000000e+00 1
1.0137726653653345e-01 -1.8464482608458010e-01 0.0000000000000000e+00 1
1.7719055034182257e-01 -2.5927277554790451e-01 0.0000000000000000e+00 1
5.0123107793325475e-02 -8.1476714490533397e-02 0.0000000000000000e+00 1
8.5392240390451873e-02 -1.5153390029309929e-01 0.0000000000000000e+00 1
4.4752729044268080e-02 -2.4672845112195996e-01 0.0000000000000000e+00 1
1.9841242366613238e-01 -3.2285105031546779e-01 0.0000000000000000e+00 1
-6.4494695363656679e-02 1.7221914050018494e-01 0.0000000000000000e+00 1
8.1443876279790578e-02 -1.2268578569102646e-01 0.0000000000000000e+00 1
2.0150317709182156e-01 -2.8696794766531786e-01 0.0000000000000000e+00 1
-1.1510317909912871e-01 1.7729989404753463e-01 0.0000000000000000e+00 1
1.3714445642818951e-01 -1.8583407444705138e-01 0.0000000000000000e+00 1
1.4616164253620173e-01 -3.4335684480975509e-01 0.0000000000000000e+00 1
1.7441851736674602e-01 -3.5357582073485533e-01 0.0000000000000000e+00 1
1.6734711146663872e-01 -3.4432433225517534e-01 0.0000000000000000e+00 1
5.5193713152053792e-02 -1.9103542520514236e-01 0.0000000000000000e+00 1
-1.7703227866948329e-01 3.3983003285862207e-01 0.0000000000000000e+00 1
-1.8248160998592891e-01 3.3550995017682156e-01 0.0000000000000000e+00 1
-1.8168429264493086e-01 3.2760240362822968e-01 0.0000000000000000e+00 1
-1.7225524770077089e-01 3.4335202593301295e-01 0.0000000000000000e+00 1
-8.6783190351701206e-02 2.1776923774266183e-01 0.0000000000000000e+00 1
-1.0454899678272536e-01 2.4776207288250784e-01 0.0000000000000000e+00 1
-1.5192651126533568e-01 3.4295399378480995e-01 0.0000000000000000e+00 1
-1.3554900557598751e-01 3.3719097857829894e-01 0.0000000000000000e+00 1
-1.4171765630213751e-01 2.8157498236485451e-01 0.0000000000000000e+00 1
8.2372924063735725e-02 -2.9959158420076876e-01 0.0000000000000000e+00 1
1.6106419768221891e-01 -2.1172402173396732e-01 0.0000000000000000e+00 1
-1.0636523767900818e-01 1.1452352789730848e-01 0.0000000000000000e+00 1
-3.3129912234678704e-03 6.9177140675902055e-02 0.0000000000000000e+00 1
1.0278767414178437e-01 -2.6630133902113856e-01 0.0000000000000000e+00 1
9.6514660798336663e-02 -1.4260286592822388e-01 0.0000000000000000e+00 1
-2.3675369370615686e-02 1.0447356815431452e-01 0.0000000000000000e+00 1
7.2564761898572389e-02 -2.2182307980662119e-01 0.0000000000000000e+00 1
9.6055951128252298e-02 -3.1367864932733808e-01 0.0000000000000000e+00 1
-1.3961043435837311e-01 3.4137865689980912e-01 0.0000000000000000e+00 1
3.5852397192375485e-02 -2.0768457685054426e-01 0.0000000000000000e+00 1
1.2336989887925659e-01 -3.3615133915365902e-01 0.0000000000000000e+00 1
1.2684951275472903e-01 -2.9546398792438017e-01 0.0000000000000000e+00 1
1.1231605988768706e-01 -1.7612586981773659e-01 0.0000000000000000e+00 1
1.0929555792487565e-01 -3.2601486996607865e-01 0.0000000000000000e+00 1
6.9670392053656452e-02 -2.8406489959596926e-01 0.0000000000000000e+00 1
6.2192062322951644e-02 -7.1804559419468061e-02 0.0000000000000000e+00 1
-1.1787552743393455e-01 3.0168692343199432e-01 0.0000000000000000e+00 1
1.7738316734509976e-01 -3.0099414681516029e-01 0.0000000000000000e+00 1
-1.4637856726144838e-01 2.3025688992867638e-01 0.0000000000000000e+00 1
-3.9995442417682540e-02 -3.2202669146901002e-02 0.0000000000000000e+00 1
-1.2797097092390139e-01 3.3272147664145374e-01 0.0000000000000000e+00 1
-1.4338921192478521e-01 3.0214826674651080e-01 0.0000000000000000e+00 1
2.0698157010507301e-01 -3.1072694973837778e-01 0.0000000000000000e+00 1
1.5760892064401291e-01 -3.2527316651460109e-01 0.0000000000000000e+00 1
1.4921858680437808e-01 -2.5575871299657843e-01 0.0000000000000000e+00 1
-1.8264359146602219e-01 3.4147609133403406e-01 0.0000000000000000e+00 1
-1.0083227165732375e-01 2.6868001572463451e-01 0.0000000000000000e+00 1
1.4674175383412258e-02 -1.6502576680617498e-01 0.0000000000000000e+00 1
1.6015001395507769e-01 -3.4990097554956190e-01 0.0000000000000000e+00 1
9.4573191968328779e-02 -1.2811907133864830e-01 0.0000000000000000e+00 1
1.2402574467607187e-01 -1.6707019604337298e-01 0.0000000000000000e+00 1
1.8208008514028851e-01 -3.4877976893375623e-01 0.0000000000000000e+00 1
7.5307111229196394e-02 -6.2087377658073602e-02 0.0000000000000000e+00 1
1.0107319712560114e-01 -2.5500605301948814e-01 0.0000000000000000e+00 1
-1.2482107237439694e-01 3.3722446833021724e-01 0.0000000000000000e+00 1
-1.1191235562076177e-01 1.6363040194299286e-01 0.0000000000000000e+00 1
-8.9352594586498395e-03 9.9495189279334609e-02 0.0000000000000000e+00 1
1.2533705448147051e-01 -2.8533138542419267e-01 0.0000000000000000e+00 1
-1.5199919091398051e-01 2.9653537952928277e-01 0.0000000000000000e+00 1
-7.7282929096888955e-02 2.8743325803720337e-02 0.0000000000000000e+00 1
2.0810684332457935e-01 -3.2382411155415475e-01 0.0000000000000000e+00 1
2.0601793668794460e-01 -3.3588355942605391e-01 0.0000000000000000e+00 1
-5.4529517713092411e-02 1.8171117541606496e-01 0.0000000000000000e+00 1
-5.5172937815885253e-02 2.1109067108007185e-01 0.0000000000000000e+00 1
1.9375692049695753e-01 -2.5648482612955020e-01 0.0000000000000000e+00 1
1.8005871521916472e-01 -2.9049417545267481e-01 0.0000000000000000e+00 1
1.6216694272911028e-01 -1.8718319605160610e-01 0.0000000000000000e+00 1
-7.4879844913140758e-02 2.1411952299848896e-01 0.0000000000000000e+00 1
1.8723807312178242e-01 -2.8353656291362700e-01 0.0000000000000000e+00 1
-1.0253283623110236e-01 1.0046056212501844e-01 0.0000000000000000e+00 1
8.4799542660925112e-02 -3.5743165603412931e-02 0.0000000000000000e+00 1
1.8101158547853918e-01 -3.5502981763858416e-01 0.0000000000000000e+00 1
-5.4777776765965798e-02 -2.6692933776208322e-02 0.0000000000000000e+00 1
1.3080803215985506e-01 -3.4029805795749923e-01 0.0000000000000000e+00 1
-1.8288885264760679e-01 3.4669332957928128e-01 0.0000000000000000e+00 1
-1.4791042313214234e-01 2.6421099976798001e-01 0.0000000000000000e+00 1
9.2422019640835767e-02 -1.1337608297556674e-01 0.0000000000000000e+00 1
1.4820575855795784e-01 -2.4488862888559951e-01 0.0000000000000000e+00 1
5.6500353564151305e-02 -2.4748210507231772e-01 0.0000000000000000e+00 1
-2.5034659772781770e-02 -1.0749583907221406e-01 0.0000000000000000e+00 1
-8.7829795840673602e-02 5.5846661695001645e-02 0.0000000000000000e+00 1
1.3113330858692018e-01 -1.1845106215356485e-01 0.0000000000000000e+00 1
-1.9227431782472643e-01 3.4432036249931969e-01 0.0000000000000000e+00 1
-8.1346170074275640e-03 -1.1370263891937914e-01 0.0000000000000000e+00 1
2.6982321368988163e-02 7.0757083457695852e-02 0.0000000000000000e+00 1
-1.4304668763545136e-01 2.1794647085936775e-01 0.0000000000000000e+00 1
2.5067584933479228e-02 -1.5388393775117099e-02 0.0000000000000000e+00 1
-1.1153981028278531e-01 2.7130715891791396e-01 0.0000000000000000e+00 1
-1.2060923600115921e-01 1.5361203015157646e-01 0.0000000000000000e+00 1
-4.7257986702284163e-02 -5.5244954537821363e-02 0.0000000000000000e+00 1
1.9002032240084188e-01 -3.4949723566321778e-01 0.0000000000000000e+00 1
-1.8704970865447965e-01 3.4700678063704510e-01 0.0000000000000000e+00 1
-1.8779462055691365e-01 3.4320191617278040e-01 0.0000000000000000e+00 1
1.4082915718684327e-01 -2.2656702687809008e-01 0.0000000000000000e+00 1
-4.6674798813300701e-02 1.4104415118782260e-01 0.0000000000000000e+00 1
-1.7501371311076849e-01 3.2615761459336601e-01 0.0000000000000000e+00 1
1.0199690089321514e-01 -6.2556530326706675e-02 0.0000000000000000e+00 1
-1.5753071567714305e-01 3.4460563481932671e-01 0.0000000000000000e+00 1
1.3840697813533753e-01 -2.4015350252427287e-01 0.0000000000000000e+00 1
1.2322581874836271e-01 -3.2794107893994578e-01 0.0000000000000000e+00 1
2.0386499557893492e-01 -3.4051168575149415e-01 0.0000000000000000e+00 1
7.2952576292543633e-02 -1.9706557226488525e-02 0.0000000000000000e+00 1
-1.6667910407465675e-01 3.4178187775886265e-01 0.0000000000000000e+00 1
-6.7209471465873971e-02 2.3231171488858773e-01 0.0000000000000000e+00 1
1.4909423227914448e-01 -2.1666113233871165e-01 0.0000000000000000e+00 1
2.0757765902957198e-01 -3.0296514914849282e-01 0.0000000000000000e+00 1
1.0467315002452809e-01 -3.1248717878103854e-01 0.0000000000000000e+00 1
5.5539605499242044e-03 -1.8165246522755368e-01 0.0000000000000000e+00 1
-7.5262698263245109e-02 1.5503905706295904e-02 0.0000000000000000e+00 1
9.0899367621649532e-02 -9.8548935486963599e-02 0.0000000000000000e+00 1
1.6804078216750207e-01 -2.2122675169866698e-01 0.0000000000000000e+00 1
1.9944608344494166e-01 -3.4856532117144523e-01 0.0000000000000000e+00 1
1.9550989721267820e-01 -3.4527298768292031e-01 0.0000000000000000e+00 1
-8.4872902951197093e-02 8.4719229848414873e-02 0.0000000000000000e+00 1
1.8645471608012990e-01 -2.3435113715283434e-01 0.0000000000000000e+00 1
1.7111012753102342e-01 -2.0134133367893278e-01 0.0000000000000000e+00 1
-1.3802085239424919e-01 2.6214892699089493e-01 0.0000000000000000e+00 1
-1.8771698117779834e-01 3.3704192544623512e-01 0.0000000000000000e+00 1
-1.2288140683859081e-01 3.3303103107306653e-01 0.0000000000000000e+00 1
-1.3636200068291512e-01 2.4590206078658589e-01 0.0000000000000000e+00 1
-1.1430790147627559e-01 2.8177295144618231e-01 0.0000000000000000e+00 1
-1.4332031694906914e-02 1.1357589032611384e-01 0.0000000000000000e+00 1
-1.6839836225992538e-01 3.4680446804120396e-01 0.0000000000000000e+00 1
-1.1965291972825157e-01 3.2994512691091393e-01 0.0000000000000000e+00 1
-1.1636124285335631e-01 1.3997177553811369e-01 0.0000000000000000e+00 1
1.0144899656885913e-01 -9.1144382668570417e-02 0.0000000000000000e+00 1
1.3186323500082259e-01 -1.4617697562667284e-01 0.0000000000000000e+00 1
-1.4487442782379467e-01 3.3716177614499382e-01 0.0000000000000000e+00 1
-1.2118449202940514e-01 3.3646351619319304e-01 0.0000000000000000e+00 1
1.8449273796290264e-01 -2.5463734501709917e-01 0.0000000000000000e+00 1
-5.6323052283039111e-02 3.1129527808840809e-03 0.0000000000000000e+00 1
1.9474383201433321e-01 -2.8364431655859407e-01 0.0000000000000000e+00 1
-1.6876980054813512e-01 3.1386573385166222e-01 0.0000000000000000e+00 1
-4.5149066152816747e-02 1.9250755138695369e-01 0.0000000000000000e+00 1
-1.3406251388291945e-01 3.4136635423303890e-01 0.0000000000000000e+00 1
2.7685349015716468e-02 4.0034493627156539e-02 0.0000000000000000e+00 1
1.3707848751837393e-01 -3.3634529008763070e-01 0.0000000000000000e+00 1
9.1462533476837221e-02 -2.9884238280764874e-01 0.0000000000000000e+00 1
2.0281454223727050e-01 -3.2619495405504767e-01 0.0000000000000000e+00 1
-9.4735680098635866e-02 7.5771460074670130e-02 0.0000000000000000e+00 1
-4.4969375186172444e-02 -6.7416580550610242e-02 0.0000000000000000e+00 1
-1.7663703745012353e-02 -1.3324927919431084e-01 0.0000000000000000e+00 1
-1.5950365240593353e-01 3.1098500475147184e-01 0.0000000000000000e+00 1
7.8326514765405003e-02 -2.8359316759837627e-01 0.0000000000000000e+00 1
1.4903427169623401e-01 -1.8200316231647368e-01 0.0000000000000000e+00 1
1.9858046959862685e-01 -3.4113753489254184e-01 0.0000000000000000e+00 1
1.3177421456695326e-01 -1.7445353802485075e-01 0.0000000000000000e+00 1
-1.3006432459557221e-01 2.1323108535929458e-01 0.0000000000000000e+00 1
1.8110295308413033e-02 2.0116310918990337e-02 0.0000000000000000e+00 1
2.0271489889556457e-01 -3.3221018696278659e-01 0.0000000000000000e+00 1
1.9172856954080769e-01 -3.5363107665588434e-01 0.0000000000000000e+00 1
1.1636847306409939e-01 -3.2423102020651640e-01 0.0000000000000000e+00 1
-1.4849375803932094e-01 2.8642015609897936e-01 0.0000000000000000e+00 1
1.9782467884968324e-01 -2.9533990237148861e-01 0.0000000000000000e+00 1
-2.5283843430505864e-02 1.3133203238018976e-01 0.0000000000000000e+00 1
-1.8718293213237860e-01 3.3080706922874176e-01 0.0000000000000000e+00 1
-7.6323130958062049e-02 2.4873124114098602e-01 0.0000000000000000e+00 1
2.1055180078941197e-02 -1.8353522641964687e-03 0.0000000000000000e+00 1
-1.0838378780218577e-01 2.8792658499355633e-01 0.0000000000000000e+00 1
6.0174647058836510e-02 -2.5740166551701432e-01 0.0000000000000000e+00 1
-2.6618750369769739e-02 -7.7764777192084925e-02 0.0000000000000000e+00 1
2.0269304902922361e-01 -3.1864660977948550e-01 0.0000000000000000e+00 1
2.9277286947545597e-02 -2.2738215335781181e-01 0.0000000000000000e+00 1
-1.0551028130653438e-01 1.3731552494922600e-01 0.0000000000000000e+00 1
-1.6142848109901684e-01 3.4124819961164732e-01 0.0000000000000000e+00 1
1.2730214965211237e-01 -1.0424557832928401e-01 0.0000000000000000e+00 1
5.0124154427066154e-03 7.8684550744325954e-02 0.0000000000000000e+00 1
2.2952322205981320e-02 -1.8892259671631040e-01 0.0000000000000000e+00 1
-6.6010810168102174e-02 -7.3709001825246470e-03 0.0000000000000000e+00 1
-5.1903895077138801e-02 1.5275263149266519e-01 0.0000000000000000e+00 1
-7.6858016714171695e-02 5.6219809121679447e-02 0.0000000000000000e+00 1
-1.7320691731967708e-01 3.4793810544853110e-01 0.0000000000000000e+00 1
2.8401579372043842e-04 -1.4227373368322802e-01 0.0000000000000000e+00 1
5.7571275970049164e-02 -1.3201033869340104e-02 0.0000000000000000e+00 1
1.4406910634449671e-01 -3.4902065050782460e-01 0.0000000000000000e+00 1
-1.5824656548112886e-01 3.0342463914589229e-01 0.0000000000000000e+00 1
7.8477680695846624e-03 -1.5796441785079071e-01 0.0000000000000000e+00 1
-1.3181656346105253e-01 3.3503768219718771e-01 0.0000000000000000e+00 1
-6.5797013396733162e-02 2.0979841486893822e-01 0.0000000000000000e+00 1

Edges
151
1 2 1
2 3 1
3 4 1
4 5 1
5 6 1
6 7 1
7 8 1
8 9 1
9 10 1
10 11 1
11 12 1
12 13 1
13 14 1
14 15 1
15 16 1
16 17 1
17 18 1
18 19 1
19 20 1
20 21 1
21 22 1
22 23 1
23 24 1
24 25 1
25 26 1
26 27 1
27 28 1
28 29 1
29 30 1
30 31 1
31 32 1
32 33 1
33 34 1
34 35 1
35 36 1
36 37 1
37 38 1
38 39 1
39 40 1
40 41 1
41 42 1
42 43 1
43 44 1
44 45 1
45 46 1
46 47 1
47 48 1
48 49 1
49 50 1
50 51 1
51 52 1
52 53 1
53 54 1
54 55 1
55 56 1
56 57 1
57 58 1
58 59 1
59 60 1
60 61 1
61 62 1
62 63 1
63 64 1
64 65 1
65 66 1
66 67 1
67 68 1
68 69 1
69 70 1
70 71 1
71 72 1
72 73 1
73 74 1
74 75 1
75 76 1
76 77 1
77 78 1
78 79 1
79 80 1
80 81 1
81 82 1
82 83 1
83 84 1
84 85 1
85 86 1
86 87 1
87 88 1
88 89 1
89 90 1
90 91 1
91 92 1
92 93 1
93 94 1
94 95 1
95 96 1
96 97 1
97 98 1
98 99 1
99 100 1
100 101 1
101 102 1
102 103 1
103 104 1
104 105 1
105 106 1
106 107 1
107 108 1
108 109 1
109 110 1
110 111 1
111 112 1
112 113 1
113 114 1
114 115 1
115 116 1
116 117 1
117 118 1
118 119 1
119 120 1
120 121 1
121 122 1
122 123 1
123 124 1
124 125 1
125 126 1
126 127 1
127 128 1
128 129 1
129 130 1
130 131 1
131 132 1
132 133 1
133 134 1
134 135 1
135 136 1
136 137 1
137 138 1
138 139 1
139 140 1
140 141 1
141 142 1
142 143 1
143 144 1
144 145 1
145 146 1
146 147 1
147 148 1
148 149 1
149 150 1
150 151 1
151 1 1

Triangles
1511
210 453 499 1
489 445 550 1
348 691 719 1
205 487 488 1
674 460 764 1
212 210 499 1
533 532 630 1
490 197 539 1
693 585 726 1
498 499 694 1
187 476 773 1
465 466 719 1
747 558 752 1
445 489 603 1
519 448 615 1
532 427 630 1
461 747 752 1
164 120 574 1
524 168 661 1
547 475 548 1
513 165 515 1
176 477 613 1
499 453 694 1
508 450 611 1
476 187 692 1
352 603 697 1
241 239 609 1
792 714 815 1
65 192 777 1
477 176 713 1
719 466 722 1
380 475 547 1
64 65 209 1
169 693 726 1
519 615 750 1
427 532 534 1
166 480 621 1
479 642 683 1
391 427 534 1
736 441 746 1
508 611 738 1
203 736 746 1
65 66 192 1
168 524 662 1
548 202 681 1
171 634 706 1
597 179 675 1
515 165 735 1
540 449 683 1
527 713 762 1
246 496 502 1
705 661 725 1
519 171 706 1
603 489 697 1
197 490 540 1
25 720 769 1
460 674 758 1
527 477 713 1
409 495 595 1
480 166 768 1
720 481 769 1
380 547 549 1
62 63 491 1
359 380 549 1
563 733 737 1
486 53 717 1
120 121 574 1
714 158 815 1
169 570 693 1
724 37 755 1
202 548 791 1
455 597 675 1
472 503 690 1
742 103 778 1
554 200 786 1
246 227 496 1
83 84 208 1
451 480 536 1
733 163 737 1
156 506 785 1
53 486 787 1
503 491 690 1
502 496 781 1
484 724 755 1
599 742 778 1
642 157 683 1
487 205 702 1
190 504 810 1
691 465 719 1
609 239 645 1
521 348 719 1
439 241 609 1
150 151 702 1
524 661 705 1
441 87 771 1
209 65 777 1
490 449 540 1
505 56 810 1
205 488 660 1
538 490 539 1
570 169 743 1
461 460 747 1
553 500 696 1
539 197 653 1
216 212 499 1
512 705 744 1
606 439 608 1
497 671 682 1
608 439 609 1
747 460 758 1
550 154 660 1
494 476 692 1
405 490 538 1
200 509 786 1
56 505 757 1
348 521 635 1
157 540 683 1
493 109 734 1
506 722 785 1
610 743 794 1
62 491 503 1
502 174 670 1
610 570 743 1
109 493 793 1
521 522 635 1
555 391 707 1
506 156 638 1
399 479 531 1
654 792 815 1
705 191 744 1
496 497 781 1
455 675 723 1
495 372 595 1
482 484 755 1
531 479 683 1
88 666 809 1
494 692 739 1
495 409 654 1
497 682 781 1
200 89 509 1
154 550 790 1
451 536 764 1
352 525 603 1
657 466 807 1
391 534 707 1
715 470 754 1
73 74 670 1
541 193 542 1
482 755 827 1
546 229 770 1
164 574 814 1
403 405 680 1
504 505 810 1
553 696 759 1
174 73 670 1
92 193 541 1
229 546 773 1
504 190 604 1
589 455 723 1
135 136 647 1
183 61 503 1
88 200 666 1
397 399 663 1
604 537 700 1
405 538 680 1
170 209 210 1
662 487 702 1
496 233 497 1
402 438 646 1
399 531 663 1
199 533 630 1
438 529 646 1
329 359 711 1
198 664 667 1
530 196 821 1
218 216 233 1
227 218 496 1
321 518 596 1
333 334 522 1
546 187 773 1
196 530 761 1
234 543 729 1
466 657 785 1
460 451 764 1
567 569 570 1
210 209 453 1
548 475 791 1
218 233 496 1
411 591 592 1
411 590 591 1
168 662 702 1
456 246 501 1
511 541 542 1
474 481 720 1
359 549 711 1
170 64 209 1
586 115 726 1
63 170 491 1
95 187 545 1
522 334 635 1
93 94 544 1
543 234 672 1
245 227 246 1
208 441 736 1
352 338 525 1
453 209 777 1
61 62 503 1
151 168 702 1
497 233 498 1
686 414 704 1
205 150 702 1
588 492 820 1
642 479 821 1
408 390 469 1
174 502 781 1
583 528 584 1
754 470 799 1
184 608 609 1
545 187 546 1
245 246 456 1
512 744 766 1
567 568 569 1
701 438 830 1
485 410 592 1
260 604 700 1
643 579 655 1
89 90 509 1
376 375 390 1
439 606 658 1
512 424 705 1
284 283 568 1
90 181 509 1
544 94 545 1
526 167 535 1
136 199 647 1
509 181 510 1
443 538 539 1
501 246 502 1
518 321 558 1
523 430 662 1
438 485 830 1
163 593 737 1
115 586 822 1
474 720 798 1
349 333 522 1
590 411 626 1
410 411 592 1
358 375 376 1
408 469 470 1
577 578 579 1
338 337 525 1
358 376 595 1
287 284 568 1
376 409 595 1
51 188 578 1
526 515 735 1
355 347 356 1
376 390 408 1
88 89 200 1
60 183 556 1
517 152 687 1
447 547 548 1
358 374 375 1
59 60 556 1
528 583 627 1
323 320 555 1
356 357 358 1
457 456 458 1
317 314 581 1
548 681 760 1
180 508 738 1
217 216 218 1
372 356 595 1
566 567 610 1
50 51 578 1
585 586 726 1
58 59 537 1
420 686 704 1
383 372 495 1
390 424 512 1
374 430 523 1
568 283 569 1
728 745 746 1
570 569 693 1
504 604 669 1
664 198 699 1
200 554 749 1
458 456 756 1
350 317 581 1
87 88 809 1
561 565 566 1
226 218 227 1
518 558 747 1
583 277 627 1
518 415 596 1
91 92 541 1
469 390 512 1
311 308 572 1
160 530 701 1
94 95 545 1
569 283 587 1
566 610 814 1
477 436 613 1
90 91 181 1
288 287 564 1
524 523 662 1
155 135 647 1
346 340 347 1
305 302 571 1
408 470 580 1
355 356 372 1
578 188 579 1
507 506 638 1
564 287 565 1
354 311 572 1
342 335 605 1
214 212 216 1
360 305 571 1
537 59 556 1
383 500 553 1
383 495 500 1
406 517 551 1
351 391 555 1
295 590 626 1
629 153 673 1
180 588 820 1
390 375 424 1
196 642 821 1
320 319 555 1
334 335 336 1
556 183 557 1
318 321 596 1
334 332 335 1
561 564 565 1
483 619 620 1
533 199 688 1
356 347 357 1
530 160 761 1
396 394 521 1
316 318 596 1
333 332 334 1
346 347 355 1
563 560 573 1
335 332 605 1
516 526 535 1
162 27 600 1
328 329 330 1
393 444 445 1
344 327 607 1
593 195 826 1
592 591 593 1
326 327 328 1
322 323 324 1
162 600 601 1
336 337 338 1
575 50 578 1
395 394 396 1
322 320 323 1
417 415 518 1
328 327 329 1
318 319 320 1
339 338 340 1
362 392 393 1
326 324 327 1
571 402 646 1
445 444 471 1
469 512 766 1
336 335 337 1
327 324 607 1
316 317 318 1
393 392 444 1
318 317 319 1
244 227 245 1
462 582 808 1
391 378 427 1
616 178 625 1
171 519 750 1
237 504 669 1
283 281 587 1
314 313 581 1
316 314 317 1
48 185 582 1
63 64 170 1
576 434 808 1
319 351 555 1
340 338 352 1
351 378 391 1
572 397 663 1
563 573 574 1
590 562 591 1
233 216 499 1
20 21 166 1
400 357 633 1
253 432 598 1
152 517 760 1
560 561 573 1
325 324 326 1
46 194 588 1
190 58 537 1
357 347 633 1
291 288 564 1
312 311 313 1
430 487 662 1
526 735 819 1
394 349 522 1
527 172 784 1
561 566 573 1
308 307 572 1
358 357 374 1
49 50 575 1
193 93 544 1
27 28 600 1
373 349 394 1
567 570 610 1
598 432 599 1
511 542 712 1
321 320 322 1
310 308 311 1
356 358 595 1
312 313 314 1
337 362 525 1
331 330 332 1
559 562 590 1
559 366 560 1
310 311 312 1
22 23 536 1
83 208 736 1
340 352 633 1
302 301 571 1
15 16 201 1
403 404 405 1
339 340 346 1
92 93 193 1
565 287 568 1
313 354 403 1
306 305 307 1
581 403 680 1
319 350 351 1
492 588 710 1
175 617 619 1
336 338 339 1
307 360 397 1
47 48 582 1
304 302 305 1
520 189 757 1
351 369 378 1
405 449 490 1
436 612 613 1
597 255 598 1
293 366 559 1
576 575 577 1
301 368 402 1
416 415 417 1
542 193 543 1
329 344 359 1
610 164 814 1
397 398 399 1
29 165 594 1
399 478 479 1
473 486 832 1
559 560 562 1
23 24 159 1
185 49 575 1
359 367 380 1
402 410 438 1
194 47 582 1
525 393 603 1
380 425 475 1
593 163 795 1
23 159 536 1
306 307 308 1
322 325 558 1
604 260 669 1
315 314 316 1
201 553 759 1
337 342 362 1
300 299 301 1
695 228 712 1
307 397 572 1
295 559 590 1
255 253 598 1
304 305 306 1
26 27 162 1
362 363 392 1
17 18 156 1
28 29 594 1
175 39 617 1
82 83 736 1
543 544 729 1
497 498 671 1
298 296 299 1
362 393 525 1
185 575 576 1
617 616 618 1
395 396 506 1
277 274 627 1
45 46 588 1
313 403 581 1
436 271 612 1
301 402 571 1
418 364 628 1
180 45 588 1
223 741 774 1
300 301 302 1
151 1 168 1
294 293 295 1
29 30 165 1
647 630 813 1
415 345 596 1
214 216 217 1
562 560 563 1
402 368 410 1
585 584 586 1
60 61 183 1
295 293 559 1
452 265 622 1
292 291 293 1
437 436 477 1
577 575 578 1
28 594 600 1
293 291 366 1
257 255 597 1
41 178 616 1
301 299 368 1
617 618 619 1
281 279 379 1
51 52 188 1
373 394 395 1
619 618 620 1
406 447 517 1
32 33 167 1
95 96 187 1
438 410 485 1
455 257 597 1
328 330 331 1
298 299 300 1
413 345 415 1
378 443 552 1
307 305 360 1
46 47 194 1
322 324 325 1
467 452 493 1
397 360 398 1
57 58 190 1
368 299 626 1
379 584 585 1
403 354 404 1
290 288 291 1
54 55 189 1
411 368 626 1
379 583 584 1
566 565 567 1
217 218 226 1
273 271 436 1
178 42 611 1
313 311 354 1
48 49 185 1
399 398 478 1
309 308 310 1
294 295 296 1
331 332 333 1
324 323 607 1
248 247 623 1
521 394 522 1
35 36 171 1
405 404 449 1
437 477 527 1
664 458 667 1
319 317 350 1
279 277 583 1
332 330 605 1
267 265 452 1
273 436 437 1
282 281 283 1
44 45 180 1
325 326 463 1
665 664 699 1
286 284 287 1
377 372 383 1
427 378 552 1
38 39 175 1
40 616 617 1
1 2 661 1
237 243 504 1
261 257 455 1
321 322 558 1
292 293 294 1
351 350 369 1
42 43 611 1
251 248 623 1
296 295 626 1
41 42 178 1
318 320 321 1
303 302 304 1
378 369 443 1
290 291 292 1
280 279 281 1
267 467 612 1
345 316 596 1
323 555 707 1
281 379 587 1
379 279 583 1
267 452 467 1
612 467 613 1
278 277 279 1
329 327 344 1
240 242 631 1
290 292 614 1
392 406 551 1
100 606 608 1
393 445 603 1
40 41 616 1
286 287 288 1
630 552 813 1
253 251 432 1
463 326 644 1
545 546 729 1
486 717 832 1
430 431 487 1
633 352 697 1
444 392 551 1
539 653 732 1
158 696 815 1
39 40 617 1
600 594 602 1
337 335 342 1
98 99 184 1
315 316 345 1
739 184 801 1
261 455 589 1
276 274 277 1
634 171 724 1
475 425 629 1
297 296 298 1
282 283 284 1
359 344 367 1
190 537 604 1
380 367 425 1
560 366 561 1
12 13 158 1
198 667 825 1
136 137 199 1
379 585 587 1
416 417 429 1
501 502 670 1
167 33 615 1
432 251 623 1
312 314 315 1
201 657 807 1
464 383 553 1
140 141 202 1
606 182 658 1
272 271 273 1
592 593 826 1
247 241 439 1
280 281 282 1
132 133 197 1
362 342 363 1
392 363 406 1
138 139 153 1
601 600 602 1
100 101 606 1
621 386 650 1
261 589 622 1
618 616 625 1
478 529 530 1
413 415 416 1
510 181 511 1
134 135 155 1
384 364 418 1
142 143 152 1
299 296 626 1
271 268 612 1
328 331 644 1
242 249 631 1
366 291 564 1
128 129 196 1
270 268 271 1
278 279 280 1
249 442 473 1
101 102 182 1
33 34 615 1
508 180 820 1
375 374 523 1
130 131 157 1
437 527 528 1
144 145 204 1
409 408 580 1
220 428 672 1
268 267 612 1
309 310 343 1
289 288 290 1
620 618 624 1
306 308 309 1
266 265 267 1
276 277 278 1
124 125 195 1
245 456 457 1
147 148 154 1
126 127 160 1
189 520 721 1
488 550 660 1
374 400 430 1
300 302 303 1
347 340 633 1
410 368 411 1
104 105 179 1
504 243 505 1
744 207 766 1
427 552 630 1
264 262 265 1
101 182 606 1
487 431 488 1
401 371 422 1
149 150 205 1
655 579 716 1
122 123 163 1
285 284 286 1
99 100 608 1
341 333 349 1
199 630 647 1
272 273 274 1
303 304 353 1
274 273 627 1
258 257 261 1
343 310 649 1
371 290 614 1
119 120 164 1
437 528 627 1
107 108 177 1
265 262 622 1
422 371 614 1
294 296 297 1
334 336 635 1
434 576 748 1
249 473 631 1
376 408 409 1
273 437 627 1
587 585 693 1
331 341 644 1
235 231 476 1
270 271 272 1
256 255 257 1
478 398 529 1
116 117 169 1
110 111 176 1
420 343 686 1
181 91 541 1
262 261 622 1
297 298 364 1
245 457 554 1
537 556 700 1
113 114 172 1
266 267 268 1
567 565 568 1
263 382 434 1
381 482 483 1
286 288 289 1
226 227 244 1
254 253 255 1
10 11 206 1
425 468 629 1
360 571 646 1
361 349 373 1
473 442 486 1
353 304 652 1
364 298 628 1
264 265 266 1
389 460 461 1
275 274 276 1
252 251 253 1
401 422 634 1
282 284 285 1
312 315 649 1
289 290 371 1
298 300 628 1
269 407 440 1
409 580 654 1
449 404 531 1
552 443 732 1
625 178 789 1
536 480 768 1
624 618 625 1
418 628 656 1
258 261 262 1
468 532 533 1
614 292 651 1
450 385 454 1
425 426 468 1
187 96 692 1
561 366 564 1
244 786 796 1
430 400 431 1
278 280 365 1
250 248 251 1
184 99 608 1
256 257 258 1
300 303 628 1
263 434 648 1
326 328 644 1
454 385 636 1
480 388 621 1
3 4 191 1
269 268 270 1
275 385 423 1
423 450 508 1
412 345 413 1
339 346 348 1
167 526 819 1
419 343 420 1
388 386 621 1
272 274 275 1
306 309 652 1
434 382 462 1
443 369 538 1
183 503 812 1
406 433 447 1
451 388 480 1
474 429 481 1
17 156 657 1
254 255 256 1
125 126 637 1
275 276 385 1
235 476 494 1
266 268 269 1
354 572 663 1
286 289 641 1
440 407 492 1
242 241 247 1
280 282 632 1
222 220 672 1
263 262 264 1
258 262 263 1
593 591 737 1
423 385 450 1
623 247 658 1
529 438 701 1
252 253 254 1
18 19 638 1
421 420 446 1
310 312 649 1
331 333 341 1
285 286 641 1
269 270 407 1
435 384 448 1
370 364 384 1
242 248 249 1
424 523 524 1
237 238 243 1
398 360 646 1
254 256 259 1
263 264 382 1
240 239 241 1
355 372 377 1
25 26 720 1
304 306 652 1
250 251 252 1
129 130 642 1
381 371 401 1
232 236 237 1
249 250 442 1
315 412 649 1
294 297 651 1
482 401 484 1
289 371 381 1
276 278 636 1
330 329 711 1
292 294 651 1
514 515 516 1
488 489 550 1
269 440 639 1
619 483 827 1
381 401 482 1
297 364 370 1
252 254 643 1
381 483 641 1
270 272 640 1
224 222 234 1
195 125 637 1
244 245 554 1
282 285 632 1
225 230 260 1
529 398 646 1
309 343 419 1
20 166 718 1
395 506 507 1
484 401 634 1
457 458 459 1
421 513 514 1
553 201 807 1
370 384 435 1
315 345 412 1
336 339 635 1
425 367 426 1
172 527 762 1
385 276 636 1
637 485 826 1
242 247 248 1
435 448 519 1
153 629 797 1
249 248 250 1
350 581 680 1
126 160 637 1
238 236 239 1
365 280 632 1
196 129 642 1
309 419 652 1
374 357 400 1
454 625 789 1
756 456 818 1
264 266 639 1
133 134 653 1
240 241 242 1
289 381 641 1
179 105 675 1
211 210 212 1
404 354 663 1
278 365 636 1
275 423 640 1
199 137 688 1
407 270 640 1
658 182 709 1
377 383 464 1
247 439 658 1
219 221 472 1
406 363 433 1
468 426 532 1
488 431 489 1
599 432 709 1
419 420 421 1
528 527 784 1
341 349 361 1
130 157 642 1
446 602 780 1
516 515 526 1
416 429 474 1
505 243 520 1
272 275 640 1
428 695 712 1
382 264 639 1
514 513 515 1
238 239 240 1
601 659 798 1
297 370 651 1
574 121 733 1
494 739 801 1
421 446 513 1
197 133 653 1
254 259 643 1
412 413 414 1
237 236 238 1
344 607 677 1
623 658 709 1
72 73 174 1
220 215 428 1
266 269 639 1
481 429 674 1
532 426 534 1
447 433 547 1
543 193 544 1
232 231 235 1
361 373 386 1
342 605 685 1
582 462 775 1
105 106 675 1
531 404 663 1
256 258 648 1
156 18 638 1
547 433 549 1
303 353 656 1
134 155 653 1
258 263 648 1
16 17 657 1
423 508 676 1
586 584 784 1
339 348 635 1
235 494 645 1
145 146 684 1
259 256 648 1
232 235 236 1
213 212 214 1
498 233 499 1
71 72 682 1
577 579 823 1
424 375 523 1
696 500 815 1
53 54 717 1
442 250 655 1
369 350 680 1
628 303 656 1
230 229 231 1
463 644 698 1
503 472 812 1
252 643 655 1
493 452 767 1
659 601 800 1
741 557 774 1
586 784 822 1
240 631 668 1
569 587 693 1
407 640 676 1
250 252 655 1
232 237 669 1
771 87 809 1
230 231 232 1
239 236 645 1
684 471 753 1
373 395 650 1
139 140 673 1
361 386 387 1
137 138 688 1
413 416 659 1
500 495 815 1
367 344 677 1
389 451 460 1
549 685 711 1
576 577 748 1
699 746 771 1
260 230 669 1
243 238 668 1
236 235 645 1
386 373 650 1
588 194 710 1
422 614 689 1
640 423 676 1
520 243 668 1
382 639 679 1
602 594 780 1
225 224 229 1
459 664 665 1
483 482 827 1
516 535 730 1
387 386 388 1
214 217 695 1
562 563 737 1
534 677 707 1
225 229 230 1
387 388 389 1
22 536 768 1
153 139 673 1
414 413 659 1
471 444 753 1
678 514 703 1
639 440 679 1
234 222 672 1
685 605 711 1
389 388 451 1
201 16 657 1
195 593 795 1
363 342 685 1
343 649 686 1
653 155 732 1
574 573 814 1
223 222 224 1
649 412 686 1
141 142 681 1
677 607 707 1
589 177 767 1
611 43 738 1
353 652 678 1
579 643 823 1
517 447 760 1
177 589 723 1
189 55 757 1
538 369 680 1
492 407 676 1
348 346 691 1
353 678 703 1
395 507 650 1
219 472 690 1
462 382 679 1
507 638 718 1
223 224 225 1
563 574 733 1
140 202 673 1
421 514 678 1
416 474 659 1
400 633 697 1
431 400 697 1
614 651 689 1
238 240 668 1
96 97 692 1
426 367 677 1
202 141 681 1
168 1 661 1
165 30 735 1
36 37 724 1
412 414 686 1
602 446 704 1
221 222 223 1
634 422 706 1
465 464 466 1
434 462 808 1
35 171 750 1
44 180 738 1
75 76 186 1
221 220 222 1
534 426 677 1
5 6 207 1
765 173 766 1
511 181 541 1
230 232 669 1
651 370 689 1
98 184 739 1
615 34 750 1
449 531 683 1
52 53 787 1
631 473 721 1
377 464 465 1
143 144 687 1
346 355 691 1
355 377 691 1
213 214 215 1
204 145 684 1
7 8 173 1
176 111 713 1
142 152 681 1
485 637 830 1
638 19 718 1
138 153 688 1
428 215 695 1
579 188 716 1
433 363 685 1
495 654 815 1
549 433 685 1
652 419 678 1
152 143 687 1
211 212 213 1
712 228 829 1
107 177 723 1
115 116 726 1
15 201 759 1
79 80 728 1
550 445 790 1
13 14 696 1
217 228 695 1
197 540 816 1
419 421 678 1
459 458 664 1
37 38 755 1
582 185 808 1
622 589 767 1
486 442 716 1
493 767 793 1
422 689 706 1
370 435 689 1
109 110 734 1
219 220 221 1
389 461 731 1
217 226 228 1
213 215 219 1
32 167 819 1
166 21 768 1
463 698 731 1
540 157 816 1
121 122 733 1
9 10 715 1
24 25 769 1
558 325 752 1
144 204 687 1
679 440 710 1
219 215 220 1
446 420 704 1
730 535 763 1
377 465 691 1
396 719 722 1
530 529 701 1
556 557 700 1
56 57 810 1
478 530 821 1
103 104 778 1
68 69 708 1
467 493 824 1
470 715 803 1
729 546 770 1
170 210 211 1
443 539 732 1
445 471 790 1
459 665 666 1
165 513 780 1
489 431 697 1
682 174 781 1
674 159 769 1
675 106 723 1
102 103 742 1
170 211 491 1
169 117 743 1
699 198 728 1
361 387 698 1
674 429 758 1
689 435 706 1
69 70 161 1
160 127 761 1
629 468 797 1
231 229 773 1
698 387 731 1
225 260 741 1
644 341 698 1
514 516 703 1
424 524 705 1
448 384 763 1
396 521 719 1
128 196 761 1
113 172 762 1
173 754 799 1
483 620 740 1
215 214 695 1
19 20 718 1
108 109 793 1
632 285 740 1
164 610 794 1
341 361 698 1
432 623 709 1
692 97 739 1
111 112 713 1
679 710 775 1
157 131 816 1
158 13 696 1
435 519 706 1
656 353 703 1
607 323 707 1
440 492 710 1
484 634 724 1
159 674 764 1
471 684 727 1
481 674 769 1
114 115 822 1
163 123 795 1
766 173 799 1
746 441 771 1
666 200 749 1
26 162 720 1
147 154 727 1
11 12 714 1
54 189 717 1
81 82 203 1
605 330 711 1
195 637 826 1
124 195 795 1
179 597 817 1
119 164 794 1
211 213 690 1
748 577 823 1
12 158 714 1
506 396 722 1
78 79 198 1
72 174 682 1
447 548 760 1
161 694 708 1
661 2 725 1
670 74 751 1
491 211 690 1
648 434 748 1
132 197 816 1
641 483 740 1
601 602 800 1
74 75 751 1
184 609 801 1
684 146 727 1
584 528 784 1
2 3 725 1
505 520 757 1
442 655 716 1
106 107 723 1
665 699 771 1
213 219 690 1
146 147 727 1
365 624 802 1
544 545 729 1
244 554 786 1
171 36 724 1
229 224 770 1
464 553 807 1
85 86 208 1
786 510 796 1
731 461 752 1
699 728 746 1
418 730 763 1
511 712 829 1
493 734 824 1
615 448 779 1
671 161 788 1
611 450 789 1
154 148 828 1
191 705 725 1
116 169 726 1
456 501 818 1
554 457 749 1
260 700 741 1
636 365 802 1
659 474 798 1
221 223 774 1
10 206 715 1
710 194 775 1
520 668 721 1
621 650 783 1
417 747 758 1
30 31 735 1
14 15 759 1
591 562 737 1
414 659 800 1
599 709 742 1
713 112 762 1
609 645 801 1
417 518 747 1
149 205 828 1
486 716 787 1
182 102 742 1
166 621 783 1
97 98 739 1
552 732 813 1
668 631 721 1
654 580 792 1
122 163 733 1
704 414 800 1
418 656 730 1
110 176 734 1
660 154 828 1
43 44 738 1
206 11 714 1
470 469 799 1
720 162 798 1
205 660 828 1
696 14 759 1
602 704 800 1
117 118 743 1
448 763 779 1
509 510 786 1
55 56 757 1
387 389 731 1
580 470 803 1
727 154 790 1
34 35 750 1
681 152 760 1
543 672 806 1
452 622 767 1
676 508 820 1
21 22 768 1
38 175 755 1
444 551 753 1
629 673 791 1
667 458 756 1
285 641 740 1
429 417 758 1
71 682 788 1
542 543 806 1
485 592 826 1
80 81 745 1
656 703 730 1
624 365 811 1
127 128 761 1
228 226 796 1
703 516 730 1
755 175 827 1
551 517 805 1
535 167 779 1
536 159 764 1
325 463 752 1
598 599 817 1
8 9 754 1
625 454 802 1
112 113 762 1
3 191 725 1
624 625 802 1
194 582 775 1
259 648 748 1
223 225 741 1
501 670 751 1
751 186 818 1
384 418 763 1
463 731 752 1
735 31 819 1
475 629 791 1
186 76 776 1
718 166 783 1
167 615 779 1
365 632 811 1
191 4 804 1
159 24 769 1
557 183 812 1
594 165 780 1
709 182 742 1
784 172 822 1
476 231 773 1
632 740 811 1
501 751 818 1
597 598 817 1
700 557 741 1
517 687 805 1
76 77 776 1
457 459 749 1
743 118 794 1
70 71 788 1
657 156 785 1
204 684 753 1
513 446 780 1
161 671 831 1
6 7 765 1
459 666 749 1
234 729 770 1
716 188 787 1
104 179 778 1
767 177 793 1
428 712 806 1
162 601 798 1
450 454 789 1
188 52 787 1
471 727 790 1
66 67 192 1
178 611 789 1
75 186 751 1
224 234 770 1
259 748 823 1
204 753 805 1
650 507 783 1
472 221 774 1
712 542 806 1
9 715 754 1
67 68 782 1
682 671 788 1
4 5 804 1
69 161 708 1
728 80 745 1
176 613 824 1
123 124 795 1
175 619 827 1
468 533 797 1
203 82 736 1
118 119 794 1
573 566 814 1
198 79 728 1
694 161 831 1
84 85 208 1
462 679 775 1
77 78 825 1
510 511 829 1
721 473 832 1
479 478 821 1
173 8 754 1
31 32 819 1
177 108 793 1
753 551 805 1
185 576 808 1
131 132 816 1
694 453 772 1
637 160 830 1
620 624 811 1
613 467 824 1
672 428 806 1
207 6 765 1
756 186 776 1
7 173 765 1
161 70 788 1
148 149 828 1
454 636 802 1
5 207 804 1
507 718 783 1
688 153 797 1
57 190 810 1
763 535 779 1
466 464 807 1
673 202 791 1
172 114 822 1
645 494 801 1
226 244 796 1
160 701 830 1
68 708 782 1
78 198 825 1
533 688 797 1
776 77 825 1
740 620 811 1
671 498 831 1
643 259 823 1
155 647 813 1
722 466 785 1
599 778 817 1
666 665 809 1
208 86 441 1
207 765 766 1
687 204 805 1
189 721 832 1
492 676 820 1
206 792 803 1
744 191 804 1
745 203 746 1
192 772 777 1
498 694 831 1
207 744 804 1
667 756 776 1
708 694 772 1
81 203 745 1
206 714 792 1
228 796 829 1
717 189 832 1
772 453 777 1
792 580 803 1
715 206 803 1
732 155 813 1
667 776 825 1
734 176 824 1
469 766 799 1
774 557 812 1
708 772 782 1
772 192 782 1
186 756 818 1
472 774 812 1
778 179 817 1
192 67 782 1
665 771 809 1
796 510 829 1
86 87 441 1

End
