MeshVersionFormatted 2
Dimension 3

Vertices
844
-2.7152273057958154e-01 -1.6789787974660580e-01 0.0000000000000000e+00 1
-2.7418969672292925e-01 -1.7088905505434407e-01 0.0000000000000000e+00 1
-2.7669299852508233e-01 -1.7463463772725443e-01 0.0000000000000000e+00 1
-2.7902905684990770e-01 -1.7905719275512666e-01 0.0000000000000000e+00 1
-2.8119429256127254e-01 -1.8407928512775057e-01 0.0000000000000000e+00 1
-2.8318512652304356e-01 -1.8962347983491601e-01 0.0000000000000000e+00 1
-2.8499797959908790e-01 -1.9561234186641263e-01 0.0000000000000000e+00 1
-2.8662927265327243e-01 -2.0196843621203037e-01 0.0000000000000000e+00 1
-2.8807542654946422e-01 -2.0861432786155892e-01 0.0000000000000000e+00 1
-2.8933286215153009e-01 -2.1547258180478818e-01 0.0000000000000000e+00 1
-2.9039800032333718e-01 -2.2246576303150789e-01 0.0000000000000000e+00 1
-2.9126726192875235e-01 -2.2951643653150777e-01 0.0000000000000000e+00 1
-2.9193706783164253e-01 -2.3654716729457770e-01 0.0000000000000000e+00 1
-2.9240383889587473e-01 -2.4348052031050738e-01 0.0000000000000000e+00 1
-2.9266399598531601e-01 -2.5023906056908674e-01 0.0000000000000000e+00 1
-2.9271395996383320e-01 -2.5674535306010549e-01 0.0000000000000000e+00 1
-2.9255015169529330e-01 -2.6292196277335345e-01 0.0000000000000000e+00 1
-2.9216899204356328e-01 -2.6869145469862038e-01 0.0000000000000000e+00 1
-2.9156690187251011e-01 -2.7397639382569605e-01 0.0000000000000000e+00 1
-2.9074030204600082e-01 -2.7869934514437039e-01 0.0000000000000000e+00 1
-2.8968561342790233e-01 -2.8278287364443300e-01 0.0000000000000000e+00 1
-2.8839925688208157e-01 -2.8614954431567380e-01 0.0000000000000000e+00 1
-2.8687765327240550e-01 -2.8872192214788256e-01 0.0000000000000000e+00 1
-2.8511722346274115e-01 -2.9042257213084904e-01 0.0000000000000000e+00 1
-2.8311438831695546e-01 -2.9117405925436307e-01 0.0000000000000000e+00 1
-2.8086556869891532e-01 -2.9089894850821446e-01 0.0000000000000000e+00 1
-2.7836718547248784e-01 -2.8951980488219292e-01 0.0000000000000000e+00 1
-2.7136507499539109e-01 -2.8433952854172662e-01 0.0000000000000000e+00 1
-2.6400459792552344e-01 -2.7897028232578747e-01 0.0000000000000000e+00 1
-2.5629969518498874e-01 -2.7341635995616032e-01 0.0000000000000000e+00 1
-2.4826430769589142e-01 -2.6768205515463050e-01 0.0000000000000000e+00 1
-2.3991237638033527e-01 -2.6177166164298277e-01 0.0000000000000000e+00 1
-2.3125784216042455e-01 -2.5568947314300233e-01 0.0000000000000000e+00 1
-2.2231464595826322e-01 -2.4943978337647432e-01 0.0000000000000000e+00 1
-2.1309672869595545e-01 -2.4302688606518363e-01 0.0000000000000000e+00 1
-2.0361803129560530e-01 -2.3645507493091539e-01 0.0000000000000000e+00 1
-1.9389249467931674e-01 -2.2972864369545465e-01 0.0000000000000000e+00 1
-1.8393405976919397e-01 -2.2285188608058643e-01 0.0000000000000000e+00 1
-1.7375666748734109e-01 -2.1582909580809584e-01 0.0000000000000000e+00 1
-1.6337425875586209e-01 -2.0866456659976784e-01 0.0000000000000000e+00 1
-1.5280077449686114e-01 -2.0136259217738767e-01 0.0000000000000000e+00 1
-1.4205015563244222e-01 -1.9392746626274016e-01 0.0000000000000000e+00 1
-1.3113634308470945e-01 -1.8636348257761043e-01 0.0000000000000000e+00 1
-1.2007327777576693e-01 -1.7867493484378355e-01 0.0000000000000000e+00 1
-1.0887490062771873e-01 -1.7086611678304467e-01 0.0000000000000000e+00 1
-9.7555152562668987e-02 -1.6294132211717874e-01 0.0000000000000000e+00 1
-8.6127974502721666e-02 -1.5490484456797077e-01 0.0000000000000000e+00 1
-7.4607307369980891e-02 -1.4676097785720588e-01 0.0000000000000000e+00 1
-6.3007092086550795e-02 -1.3851401570666913e-01 0.0000000000000000e+00 1
-5.1341269574535435e-02 -1.3016825183814557e-01 0.0000000000000000e+00 1
-3.9623780756038861e-02 -1.2172797997342027e-01 0.0000000000000000e+00 1
-2.7868566553165136e-02 -1.1319749383427818e-01 0.0000000000000000e+00 1
-1.6089567888018380e-02 -1.0458108714250443e-01 0.0000000000000000e+00 1
-4.3007256827026774e-03 -9.5883053619884070e-02 0.0000000000000000e+00 1
7.4840191406778805e-03 -8.7107686988202176e-02 0.0000000000000000e+00 1
1.9250725660019258e-02 -7.8259280969243783e-02 0.0000000000000000e+00 1
3.0985452953217391e-02 -6.9342129284793885e-02 0.0000000000000000e+00 1
4.2674260098168118e-02 -6.0360525656637611e-02 0.0000000000000000e+00 1
5.4303206172767432e-02 -5.1318763806559954e-02 0.0000000000000000e+00 1
6.5858350254911213e-02 -4.2221137456346050e-02 0.0000000000000000e+00 1
7.7325751422495398e-02 -3.3071940327780838e-02 0.0000000000000000e+00 1
8.8691468753415909e-02 -2.3875466142649494e-02 0.0000000000000000e+00 1
9.9941561325568667e-02 -1.4636008622736965e-02 0.0000000000000000e+00 1
1.1106208821684962e-01 -5.3578614898283083e-03 0.0000000000000000e+00 1
1.2203910850515456e-01 3.9546815342912794e-03 0.0000000000000000e+00 1
1.3285868126837955e-01 1.3297326727836942e-02 0.0000000000000000e+00 1
1.4350686558442044e-01 2.2665780369023461e-02 0.0000000000000000e+00 1
1.5396972053117322e-01 3.2055748736065912e-02 0.0000000000000000e+00 1
1.6423330518653376e-01 4.1462938107179201e-02 0.0000000000000000e+00 1
1.7428367862839791e-01 5.0883054760578209e-02 0.0000000000000000e+00 1
1.8410689993466170e-01 6.0311804974477981e-02 0.0000000000000000e+00 1
1.9368902818322095e-01 6.9744895027093370e-02 0.0000000000000000e+00 1
2.0301612245197173e-01 7.9178031196639451e-02 0.0000000000000000e+00 1
2.1207424181880993e-01 8.8606919761331102e-02 0.0000000000000000e+00 1
2.2084944536163129e-01 9.8027266999383175e-02 0.0000000000000000e+00 1
2.2932779215833185e-01 1.0743477918901077e-01 0.0000000000000000e+00 1
2.3749534128680758e-01 1.1682516260842869e-01 0.0000000000000000e+00 1
2.4533815182495436e-01 1.2619412353585208e-01 0.0000000000000000e+00 1
2.5284228285066812e-01 1.3553736824949575e-01 0.0000000000000000e+00 1
2.5999379344184470e-01 1.4485060302757458e-01 0.0000000000000000e+00 1
2.6677874267638013e-01 1.5412953414830372e-01 0.0000000000000000e+00 1
2.7318318963217014e-01 1.6336986788989794e-01 0.0000000000000000e+00 1
2.7919319338711091e-01 1.7256731053057223e-01 0.0000000000000000e+00 1
2.8479481301909826e-01 1.8171756834854158e-01 0.0000000000000000e+00 1
2.8997410760602804e-01 1.9081634762202093e-01 0.0000000000000000e+00 1
2.9471713622579632e-01 1.9985935462922522e-01 0.0000000000000000e+00 1
2.9900995795629881e-01 2.0884229564836942e-01 0.0000000000000000e+00 1
3.0283863187543159e-01 2.1776087695766833e-01 0.0000000000000000e+00 1
3.0618921706109048e-01 2.2661080483533713e-01 0.0000000000000000e+00 1
3.0904777259117144e-01 2.3538778555959056e-01 0.0000000000000000e+00 1
3.1140035754357054e-01 2.4408752540864376e-01 0.0000000000000000e+00 1
3.1323303099618349e-01 2.5270573066071156e-01 0.0000000000000000e+00 1
3.1453185202690614e-01 2.6123810759400884e-01 0.0000000000000000e+00 1
3.1528287971363478e-01 2.6968036248675070e-01 0.0000000000000000e+00 1
3.1539092239561628e-01 2.7710458906027424e-01 0.0000000000000000e+00 1
3.1483893375844396e-01 2.8361455719801815e-01 0.0000000000000000e+00 1
3.1364460060121213e-01 2.8923259831951953e-01 0.0000000000000000e+00 1
3.1182560972301543e-01 2.9398104384431534e-01 0.0000000000000000e+00 1
3.0939964792294827e-01 2.9788222519194280e-01 0.0000000000000000e+00 1
3.0638440200010519e-01 3.0095847378193885e-01 0.0000000000000000e+00 1
3.0279755875358083e-01 3.0323212103384067e-01 0.0000000000000000e+00 1
2.9865680498246971e-01 3.0472549836718527e-01 0.0000000000000000e+00 1
2.9397982748586615e-01 3.0546093720150980e-01 0.0000000000000000e+00 1
2.8878431306286501e-01 3.0546076895635133e-01 0.0000000000000000e+00 1
2.8308794851256047e-01 3.0474732505124685e-01 0.0000000000000000e+00 1
2.7690842063404719e-01 3.0334293690573361e-01 0.0000000000000000e+00 1
2.7026341622641992e-01 3.0126993593934853e-01 0.0000000000000000e+00 1
2.6317062208877295e-01 2.9855065357162880e-01 0.0000000000000000e+00 1
2.5564772502020072e-01 2.9520742122211152e-01 0.0000000000000000e+00 1
2.4771241181979806e-01 2.9126257031033359e-01 0.0000000000000000e+00 1
2.3938236928665921e-01 2.8673843225583223e-01 0.0000000000000000e+00 1
2.3067528421987885e-01 2.8165733847814450e-01 0.0000000000000000e+00 1
2.2160884341855155e-01 2.7604162039680752e-01 0.0000000000000000e+00 1
2.1220073368177164e-01 2.6991360943135834e-01 0.0000000000000000e+00 1
2.0246864180863380e-01 2.6329563700133396e-01 0.0000000000000000e+00 1
1.9243025459823251e-01 2.5621003452627161e-01 0.0000000000000000e+00 1
1.8210325884966236e-01 2.4867913342570819e-01 0.0000000000000000e+00 1
1.7150534136201787e-01 2.4072526511918096e-01 0.0000000000000000e+00 1
1.6065418893439345e-01 2.3237076102622695e-01 0.0000000000000000e+00 1
1.4956748836588371e-01 2.2363795256638314e-01 0.0000000000000000e+00 1
1.3826292645558319e-01 2.1454917115918670e-01 0.0000000000000000e+00 1
1.2675819000258642e-01 2.0512674822417482e-01 0.0000000000000000e+00 1
1.1507096580598786e-01 1.9539301518088431e-01 0.0000000000000000e+00 1
1.0321894066488213e-01 1.8537030344885247e-01 0.0000000000000000e+00 1
9.1219801378363663e-02 1.7508094444761635e-01 0.0000000000000000e+00 1
7.9091234745527095e-02 1.6454726959671295e-01 0.0000000000000000e+00 1
6.6850927565466844e-02 1.5379161031567934e-01 0.0000000000000000e+00 1
5.4516566637277525e-02 1.4283629802405273e-01 0.0000000000000000e+00 1
4.2105838760053582e-02 1.3170366414137008e-01 0.0000000000000000e+00 1
2.9636430732889643e-02 1.2041604008716857e-01 0.0000000000000000e+00 1
1.7126029354880140e-02 1.0899575728098516e-01 0.0000000000000000e+00 1
4.5923214251196165e-03 9.7465147142357031e-02 0.0000000000000000e+00 1
-7.9470062572973288e-03 8.5846541090821224e-02 0.0000000000000000e+00 1
-2.0474266893276256e-02 7.4162270545914802e-02 0.0000000000000000e+00 1
-3.2971773683722568e-02 6.2434666927174906e-02 0.0000000000000000e+00 1
-4.5421839829541767e-02 5.0686061654138581e-02 0.0000000000000000e+00 1
-5.7806778531639333e-02 3.8938786146342871e-02 0.0000000000000000e+00 1
-7.0108902990920735e-02 2.7215171823324932e-02 0.0000000000000000e+00 1
-8.2310526408291451e-02 1.5537550104621795e-02 0.0000000000000000e+00 1
-9.4393961984656938e-02 3.9282524097705440e-03 0.0000000000000000e+00 1
-1.0634152292092267e-01 -7.5903898416917193e-03 0.0000000000000000e+00 1
-1.1813552241799413e-01 -1.8996045230227923e-02 0.0000000000000000e+00 1
-1.2975827367677678e-01 -3.0266382336301002e-02 0.0000000000000000e+00 1
-1.4119208989817611e-01 -4.1379069740373878e-02 0.0000000000000000e+00 1
-1.5241928428309756e-01 -5.2311776022909449e-02 0.0000000000000000e+00 1
-1.6342217003244666e-01 -6.3042169764370631e-02 0.0000000000000000e+00 1
-1.7418306034712883e-01 -7.3547919545220358e-02 0.0000000000000000e+00 1
-1.8468426842804953e-01 -8.3806693945921537e-02 0.0000000000000000e+00 1
-1.9490810747611431e-01 -9.3796161546937096e-02 0.0000000000000000e+00 1
-2.0483689069222855e-01 -1.0349399092872996e-01 0.0000000000000000e+00 1
-2.1445293127729781e-01 -1.1287785067176304e-01 0.0000000000000000e+00 1
-2.2373854243222749e-01 -1.2192540935649925e-01 0.0000000000000000e+00 1
-2.3267603735792311e-01 -1.3061433556340152e-01 0.0000000000000000e+00 1
-2.4124772925529012e-01 -1.3892229787293275e-01 0.0000000000000000e+00 1
-2.4943593132523398e-01 -1.4682696486555588e-01 0.0000000000000000e+00 1
-2.5722295676866025e-01 -1.5430600512173381e-01 0.0000000000000000e+00 1
-2.6459111878647423e-01 -1.6133708722192949e-01 0.0000000000000000e+00 1
-2.7401942763097104e-01 -1.7898383186293904e-01 0.0000000000000000e+00 1
-2.8070033403152683e-01 -2.0010058118597390e-01 0.0000000000000000e+00 1
2.6289361183675802e-01 1.6499092287440725e-01 0.0000000000000000e+00 1
2.3290546971302131e-01 1.2697166273452060e-01 0.0000000000000000e+00 1
2.8532211014841791e-01 1.9899985962986211e-01 0.0000000000000000e+00 1
1.9859611236575228e-01 9.1138662757164340e-02 0.0000000000000000e+00 1
1.7221511020062502e-01 6.3611712495299358e-02 0.0000000000000000e+00 1
1.4118853703771872e-01 3.5255476524313351e-02 0.0000000000000000e+00 1
3.0010738034682133e-01 2.3344557353695827e-01 0.0000000000000000e+00 1
2.0476537868536263e-01 2.5180549284808862e-01 0.0000000000000000e+00 1
1.7319767461271840e-01 2.2730299748517213e-01 0.0000000000000000e+00 1
1.0709075046904118e-01 9.1793756393299154e-03 0.0000000000000000e+00 1
2.3087236809205539e-01 2.7121251778078254e-01 0.0000000000000000e+00 1
-2.8426134684537607e-01 -2.1999008073492299e-01 0.0000000000000000e+00 1
1.4035107897173843e-01 1.9918715473902604e-01 0.0000000000000000e+00 1
7.3982132425108843e-02 -1.9887174161266390e-02 0.0000000000000000e+00 1
-2.5560283963817404e-01 -1.6260264261685131e-01 0.0000000000000000e+00 1
2.8665830314504076e-01 3.0016674206064831e-01 0.0000000000000000e+00 1
1.0610184185524309e-01 1.7006268012298853e-01 0.0000000000000000e+00 1
4.0397305083720053e-02 -4.5867092613678773e-02 0.0000000000000000e+00 1
2.6208891167393050e-01 2.9046288357016820e-01 0.0000000000000000e+00 1
5.7516804967479183e-03 -7.0613486427717184e-02 0.0000000000000000e+00 1
7.0111654580255159e-02 1.3787707933831303e-01 0.0000000000000000e+00 1
-2.8636116974458451e-02 -1.0008241033670121e-01 0.0000000000000000e+00 1
-2.2986715355080051e-01 -1.4192287949051230e-01 0.0000000000000000e+00 1
-2.2277056797460917e-01 -2.3890148130040093e-01 0.0000000000000000e+00 1
-6.4373913284316756e-02 -1.2427724959561018e-01 0.0000000000000000e+00 1
-1.5394754316188208e-01 -1.8865570936436560e-01 0.0000000000000000e+00 1
3.3269145410771500e-02 1.0403012829080181e-01 0.0000000000000000e+00 1
-9.7682290053156179e-02 -1.4920887280013115e-01 0.0000000000000000e+00 1
-1.6450862533754329e-02 5.7570240348095575e-02 0.0000000000000000e+00 1
-1.9480055278623748e-01 -2.1776472803396663e-01 0.0000000000000000e+00 1
3.0667242963977898e-01 2.5825593876501463e-01 0.0000000000000000e+00 1
-1.8127059694697181e-01 -9.7527044937180618e-02 0.0000000000000000e+00 1
-5.3931892256617250e-02 2.2488986245602596e-02 0.0000000000000000e+00 1
-1.1433683155273029e-01 -3.4587524008964560e-02 0.0000000000000000e+00 1
-1.4872772741651530e-01 -6.7103423430679765e-02 0.0000000000000000e+00 1
-2.8663129015404842e-01 -2.4076133240496628e-01 0.0000000000000000e+00 1
3.1019173022525515e-01 2.7986422426709617e-01 0.0000000000000000e+00 1
3.0524671696985595e-01 2.9682749851823576e-01 0.0000000000000000e+00 1
-2.4938827715621995e-01 -2.5726048199331858e-01 0.0000000000000000e+00 1
-2.8695244170178347e-01 -2.5959433583670510e-01 0.0000000000000000e+00 1
-2.1141129291362309e-01 -1.2528826118897579e-01 0.0000000000000000e+00 1
-1.7470257858696309e-01 -2.0340199511649079e-01 0.0000000000000000e+00 1
-1.3239228919322030e-01 -1.7333450725455327e-01 0.0000000000000000e+00 1
-9.1174326301566702e-02 -1.1460771052935416e-02 0.0000000000000000e+00 1
8.5546221914015279e-03 8.0980994148954460e-02 0.0000000000000000e+00 1
2.1883669780764353e-01 1.0850345810430298e-01 0.0000000000000000e+00 1
2.4733778695908401e-01 2.8202145623674163e-01 0.0000000000000000e+00 1
2.4709352510636334e-01 1.4764968428381384e-01 0.0000000000000000e+00 1
2.7424425380779888e-01 1.8189071760250125e-01 0.0000000000000000e+00 1
2.9329714601368501e-01 2.1657585886570449e-01 0.0000000000000000e+00 1
-2.8751666134890475e-01 -2.7083820118310109e-01 0.0000000000000000e+00 1
-2.7756020530618913e-01 -1.8851376534231379e-01 0.0000000000000000e+00 1
-2.8637571241332727e-01 -2.8344729249263662e-01 0.0000000000000000e+00 1
2.7649303867223818e-01 2.9659350147163760e-01 0.0000000000000000e+00 1
-2.8361518347967801e-01 -2.8888355570138957e-01 0.0000000000000000e+00 1
-2.6492102005004881e-01 -2.6996033076623938e-01 0.0000000000000000e+00 1
2.9587312016782663e-01 3.0084642053844912e-01 0.0000000000000000e+00 1
-2.6919053910887630e-01 -1.7251125790078059e-01 0.0000000000000000e+00 1
3.0890905939820101e-01 2.9055964575883086e-01 0.0000000000000000e+00 1
-2.7841844841361030e-01 -2.8241056942149134e-01 0.0000000000000000e+00 1
-2.7211723597212950e-01 -2.7502237792439960e-01 0.0000000000000000e+00 1
-2.7230993481213078e-01 -2.6644806933127840e-01 0.0000000000000000e+00 1
-2.6611853403071273e-01 -2.6145681847253222e-01 0.0000000000000000e+00 1
-2.7374706203785826e-01 -2.5841384504889919e-01 0.0000000000000000e+00 1
-2.6743089965585631e-01 -2.5331394382928218e-01 0.0000000000000000e+00 1
-2.7493651625203663e-01 -2.5033402520398518e-01 0.0000000000000000e+00 1
-2.6868127026808564e-01 -2.4506700978800205e-01 0.0000000000000000e+00 1
-2.6099776920620188e-01 -2.4802677164555048e-01 0.0000000000000000e+00 1
-2.6229394978533449e-01 -2.3982589547742750e-01 0.0000000000000000e+00 1
-2.7002884623583034e-01 -2.3687077896296660e-01 0.0000000000000000e+00 1
-2.6379679869439193e-01 -2.3149878507261196e-01 0.0000000000000000e+00 1
-2.5578201357940866e-01 -2.3446887971082342e-01 0.0000000000000000e+00 1
-2.5742951892997312e-01 -2.2592184942621441e-01 0.0000000000000000e+00 1
-2.4914255733027527e-01 -2.2888541149058067e-01 0.0000000000000000e+00 1
-2.5081274422112815e-01 -2.2027924030389068e-01 0.0000000000000000e+00 1
-2.5910259562515398e-01 -2.1735016073184435e-01 0.0000000000000000e+00 1
-2.5248227214744196e-01 -2.1158976052861639e-01 0.0000000000000000e+00 1
-2.4383147913733230e-01 -2.1438100366254925e-01 0.0000000000000000e+00 1
-2.4569110198658695e-01 -2.0529910734210091e-01 0.0000000000000000e+00 1
-2.3661029061886216e-01 -2.0816398623740989e-01 0.0000000000000000e+00 1
-2.3830370937554282e-01 -1.9880198275437916e-01 0.0000000000000000e+00 1
-2.2917485082208922e-01 -2.0134034380867374e-01 0.0000000000000000e+00 1
-2.3099105150772589e-01 -1.9170573741353109e-01 0.0000000000000000e+00 1
-2.2132584803502259e-01 -1.9450023358100274e-01 0.0000000000000000e+00 1
-2.2300129778942845e-01 -1.8448632027181944e-01 0.0000000000000000e+00 1
-2.1320936317575667e-01 -1.8706675916496485e-01 0.0000000000000000e+00 1
-2.4752812381702538e-01 -1.9559330965904750e-01 0.0000000000000000e+00 1
-2.1522529945299648e-01 -1.7660178794119769e-01 0.0000000000000000e+00 1
-2.0438906720557062e-01 -1.8002784225708421e-01 0.0000000000000000e+00 1
-2.0676272913758989e-01 -1.6866157149851846e-01 0.0000000000000000e+00 1
-1.9548177804508518e-01 -1.7222148006921548e-01 0.0000000000000000e+00 1
-1.9875822457685133e-01 -1.6027323868846025e-01 0.0000000000000000e+00 1
-1.8641249157133233e-01 -1.6415810488316807e-01 0.0000000000000000e+00 1
-1.9022914063012547e-01 -1.5024972865328495e-01 0.0000000000000000e+00 1
-1.7711446558107624e-01 -1.5558275279132627e-01 0.0000000000000000e+00 1
-1.7965824410215350e-01 -1.4347155824865637e-01 0.0000000000000000e+00 1
-1.6735667629966122e-01 -1.4736320686818358e-01 0.0000000000000000e+00 1
-1.7009869198181063e-01 -1.3466817031849718e-01 0.0000000000000000e+00 1
-1.5745392163194982e-01 -1.3857281716430189e-01 0.0000000000000000e+00 1
-1.6026697838456455e-01 -1.2552498473532872e-01 0.0000000000000000e+00 1
-1.4729949264598735e-01 -1.2954828429915327e-01 0.0000000000000000e+00 1
-1.5019711973540018e-01 -1.1615417744291504e-01 0.0000000000000000e+00 1
-1.3678145333704278e-01 -1.2043742223253215e-01 0.0000000000000000e+00 1
-2.2470059678902510e-01 -1.7445099207149661e-01 0.0000000000000000e+00 1
-1.3989803526674913e-01 -1.0662273824451816e-01 0.0000000000000000e+00 1
-1.2612548675765237e-01 -1.1108429428171396e-01 0.0000000000000000e+00 1
-1.2934752395147747e-01 -9.6906226825007449e-02 0.0000000000000000e+00 1
-1.1547486863569792e-01 -1.0136587094827879e-01 0.0000000000000000e+00 1
-1.1864729614681170e-01 -8.6992452850348595e-02 0.0000000000000000e+00 1
-1.0471649710940137e-01 -9.1475750766770197e-02 0.0000000000000000e+00 1
-1.0168785962520328e-01 -1.0586062041347406e-01 0.0000000000000000e+00 1
-9.0714270530941013e-02 -9.6024379661887427e-02 0.0000000000000000e+00 1
-9.3749572891803246e-02 -8.1525253164962438e-02 0.0000000000000000e+00 1
-7.9601365043487110e-02 -8.6145964436128111e-02 0.0000000000000000e+00 1
-8.2653286029717318e-02 -7.1492869399778627e-02 0.0000000000000000e+00 1
-6.8242978038800708e-02 -7.6212388043156790e-02 0.0000000000000000e+00 1
-7.1410533992223968e-02 -6.1350129659948363e-02 0.0000000000000000e+00 1
-5.6844723670757713e-02 -6.6117506470077428e-02 0.0000000000000000e+00 1
-6.0060485487236928e-02 -5.1096946761112788e-02 0.0000000000000000e+00 1
-4.5461000831313270e-02 -5.5891406112593300e-02 0.0000000000000000e+00 1
-4.8621224375150464e-02 -4.0756194927243437e-02 0.0000000000000000e+00 1
-3.3737049643747408e-02 -4.5557111836482006e-02 0.0000000000000000e+00 1
-3.6589202809913679e-02 -3.0854405513461115e-02 0.0000000000000000e+00 1
-2.2010624870039075e-02 -3.5237619663905928e-02 0.0000000000000000e+00 1
-2.4872719849758175e-02 -2.0485364022165116e-02 0.0000000000000000e+00 1
-1.0345560106802088e-02 -2.4842030080477799e-02 0.0000000000000000e+00 1
-1.3215712615605956e-02 -9.9680708933277875e-03 0.0000000000000000e+00 1
1.2997870260655546e-03 -1.4364853698555904e-02 0.0000000000000000e+00 1
-1.5117787544384790e-03 5.6406273589408422e-04 0.0000000000000000e+00 1
1.3058953468431240e-02 -3.8168004427447935e-03 0.0000000000000000e+00 1
9.7956715209162049e-03 1.1600750858194838e-02 0.0000000000000000e+00 1
2.4711610563043718e-02 6.7861313771107063e-03 0.0000000000000000e+00 1
2.1463755032636381e-02 2.2231307062929438e-02 0.0000000000000000e+00 1
3.6408227111930244e-02 1.7332011458925496e-02 0.0000000000000000e+00 1
3.3438076757538682e-02 3.2489421107878044e-02 0.0000000000000000e+00 1
4.8183652782560357e-02 2.7863042695253762e-02 0.0000000000000000e+00 1
4.5278302523560757e-02 4.2864854371485753e-02 0.0000000000000000e+00 1
5.9887866608109894e-02 3.8185052640386227e-02 0.0000000000000000e+00 1
5.6871888860610662e-02 5.3387085025831567e-02 0.0000000000000000e+00 1
7.1453036863562330e-02 4.8370095757259958e-02 0.0000000000000000e+00 1
6.8293862454223087e-02 6.3942838968650079e-02 0.0000000000000000e+00 1
8.2938542941668664e-02 5.8911707100975208e-02 0.0000000000000000e+00 1
7.9812056988876945e-02 7.4295104014339877e-02 0.0000000000000000e+00 1
9.4493349263616688e-02 6.9610532957817634e-02 0.0000000000000000e+00 1
9.1413563876019038e-02 8.4447052390221655e-02 0.0000000000000000e+00 1
1.0590265269800117e-01 7.9965426378155249e-02 0.0000000000000000e+00 1
1.0277233404488731e-01 9.4634235376916037e-02 0.0000000000000000e+00 1
1.1705333774805200e-01 9.0092737033805437e-02 0.0000000000000000e+00 1
1.1404974004546198e-01 1.0459386056511984e-01 0.0000000000000000e+00 1
1.2810652492560509e-01 1.0004226164527533e-01 0.0000000000000000e+00 1
1.2508755165116342e-01 1.1454459978813580e-01 0.0000000000000000e+00 1
1.3903269025835716e-01 1.0996956012297981e-01 0.0000000000000000e+00 1
1.3606196211711494e-01 1.2428765977511037e-01 0.0000000000000000e+00 1
1.4992228741764835e-01 1.1979383081815073e-01 0.0000000000000000e+00 1
1.4691478455271736e-01 1.3387103913431053e-01 0.0000000000000000e+00 1
1.6049199848040147e-01 1.2956700518785375e-01 0.0000000000000000e+00 1
1.5758298448552388e-01 1.4336514637815853e-01 0.0000000000000000e+00 1
1.7094906696923556e-01 1.3893981419037238e-01 0.0000000000000000e+00 1
1.6802960385329319e-01 1.5257479556599340e-01 0.0000000000000000e+00 1
1.8110418565189904e-01 1.4823902218709781e-01 0.0000000000000000e+00 1
1.7831331524812194e-01 1.6159601148620834e-01 0.0000000000000000e+00 1
1.9119921354231026e-01 1.5740248870267226e-01 0.0000000000000000e+00 1
1.8842538703284817e-01 1.7044259294086478e-01 0.0000000000000000e+00 1
2.0094178543080121e-01 1.6636531726696080e-01 0.0000000000000000e+00 1
1.9810067668731826e-01 1.7870998660001627e-01 0.0000000000000000e+00 1
2.1045859308291529e-01 1.7494904099681421e-01 0.0000000000000000e+00 1
2.0792785139645886e-01 1.8678349231007241e-01 0.0000000000000000e+00 1
2.1978855667456046e-01 1.8338124936883260e-01 0.0000000000000000e+00 1
2.1750279260634889e-01 1.9525307472089659e-01 0.0000000000000000e+00 1
2.2915391010286817e-01 1.9136416655870381e-01 0.0000000000000000e+00 1
2.2654929688901876e-01 2.0334896305804798e-01 0.0000000000000000e+00 1
2.3768859786939911e-01 1.9993082872494930e-01 0.0000000000000000e+00 1
2.3529525480584335e-01 2.1134177780455737e-01 0.0000000000000000e+00 1
2.1571647621423939e-01 2.0636880077665670e-01 0.0000000000000000e+00 1
2.4608767615030369e-01 2.0775390936167071e-01 0.0000000000000000e+00 1
2.4391249219259728e-01 2.1873739789497726e-01 0.0000000000000000e+00 1
2.5440191186213013e-01 2.1529500931159984e-01 0.0000000000000000e+00 1
2.5213039195110615e-01 2.2590037310560110e-01 0.0000000000000000e+00 1
2.4186659908259023e-01 2.2945338754995065e-01 0.0000000000000000e+00 1
2.4992054566423241e-01 2.3647495100757401e-01 0.0000000000000000e+00 1
2.5994379006938745e-01 2.3297146894611359e-01 0.0000000000000000e+00 1
2.5780773001740143e-01 2.4314548267250458e-01 0.0000000000000000e+00 1
1.8622399346285093e-01 1.8241558637008620e-01 0.0000000000000000e+00 1
2.6736787449987137e-01 2.3998413353052672e-01 0.0000000000000000e+00 1
2.6524136897495698e-01 2.4982081993618477e-01 0.0000000000000000e+00 1
2.7455467567282332e-01 2.4660072732337160e-01 0.0000000000000000e+00 1
2.7281515302569587e-01 2.5585594693499331e-01 0.0000000000000000e+00 1
1.5479460135263115e-01 1.5827548516533108e-01 0.0000000000000000e+00 1
9.7615672248011723e-02 5.4608287118630215e-02 0.0000000000000000e+00 1
1.5294293517777180e-01 1.0595617193310483e-01 0.0000000000000000e+00 1
1.3129891323178733e-01 8.5602894165098586e-02 0.0000000000000000e+00 1
2.3978290950035755e-01 2.4004237681533558e-01 0.0000000000000000e+00 1
2.1322435007403123e-01 1.6203906778596744e-01 0.0000000000000000e+00 1
2.3154681065842422e-01 2.3296153216000909e-01 0.0000000000000000e+00 1
1.9401021641588512e-01 1.4421890310534061e-01 0.0000000000000000e+00 1
2.5568992710950206e-01 2.5351691893325939e-01 0.0000000000000000e+00 1
1.7382779302159190e-01 1.2541650185634673e-01 0.0000000000000000e+00 1
7.7703551355543257e-02 8.9995128875587665e-02 0.0000000000000000e+00 1
1.1094787642831884e-01 1.1934581830947461e-01 0.0000000000000000e+00 1
2.3183285281625668e-01 1.7849980033201468e-01 0.0000000000000000e+00 1
6.2966583187873931e-02 2.2921459066617411e-02 0.0000000000000000e+00 1
-1.3417590710818095e-01 -1.3421755242864708e-01 0.0000000000000000e+00 1
-2.6080645035672295e-01 -2.0903944206976158e-01 0.0000000000000000e+00 1
2.8151362749196762e-01 2.5274572272035567e-01 0.0000000000000000e+00 1
2.7973503031759295e-01 2.6169234361826971e-01 0.0000000000000000e+00 1
2.7126297758497575e-01 2.6523975835470759e-01 0.0000000000000000e+00 1
2.7822870779961850e-01 2.7030357395441534e-01 0.0000000000000000e+00 1
2.8605630711633534e-01 2.6740300843435033e-01 0.0000000000000000e+00 1
2.8449227862101989e-01 2.7559154512122008e-01 0.0000000000000000e+00 1
2.6994711841426394e-01 2.2948264449608086e-01 0.0000000000000000e+00 1
-2.2735664400344108e-01 -2.1013275580091642e-01 0.0000000000000000e+00 1
1.3261308687033374e-01 1.3830052666081299e-01 0.0000000000000000e+00 1
3.9645180982323155e-02 1.9651492362110900e-03 0.0000000000000000e+00 1
-4.6404137192086930e-03 1.4223308570976848e-02 0.0000000000000000e+00 1
2.4859064503690034e-01 1.9659785302719923e-01 0.0000000000000000e+00 1
-5.1961631425957923e-02 -2.5484969210600793e-02 0.0000000000000000e+00 1
4.3843795299211832e-03 -2.9613068695174327e-02 0.0000000000000000e+00 1
-3.0599463630832036e-02 -6.0700442303538160e-02 0.0000000000000000e+00 1
2.9200314122695203e-01 2.7285578515638265e-01 0.0000000000000000e+00 1
2.9022452331627263e-01 2.8054927346403413e-01 0.0000000000000000e+00 1
2.2954248651733858e-01 2.4370911449579005e-01 0.0000000000000000e+00 1
5.3816374102264287e-02 6.8043248279766794e-02 0.0000000000000000e+00 1
-6.5317498173269692e-02 -9.0976562365684827e-02 0.0000000000000000e+00 1
1.8687925463309017e-02 3.7227405752758375e-02 0.0000000000000000e+00 1
-2.4752497804304513e-01 -2.3768399978360133e-01 0.0000000000000000e+00 1
-2.0464771537425624e-01 -1.9085578400453232e-01 0.0000000000000000e+00 1
-1.8266828473371191e-01 -1.3062289199570040e-01 0.0000000000000000e+00 1
-7.4532000201724929e-02 -4.6550035798012090e-02 0.0000000000000000e+00 1
-1.6569014925807127e-01 -1.6013058741883918e-01 0.0000000000000000e+00 1
-1.8499298357689081e-01 -1.7632842609202451e-01 0.0000000000000000e+00 1
2.7696696086524891e-01 2.7829528382853186e-01 0.0000000000000000e+00 1
-9.6594783447675608e-02 -6.7451471349468634e-02 0.0000000000000000e+00 1
2.2099407421730735e-01 2.3656741741942180e-01 0.0000000000000000e+00 1
-2.8570362108572292e-02 -4.6728535442309063e-03 0.0000000000000000e+00 1
-2.6706408954590133e-01 -2.1450016950043452e-01 0.0000000000000000e+00 1
2.3794692310955726e-01 2.5077345888962260e-01 0.0000000000000000e+00 1
-1.5383862493853961e-01 -1.0305459119570987e-01 0.0000000000000000e+00 1
2.8349795799495225e-01 2.4371353615043745e-01 0.0000000000000000e+00 1
-2.0955497415486010e-01 -1.5694547410070614e-01 0.0000000000000000e+00 1
2.9024660140796504e-01 2.4983003185392141e-01 0.0000000000000000e+00 1
-2.7146218471598826e-01 -2.2886483317143469e-01 0.0000000000000000e+00 1
-2.4062432120558508e-01 -2.3197505120654666e-01 0.0000000000000000e+00 1
-8.7822626148209487e-02 -1.1027678390979334e-01 0.0000000000000000e+00 1
-9.8564942315244070e-02 -1.2010221699212187e-01 0.0000000000000000e+00 1
-2.6855646767446395e-01 -2.0660560715314458e-01 0.0000000000000000e+00 1
-2.6272000848877319e-01 -2.0115719728239859e-01 0.0000000000000000e+00 1
2.9378420084845980e-01 2.6510099192623748e-01 0.0000000000000000e+00 1
2.9897707539722101e-01 2.7097421742760042e-01 0.0000000000000000e+00 1
2.2770680911072505e-01 2.5446138787505668e-01 0.0000000000000000e+00 1
-2.7505837599285438e-01 -2.1175691535722668e-01 0.0000000000000000e+00 1
2.2308571643857586e-01 2.2559462380056167e-01 0.0000000000000000e+00 1
2.1220342219394822e-01 2.2923986046070632e-01 0.0000000000000000e+00 1
-2.3936637860185989e-01 -2.4158441435323574e-01 0.0000000000000000e+00 1
-2.6974455900583938e-01 -1.9918714980722246e-01 0.0000000000000000e+00 1
-2.6450225123733750e-01 -1.9361867641452452e-01 0.0000000000000000e+00 1
-8.6295515402111181e-02 -1.2585004960943763e-01 0.0000000000000000e+00 1
-1.3262073679643871e-01 -8.2901421853151025e-02 0.0000000000000000e+00 1
-1.2166963782523461e-01 -7.3276402138355845e-02 0.0000000000000000e+00 1
-2.7697938149767942e-01 -2.3391866273285183e-01 0.0000000000000000e+00 1
-2.8070161173340119e-01 -2.7464443414276102e-01 0.0000000000000000e+00 1
-2.7280154086482222e-01 -2.2024969913200226e-01 0.0000000000000000e+00 1
-2.8006751661780449e-01 -2.6354284746972551e-01 0.0000000000000000e+00 1
2.9363076258676341e-01 2.4051825146028580e-01 0.0000000000000000e+00 1
2.8584410635116209e-01 2.3455313755147070e-01 0.0000000000000000e+00 1
2.9823350785626906e-01 2.4760795855545084e-01 0.0000000000000000e+00 1
2.8295278684484437e-01 2.8318067649684997e-01 0.0000000000000000e+00 1
2.8874025554863259e-01 2.8772786874425815e-01 0.0000000000000000e+00 1
2.9536405679237016e-01 2.8537617959225542e-01 0.0000000000000000e+00 1
2.9394891557711833e-01 2.9169878093461044e-01 0.0000000000000000e+00 1
2.7564095930635113e-01 2.8542260772504352e-01 0.0000000000000000e+00 1
2.6981025377049067e-01 2.8051929214375576e-01 0.0000000000000000e+00 1
2.9993275650902351e-01 2.8963788529633377e-01 0.0000000000000000e+00 1
3.0125566984897467e-01 2.8336758728012934e-01 0.0000000000000000e+00 1
2.8138892045732128e-01 2.9073288607207415e-01 0.0000000000000000e+00 1
2.9943509232092214e-01 2.9604464953097381e-01 0.0000000000000000e+00 1
2.9771278083773006e-01 2.5616344822553039e-01 0.0000000000000000e+00 1
-2.4682425672434735e-01 -2.4711543006406189e-01 0.0000000000000000e+00 1
-2.7911499439316079e-01 -2.2524870545858128e-01 0.0000000000000000e+00 1
-2.6527612139603846e-01 -2.2306424950575698e-01 0.0000000000000000e+00 1
-2.5721075725016729e-01 -1.9551365386713562e-01 0.0000000000000000e+00 1
-2.5928454073300033e-01 -1.8823820671216027e-01 0.0000000000000000e+00 1
-2.6701449549886519e-01 -1.8620427114470794e-01 0.0000000000000000e+00 1
-2.6124274261707975e-01 -1.8115163810844956e-01 0.0000000000000000e+00 1
-2.5362797712374407e-01 -1.8284426634308718e-01 0.0000000000000000e+00 1
-2.5600900598290455e-01 -1.7590234860917692e-01 0.0000000000000000e+00 1
-2.4754498879092612e-01 -1.7724527522030945e-01 0.0000000000000000e+00 1
-2.4647221513860917e-01 -1.8589158656570143e-01 0.0000000000000000e+00 1
-2.3958344316636654e-01 -1.7976880036645887e-01 0.0000000000000000e+00 1
-2.4142229545185603e-01 -1.6989785653149939e-01 0.0000000000000000e+00 1
-2.7250329856699818e-01 -1.9228326218461300e-01 0.0000000000000000e+00 1
-2.7564815213345456e-01 -2.4209724977001174e-01 0.0000000000000000e+00 1
-2.5748398822736868e-01 -2.6433515700663379e-01 0.0000000000000000e+00 1
-2.8101536842068270e-01 -2.5537807743766239e-01 0.0000000000000000e+00 1
-2.8215164958959255e-01 -2.4710663218371559e-01 0.0000000000000000e+00 1
-9.7204207058581737e-02 -1.3473505566720517e-01 0.0000000000000000e+00 1
-1.1016862851100495e-01 -1.2961014085498163e-01 0.0000000000000000e+00 1
-2.3822277837449782e-01 -1.4990745939447286e-01 0.0000000000000000e+00 1
-2.2789536927548540e-01 -1.5300432393527247e-01 0.0000000000000000e+00 1
-2.1728424698619953e-01 -1.4665187714251529e-01 0.0000000000000000e+00 1
2.9709332635173780e-01 2.7812435913291139e-01 0.0000000000000000e+00 1
2.8776573076052991e-01 2.9377696120122582e-01 0.0000000000000000e+00 1
-2.1382570279053220e-01 -2.3205296857197272e-01 0.0000000000000000e+00 1
-2.2400871738267383e-01 -2.2891748793802083e-01 0.0000000000000000e+00 1
-2.1511295635396710e-01 -2.2151631871281288e-01 0.0000000000000000e+00 1
2.3599326032575807e-01 2.6140941418835273e-01 0.0000000000000000e+00 1
2.4583373741655967e-01 2.5748492359060604e-01 0.0000000000000000e+00 1
2.4213952424552723e-01 2.6760721484886335e-01 0.0000000000000000e+00 1
2.5314811296479950e-01 2.6536185944327795e-01 0.0000000000000000e+00 1
2.6251384594440158e-01 2.6048942400530178e-01 0.0000000000000000e+00 1
2.6320258270270880e-01 2.6932945599880537e-01 0.0000000000000000e+00 1
2.5607622425428911e-01 2.7635319904615169e-01 0.0000000000000000e+00 1
2.5666877146302425e-01 2.0448234670904486e-01 0.0000000000000000e+00 1
2.6472521053228359e-01 2.1177641998741192e-01 0.0000000000000000e+00 1
2.6676289886866450e-01 2.0142369924426964e-01 0.0000000000000000e+00 1
2.7405109892970592e-01 2.0876163866732139e-01 0.0000000000000000e+00 1
2.7236126550861767e-01 2.1887342673399562e-01 0.0000000000000000e+00 1
2.8311786846909059e-01 2.1571432004053501e-01 0.0000000000000000e+00 1
2.7968917167908397e-01 2.2700822281513111e-01 0.0000000000000000e+00 1
-1.9151455564827960e-01 -1.0699579763338982e-01 0.0000000000000000e+00 1
-1.7786613434444271e-01 -1.0985987702632280e-01 0.0000000000000000e+00 1
2.1018382856497009e-01 2.4063621875589633e-01 0.0000000000000000e+00 1
2.0024715306349297e-01 2.3329436619044741e-01 0.0000000000000000e+00 1
2.0279010094175054e-01 2.2122595159819716e-01 0.0000000000000000e+00 1
1.9190821588257001e-01 2.2526128316720717e-01 0.0000000000000000e+00 1
1.9363283956030047e-01 2.1273092959075193e-01 0.0000000000000000e+00 1
1.8947013944514191e-01 2.3736897653472588e-01 0.0000000000000000e+00 1
1.8301002909055084e-01 2.1800636751019156e-01 0.0000000000000000e+00 1
1.8417786088090338e-01 2.0482406413995041e-01 0.0000000000000000e+00 1
1.7233826090714771e-01 2.0913195188521755e-01 0.0000000000000000e+00 1
1.7390577437955712e-01 1.9656951088327884e-01 0.0000000000000000e+00 1
1.6237038971882720e-01 2.0097123404729944e-01 0.0000000000000000e+00 1
1.6503212235302239e-01 1.8687786915679508e-01 0.0000000000000000e+00 1
1.9483290295272387e-01 2.0124097363431170e-01 0.0000000000000000e+00 1
1.8397827215214280e-01 1.3487080576084914e-01 0.0000000000000000e+00 1
1.8687500309414501e-01 1.2143843800250989e-01 0.0000000000000000e+00 1
1.7682193151061568e-01 1.1211863991759780e-01 0.0000000000000000e+00 1
1.8958510849533752e-01 1.0824776151420970e-01 0.0000000000000000e+00 1
1.7944300484883494e-01 9.8905691753174152e-02 0.0000000000000000e+00 1
1.9887366730925563e-01 1.1877509468811000e-01 0.0000000000000000e+00 1
1.9679442976489891e-01 1.3120544942131565e-01 0.0000000000000000e+00 1
2.0657421763660369e-01 1.4036654817688610e-01 0.0000000000000000e+00 1
2.0921817789273556e-01 1.2795630107263042e-01 0.0000000000000000e+00 1
2.1871255048353697e-01 1.3682707234054683e-01 0.0000000000000000e+00 1
2.1597080671103633e-01 1.4925847465572090e-01 0.0000000000000000e+00 1
2.2784067063088992e-01 1.4557919426965174e-01 0.0000000000000000e+00 1
2.2523831208734088e-01 1.5745533474821052e-01 0.0000000000000000e+00 1
2.3682289354638469e-01 1.5385461969193656e-01 0.0000000000000000e+00 1
2.3422765848218693e-01 1.6599203935791401e-01 0.0000000000000000e+00 1
2.4495693959150205e-01 1.6105807736735778e-01 0.0000000000000000e+00 1
2.4300456162998682e-01 1.7375674906432262e-01 0.0000000000000000e+00 1
2.4213898262904709e-01 1.8650889609044918e-01 0.0000000000000000e+00 1
2.5232124169788356e-01 1.7934285358114224e-01 0.0000000000000000e+00 1
2.2246172053621521e-01 1.7038608876495889e-01 0.0000000000000000e+00 1
2.0365343163511132e-01 1.5327513328225800e-01 0.0000000000000000e+00 1
1.4220070216036296e-01 9.5791053442767962e-02 0.0000000000000000e+00 1
1.5613822771166735e-01 9.1937007898146086e-02 0.0000000000000000e+00 1
1.4573858882862045e-01 8.1628910398087728e-02 0.0000000000000000e+00 1
1.3503793321618529e-01 7.1582484677479463e-02 0.0000000000000000e+00 1
1.4861412134001525e-01 6.8021234400362229e-02 0.0000000000000000e+00 1
1.3832925285522923e-01 5.8221014751042965e-02 0.0000000000000000e+00 1
1.2495874601437999e-01 6.1470546910981305e-02 0.0000000000000000e+00 1
1.5220502013920331e-01 5.4075015751441025e-02 0.0000000000000000e+00 1
1.2778342831624934e-01 4.8785368695292798e-02 0.0000000000000000e+00 1
1.1381884700465075e-01 5.2420744448822179e-02 0.0000000000000000e+00 1
1.1815733637043721e-01 3.7252406332251374e-02 0.0000000000000000e+00 1
1.5872381892146376e-01 7.8380813363893478e-02 0.0000000000000000e+00 1
1.6916555618766732e-01 8.8999337565510886e-02 0.0000000000000000e+00 1
2.6238939251044802e-01 2.2231492904871314e-01 0.0000000000000000e+00 1
5.1351818574902564e-02 1.2569493714495991e-02 0.0000000000000000e+00 1
6.5954700737277036e-02 8.0251130941132159e-03 0.0000000000000000e+00 1
7.7459704417785213e-02 1.8002155044145235e-02 0.0000000000000000e+00 1
8.1238438343412767e-02 3.8326712158831839e-03 0.0000000000000000e+00 1
9.2454914828680471e-02 1.3613979889376434e-02 0.0000000000000000e+00 1
8.8934201129035939e-02 2.7948182319221200e-02 0.0000000000000000e+00 1
1.0297031347031020e-01 2.3090228613936409e-02 0.0000000000000000e+00 1
1.1747134965505616e-01 2.0813504540130208e-02 0.0000000000000000e+00 1
9.8232635121617909e-02 3.7851405374353705e-02 0.0000000000000000e+00 1
5.4502924927293896e-02 -2.3343232390015370e-03 0.0000000000000000e+00 1
4.3272619651402777e-02 -1.2913219041567642e-02 0.0000000000000000e+00 1
5.8653771961377194e-02 -1.6330264266953227e-02 0.0000000000000000e+00 1
4.6573930424240934e-02 -2.8591491970347691e-02 0.0000000000000000e+00 1
3.2434613333059463e-02 -2.3409716948326019e-02 0.0000000000000000e+00 1
-2.0169540179753331e-01 -1.1629355569178486e-01 0.0000000000000000e+00 1
-1.9681998756656766e-01 -1.2999902628060378e-01 0.0000000000000000e+00 1
-2.4678789393383607e-01 -1.5918402275335020e-01 0.0000000000000000e+00 1
-1.5986178835176706e-01 -7.7311833341584021e-02 0.0000000000000000e+00 1
-1.8483237664539981e-01 -2.1063760977221119e-01 0.0000000000000000e+00 1
-1.8537841583035986e-01 -1.9904793185192399e-01 0.0000000000000000e+00 1
-1.7562559166099617e-01 -1.9139433053516230e-01 0.0000000000000000e+00 1
-1.9570749963953507e-01 -2.0652486143250887e-01 0.0000000000000000e+00 1
-2.0583813474366974e-01 -2.1391775604986923e-01 0.0000000000000000e+00 1
-1.7057552891376712e-01 -8.7527749044481573e-02 0.0000000000000000e+00 1
2.1339551985949826e-01 2.5843275354032041e-01 0.0000000000000000e+00 1
8.5646766105085370e-02 4.3404980892512386e-02 0.0000000000000000e+00 1
1.6223249174888330e-01 2.1820651640685251e-01 0.0000000000000000e+00 1
-1.2614324045980396e-01 -4.5339703064386040e-02 0.0000000000000000e+00 1
-1.1219205695962232e-01 -4.9347894164243039e-02 0.0000000000000000e+00 1
-1.0040925216848540e-01 -3.8955476037495898e-02 0.0000000000000000e+00 1
-1.3735613814067357e-01 -5.6359760114396001e-02 0.0000000000000000e+00 1
2.4777520487241533e-01 2.4681259817377735e-01 0.0000000000000000e+00 1
-2.6851705943638532e-01 -1.7863955889797389e-01 0.0000000000000000e+00 1
1.1770891375780110e-01 1.8015983457946097e-01 0.0000000000000000e+00 1
1.2060829876955299e-01 1.6523227101738849e-01 0.0000000000000000e+00 1
1.0929145247328995e-01 1.5505175163921303e-01 0.0000000000000000e+00 1
1.3191910942529875e-01 1.7508129499380415e-01 0.0000000000000000e+00 1
1.3485809089514250e-01 1.6046051548497628e-01 0.0000000000000000e+00 1
1.4595035985750557e-01 1.7022036793353057e-01 0.0000000000000000e+00 1
1.4297343696316539e-01 1.8362063555968580e-01 0.0000000000000000e+00 1
1.2372862626289906e-01 1.5057248903629983e-01 0.0000000000000000e+00 1
1.1266301261565670e-01 1.4024269540967529e-01 0.0000000000000000e+00 1
9.7592052238954688e-02 1.4443322286007360e-01 0.0000000000000000e+00 1
8.2280719711817718e-02 1.4885036924684875e-01 0.0000000000000000e+00 1
8.5478026385453043e-02 1.3287190269643712e-01 0.0000000000000000e+00 1
7.3581238389179487e-02 1.2218613143251458e-01 0.0000000000000000e+00 1
8.7598473024943058e-02 1.1649839896518108e-01 0.0000000000000000e+00 1
7.5593353463437679e-02 1.0589641106749867e-01 0.0000000000000000e+00 1
6.0921737228768376e-02 1.1100446678654358e-01 0.0000000000000000e+00 1
4.5497726675799183e-02 1.1553392722429318e-01 0.0000000000000000e+00 1
4.8579086550549357e-02 9.9776663138099367e-02 0.0000000000000000e+00 1
3.6215970070477964e-02 8.7822293590535949e-02 0.0000000000000000e+00 1
1.2913028248776298e-01 1.8976144721283933e-01 0.0000000000000000e+00 1
2.0725329760770690e-02 9.2562304397952003e-02 0.0000000000000000e+00 1
2.4138258720482246e-02 7.6135435053138190e-02 0.0000000000000000e+00 1
1.2391964435462591e-02 6.5068636158043883e-02 0.0000000000000000e+00 1
2.7783778273512014e-02 6.1239311759136494e-02 0.0000000000000000e+00 1
-3.8999998641379222e-03 6.9313193245888680e-02 0.0000000000000000e+00 1
2.8516526329727513e-04 5.4182131668484582e-02 0.0000000000000000e+00 1
-1.1829202234327757e-02 4.2914692892825942e-02 0.0000000000000000e+00 1
1.6391878366964336e-02 -1.9003552436637521e-02 0.0000000000000000e+00 1
1.9135157798626755e-02 -3.4368316768252222e-02 0.0000000000000000e+00 1
7.2113250656572082e-03 -4.4130747420760674e-02 0.0000000000000000e+00 1
2.2181174050868977e-02 -4.8317479772150236e-02 0.0000000000000000e+00 1
-7.1012773453153367e-03 -3.9861984771752568e-02 0.0000000000000000e+00 1
-3.7572245633473384e-03 -5.6978008317525905e-02 0.0000000000000000e+00 1
-1.8881809761591047e-02 -5.0684177383399504e-02 0.0000000000000000e+00 1
-1.6717171463548425e-02 -6.6056810919695758e-02 0.0000000000000000e+00 1
-2.8387790590882703e-02 -7.5127143512068187e-02 0.0000000000000000e+00 1
-1.4185265647897533e-02 -8.1028231030341596e-02 0.0000000000000000e+00 1
-4.2376417846978140e-02 -7.0890981237656900e-02 0.0000000000000000e+00 1
-4.0159293205330876e-02 -8.4796002068629972e-02 0.0000000000000000e+00 1
-5.4020065142053778e-02 -8.0846532612786987e-02 0.0000000000000000e+00 1
-5.1179479917185661e-02 -9.6085755491516017e-02 0.0000000000000000e+00 1
-6.2649745486783343e-02 -1.0561701168233496e-01 0.0000000000000000e+00 1
-1.1225325515638042e-01 -1.1582499834656053e-01 0.0000000000000000e+00 1
-2.8717896617358945e-02 4.5956177988842620e-02 0.0000000000000000e+00 1
-2.4716904037718930e-02 3.0584169048784186e-02 0.0000000000000000e+00 1
1.2052763223046087e-01 7.5660021845309483e-02 0.0000000000000000e+00 1
2.8116402739263809e-02 -8.4303765711039244e-03 0.0000000000000000e+00 1
1.6636818299054859e-01 1.0234383005900374e-01 0.0000000000000000e+00 1
1.8303056035529899e-01 8.6562666914097877e-02 0.0000000000000000e+00 1
-6.6045729312018020e-02 1.0939022485727978e-02 0.0000000000000000e+00 1
-5.0609789752830647e-02 6.8297041401804088e-03 0.0000000000000000e+00 1
-6.3011087590330764e-02 -5.7056206607072231e-03 0.0000000000000000e+00 1
-3.8343732036729666e-02 1.8690312928740797e-02 0.0000000000000000e+00 1
-4.6506769695685873e-02 -9.2701287744818145e-03 0.0000000000000000e+00 1
-6.9096870017399614e-02 -2.1924110409681764e-02 0.0000000000000000e+00 1
-7.9189131216353667e-02 5.8579461961745627e-05 0.0000000000000000e+00 1
-4.1489840551600973e-02 3.4557415668741938e-02 0.0000000000000000e+00 1
-2.1888062204292763e-02 1.3423284965469857e-02 0.0000000000000000e+00 1
1.5114202465094564e-01 2.0846108513470110e-01 0.0000000000000000e+00 1
-1.2344374267591299e-01 -1.2509268332986134e-01 0.0000000000000000e+00 1
-1.2144172356518612e-01 -1.3867233850179778e-01 0.0000000000000000e+00 1
-1.3294584803178705e-01 -1.4722652133946301e-01 0.0000000000000000e+00 1
-1.2131091852742434e-01 -1.5219627009803155e-01 0.0000000000000000e+00 1
-1.4325066193851357e-01 -1.8095545779147360e-01 0.0000000000000000e+00 1
-1.4398127335719407e-01 -1.6825265156722502e-01 0.0000000000000000e+00 1
-2.0858995665020269e-01 -1.3761619276321704e-01 0.0000000000000000e+00 1
1.0955281657652019e-01 6.5622593276619345e-02 0.0000000000000000e+00 1
-1.9663309822451980e-01 -1.4187314392557945e-01 0.0000000000000000e+00 1
9.4262850400532686e-02 1.5967103965224219e-01 0.0000000000000000e+00 1
-1.0276738329772223e-01 -2.3477339615477117e-02 0.0000000000000000e+00 1
-8.6406297311473909e-02 -2.6622706408096924e-02 0.0000000000000000e+00 1
1.6583452608816901e-01 1.6560783444114865e-01 0.0000000000000000e+00 1
2.3963925530661379e-01 2.7730426525597962e-01 0.0000000000000000e+00 1
-2.0451464544155473e-01 -2.2523924833249856e-01 0.0000000000000000e+00 1
2.8794179195426900e-01 2.5869962051344436e-01 0.0000000000000000e+00 1
-1.6433916020230410e-01 -1.9618304973187431e-01 0.0000000000000000e+00 1
-1.6543987182053221e-01 -1.8382896108216504e-01 0.0000000000000000e+00 1
-1.5500170654058751e-01 -1.7620893535881685e-01 0.0000000000000000e+00 1
2.2255688772807064e-01 2.6492256985128615e-01 0.0000000000000000e+00 1
-2.3583162238970162e-01 -1.6152991681631165e-01 0.0000000000000000e+00 1
9.7135655177712762e-02 -3.3496837065359955e-04 0.0000000000000000e+00 1
1.7380913602253625e-01 1.7544080375409768e-01 0.0000000000000000e+00 1
-4.1112573776163598e-02 -1.0731166111278768e-01 0.0000000000000000e+00 1
-7.6735278746556279e-02 -1.0057356141317325e-01 0.0000000000000000e+00 1
3.0886582218863834e-01 2.6610011172248715e-01 0.0000000000000000e+00 1
5.7868643732563049e-02 1.2693855094486456e-01 0.0000000000000000e+00 1
1.4367426742941469e-01 1.4817627455869964e-01 0.0000000000000000e+00 1
1.2347469793651751e-01 1.2734425998864182e-01 0.0000000000000000e+00 1
2.5954504851121746e-01 1.9419149558738846e-01 0.0000000000000000e+00 1
1.9558596636818082e-02 -6.3396461277381924e-02 0.0000000000000000e+00 1
-2.1622095468311323e-01 -2.1050417899806345e-01 0.0000000000000000e+00 1
-2.0807187130474708e-01 -2.0231443488785272e-01 0.0000000000000000e+00 1
7.4391359718575453e-02 3.3138654286690404e-02 0.0000000000000000e+00 1
1.3020814781256215e-01 2.7045512942353293e-02 0.0000000000000000e+00 1
-1.6403364715582056e-01 -1.1292190297055774e-01 0.0000000000000000e+00 1
6.5738806776765801e-02 7.9418540734355475e-02 0.0000000000000000e+00 1
-2.1755412949508718e-01 -1.6537832736612135e-01 0.0000000000000000e+00 1
7.3440542682016901e-03 2.5895102930456774e-02 0.0000000000000000e+00 1
-1.5566384426343494e-01 -1.5131428990901322e-01 0.0000000000000000e+00 1
-1.4521263022725173e-01 -1.4251333806325051e-01 0.0000000000000000e+00 1
2.1864792693898344e-01 2.4750528982992734e-01 0.0000000000000000e+00 1
-5.2707639936791291e-02 -1.1591760943581036e-01 0.0000000000000000e+00 1
2.1006289683437065e-01 1.0173652527555795e-01 0.0000000000000000e+00 1
2.2465913763112191e-01 1.1730993516323898e-01 0.0000000000000000e+00 1
1.6348202269223100e-01 1.1594603510233695e-01 0.0000000000000000e+00 1
-6.3268263603733027e-02 -3.6091956947054839e-02 0.0000000000000000e+00 1
3.0418929294035268e-01 2.7714281412578962e-01 0.0000000000000000e+00 1
-1.0777463450542960e-01 -7.7409289224538186e-02 0.0000000000000000e+00 1
2.4057713332405062e-01 1.3621303809655150e-01 0.0000000000000000e+00 1
-8.5549544394082855e-02 -5.7070638452318204e-02 0.0000000000000000e+00 1
-2.5440427943106242e-01 -2.0345328290663298e-01 0.0000000000000000e+00 1
-1.4334055733191259e-01 -9.3322000204925787e-02 0.0000000000000000e+00 1
2.5497391506950712e-01 2.8593560186212713e-01 0.0000000000000000e+00 1
2.6297089624172676e-01 2.8293464734207002e-01 0.0000000000000000e+00 1
-1.7582716697044459e-01 -1.6846289092507316e-01 0.0000000000000000e+00 1
2.5574812103704830e-01 1.5653961179317136e-01 0.0000000000000000e+00 1
2.7681681743535946e-01 2.3689040031116973e-01 0.0000000000000000e+00 1
2.9014234859722399e-01 2.2593601842802916e-01 0.0000000000000000e+00 1
2.6884734254024145e-01 1.7326927428684227e-01 0.0000000000000000e+00 1
2.6243271716993760e-01 1.8334334896675708e-01 0.0000000000000000e+00 1
-2.8291069653153023e-01 -2.1310566215395563e-01 0.0000000000000000e+00 1
-2.2059453831516274e-01 -1.3400315925085349e-01 0.0000000000000000e+00 1
-2.8149133782403041e-01 -2.0670515556496896e-01 0.0000000000000000e+00 1
-2.3513509676065852e-01 -2.1702668205547263e-01 0.0000000000000000e+00 1
-1.9490119521068705e-01 -1.8412900821562261e-01 0.0000000000000000e+00 1
8.4921107797358786e-02 -1.0163048867003746e-02 0.0000000000000000e+00 1
-2.8450432851095558e-01 -2.3235797887665641e-01 0.0000000000000000e+00 1
2.7993653026066173e-01 1.9050654031189954e-01 0.0000000000000000e+00 1
2.6969828420194480e-01 1.9153008804118471e-01 0.0000000000000000e+00 1
-2.7939177707306373e-01 -1.9404055229936759e-01 0.0000000000000000e+00 1
2.3340226820760959e-01 2.2211132514565049e-01 0.0000000000000000e+00 1
2.8956221288264045e-01 2.0784003052094477e-01 0.0000000000000000e+00 1
9.9876431956743311e-02 1.2905118629601481e-01 0.0000000000000000e+00 1
-2.7519888232785844e-01 -2.0369821310465169e-01 0.0000000000000000e+00 1
-2.8681968489914617e-01 -2.7623106564535727e-01 0.0000000000000000e+00 1
-2.8380274428210800e-01 -2.8044642309027745e-01 0.0000000000000000e+00 1
2.6880009968762297e-01 2.9454269662486010e-01 0.0000000000000000e+00 1
2.7084092112666147e-01 2.7335422362623091e-01 0.0000000000000000e+00 1
-2.6568674486464111e-01 -1.6922311608239787e-01 0.0000000000000000e+00 1
-2.6363577599865817e-01 -1.7440774430624870e-01 0.0000000000000000e+00 1
-7.4747095686976017e-02 -1.1523939111878811e-01 0.0000000000000000e+00 1
-2.5431042075781662e-01 -2.4288637200340404e-01 0.0000000000000000e+00 1
-2.8724256343507970e-01 -2.5268323201201048e-01 0.0000000000000000e+00 1
-1.2092694247043220e-01 -1.6571463801878142e-01 0.0000000000000000e+00 1
-2.5913874296153827e-01 -2.5587431665437294e-01 0.0000000000000000e+00 1
1.8267105711815881e-01 7.2847514502697053e-02 0.0000000000000000e+00 1
2.2475861526891600e-01 2.1453884597263967e-01 0.0000000000000000e+00 1
-2.4230975935172244e-01 -2.2318793281446730e-01 0.0000000000000000e+00 1
-1.8812015790377809e-01 -1.1953954454106208e-01 0.0000000000000000e+00 1
-1.3254900654370466e-01 -1.6015419191949648e-01 0.0000000000000000e+00 1
3.1006775912617374e-01 2.7346915611456196e-01 0.0000000000000000e+00 1
-2.8686335170244603e-01 -2.6577422408139645e-01 0.0000000000000000e+00 1
6.9875512698638093e-02 -6.1428377040380830e-03 0.0000000000000000e+00 1
-2.7636881365832472e-01 -1.8318194410671762e-01 0.0000000000000000e+00 1
1.0057885946371722e-01 1.0999449144979752e-01 0.0000000000000000e+00 1
-2.3194452453932196e-01 -2.3568518214294160e-01 0.0000000000000000e+00 1
-1.7384231575068804e-01 -1.2218956193124481e-01 0.0000000000000000e+00 1
2.8129986935495543e-01 3.0002780666130213e-01 0.0000000000000000e+00 1
6.3270961704716966e-02 9.4946657170902726e-02 0.0000000000000000e+00 1
-7.4884652871367849e-02 -1.3218582812632634e-01 0.0000000000000000e+00 1
8.9276689204757911e-02 1.0024428635420042e-01 0.0000000000000000e+00 1
3.9323654522501680e-02 7.2355515014957988e-02 0.0000000000000000e+00 1
3.0190988221534160e-01 2.6456072263527675e-01 0.0000000000000000e+00 1
5.1157475621212672e-02 8.3727152988103043e-02 0.0000000000000000e+00 1
2.1376527704418394e-01 2.1755311634403598e-01 0.0000000000000000e+00 1
-2.8087173264911619e-01 -2.8752824362168911e-01 0.0000000000000000e+00 1
-2.8313638510748901e-01 -2.8483759844808254e-01 0.0000000000000000e+00 1
2.5318682634147283e-01 1.6835310694584044e-01 0.0000000000000000e+00 1
-1.6791929914035097e-01 -1.0026830862658284e-01 0.0000000000000000e+00 1
1.5736882629856561e-01 1.7592004649490459e-01 0.0000000000000000e+00 1
2.9250635402417630e-01 2.9704696157852012e-01 0.0000000000000000e+00 1
-1.1008561837070042e-01 -6.3474401979224770e-02 0.0000000000000000e+00 1
-2.3116827467338913e-01 -2.4629401947605589e-01 0.0000000000000000e+00 1
6.2673900150853737e-02 -2.9783895206639283e-02 0.0000000000000000e+00 1
4.2425333904692025e-02 5.7398517414744228e-02 0.0000000000000000e+00 1
-1.4659538512503681e-01 -8.0119454083085448e-02 0.0000000000000000e+00 1
3.1049971820028421e-01 2.8562805969907501e-01 0.0000000000000000e+00 1
-1.5748021941967047e-01 -9.0305613387161573e-02 0.0000000000000000e+00 1
-1.0944742855570945e-01 -1.4387318925500239e-01 0.0000000000000000e+00 1
-2.3345880446179407e-01 -2.2609818734412152e-01 0.0000000000000000e+00 1
-2.8748481141369692e-01 -2.8032140000341493e-01 0.0000000000000000e+00 1
-8.6133657876319908e-02 -1.4060760477137949e-01 0.0000000000000000e+00 1
-2.8208258431941163e-01 -2.6905036897976303e-01 0.0000000000000000e+00 1
-1.2386455821863369e-01 -5.9585156795373628e-02 0.0000000000000000e+00 1
2.9987200485192683e-01 3.0005541609761177e-01 0.0000000000000000e+00 1
3.0557520726128728e-01 2.5024169002852936e-01 0.0000000000000000e+00 1
2.0462293636162615e-01 2.0955551774254727e-01 0.0000000000000000e+00 1
-1.0929960546618497e-01 -1.5746673484536161e-01 0.0000000000000000e+00 1
-2.3967613087138900e-01 -2.5256490354023381e-01 0.0000000000000000e+00 1
-1.3552140574502439e-01 -6.9777705365160467e-02 0.0000000000000000e+00 1
-2.5413189336122483e-01 -2.5023267447214159e-01 0.0000000000000000e+00 1
2.9142857130979699e-01 3.0189384937681496e-01 0.0000000000000000e+00 1
2.9789027089680714e-01 2.2511746721468601e-01 0.0000000000000000e+00 1
2.6893422170798437e-01 2.8761746388024612e-01 0.0000000000000000e+00 1
3.0805330800153408e-02 4.7137561290477970e-02 0.0000000000000000e+00 1
2.7631787128207497e-01 1.9962342220108878e-01 0.0000000000000000e+00 1
1.5320631315937741e-01 1.9250633752206864e-01 0.0000000000000000e+00 1
3.0390604737742555e-01 2.4149564633966492e-01 0.0000000000000000e+00 1
5.3961338417298679e-02 -3.9556476210714356e-02 0.0000000000000000e+00 1
-2.7147240811775908e-01 -1.8283547191950575e-01 0.0000000000000000e+00 1
-1.8359493898004533e-02 -9.3233388678483617e-02 0.0000000000000000e+00 1
-1.4421900340536287e-01 -1.5572427679728928e-01 0.0000000000000000e+00 1
1.5847247744128223e-02 5.0872773430151036e-02 0.0000000000000000e+00 1
3.2144436138103236e-02 -3.6110819614550989e-02 0.0000000000000000e+00 1
-2.5282472281250928e-01 -1.8961620462942641e-01 0.0000000000000000e+00 1
2.0591248936962528e-01 1.9811481736169129e-01 0.0000000000000000e+00 1
1.9637921696558819e-01 1.9018411823314962e-01 0.0000000000000000e+00 1
-2.0403750249100075e-01 -1.4851528758068461e-01 0.0000000000000000e+00 1
-9.8591507657172561e-02 -5.3598267153433576e-02 0.0000000000000000e+00 1
1.9507553584418105e-01 2.4581686474034514e-01 0.0000000000000000e+00 1
-1.5496141800880475e-01 -1.6488466798528750e-01 0.0000000000000000e+00 1
3.0450960285699225e-01 2.8782950977035437e-01 0.0000000000000000e+00 1
3.0435287075232287e-01 2.9254306424386267e-01 0.0000000000000000e+00 1
-2.8568083823099627e-01 -2.8640798262113298e-01 0.0000000000000000e+00 1
-2.8821866761198228e-01 -2.4685415549605727e-01 0.0000000000000000e+00 1
1.6460720848268381e-01 5.5164957597229086e-02 0.0000000000000000e+00 1
3.0794678095326877e-01 2.9435869551143751e-01 0.0000000000000000e+00 1
-8.6889562936982717e-02 -4.2723654952518036e-02 0.0000000000000000e+00 1
3.9938759311884398e-03 4.0133059676758814e-02 0.0000000000000000e+00 1
-7.6038598814262837e-02 -3.4782492903072726e-02 0.0000000000000000e+00 1
-2.2665554520285208e-01 -1.6411020772842158e-01 0.0000000000000000e+00 1
3.1159357764558526e-02 -5.7456737720928491e-02 0.0000000000000000e+00 1
1.8521206270272464e-01 1.9352400213649273e-01 0.0000000000000000e+00 1
1.5038185338641608e-01 4.1979645907013322e-02 0.0000000000000000e+00 1
-2.7550777020105732e-01 -1.9786195171636575e-01 0.0000000000000000e+00 1
-2.7868583141642328e-01 -2.1739301863977367e-01 0.0000000000000000e+00 1
-2.8577491182080228e-01 -2.2578316814642146e-01 0.0000000000000000e+00 1
-2.7252194428484883e-01 -1.7513166828865839e-01 0.0000000000000000e+00 1
-8.6227753326930043e-03 2.7862269680878737e-02 0.0000000000000000e+00 1
-2.5078307240254766e-01 -1.6957533651429108e-01 0.0000000000000000e+00 1
1.6062340686986015e-01 6.5893655487480371e-02 0.0000000000000000e+00 1
-1.6548420036282052e-01 -1.7337048356880147e-01 0.0000000000000000e+00 1
1.9015311100754329e-01 9.8320196397906179e-02 0.0000000000000000e+00 1
-2.3911384347202777e-01 -1.9005660138726593e-01 0.0000000000000000e+00 1
1.7064230543951145e-01 7.6458631684199835e-02 0.0000000000000000e+00 1
-1.7526871147247658e-01 -1.8120699079627939e-01 0.0000000000000000e+00 1
2.1112133445840378e-01 1.1596592067983696e-01 0.0000000000000000e+00 1
-1.8509794623250131e-01 -1.8857668616106954e-01 0.0000000000000000e+00 1
-2.1923222859603048e-01 -2.0237959634791269e-01 0.0000000000000000e+00 1
1.9973203841177717e-01 1.0569736021879750e-01 0.0000000000000000e+00 1
-2.2521552894094127e-01 -2.1903260180823461e-01 0.0000000000000000e+00 1
2.4751565592772601e-01 2.7427557327322821e-01 0.0000000000000000e+00 1
1.9258858509945789e-01 8.0160657861359910e-02 0.0000000000000000e+00 1
2.9304150039638299e-01 2.3296980528227193e-01 0.0000000000000000e+00 1
3.0612920281437184e-01 2.8276643902848891e-01 0.0000000000000000e+00 1
9.1639806125177210e-03 -5.6580678504356566e-02 0.0000000000000000e+00 1
-6.2667485341722706e-03 -7.1363323813898580e-02 0.0000000000000000e+00 1
-1.3965265880423636e-02 2.7139463669564189e-03 0.0000000000000000e+00 1
1.7622889333917524e-01 1.8607714436925243e-01 0.0000000000000000e+00 1
2.1947941014103289e-01 1.2672790336288958e-01 0.0000000000000000e+00 1
-3.7386395362819312e-02 4.9113156945854728e-03 0.0000000000000000e+00 1
-2.3166425647496597e-01 -1.8293172741207370e-01 0.0000000000000000e+00 1
1.8363711373906272e-01 2.2951699985303742e-01 0.0000000000000000e+00 1
-2.1918800957065931e-01 -1.5666499716097548e-01 0.0000000000000000e+00 1
2.7389288838343173e-01 2.9120542464371652e-01 0.0000000000000000e+00 1
2.5993634791725873e-01 1.7385990133099788e-01 0.0000000000000000e+00 1
-3.7511754314986795e-02 -1.8208483750417628e-02 0.0000000000000000e+00 1
-1.9539512828376784e-01 -1.9567641669726826e-01 0.0000000000000000e+00 1
-2.7664361129987669e-01 -2.7039830469102905e-01 0.0000000000000000e+00 1
-7.8199155701258169e-02 -1.2886956514707205e-02 0.0000000000000000e+00 1
2.5256815091478690e-01 1.8864239512614234e-01 0.0000000000000000e+00 1
1.4017644452456685e-01 4.6485441927298699e-02 0.0000000000000000e+00 1
-2.5938475961223328e-01 -1.6884137922514922e-01 0.0000000000000000e+00 1
3.0321004191869050e-01 2.9991676695275638e-01 0.0000000000000000e+00 1
-2.7298384422962724e-01 -1.8660374293957163e-01 0.0000000000000000e+00 1
2.2856414403938796e-01 1.3605324624847173e-01 0.0000000000000000e+00 1
-2.3330962657912790e-01 -1.7211491682104363e-01 0.0000000000000000e+00 1
2.8302997084513881e-01 2.9578396234588367e-01 0.0000000000000000e+00 1
-2.3939118865720557e-03 -8.1895151616662595e-02 0.0000000000000000e+00 1
2.8201602390532987e-01 2.0643258353543220e-01 0.0000000000000000e+00 1
-2.8094048026892393e-01 -2.3855249703141254e-01 0.0000000000000000e+00 1
-2.8182334458923687e-02 -8.7333730978335494e-02 0.0000000000000000e+00 1
2.3702138948351276e-01 1.4492644624127157e-01 0.0000000000000000e+00 1
-3.9466791513306024e-02 -9.6165451554661108e-02 0.0000000000000000e+00 1
-1.8828640088926274e-01 -1.3882997605573316e-01 0.0000000000000000e+00 1
3.0511789356048907e-01 2.7060624848986853e-01 0.0000000000000000e+00 1
1.0865906807343033e-01 3.2554716147439267e-02 0.0000000000000000e+00 1
1.3118365224261039e-01 3.8503385214325024e-02 0.0000000000000000e+00 1
-5.7644089682343545e-02 -1.5596207263867899e-02 0.0000000000000000e+00 1
2.6568896877605541e-01 2.7651568356826622e-01 0.0000000000000000e+00 1
-2.1329740529716262e-01 -1.9542336159725307e-01 0.0000000000000000e+00 1
1.7998270560172067e-01 2.3671867448356496e-01 0.0000000000000000e+00 1
1.4488955014899174e-01 1.5950033280765857e-01 0.0000000000000000e+00 1
1.0580312208988513e-01 4.5537725343468380e-02 0.0000000000000000e+00 1

Edges
157
1 2 1
2 3 1
3 4 1
4 5 1
5 6 1
6 7 1
7 8 1
8 9 1
9 10 1
10 11 1
11 12 1
12 13 1
13 14 1
14 15 1
15 16 1
16 17 1
17 18 1
18 19 1
19 20 1
20 21 1
21 22 1
22 23 1
23 24 1
24 25 1
25 26 1
26 27 1
27 28 1
28 29 1
29 30 1
30 31 1
31 32 1
32 33 1
33 34 1
34 35 1
35 36 1
36 37 1
37 38 1
38 39 1
39 40 1
40 41 1
41 42 1
42 43 1
43 44 1
44 45 1
45 46 1
46 47 1
47 48 1
48 49 1
49 50 1
50 51 1
51 52 1
52 53 1
53 54 1
54 55 1
55 56 1
56 57 1
57 58 1
58 59 1
59 60 1
60 61 1
61 62 1
62 63 1
63 64 1
64 65 1
65 66 1
66 67 1
67 68 1
68 69 1
69 70 1
70 71 1
71 72 1
72 73 1
73 74 1
74 75 1
75 76 1
76 77 1
77 78 1
78 79 1
79 80 1
80 81 1
81 82 1
82 83 1
83 84 1
84 85 1
85 86 1
86 87 1
87 88 1
88 89 1
89 90 1
90 91 1
91 92 1
92 93 1
93 94 1
94 95 1
95 96 1
96 97 1
97 98 1
98 99 1
99 100 1
100 101 1
101 102 1
102 103 1
103 104 1
104 105 1
105 106 1
106 107 1
107 108 1
108 109 1
109 110 1
110 111 1
111 112 1
112 113 1
113 114 1
114 115 1
115 116 1
116 117 1
117 118 1
118 119 1
119 120 1
120 121 1
121 122 1
122 123 1
123 124 1
124 125 1
125 126 1
126 127 1
127 128 1
128 129 1
129 130 1
130 131 1
131 132 1
132 133 1
133 134 1
134 135 1
135 136 1
136 137 1
137 138 1
138 139 1
139 140 1
140 141 1
141 142 1
142 143 1
143 144 1
144 145 1
145 146 1
146 147 1
147 148 1
148 149 1
149 150 1
150 151 1
151 152 1
152 153 1
153 154 1
154 155 1
155 156 1
156 157 1
157 1 1

Triangles
1529
696 212 727 1
565 568 647 1
13 195 687 1
27 219 726 1
486 168 488 1
178 674 754 1
251 253 768 1
568 371 647 1
481 480 770 1
605 618 789 1
552 167 661 1
618 373 789 1
449 211 690 1
448 544 790 1
506 207 508 1
488 168 554 1
569 358 648 1
206 470 673 1
419 210 695 1
219 220 419 1
560 217 788 1
371 568 569 1
197 434 773 1
673 470 674 1
358 569 693 1
642 491 730 1
508 207 676 1
552 408 639 1
371 569 648 1
167 480 661 1
480 167 770 1
408 552 661 1
331 329 510 1
464 170 639 1
358 693 715 1
490 488 554 1
347 632 730 1
693 574 715 1
643 601 662 1
369 477 677 1
408 464 639 1
422 166 758 1
476 209 678 1
601 602 662 1
253 628 768 1
449 690 785 1
674 430 754 1
566 347 730 1
490 554 619 1
632 642 730 1
170 466 633 1
27 28 219 1
170 464 466 1
25 26 214 1
184 701 720 1
701 415 720 1
544 448 640 1
12 13 687 1
477 476 678 1
344 346 468 1
463 651 801 1
676 160 728 1
619 172 757 1
434 197 824 1
400 420 437 1
374 331 510 1
179 593 807 1
681 409 683 1
477 423 677 1
593 179 806 1
199 421 452 1
424 422 758 1
508 676 728 1
158 560 788 1
651 370 801 1
544 174 790 1
23 214 774 1
65 66 535 1
663 205 797 1
219 28 220 1
434 431 773 1
490 619 757 1
465 355 467 1
421 199 712 1
467 469 470 1
177 540 764 1
652 549 818 1
663 797 800 1
602 184 662 1
184 602 701 1
359 507 509 1
451 198 705 1
163 609 803 1
385 652 818 1
369 475 477 1
609 163 793 1
346 365 468 1
213 433 828 1
432 667 805 1
31 198 451 1
433 426 460 1
687 195 831 1
726 219 727 1
157 1 699 1
210 419 743 1
434 216 731 1
432 459 667 1
420 400 438 1
507 359 512 1
329 359 510 1
467 355 468 1
543 386 709 1
467 468 469 1
195 453 831 1
540 177 759 1
683 409 694 1
178 673 674 1
219 696 727 1
425 426 433 1
591 177 764 1
674 470 840 1
686 531 713 1
470 469 840 1
720 415 742 1
435 406 635 1
458 398 768 1
415 454 742 1
437 420 786 1
425 379 426 1
467 470 802 1
386 543 835 1
173 686 713 1
171 437 786 1
217 560 700 1
246 439 671 1
398 458 814 1
177 591 782 1
536 348 553 1
532 169 534 1
355 465 559 1
453 450 831 1
524 535 654 1
515 526 608 1
550 463 634 1
348 523 627 1
541 588 589 1
797 664 810 1
169 65 535 1
190 435 746 1
355 344 468 1
348 301 553 1
526 497 608 1
739 623 748 1
368 379 425 1
433 213 815 1
718 213 828 1
432 427 459 1
499 498 501 1
28 29 220 1
205 664 797 1
225 450 453 1
733 412 749 1
427 379 459 1
725 482 747 1
29 215 220 1
466 467 802 1
475 369 527 1
428 431 434 1
169 532 641 1
219 419 696 1
426 427 428 1
398 251 768 1
523 348 844 1
359 509 510 1
704 623 710 1
421 223 452 1
535 66 654 1
340 337 527 1
497 526 609 1
491 642 809 1
567 730 757 1
479 709 717 1
426 379 427 1
623 622 710 1
715 574 721 1
745 434 824 1
656 719 724 1
521 69 776 1
412 436 749 1
574 575 721 1
550 549 652 1
69 521 784 1
220 215 221 1
352 505 512 1
631 615 820 1
428 427 431 1
494 498 499 1
187 739 748 1
532 531 641 1
421 712 743 1
505 507 512 1
539 540 734 1
238 246 671 1
230 232 438 1
54 597 761 1
349 515 608 1
368 378 379 1
570 571 572 1
709 386 717 1
413 414 449 1
352 503 505 1
301 299 553 1
399 435 635 1
157 699 823 1
588 541 607 1
326 766 767 1
576 577 578 1
414 441 449 1
400 230 438 1
539 173 713 1
221 223 421 1
175 731 752 1
225 226 450 1
680 649 821 1
423 477 678 1
468 365 469 1
393 618 811 1
463 550 651 1
404 405 413 1
567 172 580 1
232 235 438 1
209 476 692 1
613 605 617 1
734 540 759 1
428 434 731 1
216 434 745 1
436 198 749 1
281 377 594 1
189 550 634 1
348 536 844 1
649 680 689 1
414 440 441 1
175 460 731 1
435 424 746 1
394 404 409 1
503 352 513 1
30 31 451 1
605 613 618 1
369 340 527 1
406 435 723 1
413 449 785 1
419 695 696 1
429 425 433 1
641 531 686 1
485 481 770 1
265 262 620 1
333 725 747 1
337 336 527 1
404 413 694 1
375 615 666 1
394 362 404 1
615 631 780 1
235 394 438 1
93 94 645 1
155 156 544 1
465 395 559 1
154 155 456 1
156 174 544 1
597 54 829 1
593 594 595 1
567 566 730 1
235 362 394 1
366 367 368 1
183 716 733 1
594 377 595 1
303 348 627 1
413 405 414 1
390 368 425 1
299 297 653 1
327 325 512 1
187 454 739 1
762 659 771 1
520 606 627 1
667 196 805 1
359 327 512 1
354 500 513 1
378 407 459 1
455 620 621 1
446 246 794 1
493 494 499 1
368 367 378 1
394 420 438 1
466 465 467 1
357 575 719 1
603 265 620 1
29 30 215 1
313 349 665 1
510 509 511 1
365 364 366 1
151 200 542 1
625 762 771 1
463 461 634 1
579 722 724 1
618 393 808 1
626 200 682 1
599 600 601 1
461 36 634 1
262 361 620 1
553 299 653 1
346 363 364 1
523 520 627 1
206 111 633 1
464 465 466 1
134 188 585 1
341 355 559 1
605 604 617 1
456 544 640 1
354 319 493 1
172 122 580 1
344 345 346 1
418 400 437 1
583 585 586 1
534 169 535 1
150 151 542 1
283 281 594 1
111 112 633 1
546 547 549 1
458 626 682 1
140 203 616 1
339 341 559 1
229 400 418 1
581 204 582 1
426 428 460 1
126 571 629 1
456 155 544 1
148 191 551 1
366 364 367 1
452 453 703 1
349 311 514 1
238 240 246 1
354 493 499 1
321 354 513 1
349 514 515 1
585 188 586 1
132 204 581 1
173 539 734 1
341 343 344 1
577 576 646 1
379 378 459 1
517 350 606 1
624 625 638 1
464 395 465 1
149 150 478 1
349 608 665 1
189 38 546 1
223 225 452 1
571 570 629 1
267 265 603 1
275 382 600 1
344 343 345 1
705 198 751 1
604 136 617 1
520 517 606 1
221 222 223 1
360 528 529 1
516 350 517 1
339 340 341 1
109 110 673 1
226 229 450 1
147 148 551 1
572 574 693 1
339 337 340 1
366 368 390 1
500 503 513 1
478 150 542 1
34 35 183 1
31 32 198 1
277 275 600 1
229 230 400 1
542 200 543 1
170 113 639 1
325 352 512 1
367 364 635 1
346 345 363 1
319 317 493 1
341 340 343 1
540 541 764 1
404 362 405 1
335 336 337 1
189 546 549 1
538 372 607 1
449 441 825 1
113 114 639 1
178 109 673 1
390 425 429 1
122 123 580 1
145 194 558 1
189 549 550 1
360 295 528 1
41 185 636 1
593 595 807 1
335 334 336 1
615 612 820 1
332 331 334 1
614 393 811 1
541 538 607 1
729 396 738 1
475 474 476 1
146 147 545 1
129 577 646 1
289 588 607 1
579 581 582 1
514 350 516 1
475 476 477 1
330 329 331 1
354 499 500 1
545 147 551 1
332 334 335 1
38 39 546 1
133 134 585 1
719 578 724 1
472 474 475 1
570 572 693 1
399 424 435 1
346 364 365 1
537 372 538 1
406 367 635 1
328 327 329 1
330 331 332 1
766 492 767 1
182 154 456 1
311 309 514 1
600 382 601 1
336 471 472 1
516 518 525 1
452 225 453 1
144 145 558 1
609 526 795 1
326 325 327 1
394 409 420 1
285 283 592 1
793 163 800 1
226 228 229 1
139 140 616 1
323 321 513 1
435 190 723 1
246 446 765 1
561 562 564 1
472 473 474 1
324 323 325 1
564 565 566 1
470 206 802 1
338 337 339 1
596 377 598 1
592 283 594 1
555 144 558 1
507 506 508 1
328 329 330 1
505 504 506 1
596 598 599 1
235 236 362 1
322 321 323 1
343 369 677 1
595 377 596 1
191 149 478 1
528 372 537 1
203 141 630 1
110 111 206 1
500 501 502 1
378 406 407 1
656 357 719 1
405 362 671 1
320 319 321 1
143 144 555 1
503 502 504 1
588 376 589 1
326 327 328 1
317 356 493 1
561 176 562 1
270 267 603 1
571 180 572 1
636 185 637 1
408 395 464 1
447 446 794 1
454 455 739 1
305 303 627 1
564 562 565 1
324 325 326 1
318 317 319 1
229 418 450 1
39 201 546 1
500 499 501 1
183 461 462 1
507 508 509 1
125 126 629 1
334 374 471 1
172 567 757 1
163 663 800 1
516 517 518 1
114 115 552 1
336 472 527 1
203 630 631 1
316 315 317 1
194 146 545 1
494 496 498 1
124 176 561 1
168 119 554 1
309 350 514 1
287 376 588 1
505 506 507 1
577 186 578 1
322 323 324 1
515 525 526 1
127 180 571 1
493 356 494 1
314 313 315 1
360 529 530 1
537 538 539 1
321 319 354 1
564 567 580 1
602 382 644 1
325 323 352 1
108 109 178 1
503 504 505 1
232 234 235 1
115 116 167 1
317 315 356 1
263 247 657 1
313 311 349 1
329 327 359 1
352 323 513 1
37 189 634 1
320 321 322 1
193 143 555 1
223 224 225 1
439 405 671 1
586 188 587 1
118 119 168 1
582 204 583 1
530 529 531 1
312 311 313 1
582 583 584 1
166 422 804 1
640 448 827 1
309 307 350 1
601 382 602 1
297 360 653 1
569 570 693 1
611 612 614 1
334 331 374 1
106 107 213 1
192 610 611 1
595 596 597 1
37 38 189 1
112 113 170 1
5 6 211 1
500 502 503 1
363 397 399 1
781 640 827 1
130 186 577 1
295 293 528 1
303 301 348 1
310 309 311 1
611 610 612 1
121 122 172 1
336 334 471 1
598 277 600 1
123 124 561 1
318 319 320 1
199 452 703 1
564 566 567 1
229 228 230 1
624 202 625 1
453 195 775 1
131 132 581 1
620 361 621 1
621 361 622 1
546 201 547 1
399 422 424 1
377 279 598 1
193 555 556 1
308 307 309 1
472 471 473 1
95 96 196 1
459 407 667 1
135 136 604 1
572 573 574 1
530 531 532 1
148 149 191 1
395 351 559 1
297 295 360 1
529 528 537 1
589 590 591 1
39 40 201 1
380 351 395 1
124 125 176 1
151 152 200 1
655 479 717 1
126 127 571 1
316 317 318 1
156 157 174 1
129 130 577 1
192 138 610 1
472 475 527 1
306 305 307 1
363 399 635 1
293 291 372 1
115 167 552 1
192 613 617 1
153 154 182 1
589 376 590 1
561 564 580 1
123 561 580 1
515 516 525 1
341 344 355 1
716 412 733 1
415 403 454 1
191 478 479 1
127 128 180 1
289 287 588 1
119 120 554 1
291 289 607 1
138 139 610 1
314 315 316 1
518 519 521 1
304 303 305 1
293 372 528 1
655 396 729 1
63 64 641 1
579 582 722 1
101 102 745 1
626 458 768 1
402 270 403 1
259 655 717 1
287 285 376 1
447 794 812 1
145 146 194 1
121 172 619 1
454 403 455 1
393 614 817 1
583 586 763 1
542 543 709 1
132 133 204 1
43 202 624 1
302 301 303 1
312 313 314 1
539 538 540 1
142 143 193 1
610 139 616 1
575 357 721 1
343 340 369 1
130 131 186 1
307 305 606 1
140 141 203 1
300 299 301 1
533 532 534 1
402 403 415 1
543 200 626 1
372 291 607 1
515 514 516 1
494 495 496 1
41 42 185 1
281 279 377 1
137 138 192 1
192 611 613 1
204 133 585 1
310 311 312 1
578 186 579 1
298 297 299 1
134 135 188 1
318 320 632 1
511 680 821 1
621 622 623 1
279 277 598 1
308 309 310 1
183 35 461 1
599 598 600 1
376 285 592 1
182 456 457 1
34 183 733 1
185 624 638 1
7 8 159 1
335 337 338 1
296 295 297 1
573 180 646 1
137 192 617 1
92 93 190 1
572 180 573 1
606 305 627 1
306 307 308 1
587 604 605 1
351 339 559 1
706 609 795 1
590 592 593 1
294 293 295 1
837 524 844 1
518 517 519 1
433 460 828 1
574 573 575 1
19 20 695 1
275 273 382 1
554 120 619 1
304 305 306 1
271 270 402 1
35 36 461 1
292 291 293 1
64 169 641 1
350 307 606 1
612 610 616 1
43 44 202 1
455 603 620 1
798 685 818 1
576 573 646 1
382 273 644 1
302 303 304 1
290 289 291 1
364 363 635 1
363 345 397 1
562 176 563 1
136 137 617 1
530 532 533 1
269 267 270 1
176 125 629 1
89 90 166 1
87 88 209 1
338 339 351 1
722 381 724 1
533 534 536 1
403 270 603 1
300 301 302 1
535 524 837 1
645 94 711 1
83 84 208 1
188 135 604 1
621 623 739 1
399 397 422 1
484 487 492 1
587 605 789 1
288 287 289 1
810 161 826 1
565 562 568 1
298 299 300 1
85 86 162 1
221 215 222 1
79 80 207 1
315 313 665 1
193 556 557 1
120 121 619 1
730 491 757 1
630 557 631 1
431 427 432 1
494 356 495 1
328 330 333 1
622 361 660 1
286 285 287 1
81 82 160 1
590 376 592 1
380 395 408 1
469 365 698 1
40 41 636 1
441 440 442 1
562 563 568 1
271 402 644 1
455 403 603 1
593 592 594 1
75 76 205 1
296 297 298 1
141 142 630 1
200 152 682 1
46 47 187 1
284 283 285 1
186 131 581 1
587 188 604 1
114 552 639 1
77 78 161 1
568 563 569 1
198 436 751 1
496 495 497 1
479 478 709 1
548 636 637 1
294 295 296 1
262 260 361 1
193 557 630 1
282 281 283 1
540 538 541 1
73 74 163 1
292 293 294 1
269 270 271 1
244 247 263 1
49 50 184 1
42 43 624 1
70 71 164 1
128 129 646 1
583 204 585 1
322 324 342 1
290 291 292 1
280 279 281 1
142 193 630 1
51 52 643 1
36 37 634 1
67 68 165 1
252 389 675 1
543 626 628 1
190 93 645 1
522 523 524 1
183 462 716 1
519 520 522 1
52 53 181 1
278 277 279 1
288 289 290 1
361 260 660 1
64 65 169 1
457 456 640 1
409 404 694 1
247 249 657 1
207 506 833 1
180 128 646 1
576 578 719 1
215 30 451 1
332 691 707 1
61 62 173 1
347 318 632 1
276 275 277 1
286 287 288 1
153 182 682 1
185 42 624 1
694 413 785 1
55 56 179 1
316 318 347 1
471 374 649 1
273 271 644 1
58 59 177 1
632 320 642 1
365 366 698 1
462 461 463 1
284 285 286 1
579 186 581 1
547 201 548 1
249 251 398 1
274 273 275 1
537 539 713 1
223 222 224 1
225 224 226 1
454 187 742 1
282 283 284 1
112 170 633 1
3 4 158 1
312 314 371 1
10 11 171 1
753 166 804 1
104 105 175 1
256 254 388 1
272 271 273 1
378 367 406 1
575 576 719 1
50 51 662 1
308 310 358 1
280 281 282 1
255 257 386 1
495 356 665 1
402 415 701 1
519 517 520 1
360 530 653 1
533 536 553 1
575 573 576 1
56 57 650 1
563 176 629 1
278 279 280 1
302 304 357 1
473 471 649 1
664 161 810 1
254 252 675 1
198 32 749 1
615 375 839 1
259 261 655 1
268 267 269 1
52 181 643 1
276 277 278 1
201 40 636 1
652 385 841 1
522 520 523 1
298 300 381 1
602 644 701 1
320 322 642 1
261 264 396 1
184 50 662 1
441 442 560 1
269 271 272 1
66 67 654 1
274 275 276 1
418 437 687 1
292 294 383 1
51 643 662 1
637 185 638 1
672 736 738 1
266 265 267 1
252 250 389 1
280 282 375 1
261 396 655 1
288 290 373 1
322 342 642 1
266 268 416 1
284 286 393 1
272 273 274 1
174 157 823 1
479 655 729 1
249 398 657 1
276 278 387 1
272 274 391 1
556 555 744 1
409 681 786 1
314 316 647 1
569 563 570 1
608 495 665 1
356 315 665 1
497 495 608 1
264 262 265 1
182 458 682 1
543 628 835 1
310 312 648 1
589 591 764 1
110 206 673 1
256 388 659 1
74 75 663 1
530 533 653 1
268 269 668 1
97 98 218 1
179 56 650 1
152 153 682 1
261 260 262 1
235 234 236 1
416 268 417 1
9 10 681 1
316 347 647 1
226 227 228 1
412 384 436 1
531 529 713 1
266 267 268 1
76 77 664 1
353 351 380 1
570 563 629 1
300 302 656 1
371 314 647 1
290 292 658 1
230 231 232 1
541 589 764 1
264 265 266 1
489 490 491 1
259 258 260 1
345 343 677 1
312 371 648 1
71 72 706 1
67 165 654 1
78 79 669 1
358 310 648 1
257 256 258 1
422 397 423 1
548 201 636 1
332 335 691 1
261 262 264 1
533 553 653 1
248 245 385 1
473 649 689 1
483 481 485 1
487 488 489 1
441 760 825 1
680 208 689 1
380 408 661 1
586 587 779 1
388 254 675 1
257 258 259 1
411 392 480 1
44 45 704 1
269 272 668 1
75 205 663 1
259 260 261 1
80 81 676 1
260 258 660 1
205 76 664 1
417 268 668 1
163 74 663 1
381 300 656 1
302 357 656 1
258 256 659 1
255 254 256 1
484 486 487 1
691 410 707 1
414 439 440 1
292 383 658 1
373 290 658 1
203 631 820 1
333 330 707 1
255 256 257 1
612 615 839 1
13 14 195 1
246 240 794 1
704 45 748 1
77 161 664 1
396 264 672 1
272 391 668 1
230 228 231 1
482 483 484 1
161 78 669 1
278 280 666 1
82 83 679 1
253 252 254 1
79 207 669 1
280 375 666 1
253 254 255 1
414 405 439 1
618 613 811 1
266 416 672 1
258 659 660 1
207 80 676 1
387 278 666 1
462 463 801 1
182 457 458 1
347 566 843 1
251 252 253 1
173 62 686 1
276 387 670 1
338 351 353 1
679 208 680 1
239 237 684 1
391 274 670 1
411 481 482 1
251 250 252 1
489 488 490 1
62 63 686 1
274 276 670 1
712 210 743 1
353 392 410 1
16 17 199 1
524 523 844 1
249 250 251 1
651 550 652 1
84 85 688 1
487 486 488 1
81 160 676 1
685 385 818 1
612 616 820 1
160 82 679 1
63 641 686 1
249 248 250 1
247 248 249 1
102 103 216 1
389 250 685 1
737 218 772 1
484 483 486 1
108 178 697 1
117 485 770 1
83 208 679 1
411 480 481 1
264 266 672 1
241 239 370 1
353 380 392 1
429 433 815 1
208 84 688 1
6 7 690 1
8 9 683 1
390 429 430 1
244 245 247 1
247 245 248 1
763 586 779 1
86 87 692 1
482 481 483 1
410 392 411 1
242 243 244 1
480 392 661 1
678 753 804 1
7 159 690 1
85 162 688 1
397 345 677 1
244 243 245 1
162 86 692 1
362 236 671 1
771 388 792 1
240 241 242 1
497 609 793 1
392 380 661 1
232 233 234 1
238 239 240 1
107 108 697 1
248 385 685 1
644 402 701 1
49 184 720 1
826 669 833 1
208 688 689 1
214 26 726 1
87 209 692 1
118 168 842 1
396 672 738 1
211 449 825 1
242 241 243 1
407 723 836 1
236 237 238 1
370 239 684 1
226 224 227 1
159 8 683 1
455 621 739 1
179 650 806 1
684 237 708 1
10 171 681 1
560 158 760 1
437 171 787 1
651 652 799 1
482 484 747 1
18 19 210 1
211 6 690 1
308 358 715 1
232 231 233 1
240 239 241 1
423 397 677 1
250 248 685 1
501 498 797 1
335 338 691 1
439 246 765 1
202 704 710 1
231 228 702 1
191 479 729 1
357 304 721 1
238 237 239 1
324 326 767 1
436 384 702 1
94 95 711 1
244 263 812 1
779 587 789 1
353 410 691 1
228 227 702 1
401 384 412 1
233 231 384 1
222 215 451 1
202 44 704 1
650 591 806 1
330 332 707 1
46 187 748 1
233 384 401 1
478 542 709 1
611 614 811 1
212 696 741 1
15 16 703 1
374 510 821 1
338 353 691 1
623 704 748 1
706 72 803 1
5 211 714 1
716 462 740 1
236 234 237 1
625 202 710 1
9 681 683 1
164 71 706 1
236 238 671 1
116 117 770 1
221 421 819 1
187 47 742 1
529 537 713 1
591 590 806 1
678 209 753 1
366 390 698 1
61 173 734 1
597 596 832 1
159 683 694 1
578 579 724 1
91 746 758 1
4 5 714 1
257 259 717 1
791 164 795 1
797 498 800 1
53 54 761 1
102 216 745 1
213 107 697 1
723 645 836 1
445 443 446 1
99 100 197 1
703 453 775 1
298 381 735 1
418 687 831 1
161 669 826 1
196 667 711 1
511 509 728 1
614 375 817 1
675 389 796 1
628 253 835 1
306 308 715 1
106 213 718 1
384 231 702 1
417 744 750 1
373 618 808 1
68 69 784 1
209 88 753 1
732 391 769 1
442 444 700 1
177 59 759 1
659 388 771 1
551 191 729 1
1 217 699 1
69 70 776 1
383 294 755 1
812 263 827 1
732 556 744 1
551 729 738 1
518 521 791 1
509 508 728 1
105 106 718 1
328 333 766 1
460 428 731 1
17 18 712 1
582 584 722 1
631 557 778 1
48 49 720 1
407 406 723 1
91 92 746 1
474 473 756 1
166 90 758 1
792 675 796 1
390 430 698 1
591 650 782 1
168 813 842 1
304 306 721 1
411 482 725 1
306 715 721 1
419 220 819 1
89 166 753 1
445 447 448 1
220 221 819 1
736 416 750 1
524 654 838 1
401 412 716 1
386 257 717 1
388 675 792 1
58 177 782 1
253 255 835 1
237 234 708 1
609 706 803 1
234 233 708 1
33 733 749 1
445 446 447 1
224 222 705 1
333 707 725 1
650 57 782 1
442 440 443 1
668 391 732 1
21 22 212 1
410 411 725 1
799 652 841 1
233 401 708 1
525 791 795 1
73 163 803 1
11 12 787 1
631 778 780 1
442 443 444 1
672 416 736 1
492 487 783 1
95 196 711 1
625 710 762 1
385 245 841 1
222 451 705 1
288 373 808 1
381 656 724 1
168 486 813 1
284 393 817 1
560 442 700 1
393 286 808 1
796 389 798 1
697 178 754 1
736 545 738 1
375 282 817 1
421 743 819 1
227 224 705 1
33 34 733 1
196 96 737 1
389 685 798 1
622 660 762 1
565 647 843 1
416 417 750 1
48 720 742 1
12 687 787 1
557 556 769 1
60 61 734 1
707 410 725 1
444 443 445 1
558 194 750 1
744 558 750 1
684 708 740 1
381 722 735 1
556 732 769 1
370 651 799 1
194 545 736 1
16 199 703 1
746 424 758 1
159 694 785 1
460 175 828 1
96 97 737 1
22 23 774 1
158 4 714 1
696 695 741 1
383 755 763 1
545 551 738 1
190 645 723 1
761 597 832 1
457 640 781 1
555 558 744 1
296 298 735 1
417 668 732 1
32 33 749 1
441 560 760 1
599 601 834 1
457 781 814 1
484 492 747 1
47 48 742 1
195 14 775 1
486 483 813 1
521 519 822 1
737 772 805 1
199 17 712 1
88 89 753 1
692 476 830 1
194 736 750 1
510 511 821 1
45 46 748 1
103 104 752 1
241 370 799 1
420 409 786 1
534 535 837 1
446 443 765 1
474 756 830 1
92 190 746 1
735 584 755 1
708 401 740 1
206 633 802 1
175 105 718 1
60 734 759 1
20 21 741 1
710 622 762 1
549 547 818 1
104 175 752 1
536 837 844 1
333 747 766 1
638 625 771 1
210 19 695 1
296 735 755 1
24 25 214 1
90 91 758 1
525 518 791 1
375 614 839 1
695 20 741 1
485 117 842 1
440 439 765 1
294 296 755 1
214 727 774 1
59 60 759 1
423 678 804 1
638 771 792 1
584 583 763 1
326 328 766 1
689 688 756 1
699 217 700 1
547 798 818 1
54 55 829 1
557 769 778 1
227 705 751 1
501 797 810 1
731 216 752 1
181 53 761 1
383 763 779 1
473 689 756 1
491 490 757 1
722 584 735 1
669 207 833 1
181 832 834 1
15 703 775 1
430 429 754 1
660 659 762 1
18 210 712 1
14 15 775 1
702 227 751 1
458 457 814 1
628 626 768 1
342 324 767 1
688 162 756 1
431 432 772 1
476 474 830 1
616 203 820 1
401 716 740 1
521 776 791 1
767 492 783 1
445 448 790 1
633 466 802 1
436 702 751 1
160 679 816 1
263 657 781 1
614 612 839 1
832 599 834 1
666 615 780 1
687 437 787 1
167 116 770 1
98 99 777 1
756 162 830 1
164 706 795 1
526 525 795 1
740 462 801 1
496 793 800 1
70 164 776 1
450 418 831 1
498 496 800 1
548 637 796 1
447 812 827 1
487 489 783 1
502 501 810 1
218 98 777 1
489 491 809 1
57 58 782 1
430 674 840 1
2 3 788 1
778 387 780 1
391 670 769 1
502 810 826 1
263 781 827 1
496 497 793 1
97 218 737 1
165 68 784 1
417 732 744 1
794 242 812 1
72 73 803 1
728 160 816 1
601 643 834 1
613 611 811 1
590 593 806 1
504 826 833 1
519 522 822 1
755 584 763 1
443 440 765 1
595 597 807 1
522 524 838 1
55 179 829 1
645 711 836 1
3 158 788 1
117 118 842 1
566 565 843 1
781 657 814 1
680 511 816 1
504 502 826 1
670 387 778 1
637 638 792 1
727 212 774 1
658 383 779 1
175 718 828 1
216 103 752 1
506 504 833 1
547 548 798 1
240 242 794 1
596 599 832 1
387 666 780 1
158 714 760 1
171 11 787 1
548 796 798 1
637 792 796 1
690 159 785 1
373 658 789 1
684 740 801 1
647 347 843 1
286 288 808 1
769 670 778 1
642 342 809 1
422 423 804 1
255 386 835 1
242 244 812 1
536 534 837 1
658 779 789 1
783 489 809 1
784 521 822 1
342 783 809 1
243 241 799 1
282 284 817 1
431 772 773 1
483 485 813 1
681 171 786 1
1 2 217 1
657 398 814 1
679 680 816 1
213 697 815 1
511 728 816 1
643 181 834 1
822 522 838 1
100 101 824 1
243 799 841 1
649 374 821 1
370 684 801 1
747 492 766 1
444 790 823 1
654 165 838 1
165 822 838 1
245 243 841 1
162 692 830 1
99 197 777 1
444 445 790 1
790 174 823 1
469 698 840 1
197 100 824 1
196 737 805 1
772 218 773 1
212 22 774 1
714 211 825 1
21 212 741 1
667 407 836 1
214 726 727 1
101 745 824 1
448 447 827 1
700 444 823 1
698 430 840 1
697 754 815 1
773 218 777 1
342 767 783 1
197 773 777 1
776 164 791 1
181 761 832 1
754 429 815 1
711 667 836 1
743 419 819 1
26 27 726 1
179 807 829 1
217 2 788 1
760 714 825 1
699 700 823 1
772 432 805 1
165 784 822 1
813 485 842 1
807 597 829 1
23 24 214 1

End
