MeshVersionFormatted 2
Dimension 3

Vertices
596
-3.7753083732759996e-01 -9.5471785909674367e-02 0.0000000000000000e+00 1
-3.6799599318098869e-01 -9.6192045427647990e-02 0.0000000000000000e+00 1
-3.5823558270962258e-01 -9.6722908849381700e-02 0.0000000000000000e+00 1
-3.4825745847946343e-01 -9.7068668067572125e-02 0.0000000000000000e+00 1
-3.3806947305647317e-01 -9.7233614974915963e-02 0.0000000000000000e+00 1
-3.2767947900661343e-01 -9.7222041464109760e-02 0.0000000000000000e+00 1
-3.1709532889584541e-01 -9.7038239427850087e-02 0.0000000000000000e+00 1
-3.0632487529013103e-01 -9.6686500758833616e-02 0.0000000000000000e+00 1
-2.9537597075543220e-01 -9.6171117349756974e-02 0.0000000000000000e+00 1
-2.8425646785771036e-01 -9.5496381093316735e-02 0.0000000000000000e+00 1
-2.7297421916292708e-01 -9.4666583882209485e-02 0.0000000000000000e+00 1
-2.6153707723704411e-01 -9.3686017609131880e-02 0.0000000000000000e+00 1
-2.4995289464602330e-01 -9.2558974166780564e-02 0.0000000000000000e+00 1
-2.3822952395582617e-01 -9.1289745447852108e-02 0.0000000000000000e+00 1
-2.2637481773241416e-01 -8.9882623345043072e-02 0.0000000000000000e+00 1
-2.1439662854174926e-01 -8.8341899751050126e-02 0.0000000000000000e+00 1
-2.0230280894979305e-01 -8.6671866558569954e-02 0.0000000000000000e+00 1
-1.9010121152250725e-01 -8.4876815660299060e-02 0.0000000000000000e+00 1
-1.7779968882585326e-01 -8.2961038948934057e-02 0.0000000000000000e+00 1
-1.6540609342579296e-01 -8.0928828317171575e-02 0.0000000000000000e+00 1
-1.5292827788828814e-01 -7.8784475657708339e-02 0.0000000000000000e+00 1
-1.4037409477930027e-01 -7.6532272863240824e-02 0.0000000000000000e+00 1
-1.2775139666479093e-01 -7.4176511826465646e-02 0.0000000000000000e+00 1
-1.1506803611072194e-01 -7.1721484440079475e-02 0.0000000000000000e+00 1
-1.0233186568305497e-01 -6.9171482596778938e-02 0.0000000000000000e+00 1
-8.9550737947751674e-02 -6.6530798189260595e-02 0.0000000000000000e+00 1
-7.6732505470773621e-02 -6.3803723110221047e-02 0.0000000000000000e+00 1
-6.3885020818082505e-02 -6.0994549252356950e-02 0.0000000000000000e+00 1
-5.1016136555640197e-02 -5.8107568508364932e-02 0.0000000000000000e+00 1
-3.8133705249408102e-02 -5.5147072770941580e-02 0.0000000000000000e+00 1
-2.5245579465347896e-02 -5.2117353932783467e-02 0.0000000000000000e+00 1
-1.2359611769421346e-02 -4.9022703886587249e-02 0.0000000000000000e+00 1
5.1634527240982525e-04 -4.5867414525049555e-02 0.0000000000000000e+00 1
1.3374439094184024e-02 -4.2655777740866971e-02 0.0000000000000000e+00 1
2.6206817129939664e-02 -3.9392085426736098e-02 0.0000000000000000e+00 1
3.9005626813715048e-02 -3.6080629475353565e-02 0.0000000000000000e+00 1
5.1763015579548384e-02 -3.2725701779416000e-02 0.0000000000000000e+00 1
6.4471130861478099e-02 -2.9331594231619993e-02 0.0000000000000000e+00 1
7.7122120093542579e-02 -2.5902598724662145e-02 0.0000000000000000e+00 1
8.9708130709780148e-02 -2.2443007151239095e-02 0.0000000000000000e+00 1
1.0222131014422897e-01 -1.8957111404047457e-02 0.0000000000000000e+00 1
1.1465380583092757e-01 -1.5449203375783847e-02 0.0000000000000000e+00 1
1.2699776520391429e-01 -1.1923574959144832e-02 0.0000000000000000e+00 1
1.3924533569722738e-01 -8.3845180468270532e-03 0.0000000000000000e+00 1
1.5138866474490514e-01 -4.8363245315271482e-03 0.0000000000000000e+00 1
1.6341989978098592e-01 -1.2832863059417075e-03 0.0000000000000000e+00 1
1.7533118823950825e-01 2.2703047372326750e-03 0.0000000000000000e+00 1
1.8711467755451025e-01 5.8201567052993675e-03 0.0000000000000000e+00 1
1.9876251516003024e-01 9.3619777055617276e-03 0.0000000000000000e+00 1
2.1026684849010666e-01 1.2891475845323182e-02 0.0000000000000000e+00 1
2.2161982497877789e-01 1.6404359231887131e-02 0.0000000000000000e+00 1
2.3281359206008218e-01 1.9896335972556939e-02 0.0000000000000000e+00 1
2.4384029716805780e-01 2.3363114174635980e-02 0.0000000000000000e+00 1
2.5469208773674312e-01 2.6800401945427647e-02 0.0000000000000000e+00 1
2.6536111120017669e-01 3.0203907392235364e-02 0.0000000000000000e+00 1
2.7583951499239662e-01 3.3569338622362492e-02 0.0000000000000000e+00 1
2.8611944654744120e-01 3.6892403743112395e-02 0.0000000000000000e+00 1
2.9619305329934892e-01 4.0168810861788480e-02 0.0000000000000000e+00 1
3.0605248268215812e-01 4.3394268085694160e-02 0.0000000000000000e+00 1
3.1568988212990706e-01 4.6564483522132799e-02 0.0000000000000000e+00 1
3.2509739907663404e-01 4.9675165278407762e-02 0.0000000000000000e+00 1
3.3426718095637742e-01 5.2722021461822449e-02 0.0000000000000000e+00 1
3.4319137520317561e-01 5.5700760179680300e-02 0.0000000000000000e+00 1
3.5186212925106691e-01 5.8607089539284660e-02 0.0000000000000000e+00 1
3.6027159053408964e-01 6.1436717647938885e-02 0.0000000000000000e+00 1
3.6841190648628208e-01 6.4185352612946389e-02 0.0000000000000000e+00 1
3.7204023404205949e-01 6.5619011050989343e-02 0.0000000000000000e+00 1
3.7443769637330110e-01 6.7034050644991156e-02 0.0000000000000000e+00 1
3.7566347881584844e-01 6.8427384275702594e-02 0.0000000000000000e+00 1
3.7577676670554355e-01 6.9795924823874422e-02 0.0000000000000000e+00 1
3.7483674537822809e-01 7.1136585170257421e-02 0.0000000000000000e+00 1
3.7290260016974347e-01 7.2446278195602301e-02 0.0000000000000000e+00 1
3.7003351641593202e-01 7.3721916780659910e-02 0.0000000000000000e+00 1
3.6628867945263505e-01 7.4960413806180917e-02 0.0000000000000000e+00 1
3.6172727461569432e-01 7.6158682152916143e-02 0.0000000000000000e+00 1
3.5640848724095181e-01 7.7313634701616341e-02 0.0000000000000000e+00 1
3.5039150266424912e-01 7.8422184333032274e-02 0.0000000000000000e+00 1
3.4373550622142790e-01 7.9481243927914697e-02 0.0000000000000000e+00 1
3.3649968324833013e-01 8.0487726367014373e-02 0.0000000000000000e+00 1
3.2874321908079746e-01 8.1438544531082097e-02 0.0000000000000000e+00 1
3.2052529905467142e-01 8.2330611300868564e-02 0.0000000000000000e+00 1
3.1190510850579412e-01 8.3160839557124624e-02 0.0000000000000000e+00 1
3.0294183277000691e-01 8.3926142180600960e-02 0.0000000000000000e+00 1
2.9369465718315196e-01 8.4623432052048392e-02 0.0000000000000000e+00 1
2.8422276708107069e-01 8.5249622052217658e-02 0.0000000000000000e+00 1
2.7458534779960497e-01 8.5801625061859524e-02 0.0000000000000000e+00 1
2.6484158467459651e-01 8.6276353961724755e-02 0.0000000000000000e+00 1
2.5505066304188712e-01 8.6670721632564104e-02 0.0000000000000000e+00 1
2.4527176823731847e-01 8.6981640955128350e-02 0.0000000000000000e+00 1
2.3556408559673228e-01 8.7206024810168245e-02 0.0000000000000000e+00 1
2.2598680045597039e-01 8.7340786078434568e-02 0.0000000000000000e+00 1
2.1659909815087450e-01 8.7382837640678085e-02 0.0000000000000000e+00 1
2.0746016401728634e-01 8.7329092377649520e-02 0.0000000000000000e+00 1
1.9862918339104765e-01 8.7176463170099666e-02 0.0000000000000000e+00 1
1.9016534160800019e-01 8.6921862898779290e-02 0.0000000000000000e+00 1
1.8212782400398572e-01 8.6562204444439156e-02 0.0000000000000000e+00 1
1.7457581591484594e-01 8.6094400687830003e-02 0.0000000000000000e+00 1
1.6756850267642262e-01 8.5515364509702624e-02 0.0000000000000000e+00 1
1.6116506962455751e-01 8.4822008790807757e-02 0.0000000000000000e+00 1
1.5542470209509235e-01 8.4011246411896182e-02 0.0000000000000000e+00 1
1.5040658542386889e-01 8.3079990253718650e-02 0.0000000000000000e+00 1
1.4249920170651539e-01 8.1366972420287634e-02 0.0000000000000000e+00 1
1.3383483381048505e-01 7.9450715419906073e-02 0.0000000000000000e+00 1
1.2445278382028480e-01 7.7339508727229847e-02 0.0000000000000000e+00 1
1.1439235382042146e-01 7.5041641816914847e-02 0.0000000000000000e+00 1
1.0369284589540192e-01 7.2565404163616926e-02 0.0000000000000000e+00 1
9.2393562129733126e-02 6.9919085241991960e-02 0.0000000000000000e+00 1
8.0533804607921908e-02 6.7110974526695871e-02 0.0000000000000000e+00 1
6.8152875414475123e-02 6.4149361492384427e-02 0.0000000000000000e+00 1
5.5290076633899704e-02 6.1042535613713603e-02 0.0000000000000000e+00 1
4.1984710350702510e-02 5.7798786365339222e-02 0.0000000000000000e+00 1
2.8276078649390465e-02 5.4426403221917205e-02 0.0000000000000000e+00 1
1.4203483614470373e-02 5.0933675658103361e-02 0.0000000000000000e+00 1
-1.9377266955081240e-04 4.7328893148553611e-02 0.0000000000000000e+00 1
-1.4876388118166245e-02 4.3620345167923812e-02 0.0000000000000000e+00 1
-2.9805060646869046e-02 3.9816321190869836e-02 0.0000000000000000e+00 1
-4.4940488171152294e-02 3.5925110692047568e-02 0.0000000000000000e+00 1
-6.0243368606509161e-02 3.1955003146112868e-02 0.0000000000000000e+00 1
-7.5674399868432746e-02 2.7914288027721626e-02 0.0000000000000000e+00 1
-9.1194279872416129e-02 2.3811254811529708e-02 0.0000000000000000e+00 1
-1.0676370653395245e-01 1.9654192972192976e-02 0.0000000000000000e+00 1
-1.2234337776853479e-01 1.5451391984367345e-02 0.0000000000000000e+00 1
-1.3789399149165635e-01 1.1211141322708661e-02 0.0000000000000000e+00 1
-1.5337624561881022e-01 6.9417304618727745e-03 0.0000000000000000e+00 1
-1.6875083806548954e-01 2.6514488765155986e-03 0.0000000000000000e+00 1
-1.8397846674718729e-01 -1.6514139587070174e-03 0.0000000000000000e+00 1
-1.9901982957939673e-01 -5.9585685691391707e-03 0.0000000000000000e+00 1
-2.1383562447761092e-01 -1.0261725480125029e-02 0.0000000000000000e+00 1
-2.2838654935732303e-01 -1.4552595217008666e-02 0.0000000000000000e+00 1
-2.4263330213402615e-01 -1.8822888305134258e-02 0.0000000000000000e+00 1
-2.5653658072321339e-01 -2.3064315269845908e-02 0.0000000000000000e+00 1
-2.7005708304037779e-01 -2.7268586636487738e-02 0.0000000000000000e+00 1
-2.8315550700101261e-01 -3.1427412930403881e-02 0.0000000000000000e+00 1
-2.9579255052061093e-01 -3.5532504676938470e-02 0.0000000000000000e+00 1
-3.0792891151466578e-01 -3.9575572401435610e-02 0.0000000000000000e+00 1
-3.1952528789867035e-01 -4.3548326629239451e-02 0.0000000000000000e+00 1
-3.3054237758811772e-01 -4.7442477885694084e-02 0.0000000000000000e+00 1
-3.4094087849850097e-01 -5.1249736696143675e-02 0.0000000000000000e+00 1
-3.5068148854531339e-01 -5.4961813585932329e-02 0.0000000000000000e+00 1
-3.5972490564404791e-01 -5.8570419080404168e-02 0.0000000000000000e+00 1
-3.6803182771019777e-01 -6.2067263704903342e-02 0.0000000000000000e+00 1
-3.7556295265925599e-01 -6.5444057984773901e-02 0.0000000000000000e+00 1
-3.8227897840671576e-01 -6.8692512445360079e-02 0.0000000000000000e+00 1
-3.8814060286807017e-01 -7.1804337612005942e-02 0.0000000000000000e+00 1
-3.9310852395881235e-01 -7.4771244010055637e-02 0.0000000000000000e+00 1
-3.9714343959443532e-01 -7.7584942164853274e-02 0.0000000000000000e+00 1
-4.0020604769043244e-01 -8.0237142601742986e-02 0.0000000000000000e+00 1
-4.0225704616229657e-01 -8.2719555846068882e-02 0.0000000000000000e+00 1
-4.0325713292552101e-01 -8.5023892423175124e-02 0.0000000000000000e+00 1
-4.0316700589559867e-01 -8.7141862858405805e-02 0.0000000000000000e+00 1
-4.0194736298802286e-01 -8.9065177677105048e-02 0.0000000000000000e+00 1
-3.9955890211828665e-01 -9.0785547404617001e-02 0.0000000000000000e+00 1
-3.9596232120188313e-01 -9.2294682566285799e-02 0.0000000000000000e+00 1
-3.9111831815430542e-01 -9.3584293687455522e-02 0.0000000000000000e+00 1
-3.8498759089104667e-01 -9.4646091293470347e-02 0.0000000000000000e+00 1
1.5372213524989309e-01 7.9199801816373691e-02 0.0000000000000000e+00 1
1.7118189206246476e-01 8.0232157393676284e-02 0.0000000000000000e+00 1
1.5532629033764539e-01 7.1301943318001961e-03 0.0000000000000000e+00 1
1.9396232414109882e-01 7.8984996452954134e-02 0.0000000000000000e+00 1
1.1120509774330861e-01 6.4905994062133279e-02 0.0000000000000000e+00 1
1.8950082719710240e-01 1.7108080654436066e-02 0.0000000000000000e+00 1
7.7211502768373713e-02 5.5703273415222194e-02 0.0000000000000000e+00 1
2.1985923357989562e-01 7.9467085323259967e-02 0.0000000000000000e+00 1
6.6945248294558904e-02 -1.7063260233536100e-02 0.0000000000000000e+00 1
1.3949540571608676e-01 7.3439214780096684e-02 0.0000000000000000e+00 1
2.9741574032609366e-02 -2.6664465110226229e-02 0.0000000000000000e+00 1
1.1668430174016887e-01 -3.7969343371533058e-03 0.0000000000000000e+00 1
-8.4757660380133330e-03 -3.6276259107665534e-02 0.0000000000000000e+00 1
-4.7527148118328033e-02 -4.6605043270617659e-02 0.0000000000000000e+00 1
-8.5024317679611994e-02 -5.4567892781638733e-02 0.0000000000000000e+00 1
-1.2093261989220622e-01 -5.9819202791873027e-02 0.0000000000000000e+00 1
-1.6101679618509082e-01 -6.9093917190349630e-02 0.0000000000000000e+00 1
3.7838294034883674e-02 4.4998547274988573e-02 0.0000000000000000e+00 1
2.4993825681540430e-01 7.9054331473596667e-02 0.0000000000000000e+00 1
-1.9801309766982503e-01 -7.6033488264540317e-02 0.0000000000000000e+00 1
-4.3554131128661338e-03 3.2885909996269717e-02 0.0000000000000000e+00 1
2.2314760078780452e-01 2.7677968423545789e-02 0.0000000000000000e+00 1
-2.3378044209546125e-01 -8.0545604992202979e-02 0.0000000000000000e+00 1
-2.6740254270563230e-01 -8.4443826282579473e-02 0.0000000000000000e+00 1
-4.9472861780694800e-02 2.1758432917269629e-02 0.0000000000000000e+00 1
-8.0568528494011180e-02 1.3916037023573583e-02 0.0000000000000000e+00 1
9.2954183243302652e-02 -9.8932553151060264e-03 0.0000000000000000e+00 1
2.4686028499419138e-01 3.4540625506025331e-02 0.0000000000000000e+00 1
-1.5747114017690067e-01 -8.0807202682548363e-03 0.0000000000000000e+00 1
2.6906244939347929e-01 7.7939304541529947e-02 0.0000000000000000e+00 1
-1.1118007201423580e-01 5.8908774129622348e-03 0.0000000000000000e+00 1
-3.0105272268347061e-01 -8.7572150862860826e-02 0.0000000000000000e+00 1
-1.8647102409050215e-01 -1.6297503056766506e-02 0.0000000000000000e+00 1
-2.6009615195712610e-01 -3.8134869766123417e-02 0.0000000000000000e+00 1
2.8766918835646210e-01 7.6501732230006628e-02 0.0000000000000000e+00 1
-3.2254047617330406e-01 -8.8349268351930715e-02 0.0000000000000000e+00 1
-2.3222972983028370e-01 -2.8222886712741729e-02 0.0000000000000000e+00 1
2.6760834695207475e-01 4.1340571586762742e-02 0.0000000000000000e+00 1
-2.8591962420481110e-01 -4.4293553511020156e-02 0.0000000000000000e+00 1
-3.4264389073476131e-01 -8.8205214745180130e-02 0.0000000000000000e+00 1
3.0677306948568867e-01 7.5925948883093855e-02 0.0000000000000000e+00 1
-3.7673834731129424e-01 -7.1520067886962316e-02 0.0000000000000000e+00 1
-3.9931808537199415e-01 -8.3059273243287532e-02 0.0000000000000000e+00 1
-3.9290416151145424e-01 -7.9364240582413093e-02 0.0000000000000000e+00 1
-3.1005570370821067e-01 -5.1711288146179119e-02 0.0000000000000000e+00 1
-3.6197514320803348e-01 -6.6872141221833437e-02 0.0000000000000000e+00 1
2.8892989598721575e-01 4.8147281728729049e-02 0.0000000000000000e+00 1
-3.3172481127881254e-01 -5.8451429275879929e-02 0.0000000000000000e+00 1
3.2415893170927068e-01 7.4336667318402216e-02 0.0000000000000000e+00 1
-3.8076615703939110e-01 -8.9273130042928889e-02 0.0000000000000000e+00 1
3.0715013323377927e-01 5.2653109998618886e-02 0.0000000000000000e+00 1
3.3945742682537317e-01 7.4394394698175825e-02 0.0000000000000000e+00 1
3.7307371093795483e-01 7.0446814439681732e-02 0.0000000000000000e+00 1
-3.6378979559837488e-01 -8.8185980183335858e-02 0.0000000000000000e+00 1
-3.9241900189103246e-01 -8.8920287803743586e-02 0.0000000000000000e+00 1
3.6717354118182877e-01 7.1367734236287228e-02 0.0000000000000000e+00 1
3.5249296096054727e-01 7.2944711325686765e-02 0.0000000000000000e+00 1
3.2702850558855401e-01 5.8961706334731953e-02 0.0000000000000000e+00 1
-3.9943182640374025e-01 -8.8090938239878305e-02 0.0000000000000000e+00 1
3.4449700470578942e-01 6.2894962966340590e-02 0.0000000000000000e+00 1
3.6293065046721784e-01 6.6990121860952045e-02 0.0000000000000000e+00 1
-4.0117392733833818e-01 -8.5812560089084888e-02 0.0000000000000000e+00 1
1.4695928517237872e-01 7.4405245887343707e-02 0.0000000000000000e+00 1
1.4533449669985410e-01 6.7583525459085997e-02 0.0000000000000000e+00 1
1.3724975574968867e-01 6.4947851506238982e-02 0.0000000000000000e+00 1
1.4346482775171360e-01 5.9553432028420873e-02 0.0000000000000000e+00 1
1.5150125887012617e-01 6.2147132793475536e-02 0.0000000000000000e+00 1
1.4967366605634491e-01 5.3864879325713697e-02 0.0000000000000000e+00 1
1.4134484823261387e-01 5.1328510251273593e-02 0.0000000000000000e+00 1
1.5813916749350254e-01 5.6828639384822355e-02 0.0000000000000000e+00 1
1.5613767383721638e-01 4.7949209381284233e-02 0.0000000000000000e+00 1
1.6494859405113038e-01 5.1043392327027794e-02 0.0000000000000000e+00 1
1.6284433701695977e-01 4.1633915902224664e-02 0.0000000000000000e+00 1
1.5376138047769464e-01 3.8361357119826009e-02 0.0000000000000000e+00 1
1.7168442526700148e-01 4.4669051896638133e-02 0.0000000000000000e+00 1
1.7375729688403255e-01 5.4074633993365318e-02 0.0000000000000000e+00 1
1.8053443936459981e-01 4.7762829865720655e-02 0.0000000000000000e+00 1
1.8240308837997071e-01 5.6950379243817489e-02 0.0000000000000000e+00 1
1.8937322994291106e-01 5.0835852273529082e-02 0.0000000000000000e+00 1
1.6979012304446256e-01 3.5273563547012714e-02 0.0000000000000000e+00 1
1.5880594770432985e-01 6.4778670184907863e-02 0.0000000000000000e+00 1
1.9113005526344456e-01 6.0114348893286658e-02 0.0000000000000000e+00 1
1.9843214870251083e-01 5.4088382507889846e-02 0.0000000000000000e+00 1
1.9660994140125243e-01 4.4416891302969233e-02 0.0000000000000000e+00 1
2.0587740851776348e-01 4.7669655689072582e-02 0.0000000000000000e+00 1
2.0761390210961461e-01 5.7497212582573551e-02 0.0000000000000000e+00 1
2.1515525113480286e-01 5.1315215634355434e-02 0.0000000000000000e+00 1
1.8421789273470204e-01 6.5907973775626655e-02 0.0000000000000000e+00 1
2.0414045441396722e-01 3.7682263323531792e-02 0.0000000000000000e+00 1
2.1682110612724384e-01 6.0908437396822980e-02 0.0000000000000000e+00 1
2.2452612449644238e-01 5.4815733694157279e-02 0.0000000000000000e+00 1
2.0891052063785556e-01 6.7065414677962967e-02 0.0000000000000000e+00 1
2.2584912503489465e-01 6.4160405500524958e-02 0.0000000000000000e+00 1
2.3405810199143431e-01 5.8101179454705131e-02 0.0000000000000000e+00 1
2.3170875444074626e-01 4.8511505970338743e-02 0.0000000000000000e+00 1
2.4191158642584548e-01 5.1893113555139814e-02 0.0000000000000000e+00 1
2.4360048950255200e-01 6.1650042862361379e-02 0.0000000000000000e+00 1
2.5168704656290108e-01 5.5438244678424911e-02 0.0000000000000000e+00 1
1.9457761717539640e-01 3.5114636364683760e-02 0.0000000000000000e+00 1
2.0251921740369772e-01 2.8384702515111514e-02 0.0000000000000000e+00 1
2.5317494055011336e-01 6.4862557980196675e-02 0.0000000000000000e+00 1
2.6137022593123282e-01 5.9125291664881410e-02 0.0000000000000000e+00 1
1.9271811946266520e-01 6.9447141672214441e-02 0.0000000000000000e+00 1
1.8583333364371879e-01 7.4657121574568414e-02 0.0000000000000000e+00 1
1.7791919409129101e-01 7.1286912184338330e-02 0.0000000000000000e+00 1
2.0101558164610836e-01 7.3025670943892576e-02 0.0000000000000000e+00 1
1.7593247406998602e-01 6.3068285462097917e-02 0.0000000000000000e+00 1
1.7113254999466437e-01 6.8900408570655602e-02 0.0000000000000000e+00 1
1.6669647633285770e-01 6.0998655738849550e-02 0.0000000000000000e+00 1
1.6188632447528231e-01 7.4731896406146803e-02 0.0000000000000000e+00 1
-3.7282045379709683e-01 -8.8955635947240846e-02 0.0000000000000000e+00 1
-3.6911673976643622e-01 -8.2257447607220133e-02 0.0000000000000000e+00 1
-3.6036200086912429e-01 -8.0673329608071054e-02 0.0000000000000000e+00 1
-3.5350190457043951e-01 -8.6439091111738739e-02 0.0000000000000000e+00 1
-3.4595739824963206e-01 -7.9225306080605601e-02 0.0000000000000000e+00 1
-3.3656186631320972e-01 -8.0639158701503788e-02 0.0000000000000000e+00 1
-3.3978107116989253e-01 -7.1757449248113281e-02 0.0000000000000000e+00 1
-3.3025711293548732e-01 -7.3867615837978184e-02 0.0000000000000000e+00 1
-3.4859115172426147e-01 -7.1261000382994072e-02 0.0000000000000000e+00 1
3.6894176823988661e-01 6.7933943975585664e-02 0.0000000000000000e+00 1
2.1232046228350315e-01 3.0935960697871204e-02 0.0000000000000000e+00 1
3.3663879231316196e-01 6.2290545154318200e-02 0.0000000000000000e+00 1
3.7226070601998951e-01 6.8245241113202640e-02 0.0000000000000000e+00 1
-3.4261941310794958e-01 -6.2308502225912686e-02 0.0000000000000000e+00 1
1.2134481009480287e-01 6.7774694570870986e-02 0.0000000000000000e+00 1
1.1879410630218935e-01 5.7453265342647136e-02 0.0000000000000000e+00 1
1.0842303956746771e-01 5.4407960042853393e-02 0.0000000000000000e+00 1
1.1652615516359124e-01 4.6765472898225927e-02 0.0000000000000000e+00 1
1.0578011686271729e-01 4.3584580372140393e-02 0.0000000000000000e+00 1
1.1415423685748445e-01 3.5762921503766580e-02 0.0000000000000000e+00 1
1.0307529971991726e-01 3.2463050135093395e-02 0.0000000000000000e+00 1
1.1154187889731768e-01 2.4568710218774138e-02 0.0000000000000000e+00 1
1.2265960835177159e-01 2.7965635466485346e-02 0.0000000000000000e+00 1
1.0026967873294759e-01 2.1026167029206830e-02 0.0000000000000000e+00 1
9.1623517034421176e-02 2.9238071319452150e-02 0.0000000000000000e+00 1
8.8663334313298731e-02 1.7401204470271311e-02 0.0000000000000000e+00 1
7.9719079019468522e-02 2.5943994264405152e-02 0.0000000000000000e+00 1
7.6738603250941770e-02 1.3764775777428661e-02 0.0000000000000000e+00 1
6.7530502801414649e-02 2.2532555772582813e-02 0.0000000000000000e+00 1
6.4457525784814548e-02 1.0010817433441174e-02 0.0000000000000000e+00 1
5.5187799951307182e-02 1.8983650274036264e-02 0.0000000000000000e+00 1
5.1974671285819105e-02 6.2836397306205161e-03 0.0000000000000000e+00 1
4.2693140988029690e-02 1.4684609906421637e-02 0.0000000000000000e+00 1
3.9189953862271906e-02 2.2745914046422349e-03 0.0000000000000000e+00 1
2.9625662136638718e-02 1.0947134455256080e-02 0.0000000000000000e+00 1
2.6153021436205529e-02 -1.6393330730920279e-03 0.0000000000000000e+00 1
1.6420332185612584e-02 7.8112147774040217e-03 0.0000000000000000e+00 1
1.2941732465101769e-02 -5.4392128783162874e-03 0.0000000000000000e+00 1
3.3522072654936794e-03 4.7620252842136817e-03 0.0000000000000000e+00 1
-3.5551741074533067e-04 -9.2210153869535690e-03 0.0000000000000000e+00 1
-1.0237139607119165e-02 1.1467919884581223e-03 0.0000000000000000e+00 1
1.8075712513484863e-02 2.1650343196509689e-02 0.0000000000000000e+00 1
-1.3934204969943499e-02 -1.3324401514605426e-02 0.0000000000000000e+00 1
-2.4357181839668160e-02 -3.2599755063274566e-03 0.0000000000000000e+00 1
-2.7753569796469986e-02 -1.7219530022907114e-02 0.0000000000000000e+00 1
-3.8633300018778974e-02 -6.8902464532316814e-03 0.0000000000000000e+00 1
-2.1495595732389870e-02 1.2063269471577941e-02 0.0000000000000000e+00 1
5.8258136517965436e-02 3.0610269657813979e-02 0.0000000000000000e+00 1
-4.1174967898001034e-02 -2.0915278604346253e-02 0.0000000000000000e+00 1
-5.1793350350950423e-02 -1.1330253418648068e-02 0.0000000000000000e+00 1
-5.4923630737775647e-02 -2.5041809469709055e-02 0.0000000000000000e+00 1
-6.5353716157292893e-02 -1.5284668092339859e-02 0.0000000000000000e+00 1
-6.8899172401787945e-02 -2.9177093024929358e-02 0.0000000000000000e+00 1
-7.9138039784461198e-02 -1.9282502585821430e-02 0.0000000000000000e+00 1
9.6518592973186823e-03 -1.8883065865832698e-02 0.0000000000000000e+00 1
4.8507681733969167e-02 -6.7075491783538544e-03 0.0000000000000000e+00 1
9.7618000373143901e-02 5.1249403113322517e-02 0.0000000000000000e+00 1
1.2012104557416822e-01 1.6788534926935522e-02 0.0000000000000000e+00 1
1.3098738495510812e-01 2.0561606210278804e-02 0.0000000000000000e+00 1
1.3332274673368641e-01 3.1404273185871488e-02 0.0000000000000000e+00 1
1.4149134655785889e-01 2.4014908307179197e-02 0.0000000000000000e+00 1
9.7784821547500067e-02 9.9226067791159129e-03 0.0000000000000000e+00 1
-3.0980229508814575e-02 -3.0277130804278355e-02 0.0000000000000000e+00 1
-8.2778627622368900e-02 -3.2552833202427078e-02 0.0000000000000000e+00 1
-9.2930479822264156e-02 -2.3171400181955265e-02 0.0000000000000000e+00 1
-9.6570740392311644e-02 -3.6389008669511322e-02 0.0000000000000000e+00 1
-1.0667810523849731e-01 -2.7120643831076187e-02 0.0000000000000000e+00 1
-1.1045116003303990e-01 -4.0200015918232752e-02 0.0000000000000000e+00 1
-1.2059050471816497e-01 -3.1140475213005836e-02 0.0000000000000000e+00 1
-8.9403620396863448e-02 -9.5196574628886380e-03 0.0000000000000000e+00 1
-6.1287611104810819e-02 -2.3398811515160187e-03 0.0000000000000000e+00 1
7.4251539418651549e-02 2.2318161348395590e-03 0.0000000000000000e+00 1
-1.1753566895569176e-01 -1.7654888248468458e-02 0.0000000000000000e+00 1
-1.3108241898874612e-01 -2.1354885317409089e-02 0.0000000000000000e+00 1
-1.3443233398879462e-01 -3.5426941630459841e-02 0.0000000000000000e+00 1
1.3830767694802226e-01 1.2602205698357096e-02 0.0000000000000000e+00 1
1.2675305646839188e-01 5.0191116677051478e-02 0.0000000000000000e+00 1
-1.4472848072198669e-01 -2.6156062748998669e-02 0.0000000000000000e+00 1
-1.4816016708589347e-01 -3.9705522978044500e-02 0.0000000000000000e+00 1
-1.5844608268492563e-01 -3.0511269460610925e-02 0.0000000000000000e+00 1
-1.6192126968800860e-01 -4.3693602124896716e-02 0.0000000000000000e+00 1
-1.7213094554791458e-01 -3.4548818674105274e-02 0.0000000000000000e+00 1
-1.7553313573998577e-01 -4.7694458915330071e-02 0.0000000000000000e+00 1
-1.8559524438772870e-01 -3.8787057397393812e-02 0.0000000000000000e+00 1
-1.8904773617207588e-01 -5.1704607329491885e-02 0.0000000000000000e+00 1
-1.9894118427660862e-01 -4.2714920189673725e-02 0.0000000000000000e+00 1
-2.0265308741288457e-01 -5.5477626778116920e-02 0.0000000000000000e+00 1
-2.1216783717731269e-01 -4.6471969917570390e-02 0.0000000000000000e+00 1
-2.1559918207777265e-01 -5.9430049968849541e-02 0.0000000000000000e+00 1
-2.2502970639335268e-01 -5.0425777998750379e-02 0.0000000000000000e+00 1
-2.0831934850790915e-01 -3.3741423972104986e-02 0.0000000000000000e+00 1
-1.8035947794099919e-01 -6.0879286342553109e-02 0.0000000000000000e+00 1
8.2980054424874772e-02 3.7585193280648681e-02 0.0000000000000000e+00 1
-1.5228478800775755e-01 -5.5666328730276993e-02 0.0000000000000000e+00 1
-2.2763413717788752e-01 -6.2729113352088792e-02 0.0000000000000000e+00 1
-2.3753293816867277e-01 -5.4292278984107989e-02 0.0000000000000000e+00 1
-7.3527938914700247e-02 -4.3285659098753766e-02 0.0000000000000000e+00 1
-1.2960440976676613e-01 -8.4555712373170760e-03 0.0000000000000000e+00 1
-2.1873884415537539e-01 -7.0419184878017946e-02 0.0000000000000000e+00 1
-2.3936489856512966e-01 -6.8723239608943484e-02 0.0000000000000000e+00 1
-2.5000819345058101e-01 -5.8266826665219575e-02 0.0000000000000000e+00 1
-2.5286340387145312e-01 -7.0766549219167058e-02 0.0000000000000000e+00 1
-2.6210837165167356e-01 -6.2078838502821775e-02 0.0000000000000000e+00 1
-2.4799520172055878e-01 -4.5661429043581815e-02 0.0000000000000000e+00 1
-1.6919412857698560e-01 -1.9979898279939720e-02 0.0000000000000000e+00 1
-1.0012126093381066e-01 -5.0044119363388137e-02 0.0000000000000000e+00 1
1.2846310693278740e-01 6.1456379423551789e-02 0.0000000000000000e+00 1
1.2485314804297820e-01 3.9030090521734374e-02 0.0000000000000000e+00 1
1.3587589265861272e-01 4.2899509054926517e-02 0.0000000000000000e+00 1
1.4399010883234303e-01 3.5045002263361602e-02 0.0000000000000000e+00 1
1.5137710882794431e-01 2.7587892496979856e-02 0.0000000000000000e+00 1
-1.3883591583703420e-01 -4.9478086873530426e-02 0.0000000000000000e+00 1
-1.4037109316730079e-01 -6.3706312416332844e-02 0.0000000000000000e+00 1
1.6477524772090205e-01 8.0020709064649281e-02 0.0000000000000000e+00 1
-3.8242505232388174e-01 -7.6898128570122737e-02 0.0000000000000000e+00 1
1.6680816848300556e-01 1.0742643241732000e-02 0.0000000000000000e+00 1
1.7809439826521828e-01 1.4041694819920417e-02 0.0000000000000000e+00 1
1.8180123475763890e-01 2.4091089802899486e-02 0.0000000000000000e+00 1
1.7035897608933720e-01 2.3846170467856562e-02 0.0000000000000000e+00 1
1.5915616519529568e-01 1.9560357618888094e-02 0.0000000000000000e+00 1
-1.2455900592626939e-01 -4.6041642413088640e-02 0.0000000000000000e+00 1
2.5957734986957226e-01 4.8748147598981308e-02 0.0000000000000000e+00 1
2.6942456578115936e-01 5.2439748843898085e-02 0.0000000000000000e+00 1
2.7113296668171494e-01 6.2450846815521363e-02 0.0000000000000000e+00 1
2.7934483693988149e-01 5.5905854146476752e-02 0.0000000000000000e+00 1
2.8140919881971849e-01 6.7407838161239672e-02 0.0000000000000000e+00 1
2.8929744782448630e-01 5.9611824198442305e-02 0.0000000000000000e+00 1
2.9778372154710625e-01 5.5040536259474221e-02 0.0000000000000000e+00 1
2.9671744740386369e-01 6.2550833821886073e-02 0.0000000000000000e+00 1
2.7780287609180487e-01 4.4906303610758556e-02 0.0000000000000000e+00 1
2.5731427490399977e-01 3.8017503243505266e-02 0.0000000000000000e+00 1
3.1756319994841842e-01 5.6136502775786794e-02 0.0000000000000000e+00 1
3.1016008417490787e-01 6.2523558603671772e-02 0.0000000000000000e+00 1
3.1892629059544531e-01 6.6014729758359078e-02 0.0000000000000000e+00 1
-2.7403023427825329e-01 -4.0523372486658348e-02 0.0000000000000000e+00 1
-2.7704707162590847e-01 -5.3088036315521718e-02 0.0000000000000000e+00 1
-2.8877760418019821e-01 -5.6690516826601596e-02 0.0000000000000000e+00 1
-2.8059172552930761e-01 -6.5011622086623713e-02 0.0000000000000000e+00 1
-2.9175285937568340e-01 -6.8107541219909140e-02 0.0000000000000000e+00 1
-2.8483252798478664e-01 -7.6257043307100925e-02 0.0000000000000000e+00 1
-3.0028339978241164e-01 -6.0315548664546997e-02 0.0000000000000000e+00 1
-3.0294526210266237e-01 -7.1889712879873141e-02 0.0000000000000000e+00 1
-3.1150332867825503e-01 -6.3832070354200729e-02 0.0000000000000000e+00 1
-3.1381609247865250e-01 -7.4009401336255276e-02 0.0000000000000000e+00 1
-3.2080800009634247e-01 -5.6047226697622105e-02 0.0000000000000000e+00 1
-2.9842845340723939e-01 -4.8144582484726181e-02 0.0000000000000000e+00 1
2.0002133312557191e-01 6.3669136121538059e-02 0.0000000000000000e+00 1
2.1051938816484589e-01 7.5571904040954527e-02 0.0000000000000000e+00 1
5.1478376348266255e-02 4.9123492175971617e-02 0.0000000000000000e+00 1
1.5283616320633781e-01 6.9870962230546785e-02 0.0000000000000000e+00 1
2.3563068594694397e-01 3.0994632436478528e-02 0.0000000000000000e+00 1
-6.5352628580969060e-02 1.8625584345503383e-02 0.0000000000000000e+00 1
-9.5629143065940475e-02 1.0396046141010407e-02 0.0000000000000000e+00 1
1.1151792696941304e-02 3.6139781997314074e-02 0.0000000000000000e+00 1
3.2905908759086200e-01 6.7459749246619710e-02 0.0000000000000000e+00 1
-3.3707202514318052e-02 2.4245783990848289e-02 0.0000000000000000e+00 1
-3.8376939214784585e-02 9.5705108650394870e-03 0.0000000000000000e+00 1
-1.8323195405776697e-02 2.7680801396149826e-02 0.0000000000000000e+00 1
-5.5870194444408846e-03 1.7878029108716678e-02 0.0000000000000000e+00 1
2.5044545195849189e-02 4.1262115348191547e-02 0.0000000000000000e+00 1
3.5741040038036298e-02 3.3958090705319764e-02 0.0000000000000000e+00 1
6.4882764464368262e-02 5.2632468753088142e-02 0.0000000000000000e+00 1
-4.5217390635738557e-03 -2.2989785431656768e-02 0.0000000000000000e+00 1
1.0492031564608589e-01 -7.5528714822024334e-03 0.0000000000000000e+00 1
1.2999593127144332e-01 4.0457789311454904e-04 0.0000000000000000e+00 1
3.1525040558625400e-01 7.5211234614513900e-02 0.0000000000000000e+00 1
2.2668320962374970e-02 -1.4982589656011935e-02 0.0000000000000000e+00 1
3.5929778257660354e-02 -1.3443551230988523e-02 0.0000000000000000e+00 1
4.8058436025557039e-02 -1.9890191345564912e-02 0.0000000000000000e+00 1
2.6292442920939002e-01 6.9271463309678372e-02 0.0000000000000000e+00 1
8.0563622387824413e-02 -1.4283793445801605e-02 0.0000000000000000e+00 1
3.5813442391377753e-01 7.2437402266748260e-02 0.0000000000000000e+00 1
3.5575240628737720e-01 6.6852900649160218e-02 0.0000000000000000e+00 1
-3.8723252264246477e-01 -8.9116569553095451e-02 0.0000000000000000e+00 1
-3.8983158702898768e-01 -8.4496520739597375e-02 0.0000000000000000e+00 1
-3.8423849946328081e-01 -8.3998534239438830e-02 0.0000000000000000e+00 1
-3.9519589346607109e-01 -8.4432140909219688e-02 0.0000000000000000e+00 1
-3.7775126550700255e-01 -8.3241047719152431e-02 0.0000000000000000e+00 1
2.2741863381401847e-01 3.8449079717651602e-02 0.0000000000000000e+00 1
6.2129408421024310e-02 -4.1007438315431707e-03 0.0000000000000000e+00 1
-3.7003896087802790e-01 -6.9868306901747973e-02 0.0000000000000000e+00 1
2.3500435167482298e-01 6.9342185055860261e-02 0.0000000000000000e+00 1
1.7876643345652965e-01 7.9298092093768660e-02 0.0000000000000000e+00 1
3.7434151737181082e-01 6.9181000077951652e-02 0.0000000000000000e+00 1
1.6980545331523593e-02 -2.9975082280359437e-02 0.0000000000000000e+00 1
2.4020491128959404e-01 7.8773500304887834e-02 0.0000000000000000e+00 1
2.9730307639993953e-01 7.6647713481066554e-02 0.0000000000000000e+00 1
2.3066154463095542e-01 7.9178813995180328e-02 0.0000000000000000e+00 1
2.7840352011817593e-01 7.7262726438515908e-02 0.0000000000000000e+00 1
-2.5773890772606350e-01 -5.0578834141872690e-02 0.0000000000000000e+00 1
-5.7925611101914160e-02 -3.8035437225714536e-02 0.0000000000000000e+00 1
-3.1196655358575043e-01 -8.8273525192084562e-02 0.0000000000000000e+00 1
-1.4342053811178512e-01 -1.3808075023466268e-02 0.0000000000000000e+00 1
-2.4514842415871443e-01 -8.1199494048994764e-02 0.0000000000000000e+00 1
8.6534835627370257e-02 6.3309561509327129e-03 0.0000000000000000e+00 1
2.1796775818301251e-01 6.9978642226339566e-02 0.0000000000000000e+00 1
-2.8997227666633985e-01 -8.6640131223926456e-02 0.0000000000000000e+00 1
1.0891036046567561e-01 1.3334826108415852e-02 0.0000000000000000e+00 1
-1.0849920619790389e-01 -6.0238606241033596e-02 0.0000000000000000e+00 1
-2.5648606871922563e-01 -8.2913968818753320e-02 0.0000000000000000e+00 1
-1.8545863648000799e-01 -7.3432197127770021e-02 0.0000000000000000e+00 1
7.0941921397486368e-02 3.3741360466114603e-02 0.0000000000000000e+00 1
8.8741029748824349e-02 5.8896899191413339e-02 0.0000000000000000e+00 1
1.0054346076922224e-01 6.2109509281016197e-02 0.0000000000000000e+00 1
3.6325091392623077e-01 7.2382870864616922e-02 0.0000000000000000e+00 1
2.1320964040908089e-01 4.1486185176674503e-02 0.0000000000000000e+00 1
-2.0375151979052192e-01 -2.0275150760005866e-02 0.0000000000000000e+00 1
1.7860327931684150e-01 3.8971249312067219e-02 0.0000000000000000e+00 1
4.4791650250981078e-03 -3.2925361950770185e-02 0.0000000000000000e+00 1
-3.8880055058003515e-01 -7.6760751917266723e-02 0.0000000000000000e+00 1
-1.0362811372790948e-01 -1.4351975420229372e-02 0.0000000000000000e+00 1
-7.5259727528357412e-02 -6.5952950859298736e-03 0.0000000000000000e+00 1
-1.6647412371532216e-01 -5.7389209640297034e-02 0.0000000000000000e+00 1
1.3079521364747568e-01 7.0863353366325210e-02 0.0000000000000000e+00 1
-2.4595863843645038e-01 -3.2285563083438447e-02 0.0000000000000000e+00 1
-1.7844435485428873e-02 -2.6639513174945555e-02 0.0000000000000000e+00 1
3.4625403901684393e-01 7.3913713530574909e-02 0.0000000000000000e+00 1
2.5961509329036209e-01 7.8255079267708555e-02 0.0000000000000000e+00 1
-2.1401103535758019e-02 -3.9749972168560146e-02 0.0000000000000000e+00 1
9.5036315578201580e-02 4.0435526156174621e-02 0.0000000000000000e+00 1
1.5900721023081493e-01 7.9655431794289938e-02 0.0000000000000000e+00 1
-2.7251302839211911e-01 -7.2896932948969040e-02 0.0000000000000000e+00 1
1.8757931021784183e-01 4.1717382984068324e-02 0.0000000000000000e+00 1
-2.3512015046308876e-01 -4.1415836580204354e-02 0.0000000000000000e+00 1
1.6121468177528234e-01 3.1043876192131316e-02 0.0000000000000000e+00 1
-2.2197468822921423e-01 -3.7607083658605787e-02 0.0000000000000000e+00 1
1.4679726168247090e-01 4.4908077899397610e-02 0.0000000000000000e+00 1
2.4972027195983881e-01 4.5216992908904088e-02 0.0000000000000000e+00 1
-3.2341381480137604e-01 -6.6894187082392184e-02 0.0000000000000000e+00 1
3.3226784523522518e-01 7.4432202755010779e-02 0.0000000000000000e+00 1
-1.7275246942884440e-01 -7.0780746261179223e-02 0.0000000000000000e+00 1
-3.4210620482986426e-02 -4.3135390925405512e-02 0.0000000000000000e+00 1
-1.9380914382378556e-01 -6.4320704654206889e-02 0.0000000000000000e+00 1
1.4839715727323638e-01 1.5823966316076965e-02 0.0000000000000000e+00 1
-2.1808291003214381e-01 -2.4110144300098675e-02 0.0000000000000000e+00 1
3.7076927410906868e-01 7.0896663400596069e-02 0.0000000000000000e+00 1
4.5430991243013530e-02 2.6249478272935216e-02 0.0000000000000000e+00 1
8.6342035525519251e-02 4.8085398835216078e-02 0.0000000000000000e+00 1
-2.0665897177908915e-01 -6.7698675191479235e-02 0.0000000000000000e+00 1
2.3887503626359741e-01 4.1600991682423011e-02 0.0000000000000000e+00 1
-3.3267938920714746e-01 -8.9024672956429102e-02 0.0000000000000000e+00 1
-4.8989661098044188e-02 3.1378974011863138e-05 0.0000000000000000e+00 1
7.3899905071459389e-03 1.6337733071095616e-02 0.0000000000000000e+00 1
2.4572567226456596e-01 7.1024063190224668e-02 0.0000000000000000e+00 1
-3.9695352552687746e-01 -8.0935547900303315e-02 0.0000000000000000e+00 1
1.4301660913768938e-01 2.5976583693136475e-03 0.0000000000000000e+00 1
-4.4457034641303309e-02 -3.4001681716678556e-02 0.0000000000000000e+00 1
-2.7924320480219011e-01 -8.6544833839275428e-02 0.0000000000000000e+00 1
-3.9664786179116240e-01 -8.8481062174021963e-02 0.0000000000000000e+00 1
2.0394060883854481e-01 8.0798041894005773e-02 0.0000000000000000e+00 1
2.9237828800581772e-01 6.8838194814061462e-02 0.0000000000000000e+00 1
1.3587062193387656e-01 5.7186430173986585e-02 0.0000000000000000e+00 1
5.6409280168132216e-02 -1.4476488962563394e-02 0.0000000000000000e+00 1
1.2730089617639959e-01 1.1490783121655560e-02 0.0000000000000000e+00 1
1.5677917918380449e-01 7.5001869699900803e-02 0.0000000000000000e+00 1
-2.1064802245017736e-01 -7.8277376394402812e-02 0.0000000000000000e+00 1
-1.9416082176323873e-01 -2.9806245187994854e-02 0.0000000000000000e+00 1
-2.9593831473090815e-01 -7.8297550774503386e-02 0.0000000000000000e+00 1
-6.1007031212097995e-02 -5.0159903954342340e-02 0.0000000000000000e+00 1
-3.9835351887426124e-01 -8.5975194931098481e-02 0.0000000000000000e+00 1
7.4179588998451035e-02 4.4804242373283711e-02 0.0000000000000000e+00 1
2.2223224699117114e-01 4.5647549931927864e-02 0.0000000000000000e+00 1
1.8638746800941344e-01 8.1358817902111566e-02 0.0000000000000000e+00 1
1.8499050833930014e-01 3.2909258281550835e-02 0.0000000000000000e+00 1
2.2586840262071625e-01 7.2425426420233002e-02 0.0000000000000000e+00 1
1.1816813834669244e-01 6.9633718102188541e-03 0.0000000000000000e+00 1
1.6786993436250985e-01 7.4664403781526653e-02 0.0000000000000000e+00 1
-2.6201206969648688e-01 -7.4828951585866166e-02 0.0000000000000000e+00 1
-3.5313385365075145e-01 -6.3465376952272293e-02 0.0000000000000000e+00 1
-1.4967228826792850e-01 -6.8661735070249502e-02 0.0000000000000000e+00 1
-3.5694397751730822e-01 -7.2886958140206515e-02 0.0000000000000000e+00 1
-1.8151043287327395e-01 -2.7883904519240034e-02 0.0000000000000000e+00 1
2.1215289149473701e-01 2.2245543558530579e-02 0.0000000000000000e+00 1
-7.2035362819053261e-02 -5.4562345639462564e-02 0.0000000000000000e+00 1
-3.2726183101346162e-01 -8.1639932046616542e-02 0.0000000000000000e+00 1
2.7347216925872003e-01 7.0676236584242061e-02 0.0000000000000000e+00 1
1.0724665596861850e-01 3.0153052114876610e-03 0.0000000000000000e+00 1
2.0027150307492880e-01 1.9173068609591705e-02 0.0000000000000000e+00 1
1.9227681799134402e-01 2.6130139371378890e-02 0.0000000000000000e+00 1
9.6533836064105566e-02 -6.6119820018495726e-04 0.0000000000000000e+00 1
-1.7380184707852472e-01 -8.5696297527076068e-03 0.0000000000000000e+00 1
-3.0715155673200706e-01 -8.0514620873163079e-02 0.0000000000000000e+00 1
3.0233029381146714e-01 6.7882520511982736e-02 0.0000000000000000e+00 1
-2.2256635096048547e-01 -8.0153505996539559e-02 0.0000000000000000e+00 1
6.1094323745180902e-02 4.1572181070994960e-02 0.0000000000000000e+00 1
-8.7313732600664634e-02 -4.3287501357194433e-02 0.0000000000000000e+00 1
-3.6577956892270169e-01 -7.5503188530625570e-02 0.0000000000000000e+00 1
-3.7405327581566378e-01 -7.7649448484544706e-02 0.0000000000000000e+00 1
-8.5192154851670754e-02 1.7620110540727948e-03 0.0000000000000000e+00 1
3.3585236499885407e-01 6.9061298211072653e-02 0.0000000000000000e+00 1
4.8306860321224346e-02 3.7752009859670685e-02 0.0000000000000000e+00 1
-3.3355924465870362e-01 -6.6655836734055257e-02 0.0000000000000000e+00 1
1.3432737310508364e-01 5.0140774999650063e-02 0.0000000000000000e+00 1
3.0309634203684582e-01 5.9862303631051786e-02 0.0000000000000000e+00 1
8.4297185047024853e-02 -4.3108246488276301e-03 0.0000000000000000e+00 1
2.1933727497352076e-01 3.5281732730128704e-02 0.0000000000000000e+00 1
-3.2243136317301535e-01 -7.5716748279293186e-02 0.0000000000000000e+00 1
-1.5465207405451675e-01 -1.9707205156254085e-02 0.0000000000000000e+00 1
-1.0021025172019640e-01 -1.9633194751340908e-03 0.0000000000000000e+00 1
3.4885588227371456e-01 6.8248469862783157e-02 0.0000000000000000e+00 1
-1.4208146041628184e-01 -7.0353534913134030e-04 0.0000000000000000e+00 1
-2.7214936340987739e-01 -6.0365527317110625e-02 0.0000000000000000e+00 1
-9.7455072998966025e-02 -6.0524364499599248e-02 0.0000000000000000e+00 1
-1.2717664078265889e-01 3.8902700102196089e-03 0.0000000000000000e+00 1
3.1068802873075257e-01 6.9511598474324268e-02 0.0000000000000000e+00 1
-1.1353371658865104e-01 -5.0949364890940249e-02 0.0000000000000000e+00 1
-7.0419625893452548e-02 6.0858702023532437e-03 0.0000000000000000e+00 1
-1.1587979801886700e-01 -5.8227822082277773e-03 0.0000000000000000e+00 1
7.2286668522688405e-02 -8.1801509905327172e-03 0.0000000000000000e+00 1
1.6411552381896835e-01 6.9049818797907600e-02 0.0000000000000000e+00 1
-1.3109711300995477e-01 -5.8448895156631306e-02 0.0000000000000000e+00 1
-3.8750296833984155e-01 -8.0724491901397827e-02 0.0000000000000000e+00 1
-2.2841693459086787e-01 -7.2514129765558558e-02 0.0000000000000000e+00 1
-5.5146019941043067e-02 1.0348132009839793e-02 0.0000000000000000e+00 1
1.4909353385740068e-01 7.8572473057102618e-02 0.0000000000000000e+00 1
1.5187805933396295e-01 7.5410070538253535e-02 0.0000000000000000e+00 1
2.5457326596702479e-01 7.2729313367111498e-02 0.0000000000000000e+00 1
3.2654974694909279e-02 2.2966466524704889e-02 0.0000000000000000e+00 1
1.7710882430951605e-01 3.1018266282277364e-02 0.0000000000000000e+00 1
5.0876196045292581e-03 2.6270315755378054e-02 0.0000000000000000e+00 1
1.5859921495925716e-01 7.0460472676034058e-02 0.0000000000000000e+00 1
1.7333950646998816e-01 7.4895030469416937e-02 0.0000000000000000e+00 1
-3.1749368908128922e-01 -8.1633065274176242e-02 0.0000000000000000e+00 1
2.9936002530185196e-01 4.7317078484922004e-02 0.0000000000000000e+00 1
2.1205701167088181e-01 8.2700124378484285e-02 0.0000000000000000e+00 1
2.4450195014329941e-02 3.0761294113124227e-02 0.0000000000000000e+00 1
4.0097549407838967e-02 -2.6153830966377543e-02 0.0000000000000000e+00 1
3.4262415483190267e-01 6.9538385644289255e-02 0.0000000000000000e+00 1
-3.5345407337053797e-01 -7.8902955492363744e-02 0.0000000000000000e+00 1
5.6978991579992117e-02 -2.3639448737452169e-02 0.0000000000000000e+00 1
-2.6801591902109195e-01 -4.9496633246461794e-02 0.0000000000000000e+00 1

Edges
155
1 2 1
2 3 1
3 4 1
4 5 1
5 6 1
6 7 1
7 8 1
8 9 1
9 10 1
10 11 1
11 12 1
12 13 1
13 14 1
14 15 1
15 16 1
16 17 1
17 18 1
18 19 1
19 20 1
20 21 1
21 22 1
22 23 1
23 24 1
24 25 1
25 26 1
26 27 1
27 28 1
28 29 1
29 30 1
30 31 1
31 32 1
32 33 1
33 34 1
34 35 1
35 36 1
36 37 1
37 38 1
38 39 1
39 40 1
40 41 1
41 42 1
42 43 1
43 44 1
44 45 1
45 46 1
46 47 1
47 48 1
48 49 1
49 50 1
50 51 1
51 52 1
52 53 1
53 54 1
54 55 1
55 56 1
56 57 1
57 58 1
58 59 1
59 60 1
60 61 1
61 62 1
62 63 1
63 64 1
64 65 1
65 66 1
66 67 1
67 68 1
68 69 1
69 70 1
70 71 1
71 72 1
72 73 1
73 74 1
74 75 1
75 76 1
76 77 1
77 78 1
78 79 1
79 80 1
80 81 1
81 82 1
82 83 1
83 84 1
84 85 1
85 86 1
86 87 1
87 88 1
88 89 1
89 90 1
90 91 1
91 92 1
92 93 1
93 94 1
94 95 1
95 96 1
96 97 1
97 98 1
98 99 1
99 100 1
100 101 1
101 102 1
102 103 1
103 104 1
104 105 1
105 106 1
106 107 1
107 108 1
108 109 1
109 110 1
110 111 1
111 112 1
112 113 1
113 114 1
114 115 1
115 116 1
116 117 1
117 118 1
118 119 1
119 120 1
120 121 1
121 122 1
122 123 1
123 124 1
124 125 1
125 126 1
126 127 1
127 128 1
128 129 1
129 130 1
130 131 1
131 132 1
132 133 1
133 134 1
134 135 1
135 136 1
136 137 1
137 138 1
138 139 1
139 140 1
140 141 1
141 142 1
142 143 1
143 144 1
144 145 1
145 146 1
146 147 1
147 148 1
148 149 1
149 150 1
150 151 1
151 152 1
152 153 1
153 154 1
154 155 1
155 1 1

Triangles
1035
380 441 443 1
148 149 217 1
390 202 392 1
211 216 275 1
278 208 501 1
311 309 422 1
359 172 535 1
309 312 422 1
22 23 378 1
172 359 478 1
312 421 422 1
378 23 576 1
275 278 501 1
258 159 259 1
441 380 577 1
81 82 431 1
198 148 217 1
392 202 393 1
3 4 269 1
158 499 511 1
499 341 511 1
421 312 423 1
216 66 275 1
391 190 454 1
374 375 492 1
494 203 557 1
442 198 525 1
384 235 490 1
224 374 492 1
178 365 459 1
225 227 264 1
442 199 510 1
385 384 490 1
65 66 216 1
202 390 395 1
312 306 424 1
410 203 494 1
440 199 442 1
150 151 217 1
266 209 267 1
538 255 543 1
278 68 449 1
190 391 516 1
64 438 565 1
306 304 424 1
447 451 453 1
159 258 261 1
4 195 269 1
115 116 423 1
341 430 511 1
198 442 510 1
68 69 449 1
430 341 519 1
172 478 496 1
365 367 459 1
136 137 410 1
163 413 461 1
478 357 496 1
444 416 505 1
380 443 553 1
236 225 264 1
210 154 439 1
446 197 553 1
433 166 592 1
432 166 433 1
211 275 501 1
204 81 431 1
50 538 543 1
250 444 505 1
23 171 576 1
472 128 500 1
399 431 570 1
227 231 264 1
179 487 513 1
342 373 374 1
316 456 512 1
137 203 410 1
413 163 590 1
419 307 591 1
215 64 565 1
176 115 423 1
362 170 539 1
101 102 580 1
204 399 420 1
170 362 551 1
370 188 537 1
447 453 530 1
437 216 470 1
154 155 439 1
487 405 513 1
266 267 443 1
307 419 585 1
2 209 266 1
216 437 438 1
372 220 479 1
514 442 525 1
260 259 448 1
116 421 423 1
188 370 546 1
56 57 395 1
398 399 570 1
552 446 553 1
209 3 269 1
151 214 217 1
166 432 450 1
432 320 450 1
82 196 431 1
398 548 559 1
356 472 500 1
423 312 424 1
368 487 533 1
548 398 570 1
456 169 512 1
382 161 383 1
406 200 408 1
171 386 576 1
280 372 479 1
229 375 376 1
158 381 385 1
399 204 431 1
375 229 492 1
214 514 525 1
200 136 410 1
259 159 528 1
48 161 382 1
70 71 449 1
214 152 514 1
342 374 558 1
218 219 415 1
262 260 263 1
376 385 490 1
380 475 577 1
57 202 395 1
487 368 567 1
152 153 514 1
342 283 373 1
388 193 395 1
243 260 262 1
386 171 571 1
210 440 442 1
143 144 380 1
381 382 384 1
210 439 440 1
387 193 388 1
392 393 394 1
534 201 536 1
63 215 277 1
216 211 470 1
269 195 270 1
200 406 411 1
381 384 385 1
189 369 480 1
193 56 395 1
459 367 465 1
218 415 581 1
277 215 593 1
311 422 507 1
67 68 278 1
372 342 517 1
203 138 279 1
452 516 548 1
313 550 556 1
168 428 481 1
555 277 593 1
550 414 556 1
398 397 399 1
275 67 278 1
283 285 373 1
183 54 396 1
365 178 578 1
428 308 481 1
54 55 396 1
408 200 410 1
138 139 279 1
155 1 205 1
466 357 498 1
261 247 413 1
517 342 558 1
390 388 395 1
402 194 411 1
235 384 584 1
208 278 449 1
237 238 412 1
243 259 260 1
320 428 474 1
265 379 486 1
430 519 531 1
164 445 518 1
450 320 474 1
397 213 399 1
434 433 592 1
153 154 210 1
64 65 438 1
71 208 449 1
373 325 374 1
167 430 531 1
66 67 275 1
61 213 397 1
375 326 376 1
413 247 461 1
238 241 412 1
369 189 455 1
498 352 504 1
133 194 400 1
400 194 401 1
233 243 262 1
194 134 411 1
382 383 384 1
399 213 420 1
176 423 424 1
16 521 549 1
377 359 378 1
325 326 375 1
231 262 264 1
357 350 498 1
381 47 382 1
62 63 277 1
281 342 372 1
233 237 243 1
213 62 277 1
247 261 412 1
243 258 259 1
158 46 381 1
344 359 377 1
158 385 499 1
451 447 509 1
333 334 386 1
401 194 402 1
197 380 553 1
231 233 262 1
134 135 411 1
47 48 382 1
536 201 552 1
1 2 266 1
63 64 215 1
219 222 415 1
288 324 325 1
548 394 559 1
71 72 208 1
183 396 493 1
288 325 373 1
406 402 411 1
285 288 373 1
45 46 158 1
132 133 400 1
102 103 165 1
380 144 475 1
274 534 536 1
60 61 397 1
374 325 375 1
53 183 416 1
102 165 218 1
162 109 427 1
241 247 412 1
180 118 417 1
192 480 489 1
109 110 427 1
213 277 420 1
403 402 404 1
401 402 403 1
173 112 425 1
421 180 422 1
55 193 396 1
385 376 499 1
48 49 161 1
181 120 418 1
276 255 538 1
567 368 596 1
280 281 372 1
175 498 504 1
348 350 357 1
206 60 397 1
354 360 364 1
325 324 326 1
404 406 407 1
344 346 359 1
173 425 426 1
407 408 409 1
193 387 396 1
145 146 199 1
480 369 489 1
340 344 377 1
189 132 400 1
222 236 415 1
241 245 247 1
281 283 342 1
112 113 425 1
135 200 411 1
243 237 258 1
222 225 236 1
61 62 213 1
206 397 398 1
403 404 405 1
117 180 421 1
331 333 371 1
199 440 577 1
46 47 381 1
416 183 505 1
334 340 386 1
133 134 194 1
177 276 538 1
365 366 367 1
318 329 362 1
177 52 416 1
407 406 408 1
359 346 478 1
360 361 365 1
135 136 200 1
258 237 412 1
445 164 574 1
140 141 201 1
348 357 478 1
131 132 189 1
354 355 360 1
137 138 203 1
129 130 192 1
52 53 416 1
167 43 430 1
73 74 211 1
378 359 535 1
404 402 406 1
352 353 354 1
104 105 280 1
119 181 417 1
350 351 352 1
126 127 188 1
424 304 508 1
42 167 429 1
270 272 274 1
2 3 209 1
114 176 419 1
348 349 350 1
389 390 391 1
121 186 418 1
124 125 184 1
43 44 430 1
51 52 177 1
59 60 206 1
476 564 573 1
310 314 328 1
340 377 386 1
113 419 425 1
346 347 348 1
155 205 439 1
257 389 435 1
303 320 432 1
117 118 180 1
344 345 346 1
118 119 417 1
116 117 421 1
321 299 433 1
142 143 197 1
111 173 414 1
321 433 434 1
121 122 186 1
57 58 202 1
370 184 546 1
113 114 419 1
267 209 268 1
119 120 181 1
340 343 344 1
53 54 183 1
376 326 499 1
367 366 368 1
371 170 551 1
110 111 414 1
261 258 412 1
391 390 392 1
55 56 193 1
114 115 176 1
111 112 173 1
257 388 389 1
273 494 557 1
182 41 429 1
147 148 198 1
192 130 480 1
40 182 436 1
256 257 435 1
227 230 231 1
108 109 162 1
316 318 456 1
110 414 427 1
303 305 320 1
42 43 167 1
331 332 333 1
337 295 445 1
299 301 433 1
231 232 233 1
120 121 418 1
41 42 429 1
365 361 366 1
107 468 469 1
165 103 479 1
572 336 579 1
389 388 390 1
334 339 340 1
197 143 380 1
448 259 528 1
360 355 361 1
329 330 331 1
4 5 195 1
97 98 157 1
285 287 288 1
252 253 256 1
177 416 444 1
40 41 182 1
305 308 428 1
151 152 214 1
354 353 355 1
104 280 479 1
131 189 480 1
105 106 160 1
462 405 523 1
201 446 552 1
318 319 329 1
45 158 511 1
301 432 433 1
320 305 428 1
516 394 548 1
206 393 589 1
352 351 353 1
288 323 324 1
316 317 318 1
39 40 436 1
301 303 432 1
295 297 445 1
464 371 571 1
127 128 472 1
350 349 351 1
229 376 490 1
105 160 280 1
428 168 474 1
164 39 436 1
368 455 596 1
198 217 525 1
452 190 516 1
348 347 349 1
38 39 164 1
233 234 237 1
314 315 316 1
249 251 252 1
245 248 461 1
270 195 271 1
280 160 281 1
210 442 514 1
435 185 483 1
248 249 447 1
249 252 447 1
310 311 314 1
393 202 589 1
94 95 159 1
262 263 264 1
245 246 248 1
256 253 257 1
346 345 347 1
327 291 460 1
297 299 321 1
566 363 569 1
248 447 530 1
308 309 310 1
6 7 191 1
308 310 481 1
65 216 438 1
344 343 345 1
241 242 245 1
297 321 445 1
73 211 501 1
98 99 379 1
468 322 469 1
238 240 241 1
305 306 308 1
108 162 468 1
340 339 343 1
252 251 253 1
91 92 163 1
293 295 337 1
333 332 334 1
89 90 451 1
128 129 500 1
84 85 190 1
274 272 279 1
80 81 204 1
303 304 305 1
82 83 196 1
86 87 185 1
331 330 332 1
201 141 446 1
291 293 460 1
257 387 388 1
106 107 469 1
8 9 187 1
318 362 456 1
185 435 541 1
35 36 166 1
288 287 323 1
301 302 303 1
430 44 511 1
247 245 461 1
358 290 485 1
329 319 330 1
231 230 232 1
521 364 549 1
88 89 174 1
318 317 319 1
220 165 479 1
141 142 446 1
391 392 516 1
189 400 596 1
11 12 179 1
159 261 515 1
458 363 566 1
352 354 504 1
316 315 317 1
32 33 168 1
34 35 450 1
417 572 579 1
310 309 311 1
13 14 459 1
299 300 301 1
314 311 315 1
248 246 249 1
292 290 358 1
14 15 178 1
85 86 454 1
270 271 272 1
29 30 169 1
219 221 222 1
297 298 299 1
90 91 453 1
293 337 460 1
308 306 309 1
183 493 505 1
245 242 246 1
17 18 175 1
289 291 327 1
257 253 387 1
270 274 594 1
357 466 496 1
26 27 170 1
20 21 172 1
305 304 306 1
295 296 297 1
23 24 171 1
303 302 304 1
107 108 468 1
296 294 313 1
188 127 472 1
371 333 571 1
83 84 452 1
233 232 234 1
368 366 455 1
35 166 450 1
7 8 457 1
241 240 242 1
78 79 207 1
346 348 478 1
237 234 238 1
96 97 448 1
218 165 219 1
249 250 251 1
301 300 302 1
302 300 307 1
334 338 339 1
297 296 298 1
366 361 369 1
281 282 283 1
9 10 462 1
429 167 542 1
299 298 300 1
174 89 451 1
386 377 576 1
405 404 523 1
24 25 464 1
456 362 524 1
293 294 295 1
564 186 573 1
103 104 479 1
33 34 474 1
184 458 566 1
220 372 517 1
222 223 225 1
86 185 454 1
12 13 465 1
18 19 466 1
451 90 453 1
422 180 579 1
326 324 341 1
309 306 312 1
455 189 596 1
295 294 296 1
191 7 457 1
190 85 454 1
285 286 287 1
289 327 463 1
84 190 452 1
314 316 512 1
353 351 356 1
91 163 453 1
291 292 293 1
443 267 553 1
292 358 467 1
283 284 285 1
187 523 547 1
289 286 290 1
249 246 250 1
34 450 474 1
293 292 294 1
347 345 370 1
317 315 336 1
287 286 289 1
310 328 481 1
330 319 335 1
468 162 503 1
334 332 338 1
343 339 458 1
8 187 457 1
87 88 483 1
144 145 475 1
313 294 467 1
168 33 474 1
503 162 526 1
323 287 463 1
185 87 483 1
204 420 495 1
142 197 446 1
225 226 227 1
291 290 292 1
289 290 291 1
76 77 212 1
228 229 490 1
130 131 480 1
79 80 495 1
187 9 462 1
339 338 363 1
244 255 276 1
405 462 513 1
285 284 286 1
88 174 483 1
188 472 522 1
14 178 459 1
331 371 551 1
425 419 591 1
75 76 437 1
287 289 463 1
362 329 551 1
366 369 455 1
31 32 484 1
196 83 452 1
179 12 465 1
32 168 484 1
435 389 541 1
235 228 490 1
524 362 539 1
160 106 469 1
272 271 273 1
13 459 465 1
244 239 254 1
238 239 240 1
409 408 494 1
171 24 464 1
227 228 230 1
157 98 379 1
361 355 489 1
97 157 448 1
72 73 501 1
294 292 467 1
170 371 568 1
281 160 282 1
282 160 469 1
319 317 477 1
322 282 469 1
284 282 322 1
283 282 284 1
332 330 476 1
184 125 546 1
37 434 592 1
186 569 573 1
408 410 494 1
175 18 466 1
100 101 156 1
339 363 458 1
242 240 471 1
51 177 538 1
173 426 556 1
195 5 506 1
274 536 594 1
268 209 269 1
265 486 520 1
168 481 484 1
49 50 543 1
279 139 534 1
225 223 226 1
184 370 563 1
80 204 495 1
403 405 487 1
374 224 558 1
202 58 589 1
396 387 493 1
167 531 542 1
387 253 493 1
126 188 546 1
6 191 506 1
232 230 473 1
507 422 579 1
199 146 510 1
508 307 585 1
238 234 239 1
369 361 489 1
317 336 477 1
205 266 443 1
350 352 498 1
240 239 244 1
335 319 477 1
244 254 255 1
367 368 533 1
330 335 476 1
271 195 506 1
99 100 486 1
22 378 535 1
124 184 566 1
338 332 476 1
252 256 509 1
228 226 229 1
260 448 587 1
219 220 221 1
222 221 223 1
102 218 580 1
186 122 569 1
169 30 497 1
77 78 482 1
223 221 224 1
227 226 228 1
393 206 559 1
244 276 471 1
355 353 491 1
230 228 235 1
188 522 537 1
353 356 491 1
20 172 496 1
290 286 485 1
445 321 518 1
59 206 589 1
240 244 471 1
253 251 493 1
19 20 496 1
489 355 491 1
466 19 496 1
203 279 557 1
31 484 497 1
523 407 547 1
481 328 484 1
74 75 470 1
30 31 497 1
171 464 571 1
276 177 561 1
391 454 541 1
298 296 502 1
315 311 507 1
286 284 485 1
274 279 534 1
230 235 473 1
236 264 575 1
441 205 443 1
11 179 513 1
159 95 528 1
234 232 488 1
304 302 508 1
146 147 510 1
284 322 485 1
145 199 475 1
254 239 488 1
94 159 515 1
153 210 514 1
75 437 470 1
379 99 486 1
140 201 534 1
360 365 578 1
462 10 513 1
38 164 595 1
162 427 526 1
444 250 527 1
439 205 441 1
205 1 266 1
163 92 590 1
129 192 500 1
458 184 563 1
354 364 504 1
169 497 512 1
371 464 568 1
36 37 592 1
21 22 535 1
207 79 495 1
232 473 488 1
493 251 505 1
298 502 583 1
440 439 441 1
78 207 482 1
268 536 552 1
327 460 545 1
239 234 488 1
29 169 524 1
17 175 521 1
484 328 497 1
5 6 506 1
169 456 524 1
447 252 509 1
219 165 220 1
358 503 526 1
15 16 549 1
175 466 498 1
261 413 515 1
383 161 544 1
427 414 550 1
229 226 492 1
426 502 556 1
465 367 533 1
341 324 519 1
384 383 584 1
296 313 502 1
226 223 492 1
545 460 560 1
223 224 492 1
392 394 516 1
187 462 523 1
472 356 522 1
326 341 499 1
527 471 561 1
192 489 491 1
100 156 486 1
251 250 505 1
475 199 577 1
543 255 544 1
358 485 503 1
328 314 512 1
170 27 539 1
356 351 522 1
10 11 513 1
93 94 515 1
307 300 583 1
250 246 527 1
255 254 544 1
44 45 511 1
263 260 587 1
302 307 508 1
26 170 568 1
347 370 537 1
267 552 553 1
96 448 528 1
336 315 507 1
322 468 503 1
174 451 509 1
176 424 585 1
242 471 527 1
464 25 568 1
343 458 563 1
434 37 595 1
497 328 512 1
448 157 587 1
502 426 583 1
491 356 500 1
403 487 567 1
370 345 563 1
221 220 517 1
76 212 437 1
307 583 591 1
509 256 582 1
149 150 217 1
279 272 557 1
212 77 482 1
164 518 595 1
264 263 575 1
404 407 523 1
485 322 503 1
321 434 518 1
560 337 574 1
179 465 533 1
95 96 528 1
394 393 559 1
333 386 571 1
192 491 500 1
16 17 521 1
175 504 521 1
139 140 534 1
460 337 560 1
487 179 533 1
338 476 573 1
324 323 519 1
337 445 574 1
415 236 586 1
224 221 517 1
461 248 530 1
379 265 532 1
28 29 524 1
161 49 543 1
269 270 594 1
418 186 564 1
502 313 556 1
181 418 554 1
351 349 522 1
444 527 561 1
69 70 449 1
407 409 547 1
506 191 540 1
180 417 579 1
420 277 555 1
526 427 550 1
417 181 572 1
157 379 532 1
174 509 582 1
256 435 582 1
389 391 541 1
246 242 527 1
93 515 590 1
454 185 541 1
467 358 526 1
211 74 470 1
50 51 538 1
267 268 552 1
163 461 530 1
364 360 578 1
323 463 531 1
519 323 531 1
28 524 539 1
532 265 575 1
329 331 551 1
147 198 510 1
27 28 539 1
182 429 545 1
414 173 556 1
453 163 530 1
569 363 573 1
522 349 537 1
437 212 438 1
125 126 546 1
424 508 585 1
419 176 585 1
515 413 590 1
349 347 537 1
377 378 576 1
172 21 535 1
207 495 555 1
217 214 525 1
182 545 560 1
436 182 560 1
463 327 542 1
400 401 596 1
123 566 569 1
504 364 521 1
273 271 540 1
486 156 520 1
177 444 561 1
401 403 567 1
540 191 588 1
436 560 574 1
206 398 559 1
58 59 589 1
123 124 566 1
271 506 540 1
336 507 579 1
92 93 590 1
531 463 542 1
122 123 569 1
435 483 582 1
254 488 529 1
178 15 549 1
161 543 544 1
313 467 550 1
529 383 544 1
164 436 574 1
426 425 591 1
208 72 501 1
401 567 596 1
488 473 529 1
467 526 550 1
196 452 548 1
25 26 568 1
457 187 547 1
562 540 588 1
37 38 595 1
409 494 562 1
345 343 563 1
494 273 562 1
166 36 592 1
272 273 557 1
431 196 570 1
335 477 554 1
300 298 583 1
335 554 564 1
495 420 555 1
363 338 573 1
483 174 582 1
263 532 575 1
529 473 584 1
191 457 588 1
554 418 564 1
268 269 594 1
476 335 564 1
583 426 591 1
471 276 561 1
383 529 584 1
457 547 588 1
477 336 572 1
440 441 577 1
547 409 588 1
554 477 572 1
156 101 580 1
473 235 584 1
438 212 565 1
181 554 572 1
212 482 565 1
518 434 595 1
520 156 581 1
415 520 581 1
482 207 593 1
254 529 544 1
224 517 558 1
207 555 593 1
532 263 587 1
542 327 545 1
429 542 545 1
157 532 587 1
520 415 586 1
196 548 570 1
273 540 562 1
549 364 578 1
565 482 593 1
575 265 586 1
156 580 581 1
178 549 578 1
536 268 594 1
265 520 586 1
236 575 586 1
215 565 593 1
409 562 588 1
580 218 581 1

End
