MeshVersionFormatted 2
Dimension 3

Vertices
877
-1.4705515483666717e-02 -3.9084678030627318e-01 0.0000000000000000e+00 1
-1.3982769844586906e-02 -3.9451989108768570e-01 0.0000000000000000e+00 1
-1.2568452998368177e-02 -3.9858925648273236e-01 0.0000000000000000e+00 1
-1.0527056588739522e-02 -4.0299236954318052e-01 0.0000000000000000e+00 1
-7.9230722594299217e-03 -4.0766672332079745e-01 0.0000000000000000e+00 1
-4.8209916541683455e-03 -4.1254981086735065e-01 0.0000000000000000e+00 1
-1.2853064166837768e-03 -4.1757912523460705e-01 0.0000000000000000e+00 1
2.6194918092947847e-03 -4.2269215947433425e-01 0.0000000000000000e+00 1
6.8289113800383749e-03 -4.2782640663829974e-01 0.0000000000000000e+00 1
1.1278460651818013e-02 -4.3291935977827034e-01 0.0000000000000000e+00 1
1.5903647980904698e-02 -4.3790851194601377e-01 0.0000000000000000e+00 1
2.0639981723569470e-02 -4.4273135619329718e-01 0.0000000000000000e+00 1
2.5422970236083340e-02 -4.4732538557188795e-01 0.0000000000000000e+00 1
3.0188121874717314e-02 -4.5162809313355323e-01 0.0000000000000000e+00 1
3.4870944995742420e-02 -4.5557697193006064e-01 0.0000000000000000e+00 1
3.9406947955429698e-02 -4.5910951501317732e-01 0.0000000000000000e+00 1
4.3731639110050124e-02 -4.6216321543467054e-01 0.0000000000000000e+00 1
4.7780526815874740e-02 -4.6467556624630768e-01 0.0000000000000000e+00 1
5.1489119429174571e-02 -4.6658406049985601e-01 0.0000000000000000e+00 1
5.4792925306220618e-02 -4.6782619124708291e-01 0.0000000000000000e+00 1
5.7627452803283900e-02 -4.6833945153975565e-01 0.0000000000000000e+00 1
5.9928210276635460e-02 -4.6806133442964171e-01 0.0000000000000000e+00 1
6.1630706082546290e-02 -4.6692933296850814e-01 0.0000000000000000e+00 1
6.2670448577287402e-02 -4.6488094020812243e-01 0.0000000000000000e+00 1
6.2982946117129845e-02 -4.6185364920025174e-01 0.0000000000000000e+00 1
6.2827315560784344e-02 -4.5128621652687251e-01 0.0000000000000000e+00 1
6.2784180718798821e-02 -4.4043459356603254e-01 0.0000000000000000e+00 1
6.2847311530710326e-02 -4.2930820171687156e-01 0.0000000000000000e+00 1
6.3010477936055853e-02 -4.1791646237852831e-01 0.0000000000000000e+00 1
6.3267449874372453e-02 -4.0626879695014251e-01 0.0000000000000000e+00 1
6.3611997285197133e-02 -3.9437462683085311e-01 0.0000000000000000e+00 1
6.4037890108066889e-02 -3.8224337341979941e-01 0.0000000000000000e+00 1
6.4538898282518756e-02 -3.6988445811612070e-01 0.0000000000000000e+00 1
6.5108791748089798e-02 -3.5730730231895624e-01 0.0000000000000000e+00 1
6.5741340444316967e-02 -3.4452132742744529e-01 0.0000000000000000e+00 1
6.6430314310737301e-02 -3.3153595484072701e-01 0.0000000000000000e+00 1
6.7169483286887863e-02 -3.1836060595794075e-01 0.0000000000000000e+00 1
6.7952617312305591e-02 -3.0500470217822562e-01 0.0000000000000000e+00 1
6.8773486326527564e-02 -2.9147766490072108e-01 0.0000000000000000e+00 1
6.9625860269090817e-02 -2.7778891552456619e-01 0.0000000000000000e+00 1
7.0503509079532289e-02 -2.6394787544890025e-01 0.0000000000000000e+00 1
7.1400202697389073e-02 -2.4996396607286250e-01 0.0000000000000000e+00 1
7.2309711062198176e-02 -2.3584660879559230e-01 0.0000000000000000e+00 1
7.3225804113496620e-02 -2.2160522501622881e-01 0.0000000000000000e+00 1
7.4142251790821387e-02 -2.0724923613391122e-01 0.0000000000000000e+00 1
7.5052824033709511e-02 -1.9278806354777889e-01 0.0000000000000000e+00 1
7.5951290781698030e-02 -1.7823112865697097e-01 0.0000000000000000e+00 1
7.6831421974323966e-02 -1.6358785286062680e-01 0.0000000000000000e+00 1
7.7686987551124326e-02 -1.4886765755788561e-01 0.0000000000000000e+00 1
7.8511757451636119e-02 -1.3407996414788653e-01 0.0000000000000000e+00 1
7.9299501615396367e-02 -1.1923419402976893e-01 0.0000000000000000e+00 1
8.0043989981942135e-02 -1.0433976860267208e-01 0.0000000000000000e+00 1
8.0738992490810374e-02 -8.9406109265735223e-02 0.0000000000000000e+00 1
8.1378279081538149e-02 -7.4442637418097507e-02 0.0000000000000000e+00 1
8.1955619693662440e-02 -5.9458774458898217e-02 0.0000000000000000e+00 1
8.2464784266720298e-02 -4.4463941787276640e-02 0.0000000000000000e+00 1
8.2899542740248758e-02 -2.9467560802372006e-02 0.0000000000000000e+00 1
8.3253665053784814e-02 -1.4479052903323575e-02 0.0000000000000000e+00 1
8.3520921146865462e-02 4.9216051072942246e-04 0.0000000000000000e+00 1
8.3695080959027751e-02 1.5436658040647755e-02 0.0000000000000000e+00 1
8.3769914429808717e-02 3.0345018287292108e-02 0.0000000000000000e+00 1
8.3739191498745355e-02 4.5207819851523279e-02 0.0000000000000000e+00 1
8.3596682105374687e-02 6.0015641334202036e-02 0.0000000000000000e+00 1
8.3336156189233734e-02 7.4759061336189064e-02 0.0000000000000000e+00 1
8.2951383689859506e-02 8.9428658458345273e-02 0.0000000000000000e+00 1
8.2436134546789053e-02 1.0401501130153115e-01 0.0000000000000000e+00 1
8.1784178699559354e-02 1.1850869846660758e-01 0.0000000000000000e+00 1
8.0989286087707446e-02 1.3290029855443544e-01 0.0000000000000000e+00 1
8.0045226650770379e-02 1.4718039016587534e-01 0.0000000000000000e+00 1
7.8945770328285106e-02 1.6133955190178814e-01 0.0000000000000000e+00 1
7.7684687059788676e-02 1.7536836236303435e-01 0.0000000000000000e+00 1
7.6255746784818126e-02 1.8925740015047501e-01 0.0000000000000000e+00 1
7.4652719442910506e-02 2.0299724386497073e-01 0.0000000000000000e+00 1
7.2869374973602768e-02 2.1657847210738221e-01 0.0000000000000000e+00 1
7.0899483316431949e-02 2.2999166347857034e-01 0.0000000000000000e+00 1
6.8736814410935099e-02 2.4322739657939571e-01 0.0000000000000000e+00 1
6.6375138196649183e-02 2.5627625001071941e-01 0.0000000000000000e+00 1
6.3808224613111253e-02 2.6912880237340164e-01 0.0000000000000000e+00 1
6.1029843599858337e-02 2.8177563226830371e-01 0.0000000000000000e+00 1
5.8033765096427485e-02 2.9420731829628588e-01 0.0000000000000000e+00 1
5.4813759042355643e-02 3.0641443905820920e-01 0.0000000000000000e+00 1
5.1363595377179848e-02 3.1838757315493449e-01 0.0000000000000000e+00 1
4.7677044040437162e-02 3.3011729918732213e-01 0.0000000000000000e+00 1
4.3747874971664553e-02 3.4159419575623340e-01 0.0000000000000000e+00 1
3.9569858110399092e-02 3.5280884146252856e-01 0.0000000000000000e+00 1
3.5136763396177738e-02 3.6375181490706876e-01 0.0000000000000000e+00 1
3.0442360768537586e-02 3.7441369469071439e-01 0.0000000000000000e+00 1
2.5480420167015572e-02 3.8478505941432639e-01 0.0000000000000000e+00 1
2.0244711531148797e-02 3.9485648767876558e-01 0.0000000000000000e+00 1
1.4729004800474232e-02 4.0461855808489244e-01 0.0000000000000000e+00 1
8.9270699145288686e-03 4.1406184923356804e-01 0.0000000000000000e+00 1
2.8326768128498049e-03 4.2317693972565307e-01 0.0000000000000000e+00 1
-3.5604045650260248e-03 4.3195440816200814e-01 0.0000000000000000e+00 1
-1.0258404279561515e-02 4.4038483314349397e-01 0.0000000000000000e+00 1
-1.7267552391219739e-02 4.4845879327097149e-01 0.0000000000000000e+00 1
-2.4594078960463582e-02 4.5616686714530130e-01 0.0000000000000000e+00 1
-3.2244214047756119e-02 4.6349963336734434e-01 0.0000000000000000e+00 1
-3.9522183353541927e-02 4.6975474287453600e-01 0.0000000000000000e+00 1
-4.6381752080677643e-02 4.7484659008782992e-01 0.0000000000000000e+00 1
-5.2831735154094575e-02 4.7880271755736237e-01 0.0000000000000000e+00 1
-5.8880947498723975e-02 4.8165066783326849e-01 0.0000000000000000e+00 1
-6.4538204039497199e-02 4.8341798346568488e-01 0.0000000000000000e+00 1
-6.9812319701345452e-02 4.8413220700474668e-01 0.0000000000000000e+00 1
-7.4712109409200075e-02 4.8382088100058973e-01 0.0000000000000000e+00 1
-7.9246388087992323e-02 4.8251154800335017e-01 0.0000000000000000e+00 1
-8.3423970662653446e-02 4.8023175056316314e-01 0.0000000000000000e+00 1
-8.7253672058114837e-02 4.7700903123016525e-01 0.0000000000000000e+00 1
-9.0744307199307678e-02 4.7287093255449142e-01 0.0000000000000000e+00 1
-9.3904691011163291e-02 4.6784499708627814e-01 0.0000000000000000e+00 1
-9.6743638418613026e-02 4.6195876737566088e-01 0.0000000000000000e+00 1
-9.9269964346588052e-02 4.5523978597277526e-01 0.0000000000000000e+00 1
-1.0149248372001972e-01 4.4771559542775730e-01 0.0000000000000000e+00 1
-1.0342001146383929e-01 4.3941373829074248e-01 0.0000000000000000e+00 1
-1.0506136250297814e-01 4.3036175711186686e-01 0.0000000000000000e+00 1
-1.0642535176236738e-01 4.2058719444126591e-01 0.0000000000000000e+00 1
-1.0752079416693845e-01 4.1011759282907589e-01 0.0000000000000000e+00 1
-1.0835650464162261e-01 3.9898049482543230e-01 0.0000000000000000e+00 1
-1.0894129811135103e-01 3.8720344298047071e-01 0.0000000000000000e+00 1
-1.0928398950105513e-01 3.7481397984432696e-01 0.0000000000000000e+00 1
-1.0939339373566619e-01 3.6183964796713741e-01 0.0000000000000000e+00 1
-1.0927832574011538e-01 3.4830798989903711e-01 0.0000000000000000e+00 1
-1.0894760043933407e-01 3.3424654819016197e-01 0.0000000000000000e+00 1
-1.0841003275825360e-01 3.1968286539064805e-01 0.0000000000000000e+00 1
-1.0767443762180515e-01 3.0464448405063105e-01 0.0000000000000000e+00 1
-1.0674962995492003e-01 2.8915894672024656e-01 0.0000000000000000e+00 1
-1.0564442468252952e-01 2.7325379594963028e-01 0.0000000000000000e+00 1
-1.0436763672956501e-01 2.5695657428891849e-01 0.0000000000000000e+00 1
-1.0292808102095762e-01 2.4029482428824619e-01 0.0000000000000000e+00 1
-1.0133457248163873e-01 2.2329608849774971e-01 0.0000000000000000e+00 1
-9.9595926036539648e-02 2.0598790946756498e-01 0.0000000000000000e+00 1
-9.7720956610591617e-02 1.8839782974782729e-01 0.0000000000000000e+00 1
-9.5718479128725900e-02 1.7055339188867255e-01 0.0000000000000000e+00 1
-9.3597308515873862e-02 1.5248213844023670e-01 0.0000000000000000e+00 1
-9.1366259696966698e-02 1.3421161195265532e-01 0.0000000000000000e+00 1
-8.9034147596935759e-02 1.1576935497606441e-01 0.0000000000000000e+00 1
-8.6609787140712324e-02 9.7182910060599620e-02 0.0000000000000000e+00 1
-8.4101993253227605e-02 7.8479819756396535e-02 0.0000000000000000e+00 1
-8.1519580859413007e-02 5.9687626613591283e-02 0.0000000000000000e+00 1
-7.8871364884199713e-02 4.0833873182319264e-02 0.0000000000000000e+00 1
-7.6166160252519044e-02 2.1946102012716601e-02 0.0000000000000000e+00 1
-7.3412781889302309e-02 3.0518556549187503e-03 0.0000000000000000e+00 1
-7.0620044719480773e-02 -1.5821323340938179e-02 0.0000000000000000e+00 1
-6.7796763667985760e-02 -3.4645892424718605e-02 0.0000000000000000e+00 1
-6.4951753659748465e-02 -5.3394309046286864e-02 0.0000000000000000e+00 1
-6.2093829619700232e-02 -7.2039030655506986e-02 0.0000000000000000e+00 1
-5.9231806472772354e-02 -9.0552514702243334e-02 0.0000000000000000e+00 1
-5.6374499143896098e-02 -1.0890721863635996e-01 0.0000000000000000e+00 1
-5.3530722558002765e-02 -1.2707559990772135e-01 0.0000000000000000e+00 1
-5.0709291640023635e-02 -1.4503011596619145e-01 0.0000000000000000e+00 1
-4.7919021314889995e-02 -1.6274322426163462e-01 0.0000000000000000e+00 1
-4.5168726507533112e-02 -1.8018738224391523e-01 0.0000000000000000e+00 1
-4.2467222142884294e-02 -1.9733504736289720e-01 0.0000000000000000e+00 1
-3.9823323145874806e-02 -2.1415867706844510e-01 0.0000000000000000e+00 1
-3.7245844441435964e-02 -2.3063072881042282e-01 0.0000000000000000e+00 1
-3.4743600954499042e-02 -2.4672366003869475e-01 0.0000000000000000e+00 1
-3.2325407609995284e-02 -2.6240992820312525e-01 0.0000000000000000e+00 1
-3.0000079332856051e-02 -2.7766199075357823e-01 0.0000000000000000e+00 1
-2.7776431048012553e-02 -2.9245230513991827e-01 0.0000000000000000e+00 1
-2.5663277680396137e-02 -3.0675332881200934e-01 0.0000000000000000e+00 1
-2.3669434154938045e-02 -3.2053751921971585e-01 0.0000000000000000e+00 1
-2.1803715396569594e-02 -3.3377733381290181e-01 0.0000000000000000e+00 1
-2.0074936330222056e-02 -3.4644523004143152e-01 0.0000000000000000e+00 1
-1.8491911880826706e-02 -3.5851366535516938e-01 0.0000000000000000e+00 1
-1.7063456973314847e-02 -3.6995509720397945e-01 0.0000000000000000e+00 1
-1.5798386532617746e-02 -3.8074198303772600e-01 0.0000000000000000e+00 1
-7.7692563751848610e-03 -3.9926515104409427e-01 0.0000000000000000e+00 1
2.8079226511408470e-02 3.5433425758822246e-01 0.0000000000000000e+00 1
4.2596354130671032e-02 3.1155093853865840e-01 0.0000000000000000e+00 1
5.1864503973381389e-02 2.6171093429719289e-01 0.0000000000000000e+00 1
9.5605659495607929e-03 3.9430241194472582e-01 0.0000000000000000e+00 1
6.2026070779436310e-02 2.0794938023126891e-01 0.0000000000000000e+00 1
6.7146533956669113e-02 1.5393620285009785e-01 0.0000000000000000e+00 1
-1.3915863621586713e-02 4.2946493359000137e-01 0.0000000000000000e+00 1
-9.6454983694794105e-02 3.1361906067676237e-01 0.0000000000000000e+00 1
-9.1169593774330732e-02 2.6471070978365685e-01 0.0000000000000000e+00 1
7.0355931222723669e-02 9.5694341293438262e-02 0.0000000000000000e+00 1
7.0590241402164577e-02 5.2556934951123291e-02 0.0000000000000000e+00 1
-9.7174661169600329e-02 3.5597198136662317e-01 0.0000000000000000e+00 1
-8.5527218163721719e-02 2.1554784972256225e-01 0.0000000000000000e+00 1
-9.9377722726827558e-02 3.9170437950375098e-01 0.0000000000000000e+00 1
-7.9275772508640333e-02 1.6293787231334533e-01 0.0000000000000000e+00 1
-9.0459802089277230e-02 4.6255578458548269e-01 0.0000000000000000e+00 1
7.1867386459759097e-02 9.6507620987152723e-03 0.0000000000000000e+00 1
-9.6374341934720748e-02 4.3373220631409559e-01 0.0000000000000000e+00 1
-7.1608276762243461e-02 1.0743414152435415e-01 0.0000000000000000e+00 1
7.0638071862746732e-02 -3.7892371459670143e-02 0.0000000000000000e+00 1
9.9448327126343749e-04 -4.1227517938632852e-01 0.0000000000000000e+00 1
6.6744109455444678e-02 -7.9658757539124894e-02 0.0000000000000000e+00 1
-6.1882413920239202e-02 5.1611168678085670e-02 0.0000000000000000e+00 1
-4.7109667557454299e-02 4.6669955030330862e-01 0.0000000000000000e+00 1
6.5843544562271927e-02 -1.2677458397658467e-01 0.0000000000000000e+00 1
-5.5377473651216813e-02 -4.5153437785219290e-03 0.0000000000000000e+00 1
6.3778800488240861e-02 -1.6908839888612948e-01 0.0000000000000000e+00 1
-4.7459371113218220e-02 -5.9966745004898694e-02 0.0000000000000000e+00 1
6.2563616958175083e-02 -2.1316337648527098e-01 0.0000000000000000e+00 1
1.3351015486994309e-02 -4.2689938407321898e-01 0.0000000000000000e+00 1
-8.8540240067417134e-03 -3.7234217329499641e-01 0.0000000000000000e+00 1
-6.7911289277244227e-02 4.7911767661308918e-01 0.0000000000000000e+00 1
-3.9153940370043765e-02 -1.1519262477093362e-01 0.0000000000000000e+00 1
6.0206326161984944e-02 -2.5672414931478676e-01 0.0000000000000000e+00 1
5.2127790638492391e-02 -3.8886665265251386e-01 0.0000000000000000e+00 1
5.7674030448546028e-02 -2.9819642461655022e-01 0.0000000000000000e+00 1
-1.0715682034738570e-02 -3.3854220832605414e-01 0.0000000000000000e+00 1
-3.1693823944805244e-02 -1.6918379888070006e-01 0.0000000000000000e+00 1
-2.2415733387392587e-02 -2.3685213939394967e-01 0.0000000000000000e+00 1
-1.7363125020166941e-02 -2.8255318621759318e-01 0.0000000000000000e+00 1
5.4956193749267114e-02 -3.5066675468788200e-01 0.0000000000000000e+00 1
2.7155234534331045e-02 -4.4104751349577953e-01 0.0000000000000000e+00 1
-1.3477071788242921e-02 -3.1195885602875928e-01 0.0000000000000000e+00 1
-8.2939261163017364e-02 4.7495116465148035e-01 0.0000000000000000e+00 1
-2.7260395535508686e-02 -2.0375521765695365e-01 0.0000000000000000e+00 1
5.3528820696522490e-02 -4.1212066614202275e-01 0.0000000000000000e+00 1
5.5715796857560229e-02 -3.2437907520986858e-01 0.0000000000000000e+00 1
6.8850432250473187e-02 1.2522766902255000e-01 0.0000000000000000e+00 1
6.5003053165219385e-02 1.8044745534285328e-01 0.0000000000000000e+00 1
-9.8189284135176136e-02 4.1443333910826297e-01 0.0000000000000000e+00 1
5.8832676659246644e-02 2.3481133747443400e-01 0.0000000000000000e+00 1
4.9733516162228014e-02 2.8388377431785528e-01 0.0000000000000000e+00 1
-3.4469796618003951e-02 4.5352072244136465e-01 0.0000000000000000e+00 1
3.7109946672044314e-02 3.3134579629784461e-01 0.0000000000000000e+00 1
2.0037277295895606e-02 3.7520740704491190e-01 0.0000000000000000e+00 1
3.5844325699116844e-02 -4.4967164818345579e-01 0.0000000000000000e+00 1
-1.4230719938436113e-03 4.1242923374208251e-01 0.0000000000000000e+00 1
4.4292684042002740e-02 -4.5682728593638183e-01 0.0000000000000000e+00 1
-9.4142213822120790e-02 4.4963479198811557e-01 0.0000000000000000e+00 1
5.1335275984867521e-02 -4.6311119119940580e-01 0.0000000000000000e+00 1
5.8253505659832512e-02 -4.6628594297983572e-01 0.0000000000000000e+00 1
-5.8150436029160701e-02 4.7505935951321782e-01 0.0000000000000000e+00 1
5.3223656894774110e-02 -4.3373365736541697e-01 0.0000000000000000e+00 1
-9.5312568324479197e-03 -3.9234823694820364e-01 0.0000000000000000e+00 1
-7.5898844249646227e-02 4.7878302024173236e-01 0.0000000000000000e+00 1
5.6808556882685400e-02 -4.5706670088105839e-01 0.0000000000000000e+00 1
5.5233783345505716e-02 -4.4846840490824758e-01 0.0000000000000000e+00 1
5.3079719828473107e-02 -4.2305253919467972e-01 0.0000000000000000e+00 1
4.4344709690994195e-02 -4.1757312964311311e-01 0.0000000000000000e+00 1
4.4357789382430318e-02 -4.0711835001460028e-01 0.0000000000000000e+00 1
3.5441551642345762e-02 -4.1224795601938846e-01 0.0000000000000000e+00 1
3.5474271945461003e-02 -4.0255704534265180e-01 0.0000000000000000e+00 1
2.7394205235788036e-02 -4.0752615097339584e-01 0.0000000000000000e+00 1
2.7228618707712638e-02 -3.9797755078718838e-01 0.0000000000000000e+00 1
1.9293052858009339e-02 -4.0269693758711766e-01 0.0000000000000000e+00 1
1.8779998184740573e-02 -3.9348004819938665e-01 0.0000000000000000e+00 1
2.7348521536551190e-02 -3.8826503200560164e-01 0.0000000000000000e+00 1
1.8293525304168522e-02 -3.8354518906330182e-01 0.0000000000000000e+00 1
2.7152232508996232e-02 -3.7781980137729987e-01 0.0000000000000000e+00 1
1.7921926685853587e-02 -3.7268236466553345e-01 0.0000000000000000e+00 1
2.7157797394239905e-02 -3.6711387526340933e-01 0.0000000000000000e+00 1
1.7123663045546775e-02 -3.6141527250768712e-01 0.0000000000000000e+00 1
2.6934135723815006e-02 -3.5541893303130689e-01 0.0000000000000000e+00 1
1.7472797883165088e-02 -3.4963776247325351e-01 0.0000000000000000e+00 1
2.7191886680495301e-02 -3.4310332045970104e-01 0.0000000000000000e+00 1
1.7231612976268233e-02 -3.3736998084027958e-01 0.0000000000000000e+00 1
2.7273083318632974e-02 -3.3080698403550579e-01 0.0000000000000000e+00 1
1.5987358866244396e-02 -3.2490585978331754e-01 0.0000000000000000e+00 1
2.7014211165188932e-02 -3.1801347683768411e-01 0.0000000000000000e+00 1
1.5463063686550899e-02 -3.1179309868026628e-01 0.0000000000000000e+00 1
2.6806930565136517e-02 -3.0477634714128177e-01 0.0000000000000000e+00 1
1.4933028228076172e-02 -2.9837449804266925e-01 0.0000000000000000e+00 1
2.6576161618131828e-02 -2.9120801952951508e-01 0.0000000000000000e+00 1
1.4390726683765608e-02 -2.8462122350125851e-01 0.0000000000000000e+00 1
2.6334177816820962e-02 -2.7727245971988418e-01 0.0000000000000000e+00 1
1.3852705533107298e-02 -2.7053353045907841e-01 0.0000000000000000e+00 1
2.6051986265293765e-02 -2.6299212139884781e-01 0.0000000000000000e+00 1
1.3493300615602411e-02 -2.5643276458172448e-01 0.0000000000000000e+00 1
2.5715427779460953e-02 -2.4852584783441420e-01 0.0000000000000000e+00 1
1.3455799380971892e-02 -2.4179425107787469e-01 0.0000000000000000e+00 1
2.5439563648729551e-02 -2.3368657802973811e-01 0.0000000000000000e+00 1
1.2753131164506378e-02 -2.2654694839439382e-01 0.0000000000000000e+00 1
2.5223137419046998e-02 -2.1851037637267484e-01 0.0000000000000000e+00 1
1.1692102447496956e-02 -2.1135104392675291e-01 0.0000000000000000e+00 1
2.4771374401325933e-02 -2.0319808911030318e-01 0.0000000000000000e+00 1
1.1109935712562117e-02 -1.9586789130121898e-01 0.0000000000000000e+00 1
2.4373469161883300e-02 -1.8762958942149191e-01 0.0000000000000000e+00 1
1.0825310060196679e-02 -1.8019602339832758e-01 0.0000000000000000e+00 1
2.4025846623838960e-02 -1.7186281335014164e-01 0.0000000000000000e+00 1
1.0523821213418137e-02 -1.6433346811883531e-01 0.0000000000000000e+00 1
2.3653372135629541e-02 -1.5593730674736594e-01 0.0000000000000000e+00 1
9.6764854920164522e-03 -1.4831786064965991e-01 0.0000000000000000e+00 1
2.3261576238685910e-02 -1.3975463619576378e-01 0.0000000000000000e+00 1
9.0394702918653921e-03 -1.3231974274820626e-01 0.0000000000000000e+00 1
2.2735583276157812e-02 -1.2359225268947825e-01 0.0000000000000000e+00 1
8.0146486311224625e-03 -1.1655232287506874e-01 0.0000000000000000e+00 1
2.2287285083187794e-02 -1.0719549368312188e-01 0.0000000000000000e+00 1
7.2233315319123591e-03 -1.0000577550433178e-01 0.0000000000000000e+00 1
2.1831597209208499e-02 -9.0688880662926866e-02 0.0000000000000000e+00 1
6.4213532772371407e-03 -8.2946979071565341e-02 0.0000000000000000e+00 1
2.1187225766871227e-02 -7.4052034444556297e-02 0.0000000000000000e+00 1
5.8113335017812660e-03 -6.6224163010433462e-02 0.0000000000000000e+00 1
2.0654492431686489e-02 -5.7408792508260351e-02 0.0000000000000000e+00 1
5.9538009063615236e-03 -4.9501072509860362e-02 0.0000000000000000e+00 1
2.0255513513938703e-02 -4.0750461221533446e-02 0.0000000000000000e+00 1
5.5552872594453748e-03 -3.2769160639363817e-02 0.0000000000000000e+00 1
1.9793066238585958e-02 -2.4007345245523982e-02 0.0000000000000000e+00 1
5.1811248863542015e-03 -1.6004764397459560e-02 0.0000000000000000e+00 1
1.9638520287558497e-02 -6.9086169903208212e-03 0.0000000000000000e+00 1
4.7941475254972138e-03 8.1808002092443515e-04 0.0000000000000000e+00 1
1.9366246241056647e-02 1.0044447562380019e-02 0.0000000000000000e+00 1
4.2106989839623861e-03 1.7601538670311306e-02 0.0000000000000000e+00 1
1.8546206235995327e-02 2.6539858121800586e-02 0.0000000000000000e+00 1
3.6512215541033054e-03 3.4277486816347576e-02 0.0000000000000000e+00 1
1.7792053345526457e-02 4.2993650758958599e-02 0.0000000000000000e+00 1
3.1251405594685156e-03 5.0888087113126430e-02 0.0000000000000000e+00 1
1.7209101794854104e-02 5.9564745954143392e-02 0.0000000000000000e+00 1
2.6433328898981452e-03 6.7453749143891087e-02 0.0000000000000000e+00 1
1.6649162968763183e-02 7.6066404044131772e-02 0.0000000000000000e+00 1
2.1865803482932081e-03 8.3947486113430239e-02 0.0000000000000000e+00 1
1.6099887401519148e-02 9.2494158712434243e-02 0.0000000000000000e+00 1
1.8210868363425282e-03 1.0031630361660268e-01 0.0000000000000000e+00 1
1.5578035031357573e-02 1.0882418029507474e-01 0.0000000000000000e+00 1
1.4359559687998629e-03 1.1656996269437588e-01 0.0000000000000000e+00 1
1.5042498968449275e-02 1.2500561621337841e-01 0.0000000000000000e+00 1
9.1939093886171577e-04 1.3268017806114757e-01 0.0000000000000000e+00 1
1.4563584580334323e-02 1.4094859451858799e-01 0.0000000000000000e+00 1
5.3144416930302717e-04 1.4861577831561432e-01 0.0000000000000000e+00 1
-1.3215850699790765e-02 1.4035185689783461e-01 0.0000000000000000e+00 1
-1.3654935746526792e-02 1.5642575198697445e-01 0.0000000000000000e+00 1
2.8665226537283518e-04 1.6439985885911423e-01 0.0000000000000000e+00 1
-1.3874494682874655e-02 1.7238337575833990e-01 0.0000000000000000e+00 1
-1.4553003558752530e-04 1.8034209116007519e-01 0.0000000000000000e+00 1
-1.4049276602263870e-02 1.8818543863646800e-01 0.0000000000000000e+00 1
-6.5710847305907325e-04 1.9633194223763606e-01 0.0000000000000000e+00 1
-1.4256934937636013e-02 2.0381799668903544e-01 0.0000000000000000e+00 1
-1.0918636666498553e-03 2.1173404807740343e-01 0.0000000000000000e+00 1
-1.4446398736776828e-02 2.1916359517430364e-01 0.0000000000000000e+00 1
-1.4587674627210324e-03 2.2704990721821325e-01 0.0000000000000000e+00 1
-1.4615237257460067e-02 2.3428082597287703e-01 0.0000000000000000e+00 1
-1.9210032055119643e-03 2.4201521787809099e-01 0.0000000000000000e+00 1
-1.4804735415194416e-02 2.4915604053644874e-01 0.0000000000000000e+00 1
-2.3480343197124567e-03 2.5667850868543629e-01 0.0000000000000000e+00 1
-1.4912342149758881e-02 2.6369493759317297e-01 0.0000000000000000e+00 1
-2.7297857283549035e-03 2.7108645134359455e-01 0.0000000000000000e+00 1
-1.5054939261311583e-02 2.7799157909945127e-01 0.0000000000000000e+00 1
-2.7369245974399339e-02 2.5633552092702389e-01 0.0000000000000000e+00 1
-2.9967781673316167e-03 2.8521830204727472e-01 0.0000000000000000e+00 1
-1.5219773518513408e-02 2.9203950783796873e-01 0.0000000000000000e+00 1
-2.7273737363622881e-02 2.8485970513541786e-01 0.0000000000000000e+00 1
-2.7202379741084585e-02 2.9882871068551842e-01 0.0000000000000000e+00 1
-1.5440404466785795e-02 3.0583848296922234e-01 0.0000000000000000e+00 1
-2.7186409901866687e-02 3.1259206289388519e-01 0.0000000000000000e+00 1
-1.5727006194193732e-02 3.1934954809643779e-01 0.0000000000000000e+00 1
-2.7198179603508250e-02 3.2597343561921305e-01 0.0000000000000000e+00 1
-1.6220292298934312e-02 3.3264270060914602e-01 0.0000000000000000e+00 1
-2.7424393497985214e-02 3.3901370057213170e-01 0.0000000000000000e+00 1
-3.8537175519206129e-02 3.3253509853036067e-01 0.0000000000000000e+00 1
-3.8426874906706786e-02 3.4542813452731363e-01 0.0000000000000000e+00 1
-2.7524244052035511e-02 3.5176113007414811e-01 0.0000000000000000e+00 1
-3.8255267762122722e-02 3.5806074099186813e-01 0.0000000000000000e+00 1
-3.9301089376167331e-02 2.9172737702196849e-01 0.0000000000000000e+00 1
-2.7495106268356693e-02 3.6429214130321153e-01 0.0000000000000000e+00 1
-3.8058034575821492e-02 3.7036567184326397e-01 0.0000000000000000e+00 1
-4.9698347062091211e-02 3.3906026245707777e-01 0.0000000000000000e+00 1
-4.9069775187763731e-02 3.6452363621802580e-01 0.0000000000000000e+00 1
-4.8508707762983286e-02 3.7656576058660107e-01 0.0000000000000000e+00 1
-3.8185257774936872e-02 3.8237957442387582e-01 0.0000000000000000e+00 1
-4.8217233600011560e-02 3.8829275660153806e-01 0.0000000000000000e+00 1
-2.7413600443571631e-02 1.9591158123413732e-01 0.0000000000000000e+00 1
-3.7920481194737475e-02 3.9392425773873746e-01 0.0000000000000000e+00 1
-4.7862091225090754e-02 3.9970809852235833e-01 0.0000000000000000e+00 1
-2.7458323424887632e-02 2.2663023869146570e-01 0.0000000000000000e+00 1
-1.0858155612499743e-02 9.1975764591012532e-02 0.0000000000000000e+00 1
-3.5423820816205759e-03 3.1251902983363811e-01 0.0000000000000000e+00 1
-5.8503784641739325e-02 3.8272649383142998e-01 0.0000000000000000e+00 1
1.3252800834199665e-02 1.8815298792574767e-01 0.0000000000000000e+00 1
-1.6855733456499152e-02 3.5808927935919510e-01 0.0000000000000000e+00 1
1.1736359126997775e-02 2.1968345469080364e-01 0.0000000000000000e+00 1
-2.7494636488242678e-02 3.8811847429184537e-01 0.0000000000000000e+00 1
-1.0759429249737697e-02 2.5450568327341154e-02 0.0000000000000000e+00 1
-2.7660891040440325e-02 1.4805820068927192e-01 0.0000000000000000e+00 1
1.0607958892931349e-02 2.4953158779600140e-01 0.0000000000000000e+00 1
-3.7537573429358220e-02 4.0521598546631782e-01 0.0000000000000000e+00 1
-4.7683690661952639e-02 4.1074052105979986e-01 0.0000000000000000e+00 1
-5.7252837947374749e-02 4.0560216884102496e-01 0.0000000000000000e+00 1
-5.6451143702161435e-02 4.1623107691608091e-01 0.0000000000000000e+00 1
-4.7859267755934083e-02 4.2138508369867106e-01 0.0000000000000000e+00 1
-5.6655164954322032e-02 4.2651075178767373e-01 0.0000000000000000e+00 1
-6.6068048368661439e-02 4.2068348764620439e-01 0.0000000000000000e+00 1
-6.5136042791652110e-02 4.3167163406839615e-01 0.0000000000000000e+00 1
-4.9845778011735772e-02 3.2592096455715236e-01 0.0000000000000000e+00 1
-2.7214332170574861e-02 1.3155611877715132e-01 0.0000000000000000e+00 1
-5.6656918817670709e-02 4.3633875136918610e-01 0.0000000000000000e+00 1
-6.4947994898310976e-02 4.4102535880175364e-01 0.0000000000000000e+00 1
-6.1239632721325377e-02 3.3263179263040876e-01 0.0000000000000000e+00 1
-8.7386858349197804e-03 -2.4851538334402318e-02 0.0000000000000000e+00 1
-1.1594132594907550e-02 5.8780322917947228e-02 0.0000000000000000e+00 1
9.1631033855851477e-03 2.7848109472583937e-01 0.0000000000000000e+00 1
-6.1454076810004567e-02 3.1934054925795885e-01 0.0000000000000000e+00 1
3.1121653810368397e-02 6.8290174793447150e-02 0.0000000000000000e+00 1
-4.1642612122699971e-02 1.3894706979594751e-01 0.0000000000000000e+00 1
3.4335945086189271e-02 -1.5001013979070591e-02 0.0000000000000000e+00 1
3.2548149118542404e-02 3.5527071455510290e-02 0.0000000000000000e+00 1
2.8435653407331750e-02 1.3347363139248411e-01 0.0000000000000000e+00 1
2.7972100683955371e-02 1.4906968533530779e-01 0.0000000000000000e+00 1
-4.9754016812367432e-03 -1.4186323542578161e-01 0.0000000000000000e+00 1
-7.2792481581090807e-02 4.3666051789524041e-01 0.0000000000000000e+00 1
-7.2464729627711569e-02 4.4567118648774506e-01 0.0000000000000000e+00 1
-6.4953346086935621e-02 4.4980156586927872e-01 0.0000000000000000e+00 1
-7.2010800067374370e-02 4.5412840593979487e-01 0.0000000000000000e+00 1
2.9901617434835537e-02 1.0073818522177910e-01 0.0000000000000000e+00 1
-4.0834245982708892e-02 1.5548296690920946e-01 0.0000000000000000e+00 1
1.1220581220623180e-02 -3.9887150382304648e-01 0.0000000000000000e+00 1
-8.8146315043037514e-03 -9.2805357469189692e-02 0.0000000000000000e+00 1
3.7292486644633166e-02 -1.4743969043998809e-01 0.0000000000000000e+00 1
3.5863865367016343e-02 -4.2247184639748880e-01 0.0000000000000000e+00 1
-6.4768584642856689e-02 4.5819060076173168e-01 0.0000000000000000e+00 1
-7.1778832858973809e-02 4.6203821223307684e-01 0.0000000000000000e+00 1
3.5237929682183811e-02 -6.5349512611385913e-02 0.0000000000000000e+00 1
3.6999830976583374e-02 -9.8320939802441568e-02 0.0000000000000000e+00 1
-5.7669917542239081e-02 4.5389521927113857e-01 0.0000000000000000e+00 1
3.5908253357264483e-02 -3.7378118577012820e-01 0.0000000000000000e+00 1
-8.2020482081088305e-03 -5.8322460726293081e-02 0.0000000000000000e+00 1
8.8623950156569951e-03 2.9227789584527086e-01 0.0000000000000000e+00 1
-1.6825752357553129e-02 3.7029909881919504e-01 0.0000000000000000e+00 1
-6.3560095440128410e-03 3.6434335321008465e-01 0.0000000000000000e+00 1
5.7240148593172280e-03 -3.5415257720930704e-01 0.0000000000000000e+00 1
3.7953835044724646e-02 -1.9502651566681356e-01 0.0000000000000000e+00 1
-6.1093105625707869e-02 3.4580626566422690e-01 0.0000000000000000e+00 1
-7.2621996421887922e-02 3.3939063714744333e-01 0.0000000000000000e+00 1
-7.2528358514324959e-02 3.5257518089988099e-01 0.0000000000000000e+00 1
2.1141542835704536e-02 2.8539457713437338e-01 0.0000000000000000e+00 1
2.2410906402886101e-02 2.7065625182873637e-01 0.0000000000000000e+00 1
-6.1906246576557133e-03 3.5205768316847502e-01 0.0000000000000000e+00 1
-6.5356937638762361e-03 3.7634352942680582e-01 0.0000000000000000e+00 1
-4.1386460288601747e-02 1.2246739243464200e-01 0.0000000000000000e+00 1
-8.0140478598390616e-02 4.4151110095531543e-01 0.0000000000000000e+00 1
-8.0684594428012429e-02 4.3281078250531563e-01 0.0000000000000000e+00 1
1.9602321026943009e-02 -4.1178336072096744e-01 0.0000000000000000e+00 1
2.0330208425519771e-02 2.9910771785439505e-01 0.0000000000000000e+00 1
-3.9425920511130731e-02 2.7763366268388040e-01 0.0000000000000000e+00 1
-5.1918732816263698e-02 2.8459638073959426e-01 0.0000000000000000e+00 1
-5.1910349124023800e-02 2.7009390383886561e-01 0.0000000000000000e+00 1
4.1807461850323635e-03 3.5834801413548489e-01 0.0000000000000000e+00 1
4.4205890156481537e-03 3.4623014182171913e-01 0.0000000000000000e+00 1
2.2578327800160079e-03 -2.6464461562154473e-01 0.0000000000000000e+00 1
4.1340390833269819e-02 1.4182712228764460e-01 0.0000000000000000e+00 1
4.0798114689042410e-02 1.5711706267298764e-01 0.0000000000000000e+00 1
4.2069128906262451e-02 1.2595559610121670e-01 0.0000000000000000e+00 1
-6.4657341266993643e-02 2.7739238365110036e-01 0.0000000000000000e+00 1
-6.4362039780080621e-02 2.6241716769878021e-01 0.0000000000000000e+00 1
-6.4204769758422042e-02 2.9189105244725333e-01 0.0000000000000000e+00 1
-5.1709709108573490e-02 2.5527780677236966e-01 0.0000000000000000e+00 1
-6.4354101832781230e-02 2.4705553716222509e-01 0.0000000000000000e+00 1
3.8066300379548140e-02 -2.4087368134397735e-01 0.0000000000000000e+00 1
2.7644844134102956e-02 1.6435327780102824e-01 0.0000000000000000e+00 1
4.0242869058023663e-02 1.7221233659129645e-01 0.0000000000000000e+00 1
1.7730328333082302e-04 -2.1961286515518114e-01 0.0000000000000000e+00 1
3.8332335416488186e-02 -2.7020650149400277e-01 0.0000000000000000e+00 1
-7.8512989514808007e-02 4.5842903129338097e-01 0.0000000000000000e+00 1
-2.2737458258914045e-03 -1.8696079344672012e-01 0.0000000000000000e+00 1
3.7616776537466590e-02 -3.3692019961302805e-01 0.0000000000000000e+00 1
-5.1459989402623765e-02 2.4010690099115020e-01 0.0000000000000000e+00 1
3.8129146897718784e-02 -3.1131893087379348e-01 0.0000000000000000e+00 1
-5.6496131740983176e-02 1.3065448594536244e-01 0.0000000000000000e+00 1
-7.7975377237587656e-02 2.8513314403800016e-01 0.0000000000000000e+00 1
-7.7926536090804216e-02 4.6592581547244061e-01 0.0000000000000000e+00 1
-7.1819658205566475e-02 4.6895543928896788e-01 0.0000000000000000e+00 1
-5.0315083799552754e-02 3.1260896532156190e-01 0.0000000000000000e+00 1
-6.4241412894222111e-02 2.3187914260933612e-01 0.0000000000000000e+00 1
-5.1188078464203340e-02 2.2469416682432622e-01 0.0000000000000000e+00 1
-2.6359088534681337e-02 1.1546772514077927e-01 0.0000000000000000e+00 1
-4.1438619871748787e-02 1.0547501284890257e-01 0.0000000000000000e+00 1
8.9095143047255802e-03 -3.7847133736943772e-01 0.0000000000000000e+00 1
-7.5421124851657750e-02 2.9943800321342257e-01 0.0000000000000000e+00 1
-7.7048634969274013e-02 2.4042027743346361e-01 0.0000000000000000e+00 1
1.2797720758154505e-03 -2.9338700492225306e-01 0.0000000000000000e+00 1
-6.6986039117673923e-02 2.1564349441033831e-01 0.0000000000000000e+00 1
-5.1384120842203375e-02 2.0888544390256153e-01 0.0000000000000000e+00 1
-6.4123618213384220e-02 1.9913588928183296e-01 0.0000000000000000e+00 1
-5.0720952109535318e-02 1.9279300648630793e-01 0.0000000000000000e+00 1
3.2112456608923298e-02 2.9219137751561297e-01 0.0000000000000000e+00 1
-6.5448257862976492e-02 1.8390120543268468e-01 0.0000000000000000e+00 1
-5.7619571332974476e-02 4.6223097398475022e-01 0.0000000000000000e+00 1
5.2638810058532465e-03 -3.2052366342030525e-01 0.0000000000000000e+00 1
4.4506997302266427e-02 -4.2909681516986242e-01 0.0000000000000000e+00 1
4.4585304853753290e-02 -4.3889789144213970e-01 0.0000000000000000e+00 1
3.5356607391480617e-02 -4.3141322539911187e-01 0.0000000000000000e+00 1
2.8884777715437515e-02 -4.2714467729656247e-01 0.0000000000000000e+00 1
-8.3933219470847475e-02 3.4620409376048644e-01 0.0000000000000000e+00 1
-8.4231794665391685e-02 3.3288838121542136e-01 0.0000000000000000e+00 1
5.4064804346445484e-02 1.6529807507796546e-01 0.0000000000000000e+00 1
4.3797880909741543e-02 -3.9705011586576067e-01 0.0000000000000000e+00 1
1.2343430231652221e-02 -4.0729761313491408e-01 0.0000000000000000e+00 1
1.2280266144837293e-02 -4.1576126506575745e-01 0.0000000000000000e+00 1
5.8912978775296290e-03 -4.0352519216528582e-01 0.0000000000000000e+00 1
2.9549959199447382e-03 -3.9586574119715712e-01 0.0000000000000000e+00 1
1.9028605023689655e-02 -4.1853353237192015e-01 0.0000000000000000e+00 1
9.0610375246747733e-03 -3.8930321740504104e-01 0.0000000000000000e+00 1
1.7511601792389712e-03 -3.8456166757941829e-01 0.0000000000000000e+00 1
-8.3892963304235846e-02 3.5982781450268503e-01 0.0000000000000000e+00 1
-7.2080907591160648e-02 3.6544863783268272e-01 0.0000000000000000e+00 1
-8.3149409995755930e-02 3.7211944324695834e-01 0.0000000000000000e+00 1
-7.0313857476691277e-02 3.7921853816310580e-01 0.0000000000000000e+00 1
-8.1971324195879436e-02 3.8439232560695147e-01 0.0000000000000000e+00 1
-7.2580832619431074e-02 3.9172151185157111e-01 0.0000000000000000e+00 1
-8.1794930615716965e-02 3.9620767875407104e-01 0.0000000000000000e+00 1
-7.2827211939573658e-02 4.0317922612430546e-01 0.0000000000000000e+00 1
-8.1653155234005653e-02 4.0741984644563722e-01 0.0000000000000000e+00 1
-9.3530769041397413e-02 3.7870085261277164e-01 0.0000000000000000e+00 1
3.5633848330534484e-02 -4.4034849050121289e-01 0.0000000000000000e+00 1
2.6777170536968972e-02 -4.1794075708560874e-01 0.0000000000000000e+00 1
-5.0137188415456585e-02 4.5836732804948987e-01 0.0000000000000000e+00 1
-5.0460228782892559e-02 4.4950971959761205e-01 0.0000000000000000e+00 1
-6.5395541420525408e-02 4.6559746056708567e-01 0.0000000000000000e+00 1
5.4867225847457943e-02 1.3351254296001874e-01 0.0000000000000000e+00 1
-5.1691720675109215e-02 1.7817684302097062e-01 0.0000000000000000e+00 1
2.6946674234544318e-02 1.8008408828176217e-01 0.0000000000000000e+00 1
3.9251069017875617e-02 1.8841121881197326e-01 0.0000000000000000e+00 1
-7.2530501212921261e-02 4.1244481232935482e-01 0.0000000000000000e+00 1
-8.1577404127401970e-02 4.1641868754524536e-01 0.0000000000000000e+00 1
-6.5574031057179696e-02 4.7311232892300187e-01 0.0000000000000000e+00 1
-7.9279418906360255e-02 4.5024082847941976e-01 0.0000000000000000e+00 1
-8.6007310271521004e-02 4.5543112735069058e-01 0.0000000000000000e+00 1
8.5680355314309460e-03 3.0572615312034329e-01 0.0000000000000000e+00 1
1.9896074798615597e-02 3.1235350187248723e-01 0.0000000000000000e+00 1
8.1581194883819288e-03 3.1894439764967530e-01 0.0000000000000000e+00 1
1.8976195280458710e-02 3.2529372184386662e-01 0.0000000000000000e+00 1
7.6575733347423692e-03 3.3403040539164869e-01 0.0000000000000000e+00 1
1.9549309251238330e-02 3.3797637570154254e-01 0.0000000000000000e+00 1
3.1038789859596322e-02 3.2001587337865811e-01 0.0000000000000000e+00 1
-1.6849663391614457e-02 3.8219964222359604e-01 0.0000000000000000e+00 1
-7.1550156938609156e-03 3.8805249155146632e-01 0.0000000000000000e+00 1
3.5442835697462897e-03 3.8300089390214515e-01 0.0000000000000000e+00 1
-1.6903350197794400e-02 3.9381917780255338e-01 0.0000000000000000e+00 1
-6.8369789268065591e-03 4.0127258199771765e-01 0.0000000000000000e+00 1
-1.7242362751103878e-02 4.0548502950915433e-01 0.0000000000000000e+00 1
-7.8639935688040716e-02 1.9072165909328742e-01 0.0000000000000000e+00 1
1.5426289049828628e-02 3.5335878624351946e-01 0.0000000000000000e+00 1
-3.0850210673430719e-03 -3.9043305136731787e-01 0.0000000000000000e+00 1
-9.0448567868360169e-02 2.9222360157719501e-01 0.0000000000000000e+00 1
-4.1281477858356994e-02 4.6079781059380631e-01 0.0000000000000000e+00 1
-8.2966879806764277e-03 -3.5241300258232711e-01 0.0000000000000000e+00 1
-2.6607093615380398e-04 -3.4203492440327543e-01 0.0000000000000000e+00 1
-2.9938489054789153e-03 -3.6380619380932411e-01 0.0000000000000000e+00 1
5.4147362717779146e-02 -3.7614966598975152e-01 0.0000000000000000e+00 1
5.4769389766179108e-02 -3.6349881146812479e-01 0.0000000000000000e+00 1
4.5971975226579850e-02 -3.5646456766342560e-01 0.0000000000000000e+00 1
-4.8175945818815603e-02 4.3146926738058494e-01 0.0000000000000000e+00 1
-3.9314393198886348e-02 4.2679146623950848e-01 0.0000000000000000e+00 1
-3.9937541635590490e-02 4.3672410010370299e-01 0.0000000000000000e+00 1
-3.0932598273481729e-02 4.3245511544575832e-01 0.0000000000000000e+00 1
-2.9146996512492522e-02 4.2175800129052188e-01 0.0000000000000000e+00 1
-3.2393302843538349e-02 4.4253260372456726e-01 0.0000000000000000e+00 1
-2.1887404850133279e-02 4.3845202922810855e-01 0.0000000000000000e+00 1
-3.2948179478605754e-03 2.9893656194228629e-01 0.0000000000000000e+00 1
-6.1399662266309482e-02 3.5909098379040510e-01 0.0000000000000000e+00 1
-9.6948622317036770e-02 3.4128846704989657e-01 0.0000000000000000e+00 1
3.1697967523046017e-02 5.1896851549795148e-02 0.0000000000000000e+00 1
4.4934173306200600e-02 6.0504487856821929e-02 0.0000000000000000e+00 1
4.4706824698308396e-02 7.6362063657753346e-02 0.0000000000000000e+00 1
5.8655602036556426e-02 6.8804793420924715e-02 0.0000000000000000e+00 1
5.7870554129152943e-02 8.6399744152916819e-02 0.0000000000000000e+00 1
4.3875650428142988e-02 9.3585614464327754e-02 0.0000000000000000e+00 1
4.5581358213475420e-02 4.4438846274731603e-02 0.0000000000000000e+00 1
4.6963010988824168e-02 2.8416880252641708e-02 0.0000000000000000e+00 1
6.0564948630442594e-02 3.7215033361085545e-02 0.0000000000000000e+00 1
3.3541044907641822e-02 1.9387636472145173e-02 0.0000000000000000e+00 1
4.8137312834138385e-02 1.2227539520923416e-02 0.0000000000000000e+00 1
3.3948483129837524e-02 2.1319556186638767e-03 0.0000000000000000e+00 1
4.8671829422440555e-02 -6.9582588740739332e-03 0.0000000000000000e+00 1
4.8049853043858823e-02 -2.3255444322613145e-02 0.0000000000000000e+00 1
6.0260828520661516e-02 -1.4644396112070704e-02 0.0000000000000000e+00 1
1.2540116504407173e-02 2.0418180444108586e-01 0.0000000000000000e+00 1
2.4917170026488439e-02 2.1244793027110964e-01 0.0000000000000000e+00 1
2.4283004570663111e-02 2.2736645297249858e-01 0.0000000000000000e+00 1
3.6962920200845212e-02 2.2012738316799510e-01 0.0000000000000000e+00 1
3.6297007415682411e-02 2.3404902191248669e-01 0.0000000000000000e+00 1
3.7845946702210961e-02 2.0608460123370737e-01 0.0000000000000000e+00 1
2.3713122481148433e-02 2.4176725339392596e-01 0.0000000000000000e+00 1
3.5626496335720792e-02 2.4774392300147280e-01 0.0000000000000000e+00 1
2.3400668126832357e-02 2.5586750360934252e-01 0.0000000000000000e+00 1
3.6711617706991682e-02 2.6231825410111598e-01 0.0000000000000000e+00 1
3.3570147417204516e-02 2.7762379631063649e-01 0.0000000000000000e+00 1
-2.0607428205182465e-02 -2.5216473363801162e-01 0.0000000000000000e+00 1
-9.8010275192001520e-03 -2.4345307008591824e-01 0.0000000000000000e+00 1
-1.9639655538584478e-02 -2.6773851321913555e-01 0.0000000000000000e+00 1
3.6374443016058640e-02 -8.1854299167195554e-02 0.0000000000000000e+00 1
5.0142896212988383e-02 -7.3103518710059975e-02 0.0000000000000000e+00 1
4.8410433031529990e-02 -5.6984318704143985e-02 0.0000000000000000e+00 1
6.1084888688061820e-02 -6.2828897664028632e-02 0.0000000000000000e+00 1
5.1111811551380795e-02 -8.9791272294080460e-02 0.0000000000000000e+00 1
5.1535407733062907e-02 -1.0630849459730818e-01 0.0000000000000000e+00 1
3.6945028235389893e-02 -1.1486311115197759e-01 0.0000000000000000e+00 1
3.7095541440817767e-02 -1.3119983115643191e-01 0.0000000000000000e+00 1
5.0944396969406225e-02 -1.3935825699381296e-01 0.0000000000000000e+00 1
5.1020571648034030e-02 -1.5503127784255366e-01 0.0000000000000000e+00 1
-8.8140231655138290e-02 4.3749304672888789e-01 0.0000000000000000e+00 1
-8.8762809168585560e-02 4.2879666067147360e-01 0.0000000000000000e+00 1
-2.7079970615464563e-02 3.9961104221169619e-01 0.0000000000000000e+00 1
-2.6813254278419664e-02 4.1088343924095883e-01 0.0000000000000000e+00 1
-1.7786917180913856e-02 4.1779248859776297e-01 0.0000000000000000e+00 1
-4.5001017424711968e-03 3.2620770441239105e-01 0.0000000000000000e+00 1
2.5792296219954360e-02 1.9656043849423099e-01 0.0000000000000000e+00 1
5.0671827943882891e-02 1.9847941525086180e-01 0.0000000000000000e+00 1
-2.5094495961465679e-02 -2.2110937449496798e-01 0.0000000000000000e+00 1
-5.7887884134143752e-02 3.9431947103034526e-01 0.0000000000000000e+00 1
-2.9787757195754529e-02 -1.8655063059892765e-01 0.0000000000000000e+00 1
-1.6670625679243822e-02 -1.7791591208177066e-01 0.0000000000000000e+00 1
-1.8198392788420503e-02 -1.5863063202946848e-01 0.0000000000000000e+00 1
-9.1542446405681294e-02 4.0242988533887708e-01 0.0000000000000000e+00 1
-1.2142057170442979e-02 -3.2546091472316940e-01 0.0000000000000000e+00 1
-1.3589567954282424e-02 -2.9665274458902507e-01 0.0000000000000000e+00 1
1.1077933122434699e-02 2.3497834741145995e-01 0.0000000000000000e+00 1
3.7231977539006540e-02 -1.6347212705040404e-01 0.0000000000000000e+00 1
3.4694795001288956e-02 -4.8954654610568568e-02 0.0000000000000000e+00 1
4.7178876947931561e-02 -3.9879168683171401e-02 0.0000000000000000e+00 1
3.7384006989920698e-02 -1.7939706639250785e-01 0.0000000000000000e+00 1
5.0734227928813033e-02 -1.8868399070709202e-01 0.0000000000000000e+00 1
2.9155873467977194e-02 1.1722450154679109e-01 0.0000000000000000e+00 1
4.2877060352283669e-02 1.1004574883460894e-01 0.0000000000000000e+00 1
-1.2686805969570154e-03 -4.0144519806922785e-01 0.0000000000000000e+00 1
-3.7015682951757910e-02 -1.3371489693005711e-01 0.0000000000000000e+00 1
-2.2714532339651247e-02 -1.2217015071656814e-01 0.0000000000000000e+00 1
-2.4168318284413754e-02 -1.0368388410933944e-01 0.0000000000000000e+00 1
-9.0394209688664986e-03 -1.1116477730551587e-01 0.0000000000000000e+00 1
-2.6567027724819246e-02 -8.5123773667131392e-02 0.0000000000000000e+00 1
-4.1606420386409097e-02 -9.6847547725836217e-02 0.0000000000000000e+00 1
1.3740840139014322e-02 1.7229610314886148e-01 0.0000000000000000e+00 1
3.7999747916542481e-02 -2.1085514031005551e-01 0.0000000000000000e+00 1
3.8036046583347943e-02 -2.2627840302980098e-01 0.0000000000000000e+00 1
4.9680790866355365e-02 -2.3454693566405133e-01 0.0000000000000000e+00 1
5.0572289481857394e-02 -2.0458236957720854e-01 0.0000000000000000e+00 1
3.4051341638632215e-02 -3.1974681343746855e-02 0.0000000000000000e+00 1
3.2813698726328767e-03 3.7049578029071878e-01 0.0000000000000000e+00 1
-3.4278103208338996e-02 -1.5187467102072733e-01 0.0000000000000000e+00 1
6.6304661004922147e-02 -9.7039422922315266e-02 0.0000000000000000e+00 1
-2.7484741809420885e-02 3.7627576715083128e-01 0.0000000000000000e+00 1
-7.4487730128775353e-02 1.2697740131609919e-01 0.0000000000000000e+00 1
-7.7883814124100947e-02 1.4527752280016901e-01 0.0000000000000000e+00 1
-6.6199311112339704e-02 1.5392538314132453e-01 0.0000000000000000e+00 1
5.5739750192337165e-02 -3.3760850399795805e-01 0.0000000000000000e+00 1
3.0519548225590460e-02 8.4417727325468636e-02 0.0000000000000000e+00 1
-5.0334637255732936e-02 -4.1668642581622652e-02 0.0000000000000000e+00 1
-3.4055846733861327e-02 -4.7107065926187248e-02 0.0000000000000000e+00 1
-3.6649362348812164e-02 -2.9112065696067092e-02 0.0000000000000000e+00 1
-2.7338698551843298e-02 -6.4778458539334380e-02 0.0000000000000000e+00 1
-5.3156332034662697e-02 -2.2982340016676615e-02 0.0000000000000000e+00 1
-3.8523961477788013e-02 -1.1603834447518717e-02 0.0000000000000000e+00 1
-4.0252174870544541e-02 6.3619486334631509e-03 0.0000000000000000e+00 1
-2.4430429232760627e-02 -8.7829742540547137e-04 0.0000000000000000e+00 1
-5.7468884346171742e-02 1.4055362871691355e-02 0.0000000000000000e+00 1
-4.1550157369442349e-02 2.4725214517516188e-02 0.0000000000000000e+00 1
-5.9300954733310554e-02 3.2714923499712147e-02 0.0000000000000000e+00 1
-4.4032427119438847e-02 4.3129346017878885e-02 0.0000000000000000e+00 1
-4.6028506251905910e-02 6.1800825049846783e-02 0.0000000000000000e+00 1
-6.4045134977081447e-02 7.0233762737674788e-02 0.0000000000000000e+00 1
-4.7866359437597261e-02 7.9566834722231708e-02 0.0000000000000000e+00 1
-2.9335308294720967e-02 7.1649034401420203e-02 0.0000000000000000e+00 1
-6.6397979389069814e-02 8.9886121702619642e-02 0.0000000000000000e+00 1
-2.6777004239986447e-02 3.4310394064811879e-02 0.0000000000000000e+00 1
-3.4673967618101598e-02 8.9344039124051838e-02 0.0000000000000000e+00 1
5.6403583271348777e-02 -3.1124764286656281e-01 0.0000000000000000e+00 1
3.7808890139388894e-02 -2.5595587989025803e-01 0.0000000000000000e+00 1
-7.7760442456843368e-02 4.7301313556736857e-01 0.0000000000000000e+00 1
3.8006174130771633e-02 -2.8405646619302116e-01 0.0000000000000000e+00 1
4.8744923909343832e-02 -2.7765217863858871e-01 0.0000000000000000e+00 1
1.0084136126694598e-02 2.6371689966482503e-01 0.0000000000000000e+00 1
-4.9657172135116959e-02 3.5199500394148620e-01 0.0000000000000000e+00 1
7.4861456812708692e-03 -3.6769812799073304e-01 0.0000000000000000e+00 1
5.1405930117859461e-02 -1.2214520547074094e-01 0.0000000000000000e+00 1
5.5704715297605407e-02 1.1840808789518956e-01 0.0000000000000000e+00 1
4.4244167594174391e-02 -3.8024117804380841e-01 0.0000000000000000e+00 1
-2.6799368166759863e-02 1.6417028265781392e-01 0.0000000000000000e+00 1
-2.8132185512365709e-02 5.1970676529887412e-02 0.0000000000000000e+00 1
5.6740586098506553e-02 1.0247330638790998e-01 0.0000000000000000e+00 1
-9.7417885569531432e-02 4.2477972213986237e-01 0.0000000000000000e+00 1
1.3018479121764535e-02 3.6660456463294244e-01 0.0000000000000000e+00 1
-9.6647085076509764e-02 3.2709014428863903e-01 0.0000000000000000e+00 1
-3.8059195972840576e-02 4.1612908283262962e-01 0.0000000000000000e+00 1
3.8110182102567128e-02 -2.9776759367870764e-01 0.0000000000000000e+00 1
-5.9979449154441290e-02 3.7126234173704165e-01 0.0000000000000000e+00 1
-8.6872374549273920e-02 4.4614198228835650e-01 0.0000000000000000e+00 1
5.9866720432210918e-02 1.8889817608595236e-02 0.0000000000000000e+00 1
-2.7226961774066256e-02 2.4161235872389414e-01 0.0000000000000000e+00 1
-1.6691336803802449e-02 3.4554775099620200e-01 0.0000000000000000e+00 1
5.3773428022634573e-02 -4.0106137223565957e-01 0.0000000000000000e+00 1
-9.0474965137957275e-02 2.4830895731383135e-01 0.0000000000000000e+00 1
-2.5660752712084241e-02 1.6396183985209648e-02 0.0000000000000000e+00 1
-2.7222350664555403e-02 2.1139096410841290e-01 0.0000000000000000e+00 1
-2.6555829458283546e-02 1.8018813635842129e-01 0.0000000000000000e+00 1
1.4219345778044247e-02 1.5656543495899683e-01 0.0000000000000000e+00 1
6.9311996352609540e-02 1.1072118572787107e-01 0.0000000000000000e+00 1
-2.7304218920399378e-03 -4.0748283100817223e-01 0.0000000000000000e+00 1
-1.2738342822058971e-02 1.2412561669848768e-01 0.0000000000000000e+00 1
-7.3502273857152828e-02 4.2781131382232751e-01 0.0000000000000000e+00 1
-1.1121165996053509e-02 -7.5084082217449263e-02 0.0000000000000000e+00 1
-1.1807575826753394e-02 7.5333546530761769e-02 0.0000000000000000e+00 1
6.0535076351882169e-02 2.2160600441358724e-01 0.0000000000000000e+00 1
-1.1025734573234547e-02 4.2154136727419536e-02 0.0000000000000000e+00 1
3.8000129325492800e-02 -3.2424295239859496e-01 0.0000000000000000e+00 1
7.3979586939881357e-03 -3.3338014120801196e-01 0.0000000000000000e+00 1
4.9450753640586625e-02 2.1344367209440518e-01 0.0000000000000000e+00 1
5.6662829764469097e-02 2.4804374032080562e-01 0.0000000000000000e+00 1
5.3718563306113201e-02 2.7339550867391266e-01 0.0000000000000000e+00 1
-5.1021516325743817e-02 2.9882752703415882e-01 0.0000000000000000e+00 1
-8.2437519051037703e-03 -4.1582507361221432e-02 0.0000000000000000e+00 1
4.3898223944854410e-02 2.9720352053394461e-01 0.0000000000000000e+00 1
4.2272648838620631e-03 -3.0764033462853480e-01 0.0000000000000000e+00 1
-7.2819349174534975e-02 3.2614576302848641e-01 0.0000000000000000e+00 1
-2.7243052468685181e-02 2.7069516868183141e-01 0.0000000000000000e+00 1
-4.4049525644793738e-02 -7.8218011715825153e-02 0.0000000000000000e+00 1
-1.4542261653036023e-03 -2.0321558820185270e-01 0.0000000000000000e+00 1
2.8776344550529615e-03 -2.7886737202932932e-01 0.0000000000000000e+00 1
6.5337522347445304e-02 -1.4142249866566867e-01 0.0000000000000000e+00 1
6.7787123881565603e-02 1.4010614332533217e-01 0.0000000000000000e+00 1
3.1005093424906795e-02 3.4239552698184000e-01 0.0000000000000000e+00 1
-3.8588315196130124e-02 3.1923727463162488e-01 0.0000000000000000e+00 1
7.1305149105686139e-02 -5.3390029774193312e-02 0.0000000000000000e+00 1
6.3368444387320463e-02 1.9319621476458404e-01 0.0000000000000000e+00 1
-5.9327328597047965e-03 3.3972201219411607e-01 0.0000000000000000e+00 1
-1.0130854375431018e-02 8.5598729607567221e-03 0.0000000000000000e+00 1
1.4859707766923979e-02 3.8479386904416346e-01 0.0000000000000000e+00 1
4.1951618819404098e-03 4.0343520927374704e-01 0.0000000000000000e+00 1
-8.4080629719993624e-02 4.6307958708360608e-01 0.0000000000000000e+00 1
-8.2951735106066016e-02 4.6961838367901115e-01 0.0000000000000000e+00 1
-9.5073609524185448e-02 4.4235522683965917e-01 0.0000000000000000e+00 1
-7.3272026982333024e-03 4.2094423391622970e-01 0.0000000000000000e+00 1
4.7726685909210021e-03 -4.1700023493917049e-01 0.0000000000000000e+00 1
8.9174427656691698e-03 -4.2182136686600469e-01 0.0000000000000000e+00 1
-5.4504872370780957e-02 4.6842852058660234e-01 0.0000000000000000e+00 1
3.1645351294696734e-02 3.0540382161562596e-01 0.0000000000000000e+00 1
-7.3376809980723462e-02 3.1306242653992183e-01 0.0000000000000000e+00 1
-4.9009995123820295e-02 4.4102724495717177e-01 0.0000000000000000e+00 1
-4.1080260750609963e-02 4.4653014305955324e-01 0.0000000000000000e+00 1
-2.1201501415721562e-02 -1.4023121114580012e-01 0.0000000000000000e+00 1
5.3635924419488293e-02 1.4961653509472322e-01 0.0000000000000000e+00 1
1.8024211506384880e-02 -4.3181924722465320e-01 0.0000000000000000e+00 1
5.9695610688635256e-02 -4.6342165139198999e-01 0.0000000000000000e+00 1
5.5827500812330171e-02 -4.6351334211416351e-01 0.0000000000000000e+00 1
-9.2137341356494720e-02 3.6697858806335149e-01 0.0000000000000000e+00 1
-5.7657704304570970e-02 1.1579725932729279e-01 0.0000000000000000e+00 1
-1.1766917237760646e-02 1.0821992005267884e-01 0.0000000000000000e+00 1
5.0278651647179574e-02 -4.5366326541636393e-01 0.0000000000000000e+00 1
4.7876959605503991e-02 -4.4655850207526615e-01 0.0000000000000000e+00 1
6.6931060801833683e-02 -1.5559953716257283e-01 0.0000000000000000e+00 1
-3.8935799056757550e-02 3.0563698626478619e-01 0.0000000000000000e+00 1
2.2442683775267567e-02 -4.3646010760743909e-01 0.0000000000000000e+00 1
3.0848900134956603e-02 -4.4600422617717783e-01 0.0000000000000000e+00 1
-3.9454041979912140e-02 2.6316514784961687e-01 0.0000000000000000e+00 1
-7.1976373130301294e-02 4.7540644921957648e-01 0.0000000000000000e+00 1
6.8568969771281560e-02 1.6727792950714782e-01 0.0000000000000000e+00 1
-5.7283066875311539e-02 4.4526630997769012e-01 0.0000000000000000e+00 1
-9.3999823298579338e-03 -8.2238741899383540e-03 0.0000000000000000e+00 1
-7.8051997490385799e-02 2.7059319523971959e-01 0.0000000000000000e+00 1
-1.0683219122003377e-02 -3.8579408920931657e-01 0.0000000000000000e+00 1
-9.3203863951678206e-02 4.5685729854995338e-01 0.0000000000000000e+00 1
-6.0436975424702525e-03 -4.0377045459709449e-01 0.0000000000000000e+00 1
4.9985173866944482e-02 -1.7202187892835724e-01 0.0000000000000000e+00 1
4.8272712195103207e-02 2.2731403000406269e-01 0.0000000000000000e+00 1
6.0856367803685453e-02 -2.4229271321193360e-01 0.0000000000000000e+00 1
3.9885647466535397e-02 -4.5381631017422458e-01 0.0000000000000000e+00 1
-8.4706524508245534e-02 3.2021214539164045e-01 0.0000000000000000e+00 1
5.1601248207655603e-02 1.8004639374707460e-01 0.0000000000000000e+00 1
4.7576339366414956e-02 -4.6048587783774508e-01 0.0000000000000000e+00 1
7.0879024970114904e-02 8.0378862970125239e-02 0.0000000000000000e+00 1
-2.0023872899088365e-03 -1.5700983117324480e-01 0.0000000000000000e+00 1
3.5062814817709231e-02 -3.9331953632085798e-01 0.0000000000000000e+00 1
-6.2632230254350732e-02 3.0586142063571281e-01 0.0000000000000000e+00 1
-3.9313602469694842e-02 2.4846296195986212e-01 0.0000000000000000e+00 1
6.3233165418517853e-02 -1.8335971877039509e-01 0.0000000000000000e+00 1
7.3411541340688863e-02 6.7303058802512875e-02 0.0000000000000000e+00 1
2.8805006461761134e-02 -4.3434758259660167e-01 0.0000000000000000e+00 1
-6.8127895804146986e-03 -1.2738357336949011e-01 0.0000000000000000e+00 1
7.1316572726905017e-02 -5.8071188827279151e-03 0.0000000000000000e+00 1
-7.7576888830801605e-02 2.5558430743861271e-01 0.0000000000000000e+00 1
-2.3134014738599499e-02 -1.7760939981518432e-02 0.0000000000000000e+00 1
5.6065264717767918e-02 5.2704019172937412e-02 0.0000000000000000e+00 1
2.4894204239020890e-02 3.6560644580291346e-01 0.0000000000000000e+00 1
-8.8256434232194980e-02 4.6809989165085314e-01 0.0000000000000000e+00 1
4.1013023818757453e-02 -4.4592386123330485e-01 0.0000000000000000e+00 1
6.2716395935315708e-02 -1.9830445920360945e-01 0.0000000000000000e+00 1
4.9098393387017998e-02 -2.6323450448117114e-01 0.0000000000000000e+00 1
-6.0248890442124239e-02 4.6888572871493167e-01 0.0000000000000000e+00 1
6.6669690839410867e-03 -4.1081626553201456e-01 0.0000000000000000e+00 1
6.5738839169242475e-02 -1.1264027826656500e-01 0.0000000000000000e+00 1
5.0231191462524041e-02 -2.1958231437495224e-01 0.0000000000000000e+00 1
-2.1069462901429979e-03 -1.7205524066649197e-01 0.0000000000000000e+00 1
4.7195302640494180e-02 2.4047429066933440e-01 0.0000000000000000e+00 1
-8.8531290763125173e-02 4.1229378672604639e-01 0.0000000000000000e+00 1
-2.2809950667260565e-02 4.2794466545968607e-01 0.0000000000000000e+00 1
4.9286178122996800e-02 -2.4893797731769635e-01 0.0000000000000000e+00 1
6.1477913711072453e-02 -2.2783952892467155e-01 0.0000000000000000e+00 1
3.6825747245205834e-02 -3.4921909200439144e-01 0.0000000000000000e+00 1
-6.3010981580361156e-02 4.7847160326965243e-01 0.0000000000000000e+00 1
6.0020108399352574e-02 2.2263908932268952e-03 0.0000000000000000e+00 1
-1.5070339395191980e-02 -1.9508014605271579e-01 0.0000000000000000e+00 1
-3.9018763922622969e-02 2.3365683671757304e-01 0.0000000000000000e+00 1
-1.1306999367337244e-02 -2.2792046766365853e-01 0.0000000000000000e+00 1
5.8810803929577452e-02 -2.8439535258975818e-01 0.0000000000000000e+00 1
2.0614153147583521e-02 -4.2494829901646342e-01 0.0000000000000000e+00 1
7.4447225841423686e-02 3.7653329344420637e-02 0.0000000000000000e+00 1
-1.3232123746209046e-02 -2.1186812162113075e-01 0.0000000000000000e+00 1
4.1957146015985741e-02 3.2228349611148355e-01 0.0000000000000000e+00 1
5.9498302789424543e-02 -2.7062382933296181e-01 0.0000000000000000e+00 1
-9.3730072646837817e-02 2.7928100622310009e-01 0.0000000000000000e+00 1
2.1418506193688009e-03 -2.4961793457420081e-01 0.0000000000000000e+00 1
-8.8974889293085196e-02 2.3229453679921624e-01 0.0000000000000000e+00 1
-2.1554708036537570e-02 -3.4717478722916917e-02 0.0000000000000000e+00 1
3.5284530077736215e-02 -3.8380074535766273e-01 0.0000000000000000e+00 1
3.3116062565448481e-04 -3.7514432903746270e-01 0.0000000000000000e+00 1
-3.9028404709269583e-02 2.1817281725704876e-01 0.0000000000000000e+00 1
-1.0092009519947914e-01 4.0366878156711028e-01 0.0000000000000000e+00 1
-7.6946964010305194e-02 2.0439359954322359e-01 0.0000000000000000e+00 1
7.2368546125445438e-02 2.4865103123459423e-02 0.0000000000000000e+00 1
4.6759614930943973e-02 -3.3079098264823481e-01 0.0000000000000000e+00 1
1.2366762602734173e-03 -2.3482425615853786e-01 0.0000000000000000e+00 1
-6.4405372790220072e-02 4.1043446186698906e-01 0.0000000000000000e+00 1
7.1413128659086222e-02 -2.3256510259227758e-02 0.0000000000000000e+00 1
4.7201132988282074e-02 -3.0464691008797440e-01 0.0000000000000000e+00 1
5.9239841137161998e-02 -3.1329485455166506e-02 0.0000000000000000e+00 1
4.7555156994373571e-02 -2.9099557254971503e-01 0.0000000000000000e+00 1
4.6553452049283392e-02 -3.4364066083391376e-01 0.0000000000000000e+00 1
-2.4093005826815162e-02 1.0016946957429047e-01 0.0000000000000000e+00 1
-7.2057704299431174e-02 4.8060783371502025e-01 0.0000000000000000e+00 1
3.6195736834191909e-02 -3.6255512797692813e-01 0.0000000000000000e+00 1
4.5206147582694811e-02 -3.6878175615202774e-01 0.0000000000000000e+00 1
4.7034900711891099e-02 -3.1777108234750473e-01 0.0000000000000000e+00 1
-7.9853781324030551e-02 4.7789812380541896e-01 0.0000000000000000e+00 1
4.5897251901358488e-02 2.5215295251330999e-01 0.0000000000000000e+00 1
-7.6549988915414396e-02 2.2679767829340075e-01 0.0000000000000000e+00 1
-8.3005427383529853e-02 1.7710315723102291e-01 0.0000000000000000e+00 1
-8.6429081951740178e-02 4.7250988075320022e-01 0.0000000000000000e+00 1
-8.9694163913360783e-02 4.2076717519220946e-01 0.0000000000000000e+00 1
-5.4192764071692434e-02 1.4613372056776958e-01 0.0000000000000000e+00 1
-3.8604803829166950e-02 2.0287919667348372e-01 0.0000000000000000e+00 1
5.1729813481786846e-02 -4.4162261443140716e-01 0.0000000000000000e+00 1
-5.0104832603657820e-02 9.3856365730723243e-02 0.0000000000000000e+00 1
5.2365264938695526e-02 -4.5956807548974732e-01 0.0000000000000000e+00 1
4.4669393315995828e-02 -4.5135784496710829e-01 0.0000000000000000e+00 1
-8.9643438597100528e-02 3.9068702436328445e-01 0.0000000000000000e+00 1
-9.0613793392595159e-03 -2.5871497068083948e-01 0.0000000000000000e+00 1
-2.5691351703583790e-02 4.4795120501484270e-01 0.0000000000000000e+00 1
2.1438154772873523e-04 3.9392662063949596e-01 0.0000000000000000e+00 1
-6.6806596514145555e-02 1.6923129688908109e-01 0.0000000000000000e+00 1
-1.9879010687090956e-02 -4.9301594255190609e-02 0.0000000000000000e+00 1
-8.1570070900667035e-02 4.2466470634890652e-01 0.0000000000000000e+00 1
-8.6199017396531422e-02 3.0669082097672312e-01 0.0000000000000000e+00 1
-4.3691512391596903e-02 4.5351649954220224e-01 0.0000000000000000e+00 1
-3.8137102308850188e-02 1.8750550065496158e-01 0.0000000000000000e+00 1
-6.4435275211835910e-02 3.9965609701613786e-01 0.0000000000000000e+00 1
-9.5801531917148672e-03 -3.9619494888215778e-01 0.0000000000000000e+00 1
-4.7132286906171649e-03 -3.9592538791802634e-01 0.0000000000000000e+00 1
2.2164722263253687e-02 3.4675598476502367e-01 0.0000000000000000e+00 1
-8.0537750531063448e-03 -2.7346141132916668e-01 0.0000000000000000e+00 1
-1.0109635640879421e-02 4.1084739967987011e-01 0.0000000000000000e+00 1
2.3754166521286924e-02 -4.3094398274834395e-01 0.0000000000000000e+00 1
-5.3575095225390206e-03 -3.8108266287068465e-01 0.0000000000000000e+00 1
5.9642876795519703e-02 -4.7050711956728997e-02 0.0000000000000000e+00 1
1.0948223525392660e-02 3.7602050298297640e-01 0.0000000000000000e+00 1
-9.7153049512078260e-02 3.0142524679757776e-01 0.0000000000000000e+00 1
-8.7686200101839792e-02 2.0100976951489311e-01 0.0000000000000000e+00 1
-1.0281453653042304e-01 3.8013910070580792e-01 0.0000000000000000e+00 1
2.7050546732112983e-02 3.3160906967839354e-01 0.0000000000000000e+00 1
4.3161529026929102e-02 2.7236311713543571e-01 0.0000000000000000e+00 1
-3.9407262536280650e-02 1.7137313588029146e-01 0.0000000000000000e+00 1
4.2103436807570754e-02 -3.8865564564812072e-01 0.0000000000000000e+00 1
-6.0788048103591922e-03 -3.0446628194363129e-01 0.0000000000000000e+00 1
-7.4756156029666093e-02 4.2003870657063846e-01 0.0000000000000000e+00 1
-6.6342608339301258e-03 -2.8508793150551398e-01 0.0000000000000000e+00 1
-3.2796684985353704e-03 -3.3053862563914854e-01 0.0000000000000000e+00 1
3.9645612635082525e-02 2.8557423898163969e-01 0.0000000000000000e+00 1
5.3361205383148216e-02 -4.6525869626512706e-01 0.0000000000000000e+00 1
-5.1739144281209432e-02 4.7299911193445682e-01 0.0000000000000000e+00 1
-1.1719895837388729e-02 -3.6347816353416434e-01 0.0000000000000000e+00 1
-2.1808948284595141e-02 8.4504594965052082e-02 0.0000000000000000e+00 1
2.5938387782384730e-03 -3.9010035147150962e-01 0.0000000000000000e+00 1
-6.4327237677321014e-02 3.8901988823521461e-01 0.0000000000000000e+00 1
9.8196768944312056e-03 -3.4361526893258665e-01 0.0000000000000000e+00 1
2.1382939437017325e-03 -4.0733584002694811e-01 0.0000000000000000e+00 1
1.2931634909645464e-02 3.4383848411823043e-01 0.0000000000000000e+00 1
-4.8813746114282353e-03 -3.1732492692160646e-01 0.0000000000000000e+00 1
-1.0180805902877424e-01 3.6902174816541511e-01 0.0000000000000000e+00 1
3.9612563081957319e-02 -4.3543906176016389e-01 0.0000000000000000e+00 1
7.3128205023340553e-02 -6.6294440763605772e-02 0.0000000000000000e+00 1
-5.8323632428776792e-02 1.0228559213181214e-01 0.0000000000000000e+00 1
1.4628860743812033e-02 -4.2153599559190696e-01 0.0000000000000000e+00 1
-5.3188650148712741e-02 1.6238722440144110e-01 0.0000000000000000e+00 1
-5.2342824919166572e-02 4.6393159323103778e-01 0.0000000000000000e+00 1
-6.5892589587942613e-02 1.3972179802286810e-01 0.0000000000000000e+00 1

Edges
165
1 2 1
2 3 1
3 4 1
4 5 1
5 6 1
6 7 1
7 8 1
8 9 1
9 10 1
10 11 1
11 12 1
12 13 1
13 14 1
14 15 1
15 16 1
16 17 1
17 18 1
18 19 1
19 20 1
20 21 1
21 22 1
22 23 1
23 24 1
24 25 1
25 26 1
26 27 1
27 28 1
28 29 1
29 30 1
30 31 1
31 32 1
32 33 1
33 34 1
34 35 1
35 36 1
36 37 1
37 38 1
38 39 1
39 40 1
40 41 1
41 42 1
42 43 1
43 44 1
44 45 1
45 46 1
46 47 1
47 48 1
48 49 1
49 50 1
50 51 1
51 52 1
52 53 1
53 54 1
54 55 1
55 56 1
56 57 1
57 58 1
58 59 1
59 60 1
60 61 1
61 62 1
62 63 1
63 64 1
64 65 1
65 66 1
66 67 1
67 68 1
68 69 1
69 70 1
70 71 1
71 72 1
72 73 1
73 74 1
74 75 1
75 76 1
76 77 1
77 78 1
78 79 1
79 80 1
80 81 1
81 82 1
82 83 1
83 84 1
84 85 1
85 86 1
86 87 1
87 88 1
88 89 1
89 90 1
90 91 1
91 92 1
92 93 1
93 94 1
94 95 1
95 96 1
96 97 1
97 98 1
98 99 1
99 100 1
100 101 1
101 102 1
102 103 1
103 104 1
104 105 1
105 106 1
106 107 1
107 108 1
108 109 1
109 110 1
110 111 1
111 112 1
112 113 1
113 114 1
114 115 1
115 116 1
116 117 1
117 118 1
118 119 1
119 120 1
120 121 1
121 122 1
122 123 1
123 124 1
124 125 1
125 126 1
126 127 1
127 128 1
128 129 1
129 130 1
130 131 1
131 132 1
132 133 1
133 134 1
134 135 1
135 136 1
136 137 1
137 138 1
138 139 1
139 140 1
140 141 1
141 142 1
142 143 1
143 144 1
144 145 1
145 146 1
146 147 1
147 148 1
148 149 1
149 150 1
150 151 1
151 152 1
152 153 1
153 154 1
154 155 1
155 156 1
156 157 1
157 158 1
158 159 1
159 160 1
160 161 1
161 162 1
162 163 1
163 164 1
164 165 1
165 1 1

Triangles
1587
230 527 743 1
540 589 778 1
646 384 685 1
707 592 751 1
136 137 647 1
540 588 589 1
414 530 532 1
469 695 719 1
511 225 670 1
384 646 662 1
526 167 766 1
665 526 766 1
516 432 708 1
530 414 531 1
410 634 684 1
25 232 726 1
225 511 744 1
570 169 852 1
695 168 719 1
506 566 591 1
185 136 647 1
590 516 708 1
169 570 817 1
235 403 473 1
611 723 761 1
226 727 826 1
473 403 475 1
362 491 669 1
215 479 739 1
25 26 232 1
239 426 499 1
420 569 570 1
589 173 778 1
479 215 751 1
580 658 773 1
486 461 487 1
188 576 579 1
401 612 613 1
576 188 578 1
566 506 592 1
20 227 727 1
370 588 667 1
215 707 751 1
137 644 647 1
549 177 759 1
575 407 579 1
723 393 761 1
491 489 669 1
550 176 663 1
583 191 658 1
702 584 733 1
612 401 614 1
634 410 833 1
193 746 758 1
746 606 758 1
551 550 663 1
201 480 674 1
743 527 845 1
420 570 571 1
532 197 798 1
230 839 840 1
583 584 702 1
177 549 765 1
652 231 816 1
189 642 643 1
53 188 624 1
569 420 655 1
469 419 571 1
191 583 702 1
597 393 723 1
244 461 486 1
426 485 499 1
216 598 777 1
657 532 798 1
223 523 711 1
393 597 754 1
193 584 746 1
178 477 488 1
173 589 715 1
588 540 667 1
189 641 642 1
481 400 483 1
186 808 846 1
499 485 788 1
486 487 864 1
584 193 733 1
452 626 729 1
286 288 684 1
609 681 867 1
523 223 843 1
754 597 775 1
597 596 775 1
165 1 743 1
579 407 580 1
370 587 588 1
505 506 591 1
598 216 800 1
284 401 613 1
652 210 713 1
808 604 846 1
137 138 644 1
234 235 473 1
626 185 729 1
97 98 529 1
229 234 473 1
227 23 726 1
476 499 788 1
852 218 859 1
658 191 773 1
477 178 545 1
363 505 591 1
222 498 736 1
419 420 571 1
726 232 727 1
768 749 827 1
179 465 818 1
147 199 615 1
646 643 662 1
241 400 481 1
620 617 774 1
295 389 557 1
509 198 738 1
189 139 641 1
237 239 499 1
576 575 579 1
789 554 802 1
503 703 724 1
139 140 641 1
527 487 845 1
222 749 768 1
94 95 542 1
188 579 624 1
703 172 724 1
514 516 590 1
592 506 751 1
556 557 558 1
20 727 860 1
465 179 801 1
52 53 624 1
22 23 227 1
282 284 613 1
541 219 722 1
398 551 608 1
742 453 793 1
208 498 760 1
229 28 234 1
509 228 782 1
585 670 714 1
554 671 802 1
172 479 724 1
180 497 828 1
491 362 865 1
608 551 663 1
231 652 738 1
370 357 587 1
361 514 590 1
634 614 684 1
614 634 699 1
242 244 486 1
781 249 813 1
643 642 662 1
510 511 670 1
670 225 714 1
505 363 616 1
369 569 655 1
571 852 859 1
183 671 783 1
58 762 806 1
297 295 557 1
173 94 542 1
31 201 674 1
229 473 474 1
475 403 476 1
464 600 855 1
479 172 739 1
363 319 616 1
497 180 850 1
219 97 529 1
527 230 840 1
168 518 719 1
182 511 712 1
404 471 502 1
397 447 510 1
366 519 522 1
480 201 854 1
554 177 765 1
210 652 816 1
498 222 768 1
469 571 859 1
233 27 824 1
195 620 774 1
557 389 558 1
146 147 615 1
692 218 852 1
214 503 659 1
510 447 511 1
352 544 656 1
246 248 657 1
140 639 641 1
772 483 867 1
170 521 710 1
550 549 753 1
600 464 857 1
489 544 669 1
560 762 783 1
551 398 630 1
604 559 621 1
700 784 790 1
98 190 529 1
401 286 684 1
462 439 756 1
481 483 772 1
556 558 783 1
432 516 868 1
361 512 514 1
138 189 644 1
288 410 684 1
753 549 759 1
395 397 510 1
177 554 789 1
535 781 813 1
483 609 867 1
731 224 752 1
671 556 783 1
558 560 783 1
511 182 744 1
727 232 826 1
544 416 656 1
426 481 482 1
461 246 657 1
366 522 587 1
681 609 745 1
731 752 826 1
518 168 791 1
199 612 615 1
534 207 535 1
615 614 699 1
521 170 831 1
507 495 805 1
447 405 454 1
140 141 639 1
426 241 481 1
34 207 534 1
454 652 713 1
185 647 873 1
555 297 557 1
357 366 587 1
114 115 664 1
502 471 771 1
397 404 405 1
234 212 235 1
592 171 690 1
742 175 763 1
454 405 455 1
319 317 616 1
239 241 426 1
483 400 484 1
369 567 569 1
384 662 687 1
498 475 760 1
512 361 543 1
567 369 601 1
299 297 555 1
235 237 403 1
436 607 608 1
606 620 769 1
758 606 769 1
96 97 219 1
354 350 625 1
662 648 687 1
26 27 233 1
29 212 234 1
235 236 237 1
762 560 806 1
478 477 545 1
214 659 680 1
519 366 625 1
566 592 690 1
219 541 830 1
365 563 601 1
581 281 582 1
283 281 581 1
27 28 229 1
503 214 703 1
28 29 234 1
241 242 400 1
403 237 499 1
228 509 771 1
448 596 784 1
495 493 838 1
380 721 740 1
175 675 763 1
498 208 736 1
146 615 699 1
367 648 676 1
162 163 530 1
566 562 591 1
279 402 582 1
175 742 793 1
720 462 756 1
198 509 782 1
424 395 510 1
805 495 838 1
395 396 397 1
562 561 591 1
397 405 447 1
436 608 659 1
184 585 714 1
189 643 644 1
784 211 790 1
394 381 395 1
659 663 680 1
387 546 547 1
582 402 583 1
237 238 239 1
398 307 630 1
145 146 699 1
433 829 842 1
157 206 574 1
544 352 669 1
377 380 381 1
161 203 599 1
159 209 600 1
535 813 814 1
391 311 607 1
496 507 508 1
624 580 773 1
397 396 404 1
478 545 666 1
365 561 562 1
365 323 561 1
160 161 599 1
387 303 546 1
248 414 657 1
400 242 486 1
538 541 722 1
563 567 601 1
350 349 625 1
192 635 636 1
366 354 625 1
389 293 621 1
559 389 621 1
192 636 637 1
610 149 623 1
156 157 574 1
190 500 529 1
579 580 624 1
236 212 674 1
603 604 621 1
436 391 607 1
582 583 658 1
31 32 201 1
496 495 507 1
494 495 496 1
29 30 212 1
154 205 593 1
580 407 581 1
376 375 377 1
317 314 679 1
178 488 728 1
455 509 738 1
373 374 375 1
285 407 575 1
552 390 553 1
235 212 236 1
395 381 396 1
376 507 805 1
152 211 595 1
494 493 495 1
480 236 674 1
580 581 658 1
158 159 600 1
572 156 574 1
587 524 588 1
483 484 609 1
281 279 582 1
338 335 543 1
558 389 559 1
622 431 665 1
616 317 679 1
704 517 851 1
518 220 851 1
721 501 740 1
325 365 601 1
141 192 639 1
27 229 824 1
612 614 615 1
492 493 494 1
178 121 545 1
377 375 380 1
648 640 676 1
334 411 543 1
490 489 491 1
492 491 493 1
335 334 543 1
181 627 628 1
584 402 602 1
405 404 502 1
838 493 865 1
184 114 664 1
155 156 572 1
534 535 814 1
476 403 499 1
454 455 652 1
522 524 587 1
406 577 603 1
239 240 241 1
829 574 842 1
546 390 552 1
503 436 659 1
787 40 792 1
611 610 723 1
372 371 373 1
605 415 606 1
407 283 581 1
470 819 832 1
501 721 722 1
490 491 492 1
712 713 767 1
358 370 371 1
394 395 424 1
548 551 630 1
153 154 593 1
121 122 545 1
603 577 604 1
609 166 745 1
181 133 627 1
377 381 394 1
488 418 489 1
488 489 490 1
273 415 605 1
637 636 638 1
528 462 835 1
323 321 561 1
387 548 630 1
373 371 374 1
511 447 712 1
631 194 632 1
414 532 657 1
115 216 664 1
365 562 563 1
33 34 534 1
455 502 509 1
738 198 812 1
416 351 656 1
858 472 869 1
169 692 852 1
355 357 358 1
182 712 767 1
614 401 684 1
267 442 618 1
390 299 555 1
289 406 603 1
585 184 586 1
552 553 554 1
693 348 734 1
151 152 595 1
558 559 560 1
411 512 543 1
635 633 636 1
361 338 543 1
192 142 635 1
618 442 619 1
583 402 584 1
203 162 530 1
353 354 355 1
493 491 865 1
644 643 645 1
387 547 548 1
426 482 485 1
211 153 593 1
645 643 646 1
353 350 354 1
205 155 572 1
201 533 660 1
311 309 607 1
548 547 549 1
402 277 602 1
418 416 544 1
204 151 595 1
342 590 708 1
347 349 350 1
345 343 346 1
689 472 858 1
199 610 611 1
695 469 859 1
373 375 376 1
334 385 411 1
204 595 596 1
415 617 620 1
563 562 564 1
303 301 546 1
631 633 635 1
358 357 370 1
632 194 634 1
144 194 631 1
563 564 565 1
220 518 791 1
411 419 427 1
617 269 618 1
339 338 340 1
321 363 561 1
347 346 349 1
645 646 649 1
406 575 576 1
341 340 342 1
392 391 434 1
561 363 591 1
176 550 753 1
263 446 651 1
340 361 590 1
355 354 357 1
588 524 589 1
642 640 648 1
547 546 552 1
345 346 347 1
607 398 608 1
337 335 338 1
201 32 533 1
148 149 610 1
577 576 578 1
519 422 520 1
514 513 515 1
358 372 594 1
199 148 610 1
209 160 599 1
392 434 435 1
341 342 343 1
98 99 190 1
420 385 655 1
237 236 238 1
516 515 517 1
470 525 819 1
330 329 331 1
512 427 513 1
329 369 655 1
313 391 392 1
307 305 630 1
313 311 391 1
332 331 334 1
321 319 363 1
305 303 387 1
309 307 398 1
444 435 479 1
328 327 329 1
135 185 626 1
358 371 372 1
651 770 779 1
377 394 683 1
115 116 216 1
205 572 573 1
301 299 390 1
411 385 419 1
325 323 365 1
269 267 618 1
531 414 866 1
287 285 575 1
612 611 613 1
548 549 550 1
584 602 746 1
349 364 412 1
519 520 522 1
295 293 389 1
412 422 519 1
329 327 369 1
489 418 544 1
385 331 655 1
427 419 469 1
602 275 605 1
275 273 605 1
528 125 793 1
522 523 524 1
352 350 353 1
334 331 385 1
569 568 570 1
326 325 327 1
206 158 600 1
301 390 546 1
522 520 523 1
324 323 325 1
413 431 622 1
152 153 211 1
434 436 503 1
289 287 406 1
415 271 617 1
159 160 209 1
309 398 607 1
412 413 422 1
559 604 808 1
271 269 617 1
339 340 341 1
567 565 568 1
406 287 575 1
525 131 819 1
322 321 323 1
123 124 174 1
337 338 339 1
36 213 629 1
291 289 603 1
623 597 723 1
285 283 407 1
126 127 175 1
154 155 205 1
606 415 620 1
133 134 627 1
515 513 518 1
120 121 178 1
631 632 633 1
320 319 321 1
646 685 863 1
340 338 361 1
342 340 590 1
129 130 179 1
514 515 516 1
293 291 621 1
132 133 181 1
113 114 184 1
332 334 335 1
150 151 204 1
318 317 319 1
355 358 594 1
443 435 444 1
512 513 514 1
327 325 601 1
161 162 203 1
505 444 506 1
134 626 627 1
411 427 512 1
279 277 402 1
406 576 577 1
111 112 225 1
147 148 199 1
532 530 862 1
157 158 206 1
477 418 488 1
135 136 185 1
277 275 602 1
581 582 658 1
530 163 862 1
330 331 332 1
328 329 330 1
164 165 197 1
144 145 194 1
117 118 180 1
494 496 598 1
232 233 731 1
344 343 345 1
312 311 313 1
537 374 667 1
138 139 189 1
310 309 311 1
316 314 317 1
369 327 601 1
375 374 536 1
141 142 192 1
265 263 651 1
417 416 418 1
308 307 309 1
536 537 538 1
326 327 328 1
533 33 534 1
446 261 653 1
412 364 413 1
171 592 707 1
143 144 631 1
349 346 364 1
291 603 621 1
349 412 625 1
456 693 734 1
273 271 415 1
306 305 307 1
362 355 594 1
305 387 630 1
143 631 635 1
199 611 612 1
563 565 567 1
434 391 436 1
261 259 653 1
554 553 671 1
324 325 326 1
343 342 673 1
453 528 793 1
639 637 640 1
304 303 305 1
567 568 569 1
700 448 784 1
520 422 521 1
322 323 324 1
371 370 667 1
648 367 687 1
100 101 228 1
257 451 668 1
302 301 303 1
123 174 666 1
353 355 362 1
446 653 654 1
404 408 471 1
641 640 642 1
38 202 650 1
204 597 623 1
442 265 651 1
320 321 322 1
300 299 301 1
32 33 533 1
196 788 874 1
394 425 683 1
34 35 207 1
298 297 299 1
538 539 541 1
490 492 497 1
318 319 320 1
564 562 566 1
605 606 746 1
296 295 297 1
392 435 443 1
528 835 848 1
553 555 556 1
134 135 626 1
204 596 597 1
540 537 667 1
267 265 442 1
619 442 779 1
443 444 505 1
142 143 635 1
336 335 337 1
36 37 213 1
294 293 295 1
316 317 318 1
382 351 416 1
453 439 462 1
357 354 366 1
331 329 655 1
644 645 647 1
30 31 674 1
412 519 625 1
203 530 531 1
192 637 639 1
364 346 673 1
149 150 623 1
434 503 724 1
596 448 775 1
150 204 623 1
312 313 314 1
263 261 446 1
292 291 293 1
347 350 352 1
431 432 526 1
622 665 847 1
290 289 291 1
482 716 717 1
259 257 668 1
542 95 830 1
596 595 784 1
427 469 719 1
310 311 312 1
553 390 555 1
548 550 551 1
288 287 289 1
421 364 673 1
585 424 670 1
308 309 310 1
497 850 870 1
93 94 173 1
413 421 431 1
553 556 671 1
479 435 724 1
642 648 662 1
38 39 202 1
419 385 420 1
653 259 668 1
306 307 308 1
286 285 287 1
194 145 699 1
507 376 856 1
437 429 439 1
314 313 679 1
284 283 285 1
35 36 629 1
304 305 306 1
422 413 622 1
424 510 670 1
197 532 862 1
447 454 712 1
613 611 761 1
518 513 719 1
282 281 283 1
341 343 344 1
91 92 223 1
302 303 304 1
578 188 872 1
565 564 747 1
316 318 661 1
381 380 740 1
280 279 281 1
536 374 537 1
300 301 302 1
37 38 650 1
640 637 676 1
570 568 817 1
127 128 675 1
431 526 665 1
392 443 679 1
351 345 656 1
484 527 840 1
417 418 477 1
87 88 221 1
639 640 641 1
89 90 170 1
41 42 200 1
721 538 722 1
298 299 300 1
344 345 351 1
83 84 220 1
278 277 279 1
85 86 167 1
296 297 298 1
79 80 218 1
81 82 168 1
276 275 277 1
517 704 841 1
6 7 187 1
666 174 750 1
425 424 585 1
294 295 296 1
345 347 656 1
75 76 217 1
253 449 688 1
77 78 169 1
382 416 417 1
556 555 557 1
610 623 723 1
374 371 667 1
274 273 275 1
346 343 673 1
609 484 840 1
379 423 459 1
637 638 676 1
207 35 629 1
71 72 215 1
332 335 336 1
44 45 195 1
175 127 675 1
244 246 461 1
73 74 171 1
455 405 502 1
292 293 294 1
109 110 182 1
315 314 316 1
593 786 790 1
380 375 536 1
212 30 674 1
439 429 693 1
257 255 451 1
347 352 656 1
521 422 622 1
431 421 432 1
712 454 713 1
248 250 414 1
272 271 273 1
67 68 214 1
443 616 679 1
69 70 172 1
659 608 663 1
290 291 292 1
444 479 751 1
213 37 650 1
413 364 421 1
328 330 333 1
47 48 193 1
632 634 833 1
270 269 271 1
288 289 290 1
336 337 348 1
352 353 669 1
65 66 176 1
453 462 528 1
468 470 504 1
500 190 876 1
5 6 681 1
255 253 688 1
62 63 177 1
839 166 840 1
286 287 288 1
388 368 399 1
50 51 191 1
466 467 468 1
538 537 539 1
268 267 269 1
437 439 453 1
475 476 760 1
59 60 183 1
284 285 286 1
53 54 188 1
239 238 240 1
324 326 359 1
478 666 750 1
56 57 186 1
458 465 466 1
376 377 683 1
266 265 267 1
282 283 284 1
586 184 664 1
320 322 356 1
313 392 679 1
280 281 282 1
552 554 765 1
654 787 792 1
535 207 810 1
421 673 708 1
264 263 265 1
254 256 472 1
450 457 458 1
443 505 616 1
665 221 847 1
432 421 708 1
278 279 280 1
219 529 836 1
379 459 682 1
545 122 666 1
440 441 450 1
368 316 661 1
276 277 278 1
564 566 690 1
404 396 408 1
312 314 315 1
399 368 661 1
541 539 542 1
459 423 460 1
794 266 804 1
274 275 276 1
262 261 263 1
430 438 440 1
253 251 449 1
306 308 360 1
272 273 274 1
326 328 672 1
770 200 779 1
125 528 848 1
260 259 261 1
66 67 680 1
122 123 666 1
270 271 272 1
315 316 368 1
568 565 776 1
258 260 464 1
302 304 384 1
262 264 433 1
268 269 270 1
68 69 703 1
298 300 367 1
378 351 382 1
49 50 702 1
367 676 709 1
266 267 268 1
258 257 259 1
322 324 677 1
617 618 774 1
268 270 445 1
468 467 470 1
264 265 266 1
451 255 688 1
74 75 686 1
292 294 383 1
378 386 456 1
272 274 448 1
661 318 678 1
466 465 467 1
328 333 672 1
288 290 410 1
315 368 379 1
428 348 429 1
318 320 678 1
76 77 691 1
284 286 401 1
488 490 728 1
278 280 393 1
339 341 705 1
353 362 669 1
254 472 689 1
458 457 465 1
333 330 698 1
262 263 264 1
634 194 699 1
330 332 698 1
332 336 698 1
379 368 388 1
339 705 734 1
457 441 463 1
78 79 692 1
379 388 423 1
256 255 257 1
359 326 672 1
72 73 707 1
470 467 525 1
282 613 761 1
598 496 777 1
260 261 262 1
430 429 437 1
673 342 708 1
336 348 428 1
450 441 457 1
536 538 721 1
748 43 780 1
344 351 378 1
258 259 260 1
310 312 682 1
440 438 441 1
80 81 695 1
593 205 786 1
423 388 452 1
671 183 802 1
324 359 677 1
356 322 677 1
254 253 255 1
102 103 198 1
636 633 764 1
304 306 685 1
706 186 846 1
417 477 478 1
348 337 734 1
320 356 678 1
50 191 702 1
472 696 869 1
300 302 687 1
696 855 869 1
67 214 680 1
633 632 796 1
3 4 166 1
256 257 258 1
394 424 425 1
539 537 540 1
254 255 256 1
428 429 430 1
663 176 680 1
214 68 703 1
165 743 845 1
176 66 680 1
55 56 706 1
430 437 438 1
460 729 873 1
84 85 704 1
9 10 196 1
69 172 703 1
378 382 386 1
252 253 254 1
549 547 765 1
252 251 253 1
171 686 690 1
75 217 686 1
217 76 691 1
171 74 686 1
215 72 707 1
472 256 696 1
312 315 682 1
468 504 837 1
471 408 500 1
290 292 694 1
125 126 793 1
649 460 825 1
513 427 719 1
296 298 709 1
429 348 693 1
77 169 691 1
113 184 714 1
73 171 707 1
435 434 724 1
241 240 242 1
169 78 692 1
79 218 692 1
250 251 252 1
247 245 409 1
336 428 698 1
218 80 695 1
463 675 795 1
306 360 685 1
825 460 873 1
42 43 748 1
56 186 706 1
384 304 685 1
258 464 696 1
88 89 710 1
81 168 695 1
676 638 709 1
180 598 800 1
302 384 687 1
425 585 586 1
262 433 701 1
367 300 687 1
250 249 251 1
220 84 704 1
129 179 795 1
651 446 770 1
382 417 697 1
675 128 795 1
90 91 711 1
92 93 715 1
464 260 701 1
315 379 682 1
93 173 715 1
252 254 689 1
248 249 250 1
85 167 704 1
705 456 734 1
298 367 709 1
473 475 871 1
193 48 733 1
112 113 714 1
292 383 694 1
410 290 694 1
341 344 705 1
445 270 700 1
223 92 715 1
272 448 700 1
378 456 705 1
728 497 870 1
173 542 778 1
221 88 710 1
466 468 823 1
474 473 871 1
439 693 756 1
238 236 480 1
270 272 700 1
565 747 776 1
91 223 711 1
106 107 210 1
170 90 711 1
232 26 233 1
89 170 710 1
166 609 840 1
430 440 737 1
120 178 870 1
260 262 701 1
246 247 248 1
490 497 728 1
248 247 249 1
18 19 226 1
386 382 697 1
256 258 696 1
244 245 246 1
360 308 730 1
515 518 851 1
172 70 739 1
49 702 733 1
71 215 739 1
373 376 805 1
96 219 830 1
52 624 773 1
417 478 697 1
474 498 768 1
12 13 208 1
117 180 800 1
682 459 730 1
48 49 733 1
423 452 729 1
14 15 222 1
722 219 836 1
344 378 705 1
654 653 809 1
620 195 769 1
460 649 811 1
664 216 821 1
310 682 730 1
246 245 247 1
131 132 819 1
380 536 721 1
8 9 717 1
242 243 244 1
231 738 812 1
386 697 720 1
504 470 832 1
715 589 843 1
460 423 729 1
308 310 730 1
337 339 734 1
497 492 828 1
748 619 779 1
7 8 716 1
244 243 245 1
713 210 820 1
70 71 739 1
645 649 825 1
577 578 846 1
10 11 725 1
58 59 762 1
524 523 843 1
196 725 788 1
450 458 785 1
520 521 831 1
440 450 757 1
47 193 758 1
39 40 787 1
383 294 741 1
711 523 831 1
333 698 737 1
500 408 501 1
211 593 790 1
399 853 875 1
65 176 753 1
51 52 773 1
458 466 799 1
598 180 828 1
190 99 861 1
438 437 742 1
482 481 772 1
220 704 851 1
177 63 759 1
225 112 714 1
396 381 740 1
201 660 854 1
296 709 741 1
786 445 790 1
716 482 772 1
698 428 737 1
6 187 681 1
11 12 735 1
195 774 780 1
438 742 763 1
41 200 792 1
124 125 848 1
195 45 769 1
104 105 231 1
696 464 855 1
278 393 754 1
251 249 781 1
602 605 746 1
693 456 756 1
822 399 875 1
111 225 744 1
44 195 780 1
456 386 756 1
409 660 814 1
484 400 486 1
221 665 766 1
823 468 837 1
781 535 810 1
197 165 845 1
223 715 843 1
837 504 853 1
167 86 766 1
408 396 740 1
294 296 741 1
131 525 849 1
110 111 744 1
619 748 780 1
428 430 737 1
280 282 761 1
216 116 800 1
16 17 224 1
506 444 751 1
463 441 763 1
494 598 828 1
573 794 804 1
178 728 870 1
87 221 766 1
459 460 811 1
578 706 846 1
437 453 742 1
242 240 243 1
516 517 868 1
57 58 806 1
541 542 830 1
13 14 736 1
164 197 862 1
731 233 732 1
737 440 757 1
660 533 814 1
168 82 791 1
200 42 748 1
795 179 818 1
788 485 874 1
62 177 789 1
64 65 753 1
501 408 740 1
187 7 716 1
675 463 763 1
813 409 814 1
652 455 738 1
448 274 775 1
83 220 791 1
568 776 817 1
660 409 797 1
785 458 799 1
796 632 833 1
180 118 850 1
183 60 802 1
764 633 796 1
4 5 745 1
167 526 841 1
709 638 741 1
471 718 771 1
467 465 801 1
727 226 860 1
9 196 717 1
689 531 866 1
268 445 804 1
388 399 822 1
690 686 747 1
333 737 757 1
461 657 798 1
206 600 857 1
686 217 747 1
409 245 797 1
571 570 852 1
542 539 778 1
46 47 758 1
564 690 747 1
63 64 759 1
276 278 754 1
264 266 794 1
196 10 725 1
179 130 849 1
229 474 824 1
383 741 764 1
720 697 750 1
218 695 859 1
108 109 767 1
15 16 749 1
595 211 784 1
188 54 872 1
697 478 750 1
414 250 866 1
718 228 771 1
252 689 866 1
787 654 809 1
716 8 717 1
638 636 764 1
64 753 759 1
547 552 765 1
799 466 823 1
504 832 875 1
757 450 785 1
853 504 875 1
762 183 783 1
672 333 757 1
399 661 853 1
732 768 827 1
203 531 858 1
496 508 777 1
86 87 766 1
732 474 768 1
465 457 818 1
5 681 745 1
573 572 829 1
531 689 858 1
238 480 755 1
628 627 877 1
509 502 771 1
17 18 752 1
55 706 872 1
46 758 769 1
442 651 779 1
475 498 871 1
747 217 776 1
386 720 756 1
725 11 735 1
45 46 769 1
228 101 782 1
618 619 774 1
393 280 761 1
718 190 861 1
59 183 762 1
170 711 831 1
200 770 792 1
446 654 770 1
109 182 767 1
501 722 836 1
182 110 744 1
12 208 735 1
249 247 813 1
1 230 743 1
441 438 763 1
276 754 775 1
498 474 871 1
216 777 821 1
101 102 782 1
240 238 755 1
445 786 804 1
599 858 869 1
706 578 872 1
228 718 861 1
741 638 764 1
43 44 780 1
572 574 829 1
701 433 842 1
191 51 773 1
243 240 755 1
208 13 736 1
650 202 807 1
487 461 798 1
449 251 781 1
474 732 824 1
126 175 793 1
116 117 800 1
774 619 780 1
205 573 786 1
274 276 775 1
224 731 827 1
628 822 875 1
82 83 791 1
61 62 789 1
629 213 803 1
539 540 778 1
202 39 787 1
217 691 776 1
40 41 792 1
672 757 785 1
807 202 809 1
14 222 736 1
360 811 863 1
560 559 808 1
128 129 795 1
359 672 785 1
187 716 772 1
372 373 805 1
107 108 820 1
574 206 842 1
99 100 861 1
683 425 834 1
735 208 760 1
529 500 836 1
243 755 797 1
485 482 874 1
600 209 855 1
599 203 858 1
222 15 749 1
803 449 810 1
508 507 856 1
166 4 745 1
383 764 796 1
359 785 799 1
819 181 832 1
100 228 861 1
60 61 802 1
731 732 827 1
227 726 727 1
433 264 794 1
649 646 863 1
650 807 815 1
61 789 802 1
668 451 807 1
132 181 819 1
213 650 815 1
533 534 814 1
801 179 849 1
445 700 790 1
668 807 809 1
525 467 801 1
19 20 860 1
811 649 863 1
181 628 832 1
629 803 810 1
688 449 803 1
626 452 877 1
594 372 838 1
360 730 811 1
186 57 806 1
492 494 828 1
245 243 797 1
207 629 810 1
677 359 799 1
500 501 836 1
200 748 779 1
694 383 796 1
647 645 825 1
372 805 838 1
266 268 804 1
653 668 809 1
118 119 850 1
803 213 815 1
604 577 846 1
376 683 856 1
163 164 862 1
103 104 812 1
807 451 815 1
688 803 815 1
627 626 877 1
463 795 818 1
594 838 865 1
523 520 831 1
95 96 830 1
119 120 870 1
710 521 847 1
130 131 849 1
224 17 752 1
822 628 877 1
452 388 822 1
226 19 860 1
683 834 856 1
16 224 749 1
517 515 851 1
105 106 816 1
457 463 818 1
850 119 870 1
102 198 782 1
797 755 854 1
527 484 864 1
21 22 227 1
589 524 843 1
198 103 812 1
760 476 844 1
362 594 865 1
704 167 841 1
691 169 817 1
247 409 813 1
451 688 815 1
776 691 817 1
356 677 823 1
586 664 821 1
677 799 823 1
2 3 839 1
356 823 837 1
18 226 752 1
794 573 829 1
174 124 848 1
209 599 869 1
521 622 847 1
770 654 792 1
108 767 820 1
221 710 847 1
210 107 820 1
786 573 804 1
232 731 826 1
855 209 869 1
694 796 833 1
106 210 816 1
678 356 837 1
482 717 874 1
730 459 811 1
471 500 876 1
526 432 868 1
187 772 867 1
54 55 872 1
732 233 824 1
410 694 833 1
462 720 835 1
425 586 834 1
3 166 839 1
720 750 835 1
250 252 866 1
586 821 834 1
725 735 844 1
202 787 809 1
661 678 853 1
484 486 864 1
821 508 834 1
464 701 857 1
104 231 812 1
231 105 816 1
449 781 810 1
777 508 821 1
678 837 853 1
685 360 863 1
835 174 848 1
788 725 844 1
806 560 808 1
834 508 856 1
487 527 864 1
767 713 820 1
752 226 826 1
750 174 835 1
1 2 230 1
749 224 827 1
186 806 808 1
735 760 844 1
718 471 876 1
729 185 873 1
832 628 875 1
660 797 854 1
755 480 854 1
433 794 829 1
487 798 845 1
681 187 867 1
24 25 726 1
190 718 876 1
717 196 874 1
476 788 844 1
525 801 849 1
841 526 868 1
230 2 839 1
517 841 868 1
701 842 857 1
798 197 845 1
842 206 857 1
452 822 877 1
647 825 873 1
20 21 227 1
23 24 726 1

End
