MeshVersionFormatted 2
Dimension 3

Vertices
420
1.8727227415056327e-01 -3.5658318286501001e-01 0.0000000000000000e+00 1
1.8475867587558031e-01 -3.4803928738503548e-01 0.0000000000000000e+00 1
1.8205258573612934e-01 -3.3926432317135169e-01 0.0000000000000000e+00 1
1.7915894409206098e-01 -3.3026580930049865e-01 0.0000000000000000e+00 1
1.7608269130322560e-01 -3.2105126484901625e-01 0.0000000000000000e+00 1
1.7282876772947386e-01 -3.1162820889344450e-01 0.0000000000000000e+00 1
1.6940211373065625e-01 -3.0200416051032347e-01 0.0000000000000000e+00 1
1.6580766966662341e-01 -2.9218663877619327e-01 0.0000000000000000e+00 1
1.6205037589722579e-01 -2.8218316276759359e-01 0.0000000000000000e+00 1
1.5813517278231390e-01 -2.7200125156106464e-01 0.0000000000000000e+00 1
1.5406700068173834e-01 -2.6164842423314627e-01 0.0000000000000000e+00 1
1.4985079995534945e-01 -2.5113219986037849e-01 0.0000000000000000e+00 1
1.4549151096299803e-01 -2.4046009751930134e-01 0.0000000000000000e+00 1
1.4099407406453449e-01 -2.2963963628645481e-01 0.0000000000000000e+00 1
1.3636342961980943e-01 -2.1867833523837890e-01 0.0000000000000000e+00 1
1.3160451798867331e-01 -2.0758371345161358e-01 0.0000000000000000e+00 1
1.2672227953097667e-01 -1.9636329000269875e-01 0.0000000000000000e+00 1
1.2172165460657007e-01 -1.8502458396817448e-01 0.0000000000000000e+00 1
1.1660758357530408e-01 -1.7357511442458076e-01 0.0000000000000000e+00 1
1.1138500679702919e-01 -1.6202240044845750e-01 0.0000000000000000e+00 1
1.0605886463159593e-01 -1.5037396111634477e-01 0.0000000000000000e+00 1
1.0063409743885483e-01 -1.3863731550478256e-01 0.0000000000000000e+00 1
9.5115645578656358e-02 -1.2681998269031070e-01 0.0000000000000000e+00 1
8.9508449410851218e-02 -1.1492948174946935e-01 0.0000000000000000e+00 1
8.3817449295289836e-02 -1.0297333175879850e-01 0.0000000000000000e+00 1
7.8047585591822802e-02 -9.0959051794838069e-02 0.0000000000000000e+00 1
7.2203798660300605e-02 -7.8894160934128071e-02 0.0000000000000000e+00 1
6.6291028860573725e-02 -6.6786178253208373e-02 0.0000000000000000e+00 1
6.0314216552492847e-02 -5.4642622828619127e-02 0.0000000000000000e+00 1
5.4278302095908393e-02 -4.2471013736900300e-02 0.0000000000000000e+00 1
4.8188225850670938e-02 -3.0278870054591796e-02 0.0000000000000000e+00 1
4.2048928176631001e-02 -1.8073710858233671e-02 0.0000000000000000e+00 1
3.5865349433639129e-02 -5.8630552243658859e-03 0.0000000000000000e+00 1
2.9642429981545839e-02 6.3455777704715804e-03 0.0000000000000000e+00 1
2.3385110180201684e-02 1.8544669049738748e-02 0.0000000000000000e+00 1
1.7098330389457187e-02 3.0726699536895608e-02 0.0000000000000000e+00 1
1.0787030969162909e-02 4.2884150155402180e-02 0.0000000000000000e+00 1
4.4561522791692933e-03 5.5009501828718589e-02 0.0000000000000000e+00 1
-1.8893653206730025e-03 6.7095235480304660e-02 0.0000000000000000e+00 1
-8.2445814705134970e-03 7.9133832033620483e-02 0.0000000000000000e+00 1
-1.4604555810501647e-02 9.1117772412126069e-02 0.0000000000000000e+00 1
-2.0964347980786949e-02 1.0303953753928147e-01 0.0000000000000000e+00 1
-2.7319017621518813e-02 1.1489160833854664e-01 0.0000000000000000e+00 1
-3.3663624372846743e-02 1.2666646573338164e-01 0.0000000000000000e+00 1
-3.9993227874920254e-02 1.3835659064724656e-01 0.0000000000000000e+00 1
-4.6302887767888698e-02 1.4995446400360121e-01 0.0000000000000000e+00 1
-5.2587663691901598e-02 1.6145256672590574e-01 0.0000000000000000e+00 1
-5.8842615287108407e-02 1.7284337973762012e-01 0.0000000000000000e+00 1
-6.5062802193658620e-02 1.8411938396220440e-01 0.0000000000000000e+00 1
-7.1243284051701675e-02 1.9527306032311853e-01 0.0000000000000000e+00 1
-7.7379120501387039e-02 2.0629688974382263e-01 0.0000000000000000e+00 1
-8.3465371182864179e-02 2.1718335314777662e-01 0.0000000000000000e+00 1
-8.9497095736282575e-02 2.2792493145844056e-01 0.0000000000000000e+00 1
-9.5469353801791695e-02 2.3851410559927450e-01 0.0000000000000000e+00 1
-1.0137720501954098e-01 2.4894335649373833e-01 0.0000000000000000e+00 1
-1.0721570902967990e-01 2.5920516506529218e-01 0.0000000000000000e+00 1
-1.1297992547235793e-01 2.6929201223739596e-01 0.0000000000000000e+00 1
-1.1866491398772451e-01 2.7919637893350974e-01 0.0000000000000000e+00 1
-1.2426573421592914e-01 2.8891074607709361e-01 0.0000000000000000e+00 1
-1.2977744579712128e-01 2.9842759459160745e-01 0.0000000000000000e+00 1
-1.3519510837145041e-01 3.0773940540051142e-01 0.0000000000000000e+00 1
-1.4051378157906591e-01 3.1683865942726536e-01 0.0000000000000000e+00 1
-1.4572852506011733e-01 3.2571783759532941e-01 0.0000000000000000e+00 1
-1.5083439845475410e-01 3.3436942082816351e-01 0.0000000000000000e+00 1
-1.5582646140312573e-01 3.4278589004922777e-01 0.0000000000000000e+00 1
-1.6069977354538162e-01 3.5095972618198212e-01 0.0000000000000000e+00 1
-1.6544939452167126e-01 3.5888341014988656e-01 0.0000000000000000e+00 1
-1.6789300555815206e-01 3.6269258077288130e-01 0.0000000000000000e+00 1
-1.6987330433718259e-01 3.6523666858205750e-01 0.0000000000000000e+00 1
-1.7140929043618780e-01 3.6657431142798147e-01 0.0000000000000000e+00 1
-1.7251996343259263e-01 3.6676414716121986e-01 0.0000000000000000e+00 1
-1.7322432290382192e-01 3.6586481363233853e-01 0.0000000000000000e+00 1
-1.7354136842730056e-01 3.6393494869190385e-01 0.0000000000000000e+00 1
-1.7349009958045344e-01 3.6103319019048213e-01 0.0000000000000000e+00 1
-1.7308951594070554e-01 3.5721817597863986e-01 0.0000000000000000e+00 1
-1.7235861708548170e-01 3.5254854390694323e-01 0.0000000000000000e+00 1
-1.7131640259220676e-01 3.4708293182595829e-01 0.0000000000000000e+00 1
-1.6998187203830564e-01 3.4087997758625149e-01 0.0000000000000000e+00 1
-1.6837402500120338e-01 3.3399831903838928e-01 0.0000000000000000e+00 1
-1.6651186105832469e-01 3.2649659403293774e-01 0.0000000000000000e+00 1
-1.6441437978709453e-01 3.1843344042046318e-01 0.0000000000000000e+00 1
-1.6210058076493780e-01 3.0986749605153185e-01 0.0000000000000000e+00 1
-1.5958946356927944e-01 3.0085739877671036e-01 0.0000000000000000e+00 1
-1.5690002777754436e-01 2.9146178644656467e-01 0.0000000000000000e+00 1
-1.5405127296715732e-01 2.8173929691166105e-01 0.0000000000000000e+00 1
-1.5106219871554330e-01 2.7174856802256592e-01 0.0000000000000000e+00 1
-1.4795180460012722e-01 2.6154823762984564e-01 0.0000000000000000e+00 1
-1.4473909019833398e-01 2.5119694358406636e-01 0.0000000000000000e+00 1
-1.4144305508758842e-01 2.4075332373579436e-01 0.0000000000000000e+00 1
-1.3808269884531546e-01 2.3027601593559596e-01 0.0000000000000000e+00 1
-1.3467702104894003e-01 2.1982365803403753e-01 0.0000000000000000e+00 1
-1.3124502127588700e-01 2.0945488788168529e-01 0.0000000000000000e+00 1
-1.2780569910358125e-01 1.9922834332910547e-01 0.0000000000000000e+00 1
-1.2437805410944766e-01 1.8920266222686441e-01 0.0000000000000000e+00 1
-1.2098108587091121e-01 1.7943648242552848e-01 0.0000000000000000e+00 1
-1.1763379396539675e-01 1.6998844177566391e-01 0.0000000000000000e+00 1
-1.1435517797032914e-01 1.6091717812783687e-01 0.0000000000000000e+00 1
-1.1116423746313334e-01 1.5228132933261385e-01 0.0000000000000000e+00 1
-1.0807997202123419e-01 1.4413953324056100e-01 0.0000000000000000e+00 1
-1.0512138122205665e-01 1.3655042770224465e-01 0.0000000000000000e+00 1
-1.0230746464302554e-01 1.2957265056823108e-01 0.0000000000000000e+00 1
-9.9657221861565795e-02 1.2326483968908658e-01 0.0000000000000000e+00 1
-9.7189652455102332e-02 1.1768563291537748e-01 0.0000000000000000e+00 1
-9.4923756001060025e-02 1.1289366809767001e-01 0.0000000000000000e+00 1
-9.1615207732074364e-02 1.0623153514545217e-01 0.0000000000000000e+00 1
-8.7918759146828368e-02 9.8879435433713109e-02 0.0000000000000000e+00 1
-8.3852546555376856e-02 9.0872495362273625e-02 0.0000000000000000e+00 1
-7.9434706267774699e-02 8.2245841330954472e-02 0.0000000000000000e+00 1
-7.4683374594076743e-02 7.3034599739576447e-02 0.0000000000000000e+00 1
-6.9616687844337888e-02 6.3273896987960349e-02 0.0000000000000000e+00 1
-6.4252782328612965e-02 5.2998859475926967e-02 0.0000000000000000e+00 1
-5.8609794356956804e-02 4.2244613603297045e-02 0.0000000000000000e+00 1
-5.2705860239424321e-02 3.1046285769891411e-02 0.0000000000000000e+00 1
-4.6559116286070332e-02 1.9439002375530846e-02 0.0000000000000000e+00 1
-4.0187698806949737e-02 7.4578898200361315e-03 0.0000000000000000e+00 1
-3.3609744112117340e-02 -4.8619254967719669e-03 0.0000000000000000e+00 1
-2.6843388511628048e-02 -1.7485317175072630e-02 0.0000000000000000e+00 1
-1.9906768315536692e-02 -3.0377158815045067e-02 0.0000000000000000e+00 1
-1.2818019833898145e-02 -4.3502324016868550e-02 0.0000000000000000e+00 1
-5.5952793767672579e-03 -5.6825686380722239e-02 0.0000000000000000e+00 1
1.7433167458011066e-03 -7.0312119506785370e-02 0.0000000000000000e+00 1
9.1796322237520898e-03 -8.3926496995237160e-02 0.0000000000000000e+00 1
1.6695530747030837e-02 -9.7633692446256803e-02 0.0000000000000000e+00 1
2.4272876005582481e-02 -1.1139857946002349e-01 0.0000000000000000e+00 1
3.1893531689352134e-02 -1.2518603163671646e-01 0.0000000000000000e+00 1
3.9539361488285005e-02 -1.3896092257651502e-01 0.0000000000000000e+00 1
4.7192229092326204e-02 -1.5268812587959821e-01 0.0000000000000000e+00 1
5.4833998191420874e-02 -1.6633251514614544e-01 0.0000000000000000e+00 1
6.2446532475514113e-02 -1.7985896397633569e-01 0.0000000000000000e+00 1
7.0011695634551133e-02 -1.9323234597034841e-01 0.0000000000000000e+00 1
7.7511351358477032e-02 -2.0641753472836263e-01 0.0000000000000000e+00 1
8.4927363337236925e-02 -2.1937940385055762e-01 0.0000000000000000e+00 1
9.2241595260776035e-02 -2.3208282693711271e-01 0.0000000000000000e+00 1
9.9435910819039422e-02 -2.4449267758820700e-01 0.0000000000000000e+00 1
1.0649217370197230e-01 -2.5657382940401968e-01 0.0000000000000000e+00 1
1.1339224759951975e-01 -2.6829115598473002e-01 0.0000000000000000e+00 1
1.2011799620162696e-01 -2.7960953093051727e-01 0.0000000000000000e+00 1
1.2665128319823898e-01 -2.9049382784156053e-01 0.0000000000000000e+00 1
1.3297397227930105e-01 -3.0090892031803906e-01 0.0000000000000000e+00 1
1.3906792713475830e-01 -3.1081968196013215e-01 0.0000000000000000e+00 1
1.4491501145455585e-01 -3.2019098636801896e-01 0.0000000000000000e+00 1
1.5049708892863881e-01 -3.2898770714187858e-01 0.0000000000000000e+00 1
1.5579602324695238e-01 -3.3717471788189052e-01 0.0000000000000000e+00 1
1.6079367809944164e-01 -3.4471689218823365e-01 0.0000000000000000e+00 1
1.6547191717605172e-01 -3.5157910366108741e-01 0.0000000000000000e+00 1
1.6981260416672789e-01 -3.5772622590063097e-01 0.0000000000000000e+00 1
1.7379760276141518e-01 -3.6312313250704353e-01 0.0000000000000000e+00 1
1.7740877665005877e-01 -3.6773469708050427e-01 0.0000000000000000e+00 1
1.8062798952260375e-01 -3.7152579322119245e-01 0.0000000000000000e+00 1
1.8343710506899533e-01 -3.7446129452928728e-01 0.0000000000000000e+00 1
1.8581798697917859e-01 -3.7650607460496799e-01 0.0000000000000000e+00 1
1.8775249894309876e-01 -3.7762500704841379e-01 0.0000000000000000e+00 1
1.8922250465070084e-01 -3.7778296545980389e-01 0.0000000000000000e+00 1
1.9020986779193008e-01 -3.7694482343931734e-01 0.0000000000000000e+00 1
1.9069645205673161e-01 -3.7507545458713359e-01 0.0000000000000000e+00 1
1.9066412113505057e-01 -3.7213973250343180e-01 0.0000000000000000e+00 1
1.9009473871683205e-01 -3.6810253078839111e-01 0.0000000000000000e+00 1
1.8897016849202125e-01 -3.6292872304219082e-01 0.0000000000000000e+00 1
-9.1921770886932014e-02 1.1724109811171352e-01 0.0000000000000000e+00 1
-9.7945312130727130e-02 1.3538803885279971e-01 0.0000000000000000e+00 1
-8.4343699917297760e-02 1.0604700317519747e-01 0.0000000000000000e+00 1
-7.4447068166371241e-02 9.0244634905527185e-02 0.0000000000000000e+00 1
-6.3940260866158130e-02 7.2415861049320782e-02 0.0000000000000000e+00 1
-1.0530815388308515e-01 1.5943614189328215e-01 0.0000000000000000e+00 1
-1.1127943324096758e-01 1.7755665834866666e-01 0.0000000000000000e+00 1
-5.3239095356273872e-02 1.3933192896161814e-01 0.0000000000000000e+00 1
-5.2330254379357441e-02 5.2397248071848909e-02 0.0000000000000000e+00 1
-6.6583269234033085e-02 1.6133864804300146e-01 0.0000000000000000e+00 1
-4.1749348454721537e-02 2.9617924859253554e-02 0.0000000000000000e+00 1
-2.5506110437607827e-02 7.0894639628093243e-03 0.0000000000000000e+00 1
-3.4497360377287165e-02 1.0140764326218935e-01 0.0000000000000000e+00 1
-1.1758450975209531e-01 1.9713125834101367e-01 0.0000000000000000e+00 1
2.3454885627925054e-02 -5.8812802680734940e-03 0.0000000000000000e+00 1
3.6380588953806192e-02 -3.0706120631492861e-02 0.0000000000000000e+00 1
4.6525183016816782e-02 -5.1453173778839748e-02 0.0000000000000000e+00 1
5.8229645304959235e-02 -7.7210680786553534e-02 0.0000000000000000e+00 1
-2.3141617455507000e-02 7.8926089600200339e-02 0.0000000000000000e+00 1
-1.2397325107402093e-01 2.1792067753307837e-01 0.0000000000000000e+00 1
6.8238811606690083e-02 -1.0222758279117106e-01 0.0000000000000000e+00 1
8.0128989326795380e-02 -1.2722767050451819e-01 0.0000000000000000e+00 1
-7.7699345442826570e-02 1.8459489811561280e-01 0.0000000000000000e+00 1
9.1456243661910755e-02 -1.4913427800771789e-01 0.0000000000000000e+00 1
-9.6352971299275888e-03 5.5624690141054214e-02 0.0000000000000000e+00 1
1.0404605749849993e-01 -1.7229691089148441e-01 0.0000000000000000e+00 1
1.1390240255959701e-01 -1.9534704694877303e-01 0.0000000000000000e+00 1
3.7229802312029126e-03 3.1296906896778054e-02 0.0000000000000000e+00 1
-1.3089675252026675e-01 2.3931866450449471e-01 0.0000000000000000e+00 1
1.2471020612597142e-01 -2.1802863162941921e-01 0.0000000000000000e+00 1
-4.4025417921413831e-03 -3.1012258729798570e-02 0.0000000000000000e+00 1
1.3461556315498427e-01 -2.3916093144774267e-01 0.0000000000000000e+00 1
9.7978683571780072e-03 -5.7438507659123263e-02 0.0000000000000000e+00 1
-9.5661112749290345e-02 2.1698932259481157e-01 0.0000000000000000e+00 1
1.4313978508448777e-01 -2.5992415298521454e-01 0.0000000000000000e+00 1
-1.3925532969199189e-01 2.6005926927379136e-01 0.0000000000000000e+00 1
2.5387540504244095e-02 -8.6288352489413273e-02 0.0000000000000000e+00 1
1.5202670432531445e-01 -2.8092606666943831e-01 0.0000000000000000e+00 1
4.8967773855422760e-02 -1.2605736045998600e-01 0.0000000000000000e+00 1
6.3063391083713602e-02 -1.5343217065549897e-01 0.0000000000000000e+00 1
1.6062171082403059e-01 -2.9962364410354142e-01 0.0000000000000000e+00 1
-1.0743543649704093e-01 2.3858164922465913e-01 0.0000000000000000e+00 1
-1.3014560239144585e-01 2.7939039331331750e-01 0.0000000000000000e+00 1
8.4935104340129103e-02 -1.9362042710861854e-01 0.0000000000000000e+00 1
1.5543929933370834e-01 -3.1968310545997997e-01 0.0000000000000000e+00 1
-1.4642470500776364e-01 2.8979287388307845e-01 0.0000000000000000e+00 1
9.9096385669672049e-02 -2.1952136984548645e-01 0.0000000000000000e+00 1
1.8924788660894565e-01 -3.7570049196434541e-01 0.0000000000000000e+00 1
1.8625646462166415e-01 -3.7372437247218576e-01 0.0000000000000000e+00 1
1.7611531215291246e-01 -3.5714617198954968e-01 0.0000000000000000e+00 1
1.1987264757260969e-01 -2.5719531671000734e-01 0.0000000000000000e+00 1
1.6982190305341344e-01 -3.2855000775486981e-01 0.0000000000000000e+00 1
1.8615919859896693e-01 -3.6705939747934818e-01 0.0000000000000000e+00 1
-1.1852778999453875e-01 2.5944901225810352e-01 0.0000000000000000e+00 1
-1.7151572933029718e-01 3.6468400673602891e-01 0.0000000000000000e+00 1
1.6878546397628802e-01 -3.4430372406016857e-01 0.0000000000000000e+00 1
1.3184747218425563e-01 -2.7914118989443865e-01 0.0000000000000000e+00 1
-1.5407720972140421e-01 3.0840450873346925e-01 0.0000000000000000e+00 1
-1.5878950702471512e-01 3.2281940602614573e-01 0.0000000000000000e+00 1
1.4410395512596869e-01 -3.0083437878900587e-01 0.0000000000000000e+00 1
-1.7038803476803230e-01 3.5943037468530747e-01 0.0000000000000000e+00 1
-1.6830589780555974e-01 3.5513854896737712e-01 0.0000000000000000e+00 1
-5.8872606123733275e-02 1.5018174744053187e-01 0.0000000000000000e+00 1
-6.4607499536452118e-02 1.3973071696054901e-01 0.0000000000000000e+00 1
-5.9931936060842211e-02 1.2985604732385728e-01 0.0000000000000000e+00 1
-7.0490061187284708e-02 1.3080760105486453e-01 0.0000000000000000e+00 1
-6.6110812860331630e-02 1.2132537326054749e-01 0.0000000000000000e+00 1
-7.4966957704220752e-02 1.3979300750993495e-01 0.0000000000000000e+00 1
-8.0095105099731070e-02 1.3140054097118622e-01 0.0000000000000000e+00 1
-5.5547696237402168e-02 1.2000252817150707e-01 0.0000000000000000e+00 1
-6.1862164727451908e-02 1.1138482669721317e-01 0.0000000000000000e+00 1
-8.4273118909837477e-02 1.3982289473261589e-01 0.0000000000000000e+00 1
-7.9710167698730836e-02 1.4830541529483132e-01 0.0000000000000000e+00 1
-8.9120227593322887e-02 1.4825121573518074e-01 0.0000000000000000e+00 1
-8.4599184229210381e-02 1.5660300842548114e-01 0.0000000000000000e+00 1
-5.1301459844237819e-02 1.1024452930914394e-01 0.0000000000000000e+00 1
-5.7633422645315159e-02 1.0136719366791580e-01 0.0000000000000000e+00 1
-7.2134416333067136e-02 1.1289115009762346e-01 0.0000000000000000e+00 1
-7.5928102553591892e-02 1.2255564024033273e-01 0.0000000000000000e+00 1
-8.4962268266190966e-02 1.2351317125510249e-01 0.0000000000000000e+00 1
-8.9773488816452821e-02 1.3219203690221659e-01 0.0000000000000000e+00 1
-8.1487941002821737e-02 1.1510482323835232e-01 0.0000000000000000e+00 1
-9.5882224834038035e-02 1.5658112367489949e-01 0.0000000000000000e+00 1
-8.9928142070370476e-02 1.6572661630766744e-01 0.0000000000000000e+00 1
-7.9341554607465795e-02 1.6507222053383125e-01 0.0000000000000000e+00 1
-9.9179125668123050e-02 1.4791545455723895e-01 0.0000000000000000e+00 1
-1.4022603249899887e-01 2.9863118671237032e-01 0.0000000000000000e+00 1
1.7923315197600748e-01 -3.6242742380444676e-01 0.0000000000000000e+00 1
-1.7165691461115451e-01 3.6251691143225490e-01 0.0000000000000000e+00 1
1.8774490695444834e-01 -3.7098837847584498e-01 0.0000000000000000e+00 1
-4.6705440105811381e-02 1.0049912098003985e-01 0.0000000000000000e+00 1
-5.2955596304025139e-02 9.0667314440576310e-02 0.0000000000000000e+00 1
-4.1452267597287595e-02 9.0383281672967913e-02 0.0000000000000000e+00 1
-4.8026313185946835e-02 7.9925843492886964e-02 0.0000000000000000e+00 1
-3.6259046540153765e-02 7.9418527492087609e-02 0.0000000000000000e+00 1
-4.3253783543615268e-02 6.9410474387572280e-02 0.0000000000000000e+00 1
-3.1234324618821870e-02 6.7811578437039610e-02 0.0000000000000000e+00 1
-4.0644701416547975e-02 5.6232237036410358e-02 0.0000000000000000e+00 1
-2.4072281466522700e-02 5.4486601732515204e-02 0.0000000000000000e+00 1
-3.2960471077888298e-02 4.6471618105303175e-02 0.0000000000000000e+00 1
-2.2294441429553148e-02 4.1785702340781335e-02 0.0000000000000000e+00 1
-2.8486532626920684e-02 9.0715475329808795e-02 0.0000000000000000e+00 1
-1.6369577910327608e-02 6.7179671237455746e-02 0.0000000000000000e+00 1
9.2078310493664911e-02 -2.0663735412995538e-01 0.0000000000000000e+00 1
9.9912192996279126e-02 -1.9463439404853367e-01 0.0000000000000000e+00 1
1.0612122536253973e-01 -2.0712493002883919e-01 0.0000000000000000e+00 1
9.3650668685119481e-02 -1.8223540768409319e-01 0.0000000000000000e+00 1
7.7935058785708639e-02 -1.8080805064619676e-01 0.0000000000000000e+00 1
8.5953303513031362e-02 -1.6868407077524161e-01 0.0000000000000000e+00 1
7.0613048065906625e-02 -1.6721708836254318e-01 0.0000000000000000e+00 1
7.8533369779482123e-02 -1.5438938535914512e-01 0.0000000000000000e+00 1
7.1190147926468939e-02 -1.4082090445083265e-01 0.0000000000000000e+00 1
5.5810566136795289e-02 -1.3992170549826016e-01 0.0000000000000000e+00 1
6.4635036289440173e-02 -1.2741589656118463e-01 0.0000000000000000e+00 1
5.8314998262244649e-02 -1.1375918215038855e-01 0.0000000000000000e+00 1
4.0256041220843232e-02 -1.1060426265085781e-01 0.0000000000000000e+00 1
5.2889965306503757e-02 -1.0007776093388857e-01 0.0000000000000000e+00 1
3.8354374508600887e-02 -9.4451046788024365e-02 0.0000000000000000e+00 1
-6.7419995814353373e-02 1.0353405408819795e-01 0.0000000000000000e+00 1
1.2570396176785575e-01 -2.6853793273752080e-01 0.0000000000000000e+00 1
-9.2438995806825644e-02 1.2512289722458031e-01 0.0000000000000000e+00 1
1.0604535524815917e-01 -2.3211535830017249e-01 0.0000000000000000e+00 1
1.1490238127394961e-01 -2.4430377978434883e-01 0.0000000000000000e+00 1
1.1882724572644843e-01 -2.3036592651669596e-01 0.0000000000000000e+00 1
1.3745545726720365e-01 -2.9034955291474968e-01 0.0000000000000000e+00 1
1.6030601891188423e-01 -3.2848689611340576e-01 0.0000000000000000e+00 1
-8.3571484143010216e-02 1.9531455155514638e-01 0.0000000000000000e+00 1
-8.9835404983376360e-02 1.8505317035005997e-01 0.0000000000000000e+00 1
-9.5514439095255560e-02 1.9552006237665109e-01 0.0000000000000000e+00 1
-1.0254122390382836e-01 1.8435978309337930e-01 0.0000000000000000e+00 1
-9.4981314920236898e-02 1.7508705112532011e-01 0.0000000000000000e+00 1
-6.4364270290881223e-02 9.2280766055113886e-02 0.0000000000000000e+00 1
1.7216863608568850e-02 -7.1160548789442349e-02 0.0000000000000000e+00 1
3.1022392177967352e-02 -7.2123026508773724e-02 0.0000000000000000e+00 1
2.4087043330605185e-02 -5.8442336386708302e-02 0.0000000000000000e+00 1
1.7135065086618183e-02 -4.5095064672685356e-02 0.0000000000000000e+00 1
3.2360442571204670e-02 -4.5699195266042741e-02 0.0000000000000000e+00 1
2.7478845956979731e-03 -4.4184746645118483e-02 0.0000000000000000e+00 1
1.0004289509201977e-02 -3.1982613867006536e-02 0.0000000000000000e+00 1
3.3135362866490610e-03 -1.8896646076063429e-02 0.0000000000000000e+00 1
-1.1216389149458952e-02 -1.8031807997193852e-02 0.0000000000000000e+00 1
-3.0422437771235669e-03 -6.1165313309271560e-03 0.0000000000000000e+00 1
-1.7493571969703296e-02 -5.0106105941273918e-03 0.0000000000000000e+00 1
-9.4922901365360607e-03 6.5822073679731117e-03 0.0000000000000000e+00 1
-1.7518136033916071e-02 1.8881410054677781e-02 0.0000000000000000e+00 1
4.2301218704958636e-03 6.4405872410813374e-03 0.0000000000000000e+00 1
1.6584677842591145e-02 -1.9120040680295353e-02 0.0000000000000000e+00 1
1.4932186138897036e-01 -3.1084601408689405e-01 0.0000000000000000e+00 1
1.6088054678315558e-01 -3.0937569927608460e-01 0.0000000000000000e+00 1
-6.9202302426249723e-02 8.1672013279860484e-02 0.0000000000000000e+00 1
-1.3537445912044921e-01 2.8916670127707683e-01 0.0000000000000000e+00 1
-1.4242466387463829e-01 2.7863825516722102e-01 0.0000000000000000e+00 1
-1.3483100715093599e-01 2.6936863725143534e-01 0.0000000000000000e+00 1
-1.2387762222330165e-01 2.6951471826070927e-01 0.0000000000000000e+00 1
-4.4506743221359953e-02 1.1902469484131811e-01 0.0000000000000000e+00 1
-8.3899773072376227e-02 1.7494799783487527e-01 0.0000000000000000e+00 1
-8.9593820537590463e-02 2.0610968623233650e-01 0.0000000000000000e+00 1
-1.0107265861335835e-01 2.0594239436305353e-01 0.0000000000000000e+00 1
-1.0661782218293861e-01 2.1635468544944628e-01 0.0000000000000000e+00 1
-1.0187062937421090e-01 2.2744784157672784e-01 0.0000000000000000e+00 1
-1.1461073208052310e-01 2.2595558630249030e-01 0.0000000000000000e+00 1
-1.1966705491081503e-01 2.3837968042735130e-01 0.0000000000000000e+00 1
-3.2417714005444666e-02 2.1315077422966001e-02 0.0000000000000000e+00 1
-1.6122413949239617e-01 3.3107600280505528e-01 0.0000000000000000e+00 1
-7.9856642175268222e-02 9.8086894693975774e-02 0.0000000000000000e+00 1
-1.6322476735746300e-01 3.3853271660427797e-01 0.0000000000000000e+00 1
-8.8429023351716124e-02 1.1261884375635700e-01 0.0000000000000000e+00 1
-1.1307009491947045e-01 2.4908245844024313e-01 0.0000000000000000e+00 1
-1.2429359045130914e-01 2.4924949864191770e-01 0.0000000000000000e+00 1
-1.6481310220792622e-01 3.4516093117023178e-01 0.0000000000000000e+00 1
-5.8975454713293393e-02 6.2306357534583245e-02 0.0000000000000000e+00 1
1.7247635775718523e-01 -3.5123914842079851e-01 0.0000000000000000e+00 1
1.6589320451914352e-01 -3.1979586372446678e-01 0.0000000000000000e+00 1
-2.1942081694487766e-03 4.3841433034285920e-02 0.0000000000000000e+00 1
-1.0696793883364060e-02 3.2978328689411543e-02 0.0000000000000000e+00 1
1.6452372173377972e-01 -3.3681813718009557e-01 0.0000000000000000e+00 1
7.4107289031885237e-02 -1.1475552425258839e-01 0.0000000000000000e+00 1
-3.0706824710657931e-03 1.9369344248301654e-02 0.0000000000000000e+00 1
-1.0696292539351387e-01 1.9562762762992142e-01 0.0000000000000000e+00 1
-7.1612876409981249e-02 1.7415403057676027e-01 0.0000000000000000e+00 1
-1.0860628832236058e-01 1.6815031470217723e-01 0.0000000000000000e+00 1
1.5657613433248610e-01 -2.9167188146404666e-01 0.0000000000000000e+00 1
-1.1395453871179398e-01 1.8721907867756230e-01 0.0000000000000000e+00 1
-1.2100646119856012e-01 2.0722703176314672e-01 0.0000000000000000e+00 1
-1.5050007678206556e-01 3.1793561288391858e-01 0.0000000000000000e+00 1
-1.5031035257796777e-01 2.9929396336430181e-01 0.0000000000000000e+00 1
-1.2698458507998023e-01 2.2861238045617466e-01 0.0000000000000000e+00 1
-4.4394740395353412e-02 4.2011549278434979e-02 0.0000000000000000e+00 1
1.8397840136123880e-01 -3.7113146706704297e-01 0.0000000000000000e+00 1
-1.6749875864731120e-01 3.5017813641049850e-01 0.0000000000000000e+00 1
1.4773541943999705e-01 -2.7022982055633515e-01 0.0000000000000000e+00 1
-2.2937967638971105e-02 3.0206287202175421e-02 0.0000000000000000e+00 1
5.2264573602505554e-02 -6.4204574323536018e-02 0.0000000000000000e+00 1
1.3876234598224041e-01 -2.4952046153304466e-01 0.0000000000000000e+00 1
6.3408356916514724e-02 -8.9513458213432207e-02 0.0000000000000000e+00 1
1.1948944161343128e-01 -2.0648952832668419e-01 0.0000000000000000e+00 1
8.7745637372234939e-02 -1.3745879352528201e-01 0.0000000000000000e+00 1
1.0830675998689494e-01 -1.8385224299427322e-01 0.0000000000000000e+00 1
9.8530892156824007e-02 -1.6060523287712281e-01 0.0000000000000000e+00 1
4.9175444642144933e-02 -8.6462084189356414e-02 0.0000000000000000e+00 1
1.7347616644052069e-01 -3.3730898190429159e-01 0.0000000000000000e+00 1
-6.9467732111096164e-02 1.4932299510870373e-01 0.0000000000000000e+00 1
1.1238164329103700e-01 -2.1894095744121622e-01 0.0000000000000000e+00 1
-9.9777926673559919e-02 1.6660693980356328e-01 0.0000000000000000e+00 1
-4.7813720520607533e-02 1.2887304261315480e-01 0.0000000000000000e+00 1
-1.3479071871538284e-01 2.5016159588509301e-01 0.0000000000000000e+00 1
1.8195226090264838e-01 -3.6719763754907142e-01 0.0000000000000000e+00 1
1.7660896674848320e-01 -3.4497253555884067e-01 0.0000000000000000e+00 1
1.3200509514759728e-01 -2.5850646746785566e-01 0.0000000000000000e+00 1
1.2744680111227066e-01 -2.4808836526724468e-01 0.0000000000000000e+00 1
1.3009314742056660e-01 -2.2922860732620104e-01 0.0000000000000000e+00 1
1.0327196549388858e-02 -5.9653592914711857e-03 0.0000000000000000e+00 1
1.8753190212348281e-01 -3.7588433119759068e-01 0.0000000000000000e+00 1
-1.4456209637255946e-01 3.0840778230853211e-01 0.0000000000000000e+00 1
1.7238235345498516e-02 7.1720859393395175e-03 0.0000000000000000e+00 1
1.8886921130992540e-01 -3.7387707267949305e-01 0.0000000000000000e+00 1
1.3708529932742514e-01 -2.6909753512391099e-01 0.0000000000000000e+00 1
1.0434015924298394e-02 1.8925048818689151e-02 0.0000000000000000e+00 1
2.9549613579784671e-02 -1.8877906021874211e-02 0.0000000000000000e+00 1
-9.3489567410179122e-02 1.4083602414734303e-01 0.0000000000000000e+00 1
-1.1152531031661328e-01 2.0612369355444263e-01 0.0000000000000000e+00 1
1.8174868208984551e-01 -3.5626795536573808e-01 0.0000000000000000e+00 1
1.7834159892480131e-01 -3.5153301974399248e-01 0.0000000000000000e+00 1
1.8422262270167544e-01 -3.6207738668430084e-01 0.0000000000000000e+00 1
-7.5940381576107246e-02 1.5612845748116977e-01 0.0000000000000000e+00 1
-7.5955854144314564e-02 1.0533584637673148e-01 0.0000000000000000e+00 1
2.3323384852152400e-02 -3.2750913020373543e-02 0.0000000000000000e+00 1
-5.3688851111209954e-02 7.0844339341206569e-02 0.0000000000000000e+00 1
-1.2926267637124339e-01 2.5963378859517505e-01 0.0000000000000000e+00 1
-9.6382299947399594e-02 1.2924656757733005e-01 0.0000000000000000e+00 1
4.3354179592590796e-02 -4.0244291669487592e-02 0.0000000000000000e+00 1
-5.8696265697411827e-02 8.1301022943160828e-02 0.0000000000000000e+00 1
3.8055856541730895e-02 -6.0844065345026010e-02 0.0000000000000000e+00 1
1.4220439183654932e-01 -2.8036958645037086e-01 0.0000000000000000e+00 1
-1.0072966016250615e-01 1.4110321238688567e-01 0.0000000000000000e+00 1
-1.5797635081604344e-01 3.1549209282310575e-01 0.0000000000000000e+00 1
3.6871308433109137e-02 -8.2533002443988229e-02 0.0000000000000000e+00 1
4.4269870117069517e-02 -7.3896238932872310e-02 0.0000000000000000e+00 1
-8.7299870300162147e-02 1.1794879722159637e-01 0.0000000000000000e+00 1
-4.0866004234043025e-02 1.0921351934624757e-01 0.0000000000000000e+00 1
-1.1554671537053121e-01 2.1471633492052089e-01 0.0000000000000000e+00 1
1.4707599847510006e-01 -2.9247335354335263e-01 0.0000000000000000e+00 1
-1.7215578948828422e-01 3.6575343103855956e-01 0.0000000000000000e+00 1
-1.7013353560356115e-01 3.6334885169597325e-01 0.0000000000000000e+00 1
8.8618452277812065e-02 -1.5820324175480685e-01 0.0000000000000000e+00 1
-1.6972872418101925e-01 3.6161409095664371e-01 0.0000000000000000e+00 1
-4.9641433894484104e-02 6.1468105983507888e-02 0.0000000000000000e+00 1
-1.0369398774643288e-01 1.7450312494282316e-01 0.0000000000000000e+00 1
-1.0429137264560508e-01 1.5251499832130028e-01 0.0000000000000000e+00 1
1.8864257197609441e-01 -3.7676220185800169e-01 0.0000000000000000e+00 1
-1.4356802264838986e-01 2.6833985516752579e-01 0.0000000000000000e+00 1
-7.2664581984585808e-02 9.7374798169194310e-02 0.0000000000000000e+00 1
-3.2498248788585517e-02 3.5473614430501371e-02 0.0000000000000000e+00 1
-1.5333793927042810e-01 3.2783837780689817e-01 0.0000000000000000e+00 1
-1.3045426603711253e-02 4.5983571668041998e-02 0.0000000000000000e+00 1
-1.5742928190732008e-01 3.3634290883294138e-01 0.0000000000000000e+00 1
2.8256390639028094e-02 -1.0036173225154615e-01 0.0000000000000000e+00 1
-9.4265839716994190e-02 1.2090853085242162e-01 0.0000000000000000e+00 1
-9.0177748995420998e-02 1.2094689893308286e-01 0.0000000000000000e+00 1
1.5231981121927890e-01 -3.0196996044347341e-01 0.0000000000000000e+00 1
1.2514026719307469e-01 -2.3859199657418045e-01 0.0000000000000000e+00 1
8.2231349685024185e-02 -1.4545084033574440e-01 0.0000000000000000e+00 1

Edges
158
1 2 1
2 3 1
3 4 1
4 5 1
5 6 1
6 7 1
7 8 1
8 9 1
9 10 1
10 11 1
11 12 1
12 13 1
13 14 1
14 15 1
15 16 1
16 17 1
17 18 1
18 19 1
19 20 1
20 21 1
21 22 1
22 23 1
23 24 1
24 25 1
25 26 1
26 27 1
27 28 1
28 29 1
29 30 1
30 31 1
31 32 1
32 33 1
33 34 1
34 35 1
35 36 1
36 37 1
37 38 1
38 39 1
39 40 1
40 41 1
41 42 1
42 43 1
43 44 1
44 45 1
45 46 1
46 47 1
47 48 1
48 49 1
49 50 1
50 51 1
51 52 1
52 53 1
53 54 1
54 55 1
55 56 1
56 57 1
57 58 1
58 59 1
59 60 1
60 61 1
61 62 1
62 63 1
63 64 1
64 65 1
65 66 1
66 67 1
67 68 1
68 69 1
69 70 1
70 71 1
71 72 1
72 73 1
73 74 1
74 75 1
75 76 1
76 77 1
77 78 1
78 79 1
79 80 1
80 81 1
81 82 1
82 83 1
83 84 1
84 85 1
85 86 1
86 87 1
87 88 1
88 89 1
89 90 1
90 91 1
91 92 1
92 93 1
93 94 1
94 95 1
95 96 1
96 97 1
97 98 1
98 99 1
99 100 1
100 101 1
101 102 1
102 103 1
103 104 1
104 105 1
105 106 1
106 107 1
107 108 1
108 109 1
109 110 1
110 111 1
111 112 1
112 113 1
113 114 1
114 115 1
115 116 1
116 117 1
117 118 1
118 119 1
119 120 1
120 121 1
121 122 1
122 123 1
123 124 1
124 125 1
125 126 1
126 127 1
127 128 1
128 129 1
129 130 1
130 131 1
131 132 1
132 133 1
133 134 1
134 135 1
135 136 1
136 137 1
137 138 1
138 139 1
139 140 1
140 141 1
141 142 1
142 143 1
143 144 1
144 145 1
145 146 1
146 147 1
147 148 1
148 149 1
149 150 1
150 151 1
151 152 1
152 153 1
153 154 1
154 155 1
155 156 1
156 157 1
157 158 1
158 1 1

Triangles
680
43 313 398 1
270 180 272 1
24 25 335 1
180 270 355 1
178 319 345 1
183 257 413 1
67 68 404 1
267 184 357 1
43 44 313 1
333 303 336 1
265 184 267 1
256 167 346 1
273 179 275 1
257 183 261 1
319 178 399 1
240 161 384 1
160 239 378 1
240 238 397 1
290 308 390 1
108 109 308 1
355 270 420 1
170 302 303 1
219 67 404 1
6 7 307 1
371 206 374 1
85 86 310 1
161 240 325 1
250 290 390 1
196 392 400 1
66 220 348 1
258 256 346 1
257 259 413 1
319 320 345 1
177 253 255 1
39 40 261 1
239 160 388 1
253 177 260 1
243 168 338 1
171 251 260 1
171 249 251 1
275 179 353 1
170 301 302 1
236 237 240 1
377 305 385 1
174 377 385 1
165 288 341 1
392 283 400 1
124 125 274 1
237 238 240 1
351 391 396 1
203 284 331 1
265 263 356 1
1 2 380 1
116 117 301 1
73 213 401 1
354 264 361 1
207 371 374 1
184 265 356 1
177 255 261 1
248 207 374 1
236 225 237 1
44 45 363 1
275 353 358 1
236 240 384 1
180 24 335 1
303 302 336 1
185 263 264 1
25 179 335 1
365 211 382 1
282 188 361 1
124 274 415 1
204 85 310 1
313 44 363 1
179 273 335 1
251 253 260 1
183 39 261 1
268 267 269 1
188 354 361 1
114 115 321 1
197 271 272 1
170 116 301 1
245 204 309 1
40 177 261 1
197 272 273 1
7 199 307 1
75 76 220 1
246 148 365 1
333 259 350 1
6 307 331 1
353 176 358 1
162 108 308 1
320 187 345 1
248 211 347 1
272 180 335 1
186 333 336 1
164 241 362 1
117 299 301 1
317 319 399 1
221 168 360 1
147 148 246 1
288 337 341 1
304 370 373 1
109 163 308 1
69 70 213 1
168 243 383 1
370 173 373 1
284 210 331 1
195 276 395 1
246 365 382 1
47 168 221 1
68 69 402 1
239 230 378 1
364 327 387 1
237 227 238 1
197 126 271 1
168 48 338 1
344 245 372 1
307 203 331 1
188 282 369 1
276 195 415 1
274 276 415 1
224 226 227 1
259 333 413 1
217 343 412 1
169 321 411 1
287 316 337 1
219 75 220 1
324 65 328 1
309 204 310 1
223 222 224 1
213 73 247 1
351 175 391 1
175 295 391 1
315 192 316 1
169 114 321 1
194 364 387 1
125 197 274 1
117 118 299 1
289 242 314 1
52 192 315 1
166 221 222 1
241 164 407 1
156 248 374 1
198 268 269 1
187 320 327 1
321 350 411 1
391 292 396 1
346 169 411 1
258 346 411 1
263 185 356 1
238 227 239 1
287 315 316 1
263 262 264 1
310 86 409 1
135 209 281 1
157 158 211 1
281 209 368 1
65 66 328 1
227 230 239 1
229 236 277 1
189 297 298 1
225 224 237 1
126 127 271 1
198 128 268 1
216 344 372 1
317 318 319 1
189 296 297 1
212 57 312 1
115 170 321 1
269 267 403 1
157 211 248 1
262 205 264 1
224 222 226 1
57 58 312 1
295 175 389 1
322 412 414 1
166 46 221 1
224 227 237 1
54 200 318 1
105 161 325 1
150 151 207 1
137 215 278 1
210 284 334 1
181 314 338 1
156 157 248 1
139 218 283 1
42 171 260 1
132 205 262 1
166 222 223 1
141 203 306 1
67 219 220 1
380 2 381 1
171 43 398 1
314 243 338 1
41 42 260 1
204 245 344 1
201 309 310 1
343 217 394 1
74 75 219 1
189 119 296 1
45 46 166 1
177 41 260 1
280 134 281 1
73 74 247 1
318 200 319 1
170 303 321 1
229 225 236 1
201 310 311 1
286 289 314 1
53 54 318 1
140 141 306 1
223 224 225 1
288 165 406 1
134 135 281 1
227 226 230 1
280 281 282 1
118 189 299 1
138 139 283 1
242 289 362 1
291 292 293 1
306 203 307 1
266 267 268 1
238 239 279 1
232 241 244 1
303 333 350 1
311 194 387 1
136 137 278 1
45 166 363 1
286 288 289 1
181 286 314 1
202 262 263 1
266 265 267 1
255 257 261 1
199 340 418 1
47 48 168 1
51 52 315 1
181 285 286 1
340 400 418 1
286 287 288 1
209 136 278 1
191 291 293 1
264 205 361 1
273 272 335 1
119 120 296 1
185 264 354 1
295 174 385 1
316 192 317 1
74 219 247 1
231 226 360 1
205 133 280 1
154 155 206 1
60 245 309 1
198 269 270 1
102 279 388 1
360 168 383 1
133 134 280 1
226 222 360 1
202 265 266 1
202 131 262 1
155 156 374 1
316 317 379 1
46 47 221 1
210 334 359 1
191 121 291 1
215 138 283 1
320 326 327 1
232 244 378 1
298 297 305 1
131 132 262 1
181 50 285 1
235 229 277 1
286 285 287 1
312 311 387 1
135 136 209 1
187 327 364 1
280 282 361 1
42 43 171 1
291 195 292 1
208 147 246 1
58 201 312 1
137 138 215 1
132 133 205 1
127 198 271 1
319 200 320 1
59 60 309 1
189 298 299 1
130 131 202 1
139 140 218 1
320 200 326 1
294 293 295 1
197 273 274 1
49 50 181 1
191 293 294 1
218 140 306 1
304 373 376 1
202 263 265 1
336 304 376 1
128 129 268 1
127 128 198 1
122 195 291 1
326 212 327 1
141 142 203 1
50 51 285 1
201 59 309 1
274 273 275 1
192 53 318 1
130 202 266 1
299 298 300 1
129 266 268 1
244 241 407 1
125 126 197 1
146 147 208 1
122 123 195 1
60 61 245 1
200 55 326 1
241 242 362 1
56 212 326 1
121 122 291 1
142 143 284 1
4 5 210 1
52 53 192 1
99 244 407 1
105 106 161 1
120 191 296 1
340 196 400 1
58 59 201 1
120 121 191 1
301 300 302 1
299 300 301 1
203 142 284 1
158 1 382 1
296 294 297 1
54 55 200 1
56 57 212 1
118 119 189 1
107 162 323 1
40 41 177 1
337 172 341 1
285 51 315 1
378 244 393 1
129 130 266 1
174 295 389 1
115 116 170 1
213 70 401 1
113 169 346 1
55 56 326 1
104 105 325 1
302 300 304 1
113 114 169 1
271 270 272 1
307 199 418 1
343 216 372 1
38 183 332 1
38 39 183 1
153 154 408 1
317 192 318 1
290 162 308 1
111 167 329 1
269 182 420 1
109 110 163 1
182 269 403 1
191 294 296 1
111 112 167 1
144 145 214 1
48 49 338 1
235 277 290 1
101 102 388 1
288 287 337 1
3 4 359 1
62 63 343 1
207 151 371 1
107 108 162 1
244 99 393 1
186 332 333 1
281 368 419 1
37 38 332 1
302 304 336 1
186 37 332 1
36 37 186 1
250 235 290 1
274 275 276 1
84 85 204 1
151 152 371 1
7 8 199 1
100 101 160 1
87 88 194 1
279 102 416 1
222 221 360 1
287 285 315 1
230 231 232 1
201 311 312 1
143 144 334 1
306 307 418 1
207 248 347 1
97 98 164 1
321 303 350 1
93 94 172 1
33 34 173 1
95 96 165 1
198 270 271 1
284 143 334 1
232 233 241 1
379 317 399 1
89 90 187 1
91 92 178 1
82 83 216 1
49 181 338 1
9 10 196 1
5 6 331 1
112 113 346 1
210 5 331 1
145 146 330 1
31 32 174 1
149 150 347 1
228 225 229 1
90 91 345 1
29 30 175 1
305 297 385 1
92 93 342 1
80 81 217 1
245 61 372 1
94 95 341 1
347 211 365 1
11 12 193 1
110 111 329 1
295 293 391 1
4 210 359 1
337 316 379 1
27 28 176 1
96 97 339 1
13 14 190 1
255 254 256 1
234 229 235 1
8 9 340 1
28 29 351 1
251 250 252 1
257 256 258 1
305 173 370 1
25 26 179 1
15 16 188 1
17 18 185 1
23 24 180 1
21 22 182 1
19 20 184 1
83 84 344 1
26 27 353 1
106 107 323 1
10 11 349 1
253 252 254 1
79 80 322 1
148 149 365 1
276 275 358 1
249 235 250 1
187 90 345 1
84 204 344 1
12 13 352 1
257 258 259 1
22 23 355 1
20 21 357 1
91 178 345 1
16 17 354 1
18 19 356 1
311 310 409 1
412 64 414 1
343 63 412 1
178 92 342 1
255 256 257 1
93 172 342 1
334 214 359 1
62 343 372 1
325 240 397 1
199 8 340 1
172 94 341 1
278 215 375 1
9 196 340 1
29 175 351 1
2 3 366 1
144 214 334 1
205 280 361 1
294 295 385 1
214 145 330 1
253 254 255 1
95 165 341 1
146 208 330 1
277 236 384 1
176 28 351 1
167 112 346 1
173 305 377 1
165 96 339 1
209 278 367 1
196 10 349 1
304 300 370 1
27 176 353 1
251 252 253 1
78 79 324 1
97 164 339 1
179 26 353 1
241 233 242 1
98 99 407 1
11 193 349 1
3 359 366 1
232 231 233 1
298 305 370 1
249 250 251 1
223 225 228 1
252 250 390 1
230 226 231 1
193 12 352 1
13 190 352 1
327 212 387 1
359 214 366 1
194 88 364 1
23 180 355 1
89 187 364 1
182 22 355 1
215 283 392 1
228 229 234 1
163 110 329 1
195 123 415 1
21 182 357 1
234 235 249 1
279 239 388 1
184 20 357 1
188 16 354 1
19 184 356 1
17 185 354 1
185 18 356 1
322 217 412 1
216 83 344 1
339 164 362 1
186 336 376 1
36 186 376 1
167 256 405 1
289 288 406 1
76 77 348 1
173 34 373 1
103 104 159 1
150 207 347 1
33 173 377 1
194 311 409 1
242 243 314 1
88 89 364 1
333 332 413 1
99 100 393 1
77 78 328 1
80 217 322 1
174 32 377 1
166 223 363 1
214 330 366 1
242 233 243 1
220 76 348 1
15 188 369 1
161 106 323 1
190 14 369 1
172 337 379 1
102 103 416 1
228 234 313 1
267 357 403 1
87 194 409 1
216 343 394 1
31 174 389 1
14 15 369 1
175 30 389 1
82 216 394 1
2 366 381 1
276 358 395 1
328 66 348 1
212 312 387 1
231 360 383 1
300 298 370 1
79 322 324 1
223 228 363 1
293 292 391 1
282 281 419 1
230 232 378 1
61 62 372 1
154 206 408 1
193 352 367 1
352 190 368 1
249 171 398 1
34 35 373 1
160 378 393 1
358 176 396 1
233 231 383 1
190 369 419 1
209 367 368 1
373 35 376 1
32 33 377 1
35 36 376 1
283 218 400 1
162 290 410 1
217 81 394 1
228 313 363 1
176 351 396 1
77 328 348 1
247 219 404 1
297 294 385 1
193 367 375 1
290 277 410 1
349 193 375 1
308 163 390 1
1 380 382 1
342 172 379 1
367 352 368 1
350 259 411 1
259 258 411 1
254 252 386 1
161 323 384 1
182 355 420 1
78 324 328 1
375 215 392 1
238 279 417 1
81 82 394 1
208 246 380 1
234 249 398 1
30 31 389 1
159 325 397 1
270 269 420 1
292 195 395 1
160 101 388 1
366 330 381 1
243 233 383 1
367 278 375 1
339 362 406 1
64 65 414 1
256 254 405 1
369 282 419 1
163 329 386 1
159 104 325 1
211 158 382 1
149 347 365 1
323 162 410 1
63 64 412 1
380 246 382 1
152 153 408 1
329 167 405 1
330 208 381 1
349 375 392 1
196 349 392 1
70 71 401 1
400 218 418 1
342 379 399 1
213 247 402 1
100 160 393 1
86 87 409 1
218 306 418 1
71 72 401 1
332 183 413 1
362 289 406 1
123 124 415 1
164 98 407 1
386 329 405 1
292 395 396 1
178 342 399 1
254 386 405 1
384 323 410 1
65 324 414 1
165 339 406 1
313 234 398 1
208 380 381 1
357 182 403 1
206 155 374 1
371 152 408 1
163 386 390 1
277 384 410 1
103 159 416 1
386 252 390 1
395 358 396 1
368 190 419 1
324 322 414 1
68 402 404 1
69 213 402 1
206 371 408 1
159 397 417 1
397 238 417 1
402 247 404 1
416 159 417 1
279 416 417 1
66 67 220 1
72 73 401 1

End
