MeshVersionFormatted 2
Dimension 3

Vertices
702
-1.3204743180970838e-01 -3.4033216918936982e-01 0.0000000000000000e+00 1
-1.3242245770167033e-01 -3.4396215924896334e-01 0.0000000000000000e+00 1
-1.3211910893326059e-01 -3.4658243264464017e-01 0.0000000000000000e+00 1
-1.3117603862817753e-01 -3.4824115481357321e-01 0.0000000000000000e+00 1
-1.2963189991011956e-01 -3.4898649119293590e-01 0.0000000000000000e+00 1
-1.2752534590278508e-01 -3.4886660721990115e-01 0.0000000000000000e+00 1
-1.2489502972987244e-01 -3.4792966833164218e-01 0.0000000000000000e+00 1
-1.2177960451508006e-01 -3.4622383996533201e-01 0.0000000000000000e+00 1
-1.1821772338210625e-01 -3.4379728755814398e-01 0.0000000000000000e+00 1
-1.1424803945464954e-01 -3.4069817654725121e-01 0.0000000000000000e+00 1
-1.0990920585640811e-01 -3.3697467236982648e-01 0.0000000000000000e+00 1
-1.0523987571108055e-01 -3.3267494046304347e-01 0.0000000000000000e+00 1
-1.0027870214236509e-01 -3.2784714626407474e-01 0.0000000000000000e+00 1
-9.5064338273960186e-02 -3.2253945521009386e-01 0.0000000000000000e+00 1
-8.9635437229564255e-02 -3.1680003273827384e-01 0.0000000000000000e+00 1
-8.4030652132875597e-02 -3.1067704428578768e-01 0.0000000000000000e+00 1
-7.8288636107592680e-02 -3.0421865528980874e-01 0.0000000000000000e+00 1
-7.2448042277413832e-02 -2.9747303118751001e-01 0.0000000000000000e+00 1
-6.6547523766037467e-02 -2.9048833741606461e-01 0.0000000000000000e+00 1
-6.0625733697161947e-02 -2.8331273941264568e-01 0.0000000000000000e+00 1
-5.4721325194485679e-02 -2.7599440261442648e-01 0.0000000000000000e+00 1
-4.8872951381707046e-02 -2.6858149245857998e-01 0.0000000000000000e+00 1
-4.3119265382524412e-02 -2.6112217438227947e-01 0.0000000000000000e+00 1
-3.7498920320636182e-02 -2.5366461382269789e-01 0.0000000000000000e+00 1
-3.2050569319740770e-02 -2.4625697621700857e-01 0.0000000000000000e+00 1
-2.6812865503536502e-02 -2.3894742700238453e-01 0.0000000000000000e+00 1
-2.1824461995721793e-02 -2.3178413161599892e-01 0.0000000000000000e+00 1
-1.7124011919995012e-02 -2.2481525549502487e-01 0.0000000000000000e+00 1
-1.2750168400054563e-02 -2.1808896407663556e-01 0.0000000000000000e+00 1
-8.7415845595988223e-03 -2.1165342279800406e-01 0.0000000000000000e+00 1
-5.1369135223261779e-03 -2.0555679709630356e-01 0.0000000000000000e+00 1
-1.9748084119350136e-03 -1.9984725240870715e-01 0.0000000000000000e+00 1
7.0607764787628501e-04 -1.9457295417238801e-01 0.0000000000000000e+00 1
2.8670915334093328e-03 -1.8978206782451923e-01 0.0000000000000000e+00 1
4.4695801209657434e-03 -1.8552275880227395e-01 0.0000000000000000e+00 1
6.7410300472192167e-03 -1.7854869503129273e-01 0.0000000000000000e+00 1
9.2092463695724967e-03 -1.7081867855174604e-01 0.0000000000000000e+00 1
1.1862211590009006e-02 -1.6236879898468493e-01 0.0000000000000000e+00 1
1.4687908210512192e-02 -1.5323514595116045e-01 0.0000000000000000e+00 1
1.7674318733065485e-02 -1.4345380907222371e-01 0.0000000000000000e+00 1
2.0809425659652318e-02 -1.3306087796892593e-01 0.0000000000000000e+00 1
2.4081211492256144e-02 -1.2209244226231805e-01 0.0000000000000000e+00 1
2.7477658732860372e-02 -1.1058459157345127e-01 0.0000000000000000e+00 1
3.0986749883448440e-02 -9.8573415523376604e-02 0.0000000000000000e+00 1
3.4596467446003788e-02 -8.6095003733145201e-02 0.0000000000000000e+00 1
3.8294793922509868e-02 -7.3185445823808162e-02 0.0000000000000000e+00 1
4.2069711814950096e-02 -5.9880831416416563e-02 0.0000000000000000e+00 1
4.5909203625307912e-02 -4.6217250132021527e-02 0.0000000000000000e+00 1
4.9801251855566747e-02 -3.2230791591674121e-02 0.0000000000000000e+00 1
5.3733839007710053e-02 -1.7957545416425476e-02 0.0000000000000000e+00 1
5.7694947583721241e-02 -3.4336012273266589e-03 0.0000000000000000e+00 1
6.1672560085583743e-02 1.1304951354571227e-02 0.0000000000000000e+00 1
6.5654659015281017e-02 2.6222022708217024e-02 0.0000000000000000e+00 1
6.9629226874796502e-02 4.1281523212559762e-02 0.0000000000000000e+00 1
7.3584246166113587e-02 5.6447363246548254e-02 0.0000000000000000e+00 1
7.7507699391215781e-02 7.1683453189131441e-02 0.0000000000000000e+00 1
8.1387569052086467e-02 8.6953703419258177e-02 0.0000000000000000e+00 1
8.5211837650709082e-02 1.0222202431587737e-01 0.0000000000000000e+00 1
8.8968487689067052e-02 1.1745232625793794e-01 0.0000000000000000e+00 1
9.2645501669143843e-02 1.3260851962438885e-01 0.0000000000000000e+00 1
9.6230862092922906e-02 1.4765451479417893e-01 0.0000000000000000e+00 1
9.9712551462387597e-02 1.6255422214625700e-01 0.0000000000000000e+00 1
1.0307855227952142e-01 1.7727155205957221e-01 0.0000000000000000e+00 1
1.0631684704630780e-01 1.9177041491307320e-01 0.0000000000000000e+00 1
1.0941541826473017e-01 2.0601472108570909e-01 0.0000000000000000e+00 1
1.1236224843677194e-01 2.1996838095642859e-01 0.0000000000000000e+00 1
1.1514532006441658e-01 2.3359530490418076e-01 0.0000000000000000e+00 1
1.1775261564964748e-01 2.4685940330791442e-01 0.0000000000000000e+00 1
1.2017211769444813e-01 2.5972458654657848e-01 0.0000000000000000e+00 1
1.2239180870080194e-01 2.7215476499912183e-01 0.0000000000000000e+00 1
1.2439967117069231e-01 2.8411384904449333e-01 0.0000000000000000e+00 1
1.2618368760610274e-01 2.9556574906164201e-01 0.0000000000000000e+00 1
1.2773184050901662e-01 3.0647437542951683e-01 0.0000000000000000e+00 1
1.2903211238141740e-01 3.1680363852706639e-01 0.0000000000000000e+00 1
1.3007248572528851e-01 3.2651744873323985e-01 0.0000000000000000e+00 1
1.3084094304261337e-01 3.3557971642698603e-01 0.0000000000000000e+00 1
1.3132546683537547e-01 3.4395435198725388e-01 0.0000000000000000e+00 1
1.3151403960555816e-01 3.5160526579299223e-01 0.0000000000000000e+00 1
1.3139464385514496e-01 3.5849636822315001e-01 0.0000000000000000e+00 1
1.3095526208611927e-01 3.6459156965667605e-01 0.0000000000000000e+00 1
1.3018387680046453e-01 3.6985478047251952e-01 0.0000000000000000e+00 1
1.2906847050016412e-01 3.7424991104962890e-01 0.0000000000000000e+00 1
1.2759702568720158e-01 3.7774087176695359e-01 0.0000000000000000e+00 1
1.2575752486356023e-01 3.8029157300344196e-01 0.0000000000000000e+00 1
1.2353795053122360e-01 3.8186592513804340e-01 0.0000000000000000e+00 1
1.2092628519217508e-01 3.8242783854970641e-01 0.0000000000000000e+00 1
1.1791051134839811e-01 3.8194122361738025e-01 0.0000000000000000e+00 1
1.1447861150187613e-01 3.8036999072001354e-01 0.0000000000000000e+00 1
1.1061856815459259e-01 3.7767805023655532e-01 0.0000000000000000e+00 1
1.0631836380853088e-01 3.7382931254595442e-01 0.0000000000000000e+00 1
1.0156598096567446e-01 3.6878768802715978e-01 0.0000000000000000e+00 1
9.5813447007128572e-02 3.6204071244980485e-01 0.0000000000000000e+00 1
9.0124046341367961e-02 3.5492536493862514e-01 0.0000000000000000e+00 1
8.4497953508578791e-02 3.4745281399396455e-01 0.0000000000000000e+00 1
7.8935343048947226e-02 3.3963422811616695e-01 0.0000000000000000e+00 1
7.3436389502659447e-02 3.3148077580557611e-01 0.0000000000000000e+00 1
6.8001267409901617e-02 3.2300362556253592e-01 0.0000000000000000e+00 1
6.2630151310859875e-02 3.1421394588739016e-01 0.0000000000000000e+00 1
5.7323215745720434e-02 3.0512290528048236e-01 0.0000000000000000e+00 1
5.2080635254669390e-02 2.9574167224215675e-01 0.0000000000000000e+00 1
4.6902584377892985e-02 2.8608141527275699e-01 0.0000000000000000e+00 1
4.1789237655577349e-02 2.7615330287262685e-01 0.0000000000000000e+00 1
3.6740769627908648e-02 2.6596850354211021e-01 0.0000000000000000e+00 1
3.1757354835073054e-02 2.5553818578155085e-01 0.0000000000000000e+00 1
2.6839167817256732e-02 2.4487351809129262e-01 0.0000000000000000e+00 1
2.1986383114645860e-02 2.3398566897167930e-01 0.0000000000000000e+00 1
1.7199175267426571e-02 2.2288580692305468e-01 0.0000000000000000e+00 1
1.2477718815785068e-02 2.1158510044576265e-01 0.0000000000000000e+00 1
7.8221882999075076e-03 2.0009471804014697e-01 0.0000000000000000e+00 1
3.2327582599800484e-03 1.8842582820655154e-01 0.0000000000000000e+00 1
-1.2903967638111472e-03 1.7658959944532007e-01 0.0000000000000000e+00 1
-5.7471022312798915e-03 1.6459720025679642e-01 0.0000000000000000e+00 1
-1.0137183602240040e-02 1.5245979914132443e-01 0.0000000000000000e+00 1
-1.4460466336505415e-02 1.4018856459924789e-01 0.0000000000000000e+00 1
-1.8716775893889856e-02 1.2779466513091059e-01 0.0000000000000000e+00 1
-2.2905937734207189e-02 1.1528926923665639e-01 0.0000000000000000e+00 1
-2.7027777317271254e-02 1.0268354541682909e-01 0.0000000000000000e+00 1
-3.1082120102895884e-02 8.9988662171772538e-02 0.0000000000000000e+00 1
-3.5068791550894908e-02 7.7215788001830460e-02 0.0000000000000000e+00 1
-3.8987617121082167e-02 6.4376091407346778e-02 0.0000000000000000e+00 1
-4.2838422273271490e-02 5.1480740888665236e-02 0.0000000000000000e+00 1
-4.6621032467276703e-02 3.8540904946129717e-02 0.0000000000000000e+00 1
-5.0335273162911663e-02 2.5567752080083953e-02 0.0000000000000000e+00 1
-5.3980969819990170e-02 1.2572450790871825e-02 0.0000000000000000e+00 1
-5.7557947898326085e-02 -4.3383042116288545e-04 0.0000000000000000e+00 1
-6.1066032857733231e-02 -1.3439923055676296e-02 0.0000000000000000e+00 1
-6.4505050158025448e-02 -2.6434658612324712e-02 0.0000000000000000e+00 1
-6.7874825259016558e-02 -3.9406868590764199e-02 0.0000000000000000e+00 1
-7.1175183620520402e-02 -5.2345384490651015e-02 0.0000000000000000e+00 1
-7.4405950702350815e-02 -6.5239037811641309e-02 0.0000000000000000e+00 1
-7.7566951964321632e-02 -7.8076660053391297e-02 0.0000000000000000e+00 1
-8.0658012866246673e-02 -9.0847082715557109e-02 0.0000000000000000e+00 1
-8.3678958867939773e-02 -1.0353913729779499e-01 0.0000000000000000e+00 1
-8.6629615429214796e-02 -1.1614165529976106e-01 0.0000000000000000e+00 1
-8.9509808009885547e-02 -1.2864346822111156e-01 0.0000000000000000e+00 1
-9.2319362069765848e-02 -1.4103340756150265e-01 0.0000000000000000e+00 1
-9.5058103068669575e-02 -1.5330030482059048e-01 0.0000000000000000e+00 1
-9.7725856466410521e-02 -1.6543299149803131e-01 0.0000000000000000e+00 1
-1.0032244772280255e-01 -1.7742029909348125e-01 0.0000000000000000e+00 1
-1.0284770229765947e-01 -1.8925105910659654e-01 0.0000000000000000e+00 1
-1.0530144565079512e-01 -2.0091410303703333e-01 0.0000000000000000e+00 1
-1.0768350324202336e-01 -2.1239826238444781e-01 0.0000000000000000e+00 1
-1.0999370053115798e-01 -2.2369236864849615e-01 0.0000000000000000e+00 1
-1.1223186297801285e-01 -2.3478525332883457e-01 0.0000000000000000e+00 1
-1.1439781604240179e-01 -2.4566574792511928e-01 0.0000000000000000e+00 1
-1.1649138518413862e-01 -2.5632268393700630e-01 0.0000000000000000e+00 1
-1.1851239586303719e-01 -2.6674489286415204e-01 0.0000000000000000e+00 1
-1.2046067353891135e-01 -2.7692120620621258e-01 0.0000000000000000e+00 1
-1.2233604367157488e-01 -2.8684045546284404e-01 0.0000000000000000e+00 1
-1.2413833172084168e-01 -2.9649147213370269e-01 0.0000000000000000e+00 1
-1.2586736314652555e-01 -3.0586308771844462e-01 0.0000000000000000e+00 1
-1.2752296340844033e-01 -3.1494413371672625e-01 0.0000000000000000e+00 1
-1.2910495796639981e-01 -3.2372344162820343e-01 0.0000000000000000e+00 1
-1.3061317228021788e-01 -3.3218984295253251e-01 0.0000000000000000e+00 1
4.9360887963373400e-04 -1.8690313804546888e-01 0.0000000000000000e+00 1
-1.1643143712569411e-02 -2.0584969094304711e-01 0.0000000000000000e+00 1
-2.5546916447703297e-02 -2.2407026328786453e-01 0.0000000000000000e+00 1
3.5738438905223305e-03 -1.6455307832656538e-01 0.0000000000000000e+00 1
-8.6585931995367404e-02 -1.6092136315529867e-01 0.0000000000000000e+00 1
1.0523999517316565e-02 -1.3571615847710056e-01 0.0000000000000000e+00 1
1.9058417293448371e-02 -1.0170986408307206e-01 0.0000000000000000e+00 1
-5.8365198562419236e-02 -4.8866473365636473e-02 0.0000000000000000e+00 1
-4.1119089742968531e-02 -2.4529450060184518e-01 0.0000000000000000e+00 1
-7.1307605674951119e-02 -1.0011008756868296e-01 0.0000000000000000e+00 1
-4.8060424520276812e-02 -9.9717197204401038e-03 0.0000000000000000e+00 1
-3.7415352514562857e-02 3.0827328624690085e-02 0.0000000000000000e+00 1
-9.4413792399756405e-02 -1.9705480229503647e-01 0.0000000000000000e+00 1
-2.6078984063098751e-02 6.7903009189997268e-02 0.0000000000000000e+00 1
-1.3278580865513614e-02 1.0424870024424075e-01 0.0000000000000000e+00 1
-1.7139288337463914e-03 1.4259501358243093e-01 0.0000000000000000e+00 1
1.0363364263355764e-02 1.7856933048861862e-01 0.0000000000000000e+00 1
2.8841896503396289e-02 -6.3438492442371833e-02 0.0000000000000000e+00 1
2.4934297683787604e-02 2.1370891996558355e-01 0.0000000000000000e+00 1
3.8637026765250909e-02 2.4564808086958312e-01 0.0000000000000000e+00 1
-5.8189602335753612e-02 -2.6717327636599875e-01 0.0000000000000000e+00 1
3.9708874618106273e-02 -2.1748522556428399e-02 0.0000000000000000e+00 1
5.0831034944763279e-02 2.2049934156383656e-02 0.0000000000000000e+00 1
5.2600071806505527e-02 2.7677917477328196e-01 0.0000000000000000e+00 1
6.2292196463849793e-02 6.7207436491799749e-02 0.0000000000000000e+00 1
-1.0237942813866335e-01 -2.3169061613991659e-01 0.0000000000000000e+00 1
6.7344277826391546e-02 3.0540785886135235e-01 0.0000000000000000e+00 1
8.1477969396899733e-02 1.4321984951299740e-01 0.0000000000000000e+00 1
9.4556056162953234e-02 2.0136270741885143e-01 0.0000000000000000e+00 1
1.0517007494207554e-01 2.4260335085753831e-01 0.0000000000000000e+00 1
-7.6282895904908651e-02 -2.8850618352435081e-01 0.0000000000000000e+00 1
1.2050496770522591e-01 3.1395487214755385e-01 0.0000000000000000e+00 1
1.1276265742135419e-01 2.8029421464029419e-01 0.0000000000000000e+00 1
1.2609324068930078e-01 3.5563320358669392e-01 0.0000000000000000e+00 1
9.4511495735670900e-02 3.4589029471198812e-01 0.0000000000000000e+00 1
1.1464914689919474e-01 3.7601197715965412e-01 0.0000000000000000e+00 1
-8.0241839653342514e-02 -1.3725859946812044e-01 0.0000000000000000e+00 1
-1.0867245333115415e-01 -2.6332999365722265e-01 0.0000000000000000e+00 1
8.9484407263107579e-02 1.7256063711407993e-01 0.0000000000000000e+00 1
7.4039076118825708e-02 1.1207418495851593e-01 0.0000000000000000e+00 1
-6.4984396086332927e-02 -7.4402926983929626e-02 0.0000000000000000e+00 1
-8.6867917456184121e-02 -3.0080676884171398e-01 0.0000000000000000e+00 1
8.2885612281509022e-02 3.3074548179727431e-01 0.0000000000000000e+00 1
-4.9469605348418690e-03 -1.9501804366313194e-01 0.0000000000000000e+00 1
-9.7649932923323315e-02 -3.1669826501483933e-01 0.0000000000000000e+00 1
1.2260397931288947e-01 3.3139774303910230e-01 0.0000000000000000e+00 1
1.2634780897194151e-01 3.6660442654376030e-01 0.0000000000000000e+00 1
-1.1281737883675381e-01 -2.8333392121353573e-01 0.0000000000000000e+00 1
1.0799548551796276e-01 3.6738269254845224e-01 0.0000000000000000e+00 1
-1.0745850148054722e-01 -3.2571490806062925e-01 0.0000000000000000e+00 1
-1.2161926601144926e-01 -3.4213651060677253e-01 0.0000000000000000e+00 1
1.2550113911914051e-01 3.7489745826905663e-01 0.0000000000000000e+00 1
-1.2692247092367756e-01 -3.4639850919761056e-01 0.0000000000000000e+00 1
-1.1681576096164560e-01 -3.0271347434752199e-01 0.0000000000000000e+00 1
-1.1557194491342906e-01 -3.3611478279828444e-01 0.0000000000000000e+00 1
1.2001500347060849e-01 3.7983998710975109e-01 0.0000000000000000e+00 1
-1.2117303484122041e-01 -3.2181576508482401e-01 0.0000000000000000e+00 1
-1.2931827358076273e-01 -3.4244849485395673e-01 0.0000000000000000e+00 1
-1.3028390218463212e-01 -3.4663647510598727e-01 0.0000000000000000e+00 1
1.2320328030391783e-01 3.7927291977690342e-01 0.0000000000000000e+00 1
1.2135845788521196e-01 3.7672935544288999e-01 0.0000000000000000e+00 1
1.2209202768580331e-01 3.7252626084321894e-01 0.0000000000000000e+00 1
-1.2706019784156203e-01 -3.3730402557247741e-01 0.0000000000000000e+00 1
-1.2345811870685741e-01 -3.3008736499254249e-01 0.0000000000000000e+00 1
-1.1633343348920167e-01 -3.2727191798319155e-01 0.0000000000000000e+00 1
-1.1298974978913574e-01 -3.2039843395408313e-01 0.0000000000000000e+00 1
-1.1717111051764702e-01 -3.1347419992819830e-01 0.0000000000000000e+00 1
-1.0955768643974537e-01 -3.0773989279928687e-01 0.0000000000000000e+00 1
-1.0835360931848435e-01 -2.9874020911591403e-01 0.0000000000000000e+00 1
-1.0130457781525198e-01 -3.0380324403102943e-01 0.0000000000000000e+00 1
-1.0028134209084888e-01 -2.9534029608417250e-01 0.0000000000000000e+00 1
-1.0541582969565419e-01 -3.1842825498161886e-01 0.0000000000000000e+00 1
1.7062264661862861e-03 -1.7245651429698974e-01 0.0000000000000000e+00 1
-4.2405416617411328e-03 -1.6693672609520421e-01 0.0000000000000000e+00 1
-2.7796642672222476e-03 -1.5838500298232619e-01 0.0000000000000000e+00 1
-1.0764892959776996e-02 -1.6135856669189025e-01 0.0000000000000000e+00 1
-1.2179115587944061e-02 -1.6970692202713233e-01 0.0000000000000000e+00 1
-1.8912773773060099e-02 -1.6424649665921653e-01 0.0000000000000000e+00 1
-1.6504312022013586e-02 -1.5523409032417701e-01 0.0000000000000000e+00 1
-2.0483990597617033e-02 -1.7284513933350237e-01 0.0000000000000000e+00 1
-2.7315422404960536e-02 -1.6713194669925246e-01 0.0000000000000000e+00 1
-2.8927339908620474e-02 -1.7605324307143458e-01 0.0000000000000000e+00 1
-3.5897543110058605e-02 -1.7013255252452936e-01 0.0000000000000000e+00 1
-3.7555426987844504e-02 -1.7933454863986462e-01 0.0000000000000000e+00 1
-4.4841626389654457e-02 -1.7325815131660310e-01 0.0000000000000000e+00 1
-4.6410688343856532e-02 -1.8266934209964247e-01 0.0000000000000000e+00 1
-4.3135355744711390e-02 -1.6375244460110852e-01 0.0000000000000000e+00 1
-3.9143195078838788e-02 -1.8899862272485993e-01 0.0000000000000000e+00 1
-4.7971970624719751e-02 -1.9227762296404499e-01 0.0000000000000000e+00 1
-5.5479917404845099e-02 -1.8605406499137259e-01 0.0000000000000000e+00 1
-5.6910261661682338e-02 -1.9571039404513407e-01 0.0000000000000000e+00 1
-4.9366410609754247e-02 -2.0176865281426459e-01 0.0000000000000000e+00 1
-5.8249345103901493e-02 -2.0531044057533490e-01 0.0000000000000000e+00 1
-5.0643520666397851e-02 -2.1117916228041428e-01 0.0000000000000000e+00 1
-5.9577541230051101e-02 -2.1488670019561990e-01 0.0000000000000000e+00 1
-5.2337325850338220e-02 -1.6693518048036424e-01 0.0000000000000000e+00 1
-5.0226589787634564e-02 -1.5718264824531869e-01 0.0000000000000000e+00 1
-2.1376750351244381e-02 -1.8087147878900170e-01 0.0000000000000000e+00 1
-6.4765959044977145e-02 -1.8959148732135683e-01 0.0000000000000000e+00 1
-4.0996191167599678e-02 -1.5389121836829128e-01 0.0000000000000000e+00 1
-4.8669824922915536e-02 -1.4705541709794220e-01 0.0000000000000000e+00 1
-3.8670182321631101e-02 -1.4356094773645317e-01 0.0000000000000000e+00 1
-4.7141302579135763e-02 -1.3685323350828055e-01 0.0000000000000000e+00 1
-3.6408031705085026e-02 -1.3300849597102207e-01 0.0000000000000000e+00 1
-4.4768944925879961e-02 -1.2559337714386720e-01 0.0000000000000000e+00 1
-3.3980192228335877e-02 -1.2196641500728199e-01 0.0000000000000000e+00 1
-2.5656167908825266e-02 -1.2958274813293841e-01 0.0000000000000000e+00 1
-2.3225888607270415e-02 -1.1832399428721840e-01 0.0000000000000000e+00 1
-3.1533973646837382e-02 -1.1052681947522444e-01 0.0000000000000000e+00 1
-2.0823198316900604e-02 -1.0674987550410217e-01 0.0000000000000000e+00 1
-2.9163845930815953e-02 -9.8703939858855519e-02 0.0000000000000000e+00 1
-1.8266240364715122e-02 -9.4309260070349857e-02 0.0000000000000000e+00 1
-2.6789409522038135e-02 -8.6473999327907197e-02 0.0000000000000000e+00 1
-1.4949890136672042e-02 -8.2151891552955422e-02 0.0000000000000000e+00 1
-2.4105057243521008e-02 -7.4079940626533780e-02 0.0000000000000000e+00 1
-1.1977090421166599e-02 -7.0412633707080285e-02 0.0000000000000000e+00 1
-2.1811857863710787e-02 -6.1462431027332010e-02 0.0000000000000000e+00 1
-8.7157458574868424e-03 -5.8437518285580137e-02 0.0000000000000000e+00 1
-1.9045027521833749e-02 -4.8689611313126394e-02 0.0000000000000000e+00 1
-5.4567532632952666e-03 -4.5466484215420329e-02 0.0000000000000000e+00 1
-1.6374310750508339e-02 -3.5599969137973614e-02 0.0000000000000000e+00 1
-2.2427736190451433e-03 -3.1751717441190347e-02 0.0000000000000000e+00 1
-1.3552745689736457e-02 -2.2266968081230163e-02 0.0000000000000000e+00 1
8.6610647676206402e-04 -1.8268797879032326e-02 0.0000000000000000e+00 1
-9.9310722317034715e-03 -8.8206724123955776e-03 0.0000000000000000e+00 1
3.5809044129159378e-03 -4.5946904114904713e-03 0.0000000000000000e+00 1
-6.8131411094044889e-03 5.0082558384403559e-03 0.0000000000000000e+00 1
6.6792132265650755e-03 9.1512125778320328e-03 0.0000000000000000e+00 1
-3.7131505071129906e-03 1.8729778650575110e-02 0.0000000000000000e+00 1
9.8264111050057820e-03 2.2947438631615517e-02 0.0000000000000000e+00 1
-6.3224109189057476e-04 3.2687623456334337e-02 0.0000000000000000e+00 1
1.3205623972976012e-02 3.6995768567285342e-02 0.0000000000000000e+00 1
-4.1925882206232890e-02 -2.0765117378187362e-01 0.0000000000000000e+00 1
-6.7297891916205110e-02 -2.0902061800935370e-01 0.0000000000000000e+00 1
-6.8634465965305536e-02 -2.1872221953168261e-01 0.0000000000000000e+00 1
-6.0786016934927189e-02 -2.2462714707765391e-01 0.0000000000000000e+00 1
-6.9841622595015432e-02 -2.2855810933377191e-01 0.0000000000000000e+00 1
-1.3327153057005313e-02 -1.1383846857896765e-01 0.0000000000000000e+00 1
2.5915756276165798e-03 4.6624152846905534e-02 0.0000000000000000e+00 1
1.6236227363680404e-02 5.0892255128345734e-02 0.0000000000000000e+00 1
5.7410735737141710e-03 6.0584744406454352e-02 0.0000000000000000e+00 1
1.8875612051679536e-02 6.4217946381677701e-02 0.0000000000000000e+00 1
8.8189688077826931e-03 7.4416264217876338e-02 0.0000000000000000e+00 1
2.3915697702352579e-02 7.7798702440298087e-02 0.0000000000000000e+00 1
-6.1913731941232508e-02 -2.3446741466407817e-01 0.0000000000000000e+00 1
-7.1004138426538188e-02 -2.3843107622396464e-01 0.0000000000000000e+00 1
-3.0348875475468260e-03 -7.9207756023152123e-02 0.0000000000000000e+00 1
-7.8246933249263712e-02 -2.2237162867655558e-01 0.0000000000000000e+00 1
2.9998007023619825e-02 5.5000034537952179e-02 0.0000000000000000e+00 1
-3.8000656261476293e-02 -9.0605756143558522e-02 0.0000000000000000e+00 1
1.2285103087399645e-02 8.8248179980061972e-02 0.0000000000000000e+00 1
2.5689681420020868e-02 9.2703411738674774e-02 0.0000000000000000e+00 1
1.5289529066225990e-02 1.0230469299634562e-01 0.0000000000000000e+00 1
2.8826738087314258e-02 1.0660987976274543e-01 0.0000000000000000e+00 1
3.9458941650608523e-02 9.8510017126012678e-02 0.0000000000000000e+00 1
1.8438485185477364e-02 1.1623583537192195e-01 0.0000000000000000e+00 1
3.1930515252726485e-02 1.2042928427169833e-01 0.0000000000000000e+00 1
-4.3231434194016184e-02 -2.1678433086067783e-01 0.0000000000000000e+00 1
-3.0311268057966946e-02 -4.0001981565155838e-02 0.0000000000000000e+00 1
8.8482013105335225e-03 -4.2731685652975429e-02 0.0000000000000000e+00 1
-6.3080860530797367e-02 -2.4431947822801936e-01 0.0000000000000000e+00 1
-7.2221965934845547e-02 -2.4837739279981208e-01 0.0000000000000000e+00 1
-5.8757447178439205e-02 -1.6022548297477196e-01 0.0000000000000000e+00 1
-8.0216985328473489e-02 -2.4233939862887233e-01 0.0000000000000000e+00 1
-8.1444203015269168e-02 -2.5240681883139876e-01 0.0000000000000000e+00 1
-3.3683168380641663e-02 -6.5643305275868535e-02 0.0000000000000000e+00 1
-5.6024166708186371e-02 -1.2981245969022964e-01 0.0000000000000000e+00 1
-1.1008097791808858e-02 4.2434883044145374e-02 0.0000000000000000e+00 1
-2.0168702410310664e-02 7.0204480351744028e-04 0.0000000000000000e+00 1
2.1157027249181268e-02 1.3460839871338233e-02 0.0000000000000000e+00 1
-5.3018446282782489e-02 -2.3033499791332468e-01 0.0000000000000000e+00 1
-5.3485122113403810e-02 -1.1794575220738404e-01 0.0000000000000000e+00 1
2.1660311215451457e-02 1.2999596386731319e-01 0.0000000000000000e+00 1
3.5017281187242538e-02 1.3416412136148223e-01 0.0000000000000000e+00 1
2.4773370229464055e-02 1.4372981865598805e-01 0.0000000000000000e+00 1
3.8130681209405659e-02 1.4793297214327344e-01 0.0000000000000000e+00 1
4.8484538315355430e-02 1.3831616027002502e-01 0.0000000000000000e+00 1
5.1474741801158644e-02 1.5212104421765599e-01 0.0000000000000000e+00 1
4.1178138382833331e-02 1.6160649054314466e-01 0.0000000000000000e+00 1
5.4404313013819400e-02 1.6584935436093498e-01 0.0000000000000000e+00 1
4.4166254314973188e-02 1.7512393615264293e-01 0.0000000000000000e+00 1
5.6740500389897509e-02 1.7944243947548677e-01 0.0000000000000000e+00 1
4.7044327142612981e-02 1.8856626274783128e-01 0.0000000000000000e+00 1
5.9419763701894869e-02 1.9279375626029197e-01 0.0000000000000000e+00 1
4.9977527634827060e-02 2.0176043538113173e-01 0.0000000000000000e+00 1
6.2631307547673543e-02 2.0582798309337627e-01 0.0000000000000000e+00 1
5.2862013394498156e-02 2.1460566912494897e-01 0.0000000000000000e+00 1
6.5318682118187602e-02 2.1867528700316544e-01 0.0000000000000000e+00 1
5.5690706439475851e-02 2.2728880094920728e-01 0.0000000000000000e+00 1
6.7960426977702368e-02 2.3131667694647451e-01 0.0000000000000000e+00 1
7.7668768923057421e-02 2.2271084649108555e-01 0.0000000000000000e+00 1
8.0187732439284620e-02 2.3531046914853165e-01 0.0000000000000000e+00 1
7.0620577024352052e-02 2.4380204851406434e-01 0.0000000000000000e+00 1
8.2779969307479898e-02 2.4760375837518339e-01 0.0000000000000000e+00 1
7.3273120439576747e-02 2.5603069596960842e-01 0.0000000000000000e+00 1
8.5121162190864463e-02 2.5982937653595950e-01 0.0000000000000000e+00 1
7.5741451918594438e-02 2.6793659162568384e-01 0.0000000000000000e+00 1
8.7649807256482082e-02 2.7217526294840605e-01 0.0000000000000000e+00 1
7.8305772540630605e-02 2.7963111487590120e-01 0.0000000000000000e+00 1
8.9305842807106892e-02 2.8344672433895535e-01 0.0000000000000000e+00 1
6.1475063849324177e-02 2.5214716774389695e-01 0.0000000000000000e+00 1
-8.9198255204428062e-02 -2.4633425993140592e-01 0.0000000000000000e+00 1
-7.5771973781059150e-04 8.3935517678797950e-02 0.0000000000000000e+00 1
9.7213453441278019e-02 2.6409838245429113e-01 0.0000000000000000e+00 1
-9.0532833136049831e-02 -2.5639720853858949e-01 0.0000000000000000e+00 1
-8.2610344109971062e-02 -2.6239848965705759e-01 0.0000000000000000e+00 1
-9.1679728075475711e-02 -2.6631192914354129e-01 0.0000000000000000e+00 1
-8.3661028517360639e-02 -2.7233936471835829e-01 0.0000000000000000e+00 1
-9.2739036428790458e-02 -2.7608577746509122e-01 0.0000000000000000e+00 1
-6.3253689973510274e-02 -1.7970557614408722e-01 0.0000000000000000e+00 1
-7.2693185577758307e-02 -1.8291213340453705e-01 0.0000000000000000e+00 1
-7.4012262774881168e-02 -1.9223723581116753e-01 0.0000000000000000e+00 1
1.5086934408696323e-02 -1.4820429165689753e-02 0.0000000000000000e+00 1
3.4395866555318899e-02 1.8453070616270889e-01 0.0000000000000000e+00 1
4.3620321033289451e-02 2.2352897454488985e-01 0.0000000000000000e+00 1
-6.4451636019133285e-02 -1.2175067102472478e-01 0.0000000000000000e+00 1
8.0755585010318251e-02 2.9059845821125357e-01 0.0000000000000000e+00 1
9.0713634642868204e-02 2.9454744620758438e-01 0.0000000000000000e+00 1
6.9871922511563878e-02 2.8740090870655860e-01 0.0000000000000000e+00 1
-3.4879857547500011e-02 -2.1304231396776385e-01 0.0000000000000000e+00 1
-3.3546268594597931e-02 -2.0447350909022877e-01 0.0000000000000000e+00 1
-2.5398473693001560e-02 -2.1012730004674238e-01 0.0000000000000000e+00 1
-2.5251358830174132e-02 -2.0133342895878953e-01 0.0000000000000000e+00 1
-7.0949221366256782e-02 -1.7318546041443222e-01 0.0000000000000000e+00 1
9.0002385292662981e-02 2.2630328591453164e-01 0.0000000000000000e+00 1
7.2763980575016027e-02 1.9560714984182048e-01 0.0000000000000000e+00 1
-7.4742203862297782e-02 -2.6842342963564425e-01 0.0000000000000000e+00 1
8.3112837047004007e-02 3.0095904229824449e-01 0.0000000000000000e+00 1
9.3120237319817667e-02 3.0508764595976789e-01 0.0000000000000000e+00 1
1.0147060470909000e-01 2.9826753573183951e-01 0.0000000000000000e+00 1
8.3654389482749059e-02 3.1239567500182092e-01 0.0000000000000000e+00 1
9.4985810876963117e-02 3.1559184750827779e-01 0.0000000000000000e+00 1
-8.1303637863914036e-02 -1.7657995155983866e-01 0.0000000000000000e+00 1
9.1448938983914839e-03 1.2561604573221202e-01 0.0000000000000000e+00 1
-9.7711526985325606e-02 -2.4983174656612986e-01 0.0000000000000000e+00 1
6.6671949158134042e-02 1.7272917502506849e-01 0.0000000000000000e+00 1
-6.5073568486754441e-02 -2.5434056988504467e-01 0.0000000000000000e+00 1
-5.5508213580088880e-02 -2.5081166601060850e-01 0.0000000000000000e+00 1
-3.1425353919229154e-02 -1.5061143768616311e-01 0.0000000000000000e+00 1
-8.8100428227646424e-02 -2.3617284833921454e-01 0.0000000000000000e+00 1
-3.4600268806845996e-02 -2.2277643025721261e-01 0.0000000000000000e+00 1
6.1800048934510132e-02 1.4425668420978988e-01 0.0000000000000000e+00 1
6.0454789239492691e-02 1.2995622050321806e-01 0.0000000000000000e+00 1
-8.4889286626057645e-02 -2.8189597651150256e-01 0.0000000000000000e+00 1
-9.4848819432141934e-02 -2.8656564080426056e-01 0.0000000000000000e+00 1
-8.6060631653999298e-02 -2.9125761772569569e-01 0.0000000000000000e+00 1
-1.0217997007793536e-01 -2.7986084653960730e-01 0.0000000000000000e+00 1
-6.7987897865158853e-02 -1.3393538929475185e-01 0.0000000000000000e+00 1
-7.5800202265382921e-02 -2.7801939641110729e-01 0.0000000000000000e+00 1
-6.5607774744375832e-02 -2.7431000817006179e-01 0.0000000000000000e+00 1
-3.2180876800223010e-02 -1.9530981975214115e-01 0.0000000000000000e+00 1
-2.4004248801712095e-02 -1.9328232443214377e-01 0.0000000000000000e+00 1
-1.8132657765938386e-02 -1.9772800329726148e-01 0.0000000000000000e+00 1
-1.5948242150369892e-02 -1.9139078967838680e-01 0.0000000000000000e+00 1
-1.1294906204116710e-03 -1.7928294843228765e-01 0.0000000000000000e+00 1
-1.3169987117802527e-02 -1.7742756278758348e-01 0.0000000000000000e+00 1
-6.0279272404716944e-03 -1.7455929576529386e-01 0.0000000000000000e+00 1
-7.6205196970054517e-03 -1.8043333508049442e-01 0.0000000000000000e+00 1
-6.2205883497816312e-02 -1.0917918893195222e-01 0.0000000000000000e+00 1
-5.0809431992967252e-02 -1.0595261564340178e-01 0.0000000000000000e+00 1
-8.3399497806068978e-02 -1.4933604552608781e-01 0.0000000000000000e+00 1
-7.5342946262736327e-02 -1.5643663848838657e-01 0.0000000000000000e+00 1
-7.1854556190856941e-02 -1.4535449660099600e-01 0.0000000000000000e+00 1
-5.8843833200946057e-02 -1.4225417174490215e-01 0.0000000000000000e+00 1
-2.9271374114692439e-02 -1.8593472040123232e-01 0.0000000000000000e+00 1
8.6799266053288721e-02 2.1322071364733136e-01 0.0000000000000000e+00 1
7.8666768583773583e-03 -1.4589524716107549e-01 0.0000000000000000e+00 1
3.6486673553031833e-04 -1.3858187351666404e-01 0.0000000000000000e+00 1
2.8811530500708641e-03 -1.2824445402851142e-01 0.0000000000000000e+00 1
-7.5875092686158684e-03 -1.3197434668497354e-01 0.0000000000000000e+00 1
-9.7731494158798948e-03 -1.4183332723746420e-01 0.0000000000000000e+00 1
-1.2879464371804102e-03 -1.4893721987727621e-01 0.0000000000000000e+00 1
6.4337665733298188e-02 2.6347921196300950e-01 0.0000000000000000e+00 1
5.3478645004264219e-02 2.5955095093628905e-01 0.0000000000000000e+00 1
6.4983646279455978e-02 2.7574473952156447e-01 0.0000000000000000e+00 1
-5.4557722131029329e-02 -2.4030724058242808e-01 0.0000000000000000e+00 1
4.6402786949637571e-02 2.3594162634190766e-01 0.0000000000000000e+00 1
5.8707570103185072e-02 2.3987196624975099e-01 0.0000000000000000e+00 1
3.7605134414339755e-02 1.9718543854086659e-01 0.0000000000000000e+00 1
2.6324924609322446e-02 1.9369823788167745e-01 0.0000000000000000e+00 1
3.8763589713658980e-02 2.1089643366067970e-01 0.0000000000000000e+00 1
-4.4890142610912627e-02 -2.3693842590541295e-01 0.0000000000000000e+00 1
-4.4151639872269201e-02 -2.2615850748022864e-01 0.0000000000000000e+00 1
-3.7482106497112144e-02 -2.3139650622830510e-01 0.0000000000000000e+00 1
-7.3712262771338202e-02 -2.5845295149717434e-01 0.0000000000000000e+00 1
1.5977804979952159e-02 -1.1349365108519173e-01 0.0000000000000000e+00 1
7.4691740460343528e-03 -1.0479301772245145e-01 0.0000000000000000e+00 1
1.0437797545563690e-02 -9.3270392789461601e-02 0.0000000000000000e+00 1
-1.4519601902851284e-04 -9.7238862232400664e-02 0.0000000000000000e+00 1
1.1468213273732583e-01 2.9249280456529719e-01 0.0000000000000000e+00 1
1.0362705040914021e-01 3.6241317941568973e-01 0.0000000000000000e+00 1
1.1037569788104407e-01 3.6102218747043158e-01 0.0000000000000000e+00 1
1.0587393042927259e-01 3.5459220567370608e-01 0.0000000000000000e+00 1
1.1279772471477068e-01 3.5419781161672770e-01 0.0000000000000000e+00 1
1.0826609860255662e-01 3.4780691263250546e-01 0.0000000000000000e+00 1
1.1652304357925952e-01 3.4637034311293358e-01 0.0000000000000000e+00 1
1.1066524622859324e-01 3.4061583540998996e-01 0.0000000000000000e+00 1
1.1447982208834488e-01 3.6652912925325343e-01 0.0000000000000000e+00 1
1.0242063315860764e-01 3.4220852812146435e-01 0.0000000000000000e+00 1
1.0509660604139694e-01 3.3392519997281311e-01 0.0000000000000000e+00 1
9.6794271027181272e-02 3.3626275395324712e-01 0.0000000000000000e+00 1
9.8208944170140408e-02 3.2577751157535206e-01 0.0000000000000000e+00 1
1.0830336658212580e-01 3.2517461832338052e-01 0.0000000000000000e+00 1
1.1660138610224587e-01 3.6021771577253153e-01 0.0000000000000000e+00 1
1.2398420443916171e-01 3.4059110626449646e-01 0.0000000000000000e+00 1
3.1367222025758638e-02 1.7120295239854227e-01 0.0000000000000000e+00 1
2.8023454591969491e-02 1.5741587060259216e-01 0.0000000000000000e+00 1
1.4842822882639668e-02 1.5339335839369220e-01 0.0000000000000000e+00 1
1.8855109930182076e-02 1.6822793818981596e-01 0.0000000000000000e+00 1
3.3850009849835175e-02 2.3272006274038526e-01 0.0000000000000000e+00 1
1.0736209332737731e-01 2.5540588999289521e-01 0.0000000000000000e+00 1
9.5305026582768709e-02 2.5120549725634550e-01 0.0000000000000000e+00 1
1.0967132123058022e-01 2.6821495250210442e-01 0.0000000000000000e+00 1
9.9724050456592467e-02 2.7773798139714406e-01 0.0000000000000000e+00 1
-9.6621534604118819e-02 -2.0843965322484195e-01 0.0000000000000000e+00 1
-8.5745380525055342e-02 -2.0498714683262706e-01 0.0000000000000000e+00 1
-8.7851707833853362e-02 -2.1580841066915510e-01 0.0000000000000000e+00 1
-9.7961141922611253e-02 -2.2122197782351438e-01 0.0000000000000000e+00 1
5.6730006148533272e-03 1.1251152495084056e-01 0.0000000000000000e+00 1
-4.5245687417201155e-03 1.2216137902071003e-01 0.0000000000000000e+00 1
8.7564492452082109e-04 9.9337686414558285e-02 0.0000000000000000e+00 1
2.5395841191217343e-02 -7.6544099301369975e-02 0.0000000000000000e+00 1
1.5295794283701918e-02 -6.6511698806583364e-02 0.0000000000000000e+00 1
1.8892436716867134e-02 -5.3312038703734466e-02 0.0000000000000000e+00 1
4.7580423331088370e-03 -5.5673902865798416e-02 0.0000000000000000e+00 1
2.2498242833437331e-02 -3.9390996544284969e-02 0.0000000000000000e+00 1
1.0413577352274953e-02 -7.9973203850348493e-02 0.0000000000000000e+00 1
-1.1062400085288568e-01 -2.7337993299146773e-01 0.0000000000000000e+00 1
-1.0094117471007791e-01 -2.6996833029293371e-01 0.0000000000000000e+00 1
9.2462950996557325e-02 1.8625547328071546e-01 0.0000000000000000e+00 1
7.8516569654037582e-02 1.8189578803773945e-01 0.0000000000000000e+00 1
-3.9679307438982327e-03 7.0103566758272645e-02 0.0000000000000000e+00 1
-1.4134394876729300e-02 7.9379938757351665e-02 0.0000000000000000e+00 1
-7.1282597324285116e-03 5.6175345024233728e-02 0.0000000000000000e+00 1
-2.1267102985859779e-02 5.2013543717134014e-02 0.0000000000000000e+00 1
-2.4241053457732142e-02 3.6722392433665707e-02 0.0000000000000000e+00 1
-1.3802841952251073e-02 2.8239436491500847e-02 0.0000000000000000e+00 1
-1.6815089952470167e-02 1.4450691425778333e-02 0.0000000000000000e+00 1
-3.0438517834742568e-02 9.1298115409825537e-03 0.0000000000000000e+00 1
-3.3282296532700664e-02 -3.5370490094591310e-03 0.0000000000000000e+00 1
8.5523260811214780e-02 1.5792960621439700e-01 0.0000000000000000e+00 1
-7.6786383126946550e-02 -1.2534812729375111e-01 0.0000000000000000e+00 1
1.0413956078084378e-01 3.0939409472708318e-01 0.0000000000000000e+00 1
1.1136835935838282e-01 3.0218719896203450e-01 0.0000000000000000e+00 1
7.6672445108197290e-02 1.2757573273122091e-01 0.0000000000000000e+00 1
-9.0817060737715755e-02 -1.8454585260835965e-01 0.0000000000000000e+00 1
5.2554405163031132e-03 -1.1684326193400343e-01 0.0000000000000000e+00 1
5.6538383075030382e-03 -1.5556241554718142e-01 0.0000000000000000e+00 1
-2.0838188264762806e-02 -2.1765557890217382e-01 0.0000000000000000e+00 1
3.2357381710603400e-02 -4.9690990792036906e-02 0.0000000000000000e+00 1
4.7013632785563850e-02 7.4163146510770241e-03 0.0000000000000000e+00 1
3.6042338977274144e-02 1.7769217642351030e-02 0.0000000000000000e+00 1
3.9356993557230852e-02 3.2144472705149821e-02 0.0000000000000000e+00 1
3.2283684938199046e-02 3.3704946435090793e-03 0.0000000000000000e+00 1
2.4749849434432297e-02 2.7563574982556953e-02 0.0000000000000000e+00 1
4.3231014303322081e-02 -7.2904243004880791e-03 0.0000000000000000e+00 1
2.8951106886632078e-02 -1.1389685897334053e-02 0.0000000000000000e+00 1
5.4541948405746513e-02 3.6798844986967047e-02 0.0000000000000000e+00 1
5.8343043752043640e-02 5.1903772291545448e-02 0.0000000000000000e+00 1
4.4566138218673890e-02 6.2636569131098649e-02 0.0000000000000000e+00 1
4.9897729326022239e-02 7.7349958819916992e-02 0.0000000000000000e+00 1
4.2231508392261648e-02 4.6652800966691430e-02 0.0000000000000000e+00 1
6.5827205317018911e-02 8.2176242405793243e-02 0.0000000000000000e+00 1
5.4657725844837551e-02 9.2726758304351120e-02 0.0000000000000000e+00 1
6.9997027944376844e-02 9.7504281416475339e-02 0.0000000000000000e+00 1
6.1065958580200703e-02 1.0694862102510283e-01 0.0000000000000000e+00 1
3.6732357157230930e-02 7.3785959034551332e-02 0.0000000000000000e+00 1
-6.8144896152392734e-02 -8.7132519214675436e-02 0.0000000000000000e+00 1
-5.6269705815171392e-02 -8.4442713040693368e-02 0.0000000000000000e+00 1
-5.3325879333071147e-02 -7.1980665856765380e-02 0.0000000000000000e+00 1
-5.9453884390260961e-02 -9.7057080887335695e-02 0.0000000000000000e+00 1
2.2179486985833545e-02 -8.9601428493308349e-02 0.0000000000000000e+00 1
3.6175029636563681e-02 -3.5886204598454707e-02 0.0000000000000000e+00 1
-4.0689100652394429e-02 -1.9841323352123552e-01 0.0000000000000000e+00 1
1.1971989097790757e-02 -2.8833717109575861e-02 0.0000000000000000e+00 1
-6.1897458717725062e-02 -6.1849376532792301e-02 0.0000000000000000e+00 1
-4.7005929275227155e-02 -5.9490658401907981e-02 0.0000000000000000e+00 1
-4.4663864212990137e-02 -4.5075670587330773e-02 0.0000000000000000e+00 1
-5.4695726730832658e-02 -3.5983985778606890e-02 0.0000000000000000e+00 1
-4.1429888162035078e-02 -3.1449013069371853e-02 0.0000000000000000e+00 1
-2.7006242261515788e-02 -2.6391512219257843e-02 0.0000000000000000e+00 1
-3.3492650433352797e-02 -5.2471954815562209e-02 0.0000000000000000e+00 1
-2.3462324053166457e-02 -1.2647356793477784e-02 0.0000000000000000e+00 1
1.1654551766712571e-02 1.3953277849185938e-01 0.0000000000000000e+00 1
1.1353995509909905e-01 3.3220762589768454e-01 0.0000000000000000e+00 1
1.1685400155311632e-01 3.2364005897073528e-01 0.0000000000000000e+00 1
-7.4241034766099293e-02 -1.1285765493495961e-01 0.0000000000000000e+00 1
5.0166452016669999e-02 2.4844665256018633e-01 0.0000000000000000e+00 1
1.3254839202591859e-02 -1.2490847429267517e-01 0.0000000000000000e+00 1
-2.8610693059078422e-02 -1.4004443954325912e-01 0.0000000000000000e+00 1
-5.1098334603655815e-02 -2.2141547346410211e-02 0.0000000000000000e+00 1
-1.5938104837853909e-02 -2.1163704703209765e-01 0.0000000000000000e+00 1
1.2110942763106315e-01 3.6468355629974480e-01 0.0000000000000000e+00 1
-7.9666576929818718e-03 -2.0031056647416207e-01 0.0000000000000000e+00 1
-1.1171977245913140e-02 -1.9538295327692068e-01 0.0000000000000000e+00 1
-8.5926945405025799e-03 -1.9054787642471516e-01 0.0000000000000000e+00 1
-1.3207594605128006e-02 -1.8493590043814687e-01 0.0000000000000000e+00 1
-5.1934408913109728e-02 -2.2061991169459891e-01 0.0000000000000000e+00 1
5.8163690923749400e-02 2.8629969283005541e-01 0.0000000000000000e+00 1
7.2842459911142701e-02 3.1400940866563914e-01 0.0000000000000000e+00 1
-7.7115039195697399e-02 -2.1234969972083789e-01 0.0000000000000000e+00 1
-1.9747527543830821e-02 9.1720636957749763e-02 0.0000000000000000e+00 1
-5.1988699551124902e-02 -2.6007690395731120e-01 0.0000000000000000e+00 1
-3.5829231010678447e-02 -7.8137517473235857e-02 0.0000000000000000e+00 1
6.4713755594742545e-02 1.5916445910147109e-01 0.0000000000000000e+00 1
4.1497375281514884e-02 1.1182533618045294e-01 0.0000000000000000e+00 1
7.7915982603922657e-02 3.2250006107483437e-01 0.0000000000000000e+00 1
8.7893637437867433e-02 3.2237659529697416e-01 0.0000000000000000e+00 1
-9.3285559527985104e-02 -3.0879495641127197e-01 0.0000000000000000e+00 1
6.2921548194751431e-02 2.9611686774856572e-01 0.0000000000000000e+00 1
4.5174875230170837e-02 1.2546839697425452e-01 0.0000000000000000e+00 1
1.2481750984186125e-01 3.4873377041287817e-01 0.0000000000000000e+00 1
1.7643902840968173e-02 -7.0033310229596448e-04 0.0000000000000000e+00 1
-7.8983271944672903e-02 -2.3242097838802883e-01 0.0000000000000000e+00 1
1.0245079049500178e-01 2.2978237723786879e-01 0.0000000000000000e+00 1
-4.4776921184772028e-02 3.0461504018583882e-03 0.0000000000000000e+00 1
7.4814261680476390e-02 2.0963791684749261e-01 0.0000000000000000e+00 1
-3.4207529346948547e-02 -1.6100292663066232e-01 0.0000000000000000e+00 1
-6.6024929364358109e-02 -1.9917639172800006e-01 0.0000000000000000e+00 1
-1.1497145610797474e-01 -2.9269291903568095e-01 0.0000000000000000e+00 1
2.3308263887237175e-03 1.5442617344424384e-01 0.0000000000000000e+00 1
1.2651816769900723e-01 3.6147626737231286e-01 0.0000000000000000e+00 1
-4.2419193485985468e-02 -1.1410732894991778e-01 0.0000000000000000e+00 1
-5.3965130734397550e-02 -1.7645212191301177e-01 0.0000000000000000e+00 1
-4.6495333024128171e-02 -2.5273117190158878e-01 0.0000000000000000e+00 1
-1.2152630087120468e-01 -3.3697633463595067e-01 0.0000000000000000e+00 1
9.2517977313827562e-02 2.3888272991532233e-01 0.0000000000000000e+00 1
-8.7404385723451578e-02 -2.2599734389106255e-01 0.0000000000000000e+00 1
8.8179786037234864e-02 3.3853458514191209e-01 0.0000000000000000e+00 1
-1.0496765348984075e-01 -2.4273490794688235e-01 0.0000000000000000e+00 1
1.0495745682196628e-01 2.8806620342661110e-01 0.0000000000000000e+00 1
2.7629701624033502e-02 4.1541484481330243e-02 0.0000000000000000e+00 1
-1.1157504772800750e-01 -3.3148773938524012e-01 0.0000000000000000e+00 1
-1.9600649609598083e-03 -1.9054197766668896e-01 0.0000000000000000e+00 1
1.1131116216255076e-01 3.7176260279372880e-01 0.0000000000000000e+00 1
-9.9499607453524055e-02 -2.5997447015242087e-01 0.0000000000000000e+00 1
-1.8243654296589938e-02 -2.0454962395822318e-01 0.0000000000000000e+00 1
-2.5399939498688431e-02 -1.5828432771603482e-01 0.0000000000000000e+00 1
2.5732029580204405e-02 -2.5344925978627954e-02 0.0000000000000000e+00 1
9.9835118243717769e-02 2.1713802725340506e-01 0.0000000000000000e+00 1
-4.0464612790450334e-02 1.7518504658195728e-02 0.0000000000000000e+00 1
-1.7482135968305501e-02 -1.3763682117372711e-01 0.0000000000000000e+00 1
-2.2208557281967245e-02 -1.4825371292933909e-01 0.0000000000000000e+00 1
-3.9937496008488546e-02 -1.0265899422234724e-01 0.0000000000000000e+00 1
4.2837316277295423e-02 2.5712567601008113e-01 0.0000000000000000e+00 1
9.8651488033241322e-02 3.5471009423349359e-01 0.0000000000000000e+00 1
1.1815303156158978e-01 3.7393312673523105e-01 0.0000000000000000e+00 1
-9.0711370187790789e-03 -1.5303673364305875e-01 0.0000000000000000e+00 1
-1.0536761213854816e-01 -2.8803798194056746e-01 0.0000000000000000e+00 1
6.5591040783016964e-03 1.6596726670308118e-01 0.0000000000000000e+00 1
-6.6424515230438103e-02 -2.6408737885678785e-01 0.0000000000000000e+00 1
-6.1257826991842484e-02 -1.7014671143025006e-01 0.0000000000000000e+00 1
-3.7389918355558431e-02 -1.7689699693069483e-02 0.0000000000000000e+00 1
-7.5368359664616136e-02 -2.0248903821529080e-01 0.0000000000000000e+00 1
-1.2455792849831311e-01 -3.4473878498766819e-01 0.0000000000000000e+00 1
-1.2563984725022254e-01 -3.4164385576310119e-01 0.0000000000000000e+00 1
-2.8556651502520290e-03 -1.0955663252747995e-01 0.0000000000000000e+00 1
1.1101187780381501e-01 3.1664899455399120e-01 0.0000000000000000e+00 1
-8.4362665417034022e-02 -1.9347050153673701e-01 0.0000000000000000e+00 1
2.2527003804803165e-02 1.8120232861080676e-01 0.0000000000000000e+00 1
1.1979318375170395e-01 3.5424208335887009e-01 0.0000000000000000e+00 1
1.1884672089654867e-01 3.6932252568387541e-01 0.0000000000000000e+00 1
1.2600276164322413e-01 3.7111999187161576e-01 0.0000000000000000e+00 1
3.3309322482359155e-02 2.2135897558320525e-01 0.0000000000000000e+00 1
-9.4599551523560213e-02 -3.0045503878442603e-01 0.0000000000000000e+00 1
-1.2861781293481353e-01 -3.4713571600851950e-01 0.0000000000000000e+00 1
1.1232816904809062e-03 -6.8369452256423796e-02 0.0000000000000000e+00 1
-1.5863527195979880e-02 -1.2576206659415426e-01 0.0000000000000000e+00 1
-2.8271454289968509e-02 -2.1719464347467804e-01 0.0000000000000000e+00 1
-2.7196244750368186e-02 2.2814694195802208e-02 0.0000000000000000e+00 1
7.3331196393638789e-02 2.9780093568762905e-01 0.0000000000000000e+00 1
-1.0695674041439748e-01 -2.5297659169746356e-01 0.0000000000000000e+00 1
-8.0117501859010343e-02 -2.9653379142347958e-01 0.0000000000000000e+00 1
1.9344765862742759e-02 2.0267577051247240e-01 0.0000000000000000e+00 1
-2.9293312129675921e-02 -2.3076027380618858e-01 0.0000000000000000e+00 1
8.2405945601699185e-02 2.0230766734643701e-01 0.0000000000000000e+00 1
-5.0681607203660536e-03 -1.2128912049695177e-01 0.0000000000000000e+00 1
1.4935834183351943e-02 1.9077770229004559e-01 0.0000000000000000e+00 1
-9.0036306348215661e-02 -1.7251708113457531e-01 0.0000000000000000e+00 1
-3.4087283133954170e-02 4.4148958356659697e-02 0.0000000000000000e+00 1
-4.8207797667503299e-02 -9.4373497050466715e-02 0.0000000000000000e+00 1
1.0331263985894761e-01 3.1822695770012976e-01 0.0000000000000000e+00 1
-6.4391527401129925e-02 -1.5221485597790502e-01 0.0000000000000000e+00 1
-3.5753189720089812e-02 -2.3919836294534558e-01 0.0000000000000000e+00 1
-6.8972826075573354e-02 -2.8292733298684603e-01 0.0000000000000000e+00 1
4.7283105043601364e-02 2.6734880501907499e-01 0.0000000000000000e+00 1
9.0955487976559710e-02 3.3030762526448143e-01 0.0000000000000000e+00 1
-3.2651881915453262e-02 5.5984468711960590e-02 0.0000000000000000e+00 1
-7.0165195759248631e-03 1.3316817393211763e-01 0.0000000000000000e+00 1
-6.8199779689821577e-02 -1.6373016872878404e-01 0.0000000000000000e+00 1
-1.0303203504470820e-01 -3.1131756498716218e-01 0.0000000000000000e+00 1
-4.3295849819258480e-03 -1.8506031187956137e-01 0.0000000000000000e+00 1
-7.8736303921051964e-02 -1.6722844391355254e-01 0.0000000000000000e+00 1
-1.1823665492656775e-01 -3.3994461842928053e-01 0.0000000000000000e+00 1
3.8392022183512106e-02 8.5479134577300844e-02 0.0000000000000000e+00 1
1.1776079377781319e-01 3.7813761013081992e-01 0.0000000000000000e+00 1
1.1983685595204926e-01 3.0234305677418538e-01 0.0000000000000000e+00 1
-1.2877776416003670e-01 -3.4516193130496403e-01 0.0000000000000000e+00 1
-9.2870841404194701e-02 -2.9403652233535837e-01 0.0000000000000000e+00 1
-4.5578059094459153e-02 -8.1969575790295762e-02 0.0000000000000000e+00 1
-1.4515334480402915e-02 6.5115080689397850e-02 0.0000000000000000e+00 1
-9.5910938735560280e-02 -2.3979998799317556e-01 0.0000000000000000e+00 1
6.6936589597211132e-02 1.8442443453555668e-01 0.0000000000000000e+00 1
2.9578567662254692e-02 2.0405171320904703e-01 0.0000000000000000e+00 1
-4.8635249232938604e-02 -2.4552247006464889e-01 0.0000000000000000e+00 1
1.2287974936571613e-01 3.6885135224844307e-01 0.0000000000000000e+00 1
1.2202308117466419e-01 3.5925056527803068e-01 0.0000000000000000e+00 1
7.6035310886361923e-02 3.0617398244489791e-01 0.0000000000000000e+00 1
7.7952257688777338e-02 1.6698161994474425e-01 0.0000000000000000e+00 1
1.1718946657647494e-01 3.3829770273704768e-01 0.0000000000000000e+00 1
-1.0314919038023751e-02 -1.0162858056977071e-01 0.0000000000000000e+00 1
-8.0803232781077261e-02 -1.8573799597228063e-01 0.0000000000000000e+00 1
-2.5333821559652477e-02 8.1185905010095691e-02 0.0000000000000000e+00 1
-1.0108434410702810e-01 -3.2219239290274571e-01 0.0000000000000000e+00 1
-1.1047358508150341e-01 -3.1450188652261324e-01 0.0000000000000000e+00 1
-4.2912368251263169e-02 -7.1140774488784322e-02 0.0000000000000000e+00 1
-5.6044643176280370e-02 -1.5114679919237251e-01 0.0000000000000000e+00 1
-4.9230543223051215e-03 1.1102118496028930e-01 0.0000000000000000e+00 1
-1.3058430131207249e-01 -3.4495829863170230e-01 0.0000000000000000e+00 1
-8.5366568056929621e-03 9.2269430281071568e-02 0.0000000000000000e+00 1
-7.2957408178606327e-03 -9.0271568409449346e-02 0.0000000000000000e+00 1
5.6536626773425053e-02 2.6858057644264394e-01 0.0000000000000000e+00 1
1.2468348557180642e-01 3.7778643565184916e-01 0.0000000000000000e+00 1
-2.1227016144907476e-02 -1.8748384078112029e-01 0.0000000000000000e+00 1
-5.9746831602547311e-02 -2.6004164262481194e-01 0.0000000000000000e+00 1
1.1548797672164575e-01 3.7151187232514848e-01 0.0000000000000000e+00 1
7.4904751975192252e-02 1.5229455824775900e-01 0.0000000000000000e+00 1
9.6507814217379723e-02 2.8787012946934676e-01 0.0000000000000000e+00 1
1.2440919761928318e-01 3.2221138264422250e-01 0.0000000000000000e+00 1
1.2490286890962348e-03 -1.8306357043817692e-01 0.0000000000000000e+00 1
-1.1819083622452842e-01 -3.3213948037382535e-01 0.0000000000000000e+00 1
2.9366881988224583e-03 -8.7093060008067297e-02 0.0000000000000000e+00 1
6.4496959023002870e-02 1.1872554669523569e-01 0.0000000000000000e+00 1
-1.2688556993316666e-01 -3.4408460403291458e-01 0.0000000000000000e+00 1
7.1708629646869484e-02 1.3806314652393054e-01 0.0000000000000000e+00 1
4.9927606394535917e-02 1.0415138826942610e-01 0.0000000000000000e+00 1
-1.3336352084856749e-02 -2.0072362641320238e-01 0.0000000000000000e+00 1
-9.4191969931136280e-02 -2.3084816482860648e-01 0.0000000000000000e+00 1
1.1295673034263076e-01 3.0950336545506452e-01 0.0000000000000000e+00 1
2.3199584811909981e-03 1.3338370179072054e-01 0.0000000000000000e+00 1
1.0195525432929439e-01 3.4856613402942249e-01 0.0000000000000000e+00 1
-1.3010064663566849e-02 1.1631549527642869e-01 0.0000000000000000e+00 1
3.0368332011257337e-02 6.6136582383829121e-02 0.0000000000000000e+00 1
2.5698162188216661e-02 2.2557292134570278e-01 0.0000000000000000e+00 1
5.3739639142878701e-02 1.1673353950814896e-01 0.0000000000000000e+00 1
8.3629294690481540e-02 1.9261592459323179e-01 0.0000000000000000e+00 1
1.2192062987448124e-01 3.8085166764360107e-01 0.0000000000000000e+00 1
-1.4430413875968332e-02 -1.4744982232087733e-01 0.0000000000000000e+00 1

Edges
154
1 2 1
2 3 1
3 4 1
4 5 1
5 6 1
6 7 1
7 8 1
8 9 1
9 10 1
10 11 1
11 12 1
12 13 1
13 14 1
14 15 1
15 16 1
16 17 1
17 18 1
18 19 1
19 20 1
20 21 1
21 22 1
22 23 1
23 24 1
24 25 1
25 26 1
26 27 1
27 28 1
28 29 1
29 30 1
30 31 1
31 32 1
32 33 1
33 34 1
34 35 1
35 36 1
36 37 1
37 38 1
38 39 1
39 40 1
40 41 1
41 42 1
42 43 1
43 44 1
44 45 1
45 46 1
46 47 1
47 48 1
48 49 1
49 50 1
50 51 1
51 52 1
52 53 1
53 54 1
54 55 1
55 56 1
56 57 1
57 58 1
58 59 1
59 60 1
60 61 1
61 62 1
62 63 1
63 64 1
64 65 1
65 66 1
66 67 1
67 68 1
68 69 1
69 70 1
70 71 1
71 72 1
72 73 1
73 74 1
74 75 1
75 76 1
76 77 1
77 78 1
78 79 1
79 80 1
80 81 1
81 82 1
82 83 1
83 84 1
84 85 1
85 86 1
86 87 1
87 88 1
88 89 1
89 90 1
90 91 1
91 92 1
92 93 1
93 94 1
94 95 1
95 96 1
96 97 1
97 98 1
98 99 1
99 100 1
100 101 1
101 102 1
102 103 1
103 104 1
104 105 1
105 106 1
106 107 1
107 108 1
108 109 1
109 110 1
110 111 1
111 112 1
112 113 1
113 114 1
114 115 1
115 116 1
116 117 1
117 118 1
118 119 1
119 120 1
120 121 1
121 122 1
122 123 1
123 124 1
124 125 1
125 126 1
126 127 1
127 128 1
128 129 1
129 130 1
130 131 1
131 132 1
132 133 1
133 134 1
134 135 1
135 136 1
136 137 1
137 138 1
138 139 1
139 140 1
140 141 1
141 142 1
142 143 1
143 144 1
144 145 1
145 146 1
146 147 1
147 148 1
148 149 1
149 150 1
150 151 1
151 152 1
152 153 1
153 154 1
154 1 1

Triangles
1248
515 518 649 1
481 477 621 1
376 503 546 1
384 444 498 1
257 321 418 1
531 320 536 1
545 534 607 1
518 309 649 1
376 546 591 1
409 646 684 1
205 580 610 1
204 219 587 1
444 384 585 1
301 481 621 1
211 218 219 1
601 215 650 1
199 563 645 1
208 151 221 1
314 274 479 1
352 358 468 1
478 314 479 1
225 399 603 1
275 277 535 1
405 406 419 1
563 224 645 1
151 152 221 1
532 313 534 1
411 410 412 1
450 459 566 1
447 445 600 1
211 153 218 1
450 566 615 1
354 352 468 1
219 204 220 1
313 532 536 1
20 21 404 1
255 257 418 1
170 538 575 1
538 462 575 1
386 456 562 1
574 223 603 1
554 385 561 1
242 405 419 1
185 398 400 1
196 400 653 1
274 272 479 1
215 210 650 1
174 105 464 1
21 175 404 1
514 303 516 1
231 410 411 1
314 478 480 1
178 429 553 1
399 225 653 1
157 395 629 1
470 608 613 1
592 233 597 1
409 412 646 1
445 92 600 1
393 592 597 1
202 401 482 1
215 206 677 1
534 535 607 1
154 1 217 1
398 185 403 1
320 531 670 1
429 373 553 1
69 70 467 1
595 493 624 1
303 514 697 1
562 456 641 1
208 221 222 1
278 276 529 1
410 252 551 1
321 402 418 1
271 273 536 1
535 277 537 1
619 196 653 1
4 5 213 1
511 367 593 1
166 595 624 1
608 366 613 1
214 215 677 1
313 275 535 1
201 547 576 1
105 106 464 1
402 191 417 1
532 531 536 1
408 549 550 1
584 145 626 1
561 385 562 1
35 36 684 1
358 467 468 1
169 475 672 1
551 252 678 1
395 157 623 1
633 387 647 1
159 633 647 1
26 629 638 1
507 516 586 1
1 212 217 1
70 187 467 1
580 217 610 1
190 601 650 1
223 225 603 1
431 174 464 1
475 169 674 1
511 508 567 1
463 460 614 1
134 135 496 1
400 196 627 1
399 401 603 1
405 242 528 1
453 189 455 1
471 302 555 1
499 397 687 1
408 550 551 1
367 529 593 1
164 413 525 1
224 563 619 1
173 435 618 1
397 499 689 1
634 489 642 1
490 489 634 1
575 462 604 1
470 471 555 1
462 463 604 1
501 611 631 1
437 436 438 1
516 303 586 1
551 550 646 1
465 358 466 1
358 465 467 1
409 411 412 1
419 406 678 1
266 665 675 1
152 211 221 1
389 584 626 1
465 69 467 1
395 438 629 1
320 271 536 1
665 443 675 1
412 551 646 1
381 362 403 1
171 463 614 1
401 202 603 1
276 314 529 1
183 65 594 1
325 436 437 1
234 252 410 1
506 324 508 1
165 545 607 1
487 168 655 1
202 574 603 1
459 450 664 1
413 414 525 1
429 178 676 1
273 313 536 1
420 183 594 1
477 479 621 1
191 402 496 1
421 426 502 1
390 559 663 1
190 89 589 1
435 173 658 1
611 292 631 1
629 438 638 1
471 472 582 1
367 278 529 1
482 401 483 1
402 417 418 1
663 559 681 1
362 398 403 1
367 511 567 1
89 90 589 1
143 180 472 1
500 387 633 1
168 487 667 1
426 229 502 1
413 164 541 1
165 494 570 1
350 348 466 1
252 236 419 1
358 350 466 1
324 506 509 1
566 188 615 1
206 215 216 1
134 496 541 1
58 194 519 1
637 416 644 1
408 551 678 1
381 403 404 1
425 424 596 1
455 189 583 1
494 493 570 1
508 324 567 1
456 386 636 1
490 166 624 1
174 431 542 1
135 191 496 1
582 472 692 1
164 133 541 1
385 554 662 1
534 313 535 1
415 159 416 1
415 416 417 1
519 194 520 1
518 519 520 1
341 369 435 1
377 376 591 1
408 407 549 1
137 159 415 1
168 489 655 1
242 243 528 1
36 227 409 1
76 77 459 1
185 400 627 1
596 424 622 1
317 637 644 1
509 507 586 1
353 373 429 1
203 446 452 1
570 493 595 1
228 231 411 1
36 37 227 1
231 234 410 1
406 407 408 1
485 390 663 1
347 355 432 1
395 437 438 1
406 377 407 1
302 471 582 1
521 515 649 1
513 514 516 1
325 437 552 1
480 478 504 1
431 432 542 1
467 187 468 1
375 374 376 1
142 143 472 1
217 212 610 1
480 504 527 1
220 204 226 1
476 481 526 1
404 175 605 1
494 165 607 1
279 323 537 1
550 198 588 1
553 373 564 1
440 501 543 1
514 521 697 1
351 353 429 1
387 500 666 1
506 507 509 1
71 72 444 1
375 376 377 1
57 58 519 1
391 316 439 1
427 351 429 1
489 168 642 1
576 547 661 1
393 254 572 1
166 490 634 1
286 284 509 1
90 91 203 1
339 341 435 1
344 347 432 1
540 186 683 1
513 179 514 1
39 421 502 1
55 179 513 1
315 392 430 1
390 485 657 1
426 425 602 1
284 324 509 1
203 452 589 1
148 202 482 1
481 442 526 1
501 423 543 1
329 461 462 1
91 92 445 1
569 184 581 1
314 480 529 1
238 242 419 1
20 404 639 1
191 415 417 1
349 351 427 1
470 555 608 1
307 473 475 1
234 236 252 1
68 69 465 1
433 339 435 1
37 158 227 1
152 153 211 1
503 376 623 1
323 281 492 1
256 393 544 1
167 469 470 1
140 167 500 1
329 462 538 1
375 405 528 1
290 325 552 1
28 29 503 1
287 312 374 1
283 491 492 1
64 183 484 1
287 375 528 1
191 136 415 1
323 494 537 1
137 138 159 1
236 238 419 1
176 50 510 1
322 488 489 1
363 361 483 1
62 193 495 1
329 330 461 1
510 508 511 1
316 319 439 1
187 71 444 1
473 388 474 1
470 469 471 1
401 363 483 1
213 5 620 1
287 374 375 1
283 285 491 1
323 492 493 1
337 339 433 1
371 372 382 1
88 89 190 1
277 279 537 1
504 48 527 1
335 368 460 1
56 57 517 1
184 68 465 1
422 425 426 1
147 148 482 1
246 248 287 1
209 587 685 1
176 510 511 1
322 293 488 1
167 141 469 1
382 372 383 1
522 164 525 1
382 383 385 1
353 354 371 1
391 439 605 1
497 612 636 1
136 137 415 1
517 57 519 1
208 222 223 1
486 357 487 1
310 388 473 1
371 354 372 1
461 460 463 1
355 349 427 1
281 283 492 1
523 525 635 1
398 399 400 1
349 350 351 1
385 383 386 1
351 352 353 1
60 182 499 1
141 142 469 1
45 476 526 1
227 158 228 1
462 461 463 1
32 33 198 1
544 393 597 1
193 484 485 1
184 465 466 1
50 51 510 1
287 248 312 1
369 343 431 1
193 63 484 1
347 348 349 1
432 355 542 1
6 7 207 1
150 151 208 1
63 64 484 1
133 134 541 1
417 416 637 1
297 357 486 1
512 54 513 1
210 214 701 1
325 430 436 1
353 352 354 1
388 327 538 1
452 446 458 1
496 370 541 1
153 154 218 1
368 337 433 1
466 348 581 1
369 431 464 1
368 433 434 1
421 422 426 1
243 246 528 1
370 413 541 1
374 312 395 1
355 427 428 1
469 142 472 1
212 2 673 1
341 343 369 1
182 61 495 1
347 349 355 1
362 363 398 1
80 81 201 1
135 136 191 1
140 141 167 1
341 342 343 1
351 350 352 1
335 337 368 1
333 335 460 1
192 147 482 1
290 299 325 1
127 128 533 1
344 346 347 1
514 179 515 1
61 62 495 1
132 164 522 1
339 340 341 1
476 477 481 1
252 419 678 1
305 307 475 1
139 140 500 1
54 55 513 1
398 363 399 1
349 348 350 1
238 240 242 1
343 344 432 1
70 71 187 1
53 54 512 1
583 197 641 1
360 361 362 1
310 327 388 1
223 222 224 1
148 149 202 1
299 315 430 1
67 68 184 1
73 74 186 1
523 635 654 1
39 40 421 1
422 424 425 1
42 440 543 1
353 371 373 1
62 63 193 1
307 310 473 1
505 177 506 1
30 31 156 1
194 59 499 1
337 338 339 1
405 377 406 1
325 299 430 1
64 65 183 1
514 515 521 1
335 336 337 1
505 506 508 1
362 361 363 1
319 359 360 1
315 391 392 1
297 305 357 1
333 334 335 1
459 77 566 1
479 272 621 1
200 539 540 1
347 346 348 1
208 223 574 1
52 177 505 1
146 147 192 1
523 522 525 1
357 305 475 1
78 79 188 1
312 248 552 1
330 333 461 1
295 297 486 1
322 489 490 1
38 39 502 1
431 343 432 1
360 362 381 1
143 144 180 1
75 76 200 1
186 540 612 1
60 61 182 1
323 493 494 1
512 513 516 1
93 94 189 1
195 522 523 1
59 60 499 1
293 295 488 1
37 38 158 1
195 131 522 1
115 474 643 1
243 245 246 1
435 369 618 1
343 342 344 1
533 534 545 1
200 76 459 1
42 43 440 1
58 59 194 1
327 328 329 1
47 48 504 1
437 312 552 1
45 46 476 1
330 332 333 1
341 340 342 1
49 176 527 1
360 359 361 1
167 470 613 1
132 133 164 1
246 247 248 1
472 180 692 1
46 172 476 1
476 172 477 1
481 301 686 1
51 52 505 1
285 322 491 1
285 293 322 1
131 132 522 1
55 56 179 1
43 44 161 1
310 311 327 1
46 47 172 1
295 486 488 1
150 208 574 1
127 533 545 1
51 505 510 1
319 360 439 1
40 41 160 1
49 50 176 1
52 53 177 1
202 149 574 1
256 254 393 1
557 392 679 1
339 338 340 1
452 458 547 1
128 162 533 1
179 56 517 1
327 329 538 1
307 308 310 1
505 508 510 1
130 131 195 1
681 396 689 1
95 197 583 1
192 482 483 1
48 49 527 1
162 129 530 1
333 460 461 1
162 530 531 1
305 306 307 1
315 316 391 1
506 177 507 1
337 336 338 1
440 441 501 1
386 383 497 1
44 45 526 1
43 161 440 1
258 256 544 1
393 572 592 1
612 497 693 1
27 28 157 1
246 287 528 1
335 334 336 1
299 300 315 1
515 517 518 1
184 466 581 1
297 298 305 1
242 240 243 1
40 160 421 1
383 372 384 1
602 425 702 1
471 469 472 1
95 96 197 1
333 332 334 1
128 129 162 1
379 569 581 1
295 296 297 1
279 281 323 1
383 384 497 1
440 161 441 1
503 29 546 1
438 436 638 1
249 289 290 1
329 328 330 1
157 28 503 1
211 219 220 1
261 258 544 1
260 258 261 1
530 524 531 1
130 195 530 1
206 216 617 1
293 294 295 1
195 524 530 1
421 160 422 1
1 2 212 1
559 396 681 1
228 230 231 1
290 291 299 1
497 384 498 1
65 66 594 1
97 98 554 1
327 311 328 1
285 286 293 1
144 145 584 1
264 262 292 1
354 468 682 1
177 53 512 1
322 490 491 1
16 17 196 1
360 381 439 1
355 428 542 1
41 42 543 1
187 444 585 1
195 523 524 1
310 308 311 1
436 163 638 1
126 127 545 1
315 300 316 1
82 83 206 1
344 345 346 1
507 512 516 1
283 284 285 1
484 183 700 1
477 478 479 1
98 99 181 1
468 187 585 1
162 531 532 1
515 179 517 1
304 267 558 1
129 130 530 1
227 228 411 1
307 306 308 1
399 363 401 1
273 275 313 1
100 101 553 1
159 138 633 1
493 492 624 1
319 356 359 1
392 557 579 1
475 473 672 1
305 298 306 1
375 377 405 1
24 25 163 1
246 245 247 1
125 126 165 1
18 19 185 1
101 102 178 1
281 282 283 1
297 296 298 1
518 517 519 1
444 72 651 1
455 583 641 1
352 350 358 1
248 247 249 1
269 271 320 1
299 291 300 1
249 290 552 1
348 346 581 1
498 444 651 1
92 93 600 1
279 280 281 1
385 386 562 1
176 511 593 1
165 126 545 1
460 368 614 1
295 294 296 1
104 105 174 1
122 123 166 1
446 448 458 1
270 268 301 1
267 269 558 1
14 15 199 1
277 278 279 1
448 450 615 1
107 108 173 1
293 286 294 1
507 177 512 1
316 318 319 1
119 120 168 1
21 22 175 1
8 9 205 1
110 111 171 1
285 284 286 1
330 331 332 1
116 117 169 1
172 47 504 1
162 532 533 1
113 114 170 1
66 67 569 1
29 30 546 1
231 232 234 1
321 370 402 1
22 23 557 1
31 32 548 1
477 172 478 1
533 532 534 1
374 395 623 1
156 31 548 1
283 282 284 1
265 267 304 1
275 276 277 1
290 289 291 1
12 13 204 1
276 274 314 1
395 312 437 1
371 382 625 1
441 442 443 1
344 342 345 1
281 280 282 1
279 278 280 1
248 249 552 1
223 224 225 1
628 109 632 1
392 391 679 1
273 274 275 1
340 338 380 1
117 118 556 1
280 278 367 1
161 44 526 1
286 509 586 1
269 320 558 1
336 334 390 1
346 345 379 1
271 272 273 1
277 276 278 1
219 218 685 1
359 356 389 1
413 326 414 1
30 156 546 1
284 282 324 1
308 306 309 1
427 429 676 1
330 328 331 1
260 261 262 1
98 181 554 1
409 227 411 1
251 241 254 1
296 294 303 1
275 274 276 1
480 527 593 1
319 318 356 1
243 244 245 1
273 272 274 1
491 490 624 1
269 270 271 1
381 404 605 1
199 226 668 1
316 300 318 1
96 97 561 1
197 561 562 1
311 308 560 1
529 480 593 1
125 165 570 1
478 172 504 1
596 597 702 1
332 331 396 1
183 630 700 1
271 270 272 1
99 100 564 1
32 198 548 1
101 178 553 1
267 268 269 1
249 288 289 1
77 78 566 1
402 370 496 1
441 161 442 1
234 235 236 1
197 96 561 1
269 268 270 1
568 302 582 1
124 125 570 1
267 266 268 1
265 266 267 1
15 16 563 1
396 331 397 1
425 596 702 1
238 239 240 1
97 554 561 1
175 22 557 1
160 41 543 1
253 365 366 1
463 171 604 1
169 117 556 1
236 237 238 1
265 264 266 1
291 289 302 1
139 500 633 1
67 184 569 1
422 423 424 1
412 410 551 1
563 196 619 1
334 332 559 1
112 113 575 1
263 262 264 1
2 3 673 1
263 264 265 1
328 311 565 1
550 588 646 1
356 318 394 1
442 161 526 1
474 388 694 1
587 219 685 1
280 367 567 1
253 366 573 1
332 396 559 1
100 553 564 1
308 309 560 1
16 196 563 1
342 340 571 1
23 24 579 1
181 99 564 1
300 291 568 1
282 280 567 1
379 345 420 1
149 150 574 1
569 379 594 1
228 229 230 1
394 568 582 1
324 282 567 1
451 454 539 1
255 254 256 1
407 377 591 1
370 326 413 1
94 95 583 1
379 420 594 1
390 334 559 1
249 247 288 1
345 342 571 1
292 622 631 1
454 456 457 1
340 380 571 1
234 232 235 1
489 488 655 1
289 288 555 1
321 326 370 1
557 23 579 1
113 170 575 1
474 115 696 1
549 198 550 1
24 163 579 1
403 185 639 1
260 262 263 1
198 33 588 1
524 523 654 1
231 230 232 1
163 436 659 1
257 256 258 1
311 560 565 1
365 364 378 1
254 241 572 1
259 258 260 1
331 328 565 1
302 289 555 1
251 254 255 1
34 35 155 1
359 389 590 1
501 441 611 1
243 240 244 1
294 286 586 1
257 259 321 1
229 426 602 1
238 237 239 1
318 300 568 1
158 38 502 1
454 457 539 1
485 380 657 1
239 237 241 1
194 499 687 1
518 520 690 1
486 487 655 1
535 537 607 1
414 326 577 1
253 244 364 1
321 259 326 1
245 244 253 1
180 144 584 1
539 457 540 1
397 331 565 1
145 146 626 1
487 357 674 1
257 258 259 1
446 447 448 1
483 361 590 1
36 409 684 1
193 485 663 1
86 87 210 1
236 235 237 1
186 74 683 1
237 235 572 1
79 80 576 1
365 378 387 1
90 203 589 1
250 241 251 1
166 123 595 1
394 318 568 1
422 160 423 1
291 302 568 1
423 160 543 1
239 241 250 1
448 449 450 1
250 251 317 1
255 256 257 1
537 494 607 1
188 79 576 1
253 364 365 1
174 542 599 1
420 345 571 1
33 34 588 1
265 304 598 1
292 262 622 1
203 445 446 1
25 26 638 1
454 453 455 1
226 199 645 1
454 455 456 1
10 11 209 1
214 210 215 1
78 188 566 1
247 245 573 1
414 577 598 1
364 244 578 1
189 94 583 1
617 216 660 1
588 155 646 1
556 487 674 1
124 570 595 1
346 379 581 1
260 263 577 1
104 174 599 1
577 263 598 1
240 239 578 1
548 198 549 1
245 253 573 1
527 176 593 1
211 220 221 1
361 359 590 1
199 15 563 1
580 205 648 1
303 294 586 1
26 27 629 1
241 237 572 1
171 111 604 1
183 420 630 1
244 240 578 1
171 614 632 1
622 424 631 1
531 524 670 1
524 654 670 1
259 260 577 1
590 389 626 1
451 453 454 1
326 259 577 1
643 474 694 1
192 483 590 1
589 452 680 1
228 158 229 1
11 12 587 1
108 109 628 1
382 385 662 1
500 167 613 1
288 247 573 1
396 397 689 1
232 230 233 1
18 185 627 1
436 430 659 1
229 158 502 1
112 575 604 1
451 449 453 1
123 124 595 1
450 449 451 1
261 596 622 1
239 250 578 1
298 521 649 1
201 81 617 1
564 373 625 1
272 270 621 1
73 186 651 1
103 104 599 1
66 569 594 1
93 189 600 1
122 166 634 1
542 428 599 1
7 8 609 1
218 217 580 1
196 17 627 1
448 447 449 1
3 4 213 1
114 115 643 1
111 112 604 1
110 171 632 1
200 540 683 1
546 156 591 1
189 453 695 1
423 501 631 1
434 628 632 1
88 190 650 1
261 544 596 1
263 265 598 1
521 298 697 1
446 445 447 1
80 201 576 1
547 201 660 1
378 364 606 1
404 403 639 1
8 205 609 1
560 690 699 1
264 292 665 1
615 188 661 1
203 91 445 1
168 120 642 1
222 221 669 1
625 382 662 1
439 381 605 1
384 372 682 1
268 266 675 1
81 82 617 1
185 19 639 1
178 102 640 1
5 6 620 1
364 578 606 1
169 556 674 1
572 235 592 1
441 443 611 1
192 590 626 1
306 298 649 1
235 232 592 1
376 374 623 1
200 459 664 1
34 155 588 1
368 434 614 1
578 250 606 1
457 456 636 1
84 85 214 1
336 390 657 1
573 366 608 1
119 168 667 1
12 204 587 1
107 173 698 1
549 407 691 1
14 199 668 1
188 576 661 1
181 564 625 1
369 464 618 1
75 200 683 1
539 200 664 1
492 491 624 1
651 186 693 1
9 10 648 1
380 338 657 1
298 296 697 1
556 118 667 1
288 573 608 1
585 384 682 1
555 288 608 1
373 371 625 1
391 605 679 1
10 209 648 1
250 317 606 1
157 503 623 1
450 451 664 1
255 418 671 1
230 229 602 1
180 584 656 1
232 233 592 1
270 301 621 1
690 520 699 1
434 433 658 1
389 356 656 1
487 556 667 1
213 620 652 1
591 156 691 1
225 224 619 1
525 414 635 1
17 18 627 1
442 481 686 1
386 497 636 1
596 544 597 1
540 457 612 1
190 589 680 1
380 485 700 1
292 611 665 1
233 230 602 1
458 448 615 1
216 215 601 1
226 204 668 1
430 392 659 1
146 192 626 1
262 261 622 1
87 88 650 1
418 417 637 1
366 365 666 1
584 389 656 1
103 599 640 1
433 435 658 1
452 547 616 1
387 378 647 1
614 434 632 1
416 159 647 1
309 518 690 1
635 304 654 1
173 108 628 1
109 110 632 1
420 571 630 1
317 251 671 1
138 139 633 1
27 157 629 1
599 428 640 1
121 122 634 1
6 207 620 1
204 13 668 1
464 106 698 1
447 600 695 1
224 222 645 1
173 618 698 1
180 656 692 1
201 617 660 1
497 498 693 1
209 11 587 1
613 366 666 1
407 591 691 1
72 73 651 1
609 205 610 1
19 20 639 1
102 103 640 1
163 25 638 1
571 380 630 1
598 304 635 1
424 423 631 1
495 193 663 1
652 212 673 1
197 562 641 1
400 399 653 1
121 634 642 1
206 83 677 1
495 663 681 1
120 121 642 1
209 580 648 1
449 447 695 1
601 190 680 1
226 645 669 1
115 116 696 1
388 538 694 1
216 601 616 1
488 486 655 1
611 443 665 1
520 194 687 1
499 182 689 1
468 585 682 1
13 14 668 1
170 114 643 1
74 75 683 1
83 84 677 1
82 206 617 1
154 217 218 1
182 681 689 1
414 598 635 1
178 640 676 1
456 455 641 1
458 615 661 1
304 558 654 1
428 427 676 1
182 495 681 1
309 306 649 1
485 484 700 1
181 625 662 1
473 474 672 1
357 475 674 1
565 560 699 1
600 189 695 1
338 336 657 1
538 170 694 1
628 434 658 1
207 7 609 1
451 539 664 1
406 408 678 1
612 457 636 1
116 169 696 1
301 268 675 1
118 119 667 1
637 317 671 1
372 354 682 1
654 558 670 1
356 394 656 1
620 207 652 1
597 233 702 1
392 579 659 1
579 163 659 1
266 264 665 1
443 442 686 1
500 613 666 1
554 181 662 1
221 220 669 1
378 606 644 1
106 107 698 1
498 651 693 1
548 549 691 1
205 9 648 1
156 548 691 1
558 320 670 1
365 387 666 1
213 652 673 1
220 226 669 1
645 222 669 1
560 309 690 1
175 557 679 1
251 255 671 1
609 610 688 1
296 303 697 1
378 644 647 1
225 619 653 1
606 317 644 1
605 175 679 1
644 416 647 1
618 464 698 1
547 458 661 1
397 565 699 1
453 449 695 1
233 602 702 1
155 35 684 1
656 394 692 1
86 210 701 1
85 86 701 1
610 212 688 1
216 616 660 1
580 209 685 1
210 87 650 1
394 582 692 1
173 628 658 1
640 428 676 1
452 616 680 1
616 601 680 1
212 652 688 1
630 380 700 1
84 214 677 1
418 637 671 1
3 213 673 1
214 85 701 1
186 612 693 1
616 547 660 1
218 580 685 1
169 672 696 1
675 443 686 1
170 643 694 1
207 609 688 1
687 397 699 1
301 675 686 1
652 207 688 1
672 474 696 1
520 687 699 1
646 155 684 1

End
