MeshVersionFormatted 2
Dimension 3

Vertices
347
-7.7003585536674579e-02 -3.1573064403685608e-01 0.0000000000000000e+00 1
-7.7407277368908428e-02 -3.1944543967205469e-01 0.0000000000000000e+00 1
-7.7403133435837074e-02 -3.2195293117835044e-01 0.0000000000000000e+00 1
-7.7014452771879044e-02 -3.2331423699838635e-01 0.0000000000000000e+00 1
-7.6264534411452908e-02 -3.2359047557480536e-01 0.0000000000000000e+00 1
-7.5176677388977139e-02 -3.2284276535025014e-01 0.0000000000000000e+00 1
-7.3774180738870251e-02 -3.2113222476736336e-01 0.0000000000000000e+00 1
-7.2080343495550786e-02 -3.1851997226878831e-01 0.0000000000000000e+00 1
-7.0118464693437271e-02 -3.1506712629716749e-01 0.0000000000000000e+00 1
-6.7911843366948207e-02 -3.1083480529514385e-01 0.0000000000000000e+00 1
-6.5483778550502136e-02 -3.0588412770536016e-01 0.0000000000000000e+00 1
-6.2857569278517517e-02 -3.0027621197045917e-01 0.0000000000000000e+00 1
-6.0056514585412946e-02 -2.9407217653308398e-01 0.0000000000000000e+00 1
-5.7103913505606903e-02 -2.8733313983587722e-01 0.0000000000000000e+00 1
-5.4023065073517902e-02 -2.8012022032148171e-01 0.0000000000000000e+00 1
-5.0837268323564493e-02 -2.7249453643254046e-01 0.0000000000000000e+00 1
-4.7569822290165174e-02 -2.6451720661169614e-01 0.0000000000000000e+00 1
-4.4244026007738461e-02 -2.5624934930159166e-01 0.0000000000000000e+00 1
-4.0883178510702882e-02 -2.4775208294486978e-01 0.0000000000000000e+00 1
-3.7510578833476950e-02 -2.3908652598417340e-01 0.0000000000000000e+00 1
-3.4149526010479200e-02 -2.3031379686214531e-01 0.0000000000000000e+00 1
-3.0823319076128140e-02 -2.2149501402142843e-01 0.0000000000000000e+00 1
-2.7555257064842277e-02 -2.1269129590466546e-01 0.0000000000000000e+00 1
-2.4368639011040163e-02 -2.0396376095449939e-01 0.0000000000000000e+00 1
-2.1286763949140298e-02 -1.9537352761357296e-01 0.0000000000000000e+00 1
-1.8332930913561203e-02 -1.8698171432452901e-01 0.0000000000000000e+00 1
-1.5530438938721396e-02 -1.7884943953001040e-01 0.0000000000000000e+00 1
-1.2902587059039393e-02 -1.7103782167265991e-01 0.0000000000000000e+00 1
-1.0472674308933729e-02 -1.6360797919512043e-01 0.0000000000000000e+00 1
-8.2639997228229119e-03 -1.5662103054003479e-01 0.0000000000000000e+00 1
-6.2998623351254567e-03 -1.5013809415004578e-01 0.0000000000000000e+00 1
-4.6035611802598964e-03 -1.4422028846779628e-01 0.0000000000000000e+00 1
-3.1983952926447441e-03 -1.3892873193592914e-01 0.0000000000000000e+00 1
-2.1076637066985192e-03 -1.3432454299708713e-01 0.0000000000000000e+00 1
-6.1889839733626079e-04 -1.2742407528039970e-01 0.0000000000000000e+00 1
9.9772360526027663e-04 -1.1977636891290916e-01 0.0000000000000000e+00 1
2.7338701213370465e-03 -1.1142192091846606e-01 0.0000000000000000e+00 1
4.5812089711400076e-03 -1.0240122832092116e-01 0.0000000000000000e+00 1
6.5314079749151160e-03 -9.2754788144125050e-02 0.0000000000000000e+00 1
8.5761349529083243e-03 -8.2523097411928342e-02 0.0000000000000000e+00 1
1.0707057725365603e-02 -7.1746653148181724e-02 0.0000000000000000e+00 1
1.2915844112532892e-02 -6.0465952376735820e-02 0.0000000000000000e+00 1
1.5194161934656152e-02 -4.8721492121441279e-02 0.0000000000000000e+00 1
1.7533679011981350e-02 -3.6553769406148712e-02 0.0000000000000000e+00 1
1.9926063164754433e-02 -2.4003281254708801e-02 0.0000000000000000e+00 1
2.2362982213221357e-02 -1.1110524690972165e-02 0.0000000000000000e+00 1
2.4836103977628081e-02 2.0840032612105125e-03 0.0000000000000000e+00 1
2.7337096278220573e-02 1.5539805577988682e-02 0.0000000000000000e+00 1
2.9857626935244765e-02 2.9216385235511587e-02 0.0000000000000000e+00 1
3.2389363768946633e-02 4.3073245209928661e-02 0.0000000000000000e+00 1
3.4923974599572132e-02 5.7069888477389245e-02 0.0000000000000000e+00 1
3.7453127247367206e-02 7.1165818014042675e-02 0.0000000000000000e+00 1
3.9968489532577832e-02 8.5320536796038376e-02 0.0000000000000000e+00 1
4.2461729275449958e-02 9.9493547799525628e-02 0.0000000000000000e+00 1
4.4924514296229533e-02 1.1364435400065381e-01 0.0000000000000000e+00 1
4.7348512415162511e-02 1.2773245837557229e-01 0.0000000000000000e+00 1
4.9725391452494862e-02 1.4171736390043047e-01 0.0000000000000000e+00 1
5.2046819228472527e-02 1.5555857355137756e-01 0.0000000000000000e+00 1
5.4304463563341475e-02 1.6921559030456307e-01 0.0000000000000000e+00 1
5.6489992277347675e-02 1.8264791713613635e-01 0.0000000000000000e+00 1
5.8595073190737069e-02 1.9581505702224672e-01 0.0000000000000000e+00 1
6.0611374123755619e-02 2.0867651293904355e-01 0.0000000000000000e+00 1
6.2530562896649253e-02 2.2119178786267607e-01 0.0000000000000000e+00 1
6.4344307329663980e-02 2.3332038476929384e-01 0.0000000000000000e+00 1
6.6044275243045680e-02 2.4502180663504602e-01 0.0000000000000000e+00 1
6.7622134457040406e-02 2.5625555643608222e-01 0.0000000000000000e+00 1
6.9069552791894043e-02 2.6698113714855159e-01 0.0000000000000000e+00 1
7.0378198067852574e-02 2.7715805174860353e-01 0.0000000000000000e+00 1
7.1539738105161954e-02 2.8674580321238746e-01 0.0000000000000000e+00 1
7.2545840724068125e-02 2.9570389451605261e-01 0.0000000000000000e+00 1
7.3388173744817084e-02 3.0399182863574853e-01 0.0000000000000000e+00 1
7.4058404987654730e-02 3.1156910854762437e-01 0.0000000000000000e+00 1
7.4548202272827074e-02 3.1839523722782975e-01 0.0000000000000000e+00 1
7.4849233420580044e-02 3.2442971765251377e-01 0.0000000000000000e+00 1
7.4953166251159595e-02 3.2963205279782587e-01 0.0000000000000000e+00 1
7.4851668584811709e-02 3.3396174563991549e-01 0.0000000000000000e+00 1
7.4536408241782287e-02 3.3737829915493184e-01 0.0000000000000000e+00 1
7.3999053042317353e-02 3.3984121631902436e-01 0.0000000000000000e+00 1
7.3231270806662821e-02 3.4131000010834250e-01 0.0000000000000000e+00 1
7.2224729355064674e-02 3.4174415349903547e-01 0.0000000000000000e+00 1
7.0971096507768838e-02 3.4110317946725266e-01 0.0000000000000000e+00 1
6.9462040085021284e-02 3.3934658098914355e-01 0.0000000000000000e+00 1
6.7689227907067981e-02 3.3643386104085732e-01 0.0000000000000000e+00 1
6.5644327794154883e-02 3.3232452259854339e-01 0.0000000000000000e+00 1
6.3319007566527918e-02 3.2697806863835116e-01 0.0000000000000000e+00 1
6.0357554811510429e-02 3.1964160965028632e-01 0.0000000000000000e+00 1
5.7398503734196395e-02 3.1198935520982130e-01 0.0000000000000000e+00 1
5.4442822002694020e-02 3.0403172135369905e-01 0.0000000000000000e+00 1
5.1491477285111525e-02 2.9577912411866336e-01 0.0000000000000000e+00 1
4.8545437249557032e-02 2.8724197954145708e-01 0.0000000000000000e+00 1
4.5605669564138869e-02 2.7843070365882405e-01 0.0000000000000000e+00 1
4.2673141896965125e-02 2.6935571250750723e-01 0.0000000000000000e+00 1
3.9748821916144088e-02 2.6002742212425028e-01 0.0000000000000000e+00 1
3.6833677289783893e-02 2.5045624854579618e-01 0.0000000000000000e+00 1
3.3928675685992823e-02 2.4065260780888875e-01 0.0000000000000000e+00 1
3.1034784772879010e-02 2.3062691595027091e-01 0.0000000000000000e+00 1
2.8152972218550693e-02 2.2038958900668626e-01 0.0000000000000000e+00 1
2.5284205691116061e-02 2.0995104301487788e-01 0.0000000000000000e+00 1
2.2429452858683328e-02 1.9932169401158942e-01 0.0000000000000000e+00 1
1.9589681389360705e-02 1.8851195803356410e-01 0.0000000000000000e+00 1
1.6765858951256391e-02 1.7753225111754534e-01 0.0000000000000000e+00 1
1.3958953212478573e-02 1.6639298930027629e-01 0.0000000000000000e+00 1
1.1169931841135457e-02 1.5510458861850041e-01 0.0000000000000000e+00 1
8.3997625053352856e-03 1.4367746510896118e-01 0.0000000000000000e+00 1
5.6494128731862320e-03 1.3212203480840182e-01 0.0000000000000000e+00 1
2.9198506127964879e-03 1.2044871375356556e-01 0.0000000000000000e+00 1
2.1204339227428367e-04 1.0866791798119591e-01 0.0000000000000000e+00 1
-2.4730411202721894e-03 9.6790063528036291e-02 0.0000000000000000e+00 1
-5.1344352567347321e-03 8.4825566430829780e-02 0.0000000000000000e+00 1
-7.7711713490051289e-03 7.2784842726319937e-02 0.0000000000000000e+00 1
-1.0382281728975176e-02 6.0678308451250058e-02 0.0000000000000000e+00 1
-1.2966798728536668e-02 4.8516379642363543e-02 0.0000000000000000e+00 1
-1.5523754679581416e-02 3.6309472336403616e-02 0.0000000000000000e+00 1
-1.8052181914001205e-02 2.4068002570113635e-02 0.0000000000000000e+00 1
-2.0551112763687832e-02 1.1802386380237083e-02 0.0000000000000000e+00 1
-2.3019579560533080e-02 -4.7696019648275911e-04 0.0000000000000000e+00 1
-2.5456614636428777e-02 -1.2759621123302631e-02 0.0000000000000000e+00 1
-2.7861250323266713e-02 -2.5035180363479174e-02 0.0000000000000000e+00 1
-3.0232518952938634e-02 -3.7293221880268852e-02 0.0000000000000000e+00 1
-3.2569452857336409e-02 -4.9523329636928577e-02 0.0000000000000000e+00 1
-3.4871084368351776e-02 -6.1715087596714784e-02 0.0000000000000000e+00 1
-3.7136445817876569e-02 -7.3858079722884287e-02 0.0000000000000000e+00 1
-3.9364569537802548e-02 -8.5941889978693592e-02 0.0000000000000000e+00 1
-4.1554487860021541e-02 -9.7956102327399514e-02 0.0000000000000000e+00 1
-4.3705233116425331e-02 -1.0989030073225858e-01 0.0000000000000000e+00 1
-4.5815837638905725e-02 -1.2173406915652754e-01 0.0000000000000000e+00 1
-4.7885333759354491e-02 -1.3347699156346290e-01 0.0000000000000000e+00 1
-4.9912753809663458e-02 -1.4510865191632152e-01 0.0000000000000000e+00 1
-5.1897130121724387e-02 -1.5661863417835983e-01 0.0000000000000000e+00 1
-5.3837495027429121e-02 -1.6799652231283471e-01 0.0000000000000000e+00 1
-5.5732880858669412e-02 -1.7923190028300262e-01 0.0000000000000000e+00 1
-5.7582319947337084e-02 -1.9031435205212036e-01 0.0000000000000000e+00 1
-5.9384844625323924e-02 -2.0123346158344452e-01 0.0000000000000000e+00 1
-6.1139487224521706e-02 -2.1197881284023165e-01 0.0000000000000000e+00 1
-6.2845280076822260e-02 -2.2253998978573858e-01 0.0000000000000000e+00 1
-6.4501255514117353e-02 -2.3290657638322182e-01 0.0000000000000000e+00 1
-6.6106445868298822e-02 -2.4306815659593820e-01 0.0000000000000000e+00 1
-6.7659883471258411e-02 -2.5301431438714411e-01 0.0000000000000000e+00 1
-6.9160600654887966e-02 -2.6273463372009653e-01 0.0000000000000000e+00 1
-7.0607629751079232e-02 -2.7221869855805175e-01 0.0000000000000000e+00 1
-7.2000003091724052e-02 -2.8145609286426676e-01 0.0000000000000000e+00 1
-7.3336753008714201e-02 -2.9043640060199799e-01 0.0000000000000000e+00 1
-7.4616911833941479e-02 -2.9914920573450221e-01 0.0000000000000000e+00 1
-7.5839511899297662e-02 -3.0758409222503597e-01 0.0000000000000000e+00 1
-6.6403740845321314e-03 -1.3568203620436861e-01 0.0000000000000000e+00 1
-5.3628953700578692e-03 -1.2260381538255656e-01 0.0000000000000000e+00 1
-1.2640287962931346e-02 -1.5175613916802663e-01 0.0000000000000000e+00 1
-1.8193582100773039e-02 -1.6578777823394930e-01 0.0000000000000000e+00 1
-3.8682809513810451e-03 -1.0537036917104770e-01 0.0000000000000000e+00 1
-3.5982604942680552e-04 -8.6543765745754481e-02 0.0000000000000000e+00 1
-3.7124897274698594e-02 -1.3001784210726425e-01 0.0000000000000000e+00 1
-2.3465049696860030e-02 -1.8066799454800578e-01 0.0000000000000000e+00 1
3.1595838064832913e-03 -6.6066138533518629e-02 0.0000000000000000e+00 1
5.4936491104512122e-03 -4.0326364233447522e-02 0.0000000000000000e+00 1
-3.0445362460106658e-02 -1.9752384214741431e-01 0.0000000000000000e+00 1
-1.3219239654390523e-02 -9.1947716849598501e-03 0.0000000000000000e+00 1
-8.2768627947982995e-03 1.5576131620262616e-02 0.0000000000000000e+00 1
-3.5055828440844570e-03 4.0882613263705306e-02 0.0000000000000000e+00 1
-4.0971550973448137e-02 -1.5180892952459221e-01 0.0000000000000000e+00 1
-2.9688998760878674e-02 -9.2984708773871300e-02 0.0000000000000000e+00 1
1.5082620445666000e-03 6.5962480154366093e-02 0.0000000000000000e+00 1
8.4453413880516519e-03 9.9905685346759546e-02 0.0000000000000000e+00 1
-3.6294541769173398e-02 -2.1362686183051222e-01 0.0000000000000000e+00 1
1.4033901917528161e-02 1.2400464820019758e-01 0.0000000000000000e+00 1
-2.5655892686406740e-02 -6.9796713637499522e-02 0.0000000000000000e+00 1
1.9407078442657291e-02 1.4705682686939370e-01 0.0000000000000000e+00 1
2.4816917696402700e-02 1.6957932941835058e-01 0.0000000000000000e+00 1
2.9926095884006222e-02 1.9156980081462338e-01 0.0000000000000000e+00 1
-2.0405284730880963e-02 -4.5985700592646797e-02 0.0000000000000000e+00 1
-4.3021984073354405e-02 -2.3194598406699507e-01 0.0000000000000000e+00 1
3.3758119204498539e-02 2.1335661108492629e-01 0.0000000000000000e+00 1
-4.5429819762187504e-02 -1.7548394841160966e-01 0.0000000000000000e+00 1
4.2083777871307564e-02 2.3229392488164569e-01 0.0000000000000000e+00 1
1.2297058334632176e-02 -2.3277418115116946e-03 0.0000000000000000e+00 1
2.6682080883655580e-02 8.0241723928787173e-02 0.0000000000000000e+00 1
1.6978060394721391e-02 2.4474867338734156e-02 0.0000000000000000e+00 1
4.6485127107820559e-02 2.5274618129829080e-01 0.0000000000000000e+00 1
-4.9212519147564804e-02 -1.9699049230894553e-01 0.0000000000000000e+00 1
-4.9866553845237686e-02 -2.4887763024827569e-01 0.0000000000000000e+00 1
5.1896272241425290e-02 2.7138662429984017e-01 0.0000000000000000e+00 1
2.2106029306114886e-02 5.2281063174349475e-02 0.0000000000000000e+00 1
3.2242449306981724e-02 1.0833699344507777e-01 0.0000000000000000e+00 1
7.1285924317684712e-02 3.3935287429160110e-01 0.0000000000000000e+00 1
-5.2931642838643538e-02 -2.1872285060404939e-01 0.0000000000000000e+00 1
6.3445284417617681e-02 2.8318210636121621e-01 0.0000000000000000e+00 1
4.4919417372850254e-02 1.7732315206670574e-01 0.0000000000000000e+00 1
7.0646249456518054e-02 3.2148760108558355e-01 0.0000000000000000e+00 1
4.0028580493562449e-02 1.5183030427874381e-01 0.0000000000000000e+00 1
-6.1169815480410679e-02 -2.5953549741389392e-01 0.0000000000000000e+00 1
5.9424332218223755e-02 2.9788112452862331e-01 0.0000000000000000e+00 1
6.9698372454378543e-02 3.3363799563857799e-01 0.0000000000000000e+00 1
5.6891423154555948e-02 2.4055907405940441e-01 0.0000000000000000e+00 1
6.7944100890695774e-02 3.0833998371912014e-01 0.0000000000000000e+00 1
-7.5770126384201719e-02 -3.2105230969308918e-01 0.0000000000000000e+00 1
5.2477336183077490e-02 2.1610827500034313e-01 0.0000000000000000e+00 1
-5.8419278187734847e-02 -2.7384344592494209e-01 0.0000000000000000e+00 1
-5.6598120998758876e-02 -2.3936258107588432e-01 0.0000000000000000e+00 1
-6.5096603741948644e-02 -2.8822480792260630e-01 0.0000000000000000e+00 1
-7.4981702995676580e-02 -3.1865610922227416e-01 0.0000000000000000e+00 1
-3.9267011388528769e-02 -1.4071441375758331e-01 0.0000000000000000e+00 1
-2.9540374602353359e-02 -1.3684213009163848e-01 0.0000000000000000e+00 1
-2.7385122319091890e-02 -1.2735110908816427e-01 0.0000000000000000e+00 1
-2.0880045007634074e-02 -1.3365099742377706e-01 0.0000000000000000e+00 1
-2.2820637123095081e-02 -1.4207393556153325e-01 0.0000000000000000e+00 1
-1.9041282292051993e-02 -1.2540064190065067e-01 0.0000000000000000e+00 1
-2.5131580614471752e-02 -1.1834984225753201e-01 0.0000000000000000e+00 1
-1.6667606755689780e-02 -1.1573012634626342e-01 0.0000000000000000e+00 1
-2.3484461316071837e-02 -1.0885750094301662e-01 0.0000000000000000e+00 1
-1.4794160728647567e-02 -1.3970496433171717e-01 0.0000000000000000e+00 1
-1.2811638077248892e-02 -1.3253360364384606e-01 0.0000000000000000e+00 1
-3.0282825918271739e-02 -1.4732812319433602e-01 0.0000000000000000e+00 1
-3.2396703768520149e-02 -1.5764148706408956e-01 0.0000000000000000e+00 1
-2.4059439957662496e-02 -1.5441892306078678e-01 0.0000000000000000e+00 1
-4.2112234850408520e-02 -1.6460714220572545e-01 0.0000000000000000e+00 1
-3.1799631092638267e-02 -1.6687198213301940e-01 0.0000000000000000e+00 1
5.9514301627198854e-02 2.6379974690165536e-01 0.0000000000000000e+00 1
6.9986781598387768e-02 3.2686338487009481e-01 0.0000000000000000e+00 1
5.7790818917842643e-02 2.5237962532094776e-01 0.0000000000000000e+00 1
-4.7356527467001301e-02 -1.8609279044140500e-01 0.0000000000000000e+00 1
-3.9903373443237369e-02 -1.8222163567990210e-01 0.0000000000000000e+00 1
5.2973607345163307e-02 2.2871642333621303e-01 0.0000000000000000e+00 1
4.2920327530321135e-02 1.6483970287583960e-01 0.0000000000000000e+00 1
-5.1541062532113116e-02 -2.0793397400058644e-01 0.0000000000000000e+00 1
-4.1177851089683359e-02 -2.0416875558829836e-01 0.0000000000000000e+00 1
2.9607854600847725e-02 9.4379497410246094e-02 0.0000000000000000e+00 1
4.7195965313012241e-02 1.8977421760286678e-01 0.0000000000000000e+00 1
4.7763128441434176e-02 2.0270712045120456e-01 0.0000000000000000e+00 1
-5.5767960144457909e-02 -2.2883760419595878e-01 0.0000000000000000e+00 1
2.4654567631983974e-02 6.6217396803152279e-02 0.0000000000000000e+00 1
1.3182243501367919e-02 7.5424202269921234e-02 0.0000000000000000e+00 1
-2.7910050862633450e-02 -8.1652280795949855e-02 0.0000000000000000e+00 1
-1.8173225375746917e-02 -8.9181325285352608e-02 0.0000000000000000e+00 1
-1.6659882610066162e-02 -7.7041632823141387e-02 0.0000000000000000e+00 1
-1.4876173260773605e-02 -6.5704450014487048e-02 0.0000000000000000e+00 1
-6.7046170843400978e-03 -7.1331669364431596e-02 0.0000000000000000e+00 1
1.9477653547496417e-02 3.8166387506150500e-02 0.0000000000000000e+00 1
9.3513674823104791e-03 4.6252119806530947e-02 0.0000000000000000e+00 1
-1.0714675583757310e-02 -1.4559733687642423e-01 0.0000000000000000e+00 1
1.7221647751092854e-02 9.0494054388508521e-02 0.0000000000000000e+00 1
6.1632021149191626e-02 2.7355480621236899e-01 0.0000000000000000e+00 1
7.0944522097974264e-02 3.3591519376769807e-01 0.0000000000000000e+00 1
-6.3176459906316654e-03 -1.2997809770921015e-01 0.0000000000000000e+00 1
3.6541414163378250e-02 1.3676367659247171e-01 0.0000000000000000e+00 1
3.4684342312482644e-02 1.2169217170289498e-01 0.0000000000000000e+00 1
1.4584326837705766e-02 1.1019508327392380e-02 0.0000000000000000e+00 1
1.9378237243661723e-03 6.8149197874733877e-03 0.0000000000000000e+00 1
-2.8908275841816336e-04 -6.2541585080004534e-03 0.0000000000000000e+00 1
4.2869041626575587e-03 1.9872508389144949e-02 0.0000000000000000e+00 1
9.9264213111901790e-03 -1.5210407175886282e-02 0.0000000000000000e+00 1
-3.0253446925654114e-03 -1.8633767086301652e-02 0.0000000000000000e+00 1
-1.5514575312840270e-02 -2.1764239898344570e-02 0.0000000000000000e+00 1
-5.0320036444323592e-03 -3.0967051234136449e-02 0.0000000000000000e+00 1
-7.6296780900574790e-02 -3.2241719796696633e-01 0.0000000000000000e+00 1
-2.3328227269158740e-02 -5.7769764675720009e-02 0.0000000000000000e+00 1
-1.1719559422110247e-02 -5.4277447298108801e-02 0.0000000000000000e+00 1
-4.4508134653094174e-03 -1.1436116463710745e-01 0.0000000000000000e+00 1
7.4669892694407634e-03 -2.7714353862967174e-02 0.0000000000000000e+00 1
-3.7893031994402915e-02 -1.9120950554360955e-01 0.0000000000000000e+00 1
-3.1033001812034389e-02 -1.1221963030587832e-01 0.0000000000000000e+00 1
6.9233808941542602e-02 3.1579523515727392e-01 0.0000000000000000e+00 1
1.8273795236272157e-03 -5.3578860406514509e-02 0.0000000000000000e+00 1
-2.3199918820051096e-03 -9.6232428198343808e-02 0.0000000000000000e+00 1
-1.1527293842228288e-02 -9.9343374446566990e-02 0.0000000000000000e+00 1
-6.6903260887333227e-02 -2.9509733809805194e-01 0.0000000000000000e+00 1
-7.4544893771578491e-03 -4.3245660628257583e-02 0.0000000000000000e+00 1
4.9684747284566094e-02 2.6161588540874858e-01 0.0000000000000000e+00 1
-1.0569675634576951e-02 3.0445912330883365e-03 0.0000000000000000e+00 1
-4.6568686980687744e-02 -2.4055022652355212e-01 0.0000000000000000e+00 1
-1.6692136110728031e-02 -1.5822368956278965e-01 0.0000000000000000e+00 1
-5.7255022731148072e-03 2.8210843776538153e-02 0.0000000000000000e+00 1
-2.0628780869461603e-02 -1.7315768040739482e-01 0.0000000000000000e+00 1
4.3677347752342353e-02 2.4309611789493490e-01 0.0000000000000000e+00 1
-3.9568246207851716e-02 -2.2283956072626945e-01 0.0000000000000000e+00 1
6.8104834116644282e-03 3.2976556680134002e-02 0.0000000000000000e+00 1
3.7611226458637237e-02 2.2188337090580557e-01 0.0000000000000000e+00 1
-2.6952255592691432e-02 -1.8908856613506986e-01 0.0000000000000000e+00 1
3.4531766582652924e-02 2.0332494875717036e-01 0.0000000000000000e+00 1
1.1431714120351372e-02 1.1218088751317179e-01 0.0000000000000000e+00 1
2.7052337147622660e-02 1.8073446365252191e-01 0.0000000000000000e+00 1
1.6422081061730116e-02 1.3565966082568379e-01 0.0000000000000000e+00 1
2.2002067232575605e-02 1.5841473802362327e-01 0.0000000000000000e+00 1
-6.1495122634481730e-02 -2.8119310636363298e-01 0.0000000000000000e+00 1
5.4527025315929428e-02 2.8046395946862557e-01 0.0000000000000000e+00 1
-1.7750020390252801e-02 -3.4048509099522235e-02 0.0000000000000000e+00 1
5.7181424286844397e-02 2.8941509509061797e-01 0.0000000000000000e+00 1
-5.8969599632500987e-02 -2.5004336079009698e-01 0.0000000000000000e+00 1
7.2456029675284223e-02 3.4028164150335205e-01 0.0000000000000000e+00 1
-7.9356771238416578e-03 -1.4050310121110260e-01 0.0000000000000000e+00 1
-1.7297690370643066e-02 -1.4695071475962129e-01 0.0000000000000000e+00 1
6.6700485170834586e-02 3.0053244206303475e-01 0.0000000000000000e+00 1
-3.5032612129271272e-02 -1.1992713227460414e-01 0.0000000000000000e+00 1
-7.3408026501780022e-02 -3.1605012691761475e-01 0.0000000000000000e+00 1
-4.7369651915528935e-04 5.3901757680468378e-02 0.0000000000000000e+00 1
-5.5566040320559958e-02 -2.6595558154605636e-01 0.0000000000000000e+00 1
-8.1613249466003165e-03 -9.0608912898001492e-02 0.0000000000000000e+00 1
-2.1249594410038205e-02 -9.9323079217068719e-02 0.0000000000000000e+00 1
-2.4997434046367437e-02 -1.6186725676622249e-01 0.0000000000000000e+00 1
2.0248046697492063e-02 1.0353298042606647e-01 0.0000000000000000e+00 1
1.2780251468776083e-02 6.0829145220186717e-02 0.0000000000000000e+00 1
6.5286795129268493e-02 2.9215737255145541e-01 0.0000000000000000e+00 1
-1.0562480924253558e-02 -1.0956136136782753e-01 0.0000000000000000e+00 1
-3.1968330278969170e-02 -2.0639490328507792e-01 0.0000000000000000e+00 1
-5.2414885692297297e-02 -2.5775030576326219e-01 0.0000000000000000e+00 1
-6.8761264092649294e-02 -3.0093037817562046e-01 0.0000000000000000e+00 1
2.2858390838392133e-02 1.1625374410639464e-01 0.0000000000000000e+00 1
1.3514781357996655e-03 7.7570542722419394e-02 0.0000000000000000e+00 1
-7.2762426810122516e-02 -3.1219019093700051e-01 0.0000000000000000e+00 1
5.3008588776707116e-03 8.7888524709530791e-02 0.0000000000000000e+00 1
-4.5262641283481841e-02 -2.1474294206183783e-01 0.0000000000000000e+00 1
6.1555417228103294e-02 3.0593886623479999e-01 0.0000000000000000e+00 1
-7.0697133240864296e-02 -3.0639799485383962e-01 0.0000000000000000e+00 1
2.5178761708278031e-02 1.2894935134063867e-01 0.0000000000000000e+00 1
-1.1804660316089576e-02 -1.2436094918605484e-01 0.0000000000000000e+00 1
3.4637051075210916e-02 1.7309783218526242e-01 0.0000000000000000e+00 1
7.2571123172989263e-02 3.3809456461775267e-01 0.0000000000000000e+00 1
-2.8196675078151785e-02 -1.7430247334250865e-01 0.0000000000000000e+00 1
-6.3332140619267063e-02 -2.6833279220000383e-01 0.0000000000000000e+00 1
-3.1785962879244997e-02 -1.0353855371658217e-01 0.0000000000000000e+00 1
2.5293917090089720e-02 1.3985895167017048e-01 0.0000000000000000e+00 1
-4.7760643322526837e-02 -2.2523938874733043e-01 0.0000000000000000e+00 1
3.1560261131529488e-02 1.6200374981037813e-01 0.0000000000000000e+00 1
6.3545503715938895e-02 3.1397099330004768e-01 0.0000000000000000e+00 1
2.9138886425632133e-02 1.4932137454079683e-01 0.0000000000000000e+00 1
1.1586742945659746e-03 -7.6659165836300724e-02 0.0000000000000000e+00 1
3.7020300144217033e-02 1.8461588478185936e-01 0.0000000000000000e+00 1
-8.4262875835944655e-03 -8.1743670813989602e-02 0.0000000000000000e+00 1
7.2352373435349948e-02 3.3168619543921790e-01 0.0000000000000000e+00 1
-3.6288688128116815e-02 -1.7437699906767548e-01 0.0000000000000000e+00 1
6.5496824270615150e-02 3.2144160997590032e-01 0.0000000000000000e+00 1
-5.6626772874226877e-03 -6.2191713123412110e-02 0.0000000000000000e+00 1
-2.3078576187328670e-02 -1.4821759998475112e-01 0.0000000000000000e+00 1
7.2492411331214326e-02 3.3511233237634902e-01 0.0000000000000000e+00 1
3.9031303501503210e-02 1.9462623673515381e-01 0.0000000000000000e+00 1
-6.5170834856857374e-02 -2.7540882718217946e-01 0.0000000000000000e+00 1
6.8099201029275275e-02 3.3003108330851255e-01 0.0000000000000000e+00 1
4.8769403014111347e-02 2.3724534000229647e-01 0.0000000000000000e+00 1
7.0312902115048467e-02 3.3767824758150045e-01 0.0000000000000000e+00 1
4.3114840816645683e-02 2.1234649246486542e-01 0.0000000000000000e+00 1
-3.2116512322243385e-02 -1.8197786238612856e-01 0.0000000000000000e+00 1
-4.9986638199538372e-02 -2.3392456506104131e-01 0.0000000000000000e+00 1
-1.8532325035211593e-02 -1.5237322582190022e-01 0.0000000000000000e+00 1
-2.5469568129096419e-02 -1.6835205443036916e-01 0.0000000000000000e+00 1
-9.7696913662800398e-03 -1.1732348338396195e-01 0.0000000000000000e+00 1
-1.0681167641603173e-02 -1.3718091387882655e-01 0.0000000000000000e+00 1
4.6051398726014020e-02 2.2285302350866507e-01 0.0000000000000000e+00 1
-1.6722836156540993e-02 -1.0551498864955867e-01 0.0000000000000000e+00 1
5.1647552071604583e-02 2.4688338247611738e-01 0.0000000000000000e+00 1

Edges
144
1 2 1
2 3 1
3 4 1
4 5 1
5 6 1
6 7 1
7 8 1
8 9 1
9 10 1
10 11 1
11 12 1
12 13 1
13 14 1
14 15 1
15 16 1
16 17 1
17 18 1
18 19 1
19 20 1
20 21 1
21 22 1
22 23 1
23 24 1
24 25 1
25 26 1
26 27 1
27 28 1
28 29 1
29 30 1
30 31 1
31 32 1
32 33 1
33 34 1
34 35 1
35 36 1
36 37 1
37 38 1
38 39 1
39 40 1
40 41 1
41 42 1
42 43 1
43 44 1
44 45 1
45 46 1
46 47 1
47 48 1
48 49 1
49 50 1
50 51 1
51 52 1
52 53 1
53 54 1
54 55 1
55 56 1
56 57 1
57 58 1
58 59 1
59 60 1
60 61 1
61 62 1
62 63 1
63 64 1
64 65 1
65 66 1
66 67 1
67 68 1
68 69 1
69 70 1
70 71 1
71 72 1
72 73 1
73 74 1
74 75 1
75 76 1
76 77 1
77 78 1
78 79 1
79 80 1
80 81 1
81 82 1
82 83 1
83 84 1
84 85 1
85 86 1
86 87 1
87 88 1
88 89 1
89 90 1
90 91 1
91 92 1
92 93 1
93 94 1
94 95 1
95 96 1
96 97 1
97 98 1
98 99 1
99 100 1
100 101 1
101 102 1
102 103 1
103 104 1
104 105 1
105 106 1
106 107 1
107 108 1
108 109 1
109 110 1
110 111 1
111 112 1
112 113 1
113 114 1
114 115 1
115 116 1
116 117 1
117 118 1
118 119 1
119 120 1
120 121 1
121 122 1
122 123 1
123 124 1
124 125 1
125 126 1
126 127 1
127 128 1
128 129 1
129 130 1
130 131 1
131 132 1
132 133 1
133 134 1
134 135 1
135 136 1
136 137 1
137 138 1
138 139 1
139 140 1
140 141 1
141 142 1
142 143 1
143 144 1
144 1 1

Triangles
548
224 155 258 1
124 125 318 1
258 276 339 1
169 265 284 1
144 1 307 1
255 261 265 1
204 201 211 1
155 224 302 1
252 154 257 1
130 172 214 1
213 269 341 1
261 255 330 1
322 260 329 1
2 3 194 1
269 213 297 1
258 155 276 1
161 293 299 1
78 287 315 1
293 237 299 1
220 258 339 1
265 252 284 1
277 227 338 1
125 126 291 1
259 125 291 1
141 198 282 1
201 200 211 1
78 79 287 1
148 269 297 1
177 218 266 1
154 252 265 1
250 156 251 1
218 216 266 1
179 197 286 1
247 156 250 1
85 217 335 1
200 159 211 1
227 277 333 1
214 172 328 1
129 130 214 1
178 224 258 1
230 161 299 1
141 142 198 1
217 85 329 1
4 5 253 1
204 211 331 1
241 191 332 1
169 255 265 1
197 179 268 1
74 75 217 1
7 8 199 1
161 230 306 1
239 225 298 1
86 322 329 1
203 204 209 1
162 239 298 1
151 200 201 1
128 159 200 1
202 201 203 1
247 246 267 1
156 247 267 1
180 216 240 1
238 209 289 1
171 277 338 1
210 145 242 1
237 158 274 1
6 7 194 1
217 75 327 1
205 203 210 1
250 252 257 1
157 246 248 1
306 230 308 1
230 239 308 1
81 82 183 1
242 146 313 1
211 212 213 1
203 209 210 1
5 6 253 1
203 201 204 1
319 243 323 1
215 214 328 1
3 4 253 1
243 188 323 1
236 237 274 1
62 195 227 1
83 84 191 1
194 3 253 1
210 242 313 1
187 217 329 1
35 146 242 1
233 232 326 1
261 154 265 1
219 178 258 1
209 238 288 1
151 201 202 1
260 187 329 1
151 127 200 1
232 295 326 1
246 157 267 1
163 224 309 1
197 137 286 1
64 192 221 1
142 143 264 1
211 159 212 1
132 178 219 1
145 210 344 1
287 183 315 1
209 204 289 1
160 124 318 1
231 232 233 1
82 83 337 1
126 127 151 1
117 118 251 1
59 186 222 1
1 2 199 1
141 282 334 1
81 183 287 1
192 65 218 1
216 180 266 1
159 129 214 1
231 160 232 1
156 117 251 1
172 219 220 1
134 184 223 1
216 67 240 1
226 61 227 1
31 32 238 1
1 292 307 1
56 243 244 1
61 62 227 1
150 324 326 1
123 160 231 1
136 197 228 1
207 205 313 1
54 182 225 1
263 232 296 1
275 338 345 1
202 203 205 1
44 45 257 1
198 142 264 1
6 194 253 1
63 64 221 1
175 225 239 1
57 188 243 1
195 63 221 1
181 51 229 1
244 243 312 1
246 245 248 1
126 151 291 1
83 191 241 1
176 49 236 1
172 131 219 1
186 60 226 1
128 129 159 1
178 223 224 1
85 86 329 1
154 44 257 1
127 128 200 1
249 247 250 1
188 58 222 1
264 143 304 1
60 61 226 1
229 175 230 1
250 251 252 1
165 231 233 1
178 133 223 1
179 286 303 1
191 327 332 1
270 248 274 1
232 263 295 1
176 236 274 1
174 245 246 1
130 131 172 1
207 313 343 1
62 63 195 1
174 47 245 1
184 135 228 1
182 55 244 1
187 74 217 1
174 247 249 1
64 65 192 1
58 59 222 1
180 240 283 1
236 181 237 1
153 261 330 1
123 124 160 1
131 132 219 1
135 136 228 1
59 60 186 1
169 254 255 1
66 67 216 1
133 134 223 1
84 85 335 1
132 133 178 1
157 248 270 1
52 175 229 1
57 58 188 1
138 139 189 1
175 53 225 1
50 181 236 1
241 315 337 1
315 183 337 1
68 69 185 1
217 327 335 1
45 249 257 1
230 175 239 1
194 7 199 1
165 122 231 1
234 233 235 1
316 328 339 1
134 135 184 1
54 55 182 1
48 176 245 1
56 57 243 1
220 219 258 1
47 48 245 1
34 35 242 1
245 176 248 1
136 137 197 1
212 214 215 1
52 53 175 1
49 50 236 1
275 171 338 1
55 56 244 1
122 123 231 1
174 246 247 1
249 250 257 1
50 51 181 1
224 223 309 1
73 74 187 1
48 49 176 1
158 270 274 1
327 191 335 1
324 235 326 1
251 118 284 1
254 234 255 1
51 52 229 1
224 163 302 1
46 174 249 1
35 36 146 1
158 237 293 1
88 89 190 1
237 181 299 1
169 120 254 1
53 54 225 1
229 230 299 1
80 81 287 1
45 46 249 1
46 47 174 1
43 154 261 1
165 234 254 1
121 122 165 1
77 78 315 1
8 9 292 1
240 185 283 1
165 233 234 1
121 165 254 1
43 44 154 1
37 149 256 1
71 72 193 1
65 66 218 1
41 42 153 1
39 40 150 1
120 121 254 1
119 120 169 1
286 189 303 1
212 215 297 1
67 68 240 1
273 309 320 1
39 150 262 1
312 243 319 1
37 38 149 1
66 216 218 1
207 301 346 1
91 92 180 1
285 185 300 1
116 117 156 1
42 43 261 1
72 73 260 1
18 19 179 1
185 69 300 1
115 116 267 1
114 115 157 1
205 210 313 1
30 31 147 1
315 241 332 1
252 251 284 1
235 153 330 1
212 159 214 1
93 94 177 1
137 138 286 1
76 77 332 1
70 290 300 1
153 235 324 1
112 113 158 1
248 176 274 1
192 218 347 1
20 21 170 1
22 23 163 1
28 29 148 1
70 71 290 1
113 114 270 1
24 25 155 1
15 16 196 1
118 119 284 1
95 96 173 1
90 283 285 1
19 20 268 1
21 22 273 1
116 156 267 1
110 111 161 1
173 221 336 1
225 182 298 1
206 205 207 1
26 27 152 1
221 173 345 1
68 185 240 1
38 39 262 1
97 98 171 1
92 93 266 1
89 90 285 1
99 100 168 1
107 108 162 1
208 207 346 1
105 106 164 1
36 37 256 1
101 102 167 1
103 104 166 1
157 115 267 1
94 95 272 1
25 26 276 1
90 91 283 1
96 97 275 1
106 107 278 1
27 28 271 1
104 105 280 1
114 157 270 1
98 99 277 1
29 30 269 1
238 32 288 1
102 103 281 1
100 101 279 1
193 72 260 1
190 89 285 1
158 113 270 1
91 180 283 1
119 169 284 1
227 195 338 1
153 42 261 1
16 17 294 1
188 222 321 1
12 13 264 1
73 187 260 1
9 10 307 1
179 19 268 1
180 92 266 1
20 170 268 1
170 21 273 1
138 189 286 1
22 163 273 1
14 15 282 1
210 209 344 1
13 14 198 1
147 31 238 1
232 160 296 1
93 177 266 1
307 10 311 1
226 227 333 1
283 185 285 1
182 244 305 1
177 94 272 1
95 173 272 1
181 229 299 1
173 96 275 1
155 25 276 1
143 144 311 1
107 162 278 1
290 190 300 1
164 106 278 1
97 171 275 1
105 164 280 1
171 98 277 1
166 104 280 1
32 33 288 1
328 220 339 1
99 168 277 1
103 166 281 1
213 212 297 1
167 102 281 1
168 100 279 1
101 167 279 1
112 158 293 1
190 285 300 1
206 207 208 1
26 152 276 1
161 111 293 1
152 27 271 1
239 162 308 1
273 163 309 1
294 17 303 1
41 153 324 1
149 263 301 1
28 148 271 1
148 29 269 1
234 235 330 1
149 262 263 1
222 186 314 1
202 205 206 1
11 12 304 1
211 213 331 1
149 38 262 1
111 112 293 1
18 179 303 1
163 23 302 1
15 196 282 1
30 147 269 1
33 34 145 1
146 36 256 1
24 155 302 1
309 184 320 1
69 70 300 1
223 184 309 1
71 193 290 1
110 161 306 1
209 288 344 1
88 190 310 1
304 143 311 1
75 76 327 1
189 139 317 1
196 16 294 1
262 150 295 1
23 24 302 1
256 149 301 1
206 208 259 1
221 192 336 1
150 40 324 1
162 108 308 1
17 18 303 1
186 226 325 1
198 14 282 1
87 88 310 1
140 141 334 1
188 321 323 1
139 140 317 1
13 198 264 1
86 87 322 1
151 202 291 1
278 162 298 1
272 336 347 1
199 8 292 1
327 76 332 1
2 194 199 1
338 195 345 1
147 238 289 1
218 177 347 1
109 110 306 1
297 215 342 1
10 11 311 1
189 294 303 1
83 241 337 1
263 262 295 1
228 197 340 1
33 145 288 1
305 244 312 1
202 206 291 1
108 109 308 1
77 315 332 1
12 264 304 1
87 310 322 1
164 278 305 1
195 221 345 1
109 306 308 1
173 275 345 1
184 228 320 1
206 259 291 1
190 290 310 1
336 192 347 1
172 220 328 1
197 268 340 1
278 298 305 1
294 189 317 1
235 233 326 1
310 193 322 1
40 41 324 1
1 199 292 1
79 80 287 1
164 305 312 1
290 193 310 1
280 164 312 1
271 148 342 1
193 260 322 1
279 167 314 1
317 140 334 1
298 182 305 1
255 234 330 1
152 271 316 1
148 297 342 1
325 226 333 1
145 34 242 1
289 331 341 1
196 294 317 1
301 263 346 1
170 273 320 1
296 160 318 1
256 301 343 1
11 304 311 1
208 296 318 1
177 272 347 1
166 280 319 1
314 167 321 1
313 146 343 1
222 314 321 1
167 281 321 1
292 9 307 1
280 312 319 1
281 166 323 1
196 317 334 1
168 279 325 1
259 208 318 1
170 320 340 1
279 314 325 1
166 319 323 1
316 215 328 1
152 316 339 1
321 281 323 1
320 228 340 1
301 207 343 1
168 325 333 1
268 170 340 1
147 289 341 1
263 296 346 1
277 168 333 1
272 173 336 1
296 208 346 1
314 186 325 1
282 196 334 1
276 152 339 1
144 307 311 1
331 213 341 1
269 147 341 1
191 84 335 1
295 150 326 1
146 256 343 1
289 204 331 1
183 82 337 1
288 145 344 1
316 271 342 1
215 316 342 1
125 259 318 1

End
