MeshVersionFormatted 2
Dimension 3

Vertices
358
2.8078039561770109e-02 -5.5424217038988963e-02 0.0000000000000000e+00 1
3.2786215641748835e-02 -5.8648244751657350e-02 0.0000000000000000e+00 1
3.8159318374641253e-02 -6.2185877979277701e-02 0.0000000000000000e+00 1
4.4148567047424904e-02 -6.6010497822865971e-02 0.0000000000000000e+00 1
5.0705180947077336e-02 -7.0095485383438211e-02 0.0000000000000000e+00 1
5.7780379360576083e-02 -7.4414221762010374e-02 0.0000000000000000e+00 1
6.5325381574898672e-02 -7.8940088059598415e-02 0.0000000000000000e+00 1
7.3291406877022666e-02 -8.3646465377218357e-02 0.0000000000000000e+00 1
8.1629674553925613e-02 -8.8506734815886182e-02 0.0000000000000000e+00 1
9.0291403892585012e-02 -9.3494277476617843e-02 0.0000000000000000e+00 1
9.9227814179978446e-02 -9.8582474460429378e-02 0.0000000000000000e+00 1
1.0839012470308340e-01 -1.0374470686833669e-01 0.0000000000000000e+00 1
1.1772955474887746e-01 -1.0895435580135583e-01 0.0000000000000000e+00 1
1.2719732360433814e-01 -1.1418480236050275e-01 0.0000000000000000e+00 1
1.3674465055644300e-01 -1.1940942764679342e-01 0.0000000000000000e+00 1
1.4632275489216962e-01 -1.2460161276124392e-01 0.0000000000000000e+00 1
1.5588285589849543e-01 -1.2973473880487010e-01 0.0000000000000000e+00 1
1.6537617286239809e-01 -1.3478218687868807e-01 0.0000000000000000e+00 1
1.7475392507085505e-01 -1.3971733808371370e-01 0.0000000000000000e+00 1
1.8396733181084390e-01 -1.4451357352096300e-01 0.0000000000000000e+00 1
1.9296761236934212e-01 -1.4914427429145202e-01 0.0000000000000000e+00 1
2.0170598603332732e-01 -1.5358282149619668e-01 0.0000000000000000e+00 1
2.1013367208977704e-01 -1.5780259623621296e-01 0.0000000000000000e+00 1
2.1820188982566874e-01 -1.6177697961251691e-01 0.0000000000000000e+00 1
2.2586185852798005e-01 -1.6547935272612446e-01 0.0000000000000000e+00 1
2.3306479748368844e-01 -1.6888309667805157e-01 0.0000000000000000e+00 1
2.3976192597977150e-01 -1.7196159256931431e-01 0.0000000000000000e+00 1
2.4590446330320678e-01 -1.7468822150092861e-01 0.0000000000000000e+00 1
2.5144362874097176e-01 -1.7703636457391042e-01 0.0000000000000000e+00 1
2.5633064158004398e-01 -1.7897940288927577e-01 0.0000000000000000e+00 1
2.6051672110740109e-01 -1.8049071754804069e-01 0.0000000000000000e+00 1
2.6395308661002048e-01 -1.8154368965122103e-01 0.0000000000000000e+00 1
2.6659095737487981e-01 -1.8211170029983287e-01 0.0000000000000000e+00 1
2.6838155268895653e-01 -1.8216813059489217e-01 0.0000000000000000e+00 1
2.6927609183922824e-01 -1.8168636163741497e-01 0.0000000000000000e+00 1
2.6922579411267245e-01 -1.8063977452841715e-01 0.0000000000000000e+00 1
2.6818187879626670e-01 -1.7900175036891480e-01 0.0000000000000000e+00 1
2.6609556517698857e-01 -1.7674567025992383e-01 0.0000000000000000e+00 1
2.6291807254181554e-01 -1.7384491530246021e-01 0.0000000000000000e+00 1
2.5698365850459204e-01 -1.6874323613468437e-01 0.0000000000000000e+00 1
2.5080696431284299e-01 -1.6348696231028365e-01 0.0000000000000000e+00 1
2.4439553231156932e-01 -1.5808227899567825e-01 0.0000000000000000e+00 1
2.3775690484577142e-01 -1.5253537135728837e-01 0.0000000000000000e+00 1
2.3089862426045007e-01 -1.4685242456153422e-01 0.0000000000000000e+00 1
2.2382823290060588e-01 -1.4103962377483589e-01 0.0000000000000000e+00 1
2.1655327311123945e-01 -1.3510315416361360e-01 0.0000000000000000e+00 1
2.0908128723735142e-01 -1.2904920089428754e-01 0.0000000000000000e+00 1
2.0141981762394248e-01 -1.2288394913327781e-01 0.0000000000000000e+00 1
1.9357640661601327e-01 -1.1661358404700470e-01 0.0000000000000000e+00 1
1.8555859655856441e-01 -1.1024429080188834e-01 0.0000000000000000e+00 1
1.7737392979659650e-01 -1.0378225456434881e-01 0.0000000000000000e+00 1
1.6902994867511026e-01 -9.7233660500806438e-02 0.0000000000000000e+00 1
1.6053419553910625e-01 -9.0604693777681267e-02 0.0000000000000000e+00 1
1.5189421273358522e-01 -8.3901539561393595e-02 0.0000000000000000e+00 1
1.4311754260354773e-01 -7.7130383018363530e-02 0.0000000000000000e+00 1
1.3421172749399440e-01 -7.0297409315011189e-02 0.0000000000000000e+00 1
1.2518430974992587e-01 -6.3408803617756818e-02 0.0000000000000000e+00 1
1.1604283171634293e-01 -5.6470751093020632e-02 0.0000000000000000e+00 1
1.0679483573824608e-01 -4.9489436907222739e-02 0.0000000000000000e+00 1
9.7447864160635986e-02 -4.2471046226783327e-02 0.0000000000000000e+00 1
8.8009459328513270e-02 -3.5421764218122549e-02 0.0000000000000000e+00 1
7.8487163586878572e-02 -2.8347776047660620e-02 0.0000000000000000e+00 1
6.8888519280732585e-02 -2.1255266881817704e-02 0.0000000000000000e+00 1
5.9221068755075990e-02 -1.4150421887014002e-02 0.0000000000000000e+00 1
4.9492354354909299e-02 -7.0394262296696354e-03 0.0000000000000000e+00 1
3.9709918425233207e-02 7.1534923795205096e-05 0.0000000000000000e+00 1
2.9881303311048352e-02 7.1762764069603531e-03 0.0000000000000000e+00 1
2.0014051357355435e-02 1.4268613053405575e-02 0.0000000000000000e+00 1
1.0115704909155055e-02 2.1342359696710732e-02 0.0000000000000000e+00 1
1.9380631144776984e-04 2.8391331170455728e-02 0.0000000000000000e+00 1
-9.7441020907656131e-03 3.5409342308220237e-02 0.0000000000000000e+00 1
-1.9690477952484541e-02 4.2390207943584168e-02 0.0000000000000000e+00 1
-2.9637778928708461e-02 4.9327742910127384e-02 0.0000000000000000e+00 1
-3.9578462674436557e-02 5.6215762041429626e-02 0.0000000000000000e+00 1
-4.9504986844668357e-02 6.3048080171070803e-02 0.0000000000000000e+00 1
-5.9409809094403070e-02 6.9818512132630670e-02 0.0000000000000000e+00 1
-6.9285387078640126e-02 7.6520872759689038e-02 0.0000000000000000e+00 1
-7.9124178452378943e-02 8.3148976885825857e-02 0.0000000000000000e+00 1
-8.8918640870618737e-02 8.9696639344620785e-02 0.0000000000000000e+00 1
-9.8661231988359022e-02 9.6157674969653786e-02 0.0000000000000000e+00 1
-1.0834440946059902e-01 1.0252589859450459e-01 0.0000000000000000e+00 1
-1.1796063094233815e-01 1.0879512505275304e-01 0.0000000000000000e+00 1
-1.2750235408857585e-01 1.1495916917797906e-01 0.0000000000000000e+00 1
-1.3696203655431133e-01 1.2101184580376233e-01 0.0000000000000000e+00 1
-1.4633213599454409e-01 1.2694696976368278e-01 0.0000000000000000e+00 1
-1.5560511006427336e-01 1.3275835589132015e-01 0.0000000000000000e+00 1
-1.6477341641849860e-01 1.3843981902025437e-01 0.0000000000000000e+00 1
-1.7382951271221908e-01 1.4398517398406513e-01 0.0000000000000000e+00 1
-1.8276585660043418e-01 1.4938823561633238e-01 0.0000000000000000e+00 1
-1.9157490573814340e-01 1.5464281875063590e-01 0.0000000000000000e+00 1
-2.0024911778034590e-01 1.5974273822055551e-01 0.0000000000000000e+00 1
-2.0878095038204114e-01 1.6468180885967104e-01 0.0000000000000000e+00 1
-2.1716286119822847e-01 1.6945384550156231e-01 0.0000000000000000e+00 1
-2.2538730788390723e-01 1.7405266297980912e-01 0.0000000000000000e+00 1
-2.3344674809407681e-01 1.7847207612799132e-01 0.0000000000000000e+00 1
-2.4133363948373651e-01 1.8270589977968879e-01 0.0000000000000000e+00 1
-2.4904043970788578e-01 1.8674794876848125e-01 0.0000000000000000e+00 1
-2.5655960642152387e-01 1.9059203792794860e-01 0.0000000000000000e+00 1
-2.6167329714019882e-01 1.9304909293183520e-01 0.0000000000000000e+00 1
-2.6574952003151847e-01 1.9474633440465491e-01 0.0000000000000000e+00 1
-2.6882476467270749e-01 1.9571191558879966e-01 0.0000000000000000e+00 1
-2.7093552064099047e-01 1.9597398972666116e-01 0.0000000000000000e+00 1
-2.7211827751359219e-01 1.9556071006063136e-01 0.0000000000000000e+00 1
-2.7240952486773717e-01 1.9450022983310220e-01 0.0000000000000000e+00 1
-2.7184575228065033e-01 1.9282070228646547e-01 0.0000000000000000e+00 1
-2.7046344932955596e-01 1.9055028066311305e-01 0.0000000000000000e+00 1
-2.6829910559167913e-01 1.8771711820543677e-01 0.0000000000000000e+00 1
-2.6538921064424420e-01 1.8434936815582856e-01 0.0000000000000000e+00 1
-2.6177025406447602e-01 1.8047518375668020e-01 0.0000000000000000e+00 1
-2.5747872542959904e-01 1.7612271825038353e-01 0.0000000000000000e+00 1
-2.5255111431683824e-01 1.7132012487933068e-01 0.0000000000000000e+00 1
-2.4702391030341794e-01 1.6609555688591313e-01 0.0000000000000000e+00 1
-2.4093360296656305e-01 1.6047716751252300e-01 0.0000000000000000e+00 1
-2.3431668188349811e-01 1.5449311000155214e-01 0.0000000000000000e+00 1
-2.2720963663144786e-01 1.4817153759539237e-01 0.0000000000000000e+00 1
-2.1964895678763688e-01 1.4154060353643544e-01 0.0000000000000000e+00 1
-2.1167113192928985e-01 1.3462846106707341e-01 0.0000000000000000e+00 1
-2.0331265163363163e-01 1.2746326342969810e-01 0.0000000000000000e+00 1
-1.9461000547788651e-01 1.2007316386670121e-01 0.0000000000000000e+00 1
-1.8559968303927948e-01 1.1248631562047483e-01 0.0000000000000000e+00 1
-1.7631817389503510e-01 1.0473087193341064e-01 0.0000000000000000e+00 1
-1.6680196762237803e-01 9.6834986047900640e-02 0.0000000000000000e+00 1
-1.5708755379853293e-01 8.8826811206336634e-02 0.0000000000000000e+00 1
-1.4721142200072443e-01 8.0734500651110500e-02 0.0000000000000000e+00 1
-1.3721006180617720e-01 7.2586207624614082e-02 0.0000000000000000e+00 1
-1.2711996279211593e-01 6.4410085369239228e-02 0.0000000000000000e+00 1
-1.1697761453576531e-01 5.6234287127377880e-02 0.0000000000000000e+00 1
-1.0681950661435000e-01 4.8086966141421855e-02 0.0000000000000000e+00 1
-9.6682128605094647e-02 3.9996275653763028e-02 0.0000000000000000e+00 1
-8.6601970085223870e-02 3.1990368906793229e-02 0.0000000000000000e+00 1
-7.6615520631962392e-02 2.4097399142904350e-02 0.0000000000000000e+00 1
-6.6759269822534884e-02 1.6345519604488278e-02 0.0000000000000000e+00 1
-5.7069707234165983e-02 8.7628835339368417e-03 0.0000000000000000e+00 1
-4.7583322444080325e-02 1.3776441736419176e-03 0.0000000000000000e+00 1
-3.8336605029502570e-02 -5.7820452340046659e-03 0.0000000000000000e+00 1
-2.9366044567657450e-02 -1.2688031446610973e-02 0.0000000000000000e+00 1
-2.0708130635769616e-02 -1.9312161221785168e-02 0.0000000000000000e+00 1
-1.2399352811063710e-02 -2.5626281317135395e-02 0.0000000000000000e+00 1
-4.4762006707643829e-03 -3.1602238490269788e-02 0.0000000000000000e+00 1
3.0248362079036833e-03 -3.7211879498796480e-02 0.0000000000000000e+00 1
1.0067268247715826e-02 -4.2427051100323604e-02 0.0000000000000000e+00 1
1.6614605871447412e-02 -4.7219600052459329e-02 0.0000000000000000e+00 1
2.2630359501873719e-02 -5.1561373112811726e-02 0.0000000000000000e+00 1
3.2682387644415681e-02 -5.2636100498042501e-02 0.0000000000000000e+00 1
5.0100892074240254e-02 -6.1701467484707638e-02 0.0000000000000000e+00 1
1.7317325464005322e-02 -3.8656391677528351e-02 0.0000000000000000e+00 1
3.9416731570669486e-03 -2.9116290268798084e-02 0.0000000000000000e+00 1
6.5358979693040192e-02 -7.0332065331347476e-02 0.0000000000000000e+00 1
4.8789670931504395e-02 -1.8802676774552836e-02 0.0000000000000000e+00 1
-9.7699571891821414e-03 -1.4084443691813687e-02 0.0000000000000000e+00 1
8.2154861920466019e-02 -7.9182938033926176e-02 0.0000000000000000e+00 1
-2.9146356642269514e-02 -8.8587872547263942e-04 0.0000000000000000e+00 1
9.7424468319047941e-02 -8.7753796343268825e-02 0.0000000000000000e+00 1
6.7020838475535013e-02 -3.4025691581153469e-02 0.0000000000000000e+00 1
-4.5029086788936912e-02 1.2960660327761763e-02 0.0000000000000000e+00 1
2.8669059019729319e-02 -6.5830966191510899e-03 0.0000000000000000e+00 1
-5.0826816939376365e-02 4.9733582040761906e-02 0.0000000000000000e+00 1
8.6911956432023624e-02 -4.7004878866915657e-02 0.0000000000000000e+00 1
1.1637021498119252e-01 -9.8312660247130451e-02 0.0000000000000000e+00 1
-7.1026235502018004e-02 6.3398502982803362e-02 0.0000000000000000e+00 1
-9.4741648584784066e-04 1.6277630256693709e-02 0.0000000000000000e+00 1
-9.0155882930166104e-02 7.7977633011566988e-02 0.0000000000000000e+00 1
1.3771871904314997e-01 -1.0938681575671484e-01 0.0000000000000000e+00 1
1.0520566146179833e-01 -6.0799148559457242e-02 0.0000000000000000e+00 1
-1.0999665365793304e-01 9.1740345451601382e-02 0.0000000000000000e+00 1
-2.0719468222955773e-02 3.0343661616162157e-02 0.0000000000000000e+00 1
-1.2700882144853087e-01 1.0315530262297017e-01 0.0000000000000000e+00 1
-1.4623492778300873e-01 1.1590594149980502e-01 0.0000000000000000e+00 1
1.5612414564519100e-01 -1.2061555589924711e-01 0.0000000000000000e+00 1
-7.5277273302750525e-02 3.6808270887544833e-02 0.0000000000000000e+00 1
1.2313013874298800e-01 -7.4746390444037095e-02 0.0000000000000000e+00 1
-1.6479169683032141e-01 1.2816012252124165e-01 0.0000000000000000e+00 1
1.7593538431122305e-01 -1.1403557434849045e-01 0.0000000000000000e+00 1
-9.4964968878571560e-02 5.3038001814209659e-02 0.0000000000000000e+00 1
-1.8293529784408752e-01 1.3901636729768882e-01 0.0000000000000000e+00 1
1.8293685185304620e-01 -1.3483386623374322e-01 0.0000000000000000e+00 1
1.4166564761480924e-01 -8.8406383927662480e-02 0.0000000000000000e+00 1
-1.1533511438171057e-01 6.8873368375676189e-02 0.0000000000000000e+00 1
2.0029678409006571e-01 -1.3298316766501089e-01 0.0000000000000000e+00 1
-2.0159080721239114e-01 1.3858020943645813e-01 0.0000000000000000e+00 1
-2.0912703614747957e-01 1.5491325351377894e-01 0.0000000000000000e+00 1
1.5927107465449317e-01 -1.0100762402203552e-01 0.0000000000000000e+00 1
-1.6540931147643709e-01 1.0831258625662529e-01 0.0000000000000000e+00 1
-2.7089671645782920e-01 1.9397777677194328e-01 0.0000000000000000e+00 1
-1.4534725537581797e-01 9.3077057760470816e-02 0.0000000000000000e+00 1
2.6752262854643477e-01 -1.8077886175477659e-01 0.0000000000000000e+00 1
2.0949068438880966e-01 -1.4856103727109729e-01 0.0000000000000000e+00 1
-2.2580453478333601e-01 1.5713278060456862e-01 0.0000000000000000e+00 1
2.2396988622104577e-01 -1.4964372122512887e-01 0.0000000000000000e+00 1
-1.8355629191772888e-01 1.2279889427905935e-01 0.0000000000000000e+00 1
-2.6746836465982682e-01 1.9085651205028079e-01 0.0000000000000000e+00 1
-2.3967627813678063e-01 1.6803592590579303e-01 0.0000000000000000e+00 1
2.6622943482612166e-01 -1.7914454974067989e-01 0.0000000000000000e+00 1
2.6366315137705576e-01 -1.7847842107152698e-01 0.0000000000000000e+00 1
-2.6099908987986375e-01 1.8501746164591829e-01 0.0000000000000000e+00 1
2.3217365694532779e-01 -1.6136901241335105e-01 0.0000000000000000e+00 1
-2.5047444940635710e-01 1.7862683245424407e-01 0.0000000000000000e+00 1
5.7899091391063806e-02 -2.5571115410029700e-02 0.0000000000000000e+00 1
4.7681718499748768e-02 -2.9624102877385910e-02 0.0000000000000000e+00 1
3.9350765348398632e-02 -2.3609503626531497e-02 0.0000000000000000e+00 1
3.8630941326694257e-02 -3.3616959751818901e-02 0.0000000000000000e+00 1
4.6386399566179598e-02 -3.8982840213061344e-02 0.0000000000000000e+00 1
3.0645514700452001e-02 -2.8266362445213609e-02 0.0000000000000000e+00 1
3.0533524346603839e-02 -3.7134327702792569e-02 0.0000000000000000e+00 1
3.0907310414241239e-02 -1.8758340784903859e-02 0.0000000000000000e+00 1
2.2725587418409916e-02 -2.3857906228450652e-02 0.0000000000000000e+00 1
3.8085682861228334e-02 -4.2694204238056761e-02 0.0000000000000000e+00 1
4.5412567509889923e-02 -4.7602301047516511e-02 0.0000000000000000e+00 1
5.3560383237569675e-02 -4.4405623005243922e-02 0.0000000000000000e+00 1
5.1989685017371660e-02 -5.3246938735550461e-02 0.0000000000000000e+00 1
6.0356203793052468e-02 -4.9883068739226891e-02 0.0000000000000000e+00 1
4.4588543758687579e-02 -5.4958390589580970e-02 0.0000000000000000e+00 1
5.8886548100924446e-02 -5.8360446605246197e-02 0.0000000000000000e+00 1
6.7472769539989472e-02 -5.5100804501788649e-02 0.0000000000000000e+00 1
6.8664714186194881e-02 -4.6100705441355638e-02 0.0000000000000000e+00 1
3.0717801705395432e-02 -4.5049953827515900e-02 0.0000000000000000e+00 1
9.6136939601908639e-02 -5.3860027241686634e-02 0.0000000000000000e+00 1
8.5383012039020004e-02 -5.7995322316045352e-02 0.0000000000000000e+00 1
9.4483080355299925e-02 -6.4819315228127894e-02 0.0000000000000000e+00 1
1.0383661482111864e-01 -7.1526487559517793e-02 0.0000000000000000e+00 1
9.3465610118800904e-02 -7.6682146593535033e-02 0.0000000000000000e+00 1
7.6898966366270999e-02 -5.1338414698261239e-02 0.0000000000000000e+00 1
7.5015249826128810e-02 -6.0564826200836031e-02 0.0000000000000000e+00 1
8.2197032487351981e-02 -6.8822369677762507e-02 0.0000000000000000e+00 1
1.1413757007376502e-01 -6.7789916262534000e-02 0.0000000000000000e+00 1
1.1272048339155635e-01 -7.8383650226653390e-02 0.0000000000000000e+00 1
1.2095804777014825e-01 -8.3140979893257402e-02 0.0000000000000000e+00 1
2.3868415751688876e-01 -1.6455062166780826e-01 0.0000000000000000e+00 1
-1.7477321058049647e-01 1.1528242592597909e-01 0.0000000000000000e+00 1
-1.5590561959024432e-01 1.0044663288907969e-01 0.0000000000000000e+00 1
-1.9129534097186518e-01 1.3199350641485569e-01 0.0000000000000000e+00 1
2.3169955378813584e-02 -4.5178000751427985e-02 0.0000000000000000e+00 1
1.3126358489815584e-01 -8.2919139327881752e-02 0.0000000000000000e+00 1
1.3262424460376027e-01 -9.3423042149747351e-02 0.0000000000000000e+00 1
-1.0509418883008648e-01 6.0885633724177921e-02 0.0000000000000000e+00 1
-1.0293647158048293e-01 7.3097780142972218e-02 0.0000000000000000e+00 1
-9.3376547260348525e-02 6.5591299305409925e-02 0.0000000000000000e+00 1
-8.2692397247864396e-02 5.8014374907259095e-02 0.0000000000000000e+00 1
-8.4759366713271417e-02 4.4824071371100546e-02 0.0000000000000000e+00 1
-7.2337462160123642e-02 4.9097136057033489e-02 0.0000000000000000e+00 1
-6.3012809475779114e-02 4.0755026886758146e-02 0.0000000000000000e+00 1
2.6000212480334417e-01 -1.7727086951728785e-01 0.0000000000000000e+00 1
1.9204535089806192e-02 1.8716200779502127e-03 0.0000000000000000e+00 1
1.7002138960915712e-02 -9.3348441517096727e-03 0.0000000000000000e+00 1
8.8137602500087623e-03 -2.6214755651299266e-03 0.0000000000000000e+00 1
6.9767541904214563e-03 -1.2344698701230174e-02 0.0000000000000000e+00 1
-8.9633153786398848e-04 -6.8327032848559954e-03 0.0000000000000000e+00 1
-2.6063335611305742e-05 3.9846665723259345e-03 0.0000000000000000e+00 1
-1.0281430888830420e-02 -8.8641536742313227e-04 0.0000000000000000e+00 1
-2.6484204902001462e-01 1.8823630893515478e-01 0.0000000000000000e+00 1
1.9241425083883165e-01 -1.3915792165373089e-01 0.0000000000000000e+00 1
-1.3568028385178510e-01 8.4920292791137386e-02 0.0000000000000000e+00 1
-1.2558634433538665e-01 7.6893104421049477e-02 0.0000000000000000e+00 1
-1.2379064418041821e-01 8.9973461780174790e-02 0.0000000000000000e+00 1
-2.1815343405061349e-01 1.5115019571542287e-01 0.0000000000000000e+00 1
2.0868844012901461e-01 -1.3892484861874499e-01 0.0000000000000000e+00 1
2.3255609674676381e-02 -3.2487596572661009e-02 0.0000000000000000e+00 1
1.3849251049621612e-02 -2.8474718956365604e-02 0.0000000000000000e+00 1
-2.5597777910921282e-01 1.8218900975166835e-01 0.0000000000000000e+00 1
-2.1014575545422812e-01 1.4493977899020369e-01 0.0000000000000000e+00 1
-2.0071187070597524e-01 1.4957262991209644e-01 0.0000000000000000e+00 1
1.8388592363102746e-01 -1.1979332186179943e-01 0.0000000000000000e+00 1
1.7418270733431279e-01 -1.2327116996812168e-01 0.0000000000000000e+00 1
1.6611089302001125e-01 -1.1703797069836178e-01 0.0000000000000000e+00 1
-6.1880456515633113e-02 5.5544323013776535e-02 0.0000000000000000e+00 1
-4.9873495415556843e-02 3.7438604450471188e-02 0.0000000000000000e+00 1
-5.8557040125183528e-02 2.8362905733207336e-02 0.0000000000000000e+00 1
-4.7087698071056082e-02 2.5820425598203991e-02 0.0000000000000000e+00 1
-3.8518378842991155e-02 3.2748705673757796e-02 0.0000000000000000e+00 1
-3.6360819802536484e-02 2.1298486222590278e-02 0.0000000000000000e+00 1
-3.3143109699179697e-02 1.0272929140147918e-02 0.0000000000000000e+00 1
-2.4683118281218424e-02 1.8377034635403758e-02 0.0000000000000000e+00 1
-1.1642598802985047e-02 2.1114150363614123e-02 0.0000000000000000e+00 1
-1.6250746973327443e-02 9.3518942918183502e-03 0.0000000000000000e+00 1
7.7883943809866463e-02 -4.0242308225605788e-02 0.0000000000000000e+00 1
2.5085492093150358e-01 -1.7126243570002178e-01 0.0000000000000000e+00 1
-1.9481549277200159e-02 -8.7388598712279178e-03 0.0000000000000000e+00 1
1.9084281427584493e-01 -1.2763231412189255e-01 0.0000000000000000e+00 1
-3.2902460939931962e-03 -2.2609424765737008e-02 0.0000000000000000e+00 1
1.5055614641940876e-01 -9.4744159506593054e-02 0.0000000000000000e+00 1
1.4880319435654321e-01 -1.0488693320941692e-01 0.0000000000000000e+00 1
-2.3301298275883148e-01 1.6282930535624074e-01 0.0000000000000000e+00 1
3.9569468297981678e-02 -1.2249165455911690e-02 0.0000000000000000e+00 1
1.2772477186114478e-01 -1.0269250833354598e-01 0.0000000000000000e+00 1
1.6777456443372654e-01 -1.0724921996061605e-01 0.0000000000000000e+00 1
1.0636559928604297e-01 -9.2688987002356421e-02 0.0000000000000000e+00 1
7.3359079015877876e-02 -7.4794967048137095e-02 0.0000000000000000e+00 1
-8.0943438078569352e-02 7.0775276642092363e-02 0.0000000000000000e+00 1
-1.7388308702825395e-01 1.3372349189488408e-01 0.0000000000000000e+00 1
-1.0083289016728275e-01 8.4892243930912492e-02 0.0000000000000000e+00 1
-1.5565465726370753e-01 1.2226710709866850e-01 0.0000000000000000e+00 1
-1.3629415059001143e-01 1.0902722623991530e-01 0.0000000000000000e+00 1
5.5875014034664841e-02 -3.5200107389687110e-02 0.0000000000000000e+00 1
-1.9181234651214943e-01 1.4386562790467788e-01 0.0000000000000000e+00 1
-2.4573384770794363e-01 1.7315066729664527e-01 0.0000000000000000e+00 1
9.5290952974777157e-03 9.1872356819927056e-03 0.0000000000000000e+00 1
-2.1735733102506460e-01 1.6050083857243846e-01 0.0000000000000000e+00 1
2.2469829068216779e-01 -1.5789251493860806e-01 0.0000000000000000e+00 1
5.7771112765997903e-02 -6.6408222627320879e-02 0.0000000000000000e+00 1
1.4085921074341648e-01 -9.9073537737523379e-02 0.0000000000000000e+00 1
2.4506799405929713e-01 -1.6733868545733913e-01 0.0000000000000000e+00 1
2.0081597319864347e-01 -1.4451393674222823e-01 0.0000000000000000e+00 1
-2.6971839959735211e-01 1.9287993721377161e-01 0.0000000000000000e+00 1
-1.1432845997613673e-01 8.0683390665059820e-02 0.0000000000000000e+00 1
2.5646784962943359e-01 -1.7453373356880542e-01 0.0000000000000000e+00 1
-3.9490748814148179e-02 4.3756213282524187e-02 0.0000000000000000e+00 1
-2.2512832576973654e-01 1.6573724718289604e-01 0.0000000000000000e+00 1
8.8993203760965103e-02 -8.5123978652646815e-02 0.0000000000000000e+00 1
1.4743993677307032e-01 -1.1488309681717826e-01 0.0000000000000000e+00 1
3.8342053191627534e-02 -5.6570897553944482e-02 0.0000000000000000e+00 1
3.8788506741210316e-02 -4.9863602226275845e-02 0.0000000000000000e+00 1
-1.1742023193796386e-01 9.9238026700400800e-02 0.0000000000000000e+00 1
2.1654178236881161e-01 -1.4464677785330474e-01 0.0000000000000000e+00 1
1.4686132527252618e-02 -1.8294201960390097e-02 0.0000000000000000e+00 1
-5.4900560408375480e-02 1.8450478959519644e-02 0.0000000000000000e+00 1
-1.3512669004503672e-01 9.6158954628178861e-02 0.0000000000000000e+00 1
6.1095430745403384e-02 -4.1923039231333406e-02 0.0000000000000000e+00 1
9.6400708252626782e-03 -3.5177266300362428e-02 0.0000000000000000e+00 1
-2.3265460315226316e-01 1.7070213709852472e-01 0.0000000000000000e+00 1
1.5758730148050590e-01 -1.1094673343447593e-01 0.0000000000000000e+00 1
-2.6110445570883123e-01 1.8916882109544431e-01 0.0000000000000000e+00 1
-2.9035954557084395e-02 3.7464053573087457e-02 0.0000000000000000e+00 1
-1.4557121743496773e-01 1.0415994405996540e-01 0.0000000000000000e+00 1
-1.5556299561007478e-01 1.1157073559671839e-01 0.0000000000000000e+00 1
6.5790315826763979e-02 -6.2909182051951312e-02 0.0000000000000000e+00 1
2.1717270092938007e-01 -1.5338727118947815e-01 0.0000000000000000e+00 1
-1.6489090580057533e-01 1.1843777718156182e-01 0.0000000000000000e+00 1
1.0390920456494000e-01 -8.1330761013284236e-02 0.0000000000000000e+00 1
-2.6467669809999322e-01 1.9177928321495818e-01 0.0000000000000000e+00 1
1.6472070465799057e-01 -1.2624945368752355e-01 0.0000000000000000e+00 1
-1.9588089022104405e-02 8.0091255137126807e-04 0.0000000000000000e+00 1
2.7539565718842807e-02 -5.0011426311939111e-02 0.0000000000000000e+00 1
2.3120198859006771e-01 -1.5447413069744642e-01 0.0000000000000000e+00 1
-2.4886076049135848e-02 7.6213081816773748e-03 0.0000000000000000e+00 1
-2.3856902331496013e-01 1.7461334124172867e-01 0.0000000000000000e+00 1
-2.6991114422668211e-01 1.9471987882989811e-01 0.0000000000000000e+00 1
2.3002736618506846e-02 -1.5354162992540584e-02 0.0000000000000000e+00 1
-2.5633424021897866e-01 1.8636225991840985e-01 0.0000000000000000e+00 1
-6.8541839543550240e-02 2.9336526959865543e-02 0.0000000000000000e+00 1
5.8462210384510127e-03 -2.0939826892655156e-02 0.0000000000000000e+00 1
2.6860151679682298e-01 -1.8131828212887519e-01 0.0000000000000000e+00 1
-6.8618593624074613e-03 9.5963515847074885e-03 0.0000000000000000e+00 1
-1.7389565382857380e-01 1.2496806297269397e-01 0.0000000000000000e+00 1
-2.6768932084053554e-01 1.9375119042735872e-01 0.0000000000000000e+00 1
1.7336701527840401e-01 -1.3149619794186201e-01 0.0000000000000000e+00 1
-3.8840559838180820e-02 3.1987486316669535e-03 0.0000000000000000e+00 1
1.1402949902282344e-01 -8.7865063983237526e-02 0.0000000000000000e+00 1
1.2382839385620417e-01 -9.1392232322466738e-02 0.0000000000000000e+00 1
2.3771456858564358e-01 -1.5855173968876798e-01 0.0000000000000000e+00 1
-4.7229097021336781e-04 -1.5201478677587428e-02 0.0000000000000000e+00 1
7.2344131369832573e-02 -6.7484682062006890e-02 0.0000000000000000e+00 1
-2.7125726082327273e-01 1.9496674472510467e-01 0.0000000000000000e+00 1
2.6553628402225782e-01 -1.8063568082511966e-01 0.0000000000000000e+00 1
2.4357928586858219e-02 -3.8915858104855594e-02 0.0000000000000000e+00 1
1.8136966527798767e-01 -1.2716038825868109e-01 0.0000000000000000e+00 1
-2.9863547941357246e-02 2.8046388344200292e-02 0.0000000000000000e+00 1
4.3054828002276849e-02 -6.0824225039489560e-02 0.0000000000000000e+00 1
-1.8138356304647915e-01 1.3116993054260032e-01 0.0000000000000000e+00 1

Edges
143
1 2 1
2 3 1
3 4 1
4 5 1
5 6 1
6 7 1
7 8 1
8 9 1
9 10 1
10 11 1
11 12 1
12 13 1
13 14 1
14 15 1
15 16 1
16 17 1
17 18 1
18 19 1
19 20 1
20 21 1
21 22 1
22 23 1
23 24 1
24 25 1
25 26 1
26 27 1
27 28 1
28 29 1
29 30 1
30 31 1
31 32 1
32 33 1
33 34 1
34 35 1
35 36 1
36 37 1
37 38 1
38 39 1
39 40 1
40 41 1
41 42 1
42 43 1
43 44 1
44 45 1
45 46 1
46 47 1
47 48 1
48 49 1
49 50 1
50 51 1
51 52 1
52 53 1
53 54 1
54 55 1
55 56 1
56 57 1
57 58 1
58 59 1
59 60 1
60 61 1
61 62 1
62 63 1
63 64 1
64 65 1
65 66 1
66 67 1
67 68 1
68 69 1
69 70 1
70 71 1
71 72 1
72 73 1
73 74 1
74 75 1
75 76 1
76 77 1
77 78 1
78 79 1
79 80 1
80 81 1
81 82 1
82 83 1
83 84 1
84 85 1
85 86 1
86 87 1
87 88 1
88 89 1
89 90 1
90 91 1
91 92 1
92 93 1
93 94 1
94 95 1
95 96 1
96 97 1
97 98 1
98 99 1
99 100 1
100 101 1
101 102 1
102 103 1
103 104 1
104 105 1
105 106 1
106 107 1
107 108 1
108 109 1
109 110 1
110 111 1
111 112 1
112 113 1
113 114 1
114 115 1
115 116 1
116 117 1
117 118 1
118 119 1
119 120 1
120 121 1
121 122 1
122 123 1
123 124 1
124 125 1
125 126 1
126 127 1
127 128 1
128 129 1
129 130 1
130 131 1
131 132 1
132 133 1
133 134 1
134 135 1
135 136 1
136 137 1
137 138 1
138 139 1
139 140 1
140 141 1
141 142 1
142 143 1
143 1 1

Triangles
571
96 197 295 1
36 37 186 1
184 105 303 1
160 238 240 1
150 247 249 1
241 157 265 1
151 221 224 1
157 241 266 1
96 97 197 1
150 249 277 1
259 97 338 1
147 258 340 1
234 284 300 1
242 39 305 1
156 205 283 1
216 144 311 1
284 163 300 1
176 251 278 1
42 228 301 1
221 219 224 1
197 97 259 1
70 71 273 1
180 231 294 1
41 42 301 1
258 314 340 1
154 215 275 1
105 106 303 1
153 221 308 1
39 40 305 1
38 39 194 1
75 76 265 1
31 32 194 1
231 175 294 1
281 309 320 1
309 169 320 1
236 290 304 1
160 240 265 1
205 156 337 1
251 179 278 1
145 210 212 1
221 153 328 1
146 257 258 1
237 238 288 1
290 165 304 1
238 160 288 1
184 303 336 1
161 70 273 1
165 254 304 1
179 251 302 1
201 204 207 1
270 155 271 1
151 224 287 1
153 286 328 1
73 306 322 1
146 258 318 1
256 179 302 1
162 237 288 1
71 166 273 1
328 286 347 1
219 218 224 1
207 216 311 1
189 313 326 1
313 187 326 1
240 241 265 1
215 154 317 1
96 295 335 1
268 155 270 1
37 38 193 1
254 165 312 1
207 204 216 1
162 236 237 1
97 98 338 1
234 233 348 1
76 160 265 1
157 75 265 1
210 145 213 1
233 227 348 1
154 198 293 1
287 224 351 1
101 102 336 1
33 34 186 1
69 161 296 1
316 292 323 1
232 216 354 1
66 156 283 1
62 154 275 1
154 63 198 1
254 167 316 1
55 56 233 1
247 150 350 1
100 101 344 1
32 33 353 1
198 149 199 1
221 151 308 1
323 168 324 1
199 200 201 1
30 31 242 1
167 292 316 1
281 163 309 1
161 248 296 1
163 281 300 1
202 201 207 1
306 269 322 1
167 254 312 1
171 226 227 1
171 225 226 1
238 239 240 1
267 132 315 1
132 267 339 1
145 212 357 1
90 91 261 1
222 158 275 1
177 55 233 1
166 272 273 1
201 203 204 1
236 162 290 1
218 223 224 1
261 180 294 1
199 201 202 1
108 195 250 1
200 149 283 1
130 170 239 1
266 241 267 1
218 222 223 1
194 39 242 1
129 130 239 1
104 105 184 1
217 218 219 1
218 158 222 1
205 200 283 1
199 149 200 1
171 57 225 1
210 208 212 1
106 107 191 1
31 194 242 1
164 217 219 1
64 149 198 1
181 255 260 1
216 204 354 1
347 159 348 1
215 222 275 1
126 178 253 1
180 118 231 1
26 27 228 1
56 171 233 1
199 202 293 1
202 207 208 1
64 65 149 1
190 120 229 1
57 58 225 1
156 243 244 1
202 209 293 1
183 122 230 1
244 245 246 1
91 181 261 1
164 59 217 1
239 170 240 1
270 271 272 1
217 158 218 1
176 278 355 1
118 119 231 1
44 189 333 1
62 63 154 1
201 200 203 1
235 174 237 1
230 323 324 1
220 219 221 1
120 121 229 1
121 183 229 1
68 69 296 1
60 158 217 1
187 256 302 1
276 29 305 1
128 174 235 1
119 190 231 1
60 61 158 1
244 243 245 1
63 64 198 1
174 129 239 1
177 233 234 1
255 116 260 1
123 185 230 1
252 253 254 1
260 180 261 1
164 219 220 1
122 123 230 1
273 272 274 1
191 329 344 1
237 174 238 1
154 293 317 1
266 267 268 1
108 109 195 1
66 67 156 1
254 253 304 1
212 208 311 1
178 235 236 1
156 67 243 1
119 120 190 1
117 118 180 1
121 122 183 1
178 236 304 1
117 180 260 1
123 124 185 1
240 170 241 1
194 32 353 1
256 187 313 1
171 227 233 1
178 127 235 1
44 45 189 1
59 60 217 1
236 235 237 1
114 115 188 1
58 164 225 1
125 126 253 1
336 303 344 1
224 223 351 1
114 188 282 1
126 127 178 1
246 245 247 1
58 59 164 1
128 129 174 1
144 216 332 1
185 124 252 1
152 271 346 1
252 125 253 1
90 261 294 1
22 23 187 1
40 41 276 1
20 21 251 1
176 20 251 1
19 20 176 1
157 266 306 1
127 128 235 1
116 117 260 1
53 54 280 1
225 220 226 1
266 268 269 1
56 57 171 1
67 68 243 1
130 131 170 1
69 70 161 1
182 53 280 1
189 298 333 1
255 181 297 1
181 260 261 1
46 47 256 1
310 212 311 1
133 134 155 1
124 125 252 1
149 65 283 1
61 62 275 1
182 280 281 1
198 199 293 1
16 17 169 1
54 55 177 1
47 48 179 1
269 268 270 1
137 138 150 1
112 113 192 1
135 136 152 1
47 179 256 1
158 61 275 1
50 51 173 1
49 50 262 1
209 208 210 1
49 262 278 1
71 72 166 1
52 53 182 1
227 347 348 1
91 92 181 1
238 174 239 1
25 26 196 1
141 142 146 1
14 15 163 1
54 177 280 1
142 143 232 1
286 159 347 1
177 234 300 1
139 140 147 1
29 30 305 1
12 13 159 1
98 99 321 1
52 182 285 1
8 9 151 1
50 173 262 1
136 137 277 1
65 66 283 1
204 203 257 1
211 210 213 1
10 11 153 1
99 100 329 1
4 5 145 1
74 75 157 1
14 163 284 1
258 147 318 1
13 14 284 1
6 7 148 1
51 52 285 1
115 116 255 1
164 220 225 1
138 139 279 1
244 246 314 1
161 273 342 1
262 173 263 1
48 49 278 1
329 100 344 1
76 77 160 1
88 89 175 1
11 12 286 1
78 79 162 1
276 41 301 1
12 159 286 1
173 51 285 1
152 136 277 1
159 13 284 1
251 21 302 1
86 87 172 1
196 26 228 1
80 81 165 1
77 78 288 1
24 25 298 1
84 85 168 1
175 231 358 1
82 83 167 1
186 34 341 1
137 150 277 1
222 214 223 1
107 108 250 1
179 48 278 1
297 93 307 1
263 173 264 1
79 80 290 1
113 114 282 1
264 173 285 1
87 88 289 1
280 177 300 1
150 138 279 1
247 248 249 1
213 145 299 1
8 151 287 1
203 205 206 1
253 178 304 1
85 86 291 1
83 84 292 1
292 168 323 1
303 191 344 1
181 92 297 1
7 8 287 1
22 187 302 1
257 206 258 1
89 90 294 1
271 152 334 1
160 77 288 1
78 162 288 1
153 11 286 1
273 274 342 1
139 147 279 1
5 6 299 1
271 155 346 1
156 244 337 1
252 254 316 1
203 206 257 1
162 79 290 1
243 68 296 1
247 245 248 1
188 115 255 1
188 297 307 1
175 89 294 1
80 165 290 1
228 27 301 1
193 194 353 1
88 175 289 1
106 191 303 1
202 208 209 1
189 45 313 1
172 87 289 1
146 142 232 1
92 93 297 1
110 111 197 1
86 172 291 1
167 83 292 1
168 85 291 1
84 168 292 1
46 256 313 1
6 148 299 1
209 210 211 1
73 74 306 1
16 169 309 1
220 221 328 1
111 112 295 1
2 3 310 1
250 195 321 1
211 213 214 1
163 15 309 1
281 280 300 1
112 192 295 1
21 22 302 1
110 197 259 1
187 23 326 1
188 255 297 1
203 200 205 1
10 153 308 1
109 110 259 1
272 166 356 1
245 243 296 1
27 28 301 1
264 169 330 1
101 336 344 1
182 281 320 1
25 196 298 1
148 7 287 1
131 132 339 1
278 262 355 1
248 245 296 1
1 2 144 1
266 269 306 1
151 9 308 1
169 17 330 1
72 73 322 1
192 113 282 1
155 134 346 1
208 207 311 1
28 29 276 1
147 140 318 1
232 143 332 1
282 188 307 1
145 5 299 1
263 264 330 1
169 264 320 1
263 330 345 1
24 298 326 1
223 214 325 1
186 37 193 1
132 133 315 1
155 268 315 1
267 241 339 1
165 81 312 1
183 230 324 1
93 94 307 1
19 176 345 1
215 214 222 1
82 167 312 1
244 314 337 1
4 145 357 1
9 10 308 1
40 276 305 1
211 214 215 1
250 321 329 1
264 285 320 1
241 170 339 1
74 157 306 1
135 152 346 1
277 249 331 1
15 16 309 1
141 146 318 1
216 232 332 1
298 189 326 1
190 229 343 1
274 249 342 1
284 234 348 1
144 2 310 1
45 46 313 1
345 176 355 1
103 104 352 1
299 148 325 1
321 195 338 1
81 82 312 1
293 209 317 1
193 38 194 1
185 316 323 1
140 141 318 1
94 95 319 1
248 161 342 1
98 321 338 1
30 242 305 1
143 1 332 1
231 190 358 1
133 155 315 1
197 111 295 1
226 328 347 1
185 252 316 1
1 144 332 1
268 267 315 1
270 272 356 1
249 274 331 1
209 211 317 1
104 184 352 1
95 96 335 1
150 279 350 1
230 185 323 1
159 284 348 1
258 206 314 1
195 109 259 1
33 186 353 1
144 310 311 1
229 183 327 1
249 248 342 1
285 182 320 1
213 299 325 1
272 271 334 1
23 24 326 1
28 276 301 1
43 44 333 1
314 206 337 1
166 72 322 1
274 272 334 1
191 107 250 1
282 307 319 1
226 220 328 1
191 250 329 1
310 3 357 1
319 95 335 1
192 319 335 1
227 226 347 1
192 282 319 1
17 18 330 1
246 247 350 1
307 94 319 1
269 270 356 1
42 43 349 1
211 215 317 1
257 146 354 1
321 99 329 1
214 213 325 1
3 4 357 1
228 42 349 1
168 291 324 1
204 257 354 1
330 18 345 1
314 246 340 1
170 131 339 1
152 277 331 1
291 172 327 1
223 325 351 1
134 135 346 1
102 103 352 1
18 19 345 1
295 192 335 1
190 343 358 1
35 36 341 1
324 291 327 1
186 193 353 1
34 35 341 1
327 172 343 1
298 196 333 1
279 147 340 1
262 263 355 1
206 205 337 1
146 232 354 1
229 327 343 1
183 324 327 1
212 310 357 1
172 289 343 1
196 228 349 1
289 175 358 1
148 287 351 1
343 289 358 1
333 196 349 1
263 345 355 1
322 269 356 1
331 274 334 1
325 148 351 1
152 331 334 1
43 333 349 1
195 259 338 1
336 102 352 1
340 246 350 1
166 322 356 1
279 340 350 1
184 336 352 1
36 186 341 1

End
