MeshVersionFormatted 2
Dimension 3

Vertices
129
1.1906476234563573e-01 -2.2620191886309612e-01 0.0000000000000000e+00 1
1.2113493335935946e-01 -2.2995731927676855e-01 0.0000000000000000e+00 1
1.2258019965790992e-01 -2.3250776464044146e-01 0.0000000000000000e+00 1
1.2343186949851884e-01 -2.3391427512843199e-01 0.0000000000000000e+00 1
1.2372125113841811e-01 -2.3423787091505735e-01 0.0000000000000000e+00 1
1.2347965283483950e-01 -2.3353957217463467e-01 0.0000000000000000e+00 1
1.2273838284501465e-01 -2.3188039908148089e-01 0.0000000000000000e+00 1
1.2152874942617553e-01 -2.2932137180991344e-01 0.0000000000000000e+00 1
1.1988206083555383e-01 -2.2592351053424922e-01 0.0000000000000000e+00 1
1.1782962533038135e-01 -2.2174783542880547e-01 0.0000000000000000e+00 1
1.1540275116788995e-01 -2.1685536666789931e-01 0.0000000000000000e+00 1
1.1263274660531122e-01 -2.1130712442584773e-01 0.0000000000000000e+00 1
1.0955091989987717e-01 -2.0516412887696808e-01 0.0000000000000000e+00 1
1.0618857930881945e-01 -1.9848740019557734e-01 0.0000000000000000e+00 1
1.0257703308936986e-01 -1.9133795855599270e-01 0.0000000000000000e+00 1
9.8747589498760224e-02 -1.8377682413253127e-01 0.0000000000000000e+00 1
9.4731556794222321e-02 -1.7586501709951019e-01 0.0000000000000000e+00 1
9.0560243232987919e-02 -1.6766355763124660e-01 0.0000000000000000e+00 1
8.6264957072288817e-02 -1.5923346590205759e-01 0.0000000000000000e+00 1
8.1877006569356758e-02 -1.5063576208626037e-01 0.0000000000000000e+00 1
7.7427699981423598e-02 -1.4193146635817194e-01 0.0000000000000000e+00 1
7.2948345565721079e-02 -1.3318159889210954e-01 0.0000000000000000e+00 1
6.8470251579480945e-02 -1.2444717986239025e-01 0.0000000000000000e+00 1
6.4024726279935093e-02 -1.1578922944333124e-01 0.0000000000000000e+00 1
5.9643077924315217e-02 -1.0726876780924960e-01 0.0000000000000000e+00 1
5.5356614769853145e-02 -9.8946815134462518e-02 0.0000000000000000e+00 1
5.1196645073780633e-02 -9.0884391593287053e-02 0.0000000000000000e+00 1
4.7194477093329468e-02 -8.3142517360040330e-02 0.0000000000000000e+00 1
4.3381419085731468e-02 -7.5782212609039570e-02 0.0000000000000000e+00 1
3.9788779308218392e-02 -6.8864497514601830e-02 0.0000000000000000e+00 1
3.6447866018022024e-02 -6.2450392251044234e-02 0.0000000000000000e+00 1
3.3389987472374164e-02 -5.6600916992683957e-02 0.0000000000000000e+00 1
3.0646451928506589e-02 -5.1377091913838109e-02 0.0000000000000000e+00 1
2.8248567643651086e-02 -4.6839937188823816e-02 0.0000000000000000e+00 1
2.5295887800883151e-02 -4.1284641016769673e-02 0.0000000000000000e+00 1
2.1982654540789730e-02 -3.5067581013857277e-02 0.0000000000000000e+00 1
1.8333932988948802e-02 -2.8235366977829718e-02 0.0000000000000000e+00 1
1.4374788270938374e-02 -2.0834608706430092e-02 0.0000000000000000e+00 1
1.0130285512336424e-02 -1.2911915997401484e-02 0.0000000000000000e+00 1
5.6254898387209469e-03 -4.5138986484869834e-03 0.0000000000000000e+00 1
8.8546637566993755e-04 4.3128335425703015e-03 0.0000000000000000e+00 1
-4.0647197512386161e-03 1.3521670778027286e-02 0.0000000000000000e+00 1
-9.2000034164267212e-03 2.3066003260140869e-02 0.0000000000000000e+00 1
-1.4495319494316379e-02 3.2899221191167963e-02 0.0000000000000000e+00 1
-1.9925602859329618e-02 4.2974714773365494e-02 0.0000000000000000e+00 1
-2.5465788385888428e-02 5.3245874208990324e-02 0.0000000000000000e+00 1
-3.1090810948414808e-02 6.3666089700299383e-02 0.0000000000000000e+00 1
-3.6775605421330806e-02 7.4188751449549589e-02 0.0000000000000000e+00 1
-4.2495106679058391e-02 8.4767249658997831e-02 0.0000000000000000e+00 1
-4.8224249596019592e-02 9.5354974530901027e-02 0.0000000000000000e+00 1
-5.3937969046636426e-02 1.0590531626751608e-01 0.0000000000000000e+00 1
-5.9611199905330862e-02 1.1637166507109989e-01 0.0000000000000000e+00 1
-6.5218877046524959e-02 1.2670741114390935e-01 0.0000000000000000e+00 1
-7.0735935344640649e-02 1.3686594468820137e-01 0.0000000000000000e+00 1
-7.6137309674100068e-02 1.4680065590623292e-01 0.0000000000000000e+00 1
-8.1397934909325120e-02 1.5646493500026085e-01 0.0000000000000000e+00 1
-8.6492745924737824e-02 1.6581217217254204e-01 0.0000000000000000e+00 1
-9.1396677594760223e-02 1.7479575762533345e-01 0.0000000000000000e+00 1
-9.6084664793814306e-02 1.8336908156089196e-01 0.0000000000000000e+00 1
-1.0053164239632206e-01 1.9148553418147446e-01 0.0000000000000000e+00 1
-1.0471254527670554e-01 1.9909850568933787e-01 0.0000000000000000e+00 1
-1.0860230830938675e-01 2.0616138628673916e-01 0.0000000000000000e+00 1
-1.1217586636878765e-01 2.1262756617593517e-01 0.0000000000000000e+00 1
-1.1540815432933030e-01 2.1845043555918278e-01 0.0000000000000000e+00 1
-1.1827410706543667e-01 2.2358338463873892e-01 0.0000000000000000e+00 1
-1.2074865945152879e-01 2.2797980361686054e-01 0.0000000000000000e+00 1
-1.2280674636202871e-01 2.3159308269580450e-01 0.0000000000000000e+00 1
-1.2442330267135834e-01 2.3437661207782776e-01 0.0000000000000000e+00 1
-1.2557326325393975e-01 2.3628378196518715e-01 0.0000000000000000e+00 1
-1.2623156298419497e-01 2.3726798256013967e-01 0.0000000000000000e+00 1
-1.2637313673654596e-01 2.3728260406494209e-01 0.0000000000000000e+00 1
-1.2597291938541474e-01 2.3628103668185144e-01 0.0000000000000000e+00 1
-1.2500584580522334e-01 2.3421667061312454e-01 0.0000000000000000e+00 1
-1.2344685087039375e-01 2.3104289606101841e-01 0.0000000000000000e+00 1
-1.2127086945534798e-01 2.2671310322778984e-01 0.0000000000000000e+00 1
-1.1803467162052511e-01 2.2033431500759382e-01 0.0000000000000000e+00 1
-1.1467236827380090e-01 2.1373149165466526e-01 0.0000000000000000e+00 1
-1.1118843974680867e-01 2.0691290949302399e-01 0.0000000000000000e+00 1
-1.0758736637118194e-01 1.9988684484668953e-01 0.0000000000000000e+00 1
-1.0387362847855408e-01 1.9266157403968162e-01 0.0000000000000000e+00 1
-1.0005170640055858e-01 1.8524537339601993e-01 0.0000000000000000e+00 1
-9.6126080468828812e-02 1.7764651923972422e-01 0.0000000000000000e+00 1
-9.2101231014998203e-02 1.6987328789481393e-01 0.0000000000000000e+00 1
-8.7981638370700249e-02 1.6193395568530894e-01 0.0000000000000000e+00 1
-8.3771782867568340e-02 1.5383679893522889e-01 0.0000000000000000e+00 1
-7.9476144837235890e-02 1.4559009396859338e-01 0.0000000000000000e+00 1
-7.5099204611336373e-02 1.3720211710942215e-01 0.0000000000000000e+00 1
-7.0645442521503177e-02 1.2868114468173480e-01 0.0000000000000000e+00 1
-6.6119338899369801e-02 1.2003545300955107e-01 0.0000000000000000e+00 1
-6.1525374076569585e-02 1.1127331841689064e-01 0.0000000000000000e+00 1
-5.6868028384736001e-02 1.0240301722777315e-01 0.0000000000000000e+00 1
-5.2151782155502500e-02 9.3432825766218253e-02 0.0000000000000000e+00 1
-4.7381115720502492e-02 8.4371020356245649e-02 0.0000000000000000e+00 1
-4.2560509411369414e-02 7.5225877321875051e-02 0.0000000000000000e+00 1
-3.7694443559736689e-02 6.6005672987126049e-02 0.0000000000000000e+00 1
-3.2787398497237767e-02 5.6718683676018344e-02 0.0000000000000000e+00 1
-2.7843854555506052e-02 4.7373185712571653e-02 0.0000000000000000e+00 1
-2.2868292066175001e-02 3.7977455420805592e-02 0.0000000000000000e+00 1
-1.7865191360877997e-02 2.8539769124739801e-02 0.0000000000000000e+00 1
-1.2839032771248537e-02 1.9068403148394079e-02 0.0000000000000000e+00 1
-7.7942966289200333e-03 9.5716338157880530e-03 0.0000000000000000e+00 1
-2.7354632655258795e-03 5.7737450941305543e-05 0.0000000000000000e+00 1
2.3329869873004450e-03 -9.4650096221263868e-03 0.0000000000000000e+00 1
7.4065737979255412e-03 -1.8988331079395404e-02 0.0000000000000000e+00 1
1.2480816834715955e-02 -2.8503950596846024e-02 0.0000000000000000e+00 1
1.7551235766038280e-02 -3.8003591850458658e-02 0.0000000000000000e+00 1
2.2613350260259072e-02 -4.7478978516213556e-02 0.0000000000000000e+00 1
2.7662679985744908e-02 -5.6921834270091093e-02 0.0000000000000000e+00 1
3.2694744610862345e-02 -6.6323882788071553e-02 0.0000000000000000e+00 1
3.7705063803977951e-02 -7.5676847746135326e-02 0.0000000000000000e+00 1
4.2689157233458307e-02 -8.4972452820262667e-02 0.0000000000000000e+00 1
4.7642544567669982e-02 -9.4202421686433946e-02 0.0000000000000000e+00 1
5.2560745474979541e-02 -1.0335847802062950e-01 0.0000000000000000e+00 1
5.7439279623753552e-02 -1.1243234549882961e-01 0.0000000000000000e+00 1
6.2273666682358571e-02 -1.2141574779701464e-01 0.0000000000000000e+00 1
6.7059426319161203e-02 -1.3030040859116493e-01 0.0000000000000000e+00 1
7.1792078202527976e-02 -1.3907805155726077e-01 0.0000000000000000e+00 1
7.6467142000825467e-02 -1.4774040037128253e-01 0.0000000000000000e+00 1
8.1080137382420259e-02 -1.5627917870921046e-01 0.0000000000000000e+00 1
8.5626584015678936e-02 -1.6468611024702498e-01 0.0000000000000000e+00 1
9.0102001568968026e-02 -1.7295291866070636e-01 0.0000000000000000e+00 1
9.4501909710654142e-02 -1.8107132762623493e-01 0.0000000000000000e+00 1
9.8821828109103838e-02 -1.8903306081959112e-01 0.0000000000000000e+00 1
1.0305727643268367e-01 -1.9682984191675507e-01 0.0000000000000000e+00 1
1.0720377434976019e-01 -2.0445339459370723e-01 0.0000000000000000e+00 1
1.1125684152870000e-01 -2.1189544252642792e-01 0.0000000000000000e+00 1
1.1521199763786966e-01 -2.1914770939089745e-01 0.0000000000000000e+00 1
1.7587160032623190e-02 -3.2452622609747912e-02 0.0000000000000000e+00 1
2.1860782091992555e-02 -4.0458698099324786e-02 0.0000000000000000e+00 1

Edges
127
1 2 1
2 3 1
3 4 1
4 5 1
5 6 1
6 7 1
7 8 1
8 9 1
9 10 1
10 11 1
11 12 1
12 13 1
13 14 1
14 15 1
15 16 1
16 17 1
17 18 1
18 19 1
19 20 1
20 21 1
21 22 1
22 23 1
23 24 1
24 25 1
25 26 1
26 27 1
27 28 1
28 29 1
29 30 1
30 31 1
31 32 1
32 33 1
33 34 1
34 35 1
35 36 1
36 37 1
37 38 1
38 39 1
39 40 1
40 41 1
41 42 1
42 43 1
43 44 1
44 45 1
45 46 1
46 47 1
47 48 1
48 49 1
49 50 1
50 51 1
51 52 1
52 53 1
53 54 1
54 55 1
55 56 1
56 57 1
57 58 1
58 59 1
59 60 1
60 61 1
61 62 1
62 63 1
63 64 1
64 65 1
65 66 1
66 67 1
67 68 1
68 69 1
69 70 1
70 71 1
71 72 1
72 73 1
73 74 1
74 75 1
75 76 1
76 77 1
77 78 1
78 79 1
79 80 1
80 81 1
81 82 1
82 83 1
83 84 1
84 85 1
85 86 1
86 87 1
87 88 1
88 89 1
89 90 1
90 91 1
91 92 1
92 93 1
93 94 1
94 95 1
95 96 1
96 97 1
97 98 1
98 99 1
99 100 1
100 101 1
101 102 1
102 103 1
103 104 1
104 105 1
105 106 1
106 107 1
107 108 1
108 109 1
109 110 1
110 111 1
111 112 1
112 113 1
113 114 1
114 115 1
115 116 1
116 117 1
117 118 1
118 119 1
119 120 1
120 121 1
121 122 1
122 123 1
123 124 1
124 125 1
125 126 1
126 127 1
127 1 1

Triangles
129
107 35 129 1
9 10 1 1
38 105 37 1
5 6 4 1
39 104 38 1
31 109 30 1
35 36 129 1
30 110 29 1
70 72 69 1
35 107 34 1
33 108 32 1
37 105 128 1
106 36 128 1
36 106 129 1
2 8 1 1
10 127 1 1
3 7 2 1
4 6 3 1
6 7 3 1
11 127 10 1
126 127 11 1
14 125 13 1
125 126 13 1
15 124 14 1
124 125 14 1
16 123 15 1
123 124 15 1
122 123 16 1
109 110 30 1
36 37 128 1
104 105 38 1
59 82 58 1
60 81 59 1
64 77 63 1
77 78 63 1
65 76 64 1
76 77 64 1
75 76 65 1
74 75 66 1
68 74 67 1
73 74 68 1
72 73 69 1
71 72 70 1
105 106 128 1
106 107 129 1
8 9 1 1
7 8 2 1
12 126 11 1
13 126 12 1
17 122 16 1
18 121 17 1
121 122 17 1
19 120 18 1
120 121 18 1
20 119 19 1
119 120 19 1
21 118 20 1
118 119 20 1
22 117 21 1
117 118 21 1
23 116 22 1
116 117 22 1
24 115 23 1
115 116 23 1
25 114 24 1
114 115 24 1
26 113 25 1
113 114 25 1
27 112 26 1
112 113 26 1
28 111 27 1
111 112 27 1
29 111 28 1
110 111 29 1
32 109 31 1
108 109 32 1
34 107 33 1
107 108 33 1
40 103 39 1
103 104 39 1
41 102 40 1
102 103 40 1
42 101 41 1
101 102 41 1
43 100 42 1
100 101 42 1
44 99 43 1
99 100 43 1
45 98 44 1
98 99 44 1
46 97 45 1
97 98 45 1
47 96 46 1
96 97 46 1
48 95 47 1
95 96 47 1
49 94 48 1
94 95 48 1
50 93 49 1
93 94 49 1
51 91 50 1
91 92 50 1
92 93 50 1
52 90 51 1
90 91 51 1
53 89 52 1
89 90 52 1
54 88 53 1
88 89 53 1
55 87 54 1
87 88 54 1
56 85 55 1
85 86 55 1
86 87 55 1
57 84 56 1
84 85 56 1
58 83 57 1
83 84 57 1
82 83 58 1
81 82 59 1
61 80 60 1
80 81 60 1
62 79 61 1
79 80 61 1
63 78 62 1
78 79 62 1
66 75 65 1
67 74 66 1
69 73 68 1

End
