MeshVersionFormatted 2
Dimension 3

Vertices
749
2.0749511575974261e-01 -1.4596742831855669e-01 0.0000000000000000e+00 1
2.1264366787028682e-01 -1.4605897725295286e-01 0.0000000000000000e+00 1
2.1678406762192759e-01 -1.4544541620315896e-01 0.0000000000000000e+00 1
2.1995537552775299e-01 -1.4415916700191173e-01 0.0000000000000000e+00 1
2.2219665210085135e-01 -1.4223265148194819e-01 0.0000000000000000e+00 1
2.2354695785431053e-01 -1.3969829147600513e-01 0.0000000000000000e+00 1
2.2404535330121872e-01 -1.3658850881681933e-01 0.0000000000000000e+00 1
2.2373089895466411e-01 -1.3293572533712777e-01 0.0000000000000000e+00 1
2.2264265532773478e-01 -1.2877236286966734e-01 0.0000000000000000e+00 1
2.2081968293351883e-01 -1.2413084324717485e-01 0.0000000000000000e+00 1
2.1830104228510439e-01 -1.1904358830238718e-01 0.0000000000000000e+00 1
2.1512579389557954e-01 -1.1354301986804116e-01 0.0000000000000000e+00 1
2.1133299827803245e-01 -1.0766155977687376e-01 0.0000000000000000e+00 1
2.0696171594555121e-01 -1.0143162986162176e-01 0.0000000000000000e+00 1
2.0205100741122395e-01 -9.4885651955022091e-02 0.0000000000000000e+00 1
1.9663993318813880e-01 -8.8056047889811626e-02 0.0000000000000000e+00 1
1.9076755378938387e-01 -8.0975239498727189e-02 0.0000000000000000e+00 1
1.8447292972804721e-01 -7.3675648614505623e-02 0.0000000000000000e+00 1
1.7779512151721708e-01 -6.6189697069883882e-02 0.0000000000000000e+00 1
1.7077318966998145e-01 -5.8549806697598794e-02 0.0000000000000000e+00 1
1.6344619469942845e-01 -5.0788399330387202e-02 0.0000000000000000e+00 1
1.5585319711864629e-01 -4.2937896800986031e-02 0.0000000000000000e+00 1
1.4803325744072304e-01 -3.5030720942132110e-02 0.0000000000000000e+00 1
1.4002543617874680e-01 -2.7099293586562326e-02 0.0000000000000000e+00 1
1.3186879384580572e-01 -1.9176036567013551e-02 0.0000000000000000e+00 1
1.2360239095498793e-01 -1.1293371716222678e-02 0.0000000000000000e+00 1
1.1526528801938149e-01 -3.4837208669265089e-03 0.0000000000000000e+00 1
1.0689654555207451e-01 4.2204941481380348e-03 0.0000000000000000e+00 1
9.8535224066155183e-02 1.1786851496234090e-02 0.0000000000000000e+00 1
9.0220384074711571e-02 1.9182929344624802e-02 0.0000000000000000e+00 1
8.1991086090831847e-02 2.6376305860573244e-02 0.0000000000000000e+00 1
7.3886390627604034e-02 3.3334559211342638e-02 0.0000000000000000e+00 1
6.5945358198116297e-02 4.0025267564196068e-02 0.0000000000000000e+00 1
5.8207049315456755e-02 4.6416009086396648e-02 0.0000000000000000e+00 1
5.0710524492713537e-02 5.2474361945207548e-02 0.0000000000000000e+00 1
4.3494844242974784e-02 5.8167904307891830e-02 0.0000000000000000e+00 1
3.6599069079328535e-02 6.3464214341712705e-02 0.0000000000000000e+00 1
3.0062259514862952e-02 6.8330870213933262e-02 0.0000000000000000e+00 1
2.3923476062666153e-02 7.2735450091816631e-02 0.0000000000000000e+00 1
1.8221779235826248e-02 7.6645532142625955e-02 0.0000000000000000e+00 1
1.2996229547431383e-02 8.0028694533624350e-02 0.0000000000000000e+00 1
8.2858875105696270e-03 8.2852515432074947e-02 0.0000000000000000e+00 1
3.9572497467114005e-03 8.5109151301914585e-02 0.0000000000000000e+00 1
-1.1376604651914812e-03 8.7390607459151962e-02 0.0000000000000000e+00 1
-6.9422975550572207e-03 8.9685956857153359e-02 0.0000000000000000e+00 1
-1.3400115952804020e-02 9.1984272449285032e-02 0.0000000000000000e+00 1
-2.0454570088350089e-02 9.4274627188913260e-02 0.0000000000000000e+00 1
-2.8049114391613617e-02 9.6546094029404256e-02 0.0000000000000000e+00 1
-3.6127203292512809e-02 9.8787745924124287e-02 0.0000000000000000e+00 1
-4.4632291220965882e-02 1.0098865582643968e-01 0.0000000000000000e+00 1
-5.3507832606891036e-02 1.0313789668971661e-01 0.0000000000000000e+00 1
-6.2697281880206457e-02 1.0522454146732139e-01 0.0000000000000000e+00 1
-7.2144093470830353e-02 1.0723766311262027e-01 0.0000000000000000e+00 1
-8.1791721808680939e-02 1.0916633457897952e-01 0.0000000000000000e+00 1
-9.1583621323676423e-02 1.1099962881976536e-01 0.0000000000000000e+00 1
-1.0146324644573496e-01 1.1272661878834411e-01 0.0000000000000000e+00 1
-1.1137405160477482e-01 1.1433637743808199e-01 0.0000000000000000e+00 1
-1.2125949123071418e-01 1.1581797772234528e-01 0.0000000000000000e+00 1
-1.3106301975347123e-01 1.1716049259450022e-01 0.0000000000000000e+00 1
-1.4072809160296418e-01 1.1835299500791308e-01 0.0000000000000000e+00 1
-1.5019816120911120e-01 1.1938455791595012e-01 0.0000000000000000e+00 1
-1.5941668300183059e-01 1.2024425427197762e-01 0.0000000000000000e+00 1
-1.6832711141104040e-01 1.2092115702936181e-01 0.0000000000000000e+00 1
-1.7687290086665902e-01 1.2140433914146899e-01 0.0000000000000000e+00 1
-1.8499750579860447e-01 1.2168287356166536e-01 0.0000000000000000e+00 1
-1.9264438063679509e-01 1.2174583324331725e-01 0.0000000000000000e+00 1
-1.9975697981114901e-01 1.2158229113979087e-01 0.0000000000000000e+00 1
-2.0627875775158450e-01 1.2118132020445253e-01 0.0000000000000000e+00 1
-2.1215316888801966e-01 1.2053199339066843e-01 0.0000000000000000e+00 1
-2.1732366765037270e-01 1.1962338365180487e-01 0.0000000000000000e+00 1
-2.2173370846856194e-01 1.1844456394122808e-01 0.0000000000000000e+00 1
-2.2532674577250550e-01 1.1698460721230437e-01 0.0000000000000000e+00 1
-2.2804623399212162e-01 1.1523258641839998e-01 0.0000000000000000e+00 1
-2.2983562755732845e-01 1.1317757451288113e-01 0.0000000000000000e+00 1
-2.3063838089804425e-01 1.1080864444911415e-01 0.0000000000000000e+00 1
-2.3039794844418718e-01 1.0811486918046524e-01 0.0000000000000000e+00 1
-2.2905778462567544e-01 1.0508532166030068e-01 0.0000000000000000e+00 1
-2.2656134387242727e-01 1.0170907484198677e-01 0.0000000000000000e+00 1
-2.2194690815175919e-01 9.6530547934468885e-02 0.0000000000000000e+00 1
-2.1702418851807700e-01 9.1239023487628163e-02 0.0000000000000000e+00 1
-2.1180323038526686e-01 8.5842291821285499e-02 0.0000000000000000e+00 1
-2.0629407916721490e-01 8.0348143255261836e-02 0.0000000000000000e+00 1
-2.0050678027780716e-01 7.4764368109378074e-02 0.0000000000000000e+00 1
-1.9445137913092997e-01 6.9098756703455139e-02 0.0000000000000000e+00 1
-1.8813792114046926e-01 6.3359099357313931e-02 0.0000000000000000e+00 1
-1.8157645172031131e-01 5.7553186390775377e-02 0.0000000000000000e+00 1
-1.7477701628434220e-01 5.1688808123660404e-02 0.0000000000000000e+00 1
-1.6774966024644811e-01 4.5773754875789927e-02 0.0000000000000000e+00 1
-1.6050442902051509e-01 3.9815816966984836e-02 0.0000000000000000e+00 1
-1.5305136802042943e-01 3.3822784717066068e-02 0.0000000000000000e+00 1
-1.4540052266007711e-01 2.7802448445854527e-02 0.0000000000000000e+00 1
-1.3756193835334435e-01 2.1762598473171139e-02 0.0000000000000000e+00 1
-1.2954566051411731e-01 1.5711025118836833e-02 0.0000000000000000e+00 1
-1.2136173455628210e-01 9.6555187026724949e-03 0.0000000000000000e+00 1
-1.1302020589372486e-01 3.6038695444990630e-03 0.0000000000000000e+00 1
-1.0453111994033169e-01 -2.4361320358625600e-03 0.0000000000000000e+00 1
-9.5904522109988816e-02 -8.4566957185914400e-03 0.0000000000000000e+00 1
-8.7150457816582289e-02 -1.4450031183866677e-02 0.0000000000000000e+00 1
-7.8278972473998287e-02 -2.0408348111867359e-02 0.0000000000000000e+00 1
-6.9300111496122946e-02 -2.6323856182772543e-02 0.0000000000000000e+00 1
-6.0223920296842419e-02 -3.2188765076761341e-02 0.0000000000000000e+00 1
-5.1060444290042771e-02 -3.7995284474012847e-02 0.0000000000000000e+00 1
-4.1819728889610254e-02 -4.3735624054706088e-02 0.0000000000000000e+00 1
-3.2511819509430960e-02 -4.9401993499020205e-02 0.0000000000000000e+00 1
-2.3146761563391002e-02 -5.4986602487134245e-02 0.0000000000000000e+00 1
-1.3734600465376570e-02 -6.0481660699227321e-02 0.0000000000000000e+00 1
-4.2853816292737481e-03 -6.5879377815478507e-02 0.0000000000000000e+00 1
5.1908495310312866e-03 -7.1171963516066861e-02 0.0000000000000000e+00 1
1.4684047601652428e-02 -7.6351627481171497e-02 0.0000000000000000e+00 1
2.4184167168703502e-02 -8.1410579390971516e-02 0.0000000000000000e+00 1
3.3681162818298416e-02 -8.6341028925645963e-02 0.0000000000000000e+00 1
4.3164989136550945e-02 -9.1135185765373911e-02 0.0000000000000000e+00 1
5.2625600709575060e-02 -9.5785259590334515e-02 0.0000000000000000e+00 1
6.2052952123484530e-02 -1.0028346008070677e-01 0.0000000000000000e+00 1
7.1436997964393290e-02 -1.0462199691666982e-01 0.0000000000000000e+00 1
8.0767692818415171e-02 -1.0879307977840272e-01 0.0000000000000000e+00 1
9.0034991271664006e-02 -1.1278891834608459e-01 0.0000000000000000e+00 1
9.9228847910253673e-02 -1.1660172229989446e-01 0.0000000000000000e+00 1
1.0833921732029804e-01 -1.2022370132001148e-01 0.0000000000000000e+00 1
1.1735605408791097e-01 -1.2364706508661463e-01 0.0000000000000000e+00 1
1.2626931279920636e-01 -1.2686402327988311e-01 0.0000000000000000e+00 1
1.3506894804029798e-01 -1.2986678557999592e-01 0.0000000000000000e+00 1
1.4374491439729978e-01 -1.3264756166713224e-01 0.0000000000000000e+00 1
1.5228716645632556e-01 -1.3519856122147106e-01 0.0000000000000000e+00 1
1.6068565880348923e-01 -1.3751199392319147e-01 0.0000000000000000e+00 1
1.6893034602490464e-01 -1.3958006945247262e-01 0.0000000000000000e+00 1
1.7701118270668562e-01 -1.4139499748949352e-01 0.0000000000000000e+00 1
1.8491812343494601e-01 -1.4294898771443332e-01 0.0000000000000000e+00 1
1.9264112279579979e-01 -1.4423424980747104e-01 0.0000000000000000e+00 1
2.0017013537536066e-01 -1.4524299344878580e-01 0.0000000000000000e+00 1
4.3719966986618276e-03 7.9926133728704371e-02 0.0000000000000000e+00 1
2.3340411733411004e-02 6.5442632244625210e-02 0.0000000000000000e+00 1
-1.8835163003320197e-02 8.7552345225039865e-02 0.0000000000000000e+00 1
-5.9568289560131965e-02 -2.1737533931481832e-02 0.0000000000000000e+00 1
-2.2239690430480408e-02 -4.2746556429222135e-02 0.0000000000000000e+00 1
-5.1089871174409746e-02 9.4941529938799119e-02 0.0000000000000000e+00 1
4.9287926877179117e-02 4.3879717821434801e-02 0.0000000000000000e+00 1
1.4034972048609620e-02 -6.5960975343971051e-02 0.0000000000000000e+00 1
-9.4935790564243228e-02 1.9502781380185362e-03 0.0000000000000000e+00 1
7.2041191506513322e-02 2.4190694703666315e-02 0.0000000000000000e+00 1
-8.7976332430238641e-02 1.0140107729741282e-01 0.0000000000000000e+00 1
5.2765353202176263e-02 -8.5796727971623937e-02 0.0000000000000000e+00 1
9.6229771524532229e-02 8.5555419697091063e-04 0.0000000000000000e+00 1
7.9561543488236589e-02 -9.9297304020373831e-02 0.0000000000000000e+00 1
-1.2022227197118514e-01 1.9976159602762413e-02 0.0000000000000000e+00 1
-1.4369604663956020e-01 3.5871320770460659e-02 0.0000000000000000e+00 1
1.0694408599065770e-01 -1.1077569143779355e-01 0.0000000000000000e+00 1
1.2110016846230733e-01 -2.3309639278292382e-02 0.0000000000000000e+00 1
-1.6549062568254849e-01 5.4439512116169410e-02 0.0000000000000000e+00 1
1.3459370463290804e-01 -1.2115417578222987e-01 0.0000000000000000e+00 1
-1.1700882779684441e-01 1.0651438048296552e-01 0.0000000000000000e+00 1
1.4428591178494907e-01 -4.4958361192413233e-02 0.0000000000000000e+00 1
1.5771467400802200e-01 -1.2877192573619028e-01 0.0000000000000000e+00 1
-1.6386865534718226e-01 1.1302147270944433e-01 0.0000000000000000e+00 1
1.6775329230298797e-01 -6.8341570253628914e-02 0.0000000000000000e+00 1
1.9907572459095715e-01 -1.0223749395621128e-01 0.0000000000000000e+00 1
-1.9864331138230595e-01 8.2486766845067130e-02 0.0000000000000000e+00 1
2.1963437001390881e-01 -1.3193822702323604e-01 0.0000000000000000e+00 1
2.1265694413919389e-01 -1.1862746319556659e-01 0.0000000000000000e+00 1
-2.0288082042393832e-01 1.1634297756069140e-01 0.0000000000000000e+00 1
1.8172931380147928e-01 -1.3475950799130640e-01 0.0000000000000000e+00 1
-2.1858457032380801e-01 1.1550196825395817e-01 0.0000000000000000e+00 1
3.5368387073412701e-02 5.5345503520322255e-02 0.0000000000000000e+00 1
-3.3678562486140734e-02 9.1056768312041056e-02 0.0000000000000000e+00 1
-6.9142844015545435e-02 9.8149679832552211e-02 0.0000000000000000e+00 1
1.8773345783975506e-01 -8.9467025021583907e-02 0.0000000000000000e+00 1
-1.4662576920095907e-01 1.1103719587339579e-01 0.0000000000000000e+00 1
-1.8689467787461012e-01 7.1559445612848119e-02 0.0000000000000000e+00 1
-4.1727215587516700e-02 -3.2929803449034518e-02 0.0000000000000000e+00 1
-7.8841026421180294e-02 -9.0670705706166650e-03 0.0000000000000000e+00 1
-1.8846923896625575e-01 1.1500144370711365e-01 0.0000000000000000e+00 1
-4.3799528342340849e-03 -5.5504650182982139e-02 0.0000000000000000e+00 1
3.2279275126042922e-02 -7.4960589718449322e-02 0.0000000000000000e+00 1
-2.2743600748173659e-01 1.1219280448935211e-01 0.0000000000000000e+00 1
1.2337380899513329e-02 7.4549969835376040e-02 0.0000000000000000e+00 1
-5.9227824755955843e-03 8.3776919535922617e-02 0.0000000000000000e+00 1
1.9781549416199051e-01 -1.3844702702695350e-01 0.0000000000000000e+00 1
-2.0982193813221167e-01 9.2663876084469729e-02 0.0000000000000000e+00 1
2.1109151364699799e-01 -1.4196402099780697e-01 0.0000000000000000e+00 1
2.1894312141442221e-01 -1.4191525424026261e-01 0.0000000000000000e+00 1
-2.2588555128305432e-01 1.0483244780362409e-01 0.0000000000000000e+00 1
2.2125664144030172e-01 -1.3757808639700364e-01 0.0000000000000000e+00 1
2.1774325073040146e-01 -1.3822971737244530e-01 0.0000000000000000e+00 1
2.1570748535447801e-01 -1.4133437505170973e-01 0.0000000000000000e+00 1
2.1355404665614858e-01 -1.3775827626349088e-01 0.0000000000000000e+00 1
2.0860168046044458e-01 -1.3711892413385424e-01 0.0000000000000000e+00 1
2.1159585700499650e-01 -1.3287016228999662e-01 0.0000000000000000e+00 1
2.0615481145925080e-01 -1.3197032214311294e-01 0.0000000000000000e+00 1
2.1000711523640087e-01 -1.2760007060490600e-01 0.0000000000000000e+00 1
2.0280940998218616e-01 -1.2643250693986158e-01 0.0000000000000000e+00 1
-2.2852335864073831e-01 1.1000964089912914e-01 0.0000000000000000e+00 1
-2.2546989691350711e-01 1.1023630293253761e-01 0.0000000000000000e+00 1
-2.2424836727889352e-01 1.1348667307693824e-01 0.0000000000000000e+00 1
-2.2155413589286099e-01 1.1043971016182776e-01 0.0000000000000000e+00 1
-2.1696925745614662e-01 1.1152221308883953e-01 0.0000000000000000e+00 1
-2.1897496657508245e-01 1.0671940247077659e-01 0.0000000000000000e+00 1
-2.1358046961193150e-01 1.0670174035886716e-01 0.0000000000000000e+00 1
-2.1115809497870994e-01 1.1156801554098963e-01 0.0000000000000000e+00 1
-2.0815075034417913e-01 1.0679388980067117e-01 0.0000000000000000e+00 1
-2.1697983124574782e-01 1.0172210004636291e-01 0.0000000000000000e+00 1
2.0512318013152206e-01 -1.4152257752566236e-01 0.0000000000000000e+00 1
-2.2225155741806238e-01 1.0322600676254434e-01 0.0000000000000000e+00 1
2.0396124003218050e-01 -1.0832018859711175e-01 0.0000000000000000e+00 1
1.9620594471752409e-01 -1.0966565384297665e-01 0.0000000000000000e+00 1
1.9113578300955630e-01 -1.0346135296359150e-01 0.0000000000000000e+00 1
1.8824779288055338e-01 -1.1114328502553995e-01 0.0000000000000000e+00 1
1.8290634573975117e-01 -1.0500621279647941e-01 0.0000000000000000e+00 1
1.7998196095050623e-01 -1.1270409717535756e-01 0.0000000000000000e+00 1
1.7444538308201668e-01 -1.0634828796416328e-01 0.0000000000000000e+00 1
1.7163149075095835e-01 -1.1437456843999490e-01 0.0000000000000000e+00 1
1.6579882111081021e-01 -1.0775247855064513e-01 0.0000000000000000e+00 1
1.6870377709737588e-01 -9.9747093373649384e-02 0.0000000000000000e+00 1
1.5989485285091282e-01 -1.0074000186112152e-01 0.0000000000000000e+00 1
1.5693048802077436e-01 -1.0945135779876224e-01 0.0000000000000000e+00 1
1.5079640240293424e-01 -1.0233679926815950e-01 0.0000000000000000e+00 1
1.5396297812319251e-01 -9.3433850635982738e-02 0.0000000000000000e+00 1
1.4449784907164587e-01 -9.5088294696412570e-02 0.0000000000000000e+00 1
1.4788642620605022e-01 -8.6008178773287217e-02 0.0000000000000000e+00 1
1.3811569216222269e-01 -8.7668670089405334e-02 0.0000000000000000e+00 1
1.4137184884860066e-01 -7.8470511073979732e-02 0.0000000000000000e+00 1
1.3163580272485245e-01 -8.0034401517963039e-02 0.0000000000000000e+00 1
1.2803259828984498e-01 -8.9949741018449950e-02 0.0000000000000000e+00 1
1.2134617431203479e-01 -8.2246536204848841e-02 0.0000000000000000e+00 1
1.2508536750754334e-01 -7.2222453303019449e-02 0.0000000000000000e+00 1
1.1472255810054822e-01 -7.4221238898263264e-02 0.0000000000000000e+00 1
1.1843122293183073e-01 -6.4207185581914752e-02 0.0000000000000000e+00 1
1.0788486198246969e-01 -6.6236830754239903e-02 0.0000000000000000e+00 1
1.1155998069778013e-01 -5.6112824798655335e-02 0.0000000000000000e+00 1
1.0107662182424157e-01 -5.8064814121865205e-02 0.0000000000000000e+00 1
9.7505029253858899e-02 -6.8196420425448476e-02 0.0000000000000000e+00 1
9.0621416882919650e-02 -6.0047324603881395e-02 0.0000000000000000e+00 1
9.4096059390390077e-02 -4.9922582386568742e-02 0.0000000000000000e+00 1
8.3496143558010744e-02 -5.1908450741763340e-02 0.0000000000000000e+00 1
8.7054707894013858e-02 -4.1730806715632521e-02 0.0000000000000000e+00 1
7.6377435275234509e-02 -4.3719207037963177e-02 0.0000000000000000e+00 1
7.9986397342361681e-02 -3.3463042822758991e-02 0.0000000000000000e+00 1
6.9320370037634402e-02 -3.5515050208881967e-02 0.0000000000000000e+00 1
7.2830065017080239e-02 -2.5233892255959095e-02 0.0000000000000000e+00 1
6.2214842280169880e-02 -2.7332928020448500e-02 0.0000000000000000e+00 1
5.8686724716231521e-02 -3.7549430484590474e-02 0.0000000000000000e+00 1
5.1674117359616779e-02 -2.9361222330336233e-02 0.0000000000000000e+00 1
5.5132451477012637e-02 -1.9213914198158308e-02 0.0000000000000000e+00 1
4.4608109403109129e-02 -2.1255656850296515e-02 0.0000000000000000e+00 1
4.7960853093534268e-02 -1.1305922551165528e-02 0.0000000000000000e+00 1
3.7692638351036076e-02 -1.3185582648021880e-02 0.0000000000000000e+00 1
4.0286219727698393e-02 -3.1354363820300640e-03 0.0000000000000000e+00 1
3.0502835362615461e-02 -5.1942752674154656e-03 0.0000000000000000e+00 1
2.7366038609067823e-02 -1.5092079363149838e-02 0.0000000000000000e+00 1
2.0596602871575984e-02 -7.2475890992438384e-03 0.0000000000000000e+00 1
2.3750769406294982e-02 2.5297651566063553e-03 0.0000000000000000e+00 1
1.3995776554882012e-02 5.1338931232864933e-04 0.0000000000000000e+00 1
1.7251809933488290e-02 9.9866386095631299e-03 0.0000000000000000e+00 1
7.2972742938732117e-03 8.0887804459278800e-03 0.0000000000000000e+00 1
1.0666961731291794e-02 1.7270336087772856e-02 0.0000000000000000e+00 1
1.0381809026194396e-03 1.5507421794409825e-02 0.0000000000000000e+00 1
4.3315629330453837e-03 2.4363010172811148e-02 0.0000000000000000e+00 1
-4.6276845492956350e-03 2.2671012941560501e-02 0.0000000000000000e+00 1
-1.5780952541770354e-03 3.1254059614898133e-02 0.0000000000000000e+00 1
-1.0580410961423065e-02 2.9619515419571255e-02 0.0000000000000000e+00 1
-1.4352164981369913e-02 2.1063174880193249e-02 0.0000000000000000e+00 1
-1.9910696378825036e-02 2.8185113047364856e-02 0.0000000000000000e+00 1
-1.6167225481900471e-02 3.6735002663493374e-02 0.0000000000000000e+00 1
-2.5523828867612487e-02 3.5349199508287077e-02 0.0000000000000000e+00 1
-2.9741410635394365e-02 2.5410457356334966e-02 0.0000000000000000e+00 1
-3.5078731821862691e-02 3.3753608843934219e-02 0.0000000000000000e+00 1
-3.1186350410568275e-02 4.1505998150890761e-02 0.0000000000000000e+00 1
-4.0911703914869250e-02 4.0445505765377594e-02 0.0000000000000000e+00 1
-4.4537663554763005e-02 3.2309993736845767e-02 0.0000000000000000e+00 1
-5.0508763732675439e-02 3.9765115934925363e-02 0.0000000000000000e+00 1
3.4696330678237741e-03 -1.4827114534646370e-03 0.0000000000000000e+00 1
-5.4113182882093380e-02 3.0973449085331391e-02 0.0000000000000000e+00 1
-6.0133650258624702e-02 3.8370513322524030e-02 0.0000000000000000e+00 1
-5.6565953201795680e-02 4.7392740507973680e-02 0.0000000000000000e+00 1
-6.6148558899679813e-02 4.5968414624531301e-02 0.0000000000000000e+00 1
-6.2569539857656509e-02 5.5144086267813121e-02 0.0000000000000000e+00 1
-7.2217955829467301e-02 5.3635257798885345e-02 0.0000000000000000e+00 1
-7.5815390547767036e-02 4.4530460768666964e-02 0.0000000000000000e+00 1
-8.1922049281247411e-02 5.2211284724229139e-02 0.0000000000000000e+00 1
-5.3095584709718820e-02 5.6875865928680464e-02 0.0000000000000000e+00 1
-4.7924345967036819e-02 2.3042506203039884e-02 0.0000000000000000e+00 1
1.7196450673857756e-02 -1.7019287945566577e-02 0.0000000000000000e+00 1
-8.5516160270331154e-02 4.3090023670166032e-02 0.0000000000000000e+00 1
-9.1607610391916394e-02 5.0809709275808454e-02 0.0000000000000000e+00 1
-8.7982692808545801e-02 5.9906001197890302e-02 0.0000000000000000e+00 1
-9.7669126417079921e-02 5.8513043303768997e-02 0.0000000000000000e+00 1
2.3969272606115682e-02 -2.4952141247838826e-02 0.0000000000000000e+00 1
-6.3711535366635874e-02 2.9288135081601153e-02 0.0000000000000000e+00 1
7.1693306653085303e-03 3.2975169058758573e-02 0.0000000000000000e+00 1
1.4499389547518900e-03 3.9597449632163655e-02 0.0000000000000000e+00 1
2.6363880256679108e-02 1.2438190569293088e-02 0.0000000000000000e+00 1
4.8152869906146763e-02 -3.9549629238861995e-02 0.0000000000000000e+00 1
-6.8654380985773339e-02 6.2871592645761198e-02 0.0000000000000000e+00 1
-1.0130394854438074e-01 4.9407778894844566e-02 0.0000000000000000e+00 1
-1.0735116536441594e-01 5.7135209399020531e-02 0.0000000000000000e+00 1
-1.0370818140380425e-01 6.6205347462311007e-02 0.0000000000000000e+00 1
-1.1338457981764960e-01 6.4847511265414368e-02 0.0000000000000000e+00 1
5.5138965892397709e-02 -4.7723883239508380e-02 0.0000000000000000e+00 1
9.9144788489861375e-03 4.1357496619987687e-02 0.0000000000000000e+00 1
4.3994602951401710e-03 4.7583017551930396e-02 0.0000000000000000e+00 1
5.8891730608709100e-02 -7.6438966624878188e-03 0.0000000000000000e+00 1
-1.0972545791424666e-01 7.3870758057020841e-02 0.0000000000000000e+00 1
-1.1938910648211798e-01 7.2514526407778640e-02 0.0000000000000000e+00 1
-1.2298392477300508e-01 6.3533055740722488e-02 0.0000000000000000e+00 1
-1.2895748024355064e-01 7.1107188380647710e-02 0.0000000000000000e+00 1
7.9942935052614378e-02 -6.2060659202768910e-02 0.0000000000000000e+00 1
1.5755674594099364e-02 3.5012527956953206e-02 0.0000000000000000e+00 1
-1.1101633275973130e-01 4.8024608605056328e-02 0.0000000000000000e+00 1
1.3619104691535776e-02 -2.6860620328419113e-02 0.0000000000000000e+00 1
-1.0004753743203916e-01 7.5281020903126938e-02 0.0000000000000000e+00 1
2.0476165305758458e-02 -3.4853632873879346e-02 0.0000000000000000e+00 1
-1.0495398463309139e-01 4.0267074719785349e-02 0.0000000000000000e+00 1
1.1041366445811070e-01 -8.4772278330241244e-02 0.0000000000000000e+00 1
-1.3253736813719866e-01 6.2180807665042324e-02 0.0000000000000000e+00 1
-1.3838752113005051e-01 6.9778251980389616e-02 0.0000000000000000e+00 1
-1.3487797321121406e-01 7.8586851818180273e-02 0.0000000000000000e+00 1
-1.4422189008965117e-01 7.7273941681644906e-02 0.0000000000000000e+00 1
9.0561863973500065e-02 -3.1543213732556669e-02 0.0000000000000000e+00 1
-1.4200022269590762e-01 6.0919677815498285e-02 0.0000000000000000e+00 1
4.4591379502100403e-02 -4.9740094002607906e-02 0.0000000000000000e+00 1
-1.0610759482052927e-01 8.2983343990624930e-02 0.0000000000000000e+00 1
-1.4072178835282814e-01 8.6013957228977297e-02 0.0000000000000000e+00 1
-1.4996887618199331e-01 8.4602397406230434e-02 0.0000000000000000e+00 1
-1.5341938533863109e-01 7.6041577710673477e-02 0.0000000000000000e+00 1
-1.5910059225642648e-01 8.3257175019413307e-02 0.0000000000000000e+00 1
5.1598579399342356e-02 -5.7869423397740483e-02 0.0000000000000000e+00 1
1.2260152192910462e-02 4.9450933617614656e-02 0.0000000000000000e+00 1
6.9046883697822048e-03 5.5185252544166764e-02 0.0000000000000000e+00 1
-6.0293975894563456e-04 5.3657018224109225e-02 0.0000000000000000e+00 1
1.9595913044845601e-03 6.0874308614730838e-02 0.0000000000000000e+00 1
-5.3222725014541016e-03 5.9443380269340790e-02 0.0000000000000000e+00 1
-2.7384753824057301e-03 6.6303040432558913e-02 0.0000000000000000e+00 1
-1.0011754949906514e-02 6.5134943918208024e-02 0.0000000000000000e+00 1
-1.2792378594167238e-02 5.8156393100959762e-02 0.0000000000000000e+00 1
-1.7713901868031796e-02 6.3978361785712382e-02 0.0000000000000000e+00 1
-1.6248556654070015e-01 7.4838201819276848e-02 0.0000000000000000e+00 1
-1.6804043773187022e-01 8.1955192196432769e-02 0.0000000000000000e+00 1
-1.6470291998382047e-01 9.0231878831039197e-02 0.0000000000000000e+00 1
-1.7344135449380774e-01 8.8951031310611231e-02 0.0000000000000000e+00 1
-1.3139375140913992e-01 8.7396801224938814e-02 0.0000000000000000e+00 1
1.2213093938972508e-01 -5.4182255492105445e-02 0.0000000000000000e+00 1
1.1516507458884297e-01 -4.5951236262037377e-02 0.0000000000000000e+00 1
9.8694661287118818e-03 -3.7275350903659014e-02 0.0000000000000000e+00 1
3.2187739224487999e-03 -2.8846520768499282e-02 0.0000000000000000e+00 1
-1.4474122106917517e-02 7.1055575743132329e-02 0.0000000000000000e+00 1
-2.2424085462344676e-02 7.0171750708461184e-02 0.0000000000000000e+00 1
-2.5611483299420177e-02 6.2611349683356798e-02 0.0000000000000000e+00 1
-3.0749345232270929e-02 6.9054250663851319e-02 0.0000000000000000e+00 1
-3.4100654780051150e-02 6.1207909035747014e-02 0.0000000000000000e+00 1
-4.0167563320436625e-02 6.7830424765132749e-02 0.0000000000000000e+00 1
-1.1470685920418368e-01 3.8856976985423897e-02 0.0000000000000000e+00 1
-1.2668354632602477e-01 5.4421213576195317e-02 0.0000000000000000e+00 1
1.8553548405811715e-01 -1.1896820043800495e-01 0.0000000000000000e+00 1
-7.9429470708442321e-02 3.5347654475584862e-02 0.0000000000000000e+00 1
-8.9171841953982547e-02 3.3901670445339621e-02 0.0000000000000000e+00 1
-8.3054771995070872e-02 2.6073679376630635e-02 0.0000000000000000e+00 1
-9.2897405159737184e-02 2.4619534832027935e-02 0.0000000000000000e+00 1
1.4141880344150995e-01 -1.0409000120601763e-01 0.0000000000000000e+00 1
-1.7024049316519041e-01 9.7043715791916133e-02 0.0000000000000000e+00 1
-1.7875472538629378e-01 9.5801268867480638e-02 0.0000000000000000e+00 1
-1.8197135290450775e-01 8.7920667644014794e-02 0.0000000000000000e+00 1
-1.8701690396736839e-01 9.4502798499718432e-02 0.0000000000000000e+00 1
-1.6023916737703783e-01 9.8614905091286800e-02 0.0000000000000000e+00 1
-9.6380106771303722e-02 8.4333025975091833e-02 0.0000000000000000e+00 1
-1.0245429320108593e-01 9.2067204227023025e-02 0.0000000000000000e+00 1
-9.0337192287137158e-02 7.6675983609777273e-02 0.0000000000000000e+00 1
-1.7566758305270064e-01 1.0408505509203329e-01 0.0000000000000000e+00 1
1.6598145027905055e-02 -4.5564781746403334e-02 0.0000000000000000e+00 1
-1.3720900155385624e-01 9.4817896235791232e-02 0.0000000000000000e+00 1
1.2571273043645920e-01 -4.3973092722499448e-02 0.0000000000000000e+00 1
-2.7419491000496423e-02 7.6554895086372296e-02 0.0000000000000000e+00 1
8.8924904120087720e-03 6.2123808526302109e-02 0.0000000000000000e+00 1
1.5756309093740783e-01 -8.3795134422162784e-02 0.0000000000000000e+00 1
-1.1222980188847544e-01 9.0402544906230689e-02 0.0000000000000000e+00 1
-1.5696065811448967e-01 6.7623990237665077e-02 0.0000000000000000e+00 1
-8.6890720250345457e-02 8.5526230206189102e-02 0.0000000000000000e+00 1
-8.0689211166445313e-02 7.8003669552512436e-02 0.0000000000000000e+00 1
-1.0857187417618377e-01 3.1200827419410552e-02 0.0000000000000000e+00 1
-1.7118960079773463e-01 7.3774623897804481e-02 0.0000000000000000e+00 1
6.2131190106360160e-02 -5.5870024156490471e-02 0.0000000000000000e+00 1
5.8664387624638603e-02 -6.5927638712591261e-02 0.0000000000000000e+00 1
-8.6490721880644911e-02 1.6892102552838437e-02 0.0000000000000000e+00 1
-7.6729767343052660e-02 1.8217645403194972e-02 0.0000000000000000e+00 1
-8.0184783891851852e-02 8.9841741376649846e-03 0.0000000000000000e+00 1
-7.0669585624389117e-02 1.0404212786723833e-02 0.0000000000000000e+00 1
3.0782894019455616e-02 -3.3081511582446856e-02 0.0000000000000000e+00 1
4.1313684640481026e-02 -5.9662363773231732e-02 0.0000000000000000e+00 1
3.4127144704207302e-02 -5.1584182189968492e-02 0.0000000000000000e+00 1
-1.9795878763473329e-04 -3.8693322869284646e-02 0.0000000000000000e+00 1
-7.0092521143705179e-03 -3.0685133652503457e-02 0.0000000000000000e+00 1
-3.5765163819636596e-03 -2.0835090102619077e-02 0.0000000000000000e+00 1
-1.3765184018640715e-02 -2.2702325933860058e-02 0.0000000000000000e+00 1
-1.0283267183290486e-02 -1.2955103682835476e-02 0.0000000000000000e+00 1
-2.0371784834088320e-02 -1.4834413711036549e-02 0.0000000000000000e+00 1
-1.6958314666658651e-02 -5.2393673670423973e-03 0.0000000000000000e+00 1
-2.6938770144942965e-02 -7.0776993501654771e-03 0.0000000000000000e+00 1
-2.3534360174181788e-02 2.4022016394685112e-03 0.0000000000000000e+00 1
-3.3459372133482206e-02 6.0874662434380459e-04 0.0000000000000000e+00 1
-3.6841811962317846e-02 -9.3386644793633147e-03 0.0000000000000000e+00 1
-4.3192812865630467e-02 -1.0350328732220083e-03 0.0000000000000000e+00 1
-1.3191117518931449e-02 4.3545537332082595e-03 0.0000000000000000e+00 1
-2.3587207333818951e-02 -2.4526471743839238e-02 0.0000000000000000e+00 1
-3.9850035857693339e-02 8.0715789010371766e-03 0.0000000000000000e+00 1
-4.9848487557019094e-02 6.3200877765037279e-03 0.0000000000000000e+00 1
-5.3375629559428463e-02 -2.7276955390508778e-03 0.0000000000000000e+00 1
2.0041329384214537e-01 -1.1543154770806434e-01 0.0000000000000000e+00 1
-1.2780712172206793e-01 9.5676404999234146e-02 0.0000000000000000e+00 1
3.0778112507901474e-02 -6.2736731126431730e-02 0.0000000000000000e+00 1
-9.6338483731143287e-02 1.4050929696678722e-02 0.0000000000000000e+00 1
-7.7544798357473216e-02 8.6517273677959070e-02 0.0000000000000000e+00 1
-7.1162621871504461e-02 7.9341931335374233e-02 0.0000000000000000e+00 1
-1.3272634499285152e-01 1.0228414742571147e-01 0.0000000000000000e+00 1
-2.7654960828095418e-02 5.5322665520626778e-02 0.0000000000000000e+00 1
-3.7050525122440836e-02 5.3207887016281270e-02 0.0000000000000000e+00 1
1.3443272997031228e-01 -5.1713652742753378e-02 0.0000000000000000e+00 1
-1.0816173333109342e-02 -4.0203099247754809e-02 0.0000000000000000e+00 1
1.1827475853697191e-01 -3.5022430299601656e-02 0.0000000000000000e+00 1
1.0776240894029152e-01 -3.7385774776781969e-02 0.0000000000000000e+00 1
-1.9134963036635702e-01 8.6263833948730537e-02 0.0000000000000000e+00 1
-1.9543645637316046e-01 9.3892477113448947e-02 0.0000000000000000e+00 1
-1.9217016082665561e-01 1.0072368052287085e-01 0.0000000000000000e+00 1
-2.0019671792047658e-01 9.9823369790379993e-02 0.0000000000000000e+00 1
-1.9680451568616103e-01 1.0629437089200588e-01 0.0000000000000000e+00 1
-2.0189502312087094e-02 1.2727147703953447e-02 0.0000000000000000e+00 1
4.0232835476477812e-03 6.7422585396574239e-02 0.0000000000000000e+00 1
-6.1419804610364547e-04 7.2424393860383227e-02 0.0000000000000000e+00 1
5.5993412599397233e-03 7.4048026322579188e-02 0.0000000000000000e+00 1
-1.0942066159729122e-01 9.9214811047283857e-02 0.0000000000000000e+00 1
-5.8997910832271364e-02 4.9884399375010862e-03 0.0000000000000000e+00 1
-6.2928458134351176e-02 -4.7045257875210911e-03 0.0000000000000000e+00 1
-5.4745379961440035e-02 1.4214774616447342e-02 0.0000000000000000e+00 1
-7.2631576805095490e-03 7.1717982633418637e-02 0.0000000000000000e+00 1
-1.1409452601068083e-02 7.8520445391770083e-02 0.0000000000000000e+00 1
-1.9338180056401512e-02 7.6842930957901290e-02 0.0000000000000000e+00 1
1.4169212238763275e-02 5.6784378759254635e-02 0.0000000000000000e+00 1
1.9768941189538765e-02 5.1426840581601650e-02 0.0000000000000000e+00 1
1.3039499617757991e-01 -3.2219011083444000e-02 0.0000000000000000e+00 1
1.7982803281290257e-02 4.3480644475951069e-02 0.0000000000000000e+00 1
2.4213772058334304e-02 3.7411810173111126e-02 0.0000000000000000e+00 1
2.2134907662315562e-02 2.8550610210699882e-02 0.0000000000000000e+00 1
3.0684823502825885e-02 3.1037083577122246e-02 0.0000000000000000e+00 1
3.2763372231398240e-02 3.9808221685535300e-02 0.0000000000000000e+00 1
3.9470352701160512e-02 3.3544040479427953e-02 0.0000000000000000e+00 1
3.7340670900894699e-02 2.4465555375917620e-02 0.0000000000000000e+00 1
4.6350004405594947e-02 2.6862156374581045e-02 0.0000000000000000e+00 1
4.4285980584078656e-02 1.7629964879402271e-02 0.0000000000000000e+00 1
5.3600484575669627e-02 2.0318694590247131e-02 0.0000000000000000e+00 1
5.1656958556917709e-02 1.0134473572359802e-02 0.0000000000000000e+00 1
6.0786070364569303e-02 1.3054849012144362e-02 0.0000000000000000e+00 1
5.5078529147216365e-02 2.9285949221055377e-02 0.0000000000000000e+00 1
5.8686353703536913e-02 3.4232012068477510e-03 0.0000000000000000e+00 1
6.7567210163986258e-02 5.8671594980579970e-03 0.0000000000000000e+00 1
4.1626918738589966e-02 7.8753799558234795e-03 0.0000000000000000e+00 1
-3.6878896142900491e-03 4.6046280525595805e-02 0.0000000000000000e+00 1
-7.6561617044901896e-05 -1.1101513106277622e-02 0.0000000000000000e+00 1
-7.5001694293545196e-02 1.0840626618724850e-03 0.0000000000000000e+00 1
-8.4426197244231116e-02 7.2375963258337515e-04 0.0000000000000000e+00 1
-1.8401149261436464e-01 1.0216777880791457e-01 0.0000000000000000e+00 1
-1.8082681004669041e-01 1.1016998470244115e-01 0.0000000000000000e+00 1
-1.7311439573713816e-01 1.1370912836278217e-01 0.0000000000000000e+00 1
2.5914754681416276e-02 4.5766397349652703e-02 0.0000000000000000e+00 1
-9.8993304120818332e-02 1.0245811327706671e-01 0.0000000000000000e+00 1
-6.7460897109169707e-02 8.9058021200329920e-02 0.0000000000000000e+00 1
-6.1621355234415739e-02 8.0715808803332498e-02 0.0000000000000000e+00 1
-1.7646565089441327e-01 8.1027870351587858e-02 0.0000000000000000e+00 1
-6.5095103753957551e-02 7.2062739937040571e-02 0.0000000000000000e+00 1
-5.5803723273355824e-02 7.3507236089465772e-02 0.0000000000000000e+00 1
-5.2331643295644478e-02 8.1437239292914451e-02 0.0000000000000000e+00 1
-4.6267869303923417e-02 7.4685898137974008e-02 0.0000000000000000e+00 1
-4.3773223111508566e-02 8.3080331113624450e-02 0.0000000000000000e+00 1
-4.9916187755315186e-02 6.6363757156828185e-02 0.0000000000000000e+00 1
-4.3545051724527419e-02 5.9788498473254979e-02 0.0000000000000000e+00 1
-7.1848100104122542e-03 3.8093022255188860e-02 0.0000000000000000e+00 1
-1.1926776884961890e-02 4.4851566741251563e-02 0.0000000000000000e+00 1
-2.1256443817034475e-02 4.4391054395994195e-02 0.0000000000000000e+00 1
2.3907587131129639e-02 -5.3439232941227606e-02 0.0000000000000000e+00 1
-4.5534243552281459e-02 4.9143656891334410e-02 0.0000000000000000e+00 1
-6.8317764092373813e-03 -3.3520912263119780e-03 0.0000000000000000e+00 1
-2.6528446215169786e-03 6.2351734946583031e-03 0.0000000000000000e+00 1
6.9107959215227735e-02 -6.4004571877065958e-02 0.0000000000000000e+00 1
6.5576980985979055e-02 -7.3570582429387396e-02 0.0000000000000000e+00 1
6.8046577591476505e-03 -1.8996780308776450e-02 0.0000000000000000e+00 1
-3.0473690447133168e-02 9.7427454221758678e-03 0.0000000000000000e+00 1
-3.7158850669405150e-02 1.7679373979080343e-02 0.0000000000000000e+00 1
1.9726891476863906e-02 1.9473646257044609e-02 0.0000000000000000e+00 1
2.1526639607230369e-01 -1.2866991246780241e-01 0.0000000000000000e+00 1
1.7473617252404086e-01 -7.5623896375098490e-02 0.0000000000000000e+00 1
2.8867408894691266e-02 6.0784017213168666e-02 0.0000000000000000e+00 1
1.9336881229493647e-01 -1.1733095376238249e-01 0.0000000000000000e+00 1
1.9108763510532692e-01 -1.2539306776359690e-01 0.0000000000000000e+00 1
1.8309855197786667e-01 -1.2672179492283481e-01 0.0000000000000000e+00 1
1.7743506464599362e-01 -1.2065823953626138e-01 0.0000000000000000e+00 1
1.7502120601050114e-01 -1.2865918467163182e-01 0.0000000000000000e+00 1
4.2218668058610513e-02 4.9820913272184526e-02 0.0000000000000000e+00 1
-5.9189086722629541e-02 6.4470879670931541e-02 0.0000000000000000e+00 1
-7.4711012852206229e-02 7.0433209861384571e-02 0.0000000000000000e+00 1
-5.0668737358743859e-02 -2.7278787068942861e-02 0.0000000000000000e+00 1
-5.1081504184711912e-02 -1.8632813380283643e-02 0.0000000000000000e+00 1
-3.2298852135731707e-02 -3.8605120414538889e-02 0.0000000000000000e+00 1
-6.8311829380872838e-02 -1.4376861151026352e-02 0.0000000000000000e+00 1
-2.6305140691489599e-02 8.9018024122573480e-02 0.0000000000000000e+00 1
-1.8945312725841798e-01 1.0760869526138565e-01 0.0000000000000000e+00 1
1.5310969625557685e-01 -5.2854100636022132e-02 0.0000000000000000e+00 1
7.6056944710611196e-02 -7.2101157349888978e-02 0.0000000000000000e+00 1
7.1005479353985421e-02 -8.2974647191623063e-02 0.0000000000000000e+00 1
8.2926604644271540e-02 -8.0144689601751057e-02 0.0000000000000000e+00 1
-4.2218392282458064e-02 9.1798889264941994e-02 0.0000000000000000e+00 1
1.7538679771933262e-02 7.0223162199770262e-02 0.0000000000000000e+00 1
-1.2074090049813077e-01 4.6639675957396799e-02 0.0000000000000000e+00 1
-1.2446430724728502e-01 3.7491286849388593e-02 0.0000000000000000e+00 1
-1.3045976531723996e-01 4.5433867136634762e-02 0.0000000000000000e+00 1
-1.3415430227975844e-01 3.6979718032324756e-02 0.0000000000000000e+00 1
-1.2889433121945923e-01 2.7292811753227269e-02 0.0000000000000000e+00 1
-1.3627491628843755e-01 5.3393055269336527e-02 0.0000000000000000e+00 1
-1.4607294112512514e-01 5.2196510970317550e-02 0.0000000000000000e+00 1
-1.5125555887935682e-01 6.0034882829153591e-02 0.0000000000000000e+00 1
-1.5577923938284308e-01 5.2686714652018206e-02 0.0000000000000000e+00 1
6.5727494849075252e-02 -1.6892104649511953e-02 0.0000000000000000e+00 1
7.6065885773367814e-02 -1.5127696842843931e-02 0.0000000000000000e+00 1
8.8207781933510795e-02 8.2615181061823154e-03 0.0000000000000000e+00 1
8.6683590317562023e-02 -2.7525890408199825e-03 0.0000000000000000e+00 1
9.5037312649958045e-02 -1.0014670060138316e-02 0.0000000000000000e+00 1
8.3210243096803818e-02 -2.3409559392291071e-02 0.0000000000000000e+00 1
9.3024855935499626e-02 -2.0909014278874972e-02 0.0000000000000000e+00 1
8.0093481567442851e-02 1.6241541657641037e-02 0.0000000000000000e+00 1
-4.1330257641596986e-02 -2.0278175036283510e-02 0.0000000000000000e+00 1
-6.7649977915789847e-02 2.0255060413030736e-02 0.0000000000000000e+00 1
1.6049150223554401e-01 -6.0828362718026448e-02 0.0000000000000000e+00 1
1.5012885865177125e-01 -6.3541794732754939e-02 0.0000000000000000e+00 1
1.5773778183351819e-01 -7.0894504657766727e-02 0.0000000000000000e+00 1
1.9993472806687945e-01 -1.3213348408798536e-01 0.0000000000000000e+00 1
1.6526590768264071e-01 -7.7993262993899734e-02 0.0000000000000000e+00 1
1.7211875379912378e-01 -8.4843707923793629e-02 0.0000000000000000e+00 1
1.8140236759500256e-01 -8.2720750995254069e-02 0.0000000000000000e+00 1
1.7886861868229065e-01 -9.1467203851680737e-02 0.0000000000000000e+00 1
4.8099900699371374e-02 -6.8100054195578338e-02 0.0000000000000000e+00 1
-1.6614760190391767e-01 6.4919524164128425e-02 0.0000000000000000e+00 1
-1.7483869726087123e-01 6.5388118112839774e-02 0.0000000000000000e+00 1
6.9382679503947525e-02 -7.7855583768939168e-03 0.0000000000000000e+00 1
-1.2188850429020168e-01 8.8703048198078741e-02 0.0000000000000000e+00 1
-1.2209238405176157e-02 8.5669592492854982e-02 0.0000000000000000e+00 1
1.0484920409053672e-01 -6.5504975402021605e-03 0.0000000000000000e+00 1
1.1297741241645631e-01 -1.4420938105364640e-02 0.0000000000000000e+00 1
1.1066495999320143e-01 -2.6108696663603870e-02 0.0000000000000000e+00 1
7.2791382468227916e-02 -5.3881208824828809e-02 0.0000000000000000e+00 1
-6.0297196046558317e-02 9.6467588050568043e-02 0.0000000000000000e+00 1
3.7691358915446407e-02 -4.1333556470632464e-02 0.0000000000000000e+00 1
-7.8380701955305457e-02 1.0061318861564099e-01 0.0000000000000000e+00 1
-2.0478730276617763e-01 8.7309442072510735e-02 0.0000000000000000e+00 1
1.0331093218373708e-02 -9.2224154335000773e-03 0.0000000000000000e+00 1
-1.4642202508022462e-01 9.2703833866760094e-02 0.0000000000000000e+00 1
8.6751823468299544e-02 -7.0203571325861525e-02 0.0000000000000000e+00 1
9.3436590187639584e-02 -7.8608797969367775e-02 0.0000000000000000e+00 1
8.9677168271623975e-02 -8.7832870601113167e-02 0.0000000000000000e+00 1
9.9873334249218765e-02 -8.6597166573147200e-02 0.0000000000000000e+00 1
9.6233950298112103e-02 -9.6899405208566561e-02 0.0000000000000000e+00 1
1.0730500851384261e-01 -9.4684533392226142e-02 0.0000000000000000e+00 1
1.1803824946011979e-01 -9.2483726000799862e-02 0.0000000000000000e+00 1
1.2546407775903232e-01 -9.9842404330775222e-02 0.0000000000000000e+00 1
1.1455293376262213e-01 -1.0353726318617346e-01 0.0000000000000000e+00 1
1.2391161965360156e-01 -1.0945023562277127e-01 0.0000000000000000e+00 1
1.0397267303864095e-01 -7.6438788825117968e-02 0.0000000000000000e+00 1
-1.4770753937468112e-01 6.8612053709170812e-02 0.0000000000000000e+00 1
1.6937279715261999e-01 -1.2252756362665695e-01 0.0000000000000000e+00 1
1.6337372979475445e-01 -1.1594090054674532e-01 0.0000000000000000e+00 1
1.5481236104350454e-01 -1.1941663413869902e-01 0.0000000000000000e+00 1
1.4798906078263141e-01 -1.1143628301878378e-01 0.0000000000000000e+00 1
1.4459786575483968e-01 -1.1969453672765630e-01 0.0000000000000000e+00 1
1.3865413748606586e-01 -1.1278531576245460e-01 0.0000000000000000e+00 1
-3.6845586513147378e-02 7.7188480691546296e-02 0.0000000000000000e+00 1
-3.0909846419996379e-02 8.3643486021853133e-02 0.0000000000000000e+00 1
-1.1700992081821535e-01 5.5802977335613936e-02 0.0000000000000000e+00 1
4.8409526693845486e-03 -6.0532783599962954e-02 0.0000000000000000e+00 1
5.1584211882654569e-03 -4.8424386742795547e-02 0.0000000000000000e+00 1
-4.5467585511621018e-03 7.7618071705547825e-02 0.0000000000000000e+00 1
6.5727188611987425e-02 -4.5713954737056410e-02 0.0000000000000000e+00 1
-9.4003882452264931e-02 6.7603197021430014e-02 0.0000000000000000e+00 1
-8.4330802501563426e-02 6.8999319863452591e-02 0.0000000000000000e+00 1
1.3306872998747324e-02 2.6267320840674058e-02 0.0000000000000000e+00 1
-1.1225486746234103e-01 1.3464197496858390e-02 0.0000000000000000e+00 1
-1.0399742142437901e-01 7.7633085950004465e-03 0.0000000000000000e+00 1
-1.9284041276953567e-01 7.7000453356541848e-02 0.0000000000000000e+00 1
-1.8505018847038396e-01 8.0026538079988205e-02 0.0000000000000000e+00 1
-1.1840277404447819e-01 2.9710373574553046e-02 0.0000000000000000e+00 1
-1.5532141791157630e-01 1.1217479630539429e-01 0.0000000000000000e+00 1
-1.5279860618833585e-01 1.0446532586846442e-01 0.0000000000000000e+00 1
1.2913227716604597e-01 -6.2242588710987097e-02 0.0000000000000000e+00 1
1.3956677582991159e-01 -6.1967027864383517e-02 0.0000000000000000e+00 1
-1.7248158568515401e-02 -3.2478594454282118e-02 0.0000000000000000e+00 1
1.3500097083863064e-01 -9.7197427743723641e-02 0.0000000000000000e+00 1
-9.5241851255029181e-02 4.1673627688192161e-02 0.0000000000000000e+00 1
-1.5539636306903698e-01 9.1067775878948279e-02 0.0000000000000000e+00 1
6.1745712948218345e-02 -9.0144302850056410e-02 0.0000000000000000e+00 1
2.3220064583811595e-02 -7.0625918440287178e-02 0.0000000000000000e+00 1
1.6674402212422434e-01 -1.3114846929170179e-01 0.0000000000000000e+00 1
-7.8303149043133916e-02 6.1342777681933858e-02 0.0000000000000000e+00 1
-1.2536883383312891e-01 7.9947628574089005e-02 0.0000000000000000e+00 1
3.4281010840190487e-02 -2.3136647831253177e-02 0.0000000000000000e+00 1
1.3512352868233313e-01 -7.0794470248366048e-02 0.0000000000000000e+00 1
4.3501962666740238e-02 -7.8685823920925879e-02 0.0000000000000000e+00 1
7.0841505133085694e-02 -9.4395476830848174e-02 0.0000000000000000e+00 1
1.8985010718278167e-01 -1.3735358078535456e-01 0.0000000000000000e+00 1
1.0453882178821813e-01 -4.7876943281214085e-02 0.0000000000000000e+00 1
-3.0374364717992573e-02 -1.7288948001435850e-02 0.0000000000000000e+00 1
-6.9766983264207591e-02 3.6852199123422101e-02 0.0000000000000000e+00 1
9.7640499782343820e-02 -1.0719664249233045e-01 0.0000000000000000e+00 1
-1.4370485895817742e-01 1.0184571455210704e-01 0.0000000000000000e+00 1
4.1198393407327519e-02 -3.1286370717304536e-02 0.0000000000000000e+00 1
-1.1576239867843074e-01 8.1396131324953172e-02 0.0000000000000000e+00 1
-7.3390417765533192e-02 2.7672395645577403e-02 0.0000000000000000e+00 1
1.5897240733797460e-02 6.3607720940398946e-02 0.0000000000000000e+00 1
1.9376437831594384e-01 -9.5903143208529107e-02 0.0000000000000000e+00 1
-9.8921213235737090e-02 3.2464168701732063e-02 0.0000000000000000e+00 1
-1.6724986805369593e-01 1.0503341265354960e-01 0.0000000000000000e+00 1
1.6294328561331048e-01 -9.2228064623851497e-02 0.0000000000000000e+00 1
-1.0217031596382106e-01 2.3430366614779069e-02 0.0000000000000000e+00 1
9.7548690394899495e-02 -3.9807394333882716e-02 0.0000000000000000e+00 1
2.7263882517317074e-02 -4.3309482967426344e-02 0.0000000000000000e+00 1
-1.9607247042596787e-01 1.1608809805898886e-01 0.0000000000000000e+00 1
-2.0114172750646319e-02 5.6997073538303834e-02 0.0000000000000000e+00 1
1.1569805121595107e-01 -1.1442764136152349e-01 0.0000000000000000e+00 1
-9.2839712385484968e-02 9.3263839444103769e-02 0.0000000000000000e+00 1
1.3254969919596973e-01 -1.0619280456408355e-01 0.0000000000000000e+00 1
2.1523118354590354e-01 -1.2378588153085711e-01 0.0000000000000000e+00 1
2.0764995722455329e-01 -1.1521284031724126e-01 0.0000000000000000e+00 1
8.8506964702563057e-02 -1.0343954070246088e-01 0.0000000000000000e+00 1
1.4904166590222140e-01 -1.2695430816275519e-01 0.0000000000000000e+00 1
-8.6170802257714164e-04 8.2050209215740078e-02 0.0000000000000000e+00 1
5.5035666966375962e-02 -7.5600264763244662e-02 0.0000000000000000e+00 1
-1.5144432267912769e-01 4.3790803279117947e-02 0.0000000000000000e+00 1
1.0410083130343131e-02 6.8468467933291963e-02 0.0000000000000000e+00 1
-1.3358297662841440e-02 -5.0103782378386530e-02 0.0000000000000000e+00 1
-2.0875410694655577e-01 1.1632691146150588e-01 0.0000000000000000e+00 1
2.1365860857406233e-02 5.8608037768685582e-02 0.0000000000000000e+00 1
-1.1870917274478639e-01 9.7078403246914552e-02 0.0000000000000000e+00 1
1.4440505858510604e-02 -5.6003457287515351e-02 0.0000000000000000e+00 1
2.8607935846016803e-02 2.1928985115257236e-02 0.0000000000000000e+00 1
-2.1415714437393543e-01 1.1584574756462773e-01 0.0000000000000000e+00 1
-8.9958555134302710e-03 1.3759747424663930e-02 0.0000000000000000e+00 1
-3.2712759047608744e-02 -2.7733739789110253e-02 0.0000000000000000e+00 1
1.0042838645715853e-01 -2.8695475360216150e-02 0.0000000000000000e+00 1
1.9769133096061603e-01 -1.2221094778373831e-01 0.0000000000000000e+00 1
7.8318118196833472e-02 4.7695555348992629e-03 0.0000000000000000e+00 1
-8.1616412688548835e-03 5.2309458275337985e-02 0.0000000000000000e+00 1
1.2477955473109270e-01 -1.1822243064196353e-01 0.0000000000000000e+00 1
8.0135901907968321e-02 -9.0051147102452753e-02 0.0000000000000000e+00 1
1.8534744962914243e-01 -9.7429888863447764e-02 0.0000000000000000e+00 1
1.3497208500280386e-01 -4.1592579399685636e-02 0.0000000000000000e+00 1
6.2549643152442588e-02 2.2220539071020878e-02 0.0000000000000000e+00 1
1.5008209532765074e-01 -7.5924034085386879e-02 0.0000000000000000e+00 1
5.0244847596504924e-02 -9.6984326109986153e-04 0.0000000000000000e+00 1
3.5250938789158213e-02 1.5084911792381688e-02 0.0000000000000000e+00 1
3.2931040439017720e-02 4.9140038767940325e-03 0.0000000000000000e+00 1
-1.4028614873218948e-01 4.4941539549254651e-02 0.0000000000000000e+00 1
-2.3258906669152653e-02 8.2684882818616509e-02 0.0000000000000000e+00 1
-2.2728756125971909e-02 2.0869485852803692e-02 0.0000000000000000e+00 1
-1.2736091185066908e-01 1.0905856093481385e-01 0.0000000000000000e+00 1
-5.7178243908457056e-02 8.8390142672129801e-02 0.0000000000000000e+00 1
8.7181671832231768e-03 7.8281067970471768e-02 0.0000000000000000e+00 1
-2.1091973506681289e-01 1.0186143515226813e-01 0.0000000000000000e+00 1
3.3691641205863820e-02 4.7559652902866990e-02 0.0000000000000000e+00 1
-1.5912673679263115e-01 5.9940924799826940e-02 0.0000000000000000e+00 1
-1.1102254664927602e-01 2.2224318456555561e-02 0.0000000000000000e+00 1
-3.8888200529692406e-02 2.6439188023847034e-02 0.0000000000000000e+00 1
-5.6789486675973833e-02 -1.1948876828794655e-02 0.0000000000000000e+00 1
2.1616463783610668e-01 -1.3423015434441324e-01 0.0000000000000000e+00 1
4.0758684459519127e-02 4.1498339135383741e-02 0.0000000000000000e+00 1
1.0283035525713509e-01 -1.7783215334733347e-02 0.0000000000000000e+00 1
-4.5905420002518883e-02 1.3865664295221696e-02 0.0000000000000000e+00 1
-1.7937100167769660e-01 7.3018208875697058e-02 0.0000000000000000e+00 1
-5.8391102848757447e-02 2.2130917934217870e-02 0.0000000000000000e+00 1
2.0352597885601750e-01 -1.3623846698351366e-01 0.0000000000000000e+00 1
2.7496165650388177e-02 5.3248408222716308e-02 0.0000000000000000e+00 1
-2.0294912972835269e-01 9.3511197978573532e-02 0.0000000000000000e+00 1
2.0821933292546171e-01 -1.2210083920970036e-01 0.0000000000000000e+00 1
-1.5434837444399822e-02 5.1414919146990874e-02 0.0000000000000000e+00 1
5.6714061022200737e-02 3.7741187532748861e-02 0.0000000000000000e+00 1
-8.3086327974377872e-02 9.3541433405291294e-02 0.0000000000000000e+00 1
-1.3760928273293838e-01 1.1027910702328912e-01 0.0000000000000000e+00 1
1.7729429396098795e-01 -9.8993308283247858e-02 0.0000000000000000e+00 1
1.4325462146805346e-01 -7.0139567600974215e-02 0.0000000000000000e+00 1
-1.5989554297556563e-01 1.0666198252562788e-01 0.0000000000000000e+00 1
4.7641915293601025e-02 3.5271978256222032e-02 0.0000000000000000e+00 1
3.9194587128107410e-02 -6.8829112546923407e-02 0.0000000000000000e+00 1
-8.8475195462422884e-02 8.5202488315568106e-03 0.0000000000000000e+00 1
-2.0571768933858564e-01 1.1141274818384672e-01 0.0000000000000000e+00 1
8.5380880880683310e-02 -1.3523484487085725e-02 0.0000000000000000e+00 1
6.4348390167852196e-02 3.1289573505118205e-02 0.0000000000000000e+00 1
7.8973466775173222e-04 7.7213366966590938e-02 0.0000000000000000e+00 1
-4.6636000602010882e-02 -1.0332672973472368e-02 0.0000000000000000e+00 1
1.8811844965564151e-01 -1.3094931971232626e-01 0.0000000000000000e+00 1
2.2173848306587660e-01 -1.3494717173684215e-01 0.0000000000000000e+00 1
-2.5846023244399548e-02 -3.2907062732369291e-02 0.0000000000000000e+00 1
-1.9972539620011479e-01 1.1128801460609872e-01 0.0000000000000000e+00 1
1.7406754296536076e-01 -1.3526615346011936e-01 0.0000000000000000e+00 1
-2.0485688159012069e-01 1.0207352942482227e-01 0.0000000000000000e+00 1
-1.8216374993479170e-01 6.6175611669894829e-02 0.0000000000000000e+00 1
-4.1373074950680740e-03 -4.6376263187743724e-02 0.0000000000000000e+00 1
7.0225952491964630e-02 1.4390723246238307e-02 0.0000000000000000e+00 1
-2.1428455727991666e-01 9.6503400850496662e-02 0.0000000000000000e+00 1
-1.8110533639421983e-01 1.1658097404820995e-01 0.0000000000000000e+00 1
-1.7238903272616568e-01 5.8549353844086188e-02 0.0000000000000000e+00 1
7.8086493075668534e-02 -5.7736413882954959e-03 0.0000000000000000e+00 1
1.9387813924683328e-01 -1.3278239245963711e-01 0.0000000000000000e+00 1
6.1605416619350296e-02 -8.1520761349361232e-02 0.0000000000000000e+00 1
1.6244616015567684e-01 -1.2346160429700528e-01 0.0000000000000000e+00 1
1.0466118275450810e-01 -1.0287365545873704e-01 0.0000000000000000e+00 1
2.1878869236044329e-01 -1.2763985870481842e-01 0.0000000000000000e+00 1
1.4109301375333705e-01 -1.2599662948538254e-01 0.0000000000000000e+00 1
2.1887758038555465e-02 -6.2008693637371361e-02 0.0000000000000000e+00 1
1.7093017344914710e-01 -9.2142713845519586e-02 0.0000000000000000e+00 1
-4.8844987496067055e-02 8.7943686937991872e-02 0.0000000000000000e+00 1
-1.0751890688045497e-01 1.0732491019249334e-01 0.0000000000000000e+00 1
-2.2708254721457760e-01 1.0768684165901726e-01 0.0000000000000000e+00 1
1.3089774313992761e-01 -1.1356099247470058e-01 0.0000000000000000e+00 1
-1.3792085862473200e-01 2.9609212630830200e-02 0.0000000000000000e+00 1
1.4445108365966669e-01 -5.4527878502409151e-02 0.0000000000000000e+00 1
-2.2353644254952409e-01 1.0719011863172125e-01 0.0000000000000000e+00 1
-1.9868267788676852e-01 8.8527405844387230e-02 0.0000000000000000e+00 1
-2.8687841673020534e-02 4.8377381663384407e-02 0.0000000000000000e+00 1
-1.0451317627764706e-01 1.5563986030969925e-02 0.0000000000000000e+00 1
-3.7485122162650229e-02 8.5353591080801372e-02 0.0000000000000000e+00 1
-1.6048427115215189e-01 4.7083447952249079e-02 0.0000000000000000e+00 1
-2.2235687114098962e-01 1.1568720554189905e-01 0.0000000000000000e+00 1
8.6803110556606708e-02 -9.5661894369007267e-02 0.0000000000000000e+00 1
-7.4947502606672656e-02 9.3835604308911580e-02 0.0000000000000000e+00 1
-1.9400539705503353e-01 1.1101845717223015e-01 0.0000000000000000e+00 1
2.0292127682231009e-01 -1.2048678466878777e-01 0.0000000000000000e+00 1
1.6477695574700574e-01 -8.5098374862238077e-02 0.0000000000000000e+00 1
-2.0743179502579415e-01 9.7654374562899632e-02 0.0000000000000000e+00 1
-1.6814488403762630e-02 8.2434210635213750e-02 0.0000000000000000e+00 1
-7.0933909074317972e-02 -6.0760377474759087e-03 0.0000000000000000e+00 1
2.2073732470805743e-01 -1.3993080019353293e-01 0.0000000000000000e+00 1
-6.2949869708230730e-02 1.2596046235206408e-02 0.0000000000000000e+00 1
-6.7076031582611287e-02 3.3103349670591943e-03 0.0000000000000000e+00 1
-2.2100569294991482e-01 1.1356014545328291e-01 0.0000000000000000e+00 1
2.1405668362342262e-01 -1.4370069737640712e-01 0.0000000000000000e+00 1
-8.8358560752490253e-02 -6.4122019030465891e-03 0.0000000000000000e+00 1
1.3990605806918829e-01 -3.5380228128499218e-02 0.0000000000000000e+00 1
-2.2910834364446192e-01 1.1154716608761912e-01 0.0000000000000000e+00 1
-2.0257532517993962e-01 1.0628098711630413e-01 0.0000000000000000e+00 1
-3.6961125603084510e-02 4.6531572827291111e-02 0.0000000000000000e+00 1
2.1922346976213133e-01 -1.3577667790202796e-01 0.0000000000000000e+00 1
1.9708024867236837e-01 -1.2779047980696381e-01 0.0000000000000000e+00 1
7.2327604755921426e-02 -3.8992709891671486e-04 0.0000000000000000e+00 1
-1.5182602947341478e-01 9.7375570157201483e-02 0.0000000000000000e+00 1
-2.2629651302639314e-02 5.1300618853060018e-02 0.0000000000000000e+00 1
-2.8456031833479709e-02 1.7193183266670319e-02 0.0000000000000000e+00 1
-1.2390011917383772e-01 1.0195922984769439e-01 0.0000000000000000e+00 1
6.5305821915187176e-02 -1.0729516460318200e-03 0.0000000000000000e+00 1

Edges
130
1 2 1
2 3 1
3 4 1
4 5 1
5 6 1
6 7 1
7 8 1
8 9 1
9 10 1
10 11 1
11 12 1
12 13 1
13 14 1
14 15 1
15 16 1
16 17 1
17 18 1
18 19 1
19 20 1
20 21 1
21 22 1
22 23 1
23 24 1
24 25 1
25 26 1
26 27 1
27 28 1
28 29 1
29 30 1
30 31 1
31 32 1
32 33 1
33 34 1
34 35 1
35 36 1
36 37 1
37 38 1
38 39 1
39 40 1
40 41 1
41 42 1
42 43 1
43 44 1
44 45 1
45 46 1
46 47 1
47 48 1
48 49 1
49 50 1
50 51 1
51 52 1
52 53 1
53 54 1
54 55 1
55 56 1
56 57 1
57 58 1
58 59 1
59 60 1
60 61 1
61 62 1
62 63 1
63 64 1
64 65 1
65 66 1
66 67 1
67 68 1
68 69 1
69 70 1
70 71 1
71 72 1
72 73 1
73 74 1
74 75 1
75 76 1
76 77 1
77 78 1
78 79 1
79 80 1
80 81 1
81 82 1
82 83 1
83 84 1
84 85 1
85 86 1
86 87 1
87 88 1
88 89 1
89 90 1
90 91 1
91 92 1
92 93 1
93 94 1
94 95 1
95 96 1
96 97 1
97 98 1
98 99 1
99 100 1
100 101 1
101 102 1
102 103 1
103 104 1
104 105 1
105 106 1
106 107 1
107 108 1
108 109 1
109 110 1
110 111 1
111 112 1
112 113 1
113 114 1
114 115 1
115 116 1
116 117 1
117 118 1
118 119 1
119 120 1
120 121 1
121 122 1
122 123 1
123 124 1
124 125 1
125 126 1
126 127 1
127 128 1
128 129 1
129 130 1
130 1 1

Triangles
1366
535 599 628 1
525 398 689 1
398 525 603 1
25 148 436 1
72 73 193 1
73 174 193 1
3 180 184 1
674 624 727 1
423 400 638 1
367 342 573 1
504 592 600 1
469 468 569 1
447 452 650 1
529 372 531 1
260 423 638 1
148 416 436 1
459 366 613 1
153 565 626 1
342 388 573 1
565 153 705 1
24 25 436 1
93 145 512 1
92 93 512 1
372 529 649 1
413 471 476 1
418 157 581 1
135 415 588 1
222 223 557 1
432 176 540 1
189 623 674 1
529 528 649 1
173 407 593 1
416 148 543 1
624 405 727 1
312 554 556 1
599 535 683 1
649 528 680 1
557 556 559 1
468 349 569 1
139 408 580 1
192 713 717 1
458 171 501 1
55 56 461 1
349 468 470 1
599 142 628 1
280 483 663 1
407 173 683 1
483 280 668 1
452 246 650 1
312 556 557 1
592 504 704 1
404 664 689 1
458 366 459 1
149 536 701 1
642 524 698 1
469 569 721 1
152 414 716 1
408 139 684 1
471 279 476 1
150 567 568 1
222 557 558 1
414 152 647 1
159 624 674 1
497 525 689 1
623 159 674 1
559 556 706 1
417 416 543 1
567 150 708 1
176 432 574 1
78 79 202 1
253 255 478 1
656 59 678 1
223 312 557 1
79 200 202 1
270 253 478 1
536 149 661 1
451 642 698 1
418 581 582 1
426 131 688 1
149 516 661 1
161 490 492 1
349 470 471 1
370 345 433 1
664 497 689 1
610 507 630 1
141 55 461 1
514 629 653 1
640 543 667 1
713 181 717 1
192 191 713 1
266 263 474 1
184 179 736 1
507 175 630 1
554 312 561 1
559 147 620 1
603 525 639 1
523 640 667 1
477 270 478 1
154 459 613 1
181 202 717 1
177 201 671 1
179 184 185 1
411 656 678 1
516 149 722 1
279 470 494 1
175 426 630 1
158 485 665 1
135 588 692 1
412 413 719 1
470 279 471 1
415 135 631 1
177 130 201 1
367 573 635 1
280 430 668 1
275 279 494 1
569 570 721 1
454 270 477 1
165 462 545 1
719 413 741 1
430 280 670 1
400 478 638 1
344 431 432 1
512 145 583 1
504 600 645 1
450 447 650 1
202 196 717 1
457 458 501 1
425 424 426 1
329 371 424 1
300 450 650 1
157 418 718 1
171 458 700 1
225 227 561 1
247 246 652 1
161 492 694 1
200 79 699 1
429 499 664 1
420 361 457 1
170 455 456 1
189 485 623 1
331 424 425 1
413 476 741 1
246 452 652 1
147 559 706 1
438 441 460 1
270 454 549 1
514 516 629 1
629 146 653 1
545 462 657 1
511 510 653 1
492 563 594 1
427 151 634 1
475 387 617 1
176 45 540 1
195 198 637 1
344 332 431 1
292 275 494 1
461 56 712 1
38 132 487 1
348 349 471 1
200 196 202 1
331 329 424 1
329 327 371 1
299 326 327 1
405 488 641 1
263 262 474 1
45 46 540 1
361 359 457 1
162 195 637 1
483 264 663 1
328 327 329 1
43 44 627 1
37 38 487 1
298 306 437 1
405 204 488 1
560 559 620 1
312 225 561 1
133 47 500 1
537 86 701 1
140 32 687 1
131 426 658 1
425 426 688 1
413 348 471 1
423 260 655 1
660 163 672 1
367 475 617 1
558 557 559 1
426 424 630 1
585 362 745 1
370 433 654 1
211 214 564 1
289 298 299 1
131 43 627 1
86 537 696 1
203 405 624 1
47 48 500 1
146 511 653 1
426 175 658 1
345 344 433 1
338 360 464 1
487 132 633 1
419 420 421 1
173 599 683 1
227 230 561 1
230 551 552 1
450 300 749 1
564 214 565 1
421 420 422 1
230 552 561 1
130 1 201 1
503 505 551 1
432 431 574 1
262 259 472 1
132 507 610 1
362 585 681 1
17 18 533 1
299 298 326 1
437 306 438 1
166 533 534 1
262 472 473 1
166 17 533 1
552 554 561 1
330 329 331 1
400 394 477 1
400 477 478 1
336 338 464 1
255 254 256 1
360 359 361 1
308 281 481 1
467 468 469 1
299 328 453 1
359 366 457 1
484 439 578 1
1 2 179 1
299 327 328 1
44 45 176 1
374 515 562 1
508 351 510 1
266 474 719 1
253 252 254 1
418 361 419 1
305 503 551 1
254 484 578 1
465 292 494 1
77 78 181 1
258 288 289 1
258 256 288 1
257 256 258 1
419 421 673 1
40 41 175 1
484 290 636 1
141 461 621 1
183 180 732 1
479 305 544 1
558 559 560 1
338 358 359 1
419 361 420 1
289 288 298 1
402 482 483 1
510 351 513 1
437 438 460 1
569 370 570 1
36 37 163 1
251 250 252 1
454 481 549 1
292 465 495 1
385 546 607 1
48 49 164 1
46 47 133 1
249 251 549 1
305 233 544 1
92 512 715 1
38 39 132 1
222 558 589 1
289 299 453 1
457 366 458 1
394 392 477 1
467 466 468 1
155 20 527 1
515 318 562 1
269 267 476 1
204 206 488 1
338 359 360 1
463 466 467 1
264 483 747 1
251 270 549 1
551 505 552 1
486 531 532 1
402 397 482 1
401 603 639 1
410 376 495 1
499 429 731 1
378 336 464 1
253 254 255 1
155 527 529 1
203 204 405 1
134 496 497 1
359 358 366 1
343 308 481 1
305 479 503 1
215 357 566 1
31 140 524 1
360 361 418 1
313 318 513 1
335 324 336 1
134 101 496 1
420 457 501 1
336 337 338 1
252 290 484 1
251 252 253 1
136 51 545 1
478 255 638 1
129 130 177 1
275 273 279 1
20 21 527 1
51 52 545 1
169 103 498 1
262 473 474 1
527 528 529 1
371 610 630 1
170 99 499 1
462 410 463 1
254 252 484 1
249 247 250 1
536 537 701 1
357 217 589 1
546 291 607 1
500 570 654 1
80 81 178 1
387 546 617 1
102 169 496 1
396 400 423 1
50 136 506 1
526 287 609 1
182 183 732 1
396 394 400 1
581 168 582 1
18 19 486 1
217 219 589 1
30 31 524 1
148 542 543 1
249 250 251 1
405 641 727 1
392 454 477 1
417 543 640 1
100 134 499 1
323 322 324 1
16 17 166 1
165 53 547 1
252 250 290 1
29 30 519 1
13 14 203 1
552 505 553 1
104 135 498 1
465 410 495 1
327 326 434 1
488 352 489 1
208 210 491 1
63 64 459 1
409 410 462 1
481 281 549 1
432 540 730 1
163 37 487 1
151 427 712 1
335 336 378 1
382 526 609 1
513 318 514 1
464 360 582 1
463 465 466 1
565 567 626 1
276 292 595 1
279 273 476 1
206 352 488 1
391 390 392 1
554 553 555 1
536 378 537 1
351 508 571 1
393 392 394 1
19 20 155 1
233 235 544 1
245 244 246 1
336 324 337 1
316 321 322 1
261 259 262 1
14 15 156 1
245 246 247 1
52 53 165 1
514 318 515 1
351 313 513 1
36 163 493 1
163 487 672 1
100 101 134 1
102 103 169 1
392 390 454 1
48 164 500 1
21 22 502 1
554 555 556 1
206 208 352 1
508 307 571 1
316 322 323 1
34 35 137 1
331 425 431 1
323 324 335 1
65 66 171 1
472 453 473 1
255 256 257 1
155 529 531 1
338 337 358 1
143 29 519 1
19 155 486 1
104 105 135 1
31 32 140 1
552 553 554 1
98 99 170 1
506 469 721 1
395 394 396 1
496 169 525 1
314 315 316 1
148 26 542 1
424 371 630 1
409 376 410 1
461 364 621 1
22 152 502 1
533 532 534 1
62 63 154 1
50 51 136 1
289 453 472 1
316 323 562 1
243 242 244 1
288 256 578 1
22 23 152 1
452 651 652 1
389 343 390 1
497 496 525 1
273 269 476 1
53 54 547 1
519 30 524 1
60 61 167 1
243 244 245 1
313 304 314 1
258 289 472 1
375 376 409 1
82 83 157 1
96 139 580 1
514 515 516 1
582 168 669 1
344 432 433 1
99 100 499 1
143 519 520 1
347 345 370 1
503 480 504 1
239 238 517 1
326 298 437 1
28 29 143 1
292 495 595 1
347 370 569 1
18 486 533 1
96 97 139 1
389 390 391 1
265 263 266 1
391 392 393 1
236 317 522 1
323 374 562 1
210 211 564 1
486 155 531 1
101 102 496 1
303 302 304 1
335 378 536 1
106 107 172 1
337 324 591 1
509 508 510 1
318 314 562 1
503 504 505 1
399 397 402 1
566 357 568 1
313 314 318 1
428 403 430 1
486 532 533 1
241 242 243 1
517 238 518 1
322 321 550 1
589 558 622 1
132 39 507 1
21 502 527 1
322 550 591 1
25 26 148 1
334 332 344 1
314 304 315 1
296 302 303 1
235 237 575 1
127 128 161 1
564 565 705 1
248 247 249 1
256 254 578 1
316 315 321 1
320 373 608 1
272 269 273 1
35 36 493 1
296 301 302 1
125 126 594 1
90 91 146 1
103 104 498 1
544 235 575 1
468 466 470 1
226 224 586 1
393 394 395 1
303 304 313 1
54 55 141 1
238 236 522 1
84 85 168 1
328 329 330 1
397 396 482 1
82 157 548 1
16 166 611 1
576 284 577 1
596 302 608 1
172 572 573 1
375 365 376 1
137 35 493 1
241 239 242 1
52 165 545 1
509 510 511 1
93 94 145 1
396 423 482 1
294 295 296 1
463 410 465 1
57 58 151 1
495 376 577 1
296 303 571 1
479 380 480 1
479 480 503 1
390 343 481 1
244 242 300 1
167 584 585 1
522 317 523 1
281 249 549 1
259 258 472 1
373 539 608 1
283 278 284 1
237 239 240 1
306 288 578 1
527 502 528 1
240 239 241 1
278 276 595 1
237 238 239 1
282 278 283 1
172 107 572 1
399 402 403 1
373 427 634 1
297 319 325 1
382 384 526 1
87 88 149 1
230 231 551 1
350 307 508 1
245 247 248 1
395 396 397 1
362 337 591 1
363 365 375 1
67 68 160 1
379 325 380 1
240 241 291 1
297 291 319 1
240 291 297 1
360 418 582 1
243 597 607 1
231 305 551 1
39 40 507 1
325 386 535 1
26 27 542 1
380 325 535 1
124 125 153 1
154 63 459 1
325 319 386 1
387 319 546 1
108 109 138 1
407 387 475 1
342 308 343 1
110 111 173 1
350 508 509 1
294 285 295 1
274 273 275 1
314 316 562 1
297 325 379 1
386 387 407 1
319 291 546 1
386 319 387 1
231 233 305 1
261 262 263 1
227 229 230 1
388 343 389 1
283 284 285 1
303 351 571 1
379 380 479 1
546 385 617 1
296 295 301 1
363 309 365 1
276 275 292 1
475 367 635 1
8 9 158 1
587 586 598 1
251 253 270 1
340 226 586 1
431 425 574 1
169 498 639 1
620 120 644 1
46 133 540 1
597 385 607 1
307 294 571 1
237 236 238 1
11 12 159 1
365 576 577 1
294 296 571 1
293 285 294 1
421 422 740 1
143 520 521 1
223 225 312 1
369 340 414 1
121 122 150 1
219 222 589 1
414 586 587 1
242 239 517 1
491 210 563 1
112 113 142 1
297 379 575 1
143 521 541 1
108 138 572 1
235 236 237 1
115 116 144 1
107 108 572 1
118 119 147 1
320 364 373 1
248 249 281 1
473 453 643 1
342 343 388 1
54 141 547 1
113 114 592 1
175 41 658 1
27 541 542 1
605 555 625 1
365 309 576 1
257 258 259 1
594 563 705 1
321 368 550 1
237 240 575 1
454 390 481 1
272 273 274 1
565 566 567 1
293 294 307 1
558 560 622 1
382 383 384 1
517 518 538 1
28 143 541 1
577 284 595 1
295 285 576 1
219 221 222 1
265 266 267 1
438 440 441 1
240 297 575 1
283 285 293 1
298 288 306 1
379 544 575 1
320 309 363 1
285 284 576 1
95 96 580 1
324 322 591 1
304 302 596 1
233 234 235 1
404 403 428 1
277 276 278 1
427 364 461 1
94 95 579 1
214 215 566 1
374 335 536 1
550 368 606 1
373 364 427 1
388 389 415 1
109 110 593 1
379 479 544 1
235 234 236 1
301 309 320 1
230 229 231 1
355 381 382 1
27 28 541 1
277 278 282 1
398 397 399 1
300 517 538 1
145 94 579 1
110 173 593 1
323 335 374 1
376 365 577 1
301 295 309 1
303 313 351 1
670 526 733 1
231 232 233 1
309 295 576 1
320 363 364 1
422 420 501 1
167 61 584 1
495 577 595 1
286 281 308 1
518 238 522 1
414 340 586 1
321 339 368 1
353 282 354 1
469 506 711 1
283 293 590 1
310 308 342 1
565 214 566 1
233 232 234 1
291 241 607 1
300 242 517 1
271 269 272 1
277 282 353 1
61 62 584 1
341 416 417 1
40 175 507 1
311 307 350 1
391 393 401 1
368 406 411 1
84 168 581 1
573 388 697 1
555 605 706 1
129 177 601 1
282 283 590 1
636 290 651 1
248 281 286 1
509 511 512 1
274 275 276 1
310 342 367 1
489 352 490 1
286 310 385 1
286 308 310 1
215 217 357 1
539 596 608 1
70 71 162 1
236 234 317 1
231 229 232 1
466 465 494 1
293 307 311 1
138 109 593 1
399 403 404 1
382 381 383 1
166 534 646 1
384 383 455 1
332 331 431 1
415 389 588 1
353 354 355 1
62 154 584 1
243 245 597 1
350 509 583 1
311 350 377 1
284 278 595 1
434 326 435 1
271 272 287 1
579 95 580 1
404 428 429 1
355 354 356 1
389 391 588 1
357 589 622 1
356 612 615 1
381 356 408 1
268 267 269 1
222 221 223 1
485 187 665 1
395 397 398 1
14 156 203 1
89 90 629 1
447 445 452 1
321 315 339 1
516 515 661 1
111 112 599 1
49 50 506 1
170 456 737 1
142 113 592 1
173 111 599 1
651 290 652 1
293 311 590 1
268 271 280 1
227 228 229 1
444 446 449 1
352 208 491 1
358 337 362 1
355 356 381 1
455 383 456 1
287 604 609 1
391 401 588 1
354 282 590 1
430 670 733 1
272 274 604 1
604 353 609 1
355 382 609 1
371 327 434 1
377 350 583 1
509 512 583 1
81 82 548 1
498 135 692 1
264 263 265 1
179 185 186 1
315 304 596 1
268 269 271 1
274 276 277 1
225 226 227 1
406 339 539 1
260 259 261 1
208 209 210 1
228 226 340 1
135 105 631 1
341 340 369 1
114 115 600 1
153 125 594 1
368 339 406 1
211 213 214 1
612 377 615 1
83 84 581 1
416 369 436 1
229 228 602 1
414 587 716 1
648 140 687 1
232 229 602 1
341 417 602 1
112 142 599 1
241 243 607 1
167 585 606 1
248 286 597 1
301 320 608 1
341 369 416 1
490 491 492 1
218 216 372 1
418 419 718 1
286 385 597 1
302 301 608 1
245 248 597 1
117 118 605 1
223 224 225 1
178 81 548 1
227 226 228 1
274 277 604 1
228 340 341 1
464 582 669 1
567 566 568 1
287 272 604 1
265 267 268 1
380 535 628 1
128 129 601 1
592 114 600 1
356 354 612 1
161 128 601 1
228 341 602 1
225 224 226 1
334 344 345 1
277 353 604 1
106 172 631 1
10 623 707 1
401 393 603 1
223 221 224 1
493 163 660 1
115 144 600 1
164 49 506 1
261 263 264 1
385 310 617 1
339 315 596 1
439 306 578 1
132 610 633 1
470 466 494 1
364 363 621 1
349 347 569 1
393 395 603 1
330 331 332 1
458 459 700 1
221 220 598 1
157 83 581 1
42 43 131 1
206 207 208 1
570 370 654 1
448 450 451 1
317 234 616 1
15 16 611 1
214 213 215 1
493 660 666 1
219 220 221 1
136 545 657 1
354 590 612 1
366 358 613 1
353 355 609 1
519 524 642 1
499 134 664 1
539 339 596 1
176 574 627 1
590 311 612 1
368 411 606 1
550 606 745 1
402 483 668 1
586 224 598 1
395 398 603 1
448 447 450 1
118 147 605 1
500 164 570 1
250 247 652 1
474 473 675 1
232 602 616 1
79 80 699 1
139 456 684 1
119 120 620 1
441 440 442 1
311 377 612 1
462 463 657 1
210 209 211 1
456 139 737 1
234 232 616 1
224 221 598 1
189 187 485 1
203 156 204 1
217 218 219 1
492 491 563 1
310 367 617 1
215 216 217 1
438 306 439 1
123 124 626 1
147 119 620 1
446 447 448 1
476 267 741 1
215 213 216 1
219 218 220 1
408 356 615 1
602 417 616 1
446 445 447 1
133 500 654 1
257 259 260 1
144 116 625 1
66 67 618 1
439 484 636 1
358 362 613 1
217 216 218 1
208 207 209 1
10 11 623 1
444 445 446 1
68 69 632 1
606 585 745 1
348 347 349 1
563 210 564 1
490 352 491 1
204 205 206 1
372 216 614 1
244 300 650 1
444 443 445 1
363 375 621 1
13 203 624 1
211 209 212 1
556 555 706 1
89 629 722 1
171 66 618 1
346 348 412 1
523 317 640 1
442 443 444 1
44 176 627 1
116 117 625 1
568 357 622 1
211 212 213 1
213 212 614 1
58 59 656 1
543 542 667 1
346 345 347 1
438 439 440 1
487 633 672 1
537 378 669 1
442 440 443 1
117 605 625 1
492 594 694 1
369 414 647 1
346 347 348 1
371 434 610 1
560 620 644 1
12 13 624 1
480 380 628 1
572 138 635 1
412 348 413 1
124 153 626 1
33 676 687 1
510 513 653 1
521 523 667 1
206 205 207 1
404 429 664 1
216 213 614 1
333 332 334 1
435 437 460 1
430 403 668 1
120 121 644 1
553 505 645 1
600 144 645 1
427 461 712 1
521 520 686 1
485 158 707 1
523 521 686 1
156 15 611 1
90 146 629 1
334 345 346 1
452 445 651 1
419 673 718 1
522 523 686 1
459 64 700 1
375 409 677 1
587 528 716 1
6 7 182 1
435 326 437 1
453 328 643 1
541 521 667 1
204 156 205 1
333 334 619 1
33 34 676 1
260 261 655 1
179 2 736 1
629 516 722 1
460 660 672 1
190 641 743 1
482 423 747 1
218 372 649 1
86 87 701 1
105 106 631 1
160 68 632 1
530 190 743 1
440 439 636 1
539 373 634 1
136 657 711 1
460 441 660 1
346 412 619 1
41 42 658 1
255 257 638 1
186 185 187 1
24 436 738 1
59 60 678 1
573 572 635 1
98 170 737 1
205 156 611 1
374 536 661 1
386 407 683 1
73 74 174 1
198 632 637 1
194 195 735 1
67 160 618 1
268 280 663 1
195 194 196 1
334 346 619 1
69 70 637 1
488 489 641 1
528 587 680 1
490 161 690 1
686 520 702 1
330 332 333 1
167 606 678 1
446 448 648 1
504 480 704 1
264 265 663 1
611 166 646 1
511 146 715 1
648 448 698 1
406 539 634 1
444 449 682 1
362 591 745 1
75 76 191 1
525 169 639 1
280 271 670 1
139 97 737 1
3 184 736 1
85 86 696 1
11 159 623 1
195 197 198 1
152 23 738 1
594 126 694 1
583 145 662 1
606 411 678 1
520 519 642 1
610 434 633 1
257 260 638 1
158 665 742 1
434 435 633 1
456 383 684 1
328 330 643 1
174 191 192 1
399 404 689 1
381 408 684 1
287 526 670 1
587 598 680 1
153 594 705 1
4 5 180 1
505 504 645 1
528 502 716 1
524 140 698 1
57 151 712 1
146 91 715 1
246 244 650 1
317 616 640 1
473 643 675 1
443 440 636 1
195 162 735 1
421 695 729 1
137 493 666 1
616 417 640 1
150 122 708 1
635 138 709 1
377 583 662 1
423 655 747 1
515 374 661 1
188 187 189 1
330 333 643 1
121 150 644 1
433 432 730 1
631 172 697 1
695 421 740 1
489 703 743 1
436 369 647 1
127 161 694 1
180 183 184 1
149 88 722 1
646 534 679 1
513 514 653 1
159 12 624 1
449 446 648 1
77 181 713 1
65 171 700 1
188 190 530 1
220 218 649 1
290 250 652 1
443 636 651 1
660 441 666 1
462 165 725 1
463 467 657 1
32 33 687 1
205 611 646 1
9 10 707 1
140 648 698 1
212 679 710 1
212 209 679 1
584 154 681 1
207 205 646 1
623 485 707 1
449 676 682 1
632 69 637 1
445 443 651 1
151 58 656 1
191 174 739 1
188 189 190 1
123 626 708 1
506 136 711 1
475 635 709 1
647 152 738 1
266 719 741 1
673 421 729 1
411 406 748 1
261 264 655 1
659 699 729 1
677 409 725 1
512 511 715 1
676 449 687 1
164 506 721 1
142 592 704 1
162 71 723 1
2 3 736 1
489 690 703 1
455 170 731 1
134 497 664 1
154 613 681 1
42 131 658 1
300 538 749 1
415 631 697 1
378 464 669 1
530 177 671 1
145 579 662 1
195 196 197 1
542 541 667 1
403 402 668 1
618 160 693 1
198 197 199 1
626 567 708 1
615 377 662 1
520 642 702 1
409 462 725 1
657 467 711 1
265 268 663 1
161 601 690 1
197 196 200 1
137 666 682 1
179 186 201 1
220 649 680 1
639 498 692 1
174 192 193 1
628 142 704 1
187 185 665 1
659 200 699 1
547 141 677 1
186 187 188 1
76 77 713 1
271 287 670 1
170 499 731 1
70 162 637 1
537 669 696 1
585 584 681 1
71 72 723 1
441 442 666 1
172 573 697 1
553 645 724 1
8 158 691 1
474 675 746 1
178 548 673 1
656 411 748 1
633 435 672 1
207 646 679 1
574 425 688 1
185 183 665 1
435 460 672 1
7 8 691 1
593 407 709 1
535 386 683 1
60 167 678 1
141 621 677 1
72 193 723 1
34 137 676 1
679 534 710 1
643 333 675 1
64 65 700 1
131 627 688 1
598 220 680 1
80 178 699 1
383 381 684 1
615 662 720 1
518 522 686 1
614 710 728 1
691 158 742 1
666 442 682 1
177 530 703 1
181 78 202 1
601 177 703 1
333 619 675 1
489 490 690 1
555 553 724 1
126 127 694 1
442 444 682 1
398 399 689 1
209 207 679 1
613 362 681 1
1 179 201 1
621 375 677 1
662 579 720 1
501 171 726 1
645 144 724 1
184 183 185 1
196 194 717 1
428 430 733 1
731 429 734 1
171 618 726 1
150 568 714 1
518 686 702 1
467 469 711 1
614 212 710 1
676 137 682 1
428 733 734 1
188 530 671 1
87 149 701 1
588 401 692 1
429 428 734 1
388 415 697 1
627 574 688 1
190 189 674 1
710 532 728 1
197 200 659 1
538 518 702 1
548 157 718 1
618 693 726 1
122 123 708 1
199 197 659 1
168 85 696 1
655 264 747 1
502 152 716 1
619 412 746 1
448 451 698 1
91 92 715 1
534 532 710 1
483 482 747 1
193 192 194 1
56 57 712 1
138 593 709 1
702 642 744 1
165 547 725 1
407 475 709 1
591 550 745 1
532 531 728 1
531 372 728 1
88 89 722 1
625 555 724 1
568 622 714 1
201 186 671 1
133 654 730 1
547 677 725 1
563 564 705 1
622 560 714 1
422 501 726 1
673 548 718 1
401 639 692 1
436 647 738 1
580 408 720 1
605 147 706 1
579 580 720 1
23 24 738 1
97 98 737 1
449 648 687 1
267 266 741 1
455 731 734 1
160 632 685 1
641 190 727 1
654 433 730 1
733 384 734 1
699 178 729 1
186 188 671 1
526 384 733 1
480 628 704 1
632 198 685 1
198 199 685 1
384 455 734 1
665 183 742 1
174 74 739 1
144 625 724 1
669 168 696 1
408 615 720 1
372 614 728 1
560 644 714 1
451 450 749 1
570 164 721 1
5 6 732 1
158 9 707 1
540 133 730 1
644 150 714 1
74 75 739 1
162 723 735 1
182 7 691 1
685 199 740 1
6 182 732 1
634 151 748 1
75 191 739 1
693 685 740 1
199 659 695 1
412 719 746 1
406 634 748 1
693 422 726 1
642 451 744 1
641 489 743 1
160 685 693 1
151 656 748 1
190 674 727 1
191 76 713 1
690 601 703 1
180 5 732 1
183 182 742 1
194 192 717 1
178 673 729 1
422 693 740 1
675 619 746 1
695 659 729 1
193 194 735 1
538 702 744 1
199 695 740 1
703 530 743 1
719 474 746 1
182 691 742 1
723 193 735 1
744 451 749 1
538 744 749 1
3 4 180 1

End
