MeshVersionFormatted 2
Dimension 3

Vertices
273
1.2310388323597654e-01 -4.8337517851216941e-02 0.0000000000000000e+00 1
1.2632938474764266e-01 -4.9467992310958296e-02 0.0000000000000000e+00 1
1.3021704268648382e-01 -5.0849102815327125e-02 0.0000000000000000e+00 1
1.3468240941669379e-01 -5.2445532701133189e-02 0.0000000000000000e+00 1
1.3964103730246646e-01 -5.4221965305186318e-02 0.0000000000000000e+00 1
1.4500847870799577e-01 -5.6143083964296299e-02 0.0000000000000000e+00 1
1.5070028599747548e-01 -5.8173572015272894e-02 0.0000000000000000e+00 1
1.5663201153509948e-01 -6.0278112794925939e-02 0.0000000000000000e+00 1
1.6271920768506165e-01 -6.2421389640065203e-02 0.0000000000000000e+00 1
1.6887742681155582e-01 -6.4568085887500487e-02 0.0000000000000000e+00 1
1.7502222127877592e-01 -6.6682884874041601e-02 0.0000000000000000e+00 1
1.8106914345091574e-01 -6.8730469936498312e-02 0.0000000000000000e+00 1
1.8693374569216911e-01 -7.0675524411680429e-02 0.0000000000000000e+00 1
1.9253158036672996e-01 -7.2482731636397735e-02 0.0000000000000000e+00 1
1.9777819983879213e-01 -7.4116774947460037e-02 0.0000000000000000e+00 1
2.0258915647254949e-01 -7.5542337681677132e-02 0.0000000000000000e+00 1
2.0688000263219589e-01 -7.6724103175858802e-02 0.0000000000000000e+00 1
2.1056629068192517e-01 -7.7626754766814854e-02 0.0000000000000000e+00 1
2.1356357298593120e-01 -7.8214975791355071e-02 0.0000000000000000e+00 1
2.1578740190840789e-01 -7.8453449586289234e-02 0.0000000000000000e+00 1
2.1715332981354904e-01 -7.8306859488427194e-02 0.0000000000000000e+00 1
2.1757690906554852e-01 -7.7739888834578677e-02 0.0000000000000000e+00 1
2.1697369202860020e-01 -7.6717220961553506e-02 0.0000000000000000e+00 1
2.1525923106689793e-01 -7.5203539206161477e-02 0.0000000000000000e+00 1
2.1235174159751130e-01 -7.3089898656179333e-02 0.0000000000000000e+00 1
2.0910325573486740e-01 -7.0956901786604298e-02 0.0000000000000000e+00 1
2.0553926464868938e-01 -6.8808905020584829e-02 0.0000000000000000e+00 1
2.0168525950870042e-01 -6.6650264781269425e-02 0.0000000000000000e+00 1
1.9756673148462356e-01 -6.4485337491806488e-02 0.0000000000000000e+00 1
1.9320917174618171e-01 -6.2318479575344449e-02 0.0000000000000000e+00 1
1.8863807146309813e-01 -6.0154047455031751e-02 0.0000000000000000e+00 1
1.8387892180509596e-01 -5.7996397554016886e-02 0.0000000000000000e+00 1
1.7895721394189815e-01 -5.5849886295448258e-02 0.0000000000000000e+00 1
1.7389843904322783e-01 -5.3718870102474309e-02 0.0000000000000000e+00 1
1.6872808827880803e-01 -5.1607705398243484e-02 0.0000000000000000e+00 1
1.6347165281836196e-01 -4.9520748605904261e-02 0.0000000000000000e+00 1
1.5815462383161266e-01 -4.7462356148605049e-02 0.0000000000000000e+00 1
1.5280249248828312e-01 -4.5436884449494293e-02 0.0000000000000000e+00 1
1.4744074995809653e-01 -4.3448689931720456e-02 0.0000000000000000e+00 1
1.4209488741077597e-01 -4.1502129018431963e-02 0.0000000000000000e+00 1
1.3679039601604445e-01 -3.9601558132777277e-02 0.0000000000000000e+00 1
1.3155276694362511e-01 -3.7751333697904822e-02 0.0000000000000000e+00 1
1.2640749136324106e-01 -3.5955812136963049e-02 0.0000000000000000e+00 1
1.2138006044461536e-01 -3.4219349873100414e-02 0.0000000000000000e+00 1
1.1649596535747109e-01 -3.2546303329465349e-02 0.0000000000000000e+00 1
1.1178069727153131e-01 -3.0941028929206298e-02 0.0000000000000000e+00 1
1.0725974735651914e-01 -2.9407883095471703e-02 0.0000000000000000e+00 1
1.0295860678215767e-01 -2.7951222251410016e-02 0.0000000000000000e+00 1
9.8902766718169971e-02 -2.6575402820169680e-02 0.0000000000000000e+00 1
9.5117718334279122e-02 -2.5284781224899133e-02 0.0000000000000000e+00 1
9.1628952800208219e-02 -2.4083713888746819e-02 0.0000000000000000e+00 1
8.5755306829233519e-02 -2.2015641642876695e-02 0.0000000000000000e+00 1
7.9149633270060998e-02 -1.9632472098364974e-02 0.0000000000000000e+00 1
7.1857909221187913e-02 -1.6955257369303690e-02 0.0000000000000000e+00 1
6.3926111781111447e-02 -1.4005049569784874e-02 0.0000000000000000e+00 1
5.5400218048328863e-02 -1.0802900813900566e-02 0.0000000000000000e+00 1
4.6326205121337394e-02 -7.3698632157428029e-03 0.0000000000000000e+00 1
3.6750050098634239e-02 -3.7269888894036086e-03 0.0000000000000000e+00 1
2.6717730078716657e-02 1.0467005102496665e-04 0.0000000000000000e+00 1
1.6275222160081860e-02 4.1040614914509086e-03 0.0000000000000000e+00 1
5.4685034412270822e-03 8.2501333177821667e-03 0.0000000000000000e+00 1
-5.6564489793504286e-03 1.2521833415926697e-02 0.0000000000000000e+00 1
-1.7053658003153449e-02 1.6898109671792491e-02 0.0000000000000000e+00 1
-2.8677146531684808e-02 2.1357909971287510e-02 0.0000000000000000e+00 1
-4.0480937466447181e-02 2.5880182200319686e-02 0.0000000000000000e+00 1
-5.2419053708943397e-02 3.0443874244797033e-02 0.0000000000000000e+00 1
-6.4445518160676202e-02 3.5027933990627480e-02 0.0000000000000000e+00 1
-7.6514353723148382e-02 3.9611309323718986e-02 0.0000000000000000e+00 1
-8.8579583297862696e-02 4.4172948129979558e-02 0.0000000000000000e+00 1
-1.0059522978632196e-01 4.8691798295317126e-02 0.0000000000000000e+00 1
-1.1251531609002891e-01 5.3146807705639690e-02 0.0000000000000000e+00 1
-1.2429386511048629e-01 5.7516924246855186e-02 0.0000000000000000e+00 1
-1.3588489974919687e-01 6.1781095804871566e-02 0.0000000000000000e+00 1
-1.4724244290766342e-01 6.5918270265596809e-02 0.0000000000000000e+00 1
-1.5832051748738876e-01 6.9907395514938894e-02 0.0000000000000000e+00 1
-1.6907314638987569e-01 7.3727419438805814e-02 0.0000000000000000e+00 1
-1.7945435251662686e-01 7.7357289923105463e-02 0.0000000000000000e+00 1
-1.8941815876914508e-01 8.0775954853745849e-02 0.0000000000000000e+00 1
-1.9891858804893320e-01 8.3962362116634937e-02 0.0000000000000000e+00 1
-2.0790966325749394e-01 8.6895459597680677e-02 0.0000000000000000e+00 1
-2.1634540729633006e-01 8.9554195182791049e-02 0.0000000000000000e+00 1
-2.2417984306694433e-01 9.1917516757874018e-02 0.0000000000000000e+00 1
-2.3136699347083944e-01 9.3964372208837521e-02 0.0000000000000000e+00 1
-2.3786088140951833e-01 9.5673709421589564e-02 0.0000000000000000e+00 1
-2.4361552978448375e-01 9.7024476282038100e-02 0.0000000000000000e+00 1
-2.4858496149723830e-01 9.7995620676091064e-02 0.0000000000000000e+00 1
-2.5272319944928490e-01 9.8566090489656463e-02 0.0000000000000000e+00 1
-2.5598426654212625e-01 9.8714833608642250e-02 0.0000000000000000e+00 1
-2.5832218567726517e-01 9.8420797918956374e-02 0.0000000000000000e+00 1
-2.5969097975620442e-01 9.7662931306506842e-02 0.0000000000000000e+00 1
-2.6004467168044670e-01 9.6420181657201551e-02 0.0000000000000000e+00 1
-2.5933728435149489e-01 9.4671496856948506e-02 0.0000000000000000e+00 1
-2.5752284067085174e-01 9.2395824791655687e-02 0.0000000000000000e+00 1
-2.5455536354001990e-01 8.9572113347231030e-02 0.0000000000000000e+00 1
-2.5038887586050229e-01 8.6179310409582530e-02 0.0000000000000000e+00 1
-2.4527301132207452e-01 8.2391159231728350e-02 0.0000000000000000e+00 1
-2.3982433498131561e-01 7.8647208983033706e-02 0.0000000000000000e+00 1
-2.3405682910356829e-01 7.4947197256633027e-02 0.0000000000000000e+00 1
-2.2798447595417498e-01 7.1290861645660994e-02 0.0000000000000000e+00 1
-2.2162125779847824e-01 6.7677939743252119e-02 0.0000000000000000e+00 1
-2.1498115690182068e-01 6.4108169142540986e-02 0.0000000000000000e+00 1
-2.0807815552954484e-01 6.0581287436662121e-02 0.0000000000000000e+00 1
-2.0092623594699324e-01 5.7097032218750107e-02 0.0000000000000000e+00 1
-1.9353938041950861e-01 5.3655141081939556e-02 0.0000000000000000e+00 1
-1.8593157121243314e-01 5.0255351619364966e-02 0.0000000000000000e+00 1
-1.7811679059110966e-01 4.6897401424160920e-02 0.0000000000000000e+00 1
-1.7010902082088070e-01 4.3581028089462008e-02 0.0000000000000000e+00 1
-1.6192224416708867e-01 4.0305969208402730e-02 0.0000000000000000e+00 1
-1.5357044289507635e-01 3.7071962374117751e-02 0.0000000000000000e+00 1
-1.4506759927018609e-01 3.3878745179741550e-02 0.0000000000000000e+00 1
-1.3642769555776052e-01 3.0726055218408703e-02 0.0000000000000000e+00 1
-1.2766471402314225e-01 2.7613630083253828e-02 0.0000000000000000e+00 1
-1.1879263693167372e-01 2.4541207367411416e-02 0.0000000000000000e+00 1
-1.0982544654869753e-01 2.1508524664016072e-02 0.0000000000000000e+00 1
-1.0077712513955628e-01 1.8515319566202372e-02 0.0000000000000000e+00 1
-9.1661654969592471e-02 1.5561329667104848e-02 0.0000000000000000e+00 1
-8.2493018304148569e-02 1.2646292559858057e-02 0.0000000000000000e+00 1
-7.3285197408567426e-02 9.7699458375966174e-03 0.0000000000000000e+00 1
-6.4052174548191260e-02 6.9320270934550409e-03 0.0000000000000000e+00 1
-5.4807931988362785e-02 4.1322739205679106e-03 0.0000000000000000e+00 1
-4.5566451994424509e-02 1.3704239120697851e-03 0.0000000000000000e+00 1
-3.6341716831719079e-02 -1.3537853389047495e-03 0.0000000000000000e+00 1
-2.7147708765588918e-02 -4.0406162392211658e-03 0.0000000000000000e+00 1
-1.7998410061376591e-02 -6.6903311957448811e-03 0.0000000000000000e+00 1
-8.9078029844247564e-03 -9.3031926153413318e-03 0.0000000000000000e+00 1
1.1013019992406337e-04 -1.1879462904875940e-02 0.0000000000000000e+00 1
9.0414072263273887e-03 -1.4419404471214163e-02 0.0000000000000000e+00 1
1.7872045829442643e-02 -1.6923279721221436e-02 0.0000000000000000e+00 1
2.6588063743927189e-02 -1.9391351061763172e-02 0.0000000000000000e+00 1
3.5175478704438587e-02 -2.1823880899704839e-02 0.0000000000000000e+00 1
4.3620308445634241e-02 -2.4221131641911857e-02 0.0000000000000000e+00 1
5.1908570702171579e-02 -2.6583365695249668e-02 0.0000000000000000e+00 1
6.0026283208708037e-02 -2.8910845466583686e-02 0.0000000000000000e+00 1
6.7959463699901107e-02 -3.1203833362779369e-02 0.0000000000000000e+00 1
7.5694129910408220e-02 -3.3462591790702156e-02 0.0000000000000000e+00 1
8.3216299574886785e-02 -3.5687383157217464e-02 0.0000000000000000e+00 1
9.0511990427994321e-02 -3.7878469869190752e-02 0.0000000000000000e+00 1
9.7567220204388225e-02 -4.0036114333487437e-02 0.0000000000000000e+00 1
1.0436800663872596e-01 -4.2160578956972963e-02 0.0000000000000000e+00 1
1.1090036746566494e-01 -4.4252126146512756e-02 0.0000000000000000e+00 1
1.1715032041986265e-01 -4.6311018308972274e-02 0.0000000000000000e+00 1
1.2569565359227500e-01 -4.6109388832039619e-02 0.0000000000000000e+00 1
-2.0066350146850034e-01 6.5794956001231766e-02 0.0000000000000000e+00 1
-1.7106510590942919e-01 5.1616962486192575e-02 0.0000000000000000e+00 1
-1.8734839916986745e-01 5.7014723554319725e-02 0.0000000000000000e+00 1
-1.3795890324022622e-01 3.9137446167059255e-02 0.0000000000000000e+00 1
-2.1451295872438716e-01 7.2203892016456717e-02 0.0000000000000000e+00 1
-1.5438191990747802e-01 4.6888598826432884e-02 0.0000000000000000e+00 1
-2.2836496453663785e-01 7.9126331820796231e-02 0.0000000000000000e+00 1
-2.5692156594727750e-01 9.7046307719824684e-02 0.0000000000000000e+00 1
-1.1169336014623525e-01 3.0759046320148337e-02 0.0000000000000000e+00 1
9.2674275380001697e-02 -2.8306729028557791e-02 0.0000000000000000e+00 1
-2.3600564279264802e-01 8.9531857844427201e-02 0.0000000000000000e+00 1
1.3374241126922473e-01 -4.8031553849781791e-02 0.0000000000000000e+00 1
1.0388415063016843e-01 -3.2429348951417816e-02 0.0000000000000000e+00 1
1.2267652701802208e-01 -3.9829281566914260e-02 0.0000000000000000e+00 1
-9.3813896533919056e-02 2.5088376602223045e-02 0.0000000000000000e+00 1
-2.5396499725070232e-01 9.3316954822935810e-02 0.0000000000000000e+00 1
-7.5259448547849647e-02 1.9179623275242433e-02 0.0000000000000000e+00 1
-2.4556435674891855e-01 8.8594527408643112e-02 0.0000000000000000e+00 1
-1.2133461611793540e-01 4.4535406136307021e-02 0.0000000000000000e+00 1
-5.6980781543895714e-02 1.3616119118344035e-02 0.0000000000000000e+00 1
-3.8684622584644265e-02 7.6897056131220486e-03 0.0000000000000000e+00 1
1.1277703666989612e-01 -3.5742277950611578e-02 0.0000000000000000e+00 1
1.4295014195545380e-01 -4.6736240886916226e-02 0.0000000000000000e+00 1
-2.0587199504065426e-01 7.7894593072595414e-02 0.0000000000000000e+00 1
-1.7699220712294450e-01 6.6249546932070552e-02 0.0000000000000000e+00 1
1.4939096697037607e-01 -5.3466267241304995e-02 0.0000000000000000e+00 1
7.3070060263475158e-03 -3.9176174460895663e-03 0.0000000000000000e+00 1
-2.0314924028518713e-02 2.1142766881721590e-03 0.0000000000000000e+00 1
1.2205134396877670e-01 -4.4288071745698966e-02 0.0000000000000000e+00 1
1.7425069403929416e-01 -5.9931462236887757e-02 0.0000000000000000e+00 1
1.2764306899329081e-01 -4.0597095056890714e-02 0.0000000000000000e+00 1
1.5918062454855392e-01 -5.2775334240085875e-02 0.0000000000000000e+00 1
-1.4496200610381202e-01 5.3236219042522348e-02 0.0000000000000000e+00 1
-3.3850639040357601e-03 4.2295868647390281e-04 0.0000000000000000e+00 1
7.9762709419850766e-02 -2.5776274298658489e-02 0.0000000000000000e+00 1
1.6875355479850590e-01 -5.7838022072673315e-02 0.0000000000000000e+00 1
1.7973263055513616e-01 -6.2627227221885989e-02 0.0000000000000000e+00 1
1.3217519589471516e-01 -4.3194751065243869e-02 0.0000000000000000e+00 1
-2.2225589073536539e-01 8.4121018581472917e-02 0.0000000000000000e+00 1
9.5144495822031286e-02 -3.3315576917680154e-02 0.0000000000000000e+00 1
-1.8672391552680082e-01 7.1352521523599291e-02 0.0000000000000000e+00 1
-1.9674008606124191e-01 7.4056508669226334e-02 0.0000000000000000e+00 1
6.5947441977620452e-02 -2.3013332333146425e-02 0.0000000000000000e+00 1
5.7777907324341585e-02 -2.0130391058816626e-02 0.0000000000000000e+00 1
-1.5583685211350748e-01 5.8271532585179531e-02 0.0000000000000000e+00 1
-1.6623262122222512e-01 6.2580513935879642e-02 0.0000000000000000e+00 1
1.7266912146487286e-02 -6.3949315042295309e-03 0.0000000000000000e+00 1
8.8718599052844349e-02 -2.7062546222486456e-02 0.0000000000000000e+00 1
-2.5037224360594090e-01 9.1241116500790156e-02 0.0000000000000000e+00 1
-2.1478742153070354e-01 8.0898654736214604e-02 0.0000000000000000e+00 1
-1.3507811315144200e-01 5.2688025527937415e-02 0.0000000000000000e+00 1
-9.8693558721536109e-02 3.6211222885784836e-02 0.0000000000000000e+00 1
2.0175940021896527e-01 -7.1152755074410906e-02 0.0000000000000000e+00 1
1.8908457360331776e-01 -6.5120179652153248e-02 0.0000000000000000e+00 1
-2.2937864748752990e-01 8.6745645618762968e-02 0.0000000000000000e+00 1
2.1532295034869420e-01 -7.7057603044379946e-02 0.0000000000000000e+00 1
1.9744043088608146e-01 -6.9301417151681297e-02 0.0000000000000000e+00 1
4.9458818228109151e-02 -1.7466852474234549e-02 0.0000000000000000e+00 1
3.2770531585477096e-02 -1.3164418652985236e-02 0.0000000000000000e+00 1
7.3395214583171567e-02 -2.5007293542159185e-02 0.0000000000000000e+00 1
1.3770130096460934e-01 -4.4798439955760778e-02 0.0000000000000000e+00 1
1.1765064128869229e-01 -3.7647802958620663e-02 0.0000000000000000e+00 1
2.1656285663295996e-01 -7.7655004383045720e-02 0.0000000000000000e+00 1
8.9101625158155534e-02 -3.1978133895452523e-02 0.0000000000000000e+00 1
1.2939730142780259e-01 -4.6957988839046311e-02 0.0000000000000000e+00 1
9.9690762732313046e-02 -3.0918540390338631e-02 0.0000000000000000e+00 1
2.1295053741201719e-01 -7.5996249920132541e-02 0.0000000000000000e+00 1
2.0587342295365679e-01 -7.2953499519694182e-02 0.0000000000000000e+00 1
-2.3463837400759013e-01 8.2333502192540056e-02 0.0000000000000000e+00 1
-1.1128050587644185e-01 4.1766526087536733e-02 0.0000000000000000e+00 1
-2.2158782821329118e-01 7.5886449757308919e-02 0.0000000000000000e+00 1
-2.0860287885745241e-01 6.8073173359514932e-02 0.0000000000000000e+00 1
-1.9324423820439721e-01 6.1010356233246799e-02 0.0000000000000000e+00 1
1.0823509437559731e-01 -3.3964049224005172e-02 0.0000000000000000e+00 1
-1.7946500490413381e-01 5.6535149678801654e-02 0.0000000000000000e+00 1
-2.5113138248373557e-01 9.5381638755487066e-02 0.0000000000000000e+00 1
-1.6265608545954358e-01 4.9441826944013612e-02 0.0000000000000000e+00 1
-1.4661136758280777e-01 4.2685246777610125e-02 0.0000000000000000e+00 1
-1.2896257555214979e-01 3.6659026062434763e-02 0.0000000000000000e+00 1
-1.1995473477459635e-01 3.4312473676182009e-02 0.0000000000000000e+00 1
-2.9552329462135436e-02 4.7483295006404882e-03 0.0000000000000000e+00 1
-1.0296067741798885e-01 2.6416498007674934e-02 0.0000000000000000e+00 1
-4.7808730290245197e-02 1.0709965843334597e-02 0.0000000000000000e+00 1
-8.4331216610401633e-02 2.2328831151173185e-02 0.0000000000000000e+00 1
-8.6396557289784473e-02 3.2796261548054276e-02 0.0000000000000000e+00 1
-6.6217852442155223e-02 1.6249372034783854e-02 0.0000000000000000e+00 1
-2.5862927976066558e-01 9.6548189707294035e-02 0.0000000000000000e+00 1
-2.5687893512347454e-01 9.4976821311765713e-02 0.0000000000000000e+00 1
2.0954904169611785e-01 -7.4551642182732636e-02 0.0000000000000000e+00 1
-2.5452215757927699e-01 9.6533809526386655e-02 0.0000000000000000e+00 1
9.6306003797359027e-02 -2.8880206076329080e-02 0.0000000000000000e+00 1
4.1119744954856055e-02 -1.5720003060596309e-02 0.0000000000000000e+00 1
1.3854918448256909e-01 -4.9700272930809739e-02 0.0000000000000000e+00 1
1.9279437229651727e-01 -6.7397278319843934e-02 0.0000000000000000e+00 1
2.4618431413510694e-02 -1.0963171886643841e-02 0.0000000000000000e+00 1
1.8463699517837315e-01 -6.3016920439525878e-02 0.0000000000000000e+00 1
1.0897855120884559e-01 -3.9001772443017571e-02 0.0000000000000000e+00 1
-2.4167716962061167e-01 9.2348840883219541e-02 0.0000000000000000e+00 1
-2.4049714824552640e-01 8.5641182757265302e-02 0.0000000000000000e+00 1
1.6404747293308794e-01 -5.4780619170868697e-02 0.0000000000000000e+00 1
-4.9648448590001296e-02 2.0066485720781627e-02 0.0000000000000000e+00 1
1.1865722666113976e-01 -4.1699296689548353e-02 0.0000000000000000e+00 1
-5.9199546016712651e-02 2.2971980150810652e-02 0.0000000000000000e+00 1
-1.2111242332207374e-02 -1.1262338439415138e-03 0.0000000000000000e+00 1
1.0043039574673507e-01 -3.5730744736201248e-02 0.0000000000000000e+00 1
1.5424214010147091e-01 -5.0813154680057183e-02 0.0000000000000000e+00 1
-7.6446734851839102e-02 2.9364881195446047e-02 0.0000000000000000e+00 1
-2.4676466680755915e-01 9.4089349951916645e-02 0.0000000000000000e+00 1
1.4386391493564665e-01 -5.1396783002261921e-02 0.0000000000000000e+00 1
1.1435235728568355e-01 -4.0775715749547192e-02 0.0000000000000000e+00 1
1.4793694581936367e-01 -4.8272052213812047e-02 0.0000000000000000e+00 1
8.4344090691174878e-02 -2.9618098177582531e-02 0.0000000000000000e+00 1
-6.8375576170666044e-02 2.4692409159059875e-02 0.0000000000000000e+00 1
-1.3309580166567119e-02 7.2660047777680977e-03 0.0000000000000000e+00 1
-3.9959532488519418e-02 1.6594049206087473e-02 0.0000000000000000e+00 1
1.0517923972001447e-01 -3.6657298862322954e-02 0.0000000000000000e+00 1
1.5502396331555660e-01 -5.5646096133667430e-02 0.0000000000000000e+00 1
-2.0286013772025616e-01 7.1512824132961034e-02 0.0000000000000000e+00 1
-1.7309013233352466e-01 5.9238496098308405e-02 0.0000000000000000e+00 1
-2.3477313933261180e-02 1.0967681991824837e-02 0.0000000000000000e+00 1
-3.2070189000049022e-02 1.2271535256592470e-02 0.0000000000000000e+00 1
1.5975057367350748e-01 -5.7274500755956054e-02 0.0000000000000000e+00 1
1.2813097632998591e-01 -4.4055990526987568e-02 0.0000000000000000e+00 1
1.2504371545384502e-01 -4.3041647489019973e-02 0.0000000000000000e+00 1
3.0272890762300816e-02 -6.6554431479941651e-03 0.0000000000000000e+00 1
-1.9327708423188530e-01 6.8026718906045183e-02 0.0000000000000000e+00 1
1.8589842055813854e-01 -6.6794960430922826e-02 0.0000000000000000e+00 1
-1.8547105194465918e-01 6.3681615994922613e-02 0.0000000000000000e+00 1
-1.3058123774570440e-01 4.5263775264606759e-02 0.0000000000000000e+00 1
-1.3973897097101823e-01 4.6604874555696695e-02 0.0000000000000000e+00 1
-1.6423095635355522e-01 5.6110847989586841e-02 0.0000000000000000e+00 1

Edges
141
1 2 1
2 3 1
3 4 1
4 5 1
5 6 1
6 7 1
7 8 1
8 9 1
9 10 1
10 11 1
11 12 1
12 13 1
13 14 1
14 15 1
15 16 1
16 17 1
17 18 1
18 19 1
19 20 1
20 21 1
21 22 1
22 23 1
23 24 1
24 25 1
25 26 1
26 27 1
27 28 1
28 29 1
29 30 1
30 31 1
31 32 1
32 33 1
33 34 1
34 35 1
35 36 1
36 37 1
37 38 1
38 39 1
39 40 1
40 41 1
41 42 1
42 43 1
43 44 1
44 45 1
45 46 1
46 47 1
47 48 1
48 49 1
49 50 1
50 51 1
51 52 1
52 53 1
53 54 1
54 55 1
55 56 1
56 57 1
57 58 1
58 59 1
59 60 1
60 61 1
61 62 1
62 63 1
63 64 1
64 65 1
65 66 1
66 67 1
67 68 1
68 69 1
69 70 1
70 71 1
71 72 1
72 73 1
73 74 1
74 75 1
75 76 1
76 77 1
77 78 1
78 79 1
79 80 1
80 81 1
81 82 1
82 83 1
83 84 1
84 85 1
85 86 1
86 87 1
87 88 1
88 89 1
89 90 1
90 91 1
91 92 1
92 93 1
93 94 1
94 95 1
95 96 1
96 97 1
97 98 1
98 99 1
99 100 1
100 101 1
101 102 1
102 103 1
103 104 1
104 105 1
105 106 1
106 107 1
107 108 1
108 109 1
109 110 1
110 111 1
111 112 1
112 113 1
113 114 1
114 115 1
115 116 1
116 117 1
117 118 1
118 119 1
119 120 1
120 121 1
121 122 1
122 123 1
123 124 1
124 125 1
125 126 1
126 127 1
127 128 1
128 129 1
129 130 1
130 131 1
131 132 1
132 133 1
133 134 1
134 135 1
135 136 1
136 137 1
137 138 1
138 139 1
139 140 1
140 141 1
141 1 1

Triangles
403
166 147 214 1
152 182 233 1
147 166 192 1
18 209 231 1
151 194 212 1
192 181 213 1
158 94 191 1
60 61 169 1
13 14 236 1
20 21 205 1
148 175 187 1
10 11 172 1
196 13 236 1
194 151 224 1
141 1 171 1
125 126 176 1
180 154 203 1
229 92 230 1
57 58 234 1
10 172 178 1
169 61 176 1
58 201 234 1
134 135 202 1
135 177 202 1
209 25 231 1
126 169 176 1
91 92 229 1
148 187 219 1
177 135 254 1
34 35 178 1
182 152 206 1
94 95 191 1
181 149 213 1
147 192 213 1
41 180 203 1
98 149 211 1
32 33 179 1
60 169 189 1
175 148 220 1
19 20 198 1
219 187 273 1
248 38 253 1
172 11 179 1
149 197 211 1
23 198 205 1
198 20 205 1
172 34 178 1
9 178 242 1
168 248 253 1
127 128 189 1
76 167 188 1
135 136 254 1
23 24 198 1
194 70 212 1
9 242 264 1
18 19 209 1
158 191 218 1
230 158 232 1
54 55 185 1
79 166 184 1
149 181 197 1
154 180 207 1
33 172 179 1
24 25 209 1
190 52 254 1
153 240 241 1
150 230 232 1
240 160 241 1
185 134 202 1
72 193 271 1
97 98 211 1
268 215 270 1
161 72 271 1
217 167 270 1
169 127 189 1
81 181 192 1
83 153 197 1
215 145 270 1
191 160 250 1
183 78 184 1
212 161 222 1
185 55 186 1
93 94 158 1
78 79 184 1
194 157 227 1
150 229 230 1
167 217 261 1
51 52 190 1
82 83 197 1
56 57 200 1
22 23 205 1
15 16 195 1
187 75 188 1
80 81 192 1
132 186 200 1
55 56 186 1
156 171 266 1
200 57 234 1
75 76 188 1
28 29 199 1
9 10 178 1
167 77 183 1
247 139 258 1
77 78 183 1
137 182 206 1
175 74 187 1
93 158 230 1
151 212 222 1
195 28 199 1
166 214 260 1
61 62 176 1
95 96 160 1
14 15 199 1
59 189 237 1
186 56 200 1
43 156 173 1
179 12 238 1
132 133 186 1
88 89 150 1
131 132 200 1
160 240 250 1
133 185 186 1
69 194 227 1
54 185 202 1
166 80 192 1
74 75 187 1
188 167 261 1
14 199 236 1
59 60 189 1
71 72 161 1
73 74 175 1
95 160 191 1
76 77 167 1
43 44 156 1
137 138 182 1
42 43 173 1
42 173 180 1
79 80 166 1
89 90 229 1
161 221 222 1
81 82 181 1
15 195 199 1
92 93 230 1
136 137 206 1
41 42 180 1
11 12 179 1
83 84 153 1
181 82 197 1
197 153 211 1
138 139 247 1
150 89 229 1
6 7 168 1
73 175 193 1
156 44 204 1
69 70 194 1
52 177 254 1
176 62 256 1
143 184 260 1
40 41 203 1
72 73 193 1
44 45 204 1
133 134 185 1
39 40 165 1
171 156 244 1
52 53 177 1
3 4 154 1
157 194 224 1
238 12 269 1
184 166 260 1
178 35 242 1
16 17 210 1
158 218 232 1
86 87 218 1
26 27 210 1
68 69 227 1
3 154 207 1
184 143 268 1
32 179 238 1
70 71 212 1
27 28 195 1
53 54 202 1
98 99 149 1
165 40 203 1
141 244 252 1
246 176 256 1
261 144 273 1
153 84 240 1
140 141 252 1
26 210 231 1
27 195 210 1
125 176 246 1
17 18 231 1
207 180 265 1
195 16 210 1
71 161 212 1
203 154 235 1
48 49 208 1
189 128 237 1
45 164 204 1
100 101 147 1
131 200 234 1
87 88 232 1
145 217 270 1
36 37 174 1
6 168 251 1
102 103 143 1
130 131 234 1
67 68 249 1
29 30 236 1
2 3 207 1
210 17 231 1
30 31 196 1
66 67 245 1
129 130 201 1
104 105 145 1
199 29 236 1
33 34 172 1
106 107 144 1
168 7 259 1
99 100 213 1
64 65 257 1
108 109 148 1
101 102 214 1
45 46 164 1
110 111 146 1
59 237 267 1
126 127 169 1
103 104 215 1
218 87 232 1
105 106 217 1
96 97 241 1
149 99 213 1
107 108 219 1
113 114 151 1
109 110 220 1
25 26 231 1
115 116 157 1
123 124 170 1
46 47 216 1
35 36 242 1
111 112 221 1
121 122 163 1
112 113 222 1
154 4 235 1
117 118 159 1
47 48 155 1
122 123 223 1
165 203 235 1
119 120 162 1
84 85 240 1
128 129 237 1
114 115 224 1
120 121 225 1
116 117 226 1
64 257 263 1
100 147 213 1
31 32 238 1
4 5 235 1
118 119 228 1
37 38 248 1
173 156 266 1
175 220 272 1
218 191 250 1
183 268 270 1
251 168 253 1
245 67 255 1
147 101 214 1
67 249 255 1
187 188 273 1
177 53 202 1
1 2 142 1
102 143 214 1
165 235 251 1
38 39 253 1
188 261 273 1
85 86 250 1
248 168 259 1
143 103 215 1
183 184 268 1
104 145 215 1
13 196 269 1
97 211 241 1
145 105 217 1
167 183 270 1
211 153 241 1
106 144 217 1
63 64 262 1
144 107 219 1
201 130 234 1
49 50 233 1
108 148 219 1
240 85 250 1
148 109 220 1
136 206 254 1
110 146 220 1
180 173 265 1
146 111 221 1
160 96 241 1
182 138 247 1
226 159 249 1
86 218 250 1
113 151 222 1
221 112 222 1
151 114 224 1
164 46 216 1
123 170 223 1
115 157 224 1
163 122 223 1
157 116 226 1
121 163 225 1
235 5 251 1
162 120 225 1
117 159 226 1
159 118 228 1
119 162 228 1
19 198 209 1
129 201 237 1
227 226 249 1
196 31 238 1
36 174 242 1
139 140 239 1
30 196 236 1
155 48 208 1
47 155 216 1
50 51 152 1
5 6 251 1
1 142 171 1
157 226 227 1
65 66 243 1
146 271 272 1
88 150 232 1
142 2 207 1
124 125 246 1
170 124 246 1
68 227 249 1
143 215 268 1
12 13 269 1
208 49 233 1
156 204 244 1
174 37 248 1
141 171 244 1
164 216 239 1
62 63 256 1
193 175 272 1
221 161 271 1
162 225 243 1
8 9 264 1
90 91 229 1
204 164 252 1
7 8 259 1
39 165 253 1
262 64 263 1
58 59 267 1
144 219 273 1
201 58 267 1
208 182 247 1
165 251 253 1
244 204 252 1
155 208 247 1
182 208 233 1
50 152 233 1
228 162 245 1
271 193 272 1
21 22 205 1
164 239 252 1
162 243 245 1
146 221 271 1
152 51 190 1
170 246 256 1
243 225 257 1
214 143 260 1
225 163 257 1
170 256 262 1
174 259 264 1
159 228 255 1
152 190 206 1
239 216 258 1
249 159 255 1
256 63 262 1
139 239 258 1
217 144 261 1
228 245 255 1
239 140 252 1
174 248 259 1
198 24 209 1
216 155 258 1
259 8 264 1
243 66 245 1
223 170 262 1
163 223 263 1
65 243 257 1
257 163 263 1
206 190 254 1
242 174 264 1
155 247 258 1
142 207 265 1
223 262 263 1
220 146 272 1
237 201 267 1
171 142 266 1
196 238 269 1
142 265 266 1
265 173 266 1

End
