MeshVersionFormatted 2
Dimension 3

Vertices
955
-2.5909843775605773e-01 -2.3197361217198495e-01 0.0000000000000000e+00 1
-2.6115764724282514e-01 -2.3597675385503267e-01 0.0000000000000000e+00 1
-2.6231504888042390e-01 -2.3920536634203454e-01 0.0000000000000000e+00 1
-2.6260707122706645e-01 -2.4168919607339362e-01 0.0000000000000000e+00 1
-2.6207014284096491e-01 -2.4345798948951258e-01 0.0000000000000000e+00 1
-2.6074069228033170e-01 -2.4454149303079442e-01 0.0000000000000000e+00 1
-2.5865514810337908e-01 -2.4496945313764218e-01 0.0000000000000000e+00 1
-2.5584993886831930e-01 -2.4477161625045860e-01 0.0000000000000000e+00 1
-2.5236149313336459e-01 -2.4397772880964660e-01 0.0000000000000000e+00 1
-2.4822623945672739e-01 -2.4261753725560931e-01 0.0000000000000000e+00 1
-2.4348060639661989e-01 -2.4072078802874941e-01 0.0000000000000000e+00 1
-2.3816102251125459e-01 -2.3831722756947002e-01 0.0000000000000000e+00 1
-2.3230391635884357e-01 -2.3543660231817393e-01 0.0000000000000000e+00 1
-2.2594571649759915e-01 -2.3210865871526407e-01 0.0000000000000000e+00 1
-2.1912285148573368e-01 -2.2836314320114343e-01 0.0000000000000000e+00 1
-2.1187174988145946e-01 -2.2422980221621483e-01 0.0000000000000000e+00 1
-2.0422884024298876e-01 -2.1973838220088124e-01 0.0000000000000000e+00 1
-1.9623055112853388e-01 -2.1491862959554558e-01 0.0000000000000000e+00 1
-1.8791331109630710e-01 -2.0980029084061072e-01 0.0000000000000000e+00 1
-1.7931354870452082e-01 -2.0441311237647969e-01 0.0000000000000000e+00 1
-1.7046769251138721e-01 -1.9878684064355531e-01 0.0000000000000000e+00 1
-1.6141217107511863e-01 -1.9295122208224050e-01 0.0000000000000000e+00 1
-1.5218341295392734e-01 -1.8693600313293832e-01 0.0000000000000000e+00 1
-1.4281784670602565e-01 -1.8077093023605145e-01 0.0000000000000000e+00 1
-1.3335190088962584e-01 -1.7448574983198295e-01 0.0000000000000000e+00 1
-1.2382200406294021e-01 -1.6811020836113574e-01 0.0000000000000000e+00 1
-1.1426458478418110e-01 -1.6167405226391271e-01 0.0000000000000000e+00 1
-1.0471607161156081e-01 -1.5520702798071684e-01 0.0000000000000000e+00 1
-9.5212893103291563e-02 -1.4873888195195095e-01 0.0000000000000000e+00 1
-8.5791477817585685e-02 -1.4229936061801798e-01 0.0000000000000000e+00 1
-7.6488254312655532e-02 -1.3591821041932095e-01 0.0000000000000000e+00 1
-6.7339651146713322e-02 -1.2962517779626265e-01 0.0000000000000000e+00 1
-5.8382096877971357e-02 -1.2345000918924605e-01 0.0000000000000000e+00 1
-4.9652020064641963e-02 -1.1742245103867406e-01 0.0000000000000000e+00 1
-4.1185849264937423e-02 -1.1157224978494963e-01 0.0000000000000000e+00 1
-3.3020013037070077e-02 -1.0592915186847567e-01 0.0000000000000000e+00 1
-2.5190939939252151e-02 -1.0052290372965504e-01 0.0000000000000000e+00 1
-1.7735058529695973e-02 -9.5383251808890734e-02 0.0000000000000000e+00 1
-1.0688797366613861e-02 -9.0539942546585650e-02 0.0000000000000000e+00 1
-4.0885850082180639e-03 -8.6022722383142666e-02 0.0000000000000000e+00 1
2.0291499872791031e-03 -8.1861337758964745e-02 0.0000000000000000e+00 1
7.6279790616653360e-03 -7.8085535114454777e-02 0.0000000000000000e+00 1
1.2671473656728341e-02 -7.4725060890015696e-02 0.0000000000000000e+00 1
1.5767980388026997e-02 -7.2658330007794203e-02 0.0000000000000000e+00 1
1.9042124235713966e-02 -7.0433005565101639e-02 0.0000000000000000e+00 1
2.2475682430669969e-02 -6.8057846273914063e-02 0.0000000000000000e+00 1
2.6050432203775745e-02 -6.5541610846207576e-02 0.0000000000000000e+00 1
2.9748150785912020e-02 -6.2893057993958210e-02 0.0000000000000000e+00 1
3.3550615407959526e-02 -6.0120946429142022e-02 0.0000000000000000e+00 1
3.7439603300798992e-02 -5.7234034863735100e-02 0.0000000000000000e+00 1
4.1396891695311147e-02 -5.4241082009713518e-02 0.0000000000000000e+00 1
4.5404257822376712e-02 -5.1150846579053298e-02 0.0000000000000000e+00 1
4.9443478912876454e-02 -4.7972087283730550e-02 0.0000000000000000e+00 1
5.3496332197691059e-02 -4.4713562835721289e-02 0.0000000000000000e+00 1
5.7544594907701280e-02 -4.1384031947001625e-02 0.0000000000000000e+00 1
6.1570044273787823e-02 -3.7992253329547594e-02 0.0000000000000000e+00 1
6.5554457526831464e-02 -3.4546985695335264e-02 0.0000000000000000e+00 1
6.9479611897712887e-02 -3.1056987756340713e-02 0.0000000000000000e+00 1
7.3327284617312832e-02 -2.7531018224540002e-02 0.0000000000000000e+00 1
7.7079252916512062e-02 -2.3977835811909189e-02 0.0000000000000000e+00 1
8.0717294026191266e-02 -2.0406199230424332e-02 0.0000000000000000e+00 1
8.4223185177231222e-02 -1.6824867192061499e-02 0.0000000000000000e+00 1
8.7578703600512592e-02 -1.3242598408796772e-02 0.0000000000000000e+00 1
9.0765626526916166e-02 -9.6681515926061966e-03 0.0000000000000000e+00 1
9.3765731187322648e-02 -6.1102854554658300e-03 0.0000000000000000e+00 1
9.6560794812612760e-02 -2.5777587093517625e-03 0.0000000000000000e+00 1
9.9132594633667248e-02 9.2066993375995981e-04 0.0000000000000000e+00 1
1.0146290788136685e-01 4.3762417618932702e-03 0.0000000000000000e+00 1
1.0353351178659227e-01 7.7801980630720999e-03 0.0000000000000000e+00 1
1.0664242416821429e-01 1.3215954741529137e-02 0.0000000000000000e+00 1
1.1007959348825562e-01 1.9251946284461099e-02 0.0000000000000000e+00 1
1.1381749347173355e-01 2.5845619899166485e-02 0.0000000000000000e+00 1
1.1782859784366531e-01 3.2954422792943805e-02 0.0000000000000000e+00 1
1.2208538032906824e-01 4.0535802173091551e-02 0.0000000000000000e+00 1
1.2656031465295964e-01 4.8547205246908254e-02 0.0000000000000000e+00 1
1.3122587454035683e-01 5.6946079221692404e-02 0.0000000000000000e+00 1
1.3605453371627713e-01 6.5689871304742548e-02 0.0000000000000000e+00 1
1.4101876590573775e-01 7.4736028703357077e-02 0.0000000000000000e+00 1
1.4609104483375601e-01 8.4041998624834607e-02 0.0000000000000000e+00 1
1.5124384422534926e-01 9.3565228276473622e-02 0.0000000000000000e+00 1
1.5644963780553472e-01 1.0326316486557260e-01 0.0000000000000000e+00 1
1.6168089929932983e-01 1.1309325559943005e-01 0.0000000000000000e+00 1
1.6691010243175169e-01 1.2301294768534450e-01 0.0000000000000000e+00 1
1.7210972092781773e-01 1.3297968833061441e-01 0.0000000000000000e+00 1
1.7725222851254524e-01 1.4295092474253837e-01 0.0000000000000000e+00 1
1.8231009891095146e-01 1.5288410412841485e-01 0.0000000000000000e+00 1
1.8725580584805379e-01 1.6273667369554232e-01 0.0000000000000000e+00 1
1.9206182304886937e-01 1.7246608065121924e-01 0.0000000000000000e+00 1
1.9670062423841561e-01 1.8202977220274427e-01 0.0000000000000000e+00 1
2.0114468314170986e-01 1.9138519555741579e-01 0.0000000000000000e+00 1
2.0536647348376930e-01 2.0048979792253238e-01 0.0000000000000000e+00 1
2.0933846898961117e-01 2.0930102650539242e-01 0.0000000000000000e+00 1
2.1303314338425300e-01 2.1777632851329459e-01 0.0000000000000000e+00 1
2.1642297039271191e-01 2.2587315115353726e-01 0.0000000000000000e+00 1
2.1948042374000520e-01 2.3354894163341902e-01 0.0000000000000000e+00 1
2.2217797715115029e-01 2.4076114716023836e-01 0.0000000000000000e+00 1
2.2448810435116434e-01 2.4746721494129373e-01 0.0000000000000000e+00 1
2.2638327906506472e-01 2.5362459218388372e-01 0.0000000000000000e+00 1
2.2783597501786873e-01 2.5919072609530669e-01 0.0000000000000000e+00 1
2.2881866593459366e-01 2.6412306388286128e-01 0.0000000000000000e+00 1
2.2930382554025674e-01 2.6837905275384605e-01 0.0000000000000000e+00 1
2.2926392755987535e-01 2.7191613991555935e-01 0.0000000000000000e+00 1
2.2867144571846670e-01 2.7469177257529970e-01 0.0000000000000000e+00 1
2.2749885374104822e-01 2.7666339794036565e-01 0.0000000000000000e+00 1
2.2571862535263715e-01 2.7778846321805578e-01 0.0000000000000000e+00 1
2.2330323427825077e-01 2.7802441561566843e-01 0.0000000000000000e+00 1
2.2022515424290634e-01 2.7732870234050233e-01 0.0000000000000000e+00 1
2.1645685897162126e-01 2.7565877059985577e-01 0.0000000000000000e+00 1
2.1197082218941271e-01 2.7297206760102738e-01 0.0000000000000000e+00 1
2.0436005992915363e-01 2.6785543835059489e-01 0.0000000000000000e+00 1
1.9662829387696157e-01 2.6249150576536340e-01 0.0000000000000000e+00 1
1.8878159532238525e-01 2.5688767164173315e-01 0.0000000000000000e+00 1
1.8082603555497362e-01 2.5105133777610444e-01 0.0000000000000000e+00 1
1.7276768586427538e-01 2.4498990596487755e-01 0.0000000000000000e+00 1
1.6461261753983936e-01 2.3871077800445278e-01 0.0000000000000000e+00 1
1.5636690187121438e-01 2.3222135569123054e-01 0.0000000000000000e+00 1
1.4803661014794928e-01 2.2552904082161093e-01 0.0000000000000000e+00 1
1.3962781365959281e-01 2.1864123519199427e-01 0.0000000000000000e+00 1
1.3114658369569382e-01 2.1156534059878096e-01 0.0000000000000000e+00 1
1.2259899154580102e-01 2.0430875883837105e-01 0.0000000000000000e+00 1
1.1399110849946335e-01 1.9687889170716502e-01 0.0000000000000000e+00 1
1.0532900584622956e-01 1.8928314100156315e-01 0.0000000000000000e+00 1
9.6618754875648458e-02 1.8152890851796563e-01 0.0000000000000000e+00 1
8.7866426877268852e-02 1.7362359605277286e-01 0.0000000000000000e+00 1
7.9078093140639572e-02 1.6557460540238506e-01 0.0000000000000000e+00 1
7.0259824955309386e-02 1.5738933836320243e-01 0.0000000000000000e+00 1
6.1417693610827120e-02 1.4907519673162536e-01 0.0000000000000000e+00 1
5.2557770396741574e-02 1.4063958230405410e-01 0.0000000000000000e+00 1
4.3686126602601572e-02 1.3208989687688899e-01 0.0000000000000000e+00 1
3.4808833517955898e-02 1.2343354224653018e-01 0.0000000000000000e+00 1
2.5931962432353330e-02 1.1467792020937798e-01 0.0000000000000000e+00 1
1.7061584635342783e-02 1.0583043256183283e-01 0.0000000000000000e+00 1
8.2037714164729797e-03 9.6898481100294892e-02 0.0000000000000000e+00 1
-6.3540593470724771e-04 8.7889467621164466e-02 0.0000000000000000e+00 1
-9.4498761286491151e-03 7.8810793920841865e-02 0.0000000000000000e+00 1
-1.8233567875803797e-02 6.9669861795727289e-02 0.0000000000000000e+00 1
-2.6980409886622467e-02 6.0474073042221126e-02 0.0000000000000000e+00 1
-3.5684330871556341e-02 5.1230829456723602e-02 0.0000000000000000e+00 1
-4.4339259541056636e-02 4.1947532835635008e-02 0.0000000000000000e+00 1
-5.2939124605574484e-02 3.2631584975355642e-02 0.0000000000000000e+00 1
-6.1477854775561128e-02 2.3290387672285778e-02 0.0000000000000000e+00 1
-6.9949378761467729e-02 1.3931342722825703e-02 0.0000000000000000e+00 1
-7.8347625273745489e-02 4.5618519233756889e-03 0.0000000000000000e+00 1
-8.6666523022845637e-02 -4.8106829296639796e-03 0.0000000000000000e+00 1
-9.4900000719219280e-02 -1.4178860039892971e-02 0.0000000000000000e+00 1
-1.0304198707331776e-01 -2.3535277610911134e-02 0.0000000000000000e+00 1
-1.1108641079559210e-01 -3.2872533846318039e-02 0.0000000000000000e+00 1
-1.1902720059649356e-01 -4.2183226949713444e-02 0.0000000000000000e+00 1
-1.2685828518647335e-01 -5.1459955124697067e-02 0.0000000000000000e+00 1
-1.3457359327598267e-01 -6.0695316574868652e-02 0.0000000000000000e+00 1
-1.4216705357547271e-01 -6.9881909503827902e-02 0.0000000000000000e+00 1
-1.4963259479539459e-01 -7.9012332115174513e-02 0.0000000000000000e+00 1
-1.5696414564619965e-01 -8.8079182612508300e-02 0.0000000000000000e+00 1
-1.6415563483833895e-01 -9.7075059199428812e-02 0.0000000000000000e+00 1
-1.7120099108226372e-01 -1.0599256007953588e-01 0.0000000000000000e+00 1
-1.7809414308842514e-01 -1.1482428345642916e-01 0.0000000000000000e+00 1
-1.8482901956727443e-01 -1.2356282753370841e-01 0.0000000000000000e+00 1
-1.9139954922926272e-01 -1.3220079051497335e-01 0.0000000000000000e+00 1
-1.9779966078484135e-01 -1.4073077060382369e-01 0.0000000000000000e+00 1
-2.0402328294446137e-01 -1.4914536600385914e-01 0.0000000000000000e+00 1
-2.1006434441857402e-01 -1.5743717491867937e-01 0.0000000000000000e+00 1
-2.1591677391763053e-01 -1.6559879555188420e-01 0.0000000000000000e+00 1
-2.2157450015208202e-01 -1.7362282610707327e-01 0.0000000000000000e+00 1
-2.2703145183237972e-01 -1.8150186478784630e-01 0.0000000000000000e+00 1
-2.3228155766897479e-01 -1.8922850979780298e-01 0.0000000000000000e+00 1
-2.3731874637231853e-01 -1.9679535934054312e-01 0.0000000000000000e+00 1
-2.4213694665286201e-01 -2.0419501161966638e-01 0.0000000000000000e+00 1
-2.4673008722105649e-01 -2.1142006483877246e-01 0.0000000000000000e+00 1
-2.5109209678735317e-01 -2.1846311720146114e-01 0.0000000000000000e+00 1
-2.5521690406220315e-01 -2.2531676691133204e-01 0.0000000000000000e+00 1
9.8994680608307517e-02 8.3045627626368492e-03 0.0000000000000000e+00 1
8.2907322388768495e-02 -1.2258298341800070e-02 0.0000000000000000e+00 1
6.4504221530978220e-02 -2.9413515719860232e-02 0.0000000000000000e+00 1
1.2171494395670843e-02 -7.0774379565597095e-02 0.0000000000000000e+00 1
2.9322448098010129e-02 -5.8111640217280235e-02 0.0000000000000000e+00 1
4.5018562493136696e-02 -4.6207275758492872e-02 0.0000000000000000e+00 1
-4.4209874415076485e-03 -7.7587962976146785e-02 0.0000000000000000e+00 1
1.0645139175708815e-01 2.4598598425881319e-02 0.0000000000000000e+00 1
2.0719177821265666e-03 7.6716217530868616e-02 0.0000000000000000e+00 1
-2.5363976658318996e-02 -9.1664773320333612e-02 0.0000000000000000e+00 1
-2.1642836203699545e-02 4.8451946649369478e-02 0.0000000000000000e+00 1
1.1800816086417017e-01 4.7781066331095363e-02 0.0000000000000000e+00 1
-4.9408853551631868e-02 2.0473591866214499e-02 0.0000000000000000e+00 1
-7.5312106433766110e-02 -7.9557685972447556e-03 0.0000000000000000e+00 1
1.3083298128606702e-01 7.4404790663521320e-02 0.0000000000000000e+00 1
2.9327225390388265e-02 1.0383895640771112e-01 0.0000000000000000e+00 1
-4.9477882975931649e-02 -1.0790181838679219e-01 0.0000000000000000e+00 1
1.4486659528400284e-01 1.0313917658883077e-01 0.0000000000000000e+00 1
9.1599666040281066e-02 -1.4189629390172849e-03 0.0000000000000000e+00 1
5.5421143278386001e-02 1.2860914363373013e-01 0.0000000000000000e+00 1
-9.8801669480212656e-02 -3.4885865388041989e-02 0.0000000000000000e+00 1
-7.6550671361689249e-02 -1.2560738253710532e-01 0.0000000000000000e+00 1
1.6135255605975365e-01 1.3258762754322637e-01 0.0000000000000000e+00 1
8.1612783211065354e-02 1.5361455301467616e-01 0.0000000000000000e+00 1
-1.4531877118581032e-01 -8.8972664836690710e-02 0.0000000000000000e+00 1
-1.2275622479897126e-01 -6.2727256385017388e-02 0.0000000000000000e+00 1
1.2468466127600385e-01 1.9319113214120742e-01 0.0000000000000000e+00 1
-1.2540565649763635e-01 -1.5741739519231207e-01 0.0000000000000000e+00 1
1.8716277383241992e-01 1.8162506578571891e-01 0.0000000000000000e+00 1
-1.8085763621642920e-01 -1.3298726203680614e-01 0.0000000000000000e+00 1
-1.9959622449431316e-01 -1.5765916417534423e-01 0.0000000000000000e+00 1
1.6602698020650292e-01 2.2678799611577799e-01 0.0000000000000000e+00 1
-1.5303746190066592e-01 -1.7473992302900501e-01 0.0000000000000000e+00 1
-9.5981201390954410e-02 -1.3749146705973270e-01 0.0000000000000000e+00 1
1.7495947892501196e-01 1.6254418277016949e-01 0.0000000000000000e+00 1
-1.8819108958844843e-01 -1.9979920550651917e-01 0.0000000000000000e+00 1
2.0829791787841728e-01 2.2497892946298018e-01 0.0000000000000000e+00 1
-1.6557276631404902e-01 -1.1552632905745841e-01 0.0000000000000000e+00 1
1.5022130807287928e-01 2.1461594572050571e-01 0.0000000000000000e+00 1
1.0843534794672099e-01 1.7838600435058063e-01 0.0000000000000000e+00 1
1.8732123086111125e-02 -6.6419197992166890e-02 0.0000000000000000e+00 1
3.7135499986253824e-02 -5.2264924398072198e-02 0.0000000000000000e+00 1
5.2874868463401475e-02 -3.9702490848614200e-02 0.0000000000000000e+00 1
1.9551637853103385e-01 1.9952615196986728e-01 0.0000000000000000e+00 1
7.5606510416912631e-02 -1.8892172768194184e-02 0.0000000000000000e+00 1
-2.0469436390892606e-01 -2.1070445012704328e-01 0.0000000000000000e+00 1
-1.7107366826572648e-01 -1.8857583763660460e-01 0.0000000000000000e+00 1
2.1485119515839790e-01 2.3951173583654697e-01 0.0000000000000000e+00 1
2.2666869182364371e-01 2.7051789608950522e-01 0.0000000000000000e+00 1
2.2468223556684389e-01 2.6256947190372287e-01 0.0000000000000000e+00 1
-2.1645462277575669e-01 -1.8159570863494931e-01 0.0000000000000000e+00 1
-2.1946023117946500e-01 -2.2170551309565403e-01 0.0000000000000000e+00 1
1.8164110010864001e-01 2.4170938046260973e-01 0.0000000000000000e+00 1
2.2080800379053195e-01 2.5195218209589360e-01 0.0000000000000000e+00 1
-2.2837189902991445e-01 -1.9731584627077844e-01 0.0000000000000000e+00 1
-2.3166609456509984e-01 -2.2758742790438877e-01 0.0000000000000000e+00 1
-2.5740306401937424e-01 -2.4273624317378781e-01 0.0000000000000000e+00 1
-2.5121144460462802e-01 -2.4016204190689580e-01 0.0000000000000000e+00 1
-2.4292582467939627e-01 -2.3545779763229710e-01 0.0000000000000000e+00 1
1.9719940326104896e-01 2.5249579766981878e-01 0.0000000000000000e+00 1
-2.3840622306669870e-01 -2.1167566831520992e-01 0.0000000000000000e+00 1
2.1644412740019350e-01 2.7112560222212273e-01 0.0000000000000000e+00 1
2.2568159686910397e-01 2.7549277609029427e-01 0.0000000000000000e+00 1
-2.5284113229984129e-01 -2.3194294247465799e-01 0.0000000000000000e+00 1
-2.5718949994771234e-01 -2.3577450932137392e-01 0.0000000000000000e+00 1
-2.6087190944640853e-01 -2.4072568740613282e-01 0.0000000000000000e+00 1
2.2286257433034773e-01 2.7528721116323224e-01 0.0000000000000000e+00 1
2.1237660943907202e-01 2.6680694756020840e-01 0.0000000000000000e+00 1
2.0755277768964753e-01 2.6162090783039815e-01 0.0000000000000000e+00 1
2.1459376219756926e-01 2.6146974273606188e-01 0.0000000000000000e+00 1
2.1077279420215880e-01 2.5586808566684766e-01 0.0000000000000000e+00 1
7.9901361583298181e-03 -7.3164124055292740e-02 0.0000000000000000e+00 1
8.4152503298598746e-03 -6.8242218193997325e-02 0.0000000000000000e+00 1
3.3741671443125541e-03 -7.0259726704852143e-02 0.0000000000000000e+00 1
4.5186708695898210e-03 -6.5165539589124091e-02 0.0000000000000000e+00 1
-6.6095350157665145e-04 -6.7138372855882811e-02 0.0000000000000000e+00 1
3.3453026194263239e-04 -6.1706942485449091e-02 0.0000000000000000e+00 1
-5.1845768025373645e-03 -6.3857725399283818e-02 0.0000000000000000e+00 1
-4.3604360516957315e-03 -5.7785968298265648e-02 0.0000000000000000e+00 1
-1.0302999537989245e-02 -6.0158072611309683e-02 0.0000000000000000e+00 1
-9.3371564165588960e-03 -5.3638220351714262e-02 0.0000000000000000e+00 1
-1.5558957543900392e-02 -5.5855883174560216e-02 0.0000000000000000e+00 1
-3.1718129995883457e-03 -5.1287102943063968e-02 0.0000000000000000e+00 1
-8.2393583801068267e-03 -4.6859710792603669e-02 0.0000000000000000e+00 1
-1.7415301500616320e-03 -4.4409030838510430e-02 0.0000000000000000e+00 1
-7.0471225621064450e-03 -3.9781537559918499e-02 0.0000000000000000e+00 1
-5.1257502150433480e-04 -3.7211635911350203e-02 0.0000000000000000e+00 1
-6.0305289676543580e-03 -3.2482726346785347e-02 0.0000000000000000e+00 1
8.3636482601669453e-04 -2.9571066082260931e-02 0.0000000000000000e+00 1
-1.2470602584880166e-02 -3.5785367461758644e-02 0.0000000000000000e+00 1
-4.8931396503408102e-03 -2.4751376586003238e-02 0.0000000000000000e+00 1
2.4948898328225615e-03 -2.1802161390891105e-02 0.0000000000000000e+00 1
-3.5989721578626923e-03 -1.6853390760722686e-02 0.0000000000000000e+00 1
4.0917902868340805e-03 -1.4083998460054379e-02 0.0000000000000000e+00 1
1.0211313587707490e-02 -1.9268729893004814e-02 0.0000000000000000e+00 1
1.1836590978572793e-02 -1.1389087012992995e-02 0.0000000000000000e+00 1
5.5607621873905444e-03 -6.0384596465862849e-03 0.0000000000000000e+00 1
1.3422858621589508e-02 -3.4930783099404949e-03 0.0000000000000000e+00 1
1.9515602492723546e-02 -8.8243825479637650e-03 0.0000000000000000e+00 1
2.1157799971673975e-02 -1.0293291883438720e-03 0.0000000000000000e+00 1
2.6899843877681091e-02 -6.5149154316937298e-03 0.0000000000000000e+00 1
2.8698395825897220e-02 1.2636903270246606e-03 0.0000000000000000e+00 1
2.2985134516537695e-02 6.8975766410420284e-03 0.0000000000000000e+00 1
3.0716613056523363e-02 9.3959955753279336e-03 0.0000000000000000e+00 1
3.7241877036175999e-02 3.0602515289986885e-03 0.0000000000000000e+00 1
3.8894813669308137e-02 1.1649030417894883e-02 0.0000000000000000e+00 1
3.3041425971249670e-02 1.7484532199278230e-02 0.0000000000000000e+00 1
4.0883401197940407e-02 1.9869640823690124e-02 0.0000000000000000e+00 1
4.6916981840002078e-02 1.4034151269027779e-02 0.0000000000000000e+00 1
4.9112901764892858e-02 2.2136988476498306e-02 0.0000000000000000e+00 1
4.2955013468043257e-02 2.8237199193532281e-02 0.0000000000000000e+00 1
5.1635115698921534e-02 3.0579777379032485e-02 0.0000000000000000e+00 1
4.5225958409053565e-02 3.7031049010134792e-02 0.0000000000000000e+00 1
5.4101947827261077e-02 3.9277805359755828e-02 0.0000000000000000e+00 1
5.7302311970855779e-02 2.4107832066740258e-02 0.0000000000000000e+00 1
4.7579317775801294e-02 4.6017944531609650e-02 0.0000000000000000e+00 1
5.6998423496329539e-02 4.8489122480793928e-02 0.0000000000000000e+00 1
3.7965892457870007e-02 4.3025967098424801e-02 0.0000000000000000e+00 1
4.7473456368942735e-03 -4.1467416586356380e-02 0.0000000000000000e+00 1
4.9817697356579128e-02 5.5285780452206619e-02 0.0000000000000000e+00 1
5.9599315790310949e-02 5.7916306876636604e-02 0.0000000000000000e+00 1
6.6559878087433147e-02 5.0850067989586765e-02 0.0000000000000000e+00 1
6.9413076156792972e-02 6.0359853837731021e-02 0.0000000000000000e+00 1
6.2387435057478027e-02 6.7716894120881777e-02 0.0000000000000000e+00 1
7.2480864242923396e-02 7.0130913818188548e-02 0.0000000000000000e+00 1
6.5290179471099413e-02 7.7753733248203380e-02 0.0000000000000000e+00 1
7.5592863640183042e-02 8.0118211177306900e-02 0.0000000000000000e+00 1
2.5380462589095036e-02 -1.4025911311253424e-02 0.0000000000000000e+00 1
7.6020747595810317e-02 5.3092775338074973e-02 0.0000000000000000e+00 1
3.2671759449466584e-02 -1.1676509351747031e-02 0.0000000000000000e+00 1
3.1005434875937654e-02 -1.8819237347597408e-02 0.0000000000000000e+00 1
3.7806109200563043e-02 -1.6723987575823419e-02 0.0000000000000000e+00 1
7.1878566155415703e-03 2.1285746619176741e-03 0.0000000000000000e+00 1
8.2453065790468086e-02 7.2185314899622155e-02 0.0000000000000000e+00 1
8.5764141571614785e-02 8.2471296087516549e-02 0.0000000000000000e+00 1
-9.7484481257710098e-04 -4.0712144275226707e-04 0.0000000000000000e+00 1
7.8958614131042929e-04 8.3699191680846295e-03 0.0000000000000000e+00 1
-8.0342958434889856e-03 5.4377851991472617e-03 0.0000000000000000e+00 1
7.8742987052658836e-02 9.0344269289745066e-02 0.0000000000000000e+00 1
8.9016155194419300e-02 9.2815194968361880e-02 0.0000000000000000e+00 1
-1.1328217225236525e-02 -1.9699627308160866e-02 0.0000000000000000e+00 1
-1.6591270706571827e-02 -6.3117943751933622e-02 0.0000000000000000e+00 1
-2.2457927871308504e-02 -5.8516676108900940e-02 0.0000000000000000e+00 1
3.6243122719535260e-02 -2.3423213153913661e-02 0.0000000000000000e+00 1
2.9894004283201350e-02 -2.5683776286143281e-02 0.0000000000000000e+00 1
4.2709326658671609e-02 -2.1322662775924123e-02 0.0000000000000000e+00 1
4.4322705764291322e-02 -1.4810745045438179e-02 0.0000000000000000e+00 1
9.3090316833349396e-02 7.4588460908562859e-02 0.0000000000000000e+00 1
8.2342743480148417e-02 1.0074394118409553e-01 0.0000000000000000e+00 1
9.2725758106979361e-02 1.0326119165356139e-01 0.0000000000000000e+00 1
8.5966736592872503e-02 1.1142266140098156e-01 0.0000000000000000e+00 1
9.6506036189300204e-02 1.1359311854094724e-01 0.0000000000000000e+00 1
1.0486367959591887e-01 1.0374289881781566e-01 0.0000000000000000e+00 1
1.0764337722022789e-01 1.1588829490542073e-01 0.0000000000000000e+00 1
5.4985268173486701e-02 7.5250084758028427e-02 0.0000000000000000e+00 1
-6.3004119128854856e-03 1.4638206524876527e-02 0.0000000000000000e+00 1
2.9726437078352896e-03 1.7661388516763944e-02 0.0000000000000000e+00 1
7.1258254371520335e-02 1.0024110429854205e-01 0.0000000000000000e+00 1
7.3443107992089030e-02 4.4105234015137058e-02 0.0000000000000000e+00 1
8.2321505789608534e-02 4.6101307671352190e-02 0.0000000000000000e+00 1
7.9906152397072813e-02 3.7616145237984101e-02 0.0000000000000000e+00 1
5.1376500400305541e-03 -5.9349217675638603e-02 0.0000000000000000e+00 1
-2.3520274874854863e-02 -6.6415822098280120e-02 0.0000000000000000e+00 1
-2.9917906829051922e-02 -6.1857812954822511e-02 0.0000000000000000e+00 1
-2.8649698736609192e-02 -5.3467910509484788e-02 0.0000000000000000e+00 1
-3.6629156689420232e-02 -5.6942655080239407e-02 0.0000000000000000e+00 1
-3.5404249473765859e-02 -4.8309542879482921e-02 0.0000000000000000e+00 1
-4.3712539122748154e-02 -5.1772008733935358e-02 0.0000000000000000e+00 1
-4.4742304810241301e-02 -6.0723566850372807e-02 0.0000000000000000e+00 1
-5.2284570499400260e-02 -5.5284221117472027e-02 0.0000000000000000e+00 1
-5.3168635020894868e-02 -6.5103183274001719e-02 0.0000000000000000e+00 1
-4.2506539632159869e-02 -4.2858951566071508e-02 0.0000000000000000e+00 1
-6.1255698795465968e-02 -5.9030781672490908e-02 0.0000000000000000e+00 1
-6.2386194726519899e-02 -6.8860795670505071e-02 0.0000000000000000e+00 1
-5.9833708633107482e-02 -4.9512310992878318e-02 0.0000000000000000e+00 1
-7.0703739134948651e-02 -6.2858203437314270e-02 0.0000000000000000e+00 1
-7.1917938786048949e-02 -7.3353124799145880e-02 0.0000000000000000e+00 1
-8.0521449561015604e-02 -6.6919747468974736e-02 0.0000000000000000e+00 1
-8.1720785339437024e-02 -7.7601878193859303e-02 0.0000000000000000e+00 1
-5.3933884243558598e-02 -7.5461189442323259e-02 0.0000000000000000e+00 1
-1.5482957717361327e-02 1.1455284278761357e-02 0.0000000000000000e+00 1
-3.0391716966550603e-02 -6.9462451495818978e-02 0.0000000000000000e+00 1
3.4871120766110798e-02 -2.9994685026562402e-02 0.0000000000000000e+00 1
2.8767245933593817e-02 -3.2136197849480574e-02 0.0000000000000000e+00 1
-7.3009624334004139e-02 -8.4081643888776550e-02 0.0000000000000000e+00 1
-8.2878780183280432e-02 -8.8418826826559188e-02 0.0000000000000000e+00 1
-9.1817665538537055e-02 -8.1984662407720371e-02 0.0000000000000000e+00 1
-9.2993776248400328e-02 -9.3048899750790504e-02 0.0000000000000000e+00 1
-1.0202410400762477e-01 -8.6621518465852629e-02 0.0000000000000000e+00 1
-1.0325941718411655e-01 -9.7758439230584707e-02 0.0000000000000000e+00 1
4.9164296300331242e-02 -1.9335716605318878e-02 0.0000000000000000e+00 1
5.0667654412224691e-02 -1.2950040018398105e-02 0.0000000000000000e+00 1
9.8767900853428375e-02 1.2573462362363441e-01 0.0000000000000000e+00 1
1.1104468280426376e-01 1.2702722867292568e-01 0.0000000000000000e+00 1
-1.6754535209766087e-02 2.2973979610419215e-03 0.0000000000000000e+00 1
8.8146336812949283e-02 3.9492982366529504e-02 0.0000000000000000e+00 1
8.5524382005005617e-02 3.1591819879826483e-02 0.0000000000000000e+00 1
9.0961009372210702e-02 4.7940980572612528e-02 0.0000000000000000e+00 1
-4.4085170741432703e-03 2.4244858332932842e-02 0.0000000000000000e+00 1
5.2143173185639309e-03 2.7326634839884383e-02 0.0000000000000000e+00 1
7.8041539800909193e-02 2.9830856743261639e-02 0.0000000000000000e+00 1
8.3396801693700562e-02 2.4352123640476800e-02 0.0000000000000000e+00 1
7.6448805236964693e-02 2.2581166839576599e-02 0.0000000000000000e+00 1
8.2173524948400356e-02 1.7163836144812188e-02 0.0000000000000000e+00 1
7.5012468719547851e-02 1.5813100506278269e-02 0.0000000000000000e+00 1
7.9520660655065717e-02 1.1023070222506150e-02 0.0000000000000000e+00 1
7.3307710033092013e-02 9.5066377536378883e-03 0.0000000000000000e+00 1
7.7762505356515119e-02 5.0521518471311399e-03 0.0000000000000000e+00 1
7.1658344743620622e-02 3.4056696692938821e-03 0.0000000000000000e+00 1
8.8493556126832462e-02 1.9946155977014240e-02 0.0000000000000000e+00 1
6.6729775897813301e-02 7.3339334473568329e-03 0.0000000000000000e+00 1
6.5509829757958410e-02 1.5739895064805149e-03 0.0000000000000000e+00 1
7.0160897519559076e-02 -2.7966422204967660e-03 0.0000000000000000e+00 1
-1.1178695874678157e-01 -9.1326702817215735e-02 0.0000000000000000e+00 1
-1.1353590247166967e-01 -1.0242810740330467e-01 0.0000000000000000e+00 1
-7.4062757946286348e-02 -9.4778552744803277e-02 0.0000000000000000e+00 1
1.1860849783437717e-01 1.1871132028582598e-01 0.0000000000000000e+00 1
1.2224219273791477e-01 1.2933947010867941e-01 0.0000000000000000e+00 1
1.1491314080367609e-01 1.3778059406862081e-01 0.0000000000000000e+00 1
1.2589054301395494e-01 1.4011536370671160e-01 0.0000000000000000e+00 1
5.5472650151241719e-02 -1.7455098695815487e-02 0.0000000000000000e+00 1
-3.4024610801787730e-02 -3.9489427504129808e-02 0.0000000000000000e+00 1
-4.1216425775520246e-02 -3.3827802994167454e-02 0.0000000000000000e+00 1
-3.2579598308937058e-02 -3.0409001564720404e-02 0.0000000000000000e+00 1
-4.0115516125700121e-02 -2.4627234435468642e-02 0.0000000000000000e+00 1
-4.9009982692434680e-02 -2.7988779554074250e-02 0.0000000000000000e+00 1
-4.7354038149337564e-02 -1.8221650184947712e-02 0.0000000000000000e+00 1
1.1865110737882026e-01 1.4856998886392922e-01 0.0000000000000000e+00 1
1.2953861067960787e-01 1.5092855782732217e-01 0.0000000000000000e+00 1
3.3625271029813560e-02 -3.6202770713926191e-02 0.0000000000000000e+00 1
2.7691561213573725e-02 -3.8303650731844462e-02 0.0000000000000000e+00 1
2.2807510135741248e-02 -3.4217744924241726e-02 0.0000000000000000e+00 1
2.1835917609087381e-02 -4.0468528145800937e-02 0.0000000000000000e+00 1
-3.8871452243666109e-02 -1.5163320813162939e-02 0.0000000000000000e+00 1
-4.5528530224165399e-02 -8.2542146741152213e-03 0.0000000000000000e+00 1
-7.9140278077192830e-02 -5.6262146243270174e-02 0.0000000000000000e+00 1
-8.9241489199888280e-02 -6.0319343283849393e-02 0.0000000000000000e+00 1
-1.0439049637179887e-01 -1.0907404155045380e-01 0.0000000000000000e+00 1
-1.1478950130797229e-01 -1.1374326678245100e-01 0.0000000000000000e+00 1
-1.2405054866700729e-01 -1.0705652099945633e-01 0.0000000000000000e+00 1
-1.2522581858668699e-01 -1.1842063453532316e-01 0.0000000000000000e+00 1
-1.3450414719927309e-01 -1.1175441564520654e-01 0.0000000000000000e+00 1
-1.3565711687454723e-01 -1.2310590040084989e-01 0.0000000000000000e+00 1
-2.4480104938016896e-02 8.2116367843946218e-03 0.0000000000000000e+00 1
-2.2329514019043775e-02 1.8157206763595290e-02 0.0000000000000000e+00 1
-2.4096329602316421e-03 3.4216452929980441e-02 0.0000000000000000e+00 1
7.4606901582353205e-03 3.7381972802984685e-02 0.0000000000000000e+00 1
-3.4396029164904626e-04 4.4561695071494323e-02 0.0000000000000000e+00 1
9.6221274687696545e-03 4.6838312253807968e-02 0.0000000000000000e+00 1
9.6642878617485578e-02 4.1252319650215440e-02 0.0000000000000000e+00 1
4.7650041873567313e-02 -2.6708210983636550e-02 0.0000000000000000e+00 1
1.3341781868983171e-01 1.3160010402840747e-01 0.0000000000000000e+00 1
3.9432909129977163e-02 -3.4229981548932961e-02 0.0000000000000000e+00 1
6.4158388268309108e-02 -4.5053208928237708e-03 0.0000000000000000e+00 1
5.9763458243093683e-02 -2.7286308454151313e-05 0.0000000000000000e+00 1
2.6540714069535346e-02 -4.4356980463149585e-02 0.0000000000000000e+00 1
2.0944454473648323e-02 -4.6496353833024993e-02 0.0000000000000000e+00 1
-1.2638361932101899e-01 -1.2978611664701903e-01 0.0000000000000000e+00 1
-1.3680767449033943e-01 -1.3443035455917762e-01 0.0000000000000000e+00 1
8.3582366763270272e-02 6.5274743700436217e-03 0.0000000000000000e+00 1
8.1951700930245230e-02 1.0172848052993374e-03 0.0000000000000000e+00 1
1.4842233280137340e-02 3.0222950457994571e-02 0.0000000000000000e+00 1
9.9529257967382448e-02 4.9564009519517810e-02 0.0000000000000000e+00 1
1.0604627443524810e-01 1.4639457358839456e-01 0.0000000000000000e+00 1
-6.4282702082537696e-02 -9.0423277732204960e-02 0.0000000000000000e+00 1
6.8636197953095474e-02 -8.7906873008194771e-03 0.0000000000000000e+00 1
-1.4602695048056274e-01 -1.2782342030669860e-01 0.0000000000000000e+00 1
-1.4717573933526401e-01 -1.3906236531928015e-01 0.0000000000000000e+00 1
-5.8146891858865533e-02 -2.0284873508957683e-02 0.0000000000000000e+00 1
4.5927766303954322e-02 -8.2874140809371354e-03 0.0000000000000000e+00 1
-1.7431084322662611e-02 -7.0620175053745987e-02 0.0000000000000000e+00 1
1.2231611239795190e-01 1.5937036113492012e-01 0.0000000000000000e+00 1
1.3316523805532346e-01 1.6171203674963203e-01 0.0000000000000000e+00 1
1.4061127759274797e-01 1.5321768570935407e-01 0.0000000000000000e+00 1
1.4420312698236229e-01 1.6392762488686483e-01 0.0000000000000000e+00 1
1.5166085585035013e-01 1.5553138000010230e-01 0.0000000000000000e+00 1
1.5520355803371882e-01 1.6620109673427522e-01 0.0000000000000000e+00 1
1.4785638174960994e-01 1.7450790310499970e-01 0.0000000000000000e+00 1
1.5870029086487911e-01 1.7670177253471822e-01 0.0000000000000000e+00 1
1.5145892807207351e-01 1.8494740574641164e-01 0.0000000000000000e+00 1
1.6222346308621571e-01 1.8708190872615793e-01 0.0000000000000000e+00 1
1.6806357916864283e-02 -3.6426296315505931e-02 0.0000000000000000e+00 1
-1.0051543479905303e-01 -7.6275483462422619e-02 0.0000000000000000e+00 1
5.7918484017381686e-02 8.5464268457015505e-02 0.0000000000000000e+00 1
4.7343570424123682e-02 8.2812972635586804e-02 0.0000000000000000e+00 1
5.0169327093069670e-02 9.2439492191688427e-02 0.0000000000000000e+00 1
4.4376985030360784e-02 7.2455016881286097e-02 0.0000000000000000e+00 1
3.6613437426106413e-02 8.0118312062378003e-02 0.0000000000000000e+00 1
3.3589238171592817e-02 6.9564970620533004e-02 0.0000000000000000e+00 1
2.5723414086015296e-02 7.7529897839548362e-02 0.0000000000000000e+00 1
2.2787060574025981e-02 6.6729596854255835e-02 0.0000000000000000e+00 1
1.2572823809132128e-01 1.6985178492946054e-01 0.0000000000000000e+00 1
-1.5606549034390629e-01 -1.3251600305754938e-01 0.0000000000000000e+00 1
-1.5737785891249420e-01 -1.4368252600348652e-01 0.0000000000000000e+00 1
-1.4835045172187297e-01 -1.5022196862020099e-01 0.0000000000000000e+00 1
-1.5857170023028935e-01 -1.5472926002225224e-01 0.0000000000000000e+00 1
-1.6746573690864691e-01 -1.4838666856526478e-01 0.0000000000000000e+00 1
-1.6866563533520373e-01 -1.5917361819365008e-01 0.0000000000000000e+00 1
-1.7741069683494329e-01 -1.5300950832370483e-01 0.0000000000000000e+00 1
-1.7856713835774893e-01 -1.6359481653529584e-01 0.0000000000000000e+00 1
1.5493839958304895e-01 1.9532714259542680e-01 0.0000000000000000e+00 1
1.6558905562534926e-01 1.9734540100793119e-01 0.0000000000000000e+00 1
7.1238008867557934e-02 2.7605574826202160e-02 0.0000000000000000e+00 1
9.3865013379600265e-02 5.6545573534073496e-02 0.0000000000000000e+00 1
1.0302286242609197e-01 5.7199548534450063e-02 0.0000000000000000e+00 1
-1.2015751309893880e-02 3.0789047673657328e-02 0.0000000000000000e+00 1
2.9365724330437668e-03 5.5938963462501309e-02 0.0000000000000000e+00 1
1.7910746557567966e-02 -2.9936138202293901e-02 0.0000000000000000e+00 1
1.4431037337804578e-01 1.9320450603773631e-01 0.0000000000000000e+00 1
7.4444587416277117e-02 -6.7240506048031508e-03 0.0000000000000000e+00 1
-1.7000847670014882e-01 -1.6972927589659001e-01 0.0000000000000000e+00 1
-1.7985609016609996e-01 -1.7383085509861027e-01 0.0000000000000000e+00 1
-1.0555122967141031e-01 -1.2039425037655652e-01 0.0000000000000000e+00 1
-9.5315359095719185e-02 -1.1540702526600279e-01 0.0000000000000000e+00 1
-5.8302106118730358e-02 -3.1420472742517656e-02 0.0000000000000000e+00 1
-6.8254105437158874e-02 -2.5457110411786998e-02 0.0000000000000000e+00 1
-6.8221832885047948e-02 -3.6451598911326551e-02 0.0000000000000000e+00 1
-7.7856403609299102e-02 -3.1362555639219893e-02 0.0000000000000000e+00 1
-2.6337186112893197e-02 -2.5910575795418701e-03 0.0000000000000000e+00 1
-3.4844249927009519e-02 5.9832278769540344e-03 0.0000000000000000e+00 1
2.5176495495404336e-02 -5.0143516147989960e-02 0.0000000000000000e+00 1
1.9904361239736275e-02 -5.2220439528333558e-02 0.0000000000000000e+00 1
1.5497758116751604e-02 -4.8612103479481389e-02 0.0000000000000000e+00 1
1.4758506652940002e-02 -5.4284143008778186e-02 0.0000000000000000e+00 1
1.0105516639262718e-02 -5.0982210410776434e-02 0.0000000000000000e+00 1
1.8967087896081879e-02 -5.7484606175180718e-02 0.0000000000000000e+00 1
1.4330410343430501e-02 -5.9721691108678816e-02 0.0000000000000000e+00 1
-6.5547838278482387e-02 -1.0058173635554542e-01 0.0000000000000000e+00 1
-7.5015735697858285e-02 -1.0545589373483584e-01 0.0000000000000000e+00 1
1.4765702662464011e-01 1.4487350917728042e-01 0.0000000000000000e+00 1
3.1004283394834593e-02 5.9139469007212099e-02 0.0000000000000000e+00 1
3.7925796536138395e-02 -4.0097856878825569e-02 0.0000000000000000e+00 1
4.2800909050980197e-02 -3.8227481830129327e-02 0.0000000000000000e+00 1
-1.0121410902534815e-02 -1.1552783070182144e-02 0.0000000000000000e+00 1
-1.8156608815777520e-02 -1.4392855676673755e-02 0.0000000000000000e+00 1
-1.8550403550398695e-02 -2.3032750379547474e-02 0.0000000000000000e+00 1
1.6917476583397745e-01 1.7897799411699258e-01 0.0000000000000000e+00 1
1.2147530651676813e-02 -6.7174106814067963e-02 0.0000000000000000e+00 1
6.2794906297043485e-02 -1.0308497495617889e-02 0.0000000000000000e+00 1
6.7296999008875508e-02 -1.4652111617625490e-02 0.0000000000000000e+00 1
1.0558964017157574e-01 4.2587624898640347e-02 0.0000000000000000e+00 1
-8.7793128401384021e-02 -4.9462376456178292e-02 0.0000000000000000e+00 1
-9.7651773343902182e-02 -5.3309432693271201e-02 0.0000000000000000e+00 1
-1.8801366368733091e-01 -1.6835715511862304e-01 0.0000000000000000e+00 1
-1.8933974350696134e-01 -1.7825359243746899e-01 0.0000000000000000e+00 1
-1.9740520186227067e-01 -1.7275573050042373e-01 0.0000000000000000e+00 1
-1.9876664657616236e-01 -1.8233030326050936e-01 0.0000000000000000e+00 1
1.5928587921311571e-01 1.4630032347107874e-01 0.0000000000000000e+00 1
-2.5463186167910927e-02 -3.6239175025326205e-02 0.0000000000000000e+00 1
1.1888489321368712e-02 -3.2222571458919623e-02 0.0000000000000000e+00 1
-5.7647044605537235e-03 -6.9951988972320689e-02 0.0000000000000000e+00 1
-1.3328865351866909e-01 -1.0111653751823167e-01 0.0000000000000000e+00 1
-1.4350884566321387e-01 -1.0581795132260312e-01 0.0000000000000000e+00 1
3.0541306168932983e-02 -4.7947768064973868e-02 0.0000000000000000e+00 1
-1.2747726049231756e-01 -1.4069825979669962e-01 0.0000000000000000e+00 1
-1.1690734404827380e-01 -1.3652167657521017e-01 0.0000000000000000e+00 1
-1.4956926349015587e-01 -1.6132780280943479e-01 0.0000000000000000e+00 1
5.2204786384930389e-02 -6.6610720823217289e-03 0.0000000000000000e+00 1
4.7522896879154015e-02 -2.3180283803148410e-03 0.0000000000000000e+00 1
-6.6369823470596223e-02 -1.0988759883754230e-01 0.0000000000000000e+00 1
8.7499963525316624e-02 2.4009656407116640e-03 0.0000000000000000e+00 1
8.8948436489551835e-02 7.5848247146939685e-03 0.0000000000000000e+00 1
8.5643466208495833e-02 -3.5292677743197533e-03 0.0000000000000000e+00 1
-1.3855926143978359e-01 -1.5692972852486925e-01 0.0000000000000000e+00 1
1.0257537044478143e-01 3.5505924008728394e-02 0.0000000000000000e+00 1
-2.0671976759526689e-01 -1.7710003051162368e-01 0.0000000000000000e+00 1
-8.6878013769193865e-03 5.2007422761849963e-02 0.0000000000000000e+00 1
9.2497342225642279e-02 3.7697595758371754e-03 0.0000000000000000e+00 1
9.4086563437826412e-02 8.2888909272495342e-03 0.0000000000000000e+00 1
9.0716971332607532e-02 1.2131484553493751e-02 0.0000000000000000e+00 1
9.6295138187582799e-02 1.2071681062872106e-02 0.0000000000000000e+00 1
4.4772271044086133e-02 -3.2643842794100923e-02 0.0000000000000000e+00 1
7.9686659388973499e-02 -4.8340580126521220e-03 0.0000000000000000e+00 1
-2.5484049455394175e-02 -1.8197122839312983e-02 0.0000000000000000e+00 1
1.5819934822807391e-01 2.0569275804997278e-01 0.0000000000000000e+00 1
1.6888799552504113e-01 2.0750535965156944e-01 0.0000000000000000e+00 1
1.7591448983565328e-01 1.9951942205482087e-01 0.0000000000000000e+00 1
1.7916372631260263e-01 2.0953332777483380e-01 0.0000000000000000e+00 1
1.6198983485490762e-01 2.1544039071068069e-01 0.0000000000000000e+00 1
1.9953399580376844e-02 5.6041550372397907e-02 0.0000000000000000e+00 1
1.2174210728964331e-02 6.3440988923863503e-02 0.0000000000000000e+00 1
-5.5809295467198115e-02 -9.6360540149152962e-02 0.0000000000000000e+00 1
9.0309966520057960e-02 2.5978941819311065e-02 0.0000000000000000e+00 1
9.4597847724327527e-02 2.1167105831311480e-02 0.0000000000000000e+00 1
9.5842777505511845e-02 2.6232244186461032e-02 0.0000000000000000e+00 1
2.9039887471133761e-02 8.7386149356677753e-02 0.0000000000000000e+00 1
1.7802530201452300e-02 8.6004148338803335e-02 0.0000000000000000e+00 1
2.4590420241066512e-02 -5.6185425531740489e-02 0.0000000000000000e+00 1
2.3083335536508522e-02 -6.0922249961850888e-02 0.0000000000000000e+00 1
2.8763919347873267e-02 4.9070260947647486e-02 0.0000000000000000e+00 1
-1.9030795015219365e-01 -1.8991421673905981e-01 0.0000000000000000e+00 1
-2.0081230887062257e-01 -1.9250677454248100e-01 0.0000000000000000e+00 1
-1.5522059104315591e-01 -1.2126284495172078e-01 0.0000000000000000e+00 1
2.1979753500241550e-01 2.7368020690977385e-01 0.0000000000000000e+00 1
2.2026431883982803e-01 2.7005381743432844e-01 0.0000000000000000e+00 1
3.2232893720113412e-02 -4.2132461993876047e-02 0.0000000000000000e+00 1
3.6087924996200088e-02 -4.6717218756766828e-02 0.0000000000000000e+00 1
-2.4750236602434628e-01 -2.2611451442003624e-01 0.0000000000000000e+00 1
-5.4820832527223348e-02 -8.6144710859461876e-02 0.0000000000000000e+00 1
-4.6483898762702328e-02 -9.2045258677159986e-02 0.0000000000000000e+00 1
-4.5554688261054785e-02 -8.2091437687344962e-02 0.0000000000000000e+00 1
-3.8368693192013963e-02 -8.8502727485647872e-02 0.0000000000000000e+00 1
-4.4219986218007601e-02 -7.2059196212008417e-02 0.0000000000000000e+00 1
-3.7357648566817003e-02 -7.9589323309947849e-02 0.0000000000000000e+00 1
1.0446033570578889e-01 1.8998296163086133e-02 0.0000000000000000e+00 1
-7.6572787224306854e-02 -4.4072981064767230e-02 0.0000000000000000e+00 1
-8.7470082982577857e-02 -3.8272982913785905e-02 0.0000000000000000e+00 1
7.3501116449831566e-02 -1.3352482682378321e-02 0.0000000000000000e+00 1
-8.9059047029448363e-02 -2.5085420886915500e-02 0.0000000000000000e+00 1
-7.0922211271689812e-03 6.2372628957290198e-02 0.0000000000000000e+00 1
5.3798983429886982e-02 -2.3823742849294477e-02 0.0000000000000000e+00 1
5.3064030351743174e-02 -2.9925809916775018e-02 0.0000000000000000e+00 1
5.9893279545590594e-02 -2.1824184212807879e-02 0.0000000000000000e+00 1
5.9024195324241566e-02 -2.7989023511884984e-02 0.0000000000000000e+00 1
5.7317335122427017e-02 -3.3569272424275876e-02 0.0000000000000000e+00 1
9.4452688857057918e-02 3.2751897231784670e-02 0.0000000000000000e+00 1
6.4364307785461372e-02 4.0445042702503042e-02 0.0000000000000000e+00 1
1.7968208174637693e-02 -1.6422850773036884e-02 0.0000000000000000e+00 1
1.0147544657193837e-01 1.1391846995584208e-02 0.0000000000000000e+00 1
4.0679846238053541e-02 -3.5214863558306157e-03 0.0000000000000000e+00 1
5.9801611247578462e-02 3.1897392776060962e-02 0.0000000000000000e+00 1
3.4637469705089156e-03 -4.8999796016780110e-02 0.0000000000000000e+00 1
-1.8426269770753085e-02 -8.6984715517616246e-02 0.0000000000000000e+00 1
-2.4619551051404627e-02 -8.2753939139860538e-02 0.0000000000000000e+00 1
-1.1184416032398184e-02 -8.2519132994405595e-02 0.0000000000000000e+00 1
-2.4301901380449212e-01 -2.1870237105616661e-01 0.0000000000000000e+00 1
-2.3501300303197570e-01 -2.1961695172588924e-01 0.0000000000000000e+00 1
-2.3017847692545157e-01 -2.1272242041780184e-01 0.0000000000000000e+00 1
-2.3964287729842804e-01 -2.2562202134199741e-01 0.0000000000000000e+00 1
-2.2719536488026049e-01 -2.2024793924335848e-01 0.0000000000000000e+00 1
1.4747112678240579e-01 2.0327712749439664e-01 0.0000000000000000e+00 1
1.3552105147805696e-01 2.0096056761215317e-01 0.0000000000000000e+00 1
-4.0923342477181109e-02 -1.0265506238108474e-01 0.0000000000000000e+00 1
-2.7142146638284632e-02 -4.4854421645994590e-02 0.0000000000000000e+00 1
-1.8847434995055437e-02 -4.1898181719205320e-02 0.0000000000000000e+00 1
2.4053289615337235e-02 -2.1018091673899970e-02 0.0000000000000000e+00 1
-1.1340758412121423e-02 -7.4281584967876874e-02 0.0000000000000000e+00 1
4.2059200770058910e-02 6.2341790282749880e-02 0.0000000000000000e+00 1
-2.0776631624149094e-01 -1.8637926950649997e-01 0.0000000000000000e+00 1
-2.1038228860981315e-01 -1.9599525332255452e-01 0.0000000000000000e+00 1
1.2602671665218258e-02 2.0391165464712129e-02 0.0000000000000000e+00 1
2.0434488904600090e-02 2.2271920028059323e-02 0.0000000000000000e+00 1
2.6047454518240240e-02 3.0837682109082262e-02 0.0000000000000000e+00 1
1.7871640392550459e-02 3.8843479357740650e-02 0.0000000000000000e+00 1
1.7230103294210874e-01 2.1747980413138501e-01 0.0000000000000000e+00 1
1.8241789038925599e-01 2.1904916496772567e-01 0.0000000000000000e+00 1
1.9050850767641661e-01 2.1015522406818923e-01 0.0000000000000000e+00 1
1.9205789286589420e-01 2.2095981336543838e-01 0.0000000000000000e+00 1
1.8636660787583426e-01 2.2810564104754449e-01 0.0000000000000000e+00 1
1.9518949072906266e-01 2.3039728712686341e-01 0.0000000000000000e+00 1
1.9865733810235983e-01 2.1384907715629922e-01 0.0000000000000000e+00 1
1.1285917565897755e-01 1.6689726077083741e-01 0.0000000000000000e+00 1
1.8971840289440650e-01 2.4735758896048066e-01 0.0000000000000000e+00 1
1.9807007762006604e-01 2.4415133472312919e-01 0.0000000000000000e+00 1
2.0612664808673681e-01 2.4923927950273070e-01 0.0000000000000000e+00 1
2.2465878919810311e-01 2.7291136627913598e-01 0.0000000000000000e+00 1
-3.3313146465783164e-02 -9.6279497939732034e-02 0.0000000000000000e+00 1
1.2619780984749990e-01 6.5289073941563303e-02 0.0000000000000000e+00 1
1.2069000111844461e-01 7.3823160017075951e-02 0.0000000000000000e+00 1
1.2531514067139934e-01 8.3066561290896429e-02 0.0000000000000000e+00 1
1.1496550500278525e-01 8.2518345963112041e-02 0.0000000000000000e+00 1
1.1967055011032515e-01 9.1622344524087282e-02 0.0000000000000000e+00 1
1.1086060219832811e-01 7.3336250679189210e-02 0.0000000000000000e+00 1
1.3016920086601533e-01 9.2452614369047587e-02 0.0000000000000000e+00 1
1.2327056241785252e-01 1.0067318712446377e-01 0.0000000000000000e+00 1
1.0904927349991668e-01 9.1341770645505790e-02 0.0000000000000000e+00 1
1.7226593820118374e-01 1.8942664229094131e-01 0.0000000000000000e+00 1
1.8179435902634322e-01 1.9070819022435628e-01 0.0000000000000000e+00 1
-5.7708070935205170e-02 1.1583517025562602e-02 0.0000000000000000e+00 1
-4.6123468452127121e-02 9.4200495618952888e-03 0.0000000000000000e+00 1
-3.8553976057790304e-02 1.7698334896849147e-02 0.0000000000000000e+00 1
-4.1117540734277758e-02 2.9434619163971141e-02 0.0000000000000000e+00 1
-3.2302138774282424e-02 3.9287803953200848e-02 0.0000000000000000e+00 1
-6.6252569537594758e-02 2.2010698850248997e-03 0.0000000000000000e+00 1
-6.2771930045510529e-02 -8.9948376477778143e-03 0.0000000000000000e+00 1
-5.3642454455642662e-02 -8.1570214579385460e-04 0.0000000000000000e+00 1
4.0942979953172358e-02 -2.8012288374432346e-02 0.0000000000000000e+00 1
-1.8859747516534997e-01 -1.5784251665570673e-01 0.0000000000000000e+00 1
-1.8692886778423251e-01 -1.4728661397786250e-01 0.0000000000000000e+00 1
1.0997754080889216e-01 3.2134467594826466e-02 0.0000000000000000e+00 1
9.3922236705148415e-03 1.0860236493655702e-02 0.0000000000000000e+00 1
1.2186041132641057e-01 5.6307081410272249e-02 0.0000000000000000e+00 1
1.1671615625123440e-01 6.4981176678976613e-02 0.0000000000000000e+00 1
7.6038817986255308e-02 -7.0969144462931517e-04 0.0000000000000000e+00 1
-1.8036151621102439e-01 -1.8398797863069760e-01 0.0000000000000000e+00 1
1.6602414853432318e-01 1.6855295479787133e-01 0.0000000000000000e+00 1
1.6271917148623363e-01 1.5802320791437804e-01 0.0000000000000000e+00 1
2.0627562019217391e-01 2.4018390762973124e-01 0.0000000000000000e+00 1
-1.6566349781112888e-01 -1.3766503303823110e-01 0.0000000000000000e+00 1
-9.4129509265762204e-02 -1.0427153400660677e-01 0.0000000000000000e+00 1
-8.5010870051634338e-02 -1.1038356468443210e-01 0.0000000000000000e+00 1
3.7814424736028730e-02 1.1173052936640486e-01 0.0000000000000000e+00 1
4.6645032768989451e-02 1.2007581852096395e-01 0.0000000000000000e+00 1
5.8320215236441715e-02 1.1692419986195914e-01 0.0000000000000000e+00 1
6.6941298206051519e-02 1.2520064048664806e-01 0.0000000000000000e+00 1
6.8857027455908937e-02 1.1300561474319926e-01 0.0000000000000000e+00 1
7.8598643021434822e-02 1.2024311967095205e-01 0.0000000000000000e+00 1
7.5575889658360706e-02 1.3305775712152032e-01 0.0000000000000000e+00 1
8.6795689297692866e-02 1.2999612193246204e-01 0.0000000000000000e+00 1
6.0570993486744232e-02 1.0583697263803205e-01 0.0000000000000000e+00 1
8.4191109441377573e-02 1.4166922388341033e-01 0.0000000000000000e+00 1
9.5298261461097683e-02 1.3806098301826186e-01 0.0000000000000000e+00 1
4.9671301831234790e-02 1.0929880070828531e-01 0.0000000000000000e+00 1
1.3680612362582792e-01 1.7230234256542531e-01 0.0000000000000000e+00 1
1.2815404469544159e-01 1.8157840482013513e-01 0.0000000000000000e+00 1
1.7370099816681592e-01 2.3534208841686408e-01 0.0000000000000000e+00 1
-1.0628270317951970e-01 -4.5433934758027213e-02 0.0000000000000000e+00 1
-1.1541496987975886e-01 -5.3938869422001580e-02 0.0000000000000000e+00 1
-1.1190433293346448e-01 -6.4114881469542931e-02 0.0000000000000000e+00 1
-1.1842095954442583e-01 -7.4255150626052521e-02 0.0000000000000000e+00 1
-1.3033028476078062e-01 -7.1889866172938036e-02 0.0000000000000000e+00 1
-1.2682578545644163e-01 -8.2953796023710002e-02 0.0000000000000000e+00 1
-1.3785621580302448e-01 -8.0769381898037798e-02 0.0000000000000000e+00 1
-1.5984421490926853e-01 -1.6567276469663542e-01 0.0000000000000000e+00 1
-1.6200203653772721e-01 -1.8262194192619963e-01 0.0000000000000000e+00 1
5.4816515571755944e-02 1.6172216321087195e-02 0.0000000000000000e+00 1
6.2543369808543442e-02 1.8401739991175517e-02 0.0000000000000000e+00 1
5.2130718079738278e-02 9.1287983273095619e-03 0.0000000000000000e+00 1
4.4688411617706744e-02 7.1468842190695091e-03 0.0000000000000000e+00 1
6.0023889048875692e-02 1.0519852434575420e-02 0.0000000000000000e+00 1
-1.9623700821256099e-01 -2.0535906237125603e-01 0.0000000000000000e+00 1
7.2859538259023304e-02 1.4512145006162172e-01 0.0000000000000000e+00 1
-1.4496054632126906e-01 -1.1656919262277189e-01 0.0000000000000000e+00 1
-1.5408616276642370e-01 -1.1060620965725367e-01 0.0000000000000000e+00 1
9.0406826952891289e-02 1.6202755650925141e-01 0.0000000000000000e+00 1
9.3070437111924809e-02 1.5048782795368124e-01 0.0000000000000000e+00 1
1.0241625222572777e-01 1.5864239991102005e-01 0.0000000000000000e+00 1
9.9767130756205816e-02 1.7018428768540464e-01 0.0000000000000000e+00 1
-6.3391862783315420e-02 -7.9720790398736266e-02 0.0000000000000000e+00 1
-2.2315618732494788e-01 -1.8978202725539123e-01 0.0000000000000000e+00 1
-2.1945421249910038e-01 -1.9751573625993876e-01 0.0000000000000000e+00 1
-2.2494750064445174e-01 -2.0523417523443849e-01 0.0000000000000000e+00 1
-2.1439963330817091e-01 -2.0592300426173243e-01 0.0000000000000000e+00 1
-1.7897666470007057e-02 -7.8516010156438262e-02 0.0000000000000000e+00 1
-8.6306933708968553e-02 -1.3146973583451818e-01 0.0000000000000000e+00 1
-1.0562965049413217e-01 -1.4361840185612670e-01 0.0000000000000000e+00 1
-1.0608232048360980e-01 -1.3160962623646644e-01 0.0000000000000000e+00 1
-1.1778628190287355e-01 -1.4925558414951040e-01 0.0000000000000000e+00 1
1.3693961177118266e-01 1.4243463828826031e-01 0.0000000000000000e+00 1
1.4399448943745691e-01 1.3407625574088555e-01 0.0000000000000000e+00 1
1.4084241822077165e-01 1.2314288767571147e-01 0.0000000000000000e+00 1
1.2973853600935517e-01 1.2111474389927786e-01 0.0000000000000000e+00 1
1.3742980333968746e-01 1.1245926063553238e-01 0.0000000000000000e+00 1
1.5030450476911142e-01 1.1447031130513392e-01 0.0000000000000000e+00 1
1.5141028690472488e-01 1.2705182046006283e-01 0.0000000000000000e+00 1
1.1570883148646974e-01 1.0822851318625548e-01 0.0000000000000000e+00 1
1.1317894528992856e-01 3.9477920489473288e-02 0.0000000000000000e+00 1
-2.3367066572396478e-01 -2.0466069353283387e-01 0.0000000000000000e+00 1
-7.7936020281814636e-02 -1.9509770722282466e-02 0.0000000000000000e+00 1
-2.1284423369726529e-01 -2.1589982746302916e-01 0.0000000000000000e+00 1
-1.2299756957302123e-01 -9.4263383835851436e-02 0.0000000000000000e+00 1
1.1652317938750624e-01 1.8596712855167843e-01 0.0000000000000000e+00 1
1.3569521791689132e-01 8.3632117606107378e-02 0.0000000000000000e+00 1
-2.0593400597458431e-01 -1.6659534876323742e-01 0.0000000000000000e+00 1
-1.1582330556982869e-01 -1.2507926185883772e-01 0.0000000000000000e+00 1
1.8206131736003089e-01 1.7218736273423080e-01 0.0000000000000000e+00 1
1.0419533974822109e-01 8.1922652158010228e-02 0.0000000000000000e+00 1
-2.1128325764774383e-02 -5.0673034645676268e-02 0.0000000000000000e+00 1
-1.7438085692971059e-01 -1.2427376298365243e-01 0.0000000000000000e+00 1
1.4066344332684783e-01 1.8282825675395967e-01 0.0000000000000000e+00 1
7.8917930683610082e-02 6.2292805533514177e-02 0.0000000000000000e+00 1
-1.3807896547859844e-01 -1.4516582536697040e-01 0.0000000000000000e+00 1
4.9040289843010183e-02 -4.2865479614610597e-02 0.0000000000000000e+00 1
-8.4015238232203665e-02 -9.9392878624671277e-02 0.0000000000000000e+00 1
4.0997607523880944e-02 -4.9055971420376814e-02 0.0000000000000000e+00 1
1.0157429090289716e-02 -4.5237092478035951e-02 0.0000000000000000e+00 1
8.5143401841319161e-02 1.2066434345025088e-02 0.0000000000000000e+00 1
6.4192220208239087e-02 1.3682722058071858e-01 0.0000000000000000e+00 1
7.1682741369486699e-02 3.5695258597014064e-02 0.0000000000000000e+00 1
-1.5247974600207062e-01 -9.9061681015686465e-02 0.0000000000000000e+00 1
-1.7974960631142858e-01 -1.9440460625711814e-01 0.0000000000000000e+00 1
2.1175361102007215e-01 2.3217989425725163e-01 0.0000000000000000e+00 1
-2.6046707596880647e-01 -2.4284840330157073e-01 0.0000000000000000e+00 1
3.3206502116701744e-02 -5.5476623580349577e-02 0.0000000000000000e+00 1
1.8581108922585501e-01 2.0045557258018290e-01 0.0000000000000000e+00 1
-9.0524462525136490e-02 -7.1259012348584241e-02 0.0000000000000000e+00 1
2.5563032612916745e-02 1.5203508154662050e-02 0.0000000000000000e+00 1
1.5569416562148192e-02 -6.8705774218509055e-02 0.0000000000000000e+00 1
-2.4731606526479272e-01 -2.3813740501174660e-01 0.0000000000000000e+00 1
5.2204317029712413e-02 6.5160978895298233e-02 0.0000000000000000e+00 1
8.6402908671344550e-02 -8.7282686733665248e-03 0.0000000000000000e+00 1
1.4050295308192748e-01 9.3109721681362112e-02 0.0000000000000000e+00 1
7.2118728297260654e-02 -2.2524678465253620e-02 0.0000000000000000e+00 1
4.2072667668823290e-02 1.0054082139701542e-01 0.0000000000000000e+00 1
1.3042284581039489e-02 7.4322238599778212e-02 0.0000000000000000e+00 1
3.4621469243006381e-02 2.5936123985642684e-02 0.0000000000000000e+00 1
9.7969346949303968e-02 6.4882217202247530e-02 0.0000000000000000e+00 1
6.8328408387228784e-02 8.7858236746542223e-02 0.0000000000000000e+00 1
2.2291366766323198e-01 2.5769076896878595e-01 0.0000000000000000e+00 1
1.1238340295331045e-01 5.5357818915742520e-02 0.0000000000000000e+00 1
6.8425988858779263e-02 -2.6044885492714036e-02 0.0000000000000000e+00 1
6.6320199921572467e-02 -2.0545487233813799e-02 0.0000000000000000e+00 1
7.9151802980497926e-02 -1.5437462906288004e-02 0.0000000000000000e+00 1
6.9751862049561852e-02 2.0576642276476053e-02 0.0000000000000000e+00 1
-2.3786980159913645e-01 -2.3213584381215993e-01 0.0000000000000000e+00 1
2.5156634748966615e-03 -7.5455924660442097e-02 0.0000000000000000e+00 1
1.2079230626869683e-03 -5.5430350664794875e-02 0.0000000000000000e+00 1
2.0322496649684266e-01 2.3140577015808303e-01 0.0000000000000000e+00 1
1.3405056513865476e-01 1.0210924561127278e-01 0.0000000000000000e+00 1
6.1407286588838303e-02 -1.6038458833458710e-02 0.0000000000000000e+00 1
1.7065947560007191e-01 1.5073460449197931e-01 0.0000000000000000e+00 1
-9.5968155215672632e-02 -1.2622445704742935e-01 0.0000000000000000e+00 1
-2.9623566975034647e-02 2.6677260880046082e-02 0.0000000000000000e+00 1
2.1814918098328184e-01 2.4590027471612372e-01 0.0000000000000000e+00 1
3.9212290670026032e-02 -9.9765881914203915e-03 0.0000000000000000e+00 1
9.8472385077276528e-03 -5.6530349423382580e-02 0.0000000000000000e+00 1
5.6665684608706059e-02 -1.1445373745071720e-02 0.0000000000000000e+00 1
-1.4173931209321827e-01 -1.6880099824578279e-01 0.0000000000000000e+00 1
-4.9862764505874353e-02 -3.7249093263570419e-02 0.0000000000000000e+00 1
-3.6264567300344101e-02 -5.1086453992682046e-03 0.0000000000000000e+00 1
-1.0072793745314070e-01 -6.5002859500366675e-02 0.0000000000000000e+00 1
3.6741834997949280e-02 3.4497900398636712e-02 0.0000000000000000e+00 1
1.5278766327571962e-02 4.5291030334021851e-03 0.0000000000000000e+00 1
-6.9137324795567209e-02 -5.2973018289029832e-02 0.0000000000000000e+00 1
8.4996287429576073e-02 5.4815226221569299e-02 0.0000000000000000e+00 1
7.8629580498810608e-02 -1.0129036397085314e-02 0.0000000000000000e+00 1
-2.3419246346204738e-03 -8.6676090457572033e-03 0.0000000000000000e+00 1
6.7894845926239011e-02 1.3691984401583328e-02 0.0000000000000000e+00 1
-1.3488540402021600e-02 2.1020130015357633e-02 0.0000000000000000e+00 1
-5.0903723284523292e-02 -4.6324193740703477e-02 0.0000000000000000e+00 1
1.9040086960484290e-01 2.3776376676234706e-01 0.0000000000000000e+00 1
-1.1055933567153294e-02 4.1245968714071372e-02 0.0000000000000000e+00 1
9.6916309091068492e-02 4.4477102204698842e-03 0.0000000000000000e+00 1
-2.1190452789777221e-02 3.6091237817149006e-02 0.0000000000000000e+00 1
-3.7306320488569689e-02 -6.5171144297777858e-02 0.0000000000000000e+00 1
2.3958585715296944e-02 -2.7968359201542455e-02 0.0000000000000000e+00 1
1.0920534701247847e-02 -3.8813422642797912e-02 0.0000000000000000e+00 1
-1.1861808245098970e-02 -2.7651002619835389e-02 0.0000000000000000e+00 1
-1.7685550696718544e-01 -1.4154683741953836e-01 0.0000000000000000e+00 1
9.9258832634020439e-02 9.3620048214185375e-02 0.0000000000000000e+00 1
1.6027075317981525e-02 -4.2675632815774515e-02 0.0000000000000000e+00 1
1.6113042053854713e-02 -2.3188415123826397e-02 0.0000000000000000e+00 1
-2.2150424010584416e-01 -2.1362214661933573e-01 0.0000000000000000e+00 1
2.2587379390466300e-01 2.6696435492070236e-01 0.0000000000000000e+00 1
3.3865557063827392e-02 -4.8393867387459622e-03 0.0000000000000000e+00 1
-2.5452480051706949e-01 -2.4145562397522005e-01 0.0000000000000000e+00 1
-2.5662953331994454e-01 -2.3973254570980063e-01 0.0000000000000000e+00 1
2.1742924265092259e-01 2.6632694838926552e-01 0.0000000000000000e+00 1
4.8044389401465736e-02 -3.7590595473686109e-02 0.0000000000000000e+00 1
-2.5381818241649512e-01 -2.3727943166873369e-01 0.0000000000000000e+00 1
3.9531718517169523e-02 5.2480202053308417e-02 0.0000000000000000e+00 1
8.9635479726872053e-02 -5.8909872869551171e-03 0.0000000000000000e+00 1
2.9150167910180033e-02 -5.3340461271390617e-02 0.0000000000000000e+00 1
1.8764449659592577e-02 -6.2281662983449025e-02 0.0000000000000000e+00 1
6.0397213319295026e-02 9.5511165563033837e-02 0.0000000000000000e+00 1
-9.0088724089728602e-03 -3.0699008942454619e-03 0.0000000000000000e+00 1
-1.1034574145574177e-01 -8.0861429449948050e-02 0.0000000000000000e+00 1
8.3895703507511198e-03 -2.6292340744693912e-02 0.0000000000000000e+00 1
1.7671586389063826e-01 2.2652297193352053e-01 0.0000000000000000e+00 1
5.6874266679436732e-03 -3.4591451746965637e-02 0.0000000000000000e+00 1
9.9931424797149483e-03 -6.2994106881602299e-02 0.0000000000000000e+00 1
-2.3970941630597577e-02 -7.4204482379869180e-02 0.0000000000000000e+00 1
1.3456020641286170e-01 1.9065209319410931e-01 0.0000000000000000e+00 1
9.4264957196325008e-02 8.5083530467327390e-02 0.0000000000000000e+00 1
-1.1102565707072697e-02 -6.6997915126078431e-02 0.0000000000000000e+00 1
-8.5758210952148445e-02 -1.2073361121266568e-01 0.0000000000000000e+00 1
1.2630593535015991e-01 1.1082053765237357e-01 0.0000000000000000e+00 1
6.4565079639643794e-02 2.5558800061003653e-02 0.0000000000000000e+00 1
7.1079915181490427e-02 -1.7821273465685430e-02 0.0000000000000000e+00 1
-1.6470318472122195e-01 -1.2695798601038494e-01 0.0000000000000000e+00 1
-7.5781602218213256e-02 -1.1541424907974641e-01 0.0000000000000000e+00 1
-1.9538910223463968e-01 -1.5053288628331923e-01 0.0000000000000000e+00 1
2.8357176859288256e-02 4.0447896034682788e-02 0.0000000000000000e+00 1
8.8548660177651312e-02 6.4218266383264916e-02 0.0000000000000000e+00 1
2.2197011138626813e-01 2.6638874401070878e-01 0.0000000000000000e+00 1
-1.7525149287417524e-02 -6.4960528025654911e-03 0.0000000000000000e+00 1
-2.4764042500172748e-01 -2.3314843649206918e-01 0.0000000000000000e+00 1
1.9172193525051162e-01 1.9046100249141021e-01 0.0000000000000000e+00 1
2.2494217836326814e-02 9.5890035918168526e-02 0.0000000000000000e+00 1
-2.5952329943777941e-01 -2.3884745692931042e-01 0.0000000000000000e+00 1
1.6813197206266084e-01 1.4111063371588742e-01 0.0000000000000000e+00 1
3.9858274168045306e-02 8.9869004314944101e-02 0.0000000000000000e+00 1
5.8500167186797569e-02 -5.9808820089125711e-03 0.0000000000000000e+00 1
-1.3422883659366897e-01 -9.0649580208250299e-02 0.0000000000000000e+00 1
-1.6527367294042833e-02 5.8595186641291604e-02 0.0000000000000000e+00 1
1.0521405207154280e-01 1.3499960059436747e-01 0.0000000000000000e+00 1
-2.1529614519878143e-01 -1.9031964408016097e-01 0.0000000000000000e+00 1
2.0047049608271889e-01 2.2317505700964782e-01 0.0000000000000000e+00 1
-1.3257562699664086e-01 -1.6514881603121656e-01 0.0000000000000000e+00 1
-1.7121263658581945e-01 -1.7878605046744825e-01 0.0000000000000000e+00 1
1.5652832703069069e-01 2.2291894581196117e-01 0.0000000000000000e+00 1
-2.5465276732147341e-02 -2.6817533822545370e-02 0.0000000000000000e+00 1
2.2703510797885865e-01 2.7289143128132393e-01 0.0000000000000000e+00 1
6.3720487345087312e-02 -2.4906711222986218e-02 0.0000000000000000e+00 1
9.5323765759600762e-02 1.0261363614425176e-03 0.0000000000000000e+00 1
-1.4304530533587781e-02 -4.8578991712412846e-02 0.0000000000000000e+00 1
1.0754657875680609e-01 6.4886882056641393e-02 0.0000000000000000e+00 1
5.3597429876669572e-02 -7.1553303861720586e-04 0.0000000000000000e+00 1
-5.8125614204146858e-02 -1.1395681047600341e-01 0.0000000000000000e+00 1
1.0241627047016051e-01 7.2144000225474292e-02 0.0000000000000000e+00 1
-2.0381290255166012e-01 -2.0194238751837310e-01 0.0000000000000000e+00 1
1.7709386282893261e-02 1.3358918302588901e-02 0.0000000000000000e+00 1
1.1256803576056459e-01 1.5664274760526431e-01 0.0000000000000000e+00 1
-6.8685481399480941e-02 -1.6418290068202186e-02 0.0000000000000000e+00 1
8.9273327819563680e-02 1.2028338980526636e-01 0.0000000000000000e+00 1
1.0644330188013099e-01 5.0086712346628946e-02 0.0000000000000000e+00 1
6.1594050755653218e-02 -3.2702210136180784e-02 0.0000000000000000e+00 1
-2.3774982789340135e-02 -1.0804509804303709e-02 0.0000000000000000e+00 1
2.1140647307270694e-01 2.4517448656391502e-01 0.0000000000000000e+00 1
2.1821204583331588e-02 -6.4644513611517671e-02 0.0000000000000000e+00 1
2.0595947288747207e-01 2.1781608372952285e-01 0.0000000000000000e+00 1
-1.9729565099154224e-02 2.6546976629961066e-02 0.0000000000000000e+00 1
-5.9045580778843421e-02 -4.0959128663943717e-02 0.0000000000000000e+00 1
2.0383765502483031e-01 2.5578980998298079e-01 0.0000000000000000e+00 1
-6.7091576546555037e-02 -1.1965687131931767e-01 0.0000000000000000e+00 1
1.4079757673772572e-01 2.0981204332356612e-01 0.0000000000000000e+00 1
-1.8776452045915253e-02 -3.1904001838036392e-02 0.0000000000000000e+00 1
-4.3280654071857765e-02 2.4494304393440837e-04 0.0000000000000000e+00 1
-2.4317713398094537e-01 -2.3027326178272325e-01 0.0000000000000000e+00 1
5.8834209745737770e-03 -5.3746556259332313e-02 0.0000000000000000e+00 1
-9.5599871477519277e-02 -4.4272918441860917e-02 0.0000000000000000e+00 1
1.1451257942209658e-01 9.9121742859625592e-02 0.0000000000000000e+00 1
1.1833999715599353e-01 1.7653611668453845e-01 0.0000000000000000e+00 1
2.1737725613678588e-01 2.5660802528712445e-01 0.0000000000000000e+00 1
2.8580807171635150e-03 6.6724033368488159e-02 0.0000000000000000e+00 1
-5.3699081641365221e-02 -1.1687031712524351e-02 0.0000000000000000e+00 1
4.1113327296735253e-02 -4.3748481915284791e-02 0.0000000000000000e+00 1
9.9331922782038701e-02 1.6489116341890805e-02 0.0000000000000000e+00 1
6.1589507382404256e-02 4.7127239200117832e-03 0.0000000000000000e+00 1
-3.2337211737366992e-02 -2.1664908626201802e-02 0.0000000000000000e+00 1
1.7760133682653942e-01 1.8132972736273606e-01 0.0000000000000000e+00 1
1.5274004764793825e-01 1.3697790727850676e-01 0.0000000000000000e+00 1
1.9984716891956161e-01 2.0608228961059968e-01 0.0000000000000000e+00 1
-1.2181809811147330e-02 -4.2580757849179800e-02 0.0000000000000000e+00 1
2.1988035945490261e-01 2.6192519983699958e-01 0.0000000000000000e+00 1
5.2749221682079926e-02 -3.5202481974065850e-02 0.0000000000000000e+00 1
-1.6170799848621864e-01 -1.0570541388363650e-01 0.0000000000000000e+00 1
-2.1347470044366942e-01 -1.7294596509214941e-01 0.0000000000000000e+00 1
8.0880374666703111e-03 8.3790847389422232e-02 0.0000000000000000e+00 1
-6.6562246863374586e-02 -4.4793807584389132e-02 0.0000000000000000e+00 1
8.2653987431278608e-02 -7.8957858398447569e-03 0.0000000000000000e+00 1
7.7070061403891998e-02 1.0846436786525530e-01 0.0000000000000000e+00 1
9.2880976367571269e-02 1.6148434623169939e-02 0.0000000000000000e+00 1
-1.3010340539201309e-01 -1.4965227538159492e-01 0.0000000000000000e+00 1
-5.7353304807712703e-02 -1.0466159202124602e-01 0.0000000000000000e+00 1
2.2357287408700299e-01 2.7017103414985583e-01 0.0000000000000000e+00 1
1.4922845463779023e-02 -6.4549423333078990e-02 0.0000000000000000e+00 1
-1.6266064941363212e-01 -1.7376995025509101e-01 0.0000000000000000e+00 1
-1.0639634335795718e-01 -5.6359995568641928e-02 0.0000000000000000e+00 1
1.9404706450971018e-02 4.7818141192634861e-02 0.0000000000000000e+00 1
1.0046856426139479e-01 2.2782401610008583e-02 0.0000000000000000e+00 1
-3.6743288632826276e-02 -7.2231276549452592e-02 0.0000000000000000e+00 1
1.0194523892458085e-01 2.9133200848760758e-02 0.0000000000000000e+00 1
3.3224280235653728e-02 -5.1149399214310616e-02 0.0000000000000000e+00 1
-2.9965356098105734e-02 -7.7458496335071278e-02 0.0000000000000000e+00 1
5.6180359805222707e-02 -3.7566150481902601e-02 0.0000000000000000e+00 1
-1.9538436256839867e-01 -1.6476399109792167e-01 0.0000000000000000e+00 1
2.6803842229441207e-02 -6.0850708651249835e-02 0.0000000000000000e+00 1
-3.0059300651096025e-02 1.5040990579843386e-02 0.0000000000000000e+00 1
-1.8678194598299447e-01 -1.3879463844960729e-01 0.0000000000000000e+00 1
2.1488828907857904e-01 2.5060139233849726e-01 0.0000000000000000e+00 1
-2.5897897643846263e-01 -2.4097806730412044e-01 0.0000000000000000e+00 1
-1.9519356680618105e-01 -1.9785568876750298e-01 0.0000000000000000e+00 1
-2.5056544991749691e-01 -2.3613405151082065e-01 0.0000000000000000e+00 1
4.4929503308168209e-02 -4.2040507772342875e-02 0.0000000000000000e+00 1
1.7336404260660368e-01 1.7186978587021365e-01 0.0000000000000000e+00 1
1.9863220492859762e-01 2.3678041328003080e-01 0.0000000000000000e+00 1
1.5862106824692607e-01 1.2147615270137414e-01 0.0000000000000000e+00 1
-4.8311101248265056e-02 -9.9707598439487677e-02 0.0000000000000000e+00 1
-1.4109431771431580e-01 -9.7042670393274702e-02 0.0000000000000000e+00 1
-9.9136295688576201e-04 -7.2078795233928905e-02 0.0000000000000000e+00 1
2.8153187511661473e-02 2.2503809231190046e-02 0.0000000000000000e+00 1
6.6494098223475448e-02 3.2137564827382649e-02 0.0000000000000000e+00 1
1.2348867034241852e-02 5.4824615052547022e-02 0.0000000000000000e+00 1
5.6177391946073518e-02 4.5570678297602073e-03 0.0000000000000000e+00 1
-3.1371920275218255e-02 -1.2345460123424450e-02 0.0000000000000000e+00 1
-2.2456331614384761e-01 -2.2637231912966269e-01 0.0000000000000000e+00 1
-1.1807540295528240e-01 -8.4732092550555554e-02 0.0000000000000000e+00 1
4.9240084261473735e-02 -3.2341859251258383e-02 0.0000000000000000e+00 1
1.8112750398220537e-01 2.3401604166146031e-01 0.0000000000000000e+00 1
5.3341122825135631e-02 1.0097106774700944e-01 0.0000000000000000e+00 1
4.9643573350509722e-02 3.3359113130504224e-03 0.0000000000000000e+00 1
1.1148338099509636e-01 4.6210590743628592e-02 0.0000000000000000e+00 1
2.2223121829153950e-01 2.7242072718726529e-01 0.0000000000000000e+00 1
-3.1145670309915455e-02 -8.7121127574491211e-02 0.0000000000000000e+00 1
-4.0666410259234176e-02 -9.5242089410843375e-02 0.0000000000000000e+00 1
-8.5429678942035861e-02 -1.3961431844967629e-02 0.0000000000000000e+00 1
-1.7288016723192287e-01 -1.3269813754529183e-01 0.0000000000000000e+00 1
3.3530307903170825e-02 9.5382047743691412e-02 0.0000000000000000e+00 1
-1.0857275382314907e-01 -7.2508037015862767e-02 0.0000000000000000e+00 1
-5.3861841563931957e-03 7.1158267028879507e-02 0.0000000000000000e+00 1
4.2986730035356385e-02 1.2852221274503078e-03 0.0000000000000000e+00 1
8.7866373108828208e-02 1.5292311501144294e-02 0.0000000000000000e+00 1
1.0783037417879446e-01 3.7426484247917120e-02 0.0000000000000000e+00 1
1.3575462070885627e-02 -2.7909866382433458e-02 0.0000000000000000e+00 1

Edges
170
1 2 1
2 3 1
3 4 1
4 5 1
5 6 1
6 7 1
7 8 1
8 9 1
9 10 1
10 11 1
11 12 1
12 13 1
13 14 1
14 15 1
15 16 1
16 17 1
17 18 1
18 19 1
19 20 1
20 21 1
21 22 1
22 23 1
23 24 1
24 25 1
25 26 1
26 27 1
27 28 1
28 29 1
29 30 1
30 31 1
31 32 1
32 33 1
33 34 1
34 35 1
35 36 1
36 37 1
37 38 1
38 39 1
39 40 1
40 41 1
41 42 1
42 43 1
43 44 1
44 45 1
45 46 1
46 47 1
47 48 1
48 49 1
49 50 1
50 51 1
51 52 1
52 53 1
53 54 1
54 55 1
55 56 1
56 57 1
57 58 1
58 59 1
59 60 1
60 61 1
61 62 1
62 63 1
63 64 1
64 65 1
65 66 1
66 67 1
67 68 1
68 69 1
69 70 1
70 71 1
71 72 1
72 73 1
73 74 1
74 75 1
75 76 1
76 77 1
77 78 1
78 79 1
79 80 1
80 81 1
81 82 1
82 83 1
83 84 1
84 85 1
85 86 1
86 87 1
87 88 1
88 89 1
89 90 1
90 91 1
91 92 1
92 93 1
93 94 1
94 95 1
95 96 1
96 97 1
97 98 1
98 99 1
99 100 1
100 101 1
101 102 1
102 103 1
103 104 1
104 105 1
105 106 1
106 107 1
107 108 1
108 109 1
109 110 1
110 111 1
111 112 1
112 113 1
113 114 1
114 115 1
115 116 1
116 117 1
117 118 1
118 119 1
119 120 1
120 121 1
121 122 1
122 123 1
123 124 1
124 125 1
125 126 1
126 127 1
127 128 1
128 129 1
129 130 1
130 131 1
131 132 1
132 133 1
133 134 1
134 135 1
135 136 1
136 137 1
137 138 1
138 139 1
139 140 1
140 141 1
141 142 1
142 143 1
143 144 1
144 145 1
145 146 1
146 147 1
147 148 1
148 149 1
149 150 1
150 151 1
151 152 1
152 153 1
153 154 1
154 155 1
155 156 1
156 157 1
157 158 1
158 159 1
159 160 1
160 161 1
161 162 1
162 163 1
163 164 1
164 165 1
165 166 1
166 167 1
167 168 1
168 169 1
169 170 1
170 1 1

Triangles
1738
120 197 602 1
697 622 698 1
239 111 874 1
497 821 907 1
605 260 877 1
189 531 533 1
617 214 893 1
6 7 743 1
578 215 763 1
105 106 233 1
613 756 782 1
226 597 599 1
543 786 901 1
519 605 877 1
487 488 576 1
216 703 720 1
531 189 538 1
501 560 811 1
539 171 541 1
703 216 861 1
672 434 696 1
560 288 811 1
202 549 615 1
537 181 792 1
214 617 745 1
720 703 803 1
610 703 861 1
103 104 233 1
576 488 577 1
543 480 786 1
203 527 684 1
7 227 743 1
242 244 766 1
42 242 766 1
323 636 882 1
636 323 800 1
146 191 579 1
110 111 239 1
610 701 703 1
328 666 670 1
212 567 914 1
583 762 770 1
586 555 913 1
592 495 736 1
666 328 902 1
597 226 600 1
81 82 714 1
535 586 913 1
690 381 788 1
521 177 931 1
535 420 586 1
208 563 694 1
669 363 672 1
234 1 235 1
214 745 838 1
119 120 602 1
527 203 778 1
840 236 922 1
567 524 914 1
205 656 657 1
727 800 824 1
542 421 647 1
480 543 654 1
807 806 810 1
541 171 589 1
727 636 800 1
536 221 609 1
687 690 788 1
177 521 607 1
497 776 821 1
566 524 567 1
339 341 573 1
561 206 741 1
598 600 803 1
696 434 697 1
289 592 736 1
622 210 698 1
796 606 802 1
622 697 863 1
145 146 579 1
612 611 862 1
188 81 714 1
675 197 722 1
745 638 838 1
747 612 862 1
578 763 786 1
727 318 860 1
756 613 932 1
103 233 853 1
27 28 708 1
518 193 841 1
171 539 793 1
751 533 901 1
792 181 794 1
614 833 910 1
193 518 892 1
602 197 823 1
109 110 238 1
170 1 234 1
209 545 549 1
478 796 802 1
733 809 925 1
549 202 851 1
198 534 849 1
205 657 771 1
350 569 571 1
807 840 922 1
318 727 824 1
534 198 904 1
439 645 864 1
598 597 600 1
762 583 854 1
350 571 573 1
335 313 728 1
441 607 825 1
42 43 242 1
833 560 910 1
222 720 803 1
191 577 579 1
189 533 812 1
43 174 242 1
640 490 641 1
551 755 885 1
4 5 743 1
807 235 840 1
208 694 897 1
762 510 770 1
613 782 833 1
607 521 825 1
539 538 793 1
234 235 810 1
541 888 903 1
421 542 939 1
341 350 573 1
181 537 845 1
426 524 566 1
545 209 601 1
318 304 834 1
313 252 728 1
241 625 921 1
706 526 708 1
233 106 237 1
567 212 735 1
238 239 240 1
755 179 885 1
339 573 795 1
488 486 719 1
221 536 898 1
215 578 829 1
655 561 741 1
657 518 771 1
434 672 846 1
614 613 833 1
533 543 901 1
526 706 707 1
769 713 827 1
621 617 893 1
421 316 647 1
372 380 553 1
218 658 742 1
584 173 854 1
28 706 708 1
534 527 778 1
181 138 643 1
198 27 708 1
708 525 904 1
621 92 871 1
202 615 819 1
888 554 903 1
806 228 810 1
809 503 925 1
818 259 820 1
644 645 646 1
713 188 714 1
649 159 832 1
568 234 837 1
401 426 566 1
92 621 893 1
201 648 832 1
553 380 554 1
648 201 917 1
743 227 922 1
275 272 805 1
40 177 595 1
420 366 586 1
520 818 820 1
282 285 591 1
175 558 918 1
569 350 699 1
108 232 564 1
106 107 237 1
733 213 809 1
600 222 803 1
672 363 846 1
589 70 888 1
383 480 654 1
457 608 750 1
590 275 805 1
619 620 791 1
534 778 849 1
573 571 574 1
915 574 945 1
645 439 886 1
366 331 367 1
604 335 728 1
159 649 920 1
526 525 708 1
363 669 865 1
608 290 750 1
695 696 697 1
757 318 834 1
276 275 689 1
675 722 883 1
367 371 372 1
538 189 855 1
74 182 717 1
771 518 841 1
619 791 940 1
133 557 839 1
372 374 380 1
719 486 864 1
139 642 643 1
581 421 582 1
169 568 596 1
776 332 821 1
742 658 768 1
321 667 902 1
564 232 565 1
671 672 696 1
587 284 591 1
39 40 595 1
592 253 767 1
226 599 765 1
644 184 645 1
714 82 928 1
41 42 766 1
646 645 886 1
430 431 531 1
194 671 696 1
506 544 852 1
635 769 827 1
330 329 331 1
532 531 538 1
486 439 864 1
315 301 606 1
596 568 599 1
557 133 899 1
585 56 867 1
170 234 568 1
1 2 235 1
702 225 718 1
367 372 553 1
56 585 916 1
198 708 904 1
372 373 374 1
266 265 588 1
367 331 371 1
543 431 654 1
38 39 593 1
361 421 581 1
583 581 584 1
597 596 599 1
559 496 814 1
236 4 743 1
625 869 921 1
194 126 692 1
376 378 430 1
69 70 589 1
436 510 578 1
287 284 587 1
594 915 945 1
143 184 644 1
598 702 718 1
558 496 559 1
492 494 496 1
695 697 698 1
671 194 692 1
47 559 870 1
430 378 431 1
173 584 867 1
301 298 606 1
123 124 698 1
139 140 642 1
625 241 874 1
608 501 811 1
108 109 232 1
230 624 625 1
558 175 813 1
583 584 854 1
531 431 533 1
686 279 688 1
512 576 577 1
593 39 595 1
707 483 725 1
285 686 687 1
687 686 690 1
607 441 704 1
138 139 643 1
532 538 539 1
423 542 647 1
330 331 366 1
374 375 376 1
431 378 654 1
558 559 918 1
594 704 822 1
491 492 558 1
206 561 923 1
430 531 532 1
559 814 870 1
426 427 491 1
852 544 890 1
667 666 902 1
423 400 502 1
511 420 535 1
371 331 739 1
492 496 558 1
641 490 919 1
721 682 844 1
519 604 605 1
581 582 584 1
289 255 592 1
559 47 918 1
302 301 314 1
502 566 567 1
337 335 604 1
480 436 578 1
197 675 823 1
629 633 653 1
595 177 607 1
284 282 591 1
773 641 919 1
383 436 480 1
595 607 704 1
426 491 524 1
300 298 301 1
209 549 851 1
575 178 911 1
353 423 647 1
285 280 686 1
391 770 777 1
316 314 647 1
473 371 739 1
562 610 861 1
230 112 623 1
372 371 373 1
188 713 769 1
533 751 812 1
230 623 624 1
491 427 492 1
496 494 497 1
423 502 503 1
183 639 640 1
169 170 568 1
584 582 585 1
361 316 421 1
168 169 596 1
400 401 566 1
279 276 689 1
374 376 737 1
471 545 601 1
391 361 581 1
353 400 423 1
432 611 612 1
430 532 737 1
391 581 583 1
300 301 302 1
302 314 316 1
353 354 400 1
314 315 353 1
739 587 933 1
643 773 794 1
432 370 611 1
344 347 699 1
71 178 575 1
307 303 651 1
571 572 574 1
299 292 329 1
271 269 298 1
350 344 699 1
70 575 888 1
401 403 426 1
703 702 803 1
519 392 604 1
365 489 836 1
571 570 572 1
376 377 378 1
392 337 604 1
405 646 886 1
660 661 734 1
126 127 692 1
532 540 737 1
271 298 300 1
686 688 690 1
615 548 616 1
210 123 698 1
299 329 330 1
70 71 575 1
242 174 243 1
40 41 177 1
479 471 601 1
292 287 587 1
231 168 596 1
526 707 725 1
370 327 611 1
569 570 571 1
661 499 734 1
288 560 833 1
71 72 178 1
238 240 808 1
551 477 934 1
183 640 641 1
33 859 875 1
611 327 651 1
794 773 872 1
127 128 738 1
911 178 913 1
394 392 519 1
757 475 857 1
415 773 919 1
670 664 673 1
547 472 637 1
124 695 698 1
546 548 615 1
383 424 436 1
639 644 646 1
436 509 510 1
269 266 588 1
502 400 566 1
868 489 936 1
183 141 639 1
569 552 570 1
180 38 593 1
501 550 560 1
18 19 691 1
293 299 731 1
216 18 691 1
280 279 686 1
282 280 285 1
616 617 618 1
426 403 427 1
639 142 644 1
594 593 704 1
181 643 794 1
327 307 651 1
329 292 587 1
107 108 564 1
329 587 739 1
231 596 597 1
673 754 941 1
642 641 773 1
379 383 654 1
235 2 840 1
111 112 230 1
770 509 777 1
835 804 906 1
582 421 939 1
9 10 228 1
400 354 401 1
435 569 699 1
517 536 609 1
459 501 608 1
177 766 931 1
374 373 375 1
314 301 315 1
591 285 828 1
547 637 638 1
268 266 269 1
577 488 579 1
754 456 941 1
618 617 621 1
379 382 383 1
640 639 646 1
664 663 673 1
223 114 676 1
298 588 606 1
362 361 391 1
140 141 183 1
457 459 608 1
562 609 610 1
688 279 689 1
112 113 623 1
603 36 627 1
446 518 657 1
190 663 664 1
317 316 361 1
459 461 501 1
472 451 637 1
574 572 945 1
257 255 289 1
757 857 860 1
619 618 620 1
477 551 885 1
652 628 653 1
353 315 354 1
167 168 231 1
134 135 179 1
435 552 569 1
264 262 265 1
225 166 718 1
255 253 592 1
7 8 227 1
374 737 953 1
616 548 617 1
142 143 644 1
3 4 236 1
131 186 662 1
152 195 683 1
366 367 586 1
137 138 181 1
270 269 271 1
151 152 683 1
546 547 548 1
562 861 923 1
515 516 517 1
489 780 936 1
562 517 609 1
692 127 738 1
678 196 679 1
143 144 184 1
217 22 685 1
561 517 562 1
517 516 536 1
376 375 377 1
298 269 588 1
113 223 623 1
482 514 515 1
435 498 552 1
587 591 933 1
217 655 741 1
483 707 772 1
278 276 279 1
314 353 647 1
73 74 717 1
515 514 516 1
190 129 663 1
355 386 435 1
701 225 702 1
606 588 802 1
417 370 432 1
76 628 652 1
274 272 275 1
99 100 220 1
234 810 924 1
665 664 666 1
701 610 847 1
21 217 741 1
680 681 682 1
149 196 678 1
140 183 642 1
482 470 514 1
22 23 685 1
549 546 615 1
682 721 938 1
617 548 745 1
605 728 856 1
432 613 614 1
191 147 677 1
113 114 223 1
663 662 673 1
677 148 678 1
380 374 953 1
114 115 676 1
661 826 831 1
616 618 619 1
468 469 470 1
130 662 663 1
207 768 848 1
693 523 694 1
563 208 830 1
666 664 670 1
141 142 639 1
468 467 469 1
190 664 665 1
501 461 550 1
312 441 825 1
388 387 712 1
101 102 219 1
545 472 546 1
412 523 693 1
451 507 637 1
546 472 547 1
471 451 472 1
37 38 180 1
19 20 206 1
625 624 658 1
680 196 681 1
74 75 182 1
238 110 239 1
675 674 730 1
481 470 482 1
147 148 677 1
347 355 699 1
445 448 674 1
592 767 880 1
131 132 186 1
673 662 754 1
130 131 662 1
466 467 468 1
450 449 451 1
836 489 868 1
679 196 680 1
207 742 768 1
791 223 940 1
563 693 694 1
291 287 292 1
165 166 225 1
500 709 710 1
435 386 498 1
148 149 678 1
628 629 653 1
660 484 661 1
443 445 674 1
111 230 874 1
17 18 216 1
576 406 784 1
681 151 683 1
136 580 951 1
368 366 420 1
665 666 667 1
466 464 467 1
503 502 887 1
293 292 299 1
515 517 561 1
479 601 602 1
21 22 217 1
35 36 603 1
492 493 494 1
358 360 660 1
146 147 191 1
451 449 507 1
378 377 379 1
436 424 509 1
115 116 202 1
515 561 655 1
447 446 657 1
128 129 190 1
432 612 613 1
695 194 696 1
470 469 648 1
448 447 449 1
804 219 906 1
524 491 813 1
129 130 663 1
295 293 731 1
471 472 545 1
450 451 471 1
545 546 549 1
180 593 594 1
196 150 681 1
197 121 722 1
445 446 447 1
358 660 734 1
438 463 464 1
682 681 683 1
383 382 424 1
15 16 222 1
711 712 713 1
438 437 463 1
76 77 628 1
125 194 695 1
264 265 266 1
23 24 203 1
150 151 681 1
17 216 720 1
152 153 195 1
297 295 304 1
324 323 716 1
387 324 716 1
487 576 900 1
605 604 728 1
448 449 450 1
125 126 194 1
121 122 722 1
163 164 221 1
378 379 654 1
124 125 695 1
443 444 445 1
115 202 676 1
465 464 466 1
117 118 209 1
128 190 738 1
648 469 649 1
711 713 714 1
305 304 318 1
149 150 196 1
429 437 438 1
629 631 633 1
408 484 660 1
433 420 511 1
709 422 710 1
536 516 724 1
710 422 711 1
482 515 655 1
302 316 317 1
13 14 226 1
77 78 185 1
464 463 659 1
445 447 448 1
413 412 693 1
514 470 648 1
19 206 691 1
120 121 197 1
445 444 446 1
423 503 542 1
23 203 685 1
408 483 484 1
422 388 712 1
443 399 444 1
462 443 674 1
444 399 709 1
34 35 187 1
122 123 210 1
429 413 437 1
513 677 909 1
467 464 659 1
468 470 481 1
360 408 660 1
500 444 709 1
468 481 684 1
452 797 801 1
90 91 214 1
417 432 614 1
355 435 699 1
442 399 443 1
88 89 199 1
668 667 669 1
268 269 270 1
671 669 672 1
547 638 745 1
240 239 241 1
29 30 204 1
711 422 712 1
701 702 703 1
700 225 701 1
390 422 709 1
31 32 192 1
533 431 543 1
710 711 715 1
317 361 362 1
165 225 700 1
364 324 387 1
325 457 750 1
86 87 205 1
527 466 684 1
706 204 707 1
243 508 821 1
466 468 684 1
331 329 739 1
462 674 675 1
390 388 422 1
26 27 198 1
52 53 176 1
391 583 770 1
463 437 563 1
160 161 201 1
155 156 208 1
322 320 323 1
187 35 603 1
398 390 399 1
428 413 429 1
29 204 706 1
449 447 656 1
438 464 465 1
182 760 943 1
30 31 705 1
826 192 831 1
442 443 462 1
204 30 705 1
483 409 725 1
80 81 188 1
446 500 518 1
399 390 709 1
157 158 200 1
465 466 527 1
28 29 706 1
411 412 413 1
304 295 731 1
355 356 386 1
93 94 207 1
408 409 483 1
77 185 628 1
31 192 705 1
409 411 725 1
412 522 523 1
389 388 390 1
428 526 725 1
364 387 388 1
398 399 442 1
360 385 408 1
588 265 802 1
401 402 403 1
613 612 932 1
122 210 722 1
656 447 657 1
428 429 525 1
411 410 412 1
411 413 428 1
221 164 700 1
711 714 715 1
164 165 700 1
83 84 193 1
446 444 500 1
428 525 526 1
668 669 671 1
54 55 213 1
457 458 459 1
437 413 693 1
50 51 212 1
195 153 740 1
475 760 857 1
408 385 409 1
412 410 522 1
389 390 398 1
498 499 530 1
325 455 457 1
411 428 725 1
409 410 411 1
665 667 668 1
161 162 724 1
716 635 827 1
95 96 218 1
438 465 732 1
274 275 276 1
347 349 355 1
859 530 875 1
385 384 721 1
410 385 721 1
409 385 410 1
525 429 732 1
78 79 723 1
322 323 324 1
270 271 272 1
522 410 721 1
376 430 737 1
651 303 783 1
87 88 726 1
507 449 656 1
674 448 730 1
360 384 385 1
618 621 848 1
364 388 389 1
563 437 693 1
579 488 719 1
450 471 479 1
459 460 461 1
205 87 726 1
465 534 732 1
156 157 729 1
419 417 614 1
65 66 189 1
802 265 818 1
278 279 280 1
429 438 732 1
363 324 364 1
20 21 741 1
297 304 305 1
633 631 727 1
88 199 726 1
442 462 622 1
512 406 576 1
341 344 350 1
208 156 729 1
36 37 627 1
245 243 821 1
201 161 724 1
628 185 629 1
548 547 745 1
389 398 434 1
448 450 730 1
393 392 394 1
554 888 911 1
75 76 652 1
183 641 642 1
311 506 798 1
465 527 534 1
45 46 211 1
360 359 384 1
643 642 773 1
157 200 729 1
593 595 704 1
53 54 733 1
166 167 718 1
342 337 392 1
797 736 801 1
315 606 796 1
450 479 730 1
167 231 718 1
291 292 293 1
605 856 894 1
60 61 215 1
322 324 363 1
355 349 356 1
176 53 733 1
723 79 752 1
668 671 692 1
185 78 723 1
492 427 493 1
498 386 499 1
300 775 805 1
262 259 818 1
199 638 891 1
623 223 791 1
694 523 740 1
365 414 489 1
358 359 360 1
241 239 874 1
707 204 772 1
247 245 332 1
359 357 453 1
662 186 754 1
321 320 322 1
649 469 799 1
308 351 365 1
54 213 733 1
80 188 752 1
72 73 650 1
153 154 740 1
386 356 734 1
609 221 847 1
63 64 751 1
62 63 172 1
190 665 738 1
267 266 268 1
48 49 175 1
312 333 441 1
457 455 458 1
203 24 778 1
206 20 741 1
16 17 720 1
760 866 943 1
356 358 734 1
683 195 844 1
356 357 358 1
319 310 320 1
665 668 738 1
632 630 634 1
311 505 506 1
49 50 744 1
358 357 359 1
397 395 404 1
440 362 528 1
309 305 310 1
578 510 829 1
79 80 752 1
86 205 771 1
9 228 806 1
309 319 328 1
716 323 882 1
177 41 766 1
638 199 838 1
550 461 551 1
296 295 297 1
467 659 799 1
630 185 723 1
568 837 879 1
319 320 321 1
356 349 357 1
57 58 173 1
731 299 785 1
631 632 636 1
697 434 863 1
379 381 382 1
668 692 738 1
330 366 368 1
499 386 734 1
51 52 735 1
459 458 460 1
323 320 800 1
632 634 635 1
251 249 253 1
11 12 229 1
629 630 631 1
717 182 943 1
231 597 598 1
631 636 727 1
347 348 349 1
418 417 419 1
491 558 813 1
453 357 746 1
634 723 752 1
263 262 264 1
52 176 735 1
94 95 742 1
713 712 827 1
309 310 319 1
476 792 794 1
401 354 402 1
802 818 955 1
387 716 827 1
243 174 508 1
137 181 845 1
272 271 805 1
261 259 262 1
231 598 718 1
634 630 723 1
182 652 760 1
348 346 406 1
297 305 309 1
485 486 487 1
631 630 632 1
368 420 433 1
652 653 760 1
416 370 417 1
294 296 325 1
178 650 913 1
659 463 830 1
532 539 540 1
675 730 823 1
407 512 513 1
254 253 255 1
369 327 370 1
256 255 257 1
629 185 630 1
326 307 327 1
258 257 259 1
461 460 755 1
553 555 586 1
396 439 485 1
50 212 744 1
689 275 952 1
348 406 407 1
528 362 777 1
503 887 925 1
294 293 295 1
480 578 786 1
309 328 758 1
277 276 278 1
286 284 287 1
290 287 291 1
182 75 652 1
97 98 224 1
553 554 555 1
584 585 867 1
407 406 512 1
294 295 296 1
342 392 393 1
325 454 455 1
273 272 274 1
68 69 171 1
349 348 746 1
257 289 820 1
212 51 735 1
289 797 820 1
719 184 947 1
347 346 348 1
638 637 891 1
37 180 627 1
300 302 775 1
357 349 746 1
367 553 586 1
510 509 770 1
325 296 454 1
281 280 282 1
667 321 865 1
61 62 763 1
85 86 771 1
283 282 284 1
58 59 761 1
203 684 908 1
564 565 944 1
460 458 556 1
528 843 858 1
43 44 174 1
455 454 456 1
655 217 850 1
348 407 746 1
484 483 772 1
2 3 840 1
393 394 395 1
283 286 288 1
403 402 452 1
59 60 753 1
365 351 414 1
304 731 834 1
485 487 873 1
460 556 557 1
494 493 495 1
344 346 347 1
204 705 772 1
702 598 803 1
418 419 477 1
132 133 839 1
405 404 780 1
487 486 488 1
296 297 758 1
264 266 267 1
145 579 947 1
551 461 755 1
676 202 819 1
775 590 805 1
522 721 844 1
715 193 892 1
297 309 758 1
489 414 490 1
616 619 819 1
184 144 947 1
290 291 750 1
317 362 440 1
373 371 473 1
286 287 290 1
752 188 769 1
764 687 788 1
793 538 855 1
474 433 475 1
207 94 742 1
91 92 893 1
397 404 405 1
291 293 294 1
260 605 894 1
283 284 286 1
274 276 277 1
343 340 345 1
506 505 544 1
440 528 529 1
24 25 778 1
418 477 537 1
424 382 425 1
253 249 767 1
379 377 381 1
341 343 344 1
715 714 928 1
416 417 418 1
336 338 339 1
460 557 755 1
330 368 785 1
13 226 765 1
512 577 881 1
453 746 781 1
375 373 764 1
843 425 858 1
270 272 273 1
485 439 486 1
767 332 880 1
199 89 838 1
12 13 765 1
267 268 303 1
677 678 909 1
308 365 816 1
178 72 650 1
362 391 777 1
175 49 744 1
261 262 263 1
289 736 797 1
369 370 416 1
336 335 337 1
344 343 346 1
454 296 758 1
281 282 283 1
294 325 750 1
656 205 926 1
278 280 281 1
326 327 369 1
537 477 580 1
735 176 887 1
338 337 342 1
290 608 811 1
96 97 774 1
159 160 832 1
474 475 757 1
339 340 341 1
381 690 889 1
254 255 256 1
222 16 720 1
305 318 824 1
369 416 476 1
299 330 785 1
258 259 261 1
650 73 717 1
117 209 851 1
256 257 258 1
710 715 892 1
332 776 880 1
215 61 763 1
580 136 845 1
273 274 747 1
291 294 750 1
237 107 564 1
328 670 815 1
261 263 311 1
334 313 335 1
336 337 338 1
393 395 396 1
746 407 781 1
624 623 791 1
440 529 590 1
26 198 849 1
247 332 767 1
561 562 923 1
635 634 769 1
611 651 862 1
277 278 756 1
497 494 776 1
60 215 753 1
396 395 397 1
256 258 260 1
760 475 866 1
414 351 415 1
482 655 850 1
677 513 881 1
341 340 343 1
649 799 920 1
172 63 751 1
202 116 851 1
368 433 474 1
496 497 814 1
98 99 759 1
33 34 859 1
308 326 351 1
396 397 439 1
95 218 742 1
11 229 749 1
306 307 308 1
368 474 785 1
600 226 937 1
251 253 254 1
494 495 776 1
311 504 505 1
634 752 769 1
407 513 781 1
267 303 306 1
403 452 801 1
135 136 951 1
44 45 748 1
704 441 822 1
452 478 520 1
724 516 917 1
396 485 779 1
193 84 841 1
15 222 937 1
311 263 504 1
222 600 937 1
308 307 326 1
220 100 804 1
274 277 747 1
577 191 881 1
8 9 806 1
173 58 761 1
339 338 340 1
10 11 749 1
62 172 763 1
90 214 838 1
306 303 307 1
452 402 478 1
469 467 799 1
768 620 848 1
359 453 817 1
781 679 950 1
133 134 899 1
192 32 875 1
235 807 810 1
650 535 913 1
250 252 312 1
772 705 826 1
814 211 870 1
334 335 336 1
92 93 871 1
354 315 796 1
363 364 846 1
406 346 784 1
264 267 787 1
514 648 917 1
333 334 352 1
490 640 878 1
278 281 756 1
760 653 857 1
573 574 912 1
646 405 878 1
100 101 804 1
761 753 762 1
601 209 876 1
495 592 880 1
312 313 333 1
389 434 846 1
263 264 787 1
493 427 801 1
302 317 775 1
246 245 247 1
333 313 334 1
687 764 828 1
67 68 793 1
59 753 761 1
201 724 917 1
158 159 920 1
312 252 313 1
47 48 918 1
489 490 780 1
402 354 796 1
499 661 831 1
342 393 779 1
102 103 853 1
250 249 251 1
518 500 892 1
648 649 832 1
498 530 905 1
267 306 787 1
248 247 249 1
441 333 822 1
193 715 928 1
484 772 826 1
320 310 800 1
763 172 786 1
233 626 853 1
218 96 774 1
217 685 850 1
283 288 782 1
510 762 829 1
250 251 252 1
46 47 870 1
64 65 812 1
848 621 871 1
479 602 823 1
303 268 783 1
427 403 801 1
495 493 736 1
462 675 883 1
434 398 863 1
442 622 863 1
724 162 898 1
285 687 828 1
453 781 950 1
509 424 843 1
322 363 865 1
536 724 898 1
249 247 767 1
373 473 764 1
690 688 935 1
567 735 887 1
635 716 882 1
540 539 541 1
268 270 783 1
726 199 891 1
195 740 930 1
343 345 784 1
265 262 818 1
85 771 841 1
800 310 824 1
271 300 805 1
456 454 815 1
45 211 748 1
346 343 784 1
317 440 775 1
155 208 897 1
345 340 790 1
56 57 867 1
873 487 900 1
163 221 898 1
65 189 812 1
404 890 936 1
404 395 890 1
831 192 875 1
751 64 812 1
694 740 897 1
83 193 928 1
418 537 792 1
393 396 779 1
541 589 888 1
778 25 849 1
336 339 795 1
281 283 782 1
554 380 903 1
210 622 883 1
615 616 819 1
740 154 897 1
732 534 904 1
478 402 796 1
440 590 775 1
542 503 809 1
456 754 842 1
415 351 789 1
369 476 789 1
286 290 811 1
728 252 856 1
777 509 843 1
377 375 788 1
787 306 816 1
756 281 782 1
209 118 876 1
504 263 787 1
452 520 797 1
736 493 801 1
338 342 790 1
653 633 857 1
351 326 789 1
740 523 930 1
455 456 842 1
476 416 792 1
814 497 907 1
712 387 827 1
585 582 896 1
244 243 245 1
326 369 789 1
416 418 792 1
174 44 748 1
261 311 798 1
504 787 816 1
556 458 842 1
768 658 927 1
645 184 864 1
99 220 759 1
270 273 783 1
248 249 250 1
340 338 790 1
524 813 914 1
594 822 915 1
246 247 248 1
576 784 900 1
375 764 788 1
189 66 855 1
640 646 878 1
55 56 916 1
721 384 938 1
119 602 876 1
332 245 821 1
246 248 521 1
705 192 826 1
334 336 795 1
659 830 948 1
632 635 882 1
260 258 798 1
68 171 793 1
342 779 790 1
384 359 817 1
381 377 788 1
726 891 926 1
661 484 826 1
244 245 246 1
700 701 847 1
758 328 815 1
221 700 847 1
475 433 866 1
258 261 798 1
208 729 830 1
852 519 877 1
89 90 838 1
352 334 795 1
730 479 823 1
555 911 913 1
288 286 811 1
782 288 833 1
508 174 748 1
175 744 813 1
669 667 865 1
658 624 927 1
310 305 824 1
463 563 830 1
328 319 902 1
224 98 759 1
799 200 920 1
766 244 931 1
275 590 952 1
599 568 879 1
530 499 831 1
633 727 860 1
890 544 936 1
160 201 832 1
722 210 883 1
620 618 848 1
610 609 847 1
97 224 774 1
382 381 889 1
528 777 843 1
731 785 834 1
226 14 937 1
104 105 233 1
230 625 874 1
191 677 881 1
259 257 820 1
565 232 808 1
682 683 844 1
186 132 839 1
454 758 815 1
179 755 899 1
84 85 841 1
306 308 816 1
216 691 861 1
572 627 945 1
229 12 765 1
394 519 852 1
579 719 947 1
233 237 626 1
219 102 853 1
819 619 940 1
333 352 822 1
252 251 856 1
765 599 879 1
530 859 905 1
844 195 930 1
66 67 855 1
753 215 829 1
626 219 853 1
476 794 872 1
850 685 908 1
627 180 945 1
658 218 869 1
25 26 849 1
785 474 834 1
116 117 851 1
242 243 244 1
250 312 825 1
364 389 846 1
481 482 850 1
5 6 743 1
565 808 835 1
795 573 912 1
762 753 829 1
256 260 894 1
839 556 949 1
458 455 842 1
502 567 887 1
439 397 886 1
474 757 834 1
184 719 864 1
889 690 935 1
798 506 877 1
799 659 948 1
227 807 922 1
557 556 839 1
580 477 885 1
136 137 845 1
816 365 836 1
749 229 837 1
680 682 938 1
228 10 749 1
759 220 895 1
101 219 804 1
625 658 869 1
352 912 915 1
651 783 862 1
884 759 895 1
537 580 845 1
761 762 854 1
424 425 843 1
861 691 923 1
67 793 855 1
118 119 876 1
205 726 926 1
186 839 949 1
603 627 946 1
490 414 919 1
764 473 828 1
797 520 820 1
398 442 863 1
34 187 859 1
565 835 906 1
783 273 862 1
505 504 836 1
433 511 866 1
394 852 890 1
755 557 899 1
685 203 908 1
32 33 875 1
679 781 909 1
229 765 879 1
419 614 910 1
220 804 835 1
227 806 807 1
747 277 932 1
321 322 865 1
857 633 860 1
786 172 901 1
773 415 872 1
511 535 954 1
688 689 942 1
602 601 876 1
248 250 825 1
500 710 892 1
251 254 856 1
591 828 933 1
134 179 899 1
57 173 867 1
521 248 825 1
240 241 884 1
905 187 929 1
529 528 858 1
244 246 931 1
173 761 854 1
419 910 934 1
637 507 891 1
481 850 908 1
670 673 941 1
830 729 948 1
273 747 862 1
211 46 870 1
93 207 871 1
544 505 868 1
405 780 878 1
622 462 883 1
218 774 869 1
318 757 860 1
214 91 893 1
232 238 808 1
14 15 937 1
780 490 878 1
505 836 868 1
929 603 946 1
223 676 940 1
179 135 951 1
679 680 950 1
162 163 898 1
504 816 836 1
227 8 806 1
171 69 589 1
345 790 873 1
570 929 946 1
790 779 873 1
776 495 880 1
200 799 948 1
154 155 897 1
530 831 875 1
560 550 910 1
837 234 924 1
552 905 929 1
636 632 882 1
612 747 932 1
477 419 934 1
207 848 871 1
513 512 881 1
779 485 873 1
678 679 909 1
552 498 905 1
572 570 946 1
912 574 915 1
3 236 840 1
748 211 907 1
835 808 895 1
570 552 929 1
891 507 926 1
395 394 890 1
187 603 929 1
676 819 940 1
813 744 914 1
525 732 904 1
684 481 908 1
781 513 909 1
232 109 238 1
397 405 886 1
345 873 900 1
516 514 917 1
319 321 902 1
425 382 889 1
473 739 933 1
144 145 947 1
219 626 906 1
200 158 920 1
856 254 894 1
737 540 953 1
817 680 938 1
254 256 894 1
910 550 934 1
82 83 928 1
260 798 877 1
415 789 872 1
507 656 926 1
529 942 952 1
523 522 930 1
780 404 936 1
213 55 916 1
789 476 872 1
691 206 923 1
627 572 946 1
48 175 918 1
555 554 911 1
717 511 954 1
729 200 948 1
550 551 934 1
211 814 907 1
176 733 925 1
888 575 911 1
744 212 914 1
896 582 939 1
809 213 896 1
817 453 950 1
784 345 900 1
511 717 943 1
172 751 901 1
456 815 941 1
180 594 945 1
224 759 884 1
818 520 955 1
828 473 933 1
522 844 930 1
414 415 919 1
754 186 949 1
650 717 954 1
478 802 955 1
822 352 915 1
942 689 952 1
240 884 895 1
224 884 921 1
540 541 903 1
277 756 932 1
246 521 931 1
508 748 907 1
624 791 927 1
535 650 954 1
837 229 879 1
749 837 924 1
791 620 927 1
506 852 877 1
680 817 950 1
620 768 927 1
590 529 952 1
869 774 921 1
556 842 949 1
884 241 921 1
520 478 955 1
352 795 912 1
808 240 895 1
220 835 895 1
859 187 905 1
903 380 953 1
815 670 941 1
774 224 921 1
384 817 938 1
236 743 922 1
858 425 935 1
565 906 944 1
540 903 953 1
542 809 939 1
887 176 925 1
529 858 942 1
237 564 944 1
866 511 943 1
425 889 935 1
228 749 924 1
906 626 944 1
896 213 916 1
809 896 939 1
544 868 936 1
842 754 949 1
858 935 942 1
580 885 951 1
885 179 951 1
626 237 944 1
585 896 916 1
810 228 924 1
935 688 942 1
821 508 907 1

End
