MeshVersionFormatted 2
Dimension 3

Vertices
283
-2.9399463826578015e-01 -4.8323161729576158e-01 0.0000000000000000e+00 1
-2.9758270918566671e-01 -4.9028622132354216e-01 0.0000000000000000e+00 1
-3.0052629871827963e-01 -4.9624191581559218e-01 0.0000000000000000e+00 1
-3.0284122535532038e-01 -5.0112537250132361e-01 0.0000000000000000e+00 1
-3.0454330758849085e-01 -5.0496326311014916e-01 0.0000000000000000e+00 1
-3.0564836390949263e-01 -5.0778225937148125e-01 0.0000000000000000e+00 1
-3.0617221281002743e-01 -5.0960903301473193e-01 0.0000000000000000e+00 1
-3.0613067278179706e-01 -5.1047025576931437e-01 0.0000000000000000e+00 1
-3.0553956231650320e-01 -5.1039259936464010e-01 0.0000000000000000e+00 1
-3.0441469990584757e-01 -5.0940273553012239e-01 0.0000000000000000e+00 1
-3.0277190404153165e-01 -5.0752733599517275e-01 0.0000000000000000e+00 1
-3.0062699321525743e-01 -5.0479307248920424e-01 0.0000000000000000e+00 1
-2.9799578591872655e-01 -5.0122661674162949e-01 0.0000000000000000e+00 1
-2.9489410064364052e-01 -4.9685464048186012e-01 0.0000000000000000e+00 1
-2.9133775588170141e-01 -4.9170381543930908e-01 0.0000000000000000e+00 1
-2.8734257012461056e-01 -4.8580081334338854e-01 0.0000000000000000e+00 1
-2.8292436186406983e-01 -4.7917230592351101e-01 0.0000000000000000e+00 1
-2.7809894959178094e-01 -4.7184496490908900e-01 0.0000000000000000e+00 1
-2.7288215179944564e-01 -4.6384546202953492e-01 0.0000000000000000e+00 1
-2.6728978697876571e-01 -4.5520046901426114e-01 0.0000000000000000e+00 1
-2.6133767362144250e-01 -4.4593665759267986e-01 0.0000000000000000e+00 1
-2.5504163021917803e-01 -4.3608069949420369e-01 0.0000000000000000e+00 1
-2.4841747526367386e-01 -4.2565926644824514e-01 0.0000000000000000e+00 1
-2.4148102724663195e-01 -4.1469903018421661e-01 0.0000000000000000e+00 1
-2.3424810465975376e-01 -4.0322666243153049e-01 0.0000000000000000e+00 1
-2.2673452599474092e-01 -3.9126883491959874e-01 0.0000000000000000e+00 1
-2.1895610974329527e-01 -3.7885221937783442e-01 0.0000000000000000e+00 1
-2.1092867439711849e-01 -3.6600348753564960e-01 0.0000000000000000e+00 1
-2.0266803844791254e-01 -3.5274931112245689e-01 0.0000000000000000e+00 1
-1.9419002038737876e-01 -3.3911636186766869e-01 0.0000000000000000e+00 1
-1.8551043870721901e-01 -3.2513131150069718e-01 0.0000000000000000e+00 1
-1.7664511189913484e-01 -3.1082083175095476e-01 0.0000000000000000e+00 1
-1.6760985845482812e-01 -2.9621159434785405e-01 0.0000000000000000e+00 1
-1.5842049686600068e-01 -2.8133027102080754e-01 0.0000000000000000e+00 1
-1.4909284562435393e-01 -2.6620353349922754e-01 0.0000000000000000e+00 1
-1.3964272322158983e-01 -2.5085805351252644e-01 0.0000000000000000e+00 1
-1.3008594814940994e-01 -2.3532050279011665e-01 0.0000000000000000e+00 1
-1.2043833889951595e-01 -2.1961755306141048e-01 0.0000000000000000e+00 1
-1.1071571396360970e-01 -2.0377587605582062e-01 0.0000000000000000e+00 1
-1.0093389183339276e-01 -1.8782214350275914e-01 0.0000000000000000e+00 1
-9.1108691000566969e-02 -1.7178302713163887e-01 0.0000000000000000e+00 1
-8.1255929956833881e-02 -1.5568519867187178e-01 0.0000000000000000e+00 1
-7.1391427193895254e-02 -1.3955532985287050e-01 0.0000000000000000e+00 1
-6.1531001203452937e-02 -1.2342009240404758e-01 0.0000000000000000e+00 1
-5.1690470477208386e-02 -1.0730615805481517e-01 0.0000000000000000e+00 1
-4.1885653506863560e-02 -9.1240198534585926e-02 0.0000000000000000e+00 1
-3.2132368784119944e-02 -7.5248885572772012e-02 0.0000000000000000e+00 1
-2.2446434800679357e-02 -5.9358890898786043e-02 0.0000000000000000e+00 1
-1.2843670048243550e-02 -4.3596886242040361e-02 0.0000000000000000e+00 1
-3.3398930185140896e-03 -2.7989543331947336e-02 0.0000000000000000e+00 1
6.0490777968071549e-03 -1.2563533897919560e-02 0.0000000000000000e+00 1
1.5307423906018615e-02 2.6544703306308481e-03 0.0000000000000000e+00 1
2.4419326817418541e-02 1.7637797624291227e-02 0.0000000000000000e+00 1
3.3368968039305134e-02 3.2359776253649178e-02 0.0000000000000000e+00 1
4.2140529079976854e-02 4.6793734489292485e-02 0.0000000000000000e+00 1
5.0718191447731889e-02 6.0913000601808577e-02 0.0000000000000000e+00 1
5.9086136650868509e-02 7.4690902861784952e-02 0.0000000000000000e+00 1
6.7228546197685118e-02 8.8100769539809415e-02 0.0000000000000000e+00 1
7.5129601596479856e-02 1.0111592890646934e-01 0.0000000000000000e+00 1
8.2773484355551194e-02 1.1370970923235253e-01 0.0000000000000000e+00 1
9.0144375983197314e-02 1.2585543878804645e-01 0.0000000000000000e+00 1
9.7226457987716480e-02 1.3752644584413859e-01 0.0000000000000000e+00 1
1.0400391187740710e-01 1.4869605867121674e-01 0.0000000000000000e+00 1
1.1046091916056736e-01 1.5933760553986828e-01 0.0000000000000000e+00 1
1.1658166134549564e-01 1.6942441472068101e-01 0.0000000000000000e+00 1
1.2235031994049020e-01 1.7892981448424239e-01 0.0000000000000000e+00 1
1.2775107645384925e-01 1.8782713310113994e-01 0.0000000000000000e+00 1
1.3276811239387126e-01 1.9608969884196140e-01 0.0000000000000000e+00 1
1.3458941652051365e-01 1.9918128744664948e-01 0.0000000000000000e+00 1
1.3645583020520177e-01 2.0252331115312688e-01 0.0000000000000000e+00 1
1.3836220370770386e-01 2.0609346784074495e-01 0.0000000000000000e+00 1
1.4030338728778810e-01 2.0986945538885524e-01 0.0000000000000000e+00 1
1.4227423120522281e-01 2.1382897167680920e-01 0.0000000000000000e+00 1
1.4426958571977611e-01 2.1794971458395820e-01 0.0000000000000000e+00 1
1.4628430109121626e-01 2.2220938198965379e-01 0.0000000000000000e+00 1
1.4831322757931154e-01 2.2658567177324740e-01 0.0000000000000000e+00 1
1.5035121544383012e-01 2.3105628181409049e-01 0.0000000000000000e+00 1
1.5239311494454022e-01 2.3559890999153449e-01 0.0000000000000000e+00 1
1.5443377634121008e-01 2.4019125418493092e-01 0.0000000000000000e+00 1
1.5646804989360796e-01 2.4481101227363120e-01 0.0000000000000000e+00 1
1.5849078586150200e-01 2.4943588213698678e-01 0.0000000000000000e+00 1
1.6049683450466051e-01 2.5404356165434916e-01 0.0000000000000000e+00 1
1.6248104608285172e-01 2.5861174870506975e-01 0.0000000000000000e+00 1
1.6443827085584378e-01 2.6311814116849996e-01 0.0000000000000000e+00 1
1.6636335908340499e-01 2.6754043692399143e-01 0.0000000000000000e+00 1
1.6825116102530352e-01 2.7185633385089547e-01 0.0000000000000000e+00 1
1.7009652694130767e-01 2.7604352982856362e-01 0.0000000000000000e+00 1
1.7189430709118556e-01 2.8007972273634729e-01 0.0000000000000000e+00 1
1.7363935173470546e-01 2.8394261045359781e-01 0.0000000000000000e+00 1
1.7532651113163567e-01 2.8760989085966693e-01 0.0000000000000000e+00 1
1.7695063554174428e-01 2.9105926183390585e-01 0.0000000000000000e+00 1
1.7850657522479962e-01 2.9426842125566621e-01 0.0000000000000000e+00 1
1.7998918044056994e-01 2.9721506700429934e-01 0.0000000000000000e+00 1
1.8189128206244606e-01 3.0086202142735119e-01 0.0000000000000000e+00 1
1.8417590711243559e-01 3.0515595688147579e-01 0.0000000000000000e+00 1
1.8680554311273961e-01 3.1003254618330689e-01 0.0000000000000000e+00 1
1.8974267758555899e-01 3.1542746214947803e-01 0.0000000000000000e+00 1
1.9294979805309476e-01 3.2127637759662314e-01 0.0000000000000000e+00 1
1.9638939203754791e-01 3.2751496534137581e-01 0.0000000000000000e+00 1
2.0002394706111931e-01 3.3407889820036951e-01 0.0000000000000000e+00 1
2.0381595064601005e-01 3.4090384899023829e-01 0.0000000000000000e+00 1
2.0772789031442113e-01 3.4792549052761562e-01 0.0000000000000000e+00 1
2.1172225358855334e-01 3.5507949562913516e-01 0.0000000000000000e+00 1
2.1576152799060783e-01 3.6230153711143065e-01 0.0000000000000000e+00 1
2.1980820104278553e-01 3.6952728779113586e-01 0.0000000000000000e+00 1
2.2382476026728737e-01 3.7669242048488427e-01 0.0000000000000000e+00 1
2.2777369318631435e-01 3.8373260800930986e-01 0.0000000000000000e+00 1
2.3161748732206755e-01 3.9058352318104606e-01 0.0000000000000000e+00 1
2.3531863019674776e-01 3.9718083881672661e-01 0.0000000000000000e+00 1
2.3883960933255610e-01 4.0346022773298518e-01 0.0000000000000000e+00 1
2.4214291225169349e-01 4.0935736274645551e-01 0.0000000000000000e+00 1
2.4519102647636087e-01 4.1480791667377137e-01 0.0000000000000000e+00 1
2.4794643952875928e-01 4.1974756233156629e-01 0.0000000000000000e+00 1
2.5037163893108971e-01 4.2411197253647404e-01 0.0000000000000000e+00 1
2.5242911220555303e-01 4.2783682010512813e-01 0.0000000000000000e+00 1
2.5408134687435030e-01 4.3085777785416257e-01 0.0000000000000000e+00 1
2.5529083045968248e-01 4.3311051860021088e-01 0.0000000000000000e+00 1
2.5602005048375054e-01 4.3453071515990660e-01 0.0000000000000000e+00 1
2.5623149446875548e-01 4.3505404034988371e-01 0.0000000000000000e+00 1
2.5588764993689816e-01 4.3461616698677552e-01 0.0000000000000000e+00 1
2.5495100441037971e-01 4.3315276788721602e-01 0.0000000000000000e+00 1
2.5338404541140108e-01 4.3059951586783884e-01 0.0000000000000000e+00 1
2.4830364368566316e-01 4.2224526378109184e-01 0.0000000000000000e+00 1
2.4305092882661661e-01 4.1362854912062264e-01 0.0000000000000000e+00 1
2.3763065818870122e-01 4.0475617177389867e-01 0.0000000000000000e+00 1
2.3204758912635659e-01 3.9563493162838714e-01 0.0000000000000000e+00 1
2.2630647899402251e-01 3.8627162857155517e-01 0.0000000000000000e+00 1
2.2041208514613875e-01 3.7667306249086996e-01 0.0000000000000000e+00 1
2.1436916493714492e-01 3.6684603327379883e-01 0.0000000000000000e+00 1
2.0818247572148080e-01 3.5679734080780895e-01 0.0000000000000000e+00 1
2.0185677485358616e-01 3.4653378498036735e-01 0.0000000000000000e+00 1
1.9539681968790062e-01 3.3606216567894159e-01 0.0000000000000000e+00 1
1.8880736757886396e-01 3.2538928279099866e-01 0.0000000000000000e+00 1
1.8209317588091595e-01 3.1452193620400581e-01 0.0000000000000000e+00 1
1.7525900194849625e-01 3.0346692580543033e-01 0.0000000000000000e+00 1
1.6830960313604454e-01 2.9223105148273920e-01 0.0000000000000000e+00 1
1.6124973679800064e-01 2.8082111312339986e-01 0.0000000000000000e+00 1
1.5408416028880415e-01 2.6924391061487940e-01 0.0000000000000000e+00 1
1.4681763096289496e-01 2.5750624384464527e-01 0.0000000000000000e+00 1
1.3945490617471260e-01 2.4561491270016428e-01 0.0000000000000000e+00 1
1.3200074327869699e-01 2.3357671706890404e-01 0.0000000000000000e+00 1
1.2445989962928766e-01 2.2139845683833143e-01 0.0000000000000000e+00 1
1.1683713258092451e-01 2.0908693189591396e-01 0.0000000000000000e+00 1
1.0913719948804712e-01 1.9664894212911857e-01 0.0000000000000000e+00 1
1.0136485770509533e-01 1.8409128742541275e-01 0.0000000000000000e+00 1
9.3524864586508771e-02 1.7142076767226355e-01 0.0000000000000000e+00 1
8.5621977486727174e-02 1.5864418275713815e-01 0.0000000000000000e+00 1
7.7660953760190318e-02 1.4576833256750382e-01 0.0000000000000000e+00 1
6.9646550761337869e-02 1.3280001699082775e-01 0.0000000000000000e+00 1
6.1583525844609563e-02 1.1974603591457719e-01 0.0000000000000000e+00 1
5.3476636364445142e-02 1.0661318922621935e-01 0.0000000000000000e+00 1
4.5330639675284307e-02 9.3408276813221405e-02 0.0000000000000000e+00 1
3.7150293131566800e-02 8.0138098563050597e-02 0.0000000000000000e+00 1
2.8940354087732309e-02 6.6809454363174148e-02 0.0000000000000000e+00 1
2.0705579898220597e-02 5.3429144101059221e-02 0.0000000000000000e+00 1
1.2450727917471358e-02 4.0003967664173093e-02 0.0000000000000000e+00 1
4.1805554999243405e-03 2.6540724939982940e-02 0.0000000000000000e+00 1
-4.1001799999807603e-03 1.3046215815955969e-02 0.0000000000000000e+00 1
-1.2386721227804223e-02 -4.7275982044053810e-04 0.0000000000000000e+00 1
-2.0674310829106299e-02 -1.4009402081739453e-02 0.0000000000000000e+00 1
-2.8958191449447293e-02 -2.7556911080473562e-02 0.0000000000000000e+00 1
-3.7233605734387457e-02 -4.1108486929175625e-02 0.0000000000000000e+00 1
-4.5495796329487095e-02 -5.4657329740378374e-02 0.0000000000000000e+00 1
-5.3740005880306460e-02 -6.8196639626614680e-02 0.0000000000000000e+00 1
-6.1961477032405829e-02 -8.1719616700417302e-02 0.0000000000000000e+00 1
-7.0155452431345536e-02 -9.5219461074319028e-02 0.0000000000000000e+00 1
-7.8317174722685803e-02 -1.0868937286085262e-01 0.0000000000000000e+00 1
-8.6441886551986938e-02 -1.2212255217255094e-01 0.0000000000000000e+00 1
-9.4524830564809162e-02 -1.3551219912194665e-01 0.0000000000000000e+00 1
-1.0256124940671275e-01 -1.4885151382157255e-01 0.0000000000000000e+00 1
-1.1054638572325810e-01 -1.6213369638396155e-01 0.0000000000000000e+00 1
-1.1847548216000538e-01 -1.7535194692164643e-01 0.0000000000000000e+00 1
-1.2634378136251495e-01 -1.8849946554715988e-01 0.0000000000000000e+00 1
-1.3414652597634702e-01 -2.0156945237303478e-01 0.0000000000000000e+00 1
-1.4187895864706185e-01 -2.1455510751180382e-01 0.0000000000000000e+00 1
-1.4953632202021983e-01 -2.2744963107599978e-01 0.0000000000000000e+00 1
-1.5711385874138106e-01 -2.4024622317815550e-01 0.0000000000000000e+00 1
-1.6460681145610601e-01 -2.5293808393080386e-01 0.0000000000000000e+00 1
-1.7201042280995482e-01 -2.6551841344647742e-01 0.0000000000000000e+00 1
-1.7931993544848784e-01 -2.7798041183770927e-01 0.0000000000000000e+00 1
-1.8653059201726530e-01 -2.9031727921703188e-01 0.0000000000000000e+00 1
-1.9363763516184751e-01 -3.0252221569697824e-01 0.0000000000000000e+00 1
-2.0063630752779482e-01 -3.1458842139008103e-01 0.0000000000000000e+00 1
-2.0752185176066729e-01 -3.2650909640887316e-01 0.0000000000000000e+00 1
-2.1428951050602546e-01 -3.3827744086588729e-01 0.0000000000000000e+00 1
-2.2093452640942940e-01 -3.4988665487365633e-01 0.0000000000000000e+00 1
-2.2745214211643949e-01 -3.6132993854471296e-01 0.0000000000000000e+00 1
-2.3383760027261602e-01 -3.7260049199158995e-01 0.0000000000000000e+00 1
-2.4008614352351926e-01 -3.8369151532682022e-01 0.0000000000000000e+00 1
-2.4619301451470937e-01 -3.9459620866293632e-01 0.0000000000000000e+00 1
-2.5215345589174676e-01 -4.0530777211247138e-01 0.0000000000000000e+00 1
-2.5796271030019169e-01 -4.1581940578795795e-01 0.0000000000000000e+00 1
-2.6361602038560444e-01 -4.2612430980192884e-01 0.0000000000000000e+00 1
-2.6910862879354525e-01 -4.3621568426691693e-01 0.0000000000000000e+00 1
-2.7443577816957443e-01 -4.4608672929545490e-01 0.0000000000000000e+00 1
-2.7959271115925222e-01 -4.5573064500007554e-01 0.0000000000000000e+00 1
-2.8457467040813894e-01 -4.6514063149331175e-01 0.0000000000000000e+00 1
-2.8937689856179483e-01 -4.7430988888769610e-01 0.0000000000000000e+00 1
1.3374447156326333e-01 2.0631611176463899e-01 0.0000000000000000e+00 1
1.2981548635934675e-01 1.9966743236293330e-01 0.0000000000000000e+00 1
1.4008540662773450e-01 2.2244517041720799e-01 0.0000000000000000e+00 1
1.3710191782276834e-01 2.1348397848940318e-01 0.0000000000000000e+00 1
1.7585283361806736e-01 2.9697324566650618e-01 0.0000000000000000e+00 1
1.4632957621012088e-01 2.3684454814014480e-01 0.0000000000000000e+00 1
1.6897324864826452e-01 2.8399321271050038e-01 0.0000000000000000e+00 1
1.5216874237323005e-01 2.4371509714416906e-01 0.0000000000000000e+00 1
1.6286383051146897e-01 2.7199258340862775e-01 0.0000000000000000e+00 1
1.5650181090327689e-01 2.5923527884630598e-01 0.0000000000000000e+00 1
1.2785354639944230e-01 2.0486241843663755e-01 0.0000000000000000e+00 1
1.2147182265659391e-01 1.9887658968711922e-01 0.0000000000000000e+00 1
1.3014872206847347e-01 2.1185842716880607e-01 0.0000000000000000e+00 1
1.1731647511715415e-01 1.8863516421022825e-01 0.0000000000000000e+00 1
1.1254393250884230e-01 1.7811358660761736e-01 0.0000000000000000e+00 1
1.0523769216367349e-01 1.6978403239240006e-01 0.0000000000000000e+00 1
9.8465817189905991e-02 1.5937573895934692e-01 0.0000000000000000e+00 1
1.4011713106561580e-01 2.3038642747551685e-01 0.0000000000000000e+00 1
1.2711389943648260e-01 1.9487427430102378e-01 0.0000000000000000e+00 1
9.1392203157368915e-02 1.4779084828548858e-01 0.0000000000000000e+00 1
1.7184943888956716e-01 2.8771796881028183e-01 0.0000000000000000e+00 1
1.7349798870546046e-01 2.9051577962009606e-01 0.0000000000000000e+00 1
1.7462352724522323e-01 2.9300955197178269e-01 0.0000000000000000e+00 1
1.6756529515186225e-01 2.7929139680889004e-01 0.0000000000000000e+00 1
1.3320961884283850e-01 2.2473264648909108e-01 0.0000000000000000e+00 1
1.6589312328414979e-01 2.7586339547309346e-01 0.0000000000000000e+00 1
1.3940431391047645e-01 2.1717519430564569e-01 0.0000000000000000e+00 1
1.3593214048999944e-01 2.0952428813048965e-01 0.0000000000000000e+00 1
1.4406691457062326e-01 2.2643577360939138e-01 0.0000000000000000e+00 1
1.4583561297390032e-01 2.3026174056247820e-01 0.0000000000000000e+00 1
1.6162190959274786e-01 2.6697430029296171e-01 0.0000000000000000e+00 1
1.5046038116124397e-01 2.4028194107171333e-01 0.0000000000000000e+00 1
1.5976108672984035e-01 2.6318082283072664e-01 0.0000000000000000e+00 1
1.5274214898602073e-01 2.4899885824373791e-01 0.0000000000000000e+00 1
8.4067165686600512e-02 1.3574256342110200e-01 0.0000000000000000e+00 1
1.8028365062689550e-01 3.0494082473105577e-01 0.0000000000000000e+00 1
1.5500984224367104e-01 2.5384396494520506e-01 0.0000000000000000e+00 1
1.0959328113380733e-03 6.7729056540095250e-04 0.0000000000000000e+00 1
-1.0541501816812576e-01 -1.7417147263784907e-01 0.0000000000000000e+00 1
-3.0532933070416918e-01 -5.0947900482976605e-01 0.0000000000000000e+00 1
7.6521610844689766e-02 1.2335744746329048e-01 0.0000000000000000e+00 1
-5.6621633611737915e-02 -9.3892184858655858e-02 0.0000000000000000e+00 1
1.3349291801793173e-01 2.1825859587179089e-01 0.0000000000000000e+00 1
-1.8922365868300300e-01 -3.1314611505453938e-01 0.0000000000000000e+00 1
-7.5627837666040285e-03 -1.3409685078807592e-02 0.0000000000000000e+00 1
6.8778340515582737e-02 1.1066724589981761e-01 0.0000000000000000e+00 1
9.6338006735242517e-03 1.4759303443878796e-02 0.0000000000000000e+00 1
-1.4434712552009354e-01 -2.3857555313665449e-01 0.0000000000000000e+00 1
6.0854730445672772e-02 9.7690374581354822e-02 0.0000000000000000e+00 1
-6.5364431505702633e-02 -1.0817991394671241e-01 0.0000000000000000e+00 1
-1.5254904234716066e-01 -2.5210841383002952e-01 0.0000000000000000e+00 1
1.3249175020955356e-01 2.0251011223279722e-01 0.0000000000000000e+00 1
5.2763903365054862e-02 8.4445060669077823e-02 0.0000000000000000e+00 1
1.8157490709044818e-02 2.8817731351054324e-02 0.0000000000000000e+00 1
4.7625346646508998e-02 7.2781560259227301e-02 0.0000000000000000e+00 1
-1.6353297059518795e-02 -2.7666195915527450e-02 0.0000000000000000e+00 1
2.6632069364769279e-02 4.2751697793225948e-02 0.0000000000000000e+00 1
-1.1400832098934630e-01 -1.8824642870313504e-01 0.0000000000000000e+00 1
1.4724191573466439e-01 2.4517279268375552e-01 0.0000000000000000e+00 1
-4.7930308408502022e-02 -7.9470909536536918e-02 0.0000000000000000e+00 1
-9.6859828049784616e-02 -1.5996498828120936e-01 0.0000000000000000e+00 1
3.1642257236507286e-02 5.4756801311025866e-02 0.0000000000000000e+00 1
-1.8153610467782338e-01 -3.0024433701122272e-01 0.0000000000000000e+00 1
-2.3680710866015464e-01 -3.9298558929623223e-01 0.0000000000000000e+00 1
-2.3011034682508164e-01 -3.8166538029731673e-01 0.0000000000000000e+00 1
-1.9687022586677591e-01 -3.2579597774362284e-01 0.0000000000000000e+00 1
-7.4224037101033605e-02 -1.2262095333402814e-01 0.0000000000000000e+00 1
-2.8840961720406383e-01 -4.8062865636258928e-01 0.0000000000000000e+00 1
-2.5161469555224348e-02 -4.2031609705882447e-02 0.0000000000000000e+00 1
-1.3607035860716343e-01 -2.2471187193882150e-01 0.0000000000000000e+00 1
-3.9146422073694079e-02 -6.4972490424063278e-02 0.0000000000000000e+00 1
-3.3896745698694462e-02 -5.2425761539657147e-02 0.0000000000000000e+00 1
-1.6082924293895931e-01 -2.6569509536912361e-01 0.0000000000000000e+00 1
-8.8148594433418964e-02 -1.4555461475276765e-01 0.0000000000000000e+00 1
-1.2263135659966892e-01 -2.0241027663291747e-01 0.0000000000000000e+00 1
-8.2946155169028798e-02 -1.3307312984683278e-01 0.0000000000000000e+00 1
-1.3103310774595142e-01 -2.1257285230359760e-01 0.0000000000000000e+00 1
-1.7361880433243085e-01 -2.8702595832033684e-01 0.0000000000000000e+00 1
-2.2320106303699663e-01 -3.6993866435493922e-01 0.0000000000000000e+00 1
-1.6883978047916670e-01 -2.7551002999889090e-01 0.0000000000000000e+00 1
1.7865518973929501e-01 3.0069161692692853e-01 0.0000000000000000e+00 1
-2.0361298183824544e-01 -3.3638919154693092e-01 0.0000000000000000e+00 1
-2.4302533236175949e-01 -4.0293508477782325e-01 0.0000000000000000e+00 1
-2.1747017018077097e-01 -3.5958921476199679e-01 0.0000000000000000e+00 1
3.9702828605004022e-02 6.3698774931263163e-02 0.0000000000000000e+00 1

Edges
198
1 2 1
2 3 1
3 4 1
4 5 1
5 6 1
6 7 1
7 8 1
8 9 1
9 10 1
10 11 1
11 12 1
12 13 1
13 14 1
14 15 1
15 16 1
16 17 1
17 18 1
18 19 1
19 20 1
20 21 1
21 22 1
22 23 1
23 24 1
24 25 1
25 26 1
26 27 1
27 28 1
28 29 1
29 30 1
30 31 1
31 32 1
32 33 1
33 34 1
34 35 1
35 36 1
36 37 1
37 38 1
38 39 1
39 40 1
40 41 1
41 42 1
42 43 1
43 44 1
44 45 1
45 46 1
46 47 1
47 48 1
48 49 1
49 50 1
50 51 1
51 52 1
52 53 1
53 54 1
54 55 1
55 56 1
56 57 1
57 58 1
58 59 1
59 60 1
60 61 1
61 62 1
62 63 1
63 64 1
64 65 1
65 66 1
66 67 1
67 68 1
68 69 1
69 70 1
70 71 1
71 72 1
72 73 1
73 74 1
74 75 1
75 76 1
76 77 1
77 78 1
78 79 1
79 80 1
80 81 1
81 82 1
82 83 1
83 84 1
84 85 1
85 86 1
86 87 1
87 88 1
88 89 1
89 90 1
90 91 1
91 92 1
92 93 1
93 94 1
94 95 1
95 96 1
96 97 1
97 98 1
98 99 1
99 100 1
100 101 1
101 102 1
102 103 1
103 104 1
104 105 1
105 106 1
106 107 1
107 108 1
108 109 1
109 110 1
110 111 1
111 112 1
112 113 1
113 114 1
114 115 1
115 116 1
116 117 1
117 118 1
118 119 1
119 120 1
120 121 1
121 122 1
122 123 1
123 124 1
124 125 1
125 126 1
126 127 1
127 128 1
128 129 1
129 130 1
130 131 1
131 132 1
132 133 1
133 134 1
134 135 1
135 136 1
136 137 1
137 138 1
138 139 1
139 140 1
140 141 1
141 142 1
142 143 1
143 144 1
144 145 1
145 146 1
146 147 1
147 148 1
148 149 1
149 150 1
150 151 1
151 152 1
152 153 1
153 154 1
154 155 1
155 156 1
156 157 1
157 158 1
158 159 1
159 160 1
160 161 1
161 162 1
162 163 1
163 164 1
164 165 1
165 166 1
166 167 1
167 168 1
168 169 1
169 170 1
170 171 1
171 172 1
172 173 1
173 174 1
174 175 1
175 176 1
176 177 1
177 178 1
178 179 1
179 180 1
180 181 1
181 182 1
182 183 1
183 184 1
184 185 1
185 186 1
186 187 1
187 188 1
188 189 1
189 190 1
190 191 1
191 192 1
192 193 1
193 194 1
194 195 1
195 196 1
196 197 1
197 198 1
198 1 1

Triangles
366
185 186 29 1
100 132 99 1
6 11 5 1
116 122 115 1
137 138 207 1
18 198 17 1
197 198 18 1
2 15 1 1
191 192 24 1
24 192 23 1
11 12 5 1
137 207 224 1
210 212 217 1
23 193 22 1
192 193 23 1
5 12 4 1
102 131 101 1
15 16 1 1
10 6 238 1
8 9 7 1
3 14 2 1
143 209 211 1
97 134 96 1
22 194 21 1
193 194 22 1
4 13 3 1
19 197 18 1
29 186 282 1
67 68 217 1
12 13 4 1
196 197 19 1
21 195 20 1
194 195 21 1
185 29 280 1
210 144 212 1
212 145 213 1
138 139 208 1
140 204 257 1
20 196 19 1
14 15 2 1
195 196 20 1
99 133 98 1
13 14 3 1
225 201 241 1
135 203 279 1
216 201 227 1
144 145 212 1
212 67 217 1
142 143 211 1
140 141 216 1
151 152 247 1
152 153 251 1
247 152 251 1
251 153 253 1
143 144 210 1
244 151 247 1
150 151 244 1
204 216 228 1
232 139 257 1
205 137 222 1
149 150 239 1
239 150 244 1
38 273 275 1
272 43 274 1
269 48 270 1
48 267 270 1
48 49 267 1
148 149 233 1
276 34 278 1
145 146 214 1
47 48 269 1
42 43 272 1
33 34 276 1
28 29 282 1
38 39 273 1
191 24 281 1
136 220 221 1
54 55 255 1
233 149 239 1
255 55 260 1
213 145 214 1
139 232 235 1
63 64 215 1
207 138 229 1
29 30 280 1
139 140 257 1
64 65 214 1
55 56 283 1
209 143 210 1
7 9 238 1
201 216 223 1
141 142 223 1
208 139 235 1
65 66 213 1
147 148 218 1
43 44 265 1
66 67 212 1
34 35 271 1
37 38 268 1
53 54 252 1
146 147 215 1
62 63 218 1
49 50 254 1
153 154 283 1
43 265 274 1
93 94 279 1
34 271 278 1
252 54 255 1
260 55 283 1
64 214 215 1
94 95 234 1
27 28 277 1
46 47 258 1
63 215 218 1
218 148 233 1
268 38 275 1
32 33 261 1
41 42 259 1
52 53 245 1
39 40 256 1
61 62 233 1
30 31 264 1
65 213 214 1
50 51 243 1
16 17 266 1
49 254 267 1
201 223 241 1
44 45 248 1
24 25 281 1
62 218 233 1
35 36 249 1
60 61 239 1
36 37 246 1
26 27 263 1
66 212 213 1
202 211 226 1
51 52 236 1
158 159 236 1
90 91 220 1
171 172 237 1
31 32 242 1
59 60 244 1
45 46 240 1
253 153 283 1
25 26 262 1
61 233 239 1
142 211 241 1
40 41 237 1
89 90 219 1
58 59 247 1
258 47 269 1
165 166 240 1
182 183 242 1
60 239 244 1
245 53 252 1
57 58 251 1
57 251 253 1
59 244 247 1
58 247 251 1
159 160 243 1
56 57 253 1
17 198 266 1
214 146 215 1
157 158 245 1
1 16 266 1
277 28 282 1
176 177 246 1
215 147 218 1
166 167 248 1
177 178 249 1
211 199 226 1
156 157 252 1
72 73 202 1
70 71 199 1
158 236 245 1
236 159 243 1
155 156 255 1
154 155 260 1
259 42 272 1
209 199 211 1
160 161 254 1
74 75 201 1
172 173 256 1
71 72 226 1
189 190 262 1
164 165 258 1
91 92 221 1
73 74 225 1
170 171 259 1
188 189 263 1
88 89 205 1
157 245 252 1
39 256 273 1
155 255 260 1
75 76 227 1
87 88 222 1
156 252 255 1
181 182 261 1
183 184 264 1
261 33 276 1
50 243 254 1
76 77 228 1
161 162 267 1
167 168 265 1
243 160 254 1
163 164 269 1
175 176 268 1
190 191 281 1
86 87 224 1
77 78 204 1
30 264 280 1
162 163 270 1
178 179 271 1
187 188 277 1
240 166 248 1
79 80 206 1
78 79 230 1
169 170 272 1
92 93 203 1
173 174 273 1
200 209 210 1
168 169 274 1
85 86 207 1
165 240 258 1
180 181 276 1
174 175 275 1
237 172 256 1
184 185 280 1
171 237 259 1
186 187 282 1
179 180 278 1
84 85 229 1
236 52 245 1
242 183 264 1
189 262 263 1
80 81 232 1
83 84 231 1
262 190 281 1
182 242 261 1
254 161 267 1
246 177 249 1
44 248 265 1
229 138 231 1
81 82 235 1
82 83 208 1
248 167 265 1
188 263 277 1
164 258 269 1
267 162 270 1
51 236 243 1
176 246 268 1
249 178 271 1
163 269 270 1
69 70 250 1
170 259 272 1
256 173 273 1
187 277 282 1
264 184 280 1
199 209 250 1
265 168 274 1
211 202 241 1
181 261 276 1
263 27 277 1
25 262 281 1
169 272 274 1
175 268 275 1
271 179 278 1
35 249 271 1
273 174 275 1
180 276 278 1
94 234 279 1
203 93 279 1
246 37 268 1
240 46 258 1
262 26 263 1
202 225 241 1
200 210 217 1
45 240 248 1
209 200 250 1
31 242 264 1
237 41 259 1
242 32 261 1
40 237 256 1
206 232 257 1
36 246 249 1
222 137 224 1
68 69 200 1
219 90 220 1
220 91 221 1
72 202 226 1
202 73 225 1
205 89 219 1
199 71 226 1
74 201 225 1
201 75 227 1
68 200 217 1
92 203 221 1
227 76 228 1
88 205 222 1
87 222 224 1
77 204 228 1
216 141 223 1
204 78 230 1
79 206 230 1
136 219 220 1
207 86 224 1
206 80 232 1
70 199 250 1
85 207 229 1
84 229 231 1
232 81 235 1
223 142 241 1
208 83 231 1
82 208 235 1
154 260 283 1
56 253 283 1
200 69 250 1
234 135 279 1
216 227 228 1
119 120 118 1
230 206 257 1
198 1 266 1
9 10 238 1
132 133 99 1
131 132 101 1
128 129 105 1
107 127 106 1
109 126 108 1
126 127 108 1
110 125 109 1
125 126 109 1
112 124 111 1
124 125 111 1
113 124 112 1
114 123 113 1
123 124 113 1
115 123 114 1
122 123 115 1
121 122 116 1
6 7 238 1
10 11 6 1
96 134 95 1
95 134 234 1
98 133 97 1
133 134 97 1
101 132 100 1
103 130 102 1
130 131 102 1
104 130 103 1
105 129 104 1
129 130 104 1
106 128 105 1
127 128 106 1
108 127 107 1
111 125 110 1
117 121 116 1
118 120 117 1
120 121 117 1
134 135 234 1
135 136 203 1
136 137 205 1
203 136 221 1
136 205 219 1
138 208 231 1
204 140 216 1
204 230 257 1

End
