MeshVersionFormatted 2
Dimension 3

Vertices
952
-1.2278680602392578e-01 1.9093909655287317e-02 0.0000000000000000e+00 1
-1.1779240669224603e-01 1.4845883627141621e-02 0.0000000000000000e+00 1
-1.1226753483208543e-01 1.0065807171900112e-02 0.0000000000000000e+00 1
-1.0624030146644822e-01 4.7863404324165089e-03 0.0000000000000000e+00 1
-9.9738817618338638e-02 -9.5985644845549001e-04 0.0000000000000000e+00 1
-9.2791194310760938e-02 -7.1401233278621801e-03 0.0000000000000000e+00 1
-8.5425542566719359e-02 -1.3721800062949888e-02 0.0000000000000000e+00 1
-7.7669973409218163e-02 -2.0672226510864866e-02 0.0000000000000000e+00 1
-6.9552597861261542e-02 -2.7958742528753446e-02 0.0000000000000000e+00 1
-6.1101526945853794e-02 -3.5548687973761900e-02 0.0000000000000000e+00 1
-5.2344871685999154e-02 -4.3409402703036559e-02 0.0000000000000000e+00 1
-4.3310743104701857e-02 -5.1508226573723670e-02 0.0000000000000000e+00 1
-3.4027252224966137e-02 -5.9812499442969611e-02 0.0000000000000000e+00 1
-2.4522510069796260e-02 -6.8289561167920607e-02 0.0000000000000000e+00 1
-1.4824627662196478e-02 -7.6906751605722953e-02 0.0000000000000000e+00 1
-4.9617160251709883e-03 -8.5631410613523043e-02 0.0000000000000000e+00 1
5.0381138182759092e-03 -9.4430878048467087e-02 0.0000000000000000e+00 1
1.5146750845139986e-02 -1.0327249376770137e-01 0.0000000000000000e+00 1
2.5336084032417036e-02 -1.1212359762837226e-01 0.0000000000000000e+00 1
3.5578002357102734e-02 -1.2095152948762600e-01 0.0000000000000000e+00 1
4.5844394796192914e-02 -1.2972362920260888e-01 0.0000000000000000e+00 1
5.6107150326683314e-02 -1.3840723663046731e-01 0.0000000000000000e+00 1
6.6338157925569671e-02 -1.4696969162834744e-01 0.0000000000000000e+00 1
7.6509306569847724e-02 -1.5537833405339563e-01 0.0000000000000000e+00 1
8.6592485236513278e-02 -1.6360050376275820e-01 0.0000000000000000e+00 1
9.6559582902562002e-02 -1.7160354061358141e-01 0.0000000000000000e+00 1
1.0638248854498977e-01 -1.7935478446301159e-01 0.0000000000000000e+00 1
1.1603309114079227e-01 -1.8682157516819503e-01 0.0000000000000000e+00 1
1.2548327966696521e-01 -1.9397125258627798e-01 0.0000000000000000e+00 1
1.3470494310050446e-01 -2.0077115657440683e-01 0.0000000000000000e+00 1
1.4366997041840573e-01 -2.0718862698972787e-01 0.0000000000000000e+00 1
1.5235025059766469e-01 -2.1319100368938723e-01 0.0000000000000000e+00 1
1.6071767261527725e-01 -2.1874562653053145e-01 0.0000000000000000e+00 1
1.6874412544823902e-01 -2.2381983537030667e-01 0.0000000000000000e+00 1
1.7640149807354580e-01 -2.2838097006585925e-01 0.0000000000000000e+00 1
1.8366167946819340e-01 -2.3239637047433545e-01 0.0000000000000000e+00 1
1.9049655860917752e-01 -2.3583337645288163e-01 0.0000000000000000e+00 1
1.9687802447349392e-01 -2.3865932785864399e-01 0.0000000000000000e+00 1
2.0277796603813836e-01 -2.4084156454876890e-01 0.0000000000000000e+00 1
2.0816827228010665e-01 -2.4234742638040266e-01 0.0000000000000000e+00 1
2.1302083217639445e-01 -2.4314425321069147e-01 0.0000000000000000e+00 1
2.1730753470399755e-01 -2.4319938489678181e-01 0.0000000000000000e+00 1
2.2100026883991186e-01 -2.4248016129581987e-01 0.0000000000000000e+00 1
2.2407092356113284e-01 -2.4095392226495191e-01 0.0000000000000000e+00 1
2.2649138784465644e-01 -2.3858800766132429e-01 0.0000000000000000e+00 1
2.2823355066747836e-01 -2.3534975734208327e-01 0.0000000000000000e+00 1
2.2926930100659437e-01 -2.3120651116437521e-01 0.0000000000000000e+00 1
2.2957052783900028e-01 -2.2612560898534637e-01 0.0000000000000000e+00 1
2.2910912014169171e-01 -2.2007439066214299e-01 0.0000000000000000e+00 1
2.2791313277592395e-01 -2.1240563964078982e-01 0.0000000000000000e+00 1
2.2631446069552608e-01 -2.0463008875336275e-01 0.0000000000000000e+00 1
2.2432443939748931e-01 -1.9675316397901982e-01 0.0000000000000000e+00 1
2.2195440437880504e-01 -1.8878029129691917e-01 0.0000000000000000e+00 1
2.1921569113646494e-01 -1.8071689668621904e-01 0.0000000000000000e+00 1
2.1611963516746036e-01 -1.7256840612607774e-01 0.0000000000000000e+00 1
2.1267757196878279e-01 -1.6434024559565327e-01 0.0000000000000000e+00 1
2.0890083703742351e-01 -1.5603784107410384e-01 0.0000000000000000e+00 1
2.0480076587037410e-01 -1.4766661854058771e-01 0.0000000000000000e+00 1
2.0038869396462600e-01 -1.3923200397426308e-01 0.0000000000000000e+00 1
1.9567595681717070e-01 -1.3073942335428809e-01 0.0000000000000000e+00 1
1.9067388992499951e-01 -1.2219430265982090e-01 0.0000000000000000e+00 1
1.8539382878510385e-01 -1.1360206787001961e-01 0.0000000000000000e+00 1
1.7984710889447539e-01 -1.0496814496404261e-01 0.0000000000000000e+00 1
1.7404506575010545e-01 -9.6297959921048032e-02 0.0000000000000000e+00 1
1.6799903484898535e-01 -8.7596938720193890e-02 0.0000000000000000e+00 1
1.6172035168810667e-01 -7.8870507340638510e-02 0.0000000000000000e+00 1
1.5522035176446086e-01 -7.0124091761540081e-02 0.0000000000000000e+00 1
1.4851037057503935e-01 -6.1363117962056776e-02 0.0000000000000000e+00 1
1.4160174361683348e-01 -5.2593011921346716e-02 0.0000000000000000e+00 1
1.3450580638683476e-01 -4.3819199618568117e-02 0.0000000000000000e+00 1
1.2723389438203475e-01 -3.5047107032879207e-02 0.0000000000000000e+00 1
1.1979734309942480e-01 -2.6282160143438142e-02 0.0000000000000000e+00 1
1.1220748803599626e-01 -1.7529784929403054e-02 0.0000000000000000e+00 1
1.0447566468874067e-01 -8.7954073699321733e-03 0.0000000000000000e+00 1
9.6613208554649499e-02 -8.4453444183708870e-05 0.0000000000000000e+00 1
8.8631455130714187e-02 8.5976508686841577e-03 0.0000000000000000e+00 1
8.0541739913926047e-02 1.7245479589513345e-02 0.0000000000000000e+00 1
7.2355398401276666e-02 2.5853606739145579e-02 0.0000000000000000e+00 1
6.4083766089757493e-02 3.4416606338422639e-02 0.0000000000000000e+00 1
5.5738178476359881e-02 4.2929052408186390e-02 0.0000000000000000e+00 1
4.7329971058075307e-02 5.1385518969278725e-02 0.0000000000000000e+00 1
3.8870479331895177e-02 5.9780580042541366e-02 0.0000000000000000e+00 1
3.0371038794811067e-02 6.8108809648816104e-02 0.0000000000000000e+00 1
2.1842984943814328e-02 7.6364781808944820e-02 0.0000000000000000e+00 1
1.3297653275896354e-02 8.4543070543769361e-02 0.0000000000000000e+00 1
4.7463792880486216e-03 9.2638249874131481e-02 0.0000000000000000e+00 1
-3.7995015227373363e-03 1.0064489382087297e-01 0.0000000000000000e+00 1
-1.2328653659470147e-02 1.0855757640483567e-01 0.0000000000000000e+00 1
-2.0829741625158431e-02 1.1637087164686148e-01 0.0000000000000000e+00 1
-2.9291429922810655e-02 1.2407935356779215e-01 0.0000000000000000e+00 1
-3.7702383055435371e-02 1.3167759618846941e-01 0.0000000000000000e+00 1
-4.6051265526041149e-02 1.3916017352973523e-01 0.0000000000000000e+00 1
-5.4326741837636618e-02 1.4652165961243135e-01 0.0000000000000000e+00 1
-6.2517476493230292e-02 1.5375662845739965e-01 0.0000000000000000e+00 1
-7.0612133995830634e-02 1.6085965408548178e-01 0.0000000000000000e+00 1
-7.8599378848446297e-02 1.6782531051751973e-01 0.0000000000000000e+00 1
-8.6467875554085860e-02 1.7464817177435527e-01 0.0000000000000000e+00 1
-9.4206288615757847e-02 1.8132281187683019e-01 0.0000000000000000e+00 1
-1.0180328253647075e-01 1.8784380484578631e-01 0.0000000000000000e+00 1
-1.0924752181923321e-01 1.9420572470206546e-01 0.0000000000000000e+00 1
-1.1652767096705377e-01 2.0040314546650945e-01 0.0000000000000000e+00 1
-1.2363239448294099e-01 2.0643064115996013e-01 0.0000000000000000e+00 1
-1.3055035686990335e-01 2.1228278580325921e-01 0.0000000000000000e+00 1
-1.3727022263094946e-01 2.1795415341724861e-01 0.0000000000000000e+00 1
-1.4378065626908795e-01 2.2343931802277014e-01 0.0000000000000000e+00 1
-1.5007032228732731e-01 2.2873285364066562e-01 0.0000000000000000e+00 1
-1.5278929981099712e-01 2.3057200479944209e-01 0.0000000000000000e+00 1
-1.5515664917626859e-01 2.3125929794385627e-01 0.0000000000000000e+00 1
-1.5719094809828463e-01 2.3087193648079168e-01 0.0000000000000000e+00 1
-1.5891077429218814e-01 2.2948712381713210e-01 0.0000000000000000e+00 1
-1.6033470547312201e-01 2.2718206335976102e-01 0.0000000000000000e+00 1
-1.6148131935622906e-01 2.2403395851556202e-01 0.0000000000000000e+00 1
-1.6236919365665226e-01 2.2012001269141893e-01 0.0000000000000000e+00 1
-1.6301690608953445e-01 2.1551742929421522e-01 0.0000000000000000e+00 1
-1.6344303437001856e-01 2.1030341173083458e-01 0.0000000000000000e+00 1
-1.6366615621324745e-01 2.0455516340816063e-01 0.0000000000000000e+00 1
-1.6370484933436402e-01 1.9834988773307685e-01 0.0000000000000000e+00 1
-1.6357769144851114e-01 1.9176478811246703e-01 0.0000000000000000e+00 1
-1.6330326027083170e-01 1.8487706795321474e-01 0.0000000000000000e+00 1
-1.6290013351646859e-01 1.7776393066220358e-01 0.0000000000000000e+00 1
-1.6238688890056474e-01 1.7050257964631724e-01 0.0000000000000000e+00 1
-1.6178210413826297e-01 1.6317021831243930e-01 0.0000000000000000e+00 1
-1.6110435694470621e-01 1.5584405006745333e-01 0.0000000000000000e+00 1
-1.6037222503503734e-01 1.4860127831824302e-01 0.0000000000000000e+00 1
-1.5960428612439925e-01 1.4151910647169197e-01 0.0000000000000000e+00 1
-1.5881911792793485e-01 1.3467473793468382e-01 0.0000000000000000e+00 1
-1.5803529816078699e-01 1.2814537611410221e-01 0.0000000000000000e+00 1
-1.5727140453809854e-01 1.2200822441683069e-01 0.0000000000000000e+00 1
-1.5654601477501245e-01 1.1634048624975295e-01 0.0000000000000000e+00 1
-1.5587770658667160e-01 1.1121936501975258e-01 0.0000000000000000e+00 1
-1.5528505768821882e-01 1.0672206413371323e-01 0.0000000000000000e+00 1
-1.5478664579479706e-01 1.0292578699851848e-01 0.0000000000000000e+00 1
-1.5434692299121161e-01 9.9876314214982595e-02 0.0000000000000000e+00 1
-1.5378060040018637e-01 9.6513614698942124e-02 0.0000000000000000e+00 1
-1.5309217062743993e-01 9.2873800073191348e-02 0.0000000000000000e+00 1
-1.5228612627869081e-01 8.8992981960524423e-02 0.0000000000000000e+00 1
-1.5136695995965765e-01 8.4907271983735655e-02 0.0000000000000000e+00 1
-1.5033916427605898e-01 8.0652781765619241e-02 0.0000000000000000e+00 1
-1.4920723183361340e-01 7.6265622928969420e-02 0.0000000000000000e+00 1
-1.4797565523803941e-01 7.1781907096580361e-02 0.0000000000000000e+00 1
-1.4664892709505561e-01 6.7237745891246370e-02 0.0000000000000000e+00 1
-1.4523154001038063e-01 6.2669250935761658e-02 0.0000000000000000e+00 1
-1.4372798658973304e-01 5.8112533852920444e-02 0.0000000000000000e+00 1
-1.4214275943883134e-01 5.3603706265516950e-02 0.0000000000000000e+00 1
-1.4048035116339413e-01 4.9178879796345401e-02 0.0000000000000000e+00 1
-1.3874525436913998e-01 4.4874166068200050e-02 0.0000000000000000e+00 1
-1.3694196166178746e-01 4.0725676703875099e-02 0.0000000000000000e+00 1
-1.3507496564705518e-01 3.6769523326164802e-02 0.0000000000000000e+00 1
-1.3314875893066166e-01 3.3041817557863382e-02 0.0000000000000000e+00 1
-1.3116783411832550e-01 2.9578671021765045e-02 0.0000000000000000e+00 1
-1.2913668381576526e-01 2.6416195340664049e-02 0.0000000000000000e+00 1
-1.2705980062869951e-01 2.3590502137354603e-02 0.0000000000000000e+00 1
-1.2494167716284683e-01 2.1137703034630952e-02 0.0000000000000000e+00 1
-1.2750518547022419e-01 2.9697558233906081e-02 0.0000000000000000e+00 1
-1.3751422653541709e-01 5.2817950281476428e-02 0.0000000000000000e+00 1
-1.4559861196299148e-01 7.4902703406868054e-02 0.0000000000000000e+00 1
-1.5048941248073094e-01 9.5563312949679124e-02 0.0000000000000000e+00 1
-1.0556738637175223e-01 1.2691345604948862e-02 0.0000000000000000e+00 1
-1.5185666459030028e-01 1.0922259632678752e-01 0.0000000000000000e+00 1
-3.9857465214740526e-02 1.2048897672032872e-01 0.0000000000000000e+00 1
-6.5271462169109909e-02 1.4172318142805310e-01 0.0000000000000000e+00 1
-1.5316916774655556e-01 1.2477038117961288e-01 0.0000000000000000e+00 1
-5.1470632822051650e-03 8.9017274739913277e-02 0.0000000000000000e+00 1
-8.4749674781530518e-02 -3.3850304765191378e-03 0.0000000000000000e+00 1
-5.9888979148110880e-02 -2.5439939440288845e-02 0.0000000000000000e+00 1
-1.5532846285836485e-01 1.4515954787475402e-01 0.0000000000000000e+00 1
4.3618309538214772e-02 4.1947782037563920e-02 0.0000000000000000e+00 1
7.6281178386188128e-02 4.8705954754295084e-03 0.0000000000000000e+00 1
1.9091322234761982e-02 6.5340726779619634e-02 0.0000000000000000e+00 1
1.0885398110148328e-01 -2.8379689824263608e-02 0.0000000000000000e+00 1
-3.1570482456801177e-02 -4.7724809561218426e-02 0.0000000000000000e+00 1
1.3106725550124010e-01 -5.3918253119247375e-02 0.0000000000000000e+00 1
1.5127571163876752e-01 -8.1805796419566909e-02 0.0000000000000000e+00 1
1.7064011041270313e-01 -1.0688245683939859e-01 0.0000000000000000e+00 1
1.8584523897186572e-01 -1.3075744859084132e-01 0.0000000000000000e+00 1
-8.7952744042932365e-02 1.6363242670278386e-01 0.0000000000000000e+00 1
-2.2770331487565508e-03 -7.3012953765136487e-02 0.0000000000000000e+00 1
2.6844009403433622e-02 -9.8962373232301462e-02 0.0000000000000000e+00 1
2.0035417201196046e-01 -1.5643941575672426e-01 0.0000000000000000e+00 1
6.7281305591353563e-02 -1.3301366989947139e-01 0.0000000000000000e+00 1
-1.3227846291966694e-01 4.0747940777297646e-02 0.0000000000000000e+00 1
9.8406039680189572e-02 -1.5915933967844154e-01 0.0000000000000000e+00 1
2.1043512258307659e-01 -1.7992545294524165e-01 0.0000000000000000e+00 1
1.2632871564974421e-01 -1.8277665836410878e-01 0.0000000000000000e+00 1
-1.5572749297177471e-01 1.6697250844744529e-01 0.0000000000000000e+00 1
1.5329337936754189e-01 -2.0276314098284728e-01 0.0000000000000000e+00 1
1.8981264249101371e-01 -2.2815036741028275e-01 0.0000000000000000e+00 1
2.1111174838758479e-01 -2.3940314640504951e-01 0.0000000000000000e+00 1
-1.1109119519062183e-01 1.8496982530578165e-01 0.0000000000000000e+00 1
-1.1726386407161966e-01 2.0506036682368112e-02 0.0000000000000000e+00 1
-1.5760830326760616e-01 1.8855330245512628e-01 0.0000000000000000e+00 1
2.1769017236360258e-01 -2.0293796056463656e-01 0.0000000000000000e+00 1
2.2480258104155260e-01 -2.2344249174409436e-01 0.0000000000000000e+00 1
-1.2476362844983002e-01 1.9719871459241922e-01 0.0000000000000000e+00 1
-2.2985808707664541e-02 1.0589796534155373e-01 0.0000000000000000e+00 1
-1.4829064660035099e-01 8.7640982359284039e-02 0.0000000000000000e+00 1
4.9172910233190627e-02 -1.1698359703322340e-01 0.0000000000000000e+00 1
6.0480436301246818e-02 2.3781547285082378e-02 0.0000000000000000e+00 1
1.6848554774869873e-01 -2.1429425900403881e-01 0.0000000000000000e+00 1
9.2148499317682944e-02 -9.4509848135018761e-03 0.0000000000000000e+00 1
-1.4206330315491367e-01 6.5311171952124547e-02 0.0000000000000000e+00 1
-1.5850776084406371e-01 2.0147959331013632e-01 0.0000000000000000e+00 1
-1.5170677468226024e-01 1.0172307480900174e-01 0.0000000000000000e+00 1
2.2449076423378148e-01 -2.3585504447518624e-01 0.0000000000000000e+00 1
-1.5881564265655418e-01 2.2137157312574929e-01 0.0000000000000000e+00 1
-1.5925836779763164e-01 2.1264834968480129e-01 0.0000000000000000e+00 1
2.0176939179828435e-01 -2.3491695695861695e-01 0.0000000000000000e+00 1
-1.5790787917797300e-01 2.2756549424800593e-01 0.0000000000000000e+00 1
-1.2306560374479689e-01 2.4814619013538410e-02 0.0000000000000000e+00 1
-1.3855606058716149e-01 2.0951508382414449e-01 0.0000000000000000e+00 1
2.1840076913705792e-01 -2.3957651468854496e-01 0.0000000000000000e+00 1
-1.5036374151890902e-01 2.2200082791688161e-01 0.0000000000000000e+00 1
-1.5319536144888690e-01 2.2677878233043636e-01 0.0000000000000000e+00 1
-1.1174013573660979e-01 1.6924324958546413e-02 0.0000000000000000e+00 1
-1.0540454917812353e-01 2.0233200556101460e-02 0.0000000000000000e+00 1
-9.8593139816014308e-02 1.6360418625299886e-02 0.0000000000000000e+00 1
-9.8768172168464813e-02 2.4393909663321393e-02 0.0000000000000000e+00 1
-9.1736717290053837e-02 2.0629453948898785e-02 0.0000000000000000e+00 1
-9.2104777144142558e-02 2.8649461886669871e-02 0.0000000000000000e+00 1
-8.4723535990802540e-02 2.4927900889524391e-02 0.0000000000000000e+00 1
-8.5083012592076637e-02 3.3453692646945928e-02 0.0000000000000000e+00 1
-7.7428736823852651e-02 2.9392568319726673e-02 0.0000000000000000e+00 1
-7.7888524106681567e-02 3.8048795560695785e-02 0.0000000000000000e+00 1
-7.0020603680475940e-02 3.4227735735434639e-02 0.0000000000000000e+00 1
-8.5517660780004751e-02 4.2048023334758988e-02 0.0000000000000000e+00 1
-7.8443445841588799e-02 4.6646786560307421e-02 0.0000000000000000e+00 1
-8.5859368478278478e-02 5.0512375023050594e-02 0.0000000000000000e+00 1
-7.8936208427445795e-02 5.5135497848561046e-02 0.0000000000000000e+00 1
-8.7641992275760375e-02 5.9003039775510656e-02 0.0000000000000000e+00 1
-7.9652696995697297e-02 6.3538148445595174e-02 0.0000000000000000e+00 1
-8.6905044259972059e-02 6.7329233352566756e-02 0.0000000000000000e+00 1
-7.3233989072825481e-02 5.9637627103939807e-02 0.0000000000000000e+00 1
-8.0075796221249898e-02 7.1837112771273609e-02 0.0000000000000000e+00 1
-8.7389812538624267e-02 7.5510922204778952e-02 0.0000000000000000e+00 1
-9.4129624308452370e-02 7.1129590703155762e-02 0.0000000000000000e+00 1
-9.4495755188031771e-02 7.9113641898919104e-02 0.0000000000000000e+00 1
-8.7964007021515842e-02 8.3536812869680011e-02 0.0000000000000000e+00 1
-9.5087001942627120e-02 8.6895861476909544e-02 0.0000000000000000e+00 1
-1.0138656154738002e-01 8.2617666666411127e-02 0.0000000000000000e+00 1
-1.0203499209826000e-01 9.0171888670349740e-02 0.0000000000000000e+00 1
-9.6232996914741298e-02 9.5006962101952822e-02 0.0000000000000000e+00 1
-1.0285935030259150e-01 9.7772805009980784e-02 0.0000000000000000e+00 1
-1.0876366148173973e-01 9.3248520013452352e-02 0.0000000000000000e+00 1
-1.0958493008092443e-01 1.0066707594806264e-01 0.0000000000000000e+00 1
-1.0358924132447034e-01 1.0521602590311439e-01 0.0000000000000000e+00 1
-1.1052142068799645e-01 1.0824802579292220e-01 0.0000000000000000e+00 1
-1.0458538662866525e-01 1.1279256683063829e-01 0.0000000000000000e+00 1
-1.1151349316961678e-01 1.1586991270193588e-01 0.0000000000000000e+00 1
-1.1643932686680614e-01 1.0365559654828965e-01 0.0000000000000000e+00 1
-1.0528324180511184e-01 1.2053679713865620e-01 0.0000000000000000e+00 1
-1.1258997331635512e-01 1.2372699670382954e-01 0.0000000000000000e+00 1
-9.7613434581258540e-02 1.1662645098504534e-01 0.0000000000000000e+00 1
-6.9607645681335178e-02 2.5093930843170111e-02 0.0000000000000000e+00 1
-6.1818835167382902e-02 3.0148137188381365e-02 0.0000000000000000e+00 1
-6.1453654605638675e-02 2.0604410360068652e-02 0.0000000000000000e+00 1
-5.3313920153398926e-02 2.5656463434868135e-02 0.0000000000000000e+00 1
-5.3801482488041910e-02 3.5461273173758717e-02 0.0000000000000000e+00 1
-4.4981340141126452e-02 3.0911965736102071e-02 0.0000000000000000e+00 1
-4.4539624338707957e-02 2.0883553734578248e-02 0.0000000000000000e+00 1
-3.5932165700030480e-02 2.6231497479201844e-02 0.0000000000000000e+00 1
-3.5439015511998545e-02 1.5907518030019632e-02 0.0000000000000000e+00 1
-2.6479532412411605e-02 2.1455850858882131e-02 0.0000000000000000e+00 1
-2.5968793130906529e-02 1.0763217754451597e-02 0.0000000000000000e+00 1
-4.5569976758651279e-02 4.0826536818866291e-02 0.0000000000000000e+00 1
-1.6679871668201281e-02 1.6607393696237878e-02 0.0000000000000000e+00 1
-1.6227919833929062e-02 5.5279808705944490e-03 0.0000000000000000e+00 1
-6.7265721478820938e-03 1.1537038752602612e-02 0.0000000000000000e+00 1
-6.2441479131029988e-03 1.7683414369771790e-04 0.0000000000000000e+00 1
3.4533757108513152e-03 6.3044605932000182e-03 0.0000000000000000e+00 1
3.9496459702515318e-03 -5.2878602578386464e-03 0.0000000000000000e+00 1
-1.7519326833447646e-02 2.7192406019480253e-02 0.0000000000000000e+00 1
-9.3032361860049012e-02 4.5884920787914382e-02 0.0000000000000000e+00 1
1.3830092024377011e-02 9.5602485417907207e-04 0.0000000000000000e+00 1
1.4335739590728563e-02 -1.0822694418321123e-02 0.0000000000000000e+00 1
-1.0613455707172455e-01 1.2845584787131625e-01 0.0000000000000000e+00 1
-1.1363843925437933e-01 1.3171735919769761e-01 0.0000000000000000e+00 1
-1.1863443597708352e-01 1.1928335358643352e-01 0.0000000000000000e+00 1
2.8387708032880845e-03 1.7813218670862611e-02 0.0000000000000000e+00 1
2.4491720136522920e-02 -4.3951957498943039e-03 0.0000000000000000e+00 1
2.4963749716161228e-02 -1.6391117961785807e-02 0.0000000000000000e+00 1
1.4718715029820320e-02 -2.2819242288121967e-02 0.0000000000000000e+00 1
2.5413651774398423e-02 -2.8531237145035738e-02 0.0000000000000000e+00 1
3.5734588522874158e-02 -2.2005949757003377e-02 0.0000000000000000e+00 1
3.6229405304023236e-02 -3.4241764899035187e-02 0.0000000000000000e+00 1
4.6623159060865206e-02 -2.7667617543523471e-02 0.0000000000000000e+00 1
4.7187378588302326e-02 -3.9973541764115342e-02 0.0000000000000000e+00 1
-1.0583229567603610e-01 2.7314796054534150e-02 0.0000000000000000e+00 1
3.6732063617918080e-02 -4.6524293165966714e-02 0.0000000000000000e+00 1
4.7700895219404224e-02 -5.2304709209738912e-02 0.0000000000000000e+00 1
5.8208297761824575e-02 -4.5729638525338942e-02 0.0000000000000000e+00 1
5.8716805343188141e-02 -5.8025892529852643e-02 0.0000000000000000e+00 1
6.9157402478190438e-02 -5.1461582036079812e-02 0.0000000000000000e+00 1
6.9672946809605119e-02 -6.3760665750592360e-02 0.0000000000000000e+00 1
8.0071089671444037e-02 -5.7163179279572471e-02 0.0000000000000000e+00 1
8.0658858436478714e-02 -6.9477607365564381e-02 0.0000000000000000e+00 1
-2.5626539358107887e-02 -1.2756015205465064e-04 0.0000000000000000e+00 1
-1.0702163973246726e-01 1.3656559124488776e-01 0.0000000000000000e+00 1
-1.1459457428803614e-01 1.3975247236667176e-01 0.0000000000000000e+00 1
-1.2109589429437415e-01 1.3491063907453354e-01 0.0000000000000000e+00 1
-1.2222502425832815e-01 1.4292171022299638e-01 0.0000000000000000e+00 1
-1.1569119395763240e-01 1.4784763714811436e-01 0.0000000000000000e+00 1
-1.2343929781914460e-01 1.5105837652726994e-01 0.0000000000000000e+00 1
-9.9361622125995558e-02 1.3327120923973454e-01 0.0000000000000000e+00 1
-1.2840977375502532e-01 1.3793806123886559e-01 0.0000000000000000e+00 1
-5.9763401239948406e-03 -1.1465029815834641e-02 0.0000000000000000e+00 1
7.0224931153039766e-02 -7.6097248370170026e-02 0.0000000000000000e+00 1
8.1233512399715171e-02 -8.1755579463664282e-02 0.0000000000000000e+00 1
9.1591306362496350e-02 -7.5145754198403122e-02 0.0000000000000000e+00 1
9.2199171466628066e-02 -8.7345027174868084e-02 0.0000000000000000e+00 1
1.0237278369322844e-01 -8.0654656125824301e-02 0.0000000000000000e+00 1
1.0300995953725361e-01 -9.2775026469053112e-02 0.0000000000000000e+00 1
-4.4295592895932358e-02 1.0580800987458425e-02 0.0000000000000000e+00 1
9.2638989142980160e-02 -9.9593448368401644e-02 0.0000000000000000e+00 1
1.0350372692365779e-01 -1.0505973590847306e-01 0.0000000000000000e+00 1
1.1372743070984423e-01 -9.8024832811561713e-02 0.0000000000000000e+00 1
1.1447122519822067e-01 -1.1019427328127120e-01 0.0000000000000000e+00 1
1.0425964499518392e-01 -1.1681176926828393e-01 0.0000000000000000e+00 1
1.1549373268158347e-01 -1.2158765247088704e-01 0.0000000000000000e+00 1
1.2514902748837173e-01 -1.1543032247831625e-01 0.0000000000000000e+00 1
1.2595555054351298e-01 -1.2714064698081087e-01 0.0000000000000000e+00 1
1.3550338000609630e-01 -1.2077131529587777e-01 0.0000000000000000e+00 1
1.3631355931265321e-01 -1.3220477880286688e-01 0.0000000000000000e+00 1
4.6037842015022729e-02 -1.5455735598296626e-02 0.0000000000000000e+00 1
-1.1678918195937497e-01 1.5615707336270818e-01 0.0000000000000000e+00 1
-1.2460292918606772e-01 1.5924482277549412e-01 0.0000000000000000e+00 1
1.5045672839737788e-02 -3.5021871731405446e-02 0.0000000000000000e+00 1
3.6272882288499800e-02 -6.0506368853313078e-02 0.0000000000000000e+00 1
2.3790681967057394e-02 7.4026448920181832e-03 0.0000000000000000e+00 1
1.4567453925180460e-01 -1.2580721234308062e-01 0.0000000000000000e+00 1
1.4642533195169280e-01 -1.3708173257858994e-01 0.0000000000000000e+00 1
1.3778072362204391e-01 -1.4327780477142008e-01 0.0000000000000000e+00 1
1.4758864945570782e-01 -1.4812888293710430e-01 0.0000000000000000e+00 1
5.7040990821903934e-02 -2.1170503607791425e-02 0.0000000000000000e+00 1
-1.3113647373024601e-01 1.5414982676662214e-01 0.0000000000000000e+00 1
-1.3236334928849924e-01 1.6219997599953562e-01 0.0000000000000000e+00 1
1.5637595546545482e-01 -1.4178382874879952e-01 0.0000000000000000e+00 1
1.5713496077142997e-01 -1.5280151177589346e-01 0.0000000000000000e+00 1
7.9521796698801078e-02 -4.4910720884673884e-02 0.0000000000000000e+00 1
1.0175762632844371e-01 -6.8510076722818503e-02 0.0000000000000000e+00 1
1.3474035847079227e-01 -1.0848571814613175e-01 0.0000000000000000e+00 1
1.4827769689942927e-01 -1.5903480331964095e-01 0.0000000000000000e+00 1
1.5807681980279403e-01 -1.6344323382334011e-01 0.0000000000000000e+00 1
1.6661862417384532e-01 -1.5734227835322906e-01 0.0000000000000000e+00 1
1.6743812415326978e-01 -1.6774781826119459e-01 0.0000000000000000e+00 1
1.5910979574074532e-01 -1.7376631412560398e-01 0.0000000000000000e+00 1
1.6842667418143689e-01 -1.7788861136817558e-01 0.0000000000000000e+00 1
1.7650577201466827e-01 -1.7206984466154635e-01 0.0000000000000000e+00 1
1.7747619137140316e-01 -1.8188372798102465e-01 0.0000000000000000e+00 1
7.0770628761678056e-02 -8.8512010296465285e-02 0.0000000000000000e+00 1
5.9608097740631673e-02 -8.2788339956761742e-02 0.0000000000000000e+00 1
-1.0022457388504022e-01 1.4165831584286398e-01 0.0000000000000000e+00 1
-9.2358398722419882e-02 1.3847107423622865e-01 0.0000000000000000e+00 1
1.8524230879493969e-01 -1.7632006031790107e-01 0.0000000000000000e+00 1
1.8610181989994334e-01 -1.8585399899991772e-01 0.0000000000000000e+00 1
1.7848422060794034e-01 -1.9140875817941538e-01 0.0000000000000000e+00 1
1.8705657843437823e-01 -1.9505478074371077e-01 0.0000000000000000e+00 1
-1.2585716455933121e-01 1.6749572830757467e-01 0.0000000000000000e+00 1
-1.3367759943910484e-01 1.7042015415676026e-01 0.0000000000000000e+00 1
1.1246749423694916e-01 -7.4089596737705238e-02 0.0000000000000000e+00 1
-1.3864249209476057e-01 1.5701151308789499e-01 0.0000000000000000e+00 1
1.1567283977785139e-01 -1.3341573598875042e-01 0.0000000000000000e+00 1
-6.9492774605571100e-02 1.5664719539506437e-02 0.0000000000000000e+00 1
-5.4566129049768305e-02 4.5403561388816516e-02 0.0000000000000000e+00 1
-4.6335979122685833e-02 5.0961375888236085e-02 0.0000000000000000e+00 1
-3.7159020511717260e-02 4.6359513077353177e-02 0.0000000000000000e+00 1
-3.7887574147602798e-02 5.6491857465777985e-02 0.0000000000000000e+00 1
-2.8564802749418854e-02 5.1798387769844335e-02 0.0000000000000000e+00 1
-4.7023458436204583e-02 6.0864245981358187e-02 0.0000000000000000e+00 1
-3.8627798128909048e-02 6.6578507170836854e-02 0.0000000000000000e+00 1
-4.7890935357803477e-02 7.1068647719589484e-02 0.0000000000000000e+00 1
-3.9410657564470805e-02 7.6667181877575069e-02 0.0000000000000000e+00 1
-4.8545711833774374e-02 8.1037595901279860e-02 0.0000000000000000e+00 1
-3.0065183421281789e-02 7.2296185234402316e-02 0.0000000000000000e+00 1
-5.6991825464842938e-02 7.5670663772789748e-02 0.0000000000000000e+00 1
-5.7590260318448890e-02 8.5346133861989082e-02 0.0000000000000000e+00 1
-4.9458481789507423e-02 9.0840900046769021e-02 0.0000000000000000e+00 1
-5.8384353948346651e-02 9.4978196333179055e-02 0.0000000000000000e+00 1
-6.6275590140006974e-02 8.9540642690102756e-02 0.0000000000000000e+00 1
-6.7115213622328279e-02 9.8921291268453143e-02 0.0000000000000000e+00 1
-5.9486314521085888e-02 1.0427023937877701e-01 0.0000000000000000e+00 1
-6.8157577333938166e-02 1.0820493600108960e-01 0.0000000000000000e+00 1
-7.5637906528687390e-02 1.0277409130859134e-01 0.0000000000000000e+00 1
-7.6694016987258709e-02 1.1193006071183903e-01 0.0000000000000000e+00 1
-6.9241688236486937e-02 1.1755260105669085e-01 0.0000000000000000e+00 1
-7.7743526291103343e-02 1.2097697260011239e-01 0.0000000000000000e+00 1
-1.2723034944558656e-01 1.3012706011514233e-01 0.0000000000000000e+00 1
-1.3416163508139289e-01 1.3309941843325468e-01 0.0000000000000000e+00 1
-1.3315234035263962e-01 1.2583373279854465e-01 0.0000000000000000e+00 1
-1.2729324037624870e-01 1.7550384904560906e-01 0.0000000000000000e+00 1
-1.3518864138115511e-01 1.7830456408691722e-01 0.0000000000000000e+00 1
-1.3698231554861590e-01 1.4869302391040382e-01 0.0000000000000000e+00 1
1.9435705783969429e-01 -1.8973368883868563e-01 0.0000000000000000e+00 1
1.9516799602203419e-01 -1.9865814228687434e-01 0.0000000000000000e+00 1
1.8814105715105381e-01 -2.0382284929656375e-01 0.0000000000000000e+00 1
1.9609368206727157e-01 -2.0734373897538105e-01 0.0000000000000000e+00 1
2.0229288613709254e-01 -1.9352447450849614e-01 0.0000000000000000e+00 1
5.6461505434954574e-02 -8.9457394381998144e-03 0.0000000000000000e+00 1
-3.0874274458052398e-02 8.2691403666834001e-02 0.0000000000000000e+00 1
6.7642112683364036e-02 -1.4841819249051143e-02 0.0000000000000000e+00 1
9.0318324126338362e-02 -5.0558212485553075e-02 0.0000000000000000e+00 1
-8.3926105341354321e-02 1.0658389232120197e-01 0.0000000000000000e+00 1
4.5546215674801757e-02 -3.3247666611325773e-03 0.0000000000000000e+00 1
1.8478561462037760e-01 -1.6660527149439072e-01 0.0000000000000000e+00 1
1.9335283661001745e-01 -1.7107347195820979e-01 0.0000000000000000e+00 1
-9.1714264503566484e-02 1.1737059510531262e-02 0.0000000000000000e+00 1
4.2921731634823525e-03 -2.9264840691301780e-02 0.0000000000000000e+00 1
4.4092699502480152e-03 -4.1093093182516520e-02 0.0000000000000000e+00 1
-6.2871643506988446e-03 -3.5690235427714281e-02 0.0000000000000000e+00 1
-5.6785616371879104e-03 -4.7892156360972674e-02 0.0000000000000000e+00 1
1.4378881907488525e-02 -4.6378699113063533e-02 0.0000000000000000e+00 1
1.8925593980238342e-01 -2.1234320751534069e-01 0.0000000000000000e+00 1
1.9700309927467691e-01 -2.1573101945241069e-01 0.0000000000000000e+00 1
2.0340334316328904e-01 -2.1081090785690115e-01 0.0000000000000000e+00 1
2.0438926258351903e-01 -2.1855800835385608e-01 0.0000000000000000e+00 1
2.1011020204855485e-01 -2.1413131407763800e-01 0.0000000000000000e+00 1
2.1091559430241352e-01 -2.2145737193143847e-01 0.0000000000000000e+00 1
-1.3973627775235170e-01 1.2858923573708853e-01 0.0000000000000000e+00 1
-1.3890143271490329e-01 1.2194155373253687e-01 0.0000000000000000e+00 1
-1.3296689760270208e-01 1.1935472787923679e-01 0.0000000000000000e+00 1
-1.3802126438999318e-01 1.1572042722750382e-01 0.0000000000000000e+00 1
-1.3271683174883675e-01 1.1321020362973799e-01 0.0000000000000000e+00 1
-1.3734153277352137e-01 1.0979117185480938e-01 0.0000000000000000e+00 1
-1.3204964819168552e-01 1.0736162737820801e-01 0.0000000000000000e+00 1
-1.3663206185964211e-01 1.0407692640551836e-01 0.0000000000000000e+00 1
-1.3151922981230121e-01 1.0173048866235496e-01 0.0000000000000000e+00 1
-1.3601171354730535e-01 9.8451373063234579e-02 0.0000000000000000e+00 1
-1.3098602313157010e-01 9.6231839620318060e-02 0.0000000000000000e+00 1
-1.3537125476542791e-01 9.3001324485645881e-02 0.0000000000000000e+00 1
-1.3043793180175722e-01 9.0810302986427366e-02 0.0000000000000000e+00 1
-1.3483754539060350e-01 8.7688866698553775e-02 0.0000000000000000e+00 1
-1.2987310188250617e-01 8.5360464771109215e-02 0.0000000000000000e+00 1
-1.2529872661044075e-01 8.8607093273379858e-02 0.0000000000000000e+00 1
-1.2475217626381509e-01 8.2921549769395170e-02 0.0000000000000000e+00 1
-1.2950874940657170e-01 7.9681230055357516e-02 0.0000000000000000e+00 1
-1.2434761142273208e-01 7.7165668312832197e-02 0.0000000000000000e+00 1
-1.2909741451610618e-01 7.3918234595326773e-02 0.0000000000000000e+00 1
-1.2389681697316487e-01 7.1410148941226853e-02 0.0000000000000000e+00 1
-1.2866157630073247e-01 6.8157927015929431e-02 0.0000000000000000e+00 1
-1.2347188492619113e-01 6.5521529261946987e-02 0.0000000000000000e+00 1
-1.1851726461665599e-01 6.9257863672555070e-02 0.0000000000000000e+00 1
-1.1807974999784605e-01 6.2960627429137273e-02 0.0000000000000000e+00 1
-1.2325953054963140e-01 5.9413156390767261e-02 0.0000000000000000e+00 1
-1.1785420121684226e-01 5.6592478771598634e-02 0.0000000000000000e+00 1
-1.1247458973767006e-01 6.0190389396272137e-02 0.0000000000000000e+00 1
-1.1218416969679401e-01 5.3823105055270326e-02 0.0000000000000000e+00 1
-1.1760513797347688e-01 5.0284922826535294e-02 0.0000000000000000e+00 1
-1.1195471892034174e-01 4.7475779326991860e-02 0.0000000000000000e+00 1
-1.1733954498447462e-01 4.4069110062113968e-02 0.0000000000000000e+00 1
-1.0660809867719330e-01 5.7330344958617399e-02 0.0000000000000000e+00 1
-1.1946046705453335e-01 8.0433885032737032e-02 0.0000000000000000e+00 1
-1.4091138263105196e-01 1.0081365981483967e-01 0.0000000000000000e+00 1
-1.4359672971840765e-01 1.1789938971349812e-01 0.0000000000000000e+00 1
-1.4076496079716938e-01 1.3562605169998915e-01 0.0000000000000000e+00 1
-1.2276607666566952e-01 4.6784736737199323e-02 0.0000000000000000e+00 1
-1.0689342473743396e-01 6.4052267187445694e-02 0.0000000000000000e+00 1
-1.1175627168075059e-01 4.1213164739536616e-02 0.0000000000000000e+00 1
-1.1726175151284647e-01 3.8046212512977053e-02 0.0000000000000000e+00 1
-1.3498942753637527e-01 7.6624463529082809e-02 0.0000000000000000e+00 1
1.6022093084325634e-01 -1.8389185212891518e-01 0.0000000000000000e+00 1
1.5079140079400691e-01 -1.7979069930412184e-01 0.0000000000000000e+00 1
-1.4138657917633213e-01 1.7333847232268210e-01 0.0000000000000000e+00 1
-1.4274248824223570e-01 1.8140544427890717e-01 0.0000000000000000e+00 1
-1.0892391513073753e-01 1.5305532350505202e-01 0.0000000000000000e+00 1
-1.0999804770731850e-01 1.6154341444373055e-01 0.0000000000000000e+00 1
-6.1234513511679148e-02 1.0936043132009939e-02 0.0000000000000000e+00 1
-1.2704519527729674e-01 1.1066151836258845e-01 0.0000000000000000e+00 1
-1.4047434320117111e-01 9.0021704554107754e-02 0.0000000000000000e+00 1
-1.3916746609623121e-01 8.4831431094215870e-02 0.0000000000000000e+00 1
-1.0089755550847943e-01 6.1052566419571595e-02 0.0000000000000000e+00 1
-9.3270589366104731e-02 1.4709600440709397e-01 0.0000000000000000e+00 1
-8.4990353737808458e-02 1.4379064194101315e-01 0.0000000000000000e+00 1
-1.3536708918796223e-01 1.8688316117605455e-01 0.0000000000000000e+00 1
-1.4382161626911588e-01 1.8945935260831853e-01 0.0000000000000000e+00 1
8.9492991326884180e-02 -3.8441091945125988e-02 0.0000000000000000e+00 1
-1.3791518443166165e-01 1.9545326656344111e-01 0.0000000000000000e+00 1
-1.4565789472086194e-01 1.9666529912558006e-01 0.0000000000000000e+00 1
5.9969081941668237e-02 -9.5524414829665283e-02 0.0000000000000000e+00 1
7.1340911015449787e-02 -1.0101505582535043e-01 0.0000000000000000e+00 1
1.1157228505628183e-01 -6.2058828455610095e-02 0.0000000000000000e+00 1
-6.9406390142522464e-02 6.0289115325568507e-03 0.0000000000000000e+00 1
-6.0864161464963165e-02 1.0369138326186650e-03 0.0000000000000000e+00 1
7.9079949598352517e-02 -3.2793558012808754e-02 0.0000000000000000e+00 1
-1.0610935755221571e-01 4.4385657144024961e-02 0.0000000000000000e+00 1
4.8867526916682912e-02 -8.9553334087227821e-02 0.0000000000000000e+00 1
-9.0483327366166183e-02 1.2982949560146706e-01 0.0000000000000000e+00 1
-2.1398890663069648e-02 7.7933312366416568e-02 0.0000000000000000e+00 1
-2.0561387534474465e-02 6.7496335342374744e-02 0.0000000000000000e+00 1
-1.2223370853043623e-02 7.3135693983709463e-02 0.0000000000000000e+00 1
-1.0783309275287128e-02 6.2614914268089697e-02 0.0000000000000000e+00 1
-1.4405312135532834e-03 6.9807451432674125e-02 0.0000000000000000e+00 1
-8.8883076818725920e-04 5.7610833276859903e-02 0.0000000000000000e+00 1
-1.0009067950361297e-02 5.1870074356784410e-02 0.0000000000000000e+00 1
-1.0865796208144908e-04 4.6527954955253144e-02 0.0000000000000000e+00 1
-1.1932971148415761e-01 1.7271409793748249e-01 0.0000000000000000e+00 1
-8.3076636450282917e-02 9.7622591966181518e-02 0.0000000000000000e+00 1
-1.2719860150763695e-01 9.9193276118482804e-02 0.0000000000000000e+00 1
-7.0753476485659189e-02 1.2677886514134287e-01 0.0000000000000000e+00 1
-6.1927127064671864e-02 1.2283215984981639e-01 0.0000000000000000e+00 1
5.5586894660315120e-02 2.4082349085758075e-03 0.0000000000000000e+00 1
4.3808383545904453e-02 7.0607068221793055e-03 0.0000000000000000e+00 1
9.9597383703308520e-02 -4.4099446578049067e-02 0.0000000000000000e+00 1
4.9096462978400646e-02 -7.6933119758161375e-02 0.0000000000000000e+00 1
-2.7960114210345090e-02 4.1628554884244752e-02 0.0000000000000000e+00 1
-6.8902726384883095e-02 -4.5376630419625774e-03 0.0000000000000000e+00 1
2.1693846564847280e-01 -2.1729079303941226e-01 0.0000000000000000e+00 1
-1.0202010460717079e-01 1.5837464566154436e-01 0.0000000000000000e+00 1
-1.0302327590805896e-01 1.6731178413210693e-01 0.0000000000000000e+00 1
-1.4892936501498547e-01 1.7640362435031659e-01 0.0000000000000000e+00 1
-1.4452921645473632e-01 1.5192750248941547e-01 0.0000000000000000e+00 1
-1.4555083818564699e-01 1.6010477747965823e-01 0.0000000000000000e+00 1
1.8151940615812939e-01 -2.0905159833711273e-01 0.0000000000000000e+00 1
-2.2151243139876375e-02 8.8853508720639435e-02 0.0000000000000000e+00 1
-3.2163689031974758e-02 9.2501774654710378e-02 0.0000000000000000e+00 1
2.0603500019806059e-01 -2.2563937159653519e-01 0.0000000000000000e+00 1
2.1187029345280392e-01 -2.2814121335988502e-01 0.0000000000000000e+00 1
3.9452210549491683e-02 -8.1733296384925602e-02 0.0000000000000000e+00 1
-7.7246365976200410e-02 1.1437452757391210e-02 0.0000000000000000e+00 1
-1.0606102138960023e-01 3.8031524473895156e-02 0.0000000000000000e+00 1
1.2152061280679739e-01 -6.7852077541075126e-02 0.0000000000000000e+00 1
1.2279425916122177e-01 -7.9370339386122452e-02 0.0000000000000000e+00 1
1.3290763746705458e-01 -7.2710329974656221e-02 0.0000000000000000e+00 1
1.3308690671193671e-01 -8.4818039348144386e-02 0.0000000000000000e+00 1
-6.0521855269874476e-02 -9.1361764396687452e-03 0.0000000000000000e+00 1
-5.1845678030649059e-02 -3.9795630460637450e-03 0.0000000000000000e+00 1
-1.0057698620105801e-01 5.4994931300990126e-02 0.0000000000000000e+00 1
1.8280296473035934e-01 -2.1695500572351892e-01 0.0000000000000000e+00 1
-7.9540463628401087e-02 1.3027356098349510e-01 0.0000000000000000e+00 1
9.1304579759105293e-03 5.2346997001697745e-02 0.0000000000000000e+00 1
1.0022235282412213e-02 4.1268762074375770e-02 0.0000000000000000e+00 1
1.9595879489347722e-02 4.7687565443316399e-02 0.0000000000000000e+00 1
2.0354390398131330e-02 3.6102099068214773e-02 0.0000000000000000e+00 1
4.5357051697602973e-04 3.5943394575481007e-02 0.0000000000000000e+00 1
-1.4582290180328905e-01 1.3097454880078682e-01 0.0000000000000000e+00 1
-1.4712459608668463e-01 1.3765874139831913e-01 0.0000000000000000e+00 1
8.8914571053111374e-02 -2.6934657179039284e-02 0.0000000000000000e+00 1
-1.8571646491117828e-02 -4.3912883686092606e-02 0.0000000000000000e+00 1
-1.9094329330483030e-02 -2.8861746131912825e-02 0.0000000000000000e+00 1
2.1636492552458525e-01 -2.2434883792115404e-01 0.0000000000000000e+00 1
2.1688205560681334e-01 -2.3047917402447454e-01 0.0000000000000000e+00 1
-5.1261418254750592e-02 -1.4349945016216146e-02 0.0000000000000000e+00 1
-4.2435603677490788e-02 -9.1269502095211071e-03 0.0000000000000000e+00 1
-4.1498497477187056e-02 -1.9478849609309214e-02 0.0000000000000000e+00 1
-3.3309142450830817e-02 -1.4391756271823897e-02 0.0000000000000000e+00 1
-3.1767253479538023e-02 -2.5226881268605391e-02 0.0000000000000000e+00 1
-4.1112224231783873e-02 -3.0589148442337656e-02 0.0000000000000000e+00 1
-1.5330795707892560e-02 -5.5719912374097944e-02 0.0000000000000000e+00 1
1.5183794442480844e-01 -1.9007659003345428e-01 0.0000000000000000e+00 1
1.4282381218863013e-01 -1.8582627980038463e-01 0.0000000000000000e+00 1
1.4095320918981058e-01 -1.7514815671808898e-01 0.0000000000000000e+00 1
1.6157642348796780e-01 -1.9441556734919013e-01 0.0000000000000000e+00 1
-8.5908197627013641e-02 1.5277318965644612e-01 0.0000000000000000e+00 1
-7.7731252186664837e-02 1.5091019335833269e-01 0.0000000000000000e+00 1
2.0985282577097833e-01 -2.0621498554159112e-01 0.0000000000000000e+00 1
-1.5144324769259720e-01 1.5555777502606752e-01 0.0000000000000000e+00 1
1.6445980713319841e-01 -2.0439069783792646e-01 0.0000000000000000e+00 1
-1.4511335356603339e-01 2.1489569633039191e-01 0.0000000000000000e+00 1
-1.4594193328767982e-01 2.0732971793982019e-01 0.0000000000000000e+00 1
2.0180930514808093e-01 -1.8474483812814832e-01 0.0000000000000000e+00 1
-1.5177232129109280e-01 2.1536100388762108e-01 0.0000000000000000e+00 1
3.0811752197170972e-02 4.2423855317651984e-02 0.0000000000000000e+00 1
3.0609093415298442e-02 3.0217939735436031e-02 0.0000000000000000e+00 1
2.0892607434682957e-02 2.5331556857727776e-02 0.0000000000000000e+00 1
3.1168068316593495e-02 2.0218292317886070e-02 0.0000000000000000e+00 1
4.1336482088720254e-02 2.5620707652794443e-02 0.0000000000000000e+00 1
-1.1184245122285591e-01 2.3535945159056409e-02 0.0000000000000000e+00 1
-1.1204091813627706e-01 2.9808896865685920e-02 0.0000000000000000e+00 1
-1.1778694048056855e-01 2.5980701056442668e-02 0.0000000000000000e+00 1
-1.5580724309590649e-01 2.2913379620878049e-01 0.0000000000000000e+00 1
-1.4347322863594983e-01 1.1179849403523789e-01 0.0000000000000000e+00 1
-1.4741616556041756e-01 1.1479803445380095e-01 0.0000000000000000e+00 1
-1.4180816327245097e-01 1.0615406494113434e-01 0.0000000000000000e+00 1
-1.4532704054422502e-01 1.0271974832782317e-01 0.0000000000000000e+00 1
-1.4443934179759024e-01 9.7842202114529986e-02 0.0000000000000000e+00 1
-1.4031951476970095e-01 9.5543297936014043e-02 0.0000000000000000e+00 1
-1.4470905267565909e-01 9.3129523583726462e-02 0.0000000000000000e+00 1
-1.4714540855930319e-01 1.0735050201945315e-01 0.0000000000000000e+00 1
-1.4903982854385114e-01 1.1991106249699135e-01 0.0000000000000000e+00 1
6.0677202570138256e-02 -1.0822624415541302e-01 0.0000000000000000e+00 1
7.1973048417512536e-02 -1.1324605431697804e-01 0.0000000000000000e+00 1
-1.1982009117650040e-01 1.2691302985922565e-01 0.0000000000000000e+00 1
-1.2638179333982810e-01 1.2199771125591258e-01 0.0000000000000000e+00 1
-1.4420448290592663e-01 1.2439895353724206e-01 0.0000000000000000e+00 1
-1.2247312288431343e-01 4.0764647734628220e-02 0.0000000000000000e+00 1
-1.2205722965196594e-01 3.5044636842771322e-02 0.0000000000000000e+00 1
-1.2756208212948672e-01 4.3555000787821069e-02 0.0000000000000000e+00 1
-1.2792800812027511e-01 4.9458801925891541e-02 0.0000000000000000e+00 1
-1.3191224052470885e-01 4.6445922507943715e-02 0.0000000000000000e+00 1
-1.2296501363932696e-01 5.3145105516611377e-02 0.0000000000000000e+00 1
-1.2905387847484623e-01 5.6073236994398847e-02 0.0000000000000000e+00 1
-1.2723285731493816e-01 3.7486933160215910e-02 0.0000000000000000e+00 1
-1.2076799096563562e-01 1.8170849068273376e-01 0.0000000000000000e+00 1
1.9888438425328975e-01 -2.2322507810408029e-01 0.0000000000000000e+00 1
-9.2514754900956536e-02 3.7470607871828106e-02 0.0000000000000000e+00 1
6.2783675737679137e-02 -1.2073029883460547e-01 0.0000000000000000e+00 1
-1.1793333526942347e-01 1.1158389418890384e-01 0.0000000000000000e+00 1
2.0961884643653594e-01 -1.8912208117791809e-01 0.0000000000000000e+00 1
2.0150224560842328e-01 -1.7554188539319587e-01 0.0000000000000000e+00 1
2.0990572215489312e-01 -1.9810632473303957e-01 0.0000000000000000e+00 1
7.8156440294336049e-02 -2.1343832818588947e-02 0.0000000000000000e+00 1
-1.0035530154523332e-01 3.2839061599148879e-02 0.0000000000000000e+00 1
-1.2956242074080973e-01 1.4583925024974384e-01 0.0000000000000000e+00 1
-1.4399949860066136e-01 8.6328088866804653e-02 0.0000000000000000e+00 1
-1.4277352911136215e-01 8.1765225251563017e-02 0.0000000000000000e+00 1
-1.3842738724104520e-01 8.0441060438002809e-02 0.0000000000000000e+00 1
6.8077453322184400e-02 -2.7130081423778003e-02 0.0000000000000000e+00 1
7.8838428982053732e-02 -8.8373465410453156e-03 0.0000000000000000e+00 1
6.6542526296360788e-02 -3.1537758238728807e-03 0.0000000000000000e+00 1
-1.3368806215606854e-01 7.0783290265703250e-02 0.0000000000000000e+00 1
-1.3324276036014082e-01 6.5114978635866044e-02 0.0000000000000000e+00 1
-1.3825292260387037e-01 7.2655074163957001e-02 0.0000000000000000e+00 1
-1.3230805094553341e-01 2.0238288841169191e-01 0.0000000000000000e+00 1
-9.2189111276817948e-02 2.5030965761661680e-03 0.0000000000000000e+00 1
-7.4562704283928735e-02 9.3560459902583618e-02 0.0000000000000000e+00 1
-7.3730316172015670e-02 8.4565006784197691e-02 0.0000000000000000e+00 1
-6.5461651860787201e-02 8.0332762037121280e-02 0.0000000000000000e+00 1
-6.4741167685812923e-02 7.1055809378315821e-02 0.0000000000000000e+00 1
-5.5941916775183120e-02 6.5765037251961811e-02 0.0000000000000000e+00 1
-5.5090987764062467e-02 5.5435413886405049e-02 0.0000000000000000e+00 1
-6.2941928777804426e-02 4.9176605539529190e-02 0.0000000000000000e+00 1
-1.4768238429346897e-01 1.6859037513290231e-01 0.0000000000000000e+00 1
-1.2850445746672712e-01 6.2314976503982711e-02 0.0000000000000000e+00 1
-1.3347456945723543e-01 5.9676575723493830e-02 0.0000000000000000e+00 1
-1.3783447023120782e-01 6.2707528126884918e-02 0.0000000000000000e+00 1
-1.4200088341182071e-01 1.4337996646144657e-01 0.0000000000000000e+00 1
4.9100045812521795e-02 -1.0227582307129560e-01 0.0000000000000000e+00 1
-1.5023490619087812e-01 1.8497191913829464e-01 0.0000000000000000e+00 1
1.0099240439672348e-01 -5.6091887048610081e-02 0.0000000000000000e+00 1
1.1123462753082407e-01 -4.8333716688807662e-02 0.0000000000000000e+00 1
-1.1823057947261220e-01 1.9114453478811658e-01 0.0000000000000000e+00 1
-1.2671129589628044e-01 1.8869436519499949e-01 0.0000000000000000e+00 1
1.7103773947675055e-01 -1.9743740330407117e-01 0.0000000000000000e+00 1
-9.9778853079030005e-02 4.1046299226936818e-02 0.0000000000000000e+00 1
-9.8883973482077697e-02 7.5655735123729070e-03 0.0000000000000000e+00 1
1.2353961575209563e-01 -9.1232227457191839e-02 0.0000000000000000e+00 1
1.3393827118053819e-01 -9.6411841062378947e-02 0.0000000000000000e+00 1
1.4328884736036843e-01 -8.9738361213994255e-02 0.0000000000000000e+00 1
1.4409992258844881e-01 -1.0161291530001484e-01 0.0000000000000000e+00 1
1.5388860923309428e-01 -9.5439477370167003e-02 0.0000000000000000e+00 1
1.5393053662935485e-01 -1.0831272538295528e-01 0.0000000000000000e+00 1
1.2426098813331043e-01 -1.0329653587280863e-01 0.0000000000000000e+00 1
-1.0793521598260819e-01 8.5934140272832388e-02 0.0000000000000000e+00 1
-1.0734947893333793e-01 7.8584175567896222e-02 0.0000000000000000e+00 1
-1.1430907844790761e-01 8.9259980816489226e-02 0.0000000000000000e+00 1
-1.1502051370015960e-01 9.6378252786936638e-02 0.0000000000000000e+00 1
-1.0095800516788392e-01 7.5141537110102186e-02 0.0000000000000000e+00 1
-1.0713118903410719e-01 7.1138618163240575e-02 0.0000000000000000e+00 1
-1.1344419849492689e-01 7.4704983622334187e-02 0.0000000000000000e+00 1
-3.1504741742489982e-02 1.1330410464224952e-01 0.0000000000000000e+00 1
-4.2789322183825133e-02 1.0859614112716047e-01 0.0000000000000000e+00 1
-5.1583937445643900e-02 1.1852884279498378e-01 0.0000000000000000e+00 1
-4.7950494918811065e-02 1.2837266226468269e-01 0.0000000000000000e+00 1
-5.6058516939119396e-02 1.3563445633575863e-01 0.0000000000000000e+00 1
-6.2306572615655462e-02 3.9537741450763497e-02 0.0000000000000000e+00 1
1.4482327469920875e-01 -1.1409968946879706e-01 0.0000000000000000e+00 1
1.5477895663959029e-01 -1.1958685021897053e-01 0.0000000000000000e+00 1
1.5557319488949009e-01 -1.3065314355634924e-01 0.0000000000000000e+00 1
1.6454820609838658e-01 -1.2459493407417228e-01 0.0000000000000000e+00 1
1.6525615706092156e-01 -1.3544362666511900e-01 0.0000000000000000e+00 1
1.7529327080821500e-01 -1.2975605954674446e-01 0.0000000000000000e+00 1
1.7544933432698351e-01 -1.4062784292305405e-01 0.0000000000000000e+00 1
1.8582121515253885e-01 -1.4155601332399489e-01 0.0000000000000000e+00 1
1.7228246035616906e-01 -1.1842519506398527e-01 0.0000000000000000e+00 1
-1.3988387374630210e-01 1.6527754469657224e-01 0.0000000000000000e+00 1
2.2333100413321008e-01 -2.1755112194031040e-01 0.0000000000000000e+00 1
2.2118112529787584e-01 -2.1080083405464980e-01 0.0000000000000000e+00 1
1.9075313183602699e-01 -2.2096870165118396e-01 0.0000000000000000e+00 1
1.6600866241897974e-01 -1.4658843883621331e-01 0.0000000000000000e+00 1
1.7520447757057006e-01 -1.5204870108184843e-01 0.0000000000000000e+00 1
3.4129534543655728e-02 1.2330156067723720e-03 0.0000000000000000e+00 1
-1.0424559247745364e-01 1.7729818110828724e-01 0.0000000000000000e+00 1
1.0813336897256087e-01 -1.6684161880090431e-01 0.0000000000000000e+00 1
1.0978802123261205e-01 -1.5491645404738955e-01 0.0000000000000000e+00 1
1.1937580502371303e-01 -1.6224537836824185e-01 0.0000000000000000e+00 1
1.0016323609715846e-01 -1.4669110329468255e-01 0.0000000000000000e+00 1
1.2000338611668733e-01 -1.5166259504093382e-01 0.0000000000000000e+00 1
1.2935792900116796e-01 -1.5861271071931538e-01 0.0000000000000000e+00 1
1.2965468472717420e-01 -1.7126582468840437e-01 0.0000000000000000e+00 1
1.1765135900982905e-01 -1.7488430664214430e-01 0.0000000000000000e+00 1
5.7648287831233949e-02 -3.3493671999824191e-02 0.0000000000000000e+00 1
-1.5212037227271399e-01 1.3171801880720516e-01 0.0000000000000000e+00 1
1.6953702999479250e-01 -1.8782098671846531e-01 0.0000000000000000e+00 1
3.5150608434839747e-02 -1.0056625020223387e-02 0.0000000000000000e+00 1
-6.7443794182547048e-02 -1.7444732546244311e-02 0.0000000000000000e+00 1
9.1017762824691220e-02 -6.2907517427092663e-02 0.0000000000000000e+00 1
-1.4849697270466675e-02 9.6085040234331690e-02 0.0000000000000000e+00 1
1.7585024715600600e-01 -1.6197285527466179e-01 0.0000000000000000e+00 1
1.8439072133070311e-01 -1.5709836298422536e-01 0.0000000000000000e+00 1
-6.7242725534625517e-03 -2.3522378179320392e-02 0.0000000000000000e+00 1
-1.6258466821622249e-02 -1.6363944450241939e-02 0.0000000000000000e+00 1
-8.4547225690087546e-02 1.1488177814659679e-01 0.0000000000000000e+00 1
-9.2083683214390658e-02 1.0965578728488719e-01 0.0000000000000000e+00 1
-9.0289878685968106e-02 1.0039967725357568e-01 0.0000000000000000e+00 1
7.8470477375567838e-02 -1.4232448454254698e-01 0.0000000000000000e+00 1
8.0883418924189737e-02 -1.3029401164707721e-01 0.0000000000000000e+00 1
9.0568570700386222e-02 -1.3819286835183095e-01 0.0000000000000000e+00 1
9.4503084905047607e-02 -1.2512007523572680e-01 0.0000000000000000e+00 1
1.0314703175073650e-01 -1.3545517710062030e-01 0.0000000000000000e+00 1
9.3247530528997161e-02 -1.1209366308608229e-01 0.0000000000000000e+00 1
1.6927900104660158e-02 -8.9984009094801157e-02 0.0000000000000000e+00 1
7.4326325960989981e-03 -8.1423513617403548e-02 0.0000000000000000e+00 1
9.7177724648338411e-03 -6.8863050689040556e-02 0.0000000000000000e+00 1
-1.5194911157651980e-03 -5.9940878535989117e-02 0.0000000000000000e+00 1
1.9140552989181985e-02 -7.6971382905058658e-02 0.0000000000000000e+00 1
2.2341791944362567e-02 -6.4852142176842667e-02 0.0000000000000000e+00 1
2.5534510728905881e-03 8.1247631348695837e-02 0.0000000000000000e+00 1
1.0524844139452011e-02 7.3300914851043175e-02 0.0000000000000000e+00 1
8.8451685943277181e-02 -1.5089110561394264e-01 0.0000000000000000e+00 1
-1.5131974109571553e-01 1.9226388770930103e-01 0.0000000000000000e+00 1
-2.9469827964315812e-02 -3.6325967159837498e-02 0.0000000000000000e+00 1
-9.4464362440486477e-02 6.4197488825205498e-02 0.0000000000000000e+00 1
2.7630032763223459e-02 5.5610512337561133e-02 0.0000000000000000e+00 1
-1.3276239811617915e-01 5.1855988760680392e-02 0.0000000000000000e+00 1
1.9372759565018316e-01 -1.8054465727267638e-01 0.0000000000000000e+00 1
2.0060322121699409e-01 -1.6632862284493954e-01 0.0000000000000000e+00 1
-5.0505672712973550e-02 1.0063849005575715e-01 0.0000000000000000e+00 1
1.2752288744757684e-01 -1.3787185137215252e-01 0.0000000000000000e+00 1
-8.8907272218167688e-02 9.1790589881890802e-02 0.0000000000000000e+00 1
-1.4718659029263986e-01 8.3439473233485453e-02 0.0000000000000000e+00 1
1.1301199892228161e-01 -8.5940431333987433e-02 0.0000000000000000e+00 1
1.3136498305167030e-02 1.2571081372436821e-02 0.0000000000000000e+00 1
5.0595970146988203e-02 3.2090891102472464e-02 0.0000000000000000e+00 1
6.8654650181924126e-02 -3.9263906048221275e-02 0.0000000000000000e+00 1
8.1770120367921556e-02 -9.4033746069996718e-02 0.0000000000000000e+00 1
2.0274078007236240e-01 -2.0231769271245739e-01 0.0000000000000000e+00 1
1.0576830189600147e-02 3.1004528864683863e-02 0.0000000000000000e+00 1
-1.4878387824501846e-01 9.1912851779380939e-02 0.0000000000000000e+00 1
5.9273862615628226e-02 -7.0359691377994832e-02 0.0000000000000000e+00 1
-9.5645752361448334e-03 4.1650232580370886e-02 0.0000000000000000e+00 1
1.7987227571356690e-01 -2.0048925109607696e-01 0.0000000000000000e+00 1
1.1623175341603244e-01 -3.6850150453977479e-02 0.0000000000000000e+00 1
1.3794559959257913e-01 -6.2434104380373230e-02 0.0000000000000000e+00 1
6.8116970725398907e-02 1.5363483320892511e-02 0.0000000000000000e+00 1
1.9663595831100875e-01 -2.3025324133154718e-01 0.0000000000000000e+00 1
-4.0317719469725413e-02 8.6741194433424540e-02 0.0000000000000000e+00 1
2.5686329436317830e-02 -4.0584429185782936e-02 0.0000000000000000e+00 1
9.8852856889823343e-02 -2.0128813934425116e-02 0.0000000000000000e+00 1
-7.2234215473647046e-03 2.2730813966163173e-02 0.0000000000000000e+00 1
-7.6373815535071096e-02 1.4078666526915937e-01 0.0000000000000000e+00 1
1.2342673635104426e-01 -4.5603365252215526e-02 0.0000000000000000e+00 1
-1.5642191019204121e-01 1.7457300847523627e-01 0.0000000000000000e+00 1
2.1286403746656279e-01 -2.3338906259800718e-01 0.0000000000000000e+00 1
2.0734788890470945e-01 -2.3220207612031749e-01 0.0000000000000000e+00 1
1.4446629013230411e-01 -7.1410512287475830e-02 0.0000000000000000e+00 1
1.6454878343124710e-01 -9.6380325620414389e-02 0.0000000000000000e+00 1
4.0992768461375626e-03 -1.7197007608456424e-02 0.0000000000000000e+00 1
-1.5756931462476594e-02 -5.2670175546290186e-03 0.0000000000000000e+00 1
-1.4320763153566005e-01 7.0709794822975486e-02 0.0000000000000000e+00 1
-9.3962442488604109e-02 5.2786533684503409e-02 0.0000000000000000e+00 1
-1.3424075862761017e-01 8.2485114742377297e-02 0.0000000000000000e+00 1
1.9409559401286708e-01 -1.4660237437346255e-01 0.0000000000000000e+00 1
-4.1385212901465525e-02 9.6658549413314920e-02 0.0000000000000000e+00 1
-3.4910578039662854e-02 5.6156471364054586e-03 0.0000000000000000e+00 1
-1.5718966635650386e-01 1.8165555507630074e-01 0.0000000000000000e+00 1
2.2537377359974184e-01 -2.2842618019907315e-01 0.0000000000000000e+00 1
-1.1999268942656167e-01 8.6292449512316002e-02 0.0000000000000000e+00 1
-1.2018316988995931e-01 9.2275648507842478e-02 0.0000000000000000e+00 1
3.0862706038853015e-02 -7.3269153161563627e-02 0.0000000000000000e+00 1
-3.6542237893742877e-02 3.6268416689620539e-02 0.0000000000000000e+00 1
1.4979893696743776e-01 -1.6963975553932487e-01 0.0000000000000000e+00 1
-1.1797257169892914e-01 1.6446552712986762e-01 0.0000000000000000e+00 1
-7.7151320029002823e-02 2.0700537829060874e-02 0.0000000000000000e+00 1
4.8323931668904051e-02 -6.4552881902430928e-02 0.0000000000000000e+00 1
-1.5802847183179203e-01 1.9516099297991735e-01 0.0000000000000000e+00 1
-1.5903443461884365e-01 2.0732828943938450e-01 0.0000000000000000e+00 1
-1.5265046788757072e-01 2.0545207732306400e-01 0.0000000000000000e+00 1
-8.1498689462962154e-02 8.8536862451680645e-02 0.0000000000000000e+00 1
1.7365511843641518e-01 -2.0661691236020288e-01 0.0000000000000000e+00 1
-1.1275673610310667e-01 6.7050791578497485e-02 0.0000000000000000e+00 1
-1.3527594330181314e-01 1.4062316414181383e-01 0.0000000000000000e+00 1
-2.9461417239003727e-02 6.2143624913157031e-02 0.0000000000000000e+00 1
-6.0439650200426714e-02 1.1337758018235478e-01 0.0000000000000000e+00 1
-1.0074569353280723e-01 6.7785344734786868e-02 0.0000000000000000e+00 1
1.9280645607097310e-01 -1.6191929267984873e-01 0.0000000000000000e+00 1
-1.3880393291446183e-01 5.7769853959788078e-02 0.0000000000000000e+00 1
2.4392278028157743e-02 -5.2723592280555572e-02 0.0000000000000000e+00 1
-1.0796350905321181e-01 1.4479429094620594e-01 0.0000000000000000e+00 1
1.6299582031957907e-01 -1.1372728355506220e-01 0.0000000000000000e+00 1
-5.2965755559833197e-02 1.5826352447042683e-02 0.0000000000000000e+00 1
1.4444233394082112e-01 -1.9698224464373459e-01 0.0000000000000000e+00 1
-7.0690456530459383e-02 4.2809135678660598e-02 0.0000000000000000e+00 1
-1.9612124003510867e-02 5.7163776603490299e-02 0.0000000000000000e+00 1
-9.8979680514585749e-02 1.2517575727951433e-01 0.0000000000000000e+00 1
8.2482880581968621e-02 -1.0651505101415995e-01 0.0000000000000000e+00 1
-7.6600522264986703e-02 -1.0306941307728882e-02 0.0000000000000000e+00 1
-1.5374179728098955e-01 1.3872441548038075e-01 0.0000000000000000e+00 1
-1.1333883855052015e-01 8.2053500224114062e-02 0.0000000000000000e+00 1
-1.5222076209954005e-01 1.0519351769773277e-01 0.0000000000000000e+00 1
-1.2607470659435932e-01 9.3971730381222668e-02 0.0000000000000000e+00 1
-8.0714839807554353e-02 8.0118444917768372e-02 0.0000000000000000e+00 1
-1.1742123290724539e-01 3.1955587878393053e-02 0.0000000000000000e+00 1
-1.2258796297685463e-01 2.9450657965686404e-02 0.0000000000000000e+00 1
-1.0654840631802402e-01 5.0856976368730905e-02 0.0000000000000000e+00 1
-1.2700974343962726e-01 1.0488793765180789e-01 0.0000000000000000e+00 1
-1.1111378831380751e-01 1.7005434380548815e-01 0.0000000000000000e+00 1
-1.4152215166303017e-01 2.0226184611886791e-01 0.0000000000000000e+00 1
-1.9250648208996805e-02 4.6965974592581609e-02 0.0000000000000000e+00 1
1.3882861508967095e-01 -1.6486631467504129e-01 0.0000000000000000e+00 1
-2.7396967840248670e-02 3.1572983265574887e-02 0.0000000000000000e+00 1
-8.4649931176685816e-02 1.6133034837582751e-02 0.0000000000000000e+00 1
2.1742828773385106e-01 -2.3516103212478168e-01 0.0000000000000000e+00 1
1.8330536139561732e-01 -2.2485846721059194e-01 0.0000000000000000e+00 1
-1.1993327171240263e-01 7.4594509916337065e-02 0.0000000000000000e+00 1
-7.1568264110887680e-02 5.1332588178395852e-02 0.0000000000000000e+00 1
-3.2911345762649633e-02 1.0255233724492353e-01 0.0000000000000000e+00 1
3.6792602048125518e-02 -1.0747347287240951e-01 0.0000000000000000e+00 1
-9.5328706201573188e-02 1.7174435076497571e-01 0.0000000000000000e+00 1
-1.5276497540453574e-01 1.9855642772324555e-01 0.0000000000000000e+00 1
-1.0113992760772650e-01 1.4996351765329841e-01 0.0000000000000000e+00 1
-1.4850232330258559e-01 9.9384401845839243e-02 0.0000000000000000e+00 1
-1.3760129297971255e-01 6.7689996875749461e-02 0.0000000000000000e+00 1
2.0652779462227983e-01 -2.3781923294522145e-01 0.0000000000000000e+00 1
-1.1694891540881410e-02 -6.6774011489773424e-02 0.0000000000000000e+00 1
-1.4610836500106061e-01 7.9041291449601786e-02 0.0000000000000000e+00 1
-1.5208152309515163e-01 1.1419856813174140e-01 0.0000000000000000e+00 1
2.2154470583605207e-01 -2.3267360594817638e-01 0.0000000000000000e+00 1
-1.5939819617407802e-01 2.1735504276665443e-01 0.0000000000000000e+00 1
-1.5176520677139493e-01 9.8612143703688968e-02 0.0000000000000000e+00 1
-7.3010479918840743e-02 7.6259037320671658e-02 0.0000000000000000e+00 1
-1.2147755149758219e-01 9.9470450027598745e-02 0.0000000000000000e+00 1
-5.2590055986987287e-02 6.0137153113745435e-03 0.0000000000000000e+00 1
-7.2806674438244054e-02 6.8106039978044264e-02 0.0000000000000000e+00 1
5.4699926114582978e-02 1.3417604741838205e-02 0.0000000000000000e+00 1
1.1126049317243786e-01 -1.4396584154322761e-01 0.0000000000000000e+00 1
-6.5189275517831449e-02 6.0072731616655967e-02 0.0000000000000000e+00 1
-7.7038843803435356e-02 1.1004222589712405e-03 0.0000000000000000e+00 1
-1.3611543891196484e-01 4.8181332242783939e-02 0.0000000000000000e+00 1
-8.6008393701203445e-02 1.2235333307399743e-01 0.0000000000000000e+00 1
-1.5610576190141121e-01 1.6100545939372821e-01 0.0000000000000000e+00 1
-1.8493481323418454e-02 3.6737626847681559e-02 0.0000000000000000e+00 1
8.6380047870784682e-02 -1.2045641443705897e-03 0.0000000000000000e+00 1
9.8463868037233226e-02 -3.2168377457673245e-02 0.0000000000000000e+00 1
2.1654990188909212e-01 -1.9367861118375965e-01 0.0000000000000000e+00 1
-9.4403978585992393e-02 1.5590214457874585e-01 0.0000000000000000e+00 1
1.8121572754428944e-01 -1.2118556055044202e-01 0.0000000000000000e+00 1
-1.4995280534091027e-01 1.4618013019937015e-01 0.0000000000000000e+00 1
1.2132363625153182e-01 -5.6729273679068715e-02 0.0000000000000000e+00 1
-8.4598031919706079e-02 6.5876725773539148e-03 0.0000000000000000e+00 1
-5.0722689720490877e-02 -3.3270003871743337e-02 0.0000000000000000e+00 1
3.8000968029388384e-02 -9.4146005278317027e-02 0.0000000000000000e+00 1
1.3865014944099530e-01 -1.5380850619769787e-01 0.0000000000000000e+00 1
-6.4187999657630557e-02 1.3214927672782745e-01 0.0000000000000000e+00 1
-1.2398558034618488e-01 1.1590151316530016e-01 0.0000000000000000e+00 1
-1.5535152423124143e-01 2.2346894810938503e-01 0.0000000000000000e+00 1
-1.5532121641102431e-01 2.1903720480075184e-01 0.0000000000000000e+00 1
-1.2215325871336183e-01 1.0692409366758965e-01 0.0000000000000000e+00 1
1.7567379956044851e-01 -2.2089436942314686e-01 0.0000000000000000e+00 1
2.0797511052074147e-01 -1.7013982458053700e-01 0.0000000000000000e+00 1
-1.0000140124983012e-01 4.8325886418850092e-02 0.0000000000000000e+00 1
-8.0160741340177546e-02 1.5920015486411285e-01 0.0000000000000000e+00 1
-1.3143525560435151e-01 3.6182124649088314e-02 0.0000000000000000e+00 1
-4.3421146735076022e-02 9.4201712866358723e-04 0.0000000000000000e+00 1
1.1818187928338365e-02 -5.7365516506625150e-02 0.0000000000000000e+00 1
-4.0745634685505155e-02 -4.0997859702437515e-02 0.0000000000000000e+00 1
8.3562636005754642e-02 -1.1897100793553254e-01 0.0000000000000000e+00 1
8.9666276291091029e-03 6.2435584638460169e-02 0.0000000000000000e+00 1
-1.5821730111248661e-01 2.2509129751955684e-01 0.0000000000000000e+00 1
-1.2936010142215068e-01 3.3163564361030351e-02 0.0000000000000000e+00 1
2.2078453935136519e-01 -2.2722216580517718e-01 0.0000000000000000e+00 1
-1.5472654827145832e-01 2.1117888666290746e-01 0.0000000000000000e+00 1
3.7652108977715940e-02 5.0229649740919424e-02 0.0000000000000000e+00 1
1.3469459997051872e-01 -1.9078183866403503e-01 0.0000000000000000e+00 1
2.1510022609423946e-01 -2.4049336000518848e-01 0.0000000000000000e+00 1
-9.7283550480033093e-02 1.0294106111323179e-01 0.0000000000000000e+00 1
-1.2597718578575443e-01 2.6562324230962778e-02 0.0000000000000000e+00 1
1.5988649816804018e-01 -8.8018609094196135e-02 0.0000000000000000e+00 1
-1.3597141075879908e-02 8.4048254159866956e-02 0.0000000000000000e+00 1
-1.2070817750096190e-01 2.2233191244369021e-02 0.0000000000000000e+00 1
-5.2428606353976337e-02 1.0893021010706395e-01 0.0000000000000000e+00 1
1.4146198304227126e-01 -8.0241623896194103e-02 0.0000000000000000e+00 1
-1.1201831741981136e-01 3.5426532560289728e-02 0.0000000000000000e+00 1
-8.4812896312023822e-02 1.3638567087459932e-01 0.0000000000000000e+00 1
-1.4898046183758279e-01 1.0327424893997000e-01 0.0000000000000000e+00 1
-1.1316230634912444e-01 1.7737513077631575e-01 0.0000000000000000e+00 1
-3.4064702891199485e-02 -4.2327613280774522e-03 0.0000000000000000e+00 1
1.9088142586261880e-01 -1.5425612571666850e-01 0.0000000000000000e+00 1
-9.9031059245763567e-02 1.0944637842338341e-01 0.0000000000000000e+00 1
2.2593584343746731e-01 -2.3269306124994760e-01 0.0000000000000000e+00 1
2.2120181731210320e-01 -2.3688485680910301e-01 0.0000000000000000e+00 1
-9.2682682798926677e-02 1.2201740775468987e-01 0.0000000000000000e+00 1
-9.6427632267962943e-02 1.6344450266039626e-01 0.0000000000000000e+00 1
2.8538057852501471e-02 -8.5844370009494589e-02 0.0000000000000000e+00 1
-1.4133683928462359e-01 7.6591373294578699e-02 0.0000000000000000e+00 1
1.9264297511857875e-01 -1.3797639369023498e-01 0.0000000000000000e+00 1
-1.5362158773973389e-01 1.1944574449498586e-01 0.0000000000000000e+00 1
-1.3116492357748258e-01 1.9385603598947287e-01 0.0000000000000000e+00 1
-8.5946171738119498e-03 3.1767898013556714e-02 0.0000000000000000e+00 1
-2.4856816820644567e-02 -9.7848829842083311e-03 0.0000000000000000e+00 1
7.2522797916023563e-02 -1.2386417578567716e-01 0.0000000000000000e+00 1
1.7642736732681025e-01 -2.1356242896960406e-01 0.0000000000000000e+00 1
2.1489951617051972e-01 -2.0998940038938727e-01 0.0000000000000000e+00 1
-1.4553071032446582e-01 8.9737041073736645e-02 0.0000000000000000e+00 1
1.8316286762235739e-01 -1.4908505564018371e-01 0.0000000000000000e+00 1
4.9473674882218516e-02 2.2285331271262962e-02 0.0000000000000000e+00 1
2.0213452469307058e-01 -2.2924734482221942e-01 0.0000000000000000e+00 1
-1.4719681771194812e-01 9.5493915936248619e-02 0.0000000000000000e+00 1
-1.3432180109962794e-01 5.5638721143967521e-02 0.0000000000000000e+00 1
-1.4153224658013938e-01 6.1314067765495930e-02 0.0000000000000000e+00 1
-5.0697421923409688e-02 -2.3330966952940364e-02 0.0000000000000000e+00 1
1.5977615249581628e-01 -2.1098261785331573e-01 0.0000000000000000e+00 1
-1.2922447736807294e-01 1.8216022638236451e-01 0.0000000000000000e+00 1
1.2877707407998651e-01 -1.4791584817115347e-01 0.0000000000000000e+00 1
1.0687632275777631e-01 -3.7966276200554219e-02 0.0000000000000000e+00 1
2.1580582660322700e-01 -1.8637184535102483e-01 0.0000000000000000e+00 1
6.4445037631289240e-02 6.4234199010536775e-03 0.0000000000000000e+00 1
2.2028927807674795e-01 -2.2104919195602404e-01 0.0000000000000000e+00 1
-1.3527816276294988e-01 4.3915086042057683e-02 0.0000000000000000e+00 1
4.2069768964973123e-02 1.6510597114228837e-02 0.0000000000000000e+00 1
-1.4800642785346343e-01 2.0210214427537682e-01 0.0000000000000000e+00 1
1.5016298189263453e-03 2.6714716768481299e-02 0.0000000000000000e+00 1
-6.9571852111726284e-02 1.4956950445762121e-01 0.0000000000000000e+00 1
-1.0728203972438151e-01 3.2669928311653419e-02 0.0000000000000000e+00 1
3.7014198305016241e-03 -5.1122485008085056e-02 0.0000000000000000e+00 1
-1.2878679476996197e-01 1.1644467708395184e-01 0.0000000000000000e+00 1
-2.4367159326146453e-02 9.6876800962346896e-02 0.0000000000000000e+00 1
-2.5782089067158294e-02 -5.5194783804007240e-02 0.0000000000000000e+00 1
2.2362001798492356e-01 -2.3835969715520949e-01 0.0000000000000000e+00 1
2.2164411981100779e-01 -2.3970783270479179e-01 0.0000000000000000e+00 1
1.7382503406270653e-02 5.6206584488866472e-02 0.0000000000000000e+00 1
-1.5089524921342148e-01 1.6295388490131962e-01 0.0000000000000000e+00 1
1.3489100434517556e-01 -1.8115975164700437e-01 0.0000000000000000e+00 1
-1.5609586181329888e-01 2.2640766368323295e-01 0.0000000000000000e+00 1
1.1699901912988496e-02 2.1528698786729188e-02 0.0000000000000000e+00 1
1.7780567641938361e-01 -1.1237828957124067e-01 0.0000000000000000e+00 1
-1.4983382285281813e-01 2.1090759072097931e-01 0.0000000000000000e+00 1
4.0962703864248037e-02 -7.0862711586001020e-02 0.0000000000000000e+00 1
8.7009888192021559e-02 -1.7785221507769063e-02 0.0000000000000000e+00 1
1.0671000521048095e-01 -1.2622680724646940e-01 0.0000000000000000e+00 1
-1.5555201157972981e-01 1.5063998658356412e-01 0.0000000000000000e+00 1
-1.4846060635472275e-01 1.1126284367725883e-01 0.0000000000000000e+00 1
2.2103306129718073e-02 1.6252202351035014e-02 0.0000000000000000e+00 1
1.2912030026300331e-01 -6.2609401017456559e-02 0.0000000000000000e+00 1
-1.4850810636791542e-01 1.2670888085572260e-01 0.0000000000000000e+00 1
5.5780736001951797e-02 -1.2835944658518655e-01 0.0000000000000000e+00 1
3.2397833128977899e-02 1.0963645647069146e-02 0.0000000000000000e+00 1
-2.5057201780623733e-02 -1.8925842221358475e-02 0.0000000000000000e+00 1
-7.1225443495174373e-02 1.3434230990997559e-01 0.0000000000000000e+00 1
1.6179465178127059e-01 -1.0456153975089133e-01 0.0000000000000000e+00 1
-5.9709310703582796e-03 7.9451261132971920e-02 0.0000000000000000e+00 1
-1.2567071709440311e-01 3.2994281543343412e-02 0.0000000000000000e+00 1
2.0651286657971157e-01 -1.6213433457811396e-01 0.0000000000000000e+00 1
2.1426147767234383e-01 -2.3719220965829491e-01 0.0000000000000000e+00 1
1.8097131112917875e-01 -1.3602477791853543e-01 0.0000000000000000e+00 1
-5.9067330232771775e-02 -1.7252389368841999e-02 0.0000000000000000e+00 1
-5.5605649066445925e-02 1.2758787793035817e-01 0.0000000000000000e+00 1
1.1968576099728809e-01 -1.4244507404333195e-01 0.0000000000000000e+00 1
-1.2277934240156674e-01 1.1126775484609552e-01 0.0000000000000000e+00 1
-1.5609532998905704e-01 2.1511609756054725e-01 0.0000000000000000e+00 1
1.9402152922283480e-01 -2.2564934712427354e-01 0.0000000000000000e+00 1
-9.5667226956442211e-02 5.8478626210753115e-02 0.0000000000000000e+00 1
2.0973530383056851e-01 -2.3557558528754846e-01 0.0000000000000000e+00 1
-9.1053136432535930e-02 1.1614078335762335e-01 0.0000000000000000e+00 1
3.8958383050499958e-02 3.3894815271328323e-02 0.0000000000000000e+00 1

Edges
153
1 2 1
2 3 1
3 4 1
4 5 1
5 6 1
6 7 1
7 8 1
8 9 1
9 10 1
10 11 1
11 12 1
12 13 1
13 14 1
14 15 1
15 16 1
16 17 1
17 18 1
18 19 1
19 20 1
20 21 1
21 22 1
22 23 1
23 24 1
24 25 1
25 26 1
26 27 1
27 28 1
28 29 1
29 30 1
30 31 1
31 32 1
32 33 1
33 34 1
34 35 1
35 36 1
36 37 1
37 38 1
38 39 1
39 40 1
40 41 1
41 42 1
42 43 1
43 44 1
44 45 1
45 46 1
46 47 1
47 48 1
48 49 1
49 50 1
50 51 1
51 52 1
52 53 1
53 54 1
54 55 1
55 56 1
56 57 1
57 58 1
58 59 1
59 60 1
60 61 1
61 62 1
62 63 1
63 64 1
64 65 1
65 66 1
66 67 1
67 68 1
68 69 1
69 70 1
70 71 1
71 72 1
72 73 1
73 74 1
74 75 1
75 76 1
76 77 1
77 78 1
78 79 1
79 80 1
80 81 1
81 82 1
82 83 1
83 84 1
84 85 1
85 86 1
86 87 1
87 88 1
88 89 1
89 90 1
90 91 1
91 92 1
92 93 1
93 94 1
94 95 1
95 96 1
96 97 1
97 98 1
98 99 1
99 100 1
100 101 1
101 102 1
102 103 1
103 104 1
104 105 1
105 106 1
106 107 1
107 108 1
108 109 1
109 110 1
110 111 1
111 112 1
112 113 1
113 114 1
114 115 1
115 116 1
116 117 1
117 118 1
118 119 1
119 120 1
120 121 1
121 122 1
122 123 1
123 124 1
124 125 1
125 126 1
126 127 1
127 128 1
128 129 1
129 130 1
130 131 1
131 132 1
132 133 1
133 134 1
134 135 1
135 136 1
136 137 1
137 138 1
138 139 1
139 140 1
140 141 1
141 142 1
142 143 1
143 144 1
144 145 1
145 146 1
146 147 1
147 148 1
148 149 1
149 150 1
150 151 1
151 152 1
152 153 1
153 1 1

Triangles
1749
754 815 877 1
37 38 733 1
610 747 810 1
785 534 835 1
821 232 824 1
793 819 845 1
185 620 740 1
409 546 702 1
620 508 740 1
748 525 848 1
107 108 568 1
616 821 824 1
624 509 835 1
272 748 848 1
702 546 812 1
553 192 598 1
166 785 835 1
173 636 638 1
747 201 810 1
173 638 865 1
576 159 787 1
835 554 928 1
212 106 213 1
391 509 624 1
386 388 581 1
647 440 768 1
38 207 733 1
467 575 891 1
576 787 872 1
603 813 882 1
649 715 751 1
527 485 827 1
685 512 866 1
536 171 915 1
585 181 590 1
875 750 892 1
105 106 212 1
556 212 559 1
803 619 824 1
451 573 574 1
567 209 867 1
388 419 581 1
639 655 777 1
646 647 768 1
209 567 791 1
109 110 568 1
166 835 928 1
208 856 921 1
815 754 858 1
232 803 824 1
547 186 550 1
750 661 892 1
639 654 655 1
485 527 871 1
458 604 882 1
838 11 853 1
509 554 835 1
450 647 786 1
156 747 882 1
174 662 923 1
467 574 575 1
163 685 866 1
683 504 784 1
552 95 849 1
508 626 753 1
709 545 853 1
610 458 882 1
451 571 572 1
574 573 575 1
582 533 932 1
157 809 817 1
662 174 777 1
740 508 753 1
537 544 709 1
95 552 910 1
692 241 717 1
650 498 771 1
612 405 633 1
544 537 935 1
171 536 709 1
327 704 757 1
1 2 190 1
544 545 709 1
647 450 802 1
586 588 589 1
545 838 853 1
495 692 717 1
589 622 896 1
161 738 936 1
712 589 896 1
181 585 587 1
586 589 712 1
747 610 882 1
639 637 654 1
451 424 571 1
606 200 830 1
809 157 895 1
443 442 588 1
215 287 565 1
622 623 774 1
523 504 683 1
200 606 926 1
587 712 826 1
214 158 215 1
417 533 582 1
588 442 589 1
565 287 566 1
637 340 654 1
643 755 786 1
704 775 852 1
498 650 944 1
3 158 214 1
550 186 555 1
533 534 680 1
755 450 786 1
841 161 936 1
546 14 812 1
606 168 607 1
105 212 556 1
391 624 769 1
660 667 668 1
570 577 814 1
191 626 708 1
775 410 852 1
660 668 892 1
183 558 596 1
164 784 825 1
738 161 910 1
213 107 568 1
612 164 837 1
611 475 885 1
507 670 794 1
426 451 574 1
587 586 712 1
549 677 920 1
546 536 915 1
635 340 637 1
788 756 819 1
558 183 597 1
178 839 881 1
813 156 882 1
784 504 825 1
475 611 795 1
622 774 896 1
649 751 804 1
730 628 739 1
14 546 915 1
565 566 567 1
704 327 775 1
277 251 580 1
110 208 568 1
551 176 833 1
553 598 724 1
580 386 581 1
530 560 711 1
602 467 891 1
814 577 884 1
661 660 892 1
162 577 932 1
518 600 632 1
601 391 769 1
576 569 929 1
446 443 588 1
123 554 828 1
839 516 881 1
555 199 767 1
277 580 581 1
696 317 698 1
164 825 837 1
583 585 590 1
554 123 928 1
571 569 576 1
287 217 600 1
496 788 819 1
451 572 573 1
244 249 644 1
604 458 749 1
680 534 785 1
340 635 640 1
176 551 849 1
660 658 667 1
583 454 585 1
569 452 570 1
368 370 617 1
620 510 663 1
186 547 779 1
600 593 632 1
93 161 652 1
51 192 665 1
368 617 618 1
538 515 539 1
592 412 666 1
187 37 733 1
628 730 902 1
726 575 895 1
214 215 565 1
597 404 713 1
710 235 772 1
197 578 625 1
602 196 718 1
424 422 571 1
677 549 797 1
219 593 600 1
469 710 772 1
363 364 618 1
705 490 706 1
815 204 877 1
591 189 629 1
578 197 594 1
249 246 595 1
560 167 860 1
795 557 908 1
732 198 822 1
361 697 823 1
84 85 706 1
304 300 601 1
658 336 667 1
711 560 860 1
418 417 582 1
695 674 697 1
168 606 830 1
192 553 890 1
416 514 515 1
363 618 619 1
448 454 583 1
420 452 569 1
210 104 556 1
229 710 949 1
184 677 678 1
461 620 663 1
317 696 927 1
27 28 678 1
210 556 557 1
677 184 920 1
104 105 556 1
577 582 932 1
651 92 652 1
591 629 630 1
575 726 891 1
759 341 797 1
856 843 921 1
535 736 926 1
440 647 802 1
167 560 952 1
613 495 766 1
822 893 907 1
103 210 611 1
712 155 826 1
505 416 538 1
670 507 806 1
732 822 904 1
500 822 907 1
219 221 593 1
598 192 832 1
374 615 616 1
251 276 580 1
748 229 949 1
552 738 910 1
608 458 610 1
358 461 663 1
626 191 753 1
455 646 768 1
458 434 749 1
28 184 678 1
404 597 714 1
604 603 882 1
599 399 605 1
598 396 724 1
692 691 863 1
577 162 884 1
399 599 606 1
593 272 632 1
405 216 633 1
589 621 622 1
689 305 746 1
388 417 418 1
697 674 823 1
314 313 698 1
405 612 837 1
364 368 618 1
374 375 615 1
641 243 643 1
459 550 681 1
499 397 607 1
217 219 600 1
715 649 868 1
422 569 571 1
674 695 707 1
656 336 658 1
558 597 713 1
626 473 708 1
399 333 605 1
422 420 569 1
426 424 451 1
317 314 698 1
415 414 416 1
438 609 621 1
584 583 590 1
416 414 514 1
600 518 911 1
714 179 773 1
841 498 944 1
603 602 718 1
794 670 873 1
645 642 646 1
688 305 689 1
550 631 681 1
199 555 899 1
85 705 706 1
590 181 850 1
169 84 706 1
339 479 627 1
634 315 640 1
436 458 608 1
596 598 832 1
300 302 601 1
386 387 388 1
201 623 810 1
416 515 538 1
863 691 876 1
92 93 652 1
572 571 576 1
240 243 641 1
687 403 773 1
476 795 908 1
550 555 631 1
585 586 587 1
569 570 929 1
419 418 420 1
344 347 686 1
420 418 452 1
736 535 831 1
91 92 651 1
20 197 805 1
495 717 766 1
413 412 414 1
428 426 574 1
621 609 622 1
421 420 422 1
629 194 630 1
457 448 583 1
646 642 647 1
695 693 707 1
439 438 621 1
589 442 621 1
448 446 454 1
578 477 625 1
477 484 625 1
101 194 629 1
467 428 574 1
239 642 645 1
388 387 417 1
330 336 656 1
622 609 623 1
248 277 595 1
316 319 640 1
382 495 613 1
5 612 633 1
592 666 948 1
648 160 649 1
423 422 424 1
564 721 952 1
605 333 679 1
395 411 412 1
665 192 890 1
617 616 824 1
457 583 584 1
501 627 628 1
627 479 628 1
430 428 467 1
181 587 906 1
8 683 784 1
315 634 719 1
585 454 586 1
501 628 902 1
688 406 745 1
619 618 824 1
635 634 640 1
347 403 686 1
495 401 692 1
225 227 272 1
272 227 748 1
671 27 678 1
287 600 911 1
102 103 611 1
386 304 387 1
239 240 641 1
462 473 626 1
370 374 617 1
90 160 648 1
497 498 841 1
299 304 386 1
190 565 567 1
319 340 640 1
224 254 653 1
608 610 810 1
744 638 937 1
194 102 611 1
216 158 633 1
244 246 249 1
179 714 940 1
243 244 644 1
641 643 786 1
246 248 595 1
668 686 687 1
472 630 885 1
254 257 653 1
468 467 602 1
736 200 926 1
231 234 235 1
415 416 505 1
638 639 937 1
783 579 854 1
438 436 608 1
517 362 761 1
197 625 805 1
592 733 894 1
659 175 834 1
239 641 642 1
567 566 790 1
442 439 621 1
436 434 458 1
395 412 413 1
639 777 937 1
388 418 419 1
397 399 607 1
595 277 842 1
240 242 243 1
510 620 919 1
515 514 742 1
103 104 210 1
235 236 645 1
649 160 650 1
236 238 239 1
191 708 763 1
339 627 684 1
425 424 426 1
721 167 952 1
305 688 745 1
311 315 719 1
221 225 593 1
334 360 391 1
382 401 495 1
643 243 644 1
236 239 645 1
171 709 853 1
100 101 629 1
382 383 401 1
391 360 509 1
328 279 669 1
401 690 691 1
430 467 468 1
654 329 655 1
631 355 681 1
438 608 609 1
647 642 786 1
248 251 277 1
235 234 236 1
667 343 668 1
400 294 684 1
643 644 756 1
379 382 613 1
454 446 588 1
276 299 580 1
378 613 614 1
392 356 393 1
215 217 287 1
549 759 797 1
363 619 653 1
508 462 626 1
189 100 629 1
413 414 415 1
304 601 769 1
99 189 670 1
539 515 741 1
461 462 508 1
379 381 382 1
315 316 640 1
329 330 656 1
378 379 613 1
669 279 682 1
644 249 819 1
48 49 193 1
375 377 378 1
93 94 161 1
163 87 685 1
337 343 667 1
229 231 710 1
393 394 395 1
354 356 392 1
417 453 533 1
354 355 356 1
335 358 663 1
299 300 304 1
321 329 654 1
401 691 692 1
343 344 686 1
819 249 845 1
395 413 724 1
370 372 374 1
225 272 593 1
344 346 347 1
347 346 348 1
517 761 799 1
672 671 673 1
26 27 671 1
461 390 462 1
534 624 835 1
195 89 648 1
392 558 713 1
353 348 354 1
473 475 476 1
596 396 598 1
239 238 240 1
693 24 707 1
343 342 344 1
779 548 861 1
358 390 461 1
413 553 724 1
675 673 676 1
101 102 194 1
47 48 754 1
514 592 894 1
412 411 666 1
334 335 360 1
414 412 592 1
96 97 176 1
419 420 421 1
347 348 353 1
346 459 681 1
395 394 411 1
276 298 299 1
210 557 795 1
354 392 713 1
392 393 396 1
337 342 343 1
336 337 667 1
655 656 657 1
627 400 684 1
302 334 601 1
375 378 615 1
374 372 375 1
182 26 671 1
330 332 336 1
225 226 227 1
153 1 867 1
257 363 653 1
90 91 160 1
655 329 656 1
657 658 659 1
653 619 780 1
3 4 158 1
646 455 772 1
336 332 337 1
686 403 687 1
630 472 900 1
285 286 679 1
344 345 346 1
160 91 651 1
480 362 517 1
421 422 423 1
382 381 383 1
378 377 379 1
299 386 580 1
182 671 672 1
694 693 695 1
427 426 428 1
672 673 675 1
294 295 684 1
5 6 612 1
33 34 199 1
659 658 660 1
180 594 933 1
696 695 697 1
509 510 554 1
321 322 329 1
657 656 658 1
401 383 690 1
302 325 334 1
355 631 729 1
319 320 321 1
99 100 189 1
462 472 473 1
89 90 648 1
38 39 207 1
742 207 811 1
403 404 773 1
473 476 708 1
340 321 654 1
177 700 701 1
694 695 696 1
227 228 229 1
399 606 607 1
559 212 844 1
180 693 694 1
333 285 679 1
468 602 603 1
411 526 666 1
31 32 186 1
404 353 713 1
88 89 195 1
329 322 330 1
396 393 724 1
243 242 244 1
86 163 705 1
456 448 457 1
98 99 670 1
636 637 638 1
229 230 231 1
616 615 818 1
177 16 700 1
447 446 448 1
50 51 665 1
596 832 903 1
130 131 159 1
676 673 677 1
6 164 612 1
547 548 779 1
696 697 927 1
159 576 929 1
316 318 319 1
180 23 693 1
23 24 693 1
28 29 184 1
187 666 801 1
175 659 942 1
321 320 322 1
537 688 689 1
6 7 164 1
177 701 702 1
679 290 722 1
605 679 722 1
403 353 404 1
519 520 521 1
728 492 796 1
8 9 683 1
334 391 601 1
157 726 895 1
393 356 394 1
697 361 927 1
479 359 519 1
700 699 703 1
554 510 919 1
522 635 636 1
319 318 320 1
127 128 162 1
461 508 620 1
638 637 639 1
339 310 359 1
9 165 683 1
459 547 550 1
570 452 577 1
49 50 664 1
231 233 234 1
286 290 679 1
537 689 935 1
423 424 425 1
221 223 225 1
25 26 182 1
2 3 214 1
311 314 315 1
536 408 537 1
337 341 342 1
319 321 340 1
9 10 165 1
394 356 729 1
636 635 637 1
18 178 699 1
354 348 355 1
86 87 163 1
16 17 700 1
668 343 686 1
308 309 310 1
330 331 332 1
339 359 479 1
17 699 700 1
657 659 662 1
308 310 339 1
136 137 196 1
175 661 883 1
521 520 522 1
235 645 772 1
408 406 688 1
20 21 197 1
474 400 501 1
338 294 400 1
429 428 430 1
595 842 946 1
731 521 743 1
435 434 436 1
374 616 617 1
334 325 335 1
338 400 474 1
437 436 438 1
323 402 682 1
402 669 682 1
519 359 520 1
22 23 180 1
445 443 446 1
558 396 596 1
315 314 316 1
509 360 510 1
12 13 171 1
292 294 338 1
537 408 688 1
83 169 711 1
83 84 169 1
257 264 363 1
280 283 682 1
701 703 704 1
17 18 699 1
299 298 300 1
364 366 368 1
468 604 749 1
15 16 177 1
36 37 187 1
310 309 311 1
383 385 690 1
417 387 453 1
828 554 919 1
295 307 308 1
368 369 370 1
358 389 390 1
310 311 719 1
344 342 345 1
18 19 178 1
520 359 719 1
441 439 442 1
430 468 749 1
295 308 684 1
88 195 685 1
283 323 682 1
51 52 192 1
85 86 705 1
650 160 651 1
279 280 682 1
634 520 719 1
501 400 627 1
482 474 535 1
347 353 403 1
701 700 703 1
292 293 294 1
632 272 848 1
308 307 309 1
323 397 402 1
402 397 499 1
323 333 397 1
402 499 500 1
236 237 238 1
397 333 399 1
283 285 323 1
346 345 459 1
231 235 710 1
124 125 166 1
323 285 333 1
176 97 806 1
290 291 292 1
353 354 713 1
490 705 938 1
433 431 434 1
370 371 372 1
698 313 783 1
398 513 734 1
529 532 725 1
522 634 635 1
375 376 377 1
316 317 318 1
673 671 678 1
539 815 858 1
402 500 669 1
511 394 729 1
379 380 381 1
505 664 665 1
411 511 526 1
338 474 482 1
290 292 722 1
271 265 737 1
349 478 723 1
482 535 599 1
134 135 157 1
80 81 167 1
286 289 290 1
294 293 295 1
126 127 680 1
406 281 745 1
308 339 684 1
337 332 341 1
491 489 492 1
182 672 674 1
393 395 724 1
661 750 883 1
409 408 536 1
533 453 534 1
335 357 358 1
311 313 314 1
82 83 711 1
407 406 408 1
338 482 722 1
631 555 767 1
225 223 226 1
536 537 709 1
87 88 685 1
78 79 198 1
330 322 331 1
292 291 293 1
462 390 472 1
482 605 722 1
54 55 183 1
392 396 558 1
452 418 582 1
360 335 663 1
378 614 615 1
194 611 885 1
290 289 291 1
273 279 328 1
240 241 242 1
136 196 726 1
493 492 728 1
283 284 285 1
326 281 406 1
182 674 707 1
398 512 513 1
383 384 385 1
363 264 364 1
273 328 720 1
57 58 179 1
114 115 206 1
359 310 719 1
80 167 721 1
24 25 707 1
60 61 175 1
531 529 725 1
623 609 810 1
74 75 200 1
691 252 876 1
529 493 532 1
425 426 427 1
650 651 944 1
484 350 502 1
25 182 707 1
63 64 174 1
227 226 228 1
320 318 361 1
76 77 168 1
623 201 897 1
385 497 527 1
40 41 188 1
4 5 633 1
561 531 562 1
473 472 475 1
66 67 173 1
522 520 634 1
267 269 278 1
295 306 307 1
198 79 721 1
79 80 721 1
657 662 777 1
69 70 172 1
478 578 579 1
285 284 286 1
292 338 722 1
555 186 899 1
72 73 170 1
482 599 605 1
127 162 680 1
265 267 737 1
349 477 478 1
661 175 942 1
68 69 731 1
348 346 681 1
141 142 201 1
532 493 728 1
244 245 246 1
320 361 716 1
316 314 317 1
666 526 801 1
561 563 564 1
770 367 781 1
356 355 729 1
71 72 730 1
98 670 806 1
561 562 563 1
280 282 283 1
77 78 732 1
368 366 369 1
229 228 230 1
677 673 678 1
311 309 313 1
129 814 884 1
478 579 783 1
231 230 233 1
407 408 409 1
286 288 289 1
262 265 271 1
514 414 592 1
326 406 407 1
409 536 546 1
560 531 561 1
573 572 809 1
302 324 325 1
611 210 795 1
484 502 516 1
562 531 725 1
78 198 732 1
434 431 749 1
295 293 306 1
453 387 769 1
491 492 493 1
246 247 248 1
120 121 740 1
286 284 288 1
283 282 284 1
1 190 867 1
502 350 727 1
236 234 237 1
375 372 376 1
427 428 429 1
278 269 720 1
370 369 371 1
139 140 156 1
307 306 349 1
478 477 578 1
327 757 925 1
586 454 588 1
487 770 781 1
273 274 279 1
168 77 732 1
300 301 302 1
530 531 560 1
437 438 439 1
579 578 594 1
326 407 410 1
269 273 720 1
289 288 327 1
309 307 723 1
227 229 748 1
379 377 380 1
248 250 251 1
492 489 781 1
269 270 273 1
280 274 281 1
607 168 904 1
73 74 736 1
276 297 298 1
755 643 756 1
7 8 784 1
170 736 831 1
205 843 856 1
307 349 723 1
251 275 276 1
530 529 531 1
282 281 326 1
490 489 491 1
652 161 841 1
322 320 716 1
349 306 350 1
279 274 280 1
385 527 827 1
581 419 913 1
488 487 489 1
249 595 845 1
293 291 727 1
270 268 305 1
280 281 282 1
267 278 737 1
266 263 296 1
477 350 484 1
528 493 529 1
349 350 477 1
358 357 389 1
215 216 217 1
355 348 681 1
240 238 241 1
459 460 547 1
739 628 836 1
70 71 739 1
129 130 814 1
441 442 443 1
528 529 530 1
435 436 437 1
433 434 435 1
118 119 191 1
660 661 942 1
756 644 819 1
273 270 274 1
313 309 723 1
121 122 185 1
383 381 384 1
267 268 269 1
72 170 730 1
96 176 849 1
486 373 487 1
411 394 511 1
215 158 216 1
510 360 663 1
445 446 447 1
624 453 769 1
67 68 743 1
74 200 736 1
491 493 528 1
116 117 202 1
261 259 312 1
284 282 735 1
326 410 735 1
69 172 731 1
14 15 812 1
364 365 366 1
288 284 735 1
352 303 485 1
447 448 456 1
544 542 545 1
594 180 888 1
306 293 727 1
257 258 264 1
465 362 480 1
269 268 270 1
704 703 757 1
335 325 357 1
780 619 803 1
342 341 759 1
488 489 490 1
481 480 504 1
110 111 208 1
282 326 735 1
135 136 726 1
170 73 736 1
254 256 257 1
64 65 744 1
30 31 779 1
331 322 716 1
429 430 431 1
177 702 812 1
166 125 785 1
255 253 362 1
726 196 891 1
265 266 267 1
517 799 837 1
212 213 843 1
140 141 747 1
652 841 944 1
485 303 782 1
30 779 861 1
372 371 734 1
614 613 766 1
367 365 503 1
144 145 155 1
221 222 223 1
71 730 739 1
385 384 497 1
224 653 780 1
350 306 727 1
172 70 739 1
457 584 790 1
672 675 823 1
262 263 265 1
486 487 488 1
11 12 853 1
413 415 553 1
648 649 804 1
312 259 778 1
606 599 926 1
267 266 268 1
398 486 512 1
645 646 772 1
371 373 398 1
541 542 543 1
594 197 933 1
371 398 734 1
364 264 365 1
68 731 743 1
137 138 718 1
763 708 807 1
669 500 934 1
281 274 745 1
173 67 743 1
575 573 895 1
468 603 604 1
800 211 878 1
265 263 266 1
289 327 762 1
302 301 324 1
511 729 767 1
366 365 367 1
377 376 715 1
459 345 460 1
680 162 932 1
728 796 829 1
58 59 750 1
219 220 221 1
270 305 745 1
244 242 245 1
300 298 301 1
543 542 544 1
246 245 247 1
387 304 769 1
119 120 753 1
655 657 777 1
404 714 773 1
727 291 762 1
305 268 746 1
262 261 263 1
260 261 262 1
266 296 746 1
371 369 373 1
502 727 762 1
398 373 486 1
296 263 752 1
274 270 745 1
174 64 744 1
126 680 785 1
327 288 775 1
223 222 224 1
524 540 541 1
642 641 786 1
479 519 836 1
248 247 250 1
743 521 869 1
257 256 258 1
541 540 542 1
291 289 762 1
199 34 846 1
19 20 805 1
35 36 801 1
276 275 297 1
474 501 831 1
357 325 760 1
547 460 548 1
384 381 771 1
699 178 881 1
251 250 275 1
389 494 591 1
533 680 932 1
325 324 760 1
141 201 747 1
125 126 785 1
195 648 804 1
234 233 789 1
313 723 783 1
548 460 549 1
262 271 798 1
258 256 259 1
376 372 734 1
261 312 752 1
765 557 924 1
162 128 884 1
481 523 524 1
221 220 222 1
184 29 861 1
465 480 481 1
238 237 717 1
481 504 523 1
217 218 219 1
298 297 776 1
255 362 465 1
380 377 715 1
552 471 738 1
258 259 260 1
324 301 463 1
381 380 771 1
324 463 464 1
224 222 253 1
389 357 494 1
179 58 750 1
10 11 838 1
524 523 540 1
268 266 746 1
183 596 903 1
230 228 232 1
729 631 767 1
143 144 774 1
260 259 261 1
799 405 837 1
734 513 751 1
573 809 895 1
503 365 758 1
591 630 900 1
264 258 758 1
455 469 772 1
670 189 873 1
534 453 624 1
487 373 770 1
497 384 498 1
222 220 761 1
464 506 507 1
444 449 455 1
189 591 873 1
440 439 441 1
121 185 740 1
186 32 899 1
297 275 303 1
94 95 910 1
431 430 749 1
42 43 211 1
464 463 506 1
367 503 796 1
250 247 252 1
117 118 763 1
701 704 852 1
190 214 565 1
365 264 758 1
475 472 885 1
48 193 754 1
254 255 256 1
297 303 351 1
444 443 445 1
156 140 747 1
708 476 807 1
196 137 718 1
351 352 470 1
345 342 759 1
224 253 254 1
470 471 551 1
351 303 352 1
470 352 471 1
723 478 783 1
366 367 770 1
466 793 845 1
504 480 825 1
551 471 552 1
715 376 751 1
362 253 761 1
790 584 791 1
263 261 752 1
226 223 780 1
211 800 941 1
469 449 525 1
432 431 433 1
254 253 255 1
498 384 771 1
223 224 780 1
241 238 717 1
288 735 775 1
369 366 770 1
616 818 821 1
120 740 753 1
122 123 828 1
421 423 466 1
45 46 204 1
735 410 775 1
789 233 818 1
437 439 440 1
457 790 870 1
301 298 776 1
494 357 760 1
196 602 891 1
483 456 518 1
258 260 758 1
698 783 854 1
332 331 840 1
706 490 855 1
797 341 840 1
717 237 766 1
131 132 787 1
676 677 797 1
158 4 633 1
219 218 220 1
489 487 781 1
376 734 751 1
112 113 205 1
505 538 905 1
297 351 776 1
433 435 450 1
432 755 756 1
597 183 847 1
324 464 760 1
441 443 444 1
862 211 941 1
572 576 872 1
781 367 796 1
115 116 764 1
31 186 779 1
373 369 770 1
460 345 759 1
76 168 830 1
476 475 795 1
241 692 863 1
455 449 469 1
429 431 432 1
567 790 791 1
200 75 830 1
650 771 868 1
500 907 934 1
618 617 824 1
35 801 846 1
217 216 218 1
61 62 834 1
859 765 924 1
834 62 923 1
444 445 449 1
197 21 933 1
494 760 794 1
167 81 860 1
252 691 951 1
253 222 761 1
82 711 860 1
549 460 759 1
209 791 864 1
492 781 796 1
169 706 855 1
164 7 784 1
609 608 810 1
159 131 787 1
432 433 755 1
425 427 496 1
447 456 483 1
157 135 726 1
718 138 813 1
440 441 768 1
603 718 813 1
774 623 897 1
525 449 792 1
237 234 789 1
463 301 776 1
168 732 904 1
503 758 798 1
191 119 753 1
551 552 849 1
760 464 794 1
207 39 811 1
190 567 867 1
192 52 832 1
521 522 869 1
218 216 405 1
577 452 582 1
259 256 778 1
444 455 768 1
139 156 813 1
22 180 933 1
483 518 632 1
758 260 798 1
13 14 915 1
714 597 847 1
277 581 842 1
144 155 774 1
636 173 869 1
538 539 858 1
505 665 890 1
147 148 181 1
557 556 924 1
256 255 778 1
662 659 834 1
255 465 778 1
433 450 755 1
833 176 880 1
138 139 813 1
118 191 763 1
649 650 868 1
766 237 789 1
260 262 798 1
441 444 768 1
178 19 805 1
97 98 806 1
741 515 742 1
303 275 782 1
539 741 800 1
33 199 899 1
39 40 811 1
490 491 855 1
275 250 782 1
776 351 808 1
133 134 817 1
15 177 812 1
116 202 764 1
66 173 865 1
464 507 794 1
226 780 803 1
250 252 782 1
820 524 851 1
435 437 802 1
689 746 887 1
481 524 820 1
232 228 803 1
183 55 847 1
854 579 888 1
463 776 808 1
228 226 803 1
516 502 925 1
123 124 928 1
415 505 890 1
901 716 945 1
858 193 905 1
427 429 788 1
36 187 801 1
560 561 952 1
764 202 765 1
757 703 881 1
445 447 792 1
60 175 883 1
527 738 871 1
312 778 820 1
113 114 816 1
516 757 881 1
230 232 821 1
801 526 846 1
202 117 763 1
761 220 799 1
472 390 900 1
625 484 839 1
449 445 792 1
361 318 927 1
480 517 825 1
738 471 871 1
664 50 665 1
500 499 822 1
54 183 903 1
615 614 818 1
57 179 940 1
614 789 818 1
484 516 839 1
545 542 898 1
63 174 923 1
450 435 802 1
825 517 837 1
195 804 914 1
674 672 823 1
242 241 863 1
145 146 826 1
437 440 802 1
432 756 788 1
134 157 817 1
628 479 836 1
351 470 808 1
690 385 827 1
423 425 793 1
733 207 894 1
757 516 925 1
744 65 865 1
506 463 808 1
172 739 836 1
512 486 866 1
52 53 832 1
176 806 880 1
352 485 871 1
791 154 864 1
155 145 826 1
767 199 889 1
154 791 939 1
466 423 793 1
790 566 870 1
668 687 892 1
389 591 900 1
535 474 831 1
233 230 821 1
202 763 807 1
447 483 792 1
75 76 830 1
662 834 923 1
148 149 850 1
429 432 788 1
312 820 851 1
201 142 897 1
114 206 816 1
798 271 829 1
751 513 804 1
778 465 820 1
728 829 886 1
220 218 799 1
47 754 877 1
804 513 914 1
206 115 764 1
638 744 865 1
808 470 833 1
675 901 945 1
506 808 833 1
499 607 904 1
34 35 846 1
193 49 664 1
465 481 820 1
496 427 788 1
518 456 870 1
696 698 854 1
659 660 942 1
155 712 896 1
614 766 789 1
765 202 807 1
218 405 799 1
425 496 793 1
175 61 834 1
750 59 883 1
185 122 828 1
106 107 213 1
840 331 901 1
165 10 838 1
410 407 912 1
721 564 893 1
836 519 931 1
829 271 886 1
822 499 904 1
55 56 847 1
252 247 876 1
204 815 878 1
409 702 912 1
620 185 919 1
687 875 892 1
111 112 856 1
687 773 875 1
702 701 852 1
130 159 814 1
169 855 918 1
771 380 868 1
341 332 840 1
818 233 821 1
12 171 853 1
488 490 938 1
584 590 939 1
95 96 849 1
184 861 920 1
754 193 858 1
651 652 944 1
524 541 851 1
470 551 833 1
209 153 867 1
525 792 848 1
791 584 939 1
143 774 897 1
676 797 840 1
519 521 931 1
503 798 829 1
206 764 859 1
874 543 887 1
815 800 878 1
843 213 921 1
898 540 943 1
132 133 203 1
694 696 854 1
796 503 829 1
541 543 874 1
190 2 214 1
511 767 889 1
29 30 861 1
203 809 872 1
591 494 873 1
538 858 905 1
128 129 884 1
630 194 885 1
188 41 862 1
108 109 568 1
40 188 811 1
792 483 848 1
532 728 886 1
41 42 862 1
762 327 925 1
46 47 877 1
81 82 860 1
690 827 951 1
491 528 855 1
521 731 931 1
466 845 946 1
522 636 869 1
752 312 851 1
556 559 924 1
725 532 909 1
331 716 901 1
199 846 889 1
165 898 943 1
485 782 879 1
65 66 865 1
557 765 908 1
207 742 894 1
805 625 839 1
421 466 913 1
838 545 898 1
532 886 909 1
831 501 902 1
764 765 859 1
198 721 893 1
694 854 888 1
703 699 881 1
149 150 857 1
714 847 940 1
530 711 918 1
539 800 815 1
483 632 848 1
742 514 894 1
814 159 929 1
705 163 938 1
666 187 948 1
178 805 839 1
161 94 910 1
563 930 934 1
832 53 903 1
725 909 922 1
512 685 914 1
590 850 857 1
711 169 918 1
563 562 930 1
296 874 887 1
32 33 899 1
486 488 866 1
827 879 951 1
809 203 817 1
806 507 880 1
562 725 922 1
579 594 888 1
181 148 850 1
112 205 856 1
590 857 939 1
566 287 911 1
685 195 914 1
456 457 870 1
132 203 787 1
245 242 863 1
59 60 883 1
826 146 906 1
525 748 949 1
823 675 945 1
212 843 844 1
562 922 930 1
675 676 901 1
150 151 154 1
471 352 871 1
173 743 869 1
328 669 934 1
180 694 888 1
380 715 868 1
852 410 912 1
855 528 918 1
777 174 937 1
851 541 874 1
847 56 940 1
271 737 886 1
152 153 209 1
296 752 874 1
691 690 951 1
710 469 949 1
147 181 906 1
53 54 903 1
807 476 908 1
683 165 943 1
676 840 901 1
247 245 876 1
205 113 816 1
179 750 875 1
142 143 897 1
172 836 931 1
146 147 906 1
742 811 950 1
752 851 874 1
507 506 880 1
466 842 913 1
245 863 876 1
553 415 890 1
390 389 900 1
203 133 817 1
843 205 844 1
213 568 921 1
886 737 909 1
494 794 873 1
773 179 875 1
746 296 887 1
62 63 923 1
407 409 912 1
664 505 905 1
526 511 889 1
564 563 907 1
599 535 926 1
21 22 933 1
56 57 940 1
542 540 898 1
523 683 943 1
506 833 880 1
720 328 930 1
930 328 934 1
822 198 893 1
809 572 872 1
171 13 915 1
716 361 945 1
909 278 922 1
518 870 911 1
513 512 914 1
782 252 879 1
318 317 927 1
730 170 902 1
151 152 864 1
278 720 922 1
528 530 918 1
570 814 929 1
741 742 950 1
893 564 907 1
737 278 909 1
44 45 916 1
827 485 879 1
561 564 952 1
469 525 949 1
587 826 906 1
540 523 943 1
922 720 930 1
205 816 844 1
419 421 913 1
206 859 947 1
43 44 917 1
124 166 928 1
689 887 935 1
850 149 857 1
738 527 936 1
527 497 936 1
548 549 920 1
42 211 862 1
211 43 917 1
170 831 902 1
731 172 931 1
543 544 935 1
774 155 896 1
568 208 921 1
861 548 920 1
174 744 937 1
208 111 856 1
188 941 950 1
185 828 919 1
842 581 913 1
502 762 925 1
204 46 877 1
45 204 916 1
787 203 872 1
733 592 948 1
165 838 898 1
941 741 950 1
193 664 905 1
765 807 908 1
878 211 917 1
859 559 947 1
187 733 948 1
870 566 911 1
846 526 889 1
204 878 916 1
163 866 938 1
361 823 945 1
497 841 936 1
887 543 935 1
702 852 912 1
800 741 941 1
150 154 857 1
816 206 947 1
907 563 934 1
879 252 951 1
845 595 946 1
842 466 946 1
188 862 941 1
811 188 950 1
559 859 924 1
154 151 864 1
866 488 938 1
152 209 864 1
844 816 947 1
44 916 917 1
559 844 947 1
857 154 939 1
916 878 917 1
793 496 819 1

End
