MeshVersionFormatted 2
Dimension 3

Vertices
612
6.9521053721732697e-03 -1.7264960179518080e-01 0.0000000000000000e+00 1
7.7743691733101064e-03 -1.7484484619913013e-01 0.0000000000000000e+00 1
8.3798610541616688e-03 -1.7544894429369950e-01 0.0000000000000000e+00 1
8.7958223644062361e-03 -1.7460737489270414e-01 0.0000000000000000e+00 1
9.0494944537220859e-03 -1.7246561680995928e-01 0.0000000000000000e+00 1
9.1681186717875000e-03 -1.6916914885928003e-01 0.0000000000000000e+00 1
9.1789363682807570e-03 -1.6486344985448154e-01 0.0000000000000000e+00 1
9.1091888928801368e-03 -1.5969399860937905e-01 0.0000000000000000e+00 1
8.9861175952639198e-03 -1.5380627393778767e-01 0.0000000000000000e+00 1
8.8369638251103843e-03 -1.4734575465352262e-01 0.0000000000000000e+00 1
8.6889689320978087e-03 -1.4045791957039908e-01 0.0000000000000000e+00 1
8.5693742659044767e-03 -1.3328824750223217e-01 0.0000000000000000e+00 1
8.5054211762086631e-03 -1.2598221726283709e-01 0.0000000000000000e+00 1
8.5243510126886534e-03 -1.1868530766602906e-01 0.0000000000000000e+00 1
8.6534051250227208e-03 -1.1154299752562317e-01 0.0000000000000000e+00 1
8.9198248628891506e-03 -1.0470076565543468e-01 0.0000000000000000e+00 1
9.3508515759662177e-03 -9.8304090869278715e-02 0.0000000000000000e+00 1
9.9737266139322042e-03 -9.2498451980970467e-02 0.0000000000000000e+00 1
1.0815691326465388e-02 -8.7429327804325108e-02 0.0000000000000000e+00 1
1.1903987063244054e-02 -8.3242197153157782e-02 0.0000000000000000e+00 1
1.3265855173946474e-02 -8.0082538841283704e-02 0.0000000000000000e+00 1
1.4928537008250933e-02 -7.8095831682518047e-02 0.0000000000000000e+00 1
1.6919273915835715e-02 -7.7427554490675954e-02 0.0000000000000000e+00 1
1.9265307246379086e-02 -7.8223186079572626e-02 0.0000000000000000e+00 1
2.2852559084312447e-02 -8.0853343047203291e-02 0.0000000000000000e+00 1
2.6598770714951210e-02 -8.4339726948457872e-02 0.0000000000000000e+00 1
3.0483283908738848e-02 -8.8611766983381302e-02 0.0000000000000000e+00 1
3.4485440436118849e-02 -9.3598892352018542e-02 0.0000000000000000e+00 1
3.8584582067534692e-02 -9.9230532254414555e-02 0.0000000000000000e+00 1
4.2760050573429867e-02 -1.0543611589061425e-01 0.0000000000000000e+00 1
4.6991187724247846e-02 -1.1214507246066262e-01 0.0000000000000000e+00 1
5.1257335290432110e-02 -1.1928683116460460e-01 0.0000000000000000e+00 1
5.5537835042426154e-02 -1.2679082120248514e-01 0.0000000000000000e+00 1
5.9812028750673457e-02 -1.3458647177434918e-01 0.0000000000000000e+00 1
6.4059258185617488e-02 -1.4260321208024165e-01 0.0000000000000000e+00 1
6.8258865117701739e-02 -1.5077047132020760e-01 0.0000000000000000e+00 1
7.2390191317369693e-02 -1.5901767869429184e-01 0.0000000000000000e+00 1
7.6432578555064828e-02 -1.6727426340253942e-01 0.0000000000000000e+00 1
8.0365368601230641e-02 -1.7546965464499525e-01 0.0000000000000000e+00 1
8.4167903226310611e-02 -1.8353328162170435e-01 0.0000000000000000e+00 1
8.7819524200748192e-02 -1.9139457353271155e-01 0.0000000000000000e+00 1
9.1299573294986905e-02 -1.9898295957806189e-01 0.0000000000000000e+00 1
9.4587392279470189e-02 -2.0622786895780029e-01 0.0000000000000000e+00 1
9.7662322924641581e-02 -2.1305873087197172e-01 0.0000000000000000e+00 1
1.0050370700094452e-01 -2.1940497452062108e-01 0.0000000000000000e+00 1
1.0309088627882250e-01 -2.2519602910379338e-01 0.0000000000000000e+00 1
1.0540320252871900e-01 -2.3036132382153357e-01 0.0000000000000000e+00 1
1.0741999752107752e-01 -2.3483028787388655e-01 0.0000000000000000e+00 1
1.0912061302634153e-01 -2.3853235046089727e-01 0.0000000000000000e+00 1
1.1048439081495451e-01 -2.4139694078261076e-01 0.0000000000000000e+00 1
1.1149067265735994e-01 -2.4335348803907186e-01 0.0000000000000000e+00 1
1.1211880032400130e-01 -2.4433142143032566e-01 0.0000000000000000e+00 1
1.1234811558532211e-01 -2.4426017015641693e-01 0.0000000000000000e+00 1
1.1215796021176580e-01 -2.4306916341739077e-01 0.0000000000000000e+00 1
1.1152767597377587e-01 -2.4068783041329209e-01 0.0000000000000000e+00 1
1.1043660464179582e-01 -2.3704560034416583e-01 0.0000000000000000e+00 1
1.0809036441689740e-01 -2.2928007598325748e-01 0.0000000000000000e+00 1
1.0575559742710233e-01 -2.2121285536412774e-01 0.0000000000000000e+00 1
1.0342911690300856e-01 -2.1285710674848263e-01 0.0000000000000000e+00 1
1.0110773607521394e-01 -2.0422599839802819e-01 0.0000000000000000e+00 1
9.8788268174316449e-02 -1.9533269857447064e-01 0.0000000000000000e+00 1
9.6467526430914080e-02 -1.8619037553951615e-01 0.0000000000000000e+00 1
9.4142324075604675e-02 -1.7681219755487068e-01 0.0000000000000000e+00 1
9.1809474338986174e-02 -1.6721133288224044e-01 0.0000000000000000e+00 1
8.9465790451656521e-02 -1.5740094978333158e-01 0.0000000000000000e+00 1
8.7108085644213712e-02 -1.4739421651985013e-01 0.0000000000000000e+00 1
8.4733173147255605e-02 -1.3720430135350231e-01 0.0000000000000000e+00 1
8.2337866191380116e-02 -1.2684437254599412e-01 0.0000000000000000e+00 1
7.9918978007185226e-02 -1.1632759835903173e-01 0.0000000000000000e+00 1
7.7473321825268879e-02 -1.0566714705432130e-01 0.0000000000000000e+00 1
7.4997710876228960e-02 -9.4876186893568901e-02 0.0000000000000000e+00 1
7.2488958390663383e-02 -8.3967886138480621e-02 0.0000000000000000e+00 1
6.9943877599170146e-02 -7.2955413050762613e-02 0.0000000000000000e+00 1
6.7359281732347148e-02 -6.1851935892121013e-02 0.0000000000000000e+00 1
6.4731984020792332e-02 -5.0670622924261922e-02 0.0000000000000000e+00 1
6.2058797695103605e-02 -3.9424642408891430e-02 0.0000000000000000e+00 1
5.9336535985878895e-02 -2.8127162607715656e-02 0.0000000000000000e+00 1
5.6562012123716178e-02 -1.6791351782440771e-02 0.0000000000000000e+00 1
5.3732039339213354e-02 -5.4303781947728572e-03 0.0000000000000000e+00 1
5.0843430862968331e-02 5.9425898935819982e-03 0.0000000000000000e+00 1
4.7892999925579070e-02 1.7314384220917647e-02 0.0000000000000000e+00 1
4.4877559757643522e-02 2.8671836525527961e-02 0.0000000000000000e+00 1
4.1793923589759592e-02 4.0001778545706856e-02 0.0000000000000000e+00 1
3.8638904652525195e-02 5.1291042019748212e-02 0.0000000000000000e+00 1
3.5409316176538280e-02 6.2526458685945946e-02 0.0000000000000000e+00 1
3.2101971392396796e-02 7.3694860282593769e-02 0.0000000000000000e+00 1
2.8713683530698676e-02 8.4783078547985752e-02 0.0000000000000000e+00 1
2.5241265822041795e-02 9.5777945220415744e-02 0.0000000000000000e+00 1
2.1681531497024127e-02 1.0666629203817762e-01 0.0000000000000000e+00 1
1.8031293786243623e-02 1.1743495073956517e-01 0.0000000000000000e+00 1
1.4287365920298193e-02 1.2807075306287236e-01 0.0000000000000000e+00 1
1.0446561129785736e-02 1.3856053074639313e-01 0.0000000000000000e+00 1
6.5056926453042254e-03 1.4889111552842133e-01 0.0000000000000000e+00 1
2.4615736974515929e-03 1.5904933914725067e-01 0.0000000000000000e+00 1
-1.6889824831742371e-03 1.6902203334117522e-01 0.0000000000000000e+00 1
-5.9491626659753678e-03 1.7879602984848891e-01 0.0000000000000000e+00 1
-1.0322153620353840e-02 1.8835816040748551e-01 0.0000000000000000e+00 1
-1.4811142115711688e-02 1.9769525675645888e-01 0.0000000000000000e+00 1
-1.9419314921451020e-02 2.0679415063370293e-01 0.0000000000000000e+00 1
-2.4149858806973915e-02 2.1564167377751159e-01 0.0000000000000000e+00 1
-2.9005960541682446e-02 2.2422465792617879e-01 0.0000000000000000e+00 1
-3.3990806894978610e-02 2.3252993481799822e-01 0.0000000000000000e+00 1
-3.9107584636264542e-02 2.4054433619126392e-01 0.0000000000000000e+00 1
-4.4359480534942312e-02 2.4825469378426979e-01 0.0000000000000000e+00 1
-4.9749681360413987e-02 2.5564783933530966e-01 0.0000000000000000e+00 1
-5.5281373882081576e-02 2.6271060458267737e-01 0.0000000000000000e+00 1
-6.0957744869347193e-02 2.6942982126466686e-01 0.0000000000000000e+00 1
-6.6781981091612957e-02 2.7579232111957203e-01 0.0000000000000000e+00 1
-7.2757269318280873e-02 2.8178493588568670e-01 0.0000000000000000e+00 1
-7.8886796318752991e-02 2.8739449730130479e-01 0.0000000000000000e+00 1
-8.5173748862431412e-02 2.9260783710472016e-01 0.0000000000000000e+00 1
-9.1621313718718220e-02 2.9741178703422677e-01 0.0000000000000000e+00 1
-9.8232677657015502e-02 3.0179317882811846e-01 0.0000000000000000e+00 1
-1.0409374625127954e-01 3.0509694082086258e-01 0.0000000000000000e+00 1
-1.0934624553999270e-01 3.0735018860272068e-01 0.0000000000000000e+00 1
-1.1400813943940959e-01 3.0858671146959238e-01 0.0000000000000000e+00 1
-1.1809739186578501e-01 3.0884029871737795e-01 0.0000000000000000e+00 1
-1.2163196673537370e-01 3.0814473964197703e-01 0.0000000000000000e+00 1
-1.2462982796443030e-01 3.0653382353928976e-01 0.0000000000000000e+00 1
-1.2710893946920970e-01 3.0404133970521618e-01 0.0000000000000000e+00 1
-1.2908726516596655e-01 3.0070107743565605e-01 0.0000000000000000e+00 1
-1.3058276897095555e-01 2.9654682602650945e-01 0.0000000000000000e+00 1
-1.3161341480043159e-01 2.9161237477367641e-01 0.0000000000000000e+00 1
-1.3219716657064920e-01 2.8593151297305675e-01 0.0000000000000000e+00 1
-1.3235198819786320e-01 2.7953802992055038e-01 0.0000000000000000e+00 1
-1.3209584359832841e-01 2.7246571491205751e-01 0.0000000000000000e+00 1
-1.3144669668829942e-01 2.6474835724347784e-01 0.0000000000000000e+00 1
-1.3042251138403102e-01 2.5641974621071140e-01 0.0000000000000000e+00 1
-1.2904125160177804e-01 2.4751367110965833e-01 0.0000000000000000e+00 1
-1.2732088125779509e-01 2.3806392123621845e-01 0.0000000000000000e+00 1
-1.2527936426833691e-01 2.2810428588629161e-01 0.0000000000000000e+00 1
-1.2293466454965830e-01 2.1766855435577798e-01 0.0000000000000000e+00 1
-1.2030474601801401e-01 2.0679051594057740e-01 0.0000000000000000e+00 1
-1.1740757258965868e-01 1.9550395993658981e-01 0.0000000000000000e+00 1
-1.1426110818084710e-01 1.8384267563971515e-01 0.0000000000000000e+00 1
-1.1088331670783405e-01 1.7184045234585357e-01 0.0000000000000000e+00 1
-1.0729216208687413e-01 1.5953107935090480e-01 0.0000000000000000e+00 1
-1.0350560823422221e-01 1.4694834595076889e-01 0.0000000000000000e+00 1
-9.9541619066132986e-02 1.3412604144134596e-01 0.0000000000000000e+00 1
-9.5418158498861164e-02 1.2109795511853569e-01 0.0000000000000000e+00 1
-9.1153190448661478e-02 1.0789787627823813e-01 0.0000000000000000e+00 1
-8.6764678831788733e-02 9.4559594216353432e-02 0.0000000000000000e+00 1
-8.2270587564497566e-02 8.1116898228781320e-02 0.0000000000000000e+00 1
-7.7688880563042795e-02 6.7603577611421869e-02 0.0000000000000000e+00 1
-7.3037521743679112e-02 5.4053421660174975e-02 0.0000000000000000e+00 1
-6.8334475022661226e-02 4.0500219670940599e-02 0.0000000000000000e+00 1
-6.3597704316243939e-02 2.6977760939618789e-02 0.0000000000000000e+00 1
-5.8845173540681923e-02 1.3519834762109377e-02 0.0000000000000000e+00 1
-5.4094846612229956e-02 1.6023043431249301e-04 0.0000000000000000e+00 1
-4.9364687447142758e-02 -1.3067262747872073e-02 0.0000000000000000e+00 1
-4.4672659961675062e-02 -2.6128855488544288e-02 0.0000000000000000e+00 1
-4.0036728072081619e-02 -3.8990758491804119e-02 0.0000000000000000e+00 1
-3.5474855694617141e-02 -5.1619182461751768e-02 0.0000000000000000e+00 1
-3.1005006745536343e-02 -6.3980338102487183e-02 0.0000000000000000e+00 1
-2.6645145141094034e-02 -7.6040436118110344e-02 0.0000000000000000e+00 1
-2.2413234797544868e-02 -8.7765687212721433e-02 0.0000000000000000e+00 1
-1.8327239631143619e-02 -9.9122302090420403e-02 0.0000000000000000e+00 1
-1.4405123558145041e-02 -1.1007649145530723e-01 0.0000000000000000e+00 1
-1.0664850494803821e-02 -1.2059446601148210e-01 0.0000000000000000e+00 1
-7.1243843573747367e-03 -1.3064243646304491e-01 0.0000000000000000e+00 1
-3.8016890621124858e-03 -1.4018661351409584e-01 0.0000000000000000e+00 1
-7.1472852527182211e-04 -1.4919320786873488e-01 0.0000000000000000e+00 1
2.1185333368925032e-03 -1.5762843023106199e-01 0.0000000000000000e+00 1
4.6801326081257894e-03 -1.6545849130517731e-01 0.0000000000000000e+00 1
4.8478606443199346e-02 -2.5096911713020909e-02 0.0000000000000000e+00 1
-2.5217200835555720e-02 1.9793753881566023e-01 0.0000000000000000e+00 1
-3.8380829411577284e-02 2.2553692372995521e-01 0.0000000000000000e+00 1
2.2743413589314285e-02 -7.7356649194847610e-02 0.0000000000000000e+00 1
-7.2263284011838402e-03 1.6067517181591556e-01 0.0000000000000000e+00 1
-5.3461476544781068e-02 2.4680080808862939e-01 0.0000000000000000e+00 1
1.9386332412254887e-03 1.2994307969468588e-01 0.0000000000000000e+00 1
1.2135683373275103e-02 -7.7856164030281894e-02 0.0000000000000000e+00 1
1.4066785952868251e-02 9.8150731771228572e-02 0.0000000000000000e+00 1
2.4105722454041349e-02 6.5252988518252647e-02 0.0000000000000000e+00 1
-6.9944748653491873e-02 2.6719426035647065e-01 0.0000000000000000e+00 1
3.3651656129379662e-02 3.2202117805036679e-02 0.0000000000000000e+00 1
-9.4435009783545590e-02 1.5633458242430556e-01 0.0000000000000000e+00 1
-1.0808183830473790e-01 2.0384949516218795e-01 0.0000000000000000e+00 1
-8.1600205166462353e-02 1.1844844402233246e-01 0.0000000000000000e+00 1
-8.6655008975514203e-02 2.8442386377766865e-01 0.0000000000000000e+00 1
-3.1355432872133833e-02 -2.8788806697348707e-02 0.0000000000000000e+00 1
-1.1820211455564883e-01 2.3452810291939119e-01 0.0000000000000000e+00 1
-1.2683160953850120e-01 2.9315730551122349e-01 0.0000000000000000e+00 1
-6.7233793403811373e-02 7.7943661310549306e-02 0.0000000000000000e+00 1
-4.9711399043587630e-02 2.4287618212286314e-02 0.0000000000000000e+00 1
-2.2970957133577472e-02 -5.4860059439963166e-02 0.0000000000000000e+00 1
-1.2433158343232967e-01 2.6245243959429776e-01 0.0000000000000000e+00 1
5.3388176643247111e-02 -4.8439528236035909e-02 0.0000000000000000e+00 1
3.1902207809523624e-02 -8.3015884756572983e-02 0.0000000000000000e+00 1
-1.0409819018484659e-01 2.9898654991042761e-01 0.0000000000000000e+00 1
8.1425549585087929e-03 -8.4515862388111401e-02 0.0000000000000000e+00 1
-4.1022610363113568e-02 -3.1640609381041419e-03 0.0000000000000000e+00 1
4.2763032714713767e-02 -2.9084373108620790e-03 0.0000000000000000e+00 1
-1.0165797457392300e-01 1.8115985203830842e-01 0.0000000000000000e+00 1
-5.8636736552841712e-02 5.1041483282368696e-02 0.0000000000000000e+00 1
-1.1625911901781788e-01 3.0538592846340140e-01 0.0000000000000000e+00 1
-1.6355868777539979e-02 1.7981779624313890e-01 0.0000000000000000e+00 1
4.1120567712547344e-02 -9.2445093826633573e-02 0.0000000000000000e+00 1
-1.2753605833397846e-01 2.7599255633746039e-01 0.0000000000000000e+00 1
6.0392514089854563e-02 -6.8925652606417420e-02 0.0000000000000000e+00 1
5.0396858384225132e-03 -9.4908029129794139e-02 0.0000000000000000e+00 1
5.0695525204417280e-02 -1.0442695908974911e-01 0.0000000000000000e+00 1
-1.4625760699105612e-02 -7.9900126524627357e-02 0.0000000000000000e+00 1
1.8854786557219057e-02 -7.5853741599346075e-02 0.0000000000000000e+00 1
-1.2374527424439138e-01 3.0317486812797884e-01 0.0000000000000000e+00 1
5.9109689405041639e-02 -1.1975431549546962e-01 0.0000000000000000e+00 1
6.4912053609767525e-02 -9.1700846185066742e-02 0.0000000000000000e+00 1
3.0498212925311368e-03 -1.0789850490538817e-01 0.0000000000000000e+00 1
1.0186577247774997e-02 -8.0628639753918541e-02 0.0000000000000000e+00 1
8.8519668970879033e-03 -7.7723966975457318e-02 0.0000000000000000e+00 1
1.1005484026151613e-02 -7.5079138122804909e-02 0.0000000000000000e+00 1
7.7524719354732877e-03 -7.4375340369817480e-02 0.0000000000000000e+00 1
1.0065104110584970e-02 -7.1295304439149360e-02 0.0000000000000000e+00 1
5.1232812160979802e-03 -7.0570477822327365e-02 0.0000000000000000e+00 1
8.8278753298665393e-03 -6.6501594549611298e-02 0.0000000000000000e+00 1
3.2871455338436117e-03 -6.5570622867676898e-02 0.0000000000000000e+00 1
6.9586142303926391e-03 -6.0852180981604373e-02 0.0000000000000000e+00 1
1.3174065581785863e-02 -6.2142171859150663e-02 0.0000000000000000e+00 1
1.1207843552201483e-02 -5.5717087957332503e-02 0.0000000000000000e+00 1
1.7905009095536002e-02 -5.7229777462866213e-02 0.0000000000000000e+00 1
1.5983896108259267e-02 -5.0143510540662579e-02 0.0000000000000000e+00 1
8.7272827669787403e-03 -4.8817377633812532e-02 0.0000000000000000e+00 1
1.3645455631806712e-02 -4.2605191907498056e-02 0.0000000000000000e+00 1
5.2538988714195267e-03 -4.0883441954709679e-02 0.0000000000000000e+00 1
1.1576530235396518e-02 -3.3476599044950511e-02 0.0000000000000000e+00 1
2.1746552532250621e-02 -4.4434022307700168e-02 0.0000000000000000e+00 1
4.8986618198043619e-03 -7.7765591130688594e-02 0.0000000000000000e+00 1
1.6100911126269201e-03 -3.1949751846801919e-02 0.0000000000000000e+00 1
8.4904455451428225e-03 -2.3895077874813042e-02 0.0000000000000000e+00 1
-2.2791152039300148e-03 -2.1920540646905077e-02 0.0000000000000000e+00 1
5.2372004133853173e-03 -1.3325637825060405e-02 0.0000000000000000e+00 1
8.1496160013266113e-04 -5.9894157295172716e-02 0.0000000000000000e+00 1
-6.4651120554717802e-03 -1.1305728456124424e-02 0.0000000000000000e+00 1
1.1169562833316660e-03 -2.4808184004952612e-03 0.0000000000000000e+00 1
1.9400050256342598e-02 -2.6335677231776579e-02 0.0000000000000000e+00 1
-1.0622349961124808e-02 -1.9068146662583568e-04 0.0000000000000000e+00 1
-2.7449042876663593e-03 9.0304206496218016e-03 0.0000000000000000e+00 1
9.1886840523670524e-03 6.6242775277042011e-03 0.0000000000000000e+00 1
5.3636116145644539e-03 1.8275021980004927e-02 0.0000000000000000e+00 1
-6.7435621158518089e-03 2.0683610713035691e-02 0.0000000000000000e+00 1
1.4957612003005324e-03 3.0029500157982260e-02 0.0000000000000000e+00 1
-1.0753940675117840e-02 3.2472460251695881e-02 0.0000000000000000e+00 1
-2.4270169261044463e-03 4.1982057698113043e-02 0.0000000000000000e+00 1
-1.4783435130455116e-02 4.4398105862733073e-02 0.0000000000000000e+00 1
-6.3860904095537395e-03 5.3922871895696597e-02 0.0000000000000000e+00 1
-1.8826468444862094e-02 5.6381671896374871e-02 0.0000000000000000e+00 1
-1.0415301821208079e-02 6.5975738196025202e-02 0.0000000000000000e+00 1
-2.2840413723008733e-02 6.8397060698044937e-02 0.0000000000000000e+00 1
-1.4462412482734961e-02 7.8023388343710837e-02 0.0000000000000000e+00 1
-2.6374070542341574e-02 7.9978157955122475e-02 0.0000000000000000e+00 1
-1.8469458214390909e-02 8.9916892324116676e-02 0.0000000000000000e+00 1
-3.2195977865807877e-02 9.1127904839468060e-02 0.0000000000000000e+00 1
-2.2656112614649709e-02 1.0175373532703200e-01 0.0000000000000000e+00 1
-3.4808193440667892e-02 1.0433669844538891e-01 0.0000000000000000e+00 1
-2.6568485089678094e-02 1.1360614940784161e-01 0.0000000000000000e+00 1
-3.8711142697772108e-02 1.1612981919652271e-01 0.0000000000000000e+00 1
-3.0537958888730420e-02 1.2533455022296269e-01 0.0000000000000000e+00 1
-4.2573706678744910e-02 1.2785140913572743e-01 0.0000000000000000e+00 1
-3.4486597489194470e-02 1.3691623579870577e-01 0.0000000000000000e+00 1
-4.6357087987534781e-02 1.3940023862269230e-01 0.0000000000000000e+00 1
-3.8392299126375831e-02 1.4835054459249500e-01 0.0000000000000000e+00 1
-5.0096217314263516e-02 1.5081743716446966e-01 0.0000000000000000e+00 1
-4.2241480046968885e-02 1.5963942883516624e-01 0.0000000000000000e+00 1
-5.3556604757319715e-02 1.6209497059121536e-01 0.0000000000000000e+00 1
-4.6004150563968310e-02 1.7071860079240697e-01 0.0000000000000000e+00 1
-5.7096295776654385e-02 1.7313195863518099e-01 0.0000000000000000e+00 1
-4.9764689435341881e-02 1.8170872591340451e-01 0.0000000000000000e+00 1
-6.0684175334511703e-02 1.8393243267240406e-01 0.0000000000000000e+00 1
-5.3430986140699521e-02 1.9233744886489229e-01 0.0000000000000000e+00 1
-6.4069211070887339e-02 1.9451787495089695e-01 0.0000000000000000e+00 1
-4.8486568981451615e-02 1.0637603244717939e-01 0.0000000000000000e+00 1
-5.7015471315827973e-02 2.0262477229629344e-01 0.0000000000000000e+00 1
-6.7499640249491205e-02 2.0479850042388803e-01 0.0000000000000000e+00 1
-6.0434242495862614e-02 2.1270212917430492e-01 0.0000000000000000e+00 1
-7.0796782373536704e-02 2.1484365640403102e-01 0.0000000000000000e+00 1
-7.7899656548806887e-02 2.0699008064364699e-01 0.0000000000000000e+00 1
-8.1049787339509030e-02 2.1704382045536502e-01 0.0000000000000000e+00 1
-7.4094544618205832e-02 2.2467820231740035e-01 0.0000000000000000e+00 1
-8.4067186537539751e-02 2.2686354513012966e-01 0.0000000000000000e+00 1
-7.7228691401757907e-02 2.3427783640002689e-01 0.0000000000000000e+00 1
-8.6841121811644301e-02 2.3641822859318257e-01 0.0000000000000000e+00 1
-8.0303486358677123e-02 2.4355784130411579e-01 0.0000000000000000e+00 1
-8.9783935362423378e-02 2.4567077518720543e-01 0.0000000000000000e+00 1
-6.1445764000042272e-02 1.5400225815630378e-01 0.0000000000000000e+00 1
-6.8022091199978457e-02 1.7532806533443032e-01 0.0000000000000000e+00 1
1.9419792072929366e-02 -6.3327999546035713e-02 0.0000000000000000e+00 1
2.4461443825619156e-02 -5.9004359583608543e-02 0.0000000000000000e+00 1
2.5762119188615765e-02 -6.4725299543505699e-02 0.0000000000000000e+00 1
3.1031578310880475e-02 -6.0694021917956024e-02 0.0000000000000000e+00 1
3.2220846225177173e-02 -6.7608217405262613e-02 0.0000000000000000e+00 1
3.7903698579446567e-02 -6.2597798007737321e-02 0.0000000000000000e+00 1
3.6195504545995516e-02 -5.4873241642316307e-02 0.0000000000000000e+00 1
-9.3775772753774356e-02 2.2925503019654708e-01 0.0000000000000000e+00 1
3.9640589504884957e-02 -6.9001955136339138e-02 0.0000000000000000e+00 1
-2.1439590423070563e-03 7.5681538380975757e-02 0.0000000000000000e+00 1
-2.4823171040118198e-02 4.7569075890542094e-02 0.0000000000000000e+00 1
-8.3458763784441517e-02 2.5267535092978022e-01 0.0000000000000000e+00 1
-9.2360416411898030e-02 2.5459756884603330e-01 0.0000000000000000e+00 1
-8.6189206001871868e-02 2.6155923810760140e-01 0.0000000000000000e+00 1
-9.4884472988166574e-02 2.6304602517074416e-01 0.0000000000000000e+00 1
-1.0089681256461699e-01 2.5665380296166906e-01 0.0000000000000000e+00 1
-1.0330136354299127e-01 2.6484062506531580e-01 0.0000000000000000e+00 1
-2.1375745006091691e-02 2.3588123763117284e-02 0.0000000000000000e+00 1
-2.2589104385246896e-02 1.3460312746750111e-01 0.0000000000000000e+00 1
-3.6988415777450948e-02 6.8519812976189254e-02 0.0000000000000000e+00 1
-7.4169071631516537e-02 2.5105422721543807e-01 0.0000000000000000e+00 1
-5.3923894369833719e-02 1.3054512912352803e-01 0.0000000000000000e+00 1
-1.4152249618286653e-02 1.1144425332870186e-01 0.0000000000000000e+00 1
-6.7055215089752582e-02 2.3216429910339431e-01 0.0000000000000000e+00 1
-9.7723302471429671e-02 2.7099956500788286e-01 0.0000000000000000e+00 1
-1.0559316414427589e-01 2.7276568600694429e-01 0.0000000000000000e+00 1
-4.8087941885010541e-03 -4.1139025825730695e-02 0.0000000000000000e+00 1
9.8074298401381946e-03 3.9508947331983388e-02 0.0000000000000000e+00 1
-1.0048587057263855e-01 2.7861099140702861e-01 0.0000000000000000e+00 1
-1.0799657933021942e-01 2.8014670253450702e-01 0.0000000000000000e+00 1
1.6290214006358047e-02 -7.4800643817667933e-02 0.0000000000000000e+00 1
-4.3006105572372005e-04 -7.0038191631601507e-02 0.0000000000000000e+00 1
1.8636024890669064e-02 -7.3036437422499434e-02 0.0000000000000000e+00 1
-4.6487191596231686e-02 2.0069622315532401e-01 0.0000000000000000e+00 1
-3.8647590774615895e-02 1.7942560750933689e-01 0.0000000000000000e+00 1
-3.0735725801755549e-02 1.5726259215170840e-01 0.0000000000000000e+00 1
-8.8244356704962015e-02 2.0927027473493173e-01 0.0000000000000000e+00 1
-8.5028174924483294e-02 1.9893982477835231e-01 0.0000000000000000e+00 1
1.7210959060773873e-02 1.5697848278309015e-02 0.0000000000000000e+00 1
2.1033900185225253e-02 4.1206859536404520e-03 0.0000000000000000e+00 1
-1.8180518351947894e-02 -9.3597419267341195e-03 0.0000000000000000e+00 1
-1.1310230011163490e-01 2.7480942967684019e-01 0.0000000000000000e+00 1
-1.1494244182104002e-01 2.8194177366082673e-01 0.0000000000000000e+00 1
-1.1028160004012727e-01 2.8692791813686097e-01 0.0000000000000000e+00 1
-1.1664277395974544e-01 2.8847895008969704e-01 0.0000000000000000e+00 1
-1.0902573174166191e-01 2.5873742992795301e-01 0.0000000000000000e+00 1
-1.0688123144208372e-01 2.5035664780861333e-01 0.0000000000000000e+00 1
4.5229876202754669e-02 -6.4305224530253058e-02 0.0000000000000000e+00 1
-1.1239025127912135e-01 2.9291113872674895e-01 0.0000000000000000e+00 1
-1.1808068866749169e-01 2.9446997685770754e-01 0.0000000000000000e+00 1
-1.1489023375110126e-01 2.5225929079899256e-01 0.0000000000000000e+00 1
2.8741918687284651e-02 1.2658374728647151e-02 0.0000000000000000e+00 1
2.6762303071588618e-02 -7.9583447282561240e-02 0.0000000000000000e+00 1
2.5540204116494828e-02 -7.4642991365390349e-02 0.0000000000000000e+00 1
6.8407777201990039e-02 -1.3438369899341168e-01 0.0000000000000000e+00 1
3.0787249652308259e-02 -7.6970472602729337e-02 0.0000000000000000e+00 1
3.6085464335994487e-02 -7.8779850627814216e-02 0.0000000000000000e+00 1
-2.2426152719065232e-02 2.2182900100272867e-03 0.0000000000000000e+00 1
1.6142078053007266e-02 -7.1857925288465893e-02 0.0000000000000000e+00 1
2.3830914780965532e-03 -1.2213370235444272e-01 0.0000000000000000e+00 1
-1.2136586174314981e-01 2.8405472315130609e-01 0.0000000000000000e+00 1
4.6446516018589720e-02 -7.2473389271588112e-02 0.0000000000000000e+00 1
-1.1438202359312641e-01 2.9890387307560118e-01 0.0000000000000000e+00 1
-1.9432607607448641e-02 -6.4929596378174262e-02 0.0000000000000000e+00 1
-1.3017372827623734e-02 -5.7104404094946479e-02 0.0000000000000000e+00 1
-7.8165599489570560e-03 -1.0253855849985827e-01 0.0000000000000000e+00 1
-1.0206411707775207e-02 -8.8081074845147767e-02 0.0000000000000000e+00 1
-5.4897719038412944e-03 -8.0396167526074508e-02 0.0000000000000000e+00 1
-1.5065250555338427e-02 -4.7297619567136261e-02 0.0000000000000000e+00 1
-2.5186165482195055e-02 -4.1783890931114086e-02 0.0000000000000000e+00 1
-1.9488167839830879e-02 -2.9817912458912771e-02 0.0000000000000000e+00 1
-9.1747985514696890e-03 -6.6469276813287098e-02 0.0000000000000000e+00 1
3.9084471706197520e-02 -8.4929484843482575e-02 0.0000000000000000e+00 1
-2.5127828072167794e-03 -9.0077478578703768e-02 0.0000000000000000e+00 1
6.5382410419389733e-03 -8.9326045996195286e-02 0.0000000000000000e+00 1
-9.5994918330907134e-02 2.0128305400276775e-01 0.0000000000000000e+00 1
-9.9187102146015560e-02 2.1185471981350523e-01 0.0000000000000000e+00 1
-1.1187306672684620e-01 2.1598221876758242e-01 0.0000000000000000e+00 1
-9.2717690755192483e-02 1.9047067709800031e-01 0.0000000000000000e+00 1
-8.1965652009352380e-02 1.8781259521690891e-01 0.0000000000000000e+00 1
-8.9298602627291640e-02 1.7857301731224506e-01 0.0000000000000000e+00 1
7.2087359809503870e-02 -1.2366545567375493e-01 0.0000000000000000e+00 1
-9.2358583862541976e-02 2.7711388732493519e-01 0.0000000000000000e+00 1
5.8017440796224354e-02 -5.9153391499669812e-02 0.0000000000000000e+00 1
4.3323564652325675e-02 -7.9557177580200047e-02 0.0000000000000000e+00 1
5.1343616688782019e-02 -8.0414346946787535e-02 0.0000000000000000e+00 1
3.0449303025487130e-03 -8.5584146499105521e-02 0.0000000000000000e+00 1
6.1147102850332827e-02 -8.0086026001716229e-02 0.0000000000000000e+00 1
5.1335929409119310e-02 -3.6195059813331251e-02 0.0000000000000000e+00 1
4.1027239570264169e-02 -3.2899326354800598e-02 0.0000000000000000e+00 1
3.8115752737204918e-02 -2.2691008248015017e-02 0.0000000000000000e+00 1
2.9987936060195886e-02 -3.1127529929553484e-02 0.0000000000000000e+00 1
3.4840957182549676e-02 -4.0550801578378141e-02 0.0000000000000000e+00 1
4.3930427449666389e-02 -4.3134639272342935e-02 0.0000000000000000e+00 1
4.6489228670094952e-02 -8.6824968439753042e-02 0.0000000000000000e+00 1
4.9365148680449590e-02 -9.5179400805984693e-02 0.0000000000000000e+00 1
-1.1926565940970726e-01 2.9907806717364011e-01 0.0000000000000000e+00 1
4.3887737814628333e-02 -5.1882832566706595e-02 0.0000000000000000e+00 1
7.8109594014612940e-02 -1.4410459335580778e-01 0.0000000000000000e+00 1
2.7872515402293123e-02 -1.9901374927170756e-02 0.0000000000000000e+00 1
1.6747103556998974e-02 -1.6221793879923053e-02 0.0000000000000000e+00 1
2.5000979392743622e-02 -8.4291243734451946e-03 0.0000000000000000e+00 1
-1.0326368384237572e-01 2.8569326875327566e-01 0.0000000000000000e+00 1
-9.5629561021179268e-02 2.8467871273284451e-01 0.0000000000000000e+00 1
-8.3570042268710523e-02 2.7586454423751255e-01 0.0000000000000000e+00 1
-9.7963094944179541e-02 2.9118203410624821e-01 0.0000000000000000e+00 1
-9.8045350259067354e-02 1.6866272638640978e-01 0.0000000000000000e+00 1
-8.4348700142196184e-02 1.6546219545749738e-01 0.0000000000000000e+00 1
-8.2551579215842386e-02 1.5179404696235668e-01 0.0000000000000000e+00 1
4.5863352757870277e-02 -1.4368425832647615e-02 0.0000000000000000e+00 1
-1.0502018378921103e-01 1.9268495231292820e-01 0.0000000000000000e+00 1
1.8243976863777545e-02 -7.0435067191358433e-02 0.0000000000000000e+00 1
2.1723802915429288e-02 -7.1410945697575182e-02 0.0000000000000000e+00 1
1.4934594763683858e-02 -6.8332095045061478e-02 0.0000000000000000e+00 1
-7.2572267715898239e-02 1.5815338683448027e-01 0.0000000000000000e+00 1
6.6689019798471069e-02 -1.0357844472707757e-01 0.0000000000000000e+00 1
7.0963590407324695e-02 -1.1363395436470808e-01 0.0000000000000000e+00 1
-1.1102288477364183e-01 2.6696293652276870e-01 0.0000000000000000e+00 1
-1.1844134327270309e-01 2.6868196745190787e-01 0.0000000000000000e+00 1
-1.1263943571708454e-01 2.4357804065203315e-01 0.0000000000000000e+00 1
-1.0406343329618011e-01 2.4165343654739765e-01 0.0000000000000000e+00 1
-3.4740964516636788e-02 1.6840354928742199e-01 0.0000000000000000e+00 1
-2.4855833278247280e-02 1.6583092353800133e-01 0.0000000000000000e+00 1
-2.0797997645680986e-02 1.5444431076177592e-01 0.0000000000000000e+00 1
-2.7533849356035041e-02 1.7730733261153858e-01 0.0000000000000000e+00 1
-3.1312675624511392e-02 1.8769515830882874e-01 0.0000000000000000e+00 1
-1.8316007545413824e-02 1.2297673904098017e-01 0.0000000000000000e+00 1
-1.0350793789879556e-02 1.3217557020716239e-01 0.0000000000000000e+00 1
-1.4634444834525983e-02 1.4330419219598203e-01 0.0000000000000000e+00 1
-3.2720959735269336e-03 1.4098421253577204e-01 0.0000000000000000e+00 1
-5.8882481466628733e-03 1.2088676930058129e-01 0.0000000000000000e+00 1
-1.8291413216569145e-03 1.0961646262801839e-01 0.0000000000000000e+00 1
-1.0208869833812141e-02 9.9807212902426737e-02 0.0000000000000000e+00 1
-6.0640466915744384e-03 8.8086382159441604e-02 0.0000000000000000e+00 1
6.0312596146278041e-03 8.4843071695485897e-02 0.0000000000000000e+00 1
9.9347597472069157e-03 7.3250248331920384e-02 0.0000000000000000e+00 1
6.2338378084051353e-03 1.1910498390909870e-01 0.0000000000000000e+00 1
1.7325541205483776e-03 6.3623975028028690e-02 0.0000000000000000e+00 1
5.7016653199215474e-03 5.1432474189394700e-02 0.0000000000000000e+00 1
1.8258794297295863e-02 4.7687698380898855e-02 0.0000000000000000e+00 1
2.1928554003510861e-02 3.5698194402944958e-02 0.0000000000000000e+00 1
-5.0375547511264732e-02 2.1055279682651495e-01 0.0000000000000000e+00 1
-5.3909150381575857e-02 2.2049306379323513e-01 0.0000000000000000e+00 1
-4.0165228444695972e-02 2.0857065612950479e-01 0.0000000000000000e+00 1
-3.5845849601297927e-02 1.9880520601804691e-01 0.0000000000000000e+00 1
-4.2581497195449715e-02 1.9011139496163890e-01 0.0000000000000000e+00 1
-6.3850405065215762e-02 2.2250260678069267e-01 0.0000000000000000e+00 1
-5.7250952926036325e-02 2.3026266939455120e-01 0.0000000000000000e+00 1
-6.0542739294405470e-02 2.3953277375002074e-01 0.0000000000000000e+00 1
-7.0700297463979184e-02 2.4171831871557739e-01 0.0000000000000000e+00 1
-6.4599163887694100e-02 2.4918563364102042e-01 0.0000000000000000e+00 1
-6.7828646292902500e-02 2.5748509529936137e-01 0.0000000000000000e+00 1
5.7650236701521730e-02 -9.8627156874118618e-02 0.0000000000000000e+00 1
3.9019096136888457e-03 -1.0112609606942476e-01 0.0000000000000000e+00 1
1.3054137314008648e-02 -4.9520684995965425e-03 0.0000000000000000e+00 1
-3.6732708822060908e-02 -1.6110112353326215e-02 0.0000000000000000e+00 1
5.8392593284373052e-02 -1.0656453034407468e-01 0.0000000000000000e+00 1
-5.0897819825392959e-02 2.3680497125341737e-01 0.0000000000000000e+00 1
-1.0182125765085787e-01 2.2233111658984639e-01 0.0000000000000000e+00 1
-1.1071878693059220e-01 2.2750934008493673e-01 0.0000000000000000e+00 1
-4.5434167365085570e-02 1.0261436918682795e-02 0.0000000000000000e+00 1
-3.5615961049940761e-02 2.0659338800323567e-02 0.0000000000000000e+00 1
-4.1047906715804321e-02 3.4422528853886337e-02 0.0000000000000000e+00 1
-5.4335191296734253e-02 3.7518112768582669e-02 0.0000000000000000e+00 1
-4.5397097952327853e-02 4.7679642961391246e-02 0.0000000000000000e+00 1
-4.9018411615904305e-02 6.1171585192607285e-02 0.0000000000000000e+00 1
-6.3041378938367268e-02 6.4371692420471263e-02 0.0000000000000000e+00 1
-5.0613298873534419e-02 7.5044469611099354e-02 0.0000000000000000e+00 1
-5.7696204272044666e-02 8.7898125381634440e-02 0.0000000000000000e+00 1
-7.1415850225201347e-02 9.1301767674453749e-02 0.0000000000000000e+00 1
-4.5007466879933178e-02 8.7058623262638468e-02 0.0000000000000000e+00 1
-6.0684376229028697e-02 1.0064718136745940e-01 0.0000000000000000e+00 1
-7.4087626793158959e-02 1.0607691922491611e-01 0.0000000000000000e+00 1
-6.8959940237219144e-02 1.2028464805049041e-01 0.0000000000000000e+00 1
-7.5319899802573392e-02 1.3054186448215180e-01 0.0000000000000000e+00 1
1.9177894576857682e-03 9.8025551647249895e-02 0.0000000000000000e+00 1
1.3477432869247675e-02 2.7204900137663208e-02 0.0000000000000000e+00 1
-2.6939361547129951e-02 1.4581350049469469e-01 0.0000000000000000e+00 1
-8.8727086716311021e-02 2.6960714752807147e-01 0.0000000000000000e+00 1
-8.0141777440887935e-02 2.6854228028416444e-01 0.0000000000000000e+00 1
-7.6955368967518700e-02 2.5975174203213597e-01 0.0000000000000000e+00 1
-1.0508106017387728e-01 2.9272018518501025e-01 0.0000000000000000e+00 1
-4.7801667271315434e-02 2.2742720722175930e-01 0.0000000000000000e+00 1
5.5151231200158093e-02 -8.8805457542237815e-02 0.0000000000000000e+00 1
-1.0865494501911269e-01 3.0171304484061617e-01 0.0000000000000000e+00 1
-9.1357577188776420e-02 2.1943641782005413e-01 0.0000000000000000e+00 1
-6.4340684506951056e-03 -5.1255973880197904e-02 0.0000000000000000e+00 1
1.4087843637850640e-02 -7.6103848377395061e-02 0.0000000000000000e+00 1
-1.0285710115440314e-01 2.3242582543112911e-01 0.0000000000000000e+00 1
-1.2210127114469356e-01 2.9050295953384153e-01 0.0000000000000000e+00 1
2.1373096241845822e-02 -7.4829240504983907e-02 0.0000000000000000e+00 1
-5.7760972033545306e-02 1.4211932729645593e-01 0.0000000000000000e+00 1
-7.0839103721952665e-02 1.4429637993575975e-01 0.0000000000000000e+00 1
1.7606341253861745e-02 8.7320904404093569e-02 0.0000000000000000e+00 1
2.5316325219499830e-03 -1.1500470447163674e-01 0.0000000000000000e+00 1
-4.6695242483599953e-03 -1.1121098882879139e-01 0.0000000000000000e+00 1
-5.0376750700905748e-02 1.1915942114019956e-01 0.0000000000000000e+00 1
-2.9336858014893413e-02 2.0717990636680197e-01 0.0000000000000000e+00 1
3.9780155310498756e-02 9.0507427666847821e-03 0.0000000000000000e+00 1
-1.1765180489951114e-02 1.7050882835130018e-01 0.0000000000000000e+00 1
-3.0049317412439040e-02 5.6784168348897851e-02 0.0000000000000000e+00 1
-2.0380464062046733e-02 1.8927006629310625e-01 0.0000000000000000e+00 1
-1.2124554627961681e-01 2.7658344897728426e-01 0.0000000000000000e+00 1
-2.3275045320757373e-02 3.6947594038955568e-02 0.0000000000000000e+00 1
2.2054813870083453e-02 7.6715191726727416e-02 0.0000000000000000e+00 1
-1.2586378515332919e-01 2.6989548013778925e-01 0.0000000000000000e+00 1
-1.5097359677255883e-02 1.1489167114016249e-02 0.0000000000000000e+00 1
-1.3282394842900655e-02 -2.0238980441632519e-02 0.0000000000000000e+00 1
-7.4585964506001329e-02 1.9658885965629949e-01 0.0000000000000000e+00 1
2.2874278375514895e-02 -5.2073995742156161e-02 0.0000000000000000e+00 1
-8.1434660970575848e-02 1.3986285375261931e-01 0.0000000000000000e+00 1
1.8563184339405712e-03 -1.2900473768695184e-01 0.0000000000000000e+00 1
-9.8268206507996808e-02 2.4796971199401688e-01 0.0000000000000000e+00 1
3.1729479220505140e-02 1.0451974554644989e-03 0.0000000000000000e+00 1
8.0382760193709935e-02 -1.5410031690462722e-01 0.0000000000000000e+00 1
-1.2692344571185132e-01 2.8776893165089323e-01 0.0000000000000000e+00 1
-1.2300874475394027e-01 2.9613803187049059e-01 0.0000000000000000e+00 1
2.1555428110601592e-02 -3.5734143713300193e-02 0.0000000000000000e+00 1
1.0017016196761664e-02 1.0816649545555640e-01 0.0000000000000000e+00 1
2.5224028335312419e-02 2.4013081683621321e-02 0.0000000000000000e+00 1
1.3328749616635369e-02 6.0979465971254511e-02 0.0000000000000000e+00 1
-3.4346311263536683e-02 2.1652265745180621e-01 0.0000000000000000e+00 1
2.9642874731730773e-02 -4.7356486983934971e-02 0.0000000000000000e+00 1
2.7093841410392644e-02 5.4888304056840032e-02 0.0000000000000000e+00 1
3.0227612347143967e-02 4.3628189201862587e-02 0.0000000000000000e+00 1
6.3777275850963405e-02 -1.2659720949707648e-01 0.0000000000000000e+00 1
3.6864328652100063e-02 2.0630639200346707e-02 0.0000000000000000e+00 1
-5.8705549338014210e-02 2.5541830376016000e-01 0.0000000000000000e+00 1
-9.5703633100973962e-02 2.3888937100808674e-01 0.0000000000000000e+00 1
-2.6671443973735401e-02 1.3605239014921264e-02 0.0000000000000000e+00 1
-7.1462526455738543e-02 1.8540149093329999e-01 0.0000000000000000e+00 1
-7.8055329662834891e-02 1.7683252968335395e-01 0.0000000000000000e+00 1
-4.0080602993692767e-03 1.5116026410628933e-01 0.0000000000000000e+00 1
-7.5115559382699648e-02 2.7477095614075076e-01 0.0000000000000000e+00 1
-1.1680297536511156e-01 2.6046119522459416e-01 0.0000000000000000e+00 1
1.3585378166482212e-03 -8.0790265117443083e-02 0.0000000000000000e+00 1
-1.2284915556704581e-01 2.5400195193169828e-01 0.0000000000000000e+00 1
-1.2082384540840892e-01 2.4499082977466535e-01 0.0000000000000000e+00 1
-9.2008397040232323e-02 1.4484388883702198e-01 0.0000000000000000e+00 1
-1.1555311352641510e-03 -9.6843929991146827e-02 0.0000000000000000e+00 1
-7.2280464061271043e-03 -7.3877791390867587e-02 0.0000000000000000e+00 1
3.4710716524781082e-02 -7.3343144311624725e-02 0.0000000000000000e+00 1
-9.1408545504404526e-02 2.9006084695114165e-01 0.0000000000000000e+00 1
-8.7553823424139671e-02 1.3148684127566784e-01 0.0000000000000000e+00 1
-8.5802672343073226e-03 -3.0669855117774328e-02 0.0000000000000000e+00 1
1.9046479293175910e-03 -1.3626674594308089e-01 0.0000000000000000e+00 1
2.8841135957948162e-02 -5.4800421173994397e-02 0.0000000000000000e+00 1
-6.4321238165390870e-02 1.6518807556622547e-01 0.0000000000000000e+00 1
4.6693579034504454e-03 -5.4674044104761246e-02 0.0000000000000000e+00 1
-2.4669865050414092e-02 -1.8529877764229971e-02 0.0000000000000000e+00 1
-4.4163122380660988e-02 2.1818388419212925e-01 0.0000000000000000e+00 1
3.7287650249915164e-02 -4.7535812702437293e-02 0.0000000000000000e+00 1
3.2392993634499136e-03 -1.4402052092176154e-01 0.0000000000000000e+00 1
-4.2601007876864133e-02 9.7005660116031886e-02 0.0000000000000000e+00 1
2.5876117533400984e-02 -6.9823102747367055e-02 0.0000000000000000e+00 1
3.5224185370888471e-02 -1.1208862206112693e-02 0.0000000000000000e+00 1
6.0805381737288307e-03 -8.1168078644120734e-02 0.0000000000000000e+00 1
-1.2663517510735323e-01 2.9775024053633414e-01 0.0000000000000000e+00 1
8.3566959960159781e-02 -1.6421746490561692e-01 0.0000000000000000e+00 1
-1.1293592122937636e-01 3.0402287308356057e-01 0.0000000000000000e+00 1
-2.3046381753843406e-03 -6.4240716328093375e-02 0.0000000000000000e+00 1
8.3350283311151539e-04 -7.5270516355729414e-02 0.0000000000000000e+00 1
-6.4502964245088945e-02 1.3222423076984038e-01 0.0000000000000000e+00 1
-1.0863120113009406e-01 2.9674946037514566e-01 0.0000000000000000e+00 1
4.4505174847675751e-02 -9.9343620373479227e-02 0.0000000000000000e+00 1
-6.2543612607167481e-02 2.6244761705266728e-01 0.0000000000000000e+00 1
5.4488963558999015e-02 -1.1267752060236644e-01 0.0000000000000000e+00 1
-2.9330006916079510e-02 -6.6353290995106503e-03 0.0000000000000000e+00 1
-1.0969617433078177e-01 2.3593894912697755e-01 0.0000000000000000e+00 1
-1.1965136409654942e-01 3.0613706139604285e-01 0.0000000000000000e+00 1
-5.9977599259053826e-02 1.1227601947786094e-01 0.0000000000000000e+00 1
7.6863240338310462e-02 -1.3379537614630138e-01 0.0000000000000000e+00 1
-5.7276486814405716e-03 -5.9089876886592396e-02 0.0000000000000000e+00 1
5.2386619679975752e-02 -6.6241845415039829e-02 0.0000000000000000e+00 1
-1.2693667780618478e-01 2.8164486716842513e-01 0.0000000000000000e+00 1
1.0369088121366279e-03 -4.8477399865649834e-02 0.0000000000000000e+00 1
-1.5152733789244678e-02 -7.1943166601834002e-02 0.0000000000000000e+00 1
-1.2605711408352588e-01 3.0116239945774365e-01 0.0000000000000000e+00 1
-3.3416723731170002e-02 6.1574857843900198e-03 0.0000000000000000e+00 1
-2.8314123411421230e-03 -1.1879021195531214e-01 0.0000000000000000e+00 1
8.7513818003094407e-02 -1.7376292749831396e-01 0.0000000000000000e+00 1
-7.9179593627824341e-02 2.8092093429278375e-01 0.0000000000000000e+00 1
6.2716978015447964e-03 -1.6191109250002497e-01 0.0000000000000000e+00 1
9.6350523460892554e-02 -2.0062898774960977e-01 0.0000000000000000e+00 1
-1.2295690662213862e-01 2.9993511758245017e-01 0.0000000000000000e+00 1
-8.0037050460713601e-03 -9.5332668801055412e-02 0.0000000000000000e+00 1
-4.2258137785418870e-02 2.3392555807951149e-01 0.0000000000000000e+00 1
-1.4227870026684183e-02 -3.8373448981999160e-02 0.0000000000000000e+00 1
-1.2209212429515826e-01 3.0540615952337719e-01 0.0000000000000000e+00 1
4.5268183086450281e-03 -1.5067724421982856e-01 0.0000000000000000e+00 1
3.5388713176890872e-02 -8.8774594731015122e-02 0.0000000000000000e+00 1
-1.5193391040260007e-03 -1.0392943105754160e-01 0.0000000000000000e+00 1
2.0559150908689566e-02 -7.6565704344687555e-02 0.0000000000000000e+00 1
3.9936528775699344e-02 -7.4789387659829745e-02 0.0000000000000000e+00 1
-1.2017621856861230e-01 3.0290818063408081e-01 0.0000000000000000e+00 1
-1.1666049948138026e-01 3.0201683066130136e-01 0.0000000000000000e+00 1
-9.9182145709713815e-02 2.9667228597189454e-01 0.0000000000000000e+00 1
4.9281848343693410e-02 -5.8099176533496472e-02 0.0000000000000000e+00 1
2.9827026810432467e-02 -7.2477585686474805e-02 0.0000000000000000e+00 1
-5.9548229762420274e-02 1.2289788971238387e-01 0.0000000000000000e+00 1
1.3247869497232447e-02 -7.3363758120421702e-02 0.0000000000000000e+00 1
9.9196642045583566e-02 -2.0909242624407071e-01 0.0000000000000000e+00 1
-1.2439910170905568e-02 1.5362413364770455e-01 0.0000000000000000e+00 1
-1.6156252368736499e-02 1.6311778923985104e-01 0.0000000000000000e+00 1
-5.1684532538605166e-02 9.5959696141354051e-02 0.0000000000000000e+00 1
-1.8727947788532780e-03 -8.4725116963591834e-02 0.0000000000000000e+00 1
-3.1672703418504304e-02 3.0392228181626447e-02 0.0000000000000000e+00 1
2.0355996600286873e-02 -6.7732939366298775e-02 0.0000000000000000e+00 1
7.0872235003191314e-02 -1.4153392887467306e-01 0.0000000000000000e+00 1
7.4948232550918290e-03 -1.6803517295352990e-01 0.0000000000000000e+00 1
4.2499733097303705e-02 -5.8351654656101953e-02 0.0000000000000000e+00 1
9.0802537210508988e-02 -1.8261759755117069e-01 0.0000000000000000e+00 1
-1.1447052680116452e-03 -5.4511503374535440e-02 0.0000000000000000e+00 1
6.5757434499071996e-02 -1.1941695131713614e-01 0.0000000000000000e+00 1
2.7554749723465711e-02 -3.9840596902573390e-02 0.0000000000000000e+00 1
-3.7254665831158246e-02 8.0283990937331920e-02 0.0000000000000000e+00 1
-1.1841030277057121e-01 2.2439869373750501e-01 0.0000000000000000e+00 1
2.1387973748832291e-03 -9.1272414143282743e-02 0.0000000000000000e+00 1
-4.0306152860223189e-02 5.6288690902466493e-02 0.0000000000000000e+00 1
-3.3795913531453468e-02 4.4297704168252294e-02 0.0000000000000000e+00 1
-7.3318049797119658e-02 1.6833583014656414e-01 0.0000000000000000e+00 1
-2.0412939310180872e-02 1.7288218548308584e-01 0.0000000000000000e+00 1
6.2647560453255313e-02 -1.1284129625976719e-01 0.0000000000000000e+00 1
5.3898738162736937e-02 -7.3568328565895375e-02 0.0000000000000000e+00 1
-3.5021234593603625e-03 -1.2461225565308476e-01 0.0000000000000000e+00 1
9.3488539861858511e-02 -1.9375658381697736e-01 0.0000000000000000e+00 1
-4.5703022422056309e-02 2.4163952098487615e-01 0.0000000000000000e+00 1

Edges
164
1 2 1
2 3 1
3 4 1
4 5 1
5 6 1
6 7 1
7 8 1
8 9 1
9 10 1
10 11 1
11 12 1
12 13 1
13 14 1
14 15 1
15 16 1
16 17 1
17 18 1
18 19 1
19 20 1
20 21 1
21 22 1
22 23 1
23 24 1
24 25 1
25 26 1
26 27 1
27 28 1
28 29 1
29 30 1
30 31 1
31 32 1
32 33 1
33 34 1
34 35 1
35 36 1
36 37 1
37 38 1
38 39 1
39 40 1
40 41 1
41 42 1
42 43 1
43 44 1
44 45 1
45 46 1
46 47 1
47 48 1
48 49 1
49 50 1
50 51 1
51 52 1
52 53 1
53 54 1
54 55 1
55 56 1
56 57 1
57 58 1
58 59 1
59 60 1
60 61 1
61 62 1
62 63 1
63 64 1
64 65 1
65 66 1
66 67 1
67 68 1
68 69 1
69 70 1
70 71 1
71 72 1
72 73 1
73 74 1
74 75 1
75 76 1
76 77 1
77 78 1
78 79 1
79 80 1
80 81 1
81 82 1
82 83 1
83 84 1
84 85 1
85 86 1
86 87 1
87 88 1
88 89 1
89 90 1
90 91 1
91 92 1
92 93 1
93 94 1
94 95 1
95 96 1
96 97 1
97 98 1
98 99 1
99 100 1
100 101 1
101 102 1
102 103 1
103 104 1
104 105 1
105 106 1
106 107 1
107 108 1
108 109 1
109 110 1
110 111 1
111 112 1
112 113 1
113 114 1
114 115 1
115 116 1
116 117 1
117 118 1
118 119 1
119 120 1
120 121 1
121 122 1
122 123 1
123 124 1
124 125 1
125 126 1
126 127 1
127 128 1
128 129 1
129 130 1
130 131 1
131 132 1
132 133 1
133 134 1
134 135 1
135 136 1
136 137 1
137 138 1
138 139 1
139 140 1
140 141 1
141 142 1
142 143 1
143 144 1
144 145 1
145 146 1
146 147 1
147 148 1
148 149 1
149 150 1
150 151 1
151 152 1
152 153 1
153 154 1
154 155 1
155 156 1
156 157 1
157 158 1
158 159 1
159 160 1
160 161 1
161 162 1
162 163 1
163 164 1
164 1 1

Triangles
1058
488 199 491 1
26 189 338 1
451 305 453 1
387 325 440 1
181 152 355 1
384 36 500 1
181 355 356 1
183 123 501 1
434 170 436 1
358 198 380 1
175 465 466 1
453 305 601 1
212 214 547 1
420 173 461 1
338 189 341 1
22 23 473 1
141 142 458 1
421 174 490 1
37 38 544 1
227 212 547 1
36 37 500 1
404 488 491 1
174 421 506 1
400 394 478 1
381 202 438 1
5 6 1 1
45 59 44 1
516 365 517 1
399 397 593 1
203 352 353 1
500 37 544 1
420 421 479 1
479 421 490 1
2 4 1 1
9 163 8 1
179 141 458 1
506 425 509 1
132 133 363 1
24 25 168 1
366 392 393 1
134 135 396 1
368 180 389 1
357 317 546 1
174 506 509 1
202 381 550 1
178 361 362 1
317 357 526 1
366 393 517 1
411 410 487 1
193 499 541 1
353 352 591 1
123 124 501 1
410 197 487 1
136 137 392 1
373 371 469 1
38 39 544 1
284 400 478 1
173 420 479 1
456 453 601 1
352 359 591 1
92 93 415 1
386 387 440 1
52 54 51 1
413 171 415 1
286 218 399 1
225 223 503 1
142 455 458 1
411 166 430 1
171 92 415 1
317 526 547 1
544 39 566 1
526 353 547 1
171 413 416 1
186 349 350 1
46 58 45 1
152 153 355 1
497 160 531 1
499 387 541 1
488 346 560 1
524 139 529 1
178 362 363 1
231 229 386 1
364 194 366 1
137 177 392 1
188 374 379 1
203 156 352 1
285 516 517 1
178 134 396 1
437 175 466 1
188 383 583 1
235 377 385 1
303 447 515 1
465 175 519 1
200 74 369 1
436 170 513 1
312 354 472 1
339 398 476 1
375 378 379 1
447 303 592 1
223 226 503 1
417 461 504 1
186 154 349 1
447 446 564 1
188 76 374 1
361 178 396 1
133 178 363 1
135 194 396 1
132 363 602 1
350 349 357 1
184 453 454 1
496 524 529 1
142 143 455 1
377 235 503 1
349 155 562 1
198 358 576 1
305 451 604 1
194 364 396 1
73 200 373 1
412 308 416 1
391 112 582 1
286 399 593 1
155 203 562 1
325 387 499 1
130 182 523 1
190 467 582 1
515 447 564 1
352 157 571 1
180 368 390 1
21 172 209 1
437 436 513 1
184 452 453 1
370 358 380 1
353 521 547 1
297 306 466 1
194 136 392 1
369 188 583 1
155 156 203 1
60 61 569 1
179 458 459 1
419 420 461 1
8 163 568 1
437 513 551 1
475 183 501 1
374 375 379 1
160 161 531 1
481 159 565 1
460 459 548 1
435 434 436 1
199 488 560 1
351 158 481 1
411 430 431 1
292 508 532 1
49 56 48 1
365 366 517 1
292 383 537 1
416 308 417 1
548 459 585 1
79 193 395 1
367 340 557 1
414 409 463 1
231 386 440 1
157 351 571 1
158 159 481 1
181 356 535 1
460 478 496 1
296 486 605 1
398 540 593 1
356 493 535 1
309 433 434 1
310 300 464 1
187 404 491 1
166 411 487 1
153 154 186 1
157 158 351 1
156 157 352 1
381 438 469 1
459 458 556 1
182 405 523 1
367 69 402 1
282 280 435 1
461 173 504 1
486 604 605 1
154 155 349 1
335 334 348 1
401 442 608 1
229 235 386 1
207 373 469 1
320 411 431 1
348 470 545 1
371 373 609 1
309 432 433 1
200 369 559 1
330 334 335 1
413 412 416 1
188 379 383 1
71 207 401 1
184 144 452 1
335 348 382 1
340 367 511 1
168 339 476 1
465 299 466 1
75 188 369 1
170 434 443 1
478 394 496 1
389 180 528 1
395 193 541 1
144 145 452 1
404 187 520 1
458 457 556 1
373 200 609 1
478 460 548 1
399 213 586 1
306 282 435 1
306 437 466 1
366 194 392 1
218 215 399 1
422 417 504 1
23 316 473 1
267 320 431 1
467 391 582 1
114 115 470 1
249 295 419 1
464 299 465 1
336 520 522 1
43 44 587 1
209 172 210 1
371 380 469 1
470 348 549 1
392 177 393 1
112 391 528 1
419 295 420 1
143 184 455 1
414 415 518 1
328 329 330 1
425 426 510 1
374 165 375 1
414 518 588 1
75 76 188 1
429 507 536 1
77 165 374 1
25 26 338 1
344 399 586 1
90 91 422 1
363 445 602 1
520 187 522 1
299 297 466 1
78 79 395 1
509 425 510 1
153 186 355 1
243 313 424 1
183 475 502 1
300 299 464 1
402 401 608 1
401 207 438 1
347 370 371 1
416 417 422 1
327 315 328 1
407 408 410 1
39 40 566 1
330 329 334 1
508 292 537 1
566 40 597 1
309 278 432 1
215 213 399 1
253 251 418 1
176 426 505 1
311 314 315 1
424 313 425 1
328 315 329 1
207 72 373 1
73 74 200 1
418 251 419 1
454 453 456 1
354 312 573 1
404 327 488 1
278 275 432 1
70 401 402 1
321 261 463 1
438 202 442 1
390 465 519 1
444 362 471 1
195 450 451 1
235 225 503 1
293 444 471 1
380 198 381 1
438 207 469 1
320 407 410 1
320 265 407 1
91 171 422 1
304 412 413 1
220 218 286 1
356 355 573 1
363 362 444 1
368 310 464 1
203 353 526 1
280 309 435 1
468 428 536 1
378 377 600 1
375 377 378 1
304 257 412 1
456 252 539 1
423 245 424 1
179 459 460 1
409 321 463 1
306 435 436 1
163 9 575 1
426 462 505 1
70 71 401 1
71 72 207 1
195 449 450 1
171 416 422 1
251 249 419 1
74 75 369 1
77 78 165 1
76 77 374 1
592 489 605 1
367 402 599 1
247 245 423 1
424 425 506 1
346 330 475 1
245 243 424 1
151 181 441 1
309 434 435 1
418 419 461 1
314 368 389 1
354 350 472 1
145 195 452 1
328 330 346 1
269 267 431 1
298 299 300 1
302 310 311 1
113 114 190 1
224 312 561 1
370 347 579 1
489 296 605 1
167 468 536 1
434 433 443 1
68 69 367 1
4 5 1 1
427 319 429 1
433 428 468 1
69 70 402 1
475 335 502 1
311 315 327 1
265 263 407 1
149 192 446 1
449 448 450 1
184 454 455 1
185 448 449 1
311 310 314 1
72 73 373 1
239 324 462 1
409 414 588 1
430 166 483 1
507 167 536 1
186 350 354 1
302 300 310 1
474 293 514 1
377 503 600 1
306 436 437 1
191 20 209 1
182 445 554 1
320 410 411 1
301 300 302 1
304 414 463 1
325 238 440 1
283 282 297 1
283 297 298 1
390 519 567 1
252 456 601 1
403 327 404 1
298 297 299 1
272 319 427 1
383 379 537 1
304 413 414 1
429 430 483 1
415 93 518 1
311 327 403 1
315 314 388 1
281 282 283 1
66 67 384 1
281 280 282 1
257 255 412 1
275 274 432 1
388 389 391 1
261 259 463 1
165 78 395 1
279 278 280 1
274 427 428 1
241 239 462 1
432 428 433 1
147 185 449 1
362 322 471 1
277 275 278 1
235 385 386 1
388 391 467 1
414 413 415 1
420 295 421 1
263 321 407 1
185 446 447 1
192 150 441 1
279 280 281 1
407 321 408 1
273 272 274 1
455 454 457 1
66 384 500 1
270 269 272 1
363 444 445 1
135 136 194 1
267 265 320 1
150 151 441 1
287 286 288 1
308 253 418 1
268 267 269 1
263 261 321 1
209 210 542 1
272 269 319 1
425 313 426 1
371 370 380 1
274 272 427 1
259 257 304 1
133 134 178 1
277 278 279 1
266 265 267 1
255 308 412 1
331 302 403 1
302 311 403 1
255 253 308 1
445 444 474 1
406 474 514 1
264 263 265 1
185 148 446 1
130 131 182 1
273 274 275 1
341 189 342 1
274 428 432 1
280 278 309 1
249 247 295 1
262 261 263 1
125 126 199 1
137 138 177 1
151 152 181 1
149 150 192 1
393 394 400 1
20 21 209 1
260 259 261 1
148 149 446 1
540 288 593 1
195 146 449 1
140 141 179 1
457 271 556 1
127 128 187 1
417 308 418 1
270 272 273 1
258 257 259 1
145 146 195 1
268 269 270 1
298 300 301 1
36 384 594 1
297 282 306 1
259 304 463 1
348 545 581 1
185 447 448 1
256 255 257 1
266 267 268 1
388 314 389 1
143 144 184 1
390 368 464 1
393 177 394 1
147 148 185 1
295 247 423 1
254 253 255 1
324 238 325 1
264 265 266 1
346 475 501 1
444 293 474 1
252 251 253 1
313 241 462 1
220 286 287 1
452 451 453 1
115 116 545 1
337 325 499 1
243 241 313 1
262 263 264 1
21 22 172 1
379 378 537 1
129 130 523 1
250 249 251 1
276 275 277 1
19 20 191 1
312 472 561 1
301 302 331 1
195 451 452 1
238 234 440 1
146 147 449 1
260 261 262 1
176 505 512 1
324 325 337 1
239 238 324 1
62 41 611 1
408 321 409 1
455 457 458 1
445 474 554 1
330 335 475 1
429 319 430 1
426 313 462 1
23 24 204 1
258 259 260 1
248 247 249 1
417 418 461 1
110 111 180 1
375 376 377 1
237 234 238 1
421 423 506 1
256 257 258 1
486 305 604 1
246 245 247 1
327 328 488 1
361 322 362 1
375 165 376 1
383 292 596 1
254 255 256 1
443 433 468 1
79 80 193 1
319 269 431 1
283 498 514 1
252 253 254 1
244 243 245 1
279 281 293 1
41 62 597 1
484 337 499 1
190 114 470 1
398 339 540 1
250 251 252 1
234 231 440 1
68 367 557 1
421 295 423 1
122 123 183 1
107 108 175 1
26 27 189 1
521 372 542 1
314 310 368 1
104 105 170 1
237 238 239 1
90 422 504 1
242 241 243 1
334 329 467 1
248 249 250 1
101 102 167 1
348 334 549 1
124 125 560 1
329 315 388 1
96 97 197 1
98 99 166 1
426 176 510 1
273 275 276 1
246 247 248 1
400 284 533 1
94 95 169 1
472 350 558 1
350 357 558 1
91 92 171 1
240 239 241 1
99 100 483 1
244 245 246 1
88 89 173 1
127 187 491 1
82 83 176 1
335 382 502 1
18 19 360 1
85 86 174 1
276 277 322 1
28 29 198 1
401 438 442 1
403 404 520 1
505 337 512 1
322 277 471 1
80 81 484 1
266 268 285 1
242 243 244 1
445 182 602 1
277 279 471 1
462 324 505 1
279 293 471 1
262 264 284 1
355 354 573 1
214 317 547 1
193 80 484 1
240 241 242 1
384 67 557 1
501 124 560 1
258 260 307 1
427 429 536 1
19 191 360 1
390 464 465 1
290 288 540 1
87 88 479 1
254 256 271 1
116 117 196 1
86 87 490 1
112 113 582 1
336 331 520 1
30 31 202 1
430 319 431 1
32 33 206 1
248 250 305 1
237 239 240 1
180 111 528 1
323 364 365 1
332 331 336 1
443 468 572 1
386 385 387 1
227 521 542 1
244 246 296 1
429 483 507 1
95 96 485 1
283 298 498 1
89 90 504 1
34 35 340 1
329 388 467 1
236 234 237 1
97 98 487 1
384 557 594 1
240 242 303 1
271 457 590 1
351 481 577 1
498 406 514 1
162 163 575 1
260 262 477 1
377 376 385 1
323 322 361 1
364 361 396 1
139 140 529 1
256 258 482 1
293 281 514 1
166 99 483 1
273 276 494 1
174 86 490 1
229 225 235 1
246 248 486 1
88 173 479 1
270 273 494 1
126 127 491 1
365 364 366 1
116 196 545 1
236 237 492 1
276 322 323 1
484 81 512 1
477 284 478 1
262 284 477 1
96 197 485 1
483 100 507 1
87 479 490 1
307 260 477 1
100 101 507 1
197 97 487 1
169 95 485 1
473 316 586 1
289 288 290 1
323 361 364 1
423 424 506 1
258 307 482 1
443 572 612 1
233 231 234 1
128 129 522 1
17 18 201 1
271 256 482 1
98 166 487 1
242 244 489 1
303 489 592 1
248 305 486 1
210 172 211 1
237 240 492 1
301 331 332 1
296 246 486 1
175 437 551 1
332 405 406 1
376 165 395 1
33 34 511 1
328 346 488 1
276 323 494 1
244 296 489 1
233 234 236 1
230 233 493 1
233 236 326 1
343 236 492 1
326 236 343 1
85 174 509 1
323 365 494 1
82 176 512 1
16 17 439 1
303 242 489 1
290 540 584 1
332 336 405 1
93 94 518 1
65 66 500 1
176 83 510 1
337 484 512 1
288 286 593 1
240 303 492 1
138 139 524 1
285 268 516 1
324 337 505 1
588 169 589 1
84 85 509 1
6 7 595 1
101 167 507 1
230 231 233 1
170 105 513 1
230 229 231 1
410 408 607 1
470 115 545 1
173 89 504 1
65 500 544 1
44 59 587 1
105 106 513 1
298 301 498 1
224 228 312 1
83 84 510 1
206 33 511 1
291 290 294 1
175 108 519 1
15 16 208 1
34 340 511 1
233 326 493 1
193 484 499 1
270 494 516 1
81 82 512 1
14 15 480 1
281 283 514 1
493 356 530 1
28 198 576 1
199 126 491 1
40 41 597 1
287 288 289 1
409 588 589 1
84 509 510 1
284 264 533 1
372 191 542 1
119 120 205 1
331 403 520 1
545 196 581 1
201 18 360 1
454 456 590 1
268 270 516 1
467 190 549 1
223 221 226 1
446 192 564 1
360 191 372 1
266 285 533 1
332 406 498 1
108 109 519 1
182 131 602 1
180 390 567 1
494 365 516 1
219 218 220 1
12 13 497 1
252 254 539 1
301 332 498 1
13 14 345 1
333 294 347 1
230 493 530 1
289 290 291 1
196 555 580 1
441 181 535 1
226 495 508 1
11 12 531 1
228 229 230 1
220 287 495 1
380 381 469 1
30 202 550 1
121 122 543 1
217 215 218 1
170 443 612 1
228 225 229 1
442 202 552 1
94 169 518 1
219 220 221 1
177 138 524 1
32 206 552 1
394 177 524 1
289 291 292 1
468 167 572 1
342 189 358 1
35 36 594 1
381 198 550 1
347 294 579 1
179 460 529 1
186 354 355 1
161 162 538 1
405 336 523 1
271 482 556 1
167 102 572 1
107 175 551 1
61 62 611 1
226 221 495 1
198 29 550 1
110 180 567 1
17 201 439 1
189 27 576 1
291 294 333 1
250 252 601 1
140 179 529 1
492 303 515 1
219 221 222 1
343 492 515 1
187 128 522 1
391 389 528 1
224 223 225 1
7 164 595 1
111 112 528 1
202 31 552 1
346 501 560 1
393 400 606 1
224 225 228 1
104 170 612 1
168 25 338 1
405 182 554 1
192 441 553 1
221 220 495 1
428 427 536 1
191 209 542 1
217 218 219 1
210 227 542 1
222 221 223 1
522 129 523 1
264 266 533 1
382 348 581 1
477 478 548 1
472 558 598 1
10 11 538 1
208 16 439 1
336 522 523 1
496 394 524 1
222 223 224 1
387 385 541 1
42 43 569 1
385 376 541 1
7 8 568 1
513 106 551 1
211 172 473 1
122 183 543 1
3 4 2 1
460 496 529 1
64 544 566 1
64 65 544 1
15 208 480 1
342 358 370 1
357 349 562 1
29 30 550 1
312 228 530 1
197 410 607 1
456 539 590 1
228 230 530 1
358 189 576 1
439 201 525 1
172 22 473 1
254 271 539 1
345 14 480 1
159 160 610 1
341 342 527 1
31 32 552 1
557 340 594 1
508 495 532 1
563 543 570 1
214 216 317 1
589 485 607 1
23 204 316 1
519 109 567 1
372 359 603 1
378 508 537 1
13 345 497 1
168 338 339 1
552 206 608 1
106 107 551 1
493 326 535 1
474 406 554 1
117 118 555 1
376 395 541 1
294 290 527 1
12 497 531 1
521 227 547 1
63 566 597 1
125 199 560 1
316 344 586 1
67 68 557 1
334 467 549 1
480 208 481 1
183 502 543 1
196 580 581 1
216 215 217 1
502 382 570 1
216 217 232 1
604 450 605 1
517 393 606 1
287 289 532 1
222 224 561 1
289 292 532 1
214 215 216 1
535 326 553 1
307 477 548 1
495 287 532 1
451 450 604 1
214 213 215 1
27 28 576 1
408 589 607 1
120 121 563 1
63 64 566 1
42 569 611 1
359 372 591 1
9 10 575 1
450 448 605 1
192 553 564 1
131 132 602 1
326 343 553 1
11 531 538 1
219 222 534 1
62 63 597 1
357 546 558 1
457 454 590 1
503 226 600 1
60 43 587 1
160 497 610 1
109 110 567 1
406 405 554 1
359 352 571 1
441 535 553 1
212 213 214 1
448 447 592 1
525 201 603 1
102 103 572 1
397 318 398 1
408 409 589 1
41 42 611 1
569 61 611 1
448 592 605 1
217 219 534 1
212 211 213 1
307 548 585 1
360 372 603 1
210 211 212 1
206 511 599 1
553 343 564 1
164 7 568 1
190 470 549 1
359 525 603 1
292 291 596 1
196 117 555 1
559 369 583 1
318 204 476 1
527 290 584 1
103 104 612 1
543 502 570 1
344 397 399 1
533 285 606 1
43 60 569 1
205 570 580 1
485 197 607 1
213 211 586 1
210 212 227 1
312 530 573 1
518 169 588 1
10 538 575 1
333 347 559 1
572 103 612 1
316 204 318 1
531 161 538 1
344 318 397 1
232 217 534 1
118 119 574 1
339 338 341 1
121 543 563 1
442 552 608 1
316 318 344 1
305 250 601 1
539 271 590 1
216 232 546 1
481 208 577 1
482 307 585 1
343 515 564 1
317 216 546 1
398 318 476 1
169 485 589 1
345 480 565 1
439 525 577 1
480 481 565 1
526 357 562 1
113 190 582 1
340 35 594 1
511 367 599 1
205 120 563 1
347 371 609 1
525 359 571 1
341 527 584 1
201 360 603 1
497 345 610 1
534 222 561 1
530 356 573 1
204 24 578 1
119 205 574 1
333 559 583 1
342 370 579 1
291 333 596 1
208 439 577 1
546 232 558 1
285 517 606 1
476 204 578 1
400 533 606 1
226 508 600 1
168 476 578 1
558 232 598 1
508 378 600 1
372 521 591 1
203 526 562 1
556 482 585 1
574 205 580 1
570 382 580 1
459 556 585 1
351 525 571 1
527 342 579 1
211 473 586 1
525 351 577 1
559 347 609 1
555 118 574 1
538 162 575 1
205 563 570 1
540 339 584 1
294 527 579 1
232 534 598 1
333 583 596 1
339 341 584 1
565 159 610 1
534 561 598 1
555 574 580 1
345 565 610 1
583 383 596 1
200 559 609 1
521 353 591 1
580 382 581 1
206 599 608 1
397 398 593 1
561 472 598 1
599 402 608 1
164 1 595 1
56 57 48 1
59 60 587 1
163 164 568 1
1 6 595 1
24 168 578 1
58 59 45 1
47 57 46 1
57 58 46 1
48 57 47 1
50 55 49 1
55 56 49 1
51 54 50 1
54 55 50 1
53 54 52 1

End
