MeshVersionFormatted 2
Dimension 3

Vertices
993
2.0815599597659934e-01 -1.9231129300605038e-01 0.0000000000000000e+00 1
2.1347825523089856e-01 -1.9068714815998417e-01 0.0000000000000000e+00 1
2.1794265129009399e-01 -1.8838183709458120e-01 0.0000000000000000e+00 1
2.2158183556789726e-01 -1.8543008260677893e-01 0.0000000000000000e+00 1
2.2442845947802009e-01 -1.8186660749351466e-01 0.0000000000000000e+00 1
2.2651517443417415e-01 -1.7772613455172576e-01 0.0000000000000000e+00 1
2.2787463185007123e-01 -1.7304338657834961e-01 0.0000000000000000e+00 1
2.2853948313942282e-01 -1.6785308637032362e-01 0.0000000000000000e+00 1
2.2854237971594091e-01 -1.6218995672458517e-01 0.0000000000000000e+00 1
2.2791597299333696e-01 -1.5608872043807157e-01 0.0000000000000000e+00 1
2.2669291438532280e-01 -1.4958410030772018e-01 0.0000000000000000e+00 1
2.2490585530561008e-01 -1.4271081913046846e-01 0.0000000000000000e+00 1
2.2258744716791048e-01 -1.3550359970325371e-01 0.0000000000000000e+00 1
2.1977034138593587e-01 -1.2799716482301338e-01 0.0000000000000000e+00 1
2.1648718937339761e-01 -1.2022623728668468e-01 0.0000000000000000e+00 1
2.1277064254400771e-01 -1.1222553989120521e-01 0.0000000000000000e+00 1
2.0865335231147777e-01 -1.0402979543351219e-01 0.0000000000000000e+00 1
2.0416797008951942e-01 -9.5673726710542986e-02 0.0000000000000000e+00 1
1.9934714729184450e-01 -8.7192056519235062e-02 0.0000000000000000e+00 1
1.9422353533216444e-01 -7.8619507656525658e-02 0.0000000000000000e+00 1
1.8882978562419131e-01 -6.9990802919352321e-02 0.0000000000000000e+00 1
1.8319854958163653e-01 -6.1340665104652282e-02 0.0000000000000000e+00 1
1.7736247861821192e-01 -5.2703817009362948e-02 0.0000000000000000e+00 1
1.7135422414762910e-01 -4.4114981430421717e-02 0.0000000000000000e+00 1
1.6520643758359987e-01 -3.5608881164765967e-02 0.0000000000000000e+00 1
1.5895177033983587e-01 -2.7220239009333048e-02 0.0000000000000000e+00 1
1.5262287383004880e-01 -1.8983777761060326e-02 0.0000000000000000e+00 1
1.4625239946795032e-01 -1.0934220216885166e-02 0.0000000000000000e+00 1
1.3987299866725222e-01 -3.1062891737449658e-03 0.0000000000000000e+00 1
1.3351732284166618e-01 4.4652925714229099e-03 0.0000000000000000e+00 1
1.2721802340490385e-01 1.1745802221681067e-02 0.0000000000000000e+00 1
1.2100775177067695e-01 1.8700516980092181e-02 0.0000000000000000e+00 1
1.1491915935269713e-01 2.5294714049718860e-02 0.0000000000000000e+00 1
1.0898489756467618e-01 3.1493670633623731e-02 0.0000000000000000e+00 1
1.0323761782032576e-01 3.7262663934869412e-02 0.0000000000000000e+00 1
9.7709971533357573e-02 4.2566971156518509e-02 0.0000000000000000e+00 1
9.2434610117483287e-02 4.7371869501633711e-02 0.0000000000000000e+00 1
8.7444184986414653e-02 5.1642636173277620e-02 0.0000000000000000e+00 1
8.2771347553863325e-02 5.5344548374512838e-02 0.0000000000000000e+00 1
7.8448749233541018e-02 5.8442883308402020e-02 0.0000000000000000e+00 1
7.3720359544465749e-02 6.1475630535807499e-02 0.0000000000000000e+00 1
6.8597504498763270e-02 6.4478578488610522e-02 0.0000000000000000e+00 1
6.3098392435290945e-02 6.7448363285431912e-02 0.0000000000000000e+00 1
5.7241231692906111e-02 7.0381621044892609e-02 0.0000000000000000e+00 1
5.1044230610466097e-02 7.3274987885613388e-02 0.0000000000000000e+00 1
4.4525597526828296e-02 7.6125099926215217e-02 0.0000000000000000e+00 1
3.7703540780850066e-02 7.8928593285318913e-02 0.0000000000000000e+00 1
3.0596268711388753e-02 8.1682104081545359e-02 0.0000000000000000e+00 1
2.3221989657301715e-02 8.4382268433515442e-02 0.0000000000000000e+00 1
1.5598911957446285e-02 8.7025722459849991e-02 0.0000000000000000e+00 1
7.7452439506798263e-03 8.9609102279169892e-02 0.0000000000000000e+00 1
-3.2080602414029380e-04 9.2129044010096015e-02 0.0000000000000000e+00 1
-8.5810296281567042e-03 9.4582183771249273e-02 0.0000000000000000e+00 1
-1.7017218522512114e-02 9.6965157681250497e-02 0.0000000000000000e+00 1
-2.5611164368349093e-02 9.9274601858720571e-02 0.0000000000000000e+00 1
-3.4344658826810329e-02 1.0150715242228031e-01 0.0000000000000000e+00 1
-4.3199493559038460e-02 1.0365944549055063e-01 0.0000000000000000e+00 1
-5.2157460226176122e-02 1.0572811718215243e-01 0.0000000000000000e+00 1
-6.1200350489365993e-02 1.0770980361570656e-01 0.0000000000000000e+00 1
-7.0309956009750693e-02 1.0960114090983387e-01 0.0000000000000000e+00 1
-7.9468068448472859e-02 1.1139876518315524e-01 0.0000000000000000e+00 1
-8.8656479466675167e-02 1.1309931255429154e-01 0.0000000000000000e+00 1
-9.7856980725500184e-02 1.1469941914186361e-01 0.0000000000000000e+00 1
-1.0705136388609067e-01 1.1619572106449241e-01 0.0000000000000000e+00 1
-1.1622142060958919e-01 1.1758485444079872e-01 0.0000000000000000e+00 1
-1.2534894255713838e-01 1.1886345538940345e-01 0.0000000000000000e+00 1
-1.3441572138988100e-01 1.2002816002892745e-01 0.0000000000000000e+00 1
-1.4340354876895958e-01 1.2107560447799164e-01 0.0000000000000000e+00 1
-1.5229421635551676e-01 1.2200242485521681e-01 0.0000000000000000e+00 1
-1.6106951581069529e-01 1.2280525727922391e-01 0.0000000000000000e+00 1
-1.6971123879563765e-01 1.2348073786863374e-01 0.0000000000000000e+00 1
-1.7820117697148666e-01 1.2402550274206724e-01 0.0000000000000000e+00 1
-1.8652112199938489e-01 1.2443618801814522e-01 0.0000000000000000e+00 1
-1.9465286554047495e-01 1.2470942981548858e-01 0.0000000000000000e+00 1
-2.0257819925589954e-01 1.2484186425271820e-01 0.0000000000000000e+00 1
-2.1027891480680128e-01 1.2483012744845491e-01 0.0000000000000000e+00 1
-2.1773680385432281e-01 1.2467085552131964e-01 0.0000000000000000e+00 1
-2.2493365805960683e-01 1.2436068458993320e-01 0.0000000000000000e+00 1
-2.3185126908379591e-01 1.2389625077291651e-01 0.0000000000000000e+00 1
-2.3847142858803275e-01 1.2327419018889040e-01 0.0000000000000000e+00 1
-2.4477592823345998e-01 1.2249113895647575e-01 0.0000000000000000e+00 1
-2.5074655968122017e-01 1.2154373319429346e-01 0.0000000000000000e+00 1
-2.5636511459245609e-01 1.2042860902096435e-01 0.0000000000000000e+00 1
-2.6010268311964041e-01 1.1936038670322356e-01 0.0000000000000000e+00 1
-2.6260731687664152e-01 1.1809326403111342e-01 0.0000000000000000e+00 1
-2.6394064196437206e-01 1.1663647156635314e-01 0.0000000000000000e+00 1
-2.6416428448374463e-01 1.1499923987066188e-01 0.0000000000000000e+00 1
-2.6333987053567204e-01 1.1319079950575887e-01 0.0000000000000000e+00 1
-2.6152902622106677e-01 1.1122038103336331e-01 0.0000000000000000e+00 1
-2.5879337764084176e-01 1.0909721501519436e-01 0.0000000000000000e+00 1
-2.5519455089590914e-01 1.0683053201297119e-01 0.0000000000000000e+00 1
-2.5079417208718230e-01 1.0442956258841310e-01 0.0000000000000000e+00 1
-2.4565386731557315e-01 1.0190353730323910e-01 0.0000000000000000e+00 1
-2.3983526268199498e-01 9.9261686719168615e-02 0.0000000000000000e+00 1
-2.3339998428735995e-01 9.6513241397920627e-02 0.0000000000000000e+00 1
-2.2640965823258102e-01 9.3667431901214473e-02 0.0000000000000000e+00 1
-2.1892591061857083e-01 9.0733488790769298e-02 0.0000000000000000e+00 1
-2.1101036754624189e-01 8.7720642628304243e-02 0.0000000000000000e+00 1
-2.0272465511650697e-01 8.4638123975538576e-02 0.0000000000000000e+00 1
-1.9413039943027874e-01 8.1495163394191467e-02 0.0000000000000000e+00 1
-1.8528922658846977e-01 7.8300991445982099e-02 0.0000000000000000e+00 1
-1.7626276269199279e-01 7.5064838692629671e-02 0.0000000000000000e+00 1
-1.6711263384176048e-01 7.1795935695853380e-02 0.0000000000000000e+00 1
-1.5790046613868539e-01 6.8503513017372425e-02 0.0000000000000000e+00 1
-1.4868788568368033e-01 6.5196801218905989e-02 0.0000000000000000e+00 1
-1.3953651857765778e-01 6.1885030862173264e-02 0.0000000000000000e+00 1
-1.3050799092153054e-01 5.8577432508893461e-02 0.0000000000000000e+00 1
-1.2166392881621123e-01 5.5283236720785736e-02 0.0000000000000000e+00 1
-1.1306595836261249e-01 5.2011674059569322e-02 0.0000000000000000e+00 1
-1.0477570566164698e-01 4.8771975086963390e-02 0.0000000000000000e+00 1
-9.6854796814227387e-02 4.5573370364687137e-02 0.0000000000000000e+00 1
-8.9364857921266333e-02 4.2425090454459753e-02 0.0000000000000000e+00 1
-8.2367515083676499e-02 3.9336365918000445e-02 0.0000000000000000e+00 1
-7.5924394402370546e-02 3.6316427317028402e-02 0.0000000000000000e+00 1
-7.0097121978261109e-02 3.3374505213262809e-02 0.0000000000000000e+00 1
-6.4947323912260879e-02 3.0519830168422867e-02 0.0000000000000000e+00 1
-6.0536626305282490e-02 2.7761632744227764e-02 0.0000000000000000e+00 1
-5.5509269784158079e-02 2.4192405822329739e-02 0.0000000000000000e+00 1
-5.0390519652772234e-02 2.0207837586060456e-02 0.0000000000000000e+00 1
-4.5183318331840368e-02 1.5832836366906494e-02 0.0000000000000000e+00 1
-3.9890608242077859e-02 1.1092310496354453e-02 0.0000000000000000e+00 1
-3.4515331804200175e-02 6.0111683058909331e-03 0.0000000000000000e+00 1
-2.9060431438922701e-02 6.1431812700253000e-04 0.0000000000000000e+00 1
-2.3528849566960840e-02 -5.0733317088241785e-03 0.0000000000000000e+00 1
-1.7923528609030008e-02 -1.1026872870102582e-02 0.0000000000000000e+00 1
-1.2247410985845621e-02 -1.7221397025346096e-02 0.0000000000000000e+00 1
-6.5034391181230909e-03 -2.3631995843068125e-02 0.0000000000000000e+00 1
-6.9455542657783590e-04 -3.0233760991782058e-02 0.0000000000000000e+00 1
5.1762976680747386e-03 -3.7001784140001319e-02 0.0000000000000000e+00 1
1.1106177745119235e-02 -4.3911156956239331e-02 0.0000000000000000e+00 1
1.7092142383840218e-02 -5.0936971109009466e-02 0.0000000000000000e+00 1
2.3131249163522303e-02 -5.8054318266825146e-02 0.0000000000000000e+00 1
2.9220555663450044e-02 -6.5238290098199772e-02 0.0000000000000000e+00 1
3.5357119462908045e-02 -7.2463978271646731e-02 0.0000000000000000e+00 1
4.1537998141180914e-02 -7.9706474455679480e-02 0.0000000000000000e+00 1
4.7760249277553207e-02 -8.6940870318811397e-02 0.0000000000000000e+00 1
5.4020930451309561e-02 -9.4142257529555892e-02 0.0000000000000000e+00 1
6.0317099241734493e-02 -1.0128572775642634e-01 0.0000000000000000e+00 1
6.6645813228112624e-02 -1.0834637266793617e-01 0.0000000000000000e+00 1
7.3004129989728564e-02 -1.1529928393259879e-01 0.0000000000000000e+00 1
7.9389107105866871e-02 -1.2211955321892760e-01 0.0000000000000000e+00 1
8.5797802155812189e-02 -1.2878227219543606e-01 0.0000000000000000e+00 1
9.2227272718849049e-02 -1.3526253253063747e-01 0.0000000000000000e+00 1
9.8674576374262038e-02 -1.4153542589304532e-01 0.0000000000000000e+00 1
1.0513677070133574e-01 -1.4757604395117296e-01 0.0000000000000000e+00 1
1.1161091327935481e-01 -1.5335947837353389e-01 0.0000000000000000e+00 1
1.1809406168760379e-01 -1.5886082082864142e-01 0.0000000000000000e+00 1
1.2458327350536723e-01 -1.6405516298500900e-01 0.0000000000000000e+00 1
1.3107560631192977e-01 -1.6891759651114996e-01 0.0000000000000000e+00 1
1.3756811768657598e-01 -1.7342321307557784e-01 0.0000000000000000e+00 1
1.4405786520859049e-01 -1.7754710434680593e-01 0.0000000000000000e+00 1
1.5054190645725782e-01 -1.8126436199334772e-01 0.0000000000000000e+00 1
1.5701729901186262e-01 -1.8455007768371656e-01 0.0000000000000000e+00 1
1.6348110045168943e-01 -1.8737934308642587e-01 0.0000000000000000e+00 1
1.6993036835602285e-01 -1.8972724986998907e-01 0.0000000000000000e+00 1
1.7636216030414748e-01 -1.9156888970291955e-01 0.0000000000000000e+00 1
1.8277353387534795e-01 -1.9287935425373071e-01 0.0000000000000000e+00 1
1.8916154664890875e-01 -1.9363373519093596e-01 0.0000000000000000e+00 1
1.9552325620411451e-01 -1.9380712418304871e-01 0.0000000000000000e+00 1
2.0185572012024983e-01 -1.9337461289858238e-01 0.0000000000000000e+00 1
7.7926811631521362e-02 5.3150235885702363e-02 0.0000000000000000e+00 1
9.6037648763617603e-02 3.5291886697043286e-02 0.0000000000000000e+00 1
5.1939012383667216e-02 6.6534215922829168e-02 0.0000000000000000e+00 1
7.9212665896961649e-03 -2.8789287662650181e-02 0.0000000000000000e+00 1
3.2137388840163802e-02 -5.5997510503435904e-02 0.0000000000000000e+00 1
-1.5418886871630783e-02 -4.5148183971157807e-03 0.0000000000000000e+00 1
5.7819826693395346e-02 -8.4804803261332315e-02 0.0000000000000000e+00 1
1.1838164618787184e-01 9.2608049003457815e-03 0.0000000000000000e+00 1
-3.3344518677846956e-02 1.2762386085435154e-02 0.0000000000000000e+00 1
1.2589411305599718e-01 -1.5623720308067879e-01 0.0000000000000000e+00 1
8.2472789137340560e-02 -1.1351300606344274e-01 0.0000000000000000e+00 1
1.5047331845298545e-01 -1.7387029011907210e-01 0.0000000000000000e+00 1
2.4176291858586170e-02 7.6422660614481067e-02 0.0000000000000000e+00 1
-6.0433301070192881e-02 3.3137462859045078e-02 0.0000000000000000e+00 1
1.7990090356071645e-01 -1.8746539200553608e-01 0.0000000000000000e+00 1
1.8449776138749785e-01 -8.0180347148840203e-02 0.0000000000000000e+00 1
1.4209893382709840e-01 -2.2027248149226662e-02 0.0000000000000000e+00 1
2.0324856313820600e-01 -1.1123563196425446e-01 0.0000000000000000e+00 1
-1.4373486998684301e-02 8.8655464190202315e-02 0.0000000000000000e+00 1
2.1802530015330784e-01 -1.4085424288414863e-01 0.0000000000000000e+00 1
1.6110508447885163e-01 -4.4808142964645858e-02 0.0000000000000000e+00 1
1.0113450768846083e-01 -1.3220289796490489e-01 0.0000000000000000e+00 1
2.0432150486026018e-01 -1.8782298895156693e-01 0.0000000000000000e+00 1
-7.6638661157815396e-02 4.3175775292882329e-02 0.0000000000000000e+00 1
-4.0230868341433017e-02 9.5357755497725100e-02 0.0000000000000000e+00 1
-7.6337177468598430e-02 1.0262661425409575e-01 0.0000000000000000e+00 1
2.2300780198366260e-01 -1.6596562305422113e-01 0.0000000000000000e+00 1
-1.0615624858063173e-01 5.7433368323303327e-02 0.0000000000000000e+00 1
-5.0456721695946422e-02 2.6717481315827411e-02 0.0000000000000000e+00 1
-1.1186974550836859e-01 1.0831370787172169e-01 0.0000000000000000e+00 1
-1.3981124442203305e-01 1.1281542506758405e-01 0.0000000000000000e+00 1
-9.0207760887927091e-02 4.9894906347372793e-02 0.0000000000000000e+00 1
2.1991908754911826e-01 -1.8118309642896016e-01 0.0000000000000000e+00 1
-1.3294781701785396e-01 6.8066608265362066e-02 0.0000000000000000e+00 1
-4.1540186297201647e-03 -1.4157957622255045e-02 0.0000000000000000e+00 1
-1.6588505107626927e-01 1.1671918705528879e-01 0.0000000000000000e+00 1
2.0079859335107288e-02 -4.1999045734041771e-02 0.0000000000000000e+00 1
1.0751763993216751e-01 2.3140596478328519e-02 0.0000000000000000e+00 1
-1.9078182125157733e-01 1.1781222794245308e-01 0.0000000000000000e+00 1
-5.8014773127182180e-02 9.7875488919763512e-02 0.0000000000000000e+00 1
1.3022358216451521e-01 -4.7528183872166604e-03 0.0000000000000000e+00 1
4.4631098555209345e-02 -7.0502143048476476e-02 0.0000000000000000e+00 1
3.2025135255810654e-03 8.4245715889172845e-02 0.0000000000000000e+00 1
-1.5958711528079672e-01 7.7936548200987305e-02 0.0000000000000000e+00 1
-9.5443383562181849e-02 1.0649634763551846e-01 0.0000000000000000e+00 1
6.9001950994257835e-02 -9.9815248091893419e-02 0.0000000000000000e+00 1
3.8900804809559535e-02 7.2051698829527416e-02 0.0000000000000000e+00 1
1.7169215952006833e-01 -6.2155149439194826e-02 0.0000000000000000e+00 1
1.9476268901425220e-01 -9.5587081988152092e-02 0.0000000000000000e+00 1
1.1334883407432408e-01 -1.4386480906377727e-01 0.0000000000000000e+00 1
6.3340166954471797e-02 6.1319844324246003e-02 0.0000000000000000e+00 1
8.6297965734929441e-02 4.5474686903719107e-02 0.0000000000000000e+00 1
2.1198156124177187e-01 -1.2660985900188271e-01 0.0000000000000000e+00 1
-2.0641000989477098e-01 1.1866294183418871e-01 0.0000000000000000e+00 1
1.3839362941962963e-01 -1.6605802285180540e-01 0.0000000000000000e+00 1
-1.8797012644370681e-01 8.7113907058379542e-02 0.0000000000000000e+00 1
1.6307345339657475e-01 -1.8141932221364035e-01 0.0000000000000000e+00 1
-2.2085266921457394e-01 1.1843688484773146e-01 0.0000000000000000e+00 1
2.2224248203974464e-01 -1.5349369213497691e-01 0.0000000000000000e+00 1
1.9319388577992080e-01 -1.8861111436140079e-01 0.0000000000000000e+00 1
-2.0437748538140268e-01 9.3356879988343189e-02 0.0000000000000000e+00 1
-2.3503450474591353e-01 1.1832915095376302e-01 0.0000000000000000e+00 1
-2.5865120461984031e-01 1.1236080033979279e-01 0.0000000000000000e+00 1
-2.4620043027310282e-01 1.0731960174966444e-01 0.0000000000000000e+00 1
-2.2009247197414930e-01 9.8612706803693564e-02 0.0000000000000000e+00 1
-2.6211534403022446e-01 1.1630443011061704e-01 0.0000000000000000e+00 1
-2.3434069536848903e-01 1.0321872031420538e-01 0.0000000000000000e+00 1
2.2330546874503238e-01 -1.7418192637981891e-01 0.0000000000000000e+00 1
2.1436090663487253e-01 -1.8566988354845404e-01 0.0000000000000000e+00 1
-2.5319443319254964e-01 1.1730114940326264e-01 0.0000000000000000e+00 1
-2.5757051010704068e-01 1.1742720740168025e-01 0.0000000000000000e+00 1
-7.0684972453686185e-02 4.0036244771395987e-02 0.0000000000000000e+00 1
-7.1171877889249280e-02 4.6986038498750056e-02 0.0000000000000000e+00 1
-6.4789054409316829e-02 4.3676969956170569e-02 0.0000000000000000e+00 1
-6.5668910284701357e-02 5.0805583294326745e-02 0.0000000000000000e+00 1
-5.9695094356747649e-02 4.8307403764538272e-02 0.0000000000000000e+00 1
-6.0251419152543395e-02 5.4856386412142799e-02 0.0000000000000000e+00 1
-5.4021498961714182e-02 5.1998039241907532e-02 0.0000000000000000e+00 1
-6.6697875693106062e-02 5.7572742888495759e-02 0.0000000000000000e+00 1
-5.4634484240253106e-02 5.8910702553154184e-02 0.0000000000000000e+00 1
-4.8229145883337245e-02 5.5947294777940526e-02 0.0000000000000000e+00 1
-4.8857982935553809e-02 6.3073038853111690e-02 0.0000000000000000e+00 1
-4.2387521027334299e-02 6.0015960837016158e-02 0.0000000000000000e+00 1
-4.1802346062067688e-02 5.2871108007250756e-02 0.0000000000000000e+00 1
-3.5893086282515682e-02 5.6934223691088748e-02 0.0000000000000000e+00 1
-3.5331014843737005e-02 4.9716929037652159e-02 0.0000000000000000e+00 1
-2.9330553788487465e-02 5.3822762027594395e-02 0.0000000000000000e+00 1
-2.8768001396832141e-02 4.6505796500293003e-02 0.0000000000000000e+00 1
-2.2672366192558246e-02 5.0671552018956553e-02 0.0000000000000000e+00 1
-2.1918364755616988e-02 4.3662614031421410e-02 0.0000000000000000e+00 1
-1.5899746761625286e-02 4.7530431954962656e-02 0.0000000000000000e+00 1
-1.5234742211923707e-02 4.0034775564438990e-02 0.0000000000000000e+00 1
-9.0809546460214070e-03 4.4239351063991746e-02 0.0000000000000000e+00 1
-8.6329252979944031e-03 3.6238152803491519e-02 0.0000000000000000e+00 1
-2.2571898497760739e-03 4.0853031180530248e-02 0.0000000000000000e+00 1
-1.7302717351042056e-03 3.2988179040283394e-02 0.0000000000000000e+00 1
4.6173946773163691e-03 3.7519269408635487e-02 0.0000000000000000e+00 1
5.0657546058589875e-03 2.9329423094220576e-02 0.0000000000000000e+00 1
1.1483255133586109e-02 3.4116445138270210e-02 0.0000000000000000e+00 1
1.1937079474819494e-02 2.6161149620026289e-02 0.0000000000000000e+00 1
1.8323986889612554e-02 3.0799631398719704e-02 0.0000000000000000e+00 1
1.8632858147354971e-02 2.3567870766820570e-02 0.0000000000000000e+00 1
2.5108804246045759e-02 2.7577473673181061e-02 0.0000000000000000e+00 1
2.4811368460099022e-02 1.9363372367952082e-02 0.0000000000000000e+00 1
3.1750265400927763e-02 2.4120085812052317e-02 0.0000000000000000e+00 1
3.2479175879589116e-02 1.6765204539178770e-02 0.0000000000000000e+00 1
3.8581310845277314e-02 2.0950126613322267e-02 0.0000000000000000e+00 1
3.9032166478046762e-02 1.3687548085634835e-02 0.0000000000000000e+00 1
4.5349944073116169e-02 1.7734949473427929e-02 0.0000000000000000e+00 1
4.5601135054329389e-02 9.2432560066111839e-03 0.0000000000000000e+00 1
5.2081006017092021e-02 1.3996197135079342e-02 0.0000000000000000e+00 1
5.2809198445027294e-02 6.7524143621091534e-03 0.0000000000000000e+00 1
5.9933545280013531e-02 1.0431010416070117e-02 0.0000000000000000e+00 1
5.9837180722243727e-02 2.7976156722741958e-03 0.0000000000000000e+00 1
5.3111340572824545e-02 -2.4036517330577900e-03 0.0000000000000000e+00 1
6.0466464022965051e-02 -4.7310256633157572e-03 0.0000000000000000e+00 1
6.7183963864758611e-02 -1.3805385408350765e-04 0.0000000000000000e+00 1
6.8119614879612808e-02 -7.9262002984924543e-03 0.0000000000000000e+00 1
6.0998527055338939e-02 -1.3024535006190831e-02 0.0000000000000000e+00 1
6.8347136966814714e-02 -1.6713974979269314e-02 0.0000000000000000e+00 1
5.1003824004442123e-02 2.1547392836839242e-02 0.0000000000000000e+00 1
7.5805218611208064e-02 -1.1375955446737973e-02 0.0000000000000000e+00 1
7.6329521609516171e-02 -2.0366080767885583e-02 0.0000000000000000e+00 1
6.8603304468889695e-02 -2.5388827236460403e-02 0.0000000000000000e+00 1
7.6800365786928698e-02 -2.9231959247273211e-02 0.0000000000000000e+00 1
3.3054472662541405e-02 1.0125215353338390e-02 0.0000000000000000e+00 1
8.4297743557861196e-02 -2.4018380666096087e-02 0.0000000000000000e+00 1
8.5055498940843979e-02 -3.2939892369516353e-02 0.0000000000000000e+00 1
3.1425904101681647e-02 3.1497601953263225e-02 0.0000000000000000e+00 1
7.7482798184957610e-02 -3.8138647969719851e-02 0.0000000000000000e+00 1
8.5727521740429233e-02 -4.2050117341098293e-02 0.0000000000000000e+00 1
9.3299359393866327e-02 -3.6766160357112540e-02 0.0000000000000000e+00 1
9.4012493071300079e-02 -4.6007655211299056e-02 0.0000000000000000e+00 1
1.0156625138880711e-01 -4.0762121405387514e-02 0.0000000000000000e+00 1
1.0236031278092900e-01 -5.0041651055502526e-02 0.0000000000000000e+00 1
9.4690130850736062e-02 -5.5278219085240388e-02 0.0000000000000000e+00 1
1.0312860539755303e-01 -5.9319771893490261e-02 0.0000000000000000e+00 1
1.1085784957692875e-01 -5.4128612325894318e-02 0.0000000000000000e+00 1
1.1157520757832264e-01 -6.3464745745458406e-02 0.0000000000000000e+00 1
1.0387900827294061e-01 -6.8638374751785344e-02 0.0000000000000000e+00 1
1.1231538017530003e-01 -7.2858465931939204e-02 0.0000000000000000e+00 1
1.2006513041124389e-01 -6.7630318510536025e-02 0.0000000000000000e+00 1
1.2081628977589540e-01 -7.7000285524052636e-02 0.0000000000000000e+00 1
4.3724987953024357e-03 4.4575921537351355e-02 0.0000000000000000e+00 1
1.1301938956998876e-01 -8.2303512936659912e-02 0.0000000000000000e+00 1
1.2151623438479622e-01 -8.6415160021825421e-02 0.0000000000000000e+00 1
1.2933259804643216e-01 -8.1091486263792423e-02 0.0000000000000000e+00 1
1.3003042897171202e-01 -9.0507733413704106e-02 0.0000000000000000e+00 1
1.2334237262287055e-02 1.8087869132955531e-02 0.0000000000000000e+00 1
1.3784462886348522e-01 -8.5220104587151513e-02 0.0000000000000000e+00 1
1.3849220552139982e-01 -9.4624139681031727e-02 0.0000000000000000e+00 1
1.3074922880621329e-01 -9.9844479946860298e-02 0.0000000000000000e+00 1
1.3921713630844679e-01 -1.0388636297940634e-01 0.0000000000000000e+00 1
1.4682874247209318e-01 -9.8749845273308684e-02 0.0000000000000000e+00 1
1.4742083712727347e-01 -1.0796063756185953e-01 0.0000000000000000e+00 1
1.3992385770933874e-01 -1.1303336787215768e-01 0.0000000000000000e+00 1
1.4807006280628390e-01 -1.1701230088960698e-01 0.0000000000000000e+00 1
1.5551077821054191e-01 -1.1199176737221457e-01 0.0000000000000000e+00 1
1.5616380675005417e-01 -1.2087085813249668e-01 0.0000000000000000e+00 1
1.6352280337781860e-01 -1.1592626279695228e-01 0.0000000000000000e+00 1
1.6402695281162238e-01 -1.2472334458301822e-01 0.0000000000000000e+00 1
1.5703853084287334e-01 -1.2961404925803435e-01 0.0000000000000000e+00 1
1.6469408376009520e-01 -1.3332214791110258e-01 0.0000000000000000e+00 1
1.8008368800773489e-02 3.7928117846350744e-02 0.0000000000000000e+00 1
1.1371834700091545e-01 -9.1700838181439120e-02 0.0000000000000000e+00 1
-9.7222725580899550e-03 5.1760330491075347e-02 0.0000000000000000e+00 1
1.7169575097563716e-01 -1.2865276191738084e-01 0.0000000000000000e+00 1
1.7211915147674772e-01 -1.3712731170267378e-01 0.0000000000000000e+00 1
1.6529400632546870e-01 -1.4168882764445603e-01 0.0000000000000000e+00 1
1.7265756287682957e-01 -1.4524971555506788e-01 0.0000000000000000e+00 1
1.7938422023163880e-01 -1.4086408611584886e-01 0.0000000000000000e+00 1
1.7988564963043574e-01 -1.4881120308305848e-01 0.0000000000000000e+00 1
-3.6509341758378111e-02 6.4033478848462472e-02 0.0000000000000000e+00 1
7.8227755567729790e-02 -4.7185986904025395e-02 0.0000000000000000e+00 1
6.9935895935903908e-02 -4.3204462387401582e-02 0.0000000000000000e+00 1
-8.1662921302212595e-03 2.8223214090539364e-02 0.0000000000000000e+00 1
1.0075880897663808e-01 -3.1498825355563059e-02 0.0000000000000000e+00 1
-2.3343217011308544e-02 5.7918731708808055e-02 0.0000000000000000e+00 1
1.4066206732267350e-01 -1.2198758843239993e-01 0.0000000000000000e+00 1
-5.5442046192550255e-02 6.6031863592024037e-02 0.0000000000000000e+00 1
1.3253839870607548e-01 -1.1812397914571975e-01 0.0000000000000000e+00 1
1.8655767925140515e-01 -1.4445933102762931e-01 0.0000000000000000e+00 1
1.8693441533624905e-01 -1.5227404435060340e-01 0.0000000000000000e+00 1
1.0525262962258726e-01 -8.7637371767531849e-02 0.0000000000000000e+00 1
1.8048301227321809e-01 -1.5651520122757367e-01 0.0000000000000000e+00 1
1.8732259523354106e-01 -1.5987935347217747e-01 0.0000000000000000e+00 1
1.9360447774520384e-01 -1.5581793687260595e-01 0.0000000000000000e+00 1
1.3716794288188161e-01 -7.5694254035892486e-02 0.0000000000000000e+00 1
1.9395040691772472e-01 -1.6313513018124029e-01 0.0000000000000000e+00 1
1.0927370948844814e-01 -3.5435067227453126e-02 0.0000000000000000e+00 1
1.6296910406750259e-01 -1.0697695760455674e-01 0.0000000000000000e+00 1
7.0667330042994372e-02 -5.2320212191824256e-02 0.0000000000000000e+00 1
1.8610980784676567e-01 -1.3649474751123519e-01 0.0000000000000000e+00 1
1.6591451131385362e-01 -1.4975005204442884e-01 0.0000000000000000e+00 1
1.5860203446839380e-01 -1.4627579335941121e-01 0.0000000000000000e+00 1
-2.7112185782210706e-02 3.8615623222868135e-02 0.0000000000000000e+00 1
1.4578975862143337e-01 -7.9884766169098259e-02 0.0000000000000000e+00 1
6.2352591133956387e-02 -4.8294853004072165e-02 0.0000000000000000e+00 1
1.8108462810745274e-01 -1.6404963380167784e-01 0.0000000000000000e+00 1
1.0847955935107348e-01 -2.6028808778205740e-02 0.0000000000000000e+00 1
1.0594588217551129e-01 -9.7007077024379398e-02 0.0000000000000000e+00 1
1.7103684768221220e-01 -1.1098125746387180e-01 0.0000000000000000e+00 1
-4.9443395159157917e-02 7.0423718108613018e-02 0.0000000000000000e+00 1
-5.6428544691539143e-02 7.3538842141381594e-02 0.0000000000000000e+00 1
1.9995351388555366e-01 -1.5923094515070349e-01 0.0000000000000000e+00 1
2.0037253131338800e-01 -1.6616994735791668e-01 0.0000000000000000e+00 1
1.3332846087981920e-01 -1.2698889055329937e-01 0.0000000000000000e+00 1
1.9327783054666053e-01 -1.4012990826064467e-01 0.0000000000000000e+00 1
-4.1327361697800477e-02 4.5703452794554081e-02 0.0000000000000000e+00 1
9.7490772331000147e-02 -9.2951557806853741e-02 0.0000000000000000e+00 1
1.2507030027763180e-01 -1.2294385659786534e-01 0.0000000000000000e+00 1
1.4508843599857779e-01 -7.0249910836809246e-02 0.0000000000000000e+00 1
1.1687421244487700e-01 -3.0048752813262667e-02 0.0000000000000000e+00 1
1.9285779239628775e-01 -1.3212650670125417e-01 0.0000000000000000e+00 1
1.7049721502270299e-01 -1.0197140914844136e-01 0.0000000000000000e+00 1
2.0609447302052791e-01 -1.6251946292181135e-01 0.0000000000000000e+00 1
2.0651634752504228e-01 -1.6916120445008168e-01 0.0000000000000000e+00 1
1.9415651487636276e-01 -1.7027083881179589e-01 0.0000000000000000e+00 1
1.5922717614706833e-01 -1.5428506731983360e-01 0.0000000000000000e+00 1
1.5193937699716487e-01 -1.5089341547870791e-01 0.0000000000000000e+00 1
2.0625117498246839e-01 -1.5545556531414312e-01 0.0000000000000000e+00 1
6.3251334198478892e-02 -5.7047313858275314e-02 0.0000000000000000e+00 1
7.1412327988979785e-02 -6.1469524327366055e-02 0.0000000000000000e+00 1
5.5018576398485626e-02 -5.2911629843702207e-02 0.0000000000000000e+00 1
5.4143527095252698e-02 -4.4197178542519824e-02 0.0000000000000000e+00 1
1.5384679212528093e-01 -7.4466065629156156e-02 0.0000000000000000e+00 1
-5.0065965108902100e-02 7.8089519982847660e-02 0.0000000000000000e+00 1
-5.7217088963301715e-02 8.1366462063858003e-02 0.0000000000000000e+00 1
-6.3699276788466513e-02 7.6651246169514936e-02 0.0000000000000000e+00 1
-6.4448999279002522e-02 8.4493306551812503e-02 0.0000000000000000e+00 1
-7.0993835812482378e-02 7.9700767040506021e-02 0.0000000000000000e+00 1
1.1595641642881467e-01 -2.0595607096148921e-02 0.0000000000000000e+00 1
1.0756738912655520e-01 -1.6606800227577777e-02 0.0000000000000000e+00 1
1.6640429465695539e-01 -1.5777430013522314e-01 0.0000000000000000e+00 1
1.4167901963935850e-01 -1.3077215122286856e-01 0.0000000000000000e+00 1
1.3523784175741627e-01 -1.3576631912072032e-01 0.0000000000000000e+00 1
9.8206293644574630e-02 -1.0229784245571594e-01 0.0000000000000000e+00 1
1.0661310401616558e-01 -1.0633835403745646e-01 0.0000000000000000e+00 1
9.8937758222577624e-02 -1.1159275880515418e-01 0.0000000000000000e+00 1
1.0752284901674597e-01 -1.1546418249558428e-01 0.0000000000000000e+00 1
-5.3555148951340906e-02 4.5182038673704052e-02 0.0000000000000000e+00 1
1.7866151002770242e-01 -1.0600177667563190e-01 0.0000000000000000e+00 1
1.7865559333429362e-01 -1.1516833984596177e-01 0.0000000000000000e+00 1
8.9730941690640401e-02 -9.8233944430967002e-02 0.0000000000000000e+00 1
8.9227741315241263e-02 -8.8680413593718144e-02 0.0000000000000000e+00 1
1.1492165712670090e-01 -1.1043822413006056e-01 0.0000000000000000e+00 1
1.5432471807111300e-01 -8.4086591038615668e-02 0.0000000000000000e+00 1
1.6397406230164205e-01 -7.8345479291016720e-02 0.0000000000000000e+00 1
-7.7142589874835563e-02 5.0262617982095921e-02 0.0000000000000000e+00 1
1.5316629765100204e-01 -6.4681705162304842e-02 0.0000000000000000e+00 1
1.4430330014609877e-01 -6.0503796593531667e-02 0.0000000000000000e+00 1
6.2973434232531017e-02 -6.6230219429512571e-02 0.0000000000000000e+00 1
7.2161333548583867e-02 -7.0309686443957506e-02 0.0000000000000000e+00 1
1.1788609497480991e-01 -3.9484925324278497e-02 0.0000000000000000e+00 1
1.2576163976147847e-01 -3.4047684643142014e-02 0.0000000000000000e+00 1
1.2666310292561861e-01 -4.3658595210508390e-02 0.0000000000000000e+00 1
1.3482974147939991e-01 -3.8328516797899115e-02 0.0000000000000000e+00 1
7.9786933122090550e-02 -6.5552728292333537e-02 0.0000000000000000e+00 1
-7.0283968348008680e-02 7.1814529017455039e-02 0.0000000000000000e+00 1
-7.7776006721817156e-02 7.4852315586313820e-02 0.0000000000000000e+00 1
-7.8478231685892824e-02 8.2788844350990223e-02 0.0000000000000000e+00 1
-8.5488582207656705e-02 7.8145720884840758e-02 0.0000000000000000e+00 1
-8.4472269637110034e-02 6.9717414839936764e-02 0.0000000000000000e+00 1
-9.2232094783184795e-02 7.3252891215587063e-02 0.0000000000000000e+00 1
-9.3477086629848577e-02 8.1634101747454266e-02 0.0000000000000000e+00 1
-1.0033031293960194e-01 7.6423769510872305e-02 0.0000000000000000e+00 1
-1.0153029759406286e-01 8.5316907217494742e-02 0.0000000000000000e+00 1
-1.0852434215807663e-01 8.0010008489858786e-02 0.0000000000000000e+00 1
-1.0980756708525141e-01 8.8856153421101314e-02 0.0000000000000000e+00 1
-1.1684823463607066e-01 8.3068088848498492e-02 0.0000000000000000e+00 1
-1.1833244413890877e-01 9.2050373112177855e-02 0.0000000000000000e+00 1
-1.2642631915078240e-01 8.5492183363059845e-02 0.0000000000000000e+00 1
-1.2705469788436216e-01 9.5323771808377311e-02 0.0000000000000000e+00 1
-1.3421040908738235e-01 8.9762183822133440e-02 0.0000000000000000e+00 1
-1.1501010194638764e-01 7.4091593090649735e-02 0.0000000000000000e+00 1
1.5270872831765586e-01 -1.5887451718548501e-01 0.0000000000000000e+00 1
-4.3521270830065462e-02 7.4252383418314943e-02 0.0000000000000000e+00 1
1.7818818115876769e-01 -9.6846811176131989e-02 0.0000000000000000e+00 1
1.9990428678073638e-01 -1.3596882292729412e-01 0.0000000000000000e+00 1
2.1192862246635602e-01 -1.6566941280308098e-01 0.0000000000000000e+00 1
2.1220366807781446e-01 -1.7201461731156656e-01 0.0000000000000000e+00 1
2.0702740605799555e-01 -1.7543827616518295e-01 0.0000000000000000e+00 1
1.8643035709467873e-01 -1.1028924740099945e-01 0.0000000000000000e+00 1
1.1505130406615445e-01 -1.1219144159673088e-02 0.0000000000000000e+00 1
1.0671419460588510e-01 -7.3000303525254349e-03 0.0000000000000000e+00 1
9.9308772862818584e-02 -1.2672874930970838e-02 0.0000000000000000e+00 1
9.8437695156371824e-02 -3.5896755291039682e-03 0.0000000000000000e+00 1
1.5129616159426643e-01 -1.4278889871317757e-01 0.0000000000000000e+00 1
1.4454197178171607e-01 -1.4748333716571807e-01 0.0000000000000000e+00 1
9.1166780783623960e-02 -8.7956052337626843e-03 0.0000000000000000e+00 1
9.0344884741079670e-02 -3.0851045861501268e-04 0.0000000000000000e+00 1
9.7475352636701956e-02 5.0654819550588369e-03 0.0000000000000000e+00 1
8.9620233746205022e-02 8.5724635694926082e-03 0.0000000000000000e+00 1
8.2705058283659705e-02 3.5080274541465237e-03 0.0000000000000000e+00 1
8.2087941398671954e-02 1.1887026889004714e-02 0.0000000000000000e+00 1
8.8502191199805916e-02 1.6993026998443714e-02 0.0000000000000000e+00 1
8.1312782151874263e-02 1.9971750693251390e-02 0.0000000000000000e+00 1
7.4875735065927831e-02 1.5290675263729129e-02 0.0000000000000000e+00 1
7.4343514400515232e-02 2.3023657615241180e-02 0.0000000000000000e+00 1
8.0208311871015861e-02 2.7548533612549074e-02 0.0000000000000000e+00 1
7.3573457132323411e-02 3.0355803470092542e-02 0.0000000000000000e+00 1
6.7700149077923155e-02 2.6160239280954387e-02 0.0000000000000000e+00 1
6.7187233559316606e-02 3.3341620287362678e-02 0.0000000000000000e+00 1
7.2870702065657933e-02 3.7252578254004604e-02 0.0000000000000000e+00 1
6.6672095567780393e-02 4.0121103984724696e-02 0.0000000000000000e+00 1
6.0997862501829141e-02 3.6264862241548596e-02 0.0000000000000000e+00 1
6.0590020686789522e-02 4.3081978220812146e-02 0.0000000000000000e+00 1
5.4832808147091155e-02 3.9211828928749373e-02 0.0000000000000000e+00 1
5.4435830679363646e-02 4.6077107575235095e-02 0.0000000000000000e+00 1
4.8711007556765176e-02 4.2197405715252587e-02 0.0000000000000000e+00 1
4.8104506206137689e-02 4.9086676374939388e-02 0.0000000000000000e+00 1
4.2488112393442676e-02 4.5334662086921190e-02 0.0000000000000000e+00 1
4.1822623412006293e-02 5.2203968775009754e-02 0.0000000000000000e+00 1
3.6022499240259853e-02 4.8376725677509946e-02 0.0000000000000000e+00 1
3.5422137932658859e-02 5.5398922248536098e-02 0.0000000000000000e+00 1
2.9464515612906247e-02 5.1309449357715010e-02 0.0000000000000000e+00 1
2.8903948458769278e-02 5.8609414878984870e-02 0.0000000000000000e+00 1
2.2785594842949817e-02 5.4459870500337688e-02 0.0000000000000000e+00 1
6.6319600977542470e-02 4.6753953666057779e-02 0.0000000000000000e+00 1
2.2260807137704133e-02 6.1879160591302225e-02 0.0000000000000000e+00 1
1.6027351220963791e-02 5.7675136039071012e-02 0.0000000000000000e+00 1
1.5464574337143981e-02 6.5150056501748502e-02 0.0000000000000000e+00 1
9.1784589127279059e-03 6.0952120419972236e-02 0.0000000000000000e+00 1
8.6114217368572638e-03 6.8549948922072945e-02 0.0000000000000000e+00 1
2.2242381915745886e-03 6.4289530825487065e-02 0.0000000000000000e+00 1
4.9308624448851514e-02 3.5475740250346152e-02 0.0000000000000000e+00 1
5.3918154036740142e-02 5.2873164842824408e-02 0.0000000000000000e+00 1
4.1375375822929127e-02 5.9318719872354660e-02 0.0000000000000000e+00 1
3.0132980758962414e-02 4.4302482577913554e-02 0.0000000000000000e+00 1
-9.1250060513075618e-02 6.5554086105397591e-02 0.0000000000000000e+00 1
-9.5191407039758147e-02 9.1020189672852081e-02 0.0000000000000000e+00 1
4.7340112665500617e-02 -4.9228798422590404e-02 0.0000000000000000e+00 1
4.6653542595887609e-02 -4.0227904488990225e-02 0.0000000000000000e+00 1
5.3569891724011456e-02 -3.5233691862516944e-02 0.0000000000000000e+00 1
4.5530792104377008e-02 -3.1357754547947522e-02 0.0000000000000000e+00 1
3.7970502143097454e-02 -3.7406110068065844e-02 0.0000000000000000e+00 1
3.7580803589784786e-02 -2.7555809867983699e-02 0.0000000000000000e+00 1
4.4765067667276288e-02 -2.2646758904208496e-02 0.0000000000000000e+00 1
3.6955962641269074e-02 -1.8920774792871072e-02 0.0000000000000000e+00 1
3.0068251962541138e-02 -2.3230486871336595e-02 0.0000000000000000e+00 1
2.9386960652833242e-02 -1.5082072186594664e-02 0.0000000000000000e+00 1
3.6315691681826197e-02 -1.0512450668143103e-02 0.0000000000000000e+00 1
2.8876393567489451e-02 -6.8318819555169353e-03 0.0000000000000000e+00 1
2.1987091651000164e-02 -1.1376343423387156e-02 0.0000000000000000e+00 1
2.1520177454410344e-02 -3.1778771661870953e-03 0.0000000000000000e+00 1
1.5090835150074523e-02 -7.6291174739302617e-03 0.0000000000000000e+00 1
1.4278258329607184e-02 4.7448888251242269e-04 0.0000000000000000e+00 1
7.3720867939336089e-03 -5.2393565713532196e-03 0.0000000000000000e+00 1
6.9725443804565142e-03 4.0659970978318485e-03 0.0000000000000000e+00 1
2.0958836554897949e-04 -3.3583428582845880e-04 0.0000000000000000e+00 1
-1.9114422436027805e-04 7.6660417582802703e-03 0.0000000000000000e+00 1
2.0795004913592510e-02 4.4768859303168269e-03 0.0000000000000000e+00 1
2.0013706893281483e-01 -1.4383375653624186e-01 0.0000000000000000e+00 1
8.0498163726926197e-02 -7.4778335187908745e-02 0.0000000000000000e+00 1
7.2521614980937593e-02 -8.0131906811529569e-02 0.0000000000000000e+00 1
1.5585369454115662e-02 -1.6152497150611476e-02 0.0000000000000000e+00 1
1.8577543055579870e-01 -1.2823060442400352e-01 0.0000000000000000e+00 1
1.9335061774388154e-01 -1.2384990680832633e-01 0.0000000000000000e+00 1
2.8395834531317696e-02 6.5840622788279235e-02 0.0000000000000000e+00 1
1.6268669286071397e-01 -9.7883612804988945e-02 0.0000000000000000e+00 1
-8.3642316811076700e-02 6.1877249493196479e-02 0.0000000000000000e+00 1
8.8087940532090181e-02 -6.9598461824734781e-02 0.0000000000000000e+00 1
-5.0917877550157815e-02 8.5576555045378214e-02 0.0000000000000000e+00 1
1.6653081696117705e-02 5.0187501762059869e-02 0.0000000000000000e+00 1
-1.3535250312707703e-01 9.8658138459190303e-02 0.0000000000000000e+00 1
-1.4285142826725333e-01 9.3210588719247645e-02 0.0000000000000000e+00 1
-1.4187113080126859e-01 8.4390108046798473e-02 0.0000000000000000e+00 1
-1.2832837581092407e-01 1.0411016662576078e-01 0.0000000000000000e+00 1
3.5568732665264530e-02 -2.6818080659559715e-03 0.0000000000000000e+00 1
1.5399810282940313e-03 7.1730804059920883e-02 0.0000000000000000e+00 1
-4.8141293584300204e-03 6.7637367735226231e-02 0.0000000000000000e+00 1
-5.6799093425077499e-03 7.5878582470716188e-02 0.0000000000000000e+00 1
-1.1840192301352583e-02 7.1111950531543247e-02 0.0000000000000000e+00 1
-1.1397356525119629e-02 6.3916408363046476e-02 0.0000000000000000e+00 1
1.3549317285903406e-01 -4.7878995800184940e-02 0.0000000000000000e+00 1
1.4356883116965274e-01 -4.2232361491400167e-02 0.0000000000000000e+00 1
1.2740829946885446e-01 -5.3349702209004472e-02 0.0000000000000000e+00 1
2.8146975264574576e-03 5.7269482228966398e-02 0.0000000000000000e+00 1
-1.5009379915893778e-01 8.8014213313229256e-02 0.0000000000000000e+00 1
-1.5150497286395506e-01 9.6834802639528997e-02 0.0000000000000000e+00 1
-1.5872675517046303e-01 9.1405237089129787e-02 0.0000000000000000e+00 1
-1.6020944401366605e-01 1.0018182386527474e-01 0.0000000000000000e+00 1
-1.6719329774181046e-01 9.5037840849537425e-02 0.0000000000000000e+00 1
-1.5404327688206240e-01 1.0617190470187027e-01 0.0000000000000000e+00 1
-1.6906798805905920e-01 1.0353133935937056e-01 0.0000000000000000e+00 1
-1.7568954053350386e-01 9.8363603414210243e-02 0.0000000000000000e+00 1
-1.7736843489543463e-01 1.0690333556715048e-01 0.0000000000000000e+00 1
-1.8389181444414859e-01 1.0179016564884524e-01 0.0000000000000000e+00 1
-1.7300609978628551e-01 8.9793624415706624e-02 0.0000000000000000e+00 1
2.0664169733788762e-01 -1.4071725165266488e-01 0.0000000000000000e+00 1
8.1966742782341104e-03 7.6393729402437133e-02 0.0000000000000000e+00 1
-6.6614371752906189e-03 3.7142476030235256e-03 0.0000000000000000e+00 1
-7.3095992094939465e-03 1.1259181249080666e-02 0.0000000000000000e+00 1
-7.0728461981249850e-04 1.5588016163771805e-02 0.0000000000000000e+00 1
-1.3812968008046905e-02 7.3512602398656986e-03 0.0000000000000000e+00 1
-1.4291313769217915e-02 1.4788775605360231e-02 0.0000000000000000e+00 1
-2.0828138211780561e-02 1.0486467137431066e-02 0.0000000000000000e+00 1
-2.1030185753688081e-02 1.8255754209697335e-02 0.0000000000000000e+00 1
4.4360065540655927e-02 -4.8873830358823313e-03 0.0000000000000000e+00 1
-1.8339979350248378e-02 6.7390152171188378e-02 0.0000000000000000e+00 1
-1.8988179129241025e-02 7.4878466900355933e-02 0.0000000000000000e+00 1
-2.5256676912566292e-02 7.0610380859776681e-02 0.0000000000000000e+00 1
-2.5989690016191953e-02 7.8094969907258852e-02 0.0000000000000000e+00 1
2.1202962826735430e-01 -1.7782332258485428e-01 0.0000000000000000e+00 1
1.1468228223654323e-01 -4.0599511966762231e-04 0.0000000000000000e+00 1
1.0000040981316072e-01 -1.2117884763177397e-01 0.0000000000000000e+00 1
8.1837278725338913e-02 -9.4021631792825827e-02 0.0000000000000000e+00 1
-3.1703542356864789e-02 7.4100118664508233e-02 0.0000000000000000e+00 1
-3.1831989468750425e-02 8.0573099792667954e-02 0.0000000000000000e+00 1
-2.6371202308954983e-02 8.5927667920279796e-02 0.0000000000000000e+00 1
1.2499363150868230e-01 -1.4532830059765236e-02 0.0000000000000000e+00 1
4.8009706936983157e-02 -5.9533031799373290e-02 0.0000000000000000e+00 1
1.0852881159786640e-01 -1.2483138818186527e-01 0.0000000000000000e+00 1
1.1062443112381778e-01 -1.3406750341683329e-01 0.0000000000000000e+00 1
-1.1101955696414684e-01 9.8369054108467441e-02 0.0000000000000000e+00 1
-6.8381800267563100e-03 -4.5691544720629605e-03 0.0000000000000000e+00 1
1.5232788834772895e-01 -5.5562863041726571e-02 0.0000000000000000e+00 1
-1.4723030956086854e-02 2.2669273027941281e-02 0.0000000000000000e+00 1
-2.1620655896280150e-02 2.5768535838947282e-02 0.0000000000000000e+00 1
-2.7503636079237330e-02 2.1892468342276695e-02 0.0000000000000000e+00 1
-2.8734357313035839e-02 3.0562014321432806e-02 0.0000000000000000e+00 1
-3.4055452071503935e-02 2.5838113248773976e-02 0.0000000000000000e+00 1
-3.5636120105236931e-02 3.1444421258917617e-02 0.0000000000000000e+00 1
-4.0331004667461923e-02 2.8175437645974185e-02 0.0000000000000000e+00 1
-4.0498682565929062e-02 3.4272343889509345e-02 0.0000000000000000e+00 1
-2.2672290404416262e-02 3.2615760525233309e-02 0.0000000000000000e+00 1
2.1710688170527348e-01 -1.6867610059382959e-01 0.0000000000000000e+00 1
2.1741992904794000e-01 -1.6264134326534899e-01 0.0000000000000000e+00 1
-1.4997110950150630e-01 8.0170551144267216e-02 0.0000000000000000e+00 1
1.4286777387568736e-01 -3.2733908036818235e-02 0.0000000000000000e+00 1
2.0672261050553575e-01 -1.4809574045857504e-01 0.0000000000000000e+00 1
1.5339220368776676e-01 -3.6511772446089753e-02 0.0000000000000000e+00 1
1.6144172823612152e-01 -5.9125325352370590e-02 0.0000000000000000e+00 1
2.0726626323697589e-01 -1.8173977505150549e-01 0.0000000000000000e+00 1
2.0169814666101760e-01 -1.7905493645570730e-01 0.0000000000000000e+00 1
-5.5522412772556408e-02 3.0035347645357108e-02 0.0000000000000000e+00 1
-5.5536230320436565e-02 3.5659152199011057e-02 0.0000000000000000e+00 1
-6.0377022466588569e-02 3.8677169888742209e-02 0.0000000000000000e+00 1
1.2445534565756063e-01 -1.1424532494886498e-01 0.0000000000000000e+00 1
9.1891103043949734e-02 -1.7683230387017281e-02 0.0000000000000000e+00 1
1.7435101239384210e-01 -1.6085001950056266e-01 0.0000000000000000e+00 1
1.7499302831792646e-01 -1.6822394136817886e-01 0.0000000000000000e+00 1
1.8154824104769568e-01 -1.7136593141797013e-01 0.0000000000000000e+00 1
1.7552192498575747e-01 -1.7534873087032113e-01 0.0000000000000000e+00 1
1.6879379106624784e-01 -1.7213674647383329e-01 0.0000000000000000e+00 1
1.8209623780404607e-01 -1.7797784586122856e-01 0.0000000000000000e+00 1
1.8795868131937365e-01 -1.7435819199938357e-01 0.0000000000000000e+00 1
1.8798031697476569e-01 -1.8112957567998886e-01 0.0000000000000000e+00 1
1.9425464798485406e-01 -1.7772627563388765e-01 0.0000000000000000e+00 1
-1.8596739755999458e-01 1.1104232544653972e-01 0.0000000000000000e+00 1
-1.9243286295150705e-01 1.0485070641436463e-01 0.0000000000000000e+00 1
-1.9085973302722808e-01 9.6375025519736424e-02 0.0000000000000000e+00 1
-3.9215492745954067e-02 1.7408145831972040e-02 0.0000000000000000e+00 1
4.1989871811228652e-02 2.3506938917692097e-03 0.0000000000000000e+00 1
7.9267801874764121e-02 3.4576548192029433e-02 0.0000000000000000e+00 1
8.5839938224819029e-02 3.1723761822691605e-02 0.0000000000000000e+00 1
7.8338752605756568e-02 4.1629576449761591e-02 0.0000000000000000e+00 1
8.7248147828638017e-02 2.4543349314578952e-02 0.0000000000000000e+00 1
9.4561895459065459e-02 2.2245739257114695e-02 0.0000000000000000e+00 1
9.5871303237720668e-02 1.3822936136750086e-02 0.0000000000000000e+00 1
1.0288308765052125e-01 1.0724674410937171e-02 0.0000000000000000e+00 1
7.1970880623518751e-02 4.4175996749761401e-02 0.0000000000000000e+00 1
7.1609770439268930e-02 5.0369747520871699e-02 0.0000000000000000e+00 1
6.6095374285810998e-02 5.3518802826847900e-02 0.0000000000000000e+00 1
6.0629731179211180e-02 4.9935776944623395e-02 0.0000000000000000e+00 1
-1.4065290052592935e-01 7.6151393390594208e-02 0.0000000000000000e+00 1
-1.3063049338552590e-01 7.6896930865596083e-02 0.0000000000000000e+00 1
1.1744634343122759e-01 -1.2794140280157215e-01 0.0000000000000000e+00 1
1.1994062697907662e-01 -1.3734738388685019e-01 0.0000000000000000e+00 1
1.2250732485706929e-01 -1.4458279312816399e-01 0.0000000000000000e+00 1
1.8773072596090323e-01 -1.6723832093200619e-01 0.0000000000000000e+00 1
-2.5107260567418349e-01 1.0915214695251253e-01 0.0000000000000000e+00 1
-2.4701720524752768e-01 1.1258848412593950e-01 0.0000000000000000e+00 1
-2.4172846133882939e-01 1.1079009330939144e-01 0.0000000000000000e+00 1
1.0519920145441022e-01 1.9983642232290822e-03 0.0000000000000000e+00 1
-5.0669055852540487e-02 3.2834484507893905e-02 0.0000000000000000e+00 1
-5.1112174396558074e-02 3.8813240687868691e-02 0.0000000000000000e+00 1
-7.6954999162272122e-02 6.6838501012664350e-02 0.0000000000000000e+00 1
-7.5734507449163740e-02 5.8363319820864901e-02 0.0000000000000000e+00 1
9.2061627094260579e-02 -1.1712916976324179e-01 0.0000000000000000e+00 1
-9.7839099160797874e-02 5.3555291240375849e-02 0.0000000000000000e+00 1
-2.4184818644773604e-01 1.1704125889097111e-01 0.0000000000000000e+00 1
-3.0967437545286428e-02 9.3502479332751756e-02 0.0000000000000000e+00 1
1.9378004022611974e-03 -2.1965567080050725e-02 0.0000000000000000e+00 1
4.2561258955192815e-03 -1.3702370463095742e-02 0.0000000000000000e+00 1
2.1797071045432875e-01 -1.7552315982862060e-01 0.0000000000000000e+00 1
1.9336523813705148e-01 -1.4809776322433027e-01 0.0000000000000000e+00 1
8.8674333630542793e-02 -7.9089929622114391e-02 0.0000000000000000e+00 1
-2.0370853911352696e-02 2.6354403557295328e-03 0.0000000000000000e+00 1
1.3958585753867974e-02 -3.5316121615883003e-02 0.0000000000000000e+00 1
1.6657416692814869e-02 -2.6372212741780143e-02 0.0000000000000000e+00 1
2.2560828189800135e-02 -3.3406839955262800e-02 0.0000000000000000e+00 1
2.8806376207402971e-02 -3.9901764016737520e-02 0.0000000000000000e+00 1
2.6202580959447937e-02 -4.8767412168633686e-02 0.0000000000000000e+00 1
3.4488049563638878e-02 -4.6925071944455228e-02 0.0000000000000000e+00 1
7.3780573193882565e-02 6.5857582366263710e-03 0.0000000000000000e+00 1
6.7900907797835225e-02 1.1468481183312989e-02 0.0000000000000000e+00 1
7.5305883639720989e-02 -2.2081548996420721e-03 0.0000000000000000e+00 1
1.6010664713355877e-01 -1.6210511649538883e-01 0.0000000000000000e+00 1
2.4857860875535921e-02 3.4500524953275873e-02 0.0000000000000000e+00 1
3.7921962267572440e-02 2.8218785841649986e-02 0.0000000000000000e+00 1
3.7479708857871698e-02 3.4971951830097048e-02 0.0000000000000000e+00 1
4.4399994642021365e-02 2.4861054520816342e-02 0.0000000000000000e+00 1
6.8286294777847326e-02 1.8900479300637596e-02 0.0000000000000000e+00 1
6.2469290459293760e-02 2.2171563882518980e-02 0.0000000000000000e+00 1
-4.8457191040420303e-02 9.7293556366176773e-02 0.0000000000000000e+00 1
-5.4409118226904423e-03 8.4855141538740006e-02 0.0000000000000000e+00 1
-1.2635622159431429e-02 8.0280840631012554e-02 0.0000000000000000e+00 1
-1.2347826685728430e-01 6.4323844669165312e-02 0.0000000000000000e+00 1
-1.1479018260331311e-01 6.0476096638338306e-02 0.0000000000000000e+00 1
-1.0818500473970757e-01 6.6296688409907933e-02 0.0000000000000000e+00 1
2.8069676984152549e-02 6.2993305872491941e-04 0.0000000000000000e+00 1
8.2888753163968612e-02 -6.2437753349389221e-03 0.0000000000000000e+00 1
1.4899054665327699e-01 -1.2587067742437993e-01 0.0000000000000000e+00 1
-1.6999034340963506e-01 8.0792486400181440e-02 0.0000000000000000e+00 1
6.1604126586071221e-02 -3.9181320456018860e-02 0.0000000000000000e+00 1
6.0951101541128386e-02 -3.0338049406119096e-02 0.0000000000000000e+00 1
1.4187490960287045e-02 9.9912126346629535e-03 0.0000000000000000e+00 1
2.1148800332500557e-02 1.2359673917553288e-02 0.0000000000000000e+00 1
-4.4552335791082004e-02 2.2671992837360218e-02 0.0000000000000000e+00 1
-1.4396457521680617e-01 1.0401509156853811e-01 0.0000000000000000e+00 1
-2.1222388218852037e-01 9.6017011991421430e-02 0.0000000000000000e+00 1
-2.1405406771600002e-01 1.0378840259816427e-01 0.0000000000000000e+00 1
-2.2170098998889931e-01 1.0621971210973637e-01 0.0000000000000000e+00 1
-2.1603944026746913e-01 1.1153064500970443e-01 0.0000000000000000e+00 1
-2.0823762753169450e-01 1.0867137629872343e-01 0.0000000000000000e+00 1
1.5330977004855367e-01 -1.6680852932753287e-01 0.0000000000000000e+00 1
1.6132069594685344e-01 -1.6916906052589578e-01 0.0000000000000000e+00 1
1.4556345481371591e-01 -1.6279527997491727e-01 0.0000000000000000e+00 1
5.2790538036924239e-02 -2.6474655144436105e-02 0.0000000000000000e+00 1
5.2818466006831162e-02 -1.6615651099159402e-02 0.0000000000000000e+00 1
-6.7395346199180653e-02 1.0086522088620871e-01 0.0000000000000000e+00 1
-7.3551646644341107e-02 9.4826410193755664e-02 0.0000000000000000e+00 1
-8.2184768862387528e-02 9.5698194167984377e-02 0.0000000000000000e+00 1
-8.5564428417207586e-02 1.0458382317147033e-01 0.0000000000000000e+00 1
1.1308507577157983e-02 4.1041840338411614e-02 0.0000000000000000e+00 1
6.2944478396027067e-03 1.2618186027459809e-02 0.0000000000000000e+00 1
-2.2745475124080605e-01 1.0110119004786484e-01 0.0000000000000000e+00 1
-2.2906167044060491e-01 1.0783413813374243e-01 0.0000000000000000e+00 1
-4.7581566627455218e-02 4.9141476305250884e-02 0.0000000000000000e+00 1
8.2637960581432385e-02 -1.0332807351472312e-01 0.0000000000000000e+00 1
1.7125309453288834e-01 -1.1990815265797958e-01 0.0000000000000000e+00 1
1.4534345204523580e-01 -1.5520871856346222e-01 0.0000000000000000e+00 1
1.3798552171005160e-01 -1.5210315565691107e-01 0.0000000000000000e+00 1
1.3685542236761855e-01 -1.4417882727434919e-01 0.0000000000000000e+00 1
1.2220486099051228e-01 -9.5767556088062505e-02 0.0000000000000000e+00 1
-7.7410096133168106e-03 1.9465549149091682e-02 0.0000000000000000e+00 1
-1.3513767023062297e-03 2.4317393485860546e-02 0.0000000000000000e+00 1
1.4335270940999553e-01 -1.3928440862236374e-01 0.0000000000000000e+00 1
-2.0626434644094377e-01 1.0160544308675885e-01 0.0000000000000000e+00 1
-2.0050723083189684e-01 1.0702879580165892e-01 0.0000000000000000e+00 1
1.1436701790827393e-01 -1.0105686374505503e-01 0.0000000000000000e+00 1
3.8258416917209249e-02 -6.3015176379619287e-02 0.0000000000000000e+00 1
5.3554945031740034e-02 -6.7210843113978402e-02 0.0000000000000000e+00 1
5.8433745065693536e-02 -7.4700469320504628e-02 0.0000000000000000e+00 1
1.2279825613983809e-01 -1.0508913300893222e-01 0.0000000000000000e+00 1
-1.1969775819543094e-01 1.0144552283437243e-01 0.0000000000000000e+00 1
-1.0354602017430245e-01 1.0326992089644768e-01 0.0000000000000000e+00 1
-1.0284634572459879e-01 9.4768729686137101e-02 0.0000000000000000e+00 1
4.7583075077899536e-02 5.5945278959163139e-02 0.0000000000000000e+00 1
5.2926430096009086e-02 5.9698988761388530e-02 0.0000000000000000e+00 1
1.6766157825256400e-01 -1.6504319741651374e-01 0.0000000000000000e+00 1
-4.4768983901898977e-03 6.0772786294887061e-02 0.0000000000000000e+00 1
-6.2745276951452822e-02 6.9002189554882298e-02 0.0000000000000000e+00 1
-3.4286546889150976e-02 4.3056933720824087e-02 0.0000000000000000e+00 1
4.4306547074744504e-02 -1.3798949397070446e-02 0.0000000000000000e+00 1
5.0226424075184621e-02 -9.3705314739251210e-03 0.0000000000000000e+00 1
1.0012040712519191e-01 -2.1971942804449432e-02 0.0000000000000000e+00 1
1.7332825250525646e-01 -1.5311732820105561e-01 0.0000000000000000e+00 1
1.1320096881141359e-01 1.6712312147929873e-02 0.0000000000000000e+00 1
1.0062920615265407e-01 2.8256252169944911e-02 0.0000000000000000e+00 1
-1.7845839068872499e-01 1.1510673556049562e-01 0.0000000000000000e+00 1
1.0456716313673134e-01 -7.8151025599433793e-02 0.0000000000000000e+00 1
-2.7820236510373453e-03 4.7756278144206341e-02 0.0000000000000000e+00 1
1.2430961384080277e-01 2.4131400304365004e-03 0.0000000000000000e+00 1
1.4626259377214212e-01 -8.9365509751915054e-02 0.0000000000000000e+00 1
6.8748760729519465e-02 5.8854590067048448e-02 0.0000000000000000e+00 1
1.3587393631174205e-01 -1.2907971180974540e-02 0.0000000000000000e+00 1
1.3228500474767854e-01 -2.0795039627030977e-02 0.0000000000000000e+00 1
1.8641710973942133e-01 -1.0091031252831008e-01 0.0000000000000000e+00 1
1.9451069247156894e-01 -1.0565721445868388e-01 0.0000000000000000e+00 1
1.9410855376124703e-01 -1.1523705410823699e-01 0.0000000000000000e+00 1
2.0076955904330079e-01 -1.2060766230814568e-01 0.0000000000000000e+00 1
1.8547509683422009e-01 -9.1147383555816003e-02 0.0000000000000000e+00 1
1.7739963280842602e-01 -8.7345967686928996e-02 0.0000000000000000e+00 1
1.7410354026103420e-01 -7.7818443319737238e-02 0.0000000000000000e+00 1
9.0674561728471020e-02 -1.0768246583887411e-01 0.0000000000000000e+00 1
1.6259389916940997e-01 -8.8636282886205189e-02 0.0000000000000000e+00 1
2.0000568069810465e-01 -1.5175528459276660e-01 0.0000000000000000e+00 1
2.1214046302344208e-01 -1.5282761226533187e-01 0.0000000000000000e+00 1
9.1297218270858876e-02 4.0808654183666394e-02 0.0000000000000000e+00 1
5.9368152271637248e-02 5.6250844512730658e-02 0.0000000000000000e+00 1
2.1177281022012837e-01 -1.5923061302547198e-01 0.0000000000000000e+00 1
9.9023597720262688e-03 5.3755076729795494e-02 0.0000000000000000e+00 1
6.9182520266600267e-02 -3.4257130727336361e-02 0.0000000000000000e+00 1
1.6917885487341291e-01 -1.7839666662555348e-01 0.0000000000000000e+00 1
3.1808003133544767e-02 7.4463976913156232e-02 0.0000000000000000e+00 1
1.5997797421804214e-02 7.9961056631309937e-02 0.0000000000000000e+00 1
-1.4847933456568935e-01 1.1351355621160353e-01 0.0000000000000000e+00 1
6.0546687788879602e-02 -2.1475146762136469e-02 0.0000000000000000e+00 1
6.3436443345545296e-02 -9.2848733712694642e-02 0.0000000000000000e+00 1
7.3045023593771297e-02 -9.0973100223795011e-02 0.0000000000000000e+00 1
8.3613614873463776e-02 -1.5054691151020184e-02 0.0000000000000000e+00 1
-2.3586990348633924e-01 1.0913658388483463e-01 0.0000000000000000e+00 1
7.9002378998441036e-02 -5.6346201943870029e-02 0.0000000000000000e+00 1
3.4822861762734220e-02 6.2394215893861953e-02 0.0000000000000000e+00 1
1.3645722955049794e-01 -6.6269912572512718e-02 0.0000000000000000e+00 1
4.5620932839029113e-02 6.9297363887377866e-02 0.0000000000000000e+00 1
6.1636790931875775e-02 2.9430441954621193e-02 0.0000000000000000e+00 1
1.2945961190056338e-01 -1.4919494423972882e-01 0.0000000000000000e+00 1
1.6241528880437864e-01 -6.8159616235044074e-02 0.0000000000000000e+00 1
2.1780422860265766e-02 6.9319859299826841e-02 0.0000000000000000e+00 1
-8.6400513614392521e-02 8.8205432254102781e-02 0.0000000000000000e+00 1
-2.2805299469601414e-01 1.1862371326523538e-01 0.0000000000000000e+00 1
2.2749351116626765e-02 -1.9778672645665085e-02 0.0000000000000000e+00 1
1.3182680791562798e-01 -1.0910479422904058e-01 0.0000000000000000e+00 1
9.2716809390116381e-02 -2.7341117147361895e-02 0.0000000000000000e+00 1
1.2859281867976735e-01 -7.1707924049073973e-02 0.0000000000000000e+00 1
-1.5925736684205459e-02 3.1967384003114559e-02 0.0000000000000000e+00 1
-9.8607583545354163e-02 6.1604243229082201e-02 0.0000000000000000e+00 1
-1.5733435350855168e-01 1.1497140690806557e-01 0.0000000000000000e+00 1
8.4838890832448693e-02 3.8955575074655073e-02 0.0000000000000000e+00 1
8.0670511167327263e-02 4.7215918792587665e-02 0.0000000000000000e+00 1
2.3329791336640052e-02 4.7128384808976208e-02 0.0000000000000000e+00 1
-2.1387641720550041e-01 1.1859572960995675e-01 0.0000000000000000e+00 1
-1.6571202772074731e-02 5.4876760019222662e-02 0.0000000000000000e+00 1
-1.9870598815115087e-01 1.1858795020792715e-01 0.0000000000000000e+00 1
1.1006283512116151e-01 -4.4757756289814266e-02 0.0000000000000000e+00 1
-2.6094757298163329e-01 1.1357205119977688e-01 0.0000000000000000e+00 1
5.7845821890301199e-02 6.4172116996073447e-02 0.0000000000000000e+00 1
8.6462257391240832e-02 -5.1172406418496789e-02 0.0000000000000000e+00 1
1.5495194397024220e-01 -1.0286507206320217e-01 0.0000000000000000e+00 1
1.1877543139482991e-01 -4.8968133117429681e-02 0.0000000000000000e+00 1
1.5794051611350673e-01 -1.3809602561532455e-01 0.0000000000000000e+00 1
5.5473362150735651e-02 3.2589230217974177e-02 0.0000000000000000e+00 1
9.6902401411498112e-02 -8.3464573488177110e-02 0.0000000000000000e+00 1
-2.4060477007738806e-01 1.0527170388008392e-01 0.0000000000000000e+00 1
8.0967359328793009e-02 -8.4612552871981939e-02 0.0000000000000000e+00 1
-3.0054084304660278e-02 6.0825892411296906e-02 0.0000000000000000e+00 1
2.1522158131050131e-01 -1.3369312382391216e-01 0.0000000000000000e+00 1
2.0067093240311001e-01 -1.7297024647909534e-01 0.0000000000000000e+00 1
1.9712302196650988e-01 -1.8345536591369047e-01 0.0000000000000000e+00 1
-4.4043230512793630e-02 8.2003478405699437e-02 0.0000000000000000e+00 1
1.1939993997380545e-01 -5.8350466549330078e-02 0.0000000000000000e+00 1
1.3193122837718407e-01 -1.6152291269407151e-01 0.0000000000000000e+00 1
-4.3054884687657682e-02 6.6995273480460332e-02 0.0000000000000000e+00 1
-5.8074626738096172e-02 8.8965776338029337e-02 0.0000000000000000e+00 1
5.4741525868416295e-03 2.0814998574965479e-02 0.0000000000000000e+00 1
1.7894416335038904e-01 -1.3256107683530582e-01 0.0000000000000000e+00 1
1.7858061901574640e-01 -1.2399694934069271e-01 0.0000000000000000e+00 1
1.7610010946410337e-01 -1.8196460819352306e-01 0.0000000000000000e+00 1
1.2672643797318553e-01 -1.3209870825727058e-01 0.0000000000000000e+00 1
8.7225835331507767e-02 -6.0354707174078925e-02 0.0000000000000000e+00 1
-8.3293015961904429e-02 4.6435702117452633e-02 0.0000000000000000e+00 1
-8.3302668564139606e-02 5.4048313758798150e-02 0.0000000000000000e+00 1
-2.7547668393196532e-02 8.0073650132653183e-03 0.0000000000000000e+00 1
-1.2203968054591248e-01 1.1047317191333962e-01 0.0000000000000000e+00 1
-2.5508962314859562e-01 1.1077460781681092e-01 0.0000000000000000e+00 1
-2.5593291057009210e-01 1.1445697570793681e-01 0.0000000000000000e+00 1
1.5460809838595235e-01 -9.3597818969705940e-02 0.0000000000000000e+00 1
-6.5268760923187702e-02 3.6012384985559101e-02 0.0000000000000000e+00 1
9.5540154553270626e-02 -6.4425656391205913e-02 0.0000000000000000e+00 1
1.5004958070887958e-01 -1.3440436847602477e-01 0.0000000000000000e+00 1
7.3698584153312097e-02 5.6239264382358982e-02 0.0000000000000000e+00 1
-1.9642707215889166e-01 9.0305634229516707e-02 0.0000000000000000e+00 1
2.2050650722387199e-01 -1.4735274222098482e-01 0.0000000000000000e+00 1
-6.0900278525838757e-02 6.1637773124200941e-02 0.0000000000000000e+00 1
9.6270978254251419e-02 -7.3836981231224008e-02 0.0000000000000000e+00 1
1.5674941410817320e-01 -1.7803384615590073e-01 0.0000000000000000e+00 1
-6.9717547162313570e-02 6.4338883284717277e-02 0.0000000000000000e+00 1
1.1632421785128888e-01 -1.1931072985930209e-01 0.0000000000000000e+00 1
-6.5419996240392825e-02 9.2524558518846667e-02 0.0000000000000000e+00 1
1.9978355174186990e-01 -1.2837233233114820e-01 0.0000000000000000e+00 1
1.2778059748282111e-01 -6.2514627813117576e-02 0.0000000000000000e+00 1
1.4489435927167518e-01 -1.7008373994928522e-01 0.0000000000000000e+00 1
-3.6497298908923580e-02 8.6260778356427759e-02 0.0000000000000000e+00 1
1.5704530415481917e-02 7.2632885228646055e-02 0.0000000000000000e+00 1
-1.9847812179864499e-01 9.8920414173396434e-02 0.0000000000000000e+00 1
-9.1060611247389484e-02 9.8053019838354502e-02 0.0000000000000000e+00 1
1.7895354929842269e-01 -7.0193915760941500e-02 0.0000000000000000e+00 1
1.3586371946688908e-01 -5.6979513826653866e-02 0.0000000000000000e+00 1
5.0459590920527028e-02 -7.7879871342704438e-02 0.0000000000000000e+00 1
3.0100325730545364e-02 -3.1333863034303855e-02 0.0000000000000000e+00 1
1.8701535830887439e-01 -1.8717394953290581e-01 0.0000000000000000e+00 1
2.0734420657708647e-01 -1.3283354006690973e-01 0.0000000000000000e+00 1
1.8615019525094101e-01 -1.1946201698803678e-01 0.0000000000000000e+00 1
9.3465503062614794e-02 -1.2654754571738244e-01 0.0000000000000000e+00 1
2.2267663775826821e-01 -1.5951948312108666e-01 0.0000000000000000e+00 1
4.6809018919242336e-02 6.2519414883071805e-02 0.0000000000000000e+00 1
1.4392139234922924e-01 -5.1334691993552818e-02 0.0000000000000000e+00 1
-1.9949102234889594e-02 8.2926149112235573e-02 0.0000000000000000e+00 1
1.7023664564428700e-01 -9.2872884833283278e-02 0.0000000000000000e+00 1
9.2631690416941997e-02 2.9374052941257354e-02 0.0000000000000000e+00 1
-2.4779158434540674e-01 1.1752015612356272e-01 0.0000000000000000e+00 1
-7.1283152238211203e-02 5.2798060496906676e-02 0.0000000000000000e+00 1
-1.3077184059402377e-01 1.1252132431798069e-01 0.0000000000000000e+00 1
4.3083415659653665e-02 3.8630992996786385e-02 0.0000000000000000e+00 1
4.3689164486876660e-02 3.1843305820576706e-02 0.0000000000000000e+00 1
-1.6310263227506061e-01 1.0895822507872985e-01 0.0000000000000000e+00 1
2.5648332558039690e-04 -7.6682873939323687e-03 0.0000000000000000e+00 1
-2.2445866621441490e-01 1.1270465829031956e-01 0.0000000000000000e+00 1
-9.0808248247061824e-02 5.7755681695703838e-02 0.0000000000000000e+00 1
1.1893457415162684e-01 -1.5129954675262033e-01 0.0000000000000000e+00 1
1.2183482620931638e-01 -5.8342460039464738e-03 0.0000000000000000e+00 1
6.4262019391983768e-02 -8.0515865198452830e-02 0.0000000000000000e+00 1
4.9999629260400719e-02 2.8761320349228001e-02 0.0000000000000000e+00 1
1.6734086998808728e-01 -5.2591304822249489e-02 0.0000000000000000e+00 1
9.5476611643984868e-03 -2.0223189551517841e-02 0.0000000000000000e+00 1
2.0902058892710926e-01 -1.1985530031016482e-01 0.0000000000000000e+00 1
2.1358855532637777e-01 -1.4603001777947933e-01 0.0000000000000000e+00 1
1.9897148491597122e-01 -1.8845941701338231e-01 0.0000000000000000e+00 1
2.7364488817672741e-02 1.2871832723310560e-02 0.0000000000000000e+00 1
1.2404200106373384e-01 -2.4756077110652093e-02 0.0000000000000000e+00 1
1.5216317138426733e-01 -4.6653964453095449e-02 0.0000000000000000e+00 1
3.6832120360238335e-02 4.1710811652167099e-02 0.0000000000000000e+00 1
-1.8168572199257293e-01 9.2653007241698254e-02 0.0000000000000000e+00 1
2.1702881966842230e-01 -1.5668250559185115e-01 0.0000000000000000e+00 1
4.0275905835425535e-02 -5.3604258373636846e-02 0.0000000000000000e+00 1
2.2461715651372891e-01 -1.6998838825742965e-01 0.0000000000000000e+00 1
1.2845454430582157e-01 -1.4052816265118051e-01 0.0000000000000000e+00 1
3.1100323862786494e-02 3.8017228483429436e-02 0.0000000000000000e+00 1
-2.6203613519531765e-01 1.1476488378042018e-01 0.0000000000000000e+00 1
-2.5969092680507400e-01 1.1537111256130241e-01 0.0000000000000000e+00 1
7.4841162054641780e-02 -1.0706755817079310e-01 0.0000000000000000e+00 1
-1.1316405024596578e-02 -1.0298040077376494e-02 0.0000000000000000e+00 1
-2.7193497390459620e-02 1.5032506568937575e-02 0.0000000000000000e+00 1
-1.9518521684962575e-01 1.1209773422716543e-01 0.0000000000000000e+00 1
4.0231398436462548e-02 6.5667388652729641e-02 0.0000000000000000e+00 1
2.0993662774863700e-01 -1.8673595252440511e-01 0.0000000000000000e+00 1
1.5010222273052998e-01 -2.7470438512817125e-02 0.0000000000000000e+00 1
-1.2297653537019809e-01 7.8142556687091719e-02 0.0000000000000000e+00 1
-4.6592686215130040e-02 4.2805038675856458e-02 0.0000000000000000e+00 1
5.6406572789939664e-02 2.5281284045499470e-02 0.0000000000000000e+00 1
1.1012070092089837e-01 9.1119451778654461e-03 0.0000000000000000e+00 1
-2.1528826023781349e-02 9.1306253855719319e-02 0.0000000000000000e+00 1
1.0099049541783195e-01 1.9421001328202906e-02 0.0000000000000000e+00 1
-7.1760954374418040e-02 8.7302283838153694e-02 0.0000000000000000e+00 1
1.0148228226749099e-02 8.3447065332387951e-02 0.0000000000000000e+00 1
1.0602694122990031e-01 -1.4014684291073343e-01 0.0000000000000000e+00 1
1.7031858914556519e-01 -7.0603268554065915e-02 0.0000000000000000e+00 1
-2.3176598870304480e-01 1.1348730718444501e-01 0.0000000000000000e+00 1
-2.5147808840721253e-01 1.1312019107078813e-01 0.0000000000000000e+00 1
1.3880787069108866e-01 -1.5881614561865667e-01 0.0000000000000000e+00 1
-4.5727938248739816e-02 3.0255678932669339e-02 0.0000000000000000e+00 1
-3.0966741807766360e-02 6.7293086093357296e-02 0.0000000000000000e+00 1
1.3437527555668130e-01 -2.9446584729740672e-02 0.0000000000000000e+00 1
-1.7903404681877713e-01 8.3953142542429596e-02 0.0000000000000000e+00 1
-1.3557961587202660e-01 1.0649182461245280e-01 0.0000000000000000e+00 1
2.2242778013213474e-01 -1.7809618493652801e-01 0.0000000000000000e+00 1
5.7774258052760652e-02 1.7426950984306931e-02 0.0000000000000000e+00 1
-4.4658756925896034e-02 8.9359669516362983e-02 0.0000000000000000e+00 1
2.4570055093348940e-02 4.1180939135514169e-02 0.0000000000000000e+00 1
2.1792570886459950e-01 -1.8430455496008546e-01 0.0000000000000000e+00 1
-9.9505582058863201e-02 6.9378974457564094e-02 0.0000000000000000e+00 1
-2.3767493564997727e-01 1.1402074157158426e-01 0.0000000000000000e+00 1
-1.7139572962988731e-01 1.1174691855676341e-01 0.0000000000000000e+00 1
-3.7309154773473650e-02 7.0498926725713798e-02 0.0000000000000000e+00 1
1.6985389733103740e-01 -8.4783116269672137e-02 0.0000000000000000e+00 1
-5.5860540381399849e-02 4.0718719408428063e-02 0.0000000000000000e+00 1
3.3616148664610684e-02 6.8568741750426931e-02 0.0000000000000000e+00 1
-2.4311499983034675e-02 6.4126398962323736e-02 0.0000000000000000e+00 1
1.9158520689695580e-01 -8.6013780806532783e-02 0.0000000000000000e+00 1
-2.6041735618772421e-01 1.1731128016158734e-01 0.0000000000000000e+00 1
1.6246619509107593e-01 -1.7525713340532273e-01 0.0000000000000000e+00 1
3.8827968917147557e-02 7.5527302522365473e-03 0.0000000000000000e+00 1
7.6077921519657921e-02 4.7771359520711557e-02 0.0000000000000000e+00 1
2.0139641858848256e-01 -1.0254331321384964e-01 0.0000000000000000e+00 1
2.3615192290645706e-02 -2.6502167426436695e-02 0.0000000000000000e+00 1
1.7782343306100502e-02 4.4297586318888915e-02 0.0000000000000000e+00 1
-1.8427765496398665e-01 1.1825712036695171e-01 0.0000000000000000e+00 1
-4.5744877482447439e-02 3.6579287259835502e-02 0.0000000000000000e+00 1
1.6932816467169387e-01 -1.8430622478572858e-01 0.0000000000000000e+00 1
-1.7540446556366288e-02 6.0941794041833565e-02 0.0000000000000000e+00 1
-3.3454655861811802e-02 1.9372061776275248e-02 0.0000000000000000e+00 1
9.0411167607372528e-02 3.5229358980151913e-02 0.0000000000000000e+00 1
-1.6417667185789339e-01 8.6564663723405294e-02 0.0000000000000000e+00 1
8.3025783438009634e-02 5.0865553902629410e-02 0.0000000000000000e+00 1
2.1570714705374816e-01 -1.8111477396330736e-01 0.0000000000000000e+00 1
1.1112294037244721e-02 4.7623766945340790e-02 0.0000000000000000e+00 1
-2.0322831325915619e-01 1.1323799260239749e-01 0.0000000000000000e+00 1
-4.0023597583855298e-02 4.0297676117745033e-02 0.0000000000000000e+00 1
-3.7484414475145250e-02 7.7948130893888690e-02 0.0000000000000000e+00 1
3.3970509635002251e-04 7.8436904234071805e-02 0.0000000000000000e+00 1
-1.0686265546841753e-02 5.7728282466708192e-02 0.0000000000000000e+00 1
6.3309876750503452e-02 1.5654924458545268e-02 0.0000000000000000e+00 1
-7.8686826180274214e-02 8.9967269720821225e-02 0.0000000000000000e+00 1
1.7420510148835994e-01 -1.8695015872523979e-01 0.0000000000000000e+00 1
3.5017350001305863e-03 5.0847023529307422e-02 0.0000000000000000e+00 1
8.6382856743773398e-02 -1.2180598596645685e-01 0.0000000000000000e+00 1
2.0577989350622766e-01 -1.2565573880365022e-01 0.0000000000000000e+00 1
1.3226354834936124e-01 -1.5494231736452707e-01 0.0000000000000000e+00 1
-3.8016222821041605e-03 5.4283102448999129e-02 0.0000000000000000e+00 1
4.8016449541146602e-02 2.3735201933998929e-03 0.0000000000000000e+00 1
-3.8857404543467824e-02 2.2989770829141297e-02 0.0000000000000000e+00 1
3.4215745955886098e-02 3.7329798979884787e-03 0.0000000000000000e+00 1
-1.0631106876852739e-01 7.3240206791770568e-02 0.0000000000000000e+00 1
6.5811127543997844e-02 -7.3974342419654754e-02 0.0000000000000000e+00 1
-5.9334693978888284e-02 4.3338713080039865e-02 0.0000000000000000e+00 1
6.5727234171746737e-02 6.2289623308400335e-03 0.0000000000000000e+00 1
-1.2435854938708885e-01 7.1394847206063983e-02 0.0000000000000000e+00 1
-1.5651109019391946e-01 8.4818242694203780e-02 0.0000000000000000e+00 1
2.6747997388779865e-02 6.9755556760234642e-03 0.0000000000000000e+00 1
1.0325852577146738e-02 -1.1961766236998442e-02 0.0000000000000000e+00 1
2.0181152056477239e-01 -1.8368529577200465e-01 0.0000000000000000e+00 1
2.6954194592436590e-02 7.1344523105589738e-02 0.0000000000000000e+00 1
5.6621836640451034e-02 -6.0304408631048613e-02 0.0000000000000000e+00 1
-3.3590500265449234e-02 3.7062769859568294e-02 0.0000000000000000e+00 1
7.6505405820886940e-02 -9.9228225312811807e-02 0.0000000000000000e+00 1
2.1191060772085990e-01 -1.8249328007575222e-01 0.0000000000000000e+00 1
1.5598888430553057e-01 -1.7244979209747122e-01 0.0000000000000000e+00 1
2.2106561695310295e-01 -1.7092602401073628e-01 0.0000000000000000e+00 1
-1.5095707917797568e-01 7.2015097125758237e-02 0.0000000000000000e+00 1
-1.2415708417375222e-02 1.2305894006886765e-03 0.0000000000000000e+00 1
2.1251127552695362e-01 -1.3899308601038596e-01 0.0000000000000000e+00 1
1.0666556987949566e-01 1.6096099996374715e-02 0.0000000000000000e+00 1
8.2536530085115495e-02 4.3318939305180854e-02 0.0000000000000000e+00 1
-9.7554071740426282e-02 1.0008599841040909e-01 0.0000000000000000e+00 1
1.9242993468155692e-01 -1.8352513260535588e-01 0.0000000000000000e+00 1
-1.1716442110675628e-01 6.7316614002825056e-02 0.0000000000000000e+00 1
2.1710136545637179e-01 -1.5127731399852484e-01 0.0000000000000000e+00 1
4.1616817187179987e-02 -4.5121530353274923e-02 0.0000000000000000e+00 1
-1.3483567045649780e-01 8.2920544368672994e-02 0.0000000000000000e+00 1
-1.4248917497846270e-01 6.8325750894664736e-02 0.0000000000000000e+00 1
-2.1032380629579850e-01 1.1437915724472136e-01 0.0000000000000000e+00 1
1.8159859301300159e-02 1.7015393944534211e-02 0.0000000000000000e+00 1
1.5910916384033277e-01 -5.2099602037765931e-02 0.0000000000000000e+00 1
-1.7285999963069246e-01 1.1823844065775541e-01 0.0000000000000000e+00 1
1.8261858522250118e-01 -1.8314227425463647e-01 0.0000000000000000e+00 1
-1.0318148796656905e-01 1.1048446686910719e-01 0.0000000000000000e+00 1
-5.2315194577939775e-02 9.1793014522953631e-02 0.0000000000000000e+00 1
5.6019651775643449e-02 -9.1888878650036709e-03 0.0000000000000000e+00 1
-2.0531965660486328e-02 3.7620015669928113e-02 0.0000000000000000e+00 1
6.6736074115141847e-02 -8.6468480062261613e-02 0.0000000000000000e+00 1

Edges
160
1 2 1
2 3 1
3 4 1
4 5 1
5 6 1
6 7 1
7 8 1
8 9 1
9 10 1
10 11 1
11 12 1
12 13 1
13 14 1
14 15 1
15 16 1
16 17 1
17 18 1
18 19 1
19 20 1
20 21 1
21 22 1
22 23 1
23 24 1
24 25 1
25 26 1
26 27 1
27 28 1
28 29 1
29 30 1
30 31 1
31 32 1
32 33 1
33 34 1
34 35 1
35 36 1
36 37 1
37 38 1
38 39 1
39 40 1
40 41 1
41 42 1
42 43 1
43 44 1
44 45 1
45 46 1
46 47 1
47 48 1
48 49 1
49 50 1
50 51 1
51 52 1
52 53 1
53 54 1
54 55 1
55 56 1
56 57 1
57 58 1
58 59 1
59 60 1
60 61 1
61 62 1
62 63 1
63 64 1
64 65 1
65 66 1
66 67 1
67 68 1
68 69 1
69 70 1
70 71 1
71 72 1
72 73 1
73 74 1
74 75 1
75 76 1
76 77 1
77 78 1
78 79 1
79 80 1
80 81 1
81 82 1
82 83 1
83 84 1
84 85 1
85 86 1
86 87 1
87 88 1
88 89 1
89 90 1
90 91 1
91 92 1
92 93 1
93 94 1
94 95 1
95 96 1
96 97 1
97 98 1
98 99 1
99 100 1
100 101 1
101 102 1
102 103 1
103 104 1
104 105 1
105 106 1
106 107 1
107 108 1
108 109 1
109 110 1
110 111 1
111 112 1
112 113 1
113 114 1
114 115 1
115 116 1
116 117 1
117 118 1
118 119 1
119 120 1
120 121 1
121 122 1
122 123 1
123 124 1
124 125 1
125 126 1
126 127 1
127 128 1
128 129 1
129 130 1
130 131 1
131 132 1
132 133 1
133 134 1
134 135 1
135 136 1
136 137 1
137 138 1
138 139 1
139 140 1
140 141 1
141 142 1
142 143 1
143 144 1
144 145 1
145 146 1
146 147 1
147 148 1
148 149 1
149 150 1
150 151 1
151 152 1
152 153 1
153 154 1
154 155 1
155 156 1
156 157 1
157 158 1
158 159 1
159 160 1
160 1 1

Triangles
1824
211 624 737 1
624 211 752 1
609 595 801 1
624 623 824 1
667 532 943 1
222 80 642 1
254 252 779 1
581 356 967 1
681 191 759 1
201 571 738 1
278 282 658 1
773 694 839 1
737 624 824 1
168 565 735 1
559 275 953 1
356 581 586 1
336 578 707 1
569 570 836 1
566 182 573 1
678 309 697 1
170 770 863 1
309 678 985 1
772 173 837 1
275 559 727 1
812 629 880 1
181 25 592 1
532 667 668 1
565 168 894 1
222 642 915 1
598 234 821 1
770 630 863 1
572 202 714 1
714 202 842 1
491 773 839 1
574 210 629 1
576 195 860 1
173 758 837 1
570 643 836 1
195 576 885 1
277 656 959 1
234 232 821 1
779 252 992 1
629 630 880 1
378 609 801 1
738 571 739 1
202 572 713 1
715 714 842 1
656 277 658 1
544 681 759 1
583 581 967 1
25 26 592 1
336 707 708 1
260 258 808 1
516 651 775 1
208 593 771 1
203 667 943 1
688 605 722 1
744 176 745 1
80 81 642 1
182 566 847 1
575 190 717 1
451 454 673 1
277 278 658 1
659 688 722 1
678 679 985 1
651 516 868 1
86 87 226 1
190 575 718 1
172 687 835 1
223 819 883 1
646 193 909 1
617 783 926 1
622 617 926 1
731 619 896 1
381 591 749 1
780 641 862 1
639 239 830 1
892 931 941 1
595 609 802 1
658 282 673 1
876 216 907 1
587 187 588 1
742 443 846 1
258 708 808 1
836 803 942 1
569 836 942 1
549 876 907 1
687 689 835 1
208 771 900 1
400 573 831 1
176 744 922 1
591 513 749 1
518 742 846 1
210 574 899 1
586 779 992 1
752 211 790 1
409 639 815 1
178 741 742 1
336 254 779 1
629 210 630 1
193 646 938 1
429 427 719 1
685 218 861 1
573 182 574 1
619 731 853 1
721 752 790 1
371 628 812 1
873 415 906 1
55 643 895 1
239 639 855 1
590 177 906 1
533 532 668 1
827 724 830 1
578 336 779 1
454 658 673 1
591 381 750 1
258 256 708 1
378 607 609 1
203 551 898 1
187 587 971 1
118 189 596 1
279 691 760 1
671 435 979 1
623 161 824 1
610 199 887 1
435 671 956 1
490 780 862 1
571 201 864 1
561 533 668 1
674 395 823 1
819 231 883 1
742 518 743 1
643 570 895 1
256 336 708 1
496 653 655 1
684 685 861 1
284 280 760 1
82 83 230 1
396 705 709 1
551 203 943 1
893 281 910 1
226 882 883 1
221 825 838 1
395 396 709 1
656 657 959 1
487 469 625 1
239 827 830 1
645 508 860 1
550 591 870 1
628 629 812 1
408 746 900 1
230 83 231 1
611 610 887 1
450 451 673 1
573 628 831 1
596 189 636 1
177 739 906 1
394 659 722 1
697 309 808 1
739 873 906 1
191 681 908 1
665 893 910 1
614 559 953 1
639 521 815 1
309 260 808 1
588 187 848 1
654 165 655 1
607 378 631 1
114 115 232 1
605 688 924 1
508 645 963 1
394 601 729 1
479 622 623 1
588 848 877 1
691 279 991 1
741 178 927 1
758 551 837 1
707 554 708 1
677 284 760 1
427 491 719 1
626 589 972 1
600 287 777 1
762 567 798 1
626 972 983 1
227 764 797 1
453 452 620 1
515 762 798 1
232 115 821 1
551 758 898 1
764 634 797 1
550 870 974 1
218 685 785 1
181 592 874 1
395 709 823 1
227 698 699 1
555 557 649 1
575 429 719 1
406 599 716 1
931 585 941 1
228 646 909 1
545 859 916 1
450 673 763 1
198 731 896 1
479 465 622 1
625 624 752 1
734 948 952 1
132 165 654 1
457 456 618 1
948 538 952 1
717 190 817 1
131 132 654 1
83 84 231 1
544 781 859 1
280 279 760 1
216 612 825 1
120 613 680 1
177 738 739 1
189 680 904 1
626 194 627 1
600 450 763 1
469 467 625 1
171 640 747 1
879 187 971 1
555 649 973 1
587 441 646 1
445 565 635 1
617 615 782 1
226 87 882 1
807 200 832 1
620 452 621 1
227 95 698 1
745 176 746 1
95 96 698 1
487 625 752 1
825 612 838 1
177 590 890 1
601 394 722 1
618 456 619 1
123 649 816 1
701 171 747 1
354 394 729 1
544 759 781 1
593 208 867 1
576 166 885 1
16 178 869 1
440 377 441 1
339 395 674 1
100 216 825 1
359 603 631 1
343 347 647 1
287 600 763 1
284 677 755 1
161 623 926 1
655 165 878 1
447 445 635 1
789 223 883 1
312 716 776 1
342 343 647 1
566 640 847 1
195 127 644 1
225 97 682 1
406 400 831 1
649 557 816 1
513 647 749 1
683 682 710 1
419 420 638 1
195 644 645 1
459 460 461 1
594 183 889 1
686 683 710 1
440 441 587 1
178 742 743 1
638 639 830 1
376 366 377 1
653 496 843 1
346 359 631 1
412 714 715 1
376 377 440 1
401 637 892 1
441 442 564 1
62 205 695 1
225 682 683 1
97 98 682 1
164 129 650 1
638 521 639 1
771 408 900 1
811 932 947 1
164 650 651 1
441 564 646 1
225 683 684 1
35 162 731 1
288 292 777 1
750 381 753 1
680 584 904 1
290 285 755 1
203 52 667 1
264 679 872 1
603 607 631 1
573 574 628 1
859 196 916 1
463 461 464 1
108 109 670 1
109 188 670 1
716 599 776 1
238 401 700 1
800 845 974 1
941 585 967 1
185 57 666 1
349 346 631 1
641 192 862 1
708 554 808 1
479 623 624 1
455 456 457 1
675 204 936 1
582 583 584 1
34 35 731 1
263 289 660 1
465 464 622 1
459 457 460 1
748 407 820 1
88 89 789 1
718 575 719 1
728 600 777 1
746 408 918 1
894 730 975 1
735 565 864 1
317 339 674 1
117 118 596 1
467 465 479 1
167 715 842 1
635 565 894 1
231 84 923 1
423 490 521 1
227 699 764 1
520 748 820 1
652 197 653 1
512 505 672 1
209 740 741 1
443 403 846 1
650 197 652 1
184 114 232 1
458 457 459 1
269 281 663 1
554 697 808 1
396 812 880 1
882 789 883 1
89 90 223 1
53 179 667 1
365 366 376 1
550 513 591 1
721 487 752 1
669 108 670 1
667 179 668 1
420 423 638 1
649 166 973 1
127 128 644 1
423 521 638 1
166 576 973 1
378 349 631 1
197 131 654 1
498 690 691 1
178 743 869 1
464 617 622 1
811 756 932 1
200 59 692 1
498 495 690 1
56 185 643 1
365 349 366 1
347 346 349 1
584 583 585 1
241 238 700 1
461 460 615 1
656 458 657 1
542 544 859 1
464 615 617 1
454 453 455 1
599 406 831 1
471 487 720 1
118 119 189 1
58 200 666 1
368 342 647 1
720 487 721 1
603 604 606 1
829 924 970 1
200 692 832 1
743 518 833 1
698 684 699 1
608 844 978 1
456 453 620 1
451 452 453 1
670 188 671 1
107 108 669 1
343 345 346 1
513 368 647 1
691 690 760 1
439 368 513 1
615 616 782 1
160 1 183 1
712 406 716 1
246 369 725 1
111 192 641 1
455 458 656 1
659 436 687 1
796 733 828 1
455 453 456 1
446 445 447 1
312 706 716 1
659 687 688 1
678 512 679 1
233 232 234 1
53 54 179 1
37 38 212 1
347 349 365 1
554 511 697 1
285 284 755 1
496 655 981 1
128 164 644 1
628 371 831 1
936 204 961 1
607 606 608 1
359 602 603 1
342 332 343 1
679 264 985 1
129 130 650 1
639 409 855 1
692 186 693 1
811 175 988 1
601 345 729 1
52 53 667 1
61 62 695 1
328 329 330 1
580 581 582 1
379 436 659 1
731 162 853 1
567 405 798 1
606 811 988 1
261 263 660 1
446 600 728 1
548 547 610 1
56 57 185 1
450 447 451 1
340 364 724 1
94 95 227 1
684 683 685 1
848 219 877 1
343 346 347 1
287 288 777 1
467 479 625 1
455 457 458 1
346 345 359 1
124 166 649 1
358 335 676 1
331 330 332 1
354 379 394 1
96 97 225 1
463 464 465 1
578 556 707 1
526 525 681 1
664 462 665 1
603 602 604 1
330 354 729 1
345 332 729 1
51 52 203 1
130 197 650 1
91 92 632 1
507 512 678 1
393 445 446 1
111 112 192 1
495 494 690 1
441 377 442 1
33 34 198 1
343 332 345 1
60 186 692 1
459 462 664 1
321 322 323 1
393 446 728 1
628 574 629 1
462 461 463 1
403 362 702 1
330 329 354 1
394 379 659 1
657 273 959 1
393 444 445 1
607 608 609 1
31 168 735 1
546 545 547 1
58 59 200 1
328 323 329 1
98 99 221 1
207 47 757 1
710 221 838 1
497 498 499 1
556 553 707 1
645 868 963 1
464 461 615 1
459 461 462 1
439 513 550 1
503 502 529 1
35 36 162 1
14 15 213 1
559 502 726 1
451 453 454 1
603 606 607 1
505 503 672 1
366 349 378 1
454 455 656 1
113 114 184 1
312 308 706 1
582 581 583 1
98 221 682 1
30 31 735 1
327 323 328 1
55 56 643 1
126 127 195 1
548 610 611 1
446 447 450 1
503 529 672 1
265 267 661 1
163 45 768 1
364 389 724 1
263 265 289 1
102 103 675 1
94 227 797 1
502 499 726 1
451 447 452 1
92 93 224 1
501 502 503 1
321 319 322 1
726 691 727 1
29 201 738 1
498 691 726 1
45 46 768 1
558 579 580 1
110 111 641 1
501 499 502 1
727 691 991 1
128 129 164 1
452 447 635 1
225 684 698 1
741 443 742 1
100 101 216 1
497 495 498 1
57 58 666 1
18 19 209 1
511 509 697 1
557 556 558 1
13 14 800 1
458 459 664 1
580 579 581 1
543 542 545 1
493 494 495 1
555 556 557 1
398 406 712 1
315 316 317 1
339 367 395 1
103 204 675 1
47 48 757 1
369 244 700 1
331 332 342 1
507 505 512 1
648 405 796 1
380 449 703 1
259 324 696 1
320 319 321 1
407 357 736 1
188 110 641 1
356 586 992 1
121 169 613 1
740 209 744 1
620 621 896 1
494 677 690 1
661 267 663 1
546 547 548 1
165 133 713 1
317 316 339 1
194 107 669 1
130 131 197 1
96 225 698 1
496 495 497 1
471 469 487 1
124 125 166 1
60 61 186 1
845 550 974 1
847 640 949 1
500 499 501 1
16 17 178 1
328 330 331 1
335 290 755 1
585 583 967 1
529 559 614 1
555 553 556 1
395 367 396 1
29 30 201 1
46 47 207 1
263 264 265 1
246 244 369 1
318 317 319 1
844 220 978 1
402 362 403 1
541 540 542 1
259 261 324 1
645 644 868 1
405 648 798 1
509 678 697 1
324 261 660 1
509 507 678 1
180 13 800 1
677 676 755 1
12 13 180 1
315 313 316 1
493 385 494 1
553 554 707 1
361 398 712 1
238 236 401 1
542 540 544 1
311 312 313 1
292 337 777 1
606 604 811 1
192 112 814 1
123 124 649 1
79 80 222 1
475 488 766 1
460 457 618 1
22 23 208 1
44 45 163 1
360 392 393 1
42 43 211 1
559 726 727 1
404 701 747 1
686 710 711 1
31 32 168 1
389 419 724 1
359 601 602 1
289 265 661 1
540 526 681 1
657 458 664 1
269 271 281 1
261 262 263 1
59 60 692 1
62 63 205 1
10 11 219 1
319 317 674 1
492 385 493 1
703 449 704 1
244 241 700 1
28 29 738 1
676 335 755 1
308 306 706 1
327 809 810 1
538 485 723 1
20 21 176 1
589 204 972 1
543 545 546 1
267 269 663 1
564 442 594 1
400 566 573 1
321 327 702 1
445 444 565 1
273 657 945 1
48 49 173 1
337 360 728 1
289 661 662 1
234 598 958 1
431 575 717 1
398 399 400 1
504 503 505 1
195 645 860 1
354 355 379 1
485 531 723 1
321 323 327 1
510 509 511 1
311 308 312 1
552 511 553 1
186 61 695 1
134 202 713 1
314 313 315 1
553 511 554 1
257 259 696 1
379 380 436 1
121 122 169 1
109 110 188 1
120 121 613 1
508 507 509 1
133 134 713 1
552 553 555 1
265 266 267 1
651 650 652 1
558 578 579 1
384 358 385 1
132 133 165 1
724 419 830 1
541 542 543 1
259 260 261 1
385 358 676 1
106 107 194 1
400 399 566 1
693 186 694 1
497 499 500 1
494 676 677 1
488 473 720 1
103 104 204 1
531 534 723 1
506 505 507 1
528 717 817 1
493 495 496 1
27 28 177 1
403 702 810 1
706 712 716 1
366 378 801 1
304 257 696 1
499 498 726 1
339 341 367 1
473 471 720 1
534 533 560 1
398 397 399 1
433 431 717 1
332 330 729 1
198 34 731 1
361 397 398 1
501 503 504 1
615 460 616 1
33 198 730 1
610 547 732 1
531 533 534 1
24 25 181 1
558 556 578 1
398 400 406 1
315 317 318 1
91 632 818 1
539 526 540 1
721 163 849 1
393 392 444 1
648 796 828 1
325 361 712 1
700 401 892 1
510 511 552 1
423 424 490 1
402 403 443 1
41 42 737 1
306 325 706 1
706 325 712 1
320 321 702 1
360 393 728 1
248 246 725 1
306 305 325 1
508 509 510 1
64 65 190 1
134 135 202 1
389 391 419 1
529 502 559 1
310 308 311 1
539 540 541 1
318 319 320 1
604 605 756 1
384 385 492 1
466 465 467 1
257 258 259 1
435 960 979 1
201 30 735 1
525 433 528 1
560 561 562 1
163 721 790 1
535 416 537 1
119 120 680 1
253 255 734 1
183 594 964 1
524 481 754 1
303 305 306 1
528 433 717 1
77 78 218 1
386 357 407 1
322 319 674 1
442 377 801 1
145 146 210 1
255 257 304 1
544 540 681 1
420 422 423 1
311 313 314 1
305 301 733 1
149 150 215 1
307 306 308 1
740 443 741 1
322 674 823 1
323 322 794 1
313 312 776 1
494 385 676 1
506 507 508 1
356 248 725 1
481 483 754 1
475 473 488 1
303 301 305 1
243 241 244 1
200 807 990 1
504 505 506 1
325 344 361 1
673 282 763 1
682 221 710 1
344 305 733 1
265 264 266 1
561 668 851 1
361 370 397 1
353 342 368 1
168 32 730 1
147 148 170 1
143 144 182 1
255 256 257 1
215 689 903 1
326 253 734 1
689 215 835 1
359 345 601 1
138 139 206 1
122 123 816 1
151 152 172 1
374 368 439 1
592 26 890 1
434 433 525 1
501 504 775 1
354 329 355 1
436 380 703 1
301 300 733 1
177 28 738 1
263 262 264 1
671 188 780 1
687 436 689 1
397 404 747 1
339 316 341 1
483 485 538 1
32 33 730 1
404 567 701 1
75 76 214 1
153 154 217 1
365 376 381 1
595 442 801 1
604 602 605 1
68 69 759 1
431 429 575 1
788 298 793 1
446 450 600 1
325 305 344 1
616 618 853 1
261 260 262 1
255 304 734 1
113 184 814 1
404 405 567 1
140 141 171 1
404 370 405 1
162 36 751 1
647 347 749 1
361 344 370 1
397 370 404 1
566 399 640 1
250 248 356 1
136 137 167 1
283 287 763 1
892 637 931 1
67 68 191 1
303 306 307 1
367 341 371 1
468 467 469 1
440 587 588 1
73 74 199 1
299 300 301 1
334 352 765 1
383 413 418 1
256 254 336 1
402 443 740 1
299 297 300 1
646 564 938 1
522 514 648 1
562 563 568 1
253 254 255 1
295 296 297 1
418 514 522 1
483 538 754 1
537 416 793 1
259 258 260 1
432 431 433 1
204 589 961 1
581 579 586 1
751 212 782 1
352 335 358 1
295 293 296 1
418 413 514 1
379 355 380 1
184 232 233 1
337 728 777 1
70 71 196 1
382 358 384 1
362 320 702 1
386 407 408 1
690 677 760 1
302 301 303 1
621 894 975 1
334 290 335 1
489 476 784 1
352 383 765 1
156 157 175 1
357 310 736 1
531 532 533 1
422 421 773 1
307 308 310 1
480 477 519 1
48 173 757 1
478 481 524 1
251 253 326 1
434 525 526 1
694 695 839 1
548 611 612 1
192 814 815 1
504 516 775 1
233 234 235 1
477 475 766 1
485 530 531 1
36 37 751 1
514 413 515 1
257 256 258 1
235 234 236 1
809 517 810 1
653 197 654 1
399 397 747 1
761 206 762 1
46 207 768 1
158 159 220 1
267 268 269 1
510 552 576 1
432 433 434 1
449 448 709 1
360 373 392 1
372 411 767 1
579 578 779 1
116 174 821 1
49 50 758 1
408 407 748 1
560 533 561 1
337 350 360 1
383 412 413 1
476 478 784 1
466 467 468 1
372 410 411 1
527 589 626 1
282 283 763 1
384 492 572 1
419 638 830 1
417 416 535 1
255 254 256 1
851 179 895 1
299 301 302 1
427 425 491 1
251 252 253 1
739 571 873 1
425 422 773 1
298 297 299 1
694 186 695 1
348 372 767 1
84 85 923 1
137 138 761 1
414 788 793 1
334 335 352 1
292 294 337 1
310 311 736 1
470 469 471 1
188 641 780 1
351 320 362 1
653 654 655 1
352 358 382 1
428 430 435 1
543 546 549 1
295 297 298 1
415 414 416 1
37 212 751 1
519 477 766 1
194 626 983 1
138 206 761 1
173 49 758 1
612 216 876 1
640 399 747 1
267 266 268 1
375 362 402 1
341 316 776 1
483 484 485 1
352 382 383 1
383 418 765 1
383 382 412 1
167 137 761 1
527 526 539 1
253 252 254 1
8 9 187 1
316 313 776 1
713 572 878 1
463 465 466 1
454 656 658 1
430 429 431 1
481 482 483 1
303 307 778 1
344 733 796 1
405 370 796 1
245 244 246 1
719 491 977 1
675 549 907 1
291 290 334 1
327 328 809 1
621 452 635 1
430 431 432 1
271 272 273 1
500 501 775 1
249 250 251 1
474 476 489 1
314 792 820 1
164 651 868 1
347 365 749 1
434 526 527 1
599 341 776 1
438 740 744 1
468 469 470 1
531 530 532 1
243 244 245 1
251 250 252 1
715 167 865 1
348 310 357 1
294 293 295 1
444 392 571 1
648 514 798 1
432 627 891 1
407 736 820 1
371 341 599 1
372 357 386 1
44 163 790 1
685 683 686 1
504 506 516 1
411 410 577 1
331 342 353 1
381 376 753 1
527 539 589 1
249 248 250 1
247 246 248 1
242 241 243 1
423 422 424 1
288 291 292 1
115 116 821 1
630 210 863 1
314 315 792 1
269 270 271 1
472 471 473 1
191 68 759 1
373 350 414 1
262 260 309 1
355 329 794 1
247 248 249 1
364 388 389 1
39 40 161 1
288 290 291 1
415 416 417 1
480 519 772 1
577 410 593 1
602 601 722 1
288 285 290 1
483 482 484 1
428 427 429 1
530 484 551 1
283 285 287 1
380 448 449 1
470 471 472 1
438 744 745 1
562 561 563 1
302 303 778 1
311 314 736 1
386 408 771 1
307 310 348 1
485 484 530 1
387 363 437 1
184 409 814 1
373 414 415 1
367 371 812 1
42 211 737 1
417 535 536 1
478 480 481 1
240 238 241 1
417 536 590 1
245 246 247 1
337 294 350 1
69 70 781 1
292 291 293 1
478 524 784 1
296 293 791 1
426 425 427 1
660 289 881 1
491 425 773 1
376 440 753 1
704 449 705 1
665 462 769 1
99 100 825 1
360 350 373 1
428 429 430 1
168 730 894 1
426 427 428 1
586 579 779 1
474 473 475 1
291 334 791 1
318 320 351 1
65 66 817 1
348 357 372 1
372 386 410 1
247 249 338 1
705 449 709 1
481 480 482 1
438 402 740 1
274 276 277 1
283 280 284 1
371 599 831 1
472 473 474 1
334 765 791 1
746 176 840 1
670 671 979 1
619 456 620 1
307 348 778 1
295 298 788 1
419 391 420 1
283 284 285 1
251 326 786 1
278 280 282 1
329 323 794 1
590 536 592 1
78 79 774 1
474 475 476 1
720 721 849 1
463 466 769 1
476 477 478 1
348 767 778 1
14 213 800 1
704 705 770 1
353 368 374 1
292 293 294 1
278 276 279 1
287 285 288 1
300 297 822 1
93 94 797 1
365 381 749 1
478 477 480 1
126 195 885 1
340 724 827 1
424 425 426 1
462 463 769 1
249 251 786 1
237 236 238 1
448 355 794 1
79 222 774 1
476 475 477 1
74 75 787 1
293 291 791 1
380 355 448 1
410 386 771 1
76 77 785 1
593 410 771 1
243 245 333 1
185 666 911 1
163 768 849 1
351 362 375 1
294 295 788 1
418 522 813 1
377 366 801 1
375 402 438 1
440 588 753 1
270 614 953 1
759 69 781 1
689 436 703 1
271 270 272 1
416 414 793 1
537 793 804 1
278 279 280 1
268 266 286 1
800 213 845 1
351 375 520 1
699 684 861 1
269 268 270 1
298 299 804 1
468 470 486 1
282 280 283 1
568 563 569 1
277 276 278 1
92 224 632 1
414 350 788 1
818 632 902 1
22 208 840 1
300 822 828 1
116 117 174 1
370 344 796 1
611 711 838 1
43 44 790 1
479 624 625 1
218 78 774 1
112 113 814 1
605 602 722 1
424 422 425 1
614 270 925 1
70 196 781 1
273 272 274 1
189 119 680 1
514 515 798 1
482 480 772 1
389 390 391 1
819 818 902 1
924 688 970 1
718 205 989 1
681 525 908 1
420 421 422 1
274 272 275 1
817 66 856 1
315 318 792 1
574 182 899 1
199 610 930 1
813 522 822 1
350 294 788 1
338 249 786 1
793 298 804 1
792 520 820 1
389 388 390 1
702 327 810 1
274 275 276 1
642 81 854 1
679 512 962 1
733 300 828 1
2 3 229 1
209 741 927 1
202 135 842 1
77 218 785 1
214 76 785 1
240 241 242 1
199 74 787 1
102 675 907 1
176 21 840 1
51 203 898 1
296 791 813 1
215 150 835 1
496 497 843 1
569 563 570 1
237 238 240 1
435 891 960 1
161 783 937 1
75 214 787 1
627 432 982 1
517 374 518 1
148 149 805 1
466 468 795 1
353 374 517 1
299 302 804 1
570 851 895 1
328 331 809 1
604 756 811 1
1 2 889 1
396 367 812 1
211 43 790 1
242 243 806 1
791 765 813 1
190 65 817 1
491 839 977 1
190 718 989 1
217 756 924 1
572 714 966 1
437 363 806 1
212 38 937 1
420 391 421 1
318 351 792 1
594 442 595 1
166 125 885 1
387 437 803 1
694 773 946 1
794 322 823 1
245 247 799 1
170 148 805 1
6 7 228 1
235 236 237 1
331 353 809 1
783 212 937 1
243 333 806 1
640 171 949 1
769 466 795 1
351 520 792 1
247 338 799 1
136 167 842 1
711 611 887 1
364 387 388 1
388 387 523 1
695 205 839 1
364 363 387 1
149 215 805 1
240 242 340 1
85 86 226 1
709 448 823 1
297 296 822 1
714 412 966 1
340 363 364 1
208 23 867 1
169 122 816 1
857 472 875 1
340 242 363 1
333 245 799 1
829 217 924 1
660 881 912 1
468 486 795 1
765 418 813 1
12 180 826 1
822 522 828 1
616 460 618 1
662 661 858 1
90 91 818 1
668 179 851 1
623 622 926 1
671 780 914 1
24 181 867 1
296 813 822 1
551 484 837 1
165 713 878 1
756 605 924 1
230 231 819 1
174 598 821 1
663 281 866 1
171 701 884 1
150 151 835 1
353 517 809 1
528 817 856 1
11 12 826 1
448 794 823 1
143 182 847 1
849 768 888 1
613 934 954 1
522 648 828 1
736 314 820 1
40 41 824 1
547 545 916 1
216 101 907 1
637 401 919 1
221 99 825 1
41 737 824 1
692 693 832 1
632 224 633 1
374 439 833 1
184 233 409 1
934 582 954 1
281 271 910 1
18 209 927 1
235 237 239 1
67 191 856 1
652 653 843 1
482 772 837 1
834 767 841 1
508 510 860 1
363 242 806 1
152 153 829 1
54 55 895 1
689 703 903 1
523 387 803 1
81 82 854 1
584 585 904 1
210 146 863 1
15 16 869 1
537 804 834 1
172 152 829 1
804 302 834 1
814 409 815 1
89 223 789 1
633 634 642 1
748 520 852 1
27 177 890 1
390 388 807 1
20 176 922 1
518 374 833 1
680 613 954 1
643 185 836 1
388 523 807 1
470 472 857 1
666 200 990 1
537 834 841 1
206 139 884 1
174 117 596 1
868 516 963 1
174 597 598 1
616 853 935 1
517 518 846 1
758 50 898 1
444 571 864 1
594 889 969 1
4 5 193 1
205 63 989 1
549 546 876 1
810 517 846 1
872 679 962 1
438 745 852 1
778 767 834 1
153 217 829 1
204 104 972 1
854 230 902 1
833 439 845 1
626 627 982 1
147 170 863 1
896 621 975 1
474 489 875 1
106 194 983 1
161 40 824 1
219 11 826 1
520 375 852 1
209 19 922 1
563 561 851 1
545 542 859 1
302 778 834 1
140 171 884 1
549 675 936 1
151 172 835 1
571 392 873 1
182 144 899 1
612 611 838 1
548 612 876 1
744 209 922 1
618 619 853 1
224 93 797 1
484 482 837 1
21 22 840 1
275 727 991 1
403 810 846 1
493 496 981 1
705 396 880 1
64 190 989 1
655 878 981 1
535 537 841 1
237 240 827 1
266 264 872 1
430 432 891 1
135 136 842 1
373 415 873 1
142 143 847 1
802 220 871 1
178 17 927 1
145 210 899 1
10 219 848 1
240 340 827 1
696 324 929 1
529 614 955 1
764 901 915 1
521 490 862 1
591 750 870 1
439 550 845 1
587 646 971 1
597 636 637 1
415 417 906 1
324 660 912 1
390 807 832 1
558 580 886 1
955 286 962 1
883 231 923 1
490 424 914 1
72 73 930 1
576 552 973 1
535 841 850 1
767 411 841 1
711 710 838 1
527 626 982 1
157 158 844 1
171 141 949 1
428 435 956 1
250 356 992 1
9 10 848 1
597 596 636 1
2 229 889 1
497 500 843 1
662 857 875 1
304 696 939 1
841 411 850 1
783 161 926 1
780 490 914 1
826 180 870 1
174 596 597 1
515 413 957 1
633 224 634 1
175 157 844 1
66 67 856 1
671 914 956 1
488 720 849 1
630 770 880 1
506 508 963 1
634 224 797 1
732 72 930 1
384 572 966 1
239 237 827 1
901 222 915 1
412 382 966 1
803 437 942 1
661 663 858 1
158 220 844 1
432 434 982 1
589 539 961 1
886 580 934 1
411 577 850 1
857 662 858 1
304 939 948 1
543 549 936 1
557 558 886 1
762 515 993 1
567 762 968 1
264 262 985 1
536 535 850 1
815 521 862 1
146 147 863 1
850 577 874 1
762 206 968 1
233 235 855 1
273 274 959 1
276 275 991 1
167 761 993 1
409 233 855 1
401 236 958 1
644 164 868 1
530 551 943 1
570 563 851 1
375 438 852 1
272 270 953 1
421 391 897 1
201 735 864 1
633 854 902 1
39 161 937 1
538 723 952 1
235 239 855 1
510 576 860 1
805 215 903 1
220 159 871 1
488 849 888 1
486 470 857 1
756 217 932 1
696 929 939 1
217 154 932 1
770 705 880 1
324 912 929 1
646 228 971 1
911 666 990 1
889 229 969 1
734 304 948 1
270 268 925 1
87 88 882 1
672 955 962 1
565 444 864 1
23 24 867 1
408 748 918 1
844 608 988 1
781 196 859 1
536 850 874 1
205 718 977 1
875 489 881 1
775 651 928 1
159 160 871 1
881 489 912 1
192 815 862 1
805 903 951 1
160 183 871 1
840 208 900 1
768 207 888 1
723 534 944 1
218 774 861 1
213 15 869 1
773 421 946 1
750 753 877 1
634 764 915 1
546 548 876 1
610 732 930 1
486 858 866 1
183 1 889 1
390 832 897 1
88 789 882 1
592 536 874 1
590 592 890 1
125 126 885 1
392 373 873 1
572 492 878 1
766 488 888 1
858 663 866 1
156 175 947 1
187 9 848 1
289 662 881 1
594 595 964 1
286 266 872 1
665 769 893 1
664 665 945 1
472 474 875 1
617 782 976 1
139 140 884 1
169 886 934 1
7 8 879 1
175 811 947 1
723 944 952 1
534 560 933 1
26 27 890 1
179 54 895 1
816 557 886 1
369 700 892 1
865 515 957 1
753 588 877 1
369 892 941 1
888 207 920 1
795 486 866 1
866 281 893 1
633 642 854 1
560 562 921 1
50 51 898 1
223 818 819 1
843 500 928 1
8 187 879 1
865 167 993 1
142 847 949 1
144 145 899 1
580 582 934 1
38 39 937 1
686 711 940 1
751 782 935 1
435 430 891 1
82 230 854 1
826 870 980 1
609 608 978 1
486 857 858 1
207 757 920 1
562 568 905 1
802 609 978 1
703 704 903 1
652 843 928 1
627 194 960 1
636 189 904 1
782 616 935 1
72 732 987 1
437 806 917 1
223 90 818 1
745 746 918 1
621 635 894 1
832 693 897 1
169 816 886 1
614 925 955 1
71 72 987 1
101 102 907 1
597 637 919 1
871 183 964 1
199 787 887 1
512 672 962 1
852 745 918 1
619 620 896 1
595 802 964 1
613 169 934 1
878 492 981 1
766 888 920 1
687 172 970 1
632 633 902 1
725 369 941 1
774 222 901 1
525 528 908 1
391 390 897 1
173 772 965 1
417 590 906 1
746 840 900 1
271 273 910 1
856 191 908 1
769 795 893 1
560 921 933 1
17 18 927 1
564 594 969 1
582 584 954 1
206 884 968 1
795 866 893 1
19 20 922 1
867 181 986 1
718 719 977 1
534 933 944 1
489 784 912 1
861 774 901 1
688 687 970 1
657 664 945 1
229 913 938 1
686 940 984 1
904 585 931 1
421 897 946 1
651 652 928 1
220 802 978 1
424 426 914 1
672 529 955 1
730 198 975 1
662 875 881 1
725 941 967 1
920 757 965 1
154 155 932 1
5 6 909 1
333 799 905 1
3 4 913 1
960 669 979 1
732 547 916 1
162 751 935 1
764 699 901 1
236 234 958 1
608 606 988 1
802 871 964 1
874 577 986 1
782 212 976 1
412 715 957 1
912 784 929 1
903 704 951 1
919 401 958 1
699 861 901 1
693 694 946 1
519 766 920 1
519 920 965 1
853 162 935 1
228 7 879 1
524 754 939 1
196 71 987 1
939 754 948 1
748 852 918 1
914 426 956 1
333 905 917 1
212 783 976 1
155 156 947 1
669 670 979 1
833 845 950 1
268 286 925 1
194 669 960 1
541 543 936 1
803 836 911 1
929 524 939 1
141 142 949 1
783 617 976 1
921 338 933 1
229 3 913 1
685 686 984 1
785 685 984 1
73 199 930 1
972 105 983 1
6 228 909 1
784 524 929 1
500 775 928 1
180 800 974 1
870 750 980 1
326 734 952 1
799 338 921 1
523 803 911 1
105 106 983 1
806 333 917 1
770 170 951 1
492 493 981 1
944 326 952 1
104 105 972 1
274 277 959 1
642 634 915 1
226 883 923 1
568 569 942 1
356 725 967 1
754 538 948 1
665 910 945 1
704 770 951 1
541 936 961 1
63 64 989 1
181 874 986 1
338 786 933 1
552 555 973 1
275 272 953 1
413 412 957 1
905 568 917 1
701 567 968 1
532 530 943 1
786 326 944 1
887 787 940 1
870 180 974 1
539 541 961 1
584 680 954 1
426 428 956 1
905 799 921 1
940 214 984 1
382 384 966 1
175 844 988 1
757 173 965 1
836 185 911 1
787 214 940 1
761 762 993 1
772 519 965 1
516 506 963 1
170 805 951 1
528 856 908 1
279 276 991 1
252 250 992 1
598 597 919 1
437 917 942 1
434 527 982 1
262 309 985 1
933 786 944 1
711 887 940 1
523 911 990 1
562 905 921 1
515 865 993 1
932 155 947 1
577 593 986 1
193 5 909 1
637 636 931 1
4 193 913 1
229 938 969 1
214 785 984 1
286 872 962 1
593 867 986 1
845 213 950 1
897 693 946 1
172 829 970 1
884 701 968 1
743 833 950 1
219 826 980 1
230 819 902 1
807 523 990 1
891 627 960 1
213 869 950 1
85 226 923 1
917 568 942 1
715 865 957 1
839 205 977 1
636 904 931 1
869 743 950 1
198 896 975 1
750 877 980 1
877 219 980 1
916 196 987 1
913 193 938 1
910 273 945 1
598 919 958 1
925 286 955 1
228 879 971 1
732 916 987 1
938 564 969 1

End
