MeshVersionFormatted 2
Dimension 3

Vertices
703
-2.2440053787170355e-01 -3.5092101411836746e-01 0.0000000000000000e+00 1
-2.2533686717686630e-01 -3.5638959278311982e-01 0.0000000000000000e+00 1
-2.2564706092300130e-01 -3.6084402425123008e-01 0.0000000000000000e+00 1
-2.2535311897402210e-01 -3.6431625965806830e-01 0.0000000000000000e+00 1
-2.2447704119384226e-01 -3.6683825013900451e-01 0.0000000000000000e+00 1
-2.2304082744637543e-01 -3.6844194682940878e-01 0.0000000000000000e+00 1
-2.2106647759553499e-01 -3.6915930086465071e-01 0.0000000000000000e+00 1
-2.1857599150523477e-01 -3.6902226338010086e-01 0.0000000000000000e+00 1
-2.1559136903938819e-01 -3.6806278551112875e-01 0.0000000000000000e+00 1
-2.1213461006190903e-01 -3.6631281839310492e-01 0.0000000000000000e+00 1
-2.0822771443671065e-01 -3.6380431316139911e-01 0.0000000000000000e+00 1
-2.0389268202770675e-01 -3.6056922095138111e-01 0.0000000000000000e+00 1
-1.9915151269881085e-01 -3.5663949289842112e-01 0.0000000000000000e+00 1
-1.9402620631393663e-01 -3.5204708013788921e-01 0.0000000000000000e+00 1
-1.8853876273699760e-01 -3.4682393380515542e-01 0.0000000000000000e+00 1
-1.8271118183190732e-01 -3.4100200503558953e-01 0.0000000000000000e+00 1
-1.7656546346257948e-01 -3.3461324496456196e-01 0.0000000000000000e+00 1
-1.7012360749292760e-01 -3.2768960472744224e-01 0.0000000000000000e+00 1
-1.6340761378686536e-01 -3.2026303545960089e-01 0.0000000000000000e+00 1
-1.5643948220830617e-01 -3.1236548829640742e-01 0.0000000000000000e+00 1
-1.4924121262116366e-01 -3.0402891437323215e-01 0.0000000000000000e+00 1
-1.4183480488935152e-01 -2.9528526482544498e-01 0.0000000000000000e+00 1
-1.3424225887678323e-01 -2.8616649078841588e-01 0.0000000000000000e+00 1
-1.2648557444737238e-01 -2.7670454339751499e-01 0.0000000000000000e+00 1
-1.1858675146503264e-01 -2.6693137378811227e-01 0.0000000000000000e+00 1
-1.1056778979367748e-01 -2.5687893309557763e-01 0.0000000000000000e+00 1
-1.0245068929722057e-01 -2.4657917245528127e-01 0.0000000000000000e+00 1
-9.4257449839575430e-02 -2.3606404300259298e-01 0.0000000000000000e+00 1
-8.6010071284655737e-02 -2.2536549587288296e-01 0.0000000000000000e+00 1
-7.7730553496375032e-02 -2.1451548220152117e-01 0.0000000000000000e+00 1
-6.9440896338646863e-02 -2.0354595312387763e-01 0.0000000000000000e+00 1
-6.1163099675384809e-02 -1.9248885977532226e-01 0.0000000000000000e+00 1
-5.2919163370502516e-02 -1.8137615329122508e-01 0.0000000000000000e+00 1
-4.4731087287913522e-02 -1.7023978480695623e-01 0.0000000000000000e+00 1
-3.6620871291531389e-02 -1.5911170545788561e-01 0.0000000000000000e+00 1
-2.8610515245269787e-02 -1.4802386637938325e-01 0.0000000000000000e+00 1
-2.0722019013042277e-02 -1.3700821870681923e-01 0.0000000000000000e+00 1
-1.2977382458762364e-02 -1.2609671357556351e-01 0.0000000000000000e+00 1
-5.3986054463436919e-03 -1.1532130212098600e-01 0.0000000000000000e+00 1
1.9923121603001651e-03 -1.0471393547845688e-01 0.0000000000000000e+00 1
9.1733704972556153e-03 -9.4306564783346050e-02 0.0000000000000000e+00 1
1.6122569700609088e-02 -8.4131141171023535e-02 0.0000000000000000e+00 1
2.2817909906446946e-02 -7.4219615776859468e-02 0.0000000000000000e+00 1
2.9237391250855695e-02 -6.4603939736223692e-02 0.0000000000000000e+00 1
3.5359013869921699e-02 -5.5316064184486272e-02 0.0000000000000000e+00 1
4.1160777899731382e-02 -4.6387940257017243e-02 0.0000000000000000e+00 1
4.6620683476371161e-02 -3.7851519089186589e-02 0.0000000000000000e+00 1
5.1716730735927446e-02 -2.9738751816364359e-02 0.0000000000000000e+00 1
5.6426919814486623e-02 -2.2081589573920576e-02 0.0000000000000000e+00 1
6.0729250848135172e-02 -1.4911983497225167e-02 0.0000000000000000e+00 1
6.4601723972959491e-02 -8.2618847216481967e-03 0.0000000000000000e+00 1
6.7850542238920925e-02 -2.4195977800883298e-03 0.0000000000000000e+00 1
7.1068827173264751e-02 3.6899568729354751e-03 0.0000000000000000e+00 1
7.4255776466212634e-02 1.0053934809453567e-02 0.0000000000000000e+00 1
7.7410587807986264e-02 1.6659491601496226e-02 0.0000000000000000e+00 1
8.0532458888807362e-02 2.3493782821093753e-02 0.0000000000000000e+00 1
8.3620587398897633e-02 3.0543964040276428e-02 0.0000000000000000e+00 1
8.6674171028478741e-02 3.7797190831074606e-02 0.0000000000000000e+00 1
8.9692407467772364e-02 4.5240618765518541e-02 0.0000000000000000e+00 1
9.2674494407000263e-02 5.2861403415638560e-02 0.0000000000000000e+00 1
9.5619629536384088e-02 6.0646700353464957e-02 0.0000000000000000e+00 1
9.8527010546145516e-02 6.8583665151028025e-02 0.0000000000000000e+00 1
1.0139583512650630e-01 7.6659453380358067e-02 0.0000000000000000e+00 1
1.0422530096768806e-01 8.4861220613485416e-02 0.0000000000000000e+00 1
1.0701460575991256e-01 9.3176122422440319e-02 0.0000000000000000e+00 1
1.0976294719340146e-01 1.0159131437925313e-01 0.0000000000000000e+00 1
1.1246952295837645e-01 1.1009395205595411e-01 0.0000000000000000e+00 1
1.1513353074505925e-01 1.1867119102457357e-01 0.0000000000000000e+00 1
1.1775416824367158e-01 1.2731018685714185e-01 0.0000000000000000e+00 1
1.2033063314443504e-01 1.3599809512568922e-01 0.0000000000000000e+00 1
1.2286212313757144e-01 1.4472207140224597e-01 0.0000000000000000e+00 1
1.2534783591330237e-01 1.5346927125884241e-01 0.0000000000000000e+00 1
1.2778696916184959e-01 1.6222685026750888e-01 0.0000000000000000e+00 1
1.3017872057343480e-01 1.7098196400027563e-01 0.0000000000000000e+00 1
1.3252228783827966e-01 1.7972176802917297e-01 0.0000000000000000e+00 1
1.3481686864660589e-01 1.8843341792623125e-01 0.0000000000000000e+00 1
1.3706166068863512e-01 1.9710406926348067e-01 0.0000000000000000e+00 1
1.3925586165458917e-01 2.0572087761295166e-01 0.0000000000000000e+00 1
1.4139866923468963e-01 2.1427099854667442e-01 0.0000000000000000e+00 1
1.4348928111915826e-01 2.2274158763667928e-01 0.0000000000000000e+00 1
1.4552689499821669e-01 2.3111980045499658e-01 0.0000000000000000e+00 1
1.4751070856208667e-01 2.3939279257365659e-01 0.0000000000000000e+00 1
1.4943991950098987e-01 2.4754771956468963e-01 0.0000000000000000e+00 1
1.5131372550514799e-01 2.5557173700012598e-01 0.0000000000000000e+00 1
1.5313132426478271e-01 2.6345200045199585e-01 0.0000000000000000e+00 1
1.5489191347011577e-01 2.7117566549232974e-01 0.0000000000000000e+00 1
1.5659469081136887e-01 2.7872988769315787e-01 0.0000000000000000e+00 1
1.5823885397876361e-01 2.8610182262651046e-01 0.0000000000000000e+00 1
1.5982360066252177e-01 2.9327862586441789e-01 0.0000000000000000e+00 1
1.6134812855286501e-01 3.0024745297891048e-01 0.0000000000000000e+00 1
1.6281163534001505e-01 3.0699545954201846e-01 0.0000000000000000e+00 1
1.6421331871419353e-01 3.1350980112577215e-01 0.0000000000000000e+00 1
1.6555237636562226e-01 3.1977763330220194e-01 0.0000000000000000e+00 1
1.6682800598452280e-01 3.2578611164333804e-01 0.0000000000000000e+00 1
1.6803940526111694e-01 3.3152239172121073e-01 0.0000000000000000e+00 1
1.6918577188562633e-01 3.3697362910785039e-01 0.0000000000000000e+00 1
1.6952596010286930e-01 3.3924636809285036e-01 0.0000000000000000e+00 1
1.6936099054795323e-01 3.4035138555511807e-01 0.0000000000000000e+00 1
1.6873019462576266e-01 3.4037698407203654e-01 0.0000000000000000e+00 1
1.6767290374118210e-01 3.3941146622098906e-01 0.0000000000000000e+00 1
1.6622844929909611e-01 3.3754313457935875e-01 0.0000000000000000e+00 1
1.6443616270438907e-01 3.3486029172452852e-01 0.0000000000000000e+00 1
1.6233537536194573e-01 3.3145124023388178e-01 0.0000000000000000e+00 1
1.5996541867665046e-01 3.2740428268480148e-01 0.0000000000000000e+00 1
1.5736562405338780e-01 3.2280772165467081e-01 0.0000000000000000e+00 1
1.5457532289704237e-01 3.1774985972087283e-01 0.0000000000000000e+00 1
1.5163384661249854e-01 3.1231899946079067e-01 0.0000000000000000e+00 1
1.4858052660464091e-01 3.0660344345180746e-01 0.0000000000000000e+00 1
1.4545469427835406e-01 3.0069149427130637e-01 0.0000000000000000e+00 1
1.4229568103852239e-01 2.9467145449667043e-01 0.0000000000000000e+00 1
1.3914281829003056e-01 2.8863162670528292e-01 0.0000000000000000e+00 1
1.3603543743776297e-01 2.8266031347452680e-01 0.0000000000000000e+00 1
1.3301286988660424e-01 2.7684581738178532e-01 0.0000000000000000e+00 1
1.3011444704143885e-01 2.7127644100444143e-01 0.0000000000000000e+00 1
1.2737950030715131e-01 2.6604048691987842e-01 0.0000000000000000e+00 1
1.2484736108862618e-01 2.6122625770547936e-01 0.0000000000000000e+00 1
1.2255736079074794e-01 2.5692205593862738e-01 0.0000000000000000e+00 1
1.2054883081840115e-01 2.5321618419670555e-01 0.0000000000000000e+00 1
1.1886110257647031e-01 2.5019694505709705e-01 0.0000000000000000e+00 1
1.1486871380172459e-01 2.4329319149104600e-01 0.0000000000000000e+00 1
1.1064989359801147e-01 2.3613679076674293e-01 0.0000000000000000e+00 1
1.0621343224284976e-01 2.2873579868900468e-01 0.0000000000000000e+00 1
1.0156812001375842e-01 2.2109827106264801e-01 0.0000000000000000e+00 1
9.6722747188256214e-02 2.1323226369248988e-01 0.0000000000000000e+00 1
9.1686104043862085e-02 2.0514583238334727e-01 0.0000000000000000e+00 1
8.6466980858094858e-02 1.9684703294003691e-01 0.0000000000000000e+00 1
8.1074167908473410e-02 1.8834392116737581e-01 0.0000000000000000e+00 1
7.5516455472516592e-02 1.7964455287018072e-01 0.0000000000000000e+00 1
6.9802633827743266e-02 1.7075698385326862e-01 0.0000000000000000e+00 1
6.3941493251672296e-02 1.6168926992145627e-01 0.0000000000000000e+00 1
5.7941824021822581e-02 1.5244946687956071e-01 0.0000000000000000e+00 1
5.1812416415712950e-02 1.4304563053239872e-01 0.0000000000000000e+00 1
4.5562060710862273e-02 1.3348581668478718e-01 0.0000000000000000e+00 1
3.9199547184789414e-02 1.2377808114154301e-01 0.0000000000000000e+00 1
3.2733666115013257e-02 1.1393047970748309e-01 0.0000000000000000e+00 1
2.6173207779052635e-02 1.0395106818742425e-01 0.0000000000000000e+00 1
1.9526962454426432e-02 9.3847902386183402e-02 0.0000000000000000e+00 1
1.2803720418653488e-02 8.3629038108577428e-02 0.0000000000000000e+00 1
6.0122719492526969e-03 7.3302531159423201e-02 0.0000000000000000e+00 1
-8.3859267625709111e-04 6.2876437343537608e-02 0.0000000000000000e+00 1
-7.7400831803570366e-03 5.2358812465737467e-02 0.0000000000000000e+00 1
-1.4683409285528221e-02 4.1757712330839789e-02 0.0000000000000000e+00 1
-2.1659780714251793e-02 3.1081192743661366e-02 0.0000000000000000e+00 1
-2.8660407189008925e-02 2.0337309509019089e-02 0.0000000000000000e+00 1
-3.5676498432280733e-02 9.5341184317298405e-03 0.0000000000000000e+00 1
-4.2699264166548352e-02 -1.3203246833895024e-03 0.0000000000000000e+00 1
-4.9719914114292919e-02 -1.2217964031522074e-02 0.0000000000000000e+00 1
-5.6729657997995571e-02 -2.3150743807850968e-02 0.0000000000000000e+00 1
-6.3719705540137450e-02 -3.4110608207559331e-02 0.0000000000000000e+00 1
-7.0681266463199693e-02 -4.5089501425830222e-02 0.0000000000000000e+00 1
-7.7605550489663389e-02 -5.6079367657846810e-02 0.0000000000000000e+00 1
-8.4483767342009713e-02 -6.7072151098792221e-02 0.0000000000000000e+00 1
-9.1307126742719846e-02 -7.8059795943849555e-02 0.0000000000000000e+00 1
-9.8066838414274854e-02 -8.9034246388201968e-02 0.0000000000000000e+00 1
-1.0475411207915586e-01 -9.9987446627032503e-02 0.0000000000000000e+00 1
-1.1136015745984415e-01 -1.1091134085552444e-01 0.0000000000000000e+00 1
-1.1787618427882066e-01 -1.2179787326886070e-01 0.0000000000000000e+00 1
-1.2429340225856664e-01 -1.3263898806222452e-01 0.0000000000000000e+00 1
-1.3060302112156319e-01 -1.4342662943079898e-01 0.0000000000000000e+00 1
-1.3679625059029143e-01 -1.5415274156976716e-01 0.0000000000000000e+00 1
-1.4286430038723258e-01 -1.6480926867431234e-01 0.0000000000000000e+00 1
-1.4879838023486769e-01 -1.7538815493961746e-01 0.0000000000000000e+00 1
-1.5458969985567794e-01 -1.8588134456086580e-01 0.0000000000000000e+00 1
-1.6022946897214446e-01 -1.9628078173324032e-01 0.0000000000000000e+00 1
-1.6570889730674834e-01 -2.0657841065192423e-01 0.0000000000000000e+00 1
-1.7101919458197073e-01 -2.1676617551210059e-01 0.0000000000000000e+00 1
-1.7615157052029284e-01 -2.2683602050895257e-01 0.0000000000000000e+00 1
-1.8109723484419571e-01 -2.3677988983766335e-01 0.0000000000000000e+00 1
-1.8584739727616056e-01 -2.4658972769341592e-01 0.0000000000000000e+00 1
-1.9039326753866850e-01 -2.5625747827139350e-01 0.0000000000000000e+00 1
-1.9472605535420062e-01 -2.6577508576677916e-01 0.0000000000000000e+00 1
-1.9883697044523810e-01 -2.7513449437475607e-01 0.0000000000000000e+00 1
-2.0271722253426205e-01 -2.8432764829050727e-01 0.0000000000000000e+00 1
-2.0635802134375364e-01 -2.9334649170921595e-01 0.0000000000000000e+00 1
-2.0975057659619398e-01 -3.0218296882606516e-01 0.0000000000000000e+00 1
-2.1288609801406422e-01 -3.1082902383623806e-01 0.0000000000000000e+00 1
-2.1575579531984548e-01 -3.1927660093491789e-01 0.0000000000000000e+00 1
-2.1835087823601890e-01 -3.2751764431728753e-01 0.0000000000000000e+00 1
-2.2066255648506566e-01 -3.3554409817853037e-01 0.0000000000000000e+00 1
-2.2268203978946677e-01 -3.4334790671382920e-01 0.0000000000000000e+00 1
6.0475315631363796e-02 -2.9612257600339651e-03 0.0000000000000000e+00 1
4.7582085820840642e-02 -2.2101390333448996e-02 0.0000000000000000e+00 1
7.3128988384521879e-02 2.2745478844806974e-02 0.0000000000000000e+00 1
8.0834751764159343e-02 4.5038022314345040e-02 0.0000000000000000e+00 1
8.9368849561796984e-02 6.7932092799829841e-02 0.0000000000000000e+00 1
3.0639305586232728e-02 -4.6051431157879581e-02 0.0000000000000000e+00 1
-2.0778617558198289e-03 4.1291703707215487e-02 0.0000000000000000e+00 1
9.8693426778380167e-02 8.9652300769056961e-02 0.0000000000000000e+00 1
1.0976572806486840e-02 -7.3552212186123483e-02 0.0000000000000000e+00 1
-2.2833731028627305e-02 8.8733145103784810e-03 0.0000000000000000e+00 1
1.7760290905219120e-02 7.1397012431764759e-02 0.0000000000000000e+00 1
-6.4626405882986557e-02 -5.6206434544081724e-02 0.0000000000000000e+00 1
1.0500396614675722e-01 1.1607226293326357e-01 0.0000000000000000e+00 1
-8.5956725282192586e-02 -8.8859787862185249e-02 0.0000000000000000e+00 1
4.0010941197371558e-02 1.0424698947524191e-01 0.0000000000000000e+00 1
-1.0636660320094060e-01 -1.2250076344880478e-01 0.0000000000000000e+00 1
-4.4245127357705374e-02 -2.3323314975903675e-02 0.0000000000000000e+00 1
-1.2660600693067228e-01 -1.5454230909770689e-01 0.0000000000000000e+00 1
-1.0799326965725555e-02 -1.0373992697407050e-01 0.0000000000000000e+00 1
-1.4294780638903101e-01 -1.8562651054203658e-01 0.0000000000000000e+00 1
1.1471394221577358e-01 1.4255761263739539e-01 0.0000000000000000e+00 1
-1.6011537937634812e-01 -2.1504598576048992e-01 0.0000000000000000e+00 1
-3.4146843741119544e-02 -1.3572683730471233e-01 0.0000000000000000e+00 1
-1.7632734416319273e-01 -2.4552513748152863e-01 0.0000000000000000e+00 1
5.7016092634211639e-02 1.3298617849676536e-01 0.0000000000000000e+00 1
-5.8451125600465489e-02 -1.6873039948919177e-01 0.0000000000000000e+00 1
1.2261391239081486e-01 2.5006279598347603e-01 0.0000000000000000e+00 1
-8.2716045402587784e-02 -2.0181197859635736e-01 0.0000000000000000e+00 1
-1.8891530033201570e-01 -2.7447519180127189e-01 0.0000000000000000e+00 1
1.2220825390814352e-01 1.6829940713787672e-01 0.0000000000000000e+00 1
6.8685300401273769e-02 1.5256524672531352e-01 0.0000000000000000e+00 1
1.2717749164945144e-01 2.5722525410057456e-01 0.0000000000000000e+00 1
-1.0599633741169670e-01 -2.3400261202475081e-01 0.0000000000000000e+00 1
8.0019270437251225e-02 1.7021473653532052e-01 0.0000000000000000e+00 1
-2.0037103989694297e-01 -3.0088075136494458e-01 0.0000000000000000e+00 1
-1.2317066100005883e-01 -2.5521709026286310e-01 0.0000000000000000e+00 1
1.2716046133287354e-01 1.8587656957310364e-01 0.0000000000000000e+00 1
-1.4580019600631747e-01 -2.8426329942187845e-01 0.0000000000000000e+00 1
-1.8488225732701485e-01 -3.3281652845143428e-01 0.0000000000000000e+00 1
6.7099306498975872e-02 9.5014974963057667e-03 0.0000000000000000e+00 1
1.3069917235476261e-01 2.0351172731488362e-01 0.0000000000000000e+00 1
-2.1786812742195416e-01 -3.6612779729094119e-01 0.0000000000000000e+00 1
-1.5971542412944206e-01 -3.0210293417874512e-01 0.0000000000000000e+00 1
-1.9559866122301792e-01 -3.4490092674207867e-01 0.0000000000000000e+00 1
9.2593895640586177e-02 1.8769551286638450e-01 0.0000000000000000e+00 1
-2.1198772454603265e-01 -3.6230625683882467e-01 0.0000000000000000e+00 1
1.1473382296569015e-01 2.2795491330783993e-01 0.0000000000000000e+00 1
-1.7215219637491419e-01 -3.1806295920544880e-01 0.0000000000000000e+00 1
1.0124569385179150e-01 2.0570441994514749e-01 0.0000000000000000e+00 1
1.3974450948978270e-01 2.3723855277194786e-01 0.0000000000000000e+00 1
-2.0440666816138534e-01 -3.5414312133594539e-01 0.0000000000000000e+00 1
1.3322637744480686e-01 2.6644342804875315e-01 0.0000000000000000e+00 1
-2.0730217240076901e-01 -3.1738455382206665e-01 0.0000000000000000e+00 1
-2.1267764346038065e-01 -3.3333760114006661e-01 0.0000000000000000e+00 1
1.3566972434200955e-01 2.2074938728371984e-01 0.0000000000000000e+00 1
-2.2029734829687375e-01 -3.5426948175664819e-01 0.0000000000000000e+00 1
1.4341972332435196e-01 2.5259016261474410e-01 0.0000000000000000e+00 1
1.3925215277048814e-01 2.7729497259385405e-01 0.0000000000000000e+00 1
-2.2284462149825504e-01 -3.6235534337959224e-01 0.0000000000000000e+00 1
1.5002093557980309e-01 2.8302831886763413e-01 0.0000000000000000e+00 1
-2.2211690719396010e-01 -3.6678700579212764e-01 0.0000000000000000e+00 1
1.4728871762004359e-01 2.6823791647195688e-01 0.0000000000000000e+00 1
1.4942367541865034e-01 2.9583306554185879e-01 0.0000000000000000e+00 1
1.5518862534838931e-01 3.0579869005122906e-01 0.0000000000000000e+00 1
1.4066458441794782e-01 2.4520710651785010e-01 0.0000000000000000e+00 1
1.3398005165333626e-01 2.4210577435985353e-01 0.0000000000000000e+00 1
1.3250326198516763e-01 2.3571374786085666e-01 0.0000000000000000e+00 1
1.2791315959685762e-01 2.4082669391053546e-01 0.0000000000000000e+00 1
1.2539803622713883e-01 2.3395528451676920e-01 0.0000000000000000e+00 1
1.2939597643931794e-01 2.4654797919489682e-01 0.0000000000000000e+00 1
1.3620357144994105e-01 2.5194597024818355e-01 0.0000000000000000e+00 1
1.3825001193566464e-01 2.5665034845153972e-01 0.0000000000000000e+00 1
1.4414542174284958e-01 2.6066207591798596e-01 0.0000000000000000e+00 1
1.3756072115842599e-01 2.2929633198052596e-01 0.0000000000000000e+00 1
1.2042724474074845e-01 2.4596092087224328e-01 0.0000000000000000e+00 1
1.3966712629496192e-01 2.6677922151252959e-01 0.0000000000000000e+00 1
1.5425434130942967e-01 2.9980458415544953e-01 0.0000000000000000e+00 1
-2.1840721822776676e-01 -3.4823844382085400e-01 0.0000000000000000e+00 1
-2.1457786016217095e-01 -3.5302857950322647e-01 0.0000000000000000e+00 1
-2.1208314300790487e-01 -3.4693302876285737e-01 0.0000000000000000e+00 1
-2.1708138002273791e-01 -3.5790854056555288e-01 0.0000000000000000e+00 1
1.4920270466847341e-01 2.7523233670806163e-01 0.0000000000000000e+00 1
5.2766012095471063e-02 -1.3676713902996523e-02 0.0000000000000000e+00 1
4.3356461029971330e-02 -1.3943214396139537e-02 0.0000000000000000e+00 1
3.8233843745509519e-02 -2.1505488510523370e-02 0.0000000000000000e+00 1
3.4293673514952890e-02 -1.3634912759107838e-02 0.0000000000000000e+00 1
3.9105952366935384e-02 -5.9161061171972293e-03 0.0000000000000000e+00 1
3.0034151461529497e-02 -5.6502089106738986e-03 0.0000000000000000e+00 1
3.5228615899863869e-02 2.3466270471828835e-03 0.0000000000000000e+00 1
2.5022303492651166e-02 -1.3712174350488372e-02 0.0000000000000000e+00 1
2.5639948079418488e-02 2.7117233758721720e-03 0.0000000000000000e+00 1
3.1017950810333154e-02 1.0995085146949319e-02 0.0000000000000000e+00 1
2.1020256793052833e-02 1.1444980892263285e-02 0.0000000000000000e+00 1
2.6538570247891101e-02 1.9767278346755908e-02 0.0000000000000000e+00 1
3.6491758064402184e-02 1.9253623724095961e-02 0.0000000000000000e+00 1
3.2290794170435552e-02 2.7907058406357009e-02 0.0000000000000000e+00 1
1.5587106455987976e-02 2.9071660580864537e-03 0.0000000000000000e+00 1
4.2096887697260069e-02 2.7062207571672273e-02 0.0000000000000000e+00 1
3.7854613128235744e-02 3.5985841357173934e-02 0.0000000000000000e+00 1
4.9157907349966203e-02 3.5032686263660122e-02 0.0000000000000000e+00 1
4.3452289400669378e-02 4.4155544985357384e-02 0.0000000000000000e+00 1
5.2837059307994129e-02 4.3640042040344766e-02 0.0000000000000000e+00 1
4.8648836566791989e-02 5.2309702994113423e-02 0.0000000000000000e+00 1
5.8228125730078815e-02 5.1726291498708651e-02 0.0000000000000000e+00 1
5.3948100623291653e-02 6.0420412563056532e-02 0.0000000000000000e+00 1
1.0670690675108809e-02 1.2065269388034596e-02 0.0000000000000000e+00 1
3.2924452235742474e-02 4.3875984274563441e-02 0.0000000000000000e+00 1
6.3587098738924555e-02 5.9786733321548630e-02 0.0000000000000000e+00 1
5.9448718326046847e-02 6.8584779353948910e-02 0.0000000000000000e+00 1
4.9494311924665232e-02 6.9248767614038420e-02 0.0000000000000000e+00 1
5.5096008077212079e-02 7.7526119089903298e-02 0.0000000000000000e+00 1
6.5081628923434734e-02 7.6750956381636620e-02 0.0000000000000000e+00 1
6.0844412634792219e-02 8.5724989278965838e-02 0.0000000000000000e+00 1
7.0792658718131285e-02 8.4850564408902512e-02 0.0000000000000000e+00 1
6.6577795987153729e-02 9.3873119427150431e-02 0.0000000000000000e+00 1
5.3093792599142303e-03 2.8757112220834623e-03 0.0000000000000000e+00 1
4.4875779858395928e-02 7.8386781481506018e-02 0.0000000000000000e+00 1
4.6209635525832973e-02 1.7877631716668077e-02 0.0000000000000000e+00 1
2.3063535132335444e-02 2.8898748040483924e-02 0.0000000000000000e+00 1
7.6558145385568613e-02 9.3017840573187974e-02 0.0000000000000000e+00 1
7.2485864073167511e-02 1.0211033879681759e-01 0.0000000000000000e+00 1
6.2276341003057789e-02 1.0298870095714903e-01 0.0000000000000000e+00 1
6.8109427320809129e-02 1.1070877726697566e-01 0.0000000000000000e+00 1
7.8337888511053028e-02 1.1021512663594893e-01 0.0000000000000000e+00 1
7.2943506354694959e-02 1.1944540321852683e-01 0.0000000000000000e+00 1
8.3954001320193872e-02 1.1842030122129310e-01 0.0000000000000000e+00 1
8.0136499676515580e-02 1.2747110763646693e-01 0.0000000000000000e+00 1
9.0125258859618279e-02 1.2641207563799367e-01 0.0000000000000000e+00 1
8.6016427287186892e-02 1.3558007658723431e-01 0.0000000000000000e+00 1
6.1961940631367993e-02 4.3927824125363321e-02 0.0000000000000000e+00 1
4.4257647031362153e-02 1.8527499224154384e-03 0.0000000000000000e+00 1
8.8282222335452271e-02 1.0945553946296299e-01 0.0000000000000000e+00 1
3.1070041051123955e-04 1.1579640321910384e-02 0.0000000000000000e+00 1
8.0521198943785510e-02 8.4145804583076883e-02 0.0000000000000000e+00 1
9.5912906611233750e-02 1.3452661394561063e-01 0.0000000000000000e+00 1
9.1864837422672263e-02 1.4354912353055388e-01 0.0000000000000000e+00 1
3.9250905644303932e-02 6.9722519756815551e-02 0.0000000000000000e+00 1
5.7755179405893378e-02 1.1168911246513082e-01 0.0000000000000000e+00 1
6.4217004969925467e-03 2.1324294391049145e-02 0.0000000000000000e+00 1
1.0101186626865252e-02 -6.3102383805169479e-03 0.0000000000000000e+00 1
-6.5198277002534184e-04 -6.1777526059994189e-03 0.0000000000000000e+00 1
4.5817095432709827e-03 -1.5770683299611211e-02 0.0000000000000000e+00 1
-6.2574953682947940e-03 -1.5839148992668344e-02 0.0000000000000000e+00 1
-1.1170326329175170e-03 -2.5499533625635028e-02 0.0000000000000000e+00 1
-1.2188632260279237e-02 -2.5647373047871642e-02 0.0000000000000000e+00 1
-6.9856826847671458e-03 -3.5530894495283939e-02 0.0000000000000000e+00 1
-1.8359883476928764e-02 -3.5804982540680763e-02 0.0000000000000000e+00 1
-1.3156309014317524e-02 -4.5421263854547742e-02 0.0000000000000000e+00 1
-2.5104016970267824e-02 -4.5643681463409441e-02 0.0000000000000000e+00 1
-1.7762822518890359e-02 -5.6791629001610187e-02 0.0000000000000000e+00 1
-3.0912886191951823e-02 -5.6020511841003207e-02 0.0000000000000000e+00 1
-2.5508845167754320e-02 -6.6930759121874683e-02 0.0000000000000000e+00 1
-2.3985727762886240e-03 -4.4730204583071559e-02 0.0000000000000000e+00 1
-3.7135346068099623e-02 -6.6800274751396133e-02 0.0000000000000000e+00 1
-3.1952030758017530e-02 -7.7646538637322002e-02 0.0000000000000000e+00 1
-4.4022820391611650e-02 -7.7784584416124014e-02 0.0000000000000000e+00 1
-3.8518270313562947e-02 -8.8553571080645099e-02 0.0000000000000000e+00 1
-5.1114204156458135e-02 -8.8461743885332442e-02 0.0000000000000000e+00 1
-4.5209933471973336e-02 -9.9508496356447845e-02 0.0000000000000000e+00 1
-5.7877999453362639e-02 -9.9485035677770853e-02 0.0000000000000000e+00 1
-5.2185909707846007e-02 -1.1042088979173115e-01 0.0000000000000000e+00 1
-6.4627845574365253e-02 -1.1057196261727599e-01 0.0000000000000000e+00 1
-5.8440752207857466e-02 -1.2169392150648486e-01 0.0000000000000000e+00 1
-7.1315244238489700e-02 -1.2180175203235717e-01 0.0000000000000000e+00 1
-6.4413306530415410e-02 -1.3334040140923969e-01 0.0000000000000000e+00 1
-7.7937830047861825e-02 -1.3315004911178271e-01 0.0000000000000000e+00 1
-2.0423448410908311e-02 -7.9214706656072123e-02 0.0000000000000000e+00 1
9.9144252525155303e-03 -2.5926820803960627e-02 0.0000000000000000e+00 1
-1.7875614255206524e-02 -1.6081576873060707e-02 0.0000000000000000e+00 1
-4.1536296359788644e-02 -1.1121740574323759e-01 0.0000000000000000e+00 1
-7.1464370873171673e-02 -1.4457979813305391e-01 0.0000000000000000e+00 1
-8.4666751180302036e-02 -1.4442278195066841e-01 0.0000000000000000e+00 1
-7.8259765936141867e-02 -1.5585556107890408e-01 0.0000000000000000e+00 1
-9.1402274774121189e-02 -1.5567910129490525e-01 0.0000000000000000e+00 1
-8.4992286071564560e-02 -1.6713162237234869e-01 0.0000000000000000e+00 1
-9.8072910118386869e-02 -1.6693505657422331e-01 0.0000000000000000e+00 1
-9.7311052617537835e-02 -1.4456537555742296e-01 0.0000000000000000e+00 1
-3.6175418929919059e-02 -4.5293324334705218e-02 0.0000000000000000e+00 1
-5.7070161638605621e-02 -1.4541673795539595e-01 0.0000000000000000e+00 1
-9.1896256049592839e-02 -1.7825690031972086e-01 0.0000000000000000e+00 1
-1.0475897593072414e-01 -1.7816052056962911e-01 0.0000000000000000e+00 1
-7.7215577882776859e-02 -1.1069613212822829e-01 0.0000000000000000e+00 1
-5.5648593862707943e-02 -7.7634415699506937e-02 0.0000000000000000e+00 1
3.4506062241518323e-02 7.9226553249887102e-02 0.0000000000000000e+00 1
7.6635446070748417e-02 1.3559426248599021e-01 0.0000000000000000e+00 1
-9.8687162710652282e-02 -1.8939805577437210e-01 0.0000000000000000e+00 1
-1.1141946434828104e-01 -1.8939319643377597e-01 0.0000000000000000e+00 1
-1.0542667979266543e-01 -2.0045271352354435e-01 0.0000000000000000e+00 1
-1.1796417607786869e-01 -2.0044248712859258e-01 0.0000000000000000e+00 1
-1.1762002772688232e-01 -1.7811581419969519e-01 0.0000000000000000e+00 1
-1.1223211628957604e-01 -2.1127759178784561e-01 0.0000000000000000e+00 1
-1.2445439909505683e-01 -2.1150799596718256e-01 0.0000000000000000e+00 1
-7.9305278159718079e-02 -1.7876713720447579e-01 0.0000000000000000e+00 1
-1.3010328811628358e-01 -2.0063178360001704e-01 0.0000000000000000e+00 1
-1.3681378514781906e-01 -2.1122907433830335e-01 0.0000000000000000e+00 1
-1.3084432790054204e-01 -2.2203351820775064e-01 0.0000000000000000e+00 1
-1.4268271621209588e-01 -2.2200031793604236e-01 0.0000000000000000e+00 1
-1.3661363689037048e-01 -2.3268051117444438e-01 0.0000000000000000e+00 1
-1.4871516172757251e-01 -2.3254548623231819e-01 0.0000000000000000e+00 1
-1.4235811129641909e-01 -2.4304954893969269e-01 0.0000000000000000e+00 1
-1.5545694969130491e-01 -2.4248232081047305e-01 0.0000000000000000e+00 1
-1.4972625659881547e-01 -2.5278086703677272e-01 0.0000000000000000e+00 1
-4.7937486200333324e-03 2.1709338961317846e-02 0.0000000000000000e+00 1
-1.6110558431448724e-01 -2.5321714748274826e-01 0.0000000000000000e+00 1
-1.5574907352726841e-01 -2.6265592832117335e-01 0.0000000000000000e+00 1
-1.6703157595524570e-01 -2.6286335255501225e-01 0.0000000000000000e+00 1
-1.6169183568158918e-01 -2.7220364043757900e-01 0.0000000000000000e+00 1
-1.4359799156559805e-01 -2.6342057513394040e-01 0.0000000000000000e+00 1
-1.7226069555338314e-01 -2.7204420750208014e-01 0.0000000000000000e+00 1
-1.6747173839308288e-01 -2.8154877487240948e-01 0.0000000000000000e+00 1
-1.2505900401699646e-01 -2.3281094542384892e-01 0.0000000000000000e+00 1
-1.6010026219994450e-01 -2.3398568235482181e-01 0.0000000000000000e+00 1
-1.0056210017613387e-01 -2.1156156495051867e-01 0.0000000000000000e+00 1
4.0265021776240584e-02 8.7313447514273668e-02 0.0000000000000000e+00 1
8.5953284953477538e-02 9.2396267280927022e-02 0.0000000000000000e+00 1
9.0387115003914276e-02 8.4820688445847905e-02 0.0000000000000000e+00 1
1.0102681508220507e-01 1.4229615060844178e-01 0.0000000000000000e+00 1
9.7648902822979042e-02 1.5144186214433908e-01 0.0000000000000000e+00 1
8.8094111498788125e-02 1.5243091740612325e-01 0.0000000000000000e+00 1
9.3858613597003995e-02 1.6036843341639162e-01 0.0000000000000000e+00 1
1.0345757655896594e-01 1.5933803616846792e-01 0.0000000000000000e+00 1
9.9654632532744605e-02 1.6819506526983036e-01 0.0000000000000000e+00 1
1.0467233105065288e-01 1.3337394562821947e-01 0.0000000000000000e+00 1
1.0873354321631003e-01 1.6690194068728204e-01 0.0000000000000000e+00 1
1.0543706120858445e-01 1.7588729127111266e-01 0.0000000000000000e+00 1
1.1212761256368488e-01 1.5859096319033456e-01 0.0000000000000000e+00 1
-1.7927331712733763e-01 -2.8056738900050798e-01 0.0000000000000000e+00 1
-1.7333303867280225e-01 -2.9051158462377763e-01 0.0000000000000000e+00 1
-1.8360555569431311e-01 -2.9035611083565399e-01 0.0000000000000000e+00 1
-1.7877422175542457e-01 -2.9934151906656781e-01 0.0000000000000000e+00 1
-1.4287922344810514e-01 -2.0003013513579418e-01 0.0000000000000000e+00 1
-1.7679839930173263e-01 -2.6364119595025581e-01 0.0000000000000000e+00 1
5.1767412831626045e-02 1.0375083334836249e-01 0.0000000000000000e+00 1
9.5904857056758316e-02 1.7720043920277373e-01 0.0000000000000000e+00 1
1.0172271887380450e-01 1.8476073812566557e-01 0.0000000000000000e+00 1
1.1090123331244112e-01 1.8373267727073939e-01 0.0000000000000000e+00 1
1.0771649388959229e-01 1.9209440885479165e-01 0.0000000000000000e+00 1
-1.9048488622879958e-01 -2.9860910328517631e-01 0.0000000000000000e+00 1
-1.8443492072176187e-01 -3.0753035945683477e-01 0.0000000000000000e+00 1
1.1645736029936764e-01 1.9126875188623504e-01 0.0000000000000000e+00 1
1.1358236924990836e-01 1.9929395339850370e-01 0.0000000000000000e+00 1
8.4670414622871143e-02 7.5937629529839984e-02 0.0000000000000000e+00 1
4.5830502731767905e-02 1.1327101724147315e-01 0.0000000000000000e+00 1
4.0528271046427672e-02 1.0197943852652545e-02 0.0000000000000000e+00 1
4.9582991607084959e-02 9.1035711834200183e-03 0.0000000000000000e+00 1
5.5064916124785201e-02 1.6309780710960807e-02 0.0000000000000000e+00 1
5.1985264641573811e-02 2.5069937443055482e-02 0.0000000000000000e+00 1
6.0375129121209653e-02 2.3130273192461283e-02 0.0000000000000000e+00 1
5.8280095564635960e-02 3.1121115124771122e-02 0.0000000000000000e+00 1
5.3357491956608702e-02 7.4442071422963082e-04 0.0000000000000000e+00 1
5.8151782790937537e-02 7.4434342142690683e-03 0.0000000000000000e+00 1
6.7189455006107152e-02 2.8462760603727408e-02 0.0000000000000000e+00 1
-1.9347105797901670e-01 -2.8865238228934720e-01 0.0000000000000000e+00 1
-1.6310128057572784e-01 -2.9164967461886948e-01 0.0000000000000000e+00 1
1.2251749361808950e-01 1.9909677083301730e-01 0.0000000000000000e+00 1
1.1816980465723755e-01 2.0689143141220140e-01 0.0000000000000000e+00 1
1.2697138317563184e-01 2.1246524506725256e-01 0.0000000000000000e+00 1
6.7018376264019644e-02 5.1021981259371643e-02 0.0000000000000000e+00 1
7.3878587258032979e-02 5.8269235502303091e-02 0.0000000000000000e+00 1
7.1130576672698120e-02 4.2431643562637358e-02 0.0000000000000000e+00 1
8.5825852694703691e-02 1.7897669140247449e-01 0.0000000000000000e+00 1
5.4602296754057700e-02 -6.2561700963901460e-03 0.0000000000000000e+00 1
9.4051665964803938e-02 1.1747185478959922e-01 0.0000000000000000e+00 1
9.7729283716939008e-02 1.0852191236986615e-01 0.0000000000000000e+00 1
9.1423352802217694e-02 1.0092254137264375e-01 0.0000000000000000e+00 1
9.9857224242114295e-02 1.2549851722561925e-01 0.0000000000000000e+00 1
8.2173459676822769e-02 1.0135294235374805e-01 0.0000000000000000e+00 1
1.0606629426961357e-01 2.1366153696550708e-01 0.0000000000000000e+00 1
7.5022953288039790e-02 7.6241049764918439e-02 0.0000000000000000e+00 1
7.9464939950598737e-02 6.7687490212915868e-02 0.0000000000000000e+00 1
8.4966466661755419e-02 5.9030501988734843e-02 0.0000000000000000e+00 1
1.3028512207703585e-01 2.2779367182966728e-01 0.0000000000000000e+00 1
7.9682442815358481e-02 5.2514003846361915e-02 0.0000000000000000e+00 1
-1.7512327217589996e-01 -3.0864551814830682e-01 0.0000000000000000e+00 1
6.2509260257708060e-02 1.4326729006257399e-01 0.0000000000000000e+00 1
7.4277301398124052e-02 1.6161450726331777e-01 0.0000000000000000e+00 1
4.5715005912700859e-03 5.1506058300716237e-02 0.0000000000000000e+00 1
1.0028305781922910e-02 4.0766113239079936e-02 0.0000000000000000e+00 1
1.6113553112815693e-02 5.0819527521054647e-02 0.0000000000000000e+00 1
1.1120403826898948e-02 6.1670641191884062e-02 0.0000000000000000e+00 1
2.2234017261542411e-02 6.0916822644892017e-02 0.0000000000000000e+00 1
2.1483031651741584e-02 4.0268034176439461e-02 0.0000000000000000e+00 1
-1.2359259158429298e-01 -1.8961184002022513e-01 0.0000000000000000e+00 1
-1.3033072543759033e-01 -1.7808405163588228e-01 0.0000000000000000e+00 1
-1.2221518162505449e-01 -1.6629705438727860e-01 0.0000000000000000e+00 1
6.9364520280457170e-02 6.7966954644960456e-02 0.0000000000000000e+00 1
9.6465557416366060e-02 1.9769919932318542e-01 0.0000000000000000e+00 1
3.6471280149810680e-02 -3.7579727374018171e-02 0.0000000000000000e+00 1
2.5912124427143038e-02 -3.6810384191446888e-02 0.0000000000000000e+00 1
1.9669457124196460e-02 -4.5272709577457472e-02 0.0000000000000000e+00 1
1.5037216546134782e-02 -3.5660190537739903e-02 0.0000000000000000e+00 1
2.1713124771832886e-02 -2.5380699335440800e-02 0.0000000000000000e+00 1
1.5809759012432223e-01 3.1238979984489817e-01 0.0000000000000000e+00 1
1.0764867516905142e-01 1.4926217242265860e-01 0.0000000000000000e+00 1
1.1053461476184102e-01 2.2100667783106431e-01 0.0000000000000000e+00 1
1.1927726744611698e-01 2.2120564998567621e-01 0.0000000000000000e+00 1
1.2050470237127178e-01 2.4001104053968697e-01 0.0000000000000000e+00 1
-1.3108665424568369e-01 -2.6497353517635008e-01 0.0000000000000000e+00 1
-1.3610558296301845e-01 -2.5383480109350559e-01 0.0000000000000000e+00 1
-1.3878205333289689e-01 -2.7448035237278690e-01 0.0000000000000000e+00 1
1.7686927444383990e-02 -6.4013571667182051e-02 0.0000000000000000e+00 1
5.7882802897544642e-03 -6.3538602868976529e-02 0.0000000000000000e+00 1
-1.1748918489787106e-03 -7.2168523438225163e-02 0.0000000000000000e+00 1
-6.0419317999138213e-03 -6.1983869446952236e-02 0.0000000000000000e+00 1
-1.1591488928768118e-01 -2.4299913674083765e-01 0.0000000000000000e+00 1
-3.0352040264324701e-02 -1.4678171363839804e-03 0.0000000000000000e+00 1
-1.7339106540540883e-02 -2.3474174625908919e-03 0.0000000000000000e+00 1
-3.7477530601560713e-02 -1.2238643973568136e-02 0.0000000000000000e+00 1
-3.1457642594614393e-02 -2.2601007110704036e-02 0.0000000000000000e+00 1
-1.0386246797487733e-01 -1.5585067438478933e-01 0.0000000000000000e+00 1
-1.0826092587807298e-01 -1.4435717507950885e-01 0.0000000000000000e+00 1
-9.0868937173313818e-02 -1.3320080335836840e-01 0.0000000000000000e+00 1
-8.3798181035911856e-02 -1.2205988806199575e-01 0.0000000000000000e+00 1
-8.8348400963022516e-02 -1.1128219088489395e-01 0.0000000000000000e+00 1
-3.1203175872344534e-03 -9.3461300683632759e-02 0.0000000000000000e+00 1
-1.5318440313695067e-02 -9.1571641971487011e-02 0.0000000000000000e+00 1
-2.2295037878861352e-02 -1.0185385688859594e-01 0.0000000000000000e+00 1
-1.1019062302561955e-01 -1.6706648882492461e-01 0.0000000000000000e+00 1
1.3003707216856697e-01 2.6156965535927279e-01 0.0000000000000000e+00 1
-1.9404323121157940e-01 -3.0776603305563527e-01 0.0000000000000000e+00 1
-1.8934191198275224e-01 -3.1595287369009273e-01 0.0000000000000000e+00 1
-2.5854391267654493e-02 -1.2531393867524568e-01 0.0000000000000000e+00 1
1.3620584203507358e-01 2.7177401459356654e-01 0.0000000000000000e+00 1
-7.0231034116282204e-02 -9.9537282134938954e-02 0.0000000000000000e+00 1
5.3516269655913842e-02 1.2223060731107760e-01 0.0000000000000000e+00 1
6.4170774042488471e-02 1.2547309187335159e-01 0.0000000000000000e+00 1
-1.7852614641498793e-01 -3.2567404319548365e-01 0.0000000000000000e+00 1
-5.0705055502392855e-02 -1.5770272562554188e-01 0.0000000000000000e+00 1
-4.2674462799293669e-02 -1.4669332715171951e-01 0.0000000000000000e+00 1
-4.9431873940110671e-02 -1.3240864481676598e-01 0.0000000000000000e+00 1
-7.1906998455678287e-02 -6.6873276546692964e-02 0.0000000000000000e+00 1
-5.1784395985372753e-02 -3.4310048394253369e-02 0.0000000000000000e+00 1
-5.8352214928337240e-02 -4.5513557046815735e-02 0.0000000000000000e+00 1
-5.3165632469510615e-02 -5.6120555064128150e-02 0.0000000000000000e+00 1
-1.0879625051419659e-02 1.0199110787316128e-02 0.0000000000000000e+00 1
-1.4861227061920801e-01 -2.1273641625353812e-01 0.0000000000000000e+00 1
-6.2903701356935057e-02 -8.8475373472797686e-02 0.0000000000000000e+00 1
-1.9856847124164859e-01 -3.1632268896588200e-01 0.0000000000000000e+00 1
-1.9487854981015765e-01 -3.2375213280400222e-01 0.0000000000000000e+00 1
-7.9084124267776917e-02 -7.7958576740608437e-02 0.0000000000000000e+00 1
1.4610526448854794e-01 2.8918644836492791e-01 0.0000000000000000e+00 1
-1.5669634906053886e-01 -2.8211606033725700e-01 0.0000000000000000e+00 1
-3.8091749091366450e-02 -1.2320266221474531e-01 0.0000000000000000e+00 1
1.4250241672066669e-01 2.8316995078491358e-01 0.0000000000000000e+00 1
-2.1027056576305253e-01 -3.2553299940387626e-01 0.0000000000000000e+00 1
-2.0509603684210245e-01 -3.3147631641491582e-01 0.0000000000000000e+00 1
-2.0700720647062010e-01 -3.3945954557959396e-01 0.0000000000000000e+00 1
-1.9923173937373218e-01 -3.3753086682324607e-01 0.0000000000000000e+00 1
1.2432586968183343e-01 1.7722716775065586e-01 0.0000000000000000e+00 1
8.9950933662096597e-02 1.6939476191497171e-01 0.0000000000000000e+00 1
-1.5043166468522290e-01 -2.7297899121607661e-01 0.0000000000000000e+00 1
-1.9071098348497850e-01 -3.3915771065746825e-01 0.0000000000000000e+00 1
-1.1856314875911241e-01 -2.2216152746513984e-01 0.0000000000000000e+00 1
1.1520102205197283e-01 1.7427439269719400e-01 0.0000000000000000e+00 1
-6.4637853127588310e-02 -1.5659935727288049e-01 0.0000000000000000e+00 1
-1.7667543697654411e-02 -1.1449238030395532e-01 0.0000000000000000e+00 1
7.8287890764237839e-02 3.6786627579162359e-02 0.0000000000000000e+00 1
8.2528238665562137e-02 1.4418804677092456e-01 0.0000000000000000e+00 1
-7.1887150861969978e-02 -1.6775136256883594e-01 0.0000000000000000e+00 1
3.1569979907147418e-02 -2.8605619895157815e-02 0.0000000000000000e+00 1
5.0736136264723786e-02 8.6531917120978769e-02 0.0000000000000000e+00 1
1.2758260822061154e-02 -5.4286913141048179e-02 0.0000000000000000e+00 1
1.0033844618119866e-01 9.9376015469753914e-02 0.0000000000000000e+00 1
1.6027826824886110e-01 3.1815388289662572e-01 0.0000000000000000e+00 1
-2.0424201321849772e-01 -3.0918371121457022e-01 0.0000000000000000e+00 1
-1.9254336500629324e-01 -3.3127964362168583e-01 0.0000000000000000e+00 1
-7.4138827101537366e-02 -1.9085376579032046e-01 0.0000000000000000e+00 1
7.5675215268816737e-02 2.9556307501114661e-02 0.0000000000000000e+00 1
-1.9991171841163546e-01 -3.4946355505895071e-01 0.0000000000000000e+00 1
4.2625042412346194e-03 -8.3492086713862559e-02 0.0000000000000000e+00 1
7.0315043975324440e-02 1.5979711758883984e-02 0.0000000000000000e+00 1
3.9030199338386919e-03 -3.5228388687860074e-02 0.0000000000000000e+00 1
1.2458321577950790e-01 2.5346335631358746e-01 0.0000000000000000e+00 1
1.2998907957778663e-01 2.5187664431352180e-01 0.0000000000000000e+00 1
5.6477246349766509e-02 9.4726839910701521e-02 0.0000000000000000e+00 1
-2.0836431504388736e-01 -3.5838418769097158e-01 0.0000000000000000e+00 1
-1.6409914229692284e-02 2.0357347149834542e-02 0.0000000000000000e+00 1
1.5245652348784833e-02 -1.5677224949919279e-02 0.0000000000000000e+00 1
6.4415752190135664e-02 3.2921345861690850e-03 0.0000000000000000e+00 1
9.3605618593763276e-02 7.6100044573973943e-02 0.0000000000000000e+00 1
4.4063450245852745e-02 6.0865679345615667e-02 0.0000000000000000e+00 1
3.3195719843475628e-02 6.0880130071094940e-02 0.0000000000000000e+00 1
2.4514226226319692e-02 -5.4975054656954167e-02 0.0000000000000000e+00 1
6.2966285141919154e-02 1.5613771762002480e-02 0.0000000000000000e+00 1
2.9414539225024981e-02 8.8963384009428298e-02 0.0000000000000000e+00 1
1.3280409889493544e-01 2.5682565925269185e-01 0.0000000000000000e+00 1
-1.2901748465650315e-01 -2.4383921480863460e-01 0.0000000000000000e+00 1
-9.8283929202037879e-02 -2.2387314554111440e-01 0.0000000000000000e+00 1
-2.1532069681264393e-01 -3.4065886333707812e-01 0.0000000000000000e+00 1
-2.0551442792901983e-01 -3.4680091155650494e-01 0.0000000000000000e+00 1
1.6720719080923943e-02 2.0416593206027192e-02 0.0000000000000000e+00 1
2.8578721758472113e-02 7.0413282337103728e-02 0.0000000000000000e+00 1
-1.5243406144230248e-01 -2.9373170866473891e-01 0.0000000000000000e+00 1
4.2633581251206032e-02 -2.9755495027440661e-02 0.0000000000000000e+00 1
-1.1314648371534038e-01 -1.3296748248482027e-01 0.0000000000000000e+00 1
2.0271724744206202e-02 -5.9551595262733112e-03 0.0000000000000000e+00 1
8.4193754840560825e-02 1.6118419675309115e-01 0.0000000000000000e+00 1
-6.6310774128263028e-02 -1.7999461301989519e-01 0.0000000000000000e+00 1
1.0926324874986773e-01 1.2572087125051637e-01 0.0000000000000000e+00 1
-2.2171858219944329e-01 -3.5884012202740651e-01 0.0000000000000000e+00 1
-8.4363486593929116e-03 -8.1338788778068730e-02 0.0000000000000000e+00 1
-1.7109533753375206e-01 -2.3542283898082494e-01 0.0000000000000000e+00 1
-2.8954864645223892e-02 -3.4869186157310834e-02 0.0000000000000000e+00 1
-2.0250065081084867e-01 -3.2392016147778124e-01 0.0000000000000000e+00 1
-1.6925436538269323e-01 -3.0061064474905486e-01 0.0000000000000000e+00 1
1.1466953287661674e-01 2.1418003998024360e-01 0.0000000000000000e+00 1
3.8037182190591212e-02 5.2198801118856192e-02 0.0000000000000000e+00 1
1.1721563625624359e-01 1.5135232472391083e-01 0.0000000000000000e+00 1
-2.1910421527892565e-01 -3.6127374942829632e-01 0.0000000000000000e+00 1
2.2233977963896250e-03 3.1141378685677359e-02 0.0000000000000000e+00 1
-2.2049087819232396e-01 -3.6460741086602266e-01 0.0000000000000000e+00 1
-2.1506414794969858e-01 -3.6484020889079943e-01 0.0000000000000000e+00 1
7.1285089874986857e-02 3.5135541402747543e-02 0.0000000000000000e+00 1
-2.7011473373015456e-02 -8.9162900087427499e-02 0.0000000000000000e+00 1
1.2943307068757651e-01 1.9445316750976491e-01 0.0000000000000000e+00 1
4.7073690803591993e-02 -5.7374869305045016e-03 0.0000000000000000e+00 1
1.5307982611283885e-01 2.8995156103428682e-01 0.0000000000000000e+00 1
-8.6787675340451065e-02 -1.8981182380096812e-01 0.0000000000000000e+00 1
8.9677658983551289e-03 -4.4022688081469370e-02 0.0000000000000000e+00 1
-9.2247623633485779e-02 -9.9175140963881636e-02 0.0000000000000000e+00 1
4.5780104522266003e-02 9.5279869740786893e-02 0.0000000000000000e+00 1
-1.6586212452697519e-01 -3.1064772748772784e-01 0.0000000000000000e+00 1
-2.2002367638180165e-01 -3.6714075563876863e-01 0.0000000000000000e+00 1
1.6228345438014527e-01 3.2364297472041270e-01 0.0000000000000000e+00 1
-1.8822456936218090e-01 -2.8317171255242618e-01 0.0000000000000000e+00 1
-9.1097116169046588e-03 3.2198532845283748e-02 0.0000000000000000e+00 1
-6.0247779477892532e-02 -6.7017743001834218e-02 0.0000000000000000e+00 1
7.8562503011364193e-02 1.5281249859199897e-01 0.0000000000000000e+00 1
1.4267907252440137e-01 2.7292274776387065e-01 0.0000000000000000e+00 1
1.0994300782257196e-01 2.0652023790802670e-01 0.0000000000000000e+00 1
1.2282731969519903e-01 2.2730482932128973e-01 0.0000000000000000e+00 1
-1.4253562430919445e-02 -6.8712509964851384e-02 0.0000000000000000e+00 1
2.3765049500552408e-02 8.1246195420490760e-02 0.0000000000000000e+00 1
-1.8104116648413843e-01 -3.1687234987236440e-01 0.0000000000000000e+00 1
1.3323448323384342e-02 3.0469193623126167e-02 0.0000000000000000e+00 1
-2.0955876778133056e-01 -3.5284684382255305e-01 0.0000000000000000e+00 1
2.6300949286225183e-02 5.1206621870820888e-02 0.0000000000000000e+00 1
-3.3875254927630119e-02 -1.0082079562427072e-01 0.0000000000000000e+00 1
1.2453929336202635e-01 2.4560029363405539e-01 0.0000000000000000e+00 1
1.3422802414017951e-01 2.1179570023864600e-01 0.0000000000000000e+00 1
-1.7148387979475313e-01 -2.5398732619098330e-01 0.0000000000000000e+00 1
1.6863209643764027e-01 3.3946939721450142e-01 0.0000000000000000e+00 1
1.3516736658820200e-01 2.6168608304305890e-01 0.0000000000000000e+00 1
6.4526970060055852e-02 3.6542416317926894e-02 0.0000000000000000e+00 1
-9.3910157274060990e-02 -2.0003291337174087e-01 0.0000000000000000e+00 1
6.7181691685203090e-02 1.3456114150134471e-01 0.0000000000000000e+00 1
-2.1287804485593254e-01 -3.5769035998780152e-01 0.0000000000000000e+00 1
3.0166585086418774e-02 -2.0567778970143637e-02 0.0000000000000000e+00 1
1.1939063095897162e-01 1.8384725382405870e-01 0.0000000000000000e+00 1
8.5809671138916396e-02 5.1040610869706862e-02 0.0000000000000000e+00 1
-1.8686889950422406e-01 -3.2439126193917717e-01 0.0000000000000000e+00 1
1.2059362853807791e-01 1.5951185743198826e-01 0.0000000000000000e+00 1
-1.6592822628290574e-01 -2.4410340888356330e-01 0.0000000000000000e+00 1
2.9523285263698164e-02 3.5387133251003552e-02 0.0000000000000000e+00 1
1.2776716858579418e-01 2.1951331218612274e-01 0.0000000000000000e+00 1
1.1263662115541503e-01 1.3394057659029590e-01 0.0000000000000000e+00 1
1.0536294372342744e-01 1.0767403184183087e-01 0.0000000000000000e+00 1
9.7661459294050415e-02 8.2418741556544467e-02 0.0000000000000000e+00 1
-1.8559478981039496e-01 -2.6442213591713937e-01 0.0000000000000000e+00 1
-1.8107417964748374e-01 -2.5507050025078604e-01 0.0000000000000000e+00 1
-1.0045630219960064e-01 -1.1193060631575637e-01 0.0000000000000000e+00 1
-8.1402394892918603e-02 -1.0051982685859502e-01 0.0000000000000000e+00 1
-1.5454980440362126e-01 -2.2357236408957573e-01 0.0000000000000000e+00 1
-6.7632348092458161e-02 -7.7558203177517160e-02 0.0000000000000000e+00 1
-1.3397072699506060e-01 -1.9079686418679104e-01 0.0000000000000000e+00 1
-7.4535054668093917e-02 -8.8818175041107075e-02 0.0000000000000000e+00 1
-4.2202312817903168e-02 -5.6415257210683842e-02 0.0000000000000000e+00 1
1.1882275497146225e-01 2.3307257169046577e-01 0.0000000000000000e+00 1
-1.6550525810265493e-01 -2.2527151120112757e-01 0.0000000000000000e+00 1
7.2683740015309931e-02 1.4383141435635766e-01 0.0000000000000000e+00 1
-4.8737080847954251e-02 -6.6962138357278878e-02 0.0000000000000000e+00 1
-1.5140028410892595e-01 -1.9455353909585582e-01 0.0000000000000000e+00 1
-1.0149114050630843e-01 -1.3446634236396884e-01 0.0000000000000000e+00 1
-1.5482425397191332e-01 -2.0420421143847373e-01 0.0000000000000000e+00 1
1.2622429550989073e-01 2.4951021388790751e-01 0.0000000000000000e+00 1
-9.4954909773623059e-02 -1.2310946102917904e-01 0.0000000000000000e+00 1
-1.1528764193393827e-01 -1.5502624240996038e-01 0.0000000000000000e+00 1
-2.1565278221391626e-01 -3.6137737875660925e-01 0.0000000000000000e+00 1
-1.1969958030635897e-01 -1.4382647109416996e-01 0.0000000000000000e+00 1
1.6818505071476611e-01 3.3827896501756166e-01 0.0000000000000000e+00 1
-1.3299262464445610e-01 -1.6528928507030899e-01 0.0000000000000000e+00 1
-1.3958676741863554e-01 -1.7383945417243152e-01 0.0000000000000000e+00 1
-8.8977063785135146e-02 -2.1215497557444352e-01 0.0000000000000000e+00 1
-4.7077924061233206e-02 -4.5167743714680936e-02 0.0000000000000000e+00 1
-2.9886712203825910e-02 -1.1281683990834175e-01 0.0000000000000000e+00 1
6.6794980325816461e-02 2.1186399232376425e-02 0.0000000000000000e+00 1
-4.0188754731109999e-02 -3.4001613483042412e-02 0.0000000000000000e+00 1
-5.4835343231902176e-03 1.5021729875835817e-03 0.0000000000000000e+00 1
1.0543824047603313e-01 1.9908258800913803e-01 0.0000000000000000e+00 1
1.4431026286073545e-03 -5.4097849989709956e-02 0.0000000000000000e+00 1
7.2047938448670842e-02 1.2761793092437401e-01 0.0000000000000000e+00 1
-2.6971027775549692e-02 -1.1024348140946818e-02 0.0000000000000000e+00 1
5.7314662610539142e-02 3.8175613088314637e-02 0.0000000000000000e+00 1
-9.5215466514515529e-03 -7.7887445893471564e-03 0.0000000000000000e+00 1
1.6371103295182737e-01 3.2792821614083834e-01 0.0000000000000000e+00 1
-1.8073964396713479e-01 -2.7150352135879141e-01 0.0000000000000000e+00 1
-2.1767327446450560e-02 -2.7000825145925597e-02 0.0000000000000000e+00 1
-1.0856404232461406e-01 -2.2167661415095946e-01 0.0000000000000000e+00 1
3.6328762899991152e-02 9.5950951785431005e-02 0.0000000000000000e+00 1
-2.1763603021136371e-01 -3.6364530904653375e-01 0.0000000000000000e+00 1
1.1588174345787439e-01 1.6454979404936251e-01 0.0000000000000000e+00 1
-2.0115676460116327e-01 -3.4327711574719177e-01 0.0000000000000000e+00 1
-7.7595125687686273e-03 -5.2810469967484813e-02 0.0000000000000000e+00 1
7.4004326901810899e-02 4.9158224869889328e-02 0.0000000000000000e+00 1
-1.9888810880736185e-01 -3.2905227745594473e-01 0.0000000000000000e+00 1
-2.2305651341048072e-01 -3.6498085396696306e-01 0.0000000000000000e+00 1
-1.9484005028702234e-01 -2.8133948671128683e-01 0.0000000000000000e+00 1
5.9082394047518409e-02 -9.4908617283791241e-03 0.0000000000000000e+00 1
1.4465329511122399e-01 2.7829776801783501e-01 0.0000000000000000e+00 1
1.5491531926754012e-01 2.9472927850275116e-01 0.0000000000000000e+00 1
-4.8212531921266004e-02 -1.1982639005592066e-01 0.0000000000000000e+00 1
-1.1541269511737332e-01 -2.3098076913706597e-01 0.0000000000000000e+00 1
1.2342867438817802e-01 1.9196344323217585e-01 0.0000000000000000e+00 1
1.5017791010064624e-01 3.0197197215341154e-01 0.0000000000000000e+00 1
1.3391912244671766e-01 2.4708045142848090e-01 0.0000000000000000e+00 1
9.2880809135808998e-02 9.3756985916073884e-02 0.0000000000000000e+00 1
-1.9909342996927004e-01 -2.9351309551442795e-01 0.0000000000000000e+00 1
1.2485943812868341e-01 2.0666032921287369e-01 0.0000000000000000e+00 1
1.0791315697111321e-01 1.4006133110668573e-01 0.0000000000000000e+00 1
6.3462043176146773e-02 1.1746289392781883e-01 0.0000000000000000e+00 1
1.2169747373803844e-01 2.1439683024012712e-01 0.0000000000000000e+00 1
5.9100085642261421e-02 2.1296909386584548e-03 0.0000000000000000e+00 1
1.0085316709111081e-01 1.9163469102530759e-01 0.0000000000000000e+00 1

Edges
180
1 2 1
2 3 1
3 4 1
4 5 1
5 6 1
6 7 1
7 8 1
8 9 1
9 10 1
10 11 1
11 12 1
12 13 1
13 14 1
14 15 1
15 16 1
16 17 1
17 18 1
18 19 1
19 20 1
20 21 1
21 22 1
22 23 1
23 24 1
24 25 1
25 26 1
26 27 1
27 28 1
28 29 1
29 30 1
30 31 1
31 32 1
32 33 1
33 34 1
34 35 1
35 36 1
36 37 1
37 38 1
38 39 1
39 40 1
40 41 1
41 42 1
42 43 1
43 44 1
44 45 1
45 46 1
46 47 1
47 48 1
48 49 1
49 50 1
50 51 1
51 52 1
52 53 1
53 54 1
54 55 1
55 56 1
56 57 1
57 58 1
58 59 1
59 60 1
60 61 1
61 62 1
62 63 1
63 64 1
64 65 1
65 66 1
66 67 1
67 68 1
68 69 1
69 70 1
70 71 1
71 72 1
72 73 1
73 74 1
74 75 1
75 76 1
76 77 1
77 78 1
78 79 1
79 80 1
80 81 1
81 82 1
82 83 1
83 84 1
84 85 1
85 86 1
86 87 1
87 88 1
88 89 1
89 90 1
90 91 1
91 92 1
92 93 1
93 94 1
94 95 1
95 96 1
96 97 1
97 98 1
98 99 1
99 100 1
100 101 1
101 102 1
102 103 1
103 104 1
104 105 1
105 106 1
106 107 1
107 108 1
108 109 1
109 110 1
110 111 1
111 112 1
112 113 1
113 114 1
114 115 1
115 116 1
116 117 1
117 118 1
118 119 1
119 120 1
120 121 1
121 122 1
122 123 1
123 124 1
124 125 1
125 126 1
126 127 1
127 128 1
128 129 1
129 130 1
130 131 1
131 132 1
132 133 1
133 134 1
134 135 1
135 136 1
136 137 1
137 138 1
138 139 1
139 140 1
140 141 1
141 142 1
142 143 1
143 144 1
144 145 1
145 146 1
146 147 1
147 148 1
148 149 1
149 150 1
150 151 1
151 152 1
152 153 1
153 154 1
154 155 1
155 156 1
156 157 1
157 158 1
158 159 1
159 160 1
160 161 1
161 162 1
162 163 1
163 164 1
164 165 1
165 166 1
166 167 1
167 168 1
168 169 1
169 170 1
170 171 1
171 172 1
172 173 1
173 174 1
174 175 1
175 176 1
176 177 1
177 178 1
178 179 1
179 180 1
180 1 1

Triangles
1224
90 91 244 1
60 61 451 1
193 443 444 1
280 427 429 1
450 439 451 1
472 270 558 1
85 242 253 1
554 251 566 1
90 244 257 1
253 256 623 1
98 99 622 1
252 253 623 1
270 472 628 1
313 383 515 1
378 380 567 1
133 134 505 1
581 483 612 1
135 195 423 1
515 383 557 1
443 193 446 1
119 120 255 1
554 250 695 1
280 278 427 1
556 616 627 1
120 121 477 1
477 121 648 1
6 7 241 1
134 423 505 1
195 413 423 1
462 458 615 1
61 185 451 1
253 242 256 1
451 439 453 1
134 135 423 1
260 527 569 1
245 237 251 1
251 554 695 1
299 462 615 1
568 29 663 1
431 220 564 1
380 479 567 1
136 565 679 1
393 568 663 1
84 85 253 1
225 414 415 1
101 96 660 1
143 557 606 1
439 450 466 1
231 570 616 1
244 91 473 1
185 422 450 1
527 260 570 1
343 345 510 1
396 188 696 1
136 137 565 1
600 155 641 1
557 383 606 1
587 562 617 1
347 581 612 1
235 80 254 1
359 508 509 1
188 396 638 1
280 429 673 1
95 103 675 1
215 418 697 1
184 440 537 1
626 365 650 1
298 425 426 1
99 100 622 1
359 509 510 1
497 618 665 1
426 431 564 1
380 382 479 1
231 549 570 1
185 450 451 1
418 215 500 1
414 225 441 1
198 657 659 1
240 524 689 1
83 237 245 1
489 349 672 1
618 350 665 1
264 263 596 1
60 451 630 1
657 491 659 1
455 626 650 1
205 133 505 1
193 444 637 1
191 460 461 1
349 489 677 1
251 252 566 1
494 600 641 1
247 249 452 1
382 388 479 1
345 359 510 1
230 245 246 1
556 231 616 1
413 195 601 1
254 247 452 1
263 442 596 1
298 424 425 1
220 431 559 1
426 425 431 1
432 183 548 1
137 138 613 1
287 587 617 1
614 501 631 1
320 558 576 1
248 246 250 1
269 311 424 1
3 239 580 1
240 521 524 1
347 496 581 1
315 308 446 1
392 643 649 1
91 92 473 1
507 614 631 1
97 98 622 1
255 477 619 1
191 139 460 1
407 209 605 1
485 391 567 1
259 236 261 1
235 254 452 1
477 248 619 1
258 260 569 1
643 202 649 1
2 3 580 1
508 359 535 1
278 298 427 1
251 237 252 1
388 478 479 1
391 378 567 1
424 311 425 1
200 411 645 1
80 81 254 1
558 270 576 1
542 599 670 1
411 200 652 1
462 287 617 1
241 7 603 1
348 472 558 1
403 315 446 1
500 215 545 1
181 430 442 1
23 24 480 1
241 591 686 1
245 251 695 1
395 445 447 1
308 443 446 1
90 257 690 1
418 433 697 1
478 388 480 1
230 82 245 1
180 258 569 1
565 137 613 1
509 203 510 1
540 468 574 1
483 484 612 1
445 395 696 1
232 256 503 1
209 407 676 1
272 269 424 1
246 245 695 1
218 522 573 1
301 300 447 1
425 311 430 1
265 540 574 1
206 508 535 1
464 200 645 1
262 240 689 1
440 184 684 1
464 661 662 1
237 84 253 1
528 224 532 1
256 232 623 1
218 23 480 1
450 449 466 1
464 465 661 1
261 236 580 1
391 485 692 1
522 434 573 1
518 500 545 1
100 101 660 1
438 310 440 1
668 487 674 1
515 487 668 1
242 262 609 1
89 90 690 1
81 82 230 1
49 50 263 1
218 480 531 1
139 140 460 1
484 330 612 1
223 585 602 1
191 461 572 1
87 240 262 1
620 235 635 1
300 395 447 1
457 187 458 1
547 32 578 1
422 314 449 1
425 430 431 1
497 496 594 1
83 84 237 1
304 301 447 1
284 310 438 1
287 462 634 1
528 532 546 1
611 476 635 1
516 411 654 1
1 2 236 1
180 1 258 1
422 449 450 1
496 347 594 1
383 590 606 1
24 478 480 1
510 203 523 1
141 187 457 1
422 185 560 1
82 83 245 1
542 481 563 1
411 652 654 1
599 333 670 1
381 392 633 1
278 275 298 1
288 439 466 1
258 236 259 1
200 464 662 1
443 312 444 1
46 47 468 1
314 294 449 1
1 236 258 1
289 288 466 1
348 471 472 1
214 129 456 1
459 458 462 1
470 542 563 1
522 218 531 1
497 594 618 1
414 441 530 1
440 310 624 1
211 131 455 1
395 396 696 1
526 234 527 1
219 17 507 1
275 272 424 1
17 18 507 1
585 454 602 1
229 125 467 1
488 197 489 1
242 86 262 1
527 234 569 1
306 312 443 1
383 319 590 1
457 458 459 1
225 415 703 1
374 369 463 1
227 122 475 1
343 510 691 1
523 502 665 1
334 647 651 1
122 123 475 1
269 267 311 1
284 282 310 1
298 275 424 1
86 87 262 1
225 127 441 1
405 404 534 1
201 474 699 1
373 547 578 1
147 197 488 1
125 126 467 1
3 4 239 1
593 440 624 1
288 284 438 1
81 230 254 1
370 361 498 1
395 314 396 1
85 86 242 1
609 262 689 1
43 44 481 1
519 518 584 1
474 201 588 1
298 426 427 1
216 26 485 1
427 426 428 1
326 333 552 1
434 223 573 1
203 502 523 1
410 409 418 1
129 130 456 1
300 294 314 1
441 214 530 1
607 511 644 1
330 484 683 1
465 370 498 1
190 486 487 1
223 434 585 1
408 407 409 1
292 289 466 1
616 259 627 1
247 246 248 1
294 292 449 1
398 397 474 1
141 142 187 1
419 500 501 1
170 639 640 1
452 611 635 1
128 214 441 1
288 438 439 1
131 132 455 1
127 128 441 1
390 389 407 1
205 505 506 1
306 304 312 1
437 620 635 1
434 408 585 1
410 418 419 1
227 475 476 1
478 216 479 1
591 239 686 1
140 141 457 1
230 246 247 1
132 205 455 1
130 211 456 1
300 314 395 1
308 306 443 1
408 409 410 1
396 314 422 1
387 386 389 1
419 418 500 1
344 362 493 1
664 358 667 1
10 11 226 1
126 225 467 1
430 311 596 1
369 367 463 1
138 139 191 1
87 88 240 1
444 312 445 1
493 362 494 1
40 41 495 1
385 384 386 1
534 404 681 1
25 216 478 1
442 430 596 1
135 136 195 1
390 407 408 1
397 315 403 1
140 457 460 1
382 381 384 1
26 27 485 1
449 292 466 1
206 535 539 1
276 275 278 1
389 386 412 1
448 229 610 1
381 379 392 1
20 21 223 1
377 375 516 1
562 461 617 1
526 527 528 1
380 379 381 1
437 221 620 1
621 384 633 1
18 19 228 1
124 229 448 1
372 374 375 1
490 357 491 1
144 145 190 1
375 374 411 1
387 389 390 1
261 580 589 1
132 133 205 1
418 409 433 1
432 548 593 1
182 49 263 1
350 523 665 1
429 428 432 1
361 356 498 1
178 179 234 1
378 377 379 1
22 23 218 1
123 448 475 1
128 129 214 1
24 25 478 1
27 213 485 1
372 369 374 1
190 145 486 1
460 459 461 1
463 370 464 1
430 181 702 1
130 131 211 1
417 416 420 1
279 278 280 1
263 50 688 1
404 401 406 1
376 375 377 1
385 386 387 1
16 17 219 1
421 435 436 1
25 26 216 1
367 370 463 1
126 127 225 1
274 272 275 1
501 518 519 1
354 357 490 1
316 315 397 1
421 420 435 1
37 38 502 1
402 401 404 1
367 361 370 1
124 125 229 1
346 344 493 1
513 192 514 1
415 405 416 1
27 28 213 1
123 124 448 1
307 306 308 1
283 282 284 1
382 384 385 1
186 46 468 1
150 192 513 1
417 420 421 1
179 180 569 1
371 369 372 1
190 515 557 1
309 308 315 1
415 416 417 1
312 304 447 1
305 304 306 1
36 203 509 1
356 354 490 1
380 381 382 1
281 280 282 1
400 398 401 1
368 367 369 1
647 514 651 1
295 294 300 1
486 146 488 1
199 40 495 1
356 490 498 1
285 284 288 1
401 398 474 1
146 147 488 1
48 49 182 1
203 37 502 1
293 292 294 1
189 43 481 1
322 324 348 1
378 379 380 1
512 664 667 1
492 346 493 1
518 233 584 1
501 500 518 1
121 122 227 1
354 352 357 1
8 9 222 1
366 361 367 1
352 346 492 1
303 301 304 1
35 36 509 1
30 31 208 1
206 34 508 1
198 465 657 1
176 177 233 1
508 35 509 1
14 15 224 1
248 250 619 1
402 404 405 1
537 440 593 1
372 375 376 1
360 356 361 1
400 401 402 1
376 377 378 1
34 35 508 1
291 289 292 1
468 47 574 1
45 46 186 1
471 469 472 1
190 487 515 1
145 146 486 1
39 40 199 1
36 37 203 1
216 485 567 1
33 34 206 1
197 148 512 1
475 448 586 1
453 439 684 1
464 370 465 1
42 43 189 1
355 354 356 1
7 8 603 1
150 151 192 1
147 148 197 1
316 397 398 1
406 401 474 1
357 352 492 1
342 340 504 1
512 149 513 1
79 80 235 1
94 95 675 1
16 219 532 1
192 151 511 1
375 411 516 1
309 315 316 1
353 352 354 1
149 150 513 1
340 338 517 1
18 228 507 1
368 369 371 1
338 363 517 1
502 38 536 1
210 534 681 1
480 388 531 1
174 175 215 1
326 328 333 1
362 342 504 1
372 376 533 1
183 432 666 1
344 342 362 1
496 495 581 1
504 340 517 1
416 405 534 1
444 445 543 1
410 419 454 1
414 405 415 1
392 582 633 1
106 107 473 1
351 346 352 1
366 367 368 1
148 149 512 1
12 13 231 1
525 234 526 1
495 41 550 1
199 495 496 1
580 239 589 1
152 153 520 1
151 152 511 1
307 308 309 1
471 348 552 1
77 78 221 1
457 459 460 1
305 306 307 1
511 152 520 1
481 44 563 1
403 446 579 1
360 361 366 1
221 435 595 1
439 438 684 1
114 115 232 1
188 543 696 1
107 108 244 1
472 469 540 1
171 172 209 1
473 92 544 1
345 344 346 1
153 194 520 1
153 154 194 1
355 356 360 1
343 342 344 1
274 275 276 1
303 304 305 1
22 218 573 1
276 278 279 1
532 219 546 1
376 391 533 1
178 234 525 1
516 202 643 1
115 116 499 1
353 354 355 1
332 335 347 1
168 169 204 1
320 322 558 1
295 300 301 1
351 352 353 1
377 516 643 1
341 340 342 1
156 157 196 1
267 264 596 1
390 408 434 1
39 199 536 1
96 97 660 1
75 76 217 1
165 166 202 1
293 294 295 1
159 160 198 1
399 398 400 1
338 336 363 1
162 163 200 1
113 114 503 1
143 144 557 1
459 462 617 1
199 497 536 1
427 428 429 1
110 111 521 1
283 284 285 1
363 607 644 1
109 110 243 1
345 346 351 1
446 193 579 1
445 312 447 1
341 342 343 1
266 264 267 1
474 397 699 1
281 282 283 1
291 292 293 1
343 344 345 1
402 405 414 1
339 338 340 1
339 341 350 1
73 74 210 1
465 498 657 1
189 481 482 1
233 177 525 1
116 117 212 1
111 112 524 1
279 280 281 1
337 336 338 1
223 21 573 1
277 296 320 1
112 113 238 1
285 288 289 1
349 487 672 1
252 237 253 1
433 173 697 1
38 39 536 1
339 340 341 1
335 336 337 1
177 178 525 1
31 32 547 1
335 334 336 1
105 106 544 1
371 372 533 1
74 75 529 1
199 496 497 1
382 385 388 1
337 338 339 1
215 175 545 1
345 351 359 1
70 71 201 1
186 468 469 1
332 334 335 1
67 68 193 1
64 65 188 1
58 59 184 1
61 62 185 1
88 89 597 1
376 378 391 1
328 329 330 1
316 398 399 1
332 331 334 1
42 189 550 1
233 518 545 1
355 360 373 1
330 331 332 1
368 371 393 1
55 56 183 1
57 58 537 1
221 437 698 1
229 467 669 1
488 489 672 1
483 482 484 1
330 329 331 1
53 54 220 1
463 464 645 1
277 320 576 1
268 267 269 1
75 217 529 1
387 390 522 1
454 228 602 1
396 422 560 1
331 329 358 1
639 412 640 1
400 402 530 1
320 321 322 1
351 353 535 1
28 29 568 1
326 327 328 1
328 327 329 1
442 263 688 1
41 42 550 1
390 434 522 1
182 263 264 1
610 229 669 1
249 248 477 1
353 355 539 1
184 453 684 1
208 31 547 1
195 136 679 1
385 387 531 1
20 223 602 1
543 445 696 1
175 176 545 1
423 318 505 1
210 74 529 1
402 414 530 1
189 483 550 1
302 301 303 1
521 240 597 1
282 280 673 1
307 309 365 1
65 66 543 1
359 351 535 1
157 158 575 1
210 529 534 1
107 244 473 1
322 323 324 1
15 16 532 1
243 110 521 1
324 325 326 1
214 456 577 1
309 316 538 1
482 481 542 1
189 482 483 1
521 111 524 1
355 373 539 1
313 286 319 1
45 186 563 1
121 227 648 1
32 33 578 1
144 190 557 1
388 385 531 1
14 224 549 1
206 539 578 1
535 353 539 1
271 269 272 1
320 296 321 1
204 621 633 1
62 63 560 1
469 468 540 1
364 297 394 1
501 519 631 1
387 522 531 1
273 272 274 1
291 293 541 1
322 348 558 1
176 233 545 1
326 325 327 1
316 399 538 1
290 289 291 1
44 45 563 1
114 232 503 1
51 52 181 1
228 454 614 1
428 426 564 1
470 469 471 1
539 373 578 1
56 57 548 1
295 301 302 1
112 238 524 1
325 323 349 1
409 407 605 1
489 197 667 1
238 113 503 1
324 323 325 1
266 267 268 1
232 115 499 1
461 562 572 1
48 182 574 1
302 303 318 1
12 231 556 1
92 93 544 1
322 321 323 1
302 318 413 1
54 55 551 1
324 326 552 1
97 622 660 1
243 521 597 1
493 494 656 1
211 455 650 1
167 168 582 1
365 309 538 1
479 216 567 1
386 384 621 1
290 297 317 1
188 65 543 1
348 324 552 1
274 276 299 1
117 118 553 1
406 474 588 1
138 191 613 1
47 48 574 1
285 289 290 1
413 318 423 1
186 470 563 1
142 143 606 1
279 281 287 1
13 14 549 1
411 374 645 1
268 269 271 1
106 473 544 1
313 319 383 1
400 530 577 1
228 19 602 1
186 469 470 1
213 28 568 1
329 327 583 1
290 291 297 1
507 228 614 1
192 511 607 1
408 410 585 1
364 394 565 1
392 379 643 1
394 297 541 1
236 2 580 1
21 22 573 1
58 184 537 1
451 453 630 1
542 470 599 1
185 62 560 1
271 272 273 1
52 53 559 1
71 72 588 1
530 214 577 1
265 264 266 1
234 179 569 1
277 286 296 1
293 295 555 1
271 273 277 1
436 698 701 1
297 291 541 1
317 297 364 1
490 491 657 1
546 219 631 1
154 155 600 1
296 286 313 1
487 486 672 1
454 419 614 1
317 364 572 1
588 72 632 1
698 437 701 1
472 540 628 1
494 641 656 1
491 357 653 1
465 198 661 1
347 335 594 1
467 225 703 1
193 68 579 1
77 221 595 1
273 274 571 1
116 212 499 1
575 158 659 1
11 12 556 1
266 268 270 1
277 273 286 1
57 537 548 1
182 265 574 1
319 286 571 1
470 471 599 1
217 76 595 1
305 506 700 1
68 69 579 1
399 400 577 1
196 157 575 1
10 226 592 1
183 56 548 1
591 241 603 1
104 105 604 1
462 299 634 1
494 362 642 1
283 285 561 1
541 293 555 1
250 246 695 1
182 264 265 1
561 317 562 1
55 183 551 1
330 332 612 1
173 433 687 1
33 206 578 1
257 244 694 1
562 317 572 1
295 302 555 1
487 349 674 1
29 30 663 1
79 235 620 1
221 78 620 1
243 257 694 1
258 259 260 1
453 184 630 1
302 413 555 1
590 187 606 1
220 54 551 1
552 333 599 1
274 299 571 1
510 523 691 1
583 489 667 1
167 582 649 1
519 546 631 1
586 448 610 1
373 360 598 1
456 211 608 1
247 248 249 1
583 327 677 1
570 549 682 1
339 350 618 1
53 220 559 1
224 15 532 1
458 187 590 1
286 273 571 1
290 317 561 1
458 590 615 1
196 653 656 1
669 467 703 1
155 156 641 1
495 550 581 1
285 290 561 1
194 642 646 1
220 551 564 1
170 171 639 1
9 10 592 1
105 544 604 1
363 336 651 1
181 52 559 1
208 547 598 1
311 267 596 1
168 204 582 1
547 373 598 1
642 504 646 1
575 491 653 1
506 505 700 1
570 260 616 1
549 224 682 1
202 516 654 1
204 169 640 1
444 543 637 1
358 329 583 1
435 221 698 1
202 166 649 1
209 172 687 1
485 213 692 1
173 174 697 1
200 163 652 1
109 243 694 1
198 160 661 1
476 475 586 1
601 195 679 1
525 526 584 1
73 210 632 1
93 94 604 1
491 575 659 1
230 247 254 1
365 626 671 1
550 483 581 1
368 393 625 1
159 198 659 1
410 454 585 1
212 117 553 1
334 331 647 1
259 261 627 1
287 281 587 1
271 277 576 1
589 239 591 1
523 350 691 1
70 201 636 1
165 202 654 1
162 200 662 1
239 4 686 1
572 364 613 1
255 120 477 1
233 525 584 1
240 88 597 1
67 193 637 1
281 283 587 1
268 271 576 1
505 318 700 1
432 428 666 1
350 341 691 1
201 71 588 1
64 188 638 1
540 265 628 1
452 249 611 1
227 476 611 1
403 579 636 1
536 497 665 1
283 561 587 1
181 442 688 1
406 588 632 1
270 268 576 1
534 529 629 1
561 562 587 1
303 305 700 1
19 20 602 1
393 371 678 1
208 598 625 1
313 515 668 1
250 554 655 1
548 537 593 1
543 66 637 1
184 59 630 1
244 108 694 1
212 553 554 1
76 77 595 1
499 212 566 1
231 13 549 1
482 542 670 1
396 560 638 1
196 575 653 1
213 678 692 1
51 181 688 1
582 392 649 1
187 142 606 1
625 393 663 1
560 63 638 1
528 546 685 1
256 242 609 1
416 534 629 1
489 583 677 1
399 577 608 1
335 337 594 1
307 365 671 1
526 528 685 1
384 381 633 1
349 323 674 1
213 568 678 1
226 627 658 1
360 366 598 1
194 154 600 1
600 494 642 1
433 409 605 1
299 276 634 1
5 6 241 1
265 266 628 1
512 513 664 1
514 192 607 1
579 69 636 1
279 287 634 1
431 430 702 1
541 555 601 1
461 459 617 1
506 305 671 1
471 552 599 1
420 629 693 1
222 591 603 1
325 349 677 1
568 393 678 1
389 412 676 1
118 207 553 1
629 217 693 1
8 222 603 1
296 313 668 1
226 11 556 1
555 413 601 1
212 554 566 1
419 501 614 1
594 337 618 1
219 507 631 1
205 506 626 1
374 463 645 1
455 205 626 1
224 528 682 1
421 436 610 1
597 89 690 1
577 456 608 1
4 5 686 1
528 527 682 1
191 572 613 1
118 119 207 1
332 347 612 1
407 389 676 1
607 363 651 1
538 399 608 1
503 256 609 1
605 209 687 1
598 366 625 1
78 79 620 1
544 93 604 1
394 541 601 1
635 476 701 1
436 435 698 1
517 363 644 1
420 416 629 1
50 51 688 1
412 386 621 1
104 604 675 1
103 104 675 1
504 517 646 1
627 261 658 1
513 514 664 1
517 644 646 1
358 583 667 1
260 259 616 1
608 211 650 1
621 204 640 1
337 339 618 1
429 432 624 1
59 60 630 1
328 330 683 1
379 377 643 1
366 368 625 1
438 440 684 1
257 243 690 1
72 73 632 1
394 601 679 1
421 610 669 1
66 67 637 1
63 64 638 1
364 565 613 1
169 170 640 1
69 70 636 1
319 571 615 1
436 586 610 1
235 452 635 1
586 436 701 1
238 503 609 1
310 282 673 1
232 499 623 1
529 217 629 1
166 167 649 1
362 504 642 1
499 566 623 1
222 9 592 1
498 490 657 1
511 520 644 1
163 164 652 1
571 299 615 1
357 492 653 1
653 492 656 1
164 165 654 1
644 520 646 1
492 493 656 1
276 279 634 1
249 477 648 1
30 208 663 1
520 194 646 1
156 196 641 1
171 209 639 1
604 94 675 1
486 488 672 1
336 334 651 1
158 159 659 1
502 536 665 1
160 161 661 1
161 162 662 1
636 201 699 1
527 570 682 1
266 270 628 1
197 512 667 1
652 164 654 1
538 608 650 1
331 358 647 1
333 328 683 1
397 403 699 1
661 161 662 1
417 421 669 1
564 551 666 1
404 406 681 1
208 625 663 1
484 482 670 1
641 196 656 1
592 226 658 1
590 319 615 1
365 538 650 1
194 600 642 1
417 669 703 1
172 173 687 1
435 420 693 1
108 109 694 1
305 307 671 1
582 204 633 1
519 584 685 1
321 296 668 1
415 417 703 1
432 593 624 1
238 609 689 1
323 321 674 1
678 533 692 1
514 607 651 1
428 564 666 1
327 325 677 1
632 210 681 1
559 431 702 1
566 252 623 1
227 611 648 1
217 595 693 1
341 343 691 1
371 533 678 1
551 183 666 1
321 668 674 1
533 391 692 1
546 519 685 1
565 394 679 1
412 639 676 1
174 215 697 1
611 249 648 1
318 303 700 1
524 238 689 1
226 556 627 1
433 605 687 1
412 621 640 1
514 647 664 1
591 222 680 1
243 597 690 1
554 553 655 1
207 119 255 1
222 592 680 1
584 526 685 1
403 636 699 1
626 506 671 1
437 635 701 1
553 207 655 1
207 255 619 1
261 589 658 1
476 586 701 1
181 559 702 1
429 624 673 1
207 619 655 1
647 358 664 1
670 333 683 1
624 310 673 1
639 209 676 1
595 435 693 1
592 658 680 1
619 250 655 1
5 241 686 1
406 632 681 1
589 591 680 1
484 670 683 1
658 589 680 1
622 100 660 1
96 102 95 1
102 103 95 1
101 102 96 1

End
