MeshVersionFormatted 2
Dimension 3

Vertices
646
-1.4004176854440942e-01 -6.1852242497271462e-02 0.0000000000000000e+00 1
-1.4470615479740687e-01 -6.5593314697575844e-02 0.0000000000000000e+00 1
-1.5004254919897847e-01 -6.9694812891030286e-02 0.0000000000000000e+00 1
-1.5600189573348980e-01 -7.4129103845617286e-02 0.0000000000000000e+00 1
-1.6253513838530625e-01 -7.8868554329319385e-02 0.0000000000000000e+00 1
-1.6959322113879335e-01 -8.3885531110119080e-02 0.0000000000000000e+00 1
-1.7712708797831667e-01 -8.9152400955998953e-02 0.0000000000000000e+00 1
-1.8508768288824157e-01 -9.4641530634941476e-02 0.0000000000000000e+00 1
-1.9342594985293371e-01 -1.0032528691492923e-01 0.0000000000000000e+00 1
-2.0209283285675847e-01 -1.0617603656394468e-01 0.0000000000000000e+00 1
-2.1103927588408139e-01 -1.1216614634997039e-01 0.0000000000000000e+00 1
-2.2021622291926798e-01 -1.1826798304098889e-01 0.0000000000000000e+00 1
-2.2957461794668368e-01 -1.2445391340498269e-01 0.0000000000000000e+00 1
-2.3906540495069409e-01 -1.3069630420993433e-01 0.0000000000000000e+00 1
-2.4863952791566452e-01 -1.3696752222382627e-01 0.0000000000000000e+00 1
-2.5824793082596076e-01 -1.4323993421464118e-01 0.0000000000000000e+00 1
-2.6784155766594797e-01 -1.4948590695036146e-01 0.0000000000000000e+00 1
-2.7737135241999195e-01 -1.5567780719896968e-01 0.0000000000000000e+00 1
-2.8678825907245808e-01 -1.6178800172844840e-01 0.0000000000000000e+00 1
-2.9604322160771168e-01 -1.6778885730678003e-01 0.0000000000000000e+00 1
-3.0508718401011858e-01 -1.7365274070194725e-01 0.0000000000000000e+00 1
-3.1387109026404408e-01 -1.7935201868193251e-01 0.0000000000000000e+00 1
-3.2234588435385370e-01 -1.8485905801471830e-01 0.0000000000000000e+00 1
-3.3046251026391299e-01 -1.9014622546828724e-01 0.0000000000000000e+00 1
-3.3817191197858731e-01 -1.9518588781062177e-01 0.0000000000000000e+00 1
-3.4542503348224229e-01 -1.9995041180970444e-01 0.0000000000000000e+00 1
-3.5217281875924339e-01 -2.0441216423351780e-01 0.0000000000000000e+00 1
-3.5836621179395606e-01 -2.0854351185004433e-01 0.0000000000000000e+00 1
-3.6395615657074593e-01 -2.1231682142726663e-01 0.0000000000000000e+00 1
-3.6889359707397840e-01 -2.1570445973316718e-01 0.0000000000000000e+00 1
-3.7312947728801893e-01 -2.1867879353572853e-01 0.0000000000000000e+00 1
-3.7661474119723315e-01 -2.2121218960293318e-01 0.0000000000000000e+00 1
-3.7930033278598640e-01 -2.2327701470276359e-01 0.0000000000000000e+00 1
-3.8113719603864427e-01 -2.2484563560320245e-01 0.0000000000000000e+00 1
-3.8207627493957230e-01 -2.2589041907223217e-01 0.0000000000000000e+00 1
-3.8206851347313586e-01 -2.2638373187783528e-01 0.0000000000000000e+00 1
-3.8106485562370057e-01 -2.2629794078799439e-01 0.0000000000000000e+00 1
-3.7901624537563183e-01 -2.2560541257069192e-01 0.0000000000000000e+00 1
-3.7587362671329522e-01 -2.2427851399391047e-01 0.0000000000000000e+00 1
-3.7158794362105618e-01 -2.2228961182563250e-01 0.0000000000000000e+00 1
-3.6287689649256039e-01 -2.1813428167475263e-01 0.0000000000000000e+00 1
-3.5392710020706103e-01 -2.1387930511980022e-01 0.0000000000000000e+00 1
-3.4474591215283296e-01 -2.0952664136298221e-01 0.0000000000000000e+00 1
-3.3534068971815068e-01 -2.0507824960650531e-01 0.0000000000000000e+00 1
-3.2571879029128886e-01 -2.0053608905257636e-01 0.0000000000000000e+00 1
-3.1588757126052208e-01 -1.9590211890340201e-01 0.0000000000000000e+00 1
-3.0585439001412512e-01 -1.9117829836118919e-01 0.0000000000000000e+00 1
-2.9562660394037243e-01 -1.8636658662814448e-01 0.0000000000000000e+00 1
-2.8521157042753881e-01 -1.8146894290647489e-01 0.0000000000000000e+00 1
-2.7461664686389875e-01 -1.7648732639838702e-01 0.0000000000000000e+00 1
-2.6384919063772694e-01 -1.7142369630608764e-01 0.0000000000000000e+00 1
-2.5291655913729799e-01 -1.6628001183178356e-01 0.0000000000000000e+00 1
-2.4182610975088667e-01 -1.6105823217768162e-01 0.0000000000000000e+00 1
-2.3058519986676751e-01 -1.5576031654598860e-01 0.0000000000000000e+00 1
-2.1920118687321499e-01 -1.5038822413891112e-01 0.0000000000000000e+00 1
-2.0768142815850402e-01 -1.4494391415865607e-01 0.0000000000000000e+00 1
-1.9603328111090901e-01 -1.3942934580743016e-01 0.0000000000000000e+00 1
-1.8426410311870475e-01 -1.3384647828744031e-01 0.0000000000000000e+00 1
-1.7238125157016584e-01 -1.2819727080089316e-01 0.0000000000000000e+00 1
-1.6039208385356679e-01 -1.2248368254999545e-01 0.0000000000000000e+00 1
-1.4830395735718233e-01 -1.1670767273695401e-01 0.0000000000000000e+00 1
-1.3612422946928715e-01 -1.1087120056397569e-01 0.0000000000000000e+00 1
-1.2386025757815580e-01 -1.0497622523326718e-01 0.0000000000000000e+00 1
-1.1151939907206289e-01 -9.9024705947035219e-02 0.0000000000000000e+00 1
-9.9109011339283098e-02 -9.3018601907486620e-02 0.0000000000000000e+00 1
-8.6636451768091136e-02 -8.6959872316828238e-02 0.0000000000000000e+00 1
-7.4109077746761537e-02 -8.0850476377266736e-02 0.0000000000000000e+00 1
-6.1534246663568978e-02 -7.4692373291008946e-02 0.0000000000000000e+00 1
-4.8919315906788011e-02 -6.8487522260261571e-02 0.0000000000000000e+00 1
-3.6271642864693261e-02 -6.2237882487231416e-02 0.0000000000000000e+00 1
-2.3598584925559510e-02 -5.5945413174125339e-02 0.0000000000000000e+00 1
-1.0907499477661328e-02 -4.9612073523150044e-02 0.0000000000000000e+00 1
1.7942560907267396e-03 -4.3239822736512251e-02 0.0000000000000000e+00 1
1.4499324391329983e-02 -3.6830620016418805e-02 0.0000000000000000e+00 1
2.7200348035873734e-02 -3.0386424565076495e-02 0.0000000000000000e+00 1
3.9889969636083406e-02 -2.3909195584692074e-02 0.0000000000000000e+00 1
5.2560831803684413e-02 -1.7400892277472262e-02 0.0000000000000000e+00 1
6.5205577150402025e-02 -1.0863473845623913e-02 0.0000000000000000e+00 1
7.7816848287961704e-02 -4.2988994913537200e-03 0.0000000000000000e+00 1
9.0387287828088719e-02 2.2908715831314527e-03 0.0000000000000000e+00 1
1.0290953838250860e-01 8.9038801756249238e-03 0.0000000000000000e+00 1
1.1537624256294646e-01 1.5538167083919828e-02 0.0000000000000000e+00 1
1.2778004298112783e-01 2.2191773105809429e-02 0.0000000000000000e+00 1
1.4011358224877812e-01 2.8862739039087020e-02 0.0000000000000000e+00 1
1.5236950297762258e-01 3.5549105681545720e-02 0.0000000000000000e+00 1
1.6454044777938670e-01 4.2248913830978854e-02 0.0000000000000000e+00 1
1.7661905926579569e-01 4.8960204285179554e-02 0.0000000000000000e+00 1
1.8859798004857511e-01 5.5681017841941141e-02 0.0000000000000000e+00 1
2.0046985273945012e-01 6.2409395299056730e-02 0.0000000000000000e+00 1
2.1222731995014626e-01 6.9143377454319685e-02 0.0000000000000000e+00 1
2.2386302429238880e-01 7.5881005105523092e-02 0.0000000000000000e+00 1
2.3536960837790316e-01 8.2620319050460300e-02 0.0000000000000000e+00 1
2.4673971481841461e-01 8.9359360086924411e-02 0.0000000000000000e+00 1
2.5796598622564859e-01 9.6096169012708746e-02 0.0000000000000000e+00 1
2.6904106521133053e-01 1.0282878662560654e-01 0.0000000000000000e+00 1
2.7995759438718565e-01 1.0955525372341093e-01 0.0000000000000000e+00 1
2.9070821636493949e-01 1.1627361110391525e-01 0.0000000000000000e+00 1
3.0128557375631715e-01 1.2298189956491261e-01 0.0000000000000000e+00 1
3.1168230917304440e-01 1.2967815990419637e-01 0.0000000000000000e+00 1
3.2189106522684630e-01 1.3636043291955965e-01 0.0000000000000000e+00 1
3.3190448452944826e-01 1.4302675940879575e-01 0.0000000000000000e+00 1
3.4171520969257563e-01 1.4967518016969777e-01 0.0000000000000000e+00 1
3.5131588332795399e-01 1.5630373600005912e-01 0.0000000000000000e+00 1
3.6069914804730835e-01 1.6291046769767284e-01 0.0000000000000000e+00 1
3.6985764646236435e-01 1.6949341606033227e-01 0.0000000000000000e+00 1
3.7878402118484733e-01 1.7605062188583068e-01 0.0000000000000000e+00 1
3.8747091482648255e-01 1.8258012597196116e-01 0.0000000000000000e+00 1
3.9591096999899555e-01 1.8907996911651709e-01 0.0000000000000000e+00 1
4.0409682931411145e-01 1.9554819211729152e-01 0.0000000000000000e+00 1
4.1202113538355578e-01 2.0198283577207782e-01 0.0000000000000000e+00 1
4.1712977332424722e-01 2.0640424814109876e-01 0.0000000000000000e+00 1
4.2100886782397151e-01 2.1022990620924653e-01 0.0000000000000000e+00 1
4.2369942314776055e-01 2.1347815119881980e-01 0.0000000000000000e+00 1
4.2524244356064694e-01 2.1616732433211744e-01 0.0000000000000000e+00 1
4.2567893332766293e-01 2.1831576683143825e-01 0.0000000000000000e+00 1
4.2504989671384069e-01 2.1994181991908093e-01 0.0000000000000000e+00 1
4.2339633798421289e-01 2.2106382481734446e-01 0.0000000000000000e+00 1
4.2075926140381148e-01 2.2170012274852746e-01 0.0000000000000000e+00 1
4.1717967123766880e-01 2.2186905493492876e-01 0.0000000000000000e+00 1
4.1269857175081742e-01 2.2158896259884725e-01 0.0000000000000000e+00 1
4.0735696720828934e-01 2.2087818696258157e-01 0.0000000000000000e+00 1
4.0119586187511702e-01 2.1975506924843061e-01 0.0000000000000000e+00 1
3.9425626001633296e-01 2.1823795067869323e-01 0.0000000000000000e+00 1
3.8657916589696911e-01 2.1634517247566806e-01 0.0000000000000000e+00 1
3.7820558378205787e-01 2.1409507586165397e-01 0.0000000000000000e+00 1
3.6917651793663186e-01 2.1150600205894984e-01 0.0000000000000000e+00 1
3.5953297262572315e-01 2.0859629228985432e-01 0.0000000000000000e+00 1
3.4931595211436373e-01 2.0538428777666623e-01 0.0000000000000000e+00 1
3.3856646066758656e-01 2.0188832974168444e-01 0.0000000000000000e+00 1
3.2732550255042359e-01 1.9812675940720775e-01 0.0000000000000000e+00 1
3.1563408202790699e-01 1.9411791799553485e-01 0.0000000000000000e+00 1
3.0353320336506923e-01 1.8988014672896456e-01 0.0000000000000000e+00 1
2.9106387082694285e-01 1.8543178682979577e-01 0.0000000000000000e+00 1
2.7826708867855976e-01 1.8079117952032711e-01 0.0000000000000000e+00 1
2.6518386118495246e-01 1.7597666602285750e-01 0.0000000000000000e+00 1
2.5185519261115347e-01 1.7100658755968579e-01 0.0000000000000000e+00 1
2.3832208722219472e-01 1.6589928535311063e-01 0.0000000000000000e+00 1
2.2462554928310868e-01 1.6067310062543086e-01 0.0000000000000000e+00 1
2.1080658305892769e-01 1.5534637459894529e-01 0.0000000000000000e+00 1
1.9690619281468405e-01 1.4993744849595272e-01 0.0000000000000000e+00 1
1.8296538281541008e-01 1.4446466353875193e-01 0.0000000000000000e+00 1
1.6902515732613801e-01 1.3894636094964169e-01 0.0000000000000000e+00 1
1.5512652061190019e-01 1.3340088195092081e-01 0.0000000000000000e+00 1
1.4131047693772902e-01 1.2784656776488812e-01 0.0000000000000000e+00 1
1.2761803056865670e-01 1.2230175961384233e-01 0.0000000000000000e+00 1
1.1409018576971561e-01 1.1678479872008236e-01 0.0000000000000000e+00 1
1.0076794680593798e-01 1.1131402630590689e-01 0.0000000000000000e+00 1
8.7692317942356143e-02 1.0590778359361475e-01 0.0000000000000000e+00 1
7.4904303444002535e-02 1.0058441180550479e-01 0.0000000000000000e+00 1
6.2444907575909273e-02 9.5362252163875685e-02 0.0000000000000000e+00 1
5.0355134603108767e-02 9.0259645891026322e-02 0.0000000000000000e+00 1
3.8675988790633373e-02 8.5294934209255477e-02 0.0000000000000000e+00 1
2.7448474403515277e-02 8.0486458340861919e-02 0.0000000000000000e+00 1
1.6713595706786877e-02 7.5852559508144443e-02 0.0000000000000000e+00 1
6.5123569654805119e-03 7.1411578933401901e-02 0.0000000000000000e+00 1
-3.1142375553716087e-03 6.7181857838933004e-02 0.0000000000000000e+00 1
-1.2125183590737075e-02 6.3181737447036604e-02 0.0000000000000000e+00 1
-2.0479476875583671e-02 5.9429558980011454e-02 0.0000000000000000e+00 1
-2.8136113144879037e-02 5.5943663660156365e-02 0.0000000000000000e+00 1
-3.5054088133590823e-02 5.2742392709770158e-02 0.0000000000000000e+00 1
-4.1192397576686801e-02 4.9844087351151575e-02 0.0000000000000000e+00 1
-4.4482463465680251e-02 4.8068837927608216e-02 0.0000000000000000e+00 1
-4.7831554703096787e-02 4.5877455960508406e-02 0.0000000000000000e+00 1
-5.1234914251198908e-02 4.3299034476553991e-02 0.0000000000000000e+00 1
-5.4687785072249140e-02 4.0362666502446742e-02 0.0000000000000000e+00 1
-5.8185410128509973e-02 3.7097445064888462e-02 0.0000000000000000e+00 1
-6.1723032382243942e-02 3.3532463190581008e-02 0.0000000000000000e+00 1
-6.5295894795713530e-02 2.9696813906226135e-02 0.0000000000000000e+00 1
-6.8899240331181250e-02 2.5619590238525686e-02 0.0000000000000000e+00 1
-7.2528311950909641e-02 2.1329885214181457e-02 0.0000000000000000e+00 1
-7.6178352617161174e-02 1.6856791859895259e-02 0.0000000000000000e+00 1
-7.9844605292198390e-02 1.2229403202368910e-02 0.0000000000000000e+00 1
-8.3522312938283758e-02 7.4768122683041855e-03 0.0000000000000000e+00 1
-8.7206718517679832e-02 2.6281120844029379e-03 0.0000000000000000e+00 1
-9.0893064992649097e-02 -2.2876043226330613e-03 0.0000000000000000e+00 1
-9.4576595325454066e-02 -7.2412439261019760e-03 0.0000000000000000e+00 1
-9.8252552478357236e-02 -1.2203713699302014e-02 0.0000000000000000e+00 1
-1.0191617941362116e-01 -1.7145920615531364e-02 0.0000000000000000e+00 1
-1.0556271909350827e-01 -2.2038771648088207e-02 0.0000000000000000e+00 1
-1.0918741448028116e-01 -2.6853173770270751e-02 0.0000000000000000e+00 1
-1.1278550853620228e-01 -3.1560033955377181e-02 0.0000000000000000e+00 1
-1.1635224422353418e-01 -3.6130259176705690e-02 0.0000000000000000e+00 1
-1.1988286450453933e-01 -4.0534756407554468e-02 0.0000000000000000e+00 1
-1.2337261234148025e-01 -4.4744432621221700e-02 0.0000000000000000e+00 1
-1.2681673069661947e-01 -4.8730194791005585e-02 0.0000000000000000e+00 1
-1.3021046253221949e-01 -5.2462949890204308e-02 0.0000000000000000e+00 1
-1.3354905081054280e-01 -5.5913604892116067e-02 0.0000000000000000e+00 1
-1.3682773849385194e-01 -5.9053066770039048e-02 0.0000000000000000e+00 1
-4.0904760306827125e-02 4.6086102610838703e-02 0.0000000000000000e+00 1
-5.6939842703277579e-02 3.2323709565192107e-02 0.0000000000000000e+00 1
-7.1255837383456269e-02 1.5673924180077570e-02 0.0000000000000000e+00 1
-8.0882359400200637e-02 2.0439970027455916e-03 0.0000000000000000e+00 1
-9.2126064760504264e-02 -1.2899198586142449e-02 0.0000000000000000e+00 1
-1.0283518480910628e-01 -2.7288786570098724e-02 0.0000000000000000e+00 1
-2.1134741314070032e-02 5.1610865274215267e-02 0.0000000000000000e+00 1
5.2478527616597343e-03 6.1219875721759069e-02 0.0000000000000000e+00 1
-9.1079309686618939e-03 -3.5722547745772312e-02 0.0000000000000000e+00 1
3.6770536273671550e-02 7.3514784443008865e-02 0.0000000000000000e+00 1
-1.1441922226655485e-01 -4.1170610480160408e-02 0.0000000000000000e+00 1
2.7876383570159022e-02 -1.6956619128456116e-02 0.0000000000000000e+00 1
7.3596818777315526e-02 8.7979522238230412e-02 0.0000000000000000e+00 1
-1.2535895472214909e-01 -5.3464697447985696e-02 0.0000000000000000e+00 1
1.2875220972860504e-01 3.6820422066222443e-02 0.0000000000000000e+00 1
7.8457461664690586e-02 9.6486972122439493e-03 0.0000000000000000e+00 1
-4.8727112637742612e-02 -5.3965687790019125e-02 0.0000000000000000e+00 1
-1.3562988343807247e-01 -6.3324279609456871e-02 0.0000000000000000e+00 1
-1.4416332368184698e-01 -7.1340887322273269e-02 0.0000000000000000e+00 1
1.6373372376897213e-01 5.4596928146255636e-02 0.0000000000000000e+00 1
1.9974557652219579e-01 7.6032777225117656e-02 0.0000000000000000e+00 1
1.1175188459668559e-01 1.0358033008806128e-01 0.0000000000000000e+00 1
2.3774721712660424e-01 9.5964758122923946e-02 0.0000000000000000e+00 1
-7.2739360772761386e-02 -6.6067183510945995e-02 0.0000000000000000e+00 1
1.5396820129510741e-01 1.1870160272725074e-01 0.0000000000000000e+00 1
5.1724477541336883e-02 -2.3689930904545265e-03 0.0000000000000000e+00 1
2.6882605615883753e-01 1.1379189001523586e-01 0.0000000000000000e+00 1
1.0365952867294105e-01 2.2189615978513256e-02 0.0000000000000000e+00 1
1.9520478144101056e-01 1.3500544896904954e-01 0.0000000000000000e+00 1
2.9022414486171161e-01 1.2872999390690532e-01 0.0000000000000000e+00 1
-6.3825224246076798e-02 2.4770211947070252e-02 0.0000000000000000e+00 1
3.1039296336058547e-01 1.4310345842621311e-01 0.0000000000000000e+00 1
-5.0380038406266016e-02 3.9205406653120445e-02 0.0000000000000000e+00 1
-9.8595833773236732e-02 -7.9939852505386946e-02 0.0000000000000000e+00 1
2.2179275542445390e-01 1.4678745551661357e-01 0.0000000000000000e+00 1
3.3162904992825859e-01 1.5511634511073150e-01 0.0000000000000000e+00 1
-1.5536333473123931e-01 -8.1626290938460758e-02 0.0000000000000000e+00 1
2.4947505926423691e-01 1.5682999485049284e-01 0.0000000000000000e+00 1
3.5081603458500454e-01 1.6726865948950886e-01 0.0000000000000000e+00 1
2.7658812215310291e-01 1.6800370458729866e-01 0.0000000000000000e+00 1
3.5736817219698086e-01 1.9878578281701539e-01 0.0000000000000000e+00 1
-1.6893111363710725e-01 -9.2854380711112863e-02 0.0000000000000000e+00 1
3.0133251109024206e-01 1.7724518509681919e-01 0.0000000000000000e+00 1
4.2182969354723543e-01 2.1920230546232791e-01 0.0000000000000000e+00 1
-1.2160334092365027e-01 -9.0986068393188499e-02 0.0000000000000000e+00 1
3.2499562609980492e-01 1.8631948655354316e-01 0.0000000000000000e+00 1
3.7675432352782390e-01 2.0545813023592016e-01 0.0000000000000000e+00 1
4.1502398242815969e-01 2.1843736224415913e-01 0.0000000000000000e+00 1
4.1092629008679066e-01 2.0781542014777576e-01 0.0000000000000000e+00 1
3.9938174291068096e-01 2.1359447309899471e-01 0.0000000000000000e+00 1
-1.8459972844954778e-01 -1.0428979916615445e-01 0.0000000000000000e+00 1
-1.4686416660067683e-01 -1.0318609773113559e-01 0.0000000000000000e+00 1
-2.0182169724171689e-01 -1.1720986820492411e-01 0.0000000000000000e+00 1
3.6876317498232269e-01 1.8035620089652316e-01 0.0000000000000000e+00 1
3.9499750937524530e-01 1.9915640027064910e-01 0.0000000000000000e+00 1
-2.1896162243627815e-01 -1.2877611423586602e-01 0.0000000000000000e+00 1
4.2029393813233584e-01 2.1384874215600644e-01 0.0000000000000000e+00 1
-1.7184341212542864e-01 -1.1477064719765501e-01 0.0000000000000000e+00 1
-2.2912820926214233e-01 -1.4495627416057344e-01 0.0000000000000000e+00 1
-1.1077671141635601e-01 -8.4226561168920550e-02 0.0000000000000000e+00 1
-1.0795593306309073e-01 -7.2765887883475058e-02 0.0000000000000000e+00 1
-9.8853819450729713e-02 -6.8191607407913898e-02 0.0000000000000000e+00 1
-1.0764834222986144e-01 -6.2951540846392193e-02 0.0000000000000000e+00 1
-9.9237374186892269e-02 -5.8377629042429713e-02 0.0000000000000000e+00 1
-1.1543291041813371e-01 -6.6712799791640492e-02 0.0000000000000000e+00 1
-1.0787245673985299e-01 -5.2892595667608115e-02 0.0000000000000000e+00 1
-9.9289047116390777e-02 -4.9251076007611923e-02 0.0000000000000000e+00 1
-9.1239047008235263e-02 -5.3670812308871073e-02 0.0000000000000000e+00 1
-9.1311077256473777e-02 -4.4346026746655443e-02 0.0000000000000000e+00 1
-8.3113598586777096e-02 -4.8887355678109860e-02 0.0000000000000000e+00 1
-8.3212511449222343e-02 -3.9325857979011690e-02 0.0000000000000000e+00 1
-7.4834661913059583e-02 -4.3967803979961757e-02 0.0000000000000000e+00 1
-7.4947658760963598e-02 -3.4199100723836549e-02 0.0000000000000000e+00 1
-6.6403236608516908e-02 -3.8934252042453758e-02 0.0000000000000000e+00 1
-6.7217753906459413e-02 -2.7603777585157887e-02 0.0000000000000000e+00 1
-5.7977738282847080e-02 -3.3559923841694497e-02 0.0000000000000000e+00 1
-5.8172008871944757e-02 -2.3704079238497912e-02 0.0000000000000000e+00 1
-4.9325738446782619e-02 -2.8530064977131595e-02 0.0000000000000000e+00 1
-4.9827842655530322e-02 -1.8613402840875017e-02 0.0000000000000000e+00 1
-5.8040821737974410e-02 -1.4030058338456410e-02 0.0000000000000000e+00 1
-5.0227104880065418e-02 -9.2558919371115590e-03 0.0000000000000000e+00 1
-4.1859282366719638e-02 -1.3337040341463128e-02 0.0000000000000000e+00 1
-4.2455959019390616e-02 -4.2437726814136467e-03 0.0000000000000000e+00 1
-3.4222981231528990e-02 -8.0736363579147971e-03 0.0000000000000000e+00 1
-3.4766540324176899e-02 8.8864579389984352e-04 0.0000000000000000e+00 1
-2.6594261673865333e-02 -2.8294481235942516e-03 0.0000000000000000e+00 1
-2.7096092530073338e-02 6.1669238831130587e-03 0.0000000000000000e+00 1
-1.8569780501841413e-02 2.1696299771135487e-03 0.0000000000000000e+00 1
-1.8973379195817090e-02 1.1502252001638109e-02 0.0000000000000000e+00 1
-1.0289724385010019e-02 7.4107783785125588e-03 0.0000000000000000e+00 1
-1.0715990408034073e-02 1.7183149895306598e-02 0.0000000000000000e+00 1
-1.6681540502911419e-03 1.2940888623172346e-02 0.0000000000000000e+00 1
-2.7673934693999275e-02 1.6582469480187389e-02 0.0000000000000000e+00 1
-4.3377376163568473e-02 5.3992022273386450e-03 0.0000000000000000e+00 1
-2.3376259433372055e-03 2.3371240260245819e-02 0.0000000000000000e+00 1
7.2545296585075723e-03 1.8707624445056279e-02 0.0000000000000000e+00 1
-5.8199674060560286e-02 -5.1423394345229126e-03 0.0000000000000000e+00 1
-1.0280917520099235e-02 -2.3461847018048957e-03 0.0000000000000000e+00 1
6.4981186236504878e-03 2.9552470507417262e-02 0.0000000000000000e+00 1
1.6481218143037053e-02 2.4719611424856638e-02 0.0000000000000000e+00 1
1.5658133884051802e-02 3.5901325194673719e-02 0.0000000000000000e+00 1
2.6035745657162511e-02 3.0972492494301923e-02 0.0000000000000000e+00 1
2.6748418690472210e-02 1.9342329104939115e-02 0.0000000000000000e+00 1
3.6695121708551631e-02 2.5813001036583606e-02 0.0000000000000000e+00 1
3.5852602605643089e-02 3.7764560122112302e-02 0.0000000000000000e+00 1
4.6881182619559911e-02 3.2553432656783739e-02 0.0000000000000000e+00 1
4.5993827226051151e-02 4.4930713961423147e-02 0.0000000000000000e+00 1
5.7317796456993059e-02 3.9479914799663826e-02 0.0000000000000000e+00 1
5.6362320898984741e-02 5.2161026147804254e-02 0.0000000000000000e+00 1
6.7955730678125964e-02 4.6609089075464731e-02 0.0000000000000000e+00 1
-6.5426266108685668e-02 -9.5414777180857016e-03 0.0000000000000000e+00 1
-1.1194582308921260e-02 2.7130638810046927e-02 0.0000000000000000e+00 1
-3.3621147815389642e-02 -1.7370974297327351e-02 0.0000000000000000e+00 1
-7.6819875066992116e-02 -2.4648790619513777e-02 0.0000000000000000e+00 1
7.1420819440001729e-03 7.9996836663209971e-03 0.0000000000000000e+00 1
-6.5437552794723478e-02 -1.2727334241970742e-03 0.0000000000000000e+00 1
-5.8687429373712519e-02 2.8331208050789828e-03 0.0000000000000000e+00 1
6.6967296441412916e-02 5.9495152432442459e-02 0.0000000000000000e+00 1
7.8796837285050395e-02 5.3889475658152101e-02 0.0000000000000000e+00 1
7.9559934409787980e-02 4.0063517979634887e-02 0.0000000000000000e+00 1
9.0702522716211556e-02 4.7228209016508711e-02 0.0000000000000000e+00 1
9.0154709378271414e-02 6.0741255455197853e-02 0.0000000000000000e+00 1
1.0202340860851673e-01 5.5375624814298620e-02 0.0000000000000000e+00 1
1.0137575251040103e-01 6.8494718936836479e-02 0.0000000000000000e+00 1
1.1338719916926565e-01 6.3126168134757230e-02 0.0000000000000000e+00 1
3.4870152652059949e-02 5.0170419384489039e-02 0.0000000000000000e+00 1
5.7799819948106804e-02 2.6502285488210060e-02 0.0000000000000000e+00 1
5.5829500329872880e-03 4.0404527957479931e-02 0.0000000000000000e+00 1
1.1223463673112427e-01 7.6728459882242181e-02 0.0000000000000000e+00 1
1.2475483964981862e-01 7.0971241529280152e-02 0.0000000000000000e+00 1
9.7707841062122519e-02 8.2112259060012155e-02 0.0000000000000000e+00 1
1.4668333675522414e-02 4.6983404757601772e-02 0.0000000000000000e+00 1
-9.1882117005243971e-02 -3.4232470443036553e-02 0.0000000000000000e+00 1
-6.5460207788467173e-02 -4.9032514102116405e-02 0.0000000000000000e+00 1
3.6835557561299748e-02 1.3628139553519209e-02 0.0000000000000000e+00 1
2.7147887898323397e-02 7.8230829258085725e-03 0.0000000000000000e+00 1
1.2376090186834256e-01 8.4465727285026534e-02 0.0000000000000000e+00 1
1.3629712713941952e-01 7.8837387685718685e-02 0.0000000000000000e+00 1
1.3727814373724720e-01 6.4960679471713342e-02 0.0000000000000000e+00 1
1.3538838927750665e-01 9.2636356513712673e-02 0.0000000000000000e+00 1
1.4799406449851207e-01 8.6817375184948989e-02 0.0000000000000000e+00 1
-7.2165882048378677e-02 -5.5633101235297473e-03 0.0000000000000000e+00 1
5.5425224269454933e-02 6.4725214564197373e-02 0.0000000000000000e+00 1
-6.5485307370480667e-02 6.5278984055806982e-03 0.0000000000000000e+00 1
-5.9023344352749571e-02 1.0363399056542030e-02 0.0000000000000000e+00 1
-7.2254680720909528e-02 -1.3010267053430726e-02 0.0000000000000000e+00 1
-8.0050168896611568e-02 -8.9083448726511895e-03 0.0000000000000000e+00 1
1.0280798150819698e-01 4.2416890918892843e-02 0.0000000000000000e+00 1
-8.8558469493604089e-02 -7.4358323196622944e-02 0.0000000000000000e+00 1
-1.2178364657955582e-01 -7.9297358899904191e-02 0.0000000000000000e+00 1
-1.3072969468823128e-01 -8.3493497142754600e-02 0.0000000000000000e+00 1
-1.3031977432541264e-01 -7.3383621231515192e-02 0.0000000000000000e+00 1
-1.3301528969042908e-01 -9.3766422972507688e-02 0.0000000000000000e+00 1
-1.4013975222728461e-01 -8.6167420867963973e-02 0.0000000000000000e+00 1
-1.1476224856341505e-01 -5.8350293500922516e-02 0.0000000000000000e+00 1
-1.2074779355891649e-01 -6.1471052343497978e-02 0.0000000000000000e+00 1
-1.1569489109479919e-01 -5.1239202638119909e-02 0.0000000000000000e+00 1
-4.8783308411510920e-02 -3.9620208711033472e-02 0.0000000000000000e+00 1
-4.0011126403846256e-02 -3.3630166727154340e-02 0.0000000000000000e+00 1
-5.2703715339132019e-02 7.1954501539266387e-03 0.0000000000000000e+00 1
-5.3335137863318657e-02 1.4274661546201864e-02 0.0000000000000000e+00 1
-5.8668274691823938e-02 1.7270684784812911e-02 0.0000000000000000e+00 1
-5.3354412356857436e-02 2.1063927313736509e-02 0.0000000000000000e+00 1
-4.7734069446036920e-02 1.8161039390495095e-02 0.0000000000000000e+00 1
-4.8150082493781839e-02 2.4836857717832912e-02 0.0000000000000000e+00 1
-4.2381904530304465e-02 2.2068688486207730e-02 0.0000000000000000e+00 1
-4.3037779507043489e-02 2.8665722531064527e-02 0.0000000000000000e+00 1
-3.7110374637885191e-02 2.5918582754631051e-02 0.0000000000000000e+00 1
-3.7666362523793046e-02 3.2473603409620820e-02 0.0000000000000000e+00 1
-3.1562902076871770e-02 2.9597755831064217e-02 0.0000000000000000e+00 1
-3.2201707260980691e-02 3.6595514168769376e-02 0.0000000000000000e+00 1
-2.5630901279345548e-02 3.3560455562893748e-02 0.0000000000000000e+00 1
-4.3787782957602051e-02 3.5232104764092359e-02 0.0000000000000000e+00 1
-4.1797146883788668e-02 1.5083917918901166e-02 0.0000000000000000e+00 1
-2.6805098291176908e-02 4.0953009796864871e-02 0.0000000000000000e+00 1
-1.9623223786295326e-02 3.8348575637808607e-02 0.0000000000000000e+00 1
-3.3459067639976137e-02 4.2919544798831734e-02 0.0000000000000000e+00 1
-2.5214616683468132e-02 2.6084498136742396e-02 0.0000000000000000e+00 1
1.4747463839747837e-01 1.0343977700107053e-01 0.0000000000000000e+00 1
1.5985767967687686e-01 9.4937354471799892e-02 0.0000000000000000e+00 1
1.6055565654113488e-01 8.0967178442095458e-02 0.0000000000000000e+00 1
1.7256946784375782e-01 8.8736147424140419e-02 0.0000000000000000e+00 1
1.7169602408360232e-01 1.0263451059843882e-01 0.0000000000000000e+00 1
1.8433016899773952e-01 9.6598240877218133e-02 0.0000000000000000e+00 1
1.8308537351637036e-01 1.1155171642722879e-01 0.0000000000000000e+00 1
1.9607547279311704e-01 1.0472848563035436e-01 0.0000000000000000e+00 1
1.7421272096639356e-01 7.5251468094898646e-02 0.0000000000000000e+00 1
1.7046178203984236e-01 1.1705250033401515e-01 0.0000000000000000e+00 1
6.5531819067276453e-02 7.1688790355347781e-02 0.0000000000000000e+00 1
-8.3815500558077002e-02 -3.0013381561536472e-02 0.0000000000000000e+00 1
-9.1455666728053775e-02 -2.5822795699324285e-02 0.0000000000000000e+00 1
-8.4429979097448177e-02 -2.1447323484994091e-02 0.0000000000000000e+00 1
-1.0569467938808746e-01 -4.4269320744258413e-02 0.0000000000000000e+00 1
-4.8182288504140761e-02 3.0653962134129728e-02 0.0000000000000000e+00 1
3.8157940968933879e-02 1.1591677067946322e-03 0.0000000000000000e+00 1
4.0426453424326025e-01 2.0354275030972332e-01 0.0000000000000000e+00 1
-9.9053304293705374e-02 -3.9893120669713678e-02 0.0000000000000000e+00 1
-1.0528898767575734e-01 -3.7631289748048607e-02 0.0000000000000000e+00 1
-7.3052483376952290e-02 2.0853559471614761e-03 0.0000000000000000e+00 1
4.2343739049866147e-01 2.1754537190156353e-01 0.0000000000000000e+00 1
-2.4830355946089311e-01 -1.4811700326121610e-01 0.0000000000000000e+00 1
-3.9214944426549422e-02 -4.4630870853652686e-02 0.0000000000000000e+00 1
-2.9848760634432953e-02 -3.7652217835194041e-02 0.0000000000000000e+00 1
-1.5874393979800155e-01 -1.0947960804172607e-01 0.0000000000000000e+00 1
-1.5810821561347002e-01 -9.6843733927959155e-02 0.0000000000000000e+00 1
1.9501108086836330e-01 1.2001202058487909e-01 0.0000000000000000e+00 1
2.0780969606789979e-01 1.1269050422101486e-01 0.0000000000000000e+00 1
2.0918527689472272e-01 9.8207543790634677e-02 0.0000000000000000e+00 1
2.2000067842054782e-01 1.0696928739517657e-01 0.0000000000000000e+00 1
2.1952715461228198e-01 1.2019737440125423e-01 0.0000000000000000e+00 1
2.3144279220250091e-01 1.1484464031402038e-01 0.0000000000000000e+00 1
2.3134872113090732e-01 1.2749015615995674e-01 0.0000000000000000e+00 1
2.4335050951075934e-01 1.2180244976958259e-01 0.0000000000000000e+00 1
2.4286723116441683e-01 1.3512218849252416e-01 0.0000000000000000e+00 1
2.5525328917205270e-01 1.2984706219227016e-01 0.0000000000000000e+00 1
2.4402886091046472e-01 1.0813710348813525e-01 0.0000000000000000e+00 1
-1.3658325279120806e-01 -7.8605918981150560e-02 0.0000000000000000e+00 1
-3.8558862020563155e-02 3.9196885247146415e-02 0.0000000000000000e+00 1
-4.3719205649979373e-02 4.0390098559271795e-02 0.0000000000000000e+00 1
-6.1008876465520348e-02 -6.1362696968885147e-02 0.0000000000000000e+00 1
1.3394816434599557e-01 1.0718474320178210e-01 0.0000000000000000e+00 1
-2.0660604049671807e-01 -1.3215621822991841e-01 0.0000000000000000e+00 1
-1.3942987567928222e-01 -6.6581986757520445e-02 0.0000000000000000e+00 1
-3.6371255855240592e-02 4.7620242028884388e-02 0.0000000000000000e+00 1
-8.2909733180742101e-02 -5.8607419899423842e-02 0.0000000000000000e+00 1
-3.5202738226059335e-02 1.0588091113865538e-02 0.0000000000000000e+00 1
2.2329440719488175e-01 9.2375681347072497e-02 0.0000000000000000e+00 1
-1.8334702549288184e-01 -1.2109982392670826e-01 0.0000000000000000e+00 1
3.8665693562686371e-01 1.9240304651359783e-01 0.0000000000000000e+00 1
-4.4003349942037095e-03 5.7986358890692230e-02 0.0000000000000000e+00 1
2.7888725821259017e-03 -2.9540555870991702e-02 0.0000000000000000e+00 1
-8.7916061478318583e-03 -2.2929279287940241e-02 0.0000000000000000e+00 1
2.5354614300771160e-03 -1.5498011810859478e-02 0.0000000000000000e+00 1
-2.0336504542854551e-02 -2.7757438887508371e-02 0.0000000000000000e+00 1
-1.8243156042496420e-02 -1.7048112034918794e-02 0.0000000000000000e+00 1
1.5196894102175347e-02 -2.3032140055709853e-02 0.0000000000000000e+00 1
1.5770177619817947e-02 -1.0134743487327515e-02 0.0000000000000000e+00 1
-2.8268763144504742e-03 3.3543490442077391e-02 0.0000000000000000e+00 1
-4.3870104199340426e-03 4.2924061712573687e-02 0.0000000000000000e+00 1
4.0600021073832587e-01 2.1584580388952326e-01 0.0000000000000000e+00 1
3.3613913573616988e-01 1.9041638552003787e-01 0.0000000000000000e+00 1
3.3382527794590489e-01 1.7881813354407286e-01 0.0000000000000000e+00 1
3.2285438420263057e-01 1.7415415623265854e-01 0.0000000000000000e+00 1
3.4603270351035481e-01 1.8395033804116223e-01 0.0000000000000000e+00 1
-1.3490654993365914e-01 -6.7854137781894711e-02 0.0000000000000000e+00 1
-1.3061007862166446e-01 -6.5941573827730818e-02 0.0000000000000000e+00 1
2.5406566304161621e-01 1.4306910943138906e-01 0.0000000000000000e+00 1
2.6694627013956584e-01 1.3799556098573201e-01 0.0000000000000000e+00 1
2.6497661950985518e-01 1.5040401085582480e-01 0.0000000000000000e+00 1
2.7749298810972284e-01 1.4454002392784696e-01 0.0000000000000000e+00 1
3.8523316845488675e-01 2.0891434557818378e-01 0.0000000000000000e+00 1
2.5686947912389863e-02 6.8930114601697151e-02 0.0000000000000000e+00 1
-7.1208646876641440e-02 9.5142228744954701e-03 0.0000000000000000e+00 1
3.7779325013205034e-01 1.8641905092559916e-01 0.0000000000000000e+00 1
3.6589493926125405e-01 1.9142519266017247e-01 0.0000000000000000e+00 1
3.5765868140715529e-01 1.8288852855566209e-01 0.0000000000000000e+00 1
3.1328006265579589e-01 1.8183142246502579e-01 0.0000000000000000e+00 1
3.1126754366302634e-01 1.6933093180579573e-01 0.0000000000000000e+00 1
2.9948194821824370e-01 1.6455496818626153e-01 0.0000000000000000e+00 1
3.1004979179481817e-01 1.5653116482247401e-01 0.0000000000000000e+00 1
2.9916181581403606e-01 1.5129120741204327e-01 0.0000000000000000e+00 1
2.8833040736261445e-01 1.5957330763749525e-01 0.0000000000000000e+00 1
2.9972149826223093e-01 1.3740848399838948e-01 0.0000000000000000e+00 1
-1.4937450644565647e-01 -7.6475827238066452e-02 0.0000000000000000e+00 1
1.9786917934358242e-01 9.0114022562089627e-02 0.0000000000000000e+00 1
1.8624863303700501e-01 8.2659562135252537e-02 0.0000000000000000e+00 1
3.3212159325909379e-01 1.6707673354577951e-01 0.0000000000000000e+00 1
6.5674256835173209e-02 3.2283530051079421e-03 0.0000000000000000e+00 1
5.5725853771635775e-02 1.2065055501976995e-02 0.0000000000000000e+00 1
2.3502940723590660e-01 1.5252646870553421e-01 0.0000000000000000e+00 1
-6.5518052357667736e-02 -1.7854434303196394e-02 0.0000000000000000e+00 1
5.5607332049031431e-03 -3.6608040631656070e-03 0.0000000000000000e+00 1
2.0848581014291390e-01 1.4113936158108534e-01 0.0000000000000000e+00 1
-5.3445922332803986e-02 2.7757664077131889e-02 0.0000000000000000e+00 1
9.9066892494551292e-02 9.7402775329256785e-02 0.0000000000000000e+00 1
4.1589874874471855e-01 2.1170220223313282e-01 0.0000000000000000e+00 1
9.0980250282836531e-02 1.6162540760169184e-02 0.0000000000000000e+00 1
7.9305492217722123e-02 2.4416057451441629e-02 0.0000000000000000e+00 1
9.3234043835807551e-02 3.2160835500204751e-02 0.0000000000000000e+00 1
-1.3343594911116996e-02 5.4840153508640292e-02 0.0000000000000000e+00 1
-1.4406388808925759e-02 4.5749476183021477e-02 0.0000000000000000e+00 1
-1.9406666567841069e-01 -1.2608678520631714e-01 0.0000000000000000e+00 1
-1.2881846675774933e-01 -5.6904383277989183e-02 0.0000000000000000e+00 1
4.5375743962082715e-02 5.6787275385254861e-02 0.0000000000000000e+00 1
8.6097259928910416e-02 9.2156291232952395e-02 0.0000000000000000e+00 1
8.3611189095717242e-02 7.9032570556398299e-02 0.0000000000000000e+00 1
3.4677397020175543e-01 1.9446307853679726e-01 0.0000000000000000e+00 1
1.5307242844842856e-02 6.5146084201228430e-02 0.0000000000000000e+00 1
2.3230233011768783e-02 5.5818521503095554e-02 0.0000000000000000e+00 1
4.8091627900323342e-02 7.9006944930835987e-02 0.0000000000000000e+00 1
1.1567005793991453e-01 2.8137639198952888e-02 0.0000000000000000e+00 1
1.8035834296238729e-01 1.2837766350164409e-01 0.0000000000000000e+00 1
1.2543222768019835e-01 5.7702570573963052e-02 0.0000000000000000e+00 1
1.3735180849040329e-01 5.0350523027661936e-02 0.0000000000000000e+00 1
1.5025173101913847e-01 5.9705862375320613e-02 0.0000000000000000e+00 1
-5.1027553228938823e-02 -8.5561022391173250e-04 0.0000000000000000e+00 1
1.4882505687154338e-01 7.3213847923895140e-02 0.0000000000000000e+00 1
3.2061182085364255e-03 5.0953199730499235e-02 0.0000000000000000e+00 1
2.8917732472161761e-01 1.7260002197633287e-01 0.0000000000000000e+00 1
2.5674096783203171e-01 1.1771723880773045e-01 0.0000000000000000e+00 1
3.2152631989366137e-01 1.6173468111172321e-01 0.0000000000000000e+00 1
-1.6176543393424503e-01 -8.7069291739769336e-02 0.0000000000000000e+00 1
2.1137463868475204e-01 8.3317671439819704e-02 0.0000000000000000e+00 1
3.6769075196907358e-01 2.0197384691770803e-01 0.0000000000000000e+00 1
-2.9210356745975136e-02 4.9189575427062787e-02 0.0000000000000000e+00 1
3.5985434412926254e-01 1.7324441357336148e-01 0.0000000000000000e+00 1
2.5052533581034753e-02 4.2935120576045711e-02 0.0000000000000000e+00 1
-2.5761942356879025e-01 -1.5469605046734936e-01 0.0000000000000000e+00 1
3.2123227912226970e-01 1.4931214029991616e-01 0.0000000000000000e+00 1
1.8849809492085645e-01 6.9168425336994452e-02 0.0000000000000000e+00 1
-1.9202857707383952e-01 -1.1256212997284690e-01 0.0000000000000000e+00 1
2.0754192066860316e-01 1.2704846119115970e-01 0.0000000000000000e+00 1
7.8579370817909000e-02 6.7726634408229749e-02 0.0000000000000000e+00 1
-1.7642277685859040e-01 -9.8516798165660599e-02 0.0000000000000000e+00 1
2.7986305284712809e-01 1.2138586023313785e-01 0.0000000000000000e+00 1
1.1401821149522090e-01 5.0053508957776376e-02 0.0000000000000000e+00 1
3.9211169772329174e-01 2.1146691456532199e-01 0.0000000000000000e+00 1
-1.2153894189975208e-01 -4.9797676322239796e-02 0.0000000000000000e+00 1
6.7608099329024743e-02 1.8293596353295593e-02 0.0000000000000000e+00 1
4.1091866384230002e-01 2.1749087296848862e-01 0.0000000000000000e+00 1
-1.1778947019077107e-01 -4.5569089596520673e-02 0.0000000000000000e+00 1
-2.6700913794700998e-01 -1.6069966935366989e-01 0.0000000000000000e+00 1
6.8380069134301016e-02 3.2943710934954025e-02 0.0000000000000000e+00 1
-7.7291979501108679e-02 7.6163710688481904e-03 0.0000000000000000e+00 1
-9.9528462335716883e-02 -2.2730706728779297e-02 0.0000000000000000e+00 1
-6.5086341337538975e-02 1.4303653183234533e-02 0.0000000000000000e+00 1
-6.7398554340536973e-02 2.0333143130657864e-02 0.0000000000000000e+00 1
-9.5713459900667625e-02 -1.7970422632512372e-02 0.0000000000000000e+00 1
-8.4249222452751765e-02 -2.9282095631283835e-03 0.0000000000000000e+00 1
-8.8477783412703778e-02 -7.9299674568618257e-03 0.0000000000000000e+00 1
-8.5653233384666266e-02 -1.4259403087465636e-02 0.0000000000000000e+00 1
-1.6834098151035670e-01 -1.0331441351440133e-01 0.0000000000000000e+00 1
-5.9937824078332549e-02 2.8649268980995304e-02 0.0000000000000000e+00 1
-5.3477540007319309e-02 3.6070108583384060e-02 0.0000000000000000e+00 1
1.7537253287740018e-01 6.1942108014807207e-02 0.0000000000000000e+00 1
1.6853894876903176e-02 1.3882974126355474e-02 0.0000000000000000e+00 1
-4.1178747888653500e-02 -2.3096523538284060e-02 0.0000000000000000e+00 1
-1.0056487856093028e-01 -3.3060261576178647e-02 0.0000000000000000e+00 1
-4.7789489139168945e-02 1.2022854247372683e-02 0.0000000000000000e+00 1
6.1231002788028469e-02 8.2573353520596193e-02 0.0000000000000000e+00 1
3.4155225077692086e-01 1.6119118886522071e-01 0.0000000000000000e+00 1
2.6328663287234849e-01 1.6312689624369850e-01 0.0000000000000000e+00 1
3.7691840694672135e-01 1.9641345738422686e-01 0.0000000000000000e+00 1
4.6481430448935081e-02 1.9735537601556979e-02 0.0000000000000000e+00 1
3.4919890933139172e-02 6.1837048293480086e-02 0.0000000000000000e+00 1
-2.7609447645613816e-01 -1.6629661112017904e-01 0.0000000000000000e+00 1
-7.8534119994443374e-02 -1.6918512500600853e-02 0.0000000000000000e+00 1
-9.0465998634858560e-02 -6.3439454173215420e-02 0.0000000000000000e+00 1
-5.7814272263390268e-02 -4.3668708124828398e-02 0.0000000000000000e+00 1
-1.4835247992482506e-01 -9.3332310780227593e-02 0.0000000000000000e+00 1
-3.5904610767399578e-02 1.8911246892123024e-02 0.0000000000000000e+00 1
-2.1172897179561254e-01 -1.2171526601233355e-01 0.0000000000000000e+00 1
4.0437858562311343e-02 -1.0940767419936834e-02 0.0000000000000000e+00 1
1.1133929268196310e-01 9.0287886757539113e-02 0.0000000000000000e+00 1
2.2007435314119822e-01 1.3368162244003201e-01 0.0000000000000000e+00 1
-1.2307783140328256e-01 -6.8928425907293520e-02 0.0000000000000000e+00 1
-7.3344406451221270e-02 -5.4654162356573832e-02 0.0000000000000000e+00 1
-5.8671338083325593e-02 2.3302225187434092e-02 0.0000000000000000e+00 1
-4.4269094520868330e-02 4.4188875975527696e-02 0.0000000000000000e+00 1
4.1888459287247204e-01 2.1895328993960428e-01 0.0000000000000000e+00 1
-1.8915564615889023e-02 2.0849747083581945e-02 0.0000000000000000e+00 1
1.6215857034076375e-01 6.7612898832878771e-02 0.0000000000000000e+00 1
3.9748052461947847e-01 2.0673426339240850e-01 0.0000000000000000e+00 1
-1.3209610783857398e-01 -6.0429195702682514e-02 0.0000000000000000e+00 1
-3.1493287771924783e-02 2.3418910618949611e-02 0.0000000000000000e+00 1
-2.8586483028272236e-01 -1.7182015240868062e-01 0.0000000000000000e+00 1
1.6069166509858146e-01 1.0735314902651502e-01 0.0000000000000000e+00 1
-1.8855621388915528e-02 3.0327835997048736e-02 0.0000000000000000e+00 1
2.7017722107591118e-02 -4.6025907926846741e-03 0.0000000000000000e+00 1
-3.1763729422090305e-02 -2.6758015000849251e-02 0.0000000000000000e+00 1
2.8832716473566894e-01 1.4486392566859391e-01 0.0000000000000000e+00 1
1.2351359933895255e-01 9.7437768900635824e-02 0.0000000000000000e+00 1
-1.2009658013807521e-01 -5.5136373384944516e-02 0.0000000000000000e+00 1
-1.8356539433310869e-03 2.8084984458843052e-03 0.0000000000000000e+00 1
2.7873842941363047e-01 1.3400737235065657e-01 0.0000000000000000e+00 1
-2.3901599868656989e-01 -1.4138326223289846e-01 0.0000000000000000e+00 1
-4.7637480526843461e-02 4.2085965297357968e-02 0.0000000000000000e+00 1
-2.1742934717599149e-01 -1.3967557835345842e-01 0.0000000000000000e+00 1
1.5168729877551818e-01 4.7109685138429280e-02 0.0000000000000000e+00 1
1.6582082941923156e-02 1.8846003958845404e-03 0.0000000000000000e+00 1
4.1086636401941684e-01 2.1290870443808094e-01 0.0000000000000000e+00 1
-1.8322336038489928e-02 -7.3186314608670441e-03 0.0000000000000000e+00 1
-1.4836931517368510e-01 -8.4117808732131996e-02 0.0000000000000000e+00 1
-2.9558015566694040e-01 -1.7725084376406119e-01 0.0000000000000000e+00 1
4.2364795853952913e-01 2.1925668488672204e-01 0.0000000000000000e+00 1
4.2103003265322425e-01 2.1677760907472424e-01 0.0000000000000000e+00 1
4.0526517053129085e-01 2.1013940971370773e-01 0.0000000000000000e+00 1
3.4261320656144978e-01 1.7247571037103568e-01 0.0000000000000000e+00 1
2.7678381446161637e-01 1.5548109159708398e-01 0.0000000000000000e+00 1
-1.1284130920848229e-02 3.5937957608670620e-02 0.0000000000000000e+00 1
-9.8079994932900750e-03 -1.2473586602099483e-02 0.0000000000000000e+00 1
1.2774924819199514e-02 5.6093770271491393e-02 0.0000000000000000e+00 1
-8.9875680774268010e-02 -1.8479828698087765e-02 0.0000000000000000e+00 1
-1.3808703713339374e-01 -7.2673085512421437e-02 0.0000000000000000e+00 1
3.8672024116326298e-01 2.0080147705236379e-01 0.0000000000000000e+00 1
-1.0729857762775996e-01 -3.1960653337002980e-02 0.0000000000000000e+00 1
2.6772801092720777e-01 1.2579083076412714e-01 0.0000000000000000e+00 1
-7.7985239496665831e-02 -3.1154498137727581e-03 0.0000000000000000e+00 1
-3.0508484877672098e-01 -1.8257917229048795e-01 0.0000000000000000e+00 1
-2.6098328674855870e-02 -1.2280261832374928e-02 0.0000000000000000e+00 1
-4.8836715610412453e-02 3.5353024559352159e-02 0.0000000000000000e+00 1
-2.0108509292626000e-02 -4.2385600129547250e-02 0.0000000000000000e+00 1
1.4205488044418543e-01 3.9738494990589270e-02 0.0000000000000000e+00 1
4.2274064559852587e-01 2.1556343973264630e-01 0.0000000000000000e+00 1
2.3255395057504985e-01 1.4019165690201596e-01 0.0000000000000000e+00 1
-2.2823264616311692e-01 -1.3415525657564170e-01 0.0000000000000000e+00 1
-1.4311944638895352e-01 -7.8271961000174473e-02 0.0000000000000000e+00 1
-3.1448966876472562e-01 -1.8767454560565361e-01 0.0000000000000000e+00 1
4.1726835005055057e-01 2.1576659043269605e-01 0.0000000000000000e+00 1
4.6021605635491923e-02 6.8127919973474602e-02 0.0000000000000000e+00 1
-3.7840349550461616e-02 4.3684308832838616e-02 0.0000000000000000e+00 1
-1.7721060777771017e-01 -1.0672779357416438e-01 0.0000000000000000e+00 1
-1.1144738589858839e-01 -3.6281247842908503e-02 0.0000000000000000e+00 1
1.2228723770513664e-01 1.0930824508366997e-01 0.0000000000000000e+00 1
1.4156388832769701e-01 1.1611367294650864e-01 0.0000000000000000e+00 1
1.6544971109769310e-01 1.2771768409166012e-01 0.0000000000000000e+00 1
3.5139499403864538e-01 1.7596553000614606e-01 0.0000000000000000e+00 1
-3.2340727408890957e-01 -1.9267228570398709e-01 0.0000000000000000e+00 1
-2.3969708218784347e-01 -1.5136014871568637e-01 0.0000000000000000e+00 1
-1.5466699149245514e-01 -8.9361363546832828e-02 0.0000000000000000e+00 1
2.5752459701269509e-01 1.0627416248651861e-01 0.0000000000000000e+00 1
-5.2507262591348192e-02 3.2211009206795156e-02 0.0000000000000000e+00 1
1.2367683680906753e-01 4.6872773037720694e-02 0.0000000000000000e+00 1
-5.7935215613854243e-02 -5.2595471817000826e-02 0.0000000000000000e+00 1
-2.1118167951163051e-02 4.4802339476523824e-02 0.0000000000000000e+00 1
-9.7001411671450544e-02 -2.8081558767975578e-02 0.0000000000000000e+00 1
-2.9808488428772231e-02 -4.8570396895950142e-02 0.0000000000000000e+00 1
-2.6012573299537357e-02 -2.0242960410595739e-02 0.0000000000000000e+00 1
-1.2409831883800772e-01 -5.7910745512033103e-02 0.0000000000000000e+00 1
-7.5241469122375643e-02 1.2348435118013514e-02 0.0000000000000000e+00 1
-1.1183597181752881e-01 -4.5981364587324325e-02 0.0000000000000000e+00 1
-8.1997548488948038e-02 -6.7430933184031094e-02 0.0000000000000000e+00 1
-1.3814352193943311e-01 -1.0188339636708568e-01 0.0000000000000000e+00 1
2.4861144849736089e-01 9.9097871640078924e-02 0.0000000000000000e+00 1
9.0957295825196099e-02 7.1593077406139807e-02 0.0000000000000000e+00 1
-1.0964314091092166e-01 -4.0910326705065010e-02 0.0000000000000000e+00 1
1.1509131575399362e-01 3.9491708429306327e-02 0.0000000000000000e+00 1
4.1393877494808307e-01 2.1516990579008705e-01 0.0000000000000000e+00 1
-4.1058454409739924e-02 4.2709254245124645e-02 0.0000000000000000e+00 1
-1.1561713900096789e-01 -7.4302376951619370e-02 0.0000000000000000e+00 1
-6.2748924898202885e-02 2.0083300896417862e-02 0.0000000000000000e+00 1
-1.8267451868695184e-01 -1.1213497335591859e-01 0.0000000000000000e+00 1
-7.2048292520933949e-02 -1.9787096261857019e-02 0.0000000000000000e+00 1
3.5422291315795168e-01 1.9088204195429828e-01 0.0000000000000000e+00 1
7.3480177304745570e-02 7.7702261567483361e-02 0.0000000000000000e+00 1
3.9130862826723306e-01 2.0541468017178544e-01 0.0000000000000000e+00 1
4.5546764923007813e-02 8.5602185739899767e-03 0.0000000000000000e+00 1
2.4369630346669216e-01 1.4554417603728789e-01 0.0000000000000000e+00 1
2.3055775326686789e-01 1.0405236409914299e-01 0.0000000000000000e+00 1
-2.8145627848600923e-03 -6.6431933821532894e-03 0.0000000000000000e+00 1
-3.3153921959915456e-01 -1.9691567717928532e-01 0.0000000000000000e+00 1
-2.4932341609980116e-01 -1.5688580391576021e-01 0.0000000000000000e+00 1
1.0562259704295673e-01 3.2649016396272781e-02 0.0000000000000000e+00 1
-4.6872244630220668e-02 3.8453319966638942e-02 0.0000000000000000e+00 1
-1.2657476616969907e-01 -6.1930896095204517e-02 0.0000000000000000e+00 1
-6.8467113437886053e-03 5.0642040701838996e-02 0.0000000000000000e+00 1
5.6456914680859664e-02 7.3770546325459554e-02 0.0000000000000000e+00 1
-1.4107350363049320e-01 -9.4489146134793214e-02 0.0000000000000000e+00 1

Edges
188
1 2 1
2 3 1
3 4 1
4 5 1
5 6 1
6 7 1
7 8 1
8 9 1
9 10 1
10 11 1
11 12 1
12 13 1
13 14 1
14 15 1
15 16 1
16 17 1
17 18 1
18 19 1
19 20 1
20 21 1
21 22 1
22 23 1
23 24 1
24 25 1
25 26 1
26 27 1
27 28 1
28 29 1
29 30 1
30 31 1
31 32 1
32 33 1
33 34 1
34 35 1
35 36 1
36 37 1
37 38 1
38 39 1
39 40 1
40 41 1
41 42 1
42 43 1
43 44 1
44 45 1
45 46 1
46 47 1
47 48 1
48 49 1
49 50 1
50 51 1
51 52 1
52 53 1
53 54 1
54 55 1
55 56 1
56 57 1
57 58 1
58 59 1
59 60 1
60 61 1
61 62 1
62 63 1
63 64 1
64 65 1
65 66 1
66 67 1
67 68 1
68 69 1
69 70 1
70 71 1
71 72 1
72 73 1
73 74 1
74 75 1
75 76 1
76 77 1
77 78 1
78 79 1
79 80 1
80 81 1
81 82 1
82 83 1
83 84 1
84 85 1
85 86 1
86 87 1
87 88 1
88 89 1
89 90 1
90 91 1
91 92 1
92 93 1
93 94 1
94 95 1
95 96 1
96 97 1
97 98 1
98 99 1
99 100 1
100 101 1
101 102 1
102 103 1
103 104 1
104 105 1
105 106 1
106 107 1
107 108 1
108 109 1
109 110 1
110 111 1
111 112 1
112 113 1
113 114 1
114 115 1
115 116 1
116 117 1
117 118 1
118 119 1
119 120 1
120 121 1
121 122 1
122 123 1
123 124 1
124 125 1
125 126 1
126 127 1
127 128 1
128 129 1
129 130 1
130 131 1
131 132 1
132 133 1
133 134 1
134 135 1
135 136 1
136 137 1
137 138 1
138 139 1
139 140 1
140 141 1
141 142 1
142 143 1
143 144 1
144 145 1
145 146 1
146 147 1
147 148 1
148 149 1
149 150 1
150 151 1
151 152 1
152 153 1
153 154 1
154 155 1
155 156 1
156 157 1
157 158 1
158 159 1
159 160 1
160 161 1
161 162 1
162 163 1
163 164 1
164 165 1
165 166 1
166 167 1
167 168 1
168 169 1
169 170 1
170 171 1
171 172 1
172 173 1
173 174 1
174 175 1
175 176 1
176 177 1
177 178 1
178 179 1
179 180 1
180 181 1
181 182 1
182 183 1
183 184 1
184 185 1
185 186 1
186 187 1
187 188 1
188 1 1

Triangles
1102
470 416 499 1
513 379 516 1
98 99 451 1
39 40 32 1
410 241 540 1
241 410 470 1
282 348 484 1
241 470 499 1
373 394 480 1
340 433 582 1
414 281 539 1
386 526 584 1
335 517 518 1
336 309 467 1
477 320 495 1
212 408 545 1
403 488 585 1
220 448 449 1
233 248 338 1
91 92 415 1
205 70 390 1
433 340 434 1
499 416 630 1
28 42 27 1
309 308 467 1
408 322 545 1
434 544 643 1
34 38 33 1
488 215 585 1
434 340 544 1
343 254 345 1
282 362 527 1
526 194 584 1
314 477 495 1
205 346 537 1
33 39 32 1
376 373 480 1
191 441 514 1
335 518 519 1
390 70 615 1
362 282 414 1
507 466 511 1
112 245 464 1
192 387 512 1
337 67 620 1
238 551 575 1
321 378 379 1
516 379 581 1
220 449 451 1
308 466 467 1
387 192 586 1
396 453 491 1
339 338 340 1
43 44 26 1
32 40 31 1
361 406 407 1
99 220 451 1
52 496 510 1
315 507 511 1
348 282 527 1
319 473 474 1
381 385 386 1
251 254 343 1
441 332 514 1
394 217 480 1
66 67 337 1
492 443 531 1
26 44 25 1
218 98 451 1
51 52 510 1
218 559 563 1
448 220 497 1
92 211 415 1
379 513 614 1
233 64 248 1
229 443 492 1
380 302 535 1
321 259 378 1
443 229 632 1
466 308 511 1
271 282 484 1
427 469 578 1
346 205 390 1
366 281 549 1
462 190 521 1
218 451 559 1
203 482 611 1
381 255 385 1
281 366 553 1
361 357 406 1
315 457 507 1
111 112 464 1
482 203 591 1
453 209 491 1
367 213 603 1
362 414 539 1
386 385 526 1
213 367 555 1
421 424 425 1
233 338 339 1
544 344 643 1
115 116 573 1
523 375 550 1
253 251 343 1
462 521 546 1
226 435 437 1
248 222 249 1
235 531 583 1
253 343 344 1
365 363 493 1
405 340 582 1
355 361 382 1
208 523 550 1
378 302 380 1
439 235 583 1
249 250 251 1
421 425 460 1
14 564 594 1
249 251 253 1
110 237 384 1
91 415 491 1
457 315 532 1
226 437 530 1
209 453 454 1
230 393 490 1
275 281 414 1
340 338 544 1
489 448 497 1
551 384 575 1
432 444 632 1
27 43 26 1
444 443 632 1
359 365 406 1
235 492 531 1
246 392 520 1
160 161 412 1
344 561 617 1
559 450 577 1
51 510 534 1
246 60 392 1
303 460 568 1
63 233 341 1
319 463 473 1
460 425 568 1
69 205 408 1
30 41 29 1
444 432 605 1
338 248 628 1
304 332 387 1
109 110 384 1
50 51 534 1
589 522 610 1
232 118 548 1
339 340 405 1
251 252 254 1
263 459 631 1
249 222 250 1
391 422 558 1
63 341 621 1
415 396 491 1
454 375 498 1
302 263 631 1
118 119 548 1
320 477 580 1
392 240 393 1
410 57 470 1
65 222 248 1
321 379 614 1
421 419 424 1
493 363 613 1
530 437 577 1
413 212 545 1
257 321 385 1
345 254 619 1
387 332 441 1
353 355 382 1
209 454 498 1
228 530 577 1
255 257 385 1
342 339 405 1
379 378 380 1
355 357 361 1
67 212 620 1
254 255 381 1
248 249 628 1
393 230 520 1
422 391 590 1
221 522 589 1
214 383 541 1
217 394 500 1
205 537 612 1
59 246 416 1
299 334 459 1
243 109 384 1
419 74 424 1
330 304 387 1
422 420 423 1
359 363 365 1
344 343 561 1
268 269 285 1
299 285 304 1
564 247 594 1
259 261 378 1
376 213 555 1
191 514 515 1
319 474 623 1
304 305 332 1
112 113 245 1
261 302 378 1
257 259 321 1
213 376 604 1
336 467 641 1
65 66 222 1
63 64 233 1
222 66 337 1
541 383 557 1
108 243 417 1
61 240 392 1
333 349 350 1
251 250 252 1
464 245 597 1
110 111 237 1
271 273 282 1
300 283 426 1
200 541 557 1
357 359 406 1
438 559 577 1
265 267 268 1
268 299 459 1
261 263 302 1
498 375 523 1
382 361 589 1
161 189 412 1
254 381 619 1
350 349 351 1
197 419 420 1
351 353 462 1
412 365 493 1
2 207 411 1
299 304 330 1
515 514 629 1
348 305 484 1
539 281 553 1
156 157 418 1
61 62 240 1
455 431 489 1
268 285 299 1
268 267 269 1
332 305 333 1
381 386 624 1
197 420 422 1
243 384 551 1
304 285 305 1
108 109 243 1
224 489 497 1
410 244 566 1
526 321 614 1
228 450 487 1
305 285 484 1
263 265 459 1
275 277 281 1
343 345 561 1
431 446 489 1
445 231 446 1
408 205 612 1
517 335 586 1
212 68 408 1
67 68 212 1
224 455 489 1
416 246 630 1
64 65 248 1
424 200 425 1
132 231 445 1
341 339 342 1
50 534 554 1
269 271 484 1
426 427 578 1
107 417 442 1
69 70 205 1
49 50 554 1
153 154 440 1
469 364 578 1
197 73 419 1
254 252 255 1
351 462 546 1
58 59 416 1
59 60 246 1
426 316 427 1
246 600 630 1
72 73 197 1
128 129 475 1
332 333 514 1
549 300 556 1
119 120 236 1
370 375 454 1
334 330 335 1
229 128 475 1
60 61 392 1
420 419 421 1
353 354 355 1
245 113 592 1
483 482 567 1
283 287 426 1
383 214 635 1
287 316 426 1
428 238 575 1
330 387 586 1
232 388 573 1
134 228 487 1
75 200 424 1
195 493 613 1
282 273 414 1
211 404 637 1
351 352 353 1
293 314 495 1
56 57 410 1
226 137 458 1
314 295 472 1
333 348 349 1
279 283 300 1
281 277 549 1
269 270 271 1
431 445 446 1
392 393 520 1
214 456 457 1
384 237 575 1
273 275 414 1
418 157 468 1
145 409 603 1
106 107 442 1
429 430 432 1
79 204 456 1
271 272 273 1
68 69 408 1
223 139 461 1
567 482 591 1
237 111 464 1
406 365 599 1
149 201 473 1
376 480 604 1
148 149 473 1
355 356 357 1
483 208 550 1
147 148 463 1
197 422 590 1
54 55 247 1
117 118 232 1
204 466 507 1
353 382 462 1
74 75 424 1
107 108 417 1
457 456 507 1
1 2 411 1
279 300 549 1
372 370 454 1
265 268 459 1
121 122 428 1
465 216 467 1
361 407 642 1
401 399 404 1
138 223 458 1
160 412 493 1
130 131 234 1
137 138 458 1
73 74 419 1
447 231 487 1
132 133 231 1
287 289 316 1
461 217 500 1
130 234 429 1
403 401 488 1
129 130 429 1
265 266 267 1
440 154 476 1
121 428 508 1
81 216 465 1
397 396 415 1
131 132 445 1
204 465 466 1
75 76 200 1
134 135 228 1
242 106 442 1
473 201 474 1
214 78 456 1
224 102 529 1
198 153 440 1
388 115 573 1
285 269 484 1
449 450 559 1
453 372 454 1
140 217 461 1
437 436 438 1
429 234 430 1
58 416 470 1
136 137 226 1
395 374 396 1
508 428 569 1
463 148 473 1
366 549 556 1
77 78 214 1
196 156 418 1
429 432 475 1
395 396 397 1
210 147 463 1
404 211 622 1
350 351 546 1
435 403 436 1
127 128 229 1
57 58 470 1
488 404 609 1
374 372 453 1
345 506 561 1
242 442 443 1
466 465 467 1
138 139 223 1
204 80 465 1
244 410 540 1
263 264 265 1
443 442 531 1
139 140 461 1
105 106 242 1
402 401 403 1
446 447 448 1
297 331 472 1
295 297 472 1
217 141 480 1
436 403 585 1
83 203 479 1
140 141 217 1
79 80 204 1
400 399 401 1
370 369 375 1
396 374 453 1
387 441 512 1
216 82 479 1
450 447 487 1
158 159 195 1
293 295 314 1
149 150 201 1
398 397 399 1
81 82 216 1
455 224 529 1
420 421 579 1
152 153 198 1
143 144 213 1
146 147 210 1
379 380 581 1
342 405 595 1
129 429 475 1
78 79 456 1
368 369 370 1
368 329 369 1
80 81 465 1
227 104 494 1
446 231 447 1
261 262 263 1
155 156 196 1
477 314 533 1
297 306 331 1
369 329 485 1
208 483 567 1
327 318 481 1
82 83 479 1
141 142 480 1
103 104 227 1
83 84 203 1
394 374 395 1
127 229 492 1
233 339 341 1
316 320 486 1
435 436 437 1
318 313 481 1
609 404 622 1
125 126 235 1
409 145 602 1
373 372 374 1
259 260 261 1
401 404 488 1
124 125 439 1
151 152 478 1
446 448 489 1
385 321 526 1
326 318 327 1
316 289 320 1
122 123 238 1
327 481 482 1
402 403 435 1
232 548 574 1
299 330 334 1
154 155 476 1
371 370 372 1
400 401 402 1
195 159 493 1
157 158 468 1
327 483 485 1
186 187 471 1
133 134 487 1
430 431 455 1
203 611 625 1
479 203 625 1
335 519 535 1
327 482 483 1
407 406 627 1
101 102 224 1
198 440 533 1
257 258 259 1
395 397 398 1
398 399 400 1
86 87 208 1
440 476 477 1
326 327 485 1
574 548 597 1
152 198 478 1
456 204 507 1
448 447 449 1
367 329 368 1
368 370 371 1
486 418 644 1
231 133 487 1
99 100 220 1
255 256 257 1
373 374 394 1
333 305 348 1
331 306 377 1
313 311 504 1
312 317 319 1
89 90 209 1
90 91 491 1
198 533 598 1
273 274 275 1
97 98 218 1
16 17 496 1
56 410 566 1
196 418 486 1
95 96 215 1
481 313 504 1
329 326 485 1
92 93 211 1
371 372 373 1
333 350 514 1
325 318 326 1
104 105 494 1
136 226 530 1
311 336 504 1
328 326 329 1
317 313 318 1
88 89 498 1
159 160 493 1
519 380 535 1
200 76 541 1
105 242 494 1
269 267 270 1
351 349 352 1
328 367 409 1
394 395 500 1
164 165 221 1
307 309 310 1
438 436 563 1
317 318 325 1
234 131 445 1
100 101 497 1
2 3 207 1
62 63 621 1
325 326 328 1
228 135 530 1
312 311 313 1
155 196 476 1
427 486 644 1
328 329 367 1
312 313 317 1
77 214 541 1
430 234 431 1
427 316 486 1
15 16 389 1
96 97 503 1
311 309 336 1
168 169 219 1
307 298 308 1
242 443 444 1
307 308 309 1
559 438 563 1
371 373 376 1
310 311 312 1
310 309 311 1
17 18 510 1
209 90 491 1
271 270 272 1
395 398 500 1
295 296 297 1
166 167 190 1
89 209 498 1
290 292 293 1
101 224 497 1
297 298 306 1
201 528 633 1
409 367 603 1
415 211 637 1
306 298 307 1
242 444 494 1
10 11 241 1
12 13 244 1
377 306 501 1
158 195 468 1
126 127 492 1
201 150 528 1
307 310 501 1
247 55 566 1
220 100 497 1
290 293 495 1
247 566 594 1
306 307 501 1
293 294 295 1
375 369 550 1
468 195 469 1
124 439 505 1
9 10 499 1
393 240 538 1
48 49 572 1
297 296 298 1
113 114 592 1
273 272 274 1
353 352 354 1
449 447 450 1
8 9 239 1
97 218 503 1
275 276 277 1
215 96 503 1
323 291 324 1
324 291 524 1
283 284 287 1
496 17 510 1
170 171 191 1
114 115 388 1
389 16 496 1
287 288 289 1
279 280 283 1
49 554 572 1
296 294 315 1
295 294 296 1
265 264 266 1
544 338 628 1
542 325 560 1
250 222 337 1
277 278 279 1
246 520 600 1
4 5 225 1
355 354 356 1
431 234 445 1
382 589 610 1
172 173 512 1
151 478 528 1
7 8 502 1
6 7 230 1
320 289 495 1
125 235 439 1
208 87 523 1
463 319 542 1
293 292 294 1
4 225 452 1
263 262 264 1
102 103 529 1
308 298 511 1
528 377 633 1
289 288 290 1
173 174 192 1
3 4 452 1
71 72 590 1
442 417 531 1
120 121 508 1
70 71 615 1
290 291 292 1
123 124 505 1
5 6 490 1
535 302 631 1
88 498 523 1
289 290 495 1
298 296 511 1
122 238 428 1
290 288 291 1
261 260 262 1
270 267 525 1
485 483 550 1
169 170 515 1
323 324 383 1
296 315 511 1
292 291 323 1
259 258 260 1
287 284 288 1
177 178 516 1
174 175 517 1
175 176 518 1
432 430 576 1
176 177 193 1
475 432 632 1
178 179 513 1
283 280 284 1
253 344 544 1
167 168 521 1
352 349 527 1
179 180 194 1
10 241 499 1
404 399 637 1
279 278 280 1
388 232 574 1
210 463 542 1
397 415 637 1
150 151 528 1
54 247 607 1
510 18 534 1
357 358 359 1
87 88 523 1
275 274 276 1
367 368 555 1
257 256 258 1
317 325 542 1
255 252 256 1
277 276 278 1
161 162 189 1
480 142 604 1
284 280 303 1
165 166 522 1
425 557 568 1
14 15 564 1
357 356 358 1
8 239 502 1
322 408 612 1
144 145 603 1
235 126 492 1
441 191 618 1
314 472 533 1
500 398 543 1
71 590 615 1
183 184 509 1
182 183 199 1
6 230 490 1
531 417 583 1
184 185 506 1
135 136 530 1
563 436 585 1
203 84 591 1
506 345 509 1
86 208 567 1
239 9 499 1
574 245 592 1
18 19 534 1
411 207 582 1
328 409 560 1
143 213 604 1
514 350 629 1
347 390 391 1
266 346 347 1
185 186 202 1
103 227 529 1
12 244 540 1
579 421 638 1
315 294 532 1
210 542 560 1
347 391 558 1
11 12 540 1
267 266 525 1
219 169 515 1
460 303 562 1
349 348 527 1
168 219 521 1
371 376 555 1
301 270 525 1
241 11 540 1
223 461 543 1
292 323 532 1
482 481 611 1
533 472 598 1
461 500 543 1
170 191 515 1
300 426 578 1
362 352 527 1
417 243 583 1
187 188 552 1
359 360 363 1
173 192 512 1
467 216 641 1
294 292 532 1
13 14 594 1
272 270 301 1
312 319 623 1
278 276 286 1
266 264 346 1
469 427 644 1
190 167 521 1
432 576 605 1
354 352 362 1
490 393 608 1
192 174 517 1
166 190 522 1
25 44 639 1
486 320 580 1
266 347 525 1
291 288 524 1
230 7 502 1
262 260 322 1
474 501 623 1
517 175 518 1
245 574 597 1
250 337 536 1
215 488 609 1
440 477 533 1
119 236 548 1
214 457 635 1
319 317 542 1
347 346 390 1
176 193 518 1
398 400 543 1
76 77 541 1
501 310 623 1
193 177 516 1
334 335 535 1
192 517 586 1
383 324 557 1
221 165 522 1
178 513 516 1
211 93 622 1
288 284 524 1
437 438 577 1
450 228 577 1
494 444 605 1
188 1 206 1
369 485 550 1
477 476 580 1
212 413 620 1
145 146 602 1
179 194 513 1
95 215 609 1
47 48 587 1
364 556 578 1
534 19 554 1
451 449 559 1
284 303 524 1
258 256 413 1
425 200 557 1
196 486 580 1
277 279 549 1
230 502 520 1
238 123 505 1
566 244 594 1
471 187 552 1
162 163 547 1
518 193 519 1
19 20 554 1
335 330 586 1
225 5 490 1
247 564 607 1
363 360 364 1
202 186 471 1
240 62 621 1
206 433 434 1
538 240 646 1
422 423 616 1
423 420 579 1
521 219 546 1
350 546 629 1
48 572 587 1
360 358 366 1
163 164 565 1
164 221 565 1
359 358 360 1
368 371 555 1
303 280 562 1
207 3 452 1
264 262 537 1
252 250 536 1
199 183 509 1
538 342 571 1
184 506 509 1
72 197 590 1
116 117 573 1
172 512 618 1
185 202 506 1
55 56 566 1
557 324 568 1
582 207 595 1
325 328 560 1
253 544 628 1
458 223 593 1
85 86 567 1
15 389 564 1
412 189 599 1
236 120 508 1
554 20 572 1
20 21 572 1
256 252 536 1
512 441 618 1
194 526 614 1
459 334 631 1
356 354 539 1
364 469 613 1
543 400 593 1
260 258 545 1
194 180 584 1
380 519 581 1
191 171 618 1
435 226 636 1
430 455 576 1
503 218 563 1
346 264 537 1
188 206 552 1
280 278 562 1
556 300 578 1
262 322 537 1
496 52 640 1
532 323 635 1
558 422 616 1
324 524 568 1
190 462 610 1
452 225 571 1
206 434 552 1
354 362 539 1
278 286 562 1
223 543 593 1
44 45 639 1
226 458 636 1
322 260 545 1
46 47 596 1
85 567 591 1
476 196 580 1
529 227 576 1
478 198 598 1
286 276 570 1
21 22 587 1
180 181 584 1
506 202 561 1
189 162 547 1
478 598 645 1
238 505 551 1
413 256 536 1
421 460 638 1
182 199 601 1
258 413 545 1
249 253 628 1
272 301 588 1
572 21 587 1
117 232 573 1
286 570 579 1
84 85 591 1
45 46 606 1
22 23 596 1
146 210 602 1
468 469 644 1
240 621 646 1
455 529 576 1
590 391 615 1
276 274 570 1
23 24 606 1
472 331 598 1
227 494 605 1
215 503 585 1
513 194 614 1
462 382 610 1
229 475 632 1
503 563 585 1
569 428 575 1
213 144 603 1
181 182 601 1
598 331 645 1
301 525 558 1
464 597 626 1
400 402 593 1
519 193 581 1
457 532 635 1
576 227 605 1
53 54 607 1
505 439 634 1
206 1 411 1
142 143 604 1
547 163 565 1
358 356 553 1
587 22 596 1
560 409 602 1
52 53 640 1
199 509 619 1
524 303 568 1
366 358 553 1
520 502 600 1
458 593 636 1
546 219 629 1
360 366 556 1
244 13 594 1
364 360 556 1
525 347 558 1
47 587 596 1
94 95 609 1
274 272 588 1
193 516 581 1
469 195 613 1
471 552 643 1
501 474 633 1
399 397 637 1
377 501 633 1
596 23 606 1
474 201 633 1
570 423 579 1
216 479 641 1
584 181 601 1
405 582 595 1
171 172 618 1
528 478 645 1
206 411 433 1
538 571 608 1
562 286 638 1
593 402 636 1
356 539 553 1
24 25 639 1
481 504 611 1
502 239 600 1
93 94 622 1
536 337 620 1
94 609 622 1
334 535 631 1
237 464 569 1
331 377 645 1
611 504 625 1
418 468 644 1
341 342 646 1
570 274 588 1
606 24 639 1
310 312 623 1
363 364 613 1
588 301 616 1
504 336 625 1
571 342 595 1
571 225 608 1
402 435 636 1
413 536 620 1
509 345 619 1
393 538 608 1
589 361 642 1
452 571 595 1
210 560 602 1
46 596 606 1
607 389 640 1
388 574 592 1
389 496 640 1
460 562 638 1
323 383 635 1
391 390 615 1
522 190 610 1
600 239 630 1
552 434 643 1
225 490 608 1
53 607 640 1
207 452 595 1
407 547 565 1
45 606 639 1
433 411 582 1
114 388 592 1
189 547 627 1
236 508 626 1
342 538 646 1
239 499 630 1
561 202 617 1
301 558 616 1
377 528 645 1
386 584 601 1
219 515 629 1
423 570 588 1
423 588 616 1
564 389 607 1
565 221 642 1
537 322 612 1
202 471 617 1
601 199 624 1
365 412 599 1
439 583 634 1
599 189 627 1
237 569 575 1
508 569 626 1
569 464 626 1
243 551 634 1
548 236 597 1
547 407 627 1
221 589 642 1
551 505 634 1
199 619 624 1
583 243 634 1
286 579 638 1
406 599 627 1
597 236 626 1
407 565 642 1
621 341 646 1
617 471 643 1
619 381 624 1
479 625 641 1
386 601 624 1
625 336 641 1
344 617 643 1
40 41 30 1
42 43 27 1
29 42 28 1
41 42 29 1
31 40 30 1
38 39 33 1
35 37 34 1
37 38 34 1
36 37 35 1

End
