MeshVersionFormatted 2
Dimension 3

Vertices
694
-2.9051810597712296e-01 -2.4375249062448322e-02 0.0000000000000000e+00 1
-2.9437323355744072e-01 -2.5779808907537314e-02 0.0000000000000000e+00 1
-2.9873656165321411e-01 -2.7753528527687706e-02 0.0000000000000000e+00 1
-3.0354620752428374e-01 -3.0246245742128173e-02 0.0000000000000000e+00 1
-3.0874028843049062e-01 -3.3207798370087402e-02 0.0000000000000000e+00 1
-3.1425692163167535e-01 -3.6588024230794068e-02 0.0000000000000000e+00 1
-3.2003422438767853e-01 -4.0336761143476819e-02 0.0000000000000000e+00 1
-3.2601031395834090e-01 -4.4403846927364335e-02 0.0000000000000000e+00 1
-3.3212330760350345e-01 -4.8739119401685328e-02 0.0000000000000000e+00 1
-3.3831132258300667e-01 -5.3292416385668430e-02 0.0000000000000000e+00 1
-3.4451247615669139e-01 -5.8013575698542319e-02 0.0000000000000000e+00 1
-3.5066488558439818e-01 -6.2852435159535675e-02 0.0000000000000000e+00 1
-3.5670666812596802e-01 -6.7758832587877182e-02 0.0000000000000000e+00 1
-3.6257594104124141e-01 -7.2682605802795494e-02 0.0000000000000000e+00 1
-3.6821082159005930e-01 -7.7573592623519302e-02 0.0000000000000000e+00 1
-3.7354942703226224e-01 -8.2381630869277273e-02 0.0000000000000000e+00 1
-3.7852987462769100e-01 -8.7056558359298056e-02 0.0000000000000000e+00 1
-3.8309028163618636e-01 -9.1548212912810345e-02 0.0000000000000000e+00 1
-3.8716876531758904e-01 -9.5806432349042833e-02 0.0000000000000000e+00 1
-3.9070344293173970e-01 -9.9781054487224199e-02 0.0000000000000000e+00 1
-3.9363243173847912e-01 -1.0342191714658304e-01 0.0000000000000000e+00 1
-3.9589384899764801e-01 -1.0667885814634810e-01 0.0000000000000000e+00 1
-3.9742581196908716e-01 -1.0950171530574805e-01 0.0000000000000000e+00 1
-3.9816643791263723e-01 -1.1184032644401155e-01 0.0000000000000000e+00 1
-3.9805384408813899e-01 -1.1364452938036725e-01 0.0000000000000000e+00 1
-3.9702614775543305e-01 -1.1486416193404385e-01 0.0000000000000000e+00 1
-3.9502146617436035e-01 -1.1544906192427003e-01 0.0000000000000000e+00 1
-3.9197791660476150e-01 -1.1534906717027445e-01 0.0000000000000000e+00 1
-3.8316228146280290e-01 -1.1419076169536320e-01 0.0000000000000000e+00 1
-3.7406365267134162e-01 -1.1293934554752122e-01 0.0000000000000000e+00 1
-3.6469076010646662e-01 -1.1159697373149899e-01 0.0000000000000000e+00 1
-3.5505233364426730e-01 -1.1016580125204713e-01 0.0000000000000000e+00 1
-3.4515710316083253e-01 -1.0864798311391603e-01 0.0000000000000000e+00 1
-3.3501379853225172e-01 -1.0704567432185635e-01 0.0000000000000000e+00 1
-3.2463114963461387e-01 -1.0536102988061866e-01 0.0000000000000000e+00 1
-3.1401788634400812e-01 -1.0359620479495334e-01 0.0000000000000000e+00 1
-3.0318273853652378e-01 -1.0175335406961110e-01 0.0000000000000000e+00 1
-2.9213443608824979e-01 -9.9834632709342327e-02 0.0000000000000000e+00 1
-2.8088170887527547e-01 -9.7842195718897629e-02 0.0000000000000000e+00 1
-2.6943328677369005e-01 -9.5778198103027595e-02 0.0000000000000000e+00 1
-2.5779789965958244e-01 -9.3644794866482667e-02 0.0000000000000000e+00 1
-2.4598427740904194e-01 -9.1444141014013450e-02 0.0000000000000000e+00 1
-2.3400114989815762e-01 -8.9178391550370439e-02 0.0000000000000000e+00 1
-2.2185724700301873e-01 -8.6849701480304187e-02 0.0000000000000000e+00 1
-2.0956129859971431e-01 -8.4460225808565215e-02 0.0000000000000000e+00 1
-1.9712203456433375e-01 -8.2012119539904102e-02 0.0000000000000000e+00 1
-1.8454818477296600e-01 -7.9507537679071386e-02 0.0000000000000000e+00 1
-1.7184847910170017e-01 -7.6948635230817533e-02 0.0000000000000000e+00 1
-1.5903164742662554e-01 -7.4337567199893095e-02 0.0000000000000000e+00 1
-1.4610641962383120e-01 -7.1676488591048679e-02 0.0000000000000000e+00 1
-1.3308152556940644e-01 -6.8967554409034793e-02 0.0000000000000000e+00 1
-1.1996569513944028e-01 -6.6212919658601974e-02 0.0000000000000000e+00 1
-1.0676765821002181e-01 -6.3414739344500690e-02 0.0000000000000000e+00 1
-9.3496144657240335e-02 -6.0575168471481554e-02 0.0000000000000000e+00 1
-8.0159884357184866e-02 -5.7696362044295096e-02 0.0000000000000000e+00 1
-6.6767607185944808e-02 -5.4780475067691868e-02 0.0000000000000000e+00 1
-5.3328043019609021e-02 -5.1829662546422364e-02 0.0000000000000000e+00 1
-3.9849921734266838e-02 -4.8846079485237122e-02 0.0000000000000000e+00 1
-2.6341973206007292e-02 -4.5831880888886692e-02 0.0000000000000000e+00 1
-1.2812927310919627e-02 -4.2789221762121618e-02 0.0000000000000000e+00 1
7.2848607490694738e-04 -3.9720257109692458e-02 0.0000000000000000e+00 1
1.4273537075383437e-02 -3.6627141936349701e-02 0.0000000000000000e+00 1
2.7813495814420539e-02 -3.3512031246843925e-02 0.0000000000000000e+00 1
4.1339632415929230e-02 -3.0377080045925636e-02 0.0000000000000000e+00 1
5.4843217003820298e-02 -2.7224443338345377e-02 0.0000000000000000e+00 1
6.8315519702004460e-02 -2.4056276128853724e-02 0.0000000000000000e+00 1
8.1747810634392820e-02 -2.0874733422201155e-02 0.0000000000000000e+00 1
9.5131359924895950e-02 -1.7681970223138253e-02 0.0000000000000000e+00 1
1.0845743769742494e-01 -1.4480141536415523e-02 0.0000000000000000e+00 1
1.2171731407589052e-01 -1.1271402366783522e-02 0.0000000000000000e+00 1
1.3490225918420345e-01 -8.0579077189927937e-03 0.0000000000000000e+00 1
1.4800354314627479e-01 -4.8418125977938414e-03 0.0000000000000000e+00 1
1.6101243608601515e-01 -1.6252720079372577e-03 0.0000000000000000e+00 1
1.7392020812733561e-01 1.5895590458264871e-03 0.0000000000000000e+00 1
1.8671812939414686e-01 4.8005255587468248e-03 0.0000000000000000e+00 1
1.9939747001035968e-01 8.0054725260731898e-03 0.0000000000000000e+00 1
2.1194950009988511e-01 1.1202244943055091e-02 0.0000000000000000e+00 1
2.2436548978663384e-01 1.4388687804941954e-02 0.0000000000000000e+00 1
2.3663670919451688e-01 1.7562646106983281e-02 0.0000000000000000e+00 1
2.4875442844744494e-01 2.0721964844428512e-02 0.0000000000000000e+00 1
2.6070991766932883e-01 2.3864489012527086e-02 0.0000000000000000e+00 1
2.7249444698407954e-01 2.6988063606528525e-02 0.0000000000000000e+00 1
2.8409928651560779e-01 3.0090533621682247e-02 0.0000000000000000e+00 1
2.9551570638782448e-01 3.3169744053237707e-02 0.0000000000000000e+00 1
3.0673497672464045e-01 3.6223539896444404e-02 0.0000000000000000e+00 1
3.1774836764996656e-01 3.9249766146551776e-02 0.0000000000000000e+00 1
3.2854714928771367e-01 4.2246267798809300e-02 0.0000000000000000e+00 1
3.3912259176179260e-01 4.5210889848466433e-02 0.0000000000000000e+00 1
3.4946596519611417e-01 4.8141477290772623e-02 0.0000000000000000e+00 1
3.5956853971458930e-01 5.1035875120977361e-02 0.0000000000000000e+00 1
3.6942158544112863e-01 5.3891928334330083e-02 0.0000000000000000e+00 1
3.7901637249964332e-01 5.6707481926080279e-02 0.0000000000000000e+00 1
3.8834417101404406e-01 5.9480380891477412e-02 0.0000000000000000e+00 1
3.9739625110824156e-01 6.2208470225770890e-02 0.0000000000000000e+00 1
4.0616388290614697e-01 6.4889594924210245e-02 0.0000000000000000e+00 1
4.0919992666900340e-01 6.6031643154815273e-02 0.0000000000000000e+00 1
4.1098895014278791e-01 6.7184144876345234e-02 0.0000000000000000e+00 1
4.1160434762885195e-01 6.8342200291582500e-02 0.0000000000000000e+00 1
4.1111951342854641e-01 6.9500909603309291e-02 0.0000000000000000e+00 1
4.0960784184322307e-01 7.0655373014307993e-02 0.0000000000000000e+00 1
4.0714272717423267e-01 7.1800690727360866e-02 0.0000000000000000e+00 1
4.0379756372292652e-01 7.2931962945250145e-02 0.0000000000000000e+00 1
3.9964574579065615e-01 7.4044289870758284e-02 0.0000000000000000e+00 1
3.9476066767877260e-01 7.5132771706667489e-02 0.0000000000000000e+00 1
3.8921572368862695e-01 7.6192508655760036e-02 0.0000000000000000e+00 1
3.8308430812157074e-01 7.7218600920818267e-02 0.0000000000000000e+00 1
3.7643981527895509e-01 7.8206148704624501e-02 0.0000000000000000e+00 1
3.6935563946213107e-01 7.9150252209960983e-02 0.0000000000000000e+00 1
3.6190517497245023e-01 8.0046011639610060e-02 0.0000000000000000e+00 1
3.5416181611126352e-01 8.0888527196354060e-02 0.0000000000000000e+00 1
3.4619895717992238e-01 8.1672899082975203e-02 0.0000000000000000e+00 1
3.3808999247977806e-01 8.2394227502255848e-02 0.0000000000000000e+00 1
3.2990831631218159e-01 8.3047612656978284e-02 0.0000000000000000e+00 1
3.2172732297848439e-01 8.3628154749924813e-02 0.0000000000000000e+00 1
3.1362040678003761e-01 8.4130953983877751e-02 0.0000000000000000e+00 1
3.0566096201819259e-01 8.4551110561619375e-02 0.0000000000000000e+00 1
2.9792238299430046e-01 8.4883724685931985e-02 0.0000000000000000e+00 1
2.9047806400971243e-01 8.5123896559597886e-02 0.0000000000000000e+00 1
2.8340139936577996e-01 8.5266726385399408e-02 0.0000000000000000e+00 1
2.7676578336385399e-01 8.5307314366118811e-02 0.0000000000000000e+00 1
2.7064461030528597e-01 8.5240760704538440e-02 0.0000000000000000e+00 1
2.6511127449142707e-01 8.5062165603440557e-02 0.0000000000000000e+00 1
2.6023917022362847e-01 8.4766629265607477e-02 0.0000000000000000e+00 1
2.5610169180324155e-01 8.4349251893821517e-02 0.0000000000000000e+00 1
2.4868237331523080e-01 8.3383822632726881e-02 0.0000000000000000e+00 1
2.4098002107392028e-01 8.2352672164188886e-02 0.0000000000000000e+00 1
2.3300537446725381e-01 8.1257400263372692e-02 0.0000000000000000e+00 1
2.2476917288317541e-01 8.0099606705443402e-02 0.0000000000000000e+00 1
2.1628215570962914e-01 7.8880891265566189e-02 0.0000000000000000e+00 1
2.0755506233455889e-01 7.7602853718906170e-02 0.0000000000000000e+00 1
1.9859863214590884e-01 7.6267093840628478e-02 0.0000000000000000e+00 1
1.8942360453162266e-01 7.4875211405898215e-02 0.0000000000000000e+00 1
1.8004071887964468e-01 7.3428806189880583e-02 0.0000000000000000e+00 1
1.7046071457791856e-01 7.1929477967740615e-02 0.0000000000000000e+00 1
1.6069433101438865e-01 7.0378826514643597e-02 0.0000000000000000e+00 1
1.5075230757699862e-01 6.8778451605754534e-02 0.0000000000000000e+00 1
1.4064538365369261e-01 6.7129953016238600e-02 0.0000000000000000e+00 1
1.3038429863241460e-01 6.5434930521260953e-02 0.0000000000000000e+00 1
1.1997979190110851e-01 6.3694983895986684e-02 0.0000000000000000e+00 1
1.0944260284771844e-01 6.1911712915580973e-02 0.0000000000000000e+00 1
9.8783470860188335e-02 6.0086717355208916e-02 0.0000000000000000e+00 1
8.8013135326462127e-02 5.8221596990035672e-02 0.0000000000000000e+00 1
7.7142335634483833e-02 5.6317951595226373e-02 0.0000000000000000e+00 1
6.6181811172197472e-02 5.4377380945946137e-02 0.0000000000000000e+00 1
5.5142301327547064e-02 5.2401484817360129e-02 0.0000000000000000e+00 1
4.4034545488476573e-02 5.0391862984633475e-02 0.0000000000000000e+00 1
3.2869283042929860e-02 4.8350115222931256e-02 0.0000000000000000e+00 1
2.1657253378851091e-02 4.6277841307418688e-02 0.0000000000000000e+00 1
1.0409195884184144e-02 4.4176641013260839e-02 0.0000000000000000e+00 1
-8.6415005312689454e-04 4.2048114115622919e-02 0.0000000000000000e+00 1
-1.2152045045138187e-02 3.9893860389669952e-02 0.0000000000000000e+00 1
-2.3443749703905524e-02 3.7715479610567197e-02 0.0000000000000000e+00 1
-3.4728524641485119e-02 3.5514571553479708e-02 0.0000000000000000e+00 1
-4.5995630469932901e-02 3.3292735993572638e-02 0.0000000000000000e+00 1
-5.7234327801304892e-02 3.1051572706011117e-02 0.0000000000000000e+00 1
-6.8433877247657107e-02 2.8792681465960295e-02 0.0000000000000000e+00 1
-7.9583539421045540e-02 2.6517662048585300e-02 0.0000000000000000e+00 1
-9.0672574933526207e-02 2.4228114229051259e-02 0.0000000000000000e+00 1
-1.0169024439715511e-01 2.1925637782523315e-02 0.0000000000000000e+00 1
-1.1262580842398830e-01 1.9611832484166602e-02 0.0000000000000000e+00 1
-1.2346852762608175e-01 1.7288298109146252e-02 0.0000000000000000e+00 1
-1.3420766261549147e-01 1.4956634432627401e-02 0.0000000000000000e+00 1
-1.4483247400427351e-01 1.2618441229775186e-02 0.0000000000000000e+00 1
-1.5533222240448383e-01 1.0275318275754732e-02 0.0000000000000000e+00 1
-1.6569616842817841e-01 7.9288653457312008e-03 0.0000000000000000e+00 1
-1.7591357268741339e-01 5.5806822148696898e-03 0.0000000000000000e+00 1
-1.8597369579424472e-01 3.2323686583353487e-03 0.0000000000000000e+00 1
-1.9586579836072837e-01 8.8552445129331690e-04 0.0000000000000000e+00 1
-2.0557914099892041e-01 -1.4582506310912764e-03 0.0000000000000000e+00 1
-2.1510298432087679e-01 -3.7973568136532893e-03 0.0000000000000000e+00 1
-2.2442658893865358e-01 -6.1301943212275951e-03 0.0000000000000000e+00 1
-2.3353921546430678e-01 -8.4551633786490547e-03 0.0000000000000000e+00 1
-2.4243012450989238e-01 -1.0770664210752541e-02 0.0000000000000000e+00 1
-2.5108857668746631e-01 -1.3075097042372906e-02 0.0000000000000000e+00 1
-2.5950383260908477e-01 -1.5366862098345023e-02 0.0000000000000000e+00 1
-2.6766515288680365e-01 -1.7644359603503763e-02 0.0000000000000000e+00 1
-2.7556179813267895e-01 -1.9905989782683983e-02 0.0000000000000000e+00 1
-2.8318302895876674e-01 -2.2150152860720546e-02 0.0000000000000000e+00 1
-2.9129742680879550e-01 -2.8987360244337887e-02 0.0000000000000000e+00 1
-3.0348337716637053e-01 -3.6005664870795775e-02 0.0000000000000000e+00 1
2.5829526021698979e-01 8.1541261517340161e-02 0.0000000000000000e+00 1
-2.7027116358627928e-01 -2.5308052668945341e-02 0.0000000000000000e+00 1
-2.4447580089358412e-01 -1.8706585509955829e-02 0.0000000000000000e+00 1
-3.1911730363126128e-01 -4.8043029145758843e-02 0.0000000000000000e+00 1
-2.1879034624179930e-01 -1.3034909820349124e-02 0.0000000000000000e+00 1
-1.8890476929112734e-01 -6.4343172383430278e-03 0.0000000000000000e+00 1
2.7409736560502934e-01 7.9692009893108998e-02 0.0000000000000000e+00 1
2.4478687140146396e-01 7.5603571954957149e-02 0.0000000000000000e+00 1
-2.7657490403202173e-01 -8.7186149835740384e-02 0.0000000000000000e+00 1
-1.5799113760175104e-01 1.2965866982296611e-04 0.0000000000000000e+00 1
-1.2749881959997533e-01 6.5797962326696168e-03 0.0000000000000000e+00 1
-9.5069316760606759e-02 1.2361981899754316e-02 0.0000000000000000e+00 1
-5.9700467669785401e-02 1.8788262302120769e-02 0.0000000000000000e+00 1
-2.7813651388362202e-02 2.7891687175186385e-02 0.0000000000000000e+00 1
2.2112737759272530e-01 7.3352663944328808e-02 0.0000000000000000e+00 1
7.1326074620079363e-03 3.2584725419007858e-02 0.0000000000000000e+00 1
1.9498052904752364e-01 6.7659896085258991e-02 0.0000000000000000e+00 1
-2.4189915067539824e-01 -8.0190621097396553e-02 0.0000000000000000e+00 1
6.2667629483691131e-02 4.4611443647998641e-02 0.0000000000000000e+00 1
1.6567445309411954e-01 6.2856208746419479e-02 0.0000000000000000e+00 1
1.1623772144479366e-01 5.3861800330829199e-02 0.0000000000000000e+00 1
-3.3775975836343186e-01 -6.1276009787597653e-02 0.0000000000000000e+00 1
-1.9289115034578347e-01 -7.0603964126955396e-02 0.0000000000000000e+00 1
4.5120099824620022e-02 -1.7911861020927608e-02 0.0000000000000000e+00 1
-1.2890468383314804e-01 -5.6817646546378386e-02 0.0000000000000000e+00 1
-2.9933395303811783e-01 -9.0905539122690449e-02 0.0000000000000000e+00 1
2.9371487422497577e-01 7.8822999898542578e-02 0.0000000000000000e+00 1
9.9147633615513292e-02 -5.3970494711678228e-03 0.0000000000000000e+00 1
1.5187218079628279e-01 7.0468079078487090e-03 0.0000000000000000e+00 1
-6.2468119721796347e-02 -4.2065750492255798e-02 0.0000000000000000e+00 1
5.7918558094261956e-03 -2.6839524950519379e-02 0.0000000000000000e+00 1
-2.2209923249672518e-02 -3.2605379490001342e-02 0.0000000000000000e+00 1
-2.1776533608965068e-01 -7.5074714426717482e-02 0.0000000000000000e+00 1
-1.6782410935609851e-01 -6.4721608010439746e-02 0.0000000000000000e+00 1
-1.0259240447032633e-01 -5.0664242417465352e-02 0.0000000000000000e+00 1
2.7594781819556202e-01 3.8179146639685357e-02 0.0000000000000000e+00 1
1.4822513413878935e-01 6.0117782710659151e-02 0.0000000000000000e+00 1
1.9078607655682181e-01 1.6522488441929883e-02 0.0000000000000000e+00 1
9.4976120912849141e-02 5.0019301462876878e-02 0.0000000000000000e+00 1
3.0897104449175161e-01 7.7035526309138777e-02 0.0000000000000000e+00 1
3.9808059407664166e-02 4.0342384161734808e-02 0.0000000000000000e+00 1
7.2319443704444722e-02 -1.0041317049485401e-02 0.0000000000000000e+00 1
-3.5448275290158254e-01 -7.4526916364392556e-02 0.0000000000000000e+00 1
2.1646980418641495e-01 2.3657360808639533e-02 0.0000000000000000e+00 1
2.5163761432500453e-01 3.3509437181381559e-02 0.0000000000000000e+00 1
1.2599989009330276e-01 5.1014501203158259e-04 0.0000000000000000e+00 1
-3.2116784120169362e-01 -9.5045332969788121e-02 0.0000000000000000e+00 1
3.2521742504707335e-01 7.6216401283210722e-02 0.0000000000000000e+00 1
-3.6674156534281932e-01 -8.4188247025987151e-02 0.0000000000000000e+00 1
3.0021420674118238e-01 4.3749196474917963e-02 0.0000000000000000e+00 1
3.4152514160348246e-01 7.5071198943724771e-02 0.0000000000000000e+00 1
-3.4215566511498652e-01 -9.9820271821765949e-02 0.0000000000000000e+00 1
-3.7811891834123601e-01 -9.3462531410311467e-02 0.0000000000000000e+00 1
3.2132511280399167e-01 5.0048738538537987e-02 0.0000000000000000e+00 1
-3.9241415549039738e-01 -1.0709372169073147e-01 0.0000000000000000e+00 1
3.5733187204558037e-01 7.3931783160946091e-02 0.0000000000000000e+00 1
-3.9601033351989590e-01 -1.1128029984201376e-01 0.0000000000000000e+00 1
3.7265293267953370e-01 7.1418043289090391e-02 0.0000000000000000e+00 1
-3.8536897630887135e-01 -1.0084258404338579e-01 0.0000000000000000e+00 1
-3.6099389000287929e-01 -1.0266847764107245e-01 0.0000000000000000e+00 1
4.0943406272932331e-01 6.8938004184306956e-02 0.0000000000000000e+00 1
3.4196991086828521e-01 5.5330658647040690e-02 0.0000000000000000e+00 1
3.8500112610938475e-01 7.1369746587224406e-02 0.0000000000000000e+00 1
3.6194312338045664e-01 6.1333071978229736e-02 0.0000000000000000e+00 1
4.0497361621421729e-01 6.9355278356739408e-02 0.0000000000000000e+00 1
3.9628749309309175e-01 6.9367629724154778e-02 0.0000000000000000e+00 1
2.8848316228150517e-01 4.2727095118339393e-02 0.0000000000000000e+00 1
2.7918225121120571e-01 4.9240460533358461e-02 0.0000000000000000e+00 1
2.6841113766407798e-01 4.5740078003401415e-02 0.0000000000000000e+00 1
2.7183800161521332e-01 5.6037679954178271e-02 0.0000000000000000e+00 1
2.6245595341987088e-01 5.3722101822285900e-02 0.0000000000000000e+00 1
2.8093147084855341e-01 5.8476545585604833e-02 0.0000000000000000e+00 1
2.6484535709486667e-01 6.2385181476850023e-02 0.0000000000000000e+00 1
2.5660394144182280e-01 6.0509380394788356e-02 0.0000000000000000e+00 1
2.5266316724174831e-01 5.1434125088414884e-02 0.0000000000000000e+00 1
2.4783825421166861e-01 5.8961487691140742e-02 0.0000000000000000e+00 1
2.4392499695608882e-01 4.9874517907408079e-02 0.0000000000000000e+00 1
2.3826633870980418e-01 5.7415372513113197e-02 0.0000000000000000e+00 1
2.3469715674252739e-01 4.7922025447811933e-02 0.0000000000000000e+00 1
2.2837038100273754e-01 5.5619294503245723e-02 0.0000000000000000e+00 1
2.2470925080787377e-01 4.6213024846696232e-02 0.0000000000000000e+00 1
2.1829620481149406e-01 5.3947695624111516e-02 0.0000000000000000e+00 1
2.1440851471743530e-01 4.4114031627222661e-02 0.0000000000000000e+00 1
2.0793819660376522e-01 5.2220259598820706e-02 0.0000000000000000e+00 1
2.0411786517676300e-01 4.2335843270525406e-02 0.0000000000000000e+00 1
1.9736504052162032e-01 5.0460039409011018e-02 0.0000000000000000e+00 1
1.9379671458568992e-01 4.0548839074133237e-02 0.0000000000000000e+00 1
1.8660321703004870e-01 4.8718520541083811e-02 0.0000000000000000e+00 1
1.8359434174467018e-01 3.8384804081355223e-02 0.0000000000000000e+00 1
2.5953100628857495e-01 6.8264928517672005e-02 0.0000000000000000e+00 1
2.3165075922999495e-01 3.7500532827616527e-02 0.0000000000000000e+00 1
1.7596040106639035e-01 4.6567307891136119e-02 0.0000000000000000e+00 1
1.7265767171371343e-01 3.6117650875358280e-02 0.0000000000000000e+00 1
1.6498233451837591e-01 4.4599946606809583e-02 0.0000000000000000e+00 1
1.6094912870819575e-01 3.4519900304450409e-02 0.0000000000000000e+00 1
1.6864736806944153e-01 2.4506849521080079e-02 0.0000000000000000e+00 1
2.6670981610028577e-01 7.0038485673873774e-02 0.0000000000000000e+00 1
1.5373204742696503e-01 4.2710414699982963e-02 0.0000000000000000e+00 1
1.4931810963291836e-01 3.1847517476051031e-02 0.0000000000000000e+00 1
1.4234963407712714e-01 4.0682971994520055e-02 0.0000000000000000e+00 1
1.3815379088288463e-01 3.0221206628369857e-02 0.0000000000000000e+00 1
1.3085911506885295e-01 3.8997344723523786e-02 0.0000000000000000e+00 1
1.2685114487166305e-01 2.8237260200763323e-02 0.0000000000000000e+00 1
1.1938812567435553e-01 3.6851305978078785e-02 0.0000000000000000e+00 1
1.1529849292331125e-01 2.6143769681252749e-02 0.0000000000000000e+00 1
1.0808104833664180e-01 3.4670285201434656e-02 0.0000000000000000e+00 1
1.0366480487441827e-01 2.4015630582095722e-02 0.0000000000000000e+00 1
9.6726634797633548e-02 3.2733386825552706e-02 0.0000000000000000e+00 1
9.1848360372755594e-02 2.2497525910160687e-02 0.0000000000000000e+00 1
8.4659330307530548e-02 3.1043971066562592e-02 0.0000000000000000e+00 1
7.9936226956169351e-02 2.0502936425553432e-02 0.0000000000000000e+00 1
1.3440556777192464e-01 2.0133286246621192e-02 0.0000000000000000e+00 1
2.1131200937667355e-01 6.1602495593223769e-02 0.0000000000000000e+00 1
1.1067537674718743e-01 1.5524013362354643e-02 0.0000000000000000e+00 1
1.9982367112202248e-01 3.2108266074325903e-02 0.0000000000000000e+00 1
7.2353467659494686e-02 2.8680282125018518e-02 0.0000000000000000e+00 1
6.7983933317096901e-02 1.7844606225240540e-02 0.0000000000000000e+00 1
6.0294998317582817e-02 2.6472290827144390e-02 0.0000000000000000e+00 1
5.5981942888237907e-02 1.5574652578575135e-02 0.0000000000000000e+00 1
7.7265414546917086e-02 9.0963112762682020e-03 0.0000000000000000e+00 1
1.3441299183555477e-01 4.8479265983890497e-02 0.0000000000000000e+00 1
4.8242929672995080e-02 2.4295176692511682e-02 0.0000000000000000e+00 1
4.3912816809766587e-02 1.3405351687580102e-02 0.0000000000000000e+00 1
3.6142108511138853e-02 2.2179544181384098e-02 0.0000000000000000e+00 1
3.1797285505101400e-02 1.1268137263159967e-02 0.0000000000000000e+00 1
2.3896907140555347e-02 2.0122880814892302e-02 0.0000000000000000e+00 1
1.9432905957332228e-02 9.1865316643944574e-03 0.0000000000000000e+00 1
2.7473367129840026e-02 -2.2134539171760116e-04 0.0000000000000000e+00 1
1.5097119680309797e-02 -2.5005385863028232e-03 0.0000000000000000e+00 1
6.9471525111010251e-03 7.2616349652745802e-03 0.0000000000000000e+00 1
2.6139984517409807e-03 -4.5162231645775666e-03 0.0000000000000000e+00 1
-5.4696138355901898e-03 5.2359541897824893e-03 0.0000000000000000e+00 1
-9.9172267809331961e-03 -6.5245934293388557e-03 0.0000000000000000e+00 1
-1.7873663643321450e-02 3.2219184565364018e-03 0.0000000000000000e+00 1
-2.2395726757623028e-02 -8.5884237829766778e-03 0.0000000000000000e+00 1
-3.0336520798186762e-02 1.1775605497251539e-03 0.0000000000000000e+00 1
-3.4860687370463266e-02 -1.0604325082268773e-02 0.0000000000000000e+00 1
-4.2832110253297334e-02 -8.5341396262671762e-04 0.0000000000000000e+00 1
-4.7299623930147833e-02 -1.2599995015313725e-02 0.0000000000000000e+00 1
-5.5262273149653325e-02 -2.7026023830979337e-03 0.0000000000000000e+00 1
-5.9701443599006206e-02 -1.4568022266170846e-02 0.0000000000000000e+00 1
-6.7615333313993248e-02 -4.7008315953834187e-03 0.0000000000000000e+00 1
-7.2026522044059141e-02 -1.6541058690550337e-02 0.0000000000000000e+00 1
-7.9886472468369871e-02 -6.8927067454352276e-03 0.0000000000000000e+00 1
-8.4264091973604918e-02 -1.8494461788137871e-02 0.0000000000000000e+00 1
-9.2016603552105405e-02 -8.9514449911818651e-03 0.0000000000000000e+00 1
-9.6498101941277781e-02 -1.9929944196106365e-02 0.0000000000000000e+00 1
-1.0419990538458150e-01 -1.0913398800592711e-02 0.0000000000000000e+00 1
-1.0857555588419171e-01 -2.1970188808830400e-02 0.0000000000000000e+00 1
-9.0268440294486121e-02 -2.8729783109520433e-02 0.0000000000000000e+00 1
-1.1617780756736895e-01 -1.2989124328348891e-02 0.0000000000000000e+00 1
-1.2054930906986036e-01 -2.3767828963701970e-02 0.0000000000000000e+00 1
-1.2810124834526718e-01 -1.4918915780079024e-02 0.0000000000000000e+00 1
-1.3237429971084852e-01 -2.5854381467491611e-02 0.0000000000000000e+00 1
-1.3989158406009763e-01 -1.6866864215197324e-02 0.0000000000000000e+00 1
-1.4410414930198256e-01 -2.7733565491993895e-02 0.0000000000000000e+00 1
-1.5163976630857323e-01 -1.8931988036954808e-02 0.0000000000000000e+00 1
-1.5569510121206392e-01 -2.9796554419274063e-02 0.0000000000000000e+00 1
-1.6315663008333117e-01 -2.0929764368072250e-02 0.0000000000000000e+00 1
-1.6714252494478501e-01 -3.1588135702512649e-02 0.0000000000000000e+00 1
-1.4783061580191223e-01 -3.8520342397273907e-02 0.0000000000000000e+00 1
-1.7429254962170854e-01 -2.2759067175152678e-02 0.0000000000000000e+00 1
-1.7841195298162155e-01 -3.3349614314150768e-02 0.0000000000000000e+00 1
-1.8549970374324531e-01 -2.4676530606641715e-02 0.0000000000000000e+00 1
-1.8950047227820366e-01 -3.5073398327285940e-02 0.0000000000000000e+00 1
-1.9658029390415835e-01 -2.6569162111707380e-02 0.0000000000000000e+00 1
-2.0047269198423703e-01 -3.6777412145892266e-02 0.0000000000000000e+00 1
-1.8260081182467236e-01 -4.4036567067530022e-02 0.0000000000000000e+00 1
-7.5649259436156246e-02 5.1241918303334523e-03 0.0000000000000000e+00 1
-2.0750182934410744e-01 -2.8575674347468619e-02 0.0000000000000000e+00 1
-2.1146541355898732e-01 -3.8475135610031866e-02 0.0000000000000000e+00 1
-2.0437434113586542e-01 -4.7041412897177191e-02 0.0000000000000000e+00 1
-2.1529513498694908e-01 -4.8644802815701313e-02 0.0000000000000000e+00 1
-2.2209050013365259e-01 -4.0048680193253423e-02 0.0000000000000000e+00 1
-2.2606618649917698e-01 -5.0157030377153564e-02 0.0000000000000000e+00 1
-2.3269234227601121e-01 -4.1804797463436051e-02 0.0000000000000000e+00 1
-2.3663890297635343e-01 -5.1421434410333540e-02 0.0000000000000000e+00 1
-2.4304283470973720e-01 -4.3379550021605158e-02 0.0000000000000000e+00 1
-2.4695727567189291e-01 -5.2671545655428538e-02 0.0000000000000000e+00 1
-2.5317292916901285e-01 -4.4978637844015679e-02 0.0000000000000000e+00 1
-2.5694883665482854e-01 -5.4157836590335635e-02 0.0000000000000000e+00 1
-2.6298314067914819e-01 -4.6736338281102636e-02 0.0000000000000000e+00 1
-2.6665598789679401e-01 -5.5564213018438641e-02 0.0000000000000000e+00 1
-2.7221257569484553e-01 -4.8278286246612602e-02 0.0000000000000000e+00 1
-2.7537558984306176e-01 -5.6631711726387077e-02 0.0000000000000000e+00 1
-2.8068115859158105e-01 -4.9798586846126050e-02 0.0000000000000000e+00 1
-2.8381741896120327e-01 -5.7644012943166352e-02 0.0000000000000000e+00 1
-2.8882621894623239e-01 -5.1239897695484961e-02 0.0000000000000000e+00 1
-2.9191673305624044e-01 -5.8774366543743184e-02 0.0000000000000000e+00 1
-2.9654760284457282e-01 -5.2244311063765349e-02 0.0000000000000000e+00 1
-2.9991572190082061e-01 -5.9714521154183478e-02 0.0000000000000000e+00 1
-2.9490919020199696e-01 -6.6498676846192123e-02 0.0000000000000000e+00 1
-3.0332380966666739e-01 -6.7589327813387987e-02 0.0000000000000000e+00 1
-2.6080066595524731e-01 -6.3360452986019333e-02 0.0000000000000000e+00 1
-2.8605613146332842e-01 -4.3750428008874909e-02 0.0000000000000000e+00 1
-2.7863233109615398e-01 -6.4098767852328487e-02 0.0000000000000000e+00 1
-2.2909405479244396e-01 -3.2015122340986815e-02 0.0000000000000000e+00 1
-3.0827071045241650e-01 -6.0686058210223499e-02 0.0000000000000000e+00 1
-3.1177251578534171e-01 -6.8547666704680058e-02 0.0000000000000000e+00 1
-3.1661532569360923e-01 -6.1699055438496193e-02 0.0000000000000000e+00 1
-3.2023747707274264e-01 -6.9448737699689247e-02 0.0000000000000000e+00 1
-3.1517479639200130e-01 -7.6572232057317446e-02 0.0000000000000000e+00 1
-3.2396520724838140e-01 -7.7430500032350594e-02 0.0000000000000000e+00 1
-2.5943225589415442e-01 -3.8010445773621823e-02 0.0000000000000000e+00 1
-2.0839568527876989e-01 -5.7057238579096350e-02 0.0000000000000000e+00 1
-2.3112856376753257e-01 -5.9701798937221676e-02 0.0000000000000000e+00 1
5.1718635322427382e-02 4.4750478513758598e-03 0.0000000000000000e+00 1
-3.8152467562477033e-02 1.0015030467865449e-02 0.0000000000000000e+00 1
-2.9807628342906572e-01 -7.4532597667001405e-02 0.0000000000000000e+00 1
-2.8918967153130914e-01 -7.3298092325470604e-02 0.0000000000000000e+00 1
-1.7100239214567642e-01 -1.2375406512328959e-02 0.0000000000000000e+00 1
-1.2311003194952820e-01 -3.4013811544012909e-02 0.0000000000000000e+00 1
-3.9351553939179600e-02 -2.2466010847418588e-02 0.0000000000000000e+00 1
-2.0308676314222976e-01 -1.8662844100949517e-02 0.0000000000000000e+00 1
-1.1143034614467304e-01 -1.4868017722655669e-03 0.0000000000000000e+00 1
2.3438899929585991e-02 -1.1866613114330364e-02 0.0000000000000000e+00 1
-1.3225912792302051e-02 1.4293104484990203e-02 0.0000000000000000e+00 1
-3.2848993242096131e-01 -7.0367095770380306e-02 0.0000000000000000e+00 1
-3.3267700654421178e-01 -7.8190855999456868e-02 0.0000000000000000e+00 1
1.8064919484677172e-01 5.6587187404841879e-02 0.0000000000000000e+00 1
-1.3577587423674095e-01 -5.4486952833996622e-03 0.0000000000000000e+00 1
2.3235896898121977e-01 6.4908334508032905e-02 0.0000000000000000e+00 1
7.6231242047311784e-02 4.0040098636025256e-02 0.0000000000000000e+00 1
-1.9713657805183463e-01 -5.4829777986539902e-02 0.0000000000000000e+00 1
2.7324730552156062e-01 6.4515611485160176e-02 0.0000000000000000e+00 1
2.8120812743897261e-01 6.7537464257892810e-02 0.0000000000000000e+00 1
2.8874129004009941e-01 6.2900265153697080e-02 0.0000000000000000e+00 1
2.8832362843074966e-01 5.3822255873847015e-02 0.0000000000000000e+00 1
2.9649212183090329e-01 5.8816802488720718e-02 0.0000000000000000e+00 1
2.9668763761117489e-01 6.6903323525955100e-02 0.0000000000000000e+00 1
3.0453044398798013e-01 6.2856894892698204e-02 0.0000000000000000e+00 1
2.8783599781616744e-02 3.1319844239172105e-02 0.0000000000000000e+00 1
-3.3734032538003333e-01 -6.9935626969815118e-02 0.0000000000000000e+00 1
-3.4124067487477944e-01 -7.8504927123493023e-02 0.0000000000000000e+00 1
-3.3654950572738213e-01 -8.6102146758453679e-02 0.0000000000000000e+00 1
-3.4659498927028864e-01 -8.5686119467518460e-02 0.0000000000000000e+00 1
3.0401728899187191e-01 5.3816920276246114e-02 0.0000000000000000e+00 1
-1.4383966891757716e-02 -1.8516583357423764e-02 0.0000000000000000e+00 1
-2.6945276498813048e-01 -3.8893213566249599e-02 0.0000000000000000e+00 1
-2.7808713745915531e-01 -4.1896021285123444e-02 0.0000000000000000e+00 1
-2.8369550463049120e-01 -3.7105800399645839e-02 0.0000000000000000e+00 1
-2.9024990041411280e-01 -3.8362951734239141e-02 0.0000000000000000e+00 1
-2.7749378978312345e-01 -3.4657484832978029e-02 0.0000000000000000e+00 1
-2.9322894519375930e-01 -4.5144865416650755e-02 0.0000000000000000e+00 1
-3.0050033586246172e-01 -4.6138026869049227e-02 0.0000000000000000e+00 1
-2.9782883087497614e-01 -3.9074981078650296e-02 0.0000000000000000e+00 1
3.1314820696587364e-01 5.9140053255733641e-02 0.0000000000000000e+00 1
-3.4608845139506317e-01 -7.2480664810208942e-02 0.0000000000000000e+00 1
-3.1380983307449961e-01 -5.4429340868123371e-02 0.0000000000000000e+00 1
-3.0579066856598353e-01 -5.2564833191434332e-02 0.0000000000000000e+00 1
-3.0766682348809560e-01 -4.5129544058838435e-02 0.0000000000000000e+00 1
-2.9379721771423722e-01 -3.3663479976475334e-02 0.0000000000000000e+00 1
2.6428607342677873e-01 3.5032868412847140e-02 0.0000000000000000e+00 1
2.6171836023948503e-01 7.4520635484240011e-02 0.0000000000000000e+00 1
2.5501521232727931e-01 7.3707926433835572e-02 0.0000000000000000e+00 1
2.5181366231574853e-01 6.6657337309860759e-02 0.0000000000000000e+00 1
2.4334154569539851e-01 6.6861282527561822e-02 0.0000000000000000e+00 1
-2.9259061996538410e-01 -8.1828446736243468e-02 0.0000000000000000e+00 1
-6.4591957784376139e-02 -2.5398528181041831e-02 0.0000000000000000e+00 1
2.4047385390175921e-01 2.9389017038710784e-02 0.0000000000000000e+00 1
2.7410559513336585e-01 7.2352601945911699e-02 0.0000000000000000e+00 1
2.8072927503245154e-01 7.5245197316112955e-02 0.0000000000000000e+00 1
2.5441197187089837e-01 7.9705103414363668e-02 0.0000000000000000e+00 1
1.5789441277399918e-01 5.3716744372725798e-02 0.0000000000000000e+00 1
-2.8561966775381242e-01 -2.7320388084518098e-02 0.0000000000000000e+00 1
2.3723128428318044e-01 7.4135362429198493e-02 0.0000000000000000e+00 1
2.8933885893121941e-01 7.2079694789049284e-02 0.0000000000000000e+00 1
3.5170985844038738e-01 5.7970254540715173e-02 0.0000000000000000e+00 1
3.4423066312055534e-01 6.6001378437841887e-02 0.0000000000000000e+00 1
3.3485854538798687e-01 6.2071732134072535e-02 0.0000000000000000e+00 1
3.3185786449146643e-01 5.2547607092734323e-02 0.0000000000000000e+00 1
3.2490946288323014e-01 6.0162539673852114e-02 0.0000000000000000e+00 1
3.1958922025187791e-01 6.8048960918977525e-02 0.0000000000000000e+00 1
-2.3961101918955574e-01 -3.3986539840963961e-02 0.0000000000000000e+00 1
-2.3720822670657218e-01 -2.5059948721854897e-02 0.0000000000000000e+00 1
-2.2581157498281182e-01 -2.2403394199917510e-02 0.0000000000000000e+00 1
-2.4990502872544076e-01 -3.5990827494820049e-02 0.0000000000000000e+00 1
-2.5645889299068181e-01 -2.9628729181293105e-02 0.0000000000000000e+00 1
-2.1835307902601167e-01 -3.0533337510452424e-02 0.0000000000000000e+00 1
3.7177781887088340e-01 6.2815925928792871e-02 0.0000000000000000e+00 1
-3.1856407044508078e-01 -8.4933838179535037e-02 0.0000000000000000e+00 1
-3.0952520873693834e-01 -8.3802557053963528e-02 0.0000000000000000e+00 1
2.2838951862619433e-01 2.6282180062812577e-02 0.0000000000000000e+00 1
-3.5181491802451453e-01 -1.0139697926555841e-01 0.0000000000000000e+00 1
-3.5841084053469618e-01 -9.4025057496643666e-02 0.0000000000000000e+00 1
-3.6654572278706399e-01 -9.5879277666690244e-02 0.0000000000000000e+00 1
-3.6965614526433255e-01 -1.0449062595415815e-01 0.0000000000000000e+00 1
-3.7876253903525253e-01 -1.0574094598483805e-01 0.0000000000000000e+00 1
5.2526079065458427e-02 3.5195265349748740e-02 0.0000000000000000e+00 1
-3.3254313081618619e-01 -9.5836549001869706e-02 0.0000000000000000e+00 1
-2.5474355297869684e-02 1.1256950547408190e-02 0.0000000000000000e+00 1
-1.4738488005541325e-01 -7.9370462295537975e-03 0.0000000000000000e+00 1
2.6792076129585929e-01 7.6552329362451793e-02 0.0000000000000000e+00 1
-2.2989742100465907e-01 -7.8198644843943788e-02 0.0000000000000000e+00 1
-2.6541788738656297e-01 -8.5115500075075540e-02 0.0000000000000000e+00 1
-2.7368331128725021e-01 -7.7936747320256461e-02 0.0000000000000000e+00 1
-2.6486669117422484e-01 -7.3190585913039605e-02 0.0000000000000000e+00 1
-2.0531536022464109e-01 -7.3706837850594495e-02 0.0000000000000000e+00 1
-8.7579738363136844e-02 3.0056238870391815e-03 0.0000000000000000e+00 1
-9.9596745817131099e-02 5.2417260437717661e-04 0.0000000000000000e+00 1
1.3906275862583500e-01 2.9629467337440787e-03 0.0000000000000000e+00 1
-1.8021082721676801e-01 -6.8240288736372834e-02 0.0000000000000000e+00 1
-1.7726340465430912e-01 -5.5364483102204438e-02 0.0000000000000000e+00 1
-1.6404581228306278e-01 -5.2635589624975415e-02 0.0000000000000000e+00 1
-1.5543486149715491e-01 -6.1983986031095367e-02 0.0000000000000000e+00 1
-1.4252638855029015e-01 -5.9184681287034378e-02 0.0000000000000000e+00 1
-1.3879473267478676e-01 -4.7832875039682761e-02 0.0000000000000000e+00 1
-5.0933603838464632e-02 8.8837907517448130e-03 0.0000000000000000e+00 1
-4.6138052143772507e-02 2.0596256115012798e-02 0.0000000000000000e+00 1
-6.3484188639696501e-02 7.1943938642133496e-03 0.0000000000000000e+00 1
1.1299397219707327e-01 -2.9945116398905369e-03 0.0000000000000000e+00 1
-1.5273881791873390e-03 1.6427310586581628e-02 0.0000000000000000e+00 1
-9.6348159221971864e-03 2.3681455532639565e-02 0.0000000000000000e+00 1
1.0416281865901668e-02 1.9758616039179052e-02 0.0000000000000000e+00 1
-2.5466198075585306e-01 -8.0689818930679391e-02 0.0000000000000000e+00 1
-2.4860427741680652e-01 -7.2337707102336918e-02 0.0000000000000000e+00 1
-2.3856741360901318e-01 -6.9161082684542685e-02 0.0000000000000000e+00 1
8.6532287578937245e-02 -8.0619802051961932e-03 0.0000000000000000e+00 1
9.0003359073228623e-02 4.6022944656245006e-03 0.0000000000000000e+00 1
-3.5576552224546427e-02 -3.5688243820219949e-02 0.0000000000000000e+00 1
-4.8807787461396884e-02 -3.9775623059942575e-02 0.0000000000000000e+00 1
-1.1564680465590410e-01 -5.4073094367394520e-02 0.0000000000000000e+00 1
-1.1127393362050093e-01 -4.0450786227461018e-02 0.0000000000000000e+00 1
5.7889442470565600e-02 -1.4794562664978883e-02 0.0000000000000000e+00 1
-1.9231895141641359e-01 -1.6472132942608703e-02 0.0000000000000000e+00 1
1.6462868678830886e-01 1.1256518719939927e-02 0.0000000000000000e+00 1
1.5484959358467151e-01 2.0525494558114078e-02 0.0000000000000000e+00 1
1.7784318720686509e-01 1.4187539930605942e-02 0.0000000000000000e+00 1
1.9120604782290754e-01 5.8380196740227576e-02 0.0000000000000000e+00 1
-1.0629255299302109e-01 1.0416311520673554e-02 0.0000000000000000e+00 1
-7.5883710922603528e-02 -4.5073885234635874e-02 0.0000000000000000e+00 1
-8.9199910494952198e-02 -4.8518979948261744e-02 0.0000000000000000e+00 1
-3.2195161592367416e-01 -5.5603276359551590e-02 0.0000000000000000e+00 1
-3.2481523801446394e-01 -6.2285063095238555e-02 0.0000000000000000e+00 1
-7.1685227426465423e-02 1.7047456705933398e-02 0.0000000000000000e+00 1
-1.8182891919336297e-01 -1.4471592647181987e-02 0.0000000000000000e+00 1
-9.6471898028037573e-02 -3.9355084433863735e-02 0.0000000000000000e+00 1
2.0117007375523302e-01 5.9933690592135450e-02 0.0000000000000000e+00 1
-2.8794266699639504e-01 -3.3009953949395376e-02 0.0000000000000000e+00 1
2.0362799775689114e-01 2.0179597233799383e-02 0.0000000000000000e+00 1
1.8290590717163430e-01 2.6399925411902531e-02 0.0000000000000000e+00 1
2.0443631167009363e-01 6.8985489461480198e-02 0.0000000000000000e+00 1
-3.1081971316488821e-01 -9.3717569865396921e-02 0.0000000000000000e+00 1
3.8053213921150025e-01 6.5712643177775865e-02 0.0000000000000000e+00 1
-3.9490927824827510e-01 -1.1359402462031155e-01 0.0000000000000000e+00 1
-3.9323309247119292e-01 -1.1096841935592477e-01 0.0000000000000000e+00 1
1.0564459309328145e-01 5.2050069170979908e-02 0.0000000000000000e+00 1
2.1300156336066398e-01 7.0846906938728402e-02 0.0000000000000000e+00 1
-1.2323636356700834e-01 -3.6618231735884607e-03 0.0000000000000000e+00 1
1.0665704839645292e-02 -1.4463545113379618e-02 0.0000000000000000e+00 1
-3.0870392274179065e-01 -3.9172344927910815e-02 0.0000000000000000e+00 1
2.2103576531179603e-01 3.5378717001249449e-02 0.0000000000000000e+00 1
-1.5976539676038010e-01 -4.0775510327036274e-02 0.0000000000000000e+00 1
2.2191163274362002e-01 6.4872329181249799e-02 0.0000000000000000e+00 1
-3.3032966263819968e-01 -5.6561739613772755e-02 0.0000000000000000e+00 1
3.0151434237160191e-01 7.8265072381103501e-02 0.0000000000000000e+00 1
3.1668910535581302e-01 7.6024535010738498e-02 0.0000000000000000e+00 1
-7.7695251721404471e-02 -2.7397778135699286e-02 0.0000000000000000e+00 1
-5.1793098232018588e-02 -2.4269838929053669e-02 0.0000000000000000e+00 1
-2.6908315431386640e-02 -2.0362406075254802e-02 0.0000000000000000e+00 1
-1.7153831724147178e-01 -4.2958316689734932e-02 0.0000000000000000e+00 1
-1.9350662737322349e-01 -4.5181647815977111e-02 0.0000000000000000e+00 1
-2.1985682203341531e-01 -5.8415008325034989e-02 0.0000000000000000e+00 1
3.9610936310202044e-02 2.2928959615063386e-03 0.0000000000000000e+00 1
3.4936733543245369e-01 7.4070065655318845e-02 0.0000000000000000e+00 1
-1.3808407545613760e-01 6.2589656924983174e-03 0.0000000000000000e+00 1
-3.2757779366382256e-01 -8.6256537156908980e-02 0.0000000000000000e+00 1
3.3343639428787319e-01 7.5805574807174980e-02 0.0000000000000000e+00 1
6.3933528270847195e-02 7.1481117886981124e-03 0.0000000000000000e+00 1
-1.5970440281494791e-01 -1.0512909945265131e-02 0.0000000000000000e+00 1
-1.7874008205736780e-01 -4.3937470442593097e-03 0.0000000000000000e+00 1
-3.8518247875947598e-01 -1.0679903885218529e-01 0.0000000000000000e+00 1
-1.6817462595588911e-01 -2.2738095452382572e-03 0.0000000000000000e+00 1
-8.3340920653288242e-02 1.5043708040384081e-02 0.0000000000000000e+00 1
-3.6106155901462228e-01 -7.9772911979553301e-02 0.0000000000000000e+00 1
-3.5433977681542195e-01 -8.2287855265937265e-02 0.0000000000000000e+00 1
8.3352510338580710e-02 4.9087821791146881e-02 0.0000000000000000e+00 1
-2.7850341112426236e-01 -2.7387320075562764e-02 0.0000000000000000e+00 1
-3.1386121814757761e-01 -4.2964437550176593e-02 0.0000000000000000e+00 1
9.7877795075219959e-02 1.4118742337744763e-02 0.0000000000000000e+00 1
-1.4810554682420676e-01 2.5886518508190428e-03 0.0000000000000000e+00 1
-3.7161359439174280e-01 -9.0144367559406149e-02 0.0000000000000000e+00 1
1.2265116463391956e-01 1.8189915311800600e-02 0.0000000000000000e+00 1
-7.8095403736507469e-03 -2.9818176604576311e-02 0.0000000000000000e+00 1
-1.5139963459459777e-01 -5.0155497451183008e-02 0.0000000000000000e+00 1
3.5422346446466368e-01 6.6847343840025608e-02 0.0000000000000000e+00 1
3.6500478335313763e-01 7.3436829494967035e-02 0.0000000000000000e+00 1
-1.9875370023803879e-01 -8.4455641614506454e-03 0.0000000000000000e+00 1
-2.9896809357696730e-01 -3.2736745523504973e-02 0.0000000000000000e+00 1
2.5803350733929509e-01 4.3826242369081045e-02 0.0000000000000000e+00 1
2.4173520075559271e-01 3.9810666596948617e-02 0.0000000000000000e+00 1
-3.0648787798881705e-01 -7.5600589689335862e-02 0.0000000000000000e+00 1
2.6275692353968166e-01 8.0103870242173761e-02 0.0000000000000000e+00 1
3.2908638783631949e-01 6.8617496129262989e-02 0.0000000000000000e+00 1
1.2682092387025021e-01 5.6165447946450800e-02 0.0000000000000000e+00 1
2.8644013854448436e-01 7.9543512595168314e-02 0.0000000000000000e+00 1
1.9171379912705573e-02 -2.3988019249762196e-02 0.0000000000000000e+00 1
1.8833752978154268e-02 3.6967066527684070e-02 0.0000000000000000e+00 1
3.7954206428018888e-01 7.2785036535906678e-02 0.0000000000000000e+00 1
4.0112408495827001e-01 7.0521156824749603e-02 0.0000000000000000e+00 1
4.0118906565599349e-01 6.7268426011124968e-02 0.0000000000000000e+00 1
-2.1731958242548642e-03 -1.6779774436635912e-02 0.0000000000000000e+00 1
3.2067682429601743e-02 -2.1115654838099990e-02 0.0000000000000000e+00 1
-2.8670623789829469e-01 -6.5304018781371875e-02 0.0000000000000000e+00 1
-2.6979511508901599e-01 -6.4018759945630221e-02 0.0000000000000000e+00 1
-3.7940907847307798e-01 -9.9091283840219299e-02 0.0000000000000000e+00 1
-2.0924467271432201e-01 -1.1180157316425025e-02 0.0000000000000000e+00 1
-3.8943859319066565e-01 -1.0432792165417000e-01 0.0000000000000000e+00 1
1.8566513668227841e-01 6.6339144284645296e-02 0.0000000000000000e+00 1
-2.5349440215156921e-01 -2.0837115500382624e-02 0.0000000000000000e+00 1
-2.5042331432214737e-01 -6.2482667852251920e-02 0.0000000000000000e+00 1
3.1119884667610503e-01 4.6759882803820228e-02 0.0000000000000000e+00 1
-2.6488282121652673e-01 -3.1036504767087098e-02 0.0000000000000000e+00 1
3.9064647841591488e-01 7.1581779943017135e-02 0.0000000000000000e+00 1
-2.1415510134406707e-01 -2.1682018371056308e-02 0.0000000000000000e+00 1
-2.6210896416053203e-01 -2.3262849653208916e-02 0.0000000000000000e+00 1
-2.8295985059194895e-01 -7.9926014193949541e-02 0.0000000000000000e+00 1
-2.8639426820624148e-01 -8.9686845686126171e-02 0.0000000000000000e+00 1
3.0336322701322227e-01 7.0971514901744387e-02 0.0000000000000000e+00 1
4.0786080023206661e-01 6.9824469710445800e-02 0.0000000000000000e+00 1
4.0776814250796217e-01 6.7735023426695656e-02 0.0000000000000000e+00 1
-2.4685889510956729e-01 -2.7368291041545076e-02 0.0000000000000000e+00 1
3.5825318672929589e-02 -9.1590116156865450e-03 0.0000000000000000e+00 1
-3.4457049804184225e-01 -6.5516822263126079e-02 0.0000000000000000e+00 1
2.0991393637855377e-01 3.2962302669293717e-02 0.0000000000000000e+00 1
1.7525529868540085e-01 6.4115536067014103e-02 0.0000000000000000e+00 1
-1.8768974190657850e-01 -5.2356569408844068e-02 0.0000000000000000e+00 1
1.2335862575517595e-01 4.6477873004428190e-02 0.0000000000000000e+00 1
-1.3505073998279749e-01 -3.6735925639218167e-02 0.0000000000000000e+00 1
-3.6001967345828001e-01 -8.6505157390654869e-02 0.0000000000000000e+00 1
-2.2762098099387607e-01 -1.3479261028336013e-02 0.0000000000000000e+00 1
1.1241902415502460e-01 4.4485296031360345e-02 0.0000000000000000e+00 1
-3.7535805559604202e-02 2.7034175231318815e-02 0.0000000000000000e+00 1
1.4406875606151948e-01 2.3070166607618466e-02 0.0000000000000000e+00 1
-3.0120278863166461e-01 -8.1333946053846931e-02 0.0000000000000000e+00 1
-2.3518098725850722e-01 -1.6479169508244303e-02 0.0000000000000000e+00 1
1.6956594909927636e-01 5.4158563597468845e-02 0.0000000000000000e+00 1
-1.1742540305912463e-01 8.1246022334669991e-03 0.0000000000000000e+00 1
2.2840063515852910e-01 7.3104282838604345e-02 0.0000000000000000e+00 1
-3.7288030698299146e-01 -9.8118735153327918e-02 0.0000000000000000e+00 1
-2.4074309406938790e-01 -5.9087705907955673e-02 0.0000000000000000e+00 1
-3.4967120343600649e-01 -9.3284005026470315e-02 0.0000000000000000e+00 1
-3.9501406010350015e-01 -1.0898344537314854e-01 0.0000000000000000e+00 1
-2.9523112267452112e-01 -2.9764029925619724e-02 0.0000000000000000e+00 1
1.4589267989024368e-01 5.0480837852822154e-02 0.0000000000000000e+00 1
1.5664812771965908e-01 6.3169602790040510e-02 0.0000000000000000e+00 1
1.3744305801237003e-01 5.8250271843983126e-02 0.0000000000000000e+00 1
-3.2590644075099595e-01 -5.0670202289626570e-02 0.0000000000000000e+00 1
4.8276980129253501e-02 -6.4165797750703295e-03 0.0000000000000000e+00 1
1.0145673669348634e-01 4.2550050434402437e-02 0.0000000000000000e+00 1
-3.4854932905142721e-01 -7.8697296606310044e-02 0.0000000000000000e+00 1
-1.2479105807424928e-01 -4.5708934357015854e-02 0.0000000000000000e+00 1
-2.1303644020203499e-01 -6.6148223131748951e-02 0.0000000000000000e+00 1
-2.2522857139597277e-01 -6.8488994529663394e-02 0.0000000000000000e+00 1
1.9119372547818350e-01 3.2281993287107021e-02 0.0000000000000000e+00 1
-3.0368818122949381e-01 -4.1203630468387063e-02 0.0000000000000000e+00 1
2.6805338835160109e-01 8.1374048382207298e-02 0.0000000000000000e+00 1
4.0953490160360839e-01 6.7526959208876330e-02 0.0000000000000000e+00 1
8.9567095849565348e-02 4.0912438369427789e-02 0.0000000000000000e+00 1
3.1103730455620077e-01 6.8462713816113616e-02 0.0000000000000000e+00 1
6.0881970878860998e-02 -3.3882099811700936e-03 0.0000000000000000e+00 1
3.8970127649202946e-01 6.6620108424903401e-02 0.0000000000000000e+00 1
-1.6425489626347507e-02 3.0757024738650197e-02 0.0000000000000000e+00 1
2.8028679238231985e-01 8.1010952111181700e-02 0.0000000000000000e+00 1
3.6114917979593109e-01 6.8485917773066465e-02 0.0000000000000000e+00 1
-3.9685818626767566e-01 -1.1297585605647165e-01 0.0000000000000000e+00 1
-3.3131681889988895e-01 -6.3882127811387995e-02 0.0000000000000000e+00 1
-2.8265100805761689e-01 -3.1896189468420023e-02 0.0000000000000000e+00 1
-3.8923475299654930e-01 -1.0978815506977486e-01 0.0000000000000000e+00 1
-1.1296478652549560e-01 -2.9793257777716044e-02 0.0000000000000000e+00 1
3.3680689106187472e-01 6.9530617233765871e-02 0.0000000000000000e+00 1
-2.8177208254286451e-01 -7.1510196177330579e-02 0.0000000000000000e+00 1
-2.0078608362198619e-01 -6.4119402124483998e-02 0.0000000000000000e+00 1
7.1140091413489440e-02 7.4650830638206978e-06 0.0000000000000000e+00 1
2.9027111833921027e-04 2.5619890101104870e-02 0.0000000000000000e+00 1
7.3115105735252997e-02 4.8886939323268659e-02 0.0000000000000000e+00 1
1.3073842415831052e-01 1.0503944023751776e-02 0.0000000000000000e+00 1
6.4993964644334240e-02 3.5031338591936440e-02 0.0000000000000000e+00 1
-3.4150289887297003e-01 -9.2145818415215630e-02 0.0000000000000000e+00 1
4.1053635510662362e-01 6.8298443632884051e-02 0.0000000000000000e+00 1
-1.0267545271566493e-01 -3.0038174092249667e-02 0.0000000000000000e+00 1
1.1783432335673645e-01 7.6334736472771798e-03 0.0000000000000000e+00 1
1.0452446781076902e-01 5.1486391255498561e-03 0.0000000000000000e+00 1
-2.0500450263744609e-02 2.0958771571725588e-02 0.0000000000000000e+00 1
1.7209893400873755e-02 2.7334451020987964e-02 0.0000000000000000e+00 1
-8.4181597184563112e-02 -3.9003041555899932e-02 0.0000000000000000e+00 1
-3.1240362927509174e-01 -4.8594508408581275e-02 0.0000000000000000e+00 1
4.0920349082144043e-02 3.0663468180376765e-02 0.0000000000000000e+00 1
-5.2695105875368011e-03 3.2993804097563362e-02 0.0000000000000000e+00 1
5.0754622849797627e-02 4.4950755346538501e-02 0.0000000000000000e+00 1
2.4935552607632994e-01 4.3641810936506431e-02 0.0000000000000000e+00 1
-7.0542386221510489e-02 -3.5737335163371825e-02 0.0000000000000000e+00 1
8.7386231204858111e-02 1.4163562083070317e-02 0.0000000000000000e+00 1
2.8437818424697597e-02 4.0959079069381045e-02 0.0000000000000000e+00 1
2.9732536152869032e-01 7.3610115505022847e-02 0.0000000000000000e+00 1
-3.8262055338520468e-01 -9.6080391267782173e-02 0.0000000000000000e+00 1
-5.7013502262554236e-02 -3.2861296473681204e-02 0.0000000000000000e+00 1
-1.8844724365558660e-01 -6.1841475241890376e-02 0.0000000000000000e+00 1
2.5054474007266869e-01 7.6721260130764468e-02 0.0000000000000000e+00 1
2.9550608165524250e-01 5.0586454046414243e-02 0.0000000000000000e+00 1
1.4320958592714159e-01 1.3139768684334693e-02 0.0000000000000000e+00 1
-3.2798727597412196e-02 1.8768407563599505e-02 0.0000000000000000e+00 1
-2.7374990623790191e-01 -7.0151011441717079e-02 0.0000000000000000e+00 1
-3.6492934562813611e-01 -8.9923592430950980e-02 0.0000000000000000e+00 1
7.9452119263403426e-02 -8.7944528594501449e-04 0.0000000000000000e+00 1
3.6693973303730076e-01 6.7726363324333155e-02 0.0000000000000000e+00 1
2.4910040636251179e-01 7.1910275671395948e-02 0.0000000000000000e+00 1
-3.5105709137143565e-01 -6.8542621153056843e-02 0.0000000000000000e+00 1
-2.7185242877136317e-01 -3.1289603791326649e-02 0.0000000000000000e+00 1
-4.5073319012976135e-02 -3.0480421740596619e-02 0.0000000000000000e+00 1
1.9473548401700780e-01 2.4748908475448181e-02 0.0000000000000000e+00 1
2.5843954563886679e-01 7.7915759418390629e-02 0.0000000000000000e+00 1
-3.5463495341398432e-01 -8.8833280144856919e-02 0.0000000000000000e+00 1
-2.5641202667129248e-01 -7.0103119119759194e-02 0.0000000000000000e+00 1

Edges
178
1 2 1
2 3 1
3 4 1
4 5 1
5 6 1
6 7 1
7 8 1
8 9 1
9 10 1
10 11 1
11 12 1
12 13 1
13 14 1
14 15 1
15 16 1
16 17 1
17 18 1
18 19 1
19 20 1
20 21 1
21 22 1
22 23 1
23 24 1
24 25 1
25 26 1
26 27 1
27 28 1
28 29 1
29 30 1
30 31 1
31 32 1
32 33 1
33 34 1
34 35 1
35 36 1
36 37 1
37 38 1
38 39 1
39 40 1
40 41 1
41 42 1
42 43 1
43 44 1
44 45 1
45 46 1
46 47 1
47 48 1
48 49 1
49 50 1
50 51 1
51 52 1
52 53 1
53 54 1
54 55 1
55 56 1
56 57 1
57 58 1
58 59 1
59 60 1
60 61 1
61 62 1
62 63 1
63 64 1
64 65 1
65 66 1
66 67 1
67 68 1
68 69 1
69 70 1
70 71 1
71 72 1
72 73 1
73 74 1
74 75 1
75 76 1
76 77 1
77 78 1
78 79 1
79 80 1
80 81 1
81 82 1
82 83 1
83 84 1
84 85 1
85 86 1
86 87 1
87 88 1
88 89 1
89 90 1
90 91 1
91 92 1
92 93 1
93 94 1
94 95 1
95 96 1
96 97 1
97 98 1
98 99 1
99 100 1
100 101 1
101 102 1
102 103 1
103 104 1
104 105 1
105 106 1
106 107 1
107 108 1
108 109 1
109 110 1
110 111 1
111 112 1
112 113 1
113 114 1
114 115 1
115 116 1
116 117 1
117 118 1
118 119 1
119 120 1
120 121 1
121 122 1
122 123 1
123 124 1
124 125 1
125 126 1
126 127 1
127 128 1
128 129 1
129 130 1
130 131 1
131 132 1
132 133 1
133 134 1
134 135 1
135 136 1
136 137 1
137 138 1
138 139 1
139 140 1
140 141 1
141 142 1
142 143 1
143 144 1
144 145 1
145 146 1
146 147 1
147 148 1
148 149 1
149 150 1
150 151 1
151 152 1
152 153 1
153 154 1
154 155 1
155 156 1
156 157 1
157 158 1
158 159 1
159 160 1
160 161 1
161 162 1
162 163 1
163 164 1
164 165 1
165 166 1
166 167 1
167 168 1
168 169 1
169 170 1
170 171 1
171 172 1
172 173 1
173 174 1
174 175 1
175 176 1
176 177 1
177 178 1
178 1 1

Triangles
1208
249 251 570 1
537 220 640 1
155 193 489 1
188 126 446 1
94 246 642 1
27 28 525 1
415 470 547 1
405 252 406 1
193 488 489 1
195 534 619 1
179 432 519 1
401 191 546 1
402 258 437 1
470 227 547 1
454 455 602 1
427 234 452 1
191 401 529 1
154 155 489 1
534 402 619 1
187 441 442 1
529 395 618 1
455 183 602 1
402 437 446 1
528 293 534 1
606 200 617 1
238 524 579 1
427 452 453 1
477 585 683 1
250 252 405 1
375 420 421 1
126 127 446 1
295 520 605 1
400 606 617 1
195 528 534 1
192 159 510 1
472 401 561 1
401 546 561 1
520 224 605 1
245 95 601 1
437 188 446 1
393 500 540 1
191 529 618 1
408 247 680 1
180 426 569 1
248 247 408 1
480 192 510 1
375 366 420 1
477 374 585 1
251 255 570 1
500 212 540 1
238 460 524 1
275 279 507 1
488 193 490 1
276 275 507 1
430 431 667 1
434 473 573 1
514 513 535 1
206 462 523 1
609 487 632 1
591 497 621 1
273 276 521 1
453 537 640 1
496 497 591 1
479 349 554 1
185 456 595 1
392 609 632 1
506 276 507 1
187 442 644 1
535 513 628 1
470 415 659 1
472 190 550 1
429 430 667 1
417 230 592 1
433 249 570 1
234 427 592 1
429 378 430 1
466 562 620 1
438 206 598 1
227 461 547 1
231 449 545 1
580 246 581 1
375 421 422 1
562 233 620 1
573 181 692 1
405 406 441 1
276 506 508 1
403 290 639 1
228 453 574 1
479 192 480 1
159 160 510 1
375 422 424 1
468 239 552 1
440 271 463 1
461 227 523 1
586 468 620 1
394 587 595 1
230 85 592 1
206 38 598 1
441 406 442 1
247 230 680 1
424 422 426 1
269 273 521 1
587 185 595 1
192 479 554 1
425 424 426 1
418 212 564 1
426 180 636 1
456 185 611 1
455 456 616 1
625 217 627 1
486 487 565 1
432 179 624 1
200 444 617 1
456 611 616 1
178 1 445 1
366 364 420 1
301 625 627 1
74 75 508 1
156 157 515 1
557 403 639 1
462 206 615 1
448 244 566 1
124 125 443 1
462 461 523 1
190 472 561 1
75 218 508 1
202 413 647 1
427 417 592 1
197 509 518 1
270 253 277 1
593 458 596 1
234 451 452 1
487 341 565 1
650 503 661 1
494 196 655 1
441 187 473 1
509 266 518 1
240 466 467 1
453 228 537 1
199 403 656 1
429 184 513 1
348 483 541 1
483 484 541 1
403 199 658 1
426 432 569 1
378 371 430 1
476 477 683 1
276 508 521 1
444 200 626 1
254 253 270 1
432 422 519 1
351 350 459 1
447 207 576 1
258 256 437 1
196 494 665 1
212 418 540 1
207 447 675 1
420 419 423 1
503 517 661 1
426 422 432 1
256 436 437 1
293 262 534 1
370 424 425 1
322 320 490 1
251 250 253 1
505 344 516 1
84 230 247 1
182 177 558 1
384 457 458 1
186 505 516 1
453 452 574 1
445 179 519 1
225 81 433 1
477 475 495 1
368 366 375 1
368 375 424 1
240 464 465 1
475 41 495 1
90 244 448 1
384 360 457 1
29 468 552 1
240 465 466 1
239 468 586 1
370 368 424 1
216 247 248 1
506 74 508 1
253 250 405 1
413 202 604 1
270 277 434 1
79 440 463 1
468 467 620 1
386 497 634 1
425 426 636 1
188 437 687 1
216 249 433 1
256 254 436 1
363 362 364 1
37 206 523 1
221 412 668 1
1 179 445 1
249 248 250 1
407 410 447 1
349 322 490 1
193 156 515 1
29 30 468 1
566 244 645 1
349 515 554 1
240 32 464 1
434 573 692 1
337 472 550 1
526 235 623 1
246 94 581 1
364 419 420 1
184 429 667 1
545 449 566 1
220 599 640 1
320 488 490 1
384 458 593 1
234 87 451 1
51 205 486 1
423 419 689 1
362 384 419 1
30 467 468 1
92 93 524 1
477 495 694 1
662 294 663 1
354 351 459 1
597 438 598 1
412 221 674 1
365 364 366 1
364 362 419 1
232 34 470 1
218 76 520 1
252 248 408 1
250 248 252 1
524 93 642 1
454 377 455 1
31 240 467 1
550 190 553 1
486 205 487 1
242 448 449 1
216 83 247 1
451 450 452 1
360 358 457 1
223 428 688 1
30 31 467 1
495 496 694 1
216 248 249 1
573 473 637 1
556 416 631 1
356 377 454 1
440 225 571 1
189 475 476 1
395 328 480 1
503 392 632 1
391 550 553 1
277 441 473 1
242 89 448 1
212 60 564 1
456 459 595 1
363 364 365 1
497 474 634 1
422 421 519 1
361 360 362 1
307 306 494 1
198 43 474 1
224 463 532 1
82 83 216 1
198 474 497 1
457 454 602 1
388 316 471 1
444 217 625 1
447 410 675 1
434 277 473 1
600 245 601 1
33 232 464 1
242 450 451 1
362 360 384 1
213 45 478 1
91 92 460 1
225 433 570 1
490 193 515 1
89 90 448 1
82 216 433 1
380 378 429 1
498 208 499 1
32 33 464 1
418 564 582 1
244 91 460 1
72 209 481 1
398 381 514 1
99 100 241 1
237 525 526 1
182 593 596 1
90 91 244 1
491 662 663 1
358 454 457 1
203 47 482 1
367 366 368 1
485 50 486 1
35 227 470 1
395 480 510 1
224 78 463 1
249 250 251 1
83 84 247 1
515 157 554 1
84 85 230 1
508 218 521 1
488 388 489 1
70 226 491 1
31 32 240 1
39 40 189 1
358 356 454 1
251 253 254 1
80 81 225 1
209 506 507 1
335 401 472 1
34 35 470 1
210 57 501 1
484 533 541 1
356 354 377 1
406 252 407 1
421 420 423 1
215 512 517 1
428 223 631 1
260 258 402 1
88 89 242 1
68 208 498 1
264 262 293 1
50 51 486 1
349 490 515 1
361 362 363 1
400 509 589 1
495 198 496 1
324 349 479 1
86 87 234 1
271 440 571 1
310 307 494 1
205 52 502 1
318 388 488 1
369 368 370 1
282 301 608 1
359 358 360 1
37 38 206 1
66 222 504 1
215 54 512 1
78 79 463 1
482 214 483 1
350 346 394 1
80 225 440 1
518 293 522 1
96 97 638 1
49 50 485 1
272 268 400 1
344 342 516 1
414 413 428 1
33 34 232 1
44 213 474 1
268 266 509 1
357 356 358 1
516 391 551 1
242 449 450 1
485 486 565 1
261 263 532 1
189 40 475 1
328 326 480 1
35 36 227 1
209 73 506 1
25 26 646 1
151 643 669 1
46 203 478 1
278 274 444 1
342 339 391 1
371 370 430 1
464 232 622 1
460 92 524 1
502 215 503 1
355 354 356 1
277 405 441 1
77 78 224 1
337 335 472 1
282 280 301 1
48 214 482 1
492 310 494 1
335 333 401 1
43 44 474 1
226 71 481 1
56 210 511 1
88 242 451 1
407 409 410 1
41 42 495 1
154 489 613 1
463 271 532 1
331 328 395 1
564 211 582 1
413 398 647 1
397 492 493 1
224 532 605 1
476 475 477 1
577 63 583 1
571 225 671 1
75 76 218 1
45 46 478 1
326 324 479 1
316 314 471 1
42 43 198 1
182 558 689 1
552 239 588 1
347 346 350 1
296 290 403 1
324 322 349 1
208 69 491 1
345 344 346 1
326 479 480 1
346 344 505 1
467 466 620 1
44 45 213 1
302 298 469 1
320 318 488 1
81 82 433 1
331 395 529 1
401 333 529 1
318 316 388 1
306 304 412 1
399 398 413 1
314 312 397 1
406 407 447 1
42 198 495 1
73 74 506 1
312 310 492 1
449 231 651 1
72 73 209 1
47 48 482 1
222 67 498 1
455 377 456 1
53 215 502 1
343 342 344 1
46 47 203 1
353 351 354 1
400 268 509 1
340 339 342 1
55 511 512 1
232 470 659 1
551 391 553 1
314 397 471 1
204 65 504 1
70 71 226 1
48 49 214 1
338 337 339 1
271 261 532 1
350 394 595 1
58 500 501 1
71 72 481 1
397 312 492 1
496 198 497 1
59 212 500 1
336 335 337 1
416 556 693 1
390 438 597 1
483 214 484 1
68 69 208 1
334 333 335 1
416 414 631 1
51 52 205 1
504 222 641 1
379 378 380 1
69 70 491 1
66 67 222 1
53 54 215 1
57 58 501 1
52 53 502 1
332 331 333 1
87 88 451 1
79 80 440 1
359 360 361 1
55 56 511 1
365 366 367 1
64 65 204 1
56 57 210 1
329 328 331 1
396 577 583 1
357 358 359 1
40 41 475 1
430 425 431 1
54 55 512 1
61 62 211 1
59 60 212 1
67 68 498 1
327 326 328 1
330 517 666 1
93 94 642 1
460 238 686 1
503 215 517 1
394 346 505 1
377 354 459 1
383 381 398 1
325 324 326 1
517 512 666 1
266 264 518 1
562 466 684 1
507 279 614 1
323 322 324 1
4 5 180 1
400 589 606 1
65 66 504 1
522 293 528 1
342 391 516 1
394 505 568 1
321 320 322 1
459 350 595 1
380 429 513 1
257 259 571 1
58 59 500 1
355 356 357 1
373 371 378 1
319 318 320 1
399 413 414 1
317 316 318 1
446 127 619 1
217 444 626 1
254 270 436 1
211 62 577 1
315 314 316 1
125 126 188 1
347 350 351 1
353 354 355 1
345 346 347 1
313 312 314 1
442 406 447 1
264 293 518 1
243 524 642 1
343 344 345 1
339 337 550 1
311 310 312 1
530 211 577 1
338 339 340 1
340 342 343 1
404 653 678 1
305 304 306 1
270 434 435 1
367 368 369 1
336 337 338 1
199 469 658 1
303 302 304 1
395 510 618 1
214 49 485 1
525 28 526 1
299 298 302 1
309 307 310 1
334 335 336 1
36 37 523 1
635 521 691 1
392 503 650 1
297 296 298 1
469 221 668 1
332 333 334 1
183 455 616 1
76 77 520 1
291 290 296 1
289 288 290 1
329 331 332 1
262 260 534 1
285 284 286 1
287 286 288 1
643 493 669 1
327 328 329 1
77 224 520 1
410 409 411 1
325 326 327 1
323 324 325 1
209 507 681 1
120 121 187 1
283 282 284 1
277 253 405 1
281 280 282 1
442 447 576 1
321 322 323 1
301 575 608 1
383 398 399 1
279 278 280 1
273 272 274 1
489 388 682 1
275 274 278 1
319 320 321 1
269 268 272 1
633 543 634 1
317 318 319 1
487 205 632 1
315 316 317 1
419 384 593 1
7 8 184 1
313 314 315 1
444 274 617 1
265 264 266 1
402 446 619 1
267 266 268 1
497 386 621 1
206 438 615 1
311 312 313 1
482 483 678 1
227 36 523 1
272 400 617 1
333 331 529 1
560 499 663 1
370 425 430 1
374 477 694 1
309 310 311 1
263 262 264 1
305 306 307 1
38 39 598 1
170 171 185 1
381 380 514 1
167 168 186 1
303 304 305 1
164 165 190 1
161 162 191 1
173 174 183 1
261 260 262 1
9 10 535 1
176 177 182 1
499 208 663 1
158 159 192 1
259 258 260 1
299 302 303 1
230 417 680 1
373 378 379 1
379 380 381 1
297 298 299 1
155 156 193 1
507 614 681 1
146 147 221 1
588 235 649 1
141 142 219 1
352 351 353 1
484 214 485 1
144 145 199 1
291 296 297 1
152 153 194 1
257 256 258 1
149 150 196 1
7 184 559 1
136 137 217 1
139 140 201 1
301 280 625 1
622 232 659 1
289 290 291 1
134 135 200 1
60 61 564 1
502 503 632 1
415 414 416 1
287 288 289 1
394 568 587 1
369 370 371 1
255 254 256 1
140 141 527 1
285 286 287 1
130 131 522 1
218 520 691 1
117 118 207 1
131 132 197 1
259 271 571 1
278 444 625 1
283 284 285 1
177 178 558 1
10 11 202 1
162 163 546 1
157 158 554 1
115 116 220 1
128 129 195 1
186 516 551 1
85 86 592 1
533 484 565 1
363 365 585 1
281 282 283 1
521 218 691 1
279 280 281 1
613 489 682 1
166 167 551 1
165 166 553 1
524 243 579 1
308 307 309 1
260 402 534 1
338 340 533 1
275 278 279 1
456 377 459 1
325 327 330 1
336 338 341 1
321 323 439 1
332 334 392 1
343 345 348 1
317 319 393 1
273 274 275 1
13 14 223 1
129 130 528 1
365 376 585 1
63 64 583 1
483 607 678 1
269 272 273 1
313 315 418 1
15 16 229 1
361 363 374 1
189 597 598 1
347 351 352 1
300 499 673 1
505 186 568 1
142 143 557 1
3 4 569 1
197 518 522 1
163 164 561 1
168 169 568 1
355 357 386 1
309 311 530 1
148 149 578 1
305 307 308 1
391 339 550 1
267 268 269 1
100 101 600 1
299 303 387 1
113 114 228 1
17 18 233 1
6 7 559 1
116 117 536 1
308 309 396 1
222 498 685 1
411 417 427 1
380 513 514 1
109 110 236 1
291 297 300 1
191 162 546 1
265 266 267 1
111 112 231 1
352 353 385 1
204 504 629 1
452 450 574 1
399 414 415 1
382 381 383 1
114 115 537 1
263 264 265 1
641 222 654 1
190 165 553 1
141 219 527 1
167 186 551 1
323 325 538 1
653 203 678 1
315 317 540 1
319 321 539 1
61 211 564 1
164 190 561 1
352 385 404 1
201 140 527 1
285 287 294 1
410 411 599 1
186 168 568 1
101 102 245 1
590 175 596 1
112 113 548 1
396 309 530 1
261 262 263 1
281 283 292 1
158 192 554 1
219 142 557 1
509 197 589 1
341 338 533 1
483 348 607 1
340 343 541 1
466 465 684 1
546 163 561 1
306 412 665 1
469 298 658 1
449 448 566 1
166 551 553 1
5 6 531 1
259 260 261 1
110 111 545 1
303 305 544 1
412 304 668 1
127 128 619 1
175 176 596 1
296 403 658 1
14 15 555 1
118 119 576 1
439 323 538 1
345 347 542 1
325 330 538 1
138 139 575 1
321 439 539 1
317 393 540 1
393 319 539 1
302 469 668 1
257 258 259 1
26 27 525 1
418 315 540 1
341 487 609 1
273 275 276 1
221 469 670 1
297 299 549 1
427 453 640 1
407 408 409 1
353 355 543 1
533 340 541 1
372 371 373 1
492 494 655 1
385 353 543 1
484 485 565 1
131 197 522 1
343 348 541 1
473 187 637 1
10 202 535 1
95 245 581 1
255 256 257 1
348 345 542 1
139 201 575 1
510 160 618 1
379 381 382 1
305 308 544 1
4 180 569 1
1 2 179 1
107 108 238 1
130 522 528 1
16 17 562 1
387 303 544 1
244 460 686 1
431 531 559 1
347 352 542 1
428 413 604 1
299 387 549 1
382 383 461 1
469 199 670 1
514 535 647 1
170 185 587 1
287 289 560 1
355 386 543 1
365 367 376 1
108 109 567 1
300 297 549 1
383 399 547 1
439 672 677 1
195 129 528 1
23 24 237 1
382 461 462 1
64 204 583 1
265 267 295 1
122 123 573 1
313 418 582 1
169 170 587 1
11 12 604 1
530 311 582 1
189 476 597 1
411 409 417 1
283 285 563 1
21 22 235 1
290 288 639 1
568 169 587 1
153 154 613 1
372 389 390 1
412 578 665 1
352 404 542 1
538 666 672 1
149 196 578 1
183 174 590 1
311 313 582 1
211 530 582 1
62 63 577 1
220 116 536 1
160 161 618 1
115 220 537 1
101 245 600 1
294 287 560 1
292 657 681 1
407 252 408 1
372 373 389 1
499 300 685 1
285 294 563 1
259 261 271 1
421 423 648 1
123 124 181 1
396 530 577 1
3 569 624 1
369 371 372 1
117 207 536 1
237 526 623 1
228 114 537 1
461 383 547 1
2 3 624 1
39 189 598 1
292 283 563 1
664 194 682 1
251 254 255 1
341 533 565 1
399 415 547 1
132 133 589 1
185 171 611 1
197 132 589 1
397 493 664 1
654 222 685 1
113 228 548 1
174 175 590 1
236 545 566 1
207 118 576 1
105 106 243 1
361 374 591 1
435 434 692 1
373 379 572 1
231 112 548 1
390 389 438 1
134 200 606 1
223 555 556 1
223 14 555 1
629 504 641 1
513 184 628 1
86 234 592 1
543 386 634 1
111 231 545 1
106 107 579 1
374 363 585 1
392 334 609 1
180 5 531 1
151 152 643 1
548 228 574 1
532 263 605 1
308 396 603 1
336 341 609 1
173 183 616 1
531 431 636 1
458 457 602 1
359 361 591 1
236 110 545 1
148 578 674 1
15 229 555 1
672 210 677 1
136 217 626 1
19 20 239 1
437 436 687 1
187 121 637 1
604 12 688 1
389 373 572 1
279 281 614 1
419 593 689 1
9 535 628 1
382 462 572 1
288 286 630 1
386 357 621 1
269 521 635 1
379 382 572 1
229 16 562 1
217 137 627 1
29 552 649 1
263 265 605 1
200 135 626 1
431 425 636 1
284 282 608 1
213 633 634 1
176 182 596 1
98 99 660 1
109 236 567 1
367 369 584 1
531 6 559 1
471 664 682 1
517 330 661 1
144 199 656 1
458 590 596 1
133 134 606 1
235 526 649 1
184 8 628 1
423 558 648 1
372 390 584 1
146 221 670 1
538 330 666 1
138 575 627 1
225 570 671 1
450 449 651 1
196 150 669 1
465 464 622 1
558 423 689 1
221 147 674 1
199 145 670 1
17 233 562 1
213 478 633 1
589 133 606 1
220 536 599 1
396 583 603 1
171 172 611 1
330 327 661 1
332 392 650 1
376 367 584 1
657 481 681 1
491 226 662 1
294 560 663 1
557 143 656 1
369 372 584 1
552 588 649 1
270 435 436 1
622 416 693 1
286 284 612 1
172 173 616 1
20 21 588 1
398 514 647 1
183 590 602 1
121 122 637 1
414 428 631 1
202 11 604 1
583 204 603 1
389 572 615 1
645 244 686 1
274 272 617 1
578 412 674 1
22 23 623 1
576 119 644 1
597 476 652 1
205 502 632 1
104 105 594 1
334 336 609 1
238 108 567 1
26 525 646 1
578 196 665 1
291 300 673 1
103 104 246 1
102 103 580 1
267 269 635 1
95 96 601 1
123 181 573 1
544 308 603 1
120 187 644 1
499 560 673 1
388 471 682 1
359 591 621 1
575 201 608 1
611 172 616 1
194 153 613 1
474 213 634 1
410 599 675 1
13 223 688 1
572 462 615 1
608 201 612 1
280 278 625 1
575 301 627 1
265 295 605 1
125 188 679 1
8 9 628 1
135 136 626 1
494 306 665 1
428 604 688 1
281 292 614 1
288 630 639 1
481 209 681 1
357 359 621 1
403 557 656 1
161 191 618 1
137 138 627 1
569 432 624 1
493 643 664 1
201 527 612 1
560 289 673 1
416 622 659 1
233 18 676 1
107 238 579 1
570 255 671 1
411 427 640 1
443 125 679 1
119 120 644 1
478 203 653 1
203 482 678 1
348 542 607 1
128 195 619 1
99 241 660 1
210 501 677 1
443 435 692 1
417 409 680 1
179 2 624 1
603 204 629 1
590 458 602 1
236 566 645 1
535 202 647 1
542 404 607 1
652 476 683 1
556 555 610 1
465 610 684 1
438 389 615 1
122 573 637 1
555 229 610 1
233 586 620 1
284 608 612 1
655 196 669 1
226 481 657 1
243 106 579 1
229 562 684 1
500 393 690 1
255 257 671 1
527 219 630 1
544 603 629 1
559 184 667 1
612 527 630 1
442 576 644 1
385 543 633 1
666 511 672 1
387 544 629 1
591 374 694 1
548 574 651 1
511 210 672 1
208 491 663 1
235 22 623 1
493 492 655 1
471 397 664 1
439 538 672 1
24 25 646 1
286 612 630 1
152 194 643 1
295 267 635 1
498 499 685 1
387 629 641 1
512 511 666 1
298 296 658 1
630 219 639 1
18 19 676 1
178 445 558 1
385 633 653 1
501 500 690 1
223 556 631 1
219 557 639 1
520 295 691 1
304 302 668 1
586 233 676 1
105 243 594 1
143 144 656 1
180 531 636 1
329 332 650 1
445 519 648 1
599 536 675 1
239 586 676 1
584 390 652 1
376 584 652 1
549 387 641 1
239 20 588 1
558 445 648 1
257 571 671 1
633 478 653 1
145 146 670 1
150 151 669 1
607 404 678 1
329 650 661 1
147 148 674 1
97 98 660 1
327 329 661 1
574 450 651 1
12 13 688 1
404 385 653 1
436 435 687 1
103 246 580 1
435 443 679 1
525 237 646 1
21 235 588 1
415 416 659 1
567 236 645 1
237 24 646 1
496 591 694 1
390 597 652 1
181 124 443 1
300 549 654 1
231 548 651 1
19 239 676 1
289 291 673 1
549 641 654 1
614 292 681 1
245 102 580 1
594 243 642 1
292 563 657 1
194 613 682 1
246 104 594 1
539 439 677 1
563 294 662 1
241 100 600 1
599 411 640 1
181 443 692 1
519 421 648 1
585 376 683 1
409 408 680 1
536 207 675 1
393 539 690 1
435 679 687 1
241 600 601 1
245 580 581 1
539 677 690 1
593 182 689 1
431 559 667 1
657 563 662 1
241 601 638 1
23 237 623 1
601 96 638 1
677 501 690 1
226 657 662 1
567 645 686 1
638 97 660 1
376 652 683 1
610 229 684 1
238 567 686 1
493 655 669 1
610 465 693 1
295 635 691 1
465 622 693 1
643 194 664 1
300 654 685 1
556 610 693 1
241 638 660 1
679 188 687 1
94 95 581 1
28 29 649 1
526 28 649 1
246 594 642 1

End
