MeshVersionFormatted 2
Dimension 3

Vertices
975
-3.1911653554272978e-01 -1.4390713826473181e-01 0.0000000000000000e+00 1
-3.1957466239139093e-01 -1.4903232066780692e-01 0.0000000000000000e+00 1
-3.1922795367220314e-01 -1.5334681719651042e-01 0.0000000000000000e+00 1
-3.1810746603595641e-01 -1.5688077224049962e-01 0.0000000000000000e+00 1
-3.1624425613344126e-01 -1.5966433018943180e-01 0.0000000000000000e+00 1
-3.1366938061544791e-01 -1.6172763543296437e-01 0.0000000000000000e+00 1
-3.1041389613276671e-01 -1.6310083236075465e-01 0.0000000000000000e+00 1
-3.0650885933618760e-01 -1.6381406536245993e-01 0.0000000000000000e+00 1
-3.0198532687650115e-01 -1.6389747882773753e-01 0.0000000000000000e+00 1
-2.9687435540449769e-01 -1.6338121714624496e-01 0.0000000000000000e+00 1
-2.9120700157096718e-01 -1.6229542470763922e-01 0.0000000000000000e+00 1
-2.8501432202669996e-01 -1.6067024590157788e-01 0.0000000000000000e+00 1
-2.7832737342248659e-01 -1.5853582511771827e-01 0.0000000000000000e+00 1
-2.7117721240911691e-01 -1.5592230674571755e-01 0.0000000000000000e+00 1
-2.6359489563738159e-01 -1.5285983517523327e-01 0.0000000000000000e+00 1
-2.5561147975807064e-01 -1.4937855479592255e-01 0.0000000000000000e+00 1
-2.4725802142197439e-01 -1.4550860999744286e-01 0.0000000000000000e+00 1
-2.3856557727988320e-01 -1.4128014516945156e-01 0.0000000000000000e+00 1
-2.2956520398258720e-01 -1.3672330470160585e-01 0.0000000000000000e+00 1
-2.2028795818087665e-01 -1.3186823298356309e-01 0.0000000000000000e+00 1
-2.1076489652554203e-01 -1.2674507440498073e-01 0.0000000000000000e+00 1
-2.0102707566737330e-01 -1.2138397335551591e-01 0.0000000000000000e+00 1
-1.9110555225716097e-01 -1.1581507422482606e-01 0.0000000000000000e+00 1
-1.8103138294569515e-01 -1.1006852140256855e-01 0.0000000000000000e+00 1
-1.7083562438376626e-01 -1.0417445927840070e-01 0.0000000000000000e+00 1
-1.6054933322216441e-01 -9.8163032241979753e-02 0.0000000000000000e+00 1
-1.5020356611167993e-01 -9.2064384682963102e-02 0.0000000000000000e+00 1
-1.3982937970310322e-01 -8.5908660991008107e-02 0.0000000000000000e+00 1
-1.2945783064722430e-01 -7.9726005555772028e-02 0.0000000000000000e+00 1
-1.1911997559483360e-01 -7.3546562766912210e-02 0.0000000000000000e+00 1
-1.0884687119672130e-01 -6.7400477014086024e-02 0.0000000000000000e+00 1
-9.8669574103677785e-02 -6.1317892686950801e-02 0.0000000000000000e+00 1
-8.8619140966493218e-02 -5.5328954175163793e-02 0.0000000000000000e+00 1
-7.8726628435957888e-02 -4.9463805868382400e-02 0.0000000000000000e+00 1
-6.9023093162862120e-02 -4.3752592156263967e-02 0.0000000000000000e+00 1
-5.9539591797996075e-02 -3.8225457428465753e-02 0.0000000000000000e+00 1
-5.0307180992150091e-02 -3.2912546074645124e-02 0.0000000000000000e+00 1
-4.1356917396114412e-02 -2.7844002484459420e-02 0.0000000000000000e+00 1
-3.2719857660679363e-02 -2.3049971047565985e-02 0.0000000000000000e+00 1
-2.4427058436635122e-02 -1.8560596153622096e-02 0.0000000000000000e+00 1
-1.6509576374771996e-02 -1.4406022192285118e-02 0.0000000000000000e+00 1
-8.9984681258802914e-03 -1.0616393553212393e-02 0.0000000000000000e+00 1
-1.9247903407501911e-03 -7.2218546260612113e-03 0.0000000000000000e+00 1
4.6804003298279821e-03 -4.2525498004889317e-03 0.0000000000000000e+00 1
1.0786047235063973e-02 -1.7386234661528771e-03 0.0000000000000000e+00 1
1.6361093724167487e-02 2.8977998728961290e-04 0.0000000000000000e+00 1
2.1604922162673658e-02 1.8783276399568700e-03 0.0000000000000000e+00 1
2.7364941311061347e-02 3.3176445212753309e-03 0.0000000000000000e+00 1
3.3610397616873414e-02 4.6194370034310919e-03 0.0000000000000000e+00 1
4.0310537527652734e-02 5.7954114586102482e-03 0.0000000000000000e+00 1
4.7434607490942152e-02 6.8572742589988935e-03 0.0000000000000000e+00 1
5.4951853954284591e-02 7.8167317767831295e-03 0.0000000000000000e+00 1
6.2831523365222852e-02 8.6854903841490447e-03 0.0000000000000000e+00 1
7.1042862171299820e-02 9.4752564532827339e-03 0.0000000000000000e+00 1
7.9555116820058377e-02 1.0197736356370299e-02 0.0000000000000000e+00 1
8.8337533759041381e-02 1.0864636465597832e-02 0.0000000000000000e+00 1
9.7359359435791715e-02 1.1487663153151429e-02 0.0000000000000000e+00 1
1.0658984029785223e-01 1.2078522791217185e-02 0.0000000000000000e+00 1
1.1599822279276582e-01 1.2648921751981197e-02 0.0000000000000000e+00 1
1.2555375336807528e-01 1.3210566407629559e-02 0.0000000000000000e+00 1
1.3522567847132355e-01 1.3775163130348361e-02 0.0000000000000000e+00 1
1.4498324455005346e-01 1.4354418292323709e-02 0.0000000000000000e+00 1
1.5479569805180793e-01 1.4960038265741696e-02 0.0000000000000000e+00 1
1.6463228542412972e-01 1.5603729422788409e-02 0.0000000000000000e+00 1
1.7446225311456182e-01 1.6297198135649952e-02 0.0000000000000000e+00 1
1.8425484757064703e-01 1.7052150776512419e-02 0.0000000000000000e+00 1
1.9397931523992823e-01 1.7880293717561904e-02 0.0000000000000000e+00 1
2.0360490256994823e-01 1.8793333330984503e-02 0.0000000000000000e+00 1
2.1310085600824999e-01 1.9802975988966309e-02 0.0000000000000000e+00 1
2.2243642200237634e-01 2.0920928063693427e-02 0.0000000000000000e+00 1
2.3158084699987014e-01 2.2158895927351940e-02 0.0000000000000000e+00 1
2.4050337744827432e-01 2.3528585952127954e-02 0.0000000000000000e+00 1
2.4917325979513155e-01 2.5041704510207551e-02 0.0000000000000000e+00 1
2.5755974048798491e-01 2.6709957973776840e-02 0.0000000000000000e+00 1
2.6563206597437727e-01 2.8545052715021915e-02 0.0000000000000000e+00 1
2.7335948270185129e-01 3.0558695106128856e-02 0.0000000000000000e+00 1
2.8071123711795010e-01 3.2762591519283783e-02 0.0000000000000000e+00 1
2.8765657567021630e-01 3.5168448326672777e-02 0.0000000000000000e+00 1
2.9416474480619298e-01 3.7787971900481943e-02 0.0000000000000000e+00 1
3.0020499097342285e-01 4.0632868612897353e-02 0.0000000000000000e+00 1
3.0574656061944888e-01 4.3714844836105111e-02 0.0000000000000000e+00 1
3.1075870019181395e-01 4.7045606942291346e-02 0.0000000000000000e+00 1
3.1521065613806082e-01 5.0636861303642110e-02 0.0000000000000000e+00 1
3.1907167490573241e-01 5.4500314292343505e-02 0.0000000000000000e+00 1
3.2231100294237169e-01 5.8647672280581660e-02 0.0000000000000000e+00 1
3.2489788669552133e-01 6.3090641640542636e-02 0.0000000000000000e+00 1
3.2680157261272424e-01 6.7840928744412554e-02 0.0000000000000000e+00 1
3.2799130714152347e-01 7.2910239964377496e-02 0.0000000000000000e+00 1
3.2833891732704279e-01 7.7850028755676315e-02 0.0000000000000000e+00 1
3.2779656645028393e-01 8.2427206941378825e-02 0.0000000000000000e+00 1
3.2640293076550586e-01 8.6651736416070019e-02 0.0000000000000000e+00 1
3.2419668652696737e-01 9.0533579074334805e-02 0.0000000000000000e+00 1
3.2121650998892731e-01 9.4082696810758162e-02 0.0000000000000000e+00 1
3.1750107740564482e-01 9.7309051519925083e-02 0.0000000000000000e+00 1
3.1308906503137857e-01 1.0022260509642054e-01 0.0000000000000000e+00 1
3.0801914912038758e-01 1.0283331943482953e-01 0.0000000000000000e+00 1
3.0233000592693049e-01 1.0515115642973691e-01 0.0000000000000000e+00 1
2.9606031170526642e-01 1.0718607797572768e-01 0.0000000000000000e+00 1
2.8924874270965434e-01 1.0894804596738687e-01 0.0000000000000000e+00 1
2.8193397519435287e-01 1.1044702229929940e-01 0.0000000000000000e+00 1
2.7415468541362115e-01 1.1169296886605028e-01 0.0000000000000000e+00 1
2.6594954962171780e-01 1.1269584756222437e-01 0.0000000000000000e+00 1
2.5735724407290206e-01 1.1346562028240677e-01 0.0000000000000000e+00 1
2.4841644502143262e-01 1.1401224892118238e-01 0.0000000000000000e+00 1
2.3916582872156833e-01 1.1434569537313614e-01 0.0000000000000000e+00 1
2.2964407142756821e-01 1.1447592153285309e-01 0.0000000000000000e+00 1
2.1988984939369088e-01 1.1441288929491805e-01 0.0000000000000000e+00 1
2.0994183887419568e-01 1.1416656055391619e-01 0.0000000000000000e+00 1
1.9983871612334114e-01 1.1374689720443235e-01 0.0000000000000000e+00 1
1.8961915739538626e-01 1.1316386114105152e-01 0.0000000000000000e+00 1
1.7932183894458992e-01 1.1242741425835863e-01 0.0000000000000000e+00 1
1.6898543702521107e-01 1.1154751845093872e-01 0.0000000000000000e+00 1
1.5864862789150858e-01 1.1053413561337670e-01 0.0000000000000000e+00 1
1.4835008779774125e-01 1.0939722764025755e-01 0.0000000000000000e+00 1
1.3812849299816810e-01 1.0814675642616627e-01 0.0000000000000000e+00 1
1.2802251974704792e-01 1.0679268386568776e-01 0.0000000000000000e+00 1
1.1807084429863966e-01 1.0534497185340705e-01 0.0000000000000000e+00 1
1.0831214290720223e-01 1.0381358228390906e-01 0.0000000000000000e+00 1
9.8785091826994451e-02 1.0220847705177878e-01 0.0000000000000000e+00 1
8.9528367312275231e-02 1.0053961805160118e-01 0.0000000000000000e+00 1
8.0580645617303479e-02 9.8816967177961193e-02 0.0000000000000000e+00 1
7.1980602996338114e-02 9.7050486325443816e-02 0.0000000000000000e+00 1
6.3766915703638016e-02 9.5250137388634012e-02 0.0000000000000000e+00 1
5.5978259993462023e-02 9.3425882262116747e-02 0.0000000000000000e+00 1
4.8653312120069070e-02 9.1587682840476983e-02 0.0000000000000000e+00 1
4.1830748337718035e-02 8.9745501018299673e-02 0.0000000000000000e+00 1
3.5549244900667812e-02 8.7909298690169793e-02 0.0000000000000000e+00 1
2.9847478063177325e-02 8.6089037750672323e-02 0.0000000000000000e+00 1
2.3377449393626730e-02 8.3890919127487501e-02 0.0000000000000000e+00 1
1.6581688953208919e-02 8.1521470632061388e-02 0.0000000000000000e+00 1
9.4792197992822833e-03 7.8984668537161434e-02 0.0000000000000000e+00 1
2.0890649892052159e-03 7.6284489115555049e-02 0.0000000000000000e+00 1
-5.5697524196638912e-03 7.3424908640009695e-02 0.0000000000000000e+00 1
-1.3478209369966652e-02 7.0409903383292824e-02 0.0000000000000000e+00 1
-2.1617282804344665e-02 6.7243449618171872e-02 0.0000000000000000e+00 1
-2.9967949665439562e-02 6.3929523617414233e-02 0.0000000000000000e+00 1
-3.8511186895892904e-02 6.0472101653787372e-02 0.0000000000000000e+00 1
-4.7227971438346353e-02 5.6875160000058773e-02 0.0000000000000000e+00 1
-5.6099280235441487e-02 5.3142674928995819e-02 0.0000000000000000e+00 1
-6.5106090229819932e-02 4.9278622713365972e-02 0.0000000000000000e+00 1
-7.4229378364123300e-02 4.5286979625936717e-02 0.0000000000000000e+00 1
-8.3450121580993117e-02 4.1171721939475416e-02 0.0000000000000000e+00 1
-9.2749296823071134e-02 3.6936825926749531e-02 0.0000000000000000e+00 1
-1.0210788103299887e-01 3.2586267860526548e-02 0.0000000000000000e+00 1
-1.1150685115341789e-01 2.8124024013573855e-02 0.0000000000000000e+00 1
-1.2092718412696991e-01 2.3554070658658912e-02 0.0000000000000000e+00 1
-1.3034985689629647e-01 1.8880384068549184e-02 0.0000000000000000e+00 1
-1.3975584640403921e-01 1.4106940516012065e-02 0.0000000000000000e+00 1
-1.4912612959283972e-01 9.2377162738150071e-03 0.0000000000000000e+00 1
-1.5844168340533960e-01 4.2766876147254836e-03 0.0000000000000000e+00 1
-1.6768348478418049e-01 -7.7216918848909766e-04 0.0000000000000000e+00 1
-1.7683251067200401e-01 -5.9048778630612971e-03 0.0000000000000000e+00 1
-1.8586973801145168e-01 -1.1117462136223643e-02 0.0000000000000000e+00 1
-1.9477614374516519e-01 -1.6405945735208736e-02 0.0000000000000000e+00 1
-2.0353270481578617e-01 -2.1766352387249121e-02 0.0000000000000000e+00 1
-2.1212039816595607e-01 -2.7194705819577322e-02 0.0000000000000000e+00 1
-2.2052020073831674e-01 -3.2687029759425945e-02 0.0000000000000000e+00 1
-2.2871308947550961e-01 -3.8239347934027564e-02 0.0000000000000000e+00 1
-2.3668004132017634e-01 -4.3847684070614665e-02 0.0000000000000000e+00 1
-2.4440203321495857e-01 -4.9508061896419889e-02 0.0000000000000000e+00 1
-2.5186004210249785e-01 -5.5216505138675750e-02 0.0000000000000000e+00 1
-2.5903504492543572e-01 -6.0969037524614800e-02 0.0000000000000000e+00 1
-2.6590801862641400e-01 -6.6761682781469628e-02 0.0000000000000000e+00 1
-2.7245994014807418e-01 -7.2590464636472798e-02 0.0000000000000000e+00 1
-2.7867178643305779e-01 -7.8451406816856806e-02 0.0000000000000000e+00 1
-2.8452453442400660e-01 -8.4340533049854310e-02 0.0000000000000000e+00 1
-2.8999916106356216e-01 -9.0253867062697807e-02 0.0000000000000000e+00 1
-2.9507664329436595e-01 -9.6187432582619845e-02 0.0000000000000000e+00 1
-2.9973795805905973e-01 -1.0213725333685303e-01 0.0000000000000000e+00 1
-3.0396408230028510e-01 -1.0809935305262990e-01 0.0000000000000000e+00 1
-3.0773599296068360e-01 -1.1406975545718299e-01 0.0000000000000000e+00 1
-3.1103466698289683e-01 -1.2004448427774492e-01 0.0000000000000000e+00 1
-3.1384108130956651e-01 -1.2601956324154820e-01 0.0000000000000000e+00 1
-3.1613621288333416e-01 -1.3199101607582539e-01 0.0000000000000000e+00 1
-3.1790103864684138e-01 -1.3795486650780908e-01 0.0000000000000000e+00 1
3.4720211942527494e-02 8.1474888825990105e-02 0.0000000000000000e+00 1
3.5801325326843547e-02 1.0694144132232276e-02 0.0000000000000000e+00 1
1.7474835069572727e-02 5.7677210080864169e-03 0.0000000000000000e+00 1
3.1722745569381272e-01 5.9824157764643747e-02 0.0000000000000000e+00 1
2.9087359978845950e-01 1.0244089084114384e-01 0.0000000000000000e+00 1
6.6025139393097038e-02 1.5834330385327881e-02 0.0000000000000000e+00 1
2.7580773413894000e-01 3.8857101014088694e-02 0.0000000000000000e+00 1
5.3599136147885806e-02 8.6650276059583767e-02 0.0000000000000000e+00 1
7.9102108594112347e-02 9.1710480178352261e-02 0.0000000000000000e+00 1
1.5226525779538008e-02 7.4365915822123221e-02 0.0000000000000000e+00 1
2.4354654115267424e-01 3.1686785119197577e-02 0.0000000000000000e+00 1
3.0037468797807682e-01 4.6850761494994043e-02 0.0000000000000000e+00 1
-1.0802425852334085e-03 -2.6929847974036658e-04 0.0000000000000000e+00 1
1.1014669303495199e-01 2.1481070787092861e-02 0.0000000000000000e+00 1
2.1680944454167325e-01 2.8371797366700490e-02 0.0000000000000000e+00 1
2.6109367758868340e-01 1.0437442699937172e-01 0.0000000000000000e+00 1
-7.3938696230434770e-03 6.4915484137733556e-02 0.0000000000000000e+00 1
1.8904803589971572e-01 2.6173743291907380e-02 0.0000000000000000e+00 1
1.3971692638503433e-01 2.2107632376844575e-02 0.0000000000000000e+00 1
3.1282569891648115e-01 9.4798378386499155e-02 0.0000000000000000e+00 1
2.3431717772069510e-01 1.0646838157189763e-01 0.0000000000000000e+00 1
1.5448094117518921e-01 1.0107413057413527e-01 0.0000000000000000e+00 1
1.1450316160292560e-01 9.6220740095635748e-02 0.0000000000000000e+00 1
2.0607503468159788e-01 1.0444423630541910e-01 0.0000000000000000e+00 1
-2.4055550494299433e-02 -9.9071443941998166e-03 0.0000000000000000e+00 1
-2.8184293787989634e-01 -9.2131437801479588e-02 0.0000000000000000e+00 1
-2.5757944744448075e-01 -7.0770124095850179e-02 0.0000000000000000e+00 1
-2.9628973730459313e-01 -1.0883251929056981e-01 0.0000000000000000e+00 1
-3.0092027936639253e-02 5.6551467499321134e-02 0.0000000000000000e+00 1
-2.2817520021045029e-01 -4.7503981504575687e-02 0.0000000000000000e+00 1
-2.0212033827173392e-01 -3.1770120111453165e-02 0.0000000000000000e+00 1
-7.5292889410628547e-02 3.5338697731614868e-02 0.0000000000000000e+00 1
-1.7685302716990256e-01 -1.6309667751708674e-02 0.0000000000000000e+00 1
-1.5015306041311732e-01 -5.0838695466249934e-05 0.0000000000000000e+00 1
-3.0734325626037468e-01 -1.2542489734514908e-01 0.0000000000000000e+00 1
-1.0288286264118776e-01 2.2873595300295511e-02 0.0000000000000000e+00 1
-2.3804362831006515e-01 -1.3161594324364323e-01 0.0000000000000000e+00 1
-2.0953856722291997e-01 -1.1551365828609145e-01 0.0000000000000000e+00 1
3.2406666680629270e-01 7.5788494817054547e-02 0.0000000000000000e+00 1
-5.9291167279290236e-02 -2.7719417317413481e-02 0.0000000000000000e+00 1
-2.6210859595333452e-01 -1.4453959538172864e-01 0.0000000000000000e+00 1
-3.0416966876634599e-01 -1.6047308128403900e-01 0.0000000000000000e+00 1
-9.8578386856451108e-02 -4.8492466845845267e-02 0.0000000000000000e+00 1
-1.8077945838555221e-01 -9.8352587714938530e-02 0.0000000000000000e+00 1
-1.2962430771771846e-01 -6.7710456825280235e-02 0.0000000000000000e+00 1
-2.8397750649669051e-01 -1.5320758254750561e-01 0.0000000000000000e+00 1
5.0382899612088472e-02 1.3685860118721511e-02 0.0000000000000000e+00 1
-3.1388546209273166e-01 -1.4115777319264916e-01 0.0000000000000000e+00 1
-4.1095926277596388e-02 -1.8136812642835062e-02 0.0000000000000000e+00 1
8.2893988482541231e-02 1.7220225047778901e-02 0.0000000000000000e+00 1
-7.8397309701800727e-02 -3.7930591385787166e-02 0.0000000000000000e+00 1
-4.8504481866480834e-02 4.7150235157807210e-02 0.0000000000000000e+00 1
-1.6068489617991188e-01 -8.6285212413722986e-02 0.0000000000000000e+00 1
9.4557662449372332e-02 9.2610736936255225e-02 0.0000000000000000e+00 1
1.5889638088290164e-01 2.3599248052788017e-02 0.0000000000000000e+00 1
1.3308980913767790e-01 9.8783118717731586e-02 0.0000000000000000e+00 1
-1.2134350554064025e-01 1.4286851970874358e-02 0.0000000000000000e+00 1
1.8451619556840104e-01 1.0365649544232837e-01 0.0000000000000000e+00 1
-2.4368131742260379e-01 -5.7930951569361677e-02 0.0000000000000000e+00 1
2.5995498224830782e-01 3.4139542049824334e-02 0.0000000000000000e+00 1
-2.7224068919026562e-01 -8.1035250583940510e-02 0.0000000000000000e+00 1
2.7771949363002030e-01 1.0421887870425552e-01 0.0000000000000000e+00 1
-3.1575487893266335e-01 -1.5419024277930438e-01 0.0000000000000000e+00 1
3.2197103812540495e-01 8.6655986628599829e-02 0.0000000000000000e+00 1
2.8812311741494528e-01 4.1356445853962615e-02 0.0000000000000000e+00 1
-2.9573108288556399e-01 -1.5874472876474782e-01 0.0000000000000000e+00 1
3.0370363397591560e-01 9.9226978669547633e-02 0.0000000000000000e+00 1
3.0994466285355732e-01 5.2609837758462993e-02 0.0000000000000000e+00 1
3.2179871633230439e-01 6.6767751620735338e-02 0.0000000000000000e+00 1
-3.1090137710006249e-01 -1.5950926390962814e-01 0.0000000000000000e+00 1
5.2754570638432457e-03 2.3061295228113446e-03 0.0000000000000000e+00 1
-3.2324436668897230e-04 6.5255091500872357e-03 0.0000000000000000e+00 1
-6.8268298099139644e-03 3.7144317604437724e-03 0.0000000000000000e+00 1
-5.8773342065987404e-03 1.0789915652229759e-02 0.0000000000000000e+00 1
4.9753903551414162e-04 1.3573940058228500e-02 0.0000000000000000e+00 1
-5.3006169772515264e-03 1.7937160078037178e-02 0.0000000000000000e+00 1
1.2433743136211618e-03 2.0775898695095576e-02 0.0000000000000000e+00 1
-1.1519030915894804e-02 1.4277448359111012e-02 0.0000000000000000e+00 1
-4.5114965087799178e-03 2.5072657927308579e-02 0.0000000000000000e+00 1
2.0991552468791722e-03 2.7919542475594531e-02 0.0000000000000000e+00 1
-3.6776598554747707e-03 3.2271370033499371e-02 0.0000000000000000e+00 1
2.9897108556054446e-03 3.5046120467424495e-02 0.0000000000000000e+00 1
8.6490398530069141e-03 3.0639407549758243e-02 0.0000000000000000e+00 1
9.5860880259077373e-03 3.7761194914557698e-02 0.0000000000000000e+00 1
1.5186012280205059e-02 3.3367743734839375e-02 0.0000000000000000e+00 1
1.6137908771212284e-02 4.0445748290550601e-02 0.0000000000000000e+00 1
2.1752006584120326e-02 3.6010444226974900e-02 0.0000000000000000e+00 1
2.2872093301406458e-02 4.3351785402264191e-02 0.0000000000000000e+00 1
2.8250363630084173e-02 3.8759840199040010e-02 0.0000000000000000e+00 1
2.9430065711152767e-02 4.6358438590836333e-02 0.0000000000000000e+00 1
3.4313555788666954e-02 4.1642976600320097e-02 0.0000000000000000e+00 1
3.5623980843084532e-02 4.8863682060204770e-02 0.0000000000000000e+00 1
4.1292142088562168e-02 4.3100277807183833e-02 0.0000000000000000e+00 1
4.2122967497026292e-02 5.1102256687231319e-02 0.0000000000000000e+00 1
4.8134937899634363e-02 4.6360131095494632e-02 0.0000000000000000e+00 1
4.8793972774275274e-02 5.3934237472084194e-02 0.0000000000000000e+00 1
5.4482756568111045e-02 4.9486187103735986e-02 0.0000000000000000e+00 1
5.5420678690857761e-02 5.7120799075707246e-02 0.0000000000000000e+00 1
6.1502657212537455e-02 5.2293735193646856e-02 0.0000000000000000e+00 1
6.2285308014225417e-02 6.0487513506631681e-02 0.0000000000000000e+00 1
6.8688992576348418e-02 5.5381285973395755e-02 0.0000000000000000e+00 1
6.7621449837770464e-02 4.7398302089000616e-02 0.0000000000000000e+00 1
7.5056031147075625e-02 5.0274060243060567e-02 0.0000000000000000e+00 1
7.6166915199952723e-02 5.8466806949740983e-02 0.0000000000000000e+00 1
8.2748996387797577e-02 5.3286115489607315e-02 0.0000000000000000e+00 1
3.6708638268671594e-02 5.5914979985558742e-02 0.0000000000000000e+00 1
-1.0414417922909180e-02 2.9384811128271952e-02 0.0000000000000000e+00 1
8.3868735869236932e-02 6.1561792565458281e-02 0.0000000000000000e+00 1
9.0663772503958587e-02 5.6371759959495144e-02 0.0000000000000000e+00 1
8.9426050985494360e-02 4.7896196677260167e-02 0.0000000000000000e+00 1
9.7517995829876081e-02 5.1018398786712070e-02 0.0000000000000000e+00 1
9.8751307131781305e-02 5.9720416064220405e-02 0.0000000000000000e+00 1
1.0579726257962259e-01 5.4255579428589024e-02 0.0000000000000000e+00 1
1.7688121889630936e-02 4.8130285071723705e-02 0.0000000000000000e+00 1
1.0714529597126039e-01 6.3183271021258425e-02 0.0000000000000000e+00 1
1.1439378297483313e-01 5.7510158377557956e-02 0.0000000000000000e+00 1
4.9638174972561816e-02 6.1937586213285455e-02 0.0000000000000000e+00 1
5.4422162042157302e-02 4.2025909734215293e-02 0.0000000000000000e+00 1
-9.6167759877773904e-03 3.6877703198514473e-02 0.0000000000000000e+00 1
-1.6749944672354616e-02 3.3757584124073182e-02 0.0000000000000000e+00 1
3.3742342776893128e-02 3.4571776893950169e-02 0.0000000000000000e+00 1
1.1568802169472103e-01 6.6770860649391708e-02 0.0000000000000000e+00 1
1.2311294802348496e-01 6.0995214628564616e-02 0.0000000000000000e+00 1
1.2173502576802883e-01 5.1616105337181251e-02 0.0000000000000000e+00 1
1.3058999541975358e-01 5.5109618660243366e-02 0.0000000000000000e+00 1
1.3197538012531190e-01 6.4584153895032137e-02 0.0000000000000000e+00 1
1.3955721379290570e-01 5.8629103869001060e-02 0.0000000000000000e+00 1
1.4096079236520853e-01 6.8217313663125223e-02 0.0000000000000000e+00 1
1.4861410007439238e-01 6.2179530124745717e-02 0.0000000000000000e+00 1
2.0640192996370918e-02 2.8733685956018221e-02 0.0000000000000000e+00 1
4.0722224876896876e-03 4.2312649218002561e-02 0.0000000000000000e+00 1
1.4698883367242477e-01 5.3117958473461728e-02 0.0000000000000000e+00 1
1.5629674918445205e-01 5.6226137638034447e-02 0.0000000000000000e+00 1
1.5774804346119317e-01 6.5826958396225488e-02 0.0000000000000000e+00 1
1.6548739806978888e-01 5.9689500210998503e-02 0.0000000000000000e+00 1
1.6692008649919879e-01 6.9444735371249705e-02 0.0000000000000000e+00 1
1.7468425503252075e-01 6.3284993507120454e-02 0.0000000000000000e+00 1
1.7587903830730189e-01 7.2766371671777463e-02 0.0000000000000000e+00 1
1.8378682323419465e-01 6.6847910720488249e-02 0.0000000000000000e+00 1
1.8243665504578455e-01 5.7167602265438856e-02 0.0000000000000000e+00 1
1.9152539726762763e-01 6.0796574299891458e-02 0.0000000000000000e+00 1
1.9294378220563610e-01 7.0455386899136538e-02 0.0000000000000000e+00 1
2.0062740534032703e-01 6.4435447367921644e-02 0.0000000000000000e+00 1
2.0221335339095470e-01 7.3507017507109418e-02 0.0000000000000000e+00 1
2.0966155467627801e-01 6.7951317933561531e-02 0.0000000000000000e+00 1
2.1102101826330999e-01 7.7496738612263291e-02 0.0000000000000000e+00 1
2.1848774458983558e-01 7.1425629732789514e-02 0.0000000000000000e+00 1
2.1712749093276074e-01 6.2153710364172061e-02 0.0000000000000000e+00 1
2.2578283899365076e-01 6.5672187349582523e-02 0.0000000000000000e+00 1
2.2719433122110683e-01 7.4766086615188646e-02 0.0000000000000000e+00 1
2.3435412254667709e-01 6.9099434502551169e-02 0.0000000000000000e+00 1
2.3569556695492611e-01 7.8051587016167392e-02 0.0000000000000000e+00 1
2.4270977785261327e-01 7.2382563140518871e-02 0.0000000000000000e+00 1
2.4139813830364770e-01 6.3639418159764607e-02 0.0000000000000000e+00 1
2.4953983684746778e-01 6.6978836601643069e-02 0.0000000000000000e+00 1
2.5081790252536101e-01 7.5464586874194994e-02 0.0000000000000000e+00 1
2.5750101643333023e-01 7.0184662825024210e-02 0.0000000000000000e+00 1
2.5872684200273732e-01 7.8427293287459926e-02 0.0000000000000000e+00 1
2.6517483205303483e-01 7.3201710615948004e-02 0.0000000000000000e+00 1
2.6398667214802302e-01 6.5217062783576307e-02 0.0000000000000000e+00 1
2.7144713710919094e-01 6.8205829261776943e-02 0.0000000000000000e+00 1
2.7254930368910968e-01 7.5952136022566716e-02 0.0000000000000000e+00 1
2.7859511498808298e-01 7.1141618440010157e-02 0.0000000000000000e+00 1
2.7966134834584849e-01 7.8574051494160149e-02 0.0000000000000000e+00 1
2.8540789929700244e-01 7.3912439180774531e-02 0.0000000000000000e+00 1
2.8438331888918111e-01 6.6163899244784621e-02 0.0000000000000000e+00 1
2.9091194856076819e-01 6.9162391541164631e-02 0.0000000000000000e+00 1
2.9189952260733670e-01 7.6264911752871561e-02 0.0000000000000000e+00 1
2.9713879273484933e-01 7.2147696375773007e-02 0.0000000000000000e+00 1
2.9815418654501347e-01 7.8513166870995132e-02 0.0000000000000000e+00 1
2.2444634014271184e-01 5.6582581577996248e-02 0.0000000000000000e+00 1
3.0307004095975409e-01 7.4683853633761302e-02 0.0000000000000000e+00 1
1.9928580030800164e-01 5.4944394049445351e-02 0.0000000000000000e+00 1
2.5212569448535482e-01 8.3895030691757300e-02 0.0000000000000000e+00 1
2.4832030727806409e-01 5.8532524214339382e-02 0.0000000000000000e+00 1
7.3861491811085062e-02 4.2268342291398753e-02 0.0000000000000000e+00 1
2.7372423462722867e-01 8.3548122271663819e-02 0.0000000000000000e+00 1
2.7037272667824253e-01 6.0378012643772370e-02 0.0000000000000000e+00 1
2.9317977554810126e-01 8.2793041815816051e-02 0.0000000000000000e+00 1
2.9659563637803266e-01 6.5015642227189571e-02 0.0000000000000000e+00 1
7.7147081581825372e-02 6.6709506366810736e-02 0.0000000000000000e+00 1
8.4945833413070618e-02 6.9978726223079477e-02 0.0000000000000000e+00 1
9.6229623330274100e-02 4.2347110337716792e-02 0.0000000000000000e+00 1
1.6403435134984734e-01 4.9987551675476617e-02 0.0000000000000000e+00 1
3.0404215491824976e-01 8.0667853513080659e-02 0.0000000000000000e+00 1
2.2861282262906857e-01 8.3824340670512906e-02 0.0000000000000000e+00 1
3.0876204444290312e-01 7.6944347501637131e-02 0.0000000000000000e+00 1
3.0790160753866114e-01 7.1095623519003573e-02 0.0000000000000000e+00 1
6.7525847279083897e-03 1.6801884772957316e-02 0.0000000000000000e+00 1
1.0834158646704607e-01 7.2151295856185640e-02 0.0000000000000000e+00 1
1.2915338313975017e-01 4.5674021279396813e-02 0.0000000000000000e+00 1
1.5891277585875563e-01 7.5209189082510564e-02 0.0000000000000000e+00 1
1.3332580168999181e-01 7.4120832222337493e-02 0.0000000000000000e+00 1
1.9590587729891129e-01 7.9007558072909281e-02 0.0000000000000000e+00 1
-1.5800517622391284e-02 4.1633622919487460e-02 0.0000000000000000e+00 1
-2.3221905797024940e-02 3.8573298663654436e-02 0.0000000000000000e+00 1
-2.4133418181722883e-02 3.0336487644106836e-02 0.0000000000000000e+00 1
1.2026143227739561e-01 4.2373569001247752e-02 0.0000000000000000e+00 1
-3.0889832014375375e-02 3.5354253307779700e-02 0.0000000000000000e+00 1
-3.1806999546280745e-02 2.6757943471569050e-02 0.0000000000000000e+00 1
-3.8887168479159746e-02 3.1921136414213319e-02 0.0000000000000000e+00 1
-3.9827199187100461e-02 2.3090244944033642e-02 0.0000000000000000e+00 1
-3.2671956602893133e-02 1.8187136536893331e-02 0.0000000000000000e+00 1
-4.0647169105887802e-02 1.4167722770451486e-02 0.0000000000000000e+00 1
-4.8190404327486711e-02 1.9386747098753789e-02 0.0000000000000000e+00 1
-4.9077392168767553e-02 1.0045139971338603e-02 0.0000000000000000e+00 1
-5.6796533957873457e-02 1.5530978152988394e-02 0.0000000000000000e+00 1
-5.7717344530795828e-02 5.9020350934844449e-03 0.0000000000000000e+00 1
-6.5688600333372857e-02 1.1535917608349520e-02 0.0000000000000000e+00 1
-6.6476231750484185e-02 1.3056247818058456e-03 0.0000000000000000e+00 1
-7.4775160425896020e-02 7.2186964929046686e-03 0.0000000000000000e+00 1
-7.5578781430665862e-02 -3.1436112075187840e-03 0.0000000000000000e+00 1
-8.4027995846034223e-02 2.8215063647626954e-03 0.0000000000000000e+00 1
-8.4902056187196664e-02 -7.6082711307253132e-03 0.0000000000000000e+00 1
-9.3505568551647350e-02 -1.5473572913546326e-03 0.0000000000000000e+00 1
-9.4401682207630677e-02 -1.2135601262060468e-02 0.0000000000000000e+00 1
-1.0328543928227710e-01 -5.6512661609822218e-03 0.0000000000000000e+00 1
-1.0388953841879300e-01 -1.5880454393566720e-02 0.0000000000000000e+00 1
-1.1306881573710635e-01 -1.0080468579372113e-02 0.0000000000000000e+00 1
-1.1331843487904644e-01 -2.1203777969154649e-02 0.0000000000000000e+00 1
-1.2295080422022371e-01 -1.4644270826638779e-02 0.0000000000000000e+00 1
-1.2405416273047354e-01 -2.5051087139386346e-02 0.0000000000000000e+00 1
-4.0135957953803605e-02 5.6762149271223465e-03 0.0000000000000000e+00 1
-1.3295466226567293e-01 -1.9202154636828787e-02 0.0000000000000000e+00 1
-1.3389409612537367e-01 -3.0149598320065613e-02 0.0000000000000000e+00 1
-1.4293169694386432e-01 -2.3918873671294659e-02 0.0000000000000000e+00 1
-1.4386994334382980e-01 -3.4915669584708320e-02 0.0000000000000000e+00 1
-1.2442603855191303e-01 -3.6349062094102921e-02 0.0000000000000000e+00 1
-1.5288509369018938e-01 -2.8579900332271216e-02 0.0000000000000000e+00 1
-1.5387692326203539e-01 -3.9607918307963542e-02 0.0000000000000000e+00 1
-5.5870144073500501e-02 2.5027625325176311e-02 0.0000000000000000e+00 1
-5.6727976644611683e-02 -5.5447656276079111e-03 0.0000000000000000e+00 1
3.0960295861439152e-01 8.2773000862878823e-02 0.0000000000000000e+00 1
-8.4057193702845256e-02 1.2158158019488073e-02 0.0000000000000000e+00 1
-1.4537383005351318e-01 -4.5655413291909197e-02 0.0000000000000000e+00 1
-1.5514968047552541e-01 -5.0362248572719155e-02 0.0000000000000000e+00 1
-1.6404885122160059e-01 -4.4277135938563118e-02 0.0000000000000000e+00 1
-1.6514567676307690e-01 -5.5205453330375166e-02 0.0000000000000000e+00 1
-1.7414001922578418e-01 -4.8959088294360353e-02 0.0000000000000000e+00 1
-1.7520895371889911e-01 -5.9817996783735110e-02 0.0000000000000000e+00 1
-1.8412217605498213e-01 -5.3600057227658530e-02 0.0000000000000000e+00 1
-1.8513825247065047e-01 -6.4479317866929661e-02 0.0000000000000000e+00 1
-1.9396955761892046e-01 -5.8226887762363816e-02 0.0000000000000000e+00 1
-1.9499885522221411e-01 -6.8957404579188086e-02 0.0000000000000000e+00 1
-2.0371709145746356e-01 -6.2820055389434942e-02 0.0000000000000000e+00 1
-2.0472442439385599e-01 -7.3348617675512193e-02 0.0000000000000000e+00 1
-2.1327009831753654e-01 -6.7237445635987880e-02 0.0000000000000000e+00 1
-2.1427896288298326e-01 -7.7672583286821778e-02 0.0000000000000000e+00 1
-2.0574647423112849e-01 -8.3826691473761469e-02 0.0000000000000000e+00 1
-2.1531834581451914e-01 -8.8123391166979093e-02 0.0000000000000000e+00 1
-2.2367658331127976e-01 -8.2043338666845336e-02 0.0000000000000000e+00 1
-2.2476342051154258e-01 -9.2209904262447281e-02 0.0000000000000000e+00 1
-2.3289844575972654e-01 -8.6347442466278304e-02 0.0000000000000000e+00 1
-2.3399704942914534e-01 -9.6166071634122469e-02 0.0000000000000000e+00 1
-2.4195946028144522e-01 -9.0455191080147213e-02 0.0000000000000000e+00 1
-2.4300329715809879e-01 -1.0014090371192176e-01 0.0000000000000000e+00 1
-2.3515972996582760e-01 -1.0584600591377373e-01 0.0000000000000000e+00 1
-2.4400878832783479e-01 -1.0965085276560423e-01 0.0000000000000000e+00 1
-2.5167608927573804e-01 -1.0401536016701481e-01 0.0000000000000000e+00 1
-2.5260894197516326e-01 -1.1329136335072511e-01 0.0000000000000000e+00 1
-2.5996255986572547e-01 -1.0779795596033927e-01 0.0000000000000000e+00 1
-2.6096210364030359e-01 -1.1666393035448923e-01 0.0000000000000000e+00 1
-2.6798025532103842e-01 -1.1147588178405753e-01 0.0000000000000000e+00 1
-2.6904764885109500e-01 -1.1982593695379895e-01 0.0000000000000000e+00 1
-2.7569373905098088e-01 -1.1495185462416442e-01 0.0000000000000000e+00 1
-2.7672729630145737e-01 -1.2290615847096875e-01 0.0000000000000000e+00 1
-2.5917825506845638e-01 -9.8847487688650773e-02 0.0000000000000000e+00 1
-2.6227351864041398e-01 -1.2475557605715516e-01 0.0000000000000000e+00 1
-1.5734439905978057e-01 -6.1867196511488136e-02 0.0000000000000000e+00 1
-1.8307862071927933e-01 -4.2773460297401651e-02 0.0000000000000000e+00 1
-2.8308061196452050e-01 -1.1811075331309855e-01 0.0000000000000000e+00 1
-2.8397277461454878e-01 -1.2589585258952976e-01 0.0000000000000000e+00 1
-2.7785657710842748e-01 -1.3063434974040825e-01 0.0000000000000000e+00 1
-2.8500070930890464e-01 -1.3337788314420759e-01 0.0000000000000000e+00 1
-2.7907593236424877e-01 -1.3811563339522268e-01 0.0000000000000000e+00 1
-2.9081049747136167e-01 -1.2886582889944539e-01 0.0000000000000000e+00 1
-2.9180620496906490e-01 -1.3596487156086015e-01 0.0000000000000000e+00 1
-2.8223393064360341e-01 -1.1029613965720819e-01 0.0000000000000000e+00 1
2.8097343122708179e-01 8.6033038452199825e-02 0.0000000000000000e+00 1
-2.4092283692787125e-01 -8.0761089180395595e-02 0.0000000000000000e+00 1
-7.6315873067184764e-02 -1.4961179782881730e-02 0.0000000000000000e+00 1
2.5999805128577186e-01 8.6566943732249740e-02 0.0000000000000000e+00 1
-2.0683572036392089e-01 -9.4307245049974370e-02 0.0000000000000000e+00 1
3.0506918723853615e-01 8.6492592207852798e-02 0.0000000000000000e+00 1
2.6287739375518793e-01 5.7261842428370097e-02 0.0000000000000000e+00 1
-9.5301503530793655e-02 -2.3239295595559428e-02 0.0000000000000000e+00 1
2.3707696772440667e-01 8.6927117260122866e-02 0.0000000000000000e+00 1
-2.4993872762256253e-01 -8.5276904141992391e-02 0.0000000000000000e+00 1
2.4013847569851765e-01 5.4969012406085767e-02 0.0000000000000000e+00 1
2.4714530783733502e-01 4.9874576174308759e-02 0.0000000000000000e+00 1
2.1581746247109551e-01 5.2946377106994520e-02 0.0000000000000000e+00 1
2.2315774358033513e-01 4.7345913418941371e-02 0.0000000000000000e+00 1
-1.8675271994549827e-01 -7.4478953865244585e-02 0.0000000000000000e+00 1
2.5364247670078138e-01 9.2067048929472969e-02 0.0000000000000000e+00 1
8.8188461256492323e-02 3.9533352416209436e-02 0.0000000000000000e+00 1
9.4961582750265242e-02 3.3736130033314972e-02 0.0000000000000000e+00 1
1.4237016628059485e-01 7.7904952978942940e-02 0.0000000000000000e+00 1
1.1694893073853015e-01 7.6051154853339464e-02 0.0000000000000000e+00 1
2.3914557319600444e-01 4.6385939210095199e-02 0.0000000000000000e+00 1
6.6574086280663192e-02 3.9784354102092336e-02 0.0000000000000000e+00 1
7.2666901760882668e-02 3.4332976633067495e-02 0.0000000000000000e+00 1
6.5441001124741188e-02 3.0540126781333391e-02 0.0000000000000000e+00 1
2.6936181761144984e-01 5.2329689899631472e-02 0.0000000000000000e+00 1
2.7649648656988335e-01 5.5545990974033510e-02 0.0000000000000000e+00 1
1.0310660487265333e-01 3.6764421346001282e-02 0.0000000000000000e+00 1
-8.4734823238768811e-03 4.4648489710421270e-02 0.0000000000000000e+00 1
-1.4783133964657894e-02 4.9522298152219264e-02 0.0000000000000000e+00 1
-2.0282517188196672e-01 -5.2279847627846730e-02 0.0000000000000000e+00 1
2.6206600443050565e-01 4.9518031460447802e-02 0.0000000000000000e+00 1
3.1326382562025601e-01 7.3422010542751895e-02 0.0000000000000000e+00 1
1.2763608740929638e-01 3.6281729228932448e-02 0.0000000000000000e+00 1
1.3802616603422266e-01 3.9810895286993324e-02 0.0000000000000000e+00 1
-1.3175726350757158e-01 -8.8475783566438308e-03 0.0000000000000000e+00 1
2.7566741198291839e-01 9.1148126882118749e-02 0.0000000000000000e+00 1
7.8069613265303511e-02 7.4991084672597463e-02 0.0000000000000000e+00 1
7.0421988123247445e-02 7.1816988937534021e-02 0.0000000000000000e+00 1
8.5959221304926475e-02 7.8424494255891111e-02 0.0000000000000000e+00 1
2.1450228517433184e-01 4.3717645575784565e-02 0.0000000000000000e+00 1
-2.9721109171702731e-01 -1.3191220522257976e-01 0.0000000000000000e+00 1
-2.9824761462732979e-01 -1.3861452934088012e-01 0.0000000000000000e+00 1
-2.9298162824140284e-01 -1.4267122414328431e-01 0.0000000000000000e+00 1
-2.9897413019411445e-01 -1.4516302728994809e-01 0.0000000000000000e+00 1
-2.9654505143908305e-01 -1.2489330307008438e-01 0.0000000000000000e+00 1
2.8252670192770712e-01 9.3294158668655897e-02 0.0000000000000000e+00 1
3.1253182564040849e-01 6.7935978990009624e-02 0.0000000000000000e+00 1
3.0736590348691462e-01 6.5173007463448410e-02 0.0000000000000000e+00 1
-3.0329010381263133e-01 -1.3502772016468029e-01 0.0000000000000000e+00 1
-2.3637948098616801e-01 -1.1519501954489784e-01 0.0000000000000000e+00 1
1.0937562995491942e-01 8.1145720191032375e-02 0.0000000000000000e+00 1
-2.7069686567487700e-01 -1.3511116780824126e-01 0.0000000000000000e+00 1
9.2933636271928882e-02 7.3378120125079146e-02 0.0000000000000000e+00 1
-2.2725421395675421e-01 -1.1221787988517477e-01 0.0000000000000000e+00 1
-1.0239642157537883e-01 4.3583920808572367e-03 0.0000000000000000e+00 1
-1.9737356453757582e-01 -8.9184571510203647e-02 0.0000000000000000e+00 1
-7.2671811837366328e-03 5.2101928113303324e-02 0.0000000000000000e+00 1
7.1001211907913336e-02 8.0186267401877495e-02 0.0000000000000000e+00 1
6.3889696322457473e-02 7.6614326090267942e-02 0.0000000000000000e+00 1
2.2979556517455135e-01 9.2602036037033528e-02 0.0000000000000000e+00 1
2.2077493225509162e-01 8.9732530405474631e-02 0.0000000000000000e+00 1
2.2250453006844731e-01 9.8393145184553679e-02 0.0000000000000000e+00 1
-1.5220847734759485e-01 -1.8072058356560866e-02 0.0000000000000000e+00 1
-2.9417846816622578e-01 -1.4894576477194163e-01 0.0000000000000000e+00 1
-2.9997523517840780e-01 -1.5091727664806295e-01 0.0000000000000000e+00 1
-3.0448832424438532e-01 -1.4756671223922033e-01 0.0000000000000000e+00 1
1.1847063612900056e-01 3.3819099068151746e-02 0.0000000000000000e+00 1
7.2469970812292700e-02 2.6090853697232637e-02 0.0000000000000000e+00 1
7.9091342447799987e-02 2.9352408823745572e-02 0.0000000000000000e+00 1
-1.6163933192191390e-01 -2.2872169132550416e-02 0.0000000000000000e+00 1
1.3480032402492595e-01 8.3267684769099237e-02 0.0000000000000000e+00 1
1.4380532770392032e-01 8.7682749505709229e-02 0.0000000000000000e+00 1
-1.9823489221547494e-01 -9.9397641760647720e-02 0.0000000000000000e+00 1
-2.7328073390648988e-01 -1.4317474286020201e-01 0.0000000000000000e+00 1
1.2433559506652056e-01 2.7912943715787040e-02 0.0000000000000000e+00 1
-3.0529835549888090e-01 -1.5326512923244678e-01 0.0000000000000000e+00 1
-3.0955489826920246e-01 -1.4960438777319704e-01 0.0000000000000000e+00 1
-3.7797881714942874e-02 4.0709305563718122e-02 0.0000000000000000e+00 1
-1.3698759803727704e-02 5.7447793751073783e-02 0.0000000000000000e+00 1
2.1322355184961339e-01 9.6254986582254912e-02 0.0000000000000000e+00 1
2.7558103865193317e-01 4.7859359641077223e-02 0.0000000000000000e+00 1
2.8247017775083344e-01 5.0964999698514819e-02 0.0000000000000000e+00 1
-2.8792448708113028e-01 -1.4712178808146956e-01 0.0000000000000000e+00 1
2.6066514198559398e-01 9.5070708142643442e-02 0.0000000000000000e+00 1
6.4771344966975342e-02 8.4846641950345053e-02 0.0000000000000000e+00 1
1.0176398845420252e-01 2.7984109847887333e-02 0.0000000000000000e+00 1
9.3484702864880059e-02 2.5131014418121263e-02 0.0000000000000000e+00 1
9.4132368916532483e-02 8.2037056506390135e-02 0.0000000000000000e+00 1
-2.2847207282508847e-01 -1.2147935026120998e-01 0.0000000000000000e+00 1
2.3821837763106618e-01 9.7192013257570362e-02 0.0000000000000000e+00 1
3.1073075929679422e-01 8.8599005572831832e-02 0.0000000000000000e+00 1
3.1459927252861331e-01 8.4863220020500882e-02 0.0000000000000000e+00 1
3.0599062501215690e-01 9.3207235691438531e-02 0.0000000000000000e+00 1
3.0101500407003362e-01 8.9707178952529137e-02 0.0000000000000000e+00 1
1.1831437648513694e-01 8.6985699507457992e-02 0.0000000000000000e+00 1
-4.6249688746060669e-02 3.7139769206138817e-02 0.0000000000000000e+00 1
-5.5168197404145899e-02 3.9432701887970149e-02 0.0000000000000000e+00 1
2.8338105317167234e-01 5.8440119461006058e-02 0.0000000000000000e+00 1
2.8922993704591798e-01 5.4167630159109734e-02 0.0000000000000000e+00 1
2.2153996268634601e-01 3.6681720378615799e-02 0.0000000000000000e+00 1
2.9009761077148544e-01 6.1389484071586120e-02 0.0000000000000000e+00 1
2.9661738090678019e-01 5.8584560261501745e-02 0.0000000000000000e+00 1
-1.6095724626212618e-01 -1.3985489023954195e-02 0.0000000000000000e+00 1
2.8770358634452675e-01 8.7982344784149832e-02 0.0000000000000000e+00 1
-2.8949678051575117e-01 -1.1352298922556195e-01 0.0000000000000000e+00 1
-2.8846082279378538e-01 -1.0580556236744811e-01 0.0000000000000000e+00 1
-2.8152591853572517e-01 -1.0172020603812061e-01 0.0000000000000000e+00 1
-2.9607986769442940e-01 -1.1710851411124686e-01 0.0000000000000000e+00 1
2.9355200795971328e-02 9.1986735422754824e-03 0.0000000000000000e+00 1
3.1354632874247418e-02 1.5349197125350274e-02 0.0000000000000000e+00 1
3.7701664731179925e-02 1.7069920960419704e-02 0.0000000000000000e+00 1
2.4354931766439998e-02 1.3447914114713156e-02 0.0000000000000000e+00 1
3.2702470311118455e-02 2.1249030605717298e-02 0.0000000000000000e+00 1
3.9408160071254250e-02 2.3547889317293517e-02 0.0000000000000000e+00 1
-3.0386108364227055e-01 -1.4151818678401007e-01 0.0000000000000000e+00 1
-2.2019767249461548e-02 5.3412292458174415e-02 0.0000000000000000e+00 1
6.3069382556909206e-02 6.8690257619606260e-02 0.0000000000000000e+00 1
5.6955002059217059e-02 7.2879426060069780e-02 0.0000000000000000e+00 1
8.6997854824129639e-02 8.7354289993046494e-02 0.0000000000000000e+00 1
-2.4931346132814081e-01 -7.5765001983738242e-02 0.0000000000000000e+00 1
-2.4004729319086304e-01 -7.1453827164683251e-02 0.0000000000000000e+00 1
4.4510879899395152e-02 1.8756770315243972e-02 0.0000000000000000e+00 1
4.6148723713706388e-02 2.5532316184156384e-02 0.0000000000000000e+00 1
4.0345103939980809e-02 3.1296513012808974e-02 0.0000000000000000e+00 1
4.7891387294704213e-02 3.2412867051104695e-02 0.0000000000000000e+00 1
5.2569000797255003e-02 2.7364830411041898e-02 0.0000000000000000e+00 1
-2.8126924761492816e-01 -1.4562586904625299e-01 0.0000000000000000e+00 1
2.7744597290104217e-01 6.3312578337563929e-02 0.0000000000000000e+00 1
1.1669277182753270e-02 4.2821742297421035e-03 0.0000000000000000e+00 1
1.4059123300609596e-02 9.8350335089510826e-03 0.0000000000000000e+00 1
7.0499287288203934e-03 9.7069188517413356e-03 0.0000000000000000e+00 1
2.4701839083094207e-01 4.0206262707617402e-02 0.0000000000000000e+00 1
2.5462967713889079e-01 4.5617910627478823e-02 0.0000000000000000e+00 1
2.3051195701417698e-01 4.2050365674858876e-02 0.0000000000000000e+00 1
2.2960372197748219e-01 3.2533541554329533e-02 0.0000000000000000e+00 1
-3.1080122533531018e-01 -1.5454670024708395e-01 0.0000000000000000e+00 1
-1.6239590804523779e-02 -6.1703756402620670e-03 0.0000000000000000e+00 1
-2.3535885132628269e-02 -1.5917612530535138e-03 0.0000000000000000e+00 1
-3.1464430346309254e-02 -5.5660005604157179e-03 0.0000000000000000e+00 1
-1.5111541411945284e-02 2.4259883281873627e-03 0.0000000000000000e+00 1
-2.3855273404730145e-02 6.2796580688297332e-03 0.0000000000000000e+00 1
3.1397843901954386e-01 7.9145652310706263e-02 0.0000000000000000e+00 1
3.1915699966000022e-01 8.1365454000109444e-02 0.0000000000000000e+00 1
2.3201773247128445e-02 7.3200519752803167e-03 0.0000000000000000e+00 1
2.9536769573809674e-01 5.1518593550910236e-02 0.0000000000000000e+00 1
3.0255247274917202e-01 5.3836849944698575e-02 0.0000000000000000e+00 1
3.0236830027159584e-01 6.1096024373354804e-02 0.0000000000000000e+00 1
5.7557546686554356e-02 1.5969666333484785e-02 0.0000000000000000e+00 1
6.1633526524268407e-02 2.2389750986977184e-02 0.0000000000000000e+00 1
-3.0874164626294881e-01 -1.3827458517065344e-01 0.0000000000000000e+00 1
2.1607465967265299e-01 1.0582798439601122e-01 0.0000000000000000e+00 1
2.0348759747612311e-01 9.4699560898007462e-02 0.0000000000000000e+00 1
1.9581997745584451e-01 1.0155223840359322e-01 0.0000000000000000e+00 1
1.8780455591047965e-01 9.4492856331802613e-02 0.0000000000000000e+00 1
1.7851508753693243e-01 9.6038106656427938e-02 0.0000000000000000e+00 1
1.8162258600146078e-01 8.7202752628571342e-02 0.0000000000000000e+00 1
1.7224963388158243e-01 8.8539712962490830e-02 0.0000000000000000e+00 1
1.7009327121616213e-01 9.6511382537295631e-02 0.0000000000000000e+00 1
1.6275373403704654e-01 9.1841355488409923e-02 0.0000000000000000e+00 1
-3.7077282715473912e-02 5.0756287907697949e-02 0.0000000000000000e+00 1
3.1848553325109946e-01 7.5505880936359460e-02 0.0000000000000000e+00 1
7.3937161417636454e-02 1.7641681728488595e-02 0.0000000000000000e+00 1
7.6655496866687512e-03 2.3567108846803249e-02 0.0000000000000000e+00 1
1.2943685356738288e-02 1.9636948422912737e-02 0.0000000000000000e+00 1
1.4116634395687128e-02 2.6123168798890543e-02 0.0000000000000000e+00 1
1.9025475720446369e-02 2.1970787200206222e-02 0.0000000000000000e+00 1
2.5884031210491862e-02 2.4319260162061603e-02 0.0000000000000000e+00 1
1.7932365398546167e-02 1.5270514178869378e-02 0.0000000000000000e+00 1
-2.6711722023853457e-01 -1.0276732470198847e-01 0.0000000000000000e+00 1
-2.6644060675882941e-01 -9.4119136824880420e-02 0.0000000000000000e+00 1
-2.5837379541928240e-01 -8.9976943257462486e-02 0.0000000000000000e+00 1
-2.7427541044282849e-01 -9.7713247059768943e-02 0.0000000000000000e+00 1
-2.7308657130452990e-01 -8.9333733841551591e-02 0.0000000000000000e+00 1
2.2061861189819051e-02 7.6766201936968134e-02 0.0000000000000000e+00 1
2.0941151487044847e-02 6.9798103885576834e-02 0.0000000000000000e+00 1
1.4213815900928822e-02 6.7149613817407458e-02 0.0000000000000000e+00 1
1.9986264933382847e-02 6.2771099426900581e-02 0.0000000000000000e+00 1
2.6552018009662323e-02 6.5492740871343075e-02 0.0000000000000000e+00 1
1.3357253101553697e-02 5.9968715137275065e-02 0.0000000000000000e+00 1
7.4727194086848135e-03 6.4336134637625372e-02 0.0000000000000000e+00 1
6.6487477956096407e-03 5.7084541015605610e-02 0.0000000000000000e+00 1
2.5521506014609185e-02 5.8577408536382852e-02 0.0000000000000000e+00 1
3.1751422251817728e-02 6.1143851689423594e-02 0.0000000000000000e+00 1
3.2921514565929247e-02 6.8106516796464012e-02 0.0000000000000000e+00 1
3.8138866156704421e-02 6.3694448122257871e-02 0.0000000000000000e+00 1
3.9191865774578394e-02 7.0694899283118770e-02 0.0000000000000000e+00 1
3.3873624135389087e-02 7.4756359230623751e-02 0.0000000000000000e+00 1
3.9939205062113382e-02 7.7381180330951108e-02 0.0000000000000000e+00 1
4.5353651990113868e-02 7.3397114893303320e-02 0.0000000000000000e+00 1
4.5884568028808373e-02 7.9832046770106954e-02 0.0000000000000000e+00 1
2.8578771179612369e-02 7.9191463695324163e-02 0.0000000000000000e+00 1
5.2383239555070754e-04 6.1436558311251423e-02 0.0000000000000000e+00 1
4.3337204251453848e-02 5.8879176790481574e-02 0.0000000000000000e+00 1
5.3823558860778081e-02 3.4518772116637127e-02 0.0000000000000000e+00 1
3.1233697071424243e-01 6.2111331964034622e-02 0.0000000000000000e+00 1
3.1568305375453531e-01 8.9867912508733966e-02 0.0000000000000000e+00 1
-2.5068827080426387e-01 -9.4785465007864902e-02 0.0000000000000000e+00 1
-2.5770856779359480e-01 -8.0535018540378658e-02 0.0000000000000000e+00 1
2.8148695997090317e-01 4.3633225066392896e-02 0.0000000000000000e+00 1
2.6875731136065395e-01 4.3622387061621443e-02 0.0000000000000000e+00 1
-5.0134597082194157e-02 -2.2780640551534951e-02 0.0000000000000000e+00 1
-5.8605236327369969e-02 -1.7006038708395548e-02 0.0000000000000000e+00 1
-6.7998699412659180e-02 -2.1890575326850219e-02 0.0000000000000000e+00 1
-4.9958390698339510e-02 -1.2589458959253305e-02 0.0000000000000000e+00 1
-4.0680499616853938e-02 -8.7700892040112974e-03 0.0000000000000000e+00 1
-2.1211125500459485e-01 -5.6901728611586710e-02 0.0000000000000000e+00 1
-2.2112024206135161e-01 -6.1426109631511468e-02 0.0000000000000000e+00 1
-2.1149023455676430e-01 -4.6815914717652181e-02 0.0000000000000000e+00 1
-2.2258053421857660e-01 -7.1648599670022642e-02 0.0000000000000000e+00 1
-2.3033412350208149e-01 -6.6880657867297202e-02 0.0000000000000000e+00 1
-1.9305027175324097e-01 -4.7588692558603735e-02 0.0000000000000000e+00 1
-1.9231021739885659e-01 -3.7073599628701721e-02 0.0000000000000000e+00 1
-1.8227454796160653e-01 -3.2350677275383863e-02 0.0000000000000000e+00 1
-2.4528985102101811e-01 -1.1856370363473313e-01 0.0000000000000000e+00 1
2.7483985707157280e-02 3.1750964414660306e-02 0.0000000000000000e+00 1
-6.8644906515292287e-02 -3.2769056590335750e-02 0.0000000000000000e+00 1
-7.7415094096682416e-02 -2.6640229310822678e-02 0.0000000000000000e+00 1
-8.7242914576705438e-02 -3.1210108649043205e-02 0.0000000000000000e+00 1
-8.8210427516840287e-02 -4.3082923385594989e-02 0.0000000000000000e+00 1
-9.8325369134796628e-02 -3.4709403724375983e-02 0.0000000000000000e+00 1
-1.0800090134543248e-01 -4.2102693078970736e-02 0.0000000000000000e+00 1
-1.0895628591632386e-01 -5.4182528882486175e-02 0.0000000000000000e+00 1
-1.1919777345293361e-01 -6.0842598216825867e-02 0.0000000000000000e+00 1
-1.2888356337884058e-01 -5.6024336182833846e-02 0.0000000000000000e+00 1
-1.3893100682567866e-01 -6.2532055189528993e-02 0.0000000000000000e+00 1
-1.0873111673562191e-01 -3.1006212361444564e-02 0.0000000000000000e+00 1
-2.4663234241859316e-01 -1.3625674486903164e-01 0.0000000000000000e+00 1
5.6288311568707866e-02 6.5085824700434614e-02 0.0000000000000000e+00 1
-1.4203480088134868e-01 -1.4003092527782800e-02 0.0000000000000000e+00 1
-1.1893795928448803e-01 -4.7534881446398232e-02 0.0000000000000000e+00 1
1.8985129643092520e-02 5.5647695310104578e-02 0.0000000000000000e+00 1
2.4357253250311420e-02 5.1233497439450139e-02 0.0000000000000000e+00 1
-1.7080196186461080e-01 -9.2374116719923349e-02 0.0000000000000000e+00 1
-1.7090028866635379e-01 -8.0532377766726213e-02 0.0000000000000000e+00 1
-1.5931532336085300e-01 -7.4092843605989236e-02 0.0000000000000000e+00 1
-1.7978423581570149e-01 -8.7821001089501027e-02 0.0000000000000000e+00 1
-1.5005471068691184e-01 -8.0395578251882385e-02 0.0000000000000000e+00 1
-2.1660072598946503e-01 -9.8198816883419818e-02 0.0000000000000000e+00 1
-1.6287095785452205e-01 -3.3370776075617926e-02 0.0000000000000000e+00 1
-1.7218943281286261e-01 -2.6650621519582706e-02 0.0000000000000000e+00 1
-1.2180248215017803e-01 -4.3179488387299599e-03 0.0000000000000000e+00 1
-1.3101476001498175e-01 1.6201813096397132e-04 0.0000000000000000e+00 1
-6.6950466438829265e-02 -1.0206757645241390e-02 0.0000000000000000e+00 1
1.9013246817834251e-01 5.1132441742200746e-02 0.0000000000000000e+00 1
1.9787521752619863e-01 4.5265014051876905e-02 0.0000000000000000e+00 1
1.8095020724831837e-01 4.7391865176690945e-02 0.0000000000000000e+00 1
1.7320304612781917e-01 5.3536394512279005e-02 0.0000000000000000e+00 1
1.7169029291044219e-01 4.3809673975121838e-02 0.0000000000000000e+00 1
1.6302965173049558e-01 4.0831029296313694e-02 0.0000000000000000e+00 1
1.7049006681729900e-01 3.4387484218511920e-02 0.0000000000000000e+00 1
1.7932991498061182e-01 3.8056046630495985e-02 0.0000000000000000e+00 1
1.7896528577418858e-01 2.7132431202783219e-02 0.0000000000000000e+00 1
1.8853312657336180e-01 4.1825179937868905e-02 0.0000000000000000e+00 1
1.9548214764971900e-01 3.4543520554031648e-02 0.0000000000000000e+00 1
2.0535218636955602e-01 3.9728352867812754e-02 0.0000000000000000e+00 1
2.0405332966043671e-01 3.0106927246941903e-02 0.0000000000000000e+00 1
-1.3961899107354819e-01 -7.4380976305952765e-02 0.0000000000000000e+00 1
-1.1190156774075162e-01 3.0627650364078493e-05 0.0000000000000000e+00 1
-1.1188355003781278e-01 9.4204636959894471e-03 0.0000000000000000e+00 1
-2.8999759728328239e-01 -1.2139954020149447e-01 0.0000000000000000e+00 1
-1.7306982871329554e-01 -3.8049813992570951e-02 0.0000000000000000e+00 1
-2.5468931990450255e-01 -1.4046591918630727e-01 0.0000000000000000e+00 1
-2.6239330430218299e-01 -1.3701103990375868e-01 0.0000000000000000e+00 1
-2.5595167081725778e-01 -1.3127408159586318e-01 0.0000000000000000e+00 1
-2.5400163759986399e-01 -1.2201594090434199e-01 0.0000000000000000e+00 1
4.2506849504468071e-02 1.2072631989915683e-02 0.0000000000000000e+00 1
-6.4984417875292286e-02 3.9770483767020907e-02 0.0000000000000000e+00 1
-6.7197620645782163e-02 2.9563610378883363e-02 0.0000000000000000e+00 1
-7.5102203026055053e-02 2.5914451786215629e-02 0.0000000000000000e+00 1
2.8647092722831624e-01 8.0926637913328645e-02 0.0000000000000000e+00 1
-1.3810114134622277e-03 4.7428639623089325e-02 0.0000000000000000e+00 1
1.0486516123075437e-01 9.5025809217922849e-02 0.0000000000000000e+00 1
2.0688660009697585e-01 4.9204402714474321e-02 0.0000000000000000e+00 1
1.1297082778277229e-01 4.8510980939421772e-02 0.0000000000000000e+00 1
2.4350702966651411e-01 1.0629714666676751e-01 0.0000000000000000e+00 1
-1.9235959338502104e-01 -2.6831947212039218e-02 0.0000000000000000e+00 1
-2.5160738229198062e-02 2.2073965437736050e-02 0.0000000000000000e+00 1
-3.1495521971615420e-01 -1.4686217415456690e-01 0.0000000000000000e+00 1
1.4933737339871225e-01 2.3026457179379602e-02 0.0000000000000000e+00 1
1.5332596798019310e-01 3.1641463506511834e-02 0.0000000000000000e+00 1
1.4393335782310485e-01 3.1241442251119540e-02 0.0000000000000000e+00 1
1.4831874008965562e-01 3.9314262022951220e-02 0.0000000000000000e+00 1
1.0780445170627786e-02 4.5034480890413807e-02 0.0000000000000000e+00 1
1.2311960131963924e-01 9.7145108503952471e-02 0.0000000000000000e+00 1
-8.4329744651249330e-02 3.1384462387227578e-02 0.0000000000000000e+00 1
-9.3699697427353595e-02 2.7064161339421158e-02 0.0000000000000000e+00 1
-9.3729309736871200e-02 1.7274932126325152e-02 0.0000000000000000e+00 1
-2.4852912489457560e-01 -6.5180175755345141e-02 0.0000000000000000e+00 1
2.8910780730554719e-01 9.5055902447903851e-02 0.0000000000000000e+00 1
2.8387665129327566e-01 9.9762979592645226e-02 0.0000000000000000e+00 1
2.9448721656384630e-01 9.6785900380637682e-02 0.0000000000000000e+00 1
2.6630687295950861e-01 8.1082521937735116e-02 0.0000000000000000e+00 1
2.3298465870384369e-01 6.0223342179296285e-02 0.0000000000000000e+00 1
-3.0327932644342825e-01 -1.2054445145303685e-01 0.0000000000000000e+00 1
2.0991521106387273e-01 8.6783917569467670e-02 0.0000000000000000e+00 1
1.4393142115775090e-01 9.8216565657539140e-02 0.0000000000000000e+00 1
-8.5692724688406649e-02 -1.9340522384870391e-02 0.0000000000000000e+00 1
-2.3174330281839978e-01 -7.6522492502587053e-02 0.0000000000000000e+00 1
2.5623977732754771e-01 6.2013986084535788e-02 0.0000000000000000e+00 1
1.6768250168177198e-01 8.0009303579456376e-02 0.0000000000000000e+00 1
2.4808948386142649e-01 9.8277741330978552e-02 0.0000000000000000e+00 1
2.5232670735216434e-01 1.0591375047164275e-01 0.0000000000000000e+00 1
2.4397673091735933e-01 8.1045990145621208e-02 0.0000000000000000e+00 1
1.8516698526819733e-01 7.7691681994523476e-02 0.0000000000000000e+00 1
8.2261594192909026e-03 7.1684647873641233e-02 0.0000000000000000e+00 1
2.7488156761242812e-02 7.2351897736049983e-02 0.0000000000000000e+00 1
1.3805180668357570e-01 4.9167541671085696e-02 0.0000000000000000e+00 1
6.9611360649290466e-02 6.3649675119052410e-02 0.0000000000000000e+00 1
1.6841471151898849e-01 2.4664021989479378e-02 0.0000000000000000e+00 1
1.5000575175742561e-01 7.1818669701889951e-02 0.0000000000000000e+00 1
3.0224083907644295e-01 6.8627063730048524e-02 0.0000000000000000e+00 1
4.0446847640860095e-02 8.3787808242279549e-02 0.0000000000000000e+00 1
-1.7649149128703995e-01 -7.0811098324463098e-02 0.0000000000000000e+00 1
-1.3558144877851494e-01 -4.1029954163086114e-02 0.0000000000000000e+00 1
2.6900723380869024e-01 1.0527812301012245e-01 0.0000000000000000e+00 1
2.7240054472652503e-01 9.7803096313455712e-02 0.0000000000000000e+00 1
2.5204644585071184e-01 3.2668746175823625e-02 0.0000000000000000e+00 1
1.2358940095625055e-02 5.2759970499611598e-02 0.0000000000000000e+00 1
-4.8166101578586924e-02 1.3855919563084780e-03 0.0000000000000000e+00 1
2.0823438563757307e-01 5.8605941589428230e-02 0.0000000000000000e+00 1
1.2437411020125901e-01 7.0332110836539966e-02 0.0000000000000000e+00 1
2.3173079138926492e-01 5.1259525744545613e-02 0.0000000000000000e+00 1
-2.0226892251818795e-01 -4.2059299771241121e-02 0.0000000000000000e+00 1
-3.2211798403864830e-02 1.0120626391372459e-02 0.0000000000000000e+00 1
4.2811316951906625e-02 3.7309630489054432e-02 0.0000000000000000e+00 1
-1.7761127889224154e-02 2.5840848630860166e-02 0.0000000000000000e+00 1
-2.3654695764393466e-01 -5.3173545488324390e-02 0.0000000000000000e+00 1
-2.0834514356318345e-01 -1.0442312506377284e-01 0.0000000000000000e+00 1
-2.9776399242902693e-02 4.3599260791561047e-02 0.0000000000000000e+00 1
-2.7480992132703086e-01 -1.0659365066075441e-01 0.0000000000000000e+00 1
4.4336847710648039e-02 6.6333765171625689e-02 0.0000000000000000e+00 1
-2.8635705635529313e-01 -1.4043240562082948e-01 0.0000000000000000e+00 1
9.1734290269752369e-02 6.4814651413248117e-02 0.0000000000000000e+00 1
2.5521330647480295e-01 5.3870415318493341e-02 0.0000000000000000e+00 1
-2.7224884830772257e-03 3.9529002723265025e-02 0.0000000000000000e+00 1
-2.8841836577125601e-01 -9.8039990239363370e-02 0.0000000000000000e+00 1
-3.0924777237128220e-01 -1.4416396988571614e-01 0.0000000000000000e+00 1
1.0447644999091701e-01 4.5439388091643364e-02 0.0000000000000000e+00 1
8.0377704277340756e-02 3.6940696397575704e-02 0.0000000000000000e+00 1
1.5112547068770515e-01 8.1151616087762599e-02 0.0000000000000000e+00 1
-3.0931124570239105e-01 -1.3163153442480760e-01 0.0000000000000000e+00 1
2.1933434333704752e-01 8.0671540600949429e-02 0.0000000000000000e+00 1
-1.9645254687315222e-01 -7.8996177094346240e-02 0.0000000000000000e+00 1
-3.2407220472062244e-02 -1.3998435667108329e-02 0.0000000000000000e+00 1
2.6783636655781096e-01 9.0683014878422938e-02 0.0000000000000000e+00 1
2.9503488892332569e-01 9.0286760905933489e-02 0.0000000000000000e+00 1
2.9447453544526248e-01 4.4343401944703459e-02 0.0000000000000000e+00 1
2.4552162188673246e-01 8.9900823602587207e-02 0.0000000000000000e+00 1
-2.2610433010509809e-01 -1.0194925107392623e-01 0.0000000000000000e+00 1
8.1609789310880934e-02 4.5033127252518651e-02 0.0000000000000000e+00 1
-2.7028182574856335e-01 -1.2728565089287805e-01 0.0000000000000000e+00 1
5.0980864133774263e-02 2.0613452600783358e-02 0.0000000000000000e+00 1
1.2574673996437524e-01 7.9916819862094826e-02 0.0000000000000000e+00 1
6.0755060040350285e-02 4.4916940627732667e-02 0.0000000000000000e+00 1
-3.0118183744168742e-01 -1.5641319532350426e-01 0.0000000000000000e+00 1
3.1783328741529271e-01 7.0044740672132330e-02 0.0000000000000000e+00 1
-4.6857440812404227e-02 2.8322438703445144e-02 0.0000000000000000e+00 1
-2.7625639403902302e-01 -1.5093465720830754e-01 0.0000000000000000e+00 1
-2.8983424189418083e-01 -1.5681080827594160e-01 0.0000000000000000e+00 1
1.5406062592334399e-01 4.6335342565384588e-02 0.0000000000000000e+00 1
2.6781674824536172e-01 3.5953935371082595e-02 0.0000000000000000e+00 1
-2.2194156010678135e-02 4.6079529840910849e-02 0.0000000000000000e+00 1
1.1002374770536717e-01 3.1044407756650266e-02 0.0000000000000000e+00 1
-8.0992701578035172e-03 -3.4227010368715585e-03 0.0000000000000000e+00 1
1.3337622767632343e-03 6.8882799355781663e-02 0.0000000000000000e+00 1
2.9942128743876328e-01 8.4460611302716843e-02 0.0000000000000000e+00 1
1.0088464393128335e-01 1.9230050932728417e-02 0.0000000000000000e+00 1
8.6708371094393513e-02 3.1578118320779940e-02 0.0000000000000000e+00 1
-2.1144158546434400e-01 -3.7147374366356962e-02 0.0000000000000000e+00 1
-2.2012941853510509e-01 -4.2357176018792096e-02 0.0000000000000000e+00 1
-1.1427393693395502e-02 2.1629151898153193e-02 0.0000000000000000e+00 1
1.3475717636221476e-01 3.0330096411492959e-02 0.0000000000000000e+00 1
-2.6521025986257218e-01 -7.6346110490918009e-02 0.0000000000000000e+00 1
1.0007715145788264e-01 6.8279247641056029e-02 0.0000000000000000e+00 1
2.3767998502069290e-01 3.7103893297232127e-02 0.0000000000000000e+00 1
3.3261015669482620e-02 2.7789239067748637e-02 0.0000000000000000e+00 1
5.4297650272309411e-03 4.9854542694701666e-02 0.0000000000000000e+00 1
2.6135624666119461e-01 4.1406112600259441e-02 0.0000000000000000e+00 1
1.5256539438302369e-01 9.0671190166446383e-02 0.0000000000000000e+00 1
1.1985014386909340e-01 2.0622456985046143e-02 0.0000000000000000e+00 1
1.0239082045632543e-01 8.6174854733239326e-02 0.0000000000000000e+00 1
-1.4030466438050254e-01 4.8895900527722190e-03 0.0000000000000000e+00 1
-6.4785804700487351e-02 2.0708592783708079e-02 0.0000000000000000e+00 1
1.0120853225410581e-01 7.7194382508830428e-02 0.0000000000000000e+00 1
1.1155161645968432e-01 3.9658644367186031e-02 0.0000000000000000e+00 1
3.0587541687841380e-01 4.8811580195310414e-02 0.0000000000000000e+00 1
1.2867106914076051e-01 8.9591086489486174e-02 0.0000000000000000e+00 1
-2.4634614374395639e-01 -1.2717047092778189e-01 0.0000000000000000e+00 1
5.7339074514064114e-02 8.1009026486350125e-02 0.0000000000000000e+00 1
-2.1882461681749188e-01 -1.2057448012650392e-01 0.0000000000000000e+00 1
-1.6693189965240712e-01 -6.6404450166191190e-02 0.0000000000000000e+00 1
3.0872563441126394e-01 9.8057703455747061e-02 0.0000000000000000e+00 1
-2.1777793294248540e-01 -1.0881286855314816e-01 0.0000000000000000e+00 1
3.1704466616977228e-01 6.5046817178772504e-02 0.0000000000000000e+00 1
-1.3791669212424369e-04 5.4467727096987759e-02 0.0000000000000000e+00 1
-7.5030456323757128e-02 1.6612754683119277e-02 0.0000000000000000e+00 1
7.8589476695814120e-02 8.3501087933519971e-02 0.0000000000000000e+00 1
-1.9953162449182535e-01 -1.1012088374377040e-01 0.0000000000000000e+00 1
3.1325950476888986e-01 5.6386555085069741e-02 0.0000000000000000e+00 1
3.0773893892668819e-01 5.8211908787864579e-02 0.0000000000000000e+00 1
2.2542371749240947e-01 1.0663456045906390e-01 0.0000000000000000e+00 1
-2.2019703936927962e-01 -5.1849953593766734e-02 0.0000000000000000e+00 1
-2.5731285869746049e-02 1.4274152823444524e-02 0.0000000000000000e+00 1
-3.0237126329191927e-01 -1.2865551386111065e-01 0.0000000000000000e+00 1
3.0504383791560653e-02 5.3918943675870454e-02 0.0000000000000000e+00 1
7.0372673201521033e-02 8.9769040748330323e-02 0.0000000000000000e+00 1
2.0053318681458723e-01 8.6388712830547845e-02 0.0000000000000000e+00 1
-8.4324767478021936e-02 2.1734820056966146e-02 0.0000000000000000e+00 1
-5.9173191201000591e-02 3.3180327101028806e-02 0.0000000000000000e+00 1
-1.8335006113632327e-02 1.7769402399354300e-02 0.0000000000000000e+00 1
-2.6911353656368775e-01 -1.4826220279400160e-01 0.0000000000000000e+00 1
1.7509609138283330e-01 1.0443732421422885e-01 0.0000000000000000e+00 1
3.2282951392653947e-01 7.1476339459178598e-02 0.0000000000000000e+00 1
5.0475955610715391e-02 6.9344646741739679e-02 0.0000000000000000e+00 1
-1.7156307757414502e-02 1.0104420679108031e-02 0.0000000000000000e+00 1
2.1229228399027694e-01 3.4550277184836074e-02 0.0000000000000000e+00 1
-2.9998845427491921e-01 -1.6058194026925471e-01 0.0000000000000000e+00 1
3.2453463788650244e-01 7.9770790929663188e-02 0.0000000000000000e+00 1
1.9684395784904352e-01 2.5820102699868348e-02 0.0000000000000000e+00 1
-2.6551008172151236e-01 -8.5224365589855258e-02 0.0000000000000000e+00 1
2.8861197576084024e-01 4.7913770254974633e-02 0.0000000000000000e+00 1
-3.1358475566733374e-01 -1.5086006645902802e-01 0.0000000000000000e+00 1
-3.1319637472848677e-01 -1.5681610241538060e-01 0.0000000000000000e+00 1
-3.0672827492668420e-01 -1.5753880204916834e-01 0.0000000000000000e+00 1
-1.4864225189962227e-01 -6.8099234306851442e-02 0.0000000000000000e+00 1
-9.2965669890143390e-02 8.0066919921705747e-03 0.0000000000000000e+00 1
-1.8916774365685599e-01 -1.0424348728466545e-01 0.0000000000000000e+00 1
4.6986357061463015e-02 8.5516859371092824e-02 0.0000000000000000e+00 1
5.1251963716059251e-02 7.6326683707896650e-02 0.0000000000000000e+00 1
9.1539375142343865e-02 1.7879583636546917e-02 0.0000000000000000e+00 1
1.6158534371765720e-01 3.2336137544282890e-02 0.0000000000000000e+00 1
3.2002130114329619e-01 9.0280390539434791e-02 0.0000000000000000e+00 1
2.3658289451979875e-01 2.9402340370047828e-02 0.0000000000000000e+00 1
-3.1127288005349085e-02 2.1893818347097538e-03 0.0000000000000000e+00 1
2.9793453872710851e-01 1.0130366170035504e-01 0.0000000000000000e+00 1
-1.8293210390053752e-01 -2.2778495359943491e-02 0.0000000000000000e+00 1
3.2065594556675647e-01 6.2675408097055157e-02 0.0000000000000000e+00 1
2.5516349749772987e-01 9.9140735174821887e-02 0.0000000000000000e+00 1
-3.0157705423609160e-01 -1.1369771106602064e-01 0.0000000000000000e+00 1
-1.1533514435628833e-01 -3.6838616543463799e-02 0.0000000000000000e+00 1
2.7249839402536297e-02 1.8999011691125851e-02 0.0000000000000000e+00 1
-1.6864052854442305e-01 -9.9401997471168391e-03 0.0000000000000000e+00 1
-2.3769323521130434e-01 -1.2368214418988001e-01 0.0000000000000000e+00 1
3.2397243457753949e-01 8.3374234983164264e-02 0.0000000000000000e+00 1
-2.2909347177251749e-01 -5.7498338482661275e-02 0.0000000000000000e+00 1
-1.4727252650245801e-01 -5.6770760367946427e-02 0.0000000000000000e+00 1
-5.5947789814162702e-03 5.8073898282069977e-02 0.0000000000000000e+00 1
5.8248559238508316e-02 2.9348113986890998e-02 0.0000000000000000e+00 1
-3.0774441525240936e-01 -1.6088720899320999e-01 0.0000000000000000e+00 1
5.9877404597866390e-02 3.6855702891483620e-02 0.0000000000000000e+00 1
1.2997895561441788e-01 2.0367869938596760e-02 0.0000000000000000e+00 1
-1.1184216409270545e-01 1.8647532128703927e-02 0.0000000000000000e+00 1
4.8062584189623794e-02 3.9287931382281663e-02 0.0000000000000000e+00 1
-1.0250903105620425e-01 1.3626187132831535e-02 0.0000000000000000e+00 1
1.9304949362342887e-02 1.0323042405235664e-02 0.0000000000000000e+00 1
-1.8883517096576263e-01 -9.3498667181622877e-02 0.0000000000000000e+00 1
1.8633812374912495e-01 3.3568680470888297e-02 0.0000000000000000e+00 1
-2.9360471106020108e-01 -1.0214143558381432e-01 0.0000000000000000e+00 1
5.9090946265205058e-02 8.8236392829405930e-02 0.0000000000000000e+00 1
-2.9553002235307219e-01 -1.5368188443885564e-01 0.0000000000000000e+00 1
-1.2167482912814823e-01 5.0438762719695121e-03 0.0000000000000000e+00 1
1.1038005536195333e-01 8.9355065469690256e-02 0.0000000000000000e+00 1
1.7618553447713961e-01 8.1088854460580673e-02 0.0000000000000000e+00 1
-2.8996063004002387e-01 -1.5184726637659338e-01 0.0000000000000000e+00 1
-1.6012262035445569e-02 6.4153281386037625e-02 0.0000000000000000e+00 1
-2.6742171143696070e-01 -1.4084182438352630e-01 0.0000000000000000e+00 1
1.6427050211559038e-01 1.0281929937992330e-01 0.0000000000000000e+00 1
8.5297068334929615e-02 2.4001962934792023e-02 0.0000000000000000e+00 1
-1.2848273585656922e-01 -4.6801446072840612e-02 0.0000000000000000e+00 1
-3.9251726634058265e-02 -1.8066297528811206e-03 0.0000000000000000e+00 1
2.6620059293346071e-01 9.8641873868803256e-02 0.0000000000000000e+00 1
-1.4132436230789963e-01 -4.5047084350797843e-03 0.0000000000000000e+00 1
-3.1668326566965754e-01 -1.5092657760945771e-01 0.0000000000000000e+00 1
3.0000544962423170e-01 9.5152927980379248e-02 0.0000000000000000e+00 1
8.6104916519387897e-02 9.4308148270050560e-02 0.0000000000000000e+00 1
-1.3074057706076803e-01 9.5616101685235474e-03 0.0000000000000000e+00 1
-1.5114388892985089e-01 -9.0217606022592427e-03 0.0000000000000000e+00 1
1.9079360202256476e-01 8.6289108409387666e-02 0.0000000000000000e+00 1
2.7843816071208932e-01 9.7245448032226234e-02 0.0000000000000000e+00 1
2.8275821436723603e-01 3.8180086783711195e-02 0.0000000000000000e+00 1
-3.1326941682573889e-01 -1.3615209508587386e-01 0.0000000000000000e+00 1
-2.2234674915843050e-02 6.0456301388365490e-02 0.0000000000000000e+00 1
-1.3764174869965262e-01 -5.1651685675307285e-02 0.0000000000000000e+00 1
1.3685959023300712e-01 9.1508241027913079e-02 0.0000000000000000e+00 1
2.3011201667140266e-01 1.0022904077414990e-01 0.0000000000000000e+00 1
-2.3081241970198435e-01 -1.2907379507598038e-01 0.0000000000000000e+00 1
1.1538579516666602e-02 1.4487645277602228e-02 0.0000000000000000e+00 1
-1.1298208820353459e-02 8.2624409558159865e-03 0.0000000000000000e+00 1
3.1811549651655829e-01 8.7060752422035398e-02 0.0000000000000000e+00 1
-2.3813313041716014e-01 -6.3377284235705961e-02 0.0000000000000000e+00 1
1.9577826076832533e-01 9.2634609256425512e-02 0.0000000000000000e+00 1
1.5894907714678291e-01 8.3310246095329721e-02 0.0000000000000000e+00 1
2.2383241492649492e-01 2.7825409001968893e-02 0.0000000000000000e+00 1
1.1571679985130956e-01 2.6607564142113693e-02 0.0000000000000000e+00 1
7.8737906299040011e-02 2.2861426446407547e-02 0.0000000000000000e+00 1
-5.2261567650222128e-02 3.3174258964861474e-02 0.0000000000000000e+00 1
-1.8801181835441488e-01 -8.3813086136840076e-02 0.0000000000000000e+00 1
-1.6886664623395181e-01 -1.8716211139889312e-02 0.0000000000000000e+00 1
2.8475643509468540e-01 1.0545329965776834e-01 0.0000000000000000e+00 1
3.2131261876406603e-01 7.8176259559395417e-02 0.0000000000000000e+00 1
-1.5950331538983956e-01 -4.9156282737600233e-03 0.0000000000000000e+00 1
2.5500114854600942e-01 3.8807714832200725e-02 0.0000000000000000e+00 1
2.2889328699692138e-02 1.8801497469395238e-02 0.0000000000000000e+00 1
5.1012219893656112e-02 8.1866978479006064e-02 0.0000000000000000e+00 1
3.1750680120879360e-01 9.3446049148870475e-02 0.0000000000000000e+00 1
-2.7821122241112084e-01 -8.4843322730462481e-02 0.0000000000000000e+00 1
6.7789091972161417e-02 2.2306089882093719e-02 0.0000000000000000e+00 1
5.6169076718092903e-02 2.3029987211783013e-02 0.0000000000000000e+00 1
2.1020735955176154e-01 2.6142231966230323e-02 0.0000000000000000e+00 1
1.5553978527949200e-01 3.8684828927049900e-02 0.0000000000000000e+00 1
-2.8231926631031107e-02 5.0079767699533081e-02 0.0000000000000000e+00 1
2.0463837893405393e-01 8.0599633519196731e-02 0.0000000000000000e+00 1
1.4440077206046750e-01 4.5976880649361916e-02 0.0000000000000000e+00 1
-1.0355241293598086e-01 -2.4690333373653024e-02 0.0000000000000000e+00 1
-5.8286735658105576e-02 4.6156771306845430e-02 0.0000000000000000e+00 1
-1.7942494561307121e-01 -7.9114946865994212e-02 0.0000000000000000e+00 1
3.7966781144260421e-02 3.7588744967701086e-02 0.0000000000000000e+00 1
-4.7622018136654523e-02 -6.1038467326092185e-03 0.0000000000000000e+00 1
-1.1698335037227235e-01 -2.9605450355162301e-02 0.0000000000000000e+00 1
-2.6453932585907347e-01 -1.3091413555875550e-01 0.0000000000000000e+00 1
-3.1376718735855968e-01 -1.5921139792592828e-01 0.0000000000000000e+00 1
-3.1561318887265077e-01 -1.5722655670244109e-01 0.0000000000000000e+00 1

Edges
175
1 2 1
2 3 1
3 4 1
4 5 1
5 6 1
6 7 1
7 8 1
8 9 1
9 10 1
10 11 1
11 12 1
12 13 1
13 14 1
14 15 1
15 16 1
16 17 1
17 18 1
18 19 1
19 20 1
20 21 1
21 22 1
22 23 1
23 24 1
24 25 1
25 26 1
26 27 1
27 28 1
28 29 1
29 30 1
30 31 1
31 32 1
32 33 1
33 34 1
34 35 1
35 36 1
36 37 1
37 38 1
38 39 1
39 40 1
40 41 1
41 42 1
42 43 1
43 44 1
44 45 1
45 46 1
46 47 1
47 48 1
48 49 1
49 50 1
50 51 1
51 52 1
52 53 1
53 54 1
54 55 1
55 56 1
56 57 1
57 58 1
58 59 1
59 60 1
60 61 1
61 62 1
62 63 1
63 64 1
64 65 1
65 66 1
66 67 1
67 68 1
68 69 1
69 70 1
70 71 1
71 72 1
72 73 1
73 74 1
74 75 1
75 76 1
76 77 1
77 78 1
78 79 1
79 80 1
80 81 1
81 82 1
82 83 1
83 84 1
84 85 1
85 86 1
86 87 1
87 88 1
88 89 1
89 90 1
90 91 1
91 92 1
92 93 1
93 94 1
94 95 1
95 96 1
96 97 1
97 98 1
98 99 1
99 100 1
100 101 1
101 102 1
102 103 1
103 104 1
104 105 1
105 106 1
106 107 1
107 108 1
108 109 1
109 110 1
110 111 1
111 112 1
112 113 1
113 114 1
114 115 1
115 116 1
116 117 1
117 118 1
118 119 1
119 120 1
120 121 1
121 122 1
122 123 1
123 124 1
124 125 1
125 126 1
126 127 1
127 128 1
128 129 1
129 130 1
130 131 1
131 132 1
132 133 1
133 134 1
134 135 1
135 136 1
136 137 1
137 138 1
138 139 1
139 140 1
140 141 1
141 142 1
142 143 1
143 144 1
144 145 1
145 146 1
146 147 1
147 148 1
148 149 1
149 150 1
150 151 1
151 152 1
152 153 1
153 154 1
154 155 1
155 156 1
156 157 1
157 158 1
158 159 1
159 160 1
160 161 1
161 162 1
162 163 1
163 164 1
164 165 1
165 166 1
166 167 1
167 168 1
168 169 1
169 170 1
170 171 1
171 172 1
172 173 1
173 174 1
174 175 1
175 1 1

Triangles
1773
171 172 747 1
599 243 853 1
198 548 737 1
514 748 795 1
620 566 829 1
668 620 829 1
155 206 729 1
798 769 924 1
243 599 839 1
589 238 876 1
536 221 580 1
109 110 606 1
407 655 657 1
153 154 889 1
677 676 683 1
355 600 764 1
544 195 546 1
648 501 853 1
201 560 625 1
737 548 840 1
534 182 652 1
531 227 549 1
227 531 613 1
65 66 705 1
533 199 605 1
656 456 670 1
613 782 964 1
289 263 685 1
182 534 653 1
355 342 554 1
766 687 844 1
248 593 817 1
614 809 866 1
238 589 875 1
799 547 927 1
83 84 852 1
270 268 906 1
677 683 922 1
744 742 799 1
206 665 729 1
744 799 927 1
555 552 598 1
342 341 554 1
684 289 685 1
687 688 844 1
554 552 555 1
507 843 846 1
199 533 604 1
501 600 853 1
197 612 920 1
489 769 798 1
154 729 889 1
573 202 651 1
898 780 943 1
265 267 858 1
541 229 572 1
539 189 816 1
161 162 741 1
110 233 606 1
537 798 924 1
172 210 747 1
655 407 696 1
600 501 764 1
849 722 861 1
214 614 866 1
66 193 705 1
204 613 964 1
196 543 728 1
268 778 906 1
670 456 750 1
748 321 795 1
538 123 912 1
409 849 861 1
560 201 789 1
511 850 859 1
663 898 943 1
638 281 646 1
636 281 638 1
593 590 817 1
749 525 832 1
647 901 903 1
195 544 649 1
217 808 877 1
731 530 790 1
79 80 800 1
273 275 681 1
671 461 673 1
154 155 729 1
242 546 845 1
546 195 845 1
341 551 554 1
901 477 903 1
398 772 923 1
707 193 872 1
123 538 859 1
878 678 899 1
444 878 899 1
676 675 683 1
514 533 748 1
612 197 832 1
193 707 910 1
355 555 600 1
808 529 877 1
199 109 606 1
128 129 644 1
478 484 653 1
189 539 820 1
826 236 873 1
613 531 782 1
191 537 924 1
542 20 843 1
651 826 873 1
923 772 971 1
31 32 675 1
487 734 735 1
263 265 685 1
275 570 681 1
20 542 939 1
225 883 921 1
385 387 696 1
883 540 921 1
477 602 960 1
527 580 811 1
364 250 584 1
610 612 753 1
218 673 674 1
176 640 641 1
355 554 555 1
673 461 967 1
843 213 846 1
721 722 836 1
354 557 723 1
203 558 559 1
598 187 599 1
685 265 858 1
586 484 787 1
914 232 929 1
925 209 930 1
456 656 696 1
222 601 805 1
585 186 770 1
534 478 653 1
537 191 891 1
695 914 929 1
292 273 681 1
218 672 673 1
599 187 839 1
682 925 930 1
561 498 713 1
192 532 900 1
648 179 847 1
231 737 840 1
558 203 561 1
836 722 849 1
221 536 917 1
665 206 776 1
389 391 750 1
728 543 754 1
31 675 676 1
65 705 762 1
84 179 852 1
173 174 794 1
546 242 927 1
562 565 597 1
171 747 892 1
532 918 935 1
551 341 581 1
201 625 626 1
536 580 785 1
229 541 834 1
162 202 741 1
231 840 937 1
742 557 799 1
406 721 836 1
612 611 920 1
527 811 864 1
461 671 750 1
137 138 613 1
289 684 771 1
777 398 887 1
569 532 935 1
507 542 843 1
753 612 945 1
222 575 719 1
865 112 920 1
532 192 918 1
176 128 644 1
45 46 582 1
850 184 859 1
663 574 751 1
46 178 582 1
721 406 862 1
197 749 832 1
717 443 973 1
525 749 937 1
530 731 875 1
80 187 800 1
584 583 940 1
592 658 797 1
580 221 811 1
239 596 897 1
465 586 787 1
646 292 784 1
495 502 568 1
250 247 584 1
596 239 942 1
611 865 920 1
463 573 651 1
234 161 741 1
580 450 785 1
264 262 668 1
407 385 696 1
568 502 603 1
887 398 923 1
638 646 784 1
44 45 246 1
241 808 870 1
658 224 797 1
545 595 596 1
587 474 775 1
407 657 971 1
33 34 672 1
863 856 868 1
194 825 904 1
624 463 651 1
204 137 613 1
364 584 940 1
602 477 901 1
218 33 672 1
570 275 761 1
133 192 818 1
463 624 650 1
824 779 863 1
777 594 856 1
246 45 582 1
597 565 908 1
716 717 973 1
498 561 747 1
545 408 595 1
596 595 614 1
504 834 837 1
724 306 830 1
192 645 818 1
577 296 829 1
587 588 828 1
129 627 644 1
305 618 619 1
535 652 874 1
651 202 826 1
640 176 644 1
582 583 584 1
32 218 675 1
557 454 723 1
443 717 718 1
243 83 852 1
662 663 751 1
585 770 955 1
51 222 719 1
671 670 750 1
305 619 620 1
851 23 880 1
430 463 650 1
296 264 668 1
456 389 750 1
213 781 846 1
451 447 713 1
625 560 783 1
222 52 601 1
387 456 696 1
808 241 913 1
521 477 960 1
664 665 776 1
498 747 857 1
596 871 897 1
693 666 714 1
296 577 970 1
1 2 731 1
241 812 913 1
736 289 771 1
305 260 618 1
656 655 696 1
538 511 859 1
176 641 765 1
856 594 868 1
467 587 775 1
107 108 604 1
41 42 590 1
444 688 878 1
549 227 550 1
48 562 597 1
138 227 613 1
103 104 755 1
805 601 961 1
622 625 783 1
593 248 941 1
557 354 799 1
529 530 589 1
809 244 866 1
688 444 844 1
698 708 726 1
652 240 874 1
518 519 529 1
240 79 800 1
517 497 518 1
338 336 581 1
644 627 759 1
800 598 874 1
598 552 874 1
529 519 530 1
553 190 946 1
391 461 750 1
558 561 713 1
253 824 863 1
657 224 658 1
498 451 713 1
606 233 607 1
526 851 880 1
603 223 790 1
208 153 889 1
572 184 850 1
267 281 858 1
202 573 741 1
108 199 604 1
336 353 581 1
590 42 817 1
654 224 657 1
544 545 649 1
431 430 650 1
747 210 857 1
252 364 616 1
708 493 726 1
742 180 743 1
568 603 790 1
260 258 618 1
353 479 581 1
825 528 904 1
627 628 759 1
181 54 615 1
828 588 886 1
52 53 601 1
296 668 829 1
734 487 825 1
210 173 794 1
616 364 617 1
306 724 788 1
223 731 790 1
555 598 599 1
245 589 876 1
543 196 938 1
487 735 966 1
572 229 928 1
408 362 595 1
605 199 606 1
262 305 668 1
204 569 935 1
565 621 908 1
526 880 909 1
724 481 788 1
235 814 831 1
191 103 755 1
518 497 519 1
496 495 497 1
741 574 943 1
341 338 581 1
449 451 452 1
582 178 583 1
220 30 676 1
190 553 869 1
29 220 710 1
625 623 626 1
913 812 917 1
68 709 872 1
544 408 545 1
716 505 919 1
281 269 646 1
520 373 838 1
484 586 831 1
452 494 495 1
653 484 831 1
615 521 960 1
674 673 679 1
30 31 676 1
589 530 875 1
211 905 907 1
533 605 748 1
345 344 347 1
814 653 831 1
216 16 715 1
594 777 887 1
343 342 344 1
276 279 761 1
360 347 362 1
692 693 714 1
54 55 615 1
426 662 751 1
452 451 494 1
426 423 662 1
679 673 967 1
479 551 581 1
573 574 741 1
34 226 672 1
492 572 850 1
555 599 600 1
449 447 451 1
226 669 670 1
784 292 867 1
345 347 360 1
595 485 614 1
49 177 562 1
588 71 886 1
736 771 830 1
175 1 223 1
343 344 345 1
339 338 340 1
360 362 408 1
348 698 726 1
550 720 862 1
441 440 446 1
505 716 973 1
441 446 447 1
362 485 595 1
439 440 441 1
551 535 552 1
483 418 664 1
220 678 710 1
570 512 571 1
306 736 830 1
340 341 342 1
252 250 364 1
180 742 744 1
500 648 847 1
637 640 759 1
16 17 715 1
447 446 713 1
220 676 677 1
216 715 716 1
71 588 946 1
435 437 718 1
439 438 440 1
362 363 485 1
780 234 943 1
497 495 568 1
499 454 557 1
539 540 820 1
496 497 517 1
337 336 338 1
852 648 853 1
437 443 718 1
269 271 646 1
318 348 773 1
340 342 343 1
640 644 759 1
720 550 968 1
53 181 601 1
437 438 439 1
666 693 889 1
343 354 723 1
226 35 669 1
433 435 667 1
479 534 535 1
495 494 502 1
686 687 689 1
551 552 554 1
437 436 438 1
340 343 723 1
491 511 512 1
435 434 436 1
448 447 449 1
255 252 616 1
652 182 933 1
693 208 889 1
575 222 805 1
619 617 621 1
334 335 336 1
637 639 640 1
508 879 907 1
547 799 819 1
200 41 590 1
292 681 867 1
479 535 551 1
188 44 246 1
491 512 570 1
622 623 625 1
275 276 761 1
412 692 714 1
799 354 819 1
591 590 593 1
698 697 706 1
333 332 334 1
130 185 627 1
435 436 437 1
699 701 704 1
537 457 798 1
562 177 563 1
509 526 909 1
434 431 650 1
527 450 580 1
55 225 615 1
337 338 339 1
51 52 222 1
247 246 584 1
740 409 861 1
271 292 646 1
129 130 627 1
49 50 177 1
589 245 877 1
483 664 776 1
353 478 479 1
709 68 962 1
331 330 332 1
219 686 689 1
433 434 435 1
446 453 558 1
659 483 661 1
433 431 434 1
344 342 355 1
655 654 657 1
334 336 337 1
218 674 675 1
340 338 341 1
704 703 705 1
242 888 927 1
754 543 801 1
104 728 755 1
622 442 623 1
491 570 761 1
745 352 798 1
429 428 430 1
133 134 192 1
485 363 500 1
864 216 919 1
350 465 787 1
430 455 463 1
631 636 637 1
418 416 664 1
234 741 943 1
362 347 363 1
459 408 544 1
219 25 686 1
427 426 428 1
527 864 919 1
237 101 768 1
328 329 330 1
792 522 821 1
258 255 616 1
334 337 745 1
701 703 704 1
337 352 745 1
436 442 622 1
399 488 682 1
38 224 654 1
420 483 659 1
344 355 764 1
409 740 879 1
570 571 681 1
10 11 241 1
583 621 940 1
119 229 725 1
17 18 680 1
699 700 701 1
258 616 618 1
559 560 789 1
226 670 671 1
512 511 538 1
334 332 335 1
697 699 706 1
15 16 216 1
336 335 353 1
356 490 491 1
662 660 663 1
452 495 496 1
460 752 787 1
548 198 915 1
327 326 328 1
293 270 906 1
18 212 680 1
422 659 660 1
470 285 803 1
429 430 431 1
43 44 188 1
130 131 185 1
48 49 562 1
641 643 765 1
454 339 723 1
535 534 652 1
627 185 628 1
667 435 718 1
465 585 586 1
666 445 714 1
479 478 534 1
352 489 798 1
12 13 221 1
698 706 707 1
100 101 237 1
331 332 333 1
601 181 602 1
820 540 883 1
425 427 691 1
18 19 212 1
328 330 331 1
686 228 687 1
425 423 426 1
330 350 752 1
55 56 225 1
427 428 429 1
325 324 326 1
474 587 828 1
136 137 204 1
53 54 181 1
348 726 773 1
28 29 710 1
445 414 714 1
38 39 224 1
423 422 662 1
101 102 768 1
438 436 622 1
215 654 655 1
322 323 324 1
690 28 710 1
436 434 442 1
430 428 455 1
330 329 350 1
421 420 422 1
464 746 775 1
450 449 785 1
124 125 183 1
794 174 934 1
335 332 752 1
186 585 828 1
422 420 659 1
416 445 664 1
27 28 690 1
463 455 573 1
425 426 427 1
118 119 725 1
215 37 654 1
21 22 213 1
26 228 686 1
475 277 807 1
363 347 764 1
412 405 692 1
543 462 801 1
628 630 631 1
420 418 483 1
419 418 420 1
392 508 711 1
346 467 775 1
310 359 700 1
664 445 665 1
460 335 752 1
485 500 809 1
491 490 511 1
484 460 787 1
37 38 654 1
151 895 954 1
187 598 800 1
328 326 329 1
40 41 200 1
96 97 242 1
545 596 942 1
312 310 700 1
98 99 180 1
34 35 226 1
25 26 686 1
237 768 769 1
416 414 445 1
477 475 903 1
220 677 678 1
257 255 258 1
574 455 751 1
499 557 742 1
607 233 608 1
501 363 764 1
365 504 837 1
328 331 756 1
102 103 191 1
455 428 751 1
119 120 229 1
711 508 712 1
104 105 728 1
467 553 587 1
324 346 746 1
321 320 322 1
422 660 662 1
905 712 907 1
446 440 453 1
282 295 779 1
417 416 418 1
329 326 746 1
694 394 711 1
249 247 250 1
700 359 701 1
448 449 450 1
352 339 454 1
24 25 219 1
562 563 565 1
267 269 281 1
324 323 346 1
322 324 325 1
325 326 327 1
521 615 948 1
394 392 711 1
331 349 756 1
138 139 227 1
631 630 635 1
446 558 713 1
464 329 746 1
834 541 837 1
523 516 556 1
698 707 708 1
121 122 184 1
322 320 323 1
32 33 218 1
474 464 775 1
558 453 559 1
421 422 423 1
470 792 821 1
587 553 588 1
457 333 745 1
78 79 240 1
117 198 737 1
47 48 597 1
489 454 499 1
432 431 433 1
699 704 706 1
631 635 636 1
401 399 682 1
105 106 196 1
415 414 416 1
305 620 668 1
291 288 727 1
26 27 228 1
74 75 235 1
17 680 715 1
36 37 215 1
503 433 667 1
236 626 873 1
658 923 971 1
375 378 730 1
404 401 516 1
110 111 233 1
271 273 292 1
637 636 638 1
224 39 797 1
419 420 421 1
404 516 523 1
438 622 783 1
279 356 761 1
319 318 320 1
396 394 694 1
488 694 695 1
640 639 641 1
251 250 252 1
116 117 737 1
29 30 220 1
637 638 639 1
413 412 414 1
281 636 858 1
76 77 182 1
452 496 785 1
476 475 477 1
263 264 265 1
441 447 448 1
488 396 694 1
398 381 772 1
115 116 231 1
687 228 688 1
816 189 947 1
414 412 714 1
261 262 263 1
200 590 591 1
776 206 822 1
528 520 947 1
516 401 682 1
756 349 801 1
140 141 720 1
794 502 857 1
318 316 348 1
203 559 911 1
684 632 771 1
705 193 910 1
417 418 419 1
115 231 749 1
626 623 873 1
871 596 953 1
117 118 198 1
399 396 488 1
692 523 693 1
469 754 801 1
317 316 318 1
108 109 199 1
349 333 457 1
50 51 719 1
708 707 709 1
607 608 609 1
437 439 443 1
339 340 723 1
299 291 727 1
262 260 305 1
58 59 189 1
879 740 907 1
512 538 842 1
618 617 619 1
351 277 475 1
320 318 773 1
358 285 470 1
80 81 187 1
105 196 728 1
259 258 260 1
132 133 818 1
720 207 721 1
72 73 186 1
314 315 316 1
500 501 648 1
257 258 259 1
411 405 412 1
675 674 683 1
469 457 537 1
609 757 931 1
596 614 953 1
141 207 720 1
816 520 838 1
539 471 540 1
319 320 321 1
635 684 685 1
141 142 207 1
353 460 478 1
360 408 459 1
184 572 928 1
628 631 759 1
628 629 630 1
486 373 520 1
415 416 417 1
462 327 756 1
63 64 230 1
350 464 465 1
701 359 702 1
665 445 666 1
259 260 261 1
781 213 851 1
113 114 197 1
315 312 700 1
317 318 319 1
346 466 467 1
510 481 724 1
314 312 315 1
494 451 498 1
231 116 737 1
591 593 594 1
63 230 732 1
669 656 670 1
402 401 404 1
629 185 758 1
69 70 190 1
575 564 719 1
749 231 937 1
263 262 264 1
349 469 801 1
62 63 732 1
194 732 734 1
313 312 314 1
710 678 878 1
361 327 462 1
366 299 373 1
413 414 415 1
94 95 195 1
373 299 727 1
223 1 731 1
458 425 691 1
314 316 317 1
616 617 618 1
114 115 749 1
348 697 698 1
600 599 853 1
326 324 746 1
701 702 703 1
424 423 425 1
254 252 255 1
261 260 262 1
697 315 699 1
665 666 729 1
708 709 869 1
316 315 697 1
194 62 732 1
739 211 740 1
164 165 236 1
732 733 734 1
333 334 745 1
513 462 543 1
569 204 964 1
40 200 797 1
172 173 210 1
734 733 735 1
732 230 733 1
261 263 289 1
198 118 725 1
35 36 669 1
404 523 692 1
61 62 194 1
332 330 752 1
453 440 783 1
169 170 203 1
82 83 243 1
467 493 553 1
465 474 585 1
372 375 730 1
411 412 413 1
311 310 312 1
43 188 817 1
609 608 610 1
131 132 758 1
392 390 508 1
265 266 267 1
166 167 201 1
66 67 193 1
228 27 690 1
144 211 739 1
405 404 692 1
182 653 814 1
256 255 257 1
400 399 401 1
160 161 234 1
630 632 684 1
378 379 777 1
428 426 751 1
343 345 354 1
482 481 510 1
310 308 359 1
266 264 296 1
144 145 211 1
620 619 956 1
311 312 313 1
375 377 378 1
64 65 762 1
348 316 697 1
162 163 202 1
314 317 757 1
459 544 546 1
304 302 307 1
197 114 749 1
661 776 822 1
366 373 486 1
635 630 684 1
731 2 926 1
486 520 528 1
564 177 719 1
370 294 481 1
388 386 409 1
358 470 471 1
142 143 738 1
560 453 783 1
346 323 466 1
429 431 432 1
327 328 756 1
402 404 405 1
397 396 399 1
88 89 214 1
143 144 739 1
146 147 232 1
699 315 700 1
295 372 779 1
158 159 205 1
351 475 476 1
265 264 266 1
167 168 789 1
356 357 490 1
304 307 308 1
210 794 857 1
215 656 669 1
746 346 775 1
691 427 802 1
476 477 521 1
356 491 761 1
630 629 632 1
379 398 777 1
337 339 352 1
317 369 757 1
752 350 787 1
155 156 206 1
573 455 574 1
379 381 398 1
624 651 873 1
350 329 464 1
432 433 503 1
395 394 396 1
631 637 759 1
309 308 310 1
378 777 856 1
365 473 504 1
588 553 946 1
705 703 762 1
610 611 612 1
321 322 795 1
400 401 402 1
84 85 179 1
309 310 311 1
279 283 356 1
313 314 757 1
467 466 493 1
347 344 764 1
152 153 208 1
792 470 803 1
492 541 572 1
149 150 209 1
20 21 843 1
443 439 804 1
311 313 753 1
290 297 365 1
58 189 820 1
300 299 366 1
603 502 794 1
317 319 369 1
847 179 890 1
331 333 349 1
368 472 524 1
188 246 247 1
301 368 774 1
623 442 624 1
127 128 176 1
781 691 846 1
230 64 762 1
304 308 309 1
207 142 738 1
481 294 788 1
442 434 650 1
307 302 760 1
383 385 407 1
259 261 736 1
122 123 859 1
309 311 367 1
721 207 722 1
298 291 299 1
633 629 758 1
325 327 361 1
301 303 368 1
715 680 717 1
353 335 460 1
86 87 244 1
688 228 690 1
235 75 814 1
393 392 394 1
496 536 785 1
8 9 217 1
249 250 251 1
610 608 611 1
738 143 739 1
352 454 489 1
421 423 424 1
366 486 487 1
397 399 400 1
833 528 947 1
381 383 772 1
303 302 304 1
895 556 954 1
441 448 804 1
449 452 785 1
200 592 797 1
226 671 672 1
716 715 717 1
368 524 806 1
349 457 469 1
368 303 472 1
410 405 411 1
246 582 584 1
185 131 758 1
465 464 474 1
367 311 753 1
298 299 300 1
586 585 955 1
382 380 406 1
395 396 397 1
301 300 302 1
417 419 468 1
372 730 779 1
519 497 568 1
361 462 513 1
518 529 808 1
424 425 458 1
303 304 763 1
261 289 736 1
680 212 841 1
107 604 854 1
391 390 392 1
215 655 656 1
567 576 577 1
524 472 525 1
500 363 501 1
661 483 776 1
102 191 768 1
391 393 461 1
387 389 456 1
540 471 821 1
301 302 303 1
365 297 473 1
300 366 760 1
298 300 301 1
478 460 484 1
672 671 673 1
728 754 755 1
393 394 395 1
472 303 763 1
458 691 781 1
397 400 403 1
36 215 669 1
628 185 629 1
267 268 269 1
722 207 738 1
366 487 760 1
304 309 763 1
302 300 760 1
402 405 410 1
257 259 306 1
493 466 726 1
411 413 444 1
389 388 390 1
188 248 817 1
267 266 268 1
308 307 813 1
286 285 358 1
406 380 810 1
323 320 773 1
284 280 285 1
480 471 539 1
12 221 812 1
529 589 877 1
504 473 548 1
724 830 848 1
309 367 763 1
440 438 783 1
383 407 772 1
391 392 393 1
46 47 178 1
505 450 527 1
251 252 254 1
74 235 770 1
73 74 770 1
39 40 797 1
702 359 813 1
490 357 492 1
186 73 770 1
842 538 912 1
387 386 388 1
126 127 765 1
457 745 798 1
356 283 357 1
389 390 391 1
632 633 634 1
632 634 771 1
278 277 351 1
482 510 532 1
254 255 256 1
559 453 560 1
499 742 743 1
633 758 818 1
358 471 480 1
297 291 298 1
533 515 604 1
378 377 379 1
514 513 515 1
400 402 767 1
387 388 389 1
415 417 766 1
833 60 904 1
385 384 386 1
370 481 482 1
272 270 293 1
530 519 790 1
466 323 773 1
269 270 271 1
284 285 286 1
354 345 819 1
276 274 277 1
298 301 774 1
374 371 782 1
727 288 791 1
429 432 802 1
159 160 780 1
577 576 578 1
577 578 778 1
385 386 387 1
743 180 952 1
284 286 287 1
306 259 736 1
757 369 931 1
376 374 531 1
514 515 533 1
15 216 864 1
361 513 514 1
322 325 795 1
563 564 566 1
439 441 804 1
403 400 767 1
59 60 833 1
509 458 526 1
290 291 297 1
476 521 522 1
419 421 796 1
360 459 819 1
402 410 767 1
177 50 719 1
462 756 801 1
507 503 542 1
271 272 273 1
726 466 773 1
472 763 793 1
42 43 817 1
473 297 774 1
772 407 971 1
287 288 290 1
325 361 795 1
492 506 541 1
13 14 811 1
290 288 291 1
566 620 894 1
297 298 774 1
287 286 288 1
468 419 796 1
417 468 766 1
421 424 796 1
492 357 506 1
424 458 509 1
213 22 851 1
888 744 927 1
632 629 633 1
869 709 962 1
383 382 384 1
383 384 385 1
427 429 802 1
256 257 788 1
269 268 270 1
181 615 960 1
202 163 826 1
566 564 567 1
127 176 765 1
763 367 793 1
574 663 943 1
448 505 804 1
290 365 827 1
157 158 823 1
276 278 279 1
614 485 809 1
381 380 382 1
525 472 793 1
707 706 910 1
273 274 275 1
639 638 784 1
381 382 383 1
160 234 780 1
283 280 284 1
271 270 272 1
379 380 381 1
645 633 818 1
567 564 575 1
201 167 789 1
279 280 283 1
624 442 650 1
205 159 780 1
531 374 782 1
276 277 278 1
567 575 576 1
10 241 870 1
621 617 940 1
578 576 579 1
432 503 507 1
634 633 645 1
273 272 274 1
774 368 806 1
526 458 781 1
712 232 914 1
75 76 814 1
286 358 791 1
487 486 825 1
641 642 643 1
578 579 647 1
559 789 911 1
361 514 795 1
257 306 788 1
563 177 564 1
379 377 380 1
359 308 813 1
358 480 791 1
295 294 370 1
376 531 549 1
279 278 280 1
375 376 377 1
57 58 820 1
163 164 826 1
148 149 835 1
432 507 802 1
200 591 592 1
567 577 829 1
3 4 238 1
275 274 276 1
345 360 819 1
786 287 827 1
496 517 536 1
641 639 642 1
473 774 806 1
351 476 792 1
424 509 796 1
561 203 892 1
23 24 880 1
285 280 803 1
136 204 935 1
183 125 881 1
248 247 249 1
295 371 372 1
225 56 883 1
282 256 294 1
237 743 952 1
548 473 806 1
636 635 858 1
206 156 822 1
482 532 569 1
822 157 823 1
409 386 849 1
757 609 916 1
357 283 786 1
284 287 786 1
506 786 827 1
540 821 921 1
765 643 881 1
448 450 505 1
373 727 838 1
288 286 791 1
372 374 375 1
480 539 816 1
577 778 970 1
278 351 803 1
11 12 812 1
294 256 788 1
156 157 822 1
283 284 786 1
375 374 376 1
494 498 857 1
660 659 855 1
295 370 371 1
571 842 882 1
277 274 807 1
382 406 836 1
779 730 863 1
180 744 888 1
506 357 786 1
91 92 239 1
282 294 295 1
476 522 792 1
192 134 918 1
459 547 819 1
254 256 282 1
711 712 914 1
196 106 854 1
178 47 597 1
681 571 867 1
688 690 878 1
272 293 807 1
813 307 966 1
372 371 374 1
532 510 900 1
642 639 784 1
351 792 803 1
471 470 821 1
758 132 818 1
782 371 815 1
459 546 547 1
158 205 823 1
510 724 848 1
76 182 814 1
486 528 825 1
249 251 253 1
67 68 872 1
179 648 852 1
229 120 928 1
380 377 810 1
626 236 959 1
576 575 805 1
370 482 815 1
528 833 904 1
488 695 925 1
704 705 910 1
280 278 803 1
164 236 826 1
579 576 805 1
811 14 864 1
508 390 879 1
100 237 952 1
194 734 825 1
725 229 834 1
739 740 861 1
523 556 951 1
188 247 248 1
444 413 844 1
6 7 245 1
709 707 872 1
894 620 956 1
191 755 891 1
490 492 850 1
809 500 847 1
274 272 807 1
377 376 810 1
695 694 914 1
547 546 927 1
519 568 790 1
841 212 896 1
621 583 908 1
604 515 854 1
376 549 810 1
183 842 912 1
516 682 930 1
371 370 815 1
791 480 838 1
415 766 844 1
550 227 968 1
518 808 913 1
221 13 811 1
282 779 824 1
123 124 912 1
98 180 888 1
140 720 968 1
735 813 966 1
566 567 829 1
189 59 833 1
232 712 905 1
806 524 840 1
388 409 879 1
19 20 939 1
287 290 827 1
553 493 869 1
722 738 861 1
834 504 915 1
571 512 842 1
585 474 828 1
812 221 917 1
552 535 874 1
148 835 929 1
61 194 904 1
661 822 823 1
608 233 865 1
482 569 815 1
395 679 967 1
720 721 862 1
70 71 946 1
233 111 865 1
71 72 886 1
658 592 923 1
96 242 845 1
293 647 903 1
727 791 838 1
230 762 884 1
149 209 835 1
647 293 906 1
227 139 968 1
251 254 824 1
57 820 883 1
762 703 884 1
526 781 851 1
223 603 934 1
21 213 843 1
384 382 836 1
182 77 933 1
187 81 839 1
240 652 933 1
241 11 812 1
882 842 957 1
663 660 898 1
493 708 869 1
718 717 841 1
112 113 920 1
747 561 892 1
922 767 936 1
151 152 895 1
81 82 839 1
201 626 959 1
121 184 928 1
146 232 905 1
208 693 951 1
211 145 905 1
525 793 832 1
369 860 931 1
840 524 937 1
827 365 837 1
95 96 845 1
771 634 830 1
68 69 962 1
717 680 841 1
830 634 848 1
695 835 925 1
413 415 844 1
603 794 934 1
659 661 855 1
384 836 849 1
313 757 916 1
254 282 824 1
489 499 932 1
9 10 870 1
411 444 899 1
195 649 958 1
541 506 837 1
244 809 847 1
601 602 961 1
369 319 965 1
542 503 896 1
769 489 932 1
660 855 898 1
236 165 959 1
203 170 892 1
232 147 929 1
253 251 824 1
513 543 938 1
480 816 838 1
22 23 851 1
754 469 891 1
789 168 911 1
591 594 887 1
386 384 849 1
14 15 864 1
835 695 929 1
931 860 944 1
209 150 954 1
511 490 850 1
548 806 840 1
367 753 945 1
397 403 972 1
403 683 893 1
645 192 900 1
106 107 854 1
647 579 901 1
126 765 881 1
82 243 839 1
691 802 846 1
242 97 888 1
506 827 837 1
578 647 906 1
634 645 848 1
621 565 956 1
87 88 866 1
78 240 933 1
393 395 967 1
730 378 856 1
268 266 970 1
667 718 841 1
180 99 952 1
760 487 966 1
778 268 970 1
184 122 859 1
243 852 853 1
683 403 922 1
253 863 868 1
635 685 858 1
683 674 893 1
169 203 911 1
767 410 936 1
111 112 865 1
502 494 857 1
563 566 894 1
166 201 959 1
755 754 891 1
667 841 896 1
802 507 846 1
867 571 882 1
195 95 845 1
125 126 881 1
556 895 951 1
725 834 915 1
583 178 908 1
614 214 953 1
738 739 861 1
594 593 868 1
89 90 871 1
748 605 860 1
649 545 942 1
743 237 932 1
807 293 903 1
475 807 903 1
804 505 973 1
97 98 888 1
2 3 926 1
611 608 865 1
186 828 886 1
24 219 880 1
244 87 866 1
183 881 957 1
768 191 924 1
661 823 855 1
690 710 878 1
406 810 949 1
94 195 958 1
823 205 855 1
193 67 872 1
196 854 938 1
403 767 922 1
606 607 944 1
542 896 939 1
517 518 913 1
56 57 883 1
623 624 873 1
175 223 934 1
880 219 909 1
179 85 890 1
249 253 941 1
703 702 884 1
860 369 965 1
190 869 962 1
605 606 944 1
390 388 879 1
930 209 954 1
855 205 898 1
237 769 932 1
642 784 867 1
86 244 890 1
170 171 892 1
674 679 893 1
510 848 900 1
679 395 972 1
835 209 925 1
733 230 884 1
689 687 969 1
216 716 919 1
214 89 871 1
88 214 866 1
678 677 936 1
832 793 945 1
617 364 940 1
85 86 890 1
808 217 870 1
8 217 902 1
92 93 885 1
7 8 902 1
219 689 909 1
469 537 891 1
504 548 915 1
72 186 886 1
729 666 889 1
612 832 945 1
615 225 948 1
403 893 972 1
682 488 925 1
468 950 969 1
712 508 907 1
503 667 896 1
60 61 904 1
643 642 882 1
168 169 911 1
565 563 894 1
145 146 905 1
609 610 916 1
592 591 887 1
152 208 895 1
706 704 910 1
134 135 918 1
522 521 948 1
918 135 935 1
642 867 882 1
410 411 899 1
517 913 917 1
694 711 914 1
610 753 916 1
77 78 933 1
884 702 963 1
549 550 949 1
240 800 874 1
740 211 907 1
120 121 928 1
90 91 897 1
99 100 952 1
135 136 935 1
677 922 936 1
217 9 870 1
205 780 898 1
733 884 963 1
657 658 971 1
730 856 863 1
950 689 969 1
174 175 934 1
619 621 956 1
556 516 930 1
113 197 920 1
607 609 931 1
778 578 906 1
198 725 915 1
753 313 916 1
244 847 890 1
875 731 926 1
796 509 950 1
253 868 941 1
93 94 958 1
147 148 929 1
124 183 912 1
848 645 900 1
321 748 965 1
693 523 951 1
468 796 950 1
769 768 924 1
165 166 959 1
178 597 908 1
239 92 885 1
536 517 917 1
862 406 949 1
190 70 946 1
854 515 938 1
212 19 939 1
443 804 973 1
815 569 964 1
515 513 938 1
524 525 937 1
139 140 968 1
702 813 963 1
505 527 919 1
821 522 921 1
896 212 939 1
150 151 954 1
91 239 897 1
499 743 932 1
235 831 955 1
735 733 963 1
266 296 970 1
881 643 957 1
831 586 955 1
307 760 966 1
319 321 965 1
770 235 955 1
602 181 960 1
69 190 962 1
592 887 923 1
793 367 945 1
842 183 957 1
461 393 967 1
813 735 963 1
395 397 972 1
238 4 975 1
248 249 941 1
868 593 941 1
189 833 947 1
766 468 969 1
687 766 969 1
4 5 975 1
877 245 902 1
245 7 902 1
5 6 974 1
520 816 947 1
217 877 902 1
3 238 926 1
871 90 897 1
810 549 949 1
238 875 926 1
6 245 974 1
579 805 961 1
649 885 958 1
782 815 964 1
899 678 936 1
509 909 950 1
885 93 958 1
245 876 974 1
550 862 949 1
885 649 942 1
876 238 975 1
748 860 965 1
901 579 961 1
860 605 944 1
556 930 954 1
607 931 944 1
602 901 961 1
410 899 936 1
225 921 948 1
565 894 956 1
643 882 957 1
893 679 972 1
239 885 942 1
895 208 951 1
214 871 953 1
909 689 950 1
921 522 948 1
5 974 975 1
974 876 975 1

End
