MeshVersionFormatted 2
Dimension 3

Vertices
709
-4.6403771399653702e-02 -6.9130823398073443e-02 0.0000000000000000e+00 1
-4.4951104131403109e-02 -7.6027968526808459e-02 0.0000000000000000e+00 1
-4.3214731892661895e-02 -8.3598245638415392e-02 0.0000000000000000e+00 1
-4.1208755648689185e-02 -9.1798861758018990e-02 0.0000000000000000e+00 1
-3.8947276364744071e-02 -1.0058702391074423e-01 0.0000000000000000e+00 1
-3.6444395006085685e-02 -1.0991993912171585e-01 0.0000000000000000e+00 1
-3.3714212537973125e-02 -1.1975481441605879e-01 0.0000000000000000e+00 1
-3.0770829925665509e-02 -1.3004885681889797e-01 0.0000000000000000e+00 1
-2.7628348134421943e-02 -1.4075927335535809e-01 0.0000000000000000e+00 1
-2.4300868129501538e-02 -1.5184327105056411e-01 0.0000000000000000e+00 1
-2.0802490876163399e-02 -1.6325805692964088e-01 0.0000000000000000e+00 1
-1.7147317339666644e-02 -1.7496083801771320e-01 0.0000000000000000e+00 1
-1.3349448485270372e-02 -1.8690882133990586e-01 0.0000000000000000e+00 1
-9.4229852782337191e-03 -1.9905921392134404e-01 0.0000000000000000e+00 1
-5.3820286838157597e-03 -2.1136922278715223e-01 0.0000000000000000e+00 1
-1.2406796672756373e-03 -2.2379605496245544e-01 0.0000000000000000e+00 1
2.9869608061275556e-03 -2.3629691747237849e-01 0.0000000000000000e+00 1
7.2867917711347003e-03 -2.4882901734204635e-01 0.0000000000000000e+00 1
1.1644712262486695e-02 -2.6134956159658373e-01 0.0000000000000000e+00 1
1.6046621314924431e-02 -2.7381575726111551e-01 0.0000000000000000e+00 1
2.0478417963188798e-02 -2.8618481136076679e-01 0.0000000000000000e+00 1
2.4926001242020657e-02 -2.9841393092066204e-01 0.0000000000000000e+00 1
2.9375270186160950e-02 -3.1046032296592641e-01 0.0000000000000000e+00 1
3.3812123830350517e-02 -3.2228119452168458e-01 0.0000000000000000e+00 1
3.8222461209330268e-02 -3.3383375261306147e-01 0.0000000000000000e+00 1
4.2592181357841090e-02 -3.4507520426518190e-01 0.0000000000000000e+00 1
4.6907183310623886e-02 -3.5596275650317077e-01 0.0000000000000000e+00 1
5.1153366102419516e-02 -3.6645361635215290e-01 0.0000000000000000e+00 1
5.5316628767968910e-02 -3.7650499083725331e-01 0.0000000000000000e+00 1
5.9382870342012929e-02 -3.8607408698359658e-01 0.0000000000000000e+00 1
6.3337989859292454e-02 -3.9511811181630774e-01 0.0000000000000000e+00 1
6.7167886354548401e-02 -4.0359427236051182e-01 0.0000000000000000e+00 1
7.0858458862521623e-02 -4.1145977564133329e-01 0.0000000000000000e+00 1
7.4395606417953092e-02 -4.1867182868389730e-01 0.0000000000000000e+00 1
7.7765228055583585e-02 -4.2518763851332841e-01 0.0000000000000000e+00 1
8.0953222810154060e-02 -4.3096441215475190e-01 0.0000000000000000e+00 1
8.3945489716405405e-02 -4.3595935663329222e-01 0.0000000000000000e+00 1
8.6727927809078509e-02 -4.4012967897407440e-01 0.0000000000000000e+00 1
8.9286436122914231e-02 -4.4343258620222337e-01 0.0000000000000000e+00 1
9.1606913692653502e-02 -4.4582528534286392e-01 0.0000000000000000e+00 1
9.3675259553037155e-02 -4.4726498342112087e-01 0.0000000000000000e+00 1
9.5477372738806146e-02 -4.4770888746211912e-01 0.0000000000000000e+00 1
9.6999152284701323e-02 -4.4711420449098349e-01 0.0000000000000000e+00 1
9.8226497225463574e-02 -4.4543814153283889e-01 0.0000000000000000e+00 1
9.9145306595833815e-02 -4.4263790561281013e-01 0.0000000000000000e+00 1
9.9741479430552907e-02 -4.3867070375602202e-01 0.0000000000000000e+00 1
1.0000091476436176e-01 -4.3349374298759957e-01 0.0000000000000000e+00 1
1.0006053926295694e-01 -4.2499991158107697e-01 0.0000000000000000e+00 1
9.9992510028600434e-02 -4.1622488545685943e-01 0.0000000000000000e+00 1
9.9799764121934434e-02 -4.0717651749962536e-01 0.0000000000000000e+00 1
9.9485238603601117e-02 -3.9786266059405218e-01 0.0000000000000000e+00 1
9.9051870534242706e-02 -3.8829116762481841e-01 0.0000000000000000e+00 1
9.8502596974501297e-02 -3.7846989147660159e-01 0.0000000000000000e+00 1
9.7840354985019168e-02 -3.6840668503407992e-01 0.0000000000000000e+00 1
9.7068081626438457e-02 -3.5810940118193102e-01 0.0000000000000000e+00 1
9.6188713959401359e-02 -3.4758589280483321e-01 0.0000000000000000e+00 1
9.5205189044550040e-02 -3.3684401278746401e-01 0.0000000000000000e+00 1
9.4120443942526708e-02 -3.2589161401450184e-01 0.0000000000000000e+00 1
9.2937415713973501e-02 -3.1473654937062423e-01 0.0000000000000000e+00 1
9.1659041419532655e-02 -3.0338667174050948e-01 0.0000000000000000e+00 1
9.0288258119846324e-02 -2.9184983400883524e-01 0.0000000000000000e+00 1
8.8828002875556700e-02 -2.8013388906027958e-01 0.0000000000000000e+00 1
8.7281212747305909e-02 -2.6824668977952038e-01 0.0000000000000000e+00 1
8.5650824795736255e-02 -2.5619608905123570e-01 0.0000000000000000e+00 1
8.3939776081489850e-02 -2.4398993976010355e-01 0.0000000000000000e+00 1
8.2151003665208819e-02 -2.3163609479080158e-01 0.0000000000000000e+00 1
8.0287444607535424e-02 -2.1914240702800783e-01 0.0000000000000000e+00 1
7.8352035969111847e-02 -2.0651672935640045e-01 0.0000000000000000e+00 1
7.6347714810580281e-02 -1.9376691466065718e-01 0.0000000000000000e+00 1
7.4277418192582809e-02 -1.8090081582545600e-01 0.0000000000000000e+00 1
7.2144083175761695e-02 -1.6792628573547497e-01 0.0000000000000000e+00 1
6.9950646820759119e-02 -1.5485117727539185e-01 0.0000000000000000e+00 1
6.7700046188217303e-02 -1.4168334332988483e-01 0.0000000000000000e+00 1
6.5395218338778344e-02 -1.2843063678363162e-01 0.0000000000000000e+00 1
6.3039100333084463e-02 -1.1510091052131019e-01 0.0000000000000000e+00 1
6.0634629231777822e-02 -1.0170201742759852e-01 0.0000000000000000e+00 1
5.8184742095500640e-02 -8.8241810387174685e-02 0.0000000000000000e+00 1
5.5692375984895105e-02 -7.4728142284716498e-02 0.0000000000000000e+00 1
5.3160467960603329e-02 -6.1168866004901817e-02 0.0000000000000000e+00 1
5.0591955083267560e-02 -4.7571834432408672e-02 0.0000000000000000e+00 1
4.7989774413529987e-02 -3.3944900451915158e-02 0.0000000000000000e+00 1
4.5356863012032768e-02 -2.0295916948099083e-02 0.0000000000000000e+00 1
4.2696157939418063e-02 -6.6327368056382785e-03 0.0000000000000000e+00 1
4.0010596256328100e-02 7.0367870907890734e-03 0.0000000000000000e+00 1
3.7303115023405019e-02 2.0704801856505285e-02 0.0000000000000000e+00 1
3.4576651301291041e-02 3.4363454606832163e-02 0.0000000000000000e+00 1
3.1834142150628318e-02 4.8004892457091997e-02 0.0000000000000000e+00 1
2.9078524632059059e-02 6.1621262522606621e-02 0.0000000000000000e+00 1
2.6312735806225424e-02 7.5204711918698292e-02 0.0000000000000000e+00 1
2.3539712733769619e-02 8.8747387760688870e-02 0.0000000000000000e+00 1
2.0762392475333805e-02 1.0224143716390063e-01 0.0000000000000000e+00 1
1.7983712091560182e-02 1.1567900724365540e-01 0.0000000000000000e+00 1
1.5206608643090902e-02 1.2905224511527547e-01 0.0000000000000000e+00 1
1.2434019190568196e-02 1.4235329789408269e-01 0.0000000000000000e+00 1
9.6688807946342225e-03 1.5557431269539915e-01 0.0000000000000000e+00 1
6.9141305159311373e-03 1.6870743663454707e-01 0.0000000000000000e+00 1
4.1727054151011727e-03 1.8174481682684832e-01 0.0000000000000000e+00 1
1.4475425527864638e-03 1.9467860038762511e-01 0.0000000000000000e+00 1
-1.2584210103707607e-03 2.0750093443219933e-01 0.0000000000000000e+00 1
-3.9422482137283707e-03 2.2020396607589324e-01 0.0000000000000000e+00 1
-6.6010019966441270e-03 2.3277984243402863e-01 0.0000000000000000e+00 1
-9.2317452984758911e-03 2.4522071062192785e-01 0.0000000000000000e+00 1
-1.1831541058581446e-02 2.5751871775491270e-01 0.0000000000000000e+00 1
-1.4397452216318649e-02 2.6966601094830545e-01 0.0000000000000000e+00 1
-1.6926541711045275e-02 2.8165473731742796e-01 0.0000000000000000e+00 1
-1.9415872482119179e-02 2.9347704397760244e-01 0.0000000000000000e+00 1
-2.1862507468898139e-02 3.0512507804415084e-01 0.0000000000000000e+00 1
-2.4263509610740017e-02 3.1659098663239538e-01 0.0000000000000000e+00 1
-2.6615941847002583e-02 3.2786691685765790e-01 0.0000000000000000e+00 1
-2.8916867117043700e-02 3.3894501583526060e-01 0.0000000000000000e+00 1
-3.1163348360221145e-02 3.4981743068052540e-01 0.0000000000000000e+00 1
-3.3352448515892752e-02 3.6047630850877455e-01 0.0000000000000000e+00 1
-3.5481230523416361e-02 3.7091379643532996e-01 0.0000000000000000e+00 1
-3.7546757322149751e-02 3.8112204157551377e-01 0.0000000000000000e+00 1
-3.9546091851450769e-02 3.9109319104464801e-01 0.0000000000000000e+00 1
-4.0306078934092451e-02 3.9364631320277388e-01 0.0000000000000000e+00 1
-4.1607828152100283e-02 3.9660737006154545e-01 0.0000000000000000e+00 1
-4.3370135952637875e-02 3.9987617639859530e-01 0.0000000000000000e+00 1
-4.5511798782868804e-02 4.0335254699155587e-01 0.0000000000000000e+00 1
-4.7951613089956692e-02 4.0693629661805997e-01 0.0000000000000000e+00 1
-5.0608375321065109e-02 4.1052724005573993e-01 0.0000000000000000e+00 1
-5.3400881923357672e-02 4.1402519208222854e-01 0.0000000000000000e+00 1
-5.6247929343997971e-02 4.1732996747515827e-01 0.0000000000000000e+00 1
-5.9068314030149588e-02 4.2034138101216179e-01 0.0000000000000000e+00 1
-6.1780832428976140e-02 4.2295924747087144e-01 0.0000000000000000e+00 1
-6.4304280987641210e-02 4.2508338162892001e-01 0.0000000000000000e+00 1
-6.6557456153308409e-02 4.2661359826394007e-01 0.0000000000000000e+00 1
-6.8459154373141304e-02 4.2744971215356409e-01 0.0000000000000000e+00 1
-6.9928172094303506e-02 4.2749153807542462e-01 0.0000000000000000e+00 1
-7.0883305763958626e-02 4.2663889080715445e-01 0.0000000000000000e+00 1
-7.1243351829270246e-02 4.2479158512638593e-01 0.0000000000000000e+00 1
-7.1355702310929553e-02 4.1686436989921660e-01 0.0000000000000000e+00 1
-7.1459087006000233e-02 4.0873197152531027e-01 0.0000000000000000e+00 1
-7.1552655544687718e-02 4.0040300383434380e-01 0.0000000000000000e+00 1
-7.1635557557197499e-02 3.9188608065599440e-01 0.0000000000000000e+00 1
-7.1706942673734994e-02 3.8318981581993872e-01 0.0000000000000000e+00 1
-7.1765960524505693e-02 3.7432282315585419e-01 0.0000000000000000e+00 1
-7.1811760739715055e-02 3.6529371649341758e-01 0.0000000000000000e+00 1
-7.1843492949568516e-02 3.5611110966230564e-01 0.0000000000000000e+00 1
-7.1860306784271535e-02 3.4678361649219580e-01 0.0000000000000000e+00 1
-7.1861351874029603e-02 3.3731985081276494e-01 0.0000000000000000e+00 1
-7.1845777849048151e-02 3.2772842645368994e-01 0.0000000000000000e+00 1
-7.1812734339532641e-02 3.1801795724464788e-01 0.0000000000000000e+00 1
-7.1761370975688549e-02 3.0819705701531575e-01 0.0000000000000000e+00 1
-7.1690837387721307e-02 2.9827433959537053e-01 0.0000000000000000e+00 1
-7.1600283205836390e-02 2.8825841881448921e-01 0.0000000000000000e+00 1
-7.1488858060239260e-02 2.7815790850234895e-01 0.0000000000000000e+00 1
-7.1355711581135378e-02 2.6798142248862655e-01 0.0000000000000000e+00 1
-7.1199993398730177e-02 2.5773757460299906e-01 0.0000000000000000e+00 1
-7.1020853143229146e-02 2.4743497867514347e-01 0.0000000000000000e+00 1
-7.0817440444837718e-02 2.3708224853473689e-01 0.0000000000000000e+00 1
-7.0588904933761368e-02 2.2668799801145612e-01 0.0000000000000000e+00 1
-7.0334396240205543e-02 2.1626084093497833e-01 0.0000000000000000e+00 1
-7.0053063994375733e-02 2.0580939113498053e-01 0.0000000000000000e+00 1
-6.9744057826477343e-02 1.9534226244113956e-01 0.0000000000000000e+00 1
-6.9406527366715876e-02 1.8486806868313255e-01 0.0000000000000000e+00 1
-6.9039622245296778e-02 1.7439542369063654e-01 0.0000000000000000e+00 1
-6.8642492092425497e-02 1.6393294129332839e-01 0.0000000000000000e+00 1
-6.8214286538307523e-02 1.5348923532088515e-01 0.0000000000000000e+00 1
-6.7754155213148273e-02 1.4307291960298391e-01 0.0000000000000000e+00 1
-6.7261247747153224e-02 1.3269260796930152e-01 0.0000000000000000e+00 1
-6.6734713770527851e-02 1.2235691424951514e-01 0.0000000000000000e+00 1
-6.6173702913477586e-02 1.1207445227330164e-01 0.0000000000000000e+00 1
-6.5577364806207891e-02 1.0185383587033806e-01 0.0000000000000000e+00 1
-6.4944849078924255e-02 9.1703678870301439e-02 0.0000000000000000e+00 1
-6.4275305361832097e-02 8.1632595102868688e-02 0.0000000000000000e+00 1
-6.3567883285136892e-02 7.1649198397716954e-02 0.0000000000000000e+00 1
-6.2821732479044101e-02 6.1762102584523075e-02 0.0000000000000000e+00 1
-6.2036002573759193e-02 5.1979921492964126e-02 0.0000000000000000e+00 1
-6.1209843199487600e-02 4.2311268952717168e-02 0.0000000000000000e+00 1
-6.0342403986434805e-02 3.2764758793459074e-02 0.0000000000000000e+00 1
-5.9432834564806254e-02 2.3349004844866905e-02 0.0000000000000000e+00 1
-5.8480284564807410e-02 1.4072620936617722e-02 0.0000000000000000e+00 1
-5.7483903616643732e-02 4.9442208983884045e-03 0.0000000000000000e+00 1
-5.6442841350520676e-02 -4.0275814401439791e-03 0.0000000000000000e+00 1
-5.5356247396643701e-02 -1.2834172249302375e-02 0.0000000000000000e+00 1
-5.4223271385218270e-02 -2.1466937699409896e-02 0.0000000000000000e+00 1
-5.3043062946449830e-02 -2.9917263960789447e-02 0.0000000000000000e+00 1
-5.1814771710543855e-02 -3.8176537203764113e-02 0.0000000000000000e+00 1
-5.0537547307705794e-02 -4.6236143598656881e-02 0.0000000000000000e+00 1
-4.9210539368141112e-02 -5.4087469315790643e-02 0.0000000000000000e+00 1
-4.7832897522055252e-02 -6.1721900525488538e-02 0.0000000000000000e+00 1
-3.9903678527707112e-02 -7.1153595682281814e-02 0.0000000000000000e+00 1
-3.1277169113896962e-02 -9.4184333232433068e-02 0.0000000000000000e+00 1
-4.4032115083075724e-02 -4.7934743014543375e-02 0.0000000000000000e+00 1
-4.6876145777847558e-02 -2.4871057804984022e-02 0.0000000000000000e+00 1
-4.9330441563140232e-02 1.6636996306654500e-03 0.0000000000000000e+00 1
-5.2316013026469405e-02 2.7520269093068171e-02 0.0000000000000000e+00 1
-2.3535692668233847e-02 -1.2241228614803644e-01 0.0000000000000000e+00 1
-5.4062916550533358e-02 5.7455042325248430e-02 0.0000000000000000e+00 1
4.0102082198766230e-02 -5.6107947528143208e-02 0.0000000000000000e+00 1
-5.7118183332958344e-02 8.7752313166818599e-02 0.0000000000000000e+00 1
-1.1044693033298386e-02 -1.5551417494543207e-01 0.0000000000000000e+00 1
2.9461808886587511e-02 -2.2576219783850913e-03 0.0000000000000000e+00 1
-5.6556843550823001e-02 1.1758633828594062e-01 0.0000000000000000e+00 1
4.7612341971308370e-02 -9.6760675329607623e-02 0.0000000000000000e+00 1
1.8693155205209810e-02 5.2009076482194251e-02 0.0000000000000000e+00 1
-5.8663875229517368e-02 1.5038118204778836e-01 0.0000000000000000e+00 1
-4.1886619343957794e-04 -1.8859612716040411e-01 0.0000000000000000e+00 1
-4.2837551600054855e-02 3.9369668524691676e-01 0.0000000000000000e+00 1
-6.0438022546452003e-02 1.8108808967447573e-01 0.0000000000000000e+00 1
6.5924907140288216e-02 -2.0191855688401872e-01 0.0000000000000000e+00 1
5.6914712107688559e-02 -1.5195685739946316e-01 0.0000000000000000e+00 1
1.0488206603352640e-02 9.3093987096841593e-02 0.0000000000000000e+00 1
7.2157795442886849e-02 -2.3933834955694736e-01 0.0000000000000000e+00 1
-6.2092478916788575e-02 2.1012807593232818e-01 0.0000000000000000e+00 1
2.5366061054121615e-03 1.3266227496502528e-01 0.0000000000000000e+00 1
7.7693778570261163e-02 -2.7510723907012596e-01 0.0000000000000000e+00 1
-6.3074520635160738e-02 2.4435125881229189e-01 0.0000000000000000e+00 1
-5.7910806594541984e-03 1.7403228426158557e-01 0.0000000000000000e+00 1
1.0865940324358177e-02 -2.2660872447025779e-01 0.0000000000000000e+00 1
3.4918609039532200e-02 -2.9939860053155243e-02 0.0000000000000000e+00 1
2.4290145543233586e-02 2.4949885908786246e-02 0.0000000000000000e+00 1
5.2932456382255307e-02 -1.2376809720854613e-01 0.0000000000000000e+00 1
6.1990541807594723e-02 -1.7525433481860184e-01 0.0000000000000000e+00 1
-1.1387828773911715e-02 1.9882768790555347e-01 0.0000000000000000e+00 1
8.1066881078180483e-02 -2.9879535472805907e-01 0.0000000000000000e+00 1
-6.1762451558993049e-02 2.6277484293798797e-01 0.0000000000000000e+00 1
-6.3028598980164607e-02 2.8394410303550799e-01 0.0000000000000000e+00 1
2.4468257947377212e-02 -2.6347159082151012e-01 0.0000000000000000e+00 1
8.3626419669682886e-02 -3.2160910673186993e-01 0.0000000000000000e+00 1
-4.7485671932743806e-02 4.0007807357768138e-01 0.0000000000000000e+00 1
-5.2297432998885729e-02 4.0594817234683528e-01 0.0000000000000000e+00 1
-1.6716246626514497e-02 2.2317820049617187e-01 0.0000000000000000e+00 1
-6.3176916232507346e-02 3.0329646844266961e-01 0.0000000000000000e+00 1
8.6614612018953221e-02 -3.4240885181646913e-01 0.0000000000000000e+00 1
3.4475121918454518e-02 -2.8918718573375846e-01 0.0000000000000000e+00 1
-6.3258129528196649e-02 3.2259988052588273e-01 0.0000000000000000e+00 1
8.9779843609325685e-02 -3.6397162758012452e-01 0.0000000000000000e+00 1
-6.4557400746360960e-02 3.8786371390409941e-01 0.0000000000000000e+00 1
-2.0059562281998317e-02 2.4958479400296360e-01 0.0000000000000000e+00 1
4.1167809761523844e-02 -3.1283190666734650e-01 0.0000000000000000e+00 1
-6.4189044184639485e-02 3.4204578081814857e-01 0.0000000000000000e+00 1
-2.5708420250601823e-02 2.7348604368718493e-01 0.0000000000000000e+00 1
6.9011233623040805e-02 -3.8821047198377878e-01 0.0000000000000000e+00 1
5.0001678139519737e-02 -3.3572500863728583e-01 0.0000000000000000e+00 1
-6.3589309101393279e-02 3.6098832532743824e-01 0.0000000000000000e+00 1
-3.0545144807139712e-02 2.9722330485915588e-01 0.0000000000000000e+00 1
5.7659880032382101e-02 -3.5769027563979694e-01 0.0000000000000000e+00 1
7.5524266957153668e-02 -4.0405488011457319e-01 0.0000000000000000e+00 1
9.3913012025139159e-02 -4.4466503592738532e-01 0.0000000000000000e+00 1
-3.5057247544344236e-02 3.2010805904419409e-01 0.0000000000000000e+00 1
-4.4491398730365429e-02 3.8447246569385224e-01 0.0000000000000000e+00 1
9.0645806590944192e-02 -4.4081232479481036e-01 0.0000000000000000e+00 1
-5.8146935140245812e-02 4.1310753143721701e-01 0.0000000000000000e+00 1
-4.1109437901205088e-02 3.5292358370204585e-01 0.0000000000000000e+00 1
8.0851671878789722e-02 -4.1920241750707149e-01 0.0000000000000000e+00 1
8.9100042437632462e-02 -3.8434101284454442e-01 0.0000000000000000e+00 1
9.4390982863444287e-02 -4.2979206894392769e-01 0.0000000000000000e+00 1
-6.6598850897413686e-02 4.2412868850605173e-01 0.0000000000000000e+00 1
-6.4647482071914855e-02 4.0565166252572865e-01 0.0000000000000000e+00 1
9.1500329219467505e-02 -4.0342670758704730e-01 0.0000000000000000e+00 1
-6.9031910922374901e-02 4.2597645545209334e-01 0.0000000000000000e+00 1
-6.2713976909661115e-02 4.1956295268525690e-01 0.0000000000000000e+00 1
9.5894547180053580e-02 -4.3588293974867443e-01 0.0000000000000000e+00 1
9.6354375812032184e-02 -4.4348690429031629e-01 0.0000000000000000e+00 1
-6.4485555563803656e-02 3.9506499362324476e-01 0.0000000000000000e+00 1
-5.8454013281966817e-02 3.9179998974406249e-01 0.0000000000000000e+00 1
-5.7852398317723770e-02 3.8477200151773350e-01 0.0000000000000000e+00 1
-5.8232954460222280e-02 3.9785167228943646e-01 0.0000000000000000e+00 1
-5.3053871046924148e-02 3.9498180755675488e-01 0.0000000000000000e+00 1
9.0931959720639957e-02 -4.3352654684413577e-01 0.0000000000000000e+00 1
8.8911983855216786e-02 -4.2705868654232487e-01 0.0000000000000000e+00 1
9.3312853853683167e-02 -4.2201992631825852e-01 0.0000000000000000e+00 1
9.1486759228801978e-02 -4.1282734329288151e-01 0.0000000000000000e+00 1
-4.4036589654503730e-02 3.7573121138942805e-01 0.0000000000000000e+00 1
-6.4171808602739133e-02 3.7981792399907910e-01 0.0000000000000000e+00 1
-5.7620339676787417e-02 3.7811006694981741e-01 0.0000000000000000e+00 1
-6.4799305376824212e-02 4.1181341498298907e-01 0.0000000000000000e+00 1
8.4064012419459266e-02 -4.0772786800562194e-01 0.0000000000000000e+00 1
8.3397130100271111e-02 -3.9943287817315570e-01 0.0000000000000000e+00 1
-6.2318092271057987e-02 3.7078176641191846e-01 0.0000000000000000e+00 1
-5.4153177443425238e-02 3.6337034733341317e-01 0.0000000000000000e+00 1
-5.6300767082291189e-02 3.5407755775157762e-01 0.0000000000000000e+00 1
7.6537817600958985e-02 -3.9459835290802786e-01 0.0000000000000000e+00 1
7.8960386062329274e-02 -3.8584916127413726e-01 0.0000000000000000e+00 1
7.3499459793341590e-02 -3.7857057329812221e-01 0.0000000000000000e+00 1
-5.2957026283941146e-02 3.8913210495686323e-01 0.0000000000000000e+00 1
-4.3602346202499434e-02 3.6391528105571552e-01 0.0000000000000000e+00 1
-5.2411368001098045e-02 4.0034829133641670e-01 0.0000000000000000e+00 1
-5.7791821618659936e-02 4.0410312788120067e-01 0.0000000000000000e+00 1
3.7774630991735100e-02 -4.3052114838229294e-02 0.0000000000000000e+00 1
2.7751055120000468e-02 -5.1672423735714006e-02 0.0000000000000000e+00 1
2.9894393344318083e-02 -6.4070730023952263e-02 0.0000000000000000e+00 1
1.8490853456409221e-02 -5.9700626091684812e-02 0.0000000000000000e+00 1
2.0370919204959967e-02 -7.1516683883031576e-02 0.0000000000000000e+00 1
9.5592975450941222e-03 -6.7239196359092854e-02 0.0000000000000000e+00 1
7.4792197208148857e-03 -5.6161174051889931e-02 0.0000000000000000e+00 1
1.1246064632323985e-02 -7.8685822134292455e-02 0.0000000000000000e+00 1
-8.0536394063578944e-04 -6.3166169559515248e-02 0.0000000000000000e+00 1
-2.7175413893662857e-03 -5.2705372104768451e-02 0.0000000000000000e+00 1
-1.0594376011212363e-02 -5.9393911505460577e-02 0.0000000000000000e+00 1
-1.2458802796535143e-02 -4.9417377919927556e-02 0.0000000000000000e+00 1
-4.6563343290240856e-03 -4.2570241268169724e-02 0.0000000000000000e+00 1
-1.4432881291182937e-02 -3.9331310610101193e-02 0.0000000000000000e+00 1
-6.6104994333265957e-03 -3.2367804427529297e-02 0.0000000000000000e+00 1
-8.9529234468417682e-03 -6.9471897820217787e-02 0.0000000000000000e+00 1
-1.6508702501950665e-02 -2.9140951507845587e-02 0.0000000000000000e+00 1
-8.5353939627057940e-03 -2.2057803949056220e-02 0.0000000000000000e+00 1
-1.8572944471474277e-02 -1.8801762359052506e-02 0.0000000000000000e+00 1
-1.0640950759198216e-02 -1.1664083702103494e-02 0.0000000000000000e+00 1
-2.0658244409136252e-02 -8.3365009381627889e-03 0.0000000000000000e+00 1
-1.2621612973487566e-02 -1.1365767529695615e-03 0.0000000000000000e+00 1
-2.2731761646244228e-02 2.3997827917283921e-03 0.0000000000000000e+00 1
-1.4689437385219753e-02 9.5019649684626936e-03 0.0000000000000000e+00 1
-2.4869861581957423e-02 1.2872012089037344e-02 0.0000000000000000e+00 1
-1.6752862045856659e-02 2.0181377528062917e-02 0.0000000000000000e+00 1
-4.3388643400625350e-03 6.7146495757647471e-03 0.0000000000000000e+00 1
1.7300179496205388e-03 -2.5827062909338529e-02 0.0000000000000000e+00 1
-1.9966054353409320e-02 -5.6150657098411466e-02 0.0000000000000000e+00 1
-2.7045574723262002e-02 2.3595297902420206e-02 0.0000000000000000e+00 1
-1.8712081347414269e-02 3.1002076942322057e-02 0.0000000000000000e+00 1
-2.9179098728537363e-02 3.4410592447570047e-02 0.0000000000000000e+00 1
-2.0800529367347297e-02 4.1867032582576749e-02 0.0000000000000000e+00 1
-8.3432547332530846e-03 2.6852798100555183e-02 0.0000000000000000e+00 1
-2.4137733193289761e-02 -3.6095730748775458e-02 0.0000000000000000e+00 1
-3.1246559517955658e-02 4.5331036930353841e-02 0.0000000000000000e+00 1
-2.2912429272390202e-02 5.2786358228364701e-02 0.0000000000000000e+00 1
-1.2295422712979325e-02 4.9191677217018365e-02 0.0000000000000000e+00 1
-1.4565158216656840e-02 6.0461090770671411e-02 0.0000000000000000e+00 1
-2.5311609156763497e-02 6.4045635851145977e-02 0.0000000000000000e+00 1
-1.6888442766700013e-02 7.1833665500598803e-02 0.0000000000000000e+00 1
-2.7741601998337605e-02 7.5414403314869788e-02 0.0000000000000000e+00 1
-1.9287899233021526e-02 8.3224476300814823e-02 0.0000000000000000e+00 1
-3.0174421133523272e-02 8.6688699578967687e-02 0.0000000000000000e+00 1
-2.1558057229635878e-02 9.4635908270739269e-02 0.0000000000000000e+00 1
-3.2592945087105238e-02 9.8125390527296977e-02 0.0000000000000000e+00 1
-2.3959480833437827e-02 1.0603976430848526e-01 0.0000000000000000e+00 1
-5.1993610695039542e-03 6.8332073596122339e-02 0.0000000000000000e+00 1
2.1635079160216064e-02 -8.2661849764605888e-02 0.0000000000000000e+00 1
1.2684976235853015e-02 -9.0140632885666747e-02 0.0000000000000000e+00 1
1.0298342447132367e-03 -8.6224146995968573e-02 0.0000000000000000e+00 1
3.4351910511662550e-03 -9.7856295132531634e-02 0.0000000000000000e+00 1
1.4134647417055266e-02 -1.0183024135023749e-01 0.0000000000000000e+00 1
4.7655969834760475e-03 -1.0887034737772826e-01 0.0000000000000000e+00 1
1.5635325916519387e-02 -1.1340289484669436e-01 0.0000000000000000e+00 1
6.0231668109741090e-03 -1.2047598566249416e-01 0.0000000000000000e+00 1
1.7676672727906531e-02 -1.2514858683375585e-01 0.0000000000000000e+00 1
7.6275579019074741e-03 -1.3193112648627378e-01 0.0000000000000000e+00 1
1.9221982180224029e-02 -1.3702298324819540e-01 0.0000000000000000e+00 1
-5.2609297445574106e-03 -1.0532284472027065e-01 0.0000000000000000e+00 1
-3.4985986753667458e-02 1.0958797824197110e-01 0.0000000000000000e+00 1
-2.6466224782612714e-02 1.1742017379230628e-01 0.0000000000000000e+00 1
-1.5414185336575488e-02 1.1426604194429663e-01 0.0000000000000000e+00 1
-3.5045640232376225e-02 1.6439996120032413e-02 0.0000000000000000e+00 1
-3.7409283526802582e-02 1.2098038124863571e-01 0.0000000000000000e+00 1
-2.8912879212993157e-02 1.2878971376950113e-01 0.0000000000000000e+00 1
-3.9870818841860688e-02 1.3240121486372858e-01 0.0000000000000000e+00 1
-3.1331794420135575e-02 1.4033062904212887e-01 0.0000000000000000e+00 1
2.8150847493677043e-02 -1.1644329207482818e-01 0.0000000000000000e+00 1
7.2057234458418060e-03 -1.4451193444434002e-01 0.0000000000000000e+00 1
1.9594230168028103e-02 -1.4928258050457677e-01 0.0000000000000000e+00 1
9.7520886690380428e-03 -1.5649366470435228e-01 0.0000000000000000e+00 1
2.1016029880566299e-02 -1.6151244961642922e-01 0.0000000000000000e+00 1
3.1750106626639608e-02 -1.4125033572017212e-01 0.0000000000000000e+00 1
-2.8496429538633020e-02 -1.5702200528365202e-02 0.0000000000000000e+00 1
-3.6264278629420277e-02 6.7716716812750988e-02 0.0000000000000000e+00 1
1.1034507737506780e-02 -1.6880217735443001e-01 0.0000000000000000e+00 1
2.2413397683750058e-02 -1.7388261509985670e-01 0.0000000000000000e+00 1
3.2491616921002678e-02 -1.6647282286672210e-01 0.0000000000000000e+00 1
3.3359401887320062e-02 -1.7903914985689737e-01 0.0000000000000000e+00 1
2.3619170685207098e-02 -1.8641532484772935e-01 0.0000000000000000e+00 1
3.4618568249471557e-02 -1.9165479694196805e-01 0.0000000000000000e+00 1
2.4841877466475901e-02 -1.9907180608399330e-01 0.0000000000000000e+00 1
3.6522982022411589e-02 -2.0429501377722745e-01 0.0000000000000000e+00 1
-4.3357940000416879e-02 1.0198953183956677e-01 0.0000000000000000e+00 1
-2.0466707428159717e-02 1.3688525761361192e-01 0.0000000000000000e+00 1
-2.2727908708785806e-02 1.4830789758573165e-01 0.0000000000000000e+00 1
-3.3935593994243535e-02 1.5189216882427295e-01 0.0000000000000000e+00 1
-2.5243181676771424e-02 1.5990968717064735e-01 0.0000000000000000e+00 1
-3.6524472081988696e-02 1.6340981229645712e-01 0.0000000000000000e+00 1
-2.7884766353653848e-02 1.7144806656462697e-01 0.0000000000000000e+00 1
-3.9025388161448016e-02 1.7477188173006564e-01 0.0000000000000000e+00 1
-3.0511843574951281e-02 1.8290120096952475e-01 0.0000000000000000e+00 1
-4.1588586500426621e-02 1.8619334790197509e-01 0.0000000000000000e+00 1
-3.3183050195427152e-02 1.9427983819255157e-01 0.0000000000000000e+00 1
-4.4249317768442584e-02 1.9765254691534476e-01 0.0000000000000000e+00 1
-3.5837067606787586e-02 2.0560874439993845e-01 0.0000000000000000e+00 1
-4.7608475345196508e-02 1.6661636582724595e-01 0.0000000000000000e+00 1
-2.8809859764236940e-03 -1.2720503746200193e-01 0.0000000000000000e+00 1
-1.0504012899346087e-02 9.0415421753122796e-02 0.0000000000000000e+00 1
2.6395616230816384e-02 -2.1140957465245017e-01 0.0000000000000000e+00 1
3.7996123710541563e-02 -2.1697706847712053e-01 0.0000000000000000e+00 1
-1.3532281393307258e-02 1.5593748270173977e-01 0.0000000000000000e+00 1
4.6509817696550833e-02 -1.9564873346074876e-01 0.0000000000000000e+00 1
1.5058286674415855e-02 -2.0623856635252277e-01 0.0000000000000000e+00 1
-3.8869771259437198e-02 3.8005725007330585e-02 0.0000000000000000e+00 1
-4.0727577555664543e-02 4.9027619087651325e-02 0.0000000000000000e+00 1
4.2965464675981078e-02 -1.7130046090516943e-01 0.0000000000000000e+00 1
4.3381998370540499e-02 -1.5877587782325880e-01 0.0000000000000000e+00 1
-4.6119060900530973e-02 2.0909918486672874e-01 0.0000000000000000e+00 1
-3.8338996139723865e-02 2.1683146836537601e-01 0.0000000000000000e+00 1
-4.8484077976737795e-02 2.2035681538541863e-01 0.0000000000000000e+00 1
-4.0893753937566078e-02 2.2794164090565563e-01 0.0000000000000000e+00 1
-5.1273679937754543e-02 2.3106663193281796e-01 0.0000000000000000e+00 1
-4.3180652791563419e-02 2.3904564011479854e-01 0.0000000000000000e+00 1
-3.2753948525318696e-02 2.3567842473207873e-01 0.0000000000000000e+00 1
-3.5590031510325144e-02 2.4680414195602562e-01 0.0000000000000000e+00 1
-4.5887075582995179e-02 2.5014357071980936e-01 0.0000000000000000e+00 1
-3.8396686875628042e-02 2.5785568871066178e-01 0.0000000000000000e+00 1
2.8279670616245190e-02 -2.2383316621919799e-01 0.0000000000000000e+00 1
3.9425141846008496e-02 -2.2970902893505787e-01 0.0000000000000000e+00 1
4.9738364144377906e-02 -2.2230677941634533e-01 0.0000000000000000e+00 1
2.7597035790794457e-02 -2.3822080744742727e-01 0.0000000000000000e+00 1
4.0431204817922638e-02 -2.4278652711072379e-01 0.0000000000000000e+00 1
-2.9534165855847443e-04 -1.6374830636073820e-01 0.0000000000000000e+00 1
-2.6576244235856500e-02 2.1397793161982384e-01 0.0000000000000000e+00 1
-4.9254154976583100e-02 2.6081790298892354e-01 0.0000000000000000e+00 1
-4.1555161445429152e-02 2.6889671091776979e-01 0.0000000000000000e+00 1
-5.1818557509375043e-02 2.7153860867447016e-01 0.0000000000000000e+00 1
-4.3941086568125273e-02 2.7958364266542385e-01 0.0000000000000000e+00 1
-1.8991916951736475e-02 1.7937312299150354e-01 0.0000000000000000e+00 1
-4.8850412639901197e-02 4.2425783701995158e-02 0.0000000000000000e+00 1
4.2425279208701525e-02 -6.9132754887725426e-02 0.0000000000000000e+00 1
4.2979366729645856e-02 -8.3163043892458682e-02 0.0000000000000000e+00 1
3.4647263422671534e-02 -9.5123471339132071e-02 0.0000000000000000e+00 1
3.7636875359729628e-02 -1.0725962649458921e-01 0.0000000000000000e+00 1
-5.2187062218695825e-02 1.8895290577031509e-01 0.0000000000000000e+00 1
5.3668001302043751e-02 -1.6583418882146614e-01 0.0000000000000000e+00 1
4.3899319436585732e-02 -1.4565714810136207e-01 0.0000000000000000e+00 1
2.5355972610228490e-02 -3.8940141266916910e-02 0.0000000000000000e+00 1
2.2426440420035144e-02 -2.5932280680401033e-02 0.0000000000000000e+00 1
1.2593524944914666e-02 -3.4581936223079569e-02 0.0000000000000000e+00 1
3.2298376791468644e-02 -1.5973758525359667e-02 0.0000000000000000e+00 1
1.8930381451206207e-02 -1.0784134686479317e-02 0.0000000000000000e+00 1
1.7217253892895870e-02 2.3889323961852555e-03 0.0000000000000000e+00 1
8.6437544954237212e-03 -6.8805744296934401e-03 0.0000000000000000e+00 1
3.1301915456460876e-02 -2.5242669696677389e-01 0.0000000000000000e+00 1
4.2649001157274491e-02 -2.5575743176666438e-01 0.0000000000000000e+00 1
5.2129453170830953e-02 -2.4801740317789053e-01 0.0000000000000000e+00 1
5.3703437183338865e-02 -2.6064722127857620e-01 0.0000000000000000e+00 1
4.4009053657359021e-02 -2.6808187034155706e-01 0.0000000000000000e+00 1
5.5007653043392515e-02 -2.7323354966060404e-01 0.0000000000000000e+00 1
6.3894284361093026e-02 -2.5314985038748794e-01 0.0000000000000000e+00 1
-1.8400847377019511e-02 -6.5893202542965129e-02 0.0000000000000000e+00 1
-1.6776502465321731e-02 -7.5489974622703834e-02 0.0000000000000000e+00 1
-2.7071299906229269e-02 -6.2136845534295930e-02 0.0000000000000000e+00 1
-2.8691835928154961e-02 -5.2833700192936893e-02 0.0000000000000000e+00 1
-3.4794149589192393e-02 -5.8635339480456510e-02 0.0000000000000000e+00 1
-2.6698625944907298e-02 -7.1655647294328884e-02 0.0000000000000000e+00 1
-2.3808366370497578e-02 -8.1222548649573248e-02 0.0000000000000000e+00 1
-1.5355881213702988e-02 -8.4882028842504634e-02 0.0000000000000000e+00 1
-3.1632648300682666e-02 -7.9011387724243293e-02 0.0000000000000000e+00 1
-2.2773560352435964e-02 -9.0637254446942983e-02 0.0000000000000000e+00 1
-1.4182597618825527e-02 -9.4171931919653493e-02 0.0000000000000000e+00 1
-2.1917942722505850e-02 -1.0095728434430334e-01 0.0000000000000000e+00 1
-2.1845270667982093e-02 -4.6098990481745934e-02 0.0000000000000000e+00 1
-3.0621610125918873e-02 -4.2915861378512547e-02 0.0000000000000000e+00 1
-3.2813587159652310e-02 -3.2752734171359210e-02 0.0000000000000000e+00 1
-3.9098144717672624e-02 -3.9447013817829828e-02 0.0000000000000000e+00 1
-2.6098889488146600e-02 -2.5780532311875784e-02 0.0000000000000000e+00 1
-3.4441172776411989e-02 -2.2570951383645399e-02 0.0000000000000000e+00 1
-3.8875886579544681e-02 -1.2925799767990411e-02 0.0000000000000000e+00 1
-3.0713077080791077e-02 -5.4749050051488357e-03 0.0000000000000000e+00 1
-3.3120914485664975e-02 4.7394686505462707e-03 0.0000000000000000e+00 1
1.6167837525915319e-02 -4.7189422517170336e-02 0.0000000000000000e+00 1
4.4855303852356400e-02 -2.8080094453414489e-01 0.0000000000000000e+00 1
5.6201655985033412e-02 -2.8578059915225945e-01 0.0000000000000000e+00 1
4.6237239908565514e-02 -2.9306776811004798e-01 0.0000000000000000e+00 1
5.7627085362874038e-02 -2.9772328837494322e-01 0.0000000000000000e+00 1
6.7739282027331621e-02 -2.9118644472609906e-01 0.0000000000000000e+00 1
6.9312622072139909e-02 -3.0380657730386690e-01 0.0000000000000000e+00 1
5.9407364145513314e-02 -3.0960351082503224e-01 0.0000000000000000e+00 1
6.9931258042590996e-02 -3.1479499285283780e-01 0.0000000000000000e+00 1
5.9545777847933759e-02 -3.2048879787092405e-01 0.0000000000000000e+00 1
7.0717613564583962e-02 -3.2615969224219515e-01 0.0000000000000000e+00 1
-4.2503118997511136e-02 9.2961078841144393e-03 0.0000000000000000e+00 1
-4.4991722131228935e-02 1.9829887770327920e-02 0.0000000000000000e+00 1
-3.6534730954735924e-02 2.7291818568058970e-02 0.0000000000000000e+00 1
-5.4803402072823061e-02 2.0147794477041658e-01 0.0000000000000000e+00 1
7.9263973191273485e-02 -3.3325544936552776e-01 0.0000000000000000e+00 1
7.5030690330797428e-02 -3.4264939891508478e-01 0.0000000000000000e+00 1
7.9394965329836753e-02 -3.5179681088727482e-01 0.0000000000000000e+00 1
6.9838895093766645e-02 -3.5130578979759913e-01 0.0000000000000000e+00 1
7.4178255066852328e-02 -3.6109558649219486e-01 0.0000000000000000e+00 1
6.2885247824487234e-02 -3.4202459000333180e-01 0.0000000000000000e+00 1
6.2831759334126824e-04 -1.7458446639157887e-01 0.0000000000000000e+00 1
7.6954896422105684e-04 -7.3960912505329643e-02 0.0000000000000000e+00 1
5.0322654937525961e-02 -1.1063669259065584e-01 0.0000000000000000e+00 1
4.0908671547008890e-02 -1.2005517621976214e-01 0.0000000000000000e+00 1
-4.8990211623000657e-02 3.9206398912831270e-01 0.0000000000000000e+00 1
-4.8085622690973093e-02 1.2460292266090872e-01 0.0000000000000000e+00 1
-4.9945817457354588e-02 1.3529238764968768e-01 0.0000000000000000e+00 1
-4.5744298976467396e-02 1.1336926661117802e-01 0.0000000000000000e+00 1
-5.5438016909269319e-02 1.0571728879009901e-01 0.0000000000000000e+00 1
-3.8282286942594085e-02 7.8942993167557235e-02 0.0000000000000000e+00 1
-4.6031290892148254e-02 7.2310190519027387e-02 0.0000000000000000e+00 1
-4.0565557508607866e-02 9.0752647368426434e-02 0.0000000000000000e+00 1
2.7092331694449318e-02 1.1489804016936408e-02 0.0000000000000000e+00 1
1.4933876035667893e-02 1.5898479041036744e-02 0.0000000000000000e+00 1
1.1959393214911854e-02 2.9525268035449564e-02 0.0000000000000000e+00 1
2.1646130131241215e-02 3.8686692169497598e-02 0.0000000000000000e+00 1
9.4462129419328918e-03 4.2760511504894488e-02 0.0000000000000000e+00 1
5.3248314188446598e-03 5.7163278619320891e-02 0.0000000000000000e+00 1
1.5602386438257192e-02 6.5122434805062926e-02 0.0000000000000000e+00 1
1.3497518992192314e-02 7.9203048193443620e-02 0.0000000000000000e+00 1
-4.6588807698032697e-02 1.5427879971447950e-01 0.0000000000000000e+00 1
9.0985151353069685e-02 -3.9422789162486976e-01 0.0000000000000000e+00 1
-3.2785208032226058e-02 3.0877387198410478e-01 0.0000000000000000e+00 1
-4.3401777855917159e-02 3.1257329426215175e-01 0.0000000000000000e+00 1
-4.5413637177193218e-02 3.2375070528993938e-01 0.0000000000000000e+00 1
-5.3723472457797058e-02 3.1762656400535771e-01 0.0000000000000000e+00 1
-5.2533632601810112e-02 3.0583255753395316e-01 0.0000000000000000e+00 1
-3.7346812236680745e-02 3.3110659202334042e-01 0.0000000000000000e+00 1
-4.7455678283830696e-02 3.3438480842905144e-01 0.0000000000000000e+00 1
-3.9402719989877918e-02 3.4194341002807466e-01 0.0000000000000000e+00 1
-4.9458598602688211e-02 3.4641182973865708e-01 0.0000000000000000e+00 1
-4.1509773952499315e-02 3.0154452241203122e-01 0.0000000000000000e+00 1
-4.8985389533291929e-02 2.9535990323790645e-01 0.0000000000000000e+00 1
-2.7686620467604214e-02 2.8561395389417865e-01 0.0000000000000000e+00 1
-2.2297669026207220e-02 2.6161426819070599e-01 0.0000000000000000e+00 1
-2.0429028297534721e-02 2.3626938608552836e-01 0.0000000000000000e+00 1
-1.4114079726916598e-02 2.1099095357385247e-01 0.0000000000000000e+00 1
6.0973799606435848e-02 -3.6828229750248642e-01 0.0000000000000000e+00 1
-4.2165725260375556e-02 1.4310552112938565e-01 0.0000000000000000e+00 1
2.1105462973158417e-03 1.9680460223735517e-02 0.0000000000000000e+00 1
3.0287112406461238e-02 -1.2877502303877802e-01 0.0000000000000000e+00 1
-3.5811148367059543e-02 -8.5646453034907685e-02 0.0000000000000000e+00 1
-4.2057811046668087e-03 -1.1582236782026652e-01 0.0000000000000000e+00 1
-1.5076281272815736e-02 -1.1094525445715576e-01 0.0000000000000000e+00 1
5.3301605008295697e-04 8.2762574210658274e-02 0.0000000000000000e+00 1
-4.0464917699612017e-02 -1.6979979184645565e-03 0.0000000000000000e+00 1
-5.9790004976672098e-02 2.2154172029214303e-01 0.0000000000000000e+00 1
-2.6834745753141161e-02 -1.1114888343676194e-01 0.0000000000000000e+00 1
-5.6228771476891828e-02 2.5224095196857382e-01 0.0000000000000000e+00 1
-3.3403836486393793e-02 5.6320860715634032e-02 0.0000000000000000e+00 1
-1.0505853148001078e-03 1.4644065809798804e-01 0.0000000000000000e+00 1
9.5774278273196581e-02 -4.4594635952079392e-01 0.0000000000000000e+00 1
9.3812276698350239e-02 -4.4192904595639004e-01 0.0000000000000000e+00 1
6.5181412176208417e-02 -2.6565378036092974e-01 0.0000000000000000e+00 1
3.1297601548127225e-02 -2.7488990110563155e-01 0.0000000000000000e+00 1
8.2539288164942097e-03 1.0658372640363269e-01 0.0000000000000000e+00 1
5.3936185150946156e-03 1.1970915000105951e-01 0.0000000000000000e+00 1
-6.5728696869221791e-03 1.2271427644964993e-01 0.0000000000000000e+00 1
8.2525405912371341e-02 -3.7731001935053216e-01 0.0000000000000000e+00 1
-1.6535946218086940e-02 -1.4347073354224454e-01 0.0000000000000000e+00 1
-5.0546985846781495e-03 -1.4579499030080389e-01 0.0000000000000000e+00 1
5.5142691052806087e-02 -1.3737097449314037e-01 0.0000000000000000e+00 1
4.7652254161188644e-02 -3.2472769454873301e-01 0.0000000000000000e+00 1
-8.7534673051242289e-03 1.8660016422274769e-01 0.0000000000000000e+00 1
5.3560622086098554e-02 -3.4778080064069899e-01 0.0000000000000000e+00 1
5.0698353191648574e-02 -2.3516394572909685e-01 0.0000000000000000e+00 1
6.1649800581441726e-02 -2.2757145694500436e-01 0.0000000000000000e+00 1
5.8747695218412062e-02 -2.1293738005093132e-01 0.0000000000000000e+00 1
6.4404223377489189e-02 -1.8821366343932880e-01 0.0000000000000000e+00 1
5.2753335799531356e-02 -1.8478741884579528e-01 0.0000000000000000e+00 1
4.7568613884459356e-02 -2.0905269787253869e-01 0.0000000000000000e+00 1
-3.9195558817952197e-02 2.8975327713671678e-01 0.0000000000000000e+00 1
1.4948854796301521e-02 -2.3874677989852408e-01 0.0000000000000000e+00 1
-4.3549336512027081e-02 5.9866871445804992e-02 0.0000000000000000e+00 1
-2.0306373935350633e-02 -1.3237422905195581e-01 0.0000000000000000e+00 1
8.0997165480063749e-02 -3.0990949181166455e-01 0.0000000000000000e+00 1
1.3060976118956364e-02 -1.9384690807257335e-01 0.0000000000000000e+00 1
7.9350282798972563e-02 -2.8692266611331679e-01 0.0000000000000000e+00 1
6.6186988683125558e-02 -2.7876708123398775e-01 0.0000000000000000e+00 1
-5.5136567995771567e-02 1.5994329872808086e-01 0.0000000000000000e+00 1
-6.4251674277279333e-02 3.5114072750909459e-01 0.0000000000000000e+00 1
1.1722917270886996e-02 -1.8102126982109537e-01 0.0000000000000000e+00 1
-6.3748179673684083e-02 3.3248676925910209e-01 0.0000000000000000e+00 1
-4.6052903878437870e-02 -3.3784360988117289e-02 0.0000000000000000e+00 1
-4.8246067491020034e-02 -7.4865589029742552e-03 0.0000000000000000e+00 1
-6.3363252704016243e-02 3.1315156365146740e-01 0.0000000000000000e+00 1
-6.3611349087055596e-02 2.9348853356990939e-01 0.0000000000000000e+00 1
-6.2384597753873089e-02 2.7377125557751003e-01 0.0000000000000000e+00 1
-5.5635682412810361e-02 7.7237490091018199e-02 0.0000000000000000e+00 1
9.6483426068307801e-02 -4.4029608577263785e-01 0.0000000000000000e+00 1
-5.9285573777979807e-02 1.6908739301372172e-01 0.0000000000000000e+00 1
-5.8048600992207502e-02 1.2846405542589828e-01 0.0000000000000000e+00 1
3.1455240130671705e-02 -1.5400290623921367e-01 0.0000000000000000e+00 1
3.0061243338443556e-03 -2.0185289367187864e-01 0.0000000000000000e+00 1
-4.7483270232100715e-02 -1.6191641287596408e-02 0.0000000000000000e+00 1
2.5547137593972650e-02 -1.0556798379634387e-01 0.0000000000000000e+00 1
-2.1271932717044768e-02 1.9070650253255905e-01 0.0000000000000000e+00 1
-2.9284702960419053e-02 2.2564617536743903e-01 0.0000000000000000e+00 1
-4.0951825151157334e-02 -6.4071842017310782e-02 0.0000000000000000e+00 1
-2.3728367209324048e-02 2.0239860970404647e-01 0.0000000000000000e+00 1
5.3046517006153527e-03 -4.5144981728891379e-02 0.0000000000000000e+00 1
-1.6061250855631762e-02 1.6737107588894717e-01 0.0000000000000000e+00 1
3.1331580324014112e-02 -7.5889543079869087e-02 0.0000000000000000e+00 1
-3.3936340629685605e-02 -6.6509262509949804e-02 0.0000000000000000e+00 1
-1.2763459582092093e-02 1.0240149856952048e-01 0.0000000000000000e+00 1
3.7400606045592470e-02 -3.0128963785764995e-01 0.0000000000000000e+00 1
1.2176184995524699e-02 -2.0389791543512975e-02 0.0000000000000000e+00 1
-3.7067706728471260e-03 1.1071888661665984e-01 0.0000000000000000e+00 1
-7.6890476347311687e-03 -7.9746605849198418e-02 0.0000000000000000e+00 1
-1.0304017394684136e-02 3.8173504257880568e-02 0.0000000000000000e+00 1
2.3222258021001953e-02 -9.3352729193904457e-02 0.0000000000000000e+00 1
-4.9755606551503573e-02 1.7759439456256590e-01 0.0000000000000000e+00 1
-5.5018577046058184e-02 3.2798629235899573e-01 0.0000000000000000e+00 1
-4.9254859756674124e-02 4.0329957820795936e-01 0.0000000000000000e+00 1
6.8724857873608198e-05 -1.5257834313629507e-02 0.0000000000000000e+00 1
-4.4795437971260767e-02 3.9692980171963343e-01 0.0000000000000000e+00 1
7.6335266630531071e-02 -2.6285215209909513e-01 0.0000000000000000e+00 1
6.1734813998776464e-04 3.4921639784753281e-02 0.0000000000000000e+00 1
-3.0865918511834178e-02 -1.0322927261608020e-01 0.0000000000000000e+00 1
-2.2415767193858628e-03 1.6035741774363635e-01 0.0000000000000000e+00 1
-1.2952037645287212e-02 -1.2238747790159452e-01 0.0000000000000000e+00 1
4.2486726241959469e-02 -1.3281279246362679e-01 0.0000000000000000e+00 1
-1.1376567630818246e-03 9.8638626331799817e-02 0.0000000000000000e+00 1
7.6395589462347410e-02 -2.5110527617097389e-01 0.0000000000000000e+00 1
1.6722721665599755e-03 -3.6098405311401703e-02 0.0000000000000000e+00 1
-5.4278140355283340e-02 6.6713482560556495e-02 0.0000000000000000e+00 1
-1.3555447181837824e-02 1.4436860154383283e-01 0.0000000000000000e+00 1
7.8294351445895888e-02 -4.1252649439153966e-01 0.0000000000000000e+00 1
-1.7972103251899914e-02 1.2572452921490976e-01 0.0000000000000000e+00 1
7.7051356379034860e-02 -3.7001592284018520e-01 0.0000000000000000e+00 1
-4.2051679285292104e-02 -5.5950683298222899e-02 0.0000000000000000e+00 1
6.7883048840193388e-03 6.8818421254674602e-03 0.0000000000000000e+00 1
-5.0545840921936078e-02 9.4357048136018098e-02 0.0000000000000000e+00 1
-5.5307073338848087e-02 4.0942120707857577e-01 0.0000000000000000e+00 1
-6.0138523509298582e-02 4.0881938878114216e-01 0.0000000000000000e+00 1
-5.3642577673031773e-02 2.8123907127193698e-01 0.0000000000000000e+00 1
-5.0914102524959037e-02 1.1526717748263427e-02 0.0000000000000000e+00 1
-2.0167739725719409e-03 -3.5570962495272990e-03 0.0000000000000000e+00 1
-1.0098118221331411e-02 -1.3493983800555193e-01 0.0000000000000000e+00 1
5.9362300018084031e-03 -2.1450080167784139e-01 0.0000000000000000e+00 1
-6.1775820988341223e-02 2.3340683812615501e-01 0.0000000000000000e+00 1
6.0105937349580224e-02 -2.4064820115928540e-01 0.0000000000000000e+00 1
6.0079926052182278e-02 -3.3114633250829045e-01 0.0000000000000000e+00 1
-4.8029807001842492e-02 8.3558780408144323e-02 0.0000000000000000e+00 1
-1.9592182434430530e-03 4.6454896209237845e-02 0.0000000000000000e+00 1
-1.0269339983697723e-02 7.9313642272263396e-02 0.0000000000000000e+00 1
9.0877785114129181e-02 -3.7391827327573229e-01 0.0000000000000000e+00 1
1.8593212973397413e-02 -2.5191237093222274e-01 0.0000000000000000e+00 1
-5.6266200558735435e-02 3.3835890926780948e-01 0.0000000000000000e+00 1
-8.4027744414152377e-03 1.6586250079316210e-02 0.0000000000000000e+00 1
-8.4999817990947732e-03 -8.8250208400943414e-02 0.0000000000000000e+00 1
-6.1173707676561342e-02 4.1641507600685185e-01 0.0000000000000000e+00 1
6.4184762390718686e-02 -3.7837351365798166e-01 0.0000000000000000e+00 1
4.8805356038605655e-02 -3.0503751865805756e-01 0.0000000000000000e+00 1
-4.8822600379114935e-02 3.9646246947357383e-01 0.0000000000000000e+00 1
-5.8832535965001195e-02 1.3905684656294601e-01 0.0000000000000000e+00 1
-1.0042603587340942e-02 -1.6750182867030139e-01 0.0000000000000000e+00 1
9.1853508193659214e-02 -4.4335073206639419e-01 0.0000000000000000e+00 1
-5.1431591564592448e-02 3.8269471353262446e-01 0.0000000000000000e+00 1
-3.5764399370394162e-02 -4.9348273841620882e-02 0.0000000000000000e+00 1
-5.7388657647477019e-03 5.6320603282474166e-02 0.0000000000000000e+00 1
-6.4618259046490198e-02 4.2249484086302042e-01 0.0000000000000000e+00 1
7.3409255606018062e-02 -2.2636476883233636e-01 0.0000000000000000e+00 1
5.9516783659746336e-03 7.0516681884921606e-02 0.0000000000000000e+00 1
-6.1678231229188370e-02 1.9208237994267541e-01 0.0000000000000000e+00 1
-5.2725501019609350e-02 2.4241620164802197e-01 0.0000000000000000e+00 1
8.8971134734877944e-02 -3.5363926781309746e-01 0.0000000000000000e+00 1
-5.4770965222588890e-02 4.9486281202555014e-02 0.0000000000000000e+00 1
-4.5111169140449367e-02 3.9064054137211235e-01 0.0000000000000000e+00 1
-6.7693354008758880e-02 4.2073993402400245e-01 0.0000000000000000e+00 1
9.2691828926254979e-02 -4.3822480940632880e-01 0.0000000000000000e+00 1
6.9728523187134545e-02 -2.1574188318278317e-01 0.0000000000000000e+00 1
-6.5547209256547015e-02 4.1707914951966329e-01 0.0000000000000000e+00 1
-3.8247780882775390e-02 -7.7960910249631934e-02 0.0000000000000000e+00 1
-9.5135177930345954e-03 1.3479926631416958e-01 0.0000000000000000e+00 1
1.7533723688386214e-02 -2.1831596476861123e-01 0.0000000000000000e+00 1
-5.3226991362454207e-02 1.9259700078628827e-02 0.0000000000000000e+00 1
8.2956015744813066e-02 -4.2609108540744572e-01 0.0000000000000000e+00 1
-3.4315257477153097e-02 2.7790298757808252e-01 0.0000000000000000e+00 1
5.4911739620656583e-02 -2.0249842510185037e-01 0.0000000000000000e+00 1
-3.1986900897200250e-02 2.6565598860734851e-01 0.0000000000000000e+00 1
-8.3165508458991986e-04 -1.3698580064308544e-01 0.0000000000000000e+00 1
5.1157174570517987e-02 -3.1511149276674039e-01 0.0000000000000000e+00 1
-3.9924653715765548e-02 -2.8868722624103626e-02 0.0000000000000000e+00 1
2.2984000736152977e-04 -1.5370273153039091e-01 0.0000000000000000e+00 1
-4.4735424945920296e-02 3.1598078858170141e-02 0.0000000000000000e+00 1
-2.9290780925623140e-02 2.5405568009478680e-01 0.0000000000000000e+00 1
3.4750434183230233e-02 -2.6268714768656892e-01 0.0000000000000000e+00 1
-5.1239352322056286e-02 1.4442294742085746e-01 0.0000000000000000e+00 1
8.3796105510852301e-02 -3.9168985936494699e-01 0.0000000000000000e+00 1
8.7243496290794489e-02 -4.1942568260016316e-01 0.0000000000000000e+00 1
-1.2903490020297094e-02 -1.0183299759617452e-01 0.0000000000000000e+00 1
6.5525475585977350e-02 -3.6000361018657806e-01 0.0000000000000000e+00 1
-5.8093256941126714e-02 3.4640696101705742e-01 0.0000000000000000e+00 1
6.9220930630668615e-02 -3.6997610558550753e-01 0.0000000000000000e+00 1
-6.3674246807930615e-02 2.0096801084430804e-01 0.0000000000000000e+00 1
4.2771086363665098e-02 -1.8390140323634743e-01 0.0000000000000000e+00 1
-4.8490670232362240e-02 3.5673382778237811e-01 0.0000000000000000e+00 1
-8.2650585911366783e-03 -1.7871506177112664e-01 0.0000000000000000e+00 1
8.8382957299234149e-02 -4.3690191332132439e-01 0.0000000000000000e+00 1
6.9595490192664866e-02 -3.3504709260688598e-01 0.0000000000000000e+00 1
-5.1906148352809309e-02 3.7175349727939250e-01 0.0000000000000000e+00 1
-4.6307096539487169e-02 -4.1115759724582299e-02 0.0000000000000000e+00 1
-6.4853600025647620e-02 2.5277139565801321e-01 0.0000000000000000e+00 1
8.6013604857743897e-02 -4.3175033348387909e-01 0.0000000000000000e+00 1
-4.7128500213417253e-02 2.8733832170660867e-01 0.0000000000000000e+00 1
-5.9100563399378497e-02 9.6925975121074773e-02 0.0000000000000000e+00 1
-5.5625248430251614e-02 2.8996113805453033e-01 0.0000000000000000e+00 1
-2.8481548266974226e-02 -8.6626701188148442e-02 0.0000000000000000e+00 1
-2.7468717132772467e-02 2.4325112493224763e-01 0.0000000000000000e+00 1
8.2199548435120423e-02 -3.6122378452200693e-01 0.0000000000000000e+00 1
-4.7876979384081891e-02 5.2841056036310237e-02 0.0000000000000000e+00 1
-5.3490819559642667e-02 3.5324031879881937e-02 0.0000000000000000e+00 1
6.3752645205326669e-02 -1.6272041873859025e-01 0.0000000000000000e+00 1
8.4486787889996293e-02 -3.6928792551371620e-01 0.0000000000000000e+00 1
-5.6948955153430528e-02 2.9781891312137065e-01 0.0000000000000000e+00 1
-4.6111394142776110e-02 3.9395869738810979e-01 0.0000000000000000e+00 1
6.1467619711172219e-02 -3.5061149931869190e-01 0.0000000000000000e+00 1
-6.3022167729274228e-03 -9.6226328397392008e-02 0.0000000000000000e+00 1
-3.4052260348576321e-02 -7.2992346463243693e-02 0.0000000000000000e+00 1
5.2223801460956447e-02 -1.7542995296290639e-01 0.0000000000000000e+00 1
-6.8641866914454411e-02 4.2390916577713328e-01 0.0000000000000000e+00 1
-4.8596279468469811e-02 3.8780076293675297e-01 0.0000000000000000e+00 1
2.0195449689365975e-02 -2.3043589467186992e-01 0.0000000000000000e+00 1
8.4297782220391054e-02 -4.1425631408439439e-01 0.0000000000000000e+00 1
8.8113339644042166e-02 -3.3198143753345744e-01 0.0000000000000000e+00 1
5.6365388940782024e-02 -1.9379118698863368e-01 0.0000000000000000e+00 1
-5.3893998872456772e-02 2.1295025769079998e-01 0.0000000000000000e+00 1
3.0740633750005131e-02 -8.5682147046407378e-02 0.0000000000000000e+00 1
-4.1889739316283731e-02 -2.0278183836814016e-02 0.0000000000000000e+00 1
-6.3183796473420234e-02 4.0044110832454388e-01 0.0000000000000000e+00 1
-6.2641659934266611e-02 1.5909109240264827e-01 0.0000000000000000e+00 1
6.9815076155362782e-02 -3.9731862847291788e-01 0.0000000000000000e+00 1

Edges
182
1 2 1
2 3 1
3 4 1
4 5 1
5 6 1
6 7 1
7 8 1
8 9 1
9 10 1
10 11 1
11 12 1
12 13 1
13 14 1
14 15 1
15 16 1
16 17 1
17 18 1
18 19 1
19 20 1
20 21 1
21 22 1
22 23 1
23 24 1
24 25 1
25 26 1
26 27 1
27 28 1
28 29 1
29 30 1
30 31 1
31 32 1
32 33 1
33 34 1
34 35 1
35 36 1
36 37 1
37 38 1
38 39 1
39 40 1
40 41 1
41 42 1
42 43 1
43 44 1
44 45 1
45 46 1
46 47 1
47 48 1
48 49 1
49 50 1
50 51 1
51 52 1
52 53 1
53 54 1
54 55 1
55 56 1
56 57 1
57 58 1
58 59 1
59 60 1
60 61 1
61 62 1
62 63 1
63 64 1
64 65 1
65 66 1
66 67 1
67 68 1
68 69 1
69 70 1
70 71 1
71 72 1
72 73 1
73 74 1
74 75 1
75 76 1
76 77 1
77 78 1
78 79 1
79 80 1
80 81 1
81 82 1
82 83 1
83 84 1
84 85 1
85 86 1
86 87 1
87 88 1
88 89 1
89 90 1
90 91 1
91 92 1
92 93 1
93 94 1
94 95 1
95 96 1
96 97 1
97 98 1
98 99 1
99 100 1
100 101 1
101 102 1
102 103 1
103 104 1
104 105 1
105 106 1
106 107 1
107 108 1
108 109 1
109 110 1
110 111 1
111 112 1
112 113 1
113 114 1
114 115 1
115 116 1
116 117 1
117 118 1
118 119 1
119 120 1
120 121 1
121 122 1
122 123 1
123 124 1
124 125 1
125 126 1
126 127 1
127 128 1
128 129 1
129 130 1
130 131 1
131 132 1
132 133 1
133 134 1
134 135 1
135 136 1
136 137 1
137 138 1
138 139 1
139 140 1
140 141 1
141 142 1
142 143 1
143 144 1
144 145 1
145 146 1
146 147 1
147 148 1
148 149 1
149 150 1
150 151 1
151 152 1
152 153 1
153 154 1
154 155 1
155 156 1
156 157 1
157 158 1
158 159 1
159 160 1
160 161 1
161 162 1
162 163 1
163 164 1
164 165 1
165 166 1
166 167 1
167 168 1
168 169 1
169 170 1
170 171 1
171 172 1
172 173 1
173 174 1
174 175 1
175 176 1
176 177 1
177 178 1
178 179 1
179 180 1
180 181 1
181 182 1
182 1 1

Triangles
1234
20 21 531 1
512 397 574 1
338 340 517 1
243 115 645 1
224 512 574 1
309 423 583 1
221 464 466 1
198 497 556 1
222 280 631 1
218 408 410 1
189 520 524 1
497 198 665 1
465 539 619 1
131 132 646 1
355 420 598 1
520 446 524 1
417 350 480 1
329 521 622 1
195 163 485 1
244 647 676 1
390 203 420 1
163 164 485 1
50 252 265 1
583 427 591 1
404 549 624 1
428 404 624 1
476 236 541 1
521 329 640 1
420 355 569 1
225 503 562 1
220 20 531 1
539 236 619 1
517 355 598 1
217 461 462 1
127 128 253 1
520 189 597 1
236 476 619 1
265 252 270 1
494 329 637 1
444 184 446 1
350 417 572 1
464 221 552 1
190 550 602 1
274 507 674 1
516 308 608 1
461 217 554 1
269 245 628 1
203 390 419 1
224 407 513 1
550 487 602 1
423 309 601 1
467 187 522 1
43 44 528 1
308 516 626 1
608 308 614 1
114 115 243 1
208 530 555 1
461 554 555 1
503 502 562 1
407 224 574 1
256 241 528 1
329 494 640 1
572 416 587 1
218 410 564 1
434 530 593 1
427 608 614 1
654 263 667 1
390 420 569 1
434 593 600 1
138 237 272 1
44 256 528 1
199 553 558 1
578 384 596 1
384 527 596 1
455 467 522 1
554 208 555 1
210 578 596 1
417 416 572 1
350 338 517 1
507 246 674 1
47 249 255 1
527 384 603 1
530 208 593 1
446 184 595 1
340 355 517 1
280 261 631 1
422 424 425 1
484 195 485 1
21 227 531 1
132 269 649 1
205 434 600 1
422 425 583 1
477 199 558 1
524 446 595 1
609 192 620 1
273 279 678 1
408 218 525 1
488 609 620 1
255 262 647 1
264 49 265 1
434 205 618 1
153 206 523 1
188 468 662 1
617 395 642 1
216 513 576 1
506 246 507 1
425 427 583 1
543 639 648 1
607 439 636 1
635 268 678 1
300 356 451 1
193 406 661 1
47 48 249 1
205 543 618 1
544 543 648 1
450 185 636 1
451 356 452 1
453 561 571 1
449 451 452 1
257 230 258 1
406 193 633 1
260 258 261 1
209 617 642 1
83 194 424 1
449 452 660 1
306 345 455 1
447 316 448 1
221 466 471 1
543 205 639 1
137 138 272 1
482 195 484 1
266 635 678 1
440 437 580 1
266 243 635 1
217 462 552 1
59 60 552 1
513 407 576 1
295 316 447 1
49 50 265 1
423 422 583 1
272 237 273 1
41 42 528 1
313 387 469 1
276 248 535 1
412 210 540 1
507 274 670 1
248 276 666 1
48 49 264 1
281 223 610 1
250 127 253 1
315 516 594 1
152 153 523 1
455 345 467 1
424 194 425 1
245 269 611 1
567 379 588 1
279 273 674 1
332 627 695 1
418 201 588 1
540 216 573 1
228 502 589 1
257 258 260 1
438 447 448 1
280 222 590 1
435 437 440 1
263 264 667 1
516 491 594 1
647 262 676 1
207 527 651 1
82 83 424 1
135 230 257 1
453 522 561 1
111 246 506 1
462 464 552 1
196 77 415 1
560 450 660 1
597 551 615 1
185 607 636 1
435 310 437 1
573 216 576 1
87 197 492 1
280 223 281 1
78 414 415 1
196 415 416 1
492 197 493 1
332 478 585 1
260 261 280 1
255 249 262 1
491 492 493 1
136 137 267 1
477 406 633 1
113 266 279 1
110 111 506 1
426 489 490 1
327 366 488 1
375 418 588 1
415 414 579 1
288 285 456 1
298 300 451 1
279 266 678 1
553 199 570 1
133 251 269 1
90 204 496 1
454 304 455 1
564 410 612 1
333 332 695 1
267 137 272 1
448 450 636 1
457 227 459 1
311 313 469 1
534 344 584 1
450 449 660 1
381 521 599 1
219 564 612 1
456 423 577 1
133 134 251 1
412 540 573 1
191 282 283 1
78 79 414 1
309 583 591 1
292 310 435 1
114 243 266 1
221 59 552 1
268 272 678 1
468 188 653 1
135 136 230 1
468 469 662 1
201 567 588 1
210 412 578 1
527 603 651 1
134 257 707 1
521 204 599 1
240 270 271 1
304 306 455 1
285 283 456 1
477 633 675 1
302 304 454 1
332 289 478 1
502 501 589 1
508 509 548 1
293 295 447 1
539 465 659 1
241 41 528 1
488 366 609 1
556 379 567 1
45 46 566 1
132 133 269 1
533 534 584 1
251 134 707 1
134 135 257 1
495 89 496 1
502 228 562 1
321 357 526 1
500 503 508 1
170 413 644 1
46 47 255 1
60 217 552 1
272 273 678 1
501 504 505 1
496 204 521 1
346 482 484 1
51 52 498 1
357 487 550 1
214 75 479 1
77 78 415 1
499 500 508 1
191 80 282 1
491 493 594 1
235 275 276 1
52 248 498 1
479 417 480 1
214 479 480 1
426 194 489 1
115 200 645 1
501 242 504 1
269 628 649 1
459 227 582 1
454 455 522 1
413 170 689 1
480 350 517 1
421 212 422 1
189 551 597 1
420 203 538 1
44 45 256 1
284 283 285 1
438 448 636 1
86 87 492 1
93 207 533 1
421 422 423 1
448 316 449 1
287 288 290 1
452 356 453 1
269 251 611 1
499 242 500 1
46 255 566 1
441 440 443 1
241 256 529 1
88 89 495 1
437 438 439 1
247 654 667 1
290 291 292 1
519 341 520 1
282 212 421 1
448 449 450 1
286 285 287 1
425 194 426 1
194 84 489 1
436 435 440 1
227 457 531 1
425 426 427 1
113 114 266 1
533 207 534 1
89 90 496 1
292 293 310 1
108 242 499 1
415 579 705 1
212 82 424 1
530 433 555 1
483 348 515 1
437 310 438 1
191 283 284 1
297 292 435 1
112 113 279 1
106 238 510 1
525 209 642 1
526 357 550 1
440 580 696 1
283 282 421 1
325 327 488 1
28 29 514 1
493 197 494 1
246 112 279 1
104 234 511 1
504 110 506 1
214 480 598 1
226 471 472 1
523 206 704 1
210 97 540 1
102 231 512 1
489 213 490 1
371 379 497 1
508 503 509 1
335 341 519 1
490 516 608 1
100 224 513 1
421 423 456 1
283 421 456 1
439 438 636 1
287 285 288 1
348 349 515 1
206 470 704 1
418 470 641 1
510 238 548 1
196 416 417 1
295 298 316 1
500 242 501 1
38 39 244 1
220 428 624 1
529 244 634 1
577 423 601 1
75 76 479 1
281 610 611 1
230 136 267 1
387 388 413 1
290 292 297 1
242 109 504 1
480 517 598 1
300 302 356 1
486 325 488 1
357 486 487 1
81 212 282 1
227 22 582 1
290 297 478 1
500 501 502 1
548 411 655 1
290 288 291 1
467 345 468 1
284 285 286 1
366 484 485 1
496 521 640 1
270 252 271 1
490 491 516 1
397 512 686 1
377 391 470 1
306 311 345 1
662 413 689 1
79 191 414 1
25 236 539 1
490 213 491 1
313 317 387 1
519 520 597 1
510 548 655 1
238 499 508 1
331 289 332 1
321 323 357 1
239 28 514 1
351 537 661 1
388 526 550 1
292 291 293 1
327 342 366 1
544 202 656 1
79 80 191 1
342 346 484 1
346 348 482 1
505 506 507 1
380 337 519 1
369 371 497 1
238 107 499 1
316 298 451 1
467 468 613 1
371 373 379 1
375 377 418 1
323 325 486 1
85 213 489 1
270 240 604 1
287 290 478 1
289 287 478 1
107 108 499 1
345 311 469 1
234 105 510 1
498 248 666 1
532 92 533 1
493 494 621 1
81 82 212 1
475 669 671 1
418 377 470 1
349 369 515 1
231 103 511 1
202 544 648 1
105 106 510 1
224 101 512 1
366 342 484 1
482 348 483 1
216 99 513 1
204 91 532 1
357 323 486 1
226 472 473 1
207 94 527 1
24 25 539 1
387 317 388 1
74 214 538 1
103 104 511 1
83 84 194 1
337 335 519 1
240 271 275 1
399 408 525 1
92 93 533 1
111 112 246 1
85 86 213 1
297 435 436 1
318 321 526 1
505 504 506 1
380 597 615 1
497 379 556 1
101 102 512 1
427 426 608 1
335 333 341 1
286 287 289 1
109 110 504 1
356 302 454 1
40 41 241 1
108 109 242 1
436 440 441 1
369 497 515 1
87 88 197 1
99 100 513 1
393 395 523 1
106 107 238 1
252 51 498 1
461 460 462 1
310 293 447 1
464 465 466 1
80 81 282 1
387 413 662 1
104 105 234 1
431 433 530 1
408 409 410 1
50 51 252 1
90 91 204 1
102 103 231 1
93 94 207 1
100 101 224 1
98 99 216 1
399 400 408 1
473 474 475 1
96 97 210 1
27 28 239 1
462 463 464 1
197 88 495 1
288 456 577 1
641 470 672 1
458 460 461 1
94 95 527 1
213 86 492 1
116 117 200 1
201 418 641 1
466 465 619 1
30 31 235 1
339 337 380 1
393 394 395 1
25 26 236 1
275 235 709 1
91 92 532 1
76 77 196 1
391 392 393 1
403 542 543 1
645 200 693 1
469 387 662 1
236 26 541 1
232 24 539 1
487 486 620 1
377 378 391 1
500 502 503 1
375 376 377 1
458 459 460 1
428 220 664 1
434 431 530 1
84 85 489 1
27 239 541 1
331 332 333 1
396 398 399 1
23 24 232 1
373 374 375 1
74 75 214 1
537 351 658 1
403 402 542 1
371 372 373 1
446 520 668 1
202 69 545 1
430 431 434 1
426 490 608 1
430 429 431 1
32 33 240 1
385 365 547 1
433 457 458 1
369 370 371 1
527 95 596 1
365 383 547 1
485 164 683 1
223 280 590 1
185 450 679 1
419 215 690 1
464 463 465 1
21 22 227 1
346 347 348 1
72 73 203 1
69 70 545 1
76 196 479 1
431 432 433 1
462 460 463 1
98 216 540 1
405 429 430 1
334 336 572 1
342 343 346 1
70 215 545 1
52 53 248 1
238 508 548 1
325 326 327 1
327 328 342 1
203 73 538 1
70 71 215 1
373 375 588 1
349 368 369 1
470 391 704 1
323 324 325 1
26 27 541 1
545 215 546 1
565 487 620 1
19 20 220 1
321 322 323 1
402 405 542 1
97 98 540 1
453 454 522 1
433 458 555 1
6 7 524 1
9 10 536 1
68 69 202 1
410 409 411 1
332 585 627 1
4 5 184 1
458 457 459 1
10 11 193 1
313 314 317 1
473 472 474 1
73 74 538 1
431 429 432 1
628 254 649 1
16 17 211 1
405 428 429 1
408 400 409 1
54 55 229 1
13 14 199 1
405 430 542 1
7 8 189 1
515 497 665 1
403 543 544 1
220 531 664 1
358 353 406 1
293 294 295 1
383 403 547 1
311 312 313 1
306 307 311 1
240 33 604 1
318 320 321 1
383 402 403 1
399 398 400 1
304 305 306 1
433 432 457 1
300 301 302 1
302 303 304 1
3 4 518 1
6 524 595 1
295 296 298 1
273 237 274 1
298 299 300 1
395 394 396 1
393 392 394 1
9 536 551 1
514 29 629 1
56 57 226 1
413 388 688 1
391 378 392 1
494 197 495 1
402 404 405 1
383 401 402 1
363 365 385 1
336 350 572 1
195 482 568 1
377 376 378 1
17 18 549 1
211 17 549 1
96 210 596 1
403 544 547 1
375 374 376 1
65 66 205 1
58 59 221 1
422 212 424 1
60 61 217 1
365 382 383 1
62 63 208 1
373 372 374 1
655 409 657 1
196 417 479 1
553 362 558 1
251 281 611 1
34 35 247 1
371 370 372 1
364 362 553 1
178 179 560 1
10 193 536 1
334 333 335 1
386 553 570 1
358 406 477 1
501 505 589 1
405 404 428 1
361 359 362 1
494 495 640 1
383 382 401 1
363 364 365 1
402 401 404 1
386 364 553 1
191 284 414 1
175 176 561 1
209 525 680 1
258 230 259 1
382 364 386 1
369 368 370 1
348 347 349 1
458 461 555 1
491 213 492 1
14 15 570 1
365 364 382 1
644 413 688 1
352 351 353 1
361 362 363 1
346 343 347 1
453 356 454 1
330 289 331 1
536 193 537 1
363 362 364 1
244 39 634 1
342 328 343 1
327 326 328 1
468 345 469 1
340 339 351 1
338 337 339 1
336 335 337 1
273 274 674 1
360 359 361 1
325 324 326 1
388 317 526 1
360 361 389 1
61 62 554 1
354 353 358 1
199 477 675 1
360 389 390 1
449 316 451 1
354 358 359 1
457 432 531 1
166 167 565 1
352 353 354 1
323 322 324 1
390 389 419 1
138 139 237 1
7 189 524 1
140 141 233 1
187 467 613 1
8 9 551 1
142 143 228 1
317 318 526 1
118 119 222 1
354 359 360 1
144 145 225 1
340 351 352 1
362 359 558 1
146 147 219 1
256 45 566 1
321 320 322 1
148 149 218 1
22 23 582 1
62 208 554 1
522 187 561 1
317 314 318 1
235 276 277 1
396 397 398 1
150 151 209 1
260 280 281 1
139 140 557 1
141 142 559 1
180 181 185 1
358 477 558 1
174 175 187 1
143 144 562 1
261 258 278 1
168 169 190 1
171 172 188 1
359 358 558 1
165 166 192 1
145 146 563 1
177 178 186 1
153 154 206 1
203 419 690 1
162 163 195 1
313 312 314 1
613 468 653 1
442 441 444 1
147 148 564 1
482 483 568 1
687 606 691 1
340 352 355 1
199 14 570 1
159 160 198 1
156 157 201 1
338 339 340 1
311 307 312 1
360 390 569 1
157 158 567 1
621 494 637 1
548 509 682 1
217 61 554 1
277 276 535 1
306 305 307 1
334 335 336 1
336 337 338 1
304 303 305 1
161 162 568 1
416 415 705 1
438 310 447 1
293 291 294 1
302 301 303 1
474 472 476 1
399 525 642 1
331 333 334 1
300 299 301 1
298 296 299 1
532 533 584 1
295 294 296 1
437 439 580 1
349 367 368 1
537 193 661 1
37 676 681 1
396 394 397 1
352 354 569 1
4 184 518 1
176 177 571 1
336 338 350 1
392 378 407 1
470 206 672 1
286 289 330 1
478 297 585 1
389 673 697 1
445 444 446 1
354 360 569 1
443 518 685 1
374 372 412 1
355 352 569 1
5 6 595 1
271 252 498 1
543 542 618 1
184 444 685 1
370 368 384 1
182 1 575 1
204 532 599 1
208 63 593 1
349 347 367 1
1 2 183 1
318 319 320 1
33 34 604 1
343 328 344 1
376 374 573 1
146 219 563 1
23 232 582 1
142 228 559 1
144 225 562 1
225 145 563 1
219 147 564 1
228 143 562 1
233 141 559 1
140 233 557 1
237 139 557 1
148 218 564 1
334 572 587 1
326 324 381 1
379 373 588 1
430 434 618 1
152 523 617 1
192 166 565 1
331 334 587 1
189 8 551 1
570 15 616 1
201 157 567 1
187 175 561 1
322 320 329 1
344 534 605 1
235 31 709 1
162 195 568 1
265 270 701 1
441 443 685 1
394 392 574 1
318 314 319 1
65 205 600 1
186 178 560 1
536 537 615 1
393 523 704 1
16 211 616 1
538 214 598 1
378 376 576 1
436 441 442 1
503 225 692 1
466 619 677 1
63 64 593 1
463 460 630 1
561 176 571 1
414 284 579 1
372 370 578 1
386 570 616 1
215 419 697 1
274 237 557 1
312 307 315 1
535 248 623 1
254 638 646 1
19 220 624 1
395 396 642 1
549 18 624 1
261 278 481 1
305 303 308 1
54 229 623 1
380 519 597 1
442 444 445 1
328 326 581 1
284 286 579 1
374 412 573 1
291 288 577 1
397 394 574 1
392 407 574 1
330 331 587 1
120 121 223 1
177 186 571 1
299 296 309 1
407 378 576 1
30 235 629 1
471 226 702 1
248 53 623 1
226 473 643 1
606 475 671 1
547 544 656 1
521 381 622 1
412 372 578 1
39 40 634 1
376 573 576 1
294 291 577 1
516 315 626 1
370 384 578 1
286 330 579 1
234 655 657 1
221 471 702 1
151 152 617 1
202 545 703 1
235 277 629 1
249 48 264 1
420 538 598 1
559 228 589 1
193 11 633 1
68 202 648 1
385 546 673 1
565 167 602 1
344 328 581 1
56 226 643 1
72 203 690 1
584 581 599 1
117 118 592 1
326 381 581 1
344 581 584 1
169 170 644 1
314 312 586 1
95 96 596 1
581 381 599 1
353 351 661 1
168 190 602 1
205 66 639 1
1 183 575 1
593 64 600 1
229 55 643 1
384 368 603 1
523 395 617 1
401 652 700 1
463 630 659 1
591 427 614 1
297 436 585 1
3 518 650 1
13 199 675 1
215 71 690 1
167 168 602 1
64 65 600 1
487 565 602 1
453 571 706 1
185 181 607 1
319 314 586 1
181 182 607 1
429 428 664 1
119 120 590 1
366 485 609 1
184 5 595 1
301 299 591 1
264 265 667 1
367 347 605 1
525 218 680 1
312 315 586 1
575 183 580 1
343 344 605 1
174 187 613 1
118 222 592 1
443 440 696 1
198 160 632 1
669 514 671 1
363 385 673 1
401 382 652 1
58 221 702 1
475 606 687 1
436 442 585 1
673 546 697 1
37 38 676 1
586 315 594 1
161 568 632 1
389 361 673 1
556 567 708 1
518 443 650 1
368 367 603 1
156 201 641 1
296 294 601 1
268 267 272 1
347 343 605 1
534 207 651 1
281 251 707 1
299 309 591 1
568 483 632 1
122 123 245 1
262 249 263 1
486 488 620 1
277 535 606 1
471 466 677 1
173 174 613 1
258 259 278 1
226 57 702 1
247 35 654 1
351 339 658 1
170 171 689 1
551 536 615 1
182 575 607 1
381 324 622 1
309 296 601 1
531 432 664 1
410 411 612 1
411 409 655 1
32 240 709 1
121 122 610 1
322 329 622 1
560 179 679 1
294 577 601 1
188 172 653 1
439 575 580 1
240 275 709 1
676 262 681 1
505 507 625 1
329 320 637 1
198 556 708 1
495 496 640 1
308 303 614 1
15 16 616 1
261 481 631 1
34 247 604 1
150 209 680 1
315 307 626 1
29 30 629 1
542 430 618 1
472 471 677 1
183 2 650 1
218 149 680 1
305 308 626 1
206 154 672 1
567 158 708 1
511 234 657 1
367 605 651 1
53 54 623 1
159 198 708 1
656 202 703 1
260 281 707 1
165 192 683 1
559 589 625 1
388 550 688 1
303 301 614 1
460 459 630 1
259 267 268 1
18 19 624 1
11 12 633 1
244 529 647 1
301 591 614 1
575 439 607 1
160 161 632 1
183 650 696 1
209 151 617 1
186 660 706 1
512 231 686 1
276 275 666 1
188 662 689 1
222 119 590 1
180 185 679 1
259 230 267 1
450 560 679 1
324 322 622 1
566 255 647 1
532 584 599 1
2 3 650 1
263 249 264 1
396 399 642 1
465 463 659 1
66 67 639 1
307 305 626 1
582 232 630 1
55 56 643 1
192 565 620 1
126 127 250 1
120 223 590 1
233 559 625 1
200 117 592 1
585 442 627 1
518 184 685 1
459 582 630 1
198 632 665 1
652 211 700 1
155 156 641 1
452 453 706 1
514 629 671 1
442 445 627 1
589 505 625 1
275 271 666 1
42 43 528 1
124 125 254 1
639 67 648 1
36 37 681 1
616 211 652 1
35 36 654 1
605 534 651 1
320 319 637 1
123 124 628 1
173 613 653 1
483 515 665 1
254 646 649 1
192 609 683 1
475 474 669 1
186 560 660 1
330 587 705 1
234 510 655 1
520 341 668 1
229 643 687 1
246 279 674 1
630 232 659 1
341 333 695 1
509 503 692 1
67 68 648 1
529 256 566 1
586 594 621 1
190 169 644 1
223 121 610 1
231 511 663 1
592 222 631 1
274 557 670 1
319 586 621 1
339 380 658 1
476 541 694 1
633 12 675 1
319 621 637 1
229 687 691 1
262 263 681 1
172 173 653 1
669 474 694 1
385 547 656 1
615 537 658 1
587 416 705 1
382 386 652 1
481 645 693 1
257 260 707 1
546 385 703 1
232 539 659 1
550 190 688 1
125 126 638 1
406 353 661 1
660 452 706 1
31 32 709 1
259 268 635 1
155 641 672 1
233 625 670 1
594 493 621 1
239 514 669 1
129 130 253 1
419 389 697 1
409 400 657 1
473 475 687 1
391 393 704 1
619 476 677 1
549 404 700 1
625 507 670 1
444 441 685 1
541 239 694 1
12 13 675 1
122 245 610 1
278 259 635 1
610 245 611 1
411 548 682 1
432 429 664 1
179 180 679 1
404 401 700 1
632 483 665 1
239 669 694 1
654 36 681 1
609 485 683 1
154 155 672 1
657 400 663 1
400 398 663 1
361 363 673 1
623 229 691 1
149 150 680 1
164 165 683 1
563 219 684 1
40 241 634 1
71 72 690 1
250 253 698 1
57 58 702 1
650 443 696 1
271 498 666 1
545 546 703 1
241 529 634 1
474 476 694 1
546 215 697 1
386 616 652 1
603 367 651 1
211 549 700 1
663 398 686 1
231 663 686 1
476 472 677 1
511 657 663 1
557 233 670 1
158 159 708 1
245 123 628 1
445 446 668 1
398 397 686 1
380 615 658 1
171 188 689 1
219 612 684 1
643 473 687 1
225 563 692 1
629 277 671 1
130 131 253 1
277 606 671 1
38 244 676 1
580 183 696 1
529 566 647 1
263 654 681 1
579 330 705 1
571 186 706 1
445 668 695 1
667 265 701 1
612 411 682 1
124 254 628 1
606 535 691 1
604 247 701 1
128 129 253 1
254 125 638 1
563 684 692 1
668 341 695 1
200 592 693 1
278 635 699 1
646 132 649 1
684 509 692 1
682 509 684 1
612 682 684 1
535 623 691 1
592 631 693 1
627 445 695 1
126 250 638 1
190 644 688 1
270 604 701 1
638 250 646 1
635 243 699 1
385 656 703 1
247 667 701 1
481 278 699 1
645 481 699 1
646 250 698 1
631 481 693 1
253 131 698 1
243 645 699 1
131 646 698 1
115 116 200 1

End
