solid surface
  facet normal 0.000000e+00 0.000000e+00 -1.000000e+00
    outer loop
      vertex -5.000000e-03 1.000000e-01 0.000000e+00
      vertex -5.000000e-03 2.000000e-01 0.000000e+00
      vertex 7.885107e-20 -2.775558e-17 0.000000e+00
    endloop
  endfacet
  facet normal 0.000000e+00 0.000000e+00 -1.000000e+00
    outer loop
      vertex -5.000000e-03 2.000000e-01 0.000000e+00
      vertex -5.000000e-03 3.000000e-01 0.000000e+00
      vertex 7.885107e-20 -2.775558e-17 0.000000e+00
    endloop
  endfacet
  facet normal 0.000000e+00 0.000000e+00 -1.000000e+00
    outer loop
      vertex -5.000000e-03 3.000000e-01 0.000000e+00
      vertex -5.000000e-03 4.000000e-01 0.000000e+00
      vertex 7.885107e-20 -2.775558e-17 0.000000e+00
    endloop
  endfacet
  facet normal 0.000000e+00 0.000000e+00 -1.000000e+00
    outer loop
      vertex -5.000000e-03 4.000000e-01 0.000000e+00
      vertex -5.000000e-03 5.000000e-01 0.000000e+00
      vertex 7.885107e-20 -2.775558e-17 0.000000e+00
    endloop
  endfacet
  facet normal 0.000000e+00 0.000000e+00 -1.000000e+00
    outer loop
      vertex -5.000000e-03 5.000000e-01 0.000000e+00
      vertex 5.000000e-03 5.000000e-01 0.000000e+00
      vertex 7.885107e-20 -2.775558e-17 0.000000e+00
    endloop
  endfacet
  facet normal 0.000000e+00 -0.000000e+00 -1.000000e+00
    outer loop
      vertex 5.000000e-03 5.000000e-01 0.000000e+00
      vertex 5.000000e-03 4.000000e-01 0.000000e+00
      vertex 7.885107e-20 -2.775558e-17 0.000000e+00
    endloop
  endfacet
  facet normal 0.000000e+00 -0.000000e+00 -1.000000e+00
    outer loop
      vertex 5.000000e-03 4.000000e-01 0.000000e+00
      vertex 5.000000e-03 3.000000e-01 0.000000e+00
      vertex 7.885107e-20 -2.775558e-17 0.000000e+00
    endloop
  endfacet
  facet normal 0.000000e+00 -0.000000e+00 -1.000000e+00
    outer loop
      vertex 5.000000e-03 3.000000e-01 0.000000e+00
      vertex 5.000000e-03 2.000000e-01 0.000000e+00
      vertex 7.885107e-20 -2.775558e-17 0.000000e+00
    endloop
  endfacet
  facet normal 0.000000e+00 -0.000000e+00 -1.000000e+00
    outer loop
      vertex 5.000000e-03 2.000000e-01 0.000000e+00
      vertex 5.000000e-03 1.000000e-01 0.000000e+00
      vertex 7.885107e-20 -2.775558e-17 0.000000e+00
    endloop
  endfacet
  facet normal 0.000000e+00 -0.000000e+00 -1.000000e+00
    outer loop
      vertex 5.000000e-03 1.000000e-01 0.000000e+00
      vertex 5.000000e-03 1.376121e-12 0.000000e+00
      vertex 7.885107e-20 -2.775558e-17 0.000000e+00
    endloop
  endfacet
  facet normal 0.000000e+00 -0.000000e+00 -1.000000e+00
    outer loop
      vertex 5.000000e-03 1.376121e-12 0.000000e+00
      vertex 5.000000e-03 -1.000000e-01 0.000000e+00
      vertex 7.885107e-20 -2.775558e-17 0.000000e+00
    endloop
  endfacet
  facet normal -0.000000e+00 -0.000000e+00 -1.000000e+00
    outer loop
      vertex 5.000000e-03 -1.000000e-01 0.000000e+00
      vertex 5.000000e-03 -2.000000e-01 0.000000e+00
      vertex 7.885107e-20 -2.775558e-17 0.000000e+00
    endloop
  endfacet
  facet normal -0.000000e+00 -0.000000e+00 -1.000000e+00
    outer loop
      vertex 5.000000e-03 -2.000000e-01 0.000000e+00
      vertex 5.000000e-03 -3.000000e-01 0.000000e+00
      vertex 7.885107e-20 -2.775558e-17 0.000000e+00
    endloop
  endfacet
  facet normal -0.000000e+00 -0.000000e+00 -1.000000e+00
    outer loop
      vertex 5.000000e-03 -3.000000e-01 0.000000e+00
      vertex 5.000000e-03 -4.000000e-01 0.000000e+00
      vertex 7.885107e-20 -2.775558e-17 0.000000e+00
    endloop
  endfacet
  facet normal -0.000000e+00 -0.000000e+00 -1.000000e+00
    outer loop
      vertex 5.000000e-03 -4.000000e-01 0.000000e+00
      vertex 5.000000e-03 -5.000000e-01 0.000000e+00
      vertex 7.885107e-20 -2.775558e-17 0.000000e+00
    endloop
  endfacet
  facet normal 0.000000e+00 0.000000e+00 -1.000000e+00
    outer loop
      vertex 5.000000e-03 -5.000000e-01 0.000000e+00
      vertex -5.000000e-03 -5.000000e-01 0.000000e+00
      vertex 7.885107e-20 -2.775558e-17 0.000000e+00
    endloop
  endfacet
  facet normal 0.000000e+00 0.000000e+00 -1.000000e+00
    outer loop
      vertex -5.000000e-03 -5.000000e-01 0.000000e+00
      vertex -5.000000e-03 -4.000000e-01 0.000000e+00
      vertex 7.885107e-20 -2.775558e-17 0.000000e+00
    endloop
  endfacet
  facet normal 0.000000e+00 0.000000e+00 -1.000000e+00
    outer loop
      vertex -5.000000e-03 -4.000000e-01 0.000000e+00
      vertex -5.000000e-03 -3.000000e-01 0.000000e+00
      vertex 7.885107e-20 -2.775558e-17 0.000000e+00
    endloop
  endfacet
  facet normal 0.000000e+00 0.000000e+00 -1.000000e+00
    outer loop
      vertex -5.000000e-03 -3.000000e-01 0.000000e+00
      vertex -5.000000e-03 -2.000000e-01 0.000000e+00
      vertex 7.885107e-20 -2.775558e-17 0.000000e+00
    endloop
  endfacet
  facet normal 0.000000e+00 0.000000e+00 -1.000000e+00
    outer loop
      vertex -5.000000e-03 -2.000000e-01 0.000000e+00
      vertex -5.000000e-03 -1.000000e-01 0.000000e+00
      vertex 7.885107e-20 -2.775558e-17 0.000000e+00
    endloop
  endfacet
  facet normal 0.000000e+00 0.000000e+00 -1.000000e+00
    outer loop
      vertex -5.000000e-03 -1.000000e-01 0.000000e+00
      vertex -5.000000e-03 -1.376121e-12 0.000000e+00
      vertex 7.885107e-20 -2.775558e-17 0.000000e+00
    endloop
  endfacet
  facet normal 0.000000e+00 0.000000e+00 -1.000000e+00
    outer loop
      vertex -5.000000e-03 -1.376121e-12 0.000000e+00
      vertex -5.000000e-03 1.000000e-01 0.000000e+00
      vertex 7.885107e-20 -2.775558e-17 0.000000e+00
    endloop
  endfacet
endsolid surface
